<?xml version="1.0" encoding="UTF-8"?>
<svg id="_レイヤー_2" data-name="レイヤー 2" xmlns="http://www.w3.org/2000/svg" xmlns:xlink="http://www.w3.org/1999/xlink" viewBox="0 0 285.77 419.71">
  <defs>
    <style>
      .cls-1 {
        fill: #9287ae;
      }

      .cls-2 {
        fill: #ba8a72;
      }

      .cls-3 {
        fill: #9796b7;
      }

      .cls-4 {
        fill: #afa0b9;
      }

      .cls-5 {
        fill: #f8d6bf;
      }

      .cls-6 {
        fill: #d8d6e1;
      }

      .cls-7 {
        fill: #9d92b6;
      }

      .cls-8 {
        fill: #d3a06d;
      }

      .cls-9 {
        fill: #9f94b8;
      }

      .cls-10 {
        fill: #9d94b6;
      }

      .cls-11 {
        fill: #c6c1d2;
      }

      .cls-12 {
        fill: #dddde5;
      }

      .cls-13 {
        fill: #efd48d;
      }

      .cls-14 {
        fill: #533c64;
      }

      .cls-15 {
        fill: #c6c0d3;
      }

      .cls-16 {
        fill: #fdfeff;
      }

      .cls-17 {
        fill: #ccc9d9;
      }

      .cls-18 {
        fill: #a79dbe;
      }

      .cls-19 {
        fill: #594666;
      }

      .cls-20 {
        fill: #db9b8f;
      }

      .cls-21 {
        fill: #f3df92;
      }

      .cls-22 {
        fill: #b5adc6;
      }

      .cls-23 {
        fill: #aa9ebd;
      }

      .cls-24 {
        fill: #f1dea5;
      }

      .cls-25 {
        fill: #f0e4a1;
      }

      .cls-26 {
        fill: #f3de94;
      }

      .cls-27 {
        fill: #dfdee6;
      }

      .cls-28 {
        fill: #e0a397;
      }

      .cls-29 {
        fill: #4b3a63;
      }

      .cls-30 {
        fill: #4f3d64;
      }

      .cls-31 {
        fill: #39305e;
      }

      .cls-32 {
        fill: #f0dfb6;
      }

      .cls-33 {
        fill: #c08c7a;
      }

      .cls-34 {
        fill: #f8f1cc;
      }

      .cls-35 {
        fill: #eed39e;
      }

      .cls-36 {
        fill: #d9d8e2;
      }

      .cls-37 {
        fill: #c0b9cf;
      }

      .cls-38 {
        fill: #f5e9c2;
      }

      .cls-39 {
        fill: #d6d6e0;
      }

      .cls-40 {
        fill: #f0d89b;
      }

      .cls-41 {
        fill: #d28f8c;
      }

      .cls-42 {
        fill: #ebebef;
      }

      .cls-43 {
        fill: #eec77f;
      }

      .cls-44 {
        fill: #ada3c0;
      }

      .cls-45 {
        fill: #41396d;
      }

      .cls-46 {
        fill: #c3bdd1;
      }

      .cls-47 {
        fill: #c5c0d2;
      }

      .cls-48 {
        fill: #cb948e;
      }

      .cls-49 {
        fill: #da9a95;
      }

      .cls-50 {
        fill: #a597bb;
      }

      .cls-51 {
        fill: #715573;
      }

      .cls-52 {
        fill: #aea5c2;
      }

      .cls-53 {
        fill: #514979;
      }

      .cls-54 {
        fill: #8177a1;
      }

      .cls-55 {
        fill: #c7c2d5;
      }

      .cls-56 {
        fill: #dddde7;
      }

      .cls-57 {
        fill: #3b3261;
      }

      .cls-58 {
        fill: #bca29e;
      }

      .cls-59 {
        fill: #efd995;
      }

      .cls-60 {
        fill: #a59cba;
      }

      .cls-61 {
        fill: #b3aac6;
      }

      .cls-62 {
        fill: #c0b9ce;
      }

      .cls-63 {
        fill: #f6e8b6;
      }

      .cls-64 {
        fill: #f0d36e;
      }

      .cls-65 {
        fill: #bbb6cb;
      }

      .cls-66 {
        fill: #aea6c0;
      }

      .cls-67 {
        fill: #d5d2de;
      }

      .cls-68 {
        fill: #d1a084;
      }

      .cls-69 {
        fill: #aca1bb;
      }

      .cls-70 {
        fill: #e3b673;
      }

      .cls-71 {
        fill: #c0b8ce;
      }

      .cls-72 {
        fill: #ce8b8c;
      }

      .cls-73 {
        fill: #b69ca8;
      }

      .cls-74 {
        fill: #6a5e8b;
      }

      .cls-75 {
        fill: #fbfdfe;
      }

      .cls-76 {
        fill: #c2bed2;
      }

      .cls-77 {
        fill: #aa837f;
      }

      .cls-78 {
        fill: #746e99;
      }

      .cls-79 {
        fill: #f5e3ae;
      }

      .cls-80 {
        fill: #b5aec7;
      }

      .cls-81 {
        fill: #a79dbd;
      }

      .cls-82 {
        fill: #c4bed2;
      }

      .cls-83 {
        fill: #a196b7;
      }

      .cls-84 {
        fill: #c1bcd1;
      }

      .cls-85 {
        fill: #9e93b6;
      }

      .cls-86 {
        fill: #dedde6;
      }

      .cls-87 {
        fill: #e3e6ef;
      }

      .cls-88 {
        fill: #3e3565;
      }

      .cls-89 {
        fill: #ac7875;
      }

      .cls-90 {
        fill: #d3d2de;
      }

      .cls-91 {
        fill: #8784aa;
      }

      .cls-92 {
        fill: #6e5a6d;
      }

      .cls-93 {
        fill: #6f4b72;
      }

      .cls-94 {
        fill: #9290b5;
      }

      .cls-95 {
        fill: #bfb9ce;
      }

      .cls-96 {
        fill: #9c91b4;
      }

      .cls-97 {
        fill: #b7afc6;
      }

      .cls-98 {
        fill: #f8f7e2;
      }

      .cls-99 {
        fill: #675b8b;
      }

      .cls-100 {
        fill: #fcfdfe;
      }

      .cls-101 {
        fill: #f6f8f9;
      }

      .cls-102 {
        fill: #fcfefe;
      }

      .cls-103 {
        fill: #e3bf95;
      }

      .cls-104 {
        fill: #684874;
      }

      .cls-105 {
        fill: #9188ac;
      }

      .cls-106 {
        fill: #534979;
      }

      .cls-107 {
        fill: #f8f0d0;
      }

      .cls-108 {
        fill: #cb878b;
      }

      .cls-109 {
        fill: #bcb5cb;
      }

      .cls-110 {
        fill: #e7e6eb;
      }

      .cls-111 {
        fill: #fbfdfd;
      }

      .cls-112 {
        fill: #f8f1d1;
      }

      .cls-113 {
        fill: #6b4870;
      }

      .cls-114 {
        fill: #d0cfdf;
      }

      .cls-115 {
        fill: #fafaec;
      }

      .cls-116 {
        fill: #c2bccf;
      }

      .cls-117 {
        fill: #f2d781;
      }

      .cls-118 {
        fill: #925c78;
      }

      .cls-119 {
        fill: #f2dcad;
      }

      .cls-120 {
        fill: #afa5c1;
      }

      .cls-121 {
        fill: #f3dd9d;
      }

      .cls-122 {
        fill: #efd87e;
      }

      .cls-123 {
        fill: #f4e6bc;
      }

      .cls-124 {
        fill: #fbfcfd;
      }

      .cls-125 {
        fill: #e1b47e;
      }

      .cls-126 {
        fill: #a49ab9;
      }

      .cls-127 {
        fill: #ada3c1;
      }

      .cls-128 {
        fill: #c3bbd0;
      }

      .cls-129 {
        fill: #beadb1;
      }

      .cls-130 {
        fill: #342d59;
      }

      .cls-131 {
        fill: #827fa6;
      }

      .cls-132 {
        fill: #d8a77b;
      }

      .cls-133 {
        fill: #ddaf81;
      }

      .cls-134 {
        fill: #ab9fbc;
      }

      .cls-135 {
        fill: #f0ce7d;
      }

      .cls-136 {
        fill: #9587aa;
      }

      .cls-137 {
        fill: #c3bdcc;
      }

      .cls-138 {
        fill: #eed588;
      }

      .cls-139 {
        fill: #ebc582;
      }

      .cls-140 {
        fill: #ebcc7e;
      }

      .cls-141 {
        fill: #b49ca3;
      }

      .cls-142 {
        fill: #c0bacc;
      }

      .cls-143 {
        fill: #eaeaee;
      }

      .cls-144 {
        fill: #f4e8bd;
      }

      .cls-145 {
        fill: #9e94b7;
      }

      .cls-146 {
        fill: #ccc8d8;
      }

      .cls-147 {
        fill: #9d90b5;
      }

      .cls-148 {
        fill: #dedce4;
      }

      .cls-149 {
        fill: #eccb95;
      }

      .cls-150 {
        fill: #cc997e;
      }

      .cls-151 {
        fill: #ebc176;
      }

      .cls-152 {
        fill: #f3eab7;
      }

      .cls-153 {
        fill: #eccb72;
      }

      .cls-154 {
        fill: #e8afa1;
      }

      .cls-155 {
        fill: #efe1c4;
      }

      .cls-156 {
        fill: #f7d4be;
      }

      .cls-157 {
        fill: #c1bbd0;
      }

      .cls-158 {
        fill: #c0927a;
      }

      .cls-159 {
        fill: #3a305e;
      }

      .cls-160 {
        fill: url(#_名称未設定グラデーション_38);
      }

      .cls-161 {
        fill: #af7484;
      }

      .cls-162 {
        fill: #c3bccf;
      }

      .cls-163 {
        fill: #f0d9ab;
      }

      .cls-164 {
        fill: #e2b168;
      }

      .cls-165 {
        fill: #7a769e;
      }

      .cls-166 {
        fill: #ecd37b;
      }

      .cls-167 {
        fill: #c4bec7;
      }

      .cls-168 {
        fill: #dfbb90;
      }

      .cls-169 {
        fill: #b59893;
      }

      .cls-170 {
        fill: #9a8eb2;
      }

      .cls-171 {
        fill: #d7d4e0;
      }

      .cls-172 {
        fill: #d7a87a;
      }

      .cls-173 {
        fill: #d8a464;
      }

      .cls-174 {
        fill: #c9c3d5;
      }

      .cls-175 {
        fill: #ad8178;
      }

      .cls-176 {
        fill: #f4d88d;
      }

      .cls-177 {
        fill: #c58e62;
      }

      .cls-178 {
        fill: #d7d5e1;
      }

      .cls-179 {
        fill: #f5e4aa;
      }

      .cls-180 {
        fill: #eebeaf;
      }

      .cls-181 {
        fill: #c6967c;
      }

      .cls-182 {
        fill: #b8877d;
      }

      .cls-183 {
        fill: #e0ae73;
      }
    </style>
    <linearGradient id="_名称未設定グラデーション_38" data-name="名称未設定グラデーション 38" x1="162.33" y1="213.09" x2="255.07" y2="257.46" gradientUnits="userSpaceOnUse">
      <stop offset="0" stop-color="#fefefc"/>
      <stop offset="1" stop-color="#f5eeda"/>
    </linearGradient>
  </defs>
  <g id="_レイヤー_1-2" data-name="レイヤー 1">
    <g id="_生成オブジェクト" data-name="生成オブジェクト">
      <g>
        <path class="cls-69" d="M166.15,398.53l.18,8.31,46.74-.02c.12-1.94.42-3.64.32-5.28l36.16.41c-.19,3.08,6.48,1.3,9.12,1.79.25.52.27,1.19.81,1.2l8.97.2c.83.02,1.26,1.46,2.64.97.84-.3,2.73-.34,3.28.54.42.67,1.77,1.61,1.25,2.7-.47.98-1.03,2.31-1.66,3.15l-16.52.85c-2.35.12-4.47.47-6.95.46l-.71,2.94-35.91.51c-.98.01-.9,1.17-1.2,2.33l-137.98.12c-3.12,0-6.22-.22-9.11-.61-.97-.13-2.22-1.62-3.72-.84s-2.58-.88-3.56-.91l-26.75-.8c-.33-.78-.22-1.5-.41-2.3l-8.51-.86-14.92-.91-6.6-.74c-1.48-.16-1.6-4.32.13-4.71l3.51-.8c2.81-.64,5.55.14,8.45-.27.52-.08.78-1.06,1.38-1.08,4.59-.09,9.2.77,13.27-.88l3.43-1.39,27.57-1.09c.81,1.39.31,3.37.62,5.33h18.77s37.11-.06,37.11-.06c.25-2.91.35-5.57.33-8.22l50.44-.05Z"/>
        <path class="cls-130" d="M89.24,381.66c7.27.23,14.58.22,21.85-.02,1.48-.05,2.99.14,4.47.18l.15,16.77c.02,2.64-.08,5.31-.33,8.22l-37.11.05h-18.77c-.32-1.96.18-3.93-.62-5.33.85-1.85.29-3.93.66-6.18l8.38-.11c.09,2.18-1.93-.49-4.29,1.26-.39,1.25,0,3.16-.12,4.9l26.71.09.21-10.79-9.83-.65c-.61-.04-.6-1.62-1.25-1.42.08-.31,0-1.06.51-1.35.98-.57,2.1.09,3.32-.06l.44-5.03c1.55-1.04,3.79-.58,5.63-.53Z"/>
        <path class="cls-130" d="M197.07,382.69c.28.45-.14.99.26,1.41-.55.22-.78,1.9-.19,2.27.9.57,2.37.43,3.32.41l.34,1.87c.05.3-.05,1.62-.75,1.63l-21.82.44c-.21,1.39-.76,3.9.15,4.65l4.99.48c.09,1.9-.04,3.56.33,5.51,1.59.15,2.98.3,4.28.23,4.97-.28,10.09.68,14.86-.56.94.92,3.43.93,4.68.12.87-5.53.62-4.08-1.05-5.92,2.05.14,4.04-.19,6.57.25l.36,6.07c.1,1.64-.2,3.34-.32,5.28l-46.74.02-.18-8.31.08-15.72c.05-.64.58-.87,1.3-.87l28.91-.15c.58,0,.5.69.64.91Z"/>
        <path class="cls-30" d="M67.91,395.23c.54.2,1.14.02,2.02-.13l.34-5.48c1.55.04,8.77.1,8.87-.26l.2-.73c.65-.2.64,1.38,1.25,1.42l9.83.65-.21,10.79-26.71-.09c.11-1.75-.27-3.66.12-4.9,2.36-1.75,4.38.93,4.29-1.26Z"/>
        <path class="cls-29" d="M205.93,395.12c-.98.02-2.15.59-3.12.58l-14.72-.1c-.58,2.21-.54,4.1-.12,5.98-1.3.07-2.69-.08-4.28-.23-.37-1.95-.24-3.61-.33-5.51l-4.99-.48c-.91-.75-.36-3.26-.15-4.65l21.82-.44c.69-.01.8-1.33.75-1.63-.28,1.22,3.6,1.08,5.16.92.57,2.02-.09,3.77-.02,5.55Z"/>
        <path class="cls-19" d="M205.93,395.12c.18,0,.37.06.53.1,1.67,1.85,1.92.4,1.05,5.92-1.25.81-3.75.81-4.68-.12l-.02-5.33c.97,0,2.15-.56,3.12-.58Z"/>
        <path class="cls-105" d="M200.46,386.79c-.96.02-2.42.16-3.32-.41-.59-.37-.36-2.06.19-2.27.8-.09,2.11-.56,2.95-.28.62.83.07,2.4.18,2.97Z"/>
        <path class="cls-92" d="M202.81,395.7l.02,5.33c-4.77,1.23-9.89.28-14.86.56-.42-1.88-.47-3.78.12-5.98l14.72.1Z"/>
      </g>
      <g>
        <path class="cls-133" d="M228.61,135.84c.82-.2,2.54-.25,3.34.22,1.65,3.3,4.5,4.82,6.7,6.22l2.4,1.53,5.77,3.94c1.82,1.24,3.76,1.83,5.4,2.97l3.84,2.68c2.2,1.54,4.59,3.51,8.19,2.16.43,1.59.53,2.74,1.21,4.23,1.64-.5,2.95.74,4.34.85l11.19.86c-.6,13.29.14,27.28-1.25,40.73l-1.72,19.22-2.91,25.78c-.13,1.11-.81,1.62-.97,2.61l-1.33,7.98c-.25,1.47-.75,2.59-.69,4.24.02.52-.05,1.16-.17,1.7-.09.44-1.38.19-1.66.57l-1.1,7.5-1.51.65c-.41.18.23,2.49-.45,3.94-.26.54-1.09.46-1.78.64l-.81,7.71c-.21.67-1.29.44-1.88.91-.54,8.86-2.02,5.76-2.86,6.8-.74.92-.18,2.83-.72,4.27-.22.58-1.68.27-1.93.75-.68,1.33.33,3.71-1.2,4.65-.74.45-1.7-.04-2.06.87-.53,1.35.54,1.81-1.48,5.49-1.1-.01-2.44-.09-2.71,1.14-.33,1.49,0,2.89-.39,4.23l-3.95.7-.47,5.16c-.1,1.06-2.06.16-2.62.49-1.29.76-.23,2.85-.81,3.83-.78,1.32-1.62,2.33-1.52,4.09.08,1.46-2.09.71-2.73,1.07-1.41.79-.48,4.45-1.69,6-.47.6-2.93.6-3.37,1.15-.6.77.23,3.44-1.53,3.13-1.03-.65.6-8.47-.52-9,0-.45.62-.9.4-1.36,1.45-.68,1.24-2.76,1.96-4.11.21-.39,1.3-.41,1.58-.73.95-1.07.07-1.97.65-3.91.19-.64,1.13-.13,1.88-.35,1.37-.39.71-2.32,1.09-3.27.25-.62,1.47-.43,1.54-.67l.46-1.61c-1.65,5.72,3.42-6.33,2.4-5.53.59-.46,1.59-.5,2.67-.34l.73-4.82c.13-.83,2.08-.57,3.17-.91l.75-5.26c5.98.46,1.11-4.31,4.77-5.84l.29-2.89c1.99-.38,1.57-1.76,1.98-4.23.08-.5,1.25-.12,1.61-.62,1.33-1.84.19-4.74,1.34-5.92.23-.24,1.35.02,1.37-.31l.42-5.64,2.98-.48c-.33-2.87,2.79-17.91,2.74-18.7-.06-1.07,1.4-.87,2.36-.89-.05-4.06.58-7.78,1.25-11.63l.91-5.24c2.31-13.24,1.31-26.38,1.28-39.74l-.05-19.58-7.54-.95c-.49-.74.1-2.08-.65-2.38-2.28-.91-4.56-.25-6.86-.77l-.66-3.09c-2.69-.01-5.19-.21-7.83-.61-.3-1.11.04-2.03-.48-3.17-1.93.57-3.07-.56-4.41-.96,1.17-.87-1.76-.9-1.18-2.06.17-.35,1.05-.06,1.41-.26,6.42-.7,9.25,3.84,16.39,4.02.42,1.37-.35,2.35.27,3.59,2.3-.71,3.45.27,4.74,1.22,1.16.86,3.18-.27,4.15.89s4.41,2.33,5.37.86c1.1-1.68.17-4.69.19-6.77l-10.53-1.53c-.28-.89.09-2.29-.41-2.72-1.39-1.17-6.27-.39-6.85-1.37l-.85-1.45c-.24-.42-1.24.02-1.78-.38s.06-1.42-.53-1.74c-.34-.19-.97-.35-1.65-.32-1.41.07-.74-1.62-1.44-2.23-2.61-2.29-6.58-1.54-7.27-2.51-.25-.63-.15-1.51-.3-2.02-.25-.81-1.48-.11-1.95-.5-1.52-1.25-2.64-2.18-4.82-1.31l-.19-3.43c-5.21-.9-2.32-2.49-4.12-3.18-.79-.3-1.57-.52-2.36-.43-.49.05-.94-.17-1.44,0-1.08.36-3.34.15-3.77,1.36-.32.89-.5,1.65-1.39,1.64,1.27.01-3.8-1.38-2.9-.58-.28-.24-.71-.53-.4-.86,1.6-1.08,3.41-2.24,3.55-4.12,1.52-.48,2.79-1.59,4.35-1.97Z"/>
        <path class="cls-89" d="M215.2,339.08c-.53-.3-1.07-.6-1.28-.99-.32-.59.02-1.36.48-2.3-2.51-.31-4.22-2.45-5.13-4.66-1.05-.44-2.07-.06-2.87-.52-.57-.9-.55-2.02-.82-3.29l-3.68-.86c.22-1.31-.49-2.36-.67-3.42-.08-.88.4-1.98.51-2.89.57-.02.94-.21.75-.54l3.48.51.23,3.76c1.16.47,2.29.19,3.58.48.2,1.35,1.14,2.44,2.77,2.55.14,1.26-.12,2.13.35,3.07,1.19.52,3.1-.04,4.04.97s.27,2.98.67,4.32l4.56.86c-.05,2.06,1.61,3.79,3.54,4.25,2.59.62,1.25,4,3.15,3.54,1.63-.4-.19-2.23,1.89-4.44,1.76.31.93-2.36,1.53-3.13.43-.55,2.9-.55,3.37-1.15,1.21-1.55.28-5.2,1.69-6,.64-.36,2.81.38,2.73-1.07-.1-1.76.74-2.77,1.52-4.09.58-.98-.48-3.07.81-3.83.56-.33,2.52.57,2.62-.49l.47-5.16,3.95-.7c.4-1.33.07-2.74.39-4.23.27-1.23,1.6-1.15,2.71-1.14,2.01-3.68.94-4.14,1.48-5.49.36-.91,1.32-.42,2.06-.87,1.53-.94.52-3.32,1.2-4.65.24-.48,1.71-.17,1.93-.75.54-1.44-.02-3.35.72-4.27.84-1.04,2.32,2.06,2.86-6.8.59-.47,1.67-.24,1.88-.91l.81-7.71c.69-.18,1.52-.1,1.78-.64.69-1.45.04-3.76.45-3.94l1.51-.65,1.1-7.5c.29-.38,1.57-.13,1.66-.57.11-.54.19-1.18.17-1.7-.06-1.65.44-2.77.69-4.24l1.33-7.98c.16-.98.85-1.49.97-2.61l2.91-25.78,1.72-19.22c1.38-13.45.65-27.45,1.25-40.73l4.78.44-.21,32.92c-.06,9.22-.76,18.2-1.87,27.28l-.97,7.95c-.39,3.21-2.61,19.29-3.3,21.51-.99,3.2-.63,6.58-1.87,9.68-.52,1.29-1.82,2.39-1.64,4.23.19,1.95-1.16,3.4-1.64,4.91-.64,2-.95,3.74-1.82,5.56-1.12,2.34-.53,5.36-1.88,7.48-.58.48-1.9.46-2.07,1.42l-1.24,6.95c-2.97,2.17-3.98,5.91-4.04,9.73-1.11.55-2.27.24-3.52.53l-.64,5.88c-1.04.14-1.97-.1-2.85.3-.56,1.57-.14,3.21-.63,5.04-.22.84-2.26.17-2.63.69-.8,1.76-.54,3.97-1.11,5.78l-2.82.39-.7,5.5c-.18,1.38-2.42,1.14-3.44,1.5-.49,1.57-.18,3.15-.92,4.64-.95.29-1.77.05-3.02.22.15,2.12-.51,3.5-1.49,5.07-.35.57-.28,1.94-.94,1.94-.48,0-1.57.05-1.89.35-.72,1.27-.12,2.89-.68,4.36l-3.1.42c-.25,1.52-.14,2.81-.59,4.33l-6.73.12c-.9-1.42-1.32-3.23-2.49-4.48-.66-.7-2.96.25-3.52-.85-.32-.63.45-2.48-.77-2.8s-2.37-.75-3.53-1.41Z"/>
        <path class="cls-182" d="M180.03,285.38c.85.11,1.81.17,2.69.53l.48,6.2,3.52.54c.65,1.45-.21,3.43.67,4.82.72.34,2.04.5,2.87,1.05,1.35.9.47,4.45,1.49,4.58.67.09,1.32.14,1.8.09l.4,5.16,3.68.75.4,4.87c1.36.49,2.71-.19,3.81.62.21,1.85-.3,3.73.65,5.03.19.33-.17.52-.75.54-.11.9-.59,2-.51,2.89-.48-.09-.78-.51-.84-1.45-2.01.17-2.22-1.5-2.68-2.91-.34-1.04-2.41-.62-3.05-1.19-.93-.82-.23-2.87-.82-3.64-2.23-1.58-.95-.13-2.14-4.92-.14-.56-1.14-.04-1.55-.47-.43-.46-.23-1.26-.57-1.7s-1.46-.19-1.92-.7c-.91-1-.16-2.49-.83-3.83-5.21-.24-.86-1.16-4.29-6.43-.64-.98-1.38-1.89-1.4-3.06-.81-.33-1.54-.26-2.55-.55-.65-2.35-.58-4.65-.56-6.88.6.25,1.37-.02,2,.07Z"/>
        <path class="cls-172" d="M173.87,271.5c-1.16-.26-2.28.12-3.18.86-.33-1.42-.85-2.93-1.52-4.42-.43-.52-1.62-.41-2.21-.82-.56-2.26-.36-4.45-.38-6.59s.3-4.2-.03-6.46c-.12-.84-.45-1.26-.24-1.99l2.94.8c-.32,1.94.36,3.29.64,4.78.42,2.23.03,4.49.34,6.77l3.32.66.32,6.41Z"/>
        <path class="cls-150" d="M173.87,271.5c-.41.9,1.08.76,1.47,1.09,1.08,1.49.65,3.53,1.39,5.16.63,1.39,2.14,2.41,2.25,4.15.09,1.38.3,2.55,1.04,3.49-.62-.08-1.4.18-2-.07-.98-.4-2.15-.23-3.36-.56l-1.15-7.5-2.53-.69c-.61-1.43,0-2.93-.3-4.21.9-.73,2.03-1.12,3.18-.86Z"/>
        <path class="cls-181" d="M166.16,248.16c.04,1.26.51,2.67.15,3.92-.21.73.11,1.15.24,1.99.33,2.26.02,4.42.03,6.46-1.12-.55.09-2.36-.59-3.33-.61-.87-2.3-.34-3.4-.64-.33-1.61-.41-3.1-.39-4.49s.14-2.64-.04-3.99c1.33-.29,2.66,0,4,.09Z"/>
        <path class="cls-160" d="M234.26,190.02c-3.4-.11-6.83-.04-10.56.1-.94.04-.78,1.38-.82,1.9-.05.71-.49,1.48-1.66,1.45-.73-.02-2.06-.21-2.61.29-.16,2.38-.31,4.69.16,7.25l5.5.43c.18,4.35.28,8.68-.03,12.85l-3.73.02c-.55,1.47-.49,2.88-.81,4.16-11.81-.3-7.58.93-8.59,1.83-.94.83-4.04.98-4.25-.52-.27-1.9-2.06-1.28-5.08-1.09-.31.79-.08,1.5-.29,2.17-.2.63-.95.81-1.09,1.45-.66.03-1.3.06-2.24.26-.29,2.48-.41,4.88.05,7.35,1.25.27,2.28-.21,3.26.17,1.5,2.45,4.89-1.13,4.96,1.61.1,1.26-.23,2.51.19,4.04l17.67-.09c.33,12.6-1.97,25.37-.63,37.75-1.22.4-2.98-.48-4.3.28-1.13.64-.5,3.17-.07,4.15l3.76.08.81,7.21c2.65-.03,4.51.03,6.43.17l.18,30.93c.02,3.12.29,6.14.05,9.14-.11,1.33-.42,2.58.13,3.74.22.46-.39.91-.4,1.36-1.09-.15-2.81.67-3.79-.23s-1.06-3.33-2.7-3.52c-1.51-.18-2.11-.65-2.72-2.09-.49-.84-2.36-.39-3.14-1.16-.47-1.37.51-3.22-.61-4.24-5.42.41-.89-3.9-5.28-4.78l-5.45-1.09c.7-2.36.56-4.64-1.18-6.13-.37-.32-1.23.19-1.49-.21-1.11-1.71-.02-2.7-.76-3.79-.39-.57-3.16-.99-2.71-1.07.25-.33.16-1.25-.21-1.12-.56.19-1.31.66-1.87.34-.9-1.29-.07-2.8-.72-4.13-5.3,2.82.99-5.04-6.21-5.75-.72-2.09-.14-4.89-.6-7.04-.66-.2-2.54.28-2.84-.48l-1.63-11.28c-.4-.96-2.37-.92-3-1.35-.67-2.43.06-5.09-.79-7.32-1.44-3.79.19-3.49-.92-5.37-.26-.44-1.42-.36-2.05-.71-1.07-1.44-.12-3.52-.94-5.14-.48-.94-1.98-.28-3.16-.28l-.13-7.73c-.87-.85-1.41-2.08-1.42-3.69l-.24-29.28-.1-34.3c-3.92-.81,8.99-1.62,7.48-1.54,4.96-.25,9.96-.02,15.1-.54.56-.48.24-2.14.62-2.58,2.25-.82,4.73-.19,7.09-.7-.19-4.89,6.61-3.66,9.07-4.88.49-.24.27-1.5.73-1.63.31-.08,1.55.23,1.76-.12.89-1.47,2.82-1.5,4.18-2.22,2.19-1.15-1.95-.89,4.92-2.18,1.32-.25-2.37-1.34,4.7-2.37.4.16.78-.06.97.31.22.41.25.76.25,1.27l.05,28.63c1.51.82,3.14-.08,3.79,1.03Z"/>
        <path class="cls-155" d="M244.33,164c1.34.4,2.48,1.53,4.41.96.52,1.14.18,2.05.48,3.17,2.64.4,5.14.6,7.83.61l.66,3.09c2.29.53,4.58-.14,6.86.77.75.3.16,1.64.65,2.38l7.54.95.05,19.58c.04,13.36,1.04,26.51-1.28,39.74l-.91,5.24c-.67,3.85-1.3,7.57-1.25,11.63-.96.02-2.42-.18-2.36.89.04.79-3.07,15.83-2.74,18.7l-2.98.48-.42,5.64c-.02.33-1.14.08-1.37.31-1.15,1.18,0,4.08-1.34,5.92-.36.5-1.52.12-1.61.62-.42,2.46,0,3.84-1.98,4.23l-.29,2.89c-3.67,1.53,1.21,6.3-4.77,5.84l-.75,5.26c-1.09.35-3.04.08-3.17.91l-.73,4.82c-1.07-.16-2.08-.12-2.67.34,1.02-.8-4.05,11.25-2.4,5.53l-.46,1.61c-.07.24-1.29.04-1.54.67-.38.95.29,2.87-1.09,3.27-.75.21-1.68-.3-1.88.35-.58,1.94.29,2.84-.65,3.91-.28.32-1.38.34-1.58.73-.72,1.35-.51,3.43-1.96,4.11-.54-1.16-.24-2.41-.13-3.74.24-3-.03-6.02-.05-9.14l-.18-30.93c1.29.1,2.59-.2,4.17-.25.44-1.66.48-3.18.22-4.63.88-.3,1.84-.61,2.91-.65.73-2.84.1-5.47.08-8.4l-.27-35.54,12.93-.36c.52-1.74.52-3.36.43-4.87,1.49-.78,3.34-.18,5.58-.2.62-4,0-7.97.21-12.08-2.98-.27-5.58,0-8.56.09s-5.77-.46-9.03.45c-2.29-10.09-.91-15.18-1.27-24.52-.04-1.01-2.04-.78-2.6-.82l-.83-3.52c-.64-1.11-2.27-.21-3.79-1.03l-.05-28.63c0-.51-.03-.85-.25-1.27-.19-.37-.57-.16-.97-.31-.12-1.09.87-1.89,1.75-1.74,1.16.2,2.09-.14,2.59,1.42.62.87,2.79.17,3.66,1.06-.03.9.12,1.62.64,1.85.56.25,2.27.14,2.76.64.22.23.07,1.07.42,1.36.91.76,2.41.37,3.3.63Z"/>
        <path class="cls-115" d="M230.61,140.39c-1.02,1.83.6,7.77-.66,8.73-.93.71-2.95-.41-3.81.61s-1.01,2.98-.47,4.03l-4.36.75c-.94.16.03,3.47-2.08,3.31-.58-.04-1.35-.09-2,.2-.47.21-.19,1.37-.54,1.95-1.33-.13-2.26,1.25-3.23,1.73-1.43.71-3.45.19-4.52,2-.76.08-1.82-.19-2.73-.21-.89,3.79-5.11-.34-4.9,3.85-1.18.89-3.14.58-4.57,1.22-.47.21-.02,1.2-.3,1.42-1.34,1.06-4.48-.83-6.69,1.75-1.73,2.02-7.8-.52-8.76,2.02-.25.65-.3,1.47.05,2.26,1.5-.08-11.4.73-7.48,1.54l-1.79-.68c-.98-.37-2.05-1.26-3.24-.59l.1,32.57.61,27.96c-1.42.75-3.08.86-4.53.83-.18-6.87-1.82-12.15-1.55-19.33.02-.49.07-.81-.25-.99-.22-.12-.46-.25-.71-.07l.14-23.14.22-21.38c1.18-.1,2.63.21,3.61-.62.62.58,1.47.49,2.4.46l9.45-.3c.84-.03,1.46.25,2.06-.3,1.19-1.1-1.45-3.64,1.43-3.77l3.94-.17c2.96-2.79,5.06.27,3.56-3.32.28-.79,1.26-1.39,2.42-1.1,2.72.67.52-1.78,5.69-1.64.07-1.36.95-2.13,2.29-1.85.62.13,1.12.13,1.49-.1,1.14-.71-.13-3.65,1.48-3.84,2.53-.31,5.31.46,7.63-.76.41-.21.57-1.46.83-1.81.37-.5,1.34.23,1.76-.08.46-1.55,2.29-1.19,3.54-1.48,1.17-.28.52-2.61.74-3.59,1.74-.35,3.27.26,5.13-.42-.91-1.46-.45-2.2,0-3.17.6-1.28,2.1-.22,3.05-.83.7-.45.73-1.91,2.19-2.31.68-.18,1.92-.38,1.89-1.33.5-.17.95.06,1.44,0Z"/>
        <path class="cls-40" d="M200.41,302.19c-.45.08,2.32.5,2.71,1.07.74,1.09-.35,2.08.76,3.79.26.4,1.12-.11,1.49.21,1.74,1.49,1.88,3.77,1.18,6.13l5.45,1.09c4.39.88-.14,5.19,5.28,4.78,1.12,1.01.14,2.87.61,4.24.78.77,2.66.32,3.14,1.16.61,1.43,1.21,1.91,2.72,2.09,1.64.19,1.71,2.61,2.7,3.52s2.7.08,3.79.23c1.12.53-.51,8.35.52,9-2.08,2.21-.25,4.04-1.89,4.44-1.9.46-.56-2.92-3.15-3.54-1.93-.46-3.59-2.19-3.54-4.25l-4.56-.86c-.4-1.35.27-3.31-.67-4.32s-2.85-.45-4.04-.97c-.47-.95-.21-1.81-.35-3.07-1.63-.11-2.57-1.19-2.77-2.55-1.29-.29-2.42-.01-3.58-.48l-.23-3.76-3.48-.51c-.96-1.31-.45-3.19-.65-5.03-1.1-.8-2.45-.13-3.81-.62l-.4-4.87-3.68-.75-.4-5.16c2.31-.24,4.57-.58,6.86-1Z"/>
        <path class="cls-24" d="M244.56,161.67c-.24-.75.06-1.75-.35-2.57-.47-.93-1.8-.31-2.52-.79-1.24-.82-2.35-1.59-3.78-2-.44-.13-.23-1.3-.59-1.54-.83-.55-2.35-.17-3.02-.75.06.05.88-2.92.34-4.77-4.08,1.15.47,3.65-4.85,4.13l-4.11.37c-.53-1.05-.4-2.99.47-4.03s2.88.1,3.81-.61c1.26-.95-.36-6.89.66-8.73.79-.08,1.57.13,2.36.43,1.8.69-1.09,2.27,4.12,3.18l.19,3.43c2.18-.87,3.3.06,4.82,1.31.47.39,1.7-.31,1.95.5.16.51.06,1.39.3,2.02.69.97,4.66.21,7.27,2.51.69.61.03,2.29,1.44,2.23.68-.03,1.31.13,1.65.32.59.32.01,1.36.53,1.74s1.54-.03,1.78.38l.85,1.45c.58.98,5.46.2,6.85,1.37.51.43.13,1.83.41,2.72l10.53,1.53c-.02,2.08.9,5.09-.19,6.77-.96,1.47-4.43.26-5.37-.86s-2.98-.04-4.15-.89c-1.3-.95-2.45-1.94-4.74-1.22-.61-1.24.15-2.22-.27-3.59-7.14-.18-9.97-4.72-16.39-4.02Z"/>
        <path class="cls-32" d="M244.56,161.67c-.36.2-1.24-.09-1.41.26-.58,1.16,2.35,1.19,1.18,2.06-.89-.27-2.39.13-3.3-.63-.34-.29-.19-1.13-.42-1.36-.49-.5-2.2-.39-2.76-.64-.53-.23-.67-.95-.64-1.85-.88-.89-3.04-.19-3.66-1.06-.5-1.56-1.43-1.22-2.59-1.42-.88-.15-1.87.65-1.75,1.74-7.07,1.03-3.38,2.13-4.7,2.37-6.86,1.29-2.73,1.03-4.92,2.18-1.36.72-3.29.75-4.18,2.22-.21.35-1.45.04-1.76.12-.46.12-.24,1.38-.73,1.63-2.46,1.22-9.27,0-9.07,4.88-2.36.51-4.84-.13-7.09.7-.38.44-.06,2.11-.62,2.58-5.14.52-10.14.29-15.1.54-.35-.8-.3-1.61-.05-2.26.95-2.53,7.02,0,8.76-2.02,2.21-2.57,5.35-.69,6.69-1.75.27-.22-.17-1.21.3-1.42,1.43-.64,3.4-.33,4.57-1.22-.22-4.18,4.01-.06,4.9-3.85.9.01,1.96.29,2.73.21,1.07-1.81,3.09-1.29,4.52-2,.97-.48,1.9-1.86,3.23-1.73.35-.58.08-1.74.54-1.95.65-.29,1.42-.24,2-.2,2.11.15,1.14-3.15,2.08-3.31l4.36-.75,4.11-.37c5.31-.48.76-2.98,4.85-4.13.55,1.85-.28,4.82-.34,4.77.67.58,2.19.21,3.02.75.36.24.15,1.41.59,1.54,1.43.41,2.55,1.19,3.78,2,.72.47,2.05-.15,2.52.79.41.82.11,1.82.35,2.57Z"/>
        <path class="cls-103" d="M229.18,140.38c.04.95-1.21,1.15-1.89,1.33-1.46.39-1.49,1.86-2.19,2.31-.95.61-2.45-.45-3.05.83-.46.97-.92,1.71,0,3.17-1.87.68-3.39.07-5.13.42-.22.98.43,3.31-.74,3.59-1.25.3-3.08-.07-3.54,1.48-.41.31-1.39-.42-1.76.08-.26.35-.42,1.6-.83,1.81-2.32,1.22-5.1.46-7.63.76-1.62.2-.34,3.13-1.48,3.84-.36.23-.87.23-1.49.1-1.34-.28-2.21.49-2.29,1.85-5.17-.13-2.97,2.32-5.69,1.64-1.16-.29-2.14.31-2.42,1.1-.2.57-1.8.99-2.31.61-.83-.62.25-1.81,1.09-2.29.35-.2.01-1.4.66-1.52.27-.05.59-.4.97-.3.56.14,4.63-4.9,4.23-4.69,2.24-1.16,5.04-.68,7.24-1.55l.54-4.16c6.06-.52,1.9-1.21,8.62-2.09l1.08-4.51c3.78.45,6.88-.47,9.57-2.28-.31.34.12.62.4.86-.9-.79,4.18.59,2.9.58.89,0,1.07-.75,1.39-1.64.44-1.21,2.69-1,3.77-1.36Z"/>
        <path class="cls-38" d="M173.57,177.55l.1,34.3.24,29.28c.01,1.61.55,2.84,1.42,3.69l.13,7.73c1.18,0,2.68-.65,3.16.28.83,1.62-.12,3.71.94,5.14.63.35,1.79.26,2.05.71,1.1,1.88-.52,1.58.92,5.37.84,2.23.11,4.89.79,7.32.63.43,2.6.39,3,1.35l1.63,11.28c.3.77,2.18.28,2.84.48.46,2.15-.12,4.96.6,7.04,7.21.71.91,8.57,6.21,5.75.66,1.32-.18,2.84.72,4.13.57.32,1.32-.15,1.87-.34.37-.13.46.8.21,1.12-2.28.42-4.55.76-6.86,1-.48.05-1.13,0-1.8-.09-1.02-.13-.15-3.68-1.49-4.58-.82-.55-2.15-.71-2.87-1.05-.88-1.38-.02-3.37-.67-4.82l-3.52-.54-.48-6.2c-.89-.35-1.84-.42-2.69-.53-.74-.93-.95-2.11-1.04-3.49-.11-1.74-1.62-2.76-2.25-4.15-.74-1.62-.31-3.67-1.39-5.16-.39-.33-1.88-.19-1.47-1.09l-.32-6.41-3.32-.66c-.31-2.27.09-4.53-.34-6.77-.28-1.49-.96-2.84-.64-4.78l-2.94-.8c.36-1.25-.1-2.66-.15-3.92-.06-1.67.22-3.68-.18-5.33-.07-.31-.99-.4-1.13-.85-.46-1.44-.09-2.94-.13-4.34,1.45.02,3.11-.08,4.53-.83l-.61-27.96-.1-32.57c1.19-.66,2.25.22,3.24.59l1.79.68Z"/>
        <path class="cls-149" d="M164.72,237.65c.04,1.4-.33,2.9.13,4.34.14.45,1.06.54,1.13.85.39,1.65.12,3.66.18,5.33-1.34-.1-2.67-.38-4-.09-.19-1.46-.2-2.99-.05-4.45.24-2.38-.79-5.1-.36-7.44,1.12-6.03.43-12.54.47-18.93.26-.18.5-.06.71.07.32.18.27.5.25.99-.28,7.18,1.37,12.46,1.55,19.33Z"/>
        <path class="cls-125" d="M162.56,168.35c.09,1.46.03,2.93.01,4.39l-.22,21.38-.14,23.14c-.04,6.4.65,12.9-.47,18.93-1.07-.71-2.38-.18-3.76-.81l-.18-5.64c-.06-1.97-.14-3.89-.14-5.86l-.02-47.19c0-1.86.1-3.71-.05-5.56-.06-.76.4-1.73.45-2.54,1.81-.36,3.13-.06,4.51-.25Z"/>
        <path class="cls-123" d="M185.48,168.03l-3.94.17c-2.89.12-.24,2.67-1.43,3.77-.6.55-1.22.28-2.06.3l-9.45.3c-.93.03-1.78.13-2.4-.46.78-4.68,3.88-1.64,4.04-4.22l4.37-.52c2.32-.27,4.29-.39,6.47-1.24-1.11.43,4.96-1.21,4.66-1.34.16.07.27.38.26.56s-.79.43-.68.57c.63.84.76,1.35.17,2.1Z"/>
        <path class="cls-119" d="M170.23,167.9c-.16,2.58-3.27-.47-4.04,4.22-.98.82-2.43.51-3.61.62.02-1.46.08-2.93-.01-4.39,2.55-.35,5.14-.14,7.67-.44Z"/>
        <g>
          <path class="cls-121" d="M224.64,193.23c-.33,2.33-.89,5.71-.07,7.61,2.22,1.72,1.14,3.77,1.2,6.73.01.8,2.6.29,2.77.04.93-1.33-.4-3.56,2.03-3.73l.21,19.49c.97.21,1.98.49,2.45.16,1.74-1.25,1.17-3.03,1.92-4.22l13.98-.17c-.05.81-.73.81-.47,1.18-1.06.25-1.59.73-1.94,1.85-.56.6-2.24.38-3.12,1.21-.32.3-.1,1.32-.57,1.68-3.85-.08-7.74-.14-11.77.37-.78,1.57-.5,3.27-.51,4.96l-.2,46.09c-1.94.79-4.23.37-6.55.28l-.36-3.32c-1.34-12.38.96-25.15.63-37.75-.04-1.69.93-3.84-.11-5.49.59.18.77-4.51.28-4.82-.33-.2-.9-.19-1.27-.19l.49-2.69,1.55-.31c0-.88.34-2.11,0-2.84-1.8-2.05.1-3.92-.98-5.04.31-4.17.21-8.5.03-12.85l-5.5-.43c-.47-2.56-.32-4.87-.16-7.25.56-.5,1.88-.31,2.61-.29,1.17.03,1.61-.74,1.66-1.45.66.31.82,1.32,1.75,1.21Z"/>
          <path class="cls-43" d="M234.26,190.02l.83,3.52c-1.28-.57-1.08,25.31.05,25.76-.74,1.19-.18,2.96-1.92,4.22-.46.33-1.48.05-2.45-.16l-.21-19.49c-.03-3.04.1-6.08.5-9.72-1.81-1.05-4.25-1.19-6.43-.92-.93.12-1.09-.9-1.75-1.21.03-.52-.13-1.86.82-1.9,3.73-.14,7.16-.21,10.56-.1Z"/>
          <path class="cls-144" d="M224.24,214.31c1.08,1.12-.82,2.99.98,5.04-.79-.19-5.04-.61-5.16.87-.04.45-.12,1.39.43,1.82.84.65,2.23.37,3.17.45l-.49,2.69-20.25.24c-.68-.23-1.71-.51-1.54-1.57.08-.5.11-1.18-.29-1.48-.18-.13-.4-.02-.71-.05.14-.64.9-.82,1.09-1.45,1.75.76,4.11.36,5.37-1.08.21,1.5,3.32,1.35,4.25.52,1.01-.9-3.23-2.13,8.59-1.83.32-1.28.26-2.69.81-4.16l3.73-.02Z"/>
          <path class="cls-139" d="M223.18,225.19c.37,0,.94-.02,1.27.19.49.3.31,4.99-.28,4.82l-17.3.22c.04.85.12,1.57-.45,1.32-.07-2.74-3.46.84-4.96-1.61,1.49-2.29-.78-3.34,1.48-4.69l20.25-.24Z"/>
          <path class="cls-168" d="M223.64,273.43l.36,3.32c2.32.08,4.61.51,6.55-.28,0,1.15.25,2.9,1.42,3.63.53.33,1.24,0,1.69-.2.41.1.5.79,1.02.55.26,1.45.22,2.97-.22,4.63-1.58.05-2.88.34-4.17.25-1.93-.15-3.78-.21-6.43-.17l-.81-7.21-3.76-.08c-.43-.97-1.07-3.5.07-4.15,1.33-.75,3.09.13,4.3-.28Z"/>
          <path class="cls-68" d="M224.16,230.19c1.03,1.66.06,3.8.11,5.49l-17.67.09c-.42-1.54-.09-2.78-.19-4.04.56.25.49-.46.45-1.32l17.3-.22Z"/>
          <path class="cls-35" d="M200.39,222.33c.3.03.52-.08.71.05.4.29.38.98.29,1.48-.18,1.07.86,1.35,1.54,1.57-2.26,1.35.01,2.4-1.48,4.69-.98-.38-2.01.09-3.26-.17-.45-2.47-.34-4.88-.05-7.35.94-.2,1.58-.23,2.24-.26Z"/>
          <path class="cls-163" d="M206.86,219.8c-1.26,1.44-3.62,1.84-5.37,1.08.21-.67-.02-1.38.29-2.17,3.03-.18,4.82-.81,5.08,1.09Z"/>
          <path class="cls-33" d="M250.59,230.14c.12.12.15.3.16.48.08,1.51.09,3.13-.43,4.87l-12.93.36.27,35.54c.02,2.94.65,5.57-.08,8.4-1.07.04-2.03.35-2.91.65-.52.25-.61-.45-1.02-.55-.28-.32.14-.55.51-.78.46-7.01.21-13.87.19-21.07l-.04-26.3c0-.85.5-1.57,1.35-1.57l14.93-.03Z"/>
          <path class="cls-132" d="M235.09,193.54c.56.04,2.56-.18,2.6.82.36,9.34-1.02,14.43,1.27,24.52,3.26-.91,6.03-.36,9.03-.45s5.58-.37,8.56-.09c-.22,4.11.41,8.07-.21,12.08-2.24.02-4.09-.58-5.58.2,0-.18-.04-.35-.16-.48,0-1.63.72-3.33.38-4.93.75.02,1.56-.3,2.51-.44.04-1.21.44-2.36-.18-3.28-.46-.69-1.94.19-2.51-.46-.21-.23-.78-.87-1.27-.78-.28.05-.41.38-.86.06-.26-.37.42-.38.47-1.18l-13.98.17c-1.13-.45-1.33-26.33-.05-25.76Z"/>
          <path class="cls-183" d="M243.03,225.05l7.95.16c.34,1.6-.39,3.3-.38,4.93l-14.93.03c-.85,0-1.35.73-1.35,1.57l.04,26.3c.01,7.2.27,14.07-.19,21.07-.37.24-.79.46-.51.78-.45.2-1.16.53-1.69.2-1.17-.74-1.43-2.49-1.42-3.63l.2-46.09c0-1.69-.27-3.38.51-4.96,4.03-.51,7.92-.45,11.77-.37Z"/>
          <path class="cls-112" d="M230.57,203.87c-2.43.17-1.1,2.4-2.03,3.73-.18.25-2.76.77-2.77-.04-.05-2.96,1.02-5.01-1.2-6.73-.83-1.9-.26-5.28.07-7.61,2.18-.27,4.62-.13,6.43.92-.4,3.63-.53,6.68-.5,9.72Z"/>
          <path class="cls-13" d="M250.98,225.21l-7.95-.16c.46-.36.24-1.38.57-1.68.88-.83,2.56-.61,3.12-1.21.35-1.11.88-1.6,1.94-1.85.45.32.58-.01.86-.06.49-.09,1.07.55,1.27.78.57.64,2.05-.23,2.51.46.62.92.22,2.08.18,3.28-.95.14-1.76.46-2.51.44Z"/>
          <path class="cls-98" d="M225.22,219.35c.33.72,0,1.95,0,2.84l-1.55.31c-.94-.08-2.34.2-3.17-.45-.55-.43-.47-1.37-.43-1.82.12-1.48,4.37-1.06,5.16-.87Z"/>
        </g>
      </g>
      <g>
        <path class="cls-71" d="M145.74,251.59c5.46.5,10.98.91,16.46.47-.02,1.39.06,2.88.39,4.49,1.1.31,2.79-.22,3.4.64.68.96-.53,2.77.59,3.33.02,2.14-.18,4.34.38,6.59.59.41,1.79.3,2.21.82.67,1.48,1.18,3,1.52,4.42.3,1.28-.31,2.77.3,4.21l2.53.69,1.15,7.5c1.21.33,2.38.16,3.36.56-.02,2.22-.08,4.53.56,6.88,1.01.29,1.74.22,2.55.55.03,1.17.76,2.08,1.4,3.06,3.43,5.28-.92,6.2,4.29,6.43.67,1.33-.08,2.83.83,3.83.46.51,1.6.27,1.92.7s.14,1.24.57,1.7c.4.43,1.41-.09,1.55.47,1.19,4.79-.08,3.34,2.14,4.92.59.78-.11,2.83.82,3.64.64.56,2.71.14,3.05,1.19.46,1.41.67,3.09,2.68,2.91.06.94.36,1.36.84,1.45.17,1.06.89,2.11.67,3.42l3.68.86c.27,1.26.25,2.38.82,3.29-.08.92-.66,2.81.31,3.55.59.45,2.93-.35,2.97.72l.58,14.05,2.27.91.74,20.3c-.16.85-2.47.18-2.78.75-.8,1.5-.08,3.84-.1,5.34l-.06,4.99-12.87.4c-.22.5.22,1.1-.38,1.06-.13-.22-.06-.91-.64-.91l-28.91.15c-.72,0-1.24.23-1.3.87l-36.94.13-12.2-.05c-.13-.82-.29-1.02-.43-1.1-.17-.1-.47-.1-.66-.04-.2-.28.11-.54.66-.67.27-1.68-.02-3.33-.02-4.91l84.89.17c.96-1.81.33-3.65,1.01-5.33.97-2.4-.22-4.63-.79-6.79-.86-3.28-.36-6.69-1.04-10.07-1.08-.25-2.85.33-3.54-.53l-.61-4.36-2.89-.56c-.22-1.73.06-3.3-.37-4.99-1.2-.32-2.23.14-3.29-.28-.77-3.75-1-4.16-1.36-8.12l-3.55-.44c-.45-1.65-.12-3.17-.35-4.79-.93-.55-2.01-.27-3.1-.64l-.2-4.25-3.41-.53c-.66-1.52-.42-3.17-.46-5-1.22-.64-2.55-.16-3.88-.64l-.68-4.78c-.1-.73-1.69-.43-2.27-.7-.38-1.39.13-2.92-.37-4.15-.52-1.29-1.9-1.36-3.34-1.13l-1.43-11.84-3.16-.45c-.59-1.3-.62-2.66-.79-4.17l-.78-6.61c-.91-.33-2.57-.07-3.27-.79-1.22-10.82-1.92-6.42-2.6-8.12-1.12-2.78.08-6.4-1.52-8.62l-2.66-3.68c-1.54-2.13-.44-5.22-1.04-7.89-1.63-.11-3.99-.74-5.23.22-.61,1.36-.45,3.46-.39,4.82-.4.38-1.26-.54-1.32.27-.14-.05-.28-.04-.43-.05-.02-2.64-.47-5.36.15-8.35.25-1.22,2.27-1.49,3.19-1.41Z"/>
        <path class="cls-15" d="M64.78,192.47c-.26,2.37.06,4.83.02,7.58,1.68.68,5.75-.69,5.31,1.47.24,2.68.43,5.4.16,8.32,2.34,1.91,7.3-.56,7.16,1.52l.06,5.3,4.98.42.28,6.75,15.14.25c-.25-2.35.17-4.3.18-6.27l4.52-.16c.39.1.49-.5.54-.82.09.19.84.26.46.76-.14.19-.66.23-.73.41-.74,1.93.3,4.3-.96,6s-.91,3.62-1.62,5.49l-5.27.17c-1.51.05-3.12-.53-4.77.16-.09,1.95.28,3.86-.09,5.81-1,.25-2.77-.2-3.3.62-.86,1.46-.23,3.26-.22,4.78l-3.42.57c-.29,2.34.05,4.33-.41,6.29-1.61.22-2.93-.11-4.46.27.14,1.4.19,2.67-.05,3.88-.59-.08-1.22.03-2.07.03-.75,0-.93-.72-.96-1.2-.13-1.83,1.43.71-.96-2.7.68-1.9.1-4.01.3-6.2l-4.85-.2c-.44.1-.55-.08-.47-.48.28-1.71.35-3.54,0-5.37-1.69-.24-3.19.16-4.73-.23l-.36-6.21c-1.67-.26-3.08.2-4.42-.58l.12-34.91c.65-1.85,3.24-1.43,4.86-1.48Z"/>
        <path class="cls-85" d="M95.01,229.66c-.34,1.88.51,4.23-.42,6.13-.34.7-2.03.89-1.54,2.41s-.59,2.49-1.83,2.85c-2.28.66-.66,2.57-.65,3.52.02,1.74-.61,4.38-.03,6.47.25.91-.22,1.82-.83,1.95-1.78-.54-3.94-.37-6.08-.37-.7,3.58.18,6.99.14,10.31-.07,5.18-.29,10.37-.72,15.82l-4.4.45-1.28,29c-.94.34-1.83.06-2.64.47l-1.2,17.27c-.21,3-.31,5.68-.42,8.5-.04,1.07-2.41.54-3.38.62-.85,8.57-.87,17.13-1.26,25.91-.03.62-2.13.68-1.57,1.83-.83.08-1.51-.12-1.93.18-.7,2.51-.52,4.93-.35,7.7l24.65.14c.38,2.22.37,3.56.01,4.99l-6.38.48-.71,4.21c-1.05-.5-1.68-.39-1.94-.07-.13.16.02.53-.02.77-1.08-.22-.44-2.73-1.57-5l-19.23-.12.65-14.41,3.48-.54,1.31-19.54c.18-2.62.69-5.28,1.33-7.64l1.36-5.02c.11-.41.19-1.08.43-1.37.19-.23.88-.26,1.36-.55l.99-17.91c.09-1.7,1.71-3.19.92-5.46-.12-.34.13-1.34.41-1.6.25-.23,1.03.4,1.53.12,1.12-7.75.64-15.37,1.03-22.99l4.23-.56c.02-7.14.59-13.7,1.09-20.55.24-3.26,1.13.82,2.4-5.57l-3.65-.47c.24-1.2.19-2.47.05-3.88,1.53-.39,2.85-.05,4.46-.27.47-1.96.12-3.95.41-6.29l3.42-.57c-.01-1.52-.64-3.32.22-4.78.53-.82,2.3-.37,3.3-.62.36-1.95,0-3.85.09-5.81,1.65-.68,3.26-.11,4.77-.16Z"/>
        <path class="cls-157" d="M148.77,135.33c3.93.92,8.15.32,12.38-.1.53-1.17-.21-2.68.54-3.77s2.87-.05,3.93-.7c1.22-.75,2.31-1.5,3.92-1.28.54-1.32.2-2.77.79-3.73.36-.59,2.56-.54,2.76.12.38,1.24.39,3.41-.37,4.17-.68.68-2.32-.06-2.88,1.07-.28.56-.41,1.54-.8,1.88-.7.61-1.76.34-2.76.42l-.7,2.48c-1.44,0-2.73-.04-4.21.36l-.39,4.02c-10.25.73-20.3.98-30.43.88-.4,0-.8-1.16-1.66-1.02-2.07.34-4.09.1-6.23.03-.38-1.39-.04-2.53-.21-3.81l-6.59-.34c-.77-.04-.66-1.44-1.26-1.7-1.01.13-1.93.25-2.61-.16-.72-.43-.52-1.75-.37-2.99-1.36-1-3.02-.13-4.61-.67l-.37-4.49c-1.47-.43-3.06.07-4.09-.45-1.08-1.97-1.83-.95-4.3-1.34-1.73-.27-.12-3.85-1.57-4.1l-1.53-.27c-.53-.09-.32-1.15-.74-1.43-1.27-.86-2.92.01-4.04-.63-1.18-1.07.67-4.88-1.68-4.3,1.34-.94,1.86-3.35.69-4.48.56-1.41.24-2.95.38-4.42.01-.13.05-.26.05-.4,1.17,1.01,7.96-1.2,8.09,2l.25,6.13c1.36.67,2.83-.08,4.07.65.75.44.21,1.85.52,2.64.42,1.06,2.62.62,2.76,1.56l.36,2.35c.17,1.11,4.56.69,4.67,1.36l.36,4.3,5.41,1.01.5,3.94,5.91.77c-.12,1.24-.23,4.08,1.38,4.29,4.71.62,20.19.91,24.68.15Z"/>
        <path class="cls-83" d="M106.1,109.51c0,1.14.18,2.7.57,3.86.78.37,2.19.06,2.96.35.97,1.91.87,4.02,1.48,6.27.34,1.25,2.85,1.25,3.87,1.13,1.32.63.17,2.69,1.08,3.72,1.43,1.63,4.32,1.32,5.84.64l2.81.52c-.17,1.46.14,2.98.8,4.42,6.06.11,11.89.27,17.75,0,1.94-.09,4.24-.25,5.96.5-.21,1.47,0,2.98-.45,4.4-4.49.76-19.97.46-24.68-.15-1.61-.21-1.5-3.04-1.38-4.29l-5.91-.77-.5-3.94-5.41-1.01-.36-4.3c-.12-.68-4.51-.26-4.67-1.36l-.36-2.35c-.14-.94-2.34-.5-2.76-1.56-.31-.79.22-2.2-.52-2.64-1.24-.73-2.71.02-4.07-.65l-.25-6.13c-.13-3.2-6.92-.99-8.09-2,.1-2.79-.01-5.71.74-8.57,2.4.25,4.38.07,6.12-.91,1.86,2.55-.13,6.14,1.01,9.37,1.18.42,2.66.09,3.88.3.68,1.62.21,3.27.15,5.07l4.43.06Z"/>
        <path class="cls-147" d="M52.47,184.08c-.25,1.12.33,2.7-.46,3.81-.61.85-1.91,1.54-1.55,3.06.37,1.59-1.78,1.34-1.91,2.02-.66,3.63-.52,8.18-.39,11.87,2.29.29,4.39.08,6.7.04l.48-8.27c2.74-4.3,3.12-2.12,3.71-3.16.33.08.69.21.87.51l-.12,34.91c1.33.78,2.75.32,4.42.58l.36,6.21c1.55.39,3.04,0,4.73.23.35,1.83.27,3.66,0,5.37-1.35.15-2.76.14-4.38-.21l-.36-5.11c-1.92-.5-3.54.07-5.19-.63,0-2.02.17-3.76-.11-5.53-1.57-.31-2.89,0-4.45-.48l.04-18.16-5.89-.34-.82-5.47-4.79-.33c-.35-4.08-.12-7.91-.06-12.25,1.54-.39,2.86.02,4.46-.57.31-2.36.3-5.06,1.16-7.31,1.1-.48,2.93-.22,3.46-1.33.02.18.16.31.11.53Z"/>
        <path class="cls-97" d="M78.27,109.5c-.37.93.48,3.1-1.03,3.42-.76-.13-2.82-.89-2.77.53.08,2.06-.11,4.09.38,6.15.31,1.31,2.43.36,3.34.43,1.66.14,2.93.52,4.76.13l.44,5.14,5.66.16.06,5.45,5.03.42.25,5.25c1.42.1,3.65-.46,3.79.67l.39,3.18c.87.82,2.51.31,3.78.65.35.69-.1,1.26.1,1.89l4.42.16c.3.01.15.92.43,1.17,1.35,1.2,2.58-.23,3.38.91.21.29-.08,1.12.13,1.52,1.43.59,3.23.35,4.66.14.03,1.33.54,2.61.97,3.85-.68.61-.46,1.6-.56,2.39-1.08-.26-2.2-.57-3.28-.69l-1.22-.13c-1.24-.14,0-2.94-2.41-3.07-.99-.05-1.81-.04-2.58-.2-.62-.49-.92-1.27-1.55-2-.5-.58-1.61-.21-2.09.16-.76-1.83-3.14-.41-4.63-1.44-.23-1.27.38-3.88-1.01-4.01l-3.05-.28c-1.11-1.29.01-3.16-.68-4.79-1.41-.38-3.34.32-4.46-.5-1.19-.87-.47-3.02-.93-4-.65-1.4-2.82-.17-3.55-.71-1.54-1.23-3.63-1.73-5.65-1.49-.55-1.53-.25-2.94-.52-4.56-1.47-.34-2.93.24-4.04-.51.02-1.16.63-2.97-.17-4.14l-3.72-.42c.03-1.23.15-2.75.51-4.08.15-.57-.95-1.43-.64-2.17.41-.97.6-2.03.92-3.22,1.04-.35,2.47.03,3.21-.7,1.27-1.25,2.69-.23,3.91-.68Z"/>
        <path class="cls-142" d="M228.61,135.84c-1.56.37-2.83,1.49-4.35,1.97-1.87-2.57-1.25-3.68-1.83-6.75-1.66-.13-3.14-.79-4-1.62-.96-.91.33-2.99-.34-3.76-.95-1.09-3.04-.13-4.02-.94-.63-.51-.81-1.58-1.89-1.87-3.32-.88-.57,2.72-7.31,1.15l.43-4.45c-1.38-.37-2.72.02-3.94.36-.15-1.08-.66-3.08.48-3.86.48-.33,2.07.24,2.4-.34.28-.49.62-1.44.06-2.15-.26-.33-.97-.22-1.22-.38-1.04-.63.27-3.79-2.14-3.98l-4.22-.33c-.57-1.77.11-3.26-.18-4.71,1.59-.08,4.22.09,5.66.69.73,1.38-.17,3.66.91,4.99,2.02-.24,3.75.22,5.82.82.27.08.47-.92.88-.39l.59.76c1.24,1.58-.03,4.34.25,6.66,2.35,1.07,4.76,1.62,7.37,1.88l.5,4.79c1.67.05,3.38.43,4.96,1.3l.25,4.25c1.56.36,3.03-.11,4.36.49.27,1.94-.19,3.82.52,5.41Z"/>
        <path class="cls-170" d="M215.2,339.08c-1-.33-.35,8.14.19,9.71.2.57,1.08.69,1.08,1.64,0,2.84.44,5.61.72,8.46l1.01,10.09c.23,2.28.24,4.42.21,6.89l-8.02.36c.02-1.5-.7-3.85.1-5.34.32-.57,2.62.1,2.78-.75l-.74-20.3-2.27-.91-.58-14.05c-.04-1.07-2.38-.27-2.97-.72-.97-.74-.39-2.63-.31-3.55.8.46,1.81.08,2.87.52.91,2.21,2.63,4.35,5.13,4.66-.46.95-.79,1.71-.48,2.3.21.39.75.69,1.28.99Z"/>
        <path class="cls-47" d="M83.65,157.29c-.39,1.8-.13,4.2-.86,5.84-6.78-.56-13.64-.31-20.45-.25-2.27.02-5.01-.45-7.35.05l-.59,2.17c-1.96-.31-3.97.26-6.05-.31-.08-1.08-.14-2.08-.78-2.58.88-1.43.46-3.33.49-4.96l20.24-.15,15.34.18Z"/>
        <path class="cls-60" d="M58.94,130.31c.29.04.99.2.99.56-.02,1.75.06,3.55-.27,5.52-1.61.09-3.23-.14-4.8.37-.45,2.68.43,5.17-.45,7.46s-.26,4.51-.59,6.65c-1.54.56-3.25.49-5.41.37-.63,2.13-.31,4.09-.34,6-.03,1.63.4,3.53-.49,4.96-1.24.13-2.48,0-4.27-.02-.28-3.71-.23-7.22,0-10.95,1.66-.25,2.93.11,4.3-.29.46-1.05-.12-2.65.6-3.39,3.23-3.32,1.42-5.59,2.36-10.95,1.38-.31,2.51-.02,4.08-.15l.48-5.87c1.19-.33,2.9-.41,3.82-.29Z"/>
        <path class="cls-62" d="M196.54,104.2l-9.49.46c-.93.05-.97,2.48-1.09,3.24-.74.68-1.54.52-2.38.79-.3,1.43-.48,2.66-.61,4.22-1.75.21-3.3.24-4.86.17.14-1.39-.25-3.74,1.06-4.58.9-.35,3.26.24,3.8-.95.45-1-.49-2.6.67-3.14.51-.24,1.47-.21,1.74-.64-.91,1.4,1.29-5.21,1.16-4.16.85-.09.22.97.6,1.02.26.03.96.26,1.23.11.46-1.15,1.32-1.96,2.48-2.17.89-.16,2.01-1.16,2.9-.09.54.64,1.8.93,2.2,1.56.78,1.21.34,2.91.58,4.16Z"/>
        <path class="cls-45" d="M62.34,162.88c-.01,1.04.24,2.08-.31,3.18,1.31.19,1.07,1.28-.12,1.1-.41,5.52-.97-.64-.97,3.47-.38.13-.55-.12-.74-.27-.39-.33.07-.7.3-1.35-.6-.67-.61-.05-.76.7-2.63-2.1-1.39,5.15-1.4,5.41-.04,1.8-3.6,1.51-3.66,2.91l-.29-12.93.59-2.17c2.34-.49,5.07-.03,7.35-.05Z"/>
        <path class="cls-120" d="M70.23,114.1c-.31.74.79,1.6.64,2.17-.36,1.33-.48,2.85-.51,4.08-1.65-.18-3.35.2-5.13-.11-.41,1.61-.44,2.87-.38,4.2-.84,1.17-4.54,1.27-4.91.79-.17-.23.18-.9-.54-.82.05-1.46-.23-3.02.19-4.76l5.43-.4c.3-1.38-.54-3.99.73-4.67,1.43-.77,3.26-.03,4.47-.49Z"/>
        <path class="cls-96" d="M89.73,104.57c-.14,1.47.18,3.01-.38,4.42-2.09.14-4.12.03-6.13.47-1.54.34-3.35-.54-4.94.04.58-1.47.42-2.93.39-5.09,3.92.02,7.56-.51,11.07.15Z"/>
        <path class="cls-1" d="M89.68,376.21l-.44,5.45c-1.84-.06-4.08-.51-5.63.53-.58.12-.17-.62-.44-.93-1.14-.66-2,.14-2.94-.05.03-.24-.11-.61.02-.77.26-.32.89-.42,1.94.07l.71-4.21,6.38-.48c-.06.24.18.37.4.39Z"/>
        <path class="cls-10" d="M74.31,248.15c-1.33-.04-2.67,0-4.2-.32l-.35-6.08,4.85.2c-.2,2.19.39,4.3-.3,6.2Z"/>
        <path class="cls-109" d="M64.85,124.44c0,.21.17.43.17.63-.07,1.68-.24,3.46-.45,5.31l-4.64.49c0-.37-.7-.52-.99-.56.21-1.96.4-3.93.46-5.9.72-.08.37.59.54.82.36.48,4.07.38,4.91-.79Z"/>
        <path class="cls-102" d="M190.86,98.58c-1.16.2-2.02,1.02-2.48,2.17-.27.15-.97-.08-1.23-.11-.38-.05.26-1.11-.6-1.02l.55-4.34c.03-.27.23-.48.49-.52,1.24,1.95,2.86.47,3.26,3.83Z"/>
        <path class="cls-126" d="M187.1,95.27l-.55,4.34c.13-1.05-2.07,5.56-1.16,4.16-.27.42-1.24.4-1.74.64-1.16.54-.22,2.14-.67,3.14-.54,1.19-2.9.6-3.8.95-1.31.84-.92,3.19-1.06,4.58-.72.53-.19,4-.33,5.62-1.53.63-3.12,0-4.63.38-.96.24-1.77,1.24-3.31.72l-.3,5.06c-2.2.43-4.33.35-6.37.43-.28-1.85.16-3.77.42-5.62.94.17,2.21-.21,3.22-.54.72-2.07-.21-4.06.71-5.78.37-.69,4.48-.1,3.12-1.3-.09-1.14,0-1.99.35-2.8.49-1.14,1.17-1.42,2.59-1.14.3-1.32-.1-2.34.42-3.52,1.46-.22,2.49-.05,3.79-.39-.06-1.7.41-3.44.26-5.01,1.35.36,3.29.56,4.64-.44.09-.9.37-2.23.34-3.06,1.37.17,2.76-.11,4.09-.43Z"/>
        <path class="cls-12" d="M170.63,112.05c1.37,1.2-2.74.61-3.12,1.3-.92,1.72,0,3.71-.71,5.78-1.01.33-2.28.71-3.22.54-1.41-.26-2.93.16-4.22-.54,0-1.67-.34-3.48.19-5.33.33-.58,1.54-.37,2.12-.85.14-1.61-.11-3.18.56-4.76l4.22-.33.58-2.94c1.45-.47,3.36-.96,5.11-.78,1.1.11,1.37,2.69.69,3.21s-1.74.02-2.3.92c-.73,1.19-.58,4.29.09,3.76Z"/>
        <path class="cls-84" d="M163.58,119.68c-.25,1.85-.69,3.77-.42,5.62-.57.02-1.04.56-1.58.6l-5.16.44c-1.02-1.78-4.4-1-6.22-.52-.91,1.39-.36,3.59-.4,5-.17,0-.33.23-.57.13-1.73-.76-4.03-.59-5.96-.5.12-1.47-.17-3.02.24-4.73l6.19-.51c1.45-4.88.6.63,3.23-4.87,2-1.03,4.8.43,6.44-1.18,1.3.7,2.81.29,4.22.54Z"/>
        <path class="cls-56" d="M115.59,113.43c2.15,1.84-.14,2.3,1.37,3.82.22.23,1.17.05,1.31.4.44,1.11.31,2.37.31,3.35-1.12.02-2.55,0-3.6.12s-3.52.12-3.87-1.13c-.61-2.25-.51-4.36-1.48-6.27.61.23,1.53-.02,1.82-.6,1.27.57,2.79-.01,4.14.31Z"/>
        <path class="cls-76" d="M118.58,121.01c.71-.01,2.11-.18,2.71.28.49,1.35.34,2.87.61,4.2-1.53.68-4.41.99-5.84-.64-.91-1.03.24-3.09-1.08-3.72,1.06-.12,2.49-.1,3.6-.12Z"/>
        <path class="cls-16" d="M166.23,382.81l-.08,15.72-50.44.05-.15-16.77c.14,0,.31-.02.44-.06.19-.06.49-.06.66.04.14.08.3.28.43,1.1l12.2.05,36.94-.13Z"/>
        <path class="cls-111" d="M131.4,256.18c-1.85,2.45-2.01,11.34-1.93,15.01l3.44.2.1.48c.28,1.28-.19,2.64.34,4.14,3.31.18,6.58.24,9.83,0,.4-1.66.01-3.22.53-4.53,1.27-3.17.58-6.93.44-10.33-.06-1.36-.22-3.45.39-4.82,1.23-.96,3.6-.33,5.23-.22.6,2.67-.5,5.76,1.04,7.89l2.66,3.68c1.6,2.21.4,5.84,1.52,8.62.68,1.69,1.38-2.7,2.6,8.12.7.72,2.36.47,3.27.79l.78,6.61c.18,1.52.2,2.87.79,4.17l3.16.45,1.43,11.84c1.43-.22,2.82-.16,3.34,1.13s-.02,2.75.37,4.15c.58.27,2.17-.03,2.27.7l.68,4.78c1.33.48,2.66,0,3.88.64.04,1.83-.2,3.47.46,5l3.41.53.2,4.25c1.09.37,2.17.09,3.1.64.23,1.62-.1,3.14.35,4.79l3.55.44c.36,3.95.59,4.37,1.36,8.12,1.06.41,2.09-.04,3.29.28.43,1.68.15,3.26.37,4.99l2.89.56.61,4.36c.69.86,2.46.29,3.54.53.68,3.38.18,6.79,1.04,10.07.57,2.16,1.76,4.4.79,6.79-.68,1.68-.05,3.51-1.01,5.33l-84.89-.17.39-124.09c.81.08,13.11.8,12.46-.52.47.57,1.81.17,2.38.57,1.32.94.28,3.04-.48,4.05Z"/>
        <path class="cls-44" d="M162.11,243.63c-.15,1.46-.14,2.99.05,4.45.18,1.36.05,2.66.04,3.99-5.48.43-11,.03-16.46-.47.14-.95-.27-2.32.23-3.29.45-.88,1.99-.33,2.86-.65,1.27-.48,1.24-2.2.86-3.13-.08-.21-.18-.37.05-.61.1-.1.08-.35.37-.26.14.38.51.65,1.13.65h8.94c.9,0,1.43-.21,1.92-.67Z"/>
        <path class="cls-106" d="M116.64,376.17c0,1.58.29,3.23.02,4.91-.55.13-.86.39-.66.67-.14.04-.3.07-.44.06-1.48-.04-2.98-.23-4.47-.18l.4-5.02c1.1-1.15,3.75-.46,5.15-.45Z"/>
        <path class="cls-111" d="M224.26,137.81c-.14,1.89-1.95,3.05-3.55,4.12-2.7,1.81-5.8,2.73-9.57,2.28l-1.08,4.51c-6.73.88-2.56,1.57-8.62,2.09l-.54,4.16c-2.2.87-5,.39-7.24,1.55.4-.21-3.67,4.83-4.23,4.69-.42-2.9,3.41-2.15,3.18-4.67-.04-.44.75-1.01-.69-1.22-.97-.14-2.42.6-3.4,0-1.59-.97-2.95-1.32-4.73-.9-1.13.27-1.29-1.89-1.83-2.52-1.04-.64-2.65.06-3.8,0l-1.05,4.86c-.18.81-6.67.92-6.49-.51-.23-1.85.73-3.71.11-5.49.08,0,.17,0,.25,0l6.55.03c.23-1.63.09-2.98.09-4.36,1.13.31,3.08.13,4.25-.58s.25-2.92.61-4.05c.3-.03.5-.12.59-.41,1.5.11,3.02-.24,4.7-.79.46-1.5.26-2.92,1.02-4.22,1.21.07,2.82.4,3.48-.37.47-.54.19-1.7,1.05-2.51.48-.45,1.26-.11,2.27-.49,1.08-.42.44-2.2.97-3.02.71-1.11,2.63-.27,3.66-.67.57-1.07,0-2.75.87-3.72.91-1.02,2.97-.38,3.77-1.56,6.74,1.57,3.99-2.03,7.31-1.15,1.08.28,1.26,1.36,1.89,1.87.99.81,3.07-.15,4.02.94.67.77-.61,2.84.34,3.76.86.82,2.34,1.49,4,1.62.58,3.07-.04,4.18,1.83,6.75Z"/>
        <path class="cls-124" d="M93.67,177.48c-.84.76-1.59,2.58-.98,3.59,2.14.59,4.81-.03,6.86.04,1.15.03,2.77,0,3.89.53,1.38.64,2.57-.23,3.65-.01,3.11.64,6.3-.48,9.34.44-.13.28.3,1.51-.29,1.74-1.66.65-3.54.19-5.38.59l-.45,4.33-5.89.52c-.92,7.52-1.38,14.82-.9,22.05.01.22-.05.34-.08.54-.25.13-.45.07-.64.02-.22-.07.31-2.35-4.59-.08-1.1,2.06-.12,4.31-.14,6.04-.02,1.98-.43,3.93-.18,6.27l-15.14-.25-.28-6.75-4.98-.42-.06-5.3c-.04-3.59,0-7.29.4-11.34.14-1.4.82-2.77-.39-3.62-.15,1.07-.9,1.4-1.56,1.74.2.45.53,1.2.28,1.82-.8,2.03-3.12-.34-6.05,1.54.44-2.16-3.63-.79-5.31-1.47.04-2.75-.28-5.2-.02-7.58.13-1.24.51-2.66.74-3.99,1.7-.35,2.91-.03,4.2-.56.39-1.28,0-3.35,1.12-4.24,1.05-.82,2.88-.21,3.79-1.33.36-.45.16-1.64-.02-2.2-2.19-.41-4.12.82-4.74,2.98-4.45,1-4.76,4.31-8.57,5.91-.55,0-.79-.52-.73-.85l.3-1.72c.11-.63.57-1.53.34-1.95-.21-.39-.95-1.1-1.4-.99.03-.72,0-1.52-.17-2.46-.13-.68.76-1.28,1-1.04.27.28.62,2,.61-.12,3.26-1.43,5.68.29,7.22-3.08,3.96-1.3,8.51-.2,12.73-.38,4.45-.19,8.47.22,12.47,1.03Z"/>
        <path class="cls-159" d="M108.56,210.93l2.1.15.33,12.65c1.8.35,3.56.15,5.12.1-.02.17.07.33.06.48l-.11,5.36c-.73,1.54-8.7.48-9.84,1.22-.08,3.68.06,6.79-.77,9.86l20.42.43c.14.96.09,1.53.01,2.43l-5.32.09c-.15.05-.14.4-.1.48-3.11.32-6.23.54-9.36.38-6.83-.34-13.69-.08-20.52,0,0-.95-1.63-2.87.65-3.52,1.24-.36,2.34-1.26,1.83-2.85s1.2-1.71,1.54-2.41c.93-1.9.08-4.25.42-6.13l5.27-.17c.71-1.87.37-3.81,1.62-5.49s.22-4.07.96-6c.07-.18.59-.22.73-.41.38-.5-.37-.57-.46-.76.32-1.44.08-3.5.31-4.98.03-.2.1-.32.08-.54,1.68.06,3.45-.49,5.04-.37Z"/>
        <path class="cls-143" d="M77.43,211.37c.14-2.08-4.82.38-7.16-1.52.26-2.92.08-5.64-.16-8.32,2.92-1.88,5.24.49,6.05-1.54.25-.62-.08-1.37-.28-1.82.66-.35,1.41-.67,1.56-1.74,1.21.84.53,2.22.39,3.62-.39,4.05-.44,7.76-.4,11.34Z"/>
        <path class="cls-65" d="M64.78,192.47c-1.62.06-4.21-.37-4.86,1.48-.18-.31-.54-.43-.87-.51,1.18-2.08-1.13-.39,2.26-4.39,3.81-1.6,4.11-4.91,8.57-5.91.62-2.16,2.55-3.38,4.74-2.98.18.56.38,1.76.02,2.2-.91,1.12-2.75.51-3.79,1.33-1.12.88-.73,2.96-1.12,4.24-1.29.53-2.51.21-4.2.56-.22,1.33-.6,2.75-.74,3.99Z"/>
        <path class="cls-27" d="M103.43,211.84c-.23,1.48,0,3.54-.31,4.98-.05.33-.15.92-.54.82l-4.52.16c.01-1.73-.97-3.98.14-6.04,4.91-2.26,4.37.02,4.59.08.19.06.39.12.64-.02Z"/>
        <path class="cls-23" d="M120.46,244.2c1.88-.19,3.89-.23,5.64.4.6.97.37,2.52.8,3.56l-9.7.08c-.64,1.43-.17,2.63-.17,3.85l-.39,124.09c-1.4,0-4.05-.7-5.15.45l-.4,5.02c-7.28.24-14.58.25-21.85.02l.44-5.45c1.61.13,3.53.02,4.92-.51,3.76,1.1,8.52.67,12.43.14.81.63,2.21.47,3.66.34.69-1.69.23-3.85-.06-5.39.97-4.85.4-9.91.4-14.88v-103.87c.01.18.52-6.76.07-7.46,3.14.16,6.25-.06,9.36-.38Z"/>
        <path class="cls-128" d="M111.09,244.58c.44.7-.06,7.64-.06,7.46-1.21.31-2.6-.22-3.93.62.02,1.14.52,2.81-.53,3.33-.52.03-2.27-.67-2.59.06-.34,4.75-.78,9.24-1.42,13.85-1.34.55-2.49.41-4.02.47l-.52,8.46-2.9,66.65-.47,25.33c-.03,1.63-.37,3.29-.06,4.9-1.4.54-3.32.65-4.92.51-.22-.02-.46-.15-.4-.39.35-1.42.37-2.77-.01-4.99l-24.65-.14c-.18-2.77-.35-5.19.35-7.7.42-.3,1.1-.1,1.93-.18-.56-1.15,1.54-1.22,1.57-1.83.39-8.78.41-17.34,1.26-25.91.97-.08,3.34.44,3.38-.62.11-2.82.22-5.5.42-8.5l1.2-17.27c.81-.41,1.7-.13,2.64-.47l1.28-29,4.4-.45c.43-5.45.65-10.64.72-15.82h5.32c.71-3.46.46-6.73.62-9.93.61-.13,1.09-1.04.83-1.95-.58-2.09.04-4.73.03-6.47,6.83-.09,13.69-.34,20.52,0Z"/>
        <path class="cls-81" d="M89.72,253c-.17,3.21.08,6.47-.62,9.93h-5.32c.05-3.32-.84-6.73-.14-10.3,2.14,0,4.3-.17,6.08.37Z"/>
        <path class="cls-80" d="M89.34,108.99c1.16,1.13.65,3.54-.69,4.48-1.3-.05-3.61-.08-4.81-.78-.5-1.07.57-2.96-.63-3.23,2.01-.44,4.04-.33,6.13-.47Z"/>
        <path class="cls-82" d="M59.82,183.54c.45-.11,1.2.61,1.4.99.23.42-.23,1.32-.34,1.95l-.3,1.72c-.06.32.18.85.73.85-3.39,4-1.08,2.31-2.26,4.39-.59,1.05-.97-1.14-3.71,3.16l-.48,8.27c-2.31.04-4.41.25-6.7-.04-.13-3.69-.27-8.24.39-11.87.12-.68,2.28-.43,1.91-2.02s.95-2.21,1.55-3.06c.79-1.11.21-2.68.46-3.81,2.46-.14,4.96.01,7.35-.55Z"/>
        <path class="cls-88" d="M94.12,157.28l.05,7.44c0,1.1-.13,2.26-.13,3.35-.26-.19-.47-.01-.66.09-.36.2-.22.51-.22,1v7.31c-.53.18-1.22-.07-1.58.49-2.18-1.29-4.96-1.61-7.75-1.24l.9-7.13c.09-.69,1.31-.15,1.56-.77.59-1.48.14-2.97.45-4.53l3.28-.29c.19-2.17.22-4.03,1.13-5.68l2.98-.05Z"/>
        <path class="cls-54" d="M91.14,157.33c-.91,1.64-.95,3.51-1.13,5.68l-3.28.29c-.31,1.56.14,3.05-.45,4.53-.25.62-1.47.08-1.56.77-.49,0-1.34-1.06-1.68-.37-.29.61-.35,1.26-.65,1.71-.27.4-3.73.04-3.84-1.3-.09-1.12.28-1.92,1.76-1.87.56.02,1.83.64,2.16-.17.44-1.08.42-2.6.31-3.46.73-1.64.47-4.04.86-5.84,2.49.03,5.02.08,7.49.04Z"/>
        <path class="cls-18" d="M96.58,177.56c-.86-.05-2.1.52-2.57-.47l.02-9.01c0-1.09.14-2.25.13-3.35.72.1,1.53-.17,2.49.09l-.08,12.74Z"/>
        <path class="cls-145" d="M96.58,177.56c.84.05,1.71.03,2.78.22l.19,3.33c-2.04-.06-4.72.55-6.86-.04-.61-1.01.14-2.82.98-3.59-.1-.25.06-.52.34-.4.47.99,1.71.42,2.57.47Z"/>
        <path class="cls-78" d="M60.94,170.63c.11.09.23.09.37.07-.57.56-.02,1.2.04,1.88-1.01,0,.67,2.8-1.72,3.22-.59.1-1.29.15-1.28-.69,0-.26-1.23-7.51,1.4-5.41.15-.76.16-1.37.76-.7-.24.65-.69,1.02-.3,1.35.18.15.35.4.74.27Z"/>
        <g>
          <path class="cls-53" d="M82.79,163.13c.1.86.13,2.38-.31,3.46-.33.82-1.61.2-2.16.17-1.48-.06-1.85.74-1.76,1.87.11,1.34,3.57,1.71,3.84,1.3.3-.44.36-1.1.65-1.71.34-.7,1.18.36,1.68.37l-.9,7.13c2.78-.38,5.57-.06,7.75,1.24.36-.56,1.05-.31,1.58-.49v-7.31c0-.49-.14-.8.23-1,.19-.1.4-.28.66-.09l-.02,9.01c-.28-.12-.44.15-.34.4-4-.81-8.02-1.22-12.47-1.03-4.21.18-8.76-.91-12.73.38-1.54,3.37-3.96,1.65-7.22,3.08.01,2.12-.34.39-.61.12-.24-.24-1.13.35-1,1.04.17.94.2,1.75.17,2.46-2.39.56-4.89.41-7.35.55.05-.21-.09-.35-.11-.53-.13-1.1-.56-3.24.48-4.14.62-.54,1.82-.49,1.86-1.39.06-1.4,3.61-1.11,3.66-2.91,0,.84.7.79,1.28.69,2.39-.42.71-3.21,1.72-3.22.37-.26.86.25,1.2-.05.39-.34.31-1.1.14-1.65s-.86-.26-1.39-.19c-.14.02-.26.02-.37-.07,0-4.11.56,2.05.97-3.47,1.19.18,1.42-.91.12-1.1.56-1.1.3-2.14.31-3.18,6.81-.07,13.67-.31,20.45.25Z"/>
          <g>
            <path class="cls-3" d="M68.38,172.88c-.69-.55-.46-2.11.05-2.53.43-.36,1.48-.12,1.82.14.43.32.2,1.34.07,1.79-.15.51-1.08,1.28-1.94.59Z"/>
            <path class="cls-91" d="M74.24,169.77c.45.2.25,2.98-.7,3.01-.66.02-1.28-.17-1.23-1.21.03-.72-.38-1.51.2-1.67.47-.13,1.04-.43,1.73-.12Z"/>
            <path class="cls-131" d="M76.65,172.9c-1-.01-.81-1.18-.45-1.57.58-.62,1.7-1.16,2.12-.3.29.61.08,1.49-.2,1.79-.23.24-.71.09-1.46.08Z"/>
            <path class="cls-94" d="M61.35,172.58c-.07-.68-.62-1.33-.04-1.88.53-.07,1.21-.35,1.39.19s.25,1.31-.14,1.65c-.34.3-.83-.22-1.2.05Z"/>
            <path class="cls-165" d="M61.56,174.78c-.03-.35.68-.12,1.01-.17.16-.02.35.32.07.48-.15.08-.35.47-.52.49s-.51-.32-.55-.8Z"/>
          </g>
        </g>
        <path class="cls-124" d="M74.25,124.91c1.11.75,2.57.17,4.04.51.27,1.62-.03,3.03.52,4.56,2.02-.24,4.11.25,5.65,1.49.73.54,2.89-.69,3.55.71.46.99-.26,3.13.93,4,1.12.82,3.04.12,4.46.5.69,1.63-.43,3.5.68,4.79.26.31-.63.95-.48,1.33.82,2.12-5.02,9.04-4.15,6.5l-.68,1.98c-.12.35-1.33.43-2.12.43l-31.72-.04c-.62,0-1.36-.4-1.12-.8.33-2.15-.25-4.47.59-6.65s0-4.79.45-7.46c1.57-.51,3.19-.28,4.8-.37.33-1.96.24-3.77.27-5.52l4.64-.49c.21-1.86.38-3.63.45-5.31,3.03.65,6.19.34,9.23-.16Z"/>
        <path class="cls-178" d="M102.78,147.2c.43,1.31-.12,2.33-.36,3.45-.13-.68-7.92-.25-7.97.71l-.32,5.91-2.98.05c-2.48.04-5-.01-7.49-.04l-15.34-.18-20.24.15c.03-1.91-.29-3.87.34-6,2.16.12,3.87.19,5.41-.37-.24.4.51.8,1.12.8l31.72.04c.79,0,2-.08,2.12-.43l.68-1.98c-.87,2.54,4.97-4.38,4.15-6.5-.15-.39.74-1.03.48-1.33l3.05.28c1.39.13.78,2.74,1.01,4.01,1.49,1.03,3.87-.39,4.63,1.44Z"/>
        <path class="cls-95" d="M125.36,150.17c.59.38.24,1.25.8,1.85,2.17.17,4.18.02,6.16.32.51,1.13-.37,2.93.41,4.04.84.88,2.64.37,3.63.38l12.88.09.21-4.24c1.07-.6,2.28-.04,3.26-.52,4.02-1.97,3.64.3,4.19-1.81.32.22,1.58.43,1.2,1.39-.47,1.2-1.19,2.03-1.02,2.99-.4-.23-.74.2-.49.57-1.06-.41-1.79.81-2.43,1.08-.87.36-2.92-.2-2.89,1.39-1.02-.88.39,3.9-2.97,3.49-2.12-.26-3.7.37-5.38.98-.75.27-2.05.33-3.06.33l-11.84-.03c-1.14-1.01-3.02-1.99-3.15-3.33l-.13-1.23c-.09-.91-2.67-.24-3.92-1.22-.72-.56-.02-1.69-.36-2.53-.57-1.4-2.79-.82-3.96-.93-.21-.02-.38-.05-.59-.1.09-.79-.12-1.78.56-2.39,2.93-.65,5.95-.26,8.91-.58Z"/>
        <path class="cls-77" d="M106.41,149.04c.78.17,1.6.15,2.58.2,2.42.13,1.17,2.94,2.41,3.07l1.22.13c.18.88-1.04.45-1.5.81-.73.55-.43,2.2-.08,2.83.44.8,1.83.79,2.88.61.43.06.58.09.73.07.39-.04.52-.47.28-1.28.54-.5.98.47,1.55.2-.4,1.7-.68,3.55-.24,5.43.23.98,1.7.54,2.27-.2.31-.4-.44-1.03-.4-1.83.04-.75.43-1.57.21-2.37-.17-.58-.95-.53-1.38-.97-.32-.41.47-.54.29-.67-.33-.24-.83-.54-1.4-.23-1.09-.05-.95-.65.08-.84.43.17.97.39,1.03-.01.03-.21-.69-.44-.47-.77,1.17.11,3.39-.48,3.96.93.34.84-.35,1.97.36,2.53,1.25.98,3.83.31,3.92,1.22l.13,1.23c.14,1.34,2.01,2.32,3.15,3.33l11.84.03c1,0,2.31-.06,3.06-.33.19.38.08,1.35-.17,1.86-.2.41-4.59-.2-3.46,1.14-.38.23-.77.47-.93.85-.32.75.5,1.05.5,1.69-3.84.84-7.95.17-11.95.47.38-.83-.18-2.32-.54-3-.12-.23.03-.74-.04-1.25-.09-.62-3.05-.59-3.34-.38-.67.49-1.07,1.28-1.57,2.39-1.61-1.2-3.47-1.75-4.93-.37.42.66.93.11,1.42.26.6.56,1.07,2.14,2.06,2.17,1.28.04,2.34-.5,3.41-.26.08.57-.22,1.03-.64,1.4s-.97.25-1.77.14c.07,1.09-.46,2.8.18,3.61,1.06,1.01,2.74.51,4.04.92.23,1.69,1.38,2.28,2.66,2.29-.37.98-.2,2-.14,3.06-.36-.19-.78,0-1.04-.11-.54-.22.37-.81.31-1.09-.58-2.65-3.53-3.19-5.91-2.9-.34-.86-1.13-.9-1.91-1.2-1.89-.73,1.04-3.37-.83-5.24-.55-.55-1.2-.4-2.22-.05l-.14-6.02c-1.39-.62-3.42.14-4.75-.66s-.38-3.08-.72-4.58c-1.19.16-2.62-.05-3.39-.47-.77-2.15,1.55-7.42-2.08-7.22.41-.42.89-.72,1.41-.59Z"/>
        <path class="cls-90" d="M70.36,120.35l3.72.42c.81,1.17.19,2.98.17,4.14-3.04.5-6.21.82-9.23.16,0-.2-.16-.42-.17-.63-.05-1.33-.03-2.59.38-4.2,1.78.32,3.48-.07,5.13.11Z"/>
        <path class="cls-136" d="M106.41,149.04c-.51-.13-1,.17-1.41.59,3.63-.2,1.31,5.07,2.08,7.22-1.2.65-2.73.42-4.09.45-.14.02-1.04-.16-.86-.3.58-.47-.1-4.55.28-6.36.24-1.12.79-2.14.36-3.45.48-.36,1.58-.73,2.09-.16.64.73.94,1.51,1.55,2Z"/>
        <path class="cls-148" d="M125.44,146.77l-.08,3.4c-2.96.32-5.98-.07-8.91.58-.43-1.24-.94-2.52-.97-3.85,3.3-.48,6.67-.05,9.96-.13Z"/>
        <path class="cls-2" d="M115.9,153.14c.21.05.38.08.59.1-.22.33.5.56.47.77-.06.4-.6.18-1.03.01-1.03.19-1.17.79-.08.84.57-.31,1.07-.01,1.4.23.18.13-.61.25-.29.67-.21-.21-.2-.19-.46-.07-.57.27-1.02-.7-1.55-.2.23.81.1,1.24-.28,1.28-.15.02-.3,0-.73-.07-1.05.18-2.44.19-2.88-.61-.35-.63-.64-2.28.08-2.83.47-.36,1.68.07,1.5-.81,1.08.12,2.19.43,3.28.69Z"/>
        <path class="cls-137" d="M204.86,124.04c-.81,1.18-2.87.53-3.77,1.56s-.3,2.65-.87,3.72c-1.03.4-2.95-.43-3.66.67-.53.83.11,2.61-.97,3.02-1,.39-1.79.04-2.27.49-.86.81-.58,1.96-1.05,2.51-.67.77-2.28.44-3.48.37-.76,1.3-.56,2.72-1.02,4.22-1.69.55-3.2.91-4.7.79.24-.72-.33-4.08.67-4.56.66-.31,2.96,0,3.79-.41s.75-2.02,1.25-2.3c1.5-.83,2.93-2.67,1.73-4.25,1.34-1.08.39-2.83.98-4.41l5.01-.45c.29-1.63-.14-3.07.4-4.57,1.6-.31,3.06-.1,4.46-.49,1.22-.34,2.56-.73,3.94-.36l-.43,4.45Z"/>
        <path class="cls-66" d="M156.42,126.33c-.17,1.36-.36,2.74-.18,4.1-2.12.33-4.31.35-6.44.37.04-1.4-.51-3.6.4-5,1.82-.48,5.21-1.26,6.22.52Z"/>
        <path class="cls-146" d="M161.58,125.89c-.24,1.18.37,3.34-.61,4.3-1.21,1.19-3.47.05-4.73.24-.18-1.36.02-2.74.18-4.1l5.16-.44Z"/>
        <path class="cls-17" d="M126.9,248.16c1.33.06,2.51,2.34,2.6,3.41.65,1.32-11.65.6-12.46.52,0-1.22-.47-2.42.17-3.85l9.7-.08Z"/>
        <path class="cls-52" d="M143.71,271.46c-.52,1.31-.13,2.87-.53,4.53-3.26.25-6.52.19-9.83,0-.52-1.5-.06-2.86-.34-4.14.19.04.31-.38.49-.38l10.22-.02Z"/>
        <path class="cls-14" d="M143.24,224.32c-.12,1.67-.21,3.41.1,5.26,4.94.54,9.71.25,14.46.16l.18,5.64c1.38.63,2.69.1,3.76.81-.43,2.33.6,5.06.36,7.44-.49.46-1.02.67-1.92.67h-8.94c-.62,0-.99-.27-1.13-.65-.63-1.12.48-2.44.45-3.44-.04-1.47-.46-3.03-.42-4.8l-3.86-.15c-.25-.12-1.11.19-.64-.43.09-1.26.19-3.27-.27-4.68-.82-.08-1.98.1-2.51.1-2.73,0-8.01.15-10.94-.08l-.48,4.57c-.11,1.08-1.48.5-2.12.56-.59.17-2.07-.35-2.52.27-.65,2.58,0,5.16-.3,7.61-.07.54-.14,1.09-.39,1.42-1.75-.63-3.76-.59-5.64-.4-.04-.08-.05-.43.1-.48l5.32-.09c.07-.89.12-1.47-.01-2.43l-20.42-.43c.83-3.07.69-6.19.77-9.86,1.14-.75,9.11.32,9.84-1.22,5.21.74,10.72.02,16.18.22l.48-5.64,10.53.05Z"/>
        <path class="cls-101" d="M189.44,161.21c-.38-.09-.69.25-.97.3-.64.12-.3,1.33-.66,1.52-.83.47-1.92,1.67-1.09,2.29.51.38,2.11-.04,2.31-.61,1.51,3.59-.6.53-3.56,3.32.59-.75.45-1.26-.17-2.1-.11-.14.68-.4.68-.57,0-.18-.1-.49-.26-.56.3.13-5.78,1.78-4.66,1.34-2.18.85-4.15.97-6.47,1.24l-4.37.52c-2.53.3-5.12.09-7.67.44-1.38.19-2.71-.11-4.51.25-.05.81-.51,1.78-.45,2.54-.7-.3-.18-1.22-.89-1.3-.5-.05-1.87-.09-2.16.77-.52,1.53-.88,4.27-.09,5.89.27.54,2.49-.63,2.3.55l-2.79.34-.6,8.06-2.31.97-.97,4.53c-.41,1.93-4.2,1.07-6.35,1.21-.55,1.43-.42,3.3-.12,5,2,.11,3.98-.04,5.88.46,1.22,3.07.13,5.96.2,8.71-.9-.51-2.69-.56-3.51.4-.73.86-.04,2.37-.72,3.28-2.15.78-4.29.51-6.82.51l-.88-8.22c-.15-.26-1.2-.65-.48-1.14.28-.19.47.17.17-.58.09-.21.35-12.91-.66-11.65-1.38-.61,5.34.49,6.44,0,.34-1.79.36-3.36.22-5.13-1.22-.46-2.3-.02-3.58-.35-.29-1.84-.61-3.6-.58-5.28.48-.71.5-1.82.68-2.68,7.1-.36,2.32-1.79,9.26-1.99.67-1.49.41-3.18.58-4.75,1.68-.68,3.4.06,4.86-.82-.11-1.15-.1-1.91.29-2.74.28-.6,1.34-.64,2.17-1.08.54-.9.58-2.14.97-3,1.06-.08,2.12-.04,3.08-.31,1.28-.14,3.56.87,4.7-.31l.67-4.41,4.05.18c-.18,1.43,6.31,1.33,6.49.51l1.05-4.86c1.15.06,2.76-.63,3.8,0,.54.63.7,2.79,1.83,2.52,1.78-.42,3.14-.07,4.73.9.98.6,2.43-.14,3.4,0,1.44.2.65.78.69,1.22.23,2.53-3.6,1.77-3.18,4.67Z"/>
        <path class="cls-129" d="M190.51,129.87c1.21,1.58-.22,3.41-1.73,4.25-.5.28-.42,1.9-1.25,2.3s-3.12.1-3.79.41c-1,.48-.44,3.83-.67,4.56-.1.3-.29.38-.59.41-1.15.11-3.14-.77-4.27.2-.99.84-.58,3.25-.58,4.43l-.64-.18c.09-2-.06-3.86,1.01-6.11-2.13.12-3.43.5-4.93.78-.04-1.19-.04-2.38.24-3.88,3.01-.16,5.71-.16,8.74-.64.62-1.74.97-3.42,1.28-5.19l3.7-.5c1.27-.17,2.37-1.24,3.49-.84Z"/>
        <path class="cls-58" d="M176.98,146.25c-1.16.19-3.34-.48-4.53.47-1.11.89-1.46,2.87-1.47,4.03-.08,0-.17,0-.25,0l-3-.23c-1.08-.08-2.33.52-3.07-.63.09-.15.8-.06.86-.24,1.62-6.19,6.01-2.84,3.6-8.27,1.36.15,2.66-.22,3.95-.45,1.5-.28,2.8-.66,4.93-.78-1.08,2.25-.92,4.11-1.01,6.11Z"/>
        <path class="cls-55" d="M170.73,150.76c.62,1.78-.34,3.64-.11,5.49l-4.05-.18-.67,4.41c-1.14,1.17-3.42.17-4.7.31.36-1.51.38-3.03.5-4.57-.3-1.78,3.65-.36,4.35-1.29.43-.57-.63-1.21,1.69-4.4l3,.23Z"/>
        <path class="cls-174" d="M176.98,146.25l.64.18c0,1.38.14,2.73-.09,4.36l-6.55-.03c0-1.16.36-3.14,1.47-4.03,1.19-.96,3.37-.28,4.53-.47Z"/>
        <path class="cls-171" d="M182.47,141.8c-.36,1.13.57,3.33-.61,4.05s-3.12.9-4.25.58c0-1.18-.41-3.59.58-4.43,1.13-.97,3.12-.09,4.27-.2Z"/>
        <path class="cls-37" d="M121.04,175.09c.18.98.31,1.98.26,3.12,1.42.15,2.38-.02,3.65.26.65.14,1.12,1.4.59,1.68-.49.27-.68-.56-.86-.57-.24-.01-.39.76-.62.83-3.23,1.02-8.07-.36-7.62,1.65-3.04-.92-6.23.2-9.34-.44-1.1-2.11.71-5.3-.3-7.38-.63-1.3-3.35-.73-4.71-.58l-.17-9.96c-.05-2.96,1.95.99,1.09-6.39,1.36-.03,2.89.19,4.09-.45.77.42,2.2.63,3.39.47.34,1.5-.59,3.8.72,4.58s3.36.04,4.75.66l.14,6.02c1.02-.34,1.67-.5,2.22.05,1.86,1.87-1.06,4.51.83,5.24.77.3,1.57.34,1.91,1.2Z"/>
        <path class="cls-127" d="M102.41,150.65c-.38,1.81.3,5.9-.28,6.36-.17.14.73.31.86.3.86,7.38-1.14,3.43-1.09,6.39l.17,9.96c1.36-.15,4.08-.72,4.71.58,1.01,2.09-.8,5.28.3,7.38-1.08-.22-2.27.66-3.65.01-1.12-.52-2.75-.49-3.89-.53l-.19-3.33c-1.08-.19-1.94-.17-2.78-.22l.08-12.74c-.96-.26-1.77.01-2.49-.09l-.05-7.44.32-5.91c.05-.96,7.84-1.39,7.97-.71Z"/>
        <path class="cls-104" d="M127.68,179.18c.06.95.29,1.88.2,2.84-.02.25-.04.6.03.8.09.24.54.34.98.37l4.57.36c-.41.78-1.45.36-2,.99-4.52-1.18-9.43.1-14.77-.45-.64,1.42-.2,2.43-.5,3.72-1.24.99-3.03,0-4.3.7-.92.5-.38,2.47-.61,3.4-.53.43-1.25.56-1.82.59-.65.04-1.21.5-1.21,1.37-.03,4.38-.18,8.69.15,12.93.11,1.34-.75,2.86.15,4.12-1.59-.12-3.36.44-5.04.37-.47-7.23-.02-14.53.9-22.05l5.89-.52.45-4.33c1.85-.4,3.72.06,5.38-.59.59-.23.16-1.46.29-1.74-.45-2.01,4.4-.62,7.62-1.65.23-.07.38-.85.62-.83.19,0,.37.84.86.57.52-.29.06-1.54-.59-1.68-1.27-.28-2.23-.11-3.65-.26.04-1.14-.09-2.13-.26-3.12,2.37-.3,5.33.25,5.91,2.9.06.28-.85.87-.31,1.09.26.11.69-.08,1.04.11Z"/>
        <path class="cls-61" d="M157.67,223.88c-4.8.27-9.64.46-14.43.44l-10.53-.05c-5.48-.03-11.05-.5-16.55.06,0-.15-.08-.31-.06-.48.41-3.39.17-6.79.31-10.63l5.07-.35,3.55.5c-.09,1.5-.83,2.94-.35,4.83l25.28-.64-.27-11.22c-.07-2.75,1.03-5.64-.2-8.71-1.89-.5-3.88-.34-5.88-.46-.3-1.7-.43-3.57.12-5,2.15-.14,5.94.72,6.35-1.21l.97-4.53,2.31-.97.6-8.06,2.79-.34c.31-.04.57-.3.89-.35l.02,47.19Z"/>
        <path class="cls-7" d="M132.71,224.26l-.48,5.64c-5.46-.2-10.97.51-16.18-.22l.11-5.36c5.5-.56,11.07-.09,16.55-.06Z"/>
        <path class="cls-74" d="M116.96,210.88c1.68-.29,3.33-.1,4.99.05.05.7-.66,1.21-.46,1.93l-5.07.35c-.15,3.84.1,7.24-.31,10.63-1.56.05-3.32.25-5.12-.1l-.33-12.65c2.03.15,4.19.16,6.3-.21Z"/>
        <path class="cls-110" d="M111.03,252.04v103.87s-3.55.32-3.55.32c-.82,5-.29,9.81-.37,14.59l-.08,5.01c-3.9.53-8.67.96-12.43-.14-.32-1.61.03-3.27.06-4.9,1.75-.38,11.75,1.16,11.79-1.23l.18-11.15c.03-1.83.58-3.73.59-5.32l.42-96.35c-.74-.23-1.24-.2-1.06-.75,1.06-.51.56-2.18.53-3.33,1.33-.84,2.72-.31,3.93-.62Z"/>
        <path class="cls-67" d="M111.02,355.9c0,4.98.57,10.04-.4,14.88l-3.51.04c.08-4.79-.45-9.59.37-14.59l3.54-.32Z"/>
        <path class="cls-46" d="M110.62,370.78c.3,1.55.75,3.7.06,5.39-1.45.13-2.85.29-3.66-.34l.08-5.01,3.51-.04Z"/>
        <path class="cls-100" d="M106.57,255.98c-.18.55.32.52,1.06.75l-.42,96.35c0,1.6-.56,3.5-.59,5.32l-.18,11.15c-.04,2.39-10.03.85-11.79,1.23l.47-25.33,2.9-66.65.52-8.46c1.52-.06,2.68.08,4.02-.47.64-4.61,1.08-9.1,1.42-13.85.32-.73,2.07-.03,2.59-.06Z"/>
        <path class="cls-42" d="M157.19,147.92c-.36.66-.38,1.62-.3,2.37-.54,2.11-.17-.15-4.19,1.81-.98.48-2.19-.08-3.26.52l-.21,4.24-12.88-.09c.62-1.11.64-3.06-.23-4.2-.92-1.2-2.8-.06-3.82-.22-1.98-.3-3.98-.15-6.16-.32-.56-.6-.2-1.47-.8-1.85l.08-3.4c10.64-.24,21.31-.89,32.04-.31.78.04,3.84,2.86.61.53-.25-.18-.74.65-.89.93Z"/>
        <path class="cls-167" d="M169.12,141.38c2.41,5.43-1.99,2.08-3.6,8.27-.05.18-.76.09-.86.24-.9.22-1.84.04-3.02.52.22,1.57.11,2.76-.97,3.56s-2.32,1.15-3.59.7c-.17-.97.55-1.8,1.02-2.99.38-.96-.88-1.17-1.2-1.39-.08-.75-.06-1.7.3-2.37,1.35-.12,2.73-.03,4.32-.38.41-1.09.15-2.18.72-3.27,5.57.37,3.62-3.24,6.88-2.89Z"/>
        <g>
          <path class="cls-75" d="M196.54,104.2c.29,1.45-.39,2.94.18,4.71l4.22.33c2.42.19,1.1,3.35,2.14,3.98.25.15.95.05,1.22.38.57.71.23,1.66-.06,2.15-.33.58-1.93,0-2.4.34-1.14.79-.63,2.78-.48,3.86-1.4.39-2.86.18-4.46.49-.54,1.5-.11,2.94-.4,4.57l-5.01.45c-.59,1.58.36,3.33-.98,4.41-1.11-.4-2.22.67-3.49.84l-3.7.5c-.32,1.77-.66,3.45-1.28,5.19-3.03.47-5.73.47-8.74.64-.28,1.5-.28,2.7-.24,3.88-1.28.24-2.59.6-3.95.45-3.26-.35-1.31,3.26-6.88,2.89-.57,1.09-.31,2.18-.72,3.27-1.58.34-2.97.26-4.32.38.15-.28.64-1.11.89-.93,3.23,2.33.17-.49-.61-.53-10.73-.58-21.4.07-32.04.31-3.29.07-6.66-.35-9.96.13-1.43.21-3.23.45-4.66-.14-.21-.4.08-1.23-.13-1.52-.81-1.14-2.03.29-3.38-.91-.28-.25-.13-1.16-.43-1.17l-4.42-.16c-.2-.64.26-1.2-.1-1.89-1.27-.35-2.9.16-3.78-.65l-.39-3.18c-.14-1.13-2.37-.57-3.79-.67l-.25-5.25-5.03-.42-.06-5.45-5.66-.16-.44-5.14c-1.83.38-3.11,0-4.76-.13-.92-.08-3.03.87-3.34-.43-.49-2.06-.3-4.1-.38-6.15-.05-1.42,2.01-.67,2.77-.53,1.51-.32.66-2.49,1.03-3.42,1.59-.58,3.4.29,4.94-.04,1.2.27.14,2.16.63,3.23,1.2.7,3.5.73,4.81.78,2.35-.58.51,3.23,1.68,4.3,1.12.64,2.77-.23,4.04.63.42.28.21,1.34.74,1.43l1.53.27c1.45.26-.16,3.83,1.57,4.1,2.47.39,3.23-.63,4.3,1.34,1.03.52,2.62.02,4.09.45l.37,4.49c1.59.53,3.26-.33,4.61.67-.15,1.24-.34,2.56.37,2.99s1.6.28,2.61.16c.6.26.49,1.66,1.26,1.7l6.59.34c.17,1.28-.17,2.42.21,3.81,2.14.07,4.16.31,6.23-.03.86-.14,1.26,1.02,1.66,1.02,10.13.1,20.18-.16,30.43-.88l.39-4.02c1.48-.4,2.77-.36,4.21-.36l.7-2.48c.99-.08,2.05.19,2.76-.42.39-.34.52-1.32.8-1.88.56-1.13,2.2-.39,2.88-1.07.76-.76.75-2.93.37-4.17-.2-.66-2.4-.71-2.76-.12-.59.96-.25,2.41-.79,3.73-1.61-.22-2.69.53-3.92,1.28-1.06.65-3.21-.34-3.93.7-.75,1.09,0,2.61-.54,3.77-4.23.42-8.45,1.02-12.38.1.45-1.42.25-2.93.45-4.4.24.11.4-.12.57-.13,2.14-.03,4.32-.05,6.44-.37,1.26-.19,3.52.95,4.73-.24.98-.96.37-3.11.61-4.3.54-.05,1.02-.58,1.58-.6,2.04-.09,4.17,0,6.37-.43l.3-5.06c1.54.51,2.35-.48,3.31-.72,1.51-.38,3.1.26,4.63-.38.15-1.62-.39-5.08.33-5.62,1.57.07,3.11.04,4.86-.17.13-1.56.31-2.79.61-4.22.84-.28,1.64-.11,2.38-.79.11-.76.15-3.19,1.09-3.24l9.49-.46Z"/>
          <path class="cls-39" d="M182.89,123.19c-.48.9-2.07.18-2.66.95-.44.58-1.87,1.57-2.3.64-.59-1.28.07-3.07.33-4.48,1.52-.48,3,.06,4.15-.92.21-.4-.21-1.14-.09-1.5.47-1.41,1.94-.5,3.91-1.79.64-.42-.22-1.6.14-2.07,1.2-.56,3.25-.99,4.55-.31.78.41.39,2.64-.41,2.8-1.2.23-2.99-.35-3.4.97-.29.93.14,1.88-.62,2.26-.7.35-1.64.09-2.46.38-.96.33-.56,2.02-1.14,3.1Z"/>
          <path class="cls-6" d="M195.81,112.81c-.81.71-2.76.38-3.56-.2-.62-.45-.59-2.63.07-3.13.88-.67,2.44-.29,3.81-.16.26,1.01.71,2.59-.33,3.49Z"/>
        </g>
        <path class="cls-169" d="M164.66,149.89c.75,1.16,2,.55,3.07.63-2.32,3.19-1.26,3.83-1.69,4.4-.69.93-4.65-.49-4.35,1.29-1.31-.11-2.59.37-3.75.93.14-.42-.36-.7-.27-1.16.11-.6-.57-.78-1.08-.75-.25-.37.08-.8.49-.57,1.27.45,2.49.12,3.59-.7s1.19-1.99.97-3.56c1.18-.47,2.13-.29,3.02-.52Z"/>
        <path class="cls-36" d="M136.36,156.75c-.99,0-2.79.51-3.63-.38-.78-1.11.1-2.91-.41-4.04,1.02.16,2.9-.98,3.82.22.87,1.14.84,3.09.23,4.2Z"/>
        <path class="cls-79" d="M139.99,175.48c-.18.87-.2,1.97-.68,2.68l-2.54.2c-.83.65-1.36,1.39-2.67,1.65-.5.1-.69,1.14-1.21,1.34-.49.18-.99-.11-1.55-.28-.05-1.01.46-2.05-.41-3.29-1.06,1.19-.78,2.93.41,3.29.02.41.41.54.35.78-.25,1.12-3.07.89-3.81.18.09-.97-.15-1.89-.2-2.84-.06-1.07-.23-2.08.14-3.06.23-.61-.91-.89-.83-1.28.13-.71.41-1.16.87-1.43-2.15-1.14-1.67-3.69-.97-5.22,4-.3,8.11.37,11.95-.47.13-.03.3.1.45.04.94,1.16,2.7-.18,4.12.56,1.16.61.83,3.61-.56,4.06-1.01.33-1.99-.11-2.66.75-.55.7,0,1.42-.19,2.35Z"/>
        <path class="cls-8" d="M126.89,168.19c-.7,1.53-1.18,4.08.97,5.22-.46.27-.74.72-.87,1.43-.07.39,1.06.67.83,1.28-1.28,0-2.42-.6-2.66-2.29-1.31-.41-2.99.09-4.04-.92-.64-.82-.11-2.52-.18-3.61.79.11,1.34.23,1.77-.14s.72-.83.64-1.4c.55.12.5-.88.85-.9.44.49.84.66.81.46-.29-1.91.74-1.7,1.34-2.13.36.68.92,2.17.54,3Z"/>
        <path class="cls-122" d="M126.35,165.19c-.6.43-1.63.22-1.34,2.13.03.2-.37.03-.81-.46-.34.02-.29,1.02-.85.9-1.06-.24-2.12.3-3.41.26-.99-.03-1.45-1.61-2.06-2.17-.49-.15-1,.4-1.42-.26,1.46-1.38,3.32-.84,4.93.37.49-1.11.9-1.9,1.57-2.39.3-.22,3.26-.24,3.34.38.07.52-.08,1.02.04,1.25Z"/>
        <path class="cls-138" d="M116.49,155.68c.26-.12.25-.14.46.07.44.44,1.22.39,1.38.97.23.8-.16,1.62-.21,2.37-.04.8.7,1.43.4,1.83-.57.74-2.04,1.18-2.27.2-.44-1.89-.16-3.73.24-5.43Z"/>
        <g>
          <path class="cls-162" d="M111.52,25c-.02.25-.91,0-.93.22l-.38,5.06c-1.13.36-2.23.1-3.35.59-.83,11.3-.67,22.14-.69,33.52l-.07,45.12-4.43-.06c.07-1.8.53-3.45-.15-5.07-1.22-.21-2.7.12-3.88-.3-1.14-3.23.85-6.83-1.01-9.37.65-.74.8-1.34.81-2.58l.12-61.42,5.81-.33.36-5.58c2.36-.55,4.67.38,6.67-.55l1.12.76Z"/>
          <path class="cls-116" d="M167.17,17.55c.93.09,2.73-.22,3.45.58.66.99-.13,2.55.67,3.33.47.47,1.61.34,1.71.96s.15,1.16.09,1.66c-.05.42.17.5.51.61,1.4.47,2.87-.2,4.43.46.04,1.47.12,2.75.06,3.91-.03.68.18,1.49,1.03,1.55,1.4.09,2.79-.23,4.54.15l-.05,58.9c-.7,1.73-.68,4.01-.59,6.02.04.83-.25,2.16-.34,3.06-1.34,1-3.29.8-4.64.44-.34-3.59-.16-7.09-.15-11.05l.1-57.17c-2.07-.12-3.43.07-4.84-.46l-.19-5.16c-1.36-.14-2.56.13-3.88-.29-.93-.29-.1-2.19-.69-2.69s-1.58-.44-1.85-.86c-.61-.92-.59-3.49-.07-3.77.18-.1.48.01.7-.2Z"/>
          <path class="cls-11" d="M166.13,16.84c-.77.78-3.21.99-3.93-.18-.5-.82.2-2.72-1.57-2.53-.75.08-1.93.05-2.68-.39-.58-.34-.75-1.5-1.14-2.74-2.16-.76-4.46-.18-6.77-.5-.38-1.45-.24-2.54-.29-4.48-2.35.7-4.27-.4-6.37-.64-4.84-.55-9.45-.04-14.01.85-.03,1.83.11,3.37-.52,4.91-2.24.33-4.38-.1-6.46.46l-.91,5.67c-1.7.27-3.26-.05-4.97.48.44.9-1.14,6.9-1.32,6.98-1.23.56-2.58-.05-3.68.27l-1.12-.76c0-1.99-.08-4.12.35-6.29,1.95-.25,3.71.18,5.54-.61-.27-2.13-.2-4.53,1.65-5.54,1.02-.55,3.1.39,4.07-.7.94-1.23,0-3.47.79-4.88,2.3-.14,4.32-.26,6.47-1.1.02-3.69,1.81-1.39,4.05-4.4,4.27-.92,16.57-2.11,16.96,4.59l6.36,1.03c.5,1.27.41,2.5.65,3.85l4.67.68c-.17,1.73.92,2.15,2.26,2.44,1.69.37,1.67,2.3,1.92,3.54Z"/>
          <path class="cls-22" d="M187.6,94.75c-.27.04-.46.25-.49.52-1.34.32-2.72.59-4.09.43-.09-2.01-.11-4.3.59-6.02,2.17,2.57,2.77,1.58,3.64,2.54.67.74-.04,1.92.36,2.54Z"/>
          <path class="cls-102" d="M173.59,24.69c-.34-.11-.56-.19-.51-.61.43-.2.58.3.51.61Z"/>
          <path class="cls-102" d="M179.11,30.62c-.84-.06-1.06-.87-1.03-1.55.62.24.63,1.1,1.03,1.55Z"/>
          <g>
            <path class="cls-102" d="M166.13,16.84c.34-.02,1.05.37,1.03.72-.22.21-.53.1-.7.2-.52.28-.54,2.85.07,3.77.28.42,1.25.34,1.85.86s-.23,2.4.69,2.69c1.32.42,2.51.15,3.88.29l.19,5.16c1.41.53,2.77.34,4.84.46l-.1,57.17c0,3.95-.2,7.46.15,11.05.15,1.58-.32,3.31-.26,5.01-1.3.34-2.32.17-3.79.39-.52,1.17-.12,2.19-.42,3.52-1.43-.27-2.11,0-2.59,1.14-.35.81-.43,1.66-.35,2.8-.67.53-.82-2.57-.09-3.76.55-.91,1.64-.41,2.3-.92s.41-3.1-.69-3.21c-1.75-.18-3.67.31-5.11.78l-.58,2.94-4.22.33c-.67,1.57-.42,3.14-.56,4.76-.58.48-1.79.27-2.12.85-.53,1.85-.19,3.66-.19,5.33-1.65,1.61-4.44.15-6.44,1.18-2.63,5.5-1.79-.01-3.23,4.87l-6.19.51c-.41,1.71-.11,3.26-.24,4.73-5.86.27-11.69.11-17.75,0-.66-1.44-.97-2.96-.8-4.42l-2.81-.52c-.27-1.32-.12-2.85-.61-4.2-.6-.45-2-.29-2.71-.28,0-.98.13-2.24-.31-3.35-.14-.35-1.08-.17-1.31-.4-1.51-1.52.77-1.99-1.37-3.82.38.09.53-.34.89-.35l40.47-.64c.85-2.05-.72-6.12,1.31-5.86,1.81-.27,2.62.53,3.93-.54.33-.27.05-1.06.29-1.53,1.08-.63,2.31-.6,3.84-.94l-.05-32.62c-1.7-.06-3,.02-4.54.18-.33,1.42-2,2.6-3.5,2.63-2.03.04-1.92,1.41-2.9,1.93-2.97,1.58-5.99,2.4-9.01,3.57,1.7-.66-4.64,3.01-3.43,3.53-2.14.99-4.69,1.43-6.9.54,0-.5.04-.98-.11-1.46s-1.56.03-2.03-.27l-3.63-2.31c-1.37-.87-2.42-1.74-4.23-1.83-1.13-.06-1.88-1.26-3.18-1.13.03-3.13-4.2-1.72-6.78-5.12-.12-1.19.45-3.09-.32-4.13-.74-.57-3.26-.67-4.05-.02-1.06.87-.29,3.06-.09,4.11-.05.12-.3.3-.3.68l.05,33.38c0,2.62-.53,5.33.14,7.9-.29.58-1.21.83-1.82.6-.77-.29-2.18.02-2.96-.35-.39-1.16-.57-2.73-.57-3.86l.07-45.12c.02-11.38-.14-22.22.69-33.52,1.12-.5,2.22-.23,3.35-.59l.38-5.06c.02-.21.91.03.93-.22,1.1-.32,2.44.29,3.68-.27.18-.08,1.76-6.08,1.32-6.98,1.71-.54,3.26-.21,4.97-.48l.91-5.67c2.08-.55,4.22-.13,6.46-.46.62-1.54.49-3.08.52-4.91,4.56-.89,9.17-1.4,14.01-.85,2.1.24,4.03,1.34,6.37.64.05,1.94-.09,3.03.29,4.48,2.31.32,4.61-.25,6.77.5.39,1.23.56,2.4,1.14,2.74.75.44,1.92.47,2.68.39,1.77-.19,1.06,1.71,1.57,2.53.72,1.18,3.16.97,3.93.18Z"/>
            <path class="cls-135" d="M143.18,61.94c-1.51.67-3.17.02-4.98.23-.64,3.62-.23,7.17-.28,10.59-1.09.72-2.63.43-3.96.03-.75-4.28,2.06-13.08-3.51-12.61-.65-1.99-.21-4.67.4-6.54.97-.03,3.01.43,3.06-.58l.38-7.1c.67-.67,3.02-.76,3.49-.02.61.95-.48,2.61.18,3.25,1.75,1.72-.28,6.08.16,9.11,1.38.91,3.51-.1,4.83,1.06.61.73.24,2.03.24,2.57Z"/>
            <path class="cls-107" d="M143.18,61.94l-.12,10.98c-1.9.5-3.51-.22-5.13-.15.05-3.42-.35-6.97.28-10.59,1.8-.21,3.47.44,4.98-.23Z"/>
            <path class="cls-26" d="M145.95,58.99c-.83.21-1.49.19-2.37.12s-.53-3.75.01-4.22c.44-.38,1.78-1.46,2.29-.58.74,1.3-.02,3.08.07,4.68Z"/>
            <path class="cls-179" d="M142.79,48.86c-.33.48-1.33.17-1.67.07.39.11-1.57-2.6-1.28-2.94.49-.56,2.43-.58,3.03-.03.52.48.33,2.3-.08,2.9Z"/>
          </g>
          <g>
            <path class="cls-57" d="M116.02,71.21c2.59,3.4,6.81,1.99,6.78,5.12,1.31-.12,2.05,1.07,3.18,1.13,1.81.09,2.86.96,4.23,1.83l3.63,2.31c.47.3,1.88-.21,2.03.27s.1.95.11,1.46c.19.34-.17.64-.37.78-.33.24-.88-.37-1.2-.22l-.86,6.65c-1.99.31-4.89.77-6.49-.28-3.11-2.04.31-6.84-3.07-6.05-3.75.88-.35-1.89-7.29-1.2-.31,4.29-.22,8.36-.08,12.66l5.19.37.29,8.28c6.16.92-.58.45,4.83,1.32.43.61.56,1.26.49,1.99-1.82,0-3.89.48-5.74-1.46-1.03-1.08-3.56-2.18-4.92-1.41-.51,1.95-.13,4.32-.23,6.28-1.2-1.43-.13-3.59-.69-5.4l-4.51-.44-.05-33.38c0-.39.25-.56.3-.68,1.48-.2,2.98.07,4.47.05Z"/>
            <path class="cls-134" d="M127.41,107.64l20.35.06c1.15,0,1.98-.17,2.51-1,1.31.55,3.3.87,4.06-.53,1.32.14,2.72-.23,3.92.41-2.02-.26-.46,3.81-1.31,5.86l-40.47.64c-.19-.58.42-1.52.03-2.03.11-1.96-.28-4.33.23-6.28,1.36-.76,3.89.34,4.92,1.41,1.85,1.94,3.93,1.45,5.74,1.46Z"/>
            <path class="cls-72" d="M142.88,82.79c.29-.36.46.05.41.24-.08.33-.46.43-.58.52-.48.75.18,2.39-.83,2.72-1.34-.14-2.7.1-4.32.24.17,1.95-.19,3.46-1.69,4.73-.4-.58.04-.76-.15-.86-.36-.19-1.04-.33-.94.09.25.97-1.07-.72-1.45,4.09-1.19.12-12.97-.41-11.54,1.47l-5.19-.37c-.14-4.3-.22-8.37.08-12.66,6.94-.7,3.54,2.08,7.29,1.2,3.37-.79-.05,4.01,3.07,6.05,1.6,1.05,4.5.59,6.49.28l.86-6.65c.32-.14.87.47,1.2.22.2-.15.56-.45.37-.78,2.21.89,4.76.44,6.9-.54Z"/>
            <path class="cls-99" d="M116.51,111.05c.39.51-.22,1.45-.03,2.03-.36,0-.5.44-.89.35-1.36-.33-2.87.26-4.14-.31-.67-2.57-.14-5.28-.14-7.9l4.51.44c.56,1.81-.51,3.97.69,5.4Z"/>
            <path class="cls-114" d="M116.02,71.21c-1.48.02-2.99-.24-4.47-.05-.2-1.05-.97-3.24.09-4.11.79-.65,3.31-.54,4.05.02.77,1.04.2,2.95.32,4.13Z"/>
            <path class="cls-5" d="M141.89,86.28c.29,1.1.77,2.27.89,3.41.16,1.42-.27,3.11.32,4.64,2.34.54,4.53,0,6.66.13l6.8.41c.62.04.99.63,1.25.85-.18,2.16.6,4.49-.58,6.46-1.06.28-2.22-.13-3.45.05l-.58,3.77c-.96-.43-1.76-.33-2.49.09.04-1.1-.47-1.98-1.01-2.9-.12-.21.13-.66-.04-.85-.64-.75-6.12-.56-6.63-.21-2.31,1.6-4.48,1.02-6.75.16-2.56-.97-5.6-.06-8.24-.19-.21.74-.02,1.07-.1,1.48-.17.81-.08,1.82-1.02,2.05-5.41-.86,1.33-.4-4.83-1.32l-.29-8.28c-1.43-1.88,10.35-1.35,11.54-1.47.38-4.81,1.7-3.13,1.45-4.09-.11-.42.57-.28.94-.09.19.1-.25.28.15.86,1.5-1.27,1.86-2.79,1.69-4.73,1.62-.14,2.98-.38,4.32-.24Z"/>
            <path class="cls-180" d="M150.71,106.1c-.23.13-.52.24-.44.6-.53.82-1.36,1-2.51,1l-20.35-.06c.07-.74-.05-1.38-.49-1.99.95-.23.85-1.24,1.02-2.05.71.57,1.44.35,2.46.33l17.33-.32c.85-.02,1.48.05,1.96-.4.54.92,1.05,1.8,1.01,2.9Z"/>
            <path class="cls-41" d="M158.77,95.51c-1.29-2.48.17-4.31-1.59-5.35-.12-2.07.11-4.8.25-7,1.89,0,3.15-.14,4.79.15l-.29,12.05c-.39.78-2.39.37-3.16.16Z"/>
            <path class="cls-154" d="M157.18,90.16c1.76,1.04.3,2.87,1.59,5.35-.28-.08-.71.3-.96.22-.26-.23-.63-.81-1.25-.85l-6.8-.41c0-1.34-.27-2.66.44-3.86,2.27-.61,4.66-.06,6.97-.45Z"/>
            <path class="cls-49" d="M150.21,90.61c-.72,1.2-.44,2.51-.44,3.86-2.13-.13-4.33.41-6.66-.13-.59-1.53-.16-3.21-.32-4.64,1.99.03,4.32,0,6.35-.26.3.5.3,1.38,1.07,1.17Z"/>
            <g>
              <path class="cls-31" d="M158.25,106.58c-1.2-.63-2.6-.26-3.92-.41.21-.36-.03-.6-.09-.95-.19-1.1,2.2-.43,2.76-.95.59-.56-.03-1.65.23-2.08,1.18-1.97.4-4.3.58-6.46.25.09.68-.3.96-.22.77.21,2.78.62,3.16-.16l.29-12.05c-1.65-.28-2.91-.15-4.79-.15-.14,2.2-.37,4.93-.25,7-2.31.39-4.7-.15-6.97.45-.77.2-.77-.67-1.07-1.17-2.03.26-4.36.29-6.35.26-.13-1.15-.6-2.31-.89-3.41,1.01-.33.35-1.97.83-2.72.11-.09.5-.19.58-.52.04-.19-.12-.6-.41-.24-1.21-.52,5.13-4.19,3.43-3.53,3.02-1.17,6.04-1.99,9.01-3.57.98-.52.87-1.9,2.9-1.93,1.51-.03,3.17-1.21,3.5-2.63,1.54-.15,2.84-.24,4.54-.18l.05,32.62c-1.53.34-2.75.3-3.84.94-.24.47.04,1.26-.29,1.53-1.31,1.07-2.11.27-3.93.54Z"/>
              <path class="cls-51" d="M143.23,89.03c.12-1.42.05-2.19.32-3.2l5.17-.35c.45.9.12,1.66.42,2.95-1.83.78-3.74,1.04-5.9.61Z"/>
            </g>
            <path class="cls-161" d="M157.23,102.19c-.26.43.36,1.53-.23,2.08-.56.52-2.96-.15-2.76.95.06.35.3.59.09.95-.77,1.4-2.76,1.08-4.06.53-.08-.36.2-.47.44-.6.73-.41,1.53-.52,2.49-.09l.58-3.77c1.23-.18,2.39.23,3.45-.05Z"/>
            <path class="cls-48" d="M149.7,103.2c-.49.44-1.11.38-1.96.4l-17.33.32c-1.03.02-1.76.24-2.46-.33.09-.41-.11-.74.1-1.48,2.64.13,5.68-.78,8.24.19,2.26.86,4.44,1.44,6.75-.16.5-.35,5.99-.54,6.63.21.16.19-.08.64.04.85Z"/>
          </g>
        </g>
        <path class="cls-9" d="M157.67,223.88c0,1.97.07,3.89.14,5.86-4.76.09-9.52.38-14.46-.16-.31-1.85-.21-3.59-.1-5.26,4.79.02,9.63-.17,14.43-.44Z"/>
        <path class="cls-86" d="M149.7,206.34l.27,11.22-25.28.64c-.48-1.89.27-3.33.35-4.83,1.5.21,3.36.28,4.93-.43.45-.2.34-1.32.61-1.61.45-.49,1.78-.02,2.29-.49,1.14-1.05.49-3.17.56-4.51.52.02,1.76-.39,1.89-.94.31-1.33.02-3.07.65-4.29.12-.23.98.11,1.31-.11.17-.11-.06.05.19-.4.31.75.11.39-.17.58-.72.49.33.88.48,1.14l.88,8.22c2.53,0,4.67.27,6.82-.51.68-.91-.02-2.42.72-3.28.82-.96,2.62-.91,3.51-.4Z"/>
        <path class="cls-70" d="M139.31,178.17c-.03,1.69.29,3.45.58,5.28,1.28.33,2.36-.11,3.58.35.14,1.77.12,3.34-.22,5.13-1.11.5-7.82-.6-6.44,0-.65-.07-1.19.16-1.77-.38-.41-.38-.35-.98-.62-1.54.61.15,1.96.18,2.92-.19.76-.29.53-2.35.4-3.3-.16-1.2-1.87-1.71-2.72-1.18-.37.23-.09.93-.5,1.02-.37.08-.76.23-1.05.18l-4.57-.36c-.45-.04-.9-.14-.98-.37-.07-.19-.05-.54-.03-.8.74.72,3.56.94,3.81-.18.05-.24-.33-.37-.35-.78.56.17,1.05.46,1.55.28.52-.19.71-1.24,1.21-1.34,1.31-.26,1.84-.99,2.67-1.65l2.54-.2Z"/>
        <path class="cls-87" d="M157.6,171.14c.15,1.85.05,3.7.05,5.56-.32.05-.58.31-.89.35.19-1.19-2.03-.01-2.3-.55-.79-1.62-.43-4.36.09-5.89.29-.86,1.66-.82,2.16-.77.71.07.18,1,.89,1.3Z"/>
        <path class="cls-141" d="M161.69,156.21c-.11,1.54-.14,3.06-.5,4.57-.97.26-2.03.23-3.08.31.53-1.19-.59-2.72-.17-3.94,1.16-.56,2.44-1.05,3.75-.93Z"/>
        <path class="cls-59" d="M134.42,187.02c-.85-.43-1.62.11-2.54.47-1.09.54-.03-2.74-.41-2.94.56-.64,1.59-.22,2-.99.29.05.68-.1,1.05-.18.41-.09.13-.79.5-1.02.85-.53,2.55-.02,2.72,1.18.13.94.36,3.01-.4,3.3-.96.36-2.31.33-2.92.19Z"/>
        <path class="cls-50" d="M131.26,206.17c.66-.04,1.56.14,2.17.16-.06,1.34.58,3.46-.56,4.51-.51.47-1.84,0-2.29.49-.27.29-.16,1.41-.61,1.61-1.57.71-3.44.64-4.93.43l-3.55-.5c-.2-.72.51-1.23.46-1.93,1.28.12,2.72-.17,3.94-.51.9.63,3.57,1.03,4.11.03.73-1.33.72-3.15-.11-3.94.47.02.91-.3,1.37-.33Z"/>
        <g>
          <path class="cls-158" d="M156.59,155.24c.51-.03,1.19.15,1.08.75-.09.46.41.74.27,1.16-.42,1.22.7,2.75.17,3.94-.38.86-.43,2.09-.97,3-.83.44-1.89.48-2.17,1.08-.38.84-.39,1.59-.29,2.74-1.46.88-3.18.14-4.86.82-.17,1.58.08,3.27-.58,4.75-6.94.2-2.16,1.63-9.26,1.99.2-.93-.36-1.66.19-2.35.67-.86,1.65-.42,2.66-.75,1.39-.45,1.72-3.45.56-4.06-1.42-.75-3.18.6-4.12-.56l3.05-.21c.7-.05.78-2.52.06-2.7-1.17-.31-2.38-.11-3.13.34-1.13-1.34,3.27-.74,3.46-1.14.25-.51.36-1.48.17-1.86,1.68-.61,3.26-1.24,5.38-.98,3.37.42,1.95-4.37,2.97-3.49.02,1.19-.13,2.72.08,4.04.56.62,2.56-.54,2.55-1.37,0-.43-.15-.69-.22-.85-.08-.2-.72-.18-.92-.55.41-.46,1.12-.13,1.35-.55.43-.78.05-1.41.05-2.1.64-.26,1.37-1.49,2.43-1.08Z"/>
          <path class="cls-64" d="M154.16,156.31c0,.69.38,1.32-.05,2.1-.24.43-.95.1-1.35.55.2.37.83.35.92.55.07.16.21.42.22.85.02.83-1.99,1.99-2.55,1.37-.22-1.32-.06-2.84-.08-4.04-.03-1.59,2.02-1.03,2.89-1.39Z"/>
          <path class="cls-73" d="M139.29,167.76c-.14.06-.32-.07-.45-.04,0-.65-.81-.95-.5-1.69.16-.38.56-.62.93-.85.75-.45,1.96-.64,3.13-.34.72.19.63,2.66-.06,2.7l-3.05.21Z"/>
          <path class="cls-153" d="M148.25,167.77c-.59.8-3.06.89-3.83.39-.88-.97-1.02-3.78.11-3.74,1.51.05,2.45-.21,2.93.27.69.69,1.53,2.06.78,3.08Z"/>
        </g>
        <path class="cls-70" d="M131.34,181.07c-1.19-.36-1.47-2.11-.41-3.29.87,1.25.36,2.28.41,3.29Z"/>
        <g>
          <path class="cls-177" d="M149.68,244.52c.38.93.4,2.65-.86,3.13-.87.33-2.41-.22-2.86.65-.5.97-.08,2.34-.23,3.29-.92-.08-2.93.19-3.19,1.41-.62,2.98-.18,5.71-.15,8.35-1.07-.11-2.24.11-3.47-.4l.1-8.71c-1.3.9-2.74.92-4.09.33.21-1.16-1.06-2.57-.19-3.7l6.57.17c.85.02,1.19-.27,1.4-.7.25-.51.09-.85.04-1.24,1.21.04,2.39-1.47,3.21-2.25,1.08-.69,2.69-.07,3.71-.34Z"/>
          <path class="cls-117" d="M142.4,261.35c.14.01.29,0,.43.05-.12.96.36,2.52-.26,3.43-.82,1.04-2.76.65-3.85.64-.15-.85.58-2.76-.95-2.79-1.23-.03-.86,2-.9,2.78-1.01,0-1.98.55-3.23.18-.25-1.07-.29-2.17-.27-3.13.06-3.36.59-6.78,1.57-9.94,1.36.59,2.8.57,4.09-.33l-.1,8.71c1.23.5,2.4.29,3.47.4Z"/>
          <path class="cls-173" d="M144.14,261.13c.14,3.4.83,7.17-.44,10.33l-10.22.02c-.18,0-.29.42-.49.38l-.1-.48-.03-8.87h.5c-.02.96.02,2.06.27,3.13,1.26.37,2.22-.18,3.23-.18h1.84c1.09.02,3.03.41,3.85-.63.63-.92.15-2.48.26-3.43.06-.81.91.11,1.32-.27Z"/>
          <path class="cls-175" d="M129.41,244.32c.38,1.17.62,2.31.49,3.92.71-.05,1.3-.17,1.88-.27,1.14-.2,1.89.88,2.96.91-.87,1.13.4,2.54.19,3.7-.98,3.16-1.5,6.58-1.57,9.94h-.5c0-1.64-.13-3.54-.73-5.07-1.29.03-.24-.32-.09-.64.25-.54-.47-.41-.65-.63.76-1.01,1.8-3.11.48-4.05-.57-.4-1.91,0-2.38-.57-.08-1.07-1.26-3.34-2.6-3.41-.43-1.05-.2-2.59-.8-3.56.26-.33.33-.87.39-1.42.64,1.07,1.73,1.16,2.92,1.15Z"/>
          <path class="cls-4" d="M132.87,262.52l.03,8.87-3.44-.2c-.08-3.67.08-12.56,1.93-15.01.18.21.9.09.65.63-.15.32-1.2.67.09.64.61,1.52.73,3.43.73,5.07Z"/>
          <path class="cls-164" d="M150.56,240.21c.03,1-1.08,2.32-.45,3.44-.3-.09-.28.16-.37.26-.24.24-.14.41-.05.61-1.02.27-2.63-.35-3.71.34-.82.78-2,2.28-3.21,2.25-.11-.95-.74-1.16-2.03-1.64l2.25-.96c.56-.24.5-1.34,1.04-1.61.48-.24,1.22.09,1.63-.05l1.04-3.29,3.24.17c.25.02.23.74.62.48Z"/>
          <path class="cls-63" d="M138.72,265.48h-1.84c.04-.79-.34-2.83.9-2.79,1.52.04.79,1.94.95,2.79Z"/>
          <path class="cls-176" d="M129.32,235.3c.37,1.29,2.04.77,3.05.41.35,1.3-.93,1.91-1.53,2.79-1.24,1.8.59,4.65-1.43,5.83-1.18,0-2.27-.08-2.92-1.15.3-2.44-.35-5.03.3-7.61.45-.62,1.93-.1,2.52-.27Z"/>
          <path class="cls-34" d="M142.86,230.24l-.2,4.97c-.7.04-10.2.46-10.29.49-1.01.36-2.67.89-3.05-.41.64-.06,2,.51,2.12-.56l.48-4.57c2.93.23,8.21.07,10.94.08Z"/>
          <path class="cls-152" d="M150.56,240.21c-.39.26-.37-.46-.62-.48l-3.24-.17c-.86-1.03-1.14-2.24-1.35-3.83.53-.02.96.05.94-.46l3.86.15c-.05,1.76.37,3.33.42,4.8Z"/>
          <path class="cls-21" d="M145.64,234.83c-.52.35-1.44.68-2.04.19.46-.98-.37-.84-.28-.53.29,1.02-.35.71-.66.73l.2-4.97c.52,0,1.69-.18,2.51-.1.46,1.41.36,3.42.27,4.68Z"/>
          <g>
            <path class="cls-166" d="M142.76,247.11c.05.4.21.73-.04,1.24-.21.43-.55.72-1.4.7l-6.57-.17c-1.07-.03-1.82-1.11-2.96-.91-.2-.66.23-.95.58-1.17.72-.46,1.14.02,1.63.37l4.1.27c1.41-1.25,3.07-.83,4.66-.34Z"/>
            <path class="cls-177" d="M145.64,234.83c-.47.63.39.32.64.43.02.52-.4.44-.94.46.21,1.58.49,2.8,1.35,3.83l-1.04,3.29c-.41.14-1.14-.19-1.63.05-.54.27-.49,1.37-1.04,1.61l-2.25.96c1.29.47,1.91.69,2.03,1.64-1.59-.48-3.26-.91-4.66.34l-4.1-.27c-.49-.35-.92-.83-1.63-.37-.35.22-.78.51-.58,1.17-.58.1-1.17.23-1.88.27.13-1.61-.12-2.76-.49-3.92,2.01-1.18.19-4.03,1.43-5.83.6-.88,1.88-1.48,1.53-2.79.1-.03,9.6-.46,10.29-.49.31-.02.95.29.66-.73-.09-.32.75-.45.28.53.59.49,1.52.16,2.04-.19Z"/>
            <path class="cls-25" d="M142.89,240.15c.09.97.1,1.8-.8,1.97-.79.15-1.26-.27-1.52-.9-.32.82-.74.92-1.49.69-.96-.29-.66-3.1-.23-3.45.34-.28,1.38-.61,1.63.54.42-.25.71-.8,1.16-.76,1.02.09,1.17,1.1,1.24,1.91Z"/>
            <path class="cls-140" d="M135.36,239.93c.03.97.05,2.04-.65,2.17-.53.09-1.46.56-1.75-.4-.3-1.01-.4-2.45.3-2.92.55-.36,1.04-.49,1.34-.53.87-.13.72.56.75,1.68Z"/>
            <path class="cls-151" d="M135.97,245.74c.05-.58.19-1.2.33-1.59.36-1.01,1.89-.59,2.07.13.13.52.5,1.54-.23,1.92-.56.29-2.25.47-2.17-.47Z"/>
          </g>
        </g>
        <g>
          <path class="cls-118" d="M116.51,206.61c.02,1.44-.26,2.95.45,4.26-2.11.37-4.28.35-6.3.21l-2.1-.15c-.9-1.26-.04-2.78-.15-4.12,2.68-.27,5.41-.18,8.1-.2Z"/>
          <path class="cls-113" d="M134.42,187.02c.27.56.21,1.16.62,1.54.57.54,1.11.3,1.77.38,1-1.26.75,11.44.66,11.65-.25.45-.02.28-.19.4-.33.22-1.19-.12-1.31.11-.63,1.22-.34,2.96-.65,4.29-.13.55-1.37.96-1.89.94-.6-.02-1.5-.2-2.17-.16-.23-.27-.35-.68-.31-1.26l.5-7.93c1.05.09,2.11-.03,3.33-.21.27-1.24.98-3.13-.08-3.91-.88-.65-2.43-.25-3.38-.29l.19-4.52c.03-.19.5-.17.37-.57.92-.35,1.69-.9,2.54-.47Z"/>
          <path class="cls-156" d="M131.47,184.55c.38.2-.68,3.47.41,2.94.13.4-.34.38-.37.57l-4.72.24c-.25,1.48-.24,2.74-.28,4.15,1.72.57,3.29.07,4.81.13.95.04,2.5-.36,3.38.29,1.06.78.35,2.67.08,3.91-1.21.18-2.27.3-3.33.21-1.49-.13-3.03-.36-4.75-.21-.44,1.53-.24,2.89-.3,4.79l-16.59.26v-7.99c0-.47-.46-.89-.34-1.32.58-.04,1.29-.16,1.82-.59.23-.93-.32-2.9.61-3.4,1.27-.69,3.07.29,4.3-.7.29-1.29-.14-2.3.5-3.72,5.34.55,10.25-.73,14.77.45Z"/>
          <path class="cls-28" d="M109.47,192.51c-.13.42.33.84.33,1.32v7.99s16.6-.26,16.6-.26c.06-1.9-.13-3.26.3-4.79,1.72-.15,3.26.08,4.75.21l-.5,7.93c-.04.58.09.99.31,1.26-.46.03-.9.36-1.37.33-1.17-.06-2.41.22-3.57.08-3.26-.37-6.53,0-9.81.03-2.7.02-5.43-.07-8.1.2-.33-4.24-.18-8.55-.15-12.93,0-.86.56-1.33,1.21-1.37Z"/>
          <path class="cls-108" d="M126.32,206.59c-.54,1.18-.38,2.55-.43,3.82-1.22.35-2.66.63-3.94.51-1.67-.15-3.32-.34-4.99-.05-.7-1.31-.42-2.82-.45-4.26,3.29-.02,6.55-.4,9.81-.03Z"/>
          <path class="cls-20" d="M131.51,188.06l-.19,4.52c-1.53-.06-3.09.44-4.81-.13.04-1.41.03-2.66.28-4.15l4.72-.24Z"/>
          <path class="cls-93" d="M129.89,206.5c.83.8.85,2.61.11,3.94-.54.99-3.21.6-4.11-.03.05-1.27-.11-2.65.43-3.82,1.16.13,2.4-.14,3.57-.08Z"/>
        </g>
      </g>
    </g>
  </g>
</svg>