<?xml version="1.0" encoding="UTF-8"?>
<svg id="_レイヤー_2" data-name="レイヤー 2" xmlns="http://www.w3.org/2000/svg" viewBox="0 0 285.77 512">
  <defs>
    <style>
      .cls-1 {
        fill: #c99b4d;
      }

      .cls-2 {
        fill: #bd7873;
      }

      .cls-3 {
        fill: #9492a6;
      }

      .cls-4 {
        fill: #dadce1;
      }

      .cls-5 {
        fill: #edeef0;
      }

      .cls-6 {
        fill: #794e56;
      }

      .cls-7 {
        fill: #fefeff;
      }

      .cls-8 {
        fill: #64607e;
      }

      .cls-9 {
        fill: #a6a3b4;
      }

      .cls-10 {
        fill: #d6d7de;
      }

      .cls-11 {
        fill: #dcdee3;
      }

      .cls-12 {
        fill: #5b5575;
      }

      .cls-13 {
        fill: #9b98ac;
      }

      .cls-14 {
        fill: #78748e;
      }

      .cls-15 {
        fill: #fdfeff;
      }

      .cls-16 {
        fill: #a19eb1;
      }

      .cls-17 {
        fill: #ccccd5;
      }

      .cls-18 {
        fill: #5c414e;
      }

      .cls-19 {
        fill: #f7e9ab;
      }

      .cls-20 {
        fill: #d7d8df;
      }

      .cls-21 {
        fill: #9491a6;
      }

      .cls-22 {
        fill: #9292a7;
      }

      .cls-23 {
        fill: #7f7c94;
      }

      .cls-24 {
        fill: #473a57;
      }

      .cls-25 {
        fill: #fdfefe;
      }

      .cls-26 {
        fill: #918da3;
      }

      .cls-27 {
        fill: #67627e;
      }

      .cls-28 {
        fill: #4f4864;
      }

      .cls-29 {
        fill: #e2e3e9;
      }

      .cls-30 {
        fill: #8a889d;
      }

      .cls-31 {
        fill: #a46f72;
      }

      .cls-32 {
        fill: #6f5c74;
      }

      .cls-33 {
        fill: #5a445a;
      }

      .cls-34 {
        fill: #715461;
      }

      .cls-35 {
        fill: #aeaebd;
      }

      .cls-36 {
        fill: #e4e5e9;
      }

      .cls-37 {
        fill: #d0d1d9;
      }

      .cls-38 {
        fill: #d0d0d9;
      }

      .cls-39 {
        fill: #3b3355;
      }

      .cls-40 {
        fill: #cbcbd3;
      }

      .cls-41 {
        fill: #8e8aa1;
      }

      .cls-42 {
        fill: #544e6f;
      }

      .cls-43 {
        fill: #865556;
      }

      .cls-44 {
        fill: #a2a0b2;
      }

      .cls-45 {
        fill: #d19281;
      }

      .cls-46 {
        fill: #8e5e55;
      }

      .cls-47 {
        fill: #e7c068;
      }

      .cls-48 {
        fill: #f8f9fa;
      }

      .cls-49 {
        fill: #c8c9d3;
      }

      .cls-50 {
        fill: #e0e1e6;
      }

      .cls-51 {
        fill: #856770;
      }

      .cls-52 {
        fill: #b6b8c5;
      }

      .cls-53 {
        fill: #e2e3e5;
      }

      .cls-54 {
        fill: #c2becc;
      }

      .cls-55 {
        fill: #8e8ba0;
      }

      .cls-56 {
        fill: #d7ab55;
      }

      .cls-57 {
        fill: #f7f2d3;
      }

      .cls-58 {
        fill: #e8e9ed;
      }

      .cls-59 {
        fill: #b76e69;
      }

      .cls-60 {
        fill: #7c7891;
      }

      .cls-61 {
        fill: #b9b9c7;
      }

      .cls-62 {
        fill: #e4e2e5;
      }

      .cls-63 {
        fill: #bfbfca;
      }

      .cls-64 {
        fill: #cbccd4;
      }

      .cls-65 {
        fill: #9c98ab;
      }

      .cls-66 {
        fill: #d7d9df;
      }

      .cls-67 {
        fill: #5a5270;
      }

      .cls-68 {
        fill: #5b465c;
      }

      .cls-69 {
        fill: #e7e8eb;
      }

      .cls-70 {
        fill: #d7d8dd;
      }

      .cls-71 {
        fill: #f7e5ab;
      }

      .cls-72 {
        fill: #e6a88c;
      }

      .cls-73 {
        fill: #494658;
      }

      .cls-74 {
        fill: #dee0e5;
      }

      .cls-75 {
        fill: #9f9eaf;
      }

      .cls-76 {
        fill: #6e6884;
      }

      .cls-77 {
        fill: #f6c9a4;
      }

      .cls-78 {
        fill: #bbbdc7;
      }

      .cls-79 {
        fill: #595373;
      }

      .cls-80 {
        fill: #9795aa;
      }

      .cls-81 {
        fill: #c6c6d0;
      }

      .cls-82 {
        fill: #4b4868;
      }

      .cls-83 {
        fill: #cecfd7;
      }

      .cls-84 {
        fill: #9c99aa;
      }

      .cls-85 {
        fill: #9a98ac;
      }

      .cls-86 {
        fill: #9b6554;
      }

      .cls-87 {
        fill: #edb292;
      }

      .cls-88 {
        fill: #e6a88a;
      }

      .cls-89 {
        fill: #cecdd6;
      }

      .cls-90 {
        fill: #9c6d72;
      }

      .cls-91 {
        fill: #664452;
      }

      .cls-92 {
        fill: #f4f5f7;
      }

      .cls-93 {
        fill: #504058;
      }

      .cls-94 {
        fill: #a8a6b7;
      }

      .cls-95 {
        fill: #d9dae0;
      }

      .cls-96 {
        fill: #f4c69f;
      }

      .cls-97 {
        fill: #9593a7;
      }

      .cls-98 {
        fill: #b97772;
      }

      .cls-99 {
        fill: #afadc1;
      }

      .cls-100 {
        fill: #d9dae1;
      }

      .cls-101 {
        fill: #abaaba;
      }

      .cls-102 {
        fill: #58435c;
      }

      .cls-103 {
        fill: #a07145;
      }

      .cls-104 {
        fill: #4e4565;
      }

      .cls-105 {
        fill: #a6a4b4;
      }

      .cls-106 {
        fill: #dadbe1;
      }

      .cls-107 {
        fill: #9c98ac;
      }

      .cls-108 {
        fill: #f6f7f8;
      }

      .cls-109 {
        fill: #a39fb2;
      }

      .cls-110 {
        fill: #8c899f;
      }

      .cls-111 {
        fill: #ebecef;
      }

      .cls-112 {
        fill: #fafbfc;
      }

      .cls-113 {
        fill: #ebda7e;
      }

      .cls-114 {
        fill: #fcfdfe;
      }

      .cls-115 {
        fill: #54485f;
      }

      .cls-116 {
        fill: #8c5261;
      }

      .cls-117 {
        fill: #abaabc;
      }

      .cls-118 {
        fill: #b1b0be;
      }

      .cls-119 {
        fill: #79768c;
      }

      .cls-120 {
        fill: #645067;
      }

      .cls-121 {
        fill: #886a72;
      }

      .cls-122 {
        fill: #db9682;
      }

      .cls-123 {
        fill: #80626d;
      }

      .cls-124 {
        fill: #bebeca;
      }

      .cls-125 {
        fill: #7a7590;
      }

      .cls-126 {
        fill: #9390a5;
      }

      .cls-127 {
        fill: #a4a3b8;
      }

      .cls-128 {
        fill: #807c94;
      }

      .cls-129 {
        fill: #6a6581;
      }

      .cls-130 {
        fill: #fdfdf9;
      }

      .cls-131 {
        fill: #dcbb59;
      }

      .cls-132 {
        fill: #89869c;
      }

      .cls-133 {
        fill: #d4d6dd;
      }

      .cls-134 {
        fill: #544058;
      }

      .cls-135 {
        fill: #9f9caf;
      }

      .cls-136 {
        fill: #aaa7bb;
      }

      .cls-137 {
        fill: #c7c7d1;
      }

      .cls-138 {
        fill: #c7c8d2;
      }

      .cls-139 {
        fill: #706b85;
      }

      .cls-140 {
        fill: #9994a8;
      }

      .cls-141 {
        fill: #dddfe5;
      }

      .cls-142 {
        fill: #fbfcfd;
      }

      .cls-143 {
        fill: #7f7c96;
      }

      .cls-144 {
        fill: #e9ebed;
      }

      .cls-145 {
        fill: #eac871;
      }

      .cls-146 {
        fill: #918ea4;
      }

      .cls-147 {
        fill: #9d7f7e;
      }

      .cls-148 {
        fill: #c1c3ce;
      }

      .cls-149 {
        fill: #79748d;
      }

      .cls-150 {
        fill: #393354;
      }

      .cls-151 {
        fill: #d6d6dc;
      }

      .cls-152 {
        fill: #e2e4e7;
      }

      .cls-153 {
        fill: #a3a1b3;
      }

      .cls-154 {
        fill: #d6d8de;
      }

      .cls-155 {
        fill: #484060;
      }

      .cls-156 {
        fill: #b0adba;
      }

      .cls-157 {
        fill: #9692a7;
      }

      .cls-158 {
        fill: #e6a68b;
      }

      .cls-159 {
        fill: #825863;
      }

      .cls-160 {
        fill: #cacad4;
      }

      .cls-161 {
        fill: #e5e6eb;
      }

      .cls-162 {
        fill: #dcdde2;
      }

      .cls-163 {
        fill: #5b4b63;
      }

      .cls-164 {
        fill: #694a59;
      }

      .cls-165 {
        fill: #544056;
      }

      .cls-166 {
        fill: #e8e9ec;
      }

      .cls-167 {
        fill: #d0a654;
      }

      .cls-168 {
        fill: #b7b7c4;
      }

      .cls-169 {
        fill: #a88e89;
      }

      .cls-170 {
        fill: #463f61;
      }

      .cls-171 {
        fill: #85849a;
      }

      .cls-172 {
        fill: #f5f6f8;
      }

      .cls-173 {
        fill: #9d9bae;
      }

      .cls-174 {
        fill: #9b97aa;
      }

      .cls-175 {
        fill: #afafbd;
      }

      .cls-176 {
        fill: #f3be99;
      }

      .cls-177 {
        fill: #6e6984;
      }

      .cls-178 {
        fill: #acaab9;
      }

      .cls-179 {
        fill: #685266;
      }

      .cls-180 {
        fill: #b7b5c2;
      }

      .cls-181 {
        fill: #9994a9;
      }

      .cls-182 {
        fill: #aeabbc;
      }

      .cls-183 {
        fill: #665e7b;
      }

      .cls-184 {
        fill: #878498;
      }

      .cls-185 {
        fill: #a9a9bb;
      }

      .cls-186 {
        fill: #b8b7c4;
      }

      .cls-187 {
        fill: #b3b1c0;
      }

      .cls-188 {
        fill: #dadbe2;
      }

      .cls-189 {
        fill: #9996a9;
      }

      .cls-190 {
        fill: #b4b4c2;
      }

      .cls-191 {
        fill: #f9dbb2;
      }

      .cls-192 {
        fill: #9391a8;
      }

      .cls-193 {
        fill: #c3944d;
      }

      .cls-194 {
        fill: #656280;
      }

      .cls-195 {
        fill: #7c5358;
      }

      .cls-196 {
        fill: #dddee4;
      }

      .cls-197 {
        fill: #bfbecb;
      }

      .cls-198 {
        fill: #b0958a;
      }

      .cls-199 {
        fill: #9f9cb0;
      }

      .cls-200 {
        fill: #5e5978;
      }

      .cls-201 {
        fill: #fdfdfe;
      }

      .cls-202 {
        fill: #a76365;
      }

      .cls-203 {
        fill: #464060;
      }

      .cls-204 {
        fill: #908da4;
      }

      .cls-205 {
        fill: #e8eaec;
      }

      .cls-206 {
        fill: #908ea1;
      }

      .cls-207 {
        fill: #c17c76;
      }

      .cls-208 {
        fill: #aba9bb;
      }

      .cls-209 {
        fill: #a8a7b8;
      }

      .cls-210 {
        fill: #e3e4e8;
      }

      .cls-211 {
        fill: #817e96;
      }

      .cls-212 {
        fill: #7b7790;
      }

      .cls-213 {
        fill: #c9857c;
      }
    </style>
  </defs>
  <g id="_レイヤー_1-2" data-name="レイヤー 1">
    <g id="_生成オブジェクト" data-name="生成オブジェクト">
      <path class="cls-38" d="M41.65,499.8l-21.24-.54-9.78-.23-7.26.09c-1.24.02-2.07-.16-2.81-.75-.8-.64-.89-3.01.62-3.08l15.03-.7c5.51-.26,11.05-.03,16.75-.08l18.22-.16c-.35,2.13-2.03,2.41-3.71,2.74-.24.81.34,2.13-.14,2.65-1.57,1.71-3.65.11-5.69.06Z"/>
      <path class="cls-188" d="M239.59,499.44c-.55-.87.39-2.44-.9-3.07-.95-.47-2.43-.66-3.49-.15-.25-.09-.36-.37-.49-.58-.08-.13,0-.34-.06-.48.5-.07.95.23,1.35.21.34-.01.27-1.16.57-1.32,2.45-1.29,5.6-.21,8.25.16,7.21,1.01,14.23.11,20.96.51l9.79.57c-.35-.02,6.58,1.54,8.58,1.21.6-.1,1.72.46,1.62.9-.14.59-.21.99-.44,1.24-.47.5-1.18.29-1.83.29l-19.36.05c-1.4,0-2.73.3-4.13.44-5.13.52-10.05.24-15.25.2-1.74-.01-3.71-1.53-5.16-.18Z"/>
      <g>
        <path class="cls-140" d="M84.45,291.84c-1.69.02-4.2.82-5.67-.62-.45-.51.6-2.2-.2-2.28-.72-.08-1.25-.31-2.93-.3l-.44,20.02-.38,15.04c-1.82.48-3.08,0-4.3.67-.55,4.25-.09,8.76-1.03,12.83-.52.52-2.3.48-2.45,1.09.37-1.51-1.25,9.82-1.25,6.52,0,3.85,1.11,16.68-.31,18.46-.61.76-2.12-.11-3.09.3l-.76,20.32c-.03.86-1.08,1.38-.77,2.75s.89,3.77,0,4.9c-1.03.99-3.67.36-4.83-.07l.13-35.69c0-1.12-.63-1.61-.84-2.46-.76-3.2.08-6.42-.22-9.56,0,.09-7.34,1.15-8.93.48l.09-81.58c1.33.24,2.75.04,4.21.57l.25,4.15,4.5.55,1.08,1.69c.6.93,2.88-.04,4.57.23l.51,4.98,5.2.29.55,3.2c1.72.36,3.28.17,5.42.24.68,1.54.42,3.17.91,4.75,1.97.13,3.74-.18,5.6.3.28,1.61-.08,2.99.38,4.55,1.63.36,3.45-.37,4.57.32.89.81.28,2.56.44,3.39Z"/>
        <path class="cls-105" d="M240.66,454.18c-2.7-.22-5.48.96-8.35.46-2.47-.42-4.82-2.01-6.81-.48-2.54,1.96.35,6.46-2.16,6.41s-4.41.77-6.36.22c.32-5.93-1.07-12.31.28-18.76-.48,2.28,2.73-6.42.59-7.92l8.48-.43-3.91-58.56-1.96-43.06c-.11-2.43-1.1-4.82-.27-7.13,1.36-.55,3.2-.23,3.86,1.26.46-1.25,1.34-2.15,1.34-3.03.57,2.81,4.55-.94,4.74,3.17l.8,17.25c1.34.43,2.44.29,3.9.57l.57,11.27,3.66.93,1.09,62.16c.21,12.27,1.28,23.96.54,35.68Z"/>
        <path class="cls-83" d="M248.55,220.67c.35,2.1.09,5.38,1.49,7.2.87,1.13,2.61.97,3.43,1.39-1.34,7.81-4.81,6.84-3.27,11.22-.42.71-1.91,2.57-1.04,3.63-1.58.45-3.62-.08-5.19.81-.95,3.76.93,7.65-.92,10.73l-2.76.11-.62,5.47-4.41.64c-.39,1.55-.46,3.19-.22,4.62-2.97,3.62-2.9-2.22-6.77,5.36-.35.69-1.86.2-2.13.57-2.43,3.29-4.35,1.86-5.46,2.26-1.25.45-.47.91-1.44,2.94-.26.54-1.65,0-2.24.34-1.4.83-.96,3.05-1.18,4.7-1.8.92-4.05.1-5.51,1.2-.94-.1-2.3-.46-3.09-.2-1.26.42-1.22,1.98-1.29,3.37-.09,1.64-3.13.66-4.37,1.72-.49.41.32,1.33.03,1.88-.98,1.82-3.35.85-4.82,1.3-1.22.38-.24,2.65-.92,3.32-1.36,1.37-3.45.04-4.97,1.34-1.08.92-3.04-.14-4.74.46-.58,1.05-.47,2.2-.76,3.41-2.81,1.09-5.78,2.36-8.87,1.36.81-2.62.36-4.49-1.57-5.22l.03-17.4c1.47.34,2.8.94,4.15,1.67l.62,4.57c4.16.1,8.03,0,11.97-1.12l.55-6.9c2.2.91,3.53.05,4.66-.97,1.34-.62,3.18-.22,4.45-1.04l.39-4.92c2.74-1.33,9.96.97,9.08-2.11,1.2-.15,3.19-.36,4.03-1.68.7-1.1.5-3.22,1.55-3.95,5.89-1.73.92-5.91,8.1-6.97.53-2.21-.23-4.06.36-5.7.49-1.37.79-2.79.69-4.67l5.08-.45c-.11-2.03.51-3.92.19-5.65,0-.59.74-1.8,1.33-1.7,3.56.64,2.85-3.38,4.08-4.39,2.79-2.28,6.65-3.72,5.17-8.05-1.95-5.71-.99-8.22-2.21-8.85-.94-.49-2.31-1.06-3.35-.52-.69.34-1.05-.3-1.41-.94-.29-.53-.08-1.12.26-2.44-1.16-.74-2.31-.04-3.48-.57-.34-1.58-1.31-4.62-3.02-5.13-2.55-.76-4.44-1.68-6.88-1.98s-4.34-2.59-6.58-3.06c.39-1.2.92-2.38,1.66-3.4,3.69,1.59,4.35-1.1,7.87,1.86,1.37,1.15,3.85-.18,5.41.47,1.67.7,3.2,1.12,4.95,1.26,3.19.25,4.75,3.23,7.13,4.65,1.84,1.1,1.63,2.97,2.85,4.79.05,2.82.11,5.56,1.03,8.44,1.2.15,2.04.7,2.92.91Z"/>
        <path class="cls-89" d="M147.03,498.22l2.41.12c-2.76.66,12.23.69,9.71.04,6.62.25,13.3.25,19.92-.03.18.73,1.15.58,1.66.58-.13,2.2-.26,4.57.16,6.87,7.03.35,13.77.39,20.46.33-.29,1.33-.41,2.72-.32,4.07-.68-.27-1.22.78-2.01.78l-31.42.15-3.06.86-43.43-.26c-2.25-.01-4.37-1.24-6.77-.33-3.52,1.33-10.81-1.29-16.01-.22-1.51.31-2.57-.12-3.68-.11l-.27-4.51c4.86.3,10.08-.64,15.46-.83.44-2.14.11-3.65.13-5.18l.08-5.97c.55-.02,1.21-.15,1.47.19,1.22,1.59-.34,2.37.86,3.4.24.21.31.27,1.06.37,11.34-.17,22.6-.87,33.61-.3Z"/>
        <path class="cls-37" d="M34.15,224.56c.7.08,1.41-.15,1.81.45.21.32.57.81.58,1.56l.16,9.04c.02,1.26-.05,1.78.71,2.49.72.68,1.32.32,2.22.4,1.93.18,1.66,2.68,1.89,4.37.24,1.8,2.5,1.73,4.05,1.81.88,1.5.43,3.12.86,4.73l5.14.16c.21,1.84-.49,3.5-.04,5.39,2.51.16,4.62.7,6.68.57-.51.57,3.21,8.32,5.23,6.99l.44,1.18c.26.68,6,.29,7.12.21.33,1.49.86,2.84.65,4.66,5.12,2.66-.87,1.42,7.31,1.45,1.82,0,.17,3.73,1.13,5.18.45.68,1.41,1.36,2.33,1.14,1.92-.46,1.96,1.37,3.03,1.63l4.31,1.02c.87.13-.25,6.34,2.06,6.5,3.92.27,7.88-.02,11.75-.22-.5,1.6,1.44,4.52-.43,6.03-1.92.29-5.14.31-7.24-.11-1.75-.35-2.56.55-3.73.56l-7.69.1c-.15-.83.45-2.58-.44-3.39-1.12-.69-2.94.04-4.57-.32-.46-1.56-.11-2.94-.38-4.55-1.86-.48-3.63-.17-5.6-.3-.49-1.58-.23-3.21-.91-4.75-2.14-.07-3.7.12-5.42-.24l-.55-3.2-5.2-.29-.51-4.98c-1.69-.27-3.98.69-4.57-.23l-1.08-1.69-4.5-.55-.25-4.15c-1.46-.53-2.89-.32-4.21-.57.01-.55-.51-.48-.59-.96-.43-.68.13-1.49-.19-2.24-.24-.57-1.67-.08-2.11-.58-2.04-2.32-2.02-6.09-6.16-6.66-.87-.12-1.49.68-1.7,1.46-2.06-1-4.22-2.36-4.81-4.66.33.25.52.09.71-.07.29-.23.7-.69.64-1.23l-.64-6.5c-.08-.8-.5-1.46-.87-1.81.06.06-4.33-1.25-4.28-.24-.06-.39-.08-.89-.45-1.19-.05-.37,1.15-.18,1.16-.45l.27-9.66,3.81-.03c.43-2.21,1.32-3.39,3.09-3.27Z"/>
        <path class="cls-9" d="M55.98,391.96l-1.07,42.01,16.16.32.19,6.44c.4.68,1.88.41,2.99.57l.16,19.11c-.5.45-1.12.46-1.05.95-9.32.39-3.86-.38-9.68-1.56-.71-1.83.08-4.27-.48-6.37l-17.17-.04.54-43.75c.04-3.48.96-6.77.71-10.51-.06-.85,1.71-.63,2.01-1.02,1.25-1.65.55-3.79.94-5.81,2.03-.25,3.94-.39,5.74-.34Z"/>
        <path class="cls-79" d="M200.94,433.9l16.91.21c2.14,1.5-1.07,10.2-.59,7.92-1.35,6.46.04,12.83-.28,18.76-.29,5.36-.85,10.79-.62,16.22-.62-.05-1,.29-1.37.66-.42.41.03.85-.01,1.52-.05.78-2.43,1.33-2.92.75l-1.49-1.77c.58-10.42.67-20.91.53-31.35-.02-1.83.11-3.72-.14-6.23l-27.08-.18c-.66,2.83-.16,4.96-.5,6.98-.38,2.29.16,4.43.17,6.65.01,7.76.44,15.5.92,23.58l3.32.43c-.18,2.09-.03,3.93-.39,5.75-2.18.25-4.33.74-6.54.5.13-8.67-2.24-8.6-2.93-17.05-.18-2.17.3-4.52-.08-7.1-.94-6.44-.74-12.74-1.15-19.24l-3.12-.62c.09-1.85-1.1-6.58.69-6.06l26.67-.33Z"/>
        <path class="cls-74" d="M244.88,134.77c-1.25.75-1.16,3.98-.21,4.77,1.59.58,3.35-.29,4.68.46-.03,2.31-.67,4.42.44,5.87.13,1.28-.63,2.54-.64,4.01l-.15,16.1-22.93-.09c-2.97-.01-5.81-1.21-9.26-.13-.07-1.79.61-3.2.07-4.82-.18-.33-1.34-.01-1.56-.55-.16-.38-.1-.86-.04-1.33l10.14-.32.32-12.45,9-1.05c1.01-.92.06-3.21.35-4.46.46-1.94,2.99-.65,4.13-1.3,1.41-.81.38-3.08.84-4.15,1.35-1.02,3.17.15,4.22-1.09.4-.26.76.09.61.52Z"/>
        <path class="cls-68" d="M108.98,477.14c.14,1.26.82-.23,1.32-.01-.48,5.78-.2,11.63-.27,17.45l-.08,5.97c-1.89-.13-3.84,0-5.73.07.08-.3-.09-.72.01-.95s4.5-.24,4.53-.27c.64-.71.39-2.03.08-2.57-.46-.81-1.76-.34-2.85-.33-2.19.02-4.38-1.46-6.45-.45-.99.48-.62,2.22-.7,3.82-4.33.67-9.14-.96-12.78.13l-.79-6.11c-.19-1.49-3.49-2.38-5.12-2.37-3.7.03-6.82-.67-10.4-.62l-7.78.09c.13-1.9-.33-4.37,1.47-5.82,1.23-1,5.89.13,6.95-1.19,1.19-1.49-.59-3.94,1.41-5.2.63-.39,1.28-1.15,2.39-1,.3,1.64,1.53,2.68,3.44,2.43,2.09-.28,1.6,1.78,2.39,2.84,1.1,1.47,3.64.4,4.98.75,3.32.86,6.85.36,10.27.3,2.96-.05,5.99.5,9.08-.3.61-3.21-.74-5.11,1.04-6.72,1.18.23,2.42.39,3.6.07Z"/>
        <path class="cls-102" d="M216.36,477.01c.75.88,2.29.57,3.04,2.09.41,1.41-.73,4.45.87,5.23s4.11-.48,5.87.69c1.5,1,0,6.04,1.82,4.92,0,.39.12.97-.19,1.01-.6.08-1.93.47-4.05.55-2.67-1.2-9.65.55-13.12.36-2.65-.14-4.79,1.51-7.45,2.81-2.08,1.02-1.85,3.24-1.78,5.14-3.09.26-9.55,1.49-11.67,0-.63-.45.15-2.65-.51-3.04-2.61-1.24-5.73.1-8.33-.43-.4-4-.06-8.06,0-12.07,2.2.24,4.35-.25,6.54-.5-.15.51.37.54.73.53l17.28-.43c.86-.09,1.35-3.07.52-3.37-.3-.45-.02-2.22.65-2.28,1.7-.15,3.41-.76,3.98-.07l1.49,1.77c.49.58,2.87.03,2.92-.75.04-.67-.41-1.1.01-1.52.37-.36.76-.71,1.37-.66Z"/>
        <path class="cls-118" d="M168.65,4.99l-1.06,2.39c-3.54-.11-4.79.36-5.59-1.47l-37.39.2c-1.48,0-3.26,2.24-5.44,1.09-.84,2.3.52,4.31-.72,6.17-.75,1.12-3.29.37-4.8.6-.55,1.34.22,2.99-.53,4.41-.51.96-2.35.54-3.82.54l-.54,5.23-4.46.56c-.09,2.44-.17,4.75-.14,6.97-1.7.58-3.37.04-5.46.44.43,3.52-.2,6.66-.21,9.75l-5.74.03c-.2-1.21-.42-5.68,1.67-5.56.47.69,2.55,1.03,3.19.2.77-1,1.04-3.31-.12-3.73,2.13-1.61.61-4.65,1.4-7.74.75-.73,2.57-.42,3.35-.3,1.16.17,1.55-.97,1.5-1.64-.08-1.06-.23-3.13.62-3.9,1.05-.96,2.79-.23,4.04-.87l.32-4.03c1.46-.59,2.95-.2,4.82-.62.36-2.31-.2-4.15.37-6.18,1.55-.41,2.96-.05,4.58-.28.49-2,.19-3.66.39-6.1,1.58.3,3.82-1.07,5.51-1.08l43.67-.09c.82,2.01.36,3.46.58,4.99Z"/>
        <path class="cls-7" d="M60.81,195.74c.74,1.18.23,2.33.23,3.63-1.83-.03-3.67,1.07-5.6,1.14-5.72.23-9.83,4.67-10.27,4.94-1.44.91-2.39,1.38-3.42,2.69-1.71,2.18-4.73,2.75-5.83,5.11-.85,1.83-3.82,2.23-4.88,3.88-.91,1.4-1.08,3.11-3.56,2.99-.28-.01-.58.56-.43.88-1.25-.33-2.51.33-3.71-.32l-1.95-3.52c.49-.02,1.76-.46,1.8-1.08.29-4.41.3-8.59.31-13.06.59-1.53,2.37-1.84,4.01-1.81,2.69.05,5.52.2,8.42-.66.3-1.94-.18-3.5.51-5.52,8.63.73,16.72-.98,24.37.7Z"/>
        <path class="cls-149" d="M235.2,267.56c-.81,1.11-.3,2.75-.67,4.32s-2.59.81-3.52,1.35c-1.76,1.01-3.24,1.72-5.61,1.49l-.02,48.44c0,.89-.88,1.78-1.34,3.03-.65-1.49-2.49-1.81-3.86-1.26.15-.41-.38-.34-.4-.83l-1.16-23.27c-.05-1-2.39-1.17-2.12-3.3.32-2.6-.28-6.15-.16-8.73,1.62-2.13-3.99-.96-5.96-1.25-.09-1.41-.16-2.57-.08-3.7,1.46-1.09,3.71-.28,5.51-1.2.22-1.65-.22-3.87,1.18-4.7.59-.35,1.98.2,2.24-.34.97-2.03.19-2.49,1.44-2.94,1.11-.4,3.03,1.03,5.46-2.26.27-.37,1.78.12,2.13-.57,3.87-7.58,3.8-1.74,6.77-5.36.05.33.41.72.16,1.07Z"/>
        <path class="cls-41" d="M192.35,31.05l4.62.44.65,59.2c.01,1.19,1.09,1.22,1.6,1.64.81,1.66.2,3.57.62,5.5l4.75.58c.68,1.94.34,3.8.39,5.59-.74,1.21-1.52.82-3,.5-1.09-.24-2.42.22-2.49-1.11.61-1.23-.39-3.15.36-5.16-1.28-.58-2.38,0-3.46-.74-.25-1.45-.27-3.59-1.44-4.05-1.41-.56-2.86.11-3.75-.73l-.22-60.66c0-.58.33-.61.82-.95.2-.14.35-.07.57-.05Z"/>
        <path class="cls-107" d="M98.52,41.87l-.19,50.69c0,1.44-.37,2.55-.2,3.57.99,1.87-6.34,1.38-7.19,1.33l.75-45.31c.06-3.72-.23-7.16,1.09-10.25l5.74-.03Z"/>
        <path class="cls-14" d="M273.23,171.56c-1.58.22-3.22-.07-5.1.38.2,3.41.09,6.09-.42,9.34l-7.81.55c-.1-1-1.3-2.22-.76-3.96l-32.89-.12c-1.97,0-4.06-.68-6.32-.52-1.83.13-4.67.01-5.63-1.88-.67-1.33.09-2.73-.17-3.73h47.04c1.94.01,4.13.73,6.04.11s4.28-1.42,6.02-.17Z"/>
        <path class="cls-186" d="M261.12,201.67c.27.1.46.13.76.15,1.98.09,3.96-.33,6.15.25l-.35,8.77c-1.72.66-3.21.12-5.03.44l-.46,19.17-4.33.55-.6,9.16c-2.51.33-4.93.98-7.06.31-1.54-4.38,1.93-3.4,3.27-11.22.62.32,1.27.2,1.74-.01.83-.37.89-1.09.92-2.13l.72-25.37c1.29-.79,2.89-.58,4.27-.07Z"/>
        <path class="cls-177" d="M75.33,505.58c3.27.28,6.81.25,10.09.45l8.94.55.27,4.51-48.24.8c-.29-2.21-.34-3.57-.14-5.14.16-1.21,1.35-.83,1.83-.9.31.33.79.26,1.21.21,5.19-.67,21.13-.89,26.05-.48Z"/>
        <path class="cls-76" d="M78.86,434.16c2.12-.36-.23,6.19,1.93,5.76-.58,2.5-1.55,5.21.04,7.38-1.36.34-.78,1.67-.79,2.66l-.13,27.62c-1.63,1.34-3.72.69-5.32-.44-1.01-.92.99-17.69-1.22-15.78-.07-.49.56-.49,1.05-.95l-.16-19.11c-1.12-.17-2.6.11-2.99-.57l-.19-6.44c2.43.05,5.42.16,7.79-.13Z"/>
        <path class="cls-139" d="M201.02,510.2c-.09-1.35.03-2.75.32-4.07l4.25-.04c1.67-.01,3.68-.07,5-.65l17.38.11c2.64.02,5.65.72,7.8-.1,3.77-.46,1.64,1.54,4.78-.63.09.53-.01.95.38,1.24.36.25,1.38,0,1.64.47.72,1.34.87,3.77-.05,5.06l-39.85.08c-.75,0-1.13-.13-1.32-.38-.27-.37-.44-.7-.33-1.09Z"/>
        <path class="cls-204" d="M74,113.12c.92,1.25-.43,3.36.32,4.77s3.94.97,5.12.64c1.49.44,3.05.04,4.85.25.93,2.07.73,4.33.78,6.41-2.06-.17-4.13.15-6.13.14l-23.5-.18c.03-1.79-.12-3.62.3-5.71l11.02-.26.41-5.85c2.39-.56,4.68.04,6.84-.2Z"/>
        <path class="cls-51" d="M230.23,491.22c-.5.87.03,2.1.45,3.62.35,1.3,2.93.79,4.04.79.13.21.24.49.49.58-.52,3.01.32,6.18.56,9.24-2.15.82-5.15.11-7.8.1l-17.38-.11c.61-1.51-1.22-2.4.39-5.36,1.21-.08,2.52.25,3.59-.53,3.23,1.27,7.02.54,10.84.31,1-.06,1.11-3.11.33-3.6-2.03-1.28-4.43-1.24-6.33-.57-.18-.11-.13-.98.27-1l5.18-.15c0-1.32-1.01-2.02-1.15-3.05,2.12-.08,3.45-.46,4.05-.55.31-.04.19-.62.19-1.01,1.05-.65,1.25,1.29,2.27,1.28Z"/>
        <path class="cls-209" d="M168.8,5.64c-.14.38.29.48.57.9.19.28.75.55.69-.19,5.42,2.41,1.75.79,7.95,1.53l.21,6.06,7.34,1.36c.45,1.34-.49,3.35.56,4.35,1.27,1.2,3.3.34,4.79,1.13-.47,1.86.07,3.29.79,4.83s-.1,3.42.06,4.79c.03.23-.07.47.01.7-.48.34-.82.37-.82.95-.46-.5-5.57.64-5.35-1.06l-.18-10.38c-2.9-.79-5.17,0-7.65-.38.31-1.89-1.27-3.54-.77-5.64-1.3.6-8.56-1.82-8.46-1.7-.71-.83,1.37-5.44-.95-5.51l1.06-2.39c.03.2.24.41.15.65Z"/>
        <path class="cls-26" d="M249.85,136.11c.03.98-.15,1.96.13,3.21l3.95.19c1.87-1.87,1.19,5.95,1.33,7.15l5.95.28c.45,1.94,1.05,4.42-.09,6.05-1.93-.6-4.03-.18-6.23-.48-.65-2.02-.13-3.98-.41-6.05l-4.7-.59c-1.11-1.45-.46-3.56-.44-5.87-1.32-.75-3.09.12-4.68-.46-.95-.79-1.04-4.02.21-4.77,1.27,0,5.48-.77,4.97,1.34Z"/>
        <path class="cls-174" d="M230.6,125.09l-15.35.32c.48-.01-4.06-2.15-3.69-1.67-.53-.68.65-.87.89-1.36,1.95-3.94,10.15-1.81,8.86-3.33l8.99.13c.82,2.11.17,4.02.29,5.91Z"/>
        <path class="cls-208" d="M214.01,113.06c-.39,1.7.02,3.42-.14,5.65,2.63.54,5.03.4,7.45.34,1.29,1.52-6.91-.61-8.86,3.33-.24.49-1.42.68-.89,1.36-.37-.48,4.17,1.66,3.69,1.67-.48.96-.14,2.53-1.46,3.22-.69.36-1.52.11-2.12.47-.73.44-.57,1.6-1.12,2.28-.9,1.11-2.63.24-3.71.54-.35-2.24-.44-4.43-.43-6.7.94.09,2.28-1.03,3.18-1.11.98-.08,1.42-5.79.32-5.62-.22-1.58-.35-3.25-.03-4.84.53.12,1.51-1.2,1.14-1.63,1.07-.18,2.19.65,2.99,1.03Z"/>
        <path class="cls-16" d="M23.51,203.03c0,4.48-.01,8.65-.31,13.06-.04.62-1.32,1.05-1.8,1.08-.88.04-2.22-.62-3.74-.74-.32-4.98-.3-9.76-.03-14.72,1.94-.15,3.3.04,4.65-.22.47.5,1.23.89,1.23,1.54Z"/>
        <path class="cls-109" d="M55.44,125.14c-.03,1.7-.12,3.48-.31,5.41l-4.8.47c-.29,1.06-.13,2.01-.26,3.47-3.17.71-6.28.58-9.31.4l-.5-.03c.69-1.04-.19-3.04.84-3.98,1.12-1.03,3.12-.27,4.64-.92l.5-4.77c3.48-.01,6.33-.06,9.19-.04Z"/>
        <path class="cls-65" d="M244.28,134.25c-1.05,1.24-2.87.07-4.22,1.09-.83-.55-1.89-.3-3.02-.77-.26-.95.11-2.39-.78-3.32-1.21-1.26-3.7,0-5.06-.94s-.51-3.78-.61-5.23c2.93-.06,5.88.05,9.07.34.32,1.44-.06,2.63.51,3.98,1.42-.18,3.28-.32,3.97,1.19.59,1.28-.02,2.64.13,3.66Z"/>
        <path class="cls-75" d="M85.35,104.63l-.2,6.9-5.19.63c-.16,2.25.09,4.37-.52,6.38-1.18.33-4.36.8-5.12-.64s.6-3.52-.32-4.77c1.47-.17,4.1-.29,5.26-1.36,1.02-1.88.14-4.36.84-6.64,1.83-.43,3.61-.22,5.25-.5Z"/>
        <path class="cls-187" d="M27.05,221l.2,6.86-.27,9.66c0,.27-1.21.08-1.16.45l-3.03-.63-.23-15c-.01-.84.14-1.55.78-1.66,1.19.64,2.46-.02,3.71.32Z"/>
        <path class="cls-44" d="M260.74,194.74c.32,2.05,1.66,4.17,1.08,6.46-.37-.27-.92-.03-.7.47-1.38-.51-2.98-.72-4.27.07-1.64-1.21-2.21-2.91-1.79-5.28-1.14-1.26-3.79-.71-5.63-1.01.29-2.11-.4-4.07.18-5.8,1.26.13,3.18-.7,4.68.3,1.03,1.58.25,4.49,1.26,5.45,2.15,1.36,4.3.89,5.18-.65Z"/>
        <path class="cls-153" d="M272.16,165.36c-1.22,0-3.11.09-4.85.25.17,2.24.17,4.19-.1,6.12-1.91.62-4.1-.1-6.04-.1,1.25-1.51.77-3.44.06-5.47-.14-.39.48-.75.48-1.07.99.5,4.29.66,4.8-.62.79-1.97.16-3.89.68-5.5,1.51,0,3.03.35,4.84.49.26,2.31.51,4.11.13,5.9Z"/>
        <path class="cls-80" d="M32.99,189.63c-1.31-.21-.51,4.14-1.48,5.87-1.45,0-2.91-.18-3.75.53-.48,1.66-.06,3.57-.24,5.2-1.63-.03-3.42.28-4.01,1.81,0-.65-.76-1.05-1.23-1.54,1.52.52-.44-5.18,1.24-5.97.47-.22,2.07.46,2.41-.17.74-1.36,1.44-4.19,1.06-5.68,1.96-.56,4.1.05,5.99-.04Z"/>
        <path class="cls-182" d="M249.16,244.1c1.73,2.11.45,4.79-.3,7.19-1.71,5.51.14.85-5.12,5.49l-.69-1.13c1.85-3.08-.03-6.97.92-10.73,1.57-.89,3.6-.37,5.19-.81Z"/>
        <path class="cls-175" d="M45.67,261.69c.32,1.5-5.74.56-5.95.29-2.52-3.21.23-3.46-4.13-5.98-.36-.83.44-1.67-.07-2.34.22-.77.83-1.58,1.7-1.46,4.14.57,4.12,4.34,6.16,6.66.44.5,1.87.01,2.11.58.32.75-.24,1.56.19,2.24Z"/>
        <path class="cls-3" d="M243.05,255.64l.69,1.13c-.08,1.42,0,2.88-.38,4.57-1.06.39-2.01.02-2.93.58-.46,1.54.37,3.62-.5,5.06-.82,1.35-3.46.48-4.73.58.25-.35-.11-.74-.16-1.07-.24-1.44-.17-3.08.22-4.62l4.41-.64.62-5.47,2.76-.11Z"/>
        <path class="cls-13" d="M272.16,165.36c.8,0,2.55.15,3.53.53,1.62.63.54,3.82.79,5.21l-3.25.45c-1.74-1.25-4.19-.42-6.02.17.27-1.93.27-3.88.1-6.12,1.74-.16,3.63-.24,4.85-.25Z"/>
        <path class="cls-28" d="M239.59,499.44c1.03,1.64.84,3.49.96,5.39-3.14,2.17-1.02.17-4.78.63-.24-3.06-1.08-6.23-.56-9.24,1.06-.51,2.53-.32,3.49.15,1.29.63.35,2.21.9,3.07Z"/>
        <path class="cls-129" d="M221.31,119.05c-2.41.06-4.82.2-7.45-.34.17-2.24-.25-3.95.14-5.65,2.05-.08,4.8-.4,7.16.07l.15,5.93Z"/>
        <path class="cls-63" d="M30.7,249c-.32-.12-.64-.31-.71-.67-.17-.81-1.32-.82-1.85-1.29.51-.97-.95-.96-1.26-1.55-1.09-2.07-.31-4.36-.62-6.33-.05-1.01,4.34.3,4.28.24.36.35.79,1.01.87,1.81l.64,6.5c.05.53-.35,1-.64,1.23-.19.15-.38.32-.71.07Z"/>
        <path class="cls-29" d="M240.66,454.18c.61,1.82.07,5.29-2.53,5.63-.89.12-2.44-.92-3.57-.98-2.56-.12-1.51-4.3-9.06-4.67,1.99-1.53,4.34.06,6.81.48,2.87.49,5.65-.68,8.35-.46Z"/>
        <path class="cls-199" d="M204.97,104c.01.47-.3,1.18.47,1.34-1.75,1.52-.67,3.92-1.15,5.89-1.21.86-4.11,1.11-5.17,0,.05-2.63-.67-5.75.36-7.84.07,1.33,1.4.87,2.49,1.11,1.48.33,2.25.71,3-.5Z"/>
        <path class="cls-146" d="M211.02,112.02c.37.43-.61,1.75-1.14,1.63-.37-2.26-5.95-1.1-5.58-2.43.48-1.97-.6-4.37,1.15-5.89l4.44.49c.9,2.16-.29,4.52,1.13,6.2Z"/>
        <path class="cls-183" d="M79.91,477.59c1.45.22,3.68.89,5.14.58.28,1.84.21,3.78-.05,5.63-1.35-.35-3.88.73-4.98-.75-.79-1.05-.3-3.11-2.39-2.84-1.91.25-3.14-.79-3.44-2.43.22-.16.08-.59.4-.64,1.6,1.13,3.69,1.78,5.32.44Z"/>
        <path class="cls-206" d="M90.94,97.46c-.04,2.16-.1,4.41-.36,6.77-1.9.57-3.61.12-5.23.39.06-2.08-.18-4.15.16-6.75,1.86-.55,3.72-.5,5.43-.41Z"/>
        <path class="cls-30" d="M267.19,158.97c-1.8,0-3.61.43-5.41.01.02-1.71-.64-3.57-.13-5.45,1.43-.12,3.93-.75,5.3.32.72,1.03.63,3.9.24,5.12Z"/>
        <path class="cls-73" d="M234.65,495.15c.05.14-.01.35.06.48-1.11,0-3.69.51-4.04-.79-.41-1.52-.94-2.75-.45-3.62,1.21-.02,2.54,0,3.5.95.75.73.54,1.98.92,2.99Z"/>
        <path class="cls-7" d="M97.51,32.82c1.16.42.89,2.73.12,3.73-.64.83-2.72.49-3.19-.2.35-1.63,1.21-3.63,3.07-3.53Z"/>
        <path class="cls-7" d="M253.94,139.51l-3.95-.19c-.28-1.25-.1-2.23-.13-3.21,1.75.57,3.32,1.76,4.08,3.4Z"/>
        <path class="cls-37" d="M29.99,248.33c-.38.23-.93-.04-1.52-.05-.35,0-.51-.89-.33-1.24.53.47,1.67.48,1.85,1.29Z"/>
        <path class="cls-7" d="M102.27,24.78c-.65-1.26,1.48-.71,1.5-1.64.05.67-.34,1.81-1.5,1.64Z"/>
        <path class="cls-7" d="M192.35,31.05c-.22-.02-.37-.09-.57.05-.08-.23.02-.47-.01-.7.43-.1.69.25.58.65Z"/>
        <path class="cls-7" d="M261.87,201.82c-.29-.01-.48-.05-.76-.15-.22-.5.33-.74.7-.47.15.18.33.4.06.62Z"/>
        <path class="cls-7" d="M34.84,139.05c-.03-.22-.06-.44-.06-.67.66,0,.82.63.06.67Z"/>
        <path class="cls-7" d="M170.06,6.34c.06.74-.5.47-.69.19-.28-.42-.72-.52-.57-.9.56-.05.72.67,1.26.71Z"/>
        <path class="cls-112" d="M118.43,302.58c.79,7.27-.14,14.6-.11,21.88-4-1.81-3.59,9.01-3.61,11.18-.47,3.11-1.33,5.98-1.2,9.25l-.18,47.38-28.27.18-.06-36.69.31-23.58c8.51-.56,15.01.45,23.18-.7l.38-12.56c.06-1.9,3.08.18,4.12-2.2.23-.54-.19-1.47-.16-2.06.81-1.42-.09-4.14.65-5.88s.96-2.82,1-4.63c.06-1.15,2.96-1.59,3.94-1.58Z"/>
        <path class="cls-181" d="M124.34,414.3l.46,26.46c1.69.46,3.25.06,4.7.06l32.57.06c.51-2.35,0-4.18.11-6.04.02-.29.34-.77.66-.74,2.02.19,3.91.49,5.88.02,1.79-.43,3.83.13,5.55.11-1.79-.52-.59,4.21-.69,6.06l3.12.62c.41,6.5.21,12.8,1.15,19.24.38,2.58-.1,4.93.08,7.1-9.5-.1-19.17.84-28.55-.39-.64.16.98-5.86-.47-4.93.04-.69-1.3-.33-1.79-.37-1.64-.15-3.32.04-4.96.1-.66.03-1.86-.57-2.54.17-.82.88-.27,2.27-.35,3.15-.05.58-.15,1.16.05,1.71-.39.16-.44.63-.74.88l-20.37-.65.39-26.09c.03-2.17-.26-4.65-.41-6.71.73-9.7.54-19.62.5-29.46h5.23s.44,9.62.44,9.62Z"/>
        <path class="cls-137" d="M108.73,272.56l.46,24.04c.73,1.8.53,3.68.18,5.89,1.3.29,2.66.28,4.23-.18-.07-2.09-.28-3.87.03-5.64s.02-3.97,1.07-5.83l3.73-.16c-.15,1.69.29,3.37-.88,5.36,1.98.88.56,3.61.88,6.54-.99,0-3.88.43-3.94,1.58-.03,1.81-.29,2.95-1,4.63s.16,4.46-.65,5.88c-.89.12-1.73.02-2.76-.23-5.4-1.31-13.88-.31-15.08-1.74-.49-.58-.43-1.38-.55-2.14-.38-2.44-2.31-2.28-4.13-2.3-5.27-.05-10.24-.42-15.13.4l.44-20.02c1.68-.02,2.21.22,2.93.3.8.08-.24,1.78.2,2.28,1.47,1.44,3.98.64,5.67.62.18.99.01,2.85.81,3.74,1.61,1.16,3.81.35,5.83.93.86.25.45,1.7,1.16,2.33,11.47-2.07,2.3,3.37,10.99,3.56-.34-1.68.61-4.15-.98-5.04-2.84-1.58-6.41-.33-9.53-1.4-1.1-.93-.3-3.21-.59-4.23,1.18-.01,1.98-.91,3.73-.56,2.1.42,5.33.4,7.24.11,1.86-1.51-.07-4.43.43-6.03,1.12-3.61.2-7.43.84-11.43.66-1.06,3.3-1.31,4.35-1.27Z"/>
        <path class="cls-156" d="M124.67,276.59c-.59,6.47.12,12.99.1,19.47l-.25,109.08c0,3.41.8,6.35-.18,9.16l-.44-9.62h-5.23s-.35-80.22-.35-80.22c-.03-7.28.9-14.61.11-21.88-.32-2.93,1.1-5.66-.88-6.54,1.17-1.99.73-3.67.88-5.36l.79-9.18c.17-2.01-.22-3.94.77-5.4,1.49.02,3.18.49,4.67.49Z"/>
        <path class="cls-128" d="M118.17,434.13c.15,2.05.45,4.53.41,6.71l-8.89.37.28,15.94-1,19.98c-1.17.31-2.42.16-3.6-.07-2.56-4.45,1.04-17.07-2.31-21.2-.41-.5.27-1.27.34-1.7.26-1.6,1.47-4.73.92-6.5-1.34-.99-2.99-.14-4.34-.2-6.39-.32-12.8-.41-19.17-.16-1.59-2.17-.61-4.88-.04-7.38l17.89-.24.09-5.5c6.43.16,12.96-.63,19.41-.05Z"/>
        <path class="cls-168" d="M98.76,434.19l-.09,5.5-17.89.24c-2.16.43.2-6.12-1.93-5.76,6.55-.81,13.32-.14,19.9.03Z"/>
        <g>
          <path class="cls-70" d="M112.84,314.67c-.03.58.4,1.52.16,2.06-1.03,2.38-4.06.3-4.12,2.2l-.38,12.56c-8.18,1.15-14.67.14-23.18.7l-.31,23.58.06,36.69,28.27-.18.18-47.38c-.14-3.27.73-6.15,1.2-9.25.02-2.17-.39-12.98,3.61-11.18l.35,80.22c.04,9.83.23,19.76-.5,29.46-6.45-.58-12.98.21-19.41.05s-13.35-.83-19.9-.03c-2.37.29-5.36.18-7.79.13l-16.16-.32,1.07-42.01.04-.5c1.17.43,3.81,1.07,4.83.07.9-1.13.3-3.58,0-4.9s.74-1.89.77-2.75l.76-20.32c.97-.41,2.48.46,3.09-.3,1.41-1.78.31-14.6.31-18.46,0,3.3,1.62-8.03,1.25-6.52.15-.61,1.92-.57,2.45-1.09.95-4.06.49-8.58,1.03-12.83,1.22-.67,2.48-.19,4.3-.67l.38-15.04c4.89-.82,9.86-.44,15.13-.4,1.82.02,3.75-.14,4.13,2.3.12.76.06,1.56.55,2.14,1.2,1.43,9.68.42,15.08,1.74,1.03.25,1.87.35,2.76.23Z"/>
          <path class="cls-108" d="M61.23,428.15c.07-4.66.89-21.88,2.08-25.14,1.6-4.39,1.6-8.55,2.21-13.02,1.13-8.22,1.07-16.23,1.29-24.57.01-.55.12-.95.44-1.17.27-.18.78.36,1.58.46.73-1.48,1.08-3.31,1.41-4.89l1.23-5.75c.51-2.39.99-3.83,2.35-5.59,1.02-1.32.21-4.24,1.74-5.18,1.03-.64,3.06.14,4.49-.87.26,4.8.36,9-.17,13.61-1.77-.2-3.7-.53-4.02.85-.47,2.07.27,4.51-1.18,5.99l-2.18.2c-.32.03-.52.9-.54,1.75l-.86,37.96-.86,25.35h-9.04Z"/>
          <path class="cls-92" d="M90.33,428.23l-.11-9.18c5.33-.74,10.28-.6,15.42-.18.27,3,.08,5.68-.07,9.04-5.2.57-10.22.33-15.24.32Z"/>
          <path class="cls-152" d="M90.22,419.05l.11,9.18c-1.85.26-3.34.4-5.28-.17.15-2.85-.59-6.06.48-8.91,1.22-1.04,3.43.07,4.69-.1Z"/>
        </g>
        <path class="cls-40" d="M216.35,288.79c-.13,2.57.48,6.13.16,8.73-.27,2.13,2.07,2.3,2.12,3.3l1.16,23.27c.02.5.55.43.4.83-.83,2.32.16,4.71.27,7.13l1.96,43.06,3.91,58.56-8.48.43-16.91-.21c-.04-1.58-.25-3.2.06-5.02,1.42-.22,2.75-.05,4.19-.73l-.17-36.42c-.78-.37-1.91-.15-2.35-.68-.4-.48-.69-1.36-.69-2.2l-.07-25.09c-1.86-.4-3.18-.73-4.62-.71l-.58-30.95c-5.04-.58-9.66-.54-14.91-.3-1.37-1.99.16-7.09-1.81-7.99-.42-.19-1.01.61-1.3.44-1.25-.7-.9-2.3-1-3.53l-1.1-13.17c-.09-1.13.3-2.39-.56-3.69,4.01.52,7.34-.45,10.9-2.17,1.08-.52,3.04.59,3.77-.8.49-.94.1-3.3,1.06-3.95l10.3-1.49c.26-1.52.12-2.81.72-4.2,2.34.15,4.48.01,6.94-.14-.16-.96-.12-1.61.45-2.33.24-.3,6.3-1.22,6.18,0Z"/>
        <path class="cls-114" d="M195.95,200.65c5.36,1.28,11.69-.46,18.77,1.03,2.24.47,4.04,2.76,6.58,3.06s4.33,1.21,6.88,1.98c1.71.51,2.68,3.55,3.02,5.13,1.17.52,2.32-.17,3.48.57-.34,1.31-.55,1.91-.26,2.44.36.64.72,1.28,1.41.94.08,1.59.99,3.5.75,5.55s-3.43,2.25-6.03,2.46c-.17,5.42-.63,10.63.26,15.5.32,1.73-.3,3.62-.19,5.65l-5.08.45c.1,1.88-.2,3.3-.69,4.67-3.01-.44-6.21-.11-9.35-.02l.04,6.76c-1.69.58-3,.49-4.59.53-.6,3.83-.17,7.43-.14,11.03.88,3.08-6.35.78-9.08,2.11l-.39,4.92c-1.26.82-3.1.42-4.45,1.04-1.13,1.02-2.46,1.89-4.66.97l-.55,6.9c-3.94,1.11-7.81,1.22-11.97,1.12l-.62-4.57c.81-1.9,1.42-24.33-.89-24.15,2.41-.18-3.93-.31-4.04-.41-.07-2.13-.13-4.33-.41-6.91-.36-3.38,1.12-7.53-.64-10.29.05-1.47,1.72-4.61-.34-5.53-1.21-.54-3.45.55-4.77-.2l-.34-36.38c4.61-.48,10.5-1.2,14.7.59,2.28.97,3.86,1.29,6.37,1.51s4.82,2.32,7.18,1.56Z"/>
        <path class="cls-141" d="M249.61,189.64c-.58,1.74.11,3.7-.18,5.8,1.84.3,4.49-.25,5.63,1.01-.43,2.37.15,4.07,1.79,5.28l-.72,25.37c-.03,1.04-.09,1.76-.92,2.13-.48.21-1.13.33-1.74.01-.82-.42-2.56-.26-3.43-1.39-1.39-1.82-1.14-5.1-1.49-7.2,2.89.11-.14-13.9-.11-13.98,1.26-3.32.86-7.46.48-11.1-3.5-.63-6.36.3-8.84.05-7.84-.79-15.98-1.18-23.66.02-1.39-.96-3.15-.4-4.71-.9.05-.53.03-.77,0-.87.04-1.4.08-2.71.46-4.45l8-.29,24.85-.3c1.65-.02,3.21.64,4.61.78Z"/>
        <path class="cls-12" d="M174.18,256.3l.79,22.89-.03,17.4c.07.61-.57.98-1.11.69-.29-.16-.4-.51-.72-1.32-.81-.06-1.08.94-1.76.67-.94-.37-1.83-.11-3.5-.47-.05-6.86-.03-13.48-.74-20.01l-.03-9.69c.25-5.33.59-10.92-.18-16.39-.68-4.82,1.81-2.98,4.91-6.96,1.27,1.3.4,2.62.58,3.95l.76,5.46c.04.28-.53.68-.7.91.09-.12.79.94.58,2.39-.12.82.86.21,1.15.49Z"/>
        <path class="cls-112" d="M240.08,195.65c-.24,1.33.75,1.87,1.9,2.42,1.63.79,1.41,3.17,2.49,4.34,1.45,1.58,3.17,2.53,3.98,4.28-.03.08,3,14.09.11,13.98-.88-.21-1.71-.76-2.92-.91-.92-2.88-.98-5.62-1.03-8.44-1.22-1.81-1.01-3.69-2.85-4.79-2.38-1.43-3.95-4.4-7.13-4.65-1.76-.14-3.28-.56-4.95-1.26-1.56-.66-4.04.68-5.41-.47-3.52-2.96-4.18-.27-7.87-1.86l.04-2.61c7.68-1.2,15.82-.82,23.66-.02Z"/>
        <path class="cls-55" d="M210.31,283.85c-.07,1.13,0,2.29.08,3.7,1.96.29,7.57-.88,5.96,1.25.12-1.22-5.94-.3-6.18,0-.57.72-.61,1.37-.45,2.33-2.46.15-4.6.3-6.94.14-.6,1.39-.45,2.68-.72,4.2l-10.3,1.49c-.96.65-.57,3.01-1.06,3.95-.73,1.39-2.69.28-3.77.8-3.55,1.72-6.89,2.69-10.9,2.17.86,1.29.47,2.56.56,3.69l-3.79.16c-2.5.1.96-4.48-2.21-6.4,1.5.39.66-2.73.75-4.69.68.27.96-.74,1.76-.67.32.81.43,1.16.72,1.32.53.29,1.17-.09,1.11-.69,1.93.73,2.38,2.6,1.57,5.22,3.08,1,6.05-.27,8.87-1.36.3-1.2.18-2.36.76-3.41,1.7-.59,3.67.46,4.74-.46,1.52-1.3,3.6.03,4.97-1.34.67-.68-.3-2.95.92-3.32,1.47-.45,3.84.52,4.82-1.3.3-.55-.52-1.47-.03-1.88,1.25-1.05,4.29-.08,4.37-1.72.07-1.39.03-2.95,1.29-3.37.79-.27,2.15.1,3.09.2Z"/>
        <path class="cls-58" d="M230.82,239.3c-.89-4.87-.43-10.08-.26-15.5,2.59-.21,5.78-.38,6.03-2.46s-.67-3.97-.75-5.55c1.04-.54,2.4.04,3.35.52,1.22.63.25,3.14,2.21,8.85,1.48,4.33-2.38,5.77-5.17,8.05-1.23,1.01-.52,5.03-4.08,4.39-.59-.11-1.33,1.11-1.33,1.7Z"/>
        <path class="cls-196" d="M224.87,250.06c-.59,1.63.17,3.49-.36,5.7-7.17,1.06-2.21,5.24-8.1,6.97-1.05.73-.85,2.84-1.55,3.95-.84,1.32-2.83,1.53-4.03,1.68-.03-3.59-.46-7.2.14-11.03,1.59-.04,2.9.05,4.59-.53l-.04-6.76c3.14-.09,6.34-.41,9.35.02Z"/>
        <path class="cls-69" d="M179.11,280.86c-1.34-.73-2.68-1.32-4.15-1.67l-.79-22.89c.11.1,6.45.22,4.04.41,2.31-.18,1.7,22.25.89,24.15Z"/>
        <path class="cls-85" d="M216.42,195.67l-.04,2.61c-.74,1.02-1.27,2.2-1.66,3.4-7.08-1.49-13.41.24-18.77-1.03.36-1.34.68-2.64.55-4.44l4.98-.44,6.09.3c.44.02,4.06-1.38,4.13-2.18.04.1.06.34,0,.87,1.57.5,3.33-.06,4.71.9Z"/>
        <path class="cls-172" d="M195.98,158.98l.31,13.92.06,16.53-34.01.25c.72-2.3-3.85-1.49-4.33-2.27.29-1.5.36-3.13.02-5.08l-5.08-.41c.09-1.57-.23-3.28.53-4.7.47-.88,2.37-1.09,3.16-.8,1.65.6,3.48.67,5.41.67l.39-4.79c1.06-.73,3.56.58,4.62-.5.98-.99.16-2.6.48-3.83.26-.98,2.19-1.23,2.97-1.05,1.6.37,2.07-.76,3.08-1.12.73-.26,2.11.39,2.48-.31l.97-1.84c.83-1.57,2.11-2.83,2.73-4.32,6.78-.73,9.73-1.24,16.2-.36Z"/>
        <path class="cls-25" d="M230.6,125.09c.1,1.45-.76,4.28.61,5.23s3.85-.33,5.06.94c.88.92.51,2.37.78,3.32,1.13.46,2.19.22,3.02.77-.46,1.07.57,3.34-.84,4.15-1.14.65-3.67-.64-4.13,1.3-.3,1.25.65,3.54-.35,4.46l-9,1.05-.32,12.45-10.14.32c-2.78.09-5.36-1.03-8.66-1.04l-.3-4.53-5.29-.32-.16-14.68c1.69-.51,2.95-.31,4.98-.66-.06-2.01,1.29-4.11,1.01-5.9,1.08-.3,2.81.58,3.71-.54.55-.69.39-1.84,1.12-2.28.6-.36,1.43-.11,2.12-.47,1.32-.69.98-2.26,1.46-3.22l15.35-.32Z"/>
        <path class="cls-10" d="M194.71,144.51c.98,5.88,1.13,8.1,1.27,14.47-6.47-.87-9.42-.36-16.2.36-.62,1.5-1.9,2.76-2.73,4.32l-.97,1.84c-.37.7-1.75.04-2.48.31-1.01.36-1.48,1.49-3.08,1.12-.78-.18-2.72.06-2.97,1.05-.32,1.23.49,2.84-.48,3.83-1.07,1.08-3.56-.23-4.62.5l-.39,4.79c-1.93,0-3.76-.07-5.41-.67.44-1.21-.38-3.09.63-4.3s3.1-.4,4.57-.86l.19-3.3c.05-.85.15-2.52,1.21-2.84,1.45-.43,2.82.28,3.96-.57.35-1.93-.48-4.42.76-5.66,1.15-.88,3.07-.16,4.54-.4.64-1.73.52-3.45.54-5.09,1.72-1,3.88-.36,5.94-1.19l.79-5.57c5-2.19,9.91-2.31,14.92-2.13Z"/>
        <path class="cls-93" d="M167.69,196.99l.34,36.38c.02,1.78-.48,3.65.16,5.46-1.36-.07-3.09,1.11-4.89.16.87-.78,1.78-.09,3.43-.45-1.46-3.44,1.98-5.74-1.83-7.99-.2-1,0-2.12-.44-3.3-2.23.26-4.44-.67-6.46-.12.1-1.65,1.08-3.04,1.6-4.62l1.75-.84s1.3-9.64,1.31-6.57c-.03-4.89.51-9.69-.25-14.49-.29-1.82-1.05-3.06-.39-4.85.44-.12,6.97-.9,5.67,1.21Z"/>
        <path class="cls-97" d="M194.7,138.55c.78,1.99.26,3.92,0,5.96-5.01-.18-9.92-.06-14.92,2.13l-.79,5.57c-2.07.83-4.23.19-5.94,1.19.23-1.04-1.44.09-1.21-.98,2.16-.01.66-3.63,2.04-5.88.67-1.1,2.76-.37,3.62-1.37.68-.8.48-2.73.52-3.69.65-.33.26-1.13.73-1.27.88-.27,1.44.49,2.25.53.7-.3-.2-1.47.3-1.72,1.97-.98,6.77.33,5.81-1.84,1.11,0,1.58-1.38,2.62-1.8.78-.31,1.39.54,1.4,1.07.02.65-.06,1.77-1.04,2.16-.39,1.24.43,1.22.8-.05l3.8-.02Z"/>
        <path class="cls-110" d="M194.09,131.9c.75.05,2.1.9,3,.49-.29,1.69.2,3.49-.45,5.48-.23.52-1.47.67-1.93.68l-3.8.02c-.37,1.27-1.2,1.28-.8.05.98-.4,1.06-1.51,1.04-2.16-.02-.53-.62-1.38-1.4-1.07-1.04.42-1.51,1.81-2.62,1.8-.34-1.85-.19-3.84.06-5.94,1.89-.4,5.23.56,6.91.66Z"/>
        <path class="cls-189" d="M209.91,118.49c1.1-.17.66,5.55-.32,5.62-.9.07-2.24,1.2-3.18,1.11-1.76-.17-3.86-.42-5.6-.08.54-2.11.72-4.23.32-6.53,3.38-.21,6.06.4,8.79-.12Z"/>
        <path class="cls-135" d="M200.81,125.14c-.47,1.85.69,4.59-1,6.44-.46.5-2.08.51-2.72.81-.9.41-2.24-.44-3-.49-.27-1.77-1.53-4.63-.08-6.21,2.02-.72,4.75-.15,6.8-.55Z"/>
        <path class="cls-165" d="M158.01,187.41c.48.79,5.04-.02,4.33,2.27-.6,1.92.37,4.21-.33,6.09-1.36.37-2.78-.2-4.07.43.1-1.63-.19-3.54-.49-5.24-1.3,1.14-3.55-1.75-4.05-3.02,3.67-1.81,3.32,1.23,4.61-.54Z"/>
        <path class="cls-117" d="M267.19,158.97c-.51,1.61.12,3.53-.68,5.5-.52,1.27-3.81,1.12-4.8.62l.07-6.11c1.8.42,3.61,0,5.41-.01Z"/>
        <g>
          <path class="cls-160" d="M206.41,125.22c-.01,2.27.08,4.47.43,6.7.28,1.79-1.07,3.9-1.01,5.9-2.03.35-3.29.15-4.98.66l.16,14.68,5.29.32.3,4.53c3.31.01,5.88,1.13,8.66,1.04-.06.48-.12.95.04,1.33.22.54,1.38.22,1.56.55.54,1.62-.14,3.02-.07,4.82,3.45-1.08,6.29.11,9.26.13l22.93.09.15-16.1c.01-1.46.77-2.73.64-4.01l4.7.59c.28,2.07-.24,4.03.41,6.05,2.2.29,4.31-.12,6.23.48-.31.48.07.68.52.54-.51,1.88.15,3.74.13,5.45l-.07,6.11c0,.31-.62.67-.48,1.07.71,2.03,1.19,3.96-.06,5.47h-47.04c-.4-.01-1.01-.28-1.34-.08-.84-1.51-.06-3.54-.56-5.5-.32-1.24-4.15-1.05-4.6.24-.63,1.78.22,3.37-.01,4.84-1.74.26-3.67,1.05-6.01.67l-.12,23.98-4.98.44c.13,1.8-.19,3.09-.55,4.44-2.36.75-4.78-1.35-7.18-1.56s-4.1-.54-6.37-1.51c-4.2-1.79-10.1-1.07-14.7-.59,1.3-2.11-5.23-1.33-5.67-1.21.69-1.88-.27-4.17.33-6.09l34.01-.25-.06-16.53-.31-13.92c-.14-6.37-.29-8.59-1.27-14.47.26-2.04.77-3.97,0-5.96.46,0,1.7-.15,1.93-.68.65-2,.16-3.8.45-5.48.65-.3,2.26-.31,2.72-.81,1.7-1.85.53-4.59,1-6.44,1.74-.34,3.85-.08,5.6.08Z"/>
          <path class="cls-22" d="M201.42,165.38c-.2-2.14-.08-3.94.15-6.29l5.26-.41c.21,2.67.77,4.66.03,6.96-1.85-.02-3.53-.03-5.44-.26Z"/>
          <path class="cls-143" d="M212.79,171.55c-1.63.97-3.77-.63-5.17-.42.23-1.47-.62-3.06.01-4.84.45-1.29,4.29-1.47,4.6-.24.5,1.96-.28,3.99.56,5.5Z"/>
        </g>
        <path class="cls-7" d="M147.11,461.56c.11.85-1.17.39-1.7.71-1.1.67-1.08,2.35-.38,2.8,1.02.64,2.65,1.32,3.46.04.5-.78.34-2.19.4-3.18,1.45-.94-.16,5.09.47,4.93-.49-.06-3.84,3.33-3.99,4.46-.38,2.94,1.4.54,2.97,7-1.29,1.96-1.27,4.27-1.31,6.6l-.1,5.39c-.03,1.75.3,3.46,1.61,4.46l-3.67,1.54c.65,1.38,1.86,1,2.13,1.91-11-.56-22.26.14-33.61.3-.76-.1-.82-.16-1.06-.37-1.2-1.02.36-1.81-.86-3.4-.25-.33-.92-.21-1.47-.19.08-5.82-.2-11.68.27-17.45.98-.02,2.01-.11,3.39-.42l.78-9.25c1.36-.48,2.88.58,3.73-.53l20.37.65c-.04.7-.01,1.97.21,2.64,1.19.9,2.4.28,2.36-1.11-.03-1.06-.41-2.64-1.83-2.41-.2-.56-.1-1.14-.05-1.71,1.68-.05,2.99-1.68,2.89-3.32,1.64-.06,3.32-.25,4.96-.1Z"/>
        <path class="cls-170" d="M201.37,499.82c1.64-.14,3.12.02,4.71.06-.88,2.05.7,3.93-.48,6.21l-4.25.04c-6.69.06-13.43.02-20.46-.33-.42-2.3-.29-4.67-.16-6.87.02-.43.4-.91.01-1.33s.17-.8.12-1.24c2.6.53,5.72-.82,8.33.43.66.38-.13,2.59.51,3.04,2.12,1.49,8.58.26,11.67,0Z"/>
        <path class="cls-155" d="M104.21,500.62c-1.07.73-.73,2.59-.3,3.66.67-1.39.14-2.57.3-3.66,1.89-.07,3.83-.2,5.73-.07-.02,1.54.31,3.04-.13,5.18-5.38.2-10.6,1.13-15.46.83l-8.94-.55c-.02-1.91-.08-3.81-.46-5.69l1.09-.33c3.64-1.09,8.45.53,12.78-.13.08-1.61-.29-3.34.7-3.82,2.08-1.01,4.26.47,6.45.45,1.1-.01,2.39-.49,2.85.33.31.54.56,1.86-.08,2.57-.03.03-4.43.04-4.53.27s.07.65-.01.95Z"/>
        <path class="cls-7" d="M159.15,498.39c2.52.65-12.46.62-9.71-.04,3.2.16,6.49-.08,9.71.04Z"/>
        <path class="cls-7" d="M180.72,498.93c-.51,0-1.47.15-1.66-.58.68-.04,1.12-.43,1.67-.75.39.42.01.9-.01,1.33Z"/>
        <path class="cls-201" d="M111.53,200.36c.65-.15,1.43.05,2.2.35l.08,31.62c-1.89.27-.22,1.71-.38,2.58,1.67.42,3.9.5,5.35-.45.22,1.6-.05,3.17-.16,4.75l-9.2.04c-.15.98-.42,1.71-.38,2.44-1.52.07-3.11-.38-4.72.18-.49.93.02,2.31-.56,2.97-1.29,1.48-3.34.69-5.01.83-2.32.2-2.71,3.97-4.43,4.27l-2.82.49c-1.01.17-.58,3.9-1.4,5.14-.35.52-1.5.95-2.4.96l-25.82.35c-.54-.53-.96-1.53-1.45-1.75-.8-.37-1.61.37-2.23.41-2.06.13-4.17-.41-6.68-.57-.45-1.89.25-3.55.04-5.39l-5.14-.16c-.43-1.61.02-3.23-.86-4.73-1.55-.08-3.81,0-4.05-1.81-.23-1.69.04-4.19-1.89-4.37,1.24-4.8.94-12.62,3.53-17.32.95-1.73,1.9-1.96,2.28-4.45.46-3.02,4.89-6.37,7.38-8.06l2.72-1.83c2.7-1.82,6.79-2.77,10.01-2.58l10.29.61-1.14,2.49c-.57.49-1.52.39-2.41.59-2.06.46-1.16,3.23-2.39,3.95-1.43.84-.56,3.15.85,3.41,4.36.79,9.14.22,13.6-.33-.05-1.93-.39-3.6.81-4.39.73-.48,2.02-.79,2.82-1.03l2.23-.68c.16-.89-.13-2.83.57-3.63l10.92-2.45c1.25-.28,1.81-1.41,2.78-1.78,2.19-.85,4.83-.15,7.06-.67Z"/>
        <path class="cls-144" d="M109.06,241.69c.58,10.29-.52,20.61-.32,30.87-1.05-.04-3.7.21-4.35,1.27-.63,4,.28,7.82-.84,11.43-3.87.2-7.83.5-11.75.22-2.31-.16-1.19-6.37-2.06-6.5,1.13-5.23.49-10.72.42-16.76l-16.05-.14c-1.18-.01-2.36,1.49-3.12,1.82-1.12.07-6.86.47-7.12-.21l-.44-1.18c-2.01,1.33-5.74-6.42-5.23-6.99.62-.04,1.43-.78,2.23-.41.49.22.91,1.23,1.45,1.75l25.82-.35c.9-.01,2.05-.44,2.4-.96.82-1.23.39-4.96,1.4-5.14l2.82-.49c1.73-.3,2.12-4.07,4.43-4.27,1.68-.14,3.73.65,5.01-.83.58-.66.07-2.04.56-2.97,1.61-.56,3.2-.11,4.72-.18Z"/>
        <path class="cls-106" d="M61.04,199.37c.04,2.08,2.36.98,3.92,1.49,1.13.37.68,2.62.58,3.4-3.22-.19-7.31.76-10.01,2.58l-2.72,1.83c-2.49,1.68-6.92,5.03-7.38,8.06-.38,2.48-1.33,2.72-2.28,4.45-2.59,4.7-2.29,12.52-3.53,17.32-.9-.08-1.49.27-2.22-.4-.76-.71-.69-1.23-.71-2.49l-.16-9.04c-.01-.75-.37-1.23-.58-1.56-.39-.6-1.11-.37-1.81-.45,1.8,0,1.66-9.88,1.77-11.3,1.1-2.36,4.12-2.92,5.83-5.11,1.03-1.32,1.98-1.78,3.42-2.69.44-.28,4.55-4.71,10.27-4.94,1.93-.08,3.78-1.17,5.6-1.14Z"/>
        <path class="cls-11" d="M89.74,278.99l-4.31-1.02c-1.07-.25-1.11-2.09-3.03-1.63-.92.22-1.88-.46-2.33-1.14-.96-1.45.69-5.18-1.13-5.18-8.18-.03-2.19,1.21-7.31-1.45.22-1.82-.31-3.18-.65-4.66.76-.34,1.94-1.83,3.12-1.82l16.05.14c.07,6.05.71,11.53-.42,16.76Z"/>
        <path class="cls-36" d="M34.15,224.56c-1.77-.12-2.66,1.06-3.09,3.27l-3.81.03-.2-6.86c-.15-.31.15-.89.43-.88,2.49.13,2.66-1.58,3.56-2.99,1.07-1.65,4.03-2.05,4.88-3.88-.11,1.42.03,11.31-1.77,11.3Z"/>
        <path class="cls-173" d="M92.14,291.75c.29,1.02-.51,3.3.59,4.23,3.11,1.07,6.69-.18,9.53,1.4,1.59.89.64,3.36.98,5.04-8.69-.19.48-5.63-10.99-3.56-.72-.63-.3-2.09-1.16-2.33-2.03-.58-4.22.23-5.83-.93-.79-.89-.62-2.75-.81-3.74l7.69-.1Z"/>
        <path class="cls-138" d="M91.04,196.24c2.09.05,4.17-.7,6.24-.75,2.42-.06,4.57.41,7.01-.29.32-1.83-.12-3.7.41-5.57l19.31-.43-.32,6.14c-1.88.77-5.25-.72-5.1,1.64-.62.08-.36-.74-.95-.96-1.63.88-2.88.6-4.6,1.28,1.39,1.35-1.7,1.66-1.51,3.04-2.22.52-4.87-.19-7.06.67-.97.38-1.53,1.5-2.78,1.78l-10.92,2.45c-.71.81-.42,2.75-.57,3.63l-2.23.68c.2-.75-.78-.58-1.19-.57-1.99.06-1.03-1.85-1.65-2.92-.75-1.29-3.44-.39-4.59-.31-2.92-.62-.25-3.18-1.77-5.28-.7.89-1.16,1.99-1.31,2.71l-.28,1.37c-.07.35-.97.19-1.35.3l-10.29-.61c.11-.78.56-3.03-.58-3.4-1.57-.51-3.88.59-3.92-1.49,0-1.3.51-2.45-.23-3.63.83.18,1.9.58,2.69-.17,1.41-1.33-2.64-3.75-.92-6.19,2.21.38,5.13-.42,7.22-.86.27.67.95.45,2.13.38.6,1.83-.03,3.51.36,5.13.21.88-.42,1.25-1.19,1.92s-.64,3.83.34,4.13c2.37.72,4.96.46,7.53.06,1.13-1.73.47-4.92.42-6.74-.22-6.85-.03-13.69.35-20.54,1.5-.65,3.14-.89,4.98-.56l.61,24c2.15.98,3.99-.12,5.7-.08Z"/>
        <path class="cls-66" d="M73.28,163.13c-1.93.23-3.11,2.41-3.19,4.42-1.25.54-2.32.15-3.52.88.7,1.59,1.13,2.39.19,3.28l-43.29.1c.05-2.38.29-4.3.45-6.2l42.27-.05c.78-2.43,2.33-3.51,4.85-3.75,1.23-.12,2.11.23,2.25,1.34Z"/>
        <path class="cls-161" d="M62.58,189.39c-1.72,2.43,2.33,4.86.92,6.19-.79.75-1.86.35-2.69.17-7.65-1.68-15.74.03-24.37-.7-.69,2.02-.21,3.58-.51,5.52-2.91.86-5.73.71-8.42.66.19-1.63-.23-3.54.24-5.2.85-.71,2.3-.53,3.75-.53.97-1.73.16-6.08,1.48-5.87l12.92-.62c5.71-.27,11.29-.55,16.68.38Z"/>
        <path class="cls-148" d="M73.28,163.13c.48.19.73.8,1.33.73.02.45.27.66.14,1.15-.54,2.14-.14,4.38-.15,6.56-.99.02-2.02.42-3.01.37l-4.85-.24c.94-.89.51-1.68-.19-3.28,1.2-.72,2.27-.34,3.52-.88.08-2.01,1.26-4.19,3.19-4.42Z"/>
        <g>
          <path class="cls-60" d="M40.26,134.86l.5.03c-.49.68-.32.93.73,1.45-.76.39-1.3.36-1.28,1.34.01.6.35,1.04.63,1.88-.99-.59-1.57.13-2.15.28-1.63.43.15,3.77-1.45,5.52-.62.68-2.44.63-3.48,1.16-1.74,1.46-.22,4.23-1.2,6.12-.92.67-2.59-.1-3.44.74-1.24,1.23-.6,3.27-.7,5.14l-4.41.55c-.91,2.17.08,4.49-.1,6.52-.16,1.9-.4,3.82-.45,6.2l43.29-.1,4.85.24c.06,1,1.5,1.69,1.31,3.29-.5,4.23-7.86-.17-6.89,3.07-.82-.62-2.38-.79-3.24.16-.41.45.43,1.39.82,1.61.59.33,1.38-.2,2-.61-.46.89.55,1.25.89,2.13.23.6-.94,1.57-.29,2.37.54.67,1.92.25,2.6.81,1.07.87.34,2.76,1.01,3.76-2.09.44-5.01,1.24-7.22.86-5.39-.93-10.97-.65-16.68-.38l-12.92.62c-1.89.09-4.03-.52-5.99.04-.61-2.43-.38-4.93-.6-7.85-2.82-.61-5.69.3-8.34-.71-1.07-.59-.13-2.64-.27-3.48,1.18-.67,2.83.22,4.47-.55,1.12-.52,1.38-3.85.4-4.63-1.33-1.04-3.03.12-4.28.04-1.61-3.06.52-6.84.01-10.47-.23-1.67-.19-3.39,1.38-3.65.68.53,2.2.57,2.66-.07.58-.81.22-2-.37-2.48.22-.64-.1-2.01.89-2.15l4.58-.67c.33-2.45-.49-4.94.46-6.93.96-1.1,3.31-.33,4.72-.71.83-1.88-.42-4.71.86-6.16.28-.32.81-.14,1.28-.14.76-.04.59-.66-.06-.67-.72-.02-.74-.31-.7-.71.22-2.32,4.02-2.94,6.19-2.82Z"/>
          <g>
            <path class="cls-7" d="M17.77,177.63c-.26-1.46-.02-3.72.58-5.13,1.25.08,2.96-1.08,4.28-.04.99.78.72,4.11-.4,4.63-1.64.77-3.29-.12-4.47.55Z"/>
            <path class="cls-7" d="M22.05,155.83c.59.48.95,1.67.37,2.48-.46.64-1.98.6-2.66.07.34-1.48.53-2.67,2.29-2.55Z"/>
            <path class="cls-61" d="M53.83,184c-.67.28-.39,1.88-1.15,1.98-.61.08-2.2-.6-1.78-1.71.55-1.47,2.2-3.69,3.72-3.92,1.43-.21.8,1.34,1.06,1.85.41.8-1.09,1.49-1.84,1.8Z"/>
            <path class="cls-136" d="M66.02,178.3c-.48.21-.24.83-.42,1.16-.62.41-1.41.94-2,.61-.4-.22-1.23-1.16-.82-1.61.86-.95,2.42-.78,3.24-.16Z"/>
            <path class="cls-99" d="M58.43,180.38c.84-.78,1.63-.18,1.92.54.16.41.25.99-.24,1.33-.6.42-1.22.36-1.76.02-.59-.38-.79-1.08.07-1.89Z"/>
            <path class="cls-197" d="M44.04,184.62c-.15,1.06-.68,1.48-1.03,1.59-.71.2-1.35-.35-1.57-.98-.37-1.05,1.3-2.11,2.14-1.92.28.06.59.39.47,1.31Z"/>
            <path class="cls-127" d="M46.49,181.38c.22-.16.51.43.69.52.47.22.25.6-.04.59-.42-.01-.78.09-1.17,0-.57-.14-.12-.63.52-1.11Z"/>
          </g>
        </g>
        <g>
          <path class="cls-194" d="M212.79,171.55c.33-.2.94.07,1.34.07.26.99-.5,2.4.17,3.73.95,1.89,3.8,2.01,5.63,1.88,2.27-.16,4.36.51,6.32.52l32.89.12c-.53,1.74.66,2.96.76,3.96.17,1.7-1.22,4.79-.24,6.63,1.21,2.28.73,4.09,1.07,6.29-.88,1.54-3.03,2.02-5.18.65-1.02-.96-.23-3.87-1.26-5.45-1.5-1-3.42-.17-4.68-.3-1.39-.14-2.95-.8-4.61-.78l-24.85.3-8,.29c-.38,1.75-.41,3.06-.46,4.45-.07.8-3.69,2.2-4.13,2.18l-6.09-.3.12-23.98c2.34.38,4.27-.42,6.01-.67,1.41-.21,3.55,1.39,5.17.42Z"/>
          <path class="cls-192" d="M229.1,184.71c-.9.32-1.81.59-2.68.43,1.06-1.32-3.38-5.18-.91-6.26.42-.18.57.66,1.12.78l1.65.36c1.79.39-1.82,5.83.82,4.69Z"/>
          <path class="cls-185" d="M224.08,186.92c-.77.76-2.98,1.33-3.7.15.16-.99,2.54-1.47,3.7-.15Z"/>
          <path class="cls-23" d="M207.41,183.97c-.37.61-.68.87-.98,1-.22.1-.72.01-.8-.35-.03-.11.06-1.43,1.45-1.58.28-.03.76.22.33.93Z"/>
        </g>
        <path class="cls-132" d="M211.09,446.82c.14,10.44.05,20.93-.53,31.35-.57-.68-2.28-.07-3.98.07-.67.06-.95,1.83-.65,2.28-.64-.24-.94-.37-.81-2.01-3.11-1.02-6.28-1.12-9.42-.45.26,1.75.72,5.09-.84,5.11l-6.61.09c-.29.19-.09.82-.13,1.06-.36,0-.87-.02-.73-.53.36-1.82.2-3.65.39-5.75l-3.32-.43c-.48-8.07-.9-15.81-.92-23.58,2-.37,4.1-.33,6.47-.43.3-2.4-.18-4.39-.17-6.42l21.26-.37Z"/>
        <path class="cls-162" d="M200.94,433.9l-26.67.33c-1.72.02-3.76-.54-5.55-.11-.76-.54-.4-1.31-.39-2.34l.25-39.96,3.27.28.4,4.73.39,31.2,24.6-.3.07-64.67c1.44-.02,2.76.31,4.62.71l.07,25.09c0,.83.29,1.71.69,2.2.44.53,1.56.31,2.35.68l.17,36.42c-1.44.69-2.77.51-4.19.73-.32,1.82-.1,3.44-.06,5.02Z"/>
        <path class="cls-8" d="M211.09,446.82l-21.26.37c-2.11.04-4.41-.73-6.46.2.33-2.02-.16-4.14.5-6.98l27.08.18c.25,2.5.11,4.39.14,6.23Z"/>
        <path class="cls-212" d="M189.84,447.19c-.01,2.03.47,4.02.17,6.42-2.36.1-4.46.06-6.47.43,0-2.22-.55-4.36-.17-6.65,2.05-.93,4.35-.17,6.46-.2Z"/>
        <path class="cls-42" d="M118.58,440.84l-.39,26.09c-.86,1.11-2.37.05-3.73.53l-.78,9.25c-1.38.31-2.41.4-3.39.42-.5-.22-1.17,1.27-1.32.01l1-19.98-.28-15.94,8.89-.37Z"/>
        <path class="cls-157" d="M103.07,455.87c3.35,4.12-.25,16.75,2.31,21.2-1.78,1.61-.44,3.51-1.04,6.72-3.09.8-6.12.25-9.08.3.29-2.05,0-4.14-.75-6.21-1.39.18-2.44-.17-3.54-.22l.02-4.3c.71-.53,1.54-.43,2.78-.71-.1-1.9,1.63-1.97,2.46-2.89,1.05-1.18.66-3.29,1.32-4.79.44-1,1.55-1.51,1.52-3-.05-2.13.03-4.15.65-6.11,1.18.49,1.41,1.45,2.33,1.62.8.15.95-1.02,1.02-1.61Z"/>
        <path class="cls-78" d="M90.97,477.66c1.1.05,2.15.4,3.54.22.75,2.07,1.04,4.16.75,6.21-3.41.06-6.95.56-10.27-.3.26-1.84.33-3.78.05-5.63,1.95-.42,3.86-.6,5.92-.51Z"/>
        <path class="cls-147" d="M223.72,491.5c.13,1.03,1.14,1.73,1.15,3.05l-5.18.15c-.4.01-.45.88-.27,1-1.24.43-2.97-.38-4.32.6-1.01.74-.51,2.34-.52,3.26-1.07.78-2.38.44-3.59.53-.17.01-.34.02-.51-.03l.13-8.18c3.46.18,10.44-1.56,13.12-.36Z"/>
        <path class="cls-211" d="M205.93,480.52c.82.3.34,3.29-.52,3.37l-17.28.43c.03-.24-.16-.87.13-1.06l6.61-.09c1.56-.02,1.1-3.37.84-5.11,3.14-.67,6.31-.57,9.42.45-.14,1.64.17,1.78.81,2.01Z"/>
        <path class="cls-34" d="M210.6,491.87l-.13,8.18c-1.51-.44-2.95-.13-4.39-.16-1.59-.04-3.07-.2-4.71-.06-.07-1.9-.29-4.12,1.78-5.14,2.66-1.31,4.79-2.95,7.45-2.81Z"/>
        <path class="cls-201" d="M167.6,7.38c2.32.07.24,4.68.95,5.51-.1-.12,7.16,2.3,8.46,1.7-.51,2.1,1.08,3.75.77,5.64-.43,2.64-.11,5.39-.11,8.34v22.37c-.02,5.95.15,12.2-.53,17.89-1.44.17-2.54,1.73-3.36,2.16-1.87.97-3.79.16-5.56.6-.61,1.92-.79,4.01.08,5.73l-53.47-.15c.09,4.47-.31,8.59-.27,12.98l.07,9.02c.03,4.1-.45,8.31.1,12.63.43,1.01,2.81.66,4.19.61l.53,13.26,5.45.61.12,5.53c2.04-.21,4.17.21,5.87.51,2.35,1.88,5.23,3.15,6.51,5.97-1.48.72-3.13.86-4.78.72-2.24-.19-4.54-.4-6.79-.42l-1.13-6.19-5.68-.37-.43-5.52-3.99.71c-.21-.58-.64-.97-.7-1.47.45-3.79-.39-7.61-.38-11.66l-5.03-.48.61-19.81c.11-3.43.25-6.4,1.14-9.72s-.34-7.51.25-11.24c.61-3.84.28-7.65.32-11.64-2.16-.46-4.15-.18-6.22-.92l-.4-28.58c-.03-2.22.05-4.53.14-6.97l4.46-.56.54-5.23c1.47,0,3.31.43,3.82-.54.75-1.42-.02-3.07.53-4.41,1.51-.24,4.05.52,4.8-.6,1.24-1.86-.13-3.87.72-6.17,2.18,1.15,3.96-1.08,5.44-1.09l37.39-.2c.8,1.83,2.04,1.36,5.59,1.47Z"/>
        <path class="cls-205" d="M113.91,125.75c-2.98-.31-5.47-2.34-8.38-3.03-.21-.63.23-1.55.22-2.1-.56-.41-1.67-.33-1.98-.83-.45-.73-.27-1.55-.26-2.55l.07-8.32c.03-3.9.66-7.56-.04-11.46-4.48-.25-3.2.96-5.42-1.32-.17-1.02.2-2.13.2-3.57l.19-50.69c.01-3.08.64-6.23.21-9.75,2.09-.4,3.77.14,5.46-.44l.4,28.58c2.08.74,4.06.46,6.22.92-.04,3.99.29,7.8-.32,11.64-.59,3.73.68,7.78-.25,11.24s-1.03,6.29-1.14,9.72l-.61,19.81,5.03.48c0,4.05.83,7.88.38,11.66Z"/>
        <path class="cls-64" d="M190.96,32.05l.22,60.66c.9.84,2.34.17,3.75.73,1.18.46,1.2,2.6,1.44,4.05,1.08.73,2.18.16,3.46.74-.75,2,.25,3.93-.36,5.16-1.03,2.1-.31,5.22-.36,7.84,1.06,1.11,3.97.86,5.17,0-.37,1.33,5.21.16,5.58,2.43-.31,1.59-.18,3.25.03,4.84-2.73.52-5.41-.09-8.79.12.41,2.3.22,4.42-.32,6.53-2.04.4-4.77-.17-6.8.55-1.46,1.58-.19,4.44.08,6.21-1.68-.1-5.01-1.06-6.91-.66-.25,2.09-.4,4.09-.06,5.94.96,2.17-3.84.86-5.81,1.84-.49.25.4,1.42-.3,1.72-.81-.04-1.37-.8-2.25-.53-.47.15-.08.94-.73,1.27.02-.47-.13-1.61-.52-1.97-1.34-1.64-11.57,1.49-10.07-.87.17-.4.42-2.66,1.14-2.54,3.52.57,3.93-2.15,5.59-3.46,1.21-.96,4.35.93,4.27-2.11,2.71.89,3.91-1.38,4.54-3.37.15-.46,1.57-.34,1.93-.66,1.41-1.25.9-6.07,1.87-7.56.41-.63,1.63-.45,1.77-.96,1.33-4.88-.54-3.95-1.78-6.17.78-4.04-2.32-8.22-2.27-12.19l.72-52.28c.08-5.76.47-11.13.38-16.34-.21,1.7,4.9.55,5.35,1.06Z"/>
        <path class="cls-133" d="M105.53,122.72c-1.25-.3-3.1-.33-4.34.94,2.14.83,4.05,2.56,5.61,4.27,0,.94-1.16,2.1-.76,3.28-.52-.18-1.26.32-1.7.52-1.43.65-.67,5.06-.76,6.75-.24-.03-3.54,1.06-4.56-1.56-.1-.25.9-.3.8-1.13,1.15-.76.71-1.11-.81-.72l-.66-3.51-5.99-.33c-.45-2.08-.96-4.2-2.03-5.4-1.23-1.39-3.86-.51-5.27-.62-.04-2.08.16-4.34-.78-6.41-1.8-.21-3.36.19-4.85-.25.61-2.01.36-4.13.52-6.38l5.19-.63.2-6.9c1.62-.28,3.34.18,5.23-.39.26-2.36.32-4.61.36-6.77.85.05,8.18.54,7.19-1.33,2.22,2.28.94,1.07,5.42,1.32.7,3.9.07,7.57.04,11.46l-.07,8.32c0,1-.2,1.82.26,2.55.31.5,1.43.43,1.98.83,0,.55-.43,1.46-.22,2.1Z"/>
        <path class="cls-179" d="M84.96,500.34c.38,1.88.44,3.78.46,5.69-3.28-.2-6.82-.17-10.09-.45l.53-5.23c3.2-.44,6.51.77,9.1-.01Z"/>
        <g>
          <path class="cls-121" d="M86.05,500.01l-1.09.33c-2.59.78-5.91-.42-9.1.01l-.53,5.23c-4.92-.42-20.86-.19-26.05.48.42-1.79,1.25-3.79.13-5.42,1.72-.7,3.58-.62,5.81-.61.53-3.02.05-5.25,1.13-8.39,2.11,1.5,4.24-.62,5.62-.63l7.78-.09c3.58-.04,6.69.65,10.4.62,1.62-.01,4.92.88,5.12,2.37l.79,6.11Z"/>
          <path class="cls-38" d="M49.28,506.05c-.42.05-.89.12-1.21-.21,1.7-1.96-.58-4.43,1.34-5.21,1.12,1.63.29,3.63-.13,5.42Z"/>
          <path class="cls-169" d="M71.35,499.34c-2.31,1.43-5.08.16-7.44.82-1.35.38-1.7-.3-2.35-.6-1.3-.61-.65-1.93.3-2.82.69-.65,1.89-1.39,2.43-2.05,2.13,1.08,4.69,1.93,7.11.75.74.64,1.23,3.1-.05,3.89Z"/>
        </g>
        <path class="cls-137" d="M100,447.47c.2.92-2.03,5.79,1.19,5.95,1.05.05,1.71.09,2.23.76-.07.43-.75,1.19-.34,1.7-.08.58-.22,1.76-1.02,1.61-.92-.18-1.15-1.13-2.33-1.62-.62,1.96-.7,3.98-.65,6.11.04,1.49-1.08,2-1.52,3-.66,1.5-.27,3.61-1.32,4.79-.83.93-2.56.99-2.46,2.89-1.24.28-2.07.17-2.78.71l-1.09-10.63c-.2-1.92-1.58-3.73.86-5.53-5.26-6.91-3.61-1.51-5.75-5.71l-4.97-1.52c0-.99-.58-2.32.79-2.66,6.37-.24,12.79-.15,19.17.16Z"/>
        <path class="cls-95" d="M90.99,473.36l-.02,4.3c-2.07-.1-3.97.09-5.92.51-1.46.31-3.7-.36-5.14-.58l.13-27.62,4.97,1.52c2.14,4.2.49-1.2,5.75,5.71-2.43,1.8-1.05,3.62-.86,5.53l1.09,10.63Z"/>
        <path class="cls-163" d="M210.46,500.05c.17.05.34.04.51.03-1.61,2.96.22,3.85-.39,5.36-1.32.58-3.33.64-5,.65,1.19-2.27-.39-4.15.48-6.21,1.44.04,2.88-.28,4.39.16Z"/>
        <path class="cls-4" d="M85.06,125.19l.13,6.31c1.94.66,3.48.23,5.55.62-.44,2.29-.18,4.28.15,6.25-.18.07-.41.21-.58.23-1.48.16-3.68.52-5.11-.4-1.2-.77-.87-2.78-.99-3.9-.17-1.55-1.38-1.14-2.41-1.42-3.51-.97-2.37-5.87-2.85-7.55,1.99.02,4.07-.3,6.13-.14Z"/>
        <path class="cls-198" d="M214.57,499.56c.01-.92-.5-2.52.52-3.26,1.35-.99,3.09-.17,4.32-.6,1.9-.66,4.3-.7,6.33.57.77.49.66,3.54-.33,3.6-3.82.23-7.61.96-10.84-.31Z"/>
        <path class="cls-50" d="M185.6,30.99c.09,5.21-.3,10.58-.38,16.34l-.72,52.28c-.05,3.97,3.05,8.16,2.27,12.19-4.14,1.93-.55,2.17-4.02,3.03-1.59-7.31,2.77-12.18-1.95-15.13.31-2.32-.63-4.62-.98-7.13l-1.39-9.81c-.23-1.64.87-3.53.01-5.41-3.39-.4-6.83-.03-10.13-.04-.87-1.71-.69-3.81-.08-5.73,1.77-.44,3.69.37,5.56-.6.82-.43,1.91-1.98,3.36-2.16.67-5.69.51-11.94.51-17.89v-22.37c.02-2.95-.31-5.7.13-8.34,2.48.38,4.76-.41,7.65.38l.18,10.38Z"/>
        <path class="cls-180" d="M155.6,275.98l10.72.17c.26,0,.52.15.78,0,.71,6.52.69,13.15.74,20.01,1.67.37,2.56.1,3.5.47-.1,1.96.75,5.07-.75,4.69-.93-.34-1.24.7-2.54,1.39l.51,89.11-.25,39.96c0,1.04-.36,1.8.39,2.34-1.96.47-3.86.17-5.88-.02l-.34-119.91-.38-28.52c-.02-1.67.19-3.42-.29-5.31l-7.98-.26c-.36-1.2-.71-2.86-1.25-3.93l3.02-.2Z"/>
        <path class="cls-200" d="M118.64,239.21c-.14,2.15.43,4.34,1.34,6.28-.67-2.56-.77,8.79.08,4.62l-.21,15.7c-.35.06.04.87.05,1.09-1,.88-.4,2.47-.47,3.69-.06,1.04.85,2.08.17,3.01s-.26,1.93.41,2.51c-1,1.45-.6,3.39-.77,5.4l-.79,9.18-3.73.16c-1.04,1.86-.75,3.98-1.07,5.83-1.47.18-2.97,0-4.44-.07l-.46-24.04c-.2-10.26.9-20.59.32-30.87-.04-.72.23-1.46.38-2.44l9.2-.04Z"/>
        <path class="cls-184" d="M113.63,296.67c-.31,1.77-.1,3.55-.03,5.64-1.57.45-2.93.46-4.23.18.35-2.21.56-4.09-.18-5.89,1.47.08,2.97.25,4.44.07Z"/>
        <path class="cls-91" d="M129.6,266.97c.06.87-.27,1.77.15,3l8.17.32c.67.29-.66,2.68.6,2.76-.26.55-.2,1.91.06,2.41,4.86.38-12.99,1.13-8.96,1.14h-4.95c-1.49,0-3.18-.47-4.67-.49-.67-.58-1.06-1.61-.41-2.51.93.03,1.74.6,2.51.32.85-.31,1.39-2.15.7-2.34-1.25-.35-2.56.1-3.39-.99.07-1.22-.52-2.81.47-3.69,3.2-.57,6.52.13,9.71.08Z"/>
        <path class="cls-84" d="M103.41,454.17c-.52-.66-1.18-.7-2.23-.76-3.22-.15-.98-5.03-1.19-5.95,1.35.07,2.99-.78,4.34.2.55,1.77-.66,4.9-.92,6.5Z"/>
        <path class="cls-142" d="M170.6,301.32c3.17,1.92-.29,6.51,2.21,6.4l3.79-.16,1.1,13.17c.1,1.23-.24,2.83,1,3.53.3.17.88-.63,1.3-.44,1.97.9.44,6,1.81,7.99,5.24-.25,9.87-.29,14.91.3l.58,30.95-.07,64.67-24.6.3-.39-31.2-.4-4.73-3.27-.28-.51-89.11c1.3-.69,1.61-1.73,2.54-1.39Z"/>
        <path class="cls-203" d="M145.82,218.13c-.25,1.65.36,2.83,1.2,4.24.34,1.04-1.08,3.65.26,4.55,5.74,1.49,6.68,1.32,10.72.22,2.02-.55,4.23.38,6.46.12.44,1.18.24,2.3.44,3.3,3.81,2.25.37,4.54,1.83,7.99-1.64.36-2.56-.33-3.43.45,1.79.95,3.53-.23,4.89-.16,1.62.38,3.25.37,4.94.27,1.76,2.76.27,6.91.64,10.29.28,2.58.33,4.78.41,6.91-.29-.27-1.27.33-1.15-.49.2-1.45-.5-2.5-.58-2.39.17-.23.74-.63.7-.91l-.76-5.46c-.18-1.32.68-2.65-.58-3.95-3.1,3.97-5.6,2.14-4.91,6.96-1.25-.23-3.02.59-4.28-.36-1.03-.78-.6-2.81-1.06-3.81-2.64-1.05-4.78-2.81-5.14-5.61-1.32-.4-3.37,0-3.82-1.24s.45-4.71-1.24-5.15c-2.4-.62-4.56-.85-4.99-3.53-.25-1.55-2.02-4.65-3.79-4.28l-4.51,7.34c-.81,1.31-3.28.36-4.79,1.17-.83,1.6-.35,3.4-.59,5-1.02-.03-2.11.53-3.35.65l-.51,5.06-8.76.42v4.39c-.87,4.17-.77-7.18-.1-4.62-.9-1.93-1.48-4.12-1.34-6.28.1-1.58.38-3.16.16-4.75-.06-.45-.02-.89-.03-1.32l2.79.38c3.37-2.31-1.57-7.01,4.37-8.73,1.03.7,1.02,1.94,1.67,3.05,3.64.18,6.98.4,10.67-.6.67-3.3.83-6.5,1.05-9.6.7.3,1.61-.38,2.38-.95.47-.35.49-1.08.57-2.2,1.29-.16,1.34.3.4,1.11.51,1.87,1.89,2.1,3.16,2.53Z"/>
        <path class="cls-151" d="M173.13,239.1c-1.69.1-3.32.11-4.94-.27-.64-1.81-.15-3.68-.16-5.46,1.31.75,3.56-.34,4.77.2,2.06.92.39,4.06.34,5.53Z"/>
        <path class="cls-5" d="M248.44,206.69c-.81-1.75-2.53-2.7-3.98-4.28-1.07-1.17-.86-3.55-2.49-4.34-1.14-.55-2.14-1.09-1.9-2.42,2.48.25,5.34-.68,8.84-.05.38,3.63.78,7.78-.48,11.1Z"/>
        <path class="cls-126" d="M166.89,250.07c.78,5.47.43,11.06.18,16.39-5.98-.27,1.5.91-6.29.35-.34-.21-.02-.75.33-.89l5.22-.15c.16-1.07.47-2.4-.18-3.36-.8-1.18-2.94-.28-3.9-1-1.3-.97-1-3.19-1.22-4.67-.29-1.94-3.04-1.08-3.93-2.06-1.02-1.13-.35-3.5-1.72-4.5-1.01-.73-2.63.15-3.7-.52-1.19-.75-1.07-2.42-2.29-3.3-1.79-1.3-1.21-4.09-1.92-6.26l-14.79-.5c.24-1.6-.24-3.4.59-5,1.51-.81,3.98.15,4.79-1.17l4.51-7.34c1.77-.37,3.54,2.73,3.79,4.28.43,2.68,2.58,2.92,4.99,3.53,1.7.44.79,3.91,1.24,5.15s2.5.84,3.82,1.24c.36,2.8,2.49,4.55,5.14,5.61.46,1,.03,3.03,1.06,3.81,1.26.95,3.02.13,4.28.36Z"/>
        <path class="cls-6" d="M160.79,266.81c7.79.56.3-.62,6.29-.35l.03,9.69c-.26.15-.52,0-.78,0,.98-1.31.76-3.02.51-4.72l-13.13-.69c.11-.36-.08-.62-.31-.71-.33-.12-.4.2-.95.11.58-1.77-3.38.39-4.9-1.48-.35-.43-.58-.92.03-1.67,4.32-.67,8.85-.5,13.21-.18Z"/>
        <path class="cls-24" d="M162.03,167.97l-.19,3.3c-1.47.47-3.6-.3-4.57.86s-.19,3.09-.63,4.3c-.78-.29-2.68-.07-3.16.8-.76,1.41-.44,3.13-.53,4.7l5.08.41c.34,1.94.27,3.58-.02,5.08-1.29,1.76-.94-1.27-4.61.54-.66-1.65-.83-3.35-.57-5.6l-5.1-.36c.2-2.24.23-4.42-.34-6.58-.26-.98,1.04-2.58-.31-3.45-.84-.54-2.6-.53-3.58.14.27-.4.03-.58-.35-.45-.23.08-.37.38-.42.6-1.28-1.01-2.74-.45-4.18-.64-.2-.31-.63-.75-.59-1.22-1.91-2.96,8.3-2.03,9.72-1.83.96.13.25,2.48.86,2.82,1.35.38,4.91.45,5.68-1.03.86-1.64.45-3,1.96-4.03.62.4,1.21.78,1.96,1.78-.92.48-1.11,2.33-.27,2.23,1.79-.22,2.61-2.27,4.16-2.34Z"/>
        <path class="cls-67" d="M173.05,153.4c-.03,1.64.1,3.36-.54,5.09-1.47.24-3.39-.47-4.54.4-1.24,1.24-.41,3.73-.76,5.66-1.14.85-2.51.14-3.96.57-1.06.31-1.16,1.99-1.21,2.84-1.55.07-2.36,2.12-4.16,2.34-.85.1-.65-1.75.27-2.23-.75-.99-1.34-1.38-1.96-1.78.84-.58.99-1.82,3.06-1.48,3.12.5,2.34-4.78,2.83-5.99,1.5-.64,3.54.21,4.68-.67,1.21-1.46.25-3.71.52-5.41,1.89-.36,3.3.14,4.56-.32-.24,1.07,1.44-.06,1.21.98Z"/>
        <path class="cls-122" d="M162.01,195.78c-.66,1.79.1,3.02.39,4.85.77,4.81.22,9.61.25,14.49-.02-3.07-1.27,6.55-1.31,6.57l-1.75.84c-.36.66-.71-.15-1.12-.08-.98-1.23-.18-2.76-.29-4.35-.54-7.47-.69-14.69-.23-21.88,1.29-.63,2.71-.06,4.07-.43Z"/>
        <path class="cls-98" d="M158.47,222.44c.41-.07.76.73,1.12.08-.52,1.57-1.5,2.97-1.6,4.62-4.04,1.1-4.99,1.27-10.72-.22-1.34-.9.09-3.51-.26-4.55,3.76.5,7.72.71,11.45.07Z"/>
        <path class="cls-124" d="M178.03,141.48c-.04.96.16,2.89-.52,3.69-.86,1-2.95.28-3.62,1.37-1.38,2.25.12,5.87-2.04,5.88-1.26.46-2.67-.04-4.56.32-.27,1.7.69,3.95-.52,5.41-1.15.88-3.18.04-4.68.67-.49,1.21.28,6.49-2.83,5.99-2.07-.33-2.23.91-3.06,1.48-1.51,1.04-1.1,2.4-1.96,4.03-.78,1.48-4.33,1.41-5.68,1.03-.6-.33.11-2.69-.86-2.82-1.42-.2-11.64-1.13-9.72,1.83-.72-.39-.34.94-.7,1.1-1.25.56-2.55.12-3.53.17-.6-.98-1.74-.93-3.19-1.3l-1.86-5.11c-.35-.97-3.39.13-4.04-1.06-.82-1.51-.08-3.2-.44-4.6,5.37-.56,11.07-1.08,16.8-.63,1.51.12,2.15-1.07,2.04-2.4-.07-.91-.21-1.56.27-2.2,1-1.32,4.26.15,4.39-1.39-1.97-.27-4.44-1.22-6.14-.59-1.49.12-2.53-.75-3.89-1.39-1.65-.77-4.09-.81-5.33-2.79-.93-1.49-3.35-1.11-4.02-2.7,1.09-.19,6.18-.36,5.36-2.53,2.23.32,4.78-.29,6.8.85,1.09.62,17.8.64,18.64.58l7.66-.62c-.35-2.19-.4-3.39-.41-4.76.41.03.73-.15,1.08-.35-1.51,2.36,8.73-.77,10.07.87.38.35.53,1.5.52,1.97Z"/>
        <path class="cls-88" d="M153.4,187.95c.5,1.27,2.75,4.16,4.05,3.02.3,1.7.6,3.61.49,5.24-.46,7.19-.3,14.41.23,21.88.11,1.59-.69,3.13.29,4.35-3.73.64-7.69.43-11.45-.07-.83-1.41-1.45-2.59-1.2-4.24.48-3.17.45-6.55-.07-9.69-.13-.82-.81-1.95-.39-3.06.18-.47,1.61-.36,1.97-1.12.26-.54,1.17-1.29.3-1.99,1.63-1.49,2.27-4.76.06-5.8-.1-.88-.07-1.79-.31-2.64-.16-.58.19-1.22-.18-1.62-.55-.6-1.49-.45-2.08-.88l1.07-4.63c.14-.59-1.08-.44-.95-1.08.44-.29.69.43,1.42.28l.47-3.82c.16-.04.44-.11.6-.1l5.1.36c-.26,2.26-.09,3.95.57,5.6Z"/>
        <path class="cls-33" d="M104.21,500.62c-.16,1.1.37,2.27-.3,3.66-.43-1.08-.77-2.94.3-3.66Z"/>
        <path class="cls-133" d="M118.58,196.99l.18,36.15c0,.44-.04.87.03,1.32-1.45.95-3.68.88-5.35.45.15-.88-1.52-2.31.38-2.58l-.08-31.62c-.78-.3-1.55-.5-2.2-.35-.2-1.38,2.9-1.69,1.51-3.04,1.71-.68,2.97-.4,4.6-1.28.59.22.33,1.04.95.96Z"/>
        <path class="cls-166" d="M87.96,209.57c-.8.24-2.09.55-2.82,1.03-1.2.79-.85,2.47-.81,4.39-4.46.54-9.24,1.12-13.6.33-1.41-.26-2.28-2.57-.85-3.41,1.23-.72.33-3.49,2.39-3.95.89-.2,1.84-.1,2.41-.59.04.95.87,2.06,1.34,3.06.43.91,1.56.46,2.44.34,1.8-.26,1.44-5.17,2.06-4.99,1.15-.08,3.84-.98,4.59.31.62,1.07-.35,2.98,1.65,2.92.41-.01,1.39-.19,1.19.57Z"/>
        <path class="cls-100" d="M80.52,205.77c-.62-.18-.25,4.73-2.06,4.99-.88.13-2.02.57-2.44-.34-.47-1-1.3-2.11-1.34-3.06l1.14-2.49c.37-.11,1.28.04,1.35-.3l.28-1.37c.15-.72.6-1.82,1.31-2.71,1.51,2.09-1.15,4.66,1.77,5.28Z"/>
        <path class="cls-210" d="M106.04,131.21c5.46,1.93.04,1.09,5.49,3.61.76.35,1.04,1.95,2.21,1.2-.08.65-.17,1.53.25,2.05,1,1.25,4.3-.27,4.91,1.34.27.71.8,1.16,1.45,1.41.4.15.83-.79,1.3-.23.5,1.24,1.88.68,2.24,1.39.33.66-.23,2.23.3,2.37l4.13,1.12c.67,1.59,3.09,1.21,4.02,2.7,1.24,1.99,3.67,2.02,5.33,2.79,1.36.64,2.39,1.52,3.89,1.39-5.66,2.09-18.36.02-22.83.62-1.47.2-3-.65-5.23-.17-.2,1.63-.43,3.74.27,5.38.44,1.03,2.36.2,3.16.26-.43,1.1-1.68,1.3-3.19,1.11-.57,1.38-.24,3.08-.45,4.21-1.17-.53-3.13-.19-4.14-1.3-.7-.76.1-3.16-1.22-3.3-1.2-.13-1.94,0-2.87-.55-2.05-1.21-.68-5.07-2.62-5.02-1.49.04-2.63-.18-3.43-1.3-.26,3.25-3.43,2.11-6.05,2.92.13-.04-2.79,4.93-2.77,8.62l.16,31.13c0,.55,1.12.85.68,1.29-1.72-.04-3.55,1.06-5.7.08l-.61-24c-1.84-.33-3.48-.09-4.98.56.04-.63-.27-1.11-.27-1.73-.02-1.56.96-4.53-.51-5.69-1.19-.94-3.25.12-4.21-.45.12-.49-.13-.7-.14-1.15l.46-4.71c.87-1.16,3.23-.24,4.48-.28,1.69-.05,3.42.33,5.27.11.43-2.26.29-4.13.13-5.98,1.26-.06,3.42.42,4.59-.43,1.33-1.34.2-4.02,1.5-5.55.6-.71,1.98-.52,2.02-1.62.05-1.38-.29-5.34,1.52-4.65.69,1.07,2.07,1.36,3.49,1.41.31.92.15,1.71.62,2.44l5,.53c1.59.36-.42,7.46,1.71,7.12.39-.06,1.09-1.24,1.53-1.02,1.47.74,2.58,2.35,3.94,1.56.68-.39,2.19.13,2.33-1.2.22-2.1.09-4.15.11-6.6-1.84-.46-3.42-.18-4.95-.02.23-1.92-.13-3.99-.25-6.17-1.99.18-3.24-.16-4.54-.32.09-1.69-.67-6.1.76-6.75.44-.2,1.18-.7,1.7-.52Z"/>
        <path class="cls-190" d="M94.58,140.75c-1.81-.68-1.47,3.27-1.52,4.65-.04,1.1-1.42.91-2.02,1.62-1.31,1.53-.17,4.21-1.5,5.55-1.16.85-3.33.37-4.59.43-.2-2.22.37-4.47-.03-6.68.7-1.76,2.86-1.07,5.18-.97.54-2.31.09-4.62.2-6.75.18-.02.4-.17.58-.23,1-.37,2.82-1.17,3.85.03.46.53-.66,1.97-.15,2.36Z"/>
        <g>
          <path class="cls-114" d="M78.93,125.32c.48,1.68-.66,6.57,2.85,7.55,1.03.29,2.24-.13,2.41,1.42.13,1.13-.2,3.14.99,3.9,1.43.92,3.62.56,5.11.4-.11,2.13.34,4.45-.2,6.75-2.32-.1-4.48-.79-5.18.97-1.32.46-3.43.54-4.69,1.37-1.82,1.2.08,3.92-.16,5.26-.33,1.95-.47,3.91-.52,5.92-1.25.04-3.61-.88-4.48.28l-.46,4.71c-.6.06-.85-.54-1.33-.73-.14-1.11-1.02-1.46-2.25-1.34-2.52.24-4.07,1.33-4.85,3.75l-42.27.05c.17-2.03-.82-4.35.1-6.52l4.41-.55c.1-1.87-.54-3.92.7-5.14.85-.84,2.53-.08,3.44-.74.98-1.89-.55-4.66,1.2-6.12,1.04-.54,2.86-.48,3.48-1.16,1.6-1.75-.18-5.08,1.45-5.52.58-.15,1.16-.88,2.15-.28-.28-.84-.62-1.28-.63-1.88-.02-.98.53-.95,1.28-1.34-1.05-.51-1.22-.77-.73-1.45,3.02.18,6.14.32,9.31-.4.13-1.45-.02-2.41.26-3.47l4.8-.47c.19-1.93.28-3.7.31-5.41l23.5.18Z"/>
          <path class="cls-71" d="M61.18,151.99l-10.7.2c.15-1.9-.35-3.87.54-5.43.62-1.08,2.59-.35,3.66-.7,1.93-.48,4.58-.87,6.24.19.99,1.22.25,3.79.26,5.76Z"/>
        </g>
        <path class="cls-35" d="M84.95,153c.17,1.85.3,3.73-.13,5.98-1.86.21-3.58-.16-5.27-.11.04-2.01.18-3.97.52-5.92,1.6.42,3.26.13,4.88.05Z"/>
        <path class="cls-111" d="M84.92,146.32c.4,2.21-.17,4.46.03,6.68-1.62.08-3.29.37-4.88-.05.23-1.35-1.67-4.07.16-5.26,1.26-.83,3.37-.91,4.69-1.37Z"/>
        <path class="cls-15" d="M113.29,163.77c-.12.64.32,2.27.93,2.54,2.65.71,4.4,2.7,4.9,5.49,2.2-.14,3.92.08,5.5-.7,1.08.24,2.6.21,3.96.23.71,1.74.5,3.3.45,4.99,1.27.38,2.26.13,3.58.22.41,1.89.74,3.62.57,5.32-2.6,0-5.28.57-8.31.79.16,2.67.58,4.81-.87,6.54l-19.31.43c-.53,1.86-.09,3.73-.41,5.57-2.43.7-4.59.23-7.01.29-2.07.05-4.15.8-6.24.75.43-.44-.68-.74-.68-1.29l-.16-31.13c-.02-3.68,2.9-8.66,2.77-8.62,2.62-.8,5.79.33,6.05-2.92.79,1.12,1.94,1.34,3.43,1.3,1.94-.05.57,3.81,2.62,5.02.93.55,1.67.42,2.87.55,1.32.15.53,2.54,1.22,3.3,1.01,1.11,2.97.78,4.14,1.3Z"/>
        <path class="cls-134" d="M133.18,181.87l-.48,5.03c-.1,1.16-2.5.4-2.79,1.27l-2.48,7.45c-.35.68-2.91-.23-3.16.88-1.81,8.02-1.07,16.2-.22,24.09.8.5,1.58,1.76,1.34,2.31-.84.8.26,1.23.55,1.89-5.95,1.72-1,6.42-4.37,8.73l-2.79-.38-.18-36.15c-.14-2.36,3.22-.87,5.1-1.64l.32-6.14c1.44-1.73,1.02-3.87.87-6.54,3.03-.22,5.7-.79,8.31-.79Z"/>
        <path class="cls-27" d="M72.29,194.05c4.42.05,2.31,1.66,5.34.91.97-.24.98-.83,1.75-1.54.06,1.82.72,5.01-.42,6.74-2.57.4-5.16.66-7.53-.06-.98-.3-1.12-3.46-.34-4.13s1.4-1.04,1.19-1.92Z"/>
        <path class="cls-125" d="M79.47,171.15c-1.43,1.01-3.2.38-4.86.42,0-2.18-.39-4.42.15-6.56.96.56,3.01-.49,4.21.45,1.47,1.16.49,4.13.51,5.69Z"/>
        <g>
          <path class="cls-82" d="M79.74,172.88c-.38,6.85-.58,13.69-.35,20.54-.77.71-.79,1.31-1.75,1.54-3.03.74-.92-.86-5.34-.91-.38-1.62.25-3.3-.36-5.13-1.18.07-1.87.29-2.13-.38-.66-.99.06-2.89-1.01-3.76-.68-.55-2.06-.14-2.6-.81-.64-.8.52-1.77.29-2.37-.33-.88-1.35-1.25-.89-2.13.17-.33-.06-.95.42-1.16-.97-3.24,6.39,1.17,6.89-3.07.19-1.6-1.25-2.29-1.31-3.29.98.05,2.01-.34,3.01-.37,1.66-.04,3.43.59,4.86-.42,0,.62.31,1.1.27,1.73Z"/>
          <path class="cls-171" d="M74.23,182.49c-.44.88-1.72.89-2.21.63-.44-.23-1.36-.82-.91-1.59.49-.84,1.54-.74,2.14-.82.55-.08,1.46.81.98,1.78Z"/>
        </g>
        <path class="cls-17" d="M105.53,122.72c2.91.69,5.4,2.72,8.38,3.03.06.5.5.88.7,1.47l3.99-.71.43,5.52,5.68.37,1.13,6.19c-2-.02-4.24.19-6.53-.23-.26-1.09.62-3.12-.38-3.82-1.22-.85-3.3-.17-4.88-.18-.16.71-.26,1.18-.3,1.67-1.17.75-1.45-.85-2.21-1.2-5.45-2.53-.04-1.68-5.49-3.61-.4-1.18.75-2.34.76-3.28-1.56-1.72-3.47-3.45-5.61-4.27,1.24-1.27,3.09-1.23,4.34-.94Z"/>
        <path class="cls-178" d="M157.36,132.36c-6.06,2.82-2.5-.12-4.95,5.61-3.66.5-7.75.92-11.54.86-1.13-.02-2.36-1.08-3.46-.54-1.29-2.82-4.16-4.09-6.51-5.97,8.87-.6,17.9-1.05,26.47.05Z"/>
        <path class="cls-101" d="M125.84,138.58c2.25.03,4.55.24,6.79.42.22,1.06-.41,4.31,1.06,3.94.83,2.18-4.26,2.35-5.36,2.53l-4.13-1.12c-.53-.14.03-1.71-.3-2.37-.36-.71-1.75-.15-2.24-1.39-.47-.56-.89.38-1.3.23-.65-.25-1.18-.71-1.45-1.41-.62-1.61-3.91-.09-4.91-1.34-.42-.52-.33-1.4-.25-2.05.05-.49.15-.96.3-1.67,1.58.01,3.65-.67,4.88.18,1.01.7.13,2.73.38,3.82,2.29.42,4.53.21,6.53.23Z"/>
        <path class="cls-49" d="M137.4,138.28c1.11-.54,2.34.53,3.46.54-.03,1.71.33,3.34-.39,4.97-2.01-1.14-4.57-.54-6.8-.85-1.46.36-.83-2.88-1.06-3.94,1.65.14,3.3,0,4.78-.72Z"/>
        <path class="cls-48" d="M167.45,138.65c-.35.2-.68.38-1.08.35-4.72-.38-9.53.14-13.96-1.03,2.45-5.73-1.12-2.78,4.95-5.61,3-1.4,6.55-.66,10.14-1.26l.73-4.63,5.47-.66c.69-.35.33-1.82.59-2.36,1.01-.29,2.25-.18,3.57-.72.32-.82-.14-1.45.16-2,1.32-.58,4.19-4.6,4.73-5.89,3.47-.86-.11-1.1,4.02-3.03,1.24,2.22,3.11,1.29,1.78,6.17-.14.52-1.36.33-1.77.96-.97,1.5-.46,6.31-1.87,7.56-.36.32-1.78.19-1.93.66-.63,1.99-1.83,4.26-4.54,3.37.08,3.04-3.06,1.15-4.27,2.11-1.65,1.31-2.06,4.03-5.59,3.46-.72-.12-.97,2.14-1.14,2.54Z"/>
        <path class="cls-21" d="M103.59,138.48c1.3.16,2.54.5,4.54.32.12,2.18.47,4.25.25,6.17-.27,2.32-.43,5.26.92,7.19.64-.18,1.42-.62,1.56-.18.07.23.13.49.03.81-1.37.79-2.47-.82-3.94-1.56-.44-.22-1.13.95-1.53,1.02-2.13.34-.12-6.77-1.71-7.12l-5-.53c-.46-.73-.31-1.52-.62-2.44-1.42-.05-2.8-.34-3.49-1.41-.5-.39.61-1.83.15-2.36-1.03-1.2-2.85-.39-3.85-.03-.33-1.96-.59-3.95-.15-6.25-2.07-.39-3.61.05-5.55-.62l-.13-6.31c1.4.11,4.04-.77,5.27.62,1.07,1.21,1.58,3.32,2.03,5.4l5.99.33.66,3.51c1.52-.38,1.96-.04.81.72.1.83-.89.89-.8,1.13,1.02,2.63,4.32,1.53,4.56,1.56Z"/>
        <path class="cls-195" d="M166.32,276.14l-10.72-.17c.08-.64.1-1.55-.5-1.92-.54-.33-1.19.08-2.14-.01-.81-.08-.36-1.63-.44-2.42-.04-.45.46-.97,1.19-.9l13.13.69c.25,1.7.47,3.41-.51,4.72Z"/>
        <path class="cls-18" d="M152.45,270.13c.55.1.62-.23.95-.11.23.09.42.35.31.71-.74-.07-1.24.45-1.19.9.08.79-.37,2.34.44,2.42.95.09,1.61-.31,2.14.01.6.37.58,1.28.5,1.92l-3.02.2c-1.82.12-3.67.18-5.49-.13.03-1.93.66-3.95.27-5.95,1.69.11,3.39-.26,5.07.04Z"/>
        <path class="cls-94" d="M132.69,239.6l14.79.5c.71,2.17.13,4.96,1.92,6.26,1.22.88,1.1,2.55,2.29,3.3,1.06.67,2.69-.22,3.7.52,1.37,1,.7,3.37,1.72,4.5.89.98,3.64.12,3.93,2.06.22,1.47-.08,3.7,1.22,4.67.96.72,3.1-.18,3.9,1,.65.96.34,2.29.18,3.36l-5.22.15c-.35.14-.67.68-.33.89-4.36-.32-8.9-.49-13.21.18-.65.1-1.53-.31-2.25-.3.37-1.1.49-4.26-.77-4.77-6.21-.93-12.22.25-18.65-.22-1.31-.1-4.33-.52-5.45.91-.54.69,1.01,2.93-.61,3.2l.21-15.7v-4.39s8.78-.42,8.78-.42l.51-5.06c1.24-.11,2.33-.68,3.35-.65Z"/>
        <path class="cls-52" d="M145.32,266.69l-15.72.28c-3.19.06-6.51-.65-9.71-.08,0-.22-.4-1.03-.05-1.09,1.62-.27.07-2.51.61-3.2,1.12-1.42,4.14-1,5.45-.91,6.43.47,12.43-.71,18.65.22,1.26.51,1.14,3.68.77,4.77Z"/>
        <path class="cls-159" d="M119.59,273.6c.68-.94-.23-1.97-.17-3.01.83,1.09,2.14.64,3.39.99.69.19.15,2.04-.7,2.34-.77.28-1.58-.3-2.51-.32Z"/>
        <path class="cls-46" d="M145.32,266.69c.72-.01,1.6.4,2.25.3-.61.75-.38,1.24-.03,1.67,1.52,1.87,5.48-.29,4.9,1.48-1.68-.3-3.38.07-5.07-.04,1.38-2.08-8.23-.75-8.67-.05-.47.74.19,2.21-.18,3-1.26-.08.07-2.47-.6-2.76l-8.17-.32c-.42-1.24-.09-2.14-.15-3l15.72-.28Z"/>
        <path class="cls-213" d="M139.32,217.64c-.23,3.1-.39,6.3-1.05,9.6-3.69,1-7.03.78-10.67.6-.65-1.12-.64-2.35-1.67-3.05-.28-.65-1.38-1.08-.55-1.89l10.39-.7c.36-1.54,1.34-2.89,1.13-4.93.54-.6,1.56-.57,2.21-1.03-.01.48.23.98.2,1.4Z"/>
        <path class="cls-116" d="M142.31,208.4c1.15.54,2.21.18,3.44.04.51,3.14.55,6.52.07,9.69-1.27-.43-2.65-.66-3.16-2.53.95-.81.89-1.28-.4-1.11-.08,1.13-.1,1.85-.57,2.2-.77.57-1.68,1.25-2.38.95.03-.42-.21-.92-.2-1.4l.18-7.67c1.05-.06,2.2-.54,3.01-.16Z"/>
        <path class="cls-167" d="M143.5,172.09c-.47,1.06.77,2.47,1.45,2.83.73.39,1.53,1.03,2.44.48.56,2.16.54,4.34.34,6.58-.16-.01-.44.06-.6.1,1.86-.45-9.75-.47-9.03-.77.02-2.3-.27-4.97-.01-7.31.04-.36.39-.68.09-1.02,1.51.11,2.32,1.58,3.9,2.08.27-1.08.22-2.03.66-2.81.05-.23.19-.52.42-.6.38-.13.63.05.35.45Z"/>
        <path class="cls-43" d="M138.55,171.6c-.07.42-.78.94-.38,1.38.3.34-.05.66-.09,1.02-.44-.27-.61.16-.69.39-.09.26.28,1.15-.14,1.59-.74.79-2.86.45-3.31-.66-.57-1.42-.28-2.68-.23-3.68.98-.05,2.29.39,3.53-.17.36-.16-.02-1.49.7-1.1-.04.46.38.9.59,1.22Z"/>
        <path class="cls-113" d="M147.39,175.4c-.9.55-1.71-.1-2.44-.48-.68-.36-1.92-1.77-1.45-2.83.98-.67,2.74-.68,3.58-.14,1.35.87.05,2.47.31,3.45Z"/>
        <path class="cls-19" d="M142.73,172.24c-.45.78-.39,1.74-.66,2.81-1.58-.5-2.38-1.96-3.9-2.08-.4-.45.31-.96.38-1.38,1.44.19,2.9-.36,4.18.64Z"/>
        <path class="cls-115" d="M118.73,152.98c-.03,1.76-.18,3.61.21,5.59,2.34-.21,4.34-.31,5.25,1,.36,1.39-.38,3.09.44,4.6.65,1.2,3.69.1,4.04,1.06l1.86,5.11c1.45.37,2.59.32,3.19,1.3-.05,1-.34,2.25.23,3.68.44,1.11,2.57,1.45,3.31.66.42-.44.05-1.33.14-1.59.07-.23.24-.66.69-.39-.25,2.34.04,5.01.01,7.31-.05.12-.29.43-.12.56-1.6.13-3.2,0-4.8,0,.16-1.71-.17-3.43-.57-5.32-1.32-.09-2.31.16-3.58-.22.06-1.7.26-3.25-.45-4.99-1.37-.01-2.89.01-3.96-.23-.89-1.79.07-3.88-.54-6.01-1.57-.08-3.02.2-4.88-.14-.4-1.79.05-4.18-.6-6.05-.14-.39-1.32-.33-1.67-.45-.8-.06-2.72.77-3.16-.26-.7-1.63-.47-3.75-.27-5.38,2.22-.47,3.76.37,5.23.17Z"/>
        <path class="cls-81" d="M124.19,159.57c-.91-1.32-2.91-1.22-5.25-1-.39-1.98-.24-3.83-.21-5.59,4.47-.61,17.18,1.47,22.83-.62,1.71-.63,4.17.33,6.14.59-.13,1.54-3.39.08-4.39,1.39-.48.64-.34,1.29-.27,2.2.11,1.33-.53,2.52-2.04,2.4-5.73-.45-11.44.07-16.8.63Z"/>
        <path class="cls-20" d="M166.36,138.99c.01,1.37.06,2.57.41,4.76l-7.66.62c-.84.07-17.55.04-18.64-.58.72-1.63.36-3.26.39-4.97,3.79.06,7.89-.36,11.54-.86,4.43,1.17,9.23.65,13.96,1.03Z"/>
        <path class="cls-176" d="M137.98,181.88c3.22,2.36-1.46,7.78,1.92,6.45-.71-.43-1.22-2.12-.2-2.35,2.09-.47,3.86-.13,5.53-.36-.13.64,1.09.48.95,1.08l-1.07,4.63c-1.28-.93-6.61.77-6.34.44-3.2,3.85,2.56,5.62,2.36,7.66-.27.48.73,1.94-.72,2.13-.83.11-1.6.21-2.01.72-.4-1.03-1.29-1.15-1.74-1.74-.58-.76-.18-2.61.25-3.67-1.13-1.05-3.22-.54-3.9-1.89-.84,1.22-.12-10.14-.31-8.08l.48-5.03c1.6,0,3.2.13,4.8,0Z"/>
        <path class="cls-202" d="M147.37,193.83c.24.85.22,1.76.31,2.64-1.7-.13-1.14,6.12-.06,5.8.87.7-.04,1.45-.3,1.99-.36.75-1.79.65-1.97,1.12-.42,1.11.26,2.24.39,3.06-1.23.15-2.29.5-3.44-.04.59-.8.78-2.47.3-3.22-.66-1.04-2.24-.25-3.41-.37-.99-.1-.88-1.93-.79-2.53.41-.51,1.18-.62,2.01-.72,1.45-.19.46-1.65.72-2.13.53-.94,1.21-3.17,2.88-3.01,2.49.24,1.48-3.59,3.35-2.59Z"/>
        <path class="cls-59" d="M145.12,191.33c.59.43,1.53.28,2.08.88.37.4.01,1.05.18,1.62-1.87-1-.86,2.83-3.35,2.59-1.67-.16-2.35,2.07-2.88,3.01.2-2.04-5.56-3.81-2.36-7.66-.27.33,5.06-1.37,6.34-.44Z"/>
        <path class="cls-86" d="M147.13,182.08l-.47,3.82c-.73.15-.98-.57-1.42-.28-1.67.22-3.44-.12-5.53.36-1.02.23-.51,1.92.2,2.35-3.38,1.33,1.3-4.09-1.92-6.45-.17-.13.06-.44.12-.56-.73.3,10.89.32,9.03.77Z"/>
        <path class="cls-191" d="M147.63,202.27c-1.09.32-1.65-5.93.06-5.8,2.21,1.05,1.58,4.31-.06,5.8Z"/>
        <path class="cls-154" d="M124.62,171.11c-1.58.78-3.3.56-5.5.7-.5-2.79-2.25-4.78-4.9-5.49-.61-.28-1.04-1.9-.93-2.54.21-1.13-.12-2.83.45-4.21,1.51.19,2.76,0,3.19-1.11.34.12,1.53.07,1.67.45.65,1.87.2,4.26.6,6.05,1.86.34,3.3.06,4.88.14.61,2.13-.35,4.22.54,6.01Z"/>
        <path class="cls-119" d="M110.88,152.78c.1-.32.04-.58-.03-.81-.14-.43-.91,0-1.56.18-1.35-1.93-1.19-4.88-.92-7.19,1.54-.17,3.11-.44,4.95.02-.02,2.45.1,4.5-.11,6.6-.14,1.33-1.65.81-2.33,1.2Z"/>
        <path class="cls-87" d="M138.41,202.28c-.09.6-.2,2.43.79,2.53,1.17.12,2.75-.66,3.41.37.48.75.3,2.42-.3,3.22-.8-.37-1.96.1-3.01.16l-.18,7.67c-.66.46-1.68.43-2.21,1.03.21,2.04-.77,3.39-1.13,4.93l-10.39.7c.25-.55-.53-1.81-1.34-2.31-.85-7.89-1.59-16.07.22-24.09.25-1.11,2.8-.2,3.16-.88l2.48-7.45c.29-.87,2.69-.12,2.79-1.27.2-2.06-.53,9.31.31,8.08.69,1.35,2.77.84,3.9,1.89-.43,1.06-.83,2.91-.25,3.67.45.59,1.34.72,1.74,1.74Z"/>
        <g>
          <path class="cls-7" d="M162.12,285.67l.38,28.52.34,119.91c-.33-.03-.64.44-.66.74l-32.13-.22-.14-109.46c0-7.11-.3-13.87.2-20.66l7.33.06c.64,0,1.35-.18,1.73.23.24.27.45.69.44,1.48l-.16,34.77c2.82.41,5.23.28,8.18.01l.03-36.5,9.75-.1c.46-.84.13-7.49-.07-7.62-.26-.17-.68-.14-1.13-.14l-9.1-.1.15-5.82,4.47-.31c.22-1.55.63-2.9.25-4.18.64-1.29,8.32-.61,10.13-.61Z"/>
          <path class="cls-47" d="M129.61,296.09c.31-.04.5.2.54.5-.36,2.62.16,5.28-.04,7.91-.51,6.79-.21,13.56-.2,20.66l.14,109.46c-.89,1.59-.39,4.16-.54,6.2-1.45,0-3.01.4-4.7-.06l-.46-26.46c.97-2.82.17-5.75.18-9.16l.25-109.08c1.65.21,3.37,1.1,4.83.03Z"/>
          <path class="cls-145" d="M130.05,434.62l32.13.22c-.11,1.86.41,3.69-.11,6.04l-32.57-.06c.15-2.03-.34-4.6.54-6.2Z"/>
          <path class="cls-56" d="M129.62,276.6c.91,2.69.33,5.67.18,8.67-.18,3.68.31,7.31-.2,10.82-1.46,1.07-3.18.18-4.83-.03.01-6.47-.69-13-.1-19.47h4.95Z"/>
          <path class="cls-53" d="M152.59,276.18c.55,1.07.89,2.72,1.25,3.93l7.98.26c.49,1.89.27,3.64.29,5.31-1.81,0-9.49-.68-10.13.61.27-2.4-4.49-.22-5.02-1.76.04-1.01-.38-3.1.15-4.09,1.09-2.03-.04-3.01-.02-4.39,1.81.31,3.67.25,5.49.13Z"/>
          <g>
            <path class="cls-193" d="M132.58,296.68c-.15.89.72,1.35,1.25,2.25-5.05,3.84,18.51,2.26,19.15,1.99.43.8,0,1.9.35,2.65.27.57,1.11-.09,1.88.11.82.21,1.34-.92,1.08-1.83-.37-1.28.65-1.75.82-2.81.14-.86-1.37-1.57-.91-2.34.44,0,.86-.03,1.13.14.2.13.53,6.78.07,7.62l-9.75.1-.03,36.5c-2.95.27-5.37.4-8.18-.01l.16-34.77c0-.79-.2-1.22-.44-1.48-.38-.41-1.09-.23-1.73-.23l-7.33-.06c.2-2.63-.33-5.29.04-7.91.8-.29,1.62.14,2.44.09Z"/>
            <path class="cls-1" d="M151.99,286.28c.38,1.28-.03,2.63-.25,4.18l-4.47.31-.15,5.82,9.1.1c-.46.77,1.05,1.47.91,2.34-.18,1.06-1.19,1.53-.82,2.81.26.91-.26,2.05-1.08,1.83s-1.62.46-1.88-.11c-.35-.75.08-1.85-.35-2.65-.64.26-24.2,1.85-19.15-1.99-.53-.91-1.4-1.36-1.25-2.25l6.97-.4c.23-1.82.49-3.65-.25-5.21-2.91.8-1.36-6.34-.19-5.94,2.36,1.03,5.9,1.13,7.86-.61.53,1.54,5.29-.64,5.02,1.76Z"/>
            <path class="cls-131" d="M147.38,270.1c.39,2-.24,4.02-.27,5.95-.98.6-.59,2.36-1.81,3.27-.78.58-4.21,1.38-6-1.43.3-.59.11-2.14-.71-2.41-.25-.51-.32-1.87-.06-2.41.38-.79-.29-2.26.18-3,.45-.7,10.05-2.03,8.67.05Z"/>
            <path class="cls-103" d="M146.97,284.52c-1.96,1.74-5.5,1.63-7.86.61-.38.07-.45-7.52.18-7.25,1.79,2.81,5.22,2.01,6,1.43,1.23-.91.83-2.67,1.81-3.27-.02,1.39,1.11,2.37.02,4.39-.53.98-.11,3.07-.15,4.09Z"/>
          </g>
          <g>
            <path class="cls-130" d="M139.29,277.88c-.63-.27-.56,7.32-.18,7.25-1.17-.41-2.72,6.74.19,5.94.74,1.56.48,3.39.25,5.21l-6.97.4c-.82.05-1.63-.38-2.44-.09-.03-.3-.23-.54-.54-.5.51-3.51.02-7.14.2-10.82.15-3,.73-5.98-.18-8.67-4.03,0,13.82-.76,8.96-1.14.82.28,1.01,1.82.71,2.41Z"/>
            <path class="cls-57" d="M135.74,292.49c.36-.4.94-.09,1.06.16.09.21,0,.54,0,1.18,0,.31-.31.43-.63.05-.34-.41-.97-.8-.44-1.39Z"/>
          </g>
        </g>
        <g>
          <path class="cls-2" d="M168.3,77.32c3.31,0,6.75-.36,10.13.04.86,1.88-.24,3.77-.01,5.41-.61-.23-1.84-.46-2.17.04-.5.76-.77,1.82-.77,2.51-.46-.09-.66-.4-1.08-.55-.1-.57-.05-2.39-.92-2.58-7.17-1.57-11.84,3.73-10.64,3.1-3.11,1.64-6.56.43-9.74,1.09-1.03.21-1.03,3.39-.09,3.87,1.33.68,3.19-.33,4.23.73.8.82.51,2.62.58,3.56-5.06,1.09-11.14-.64-15.78.28-.33.54-1.3.94-1.6,1.3-4.52-1.4-3.48-.3-7.34-.99.26-1.18-.43-3.08.45-4.12s3.11.15,4.04-.75c.85-.81.43-2.48.31-3.71-3.56-.77-7.14.04-10.62-1.02,1.14.35-1.7-4.11-8.9-2.87l.38,9.12c.01.29.58.22.69.19.61-.16.32.6.58,1.19,1.26.67,2.57-.07,3.56.63.09,1.15.3,2.47.09,3.62-.76.02-.79.54-.79.99,0,.61.74,1.32.49,1.47-1.5.82-3.28-.13-4.11.98-.74-1.74-2.05-.11-4.63-1.66l-.07-9.02c-.04-4.4.36-8.51.27-12.98l53.47.15Z"/>
          <path class="cls-104" d="M180.8,99.7c4.72,2.95.36,7.82,1.95,15.13-.55,1.29-3.41,5.31-4.73,5.89-.41-4.13-.68-5.08-.15-10.12-3.58-1.19-.51-3.73-1.73-6.43.95-1.02.75-2.87.7-4.24l1.2-.16c.96-.13,1.73-.71,2.76-.07Z"/>
          <path class="cls-32" d="M178.42,82.76l1.39,9.81c.36,2.51,1.3,4.81.98,7.13-1.03-.65-1.8-.06-2.76.07l-1.2.16-.31-8.6c-.06-1.67.95-5.6-1.04-6.01,0-.68.27-1.75.77-2.51.34-.51,1.57-.28,2.17-.04Z"/>
          <path class="cls-77" d="M140.44,96.11c-.48.59-.85,1.24-1.01,1.88-.19.74.77,1.38,1.38,1.39,1.44.02,1.56-.79,2.17-2.07.48-1.01,3.47-.87,4.29-.11,1.2,1.1,1.18,9.92.34,10.93-2.61.21-5.24-.3-7.92.26-1.43.29-.82,2.26-.61,3.24-1.59,0-3.75.45-5.33.74.42,4.48-2.66,1.12-4.16,4.43l-5.9-.08c-.9-1.36-.43-2.76-.93-4.27-.27-.81-1.87-.56-3.4-.46l-.1-11.16c.83-1.1,2.61-.15,4.11-.98.26-.14-.48-.86-.49-1.47,0-.45.03-.97.79-.99.13.71.02,1.43.04,2.36,2.97.32,5.8.22,8.9-.05.55-1.63.17-3.13.49-4.58,3.85.68,2.82-.41,7.34.99Z"/>
          <path class="cls-158" d="M157.82,94.52c.13,1.63-.23,3.26.2,5.29l8.98-.08c-.02.85.51,2.42.83,3.56.5,1.76,3.37,1.19,4.22.43.46.36.64.51.52.79-.17,3.1.77,8.39-1.31,9.81-1.05-.12-2.25-.08-3.08.64-1.07-3.01-.61-6.25-.49-10.03-4.99-.4-10.03-.44-15.13.51.13,2.32.6,4.48-.7,6.24l-12.79-.08c-.21-.98-.82-2.94.61-3.24,2.68-.55,5.31-.05,7.92-.26.84-1.01.87-9.83-.34-10.93-.82-.76-3.81-.9-4.29.11-.61,1.28-.72,2.09-2.17,2.07-.62-.01-1.57-.66-1.38-1.39.16-.63.53-1.29,1.01-1.88.3-.37,1.27-.76,1.6-1.3,4.64-.92,10.72.81,15.78-.28Z"/>
          <path class="cls-96" d="M168.18,114.97l-.51,1.63c-2.06-.65-4.29.78-6.21-.39-.06-1.03-1.27-.98-2.35-1-1.53-.03-1.8-1.42-1.67-3.03l-5.6-.48c1.3-1.77.83-3.92.7-6.24,5.1-.96,10.14-.92,15.13-.51-.11,3.78-.58,7.02.49,10.03Z"/>
          <path class="cls-120" d="M176.13,104.17c1.22,2.7-1.84,5.25,1.73,6.43-.53,5.04-.26,5.99.15,10.12-.29.55.16,1.18-.16,2-1.32.55-2.56.43-3.57.72-4.78,1.38-.88-7.07-3.03-9.11,2.08-1.42,1.13-6.71,1.31-9.81l3.57-.35Z"/>
          <g>
            <path class="cls-123" d="M119.26,100.82l.1,11.16c1.54-.1,3.13-.35,3.4.46.5,1.51.03,2.92.93,4.27l5.9.08c1.51-3.3,4.58.05,4.16-4.43,1.57-.3,3.73-.75,5.33-.74l12.79.08,5.6.48c-.14,1.61.13,3,1.67,3.03,1.08.02,2.29-.02,2.35,1-.77,1.48.21,2.72,1.08,4.42.69,1.35,3.72,1.35,4.74.11.67-1.19.02-2.99.38-4.14l.51-1.63c.82-.73,2.03-.77,3.08-.64,2.14,2.04-1.75,10.49,3.03,9.11-.27.54.09,2.01-.59,2.36l-5.47.66-.73,4.63c-3.59.61-7.14-.14-10.14,1.26-8.56-1.1-17.6-.65-26.47-.05-1.7-.3-3.84-.73-5.87-.51l-.12-5.53-5.45-.61-.53-13.26c-1.38.05-3.76.4-4.19-.61-.55-4.32-.06-8.53-.1-12.63,2.57,1.54,3.89-.09,4.63,1.66Z"/>
            <path class="cls-72" d="M158.46,122.72c-2.11,1.28-5.15.94-7.72.55-8.79-1.33-10.52,1.05-18-.09-.95-.38-.53-3.97.49-4.1l24.26-.18c.95.9.79,2.86.97,3.81Z"/>
            <path class="cls-90" d="M158.46,122.72c.29,1.54.85,2.85.5,4.76-2.44-.06-5.17.57-7.49-.34-.84-.82-.55-2.83-.72-3.86,2.56.39,5.61.73,7.72-.55Z"/>
            <path class="cls-45" d="M167.67,116.6c-.36,1.15.29,2.94-.38,4.14-1.03,1.24-4.06,1.24-4.74-.11-.86-1.7-1.85-2.94-1.08-4.42,1.91,1.17,4.15-.26,6.21.39Z"/>
          </g>
          <path class="cls-150" d="M174.39,84.77c.04,1.79-2.5.49-4.18,2.28-1.25,1.34.27,2.46-.87,3.52-.38.35-1.16-.07-1.78.11-.92.27-.53,1.29-.48,1.8.23,2.42-.04,4.84-.09,7.26l-8.98.08c-.43-2.03-.07-3.66-.2-5.29-.08-.94.22-2.74-.58-3.56-1.04-1.06-2.9-.04-4.23-.73-.94-.48-.95-3.66.09-3.87,3.19-.65,6.63.55,9.74-1.09-1.2.63,3.47-4.66,10.64-3.1.87.19.82,2.02.92,2.58Z"/>
          <path class="cls-39" d="M133.1,95.12c-.32,1.46.05,2.96-.49,4.58-3.1.27-5.92.37-8.9.05-.02-.93.1-1.66-.04-2.36.21-1.15,0-2.47-.09-3.62.83-.19,2.05-.33,2.93-.92-.45-1.61-.31-2.73-.95-4.01l-6.44.71c-.14,1.11.6,1.71.32,2.4-.11.03-.68.11-.69-.19l-.38-9.12c7.2-1.24,10.04,3.22,8.9,2.87,3.48,1.06,7.06.26,10.62,1.02.12,1.23.54,2.9-.31,3.71-.93.89-3.13-.33-4.04.75s-.19,2.95-.45,4.12Z"/>
          <path class="cls-31" d="M175.48,85.32c2,.41.98,4.35,1.04,6.01-.68.02-2.49.08-3.07.64-.21-.98-1.2-1.14-1.95-1.17-1.2-.04-1.73.78-1.46,1.82-.86-.13-2.01.88-2.96-.15-.05-.51-.43-1.53.48-1.8.62-.18,1.4.24,1.78-.11,1.15-1.06-.38-2.18.87-3.52,1.67-1.79,4.22-.49,4.18-2.28.43.15.63.46,1.08.55Z"/>
          <path class="cls-207" d="M176.52,91.33l.31,8.6c.05,1.37.25,3.22-.7,4.24l-3.57.35c.13-.27-.06-.43-.52-.79-.85.75-3.72,1.32-4.22-.43-.32-1.13-.85-2.7-.83-3.56.04-2.42.32-4.84.09-7.26.96,1.03,2.1.02,2.96.15,1.37.21,2.27.45,3.41-.66.58-.56,2.39-.62,3.07-.64Z"/>
          <path class="cls-164" d="M173.45,91.97c-1.14,1.1-2.04.86-3.41.66-.27-1.04.25-1.87,1.46-1.82.75.03,1.75.18,1.95,1.17Z"/>
          <g>
            <path class="cls-62" d="M123.58,93.77c-.99-.7-2.3.04-3.56-.63-.26-.58.03-1.35-.58-1.19.28-.69-.46-1.3-.32-2.4l6.44-.71c.64,1.28.5,2.4.95,4.01-.88.59-2.11.73-2.93.92Z"/>
            <path class="cls-54" d="M121.94,91.03c.32-.35.73-.12,1-.01.45.18.83.68.38,1.1-.37.35-.93.33-1.33.19-.43-.14-.47-.82-.05-1.28Z"/>
          </g>
        </g>
      </g>
    </g>
  </g>
</svg>