<?xml version="1.0" encoding="UTF-8"?>
<svg id="_レイヤー_2" data-name="レイヤー 2" xmlns="http://www.w3.org/2000/svg" xmlns:xlink="http://www.w3.org/1999/xlink" viewBox="0 0 285.77 449.79">
  <defs>
    <style>
      .cls-1 {
        fill: #4b3e5c;
      }

      .cls-2 {
        fill: #a19cb3;
      }

      .cls-3 {
        fill: #fefeff;
      }

      .cls-4 {
        fill: #63485f;
      }

      .cls-5 {
        fill: url(#_名称未設定グラデーション_39);
      }

      .cls-6 {
        fill: #8b676b;
      }

      .cls-7 {
        fill: #b6b4c6;
      }

      .cls-8 {
        fill: #cccdd9;
      }

      .cls-9 {
        fill: #825e68;
      }

      .cls-10 {
        fill: #6f6585;
      }

      .cls-11 {
        fill: #c3c2cf;
      }

      .cls-12 {
        fill: #f5d493;
      }

      .cls-13 {
        fill: #fdfeff;
      }

      .cls-14 {
        fill: #986d59;
      }

      .cls-15 {
        fill: #f4e2a7;
      }

      .cls-16 {
        fill: #e2bb82;
      }

      .cls-17 {
        fill: #9385a5;
      }

      .cls-18 {
        fill: #926857;
      }

      .cls-19 {
        fill: #e4e7ed;
      }

      .cls-20 {
        fill: #ab9fb1;
      }

      .cls-21 {
        fill: #e4bc80;
      }

      .cls-22 {
        fill: #724d5c;
      }

      .cls-23 {
        fill: #bcbccc;
      }

      .cls-24 {
        fill: #e6e8ed;
      }

      .cls-25 {
        fill: #f7f5f5;
      }

      .cls-26 {
        fill: #e8eaef;
      }

      .cls-27 {
        fill: #dcdde4;
      }

      .cls-28 {
        fill: #d5aa7a;
      }

      .cls-29 {
        fill: #9792ab;
      }

      .cls-30 {
        fill: #fcfbec;
      }

      .cls-31 {
        fill: #d8dae3;
      }

      .cls-32 {
        fill: #f4e0a1;
      }

      .cls-33 {
        fill: #6e5a70;
      }

      .cls-34 {
        fill: #99705f;
      }

      .cls-35 {
        fill: #8d696e;
      }

      .cls-36 {
        fill: #fff;
      }

      .cls-37 {
        fill: #cea177;
      }

      .cls-38 {
        fill: #f9f3d2;
      }

      .cls-39 {
        fill: #c6c6d4;
      }

      .cls-40 {
        fill: #9e6d56;
      }

      .cls-41 {
        fill: #4b3d5b;
      }

      .cls-42 {
        fill: #f9f4d8;
      }

      .cls-43 {
        fill: #b48d77;
      }

      .cls-44 {
        fill: #b7b9cb;
      }

      .cls-45 {
        fill: #f4e3a4;
      }

      .cls-46 {
        fill: #f3e6df;
      }

      .cls-47 {
        fill: #a29bb3;
      }

      .cls-48 {
        fill: #56405e;
      }

      .cls-49 {
        fill: #a17661;
      }

      .cls-50 {
        fill: #fbf5d9;
      }

      .cls-51 {
        fill: #7a708d;
      }

      .cls-52 {
        fill: #e5e6ea;
      }

      .cls-53 {
        fill: #faf4d7;
      }

      .cls-54 {
        fill: #b1aec2;
      }

      .cls-55 {
        fill: #cca170;
      }

      .cls-56 {
        fill: #d7dae3;
      }

      .cls-57 {
        fill: #fdfdf7;
      }

      .cls-58 {
        fill: #8b6672;
      }

      .cls-59 {
        fill: #b7b6c8;
      }

      .cls-60 {
        fill: #a27b72;
      }

      .cls-61 {
        fill: #c8c8d4;
      }

      .cls-62 {
        fill: #fbfdfe;
      }

      .cls-63 {
        fill: #9e745d;
      }

      .cls-64 {
        fill: #eecb8b;
      }

      .cls-65 {
        fill: #704f61;
      }

      .cls-66 {
        fill: #cea271;
      }

      .cls-67 {
        fill: #907c8b;
      }

      .cls-68 {
        fill: #ebedf2;
      }

      .cls-69 {
        fill: #7b6c8b;
      }

      .cls-70 {
        fill: #a9a7bc;
      }

      .cls-71 {
        fill: #836069;
      }

      .cls-72 {
        fill: #b5896f;
      }

      .cls-73 {
        fill: #cda271;
      }

      .cls-74 {
        fill: #87829c;
      }

      .cls-75 {
        fill: #61455b;
      }

      .cls-76 {
        fill: #956d68;
      }

      .cls-77 {
        fill: #afadc1;
      }

      .cls-78 {
        fill: #cecfdb;
      }

      .cls-79 {
        fill: #ebcec0;
      }

      .cls-80 {
        fill: #9a8faa;
      }

      .cls-81 {
        fill: #695f7d;
      }

      .cls-82 {
        fill: #edcd8d;
      }

      .cls-83 {
        fill: #dbc3bd;
      }

      .cls-84 {
        fill: #eceef2;
      }

      .cls-85 {
        fill: #b7abb9;
      }

      .cls-86 {
        fill: #eef0f4;
      }

      .cls-87 {
        fill: #d6d8e2;
      }

      .cls-88 {
        fill: #9a7268;
      }

      .cls-89 {
        fill: #f2d48f;
      }

      .cls-90 {
        fill: #5a425d;
      }

      .cls-91 {
        fill: #cfd1dc;
      }

      .cls-92 {
        fill: #e9eaee;
      }

      .cls-93 {
        fill: #b48771;
      }

      .cls-94 {
        fill: #dcb27c;
      }

      .cls-95 {
        fill: #8d6666;
      }

      .cls-96 {
        fill: #bbbccc;
      }

      .cls-97 {
        fill: #b0acc0;
      }

      .cls-98 {
        fill: #8e6354;
      }

      .cls-99 {
        fill: #e1ba80;
      }

      .cls-100 {
        fill: #846772;
      }

      .cls-101 {
        fill: #d2a881;
      }

      .cls-102 {
        fill: #e6c185;
      }

      .cls-103 {
        fill: #e7c179;
      }

      .cls-104 {
        fill: #dab277;
      }

      .cls-105 {
        fill: #c6aeaf;
      }

      .cls-106 {
        fill: #e9ebf1;
      }

      .cls-107 {
        fill: #f3e1a3;
      }

      .cls-108 {
        fill: #f7ebaf;
      }

      .cls-109 {
        fill: #8d6567;
      }

      .cls-110 {
        fill: #ceced9;
      }

      .cls-111 {
        fill: #664a61;
      }

      .cls-112 {
        fill: #785564;
      }

      .cls-113 {
        fill: #9c715d;
      }

      .cls-114 {
        fill: #dddfe5;
      }

      .cls-115 {
        fill: #aaa9bd;
      }

      .cls-116 {
        fill: #544260;
      }

      .cls-117 {
        fill: #f4dd98;
      }

      .cls-118 {
        fill: #a2765e;
      }

      .cls-119 {
        fill: #c8c8d2;
      }

      .cls-120 {
        fill: #938aa7;
      }

      .cls-121 {
        fill: #e3e5eb;
      }

      .cls-122 {
        fill: #7a5664;
      }

      .cls-123 {
        fill: #ebecf0;
      }

      .cls-124 {
        fill: #d5d8e2;
      }

      .cls-125 {
        fill: #ebcc89;
      }

      .cls-126 {
        fill: #c3c3d2;
      }

      .cls-127 {
        fill: #c2936e;
      }

      .cls-128 {
        fill: #9d745f;
      }

      .cls-129 {
        fill: #554563;
      }

      .cls-130 {
        fill: #ab806e;
      }

      .cls-131 {
        fill: #c9cbd6;
      }

      .cls-132 {
        fill: #d0a375;
      }

      .cls-133 {
        fill: #a7a3b9;
      }

      .cls-134 {
        fill: #9b7876;
      }

      .cls-135 {
        fill: #f6e0a3;
      }

      .cls-136 {
        fill: #c9c8d4;
      }

      .cls-137 {
        fill: #bb9072;
      }

      .cls-138 {
        fill: #ca9c72;
      }

      .cls-139 {
        fill: #c8c9d6;
      }

      .cls-140 {
        fill: #e2ba77;
      }

      .cls-141 {
        fill: #d7af79;
      }

      .cls-142 {
        fill: #afadbf;
      }

      .cls-143 {
        fill: #feffff;
      }

      .cls-144 {
        fill: #fcfbf0;
      }

      .cls-145 {
        fill: #4b3a58;
      }

      .cls-146 {
        fill: #f3f5f9;
      }

      .cls-147 {
        fill: #d5d7e0;
      }

      .cls-148 {
        fill: #e5bb83;
      }

      .cls-149 {
        fill: #e3d1cc;
      }

      .cls-150 {
        fill: #f8e8b5;
      }

      .cls-151 {
        fill: #c1abac;
      }

      .cls-152 {
        fill: #4a3958;
      }

      .cls-153 {
        fill: #9993ac;
      }

      .cls-154 {
        fill: #a27962;
      }

      .cls-155 {
        fill: #8d8ba3;
      }

      .cls-156 {
        fill: #b79fa6;
      }

      .cls-157 {
        fill: #bbbaca;
      }

      .cls-158 {
        fill: #744f5f;
      }

      .cls-159 {
        fill: #d4d5dd;
      }

      .cls-160 {
        fill: #cfa379;
      }

      .cls-161 {
        fill: #fcfbf4;
      }

      .cls-162 {
        fill: #f0efef;
      }

      .cls-163 {
        fill: #cbcbd6;
      }

      .cls-164 {
        fill: #ddb179;
      }

      .cls-165 {
        fill: #9a8ea7;
      }
    </style>
    <linearGradient id="_名称未設定グラデーション_39" data-name="名称未設定グラデーション 39" x1="195.5" y1="172.15" x2="239.09" y2="254.06" gradientUnits="userSpaceOnUse">
      <stop offset="0" stop-color="#fcf5d5"/>
      <stop offset="1" stop-color="#f5d695"/>
    </linearGradient>
  </defs>
  <g id="_レイヤー_1-2" data-name="レイヤー 1">
    <g id="_生成オブジェクト" data-name="生成オブジェクト">
      <path class="cls-119" d="M197.47,445.63c.09-2.3.13-5.21-.03-7.56.54.52,1.05.71,1.78.54.37-.09.38-1.72.81-1.7,2.91.14,6.54-.74,9.42.03,7.95,2.12,13.15,1.21,22,1.33,1.88.02,4.62-.65,4.42,2.29-.6.76,8.89.08,7.75.49,2.29-.82,6.63,1.31,7.92,1.79,1.67.63,4.21-.66,4.5,2.18-.52.19-8.3,1.82-8.03,1.78-2.65.41-13.62.21-12.53-.22-.74.29,1.1,3.23-7.74,2.45-2.78-.24-5.25.49-8.14.5-.9,0-2.26-1.05-3.31-.34-1.62,1.1-3.28.21-5.05.17-2.62-.06-4.87.92-7.79.12-1.33-.37-4.37,1.26-5.14-1.04-.25-.76.06-2.3-.82-2.8Z"/>
      <path class="cls-119" d="M9.37,446.17l-7.71-.54c-1.18-.08-2.27-2.27-1.27-2.91,2.78-1.78,13.58-1.09,15.03-1.36,1.61-.3,5.21-1.92,5.95.15.24.68-.86.6-1.1,1.43s-.59,3.76-.9,4.16c.36-.45-8.11-.79-10-.93Z"/>
      <path class="cls-36" d="M45.39,366.08c-.15,1.04-2.06.41-2.73.55.2-1.97-.34-3.95.28-5.93.65,1.89.06,3.51.31,5.34l2.15.05Z"/>
      <g>
        <g>
          <path class="cls-152" d="M175.96,403.1c3.73-.03,7.49.48,11.22.04.46-.05.67.13,1.09-.1.1,1.56.42,3.38-.14,5.12-.55.68-2.1.25-3.27.55l.09,13.38,3.25.27c.69,1.42-.64,5.87.59,5.67-1.69,3.34-.75-5.29-1.53-5.31-1.57,1.58.34,3.16-1.17,4.18l.06-3.93-14.51.23c-.47,0-.52.99-3.58,2.23-.37.15-.56,1.47-.14,1.51,1.4,0,2.26.89,3.2,1.02-.35.77-.07,1.83-.91,2.64-1.54-.02-3.71.32-3.55,2.16.09,1.02,1.33,1.92,1.77,2.53-.32.4.02.81.17,1.38.12.47,1.32.14,1.64.61.66,1,.14,2.18.51,3.43l22.08.05c.44-2.14.63-4.67-.42-6.53-.4-.47.47-.28.37-.52-.17-.42-.44-1.4.21-1.04.14.31-.16,1.06.39,1.29,1.34.56,2.76-.18,3.99.26.38,1.49-.01,2.77.06,3.85.16,2.35.12,5.26.03,7.56l-39.2.14-.13-18.55-4.11-.31-.22-12.33c-1.64-.21-2.83.27-4.16-.3.03-1.8-.13-3.18.16-4.48.3.07.66-.03.58-.4.95.22,1.88.04,3.17-.2-.2-2.07,0-3.98-.02-5.86,1.55.52,3.41-.14,4.78-.38,5.74,1.12,11.77.19,17.63.15Z"/>
          <path class="cls-90" d="M188.8,428.03l4.1.13.1,4.51c-.65-.36-.38.62-.21,1.04.1.24-.78.05-.37.52-.99.15-2.15-.29-3.11.05-.5-.76.08-2.19-.32-2.98-1.12-.97-2.93-.55-4.35-.49-.14-.64-.54-1.28-.24-1.82.31-.78,1-1.52,1.69-2.09,1.52-1.02-.39-2.6,1.17-4.18.78.02-.16,8.65,1.53,5.31Z"/>
          <path class="cls-36" d="M149.82,409.81c.04-.18.08-.36.05-.54.19-.03.38.03.53.14.07.37-.28.47-.58.4Z"/>
          <g>
            <path class="cls-145" d="M63.6,403.33c2.29.12,4.57.09,6.85.09l23.45.02c2.03-.15.45,3.89,1.26,5.85,1.55-.38,3.83.76,5.07-.06,1.03,7.62-.73,3.26-1,8.61l-3.86.39-.15,27.51-49.55.03c-.24-3.36-.36-6.75.04-9.98,4.55-.46.29-1.66,9.24-2.44.47-1.79.6-3.38.71-5.18l6.49-.39c0-1.85-.1-3.45.22-5.2,1.19-.43,2.22-.26,3.41-.38.9-13.54-1.48-3-1.21-13.54-1.65-.56-3.09.02-4.87-.38-.05-1.54-.5-3.11-.08-4.33.49-1.45,2.73-.68,3.99-.61Z"/>
            <g>
              <path class="cls-35" d="M73.05,430.6c-.36.93-.41,2.21-.49,3.15-1.3-.45-2.15.4-3.15,1.15-1.65,1.23-3.67-.64-5.27-.29-1.78.39-5.16.48-6.49-.39.26.03.39-.08.56-.17.24-.13.14-.56.18-.73,1.67.85,3.57.17,5.52.68,1.43.38,3.04-.29,4.49-.84.68-.26.18-2.47-.58-2.57-2.08-.25-3.71.1-5.4-.21.09-1.73,1.48-2.74,3.46-2.69l.48-4.37c4.37-.14,9.34-.36,13.68,0,1.01.47,1.08,3.72.1,4.17-2.51.66-5.45.16-7.93.48.6.73,1.19,1.75.84,2.62Z"/>
              <path class="cls-71" d="M72.56,433.75c.97,2.18-.18,4.72-.62,7.01-5.68-.03-11.27.26-17.53-.14.54-2.01.36-3.93.48-5.94.04-.71,2.18-.84,2.77-.46,1.33.87,4.7.78,6.49.39,1.6-.35,3.62,1.51,5.27.29,1.01-.75,1.85-1.6,3.15-1.15Z"/>
              <path class="cls-65" d="M71.94,440.76c.44-2.29,1.6-4.83.62-7.01.08-.94.12-2.23.49-3.15,3.59-.81-.16,1.05,6.65,1.42.77,2.75.34,5.7.31,8.61-2.89.48-5.46.14-8.08.13Z"/>
              <path class="cls-9" d="M78.6,418.06c-.92.16-1.9-.72-2.58-.11-.57.5-.38,1.64.18,2.51-2.8.47-5.04.45-8.34.5.14-1.72-.78-4.41.38-5.91,1-1.3,3.89-.52,5.3-.23,1.93.39,3.62.09,5.29.52.68.18.73,2.57-.23,2.73Z"/>
              <path class="cls-134" d="M62.42,430.4c1.69.31,3.32-.05,5.4.21.76.09,1.26,2.31.58,2.57-1.45.55-3.06,1.22-4.49.84-1.95-.51-3.85.17-5.52-.68.12-.6-.17-2.02.54-2.44.91-.54,2.51-.67,3.49-.49Z"/>
              <path class="cls-58" d="M50.71,437.91c-.8,1.28.73,2.32-.25,2.62-1.71.51-.9-2.79-1.26-4.38,1.55-.5,3.01-1.13,4.41-.62.48.18.32,1.3.1,1.61-.62.88-2.45-.11-3,.77Z"/>
            </g>
          </g>
          <path class="cls-112" d="M189.31,434.28c.96-.34,2.12.1,3.11-.05,1.06,1.86.87,4.39.42,6.53l-22.08-.05c-.38-1.25.15-2.43-.51-3.43-.31-.47-1.51-.14-1.64-.61-.15-.57-.49-.98-.17-1.38.94-.4,1.45-1.09,2.61-.77,2.66.74,5.28-.44,8.01-.03,3.4.51,7.2.88,10.25-.21Z"/>
          <path class="cls-6" d="M184.41,428.99c-.3.54.1,1.18.24,1.82,1.42-.07,3.23-.48,4.35.49.4.79-.18,2.22.32,2.98-3.05,1.09-6.85.72-10.25.21-2.73-.41-5.35.77-8.01.03-1.16-.32-1.67.37-2.61.77-.44-.61-1.68-1.51-1.77-2.53-.16-1.83,2.01-2.18,3.55-2.16.84-.81.57-1.88.91-2.64,4.4.6,9.23-.76,13.28,1.03Z"/>
          <path class="cls-111" d="M186.1,426.9c-.69.57-1.38,1.31-1.69,2.09-4.05-1.79-8.88-.42-13.28-1.03-.95-.13-1.8-1.02-3.2-1.02-.42-.04-.23-1.36.14-1.51,3.06-1.24,3.11-2.22,3.58-2.23l14.51-.23-.06,3.93Z"/>
        </g>
        <g>
          <path class="cls-118" d="M275.14,247.04c-1.6-.64-1.23-1.95-.97-3.63.37-2.47-.02-4.99.55-7.42l3.09-.61.34-12.09c.8-.15,3.65.27,3.7-1.23l.03-70.25c0-1.27.33-2.61-.18-3.91l-30.57-.41c-.05-.36-.1-.74.04-1.08.07-.42.04-.85.04-1.27l34.58.2-.03,76.1c-1.09.45-2.32-.08-2.95.84-.3.43-.1,1.5-.26,1.9s-1.57.32-1.66.87c-.74,4.37-.19,8.64-.47,12.96-.75.26-1.5-.04-2.22.35l-.46,8.5c-1.06.34-1.88-.1-2.58.19Z"/>
          <path class="cls-154" d="M220.24,296.1c1.32.12.03,2.04.48,4.13,1.35-.04,2.45-.36,3.74-.11.44,1.45.49,2.96-.46,4.02-.77-.26-2.01.35-2.76-.38-.61-.6.18-1.91-.34-2.89s-1.99-.26-2.72-.42c-.72-1.09-.6-2.81-1.09-4.16l-4.34-.94c.18-1.54.34-2.96-.9-3.61-.82-.44-2.28.22-3.08-.53s.33-2.46-.49-3.33c-.51-.54-2.14-.81-2.84-.69.42-1.54-1.33-2.76-.64-4.25.98.04,2.72-.33,3.2.95.31.82-.47,2.38.39,2.84,1.23.67,2.83.04,4.05.5l.64,4.25c1.47-.13,3.46-.48,3.79.91.25,1.08-.55,2.7.82,3.2.79.29,1.97-.01,2.55.5Z"/>
          <path class="cls-140" d="M227.2,134.57l-2.72.39c.21,1.07.36,1.91.12,2.63-.48,1.43-3.7.7-3.89,1.38l-.64,2.33c-.16.59-1.49.08-2.07.28-.64.22-1.02,1.02-.92,2.4l-5.21.79c-.25,1.02,0,1.86-.44,2.96l-7.68.07c-.16-.83-.52-1.6-.08-2.38.76.06,1.59-.38,2.15-.51,2.09-.21,4.02-1.19,6.19-1.8l1.4-3.61c1.77,1.04,3.11-.14,4.65-1.28.72-.54,1.97-.21,2.27-.68.38-.61-.12-1.92.27-2.27,1.04-.95,2.66-.55,3.84-1.04.86-.36,2.24-.33,2.74.34Z"/>
          <path class="cls-66" d="M251.2,145.13c0,.42.03.85-.04,1.27-3.06-2.59-9.83.64-9.05-2.65-1.32-.77-4.83-.49-4.84-1.6l-.02-1.98c0-.22-6.6-2.23-6.83-1.85-.75-.88-.6-1.91-.71-3.23s-2.01-.21-2.5-.52c-.51-.66-1.88-.69-2.74-.34-.37-.59-.08-1.44.39-1.72.3-.18,4.25-.26,4.72-.13.41.11.26.97.73,1.38.84.74,2.43-.53,3.13.44.5.7.38,1.82,1.13,2.02.69.19,1.51-.39,2.3-.04.92.4.22,1.9.79,2.65l4.51.56c.34,1.47-.09,2.75.8,3.91,2.27-.7,3.78-.07,4.84,1.27,1.2.18,2.78-.19,3.41.56Z"/>
          <path class="cls-63" d="M260.17,273.39c-.13,1.33.62,3.78-.81,4.8-.92.65-3.28-.23-3.67,1.47-.24,1.06.48,2.75-.53,3.39-.91.57-2.07-.09-2.89.29-1.19-1.26-.93-3.95.54-5.01.69-.49,1.99.48,2.68-.09,1.35-1.13.54-2.93,1.03-4.57.32-1.08,2.99-1.06,3.65-.27Z"/>
          <path class="cls-49" d="M269.76,256.75c-.22,2.37.03,4.79-.01,7.34-1.49.5-2.88-.04-4.19.19l.24-8.29c1.59-.32,2.89.12,3.97.77Z"/>
          <path class="cls-34" d="M265.55,264.28c-.08,2.65-.3,5.28-.85,8.08-1.4-.03-2.43.29-3.38-.01-.7-.32-.91-.89-1.04-1.46-.22-1.02.75-1.47,1.1-2.4.42-1.11-.6-3.01.41-3.84s2.69-.19,3.76-.37Z"/>
          <path class="cls-113" d="M251.1,283.86c.25.78.38,2.8-.33,3.29-1.13.79-2.97-.44-3.68.61-.63.92.2,2.37-.22,3.55-1.33.42-2.61.28-3.77.12-.5-.88-.36-3.01.56-3.8s2.21.09,3.33-.21c.21-1.62.38-3.46,1.27-4.33.55-.54,2.61.05,2.84.76Z"/>
          <path class="cls-128" d="M273.71,247.53l-.12,8.13c-1.35.31-2.46-.04-3.6.06.02-2.54-.56-5.59.3-8.09.73-.62,2.86-.8,3.43-.09Z"/>
          <path class="cls-98" d="M233.47,300.45c-.26.94.65,2.51-.2,3.38s-2.5.21-3.42.36c.22-1.04-.51-2.85.4-3.76.83-.83,2.43-.15,3.21.02Z"/>
          <path class="cls-14" d="M237.94,296.15c-.27,1,.52,2.64-.25,3.65-.8.86-2.68.21-3.61.16.22-1.11-.21-2.75.55-3.83s2.39-.11,3.31.02Z"/>
          <path class="cls-40" d="M229.36,304.67c.12.8.01,1.64.07,2.9-1.16.19-2.86.68-4.02-.1-.86-.57-.36-2.38-.48-3.14,1.48.07,2.94.38,4.43.35Z"/>
          <path class="cls-60" d="M194.25,268.93c.7,1.08-.19,2.91.52,4.22l4.12.31.44,4.72c1.22.24,2.24,0,3.39.36,1.51.48.07,3.29,1.03,3.98.27.19.68.33,1.05.42-.69,1.49,1.06,2.71.64,4.25-.61.11-1.58.17-2.52-.74-.38-.37.45-1.48.11-2.18-.56-1.13-3.05-1.25-3.5-1.63-.95-.82.77-3.99-1.04-4.43-1.1-.27-2.86.65-3.56-.38-.74-1.1.47-3.87-1.26-4.36-.72-.14-2.82,1.09-3.16-.19-.41-1.56.48-3.55-1.11-4.16l-.1-4.25c.95-.78,3.86-1.01,4.18.39.34,1.53.04,2.56.77,3.69Z"/>
          <path class="cls-100" d="M188.89,264.27c.25,0,.4.38.41.59l.1,4.25c-1.08.62-2.26-.18-3.43.07-1.3-.94-.78-3.15-.93-4.84-.13-.16-.46-.2-.53-.2-.12-.38.24-.66.59-.46,1.15.66,2.49.56,3.78.58Z"/>
          <path class="cls-12" d="M251.67,160.7c.65.07,1.2.93,2.2.81,2.39-.28,4.54,0,7.02.4,3.34.54.96,6.87,4.2,4.88l.38,53.87c-.38.42-2.01-.01-2.3.29-.49.51-.34,1.65-1.84,4.87-.7,1.5.47,3.63-1.12,4.35-.97.4-3.61-.2-4.21.92-1.34,2.49-6.68,4.89-6.82,5.12l-1.92,3.22c.41-.69-6.58,3.55-4.35,1.97-.5.36-.25,1.68-.66,2.16-2.4.51-5.22.16-7.64,1.43v-30.5s16.08.03,16.08.03l.11-15.02-15.94-.18-.24-23.51c-1.61-.74-3.21-.25-4.63-.29.64-.38-.72-.61-.72-.94l.06-22.35c.27-.08.51-.23.5-.53,2.75.52,3.7,0,4.31,3.26,3.51-1.06,9.37,2.69,8.43,2.35,1.4.5,3.11-.44,4.15.52.44.41-.24,2.04.73,2.47,1.5.66,2.96.26,4.23.39Z"/>
          <path class="cls-102" d="M228.75,270.63l1.02,15.96c-.54.87-2.74.93-4.55.79l-.39-3.92c-3.69.78-5.58-1.88-8.02-2.01-.36-.76.26-2.23-.28-2.72-.7-.64-2.27-.91-3.36-.41-1.01.46-.59,3.58.49,3.77,1.38.24,2.27.33,3.07.78.89.5,1.01,1.49,1.12,2.59.23,2.37,3.49,1.42,3.64,2.27l.38,2.14c.41,2.32,7.68,2.06,11.19.52.25-.73-.12-2.27.38-2.78,1.14-.08,2.04-.75,2.82-1.01,1.61-.55,1.49-2.01,1.72-3.79.42-.85,3.03-.88,3.58.03-.4-.65-.25,2.07-1,3.08,2.73-3.71-3.97,3.29-3.76,2.87-.35.69-.3,1.39-.68,1.73.59-.54-5.71,1.96-6.19,1.76-1,.44-.45,2.78-.63,3.91-3.18.47-6.33-.89-9.09-.07-.59-.52-1.77-.21-2.55-.5-1.37-.51-.57-2.12-.82-3.2-.33-1.39-2.31-1.04-3.79-.91l-.64-4.25c-1.22-.46-2.82.16-4.05-.5-.86-.47-.08-2.02-.39-2.84-.48-1.28-2.22-.9-3.2-.95-.37-.09-.78-.23-1.05-.42-.97-.69.48-3.49-1.03-3.98-1.15-.37-2.17-.12-3.39-.36l-.44-4.72-4.12-.31c-.71-1.32.19-3.14-.52-4.22,6.01,1.51,2.81-.54,5.49,1.93,1.43,1.33,3.5,1.54,3.74,1.91.38.59-.11,1.35.12,2.24.43,1.64,3,1.93,4.36,1.58.01,1.05,1.3,1.45,2.03,1.53.78.09,2.27.02,2.49-.93s.53-2.91-.32-3.8c-1.05-1.1-3.1-.8-4.24-.68-.15.02-.25-.03-.39-.05l-.02-5.12c.67.09,1.19.82,2.09.83l15.69.09c.64,0,.22,2.29,1.17,2.2.84-.08,1.64.31,2.29-.02Z"/>
          <path class="cls-64" d="M246.01,151.69l31.37.53c-.12,1.1.25,2.41-.27,3.7-.31.77-1.58.56-2.16,1.47-1.38-.75-13.97-.87-15.21.02-2.44-.76-5.18-.55-7.91-.36l-.17,3.65c-1.27-.13-2.73.27-4.23-.39-.96-.43-.29-2.06-.73-2.47-1.04-.96-2.75-.02-4.15-.52.94.34-4.92-3.41-8.43-2.35-.62-3.26-1.56-2.74-4.31-3.26-.45-1.31-1.36-3.17-.76-4.65.43-1.06,1.26-.4,4.84-1.82.58-.23.68.67.97,1.21.9,1.64,3.86,1.43,5.18,2.54.74.63,1.13,2.62,5.96,2.7Z"/>
          <path class="cls-53" d="M251.12,147.49l30.57.41c.51,1.29.18,2.64.18,3.91-1.39.52-3,.44-4.49.42l-31.37-.53c.26-1.34.87-3.59,2.33-3.82.89-.14,2.03-.39,2.77-.38Z"/>
          <path class="cls-138" d="M229.78,286.59c.26-.42,1.55-.22,1.28-1.7-.13-.75,1.18-.75,1.47-1.08.17.58-.48,1.91.32,2.41,1.08.67,2.47.17,3.44.37-.78.27-1.68.93-2.82,1.01-.51.51-.14,2.05-.38,2.78-3.51,1.54-10.78,1.8-11.19-.52l-.38-2.14c-.15-.85-3.42.09-3.64-2.27-.1-1.09-.23-2.09-1.12-2.59-.8-.45-1.69-.54-3.07-.78-1.08-.19-1.5-3.31-.49-3.77,1.09-.5,2.66-.23,3.36.41.54.49-.08,1.97.28,2.72,2.43.13,4.33,2.8,8.02,2.01l.39,3.92c1.81.14,4.01.08,4.55-.79Z"/>
          <path class="cls-21" d="M259.75,157.41c.07.9-.59,2.71.63,3.19,1.61.63,4.29.87,4.95,2.76.4,1.14.26,2.68-.24,3.43-3.24,1.99-.86-4.33-4.2-4.88-2.48-.4-4.63-.68-7.02-.4-1,.12-1.55-.75-2.2-.81l.17-3.65c2.73-.19,5.47-.41,7.91.36Z"/>
          <g>
            <path class="cls-132" d="M275.14,247.04c-.48.2-1.08-.04-1.43.48-.57-.71-2.7-.53-3.43.09-.86,2.5-.28,5.56-.3,8.09,0,.38-.2.67-.23,1.04-1.07-.65-2.38-1.09-3.97-.77l-.24,8.29c-1.08.18-2.77-.44-3.76.37s.01,2.72-.41,3.84c-.35.93-1.32,1.38-1.1,2.4.12.58.34,1.15,1.04,1.46-.16.46-.61,1.04-1.15,1.04-.66-.78-3.33-.81-3.65.27-.49,1.64.32,3.44-1.03,4.57-.69.57-1.99-.4-2.68.09-1.47,1.05-1.73,3.75-.54,5.01-.4.19-.83.18-1.16.53-.23-.72-2.29-1.3-2.84-.76-.9.87-1.06,2.71-1.27,4.33-1.13.3-2.41-.58-3.33.21s-1.06,2.92-.56,3.8c-.48.21-.25.99-.83,1.04-.4-.65-2.17-1.36-2.92-.65-1.02.98-.72,2.76-.91,3.89.02.3-.2.51-.5.43-.92-.14-2.53-1.12-3.31-.02s-.33,2.72-.55,3.83c0,.32-.3.4-.62.49-.79-.17-2.38-.85-3.21-.02-.91.91-.18,2.72-.4,3.76.01.3-.34.42-.48.48-1.49.03-2.95-.28-4.43-.35-.33-.02-.6-.06-.94-.17.95-1.07.9-2.58.46-4.02-1.29-.26-2.39.06-3.74.11-.44-2.09.84-4.01-.48-4.13,2.77-.82,5.91.54,9.09.07.18-1.12-.37-3.46.63-3.91.47.2,6.78-2.29,6.19-1.76.38-.35.33-1.05.68-1.73-.22.42,6.49-6.58,3.76-2.87.75-1.01.6-3.74,1-3.08-.55-.91-3.15-.88-3.58-.03-.23,1.78-.12,3.24-1.72,3.79-.97-.2-2.37.3-3.44-.37-.8-.5-.15-1.83-.32-2.41.42-.48,1.43-.34,1.6-.74.95-2.24.98-16.94.99-20.39.95-.23,2.05-.1,2.46-.58.35-.41.1-1.25.58-1.72.96-.95,2.21-.57,3.57-.7.37-1.26.17-2.43.75-3.71,1.62-.16,3.94-1.16,4.3-2.88.51-2.42,2.9-3.01,4.17-4.56,1.5-1.82,1.91-4.73,4.78-5.27.37-1.24.28-2.31,1.16-3.16,1.36.34,2.15.2,3-.58,1.07-.98,1.18-8.33.32-9.33,1.59-.72.42-2.85,1.12-4.35,1.5-3.22,1.34-4.36,1.84-4.87.29-.3,1.92.13,2.3-.29l-.38-53.87c.5-.75.64-2.29.24-3.43-.66-1.9-3.34-2.14-4.95-2.76-1.23-.48-.57-2.29-.63-3.19,1.24-.89,13.83-.77,15.21-.02.57-.91,1.85-.7,2.16-1.47.52-1.29.15-2.6.27-3.7,1.49.03,3.09.11,4.49-.42l-.03,70.25c-.05,1.5-2.9,1.08-3.7,1.23l-.34,12.09-3.09.61c-.57,2.43-.18,4.95-.55,7.42-.26,1.68-.63,2.99.97,3.63Z"/>
            <path class="cls-18" d="M242.27,292.48c.04.8.43,2.34-.24,3.06-.96.85-2.58.23-3.58.17.19-1.13-.12-2.91.91-3.89.75-.71,2.52,0,2.92.65Z"/>
            <path class="cls-127" d="M265.6,247.15c-4.25.5,1.23,3.41-5.23,5.32-.63,1.62.08,3.59-.8,4.92-.58.32-1.81.24-2.38.08-1.21,1.87-.82-6.9-.47-5.92.72.42,1.94.2,3.18.04,1.4-.17.73-1.6.17-2.93.81-.76,1.71-.34,2.71-.76l-.07-5.44c1.6-.47,3.28-2.07,3.3-3.31.04-2.03-1.23-8.93.91-9.02.58-.02,1.9-.95,2.2.22.79,3.02.51,6.72-.54,9.5-4.07.2-1.14,3.24-2.98,7.3Z"/>
            <path class="cls-148" d="M265.6,247.15c3.27-.57-7.05,14.4-5.08,12.61-1.45,1.32-1.49,3.81-2.98,4.82-3.7,2.52-.04,1.59-5.83,5.89-.33-1.56-.4-4.17.58-4.76,2.53-.17,3.29-3.36,3.76-4.77l1.15-3.46c.57.17,1.8.24,2.38-.08.88-1.33.17-3.3.8-4.92,6.46-1.91.98-4.82,5.23-5.32Z"/>
            <path class="cls-16" d="M243.7,281.5c-.94.56-1.52-.52-1.66-1.11-.62-2.55,1.03.02,2.18-5.19.94.33,1.45.95,2.14.42,1.7-1.32.1-2.95,2.06-3.69.5-.19,1.67-.11,1.74.74l.2,2.58c-.73,1.14-2.9,1.72-3.64,2.49.1,1.83-1.45,2.84-3.01,3.77Z"/>
          </g>
          <path class="cls-150" d="M251.16,146.4c-.14.35-.09.72-.04,1.08-.74-.01-1.88.24-2.77.38-1.46.23-2.07,2.48-2.33,3.82-4.83-.08-5.22-2.07-5.96-2.7-1.32-1.11-4.28-.9-5.18-2.54-.3-.54-.4-1.43-.97-1.21-3.58,1.42-4.42.76-4.84,1.82-.6,1.48.31,3.35.76,4.65,0,.3-.24.45-.5.53-1.01.3-2.23-.14-3.42.41-.45.21-.32.99-.53,1.25-1,1.25-7.65-.16-9.34,2.57-.23.37-8.02.35-8.43.93-.37.51-.99.66-1.63.55l-.05-5.78c2.12-.2,5.27.16,7.21-.62.53-.44.1-3.18,1.13-2.92,2.62.66,3.94-.98,5.88-1.33,2.34-.42,5.13-.21,6.99-1.56.33-.77-.19-2.72.94-2.84.29-.03.91.42,1.39.16.2-.11-.11-.42.06-1.01.25-1.41-.3-3.04.89-3.75.24-.38,6.83,1.63,6.83,1.85l.02,1.98c.01,1.11,3.52.83,4.84,1.6-.78,3.29,5.99.06,9.05,2.65Z"/>
          <path class="cls-43" d="M203.68,145.43c-.44.79-.07,1.56.08,2.38-.34,0-12.14-.59-10.18,1.26-.6.22-.42-.51-.66-1.18-2.08.1-3.76-.11-5.65-.27-4.48-.37-9,.05-13.41.11-1.05.02-2.14.08-3.16-.19,0-.43-.35-1.55.51-1.68,1.52-.22,3.12-.41,4.36-.1,2.16.54,4.3-.3,6.33-.26,7.25.14,14.54-.67,21.78-.09Z"/>
          <path class="cls-144" d="M227.2,134.57c.49.31,2.39-.76,2.5.52s-.04,2.35.71,3.23c-1.2.71-.64,2.34-.89,3.75-.17.59.14.9-.06,1.01-.48.27-1.1-.19-1.39-.16-1.13.12-.62,2.06-.94,2.84-1.86,1.36-4.65,1.14-6.99,1.56-1.94.35-3.26,1.99-5.88,1.33-1.04-.26-.61,2.48-1.13,2.92-1.94.79-5.09.42-7.21.62-4.14.39-8.22-.27-12.28-.49l-.05-2.62c-1.96-1.85,9.84-1.26,10.18-1.26l7.68-.07c.44-1.11.19-1.95.44-2.96l5.21-.79c-.1-1.38.29-2.18.92-2.4.58-.2,1.91.31,2.07-.28l.64-2.33c.19-.67,3.41.05,3.89-1.38.24-.71.09-1.55-.12-2.63l2.72-.39Z"/>
          <path class="cls-135" d="M183.47,160.81c-.14.77-.57,1.99-.56,3.19l.22,46.28.45,20.66c.03,1.37,1.48,1.05,2.07,1.65,2.74,2.79-1.27,7.74,3.16,6.67.88.91-.22,4.51,1.57,4.69-1.28,4.7-.1,3.09.94,6.94,3.95.98,2.23,4.93,4.4,8.78,1.19.06,2.11-.23,3.26.12-.53,7.26,5.27,8.55,5.76,12.82,1.19.07,1.94-.08,2.78.04.13.02.24.06.39.05l.04,3.88c-1.36.36-3.93.06-4.36-1.58-.24-.9.26-1.65-.12-2.24-.23-.37-2.3-.58-3.74-1.91-2.67-2.47.53-.41-5.49-1.93-.73-1.13-.43-2.15-.77-3.69-.31-1.39-3.23-1.17-4.18-.39,0-.21-.16-.59-.41-.59.71-2.65.37-5.63-.11-8.57-.05-.3-1.49.03-1.36-.53.3-1.34.22-3.3-1.21-3.71-.51-.15-1.03.36-1.24.09-.96-1.24.85-2.47-.29-3.27-.31-.22-1.26-.28-1.62-.7-.79-.94.24-2.26-.47-3.37-.73-.1-3.18.26-3.32-.68l-.57-3.76c-.82-5.42-.37-11.1-.07-16.63.63-11.73.3-23.53.37-35.7l.19-30.36c.89.38,2.47-.49,3.36.35s.32,2.53.91,3.38Z"/>
          <path class="cls-37" d="M178.7,239.77l.57,3.76c.14.94,2.59.58,3.32.68.71,1.11-.32,2.43.47,3.37.35.42,1.3.48,1.62.7,1.14.8-.67,2.02.29,3.27.21.26.73-.24,1.24-.09,1.43.41,1.52,2.37,1.21,3.71-.13.57,1.31.23,1.36.53.48,2.93.82,5.91.11,8.57-1.29-.02-2.63.08-3.78-.58-.26-2.41-.22-4.71-.16-7.84-1.82-.15-3.23-1.02-4.68-1.72.71-1.95-.66-2.88-1.32-4.27-.79-1.68.64-3.83-.08-5.64-.95.13-2.6-.31-3.37.22-.92-1.22.11-2.7.02-4.17,1.01-.61,2.21.28,3.2-.49Z"/>
          <path class="cls-5" d="M229.32,152.25l-.06,22.35c0,.33,1.36.56.72.94-3.14-.09-6.27-.08-9.95.03l-.18,23.59-19.31.18.02,15.05,19.31.17.13,29.92c0,1.82.16,3.92.74,5.58,1.72.75,4.76.3,8.33,1.17.8,6.66-.71,13.17-.31,19.4-.66.33-1.46-.05-2.29.02-.95.09-.53-2.2-1.17-2.2l-15.69-.09c-.9,0-1.42-.74-2.09-.83-.8-.66-1.47-1.63-1.67-2.92-.37-.37-1.58-.04-1.98-.22-1.43-.68,0-2.91-.7-4.09-.58-.97-3.08-.06-3.64-.67-.51-.55-.02-1.63-.19-2.41-.31-1.39-2.17-.4-3.15-.82-1.28-.6-.29-2.98-.83-3.95-1.89-3.37.9-4.77-2.9-4.76-2.24,0,.56-3.47-2.05-3.73-1.79-.18-.69-3.79-1.57-4.69,1.2-10.56.95-21.46.74-32.17l-.16-7.96c.08.04.38-.15.39-.5l.37-26.38c1.47-.69,2.98-.45,4.5-.95.36-1.15-.43-3.3.67-3.98,1.7-1.06,4.06.12,5.71-1.04-.4-3.35,1.96-.83,4.1-2.33.57-.39-.29-2.26.21-2.56,2.58-1.96,10.44.93,10.86-2.3.12-.9-.75-1.86-.18-2.62,1.7-2.74,8.34-1.32,9.34-2.57.21-.26.08-1.04.53-1.25,1.19-.56,2.41-.12,3.42-.41Z"/>
          <g>
            <path class="cls-164" d="M229.98,175.53c1.43.04,3.03-.45,4.63.29l.24,23.51,15.94.18-.11,15.02-16.08-.03v30.5c2.43-1.27,5.25-.92,7.65-1.43.41-.48.15-1.8.66-2.16-2.23,1.58,4.76-2.66,4.35-1.97l1.92-3.22c.14-.23,5.48-2.63,6.82-5.12.6-1.12,3.24-.52,4.21-.92.86.99.74,8.34-.32,9.33-.85.78-1.63.93-3,.58-.88.85-.79,1.92-1.16,3.16-2.87.55-3.29,3.45-4.78,5.27-1.27,1.54-3.66,2.14-4.17,4.56-.36,1.72-2.69,2.72-4.3,2.88-.58,1.28-.38,2.45-.75,3.71-1.36.13-2.61-.25-3.57.7-.48.48-.23,1.32-.58,1.72-.41.48-1.51.35-2.46.58,0,3.46-.04,18.16-.99,20.39-.17.4-1.19.27-1.6.74-.29.33-1.6.33-1.47,1.08.27,1.48-1.02,1.28-1.28,1.7l-1.02-15.96c-.4-6.24,1.11-12.75.31-19.4-3.58-.87-6.61-.42-8.33-1.17-.58-1.66-.73-3.75-.74-5.58l-.13-29.92-19.31-.17-.02-15.05,19.31-.18.18-23.59c3.68-.11,6.81-.12,9.95-.03Z"/>
            <path class="cls-38" d="M224.34,210.49c0-3.13,0-2.14-6.81-1.77-.2.01-11.15-.24-11.76-.28.26,1.24.47,1.88.02,2.18-.7.47-1.26.53-1.78.3-1.28-.57-.41-3.55-.41-3.13.18.3,6.43.33,5.79-1.31,2.35-.94,4.65-.84,7.18-1.54l-1.1-.7c-.25-.16-.06-.89-.07-1.24l8.91-.07v-23.09c2.25-.25,4.02-.19,6.11.13l.05,23.35,16.61-.05c.74,0,.33,1.79.36,2.39.03.83-1.01,1.01-1.88,1.88-2.43,2.44-11.32.04-15.44,1.07l.1,34.7c-2.44.35-3.84.47-5.84.09l-.04-32.89Z"/>
            <path class="cls-30" d="M215.41,202.99c0,.35-.18,1.08.07,1.24l1.1.7c-2.53.7-4.83.6-7.18,1.54.64,1.64-5.61,1.61-5.79,1.31,0-1.72-.39-3.16.17-4.75l11.62-.04Z"/>
            <path class="cls-15" d="M224.34,210.49c-2.1.25-4.39.73-6.59.17-.73-.19-.48-1.56-.22-1.94,6.82-.38,6.8-1.36,6.81,1.77Z"/>
          </g>
          <path class="cls-94" d="M207.5,267.54l.02,5.12c-.84-.12-1.59.03-2.78-.04-.5-4.27-6.29-5.56-5.76-12.82-1.15-.34-2.08-.05-3.26-.12-2.17-3.85-.45-7.8-4.4-8.78-1.03-3.85-2.21-2.24-.94-6.94,2.62.27-.19,3.74,2.05,3.73,3.8,0,1.02,1.39,2.9,4.76.54.97-.44,3.36.83,3.95.98.42,2.84-.57,3.15.82.18.78-.32,1.87.19,2.41.57.61,3.06-.31,3.64.67.7,1.17-.73,3.41.7,4.09.4.19,1.61-.14,1.98.22.2,1.29.87,2.26,1.67,2.92Z"/>
          <path class="cls-28" d="M207.95,276.59l-.04-3.88c1.15-.12,3.2-.42,4.24.68.85.89.54,2.84.32,3.8s-1.7,1.02-2.49.93c-.73-.08-2.02-.49-2.03-1.53Z"/>
          <path class="cls-57" d="M216.02,156.48c-.58.76.3,1.72.18,2.62-.42,3.23-8.28.34-10.86,2.3-.49.29.36,2.16-.21,2.56-2.14,1.49-4.5-1.03-4.1,2.33-1.64,1.16-4-.02-5.71,1.04-1.1.68-.31,2.83-.67,3.98-1.52.5-3.03.26-4.5.95l-.37,26.38c0,.35-.3.54-.39.5-1.12-.79-.31,7.8-.72,10.68-.16,1.12-5.36.46-5.55.46l-.22-46.28c0-1.21.42-2.43.56-3.19,1.02.32,2.38-.43,3.41-.34,7.54.69,6.47-2.69,13.61-2.02,2.06.19,3.74-.45,5.47-.49.64.1,1.26-.04,1.63-.55.4-.58,8.2-.57,8.43-.93Z"/>
          <path class="cls-50" d="M193.63,151.69c4.06.22,8.14.88,12.28.49l.05,5.78c-1.74.04-3.41.68-5.47.49-7.14-.67-6.07,2.71-13.61,2.02-1.04-.09-2.39.66-3.41.34-.59-.84.02-2.5-.91-3.38s-2.47.03-3.36-.35c-.91-1.42-.54-3.32-.06-4.88,4.74-.25,9.68-.78,14.49-.51Z"/>
          <path class="cls-103" d="M173.86,147.74c-.66,4.77,1.82,3.54.58,4.69-.16.15.06.37.38.32l-.34,70.26c-1.25-.04-2.5.11-3.77.08.15-.37-.16-.68-.16-1.01l-.15-37.84.19-19.75c.05-4.58.05-12.7.1-16.93,1.02.26,2.11.2,3.16.19Z"/>
          <path class="cls-32" d="M193.58,149.07l.05,2.62c-4.81-.26-9.75.26-14.49.51.15,0-4.79-.99-4.31.55-.32.05-.54-.17-.38-.32,1.24-1.15-1.24.08-.58-4.69,4.41-.06,8.93-.48,13.41-.11,1.89.16,3.57.37,5.65.27.24.67.06,1.4.66,1.18Z"/>
          <path class="cls-161" d="M179.14,152.2c-.48,1.55-.85,3.46.06,4.88l-.19,30.36c-.08,12.17.26,23.97-.37,35.7l-4.15-.12.34-70.26c-.48-1.54,4.46-.56,4.31-.55Z"/>
          <path class="cls-42" d="M188.81,239.27c-4.43,1.06-.42-3.88-3.16-6.67-.59-.6-2.04-.28-2.07-1.65l-.45-20.66c.19,0,5.39.66,5.55-.46.4-2.89-.4-11.47.72-10.68l.16,7.96c.21,10.71.46,21.61-.74,32.17Z"/>
          <path class="cls-104" d="M178.63,223.14c-.3,5.53-.75,11.21.07,16.63-.99.78-2.19-.11-3.2.49-.1-.04-.93-.28-.93-.71l-.09-16.54,4.15.12Z"/>
        </g>
        <g>
          <path class="cls-36" d="M82.14,157.98l.3,3.29c.21,2.29-.65,8.71-.43,9.1-.55-.04-.37.52-.49,1.28l-7.74.48c-.55,1.2.05,2.11-.37,3.21-.11.29-.45.38-.92.41-2.03-.13-7.17-1.17-9.44-.7-1.9.39-2.79-.38-4.37-.63-5.79-.91-17.84.4-21.19-.32-.93-.2-1.89-.51-2.73-.93-.06-.74.53-1.3,1.56-1.33.72-.02,1.52.3,1.67-.43,2.49.27,5.05.45,7.78,0,.09-2.15.21-4.1.08-6.37-1.61-.72-7.06.57-7.33-1.53l-.1-5.49c-.07-.36-.06-.86.07-1.14.47-.96,2.77.24,3.48-.94s-.71-6.93.47-8.09c.77-.24,2.72.51,2.97-.33.37-1.2.91-3.04,0-4.01.17-.22.25-.67.47-.82h9.37c1.15,1.67,2.9,2.05,4.78,2.35l.04,2.49c1.57.65,3.05.68,4.86.55l.33,3.6c2.49.69,4.94.56,7.57.83l.47,3.86c.42-.45,9.95.73,8.84,1.6Z"/>
          <path class="cls-59" d="M194.66,112.89l4.65.61c-.16,1.92-.38,4.15,1.24,5.15-.38.69-.57,1.9-.06,2.78.29.5,1.35.16,1.75.22,2.34-.26.24,3.96,1.4,5.73.37.56,2.41-.23,2.53.92.07.69-.08,2.07.56,2.09l2.23.05c.97,1.09.1,2.84.64,4.19l3.9.44c-.26,1.56.4,3.23-.07,4.44l-1.4,3.61c-2.18.61-4.1,1.59-6.19,1.8-2.83-.15-.4-9.08-1.38-10.59-3.04.35-6.4-.68-9.21.08-.16,1-.27,2.16-.45,2.67-.52,1.44-3.19.41-4.08,1.31-.94.95.41,2-.76,3.4-.66.79-2.09-1.16-4.09,1.04-.33.36-.21,1.44-.96,1.5-.43.03-1,1.05-1.71-.12-.29.58-.94.78-1.28,1.29-2.03-.04-4.18.8-6.33.26-.09-.99.88-1.51,2.04-1.47.63.02.87-.2,1.24-.59.24-.25.02-.46-.17-1.35l6.18-1.05c-.11-1.28-.55-2.21-.02-2.92.88-1.2,3.35-.08,3.86-1.07.31-.61-.17-2.63.39-3.19.95-.97,5.5.43,5.89-1.25l1.46-6.2c.56.28,2.32.8,3.02-.15.93-1.27.59-3.9-.41-4.8-.66-.6-2.22.24-2.78-.36-.98-1.06-.24-2.55-.3-4-3.79-.08-7.31-1.11-10.85-.73-.03-.83-.52-2.73.65-3.17,2.66-.99,6.21.65,7.25-1.77.02.8.27,1.26.83,1.59.24.14.88.21.81-.39Z"/>
          <path class="cls-147" d="M67.3,117.4c-1.16,0-2.44-.63-3.69-.14-.58.23-.53,1.33-.97,1.39-.73.1-1.51,0-2.3-.06-1.5-.11-1.06,1.15-1.22,1.88-.24,1.14.56,1.45,1.17,2.43.66,1.06-.22,2.68.72,3.51,1.06.93,2.76.59,4.03.87.55,2.39.16,4.62.39,7.07l6.57.33.35,3.97,6.87.57c.28,1.57-1.18,3.28.79,4.77.54.41,1.27.2,2.14-.01l.75,3.51c.95-.37,1.8-.8,2.74-.48l.67,2.94c.55.09,1.13-.74,1.55-.63.84.23.46,1.38.73,1.93,1.01,2.05,3.86,1.22,5.91,1.7,1.28.3.83,2.45.55,3.15l-.57,1.43c-.48-.63-11.38-.54-11.26-.57-1.87-1.44.39-4-1.52-4.27.54-1.1.92-2.78.34-3.91-.61-.33-1.97-.03-2.45-.97-.44-.88-.13-2.6-1.07-3.07-.77-.38-2.01,0-2.51-.43-1.51-1.26,2.55-1.28-6.8-2.6-.41-1.17.05-2.09-.24-3.57-2.47.9-3.57-.51-4.85-1.76-.32-.31-1.99-.15-1.93-.83.03-.32-.16-.97-.35-1.61-1.56.14-2.96-.28-4.18-1.4.67.62-4.5-.45-4.84.44-.6-1.58-.03-4.32,2.45-4.4,1.89-4.44-.74-9.68,3.44-10.89,1.06-.91,1.09-3.27,2.06-4.39,1.96-.52,7.14-.35,7.19,1.84.02.77-.33,1.59-.65,2.27Z"/>
          <path class="cls-36" d="M81.68,152.67l-6.38-.55.75-3.27c-9.22-1.09-5.39.28-8.28-2.46-.44-.42-2.06.24-2.54-.36-.36-.45.11-2.21-.45-2.3-2.16-.32-4.18-.34-5.63-1.61-.67-.58-3.04.65-2.94-1.04.05-.91.43-2.25-.7-2.58-.82-.24-2.48.34-2.76-.45-.56-1.62.43-3.07-.4-4.14.12-.36.61-.54.46-.94.34-.89,5.51.18,4.84-.44,1.22,1.11,2.62,1.54,4.18,1.4.19.64.38,1.29.35,1.61-.06.68,1.61.52,1.93.83,1.28,1.25,2.38,2.65,4.85,1.76.29,1.48-.16,2.4.24,3.57,9.35,1.32,5.3,1.33,6.8,2.6.5.42,1.74.04,2.51.43.94.47.63,2.19,1.07,3.07.47.94,1.84.64,2.45.97.58,1.13.19,2.81-.34,3.91Z"/>
          <path class="cls-91" d="M45.42,143.51c.91.97.37,2.81,0,4.01-.26.84-2.2.1-2.97.33-1.18,1.16.26,6.9-.47,8.09s-3.02-.02-3.48.94c-.14.28-.14.77-.07,1.14-1.17,1-.26,2.42-.59,4.26-2.8-.48-2.62,1.79-3.47,3.29-.61,1.07-2.41,1.15-1.97,3.28.27,1.3,0,3.03,2.27,3.51-.5,1.04-.26,1.53.09.79.84.43,1.81.73,2.73.93.34.48.02,2.01.68,2.36,2.9.3,4.87,1.98,5.57,4.53-1.47.01-2.92.34-4.4.23.03-.71-.73-.59-1.44-.59-2.29,0-2.36-2.93-8.33-3.31-.09-.57.08-1.19-.21-1.73,1.07.33,1.35-.15.45-1.02.97-3.53-.29-7.02.38-10.61.27-1.48,2.58-1.49,3.67-1.92,1.17-3.37-.92-9.85,2.95-9.76.38,0,1.02.03,1.06-.33.06-.56.02-.99-.04-1.37-.07-1.92,2.06-2.45,3.61-2.94.25-1.07,0-2.78.9-3.45.98-.73,2.02-1.24,3.08-.68Z"/>
          <path class="cls-87" d="M52.35,133.91c.82,1.06-.16,2.51.4,4.14.27.79,1.94.21,2.76.45,1.14.33.76,1.67.7,2.58-.1,1.68,2.27.45,2.94,1.04,1.46,1.27,3.47,1.29,5.63,1.61.56.08.09,1.85.45,2.3.48.6,2.1-.05,2.54.36,2.89,2.74-.94,1.37,8.28,2.46l-.75,3.27,6.38.55c1.91.27-.35,2.83,1.52,4.27-.43.1-1.12.51-1.07,1.04,1.11-.87-8.41-2.05-8.84-1.6l-.47-3.86c-2.64-.27-5.09-.14-7.57-.83l-.33-3.6c-1.81.14-3.29.1-4.86-.55l-.04-2.49c-1.87-.3-3.63-.69-4.78-2.35h-9.37c.74-.53,0-1.78.4-2.14l3.31-2.96c-.94-1.52-.13-2.39.68-3.02.57-.45,1.3-1.26,2.08-.66Z"/>
          <path class="cls-96" d="M67.07,108.76c1.26.05.89,1.35,1.07,2.43.26,1.62,2.74.72,3.35,1.55l1.06,1.44c.36.49,1.82.39,2.57.23.85.82.18,2.35,1.22,3.08,1.11.78,3.01-.3,4,.77.16.48-.32,1.48-.21,1.93.2.88.84,1.14,1.53,1.58-.77.16-1.06.52-1.49,1.16-.12-.2,0-.97-.23-1.04-2.49-.75-5.39-.27-7.86-.14-.96-.18-2.29-.47-3.25-.79-.1-1.5-.17-3.58-1.52-3.57.32-.67.66-1.49.65-2.27-.05-2.18-5.23-2.35-7.19-1.84.45-1.21-.75-2.22-.53-4.09,2.3-.56,4.65-.19,6.84-.44Z"/>
          <path class="cls-36" d="M202.23,121.65c-.4-.07-1.46.28-1.75-.22-.51-.87-.32-2.08.06-2.78,1.16.72,2.16,1.38,1.69,3Z"/>
          <path class="cls-36" d="M36.81,152.28c.31-.53.4-1.4,1.02-1.7.06.38.1.81.04,1.37-.04.36-.67.34-1.06.33Z"/>
          <path class="cls-106" d="M72.5,175.74c1.72,1.28.96,1.86.98,4.98l-29.74.26c-.7-2.54-2.67-4.22-5.57-4.53-.66-.35-.34-1.88-.68-2.36,3.35.71,15.4-.59,21.19.32,1.58.25,2.47,1.02,4.37.63,2.27-.46,7.41.57,9.44.7Z"/>
          <path class="cls-68" d="M84.31,171.56c1.17.97,1.19,2.17,1.09,3.58-.3,4.65.33,9.19-.38,13.93-.14.93-.72,1.99-.81,3.06-.08.94-1.82,1.49-2.6,1.44-.27-5.17.32-10.24-.25-15.26-.22-1.92.31-3.45.22-5.29-.05-.92,1.06-1.04,1.64-1.45.21-.15.96.27,1.09-.01Z"/>
          <path class="cls-2" d="M85.87,163.52l-.04,6.92c0,.76-1.03,1.04-1.52,1.12-.13.28-.88-.14-1.09.01-.3-.22-.92-.01-1.06-.41-.09-.23,0-.55-.14-.8-.22-.39.64-6.8.43-9.1.88-.06,2.14-.22,3.08.47.45.34.36,1.36.35,1.79Z"/>
          <path class="cls-139" d="M94.46,157.5c-.29.72-.48,2.59.58,3.11.86.43,1.91-.26,2.24.9.17.6.36,1.39.11,2.65,1.92.84,4.1.08,5.94,1.13.36.2,0,1.53.32,1.93,1.4,1.7,6.74.26,8.65,1.14,1.37,4.44,7.12,1.03,6.15,5.83.02,1.08-5.39.74-8.55.96-2.92.2-6.25,0-9.14-.24-.13-1.12-.29-2.18-.48-2.77-.29-.92-1.95-.3-2.53-.91-.67-.7.08-2.92-1.31-3.26-.95-.24-2.66.23-2.65-1.32.02-4.44-2.83-1.63-7.93-3.14,0-.42.1-1.45-.35-1.79-.94-.69-2.2-.52-3.08-.47l-.3-3.29c-.05-.53.64-.94,1.07-1.04-.13.03,10.78-.06,11.26.57Z"/>
          <path class="cls-24" d="M37.99,171.4c-.1-1,.03-2.12-.36-3.16-2.01.9-2.42-3.33-2.36-3.44.85-1.8,1.69.17,3.25-1.29.28,2.09,5.72.81,7.33,1.53.13,2.28.01,4.23-.08,6.37-2.74.45-5.29.27-7.78,0Z"/>
          <path class="cls-31" d="M38.52,163.5c-1.57,1.47-2.4-.51-3.25,1.29-.05.11.36,4.34,2.36,3.44.39,1.04.26,2.17.36,3.16-.15.73-.95.41-1.67.43-1.03.03-1.62.59-1.56,1.33-.35.73-.6.25-.09-.79-2.27-.49-2.01-2.21-2.27-3.51-.44-2.13,1.36-2.21,1.97-3.28.86-1.5.67-3.77,3.47-3.29.33-1.85-.58-3.26.59-4.26l.1,5.49Z"/>
          <path class="cls-8" d="M175.57,145.78c-1.24-.31-2.84-.12-4.36.1-.85.13-.5,1.25-.51,1.68-.05,4.23-.06,12.35-.1,16.93-1.02-.86-.06,9.36-.71,10.34-.47.46-1.89.45-2.38.23-.4-.18-1.14-.76-1.71-.49l-.3-6.95c-1.85-.1-2.97,1.13-4.27.66l-1.33-1.15c.87.08-6.97,3.74-5.82,3.29-.5-1.96.27-3.92.25-6.25,2.33-.26,4.33-.28,6.66-.94.98-.28.21-2.08.92-2.57,1.29-.34,2.49-.37,2.87-1.16.32-.67.51-2.09-.38-2.57-.74-.4-3-.29-3.33.47-1.01,2.26-2.37,3.03-4.84,3.21-2.09.15-4.03,1.09-6.3.62-.32,2.29-.33,4.26-.17,6.35-2.09.91-4.16.44-6.24.43l-4.28-.02c-.97,0-1.77.15-2.63.13-.04-1.08.24-2.13.41-3.19.73-.52,1.67-.41,2.75-.48,1.57-.11,1.02-2.12,1.37-2.96.55-1.36,2.54-.69,3.78-.69.74-1.22.29-2.48.72-3.61l8.39-.32c.4-1.22.14-2.52.39-3.92l6.54-.6c1.04-.1.39-2.4.65-3.3,1.21-.78,2.96.12,4.13-.8.58-.46-.35-2.65.73-2.98s3.14.42,3.79-1c.76-1.63.27-3.44.79-5l3.43-.33c1.18-.11.27-2.29.69-3.36s2.47-.48,3.51-.64c1.62-.25.78-2.08.8-2.89.72-1.31,3.1-.83,4.62-.96l.91-4.23c.15-.68,2.81.2,3.05-.9.62-2.8.26-5.64.44-8.56-1.08-.13-2.57-.49-3.09.36-.69,1.13.05,2.5-.59,3.9-1.83-.45-3.13-.15-4.41-.07.74-.99.89-2.3,1.07-3.66,1.31-.78,2.96-.03,3.62-1.29,3.53-.38,7.06.65,10.85.73.06,1.45-.68,2.94.3,4,.56.61,2.12-.23,2.78.36,1,.9,1.34,3.54.41,4.8-.7.95-2.46.44-3.02.15l-1.46,6.2c-.39,1.68-4.94.28-5.89,1.25-.56.57-.07,2.58-.39,3.19-.51.99-2.97-.13-3.86,1.07-.52.71-.08,1.64.02,2.92l-6.18,1.05c.19.89.42,1.09.17,1.35-.38.39-.62.61-1.24.59-1.16-.03-2.13.49-2.04,1.47Z"/>
          <path class="cls-39" d="M205.83,144.92c-.57.12-1.4.57-2.15.51-7.24-.58-14.53.23-21.78.09.34-.51.99-.7,1.28-1.29.71,1.17,1.28.15,1.71.12.75-.06.64-1.14.96-1.5,2-2.21,3.43-.25,4.09-1.04,1.17-1.4-.18-2.45.76-3.4.89-.9,3.56.13,4.08-1.31.19-.51.29-1.67.45-2.67,2.81-.76,6.17.27,9.21-.08.99,1.5-1.44,10.44,1.38,10.59Z"/>
          <path class="cls-13" d="M67.3,117.4c1.35,0,1.42,2.07,1.52,3.57.96.33,2.29.61,3.25.79.13.96-.09,2.69.79,3.53.78.75,3.35-.12,4.01,1.42.38.88-.18,2.98,1.31,2.87,1.02-.07,2.25-.14,2.86.59.68.83.4,2.2,1.01,3.15.45.7,2.6-.23,2.63,1.31.02,1.09.24,1.64.78,2.35s1.68.35,2.69.88c1.27.66,1.3,2.28,3.19,1.92,1.24-.24,1.25,1.64,1.71,2.18,2.51.99,6.43.4,9.22.81.58.46.3,1.76.99,2,1,.35,1.69,1.25,2.92.32-.43-.69-1.38-.69-1.55-1.17-.29-.79.04-1.68-.04-2.28,1.44.59,2.09-.52,3.65.27,1.18.6-.02,2.94.89,3.35,1.45.66,4.37-.78,4.91,1.04.15.52.04.9.24,1.15.32.39.78.17,1.64.4.54.14.36.94.6,1.2.41.46,7.15,1.1,5.54,1.13-.46.48-.14,1.92-.85,2.08l-2.65.6c-.36,1.13-.1,2.28-.18,3.46-6.46.83-12.67.49-19.18.43-1.6-.01-3.14.49-4.17-.68.28-.69.73-2.85-.55-3.15-2.06-.48-4.91.35-5.91-1.7-.27-.55.12-1.7-.73-1.93-.41-.11-.99.72-1.55.63l-.67-2.94c-.94-.32-1.79.11-2.74.48l-.75-3.51c-.87.21-1.6.42-2.14.01-1.97-1.49-.51-3.21-.79-4.77l-6.87-.57-.35-3.97-6.57-.33c-.23-2.46.16-4.69-.39-7.07-1.27-.28-2.97.06-4.03-.87-.94-.83-.06-2.44-.72-3.51-.61-.97-1.41-1.29-1.17-2.43.16-.73-.28-1.99,1.22-1.88.8.06,1.57.16,2.3.06.44-.06.39-1.16.97-1.39,1.25-.49,2.53.15,3.69.14Z"/>
          <path class="cls-24" d="M145.16,149.07c-.02.91.78,2.54-.34,3.59-.49.46-1.82-.06-2.28.57s-.7,1.69-.5,3.02c-2.1,1.04-4.32.09-6.52.81-.06,1.01.3,2.9-.78,3.43-1.29.63-3.06.06-4.67.67-1.07.4-.53,1.59-.37,2.28.51,2.29,5.32.15,7.33,1.49-.17,1.06-.45,2.11-.41,3.19-1.43-.03-2.96.1-4.48.35.17,1.1.18,1.81-.05,2.55-.15.5-.73.7-1.46,1.01l-5.24-.06c-.62,0-1.06-.03-1.6.32-.44.28-.38.81-.76,1.85-.32.87-2.23.28-2.99.49-.53.14-1.1-.23-1.58-.42.97-4.79-4.79-1.39-6.15-5.83-1.91-.88-7.25.56-8.65-1.14-.33-.4.04-1.72-.32-1.93-1.84-1.05-4.02-.29-5.94-1.13.25-1.27.06-2.06-.11-2.65-.33-1.16-1.38-.47-2.24-.9-1.06-.53-.86-2.4-.58-3.11l.57-1.43c1.03,1.17,2.57.66,4.17.68,6.51.06,12.73.39,19.18-.43.08-1.18-.18-2.33.18-3.46l2.65-.6c.71-.16.39-1.61.85-2.08l20.5-.39c.87-.02,1.67-1.15,2.58-.72Z"/>
          <path class="cls-62" d="M137.02,164.92c-2.01-1.34-6.82.8-7.33-1.49-.15-.68-.7-1.88.37-2.28,1.62-.6,3.38-.04,4.67-.67,1.08-.53.72-2.41.78-3.43,2.2-.72,4.43.23,6.52-.81-.2-1.33.05-2.39.5-3.02s1.79-.11,2.28-.57c1.12-1.05.32-2.68.34-3.59.02-.84.67-2.72,1.17-3.74,1.06.07,7.59-1.04,5.72-2.79.66-.35,1.78-.41,2.51-1.02.14-1.26-.12-2.36.17-3.63,1.14-.2,1.97-.07,3.38-.08.19-1.61,1.19-2.65,3.19-2.37.44-1.02.67-1.56,1.2-1.68.9-.2,1.94-.24,2.89,0,.56-1.26.17-2.49.55-3.68,1.25-.55,2.61.24,3.77-.64-.14-1.3-.27-2.31.2-2.75.41-.39,1.58-.02,1.96-.43,1.02-1.11.24-2.56.92-4.24l7.63-.47c1.28-.08,2.58-.38,4.41.07.64-1.4-.1-2.78.59-3.9.52-.84,2.01-.49,3.09-.36-.18,2.92.18,5.76-.44,8.56-.25,1.11-2.91.23-3.05.9l-.91,4.23c-1.52.13-3.9-.35-4.62.96-.02.81.82,2.64-.8,2.89-1.04.16-3.09-.42-3.51.64s.5,3.25-.69,3.36l-3.43.33c-.52,1.57-.03,3.37-.79,5-.66,1.41-2.68.65-3.79,1s-.15,2.53-.73,2.98c-1.17.93-2.92.02-4.13.8-.26.91.39,3.21-.65,3.3l-6.54.6c-.25,1.39.02,2.7-.39,3.92l-8.39.32c-.43,1.14.01,2.39-.72,3.61-1.23,0-3.22-.67-3.78.69-.34.84.21,2.85-1.37,2.96-1.08.07-2.02-.03-2.75.48Z"/>
          <path class="cls-84" d="M80.16,122.94c.33.52-.16,1.67.18,2.09.93,1.16,3.43-.22,3.84,1.36.1.39-.06,1.18.19,1.69,5.54.59-1.58.93,6.26,2.37l.41,2.73c1.24.57,2.5.53,3.85.5l.57,3.75c2.63-.37,4.66.35,6.7,1.92.48.37,1.8-.24,2.23.55.26.49.14,1.14.21,1.72s-.25,1.49.04,2.28c.17.48,1.13.48,1.55,1.17-1.23.93-1.92.04-2.92-.32-.69-.24-.41-1.54-.99-2-2.79-.41-6.71.18-9.22-.81-.46-.54-.47-2.42-1.71-2.18-1.89.36-1.92-1.26-3.19-1.92-1.01-.53-2.14-.17-2.69-.88s-.76-1.27-.78-2.35c-.03-1.54-2.18-.61-2.63-1.31-.61-.95-.33-2.32-1.01-3.15-.61-.73-1.84-.67-2.86-.59-1.49.11-.92-1.98-1.31-2.87-.67-1.54-3.23-.67-4.01-1.42-.88-.84-.66-2.57-.79-3.53,2.47-.13,5.38-.61,7.86.14.23.07.1.84.23,1.04Z"/>
          <g>
            <path class="cls-163" d="M184.92,43.24c-1.55,21.42-.54,43.67-.46,65.68,0,1.36-.05,2.93-.46,4.36-1.52.26-3.45-.53-4.29.63-.58.79.34,3.11-.94,3.44-1.62.42-3.39-.34-4.71.5-.37.24-.4,1.14-.98,1.28-.35.08-.88-.38-1.17-.29-1.38.43-.71,2.65-1.47,3.28-1.09.91-2.81.1-3.93.88-.36,1.2.25,2.55-.28,3.44-.75,1.25-2.57.6-3.61,1.18-.23.57.11,1.45-.23,1.79-1.29,1.32-3.19.05-3.55,1.01-.24.63-.26,1.29-.16,2.34l-4.53,1.38c-.08,1.08.16,2.87-.97,3.19-1.22.33-2.82-.38-3.45.83-.38.74.11,1.86-.44,2.48l-4.49.7c-.15.02-9.97,2.18-9.99,2.22l-.44,1.38c-.3.94-12.38.17-14.9.69-.62.01-.45-.73-.18-1.06-.24-.86-.47-1.78.12-2.52,4.82-.87,9.45,1.12,9.33-2.53-.11-3.32.39-6.65.46-10.21l.38-19.06c1,.03,2.67-.08,2.62-1.25-.05-.98-1.22-2.21.05-3.18,1.6-1.23,2.13,1.21,6.89.62-.16.54.03,1.1.17,2.23l9.95-.09c1.03.52,2.92.85,4.28.47,1.55-.43.84-2.59.71-3.48,1.2-.3,2.67.4,3.74-.19,2.38-1.3,6.18-.1,7.76-1.36,1.36-1.09.42-3.49.48-5.15,1-1.02,2.33-.61,3.9-.71l.52-22.71c.02-1.07.26-2.05.74-2.67.4-.51,2.44-.22,2.66-.83,1.04-3.2.69-6.75.7-9.98l.12-23.8c-3.36.38.03-6.04-1.5-8.26-.48-.7-2.04-.25-2.71-.34.05-1.59-.57-3.17-.06-5.22-1.78-.27-2.95.11-4.48-.34l-.37-4.54-3.97-.25-.43-4.29c-1.41-.22-3.45.25-4.3-1.06-.32-.49.42-1.74-.24-2.26-1.33-1.05-5.61-.41-7.34-.83-.66-.83-.04-2.31-.84-2.89-.97-.7-2.27.1-3.39-.28l-.52-2.9-35.34-.16c-.14-.21-.31-.24-.52-.1.17-1.25-.07-2.49.31-4.3l36.95-.15c.59.35.22,1.46.73,1.66.72.28,1.02.31,1.23.56.3.37.11,1.46.41,1.62,1.52.82,3.78.25,5.68.53.9.13.41,1.72.8,1.95,1.79.87,3.89.29,5.85.65l.52,3.59c1.59.13,2.73.12,4.04.37.57,1.29.05,2.54.35,3.86l4.14.59c.46,1.26-.25,3.29.71,4.03,1.17.9,2.72.02,3.78.62l.41,4.38c1.3.21,2.62-.26,3.41.35.87.68-.21,2.59.37,3.33.95,1.24,1.75,2.2,1.32,4.18l4.65.35c-.97,3.54.68,7.37.44,10.61Z"/>
            <path class="cls-114" d="M108.7,5.07c-.42.36-.15.8-.33,1.06-.34.48-1.4-.22-1.72.09-1.03.99-1.99,1.83-4.03,1.05l-.86,3.47-4.49.97c-1.07,6.52-7.58-.42-7.07,6.95-2.12.93-4.37.59-6.73.99l-.38,4.54c-1.08.29-2.68-.26-3.33.74-.69,1.05.32,2.74-.74,3.58-1.07,1.16-5.16.2-6.48.81.34,1.46.19,3.19,1.08,3.83.55.29,1.67.31,2.04.63-1.15,2.42-.03,5.25-.03,8.08l.08,38.25c1.53.41,2.76-.18,3.92.45l.25,12.56,4.62.39.17,11.42,4.32.4c.2,1.4-.08,2.65.38,4.04,1.07.3,2.14-.05,3.17.47.97,2.5.94,4.89,1.62,7.58,3.62.32,6.98.55,10.82.29l.26,9.83,8.66.33c.47,1.32-.15,2.58.67,3.82,1.39-.4,3.38-.28,3.38,1.31,0,.83-.14,1.95.4,2.35.33.25,1.46.12,1.51.84-.1.84-1.44,2.59-.17,2.92,1.13.07,2.56.02,4.11.12l4.94.31c.12,3.65-4.51,1.65-9.33,2.53-1.89.34-6.77-1.03-9.85-1.1l-1.18-3.23c-1.38.07-3.57.63-3.89-.82-.19-.89.27-1.72-.15-2.27-.94-1.22-2.75.05-3.86-1.02-.23-.22-.05-1.02-.5-1.29-1.56-.79-3.17-.5-4.83-.94-.28-.78.04-1.56-.52-2.26-1.21.4-1.9-.09-2.62-.11-1.06-.03-.45-1.55-1.23-1.81-1.3-.44-3.93.36-4.37-1.02-.56-1.74.21-3-1.53-3.72-.95-.39-1.99-.94-3.21-.68-.69-.45-1.33-.7-1.53-1.58-.1-.45.37-1.45.21-1.93-.99-1.07-2.89,0-4-.77-1.04-.73-.37-2.26-1.22-3.08-.75.16-2.21.26-2.57-.23l-1.06-1.44c-.61-.83-3.09.08-3.35-1.55-.17-1.08.19-2.37-1.07-2.43-.62-5.79,2.27-13-.29-17.83l-1.4-2.64-.29-47.48c0-.6.75-.96.87-1.31.1-.86-.35-1.86.61-2.3.65-.3,1.31-.65,2.16-.14,1-4.17-1.26-6.72,2.76-8.3,1.95-.77,1.32-4.79,4.75-4.51.44.04.59-.32.86-.54.39-.3.37-.72.12-1.07-.38-2.42,2.29-2.82,4.3-3.26.71-.92.52-3.5,2.23-3.78.91-.15,2.18.14,2.52-1.23,1.44-5.76,7.41-1.12,7.95-4.71.38-2.52,2.79-2.16,3.85-2.97,1.78-1.35,2.89-2.76,5.61-1.79,1.42.5,3.69-1.16,5.03.18Z"/>
            <path class="cls-157" d="M188.7,108.93h-4.24c-.09-22.01-1.09-44.27.46-65.68.98.24,2-.2,3.34.31l.44,65.38Z"/>
            <path class="cls-70" d="M188.7,108.93l5.27.07c.55,1.55.63,2.69.68,3.89.06.6-.58.53-.81.39-.56-.33-.8-.79-.83-1.59-1.04,2.42-4.59.78-7.25,1.77-1.17.43-.68,2.34-.65,3.17-.66,1.26-2.31.51-3.62,1.29-.18,1.36-.33,2.67-1.07,3.66l-7.63.47c-.68,1.68.1,3.13-.92,4.24-.38.41-1.54.04-1.96.43-.47.44-.35,1.45-.2,2.75-1.16.88-2.52.09-3.77.64-.38,1.18.01,2.42-.55,3.68-.95-.25-1.99-.2-2.89,0-.53.12-.75.66-1.2,1.68-2-.28-3,.76-3.19,2.37-1.41.01-2.24-.12-3.38.08-.3,1.26-.03,2.37-.17,3.63-.73.6-1.85.67-2.51,1.02-1.12-.53-3.18-.33-2.77-1.91.55-.62.06-1.74.44-2.48.63-1.21,2.23-.49,3.45-.83,1.14-.31.9-2.11.97-3.19l4.53-1.38c-.11-1.05-.08-1.7.16-2.34.36-.96,2.26.3,3.55-1.01.34-.35,0-1.22.23-1.79,1.04-.58,2.87.07,3.61-1.18.54-.9-.07-2.25.28-3.44,1.12-.77,2.85.03,3.93-.88.76-.63.09-2.85,1.47-3.28.29-.09.82.37,1.17.29.58-.14.61-1.04.98-1.28,1.32-.84,3.1-.07,4.71-.5,1.28-.33.36-2.65.94-3.44.84-1.16,2.77-.37,4.29-.63.4-1.43.46-3,.46-4.36h4.24Z"/>
            <path class="cls-36" d="M76.22,24.24c-.28-.65.39-1.37.98-1.6.26.35.27.76-.12,1.07-.27.21-.42.57-.86.54Z"/>
            <path class="cls-92" d="M157.97,105.38c.75-1.7.42-3.6.46-5.42,1.43-.14,2.8.03,4.47-.34l-.13-20.37c.68-.06.4-.63.14-.63-3.08,0,.27-1.05-.76-4.22-.37-1.15,1.02-2.1.92-2.73-.38-2.36,1-3.75,2.69-4.85l.23-8.82c1.22-.53,2.22-.04,3.8-.44,1.84-8.52.49-16.79.75-24.75l.11-3.23c.68.08,2.23-.36,2.71.34,1.53,2.22-1.86,8.63,1.5,8.26l-.12,23.8c-.02,3.23.34,6.78-.7,9.98-.22.6-2.26.32-2.66.83-.49.62-.72,1.6-.74,2.67l-.52,22.71c-1.57.1-2.9-.31-3.9.71-.06,1.66.88,4.06-.48,5.15-1.58,1.27-5.38.06-7.76,1.36Z"/>
            <path class="cls-41" d="M162.77,79.25l.13,20.37c-1.67.38-3.04.2-4.47.34-1.11.11-2.39-.47-3.83.08-.71,1.19.32,3.02-.53,4.04-1,1.21-2.98.11-4.28.73-1.13.55-.53,2.8-.56,3.77l-9.95.09c-.14-1.14-.33-1.69-.17-2.23.62-2.07-3.96-.12-3.99-1.55-.05-2.07-.21-3.8.12-5.61,1.63-.25,2.81.23,4.06-.14l.45-3.03,9.42-.54.51-6.9,3.51-.39.64-6.04c1.72.19,2.95.31,4.24-.25.22-.82-.12-1.64.26-2.5l4.45-.23Z"/>
            <path class="cls-77" d="M81.65,121.77c1.23-.26,2.27.29,3.21.68,1.74.72.97,1.98,1.53,3.72.44,1.38,3.07.58,4.37,1.02.78.26.17,1.78,1.23,1.81.72.02,1.41.51,2.62.11.56.69.24,1.48.52,2.26,1.66.44,3.27.15,4.83.94.45.27.27,1.08.5,1.29,1.12,1.06,2.92-.2,3.86,1.02.42.55-.04,1.39.15,2.27.32,1.44,2.51.89,3.89.82l1.18,3.23c3.08.07,7.96,1.44,9.85,1.1-.59.74-.36,1.66-.12,2.52-.27.33-.44,1.07.18,1.06,2.52-.52,14.6.25,14.9-.69l.44-1.38s9.84-2.2,9.99-2.22l4.49-.7c-.4,1.58,1.66,1.38,2.77,1.91,1.87,1.75-4.66,2.86-5.72,2.79-.5,1.02-1.15,2.9-1.17,3.74-.91-.43-1.71.7-2.58.72l-20.5.39c1.61-.03-5.14-.68-5.54-1.13-.23-.26-.05-1.06-.6-1.2-.86-.23-1.33,0-1.64-.4-.2-.25-.09-.63-.24-1.15-.54-1.82-3.46-.38-4.91-1.04-.91-.41.29-2.76-.89-3.35-1.56-.79-2.21.32-3.65-.27-.07-.58.05-1.24-.21-1.72-.43-.79-1.76-.18-2.23-.55-2.04-1.58-4.07-2.3-6.7-1.92l-.57-3.75c-1.35.03-2.6.07-3.85-.5l-.41-2.73c-7.83-1.44-.72-1.78-6.26-2.37-.25-.51-.09-1.3-.19-1.69-.41-1.58-2.91-.2-3.84-1.36-.33-.42.16-1.56-.18-2.09.43-.64.71-1,1.49-1.16Z"/>
            <path class="cls-146" d="M158.43,99.96c-.04,1.82.29,3.72-.46,5.42-1.08.59-2.54-.11-3.74.19.12.89.83,3.05-.71,3.48-1.35.38-3.25.04-4.28-.47.04-.97-.56-3.23.56-3.77,1.3-.63,3.28.47,4.28-.73.85-1.02-.18-2.85.53-4.04,1.44-.55,2.71.04,3.83-.08Z"/>
            <path class="cls-26" d="M75.66,33.77c-.38-.31-1.49-.33-2.04-.63-.89-.64-.74-2.37-1.08-3.83,1.32-.61,5.41.36,6.48-.81,1.32,1.24.02,3.03.37,4.72-1.36.36-2.6.35-3.73.55Z"/>
            <g>
              <path class="cls-114" d="M108.7,5.07c.11-.19.11-.41.14-.62.2-.14.38-.11.52.1.06.42-.3.57-.66.52Z"/>
              <path class="cls-143" d="M170.65,29.58l-.11,3.23c-.26,7.96,1.09,16.24-.75,24.75-1.58.4-2.58-.1-3.8.44l-.23,8.82c-1.69,1.1-3.07,2.49-2.69,4.85.1.64-1.29,1.59-.92,2.73,1.03,3.17-2.32,4.23.76,4.22.26,0,.54.57-.14.63l-4.45.23c-.38.86-.03,1.68-.26,2.5-1.29.55-2.52.43-4.24.25l-.64,6.04-3.51.39-.51,6.9-9.42.54-.45,3.03c-1.25.37-2.43-.11-4.06.14-.33,1.81-.17,3.54-.12,5.61.03,1.42,4.61-.53,3.99,1.55-4.76.59-5.29-1.85-6.89-.62-1.26.97-.1,2.21-.05,3.18.06,1.17-1.61,1.28-2.62,1.25l-.38,19.06c-.07,3.56-.57,6.88-.46,10.21l-4.94-.31c-1.54-.1-2.98-.05-4.11-.12-1.26-.33.08-2.08.17-2.92-.05-.71-1.17-.59-1.51-.84-.54-.4-.4-1.52-.4-2.35,0-1.59-1.99-1.71-3.38-1.31-.83-1.24-.2-2.5-.67-3.82l-8.66-.33-.26-9.83c-3.84.27-7.19.03-10.82-.29-.68-2.69-.65-5.09-1.62-7.58-1.03-.51-2.1-.17-3.17-.47-.46-1.38-.17-2.64-.38-4.04l-4.32-.4-.17-11.42-4.62-.39-.25-12.56c-1.16-.63-2.39-.04-3.92-.45l-.08-38.25c0-2.83-1.12-5.65.03-8.08,1.12-.2,2.37-.19,3.73-.55-.35-1.68.95-3.48-.37-4.72,1.06-.84.05-2.53.74-3.58.66-1,2.25-.45,3.33-.74l.38-4.54c2.37-.41,4.61-.06,6.73-.99-.51-7.38,6-.44,7.07-6.95l4.49-.97.86-3.47c2.04.79,3-.05,4.03-1.05.32-.31,1.38.39,1.72-.09.18-.25-.09-.69.33-1.06.36.05.72-.1.66-.52l35.34.16.52,2.9c1.12.38,2.43-.42,3.39.28.8.58.19,2.06.84,2.89,1.73.42,6.02-.22,7.34.83.66.52-.08,1.77.24,2.26.86,1.31,2.89.84,4.3,1.06l.43,4.29,3.97.25.37,4.54c1.54.44,2.7.07,4.48.34-.51,2.05.11,3.63.06,5.22Z"/>
              <path class="cls-1" d="M93.87,79.56c.78.02,1.98-.33,2.65.43.41.46-.04,1.98.47,2.22,1.14.53,2.53-.05,3.7.24.42,1.94.12,3.77.14,5.75,1.53.46,2.92.03,4.52.33l.18,7.27,8.58.43c.03.99-.42,2.66.58,2.92,1.44.37,2.75-.29,4.24.25-.09,1.99.67,4.36-.54,5.79-1.13.39-2.93-.43-4.01.19-.2,1.18.06,2.2-.32,3.53l-8.82-.06-.42-3.91c-1.72-.42-3.41.12-5.09-.6l-.33-4.12-6.57-.68c-.1-.99.05-2.23-.5-2.71,1.19.44-.88-20.97,1.52-17.25Z"/>
              <path class="cls-110" d="M93.87,79.56c-2.4-3.72-.33,17.69-1.52,17.25-.89.37-1.77.5-3.1.11.04-5.93-.47-11.75.22-17.64.13-1.15,2.78-1.06,3.16.34.65-.34,1.04-.46,1.24-.06Z"/>
            </g>
          </g>
          <path class="cls-54" d="M167.51,175.06c-1.94-2.24-1.02,9.72-1.02,10.17l-.15,37.84c-.02,4.44-1.57,9.35-.53,13.98l-25.66.21c-1.25.01-2.57-.52-4.06-.28-.28-1.45.16-2.54-.5-3.84l-21.45.14c.23,1.97.04,3.03-.11,4.15l-18.65-.39c-.72-.02-.47-.94-.4-1.27.14-.63,1.58-.29,1.77-.69.83-1.75.36-3.91.83-5.66l1.08-.86c.2.11.92.2,1.31-.04,1.18-.73-.05-2.4,1.14-3.19.38-.26,1.53-.01,1.88-.57.59-.96-.02-1.8.21-2.29.37-.79,1.49-1.03,2.55-.79.57-1.14.43-2.26.43-3.32.17-1.38,1.46-1.47,2.18-1.91.07-1.91.59-4.57.49-6.65l-.24-4.89c-.54-.15-1.25.22-1.45-.06-.03-.61.66-.36,1.1-.42l.16-3.07c2.34.06,9.17-1.41,8.54,1.87.59.38,1.06.42,1.51.61.03,2.06-.09,4.2.19,6.35.47.62,1.97.63,2.75.81.36,1.23-.2,2.37.43,3.58l10.16-.18.12-9.8c1.22-.32,2.62.57,3.84-.09l-.52,12.28,3.93.15c.31,1.93-.18,3.8,0,5.75.15,1.51,11.45,1.05,13.81,1.09l1.09-2.14c.92-.37,3.05.38,3.52-.63s-.02-2.8.84-3.57c.46-.41,2.28-.17,2.32-1.19l.73-18.72.51-22.29c1.34-.13,2.55-.21,3.6-.71.57-.27,1.31.31,1.71.49Z"/>
          <path class="cls-44" d="M120.03,174.62c-.03,1.53.04,3-.2,4.84l-5.16.44c-1.32.11-2.94-.65-4.48-.46l-.29-4.28c3.15-.22,8.57.12,8.55-.96.48.19,1.05.56,1.58.42Z"/>
          <path class="cls-3" d="M165.8,174.57c-1.06.5-2.26.57-3.6.71l-.51,22.29-.73,18.72c-.04,1.02-1.86.77-2.32,1.19-.85.77-.37,2.57-.84,3.57s-2.6.26-3.52.63l-1.09,2.14c-2.36-.04-13.66.42-13.81-1.09-.19-1.95.3-3.82,0-5.75l-3.93-.15.52-12.28.47-13.22h4.05s.33-2.29.33-2.29c1.6-1.26.76-3.79.93-5.96.08-1.1-1.9-.45-2.59-.93-.59-.42-.83-1.72-.96-2.28-.24-1.01.01-2.85-.09-4.35l15.08-.96c.58.53,1.42.37,2.05.48,2.17.36,4.28-3.58,4.57-4.33.27-.7,2.09-1.21,1.41-2.41,1.3.48,2.42-.75,4.27-.66l.3,6.95Z"/>
          <path class="cls-23" d="M154.08,170.42c-1.61.63-.67,2.77-.88,4.12l-15.08.96c.1,1.5-.15,3.34.09,4.35-1.32-.68-4.85.28-6.1-.45-1-.59.52-4.21-1.49-7.38.73-.3,1.3-.51,1.46-1.01.23-.74.22-1.45.05-2.55,1.52-.25,3.05-.38,4.48-.35.85.02,1.66-.13,2.63-.13l4.28.02c2.07.01,4.15.48,6.24-.43-.16-2.09-.15-4.06.17-6.35,2.27.47,4.21-.46,6.3-.62,2.47-.18,3.83-.96,4.84-3.21.34-.75,2.6-.86,3.33-.47.89.48.7,1.9.38,2.57-.38.79-1.58.82-2.87,1.16-.71.49.06,2.28-.92,2.57-2.33.66-4.33.68-6.66.94.02,2.33-.75,4.29-.25,6.25Z"/>
          <path class="cls-17" d="M170.41,184.24c-1.19.87-2.45,1.21-3.92.99,0-.45-.92-12.41,1.02-10.17.49.22,1.91.23,2.38-.23.65-.98-.31-11.19.71-10.34l-.19,19.75Z"/>
          <path class="cls-68" d="M161.23,168.28c.68,1.2-1.14,1.72-1.41,2.41-.29.75-2.4,4.69-4.57,4.33-.64-.11-1.47.06-2.05-.48.22-1.35-.73-3.48.88-4.12-1.15.45,6.7-3.22,5.82-3.29l1.33,1.15Z"/>
          <path class="cls-69" d="M170.41,184.24l.15,37.84c-1.05,1.21-2.77.65-4.21.99l.15-37.84c1.47.22,2.73-.11,3.92-.99Z"/>
          <path class="cls-47" d="M170.72,223.1c-1.72,4.22-.06,9.12-.88,13.88-1.23.33-2.78.07-4.02.08-1.04-4.63.51-9.55.53-13.98,1.45-.33,3.16.23,4.21-.99,0,.33.31.64.16,1.01Z"/>
          <path class="cls-85" d="M136.45,191.31l-.47,13.22c-1.22.66-2.62-.22-3.84.09.03-2.3-1.15-13.1.67-13.04,1.24.04,2.42-.28,3.64-.27Z"/>
        </g>
        <g>
          <path class="cls-117" d="M137.15,188.93c-1.65-.04-3.29.06-4.95.07-1.24,0-2.44-.32-4.05.35.21,5.57.61,11.05.38,16.22l-.17,3.68c-1.93.35-3.7.46-5.55-.13.15-6.91.28-12.73-.11-19.89l-8.67-.45c-.44-2.41.18-4.34-.42-6.13-.2-.38.14-.71.53-.57-1.07,1.05,7.05.2,8.49.55l.39-7.31c1.54.12,3.31-.16,5.02.28l.21,6.93c3.09.25,5.94-.03,8.85-.16.5,2.48.44,4.55.05,6.56Z"/>
          <path class="cls-137" d="M113.61,182.64c.6,1.79-.01,3.72.42,6.13l8.67.45c.39,7.16.26,12.98.11,19.89,1.84.58,3.62.48,5.55.13l.17-3.68,3.61-.94-.12,9.8-10.16.18c-.64-1.21-.08-2.34-.43-3.58-.79-.18-2.28-.2-2.75-.81-.28-2.16-.17-4.29-.19-6.35-.05-3.93.18-7.88-.1-12.1-1.42-.53-2.79-.11-4.22-.56-.45-.14-.18-1.36-.62-1.54-1.2-.5-2.34-.37-3.64-.76-.02-2.22-.13-4.12.07-6.19,1.43-.21,2.53-.1,3.63-.06Z"/>
          <path class="cls-55" d="M130.62,172.02c2.01,3.18.49,6.79,1.49,7.38,1.24.73,4.77-.22,6.1.45.13.56.37,1.86.96,2.28.69.48,2.67-.17,2.59.93-.17,2.17.67,4.7-.93,5.96l-3.68-.1c.38-2.01.45-4.08-.05-6.56-2.91.13-5.76.41-8.85.16l-.21-6.93c-1.71-.44-3.49-.17-5.02-.28l-.39,7.31c-1.43-.35-9.56.5-8.49-.55-.02-.75-.4-1.99.53-2.18l5.16-.44c.24-1.84.17-3.31.2-4.84.75-.2,2.67.38,2.99-.49.39-1.04.33-1.57.76-1.85.54-.35.98-.33,1.6-.32l5.24.06Z"/>
          <path class="cls-73" d="M132.2,188.99c-.23.44-.46.78-.49,1.34-.04.76.85.61,1.09,1.25-1.82-.06-.64,10.73-.67,13.04l-3.61.94c.24-5.18-.16-10.65-.38-16.22,1.61-.67,2.81-.34,4.05-.35Z"/>
          <path class="cls-72" d="M137.15,188.93l3.68.1-.33,2.3h-4.05c-1.22-.02-2.41.3-3.64.26-.25-.65-1.13-.49-1.09-1.25.03-.56.26-.91.49-1.34,1.65,0,3.3-.11,4.95-.07Z"/>
        </g>
        <g>
          <path class="cls-153" d="M37.61,242.77c0-.45-.09,5.35-.81,3.87-.96.06-1.88.28-2.32-.77-.3-.72-.74-1.53-.6-2.74l-4.33-.44.08-23.32c1.01-.48,2.24-.38,3.41.11.21.92.09,1.71.62,2.67,1.45-.12,2.56-.61,3.82-.2l.13,20.81Z"/>
          <path class="cls-29" d="M63.03,255.18c-2.81.72-5.82,1.36-8.66,1.55-2.64.17-5.32-.09-8.25-.08-.78-2.17.71-5.12-1.35-4.75-.2-.63.56-.4,1.09-.59-.04-1.41-.04-2.64-.5-3.61.83-1.02-.28-2.6.4-3.79,0,1.8,2.08.37,4.15,1.2l.23,6.78,15.01-.08c-.74,1.54-2.39,2.02-2.11,3.38Z"/>
          <path class="cls-81" d="M45.6,242.97c0,.33-.07.7.16.93-.69,1.2.43,2.78-.4,3.79-2-.22-4.25-.64-6.4.34-.63.37-.01,1.83-1.25,1.83-.01-.9.79-2.64-.44-2.73-.31-.02-.62-.05-.48-.49.72,1.48.81-4.32.81-3.87,3.51-.21,6.13-1.53,7.99.2Z"/>
          <path class="cls-51" d="M45.36,247.69c.46.98.46,2.2.5,3.61-.53.19-1.29-.03-1.09.59l-7.4-.03c-.14-1.77-.27-3.28-.09-4.75,1.23.09.42,1.83.44,2.73,1.23,0,.62-1.46,1.25-1.83,2.14-.98,4.4-.57,6.4-.34Z"/>
          <path class="cls-61" d="M49.9,210.78l.26,25.66c0,.73-.61,2.43.39,2.89,1.38.64,3.89.25,5.19-.43.4-1.04,1.12-3.46,2.86-2.97,3.69,1.05,8.98-.72,8.61-3.72-.13-1.04,1.1-.05,2.13-2.41.63-1.45.77,1.28,6.44-.84,1.7-.64,3.82.75,5.42-.35.43-.65.19-1.59.8-2.31.83.47,1.96.09,2.67-.18.46-.17.49-.59.44-1.65,4.49-2.07-1.88-2,8.16-4.38l.5,1.43c-.46,2.46-.11,4.98.07,7.42.2,2.58-.45,5.24-.04,8.05l-4.69.11c-.48,1.07-.15,2.18-.46,3.27l-4.32.45c-.08,1.04.67,2.84-.29,3.5s-2.83-.37-3.54.74c-.33.53.37,2.5-.44,2.69-2.48.58-4.79-.09-7.24.24-.47,1.3-.18,2.54-.83,3.54-.77.17-2.3-.78-3.18.05-.64,1.23-.4,3.19-.45,4.53-1.58-.44-3.78-.6-5.34-.93-.28-1.36,1.37-1.84,2.11-3.38l-15.01.08-.23-6.78c-2.06-.83-4.14.6-4.15-1.2-.24-.23-.17-.6-.16-.93l.3-31.95,4.01-.24Z"/>
          <path class="cls-162" d="M39.34,181.21c-.58-.04-1.53.35-2.14.72-.89.55-.03,1.74.23,2.35.34.82,1.76.09,2.5.32.98.31,1.2,3.51.14,3.81-1.73.48-4.23.56-6.01-.05-2.12-.73.94-5.01-.22-7.57-1.39-.51-3.02.31-4.04-.47-.8-.67-.09-2.19-.23-3.01,5.96.38,6.04,3.3,8.33,3.31.71,0,1.47-.12,1.44.59Z"/>
          <path class="cls-124" d="M73.57,185.75c-.71,1.12-.82,2.35-.69,3.84-3.4.29-6.07-.14-8.81-.09l.41-4.32c3.38.57,6.33-.18,9.09.57Z"/>
          <path class="cls-120" d="M49.62,202.42c.41,2.79.25,5.53.28,8.36l-4.01.24c.02-2.21-.66-8.21,3.73-8.6Z"/>
          <path class="cls-133" d="M107.17,204.86c.21.27.91-.1,1.45.06l.24,4.89c.1,2.08-.41,4.74-.49,6.65-.72.44-2.01.53-2.18,1.91,0-.74.12-1.99-.68-2.26-.67-.22-2.22-.49-2.39.54-.26,1.56-.36,2.78.25,4.73-1.55,0-3.19-.14-5.13.24-.41,2.4-.4,4.53-.27,6.77.43.09.68.14.71.17l-1.08.86c-.93-1.03-2.51-.9-3.74-.49-.19-2.44-.53-4.96-.07-7.42,1.16-.81,2.57.89,3.49-.73.33-.57-.09-1.32-.43-2.17l.82-.57c.55-.38-3.64-2.21-2.17-5.56l1.6.02c.91,2.77-1.11,2.93,1.79,5.24.57.45,2.3.89,3.1-.1,1.33-1.63.19-4.7.11-6.71-.09-2.2.35-4.9-.77-6.96-.59-1.08-1.48-1.55-.3-3.31l-7.52-.2c0,3.19-1.38,9.62.96,10.01-.44.6-1.09.54-1.18,1.45-.45-.92-1.47-1.07-2.55-1.16-.12-3.04-.66-14.17.62-15.95.19-.27,2.97-1.21,3.23-.18.67,2.71-.4,1.13,6.25,1.79l.42,3.92c1.37.35,2.79-.32,3.95.3,1.06.57-.74,3.13.81,4.09.27.17.82-.3,1.15.13Z"/>
          <path class="cls-121" d="M58.61,235.92c-1.74-.49-2.47,1.93-2.86,2.97-1.31.68-3.81,1.08-5.19.43-1-.46-.38-2.16-.39-2.89l3.36-.78c.49-.75.06-2.01.72-2.47,1.19-.83,2.71-.51,3.88-.65.28,1.12.67,2.22.48,3.38Z"/>
          <path class="cls-56" d="M67.22,232.2c.37,3-4.92,4.77-8.61,3.72.19-1.16-.2-2.27-.48-3.38,3.01-.37,6.07-.4,9.09-.34Z"/>
          <path class="cls-74" d="M95.48,212.48c-1.47,3.34,2.73,5.17,2.17,5.56l-.82.57c.34.85.76,1.6.43,2.17-.93,1.62-2.34-.08-3.49.73l-.5-1.43c-.86-2.46-.25-5.45,0-8.15.09-.92.73-.85,1.18-1.45.58.09,1.26,1.48,1.02,2.01Z"/>
          <g>
            <path class="cls-13" d="M109.91,175.15l.29,4.28c1.53-.2,3.16.57,4.48.46-.93.19-.55,1.43-.53,2.18-.39-.14-.72.19-.53.57-1.1-.04-2.2-.16-3.63.06-.2,2.08-.09,3.98-.07,6.19,1.3.39,2.44.26,3.64.76.44.18.17,1.4.62,1.54,1.43.45,2.81.03,4.22.56.28,4.23.05,8.18.1,12.1-.44-.19-.91-.23-1.51-.61.62-3.28-6.2-1.8-8.54-1.87l-.16,3.07c-.44.06-1.13-.19-1.1.42-.33-.43-.88.04-1.15-.13-1.55-.96.25-3.52-.81-4.09-1.16-.62-2.58.05-3.95-.3l-.42-3.92c-6.65-.66-5.58.92-6.25-1.79-.26-1.04-3.04-.09-3.23.18-1.28,1.78-.74,12.91-.62,15.95,1.07.09,2.09.24,2.55,1.16-.26,2.7-.86,5.69,0,8.15-10.04,2.39-3.66,2.32-8.16,4.38.05,1.05.01,1.47-.44,1.65-.71.27-1.84.64-2.67.18-.61.72-.37,1.66-.8,2.31-1.6,1.11-3.72-.28-5.42.35-5.67,2.13-5.81-.6-6.44.84-1.03,2.36-2.25,1.36-2.13,2.41-3.03-.06-6.09-.03-9.09.34-1.17.15-2.69-.18-3.88.65-.66.46-.23,1.71-.72,2.47l-3.36.78-.26-25.66c-.03-2.82.13-5.57-.28-8.36-.27-1.83.86-4.27.3-6.52,1.45-.52,2.52-.17,3.83-.55.68-.2.31-1.3.52-1.74,1.47-.62,3.16-.08,4.96-.37.2-1.1-.46-3.22.48-3.67,1.49-.39,3.07-.04,4.35-.07,2.74-.05,5.41.38,8.81.09-.13-1.49-.02-2.72.69-3.84,2.95-3.01,1.65,6.27,1.89,7.88,1.12.57,3.25.77,4.35,0,.31-2.49-1.8-15.27,1.54-15.33.58,5.02-.01,10.09.25,15.26.78.05,2.52-.5,2.6-1.44.09-1.07.67-2.13.81-3.06.71-4.74.08-9.28.38-13.93.09-1.4.08-2.6-1.09-3.58.5-.09,1.52-.36,1.52-1.12l.04-6.92c5.1,1.5,7.95-1.31,7.93,3.14,0,1.55,1.7,1.08,2.65,1.32,1.39.34.65,2.56,1.31,3.26.58.61,2.24-.01,2.53.91.18.59.35,1.65.48,2.77,2.89.25,6.22.44,9.14.24Z"/>
            <path class="cls-131" d="M55.48,206.63c-.59-1.36-.42-3.37-.14-4.88s2.74.06,4.13-1c.39-.3.03-1,.42-1.41.62-.65,1.32.2,1.45.68.48,1.83-2.25.5-2.27,6.19-.19.93-3.2,1.28-3.59.42Z"/>
            <path class="cls-86" d="M78.04,198.87c-.86-.66.46-2.82,1.65-3.22,1.75-.59,3.82-.1,5.65-.49.38,4.12-4.19,4.05-7.29,3.71Z"/>
          </g>
          <g>
            <path class="cls-129" d="M83.21,171.57c-.57.41-1.68.53-1.64,1.45.09,1.84-.44,3.37-.22,5.29-3.34.06-1.23,12.84-1.54,15.33-1.1.77-3.23.57-4.35,0-.25-1.61,1.06-10.89-1.89-7.88-2.76-.76-5.71,0-9.09-.57l-.41,4.32c-1.28.02-2.86-.32-4.35.07-.94.45-.28,2.57-.48,3.67-1.8.29-3.49-.24-4.96.37-.21.44.16,1.54-.52,1.74-1.31.38-2.37.03-3.83.55.56,2.25-.57,4.7-.3,6.52-4.39.38-3.71,6.39-3.73,8.6l-.3,31.95c-1.86-1.73-4.48-.41-7.99-.2l-.13-20.81c-1.25-.4-2.36.08-3.82.2-.53-.96-.41-1.75-.62-2.67-1.17-.48-2.4-.58-3.41-.11,1-1.92-7.07-.43-8.68-1.12-.1-1.21.16-2.32-.18-3.44l-4.48-.46-.11-3.7-4.16-.35-.46-6.09c-1.23-.17-2.33.13-3.71-.23v-24.01s13.45-.07,13.45-.07l.4-4.26,7.67-.06c.29.54.12,1.16.21,1.73.13.82-.58,2.34.23,3.01,1.02.78,2.65-.04,4.04.47,1.17,2.55-1.89,6.83.22,7.57,1.78.62,4.27.53,6.01.05,1.05-.29.83-3.5-.14-3.81-.74-.23-2.15.5-2.5-.32-.25-.61-1.12-1.8-.23-2.35.61-.37,1.56-.77,2.14-.72,1.48.11,2.93-.22,4.4-.23l29.74-.26c-.02-3.11.74-3.7-.98-4.98.47-.03.81-.12.92-.41.42-1.1-.17-2.02.37-3.21l7.74-.48c.12-.76-.06-1.32.49-1.28.14.25.05.57.14.8.15.4.76.19,1.06.41Z"/>
            <g>
              <path class="cls-105" d="M37.84,194.3l-.17,3.16c2.75-.24,4.85-.4,7.5-.26l.05,9.39-2.96.09c-.32,1.5.14,2.94-.46,4.42l-20.68.1-.41-2.93h-4.26c-.61-3.08.6-5.21-1.41-7-.64-.57-1.96.06-2.89-.18-1.1-.29-.44-2.26-.49-3.08,1.2-.7,2.61-.35,3.87.1-.02.38-.03.7.23,1.01.28.33.51.27.89.34,1.2.24,2.37.13,3.59.16,1.4,1.08-.14,3.28.86,4.94.61,1,3.62.6,4.43-.14.1.84-.3,1.14.36,1.44.42.19,3.65.28,3.98,0,.54-.44.39-1.24.56-2.03.4-1.83,1.95.7.48-5.17,1.26-.63.45-1.96.29-3.43-.11-1.08,2.14-.88,2.93-.98.62.27.83-1.07,1.55-.82.86.3,1.43.91,2.15.87Z"/>
              <path class="cls-149" d="M20.91,187.96c1.17.42,2.66.8,4.17.1-.58.34-.76,1.06-.43,1.54.15.21.38.04.71.38-.02,1.46.15,2.96-.19,4.39-1.53.24-3.11.48-4.78.03.42,1.84.7,3.73-.13,5.24-1.21-.03-2.39.08-3.59-.16.34-3.65.93-7.35-.02-11.46-1.45.55.04,10.21-1.1,10.11-1.25-.45-2.67-.81-3.87-.1-.22-3.75-.14-11.1.05-15.09,2.08-.49,3.92-.43,5.63.3l.35,4.74c.09,1.18,2.46,0,3.21,0Z"/>
              <path class="cls-46" d="M29.31,198.11c-1.22.12-2.44.29-3.94.29-.21,2.38-.05,4.19.17,6.04-.81.73-3.82,1.14-4.43.14-1-1.65.54-3.86-.86-4.94.83-1.51.56-3.4.13-5.24,1.68.45,3.26.21,4.78-.03,1.09-.17,2.23.64,3.65-.08-.16-2,.55-4.03-.03-5.63-.7-.41-2.51-.77-3.07-.22-.43.42-.31,1.26-.36,1.55-.33-.33-.57-.16-.71-.38-.33-.49-.15-1.2.43-1.54-1.5.7-3,.32-4.17-.1.4-1.1.16-2.31.29-3.91,2.99-.23,5.8-.22,8.87,0,.44,5.67-.41,9.15-.76,14.06Z"/>
              <path class="cls-156" d="M29.31,198.11c.55-.05.98,1.02,1.61.57,1.47,5.87-.07,3.35-.48,5.17-.17.79-.02,1.58-.56,2.03-.33.27-3.56.18-3.98,0-.66-.29-.26-.6-.36-1.44-.23-1.85-.38-3.65-.17-6.04,1.49,0,2.72-.17,3.94-.29Z"/>
              <path class="cls-33" d="M59.47,187.74c-.17,2.51-7.02,1.57-9.32,1.23-.8-.12-.87-2.9-.15-3.32,2.53-.41,9.71-1.63,9.47,2.09Z"/>
              <path class="cls-79" d="M44.34,194.21c-.93,1.05-3.23.23-4.56.36-.08-2-.3-3.73.21-5.59,1.29.12,2.3.68,4.11.32.43,1.3,1.36,3.64.24,4.91Z"/>
              <path class="cls-25" d="M46.12,184.3c1.56.16.71,4.64.6,4.82-.36.57-1.23.11-1.8.07-1.54-.09-.41-4.75-.57-4.48.25-.4,1.16-.47,1.78-.41Z"/>
              <path class="cls-83" d="M37.84,194.3c-.72.05-1.29-.57-2.15-.87-.72-.25-.93,1.09-1.55.82.38-.89-.59-2.37.36-3.28.59-.56,2.93-.62,3.42.03.66.88-.03,2.45-.08,3.29Z"/>
              <path class="cls-67" d="M16.66,199.47c-.37-.07-.61,0-.89-.34-.27-.32-.25-.64-.23-1.01,1.14.1-.36-9.56,1.1-10.11.95,4.11.37,7.81.02,11.46Z"/>
              <path class="cls-151" d="M25.17,194.36c.35-1.43.18-2.92.19-4.39.05-.29-.07-1.13.36-1.55.56-.54,2.37-.18,3.07.22.58,1.6-.13,3.63.03,5.63-1.43.73-2.56-.09-3.65.08Z"/>
            </g>
          </g>
          <path class="cls-10" d="M106.19,218.38c0,1.05.15,2.18-.43,3.32-1.05-.25-2.17,0-2.55.79-.23.49.38,1.32-.21,2.29-.35.56-1.5.32-1.88.57-1.18.79.05,2.46-1.14,3.19-.39.24-1.11.15-1.31.04-.03-.03-.29-.08-.71-.17-.12-2.24-.14-4.37.27-6.77,1.93-.38,3.57-.24,5.13-.24-.6-1.95-.51-3.17-.25-4.73.17-1.03,1.72-.76,2.39-.54.81.26.68,1.51.68,2.26Z"/>
          <path class="cls-19" d="M102.09,210.93c-1.45.44-5.17.18-5.01,1.57l-1.6-.02c.23-.53-.45-1.92-1.02-2.01-2.34-.39-.95-6.82-.96-10.01l7.52.2c-1.18,1.76-.29,2.23.3,3.31,1.12,2.06.68,4.76.77,6.96Z"/>
          <path class="cls-78" d="M102.09,210.93c.08,2.02,1.22,5.08-.11,6.71-.81.99-2.54.56-3.1.1-2.9-2.32-.88-2.47-1.79-5.24-.17-1.4,3.55-1.14,5.01-1.57Z"/>
        </g>
        <g>
          <path class="cls-142" d="M189.39,269.11c1.59.61.7,2.6,1.11,4.16.34,1.28,2.44.05,3.16.19,1.73.49.52,3.26,1.26,4.36.7,1.03,2.45.11,3.56.38,1.82.44.09,3.62,1.04,4.43.45.38,2.94.5,3.5,1.63.35.7-.49,1.81-.11,2.18.93.91,1.91.85,2.52.74.7-.13,2.33.15,2.84.69.82.87-.28,2.6.49,3.33s2.25.09,3.08.53c1.24.66,1.08,2.07.9,3.61l4.34.94c.49,1.36.38,3.07,1.09,4.16l.27,17.21c1.26.64,2.49.39,4.06.39l.36,13.72,3.94.18.48,11.98c1.15.14,2.08-.05,3.16.26l.48,4.74,2.37.52.11,5.73c.97.57,1.99.18,3.13.49l.27,8.48c1.39.23,2.59,0,4.15.51l-.17,14.39c-1.59.26-2.97-.16-4.33.36l-.26,4.68c-1.51.35-2.75.07-4.12.17-.54,1.06.05,2.1-.68,3.12-.9-.18-1.76-.32-2.34.06s-.26,1.5-.83,2.01c-.85.75-2.13.23-3.18.61-.32,1.39.11,2.58-.42,3.84l-16.93-.06-.44-4.59-4.59-.17c.07-2.48-1.03-5.2-.56-8.14-.49-.76-2.12-1.58-2.14-2.54l-.44-15.03c-.03-1.05-.97-2.06-.45-3.15.72-1.5-.97-2.2-1.21-3.08-.72-2.7.83-8.75-.5-11.9-.73.67-.72.88-.83,1.02s-.99.02-.99-.33l-.37-26.25c-.05-3.57-3.65-.53-3.69-4.83l-.15-17.9c-.94-.45-1.77-.14-2.86-.5l-.2-17.74c-.77-.59-1.46-.23-2.43-.5-.06-3-.12-6.27.14-9.05,1.17-.25,2.35.55,3.43-.07Z"/>
          <path class="cls-11" d="M184.51,264.15c.07,0,.39.04.53.2.15,1.68-.38,3.9.93,4.84-.27,2.78-.2,6.04-.14,9.05.97.27,1.66-.09,2.43.5l.2,17.74c1.09.36,1.93.06,2.86.5l.15,17.9c.04,4.31,3.63,1.27,3.69,4.83l.37,26.25c0,.35.88.47.99.33s.1-.35.83-1.02c1.34,3.15-.22,9.2.5,11.9.23.88,1.93,1.58,1.21,3.08-.52,1.09.42,2.1.45,3.15l.44,15.03c.03.96,1.66,1.78,2.14,2.54-.47,2.93.63,5.66.56,8.14l-.25,9.5-8.92.32c.21,1.84-.03,3.33-1.52,3.4-.09-.99-1.01-1.42-1.61-2.81-.39-.91-2.42-.36-3.09.11-.16-.62-.7-1.05-.73-2.07l-.56-18.15.03-31.41c0-1.59-.65-2.89-.82-4.16-.28-2.15.21-4.02-.34-5.91l-3.92-1.19c-.64-2.65.35-5.34-.65-7.9-.43-1.09-.83-2.01-.16-3.55-1.49-.61-2.8-.48-4.08-.8l-1.13-8.27c-.04-.26-1.11-.17-1.32-.29-.32-.19-.21-.93-.37-1.64-.23-.99-1.72-.59-2.49-.7-.79-1.37.2-3.09-.42-4.44-.56-1.23-2.82-.15-3.98-.65-1.5-.64-.66-2.96-.92-4.21l-.53-2.52c-.25-1.2-2.4-.7-3.39-1.08l-.45-3.82c-.12-1.02-2.14-.93-2.96-.96l-.53-24.72c0-.47.33-1.03.22-1.32-.09-.23-.41-.43-.74-.39.11-1.76.55-3.58-.17-5.22l27.65-.08Z"/>
          <path class="cls-136" d="M98.59,264.23c-.85,1.45-.29,3.2-.78,5.18l-17.22.16-.6,7.32c-1.05.16-2.05.14-3.35.13-1.46,2.39.57,8.7-.92,10.22-.53.54-3.21-.3-3.26.84-.13,2.91-.52,5.69-.37,8.17-.77.69-1.93.3-3.12.89-.57,5.17-.72,10.26-.78,15.61,0,.52-.23,1.39.49,1.14.26-2.23-1.36,8.15-1.32,6.28l-.44,19.35c-.63.77-1.84.15-3,.54l-.25,28.64c-.06,7.45-.08,12.96-.03,20.33l.07,10.52c-2-1-4.5-.2-6.67-.38-.25-.25-.39-.66-.55-.91.34.53-7.53-.42-9.01-.59s-1.05-2.65-1.62-3.29c-1.58-1.77-5.97.4-7.35-1.66-.6-.9-.36-8.08-.15-10.23.11-1.17,1.7-1.09,2.75-1.01.31-2.22.48-4.11.54-6.35l.22-7.45c.02-.55.77-.72.8-1.06.66-.14,2.58.49,2.73-.55.41-2.77-.15-5.44.52-8.57.56-2.63-.62-6.26,1.14-9.02.29-.45,2.04.15,2.15-.44.07-.39.98-1.05.98-1.76l.13-18.09c0-.7.73-1.91,1.24-2.21,1.31-.12,2.42-.42,2.94-1.06,1.18-.22,2.76.11,4.14-.45.31-3.44-.56-6.82.54-10.12,1.19-3.58.02-3.61,1.02-4.64.23-.23,1.06-.08,1.59-.3,1.16-5.61,1.14-11.59,1.24-17.43.03-1.41,1.02-2.14,1.18-2.9.8-3.89.23-7.81.65-11.86.91-.48,2.03.17,2.81-.55.46-4.54-.07-8.73,1.1-12.54,9.93-.23,19.9.09,29.83.07Z"/>
          <path class="cls-52" d="M141.62,403.48c0,1.59.39,3.23.09,4.84l-36.06.1c-2.25,0-3.82-.26-5.43.81-1.24.82-3.51-.32-5.07.06-.81-1.96.77-6-1.26-5.85.62-.84-.69-1.48-.69-2.49l-.06-65.21c0-1.1.87-1.37.93-1.85.75-5.45.14-10.96.55-16.56.76-.4,1.39-.43,2.25-.72l.24-14.97c1.58-.23,2.84-.28,4.27-.14l.02,15.6.07,86.6,40.13-.24Z"/>
          <path class="cls-89" d="M149.3,303.19c1.25-.09,2.57.44,3.83.1l.43,100.05c0,1.89-.18,3.79.02,5.86-1.29.24-2.22.43-3.17.2-.16-.11-.34-.17-.53-.14-1.28.17-2.5.14-3.76,0l-.21-23.34-.02-37.98.08-44.44c1.26-.23,2.27-.25,3.34-.32Z"/>
          <path class="cls-7" d="M68.37,256.11c-.1,2.57.31,5.55.39,8.04-1.16,3.81-.63,8-1.1,12.54-.79.71-1.91.06-2.81.55-.42,4.05.16,7.98-.65,11.86-.16.76-1.16,1.49-1.18,2.9-.1,5.83-.09,11.82-1.24,17.43-.52.22-1.36.07-1.59.3-1,1.02.17,1.05-1.02,4.64-1.1,3.3-.23,6.69-.54,10.12-1.38.55-2.96.23-4.14.45l.67-54.43.03-13.72-.82-.07c2.85-.19,5.85-.83,8.66-1.55,1.56.33,3.77.49,5.34.93Z"/>
          <path class="cls-101" d="M149.3,303.19c-1.07.07-2.08.09-3.34.32l-.08,44.44.02,37.98.21,23.34c-1.54-.18-3.8.76-4.39-.94.29-1.61-.1-3.26-.09-4.84l.17-100.4,4.08-.35c-.07-3.25.48-6.53.19-9.64.97.21,2.04.22,3.51.27l-.27,9.83Z"/>
          <path class="cls-115" d="M63.71,399.55c0,1.25.52,2.56-.11,3.77-1.26-.07-3.5-.83-3.99.61-.38-1.07-1.52-.84-2.41-1.44s0-2.44-.17-3.33c2.17.18,4.68-.62,6.67.38Z"/>
          <path class="cls-155" d="M191.95,402.31c-1.23.05-2.59.16-3.68.73-.42.22-.63.04-1.09.1-.36-1.14.36-2.41.07-3.53.67-.46,2.69-1.02,3.09-.11.6,1.39,1.52,1.82,1.61,2.81Z"/>
          <path class="cls-143" d="M176.05,324.47l-.08,74.79c-.89.69-1.74.64-2.15,1.17-.46.6-.84,1.54.07,2.14.69.45,1.87-.23,2.07.53-5.86.04-11.89.97-17.63-.15l-.25-107.06c.82.03,2.85-.06,2.96.96l.45,3.82c.98.38,3.14-.12,3.39,1.08l.53,2.52c.26,1.25-.58,3.57.92,4.21,1.16.5,3.42-.58,3.98.65.62,1.35-.37,3.08.42,4.44.78.11,2.27-.29,2.49.7.17.71.05,1.45.37,1.64.21.13,1.28.03,1.32.29l1.13,8.27Z"/>
          <path class="cls-159" d="M187.26,399.61c.29,1.13-.44,2.39-.07,3.53-3.73.44-7.5-.07-11.22-.04-.2-.76-1.38-.08-2.07-.53-.91-.6-.53-1.54-.07-2.14.41-.53,1.26-.48,2.15-1.17l.08-74.79c1.27.33,2.58.19,4.08.8-.67,1.53-.27,2.45.16,3.55,1,2.56,0,5.25.65,7.9l3.92,1.19c.55,1.88.06,3.76.34,5.91.17,1.28.82,2.58.82,4.16l-.03,31.41.56,18.15c.03,1.02.57,1.45.73,2.07Z"/>
          <path class="cls-20" d="M158.08,295.89l.25,107.06c-1.37.25-3.23.9-4.78.38l-.43-100.05.22-16.71.02-15.29c.73.14,1.51.24,2.13.19,1.19-.11,1.43-1.06,1.54-2.02.33-.04.65.16.74.39.11.3-.23.86-.22,1.32l.53,24.72Z"/>
          <path class="cls-48" d="M185.1,263.68c-.35-.19-.71.08-.59.46l-27.65.08c-1.18,0-2.41-.39-3.59-.07l-.17-4.18c8.1-1.72,17,.05,25.46-.86.75-.8.64-2.55,2.35-2.98-.58-.7-.89-1.34-.65-2,1.45.7,2.86,1.57,4.68,1.72-.06,3.13-.1,5.43.16,7.84Z"/>
          <path class="cls-80" d="M156.86,264.22c.72,1.64.28,3.46.17,5.22-.11.95-.35,1.91-1.54,2.02-.62.06-1.39-.05-2.13-.19,0-2.38,0-4.73-.1-7.12,1.19-.32,2.42.07,3.59.07Z"/>
          <path class="cls-36" d="M113.72,264.2c1.95,4.81.14.69,2.69,3.1-.6,2.15,2.11,2.89,4.1,2.63.81-.1,1.62-.03,1.68.6.12.68-.05,2.04.6,2.69l18.8-.08.19,29.93-.17,100.4-40.13.24-.07-86.6-.02-15.6c-1.43-.14-2.69-.09-4.27.14l-.24,14.97c-.86.29-1.49.32-2.25.72-.4,5.6.21,11.11-.55,16.56-.07.47-.93.74-.93,1.85l.06,65.21c0,1.01,1.31,1.64.69,2.49l-23.45-.02c-.07-.91-1.3-.49-2.38-.57.13-5.49.16-10.81.01-16.54l-.95-36.72c-.09-3.55-.28-6.86-.21-10.06l.44-19.35c-.04,1.88,1.58-8.51,1.32-6.28.07-.59.11-1.21.28-1.69.25-.69,1.45-.22,1.75-.67.61-.89.15-2.06-.13-2.87,2.81.85,1.54-11.74,1.5-12.41-.15-2.48.24-5.27.37-8.17.05-1.15,2.73-.3,3.26-.84,1.49-1.52-.54-7.83.92-10.22,1.3.01,2.29.04,3.35-.13l.6-7.32,17.22-.16c.49-1.98-.07-3.73.78-5.18l15.12-.03Z"/>
          <path class="cls-27" d="M66.92,339.52c-.07,3.2.12,6.52.21,10.06l.95,36.72c.15,5.73.12,11.05-.01,16.54,1.08.08,2.31-.34,2.38.57-2.29,0-4.57.03-6.85-.09.63-1.21.12-2.52.11-3.77l-.07-10.52c-.05-7.38-.03-12.88.03-20.33l.25-28.64c1.16-.4,2.37.23,3-.54Z"/>
          <path class="cls-116" d="M72,251.53c-.38.59.27,1.68.62,2.05-.58,1.65-.98,3.56-.26,5.57,3.88.14,7.79.62,11.36-.28,9.99.85,20.21.29,30.33.1l.22.55c.53,1.33-.2,2.82-.09,4.24-.21-.06-.44.27-.47.45l-15.12.03c-9.93.02-19.9-.3-29.83-.07-.08-2.49-.48-5.47-.39-8.04.05-1.34-.19-3.29.45-4.53.88-.83,2.41.12,3.18-.05Z"/>
          <path class="cls-123" d="M68.68,313.9c-.73.25-.5-.62-.49-1.14.06-5.35.22-10.44.78-15.61,1.19-.58,2.36-.2,3.12-.89.04.67,1.31,13.26-1.5,12.41.27.81.73,1.98.13,2.87-.3.44-1.51-.03-1.75.67-.17.48-.22,1.1-.28,1.69Z"/>
          <path class="cls-93" d="M153.35,286.57l-.22,16.71c-1.26.35-2.58-.18-3.83-.1l.27-9.83c-1.47-.05-2.54-.06-3.51-.27-.33-3.57.17-7.13.14-10.69l3.41.72c.64.13-.09,2.48.98,2.75l2.75.7Z"/>
          <path class="cls-122" d="M142.38,259.01c.89.36,2.3.78,3.3.47.52.46.4,1.22.41,2.09l.12,20.84c.02,3.56-.48,7.11-.14,10.69.29,3.11-.26,6.39-.19,9.64l-4.08.35-.19-29.93.02-8.79c-1.65-.47-3.12-.23-4.55-.18-.04-.56-.78-.82-.52-1.47l.06-3.18c1.28-.1,2.52-.04,3.18-.56.7.07,1.95,1.11,2.59.04Z"/>
          <path class="cls-76" d="M151,259.38c.58.09,1.44.68,2.1.6l.17,4.18c.1,2.39.1,4.74.1,7.12l-.02,15.29-2.75-.7c-1.07-.27-.34-2.62-.98-2.75l-3.41-.72-.12-20.84c0-.87.11-1.62-.41-2.09,1.74-.55,3.48-.38,5.32-.1Z"/>
          <path class="cls-22" d="M180.26,254.13c-.24.66.07,1.3.65,2-1.71.43-1.6,2.18-2.35,2.98-8.46.91-17.37-.86-25.46.86-.66.09-1.52-.51-2.1-.6-.04-1.09.99-3.6-.41-4.22-2.39-1.06-5.36-.36-7.61.08-.34.29-.9.05-1.28-.2-.21-.14-.79-3.64.32-3.94,2.67.77,5.38,1.87,8.28,1.06,1.28-.36,1.6-2.41.55-3.24-1.24-.99-1.51-2.32-1.38-3.62,3.57.39,7.21-.26,11.07-.04,3.08.17,13.28.34,14.95-.81.77-.53,2.42-.09,3.37-.22.72,1.81-.71,3.96.08,5.64.65,1.39,2.03,2.33,1.32,4.27Z"/>
          <path class="cls-126" d="M137.07,264.18c1.43-.05,2.9-.29,4.55.18l-.02,8.79-18.8.08c-.66-.66-.48-2.02-.6-2.69,3.73.38,7.44,1.17,11.36.32.81-1.21,1.53-2.31,1.88-3.47.31-1.02.85-2.06.68-3.17l.95-.03Z"/>
          <path class="cls-97" d="M135.44,267.38c-.36,1.17-1.07,2.26-1.88,3.47-3.92.84-7.63.06-11.36-.32-.06-.63-.88-.7-1.68-.6-2,.25-4.7-.48-4.1-2.63-.32-1.98,16.6.63,19.03.08Z"/>
          <path class="cls-165" d="M136.12,264.21c.17,1.11-.37,2.15-.68,3.17-2.43.55-19.35-2.06-19.03-.08-2.55-2.41-.74,1.71-2.69-3.1.03-.18.26-.51.47-.45.98.31,2.26.17,3.41-.32-.54-1,.4-.72.25-.55-.57.7-.36,1.19.19,1.19l18.08.13Z"/>
          <path class="cls-4" d="M97.59,229.43c-.46,1.75,0,3.92-.83,5.66-.19.41-1.63.06-1.77.69-.07.33-.32,1.26.4,1.27l18.65.39c-.09.68.51,2.3-.15,2.44l-3.67.77c-.91.19-.03,2.31-.12,3.19s-.33,1.81-.31,2.67c-.21-.24-.44-.12-.69-.01-.21.09-.22-.53-.38-1-3.22-.19-6.19-.5-9.14-.13-6.01.74-16.21-2.19-14.11,3.11l-2.35,1.24c2.83,5.6-7.4.51-10.53,3.86-.35-.36-1.01-1.45-.62-2.05.65-1,.36-2.24.83-3.54,2.45-.34,4.76.34,7.24-.24.81-.19.11-2.16.44-2.69.71-1.11,2.62-.1,3.54-.74s.21-2.46.29-3.5l4.32-.45c.31-1.1-.03-2.21.46-3.27l4.69-.11c-.41-2.81.24-5.47.04-8.05,1.24-.41,2.82-.54,3.74.49Z"/>
          <path class="cls-109" d="M109.8,246.51l.23,8.8c1.47-.06,2.65-.15,4.02-.07.17,1.38-.43,2.61,0,3.71-10.12.19-20.34.75-30.33-.1.74-.61.27-2.26.86-2.87.85-.88,3.25.01,3.78-1.55.24-.7-.2-2.67,1.2-2.74,1.68-.09,3.39,0,3.63-2.02,1.87.36,3.26-.28,4.38-1.64,1.28.53,1.83-.19,2.34-.88.32-.43-.38-1.11-.3-1.8,2.94-.36,5.92-.06,9.14.13.16.48.17,1.1.38,1,.25-.11.48-.23.69.01Z"/>
          <path class="cls-158" d="M99.6,245.36c-.07.69.63,1.36.3,1.8-.52.69-1.06,1.4-2.34.88-1.12,1.36-2.51,2-4.38,1.64-.24,2.03-1.95,1.93-3.63,2.02-1.4.08-.97,2.04-1.2,2.74-.53,1.56-2.93.67-3.78,1.55-.58.61-.12,2.25-.86,2.87-3.57.9-7.48.42-11.36.28-.72-2.01-.32-3.92.26-5.57,3.13-3.35,13.35,1.74,10.53-3.86l2.35-1.24c-2.11-5.29,8.1-2.37,14.11-3.11Z"/>
          <path class="cls-95" d="M149.46,245.29c-.12,1.3.15,2.63,1.38,3.62,1.04.84.73,2.89-.55,3.24-2.9.81-5.61-.28-8.28-1.06-1.11.3-.53,3.79-.32,3.94.38.26.94.5,1.28.2l-.59,3.77c-.64,1.07-1.89.03-2.59-.04.4-2.03-.49-4.29.82-6.73-1.25-.7-2.92-.27-4.06-1.31.14-.72-.41-2.13.41-2.83.77-.65,2.07.04,3.07-.7l.21-4.52c8.74-.13,3.1,1.73,9.22,2.41Z"/>
          <path class="cls-88" d="M151,259.38c-1.84-.28-3.58-.46-5.32.1-.99.32-2.41-.11-3.3-.47l.59-3.77c2.25-.44,5.21-1.15,7.61-.08,1.4.62.38,3.13.41,4.22Z"/>
          <path class="cls-75" d="M174.48,223.02l.09,16.54c0,.43.83.66.93.71.1,1.46-.93,2.95-.02,4.17-1.67,1.15-11.87.98-14.95.81-3.87-.22-7.5.44-11.07.04-6.13-.68-.49-2.53-9.22-2.41.09-1.85-.62-3.78-.09-5.61l25.66-.21c1.25-.01,2.79.26,4.02-.08.82-4.76-.84-9.66.88-13.88,1.26.03,2.51-.11,3.77-.08Z"/>
          <g>
            <path class="cls-141" d="M136.55,262.7c-.26.65.48.91.52,1.47l-.95.03-18.08-.13c-.55,0-.76-.5-.19-1.19.14-.17-.8-.45-.25.55-1.15.49-2.43.63-3.41.32-.11-1.42.62-2.91.09-4.24,1.36-.07,2.71-.23,4.06-.08.23.02.51.44.76.4,4.41-.6,8.88.33,13.02-.88-.04,1.85,3.44-.31,3.85.96.34,1.07-.53,2.45.6,2.79Z"/>
            <path class="cls-107" d="M117.28,243.29l-3.14,3.43c-1.83,2-.79,5.55.72,8.39,1.25.26,2.42.07,3.54.2-.21,1.36-.04,2.75-.07,4.12-1.35-.15-2.71.02-4.06.08l-.22-.55c-.44-1.1.17-2.33,0-3.71-1.37-.09-2.54,0-4.02.07l-.23-8.8c-.02-.86.22-1.81.31-2.67,3.4-1.39,2.6,1.07,4.61-1.8.22,1.77,1.51.95,2.57,1.24Z"/>
            <path class="cls-125" d="M139.78,258.97c-.66.52-1.9.47-3.18.56l-.06,3.18c-1.13-.34-.25-1.72-.6-2.79-.41-1.27-3.89.89-3.85-.96-.03-.73-.18-2.16.53-2.84.89-.85,2.2-.21,3.56-.31-.06-1.3.14-2.73-.52-3.78.29-.18.79-.74.86-1.11,1.14,1.03,2.82.6,4.06,1.31-1.32,2.44-.42,4.7-.82,6.73Z"/>
            <path class="cls-45" d="M140.15,237.27c-.53,1.84.17,3.77.09,5.61l-.21,4.52c-1,.74-2.3.04-3.07.7-.82.7-.27,2.11-.41,2.83-.07.36-.58.93-.86,1.11l-3.4-.14c-.45-1.17-.75-2.95,0-4.3.79-.67,2.18,0,3.5-.22.32-1.84.31-3.5.19-5.56-1.48-.3-2.86-.49-4.11-.27.26-.84.75-3.33-.3-3.8-4.43-.74-8.67.05-13.26-.22.06,2.02-.18,3.61.12,5.27-.29-.13-.94.28-1.14.49-1.05-.29-2.35.53-2.57-1.24-2.01,2.86-1.21.4-4.61,1.8.09-.88-.8-3,.12-3.19l3.67-.77c.66-.14.05-1.76.15-2.44.15-1.12.34-2.18.11-4.15l21.45-.14c.66,1.3.21,2.39.5,3.84,1.48-.24,2.81.29,4.06.28Z"/>
            <path class="cls-130" d="M131.87,241.55c1.24-.22,2.62-.03,4.11.27.12,2.06.13,3.72-.19,5.56-1.32.23-2.71-.45-3.5.22-.76,1.34-.45,3.12,0,4.3l3.4.14c.66,1.05.47,2.48.52,3.78-1.37.1-2.67-.54-3.56.31-.71.68-.56,2.1-.53,2.84-4.14,1.21-8.6.28-13.02.88-.25.03-.53-.38-.76-.4.04-1.37-.14-2.76.07-4.12.66.08,1.39-.06,2.21-.71l1.93,2.17c1.51-.3,2.73-.41,3.76.57-.04-.99.07-1.31.62-1.87.38-.38.79-.33,1.83.22.35-2.03-.15-3.64-.84-5.34-.42-1.04.32-3.02.96-3.61,1.05.41,2.15,1.52,2.47.53.37-1.14,1.17-2.78.38-3.88s-2.58-.06-3.69-.09c-.22,0-2.67-.78-3.35.89-.15.37.37.79.89,1.15.02.01,1.38-1.2,4.6-.21-.42,1.1-1.63-.03-2.23.25-1.8.84-3.12,1.64-4.8,1.27-.84-1.05-.16-2.39-.39-3.69-.5-2.84,4.57-.6,9.1-1.4Z"/>
            <path class="cls-160" d="M122.41,247.59c.1.87-.14,1.94.09,3.01.2.92,1.99,1.44,2.59,2.24l2.83-2.5c.69,1.71,1.19,3.31.84,5.34-1.03-.55-1.44-.6-1.83-.22-.55.56-.66.88-.62,1.87-1.03-.97-2.25-.87-3.76-.57l-1.93-2.17c-.82.65-1.56.79-2.21.71-1.12-.13-2.29.06-3.54-.2-1.52-2.84-2.56-6.39-.72-8.39,2.81.55.47,4.28,2.45,4.68.71.15,1.99.19,1.87-1-.09-.87-.83-2.21-.18-2.81,1.39-.12,2.92-.45,4.12,0Z"/>
            <path class="cls-82" d="M122.77,242.96c.23,1.3-.45,2.64.39,3.69-.44-.1-.79.61-.75.94-1.2-.45-2.73-.12-4.12,0-.65.6.09,1.94.18,2.81.12,1.2-1.15,1.15-1.87,1-1.98-.4.35-4.13-2.45-4.68l3.14-3.43c.2-.21.85-.62,1.14-.49.97.43,3.29-.18,4.34.16Z"/>
            <path class="cls-99" d="M131.87,241.55c-4.53.81-9.6-1.44-9.1,1.4-1.06-.34-3.38.28-4.34-.16-.3-1.66-.05-3.24-.12-5.27,4.6.26,8.84-.52,13.26.22,1.05.47.56,2.96.3,3.8Z"/>
            <path class="cls-108" d="M127.92,250.34l-2.83,2.5c-.59-.8-2.39-1.32-2.59-2.24-.23-1.08,0-2.14-.09-3.01-.04-.33.31-1.04.75-.94,1.68.38,3-.43,4.8-1.27.61-.28,1.81.85,2.23-.25-3.23-.99-4.58.22-4.6.21-.52-.37-1.04-.78-.89-1.15.68-1.68,3.13-.9,3.35-.89,1.11.04,2.9-1.01,3.69.09s-.01,2.74-.38,3.88c-.32.99-1.42-.12-2.47-.53-.64.59-1.38,2.57-.96,3.61Z"/>
          </g>
        </g>
      </g>
    </g>
  </g>
</svg>