<?xml version="1.0" encoding="UTF-8"?>
<svg id="_レイヤー_2" data-name="レイヤー 2" xmlns="http://www.w3.org/2000/svg" xmlns:xlink="http://www.w3.org/1999/xlink" viewBox="0 0 282.67 512">
  <defs>
    <style>
      .cls-1 {
        fill: #faf6e1;
      }

      .cls-2 {
        fill: #8485a8;
      }

      .cls-3 {
        fill: #edceca;
      }

      .cls-4 {
        fill: #796787;
      }

      .cls-5 {
        fill: #a484a2;
      }

      .cls-6 {
        fill: #857194;
      }

      .cls-7 {
        fill: #fdfeff;
      }

      .cls-8 {
        fill: #dcdfe8;
      }

      .cls-9 {
        fill: #e4bfc0;
      }

      .cls-10 {
        fill: #848cae;
      }

      .cls-11 {
        fill: #9db2ce;
      }

      .cls-12 {
        fill: #8ea5c3;
      }

      .cls-13 {
        fill: #fbf5dc;
      }

      .cls-14 {
        fill: #868eaf;
      }

      .cls-15 {
        fill: #f4e2a1;
      }

      .cls-16 {
        fill: #9c808e;
      }

      .cls-17 {
        fill: #f7e1a7;
      }

      .cls-18 {
        fill: #fcf8e4;
      }

      .cls-19 {
        fill: #a8849f;
      }

      .cls-20 {
        fill: #f7e5da;
      }

      .cls-21 {
        fill: #8387aa;
      }

      .cls-22 {
        fill: #dbb1b9;
      }

      .cls-23 {
        fill: #9e828e;
      }

      .cls-24 {
        fill: #787297;
      }

      .cls-25 {
        fill: #8a94b3;
      }

      .cls-26 {
        fill: #edc8c5;
      }

      .cls-27 {
        fill: #f2d199;
      }

      .cls-28 {
        fill: #a0838f;
      }

      .cls-29 {
        fill: #e8ba8f;
      }

      .cls-30 {
        fill: #7a789d;
      }

      .cls-31 {
        fill: #f0c998;
      }

      .cls-32 {
        fill: #deb0b8;
      }

      .cls-33 {
        fill: #ecc896;
      }

      .cls-34 {
        fill: #8ba3c3;
      }

      .cls-35 {
        fill: #f0c797;
      }

      .cls-36 {
        fill: #e7b691;
      }

      .cls-37 {
        fill: #f6e0a6;
      }

      .cls-38 {
        fill: #fff;
      }

      .cls-39 {
        fill: #90aaca;
      }

      .cls-40 {
        fill: #7f779a;
      }

      .cls-41 {
        fill: #f0ca9a;
      }

      .cls-42 {
        fill: #b891a8;
      }

      .cls-43 {
        fill: #e8ba91;
      }

      .cls-44 {
        fill: #b5cbdf;
      }

      .cls-45 {
        fill: #776d8f;
      }

      .cls-46 {
        fill: #d0a6b3;
      }

      .cls-47 {
        fill: #868cad;
      }

      .cls-48 {
        fill: #8081a4;
      }

      .cls-49 {
        fill: #f2d198;
      }

      .cls-50 {
        fill: #92a0bd;
      }

      .cls-51 {
        fill: #e6b990;
      }

      .cls-52 {
        fill: #e4af90;
      }

      .cls-53 {
        fill: #e5c0c2;
      }

      .cls-54 {
        fill: #896f88;
      }

      .cls-55 {
        fill: #f7e1a5;
      }

      .cls-56 {
        fill: #8691b3;
      }

      .cls-57 {
        fill: #c99fb0;
      }

      .cls-58 {
        fill: #e6b390;
      }

      .cls-59 {
        fill: #f5e6b1;
      }

      .cls-60 {
        fill: #d4a4a9;
      }

      .cls-61 {
        fill: #fbfdfe;
      }

      .cls-62 {
        fill: #e6c6c6;
      }

      .cls-63 {
        fill: #e0b9bc;
      }

      .cls-64 {
        fill: #aa9fb3;
      }

      .cls-65 {
        fill: #f2d9d1;
      }

      .cls-66 {
        fill: #f7e6da;
      }

      .cls-67 {
        fill: #edcdc9;
      }

      .cls-68 {
        fill: #8b9fc0;
      }

      .cls-69 {
        fill: #ba8fa1;
      }

      .cls-70 {
        fill: #f1cd9a;
      }

      .cls-71 {
        fill: #ebc096;
      }

      .cls-72 {
        fill: #d4a4a7;
      }

      .cls-73 {
        fill: #d3a9b5;
      }

      .cls-74 {
        fill: #8292b8;
      }

      .cls-75 {
        fill: #f0cc9e;
      }

      .cls-76 {
        fill: #9495b1;
      }

      .cls-77 {
        fill: #817ea1;
      }

      .cls-78 {
        fill: #8a718f;
      }

      .cls-79 {
        fill: #868cae;
      }

      .cls-80 {
        fill: #91778b;
      }

      .cls-81 {
        fill: #7e88a7;
      }

      .cls-82 {
        fill: #f0cdc6;
      }

      .cls-83 {
        fill: #a9a4bb;
      }

      .cls-84 {
        fill: #909ec1;
      }

      .cls-85 {
        fill: #f8e7dd;
      }

      .cls-86 {
        fill: #a0828f;
      }

      .cls-87 {
        fill: #8fa2c1;
      }

      .cls-88 {
        fill: #8891b2;
      }

      .cls-89 {
        fill: #817191;
      }

      .cls-90 {
        fill: #f2d19a;
      }

      .cls-91 {
        fill: #909cbb;
      }

      .cls-92 {
        fill: #e4c2c4;
      }

      .cls-93 {
        fill: #988ba3;
      }

      .cls-94 {
        fill: #8083a7;
      }

      .cls-95 {
        fill: #e8c6c3;
      }

      .cls-96 {
        fill: #8ea4c3;
      }

      .cls-97 {
        fill: #eabe92;
      }

      .cls-98 {
        fill: #c8ccd9;
      }

      .cls-99 {
        fill: #8ba1c2;
      }

      .cls-100 {
        fill: #a9a9c0;
      }

      .cls-101 {
        fill: #edc595;
      }

      .cls-102 {
        fill: #e1af92;
      }

      .cls-103 {
        fill: #797495;
      }

      .cls-104 {
        fill: #f1cc97;
      }

      .cls-105 {
        fill: #f1d7d1;
      }

      .cls-106 {
        fill: #f1cf96;
      }

      .cls-107 {
        fill: #94a2c0;
      }

      .cls-108 {
        fill: #f6dca5;
      }

      .cls-109 {
        fill: #d7a28a;
      }

      .cls-110 {
        fill: #d9adb5;
      }

      .cls-111 {
        fill: #858bac;
      }

      .cls-112 {
        fill: #b791a9;
      }

      .cls-113 {
        fill: #8fa3c2;
      }

      .cls-114 {
        fill: #a7a9be;
      }

      .cls-115 {
        fill: #878daf;
      }

      .cls-116 {
        fill: #7d7fa2;
      }

      .cls-117 {
        fill: #7d7a9e;
      }

      .cls-118 {
        fill: #f4e3a7;
      }

      .cls-119 {
        fill: #7e7ea2;
      }

      .cls-120 {
        fill: #7e789c;
      }

      .cls-121 {
        fill: #a5b8d0;
      }

      .cls-122 {
        fill: #78779a;
      }

      .cls-123 {
        fill: #f3d39b;
      }

      .cls-124 {
        fill: #aaaec2;
      }

      .cls-125 {
        fill: #a1b6d0;
      }

      .cls-126 {
        fill: #929db9;
      }

      .cls-127 {
        fill: #f6e1a7;
      }

      .cls-128 {
        fill: #b68fa7;
      }

      .cls-129 {
        fill: #9d808c;
      }

      .cls-130 {
        fill: #f8e8dd;
      }

      .cls-131 {
        fill: #977a90;
      }

      .cls-132 {
        fill: #776889;
      }

      .cls-133 {
        fill: #967b9a;
      }

      .cls-134 {
        fill: #e8c6c4;
      }

      .cls-135 {
        fill: #f5dfd4;
      }

      .cls-136 {
        fill: #e7b892;
      }

      .cls-137 {
        fill: #8382a3;
      }

      .cls-138 {
        fill: #a19ebd;
      }

      .cls-139 {
        fill: #f3d49f;
      }

      .cls-140 {
        fill: #f7e6b1;
      }

      .cls-141 {
        fill: #f0d3cd;
      }

      .cls-142 {
        fill: #eabb94;
      }

      .cls-143 {
        fill: #967494;
      }

      .cls-144 {
        fill: #f6dad6;
      }

      .cls-145 {
        fill: #c2d8ea;
      }

      .cls-146 {
        fill: #eec897;
      }

      .cls-147 {
        fill: #f8ecc0;
      }

      .cls-148 {
        fill: #9d9db5;
      }

      .cls-149 {
        fill: #f5e0a6;
      }

      .cls-150 {
        fill: #96a5c0;
      }

      .cls-151 {
        fill: #9090ac;
      }

      .cls-152 {
        fill: url(#_名称未設定グラデーション_19);
      }

      .cls-153 {
        fill: #ac88a2;
      }
    </style>
    <linearGradient id="_名称未設定グラデーション_19" data-name="名称未設定グラデーション 19" x1="104.4" y1="132.39" x2="145.52" y2="182.5" gradientUnits="userSpaceOnUse">
      <stop offset="0" stop-color="#fff"/>
      <stop offset="1" stop-color="#d4e8f5"/>
    </linearGradient>
  </defs>
  <g id="_レイヤー_1-2" data-name="レイヤー 1">
    <g id="_生成オブジェクト" data-name="生成オブジェクト">
      <path class="cls-6" d="M181.87,242.45v8.21c-1.86,1.46-4.85.75-7.18.75.04-2.82.11-5.68-.14-8.5l7.33-.46Z"/>
      <path class="cls-22" d="M174.55,242.91c.25,2.82.18,5.68.14,8.5h-34.1s-.47-.12-.47-.12c.41-2.58.16-5.23.12-7.83,11.22-1.5,22.85.18,34.3-.54Z"/>
      <path class="cls-9" d="M174.69,251.42c-.03,2.12.33,4.69-.36,7-8.4,10.63-14.23,6.24-23.93,7.11-2.84.25-4.7-1.2-6.06-3.43-1.53-2.5-5.21-.75-3.76-10.67h34.1Z"/>
      <g>
        <g>
          <path class="cls-31" d="M47.33,113.45c.06.39.11.95.8,1.11l203.86-.04c1.56,0,2.32-.46,3.13-.87,1.81.67,4.32-.49,6.11-.34l7.88.65c1.93.16.7,2.99.72,4.08s.91,3.95-.72,4.18c-5.78.79-11.37.19-17.14.37-1.02.03-2.88-1.11-3.46.27l-170.84.11c-3.15,0-6.77-.13-9.72.53-7.57-1.27-15.56-.31-23.52-.75-1.07-.06-.91,1.58-1.32,1.91l-3.04,2.4c-.35-4.25-.57-8.62-.01-13.16,2.64-.75,4.98-.29,7.26-.45Z"/>
          <path class="cls-52" d="M263.54,68.19c1.21-.33,2.5.27,4.1.4-.02,5.21,2.67.86,2.71,10.17l.16,35.25c2.52.12,4.38-.22,6.2.47l.22,7.92,5.57.77c.24,4.94.28,9.84-.03,14.66l-15.21.17-.38-7.89-15.19-.25c-.58-2.24,0-4.33-.35-6.69-1.11-.22-2-.3-2.8-.3.58-1.38,2.43-.23,3.46-.27,5.78-.18,11.36.42,17.14-.37,1.63-.22.73-3.1.72-4.18s1.21-3.92-.72-4.08l-7.88-.65.04-43.11c0-.53.34-2.24.84-2.29.39-.03.7.47,1.41.27Z"/>
          <path class="cls-70" d="M194.52,6.57c-.93-.03-.3.84-.58,1.01-1.55.94-10.33-.41-13.77,1.14l-1.02,2.86-3.14,2.24c-6.3,4.5.03,1.64-6.1,10.06-2.85-.34-3.66,2.57-3.86,5.1l-.51,6.75-.16,60.59c-3.02.51-5.1.06-7.14.07.02-.22.96-.14.96-.37l-.04-19.07.35-46.72c.01-1.49.22-3.02,1.43-3.47.92-.34,2.02-.72,3.55-.45.8-.76.39-2.27,1.88-2.96-.53-1.69.56-2.64,1.35-4.26l1.38-2.84c1.1-2.26,1.56-4.73,3.69-5.96,2.96,2.62,3.2-8.75,3.12-10.13,5.97-.03,12.06-.47,18.2.21.7,2.09.12,4.22.41,6.2Z"/>
          <path class="cls-18" d="M86.87,44.12c-.11-2.43.44-4.88.05-7.28.25.02.36.21.59-.05.15-.18.38-.26.35-.51,1.7,0,4.37.7,6.21-.18,2.42-2.22,2.19-6.03,2.35-8.99.44.18.81-.21.59-.64,4.44-1.29,14.49,1.98,13.33-4.12,5.7.61,3.01,1.52,10.44,2.35,1.96,5.4-.92,5.91-4.02,8.64-1.25,3.76.04,7.56-.57,11.33-1.39.86-3.43.85-5.02.6l-.61-8.11c-1.23-1.4-4.01-.5-5.6-.28-2.96.41-5.71-.7-8.69.44-.74,2.45-.17,5.1-.71,7.84-2.81.26-5.36.11-8.03.07-.17-.63-.1-1.19-.66-1.12Z"/>
          <path class="cls-101" d="M67.99,60.58c-.09,1.27-.24,2.58-.25,4.18l-.2,39.28c-3.2.58-6,.45-8.65.11l.11-35.16,1.08-7.49c2.72-1.39,5.29-1.07,7.91-.92Z"/>
          <path class="cls-123" d="M175.91.17c.08,1.38-.17,12.74-3.12,10.13-.57-1.64-2.29-2.6-4.32-2.56l-20.67.39c-2.48.05-5.27-.47-7.66-.96.17-2.1-.07-4.27.63-6.8l35.14-.2Z"/>
          <path class="cls-13" d="M147.81,8.13l2.06,3.01c2.24.38,3.31,2.02,3.39,4.9-3.82.75-7.6,1.24-12.33.64-6.06,9.4-5.98,5.31-5.87,15.22.02,1.8-3.58,5.72-4.8,4.5-.61-3.23.45-10.98-1.03-12.82.54-2.53,2.2-4.89,3.62-7.37.79-1.37.45-3.18,1.51-4.4.77-.88,1.26-1.84,1.28-2.83,1.58-.28,3.04-1.15,4.51-1.8,2.39.49,5.19,1.01,7.66.96Z"/>
          <path class="cls-36" d="M67.96,123.49c-.06,2.25-.17,4.5.01,6.75.16,2.02-.22,4.06-.21,6.06-5.12-.17-3.77-1.04-7.63-5.72l-10.8-.51c-2.81-.13-5.7.27-8.62-.55-1.08-.3-.58-1.84-.63-2.47l3.04-2.4c.41-.33.25-1.97,1.32-1.91,7.96.44,15.95-.52,23.52.75Z"/>
          <path class="cls-90" d="M135.64,8.97c-.02.99-.51,1.95-1.28,2.83-1.06,1.22-.73,3.03-1.51,4.4-1.43,2.49-3.09,4.84-3.62,7.37l-2.62,2.7c-.91-3.04.2-5.79.09-8.84-1.88-.7-11.32,1.02-11.06-1.17-.13-1.27-.58-6.5.54-7.19,1.2-.73,19.29-1.18,19.46-.11Z"/>
          <path class="cls-104" d="M77.16,45.97c.41.44.53.97.5,1.8l-.33,11.84c-.44.67-9.88,1.68-8.92.27-.54-.54,3.98-13.47,3.5-13.15.3-.2.73-.39,1.5-.45l3.75-.3Z"/>
          <path class="cls-27" d="M110.53,17.69c.77,1.5-.5,3.06-.19,4.66,1.17,6.1-8.89,2.83-13.33,4.12-.38-1.53-.48-3.76,1.05-4.86.73-.53,2.14.26,2.79-.42.78-.82.15-2.29.88-3.33,3-.45,5.95-.25,8.8-.17Z"/>
          <path class="cls-49" d="M96.42,27.11c-.16,2.96.06,6.77-2.35,8.99-1.84.88-4.51.17-6.21.18-.49-2.95.19-6.05,1.18-9.18,2.83-.36,5.14-.46,7.39,0Z"/>
          <path class="cls-106" d="M86.92,36.84c.39,2.4-.16,4.86-.05,7.28-.1.31-.27.88-.81.9l-7.82.27c-.23-2.46.05-5.95,1.31-8.25,2.29-.92,5.3-.36,7.37-.2Z"/>
          <g>
            <path class="cls-140" d="M172.79,10.3c-2.14,1.24-2.6,3.71-3.69,5.96l-1.38,2.84c-.79,1.62-1.88,2.57-1.35,4.26-1.49.7-1.08,2.2-1.88,2.96-1.53-.28-2.62.11-3.55.45-1.21.45-1.42,1.98-1.43,3.47l-.35,46.72.04,19.07c0,.23-.94.14-.96.37l-29.12.12-50.14.18c-.89,2.56-.94,4.91-.63,7.55h53.89s100.38.23,100.38.23l9.98,3.16c1.49.47,2,2.36,3.98,2.32,3.25-.07,7.23.61,8.54,3.7-.81.41-1.58.87-3.13.87l-203.86.04c-.7-.16-.74-.73-.8-1.11.99-.1,2.35-.52,2.55-2.02.11-.83.02-1.34.37-1.67.32-.31.92-.13,1.41-.34,1.23-.51.58-2.98,1.64-3.63,1.58-.98,3.98-1.09,5.59-1.63,2.65.33,5.45.47,8.65-.11l.2-39.28c0-1.6.16-2.91.25-4.18.02-.34-.11-.8.42-.7-.96,1.42,8.48.41,8.92-.27l.33-11.84c.02-.83-.1-1.36-.5-1.8l1.07-.68,7.82-.27c.54-.02.71-.58.81-.9.56-.07.5.49.66,1.12,2.68.04,5.22.19,8.03-.07.53-2.74-.03-5.39.71-7.84,2.98-1.13,5.73-.03,8.69-.44,1.59-.22,4.37-1.12,5.6.28l.61,8.11c1.6.25,3.63.26,5.02-.6.61-3.77-.68-7.57.57-11.33,3.1-2.73,5.99-3.24,4.02-8.64-7.43-.83-4.74-1.74-10.44-2.35-.31-1.61.96-3.16.19-4.66,4.86-3.15.97-.34,5.11-1.42-.26,2.19,9.18.47,11.06,1.17.12,3.04-1,5.79-.09,8.84l2.62-2.7c1.48,1.84.42,9.59,1.03,12.82,1.22,1.22,4.82-2.7,4.8-4.5-.11-9.91-.19-5.83,5.87-15.22,4.73.6,8.51.11,12.33-.64-.08-2.88-1.15-4.53-3.39-4.9l-2.06-3.01,20.67-.39c2.02-.04,3.75.92,4.32,2.56Z"/>
            <path class="cls-1" d="M107.36,46.75c.82,4.12-.98,6.63-1.02,12.18-1.09.55-4.64.66-4.76-.73-.36-4.04.23-7.7.2-11.61,2.14-.17,3.67.04,5.58.16Z"/>
          </g>
          <g>
            <path class="cls-142" d="M263.54,68.19c-.71.2-1.03-.31-1.41-.27-.5.04-.84,1.75-.84,2.29l-.04,43.11c-1.79-.15-4.3,1.01-6.11.34-1.31-3.09-5.29-3.77-8.54-3.7-1.98.04-2.5-1.85-3.98-2.32l-9.98-3.16-100.38-.22h-53.89c-.32-2.65-.26-5,.63-7.56l50.14-.18,29.12-.12c2.04,0,4.12.43,7.14-.07l.16-60.59.51-6.75c.19-2.53,1.01-5.44,3.86-5.1,6.13-8.42-.2-5.56,6.1-10.06l3.14-2.24,1.02-2.86c3.44-1.55,12.22-.2,13.77-1.14.28-.17-.35-1.04.58-1.01.07.56.09.88.5.93l1.39.17c3.12.37,6.08-.41,8.99.36l1.08,2.98c2.81.54,5.57-.09,8.3.79l.53,5.54c2.55.94,5.92-.55,8.27.91s1.34,5.22,1.64,7.9l8.4.72c1.78,2.63,2.2,5.87,2.34,9.15l7.05.8c.5,2.27.25,4.42.28,6.72.04,2.84,4.9-.15,7.72,2.37,1.39,1.24.36,4.4,1.6,5.64,9.86,2.1,4.79,6.74,9.81,9.45,1.4,2.12.2,5.05,1.1,7.17Z"/>
            <g>
              <path class="cls-108" d="M234.03,45.41l-.14,18.68c-.02,2.28-.69,3.78-1.65,5.57-3.12,5.79-6.32,1.83-8.09,2.99-2.09,1.38-1.77,8.39-4.23,8.81l-4.4.75c1.18-.2-3.79,2.67-3.99,3.52s1.43.54,1.57,1.03c.81,3.02.24,6.73.36,9.74l-10.39.02-.11-8.23c.99.05,2.21-.72,3.38-.78.72-2.38.16-4.3-.86-6.46-7.36.4-15.06-1.06-21.82.62-1.26-.5-4.22-1.15-5.24.08l-.7,14.38c-1.73.51-3.26.67-5.08-.03l.19-55.64c.01-4,3.07-11.18,5.07-14.72,1.56-2.77,3.36-4.49,5.79-6.6,1.07-.93.95-1.95,3.09-1.93l19.9.25.43,8.21,15.21.58c4.29.16.97,5.41,2.6,9.83,3.11-.02,5.69-.23,9.05.48-.94,3.14.09,6.15.07,8.85Z"/>
              <path class="cls-41" d="M213.45,96.51c-.12-3.01.45-6.72-.36-9.74-.13-.49-1.76-.19-1.57-1.03s5.17-3.72,3.99-3.52l4.4-.75c2.45-.42,2.14-7.43,4.23-8.81,1.77-1.17,4.97,2.8,8.09-2.99.97-1.79,1.64-3.28,1.65-5.57l.14-18.68,8.71.02-.27,39.83c-.04,5.47.25,10.38-.33,16.16-2.44.77-5.54,1.25-8.12.26-1.85-.71-2.3-3.36-3.51-4.87l-17.05-.3Z"/>
              <path class="cls-147" d="M202.95,88.3c-4.22-.21-8.45.19-12.64-.07l-7.26-.44.6-6.11c6.75-1.68,14.45-.22,21.82-.62,1.02,2.16,1.58,4.08.86,6.46-1.17.06-2.4.83-3.38.78Z"/>
              <path class="cls-139" d="M202.95,88.3l.11,8.23c-4.48,0-8.95.22-13.35-.28l.6-8.01c4.19.26,8.42-.15,12.64.07Z"/>
              <path class="cls-59" d="M190.31,88.23l-.6,8.01c-2.26-.26-4.54.96-7.5.12.03-2.85-.9-6.36.85-8.58l7.26.44Z"/>
            </g>
          </g>
        </g>
        <g>
          <path class="cls-78" d="M248.52,122.85c.8,0,1.69.09,2.8.3.36,2.36-.22,4.45.35,6.69l15.19.25.38,7.89-.93,10.37c-.19,2.15-.92,4.07-.67,6.06-.99.05-1.01-1.27-.95-2.27-2.32.4-4.34.93-6.8.75-.57,1.76-.51,3.26-.19,5.19,2.79-.24,7.38.95,7.19-1.56-.02-.24.38-.52.73-.31-.35.91.31,1.66.39,2.67.71,9.69.56,19.35.5,28.94-.02,3.31-2.08,4.5-4.37,6.18-2.02,1.48-2.89,5.34-5.31,5.61l-4.89.55c-.14,1.76.21,3.45-.38,5.22l-9.46.21-.26,8.13c-.08,2.6-4.2,6.52-6.67,7.64-.91.41-.68,2.73-1.48,3.22-4.07,2.51-6.31.05-8.3,1.87-1.16,0-.67-1.51-1.6-1.81.49-1.62-.73-4.45.67-5.91.59-1.21,7.36-.27,7.69-.99.1-.22-.08-.59,0-.94,2.08-8.21.3-17.25,1.2-25.79-.83.21-1.12.43-1.28.36-3.42,1.02,5.38-3.92,5.28-3.85,1.81-1.12,1.36-3.81,2.97-4.52-.38.75-.43,1.73-.62,2.61-.12.53.81,1.19,1.35,1.41l.29,12.21c3.4.36,6.63.19,10.24.05.42-2.15-.03-3.99.6-5.82,1.92-.71,4.03.22,5.99-.64.98-.43.98-2.66.97-3.89-.05-8.75.29-17.1-.19-25.45.29.1.58-.23.45-.3-.19-.1-.54-.83-.77-.83l-16.55-.09-.27-13.5c-.06-3.29-2.39-6.29-2.5-10.21-.03-1.03-2.71-1.13-2.75-1.89l-.3-4.67c-.11-1.75-11.26-2.31-11.76-2.31l-143.07-.12c-1.71,0-3.08.68-4.35-.18.14-.37.5-.6.45-1.04-.18-1.78.14-3.59.14-5.38l170.84-.11Z"/>
          <path class="cls-120" d="M77.54,128.34c.04.44-.32.67-.45,1.04,1.27.87,2.64.18,4.35.18l143.07.12c.51,0,11.65.56,11.76,2.31l.3,4.67c.05.75,2.72.85,2.75,1.89.11,3.91,2.43,6.91,2.5,10.21l.27,13.5,16.55.09c.23,0,.58.72.77.83.14.07-.16.41-.45.3-3.45-1.08-10.64-.57-14.79-.36-.26,3.43-.02,6.11.08,8.81.14,3.91-1.7,6.71-3.91,11.07-1.61.7-1.17,3.4-2.97,4.52.1-.06-8.7,4.88-5.28,3.85,0,1.37-.7,1.95-2.1,2.69l-3.21,1.68c-.9.47-1.04,2.02-2.69,2.12-.51.03-.66,1.54-.95,1.86l-12.25.24c-7.07.14-14.18.25-21.24.04l-13.32-.38-.32-5.61c-2.66-.35-6.8,1.14-7.48-1.98-.02-1.95-.5-3.76-2.28-4.74-1.21-4.75-7.17-1.57-7.25-4.45-.05-1.56-.49-2.56-.74-3.55-.38-1.49.09-3.23-.66-5.01-3.31-.27-6.6-.12-9.97.06-.59,5.19-2.62,5.03-2.71,7.97-5.06,3.48-3.88.21-6.05,6.84-.46,1.39-.84,2.14-1.75,3.43-1.01,1.43-2.17,1.41-3.62,1.12-.02-.38.6-.64.49-.88.59,1.31-2.66-3.18-1.83-1.51-.12-1.19-.76-2.38-.62-3.57.23-1.93-.3-4.11.28-5.99,2.38.24,4.65.01,7.49-.28l.13-11.97c-.08-.42.29-.69.69-.59,4.87.66,11.64-1.53,17.5.7,4.1,3.72,5.16,6.25,6.55,11.75l4.63,1.12,1.83,11.05,53.69-.38c1.76-.01,1.17-3.32,1.73-4.18,1.18-1.78,4.05-.44,5.57-1.2,2.14-1.06.64-4.5.65-6.05.98-3.6.34-8.79.4-12.71l.16-19.47c.03-4.01.03-7.83-.36-11.67-2.73-.38-4.85-.17-6.98-.07-2.2.8-1.36-5.23-1.53-6.99-2.4-1.62-4.96.15-7.42.05-44.57-1.75-89.71-.07-135.33-.84l-.5,7.45-3.58.44c-1.56.19-3.4-.9-5.39-.06l-.6,28.35c-.08,4-2.76,7.53-.88,11.99-.2.23-1.03.66-.97.47.01-.51-.91-1.01-1.26-1.22.53-4.97-.54-10.13.35-15.3.29-1.71-.53-3.14-.53-4.6l-.06-21.25c0-2,.37-4.05.21-6.06,2.61.47,5.6.45,8.43-.16.26-.06-.07-1.22.02-1.43.13-.32.63-.48,1.11-.32Z"/>
          <path class="cls-57" d="M215.79,234.82l-1.55,7.58-32.37.05-7.33.46c-11.45.72-23.09-.96-34.3.54.55-1.76-6.14-1.02-6.74-1.02l-32.19-.04-.51-7.96,94.4-.09c4.4,0,8.87.16,13.7-.25-.12-2.29-.79-4.65.84-6.46.62-.53,2.13-.97,2.91-1.16,1.06-.26,2.22-.46,3.3-.41l-.07,8.11c-.85.27-.77.89-.09.62Z"/>
          <path class="cls-19" d="M68,177.45c-.52,4.8-.38,9.64-.52,14.49-1.47,1.38-5.61,1.15-6.84-.87-.98-1.61-1.83-4.3-1.83-6.36l-.02-26.67,9.04-.48c0,1.45.83,2.89.53,4.6-.89,5.17.18,10.33-.35,15.3Z"/>
          <path class="cls-128" d="M77.7,192.96c2.06.07,3.16,1.06,4.94,2.39,1.4,1.05,3.99.96,3.72,4.29.94-.08,1.57-.79,1.61.08l-1.08.28c.25,6.2-.43,12.67.54,18.69.34,2.12-.03,4.54.12,6.7-1.17-.1-3.83.86-4.58-.52l-2.32-3.85c-1.31-2.17-1.44-4.87-2.05-7.25-1.2-4.67.02-9.52-.69-14.16-2.71-.77-6.05.48-8.53-.79-1.57-1.17-1.24-4.49-1.41-6.22,3.24.28,6.49.26,9.73.38Z"/>
          <path class="cls-112" d="M225.39,226.44c-.22,2.44.3,5.17-.5,7.59-3.17.75-6.34-.36-9.1.8-.68.27-.75-.36.09-.62l.07-8.11c1.07.05,9.12.68,7.84-1.46.93.31.44,1.82,1.6,1.81Z"/>
          <path class="cls-42" d="M95.9,226.02c-.23,2.47,1.54,4.73,1.76,7.12.86,1.86-7.73.85-9.32.86-.62-3.02-.6-5.84-.79-8.62,2.15.19,6.05.63,8.36.63Z"/>
          <path class="cls-67" d="M69.26,178.67c-.03,1.35.41,2.18,1.23,3.06.66.7.6,2.43.84,3.51.99,4.47,5.56,1.48,6.36,7.71-3.24-.12-6.49-.1-9.73-.38-.04-.37.04-.78-.49-.64.14-4.85,0-9.68.52-14.49.36.21,1.27.71,1.26,1.22Z"/>
          <path class="cls-83" d="M265.64,154.4c.07.56.18,1.27-.03,1.8-.35-.21-.75.07-.73.31.18,2.51-4.4,1.32-7.19,1.56-.32-1.93-.38-3.42.19-5.19,2.46.18,4.49-.36,6.8-.75-.06,1-.04,2.31.95,2.27Z"/>
          <path class="cls-77" d="M77.04,181.61c1.83,2.23,0,5.56,1.44,6.07.43.15,1.24.72,1.71.67.2,1.4.6,5.05,3.55,5.04l45.85-.18c1.52,0,2.87-.73,2.56-1.9-.83-1.67,2.42,2.82,1.83,1.51.11.23-.51.5-.49.88-1.65,1.06-.62,3.48-1.31,5.92l-44.21.09c-.04-.87-.67-.16-1.61-.08.27-3.33-2.31-3.24-3.72-4.29-1.78-1.33-2.88-2.32-4.94-2.39-.8-6.23-5.37-3.25-6.36-7.71-.24-1.08-.19-2.81-.84-3.51l6.55-.13Z"/>
          <path class="cls-144" d="M210.88,199.96c.32,4.56-.57,2.7,1.37,4.68-2.31-.31,1.52,9.64-5.02,9.73-5.54.07-10.83.26-16.02-.12-4.77-.35-2.38-11.99-1.56-14.24,7.06.2,14.17.1,21.24-.04Z"/>
          <path class="cls-3" d="M223.13,199.72c1.63,5.27-.07,11.28.9,16.86.3,1.72,7.54.8,8.13.22-.09.35.1.71,0,.94-.33.72-7.1-.22-7.69.99-1.4,1.45-.18,4.28-.67,5.91,1.28,2.14-6.77,1.51-7.84,1.46s-2.24.15-3.3.41c-.25-1.63.24-3.37-.44-4.91.67-1,1.97-1.95,3.75-1.71.91-4.35.44-9.25.19-13.56-1.41-.89-2.76-1.29-3.89-1.67-1.94-1.97-1.04-.12-1.37-4.68l12.25-.24Z"/>
          <path class="cls-135" d="M212.21,221.59c.68,1.53.19,3.28.44,4.91-.78.19-2.29.63-2.91,1.16-1.63,1.8-.96,4.17-.84,6.46-4.84.41-9.3.24-13.7.25.09-.44.01-1.35-.32-1.15-.26.16-1.25.5-1.43-.21-.5-1.99.63-4.01,1-5.92l11.88-.72c1.01-2.4,3.23-4.58,5.87-4.77Z"/>
          <path class="cls-82" d="M158.25,179.3c-.47,1.67-9.83-.08-11.31.89-.65.51-.78,2.79-2.03,2.12.09-2.94,2.12-2.78,2.71-7.97,3.38-.18,6.67-.33,9.97-.06.75,1.78.28,3.52.66,5.01Z"/>
          <path class="cls-62" d="M95.9,226.02c-2.3,0-6.21-.44-8.36-.63-.15-2.16.22-4.58-.12-6.7,2.35.1,4.71-.01,6.4,1.63s2.3,3.4,2.08,5.7Z"/>
          <g>
            <path class="cls-85" d="M166.24,187.3c-.98.08-.53,4.73.72,5.17.43.15,1.07-.18,1.56-.43.68,3.12,4.82,1.62,7.48,1.98l.32,5.61,13.32.38c-.82,2.25-3.2,13.9,1.56,14.24,5.19.38,10.48.19,16.02.12,6.55-.09,2.71-10.03,5.02-9.73,1.13.37,2.48.78,3.89,1.67.25,4.31.73,9.22-.19,13.56-1.78-.24-3.07.71-3.75,1.71-2.64.19-4.86,2.37-5.87,4.77l-11.88.72c-.37,1.91-1.5,3.93-1,5.92.18.71,1.17.37,1.43.21.33-.2.41.71.32,1.15l-94.4.09c-.73-.76-2.04-1.56-3.14-1.3-.22-2.4-1.99-4.65-1.76-7.12.22-2.3-.33-4-2.08-5.7s-4.05-1.53-6.4-1.63c-.97-6.02-.29-12.49-.54-18.69l1.08-.28,44.21-.09c.69-2.44-.34-4.86,1.31-5.92,1.45.28,2.61.3,3.62-1.12.91-1.28,1.3-2.04,1.75-3.43,2.17-6.63.99-3.36,6.05-6.84,1.25.67,1.39-1.61,2.03-2.12,1.48-.97,10.83.78,11.31-.89.25.99.7,1.99.74,3.55.08,2.88,6.04-.3,7.25,4.45Z"/>
            <path class="cls-143" d="M166.21,214.79l-25.12.06c-.26-2.42-.24-4.14.36-6.73,7.63.27,15.17-.53,22.76.37,2.34.28,2.84,4.45,1.99,6.3Z"/>
            <path class="cls-26" d="M168.52,192.03c-.49.25-1.13.58-1.56.43-1.24-.44-1.7-5.09-.72-5.17,1.78.97,2.25,2.78,2.28,4.74Z"/>
          </g>
          <path class="cls-95" d="M258.96,163.48c.48,8.35.14,16.7.19,25.45,0,1.22.01,3.46-.97,3.89-1.96.86-4.06-.07-5.99.64-.63,1.83-.18,3.67-.6,5.82-3.61.14-6.84.31-10.24-.05l-.29-12.21c1.12-1.31,3.19-.85,5.09-1,2.41-.19,2.42-3.04,2.56-4.82.05-.64,1.8-.36,2.05-.8-.14.25,1.03-7.32.37-8.17-2.38-.56-4.66-.17-6.89-.31-.1-2.7-.34-5.38-.08-8.81,4.15-.21,11.34-.72,14.79.36Z"/>
          <path class="cls-63" d="M232.16,216.8c-.59.58-7.83,1.5-8.13-.22-.97-5.58.73-11.58-.9-16.86.29-.32.44-1.83.95-1.86,1.65-.1,1.79-1.65,2.69-2.12l3.21-1.68c1.4-.73,2.11-1.32,2.1-2.69.16.07.45-.16,1.28-.36-.9,8.54.87,17.58-1.2,25.79Z"/>
          <path class="cls-32" d="M241.06,187.02c-.53-.22-1.47-.88-1.35-1.41.19-.88.24-1.86.62-2.61,2.21-4.36,4.05-7.15,3.91-11.07,2.22.13,4.5-.26,6.89.31.65.85-.51,8.41-.37,8.17-.25.44-1.99.16-2.05.8-.15,1.78-.15,4.63-2.56,4.82-1.9.15-3.97-.31-5.09,1Z"/>
          <path class="cls-131" d="M77.69,122.96c0,1.79-.32,3.6-.14,5.38-.48-.17-.98,0-1.11.32-.09.21.24,1.37-.02,1.43-2.83.61-5.82.63-8.43.16-.18-2.24-.07-4.5-.01-6.75,2.95-.66,6.58-.53,9.72-.53Z"/>
          <path class="cls-44" d="M225.48,137.81c-.6-1.96,1.5,12.34.65,9.37.52,1.79.59,3.16.44,4.93-.83.66-1.96.27-3.12.81-.21,5.52-7.41,4.54-7.7,9.93-.09,1.66-5.24,6.54-6.24,7.58l-5.12,5.26c-1.61,1.65-9.44,10.2-8.57,12.06l-19.42.31c-.5-1.92-.06-3.73-.31-6.05l-5.82-1.12c-1.13-.22-.87-3.66-.51-4.75l4.99.73,1.15-8.44c2.52-1.07.51-7.18,2.01-8.83,1.47-.96,4.03.09,5.76-.64.98-2.08.05-4.39.2-6.4s1.16-4.16.43-6.9l-7.15-.14c-2.75-.65-1.84-5.94-1.28-7.96l40.96.11c-.26-2.52.4-4.81-.26-6.77,2.47.1,5.02-1.68,7.42-.05.17,1.76-.67,7.79,1.53,6.99Z"/>
          <path class="cls-50" d="M216.53,130.87c.66,1.96,0,4.25.26,6.77l-40.96-.11-95.14-.05.5-7.45c45.62.77,90.77-.91,135.33.84Z"/>
          <path class="cls-121" d="M232.66,169.02c-.05,3.92.58,9.11-.4,12.71l-6.32.26c-.64.03-1.33.07-1.83.37-1.12.66-.43,3.69-1.28,4.7-.45.54-1.66,1.12-2.81,1.08-8.29-.28-16.3.39-24.22-.39-.87-1.86,6.96-10.41,8.57-12.06l5.12-5.26c1-1.03,6.15-5.92,6.24-7.58.29-5.39,7.49-4.41,7.7-9.93,1.16-.53,2.29-.14,3.12-.81-.31,3.66.04,7.35.04,11.54,0,2.05,4.28,1.41,4.8,2.13,1.69,2.33-1.3,3.3,1.27,3.24Z"/>
          <path class="cls-91" d="M167.92,173.05c.34,1.13,1.04,2.21,1.82,3.08-.36,1.09-.62,4.54.51,4.75l5.82,1.12c.25,2.32-.19,4.14.31,6.05l19.42-.31c7.92.78,15.93.11,24.22.39,1.15.04,2.36-.54,2.81-1.08.85-1.01.17-4.04,1.28-4.7.5-.3,1.2-.34,1.83-.37l6.32-.26c-.01,1.55,1.49,4.99-.65,6.05-1.52.76-4.39-.58-5.57,1.2-.57.85.03,4.17-1.73,4.18l-53.69.38-1.83-11.05-4.63-1.12c-1.39-5.49-2.45-8.03-6.55-11.75-5.86-2.23-12.63-.04-17.5-.7,2.48-7.96,9.91-4.74,19.85-5.3,3.66-.2,3.32,2.95,4.77,4.84,1.11,1.45,3.91,1.95,3.18,4.6Z"/>
          <path class="cls-25" d="M77.12,137.93l.03,43.16c0,.17-.15.34-.1.52l-6.55.13c-.82-.88-1.26-1.71-1.23-3.06-.05.19.77-.24.97-.47-1.88-4.47.8-8,.88-11.99l.6-28.35c1.99-.84,3.83.26,5.39.06Z"/>
          <path class="cls-107" d="M86.75,188.19l44.78-.45c-.14,1.19.5,2.38.62,3.57.31,1.17-1.04,1.89-2.56,1.9l-45.85.18c-2.95.01-3.35-3.63-3.55-5.04,2.2-.2,4.37-.14,6.56-.16Z"/>
          <path class="cls-150" d="M232.66,169.02c-2.56.06.42-.91-1.27-3.24-.52-.72-4.8-.08-4.8-2.13,0-4.18-.35-7.88-.04-11.54.15-1.77.08-3.14-.44-4.93.86,2.97-1.25-11.33-.65-9.37,2.13-.1,4.25-.31,6.98.07.39,3.84.4,7.67.36,11.67l-.16,19.47Z"/>
          <path class="cls-125" d="M139.43,169.5l-.13,11.97c-2.85.29-5.12.51-7.49.28.66-2.16,1.21-4.57,2.27-6.75.57-1.17,2.29-1.33,2.45-3.06.12-1.29,1.92-2.19,2.91-2.44Z"/>
          <path class="cls-11" d="M86.75,188.19c-2.18.02-4.36-.03-6.56.16-.48.04-1.28-.52-1.71-.67-1.45-.51.39-3.84-1.44-6.07-.05-.18.1-.35.1-.52,2.39,1.43,6.69.36,8.1,1.76,1.08,1.07.22,4.28,1.51,5.35Z"/>
          <g>
            <path class="cls-152" d="M80.7,137.48l95.14.05c-.56,2.02-1.47,7.31,1.28,7.96-1.87.98-1.3,5.56.3,6.34,2.23,1.09,4.67.4,6.43.7-.14,2.01.78,4.32-.2,6.4-1.73.73-4.29-.31-5.76.64-1.5,1.65.52,7.77-2.01,8.83-1.98.51-4.19.07-6.39,1.03.03,1.67.05,3.64-1.56,3.6.73-2.65-2.07-3.15-3.18-4.6-1.45-1.89-1.11-5.04-4.77-4.84-9.94.56-17.37-2.66-19.85,5.3-.4-.1-.76.17-.69.59-.99.25-2.79,1.15-2.91,2.44-.16,1.73-1.88,1.89-2.45,3.06-1.06,2.18-1.61,4.59-2.27,6.75-.57,1.88-.05,4.07-.28,5.99l-44.78.45c-1.29-1.06-.43-4.28-1.51-5.35-1.41-1.39-5.71-.33-8.1-1.76l-.03-43.16,3.58-.44Z"/>
            <path class="cls-7" d="M122.38,174.68c-2.47-.09-12.88,1.3-12.51-2.25.14-1.31.33-4.19,1.31-5,3.88-5.12,8.39-8.73,9.79-14.49,6.16-.57,2.55-3.23,5.86-6.91,4.13-.91,8.35-.09,12.81-.46l-.49,6.08c-2.22-.3-2.85,1.25-3.88,2.56l-3.27,4.18c-1.13,1.44-2.16,2.37-1.98,4.59l-5.27.42c-1.12,3.64-1.85,6.97-2.38,11.29Z"/>
          </g>
          <path class="cls-61" d="M183.85,152.54c-1.76-.3-4.2.39-6.43-.7-1.6-.78-2.17-5.37-.3-6.34l7.15.14c.73,2.74-.28,4.82-.43,6.9Z"/>
          <path class="cls-145" d="M175.87,168.42l-1.15,8.44-4.99-.73c-.78-.87-1.48-1.95-1.82-3.08,1.62.04,1.59-1.93,1.56-3.6,2.2-.96,4.41-.53,6.39-1.03Z"/>
        </g>
      </g>
      <g>
        <g>
          <path class="cls-132" d="M96.27,477.89l18.81.57c-1.28.52,2.17,7.03-.36,7.2-1.35.09-3.04-1.38-3.73.05-4.73-1.45-26.49.06-33.64.46-.86,6.27-.99,12.07-.88,18.39l39.3-.03,24.34-.18.55-18.1c.48,0,.83.06,1.25-.01,1.66-.28,3.4-.14,5.44.2l-.23,24.44c-6.21,1.08-22.12-.2-25.22.1-5.69.56-11.3.31-16.7.08-1.15-.05-2.3-1.02-3.55-.06-1.63,1.25-3.97-.7-5.71-.31-5.81,1.29-11.51-.22-12.8.1-1.12.28-1.55.42-2.74.14-5.98-1.41-9.67,1.35-11.89-.29-.7-7.67-.39-15.48-.03-23.63,2.97-1.09,5.72-.52,9.03-.7.19-2.9-.43-4.92.35-7.76,3.38.89,7.25-.89,10.13-.52s5.61-.22,8.28-.14Z"/>
          <path class="cls-10" d="M97.73,393.74c-.26.09-.79-.11-.96.06-.34.32-.48,1.05-.48,1.8l-.11,62.1c5.19.68,10.14.34,15.43.15,8.31-.31,3.25,1.95,7.31,2-.9.51-.95,2.22-1.62,2.7-2.43,1.76-5.88.78-8.71,1.24-3.36.55-6.3,1.21-9.77.75-.65-.08-1.3.13-1.21.72-2.39-.03-1.07,10.4-1.36,12.65-2.67-.08-5.49.5-8.28.14l.21-97.78c2.23.12,3.18,2.46,4.09,4.45,2.48,5.42,6.16,6.08,5.43,9.04Z"/>
          <path class="cls-117" d="M223.06,401.57c.93,2.82,2.77,1.16,1.93,4.78-.09.38.12.58.12.89l.39,55.57,6.37.91c-.16,6.59.27,12.76-.49,19.19-.3,2.54-7.68-.78-5.36,2.88-.37.48-1.15.41-1.47.63-.43.3-.26.82-.3,1.21-1.02-.1-.37-1.28-.97-2.26l-30.51-.22c.16-2.24.69-4.42.5-6.67l23.73-1.02c2,.54,4.6,1.15,7.01.37.46-3.96.21-7.88.09-11.92-2.63-.61-4.89-.5-7.14-.09-.84-.27-1.94-.31-2.88-.3.04-.35-.23-.5-.08-.68.94-1.08,2.52,1.08,2.47-.39l-.04-1.05c-.06-1.62.68-3.8.7-6.1l.38-53.83c0-1.06-.11-2.24.65-2.53.84.12,1.72.67,2.39.95-.19,1.4.67,2.18,1.14,2.73.66.77,2.72.77,2.52-.37-.78-1.12-1.14-1.29-1.44-1.46-.54-.31-.55-1.33.25-1.22Z"/>
          <path class="cls-116" d="M175.83,407.69l.21,47.15c.02,4.51,6.56,1.73,7.95,3.82.83,1.25,1.74,1.83,2.66,2.4.12.37-.02,1.76.66,1.79l13.36.43,15.8.11.04,1.05c.05,1.47-1.53-.69-2.47.39-.15.17.12.33.08.68l-38.04.09c-.33,4.44-.28,8.43-.05,12.71l17.27.16c.18,2.25-.35,4.44-.5,6.67.99,0-9.68,2.24-9.82,2.39-.72.78-.38,2.21-.49,3.06-1.44-.16-.07-2.67-.69-3.58-1.41-.89-4.12-.49-5.81-.2-.25.04-.22,1.32-.77.63-.12-.15-.35-.25-.56-.32-1.73-.61-3.59.33-5.59-.54-.51-7.53-.39-14.68-.1-21.93,1.81-1.16,3.77-.32,5.23-1.15.98-.55,0-2.95-.33-3.97-.78-2.37-5.25,1.61-5.25-10.7l.02-39.85c0-1.22.07-2.66.51-3.67,1.49.65,4.75-1.41,6.16.33.04.75-.42,2.27.53,2.04Z"/>
          <path class="cls-24" d="M158.16,402.29c.51.27,1.14,0,1.29.4.25.63.22,1.93.13,2.43.7-.17,1.55-.61,2.29-.55,2.58.19,4.92-.27,7.26.75-.44,1-.51,2.45-.51,3.67l-20.33.17v68.15c.01,1.33,1.83.6,2.08,1.1,1.15,2.26.69,5.21.42,7.75-.9.36-2.64-.04-2.65.9l-.39,24.85-79.03-.05-.23-1.21c2.21,1.64,5.91-1.12,11.89.29,1.2.28,1.63.13,2.74-.14,1.29-.32,6.99,1.19,12.8-.1,1.74-.39,4.07,1.56,5.71.31,1.25-.96,2.4,0,3.55.06,5.4.23,11.01.48,16.7-.08,3.1-.31,19.01.98,25.22-.1l.23-24.44c-2.03-.34-3.78-.48-5.44-.2.09-.36.08-.6-.05-.82-.21-.36-1.29.05-1.26-.22.29-2.17-.66-4.86-.47-6.72l.62-6.08-.06-63.49c0-1.26-.76-2.01.13-2.82,2.21-2.01,5.08.11,6.83-.54l1.98-3.18,8.53-.08Z"/>
          <path class="cls-4" d="M174.65,487.11c.21.08.45.18.56.32.55.69.52-.58.77-.63,1.68-.29,4.4-.69,5.81.2.63.91-.75,3.41.69,3.58-.15,1.18-1.21,1.65-1.04,2.93.49,3.63-.65,7.12.74,10.96l40.74.22c.64-2.77-.11-5.34.65-7.93.92-3.14.41-6.2.69-9.13.04-.39-.13-.91.3-1.21.32-.22,1.1-.15,1.47-.63,7.09,1.79,5.81,3.63,7.16,9.8,1.17,5.33.32,10.8.01,16.41l-58.22-.12-.33-24.76Z"/>
          <path class="cls-113" d="M97.73,393.74c2.43-.08,9.62,8.38,12.64,9.71-.12.49-.05.84-.02,1.18.05.52,1.27.6,1.43.97.87,1.95,2.62,2.67,4.46,3.51.92.42,1.59,1.74,3.31,1.54.93-.1,2.59.07,2.83,1.2.23,1.07-.1,1.87.5,2.3.83.59,1.69-.03,2.69.22.71.18.77,1.9,1.74,1.69,1.99-.42,2.58-2.41,5.2-2.52l-.25,40.03c-1.47,1.17-3.54,1.32-4.58,2.71-2.56,3.43-2.62.07-8.75,3.55-4.06-.05,1-2.3-7.31-2-5.29.19-10.24.53-15.43-.15l.11-62.1c0-.75.14-1.47.48-1.8.17-.16.7.04.96-.06Z"/>
          <path class="cls-21" d="M148.02,396.72c.83-.06.84,1.01,1.4,1.54h8.25c-1.32,1.69.91,1.38.49,4.02l-8.53.08-1.98,3.18c-1.75.66-4.62-1.47-6.83.54-.89.81-.13,1.56-.13,2.82l.06,63.49-.62,6.08c-2.56-.11-5.31-.58-7.87-.51-.53-3.97,1.26-7.89-.83-12.33l-33.8-.4c-.09-.59.56-.8,1.21-.72,3.46.45,6.41-.2,9.77-.75,2.82-.46,6.28.52,8.71-1.24.66-.48.72-2.19,1.62-2.7,6.13-3.48,6.18-.12,8.75-3.55,1.04-1.39,3.12-1.54,4.58-2.71l.25-40.03c-2.61.11-3.2,2.1-5.2,2.52-.98.21-1.03-1.51-1.74-1.69-1-.25-1.86.38-2.69-.22-.6-.43-.27-1.23-.5-2.3-.24-1.13-1.9-1.31-2.83-1.2-1.72.19-2.39-1.12-3.31-1.54-1.83-.84-3.58-1.56-4.46-3.51-.17-.37-1.38-.45-1.43-.97-.03-.34-.1-.69.02-1.18,2.54-.35,5.25.16,7.49-1.55,2.94-2.25,6.67-4.21,7.66-7.96.88-3.32-.16-10.3,1.17-11.12,3.36,1.83.22,5.38,4.27,6.55s1.44,4.07,2.76,8.87c2.98.32,12.41-.27,14.28-1.52Z"/>
          <path class="cls-96" d="M158.27,390.61l-10.29.56c-.08,2.12-.12,3.85.04,5.55-1.88,1.25-11.3,1.84-14.28,1.52-1.32-4.8,1.14-7.74-2.76-8.87s-.91-4.72-4.27-6.55c.53.14-7.05-7.42-6.24-6.89-.68-.49.37-.5.81-1.06l18.79.04c2.56,0,4.4.85,4.75,3.82.49.67,2.09.61,3.46,1.32.53-1.69.37-3.04.68-4.93l9.14-.02c.27,5.52.4,10.49.18,15.52Z"/>
          <path class="cls-28" d="M110.99,485.71c.3.09.8.3.62.71-.48,1.12-1.31,2.62-.47,4.17.91,1.68,3.55,1.96,4.75,2.99.67,3.67.33,7.68-.13,10.96l-39.3.03c-.11-6.32.02-12.12.88-18.39,7.15-.4,28.91-1.91,33.64-.46Z"/>
          <path class="cls-54" d="M140.66,486.26l-.55,18.1-24.34.18c.46-3.29.8-7.29.13-10.96-1.2-1.02-3.84-1.31-4.75-2.99-.84-1.55,0-3.05.47-4.17l7.92-.16h21.13Z"/>
          <path class="cls-12" d="M132.27,477.97l-17.19.49-18.81-.57c.29-2.25-1.03-12.68,1.36-12.65l33.8.4c2.09,4.44.3,8.36.83,12.33Z"/>
          <path class="cls-48" d="M132.27,477.97c2.55-.07,5.31.4,7.87.51-.19,1.86.75,4.55.47,6.72-.04.27,1.05-.14,1.26.22.13.23.14.46.05.82-.42.07-.77.01-1.25.01h-21.13s-7.92.16-7.92.16c.17-.4-.33-.62-.62-.71.7-1.43,2.38.04,3.73-.05,2.52-.17-.92-6.68.36-7.2l17.19-.49Z"/>
          <path class="cls-86" d="M224.26,487.63c-.28,2.93.24,5.99-.69,9.13-.76,2.59,0,5.15-.65,7.93l-40.74-.22c-1.39-3.83-.25-7.33-.74-10.96-.17-1.28.89-1.75,1.04-2.93.1-.84-.23-2.28.49-3.06.13-.14,10.8-2.38,9.82-2.39l30.51.22c.6.98-.05,2.16.97,2.26Z"/>
          <path class="cls-96" d="M214.11,465.5c.94,0,2.04.04,2.88.3l.04,11.64-23.73,1.02-17.27-.16c-.23-4.28-.28-8.27.05-12.71l38.04-.09Z"/>
          <path class="cls-47" d="M218.19,400.93c-.76.29-.65,1.47-.65,2.53l-.38,53.83c-.02,2.29-.75,4.48-.7,6.1l-15.8-.11-13.36-.43c-.68-.02-.54-1.42-.66-1.79l13.4-.41c4.32-.13,8.26-.54,12.31-2.62l-.25-49.75c-2.04-2.18-2.28-4.63-2.03-7.39.1-1.11-2.09-.79-2.48-1.3-1-1.31-.8-2.94-1.39-4.2.76-.27,1.84-.25,2.33-1.01l6.2,3.93c1.43.9,2.99.86,3.46,2.62Z"/>
          <path class="cls-14" d="M217.02,477.45l-.04-11.64c2.25-.41,4.5-.52,7.14.09.12,4.04.37,7.96-.09,11.92-2.41.78-5,.17-7.01-.37Z"/>
          <path class="cls-87" d="M186.72,374.96c1.46,0,2.75-.03,4.83.15-.6,3.27,1.06,4.75,2.8,6.71,1.64,1.85,2.35,4.44,5.05,5.19-.19,1.03.14,1.05.72,1.23,2.09.67,3.92,2.31,5.73,3.26-.13,1.24-.1,2.91.35,3.88.59,1.26.4,2.89,1.39,4.2.39.51,2.58.19,2.48,1.3-.25,2.76-.01,5.21,2.03,7.39l.25,49.75c-4.06,2.09-7.99,2.49-12.31,2.62l-13.4.41c-.92-.57-1.82-1.14-2.66-2.4-1.39-2.09-7.94.68-7.95-3.82l-.21-47.15c.26-.77-.17-1.81.52-2.58,1.83-.48,4.07-.51,5.01-2.16.65-1.15.42-2.74,1.01-3.99-3.39-.3-4.46-1.39-5.89-.71-.59.28-.36,1.43-.99,2.14.41-4.74-12.27-1.06-15.36-2.42.19-6.63-.76-13.53.12-20.41.07-.56,2.2-.34,2.53-.78.27-.36.21-1.61.79-1.92l23.15.12Z"/>
          <path class="cls-111" d="M175.83,407.69c-.95.22-.5-1.29-.53-2.04-1.4-1.74-4.66.32-6.16-.33-2.34-1.02-4.68-.55-7.26-.75-2.57-5.24-1.87-2.25-1.75-6.6,3.08,1.36,15.77-2.32,15.36,2.42.62-.7.4-1.86.99-2.14,1.44-.68,2.5.41,5.89.71-.59,1.25-.36,2.84-1.01,3.99-.94,1.66-3.18,1.68-5.01,2.16-.68.77-.26,1.81-.52,2.58Z"/>
          <path class="cls-122" d="M198.81,376.8c1.05.21,1.51,6.2,3.92,8.91l4.92,1.03c-.25.5-.56.92-.69,1.31-.23.66.9,1.26.8,1.95-.24,1.72-.71,3.69.77,4.38-.49.76-1.57.75-2.33,1.01-.45-.96-.48-2.63-.35-3.88-1.81-.95-3.64-2.59-5.73-3.26.25-1.52-.59-2.5-1.79-3.64-1.96-1.86-1.71-4.84-2.55-7.15-.37-1.03-1.18-1.63-.56-2.59.53-.14,1-.07,1.55.03.74.13.9.82.93,1.77.37.16.86.08,1.11.13Z"/>
          <path class="cls-88" d="M158.27,390.61c-.09,1.96.62,6.13-.59,7.66h-8.25c-.56-.54-.57-1.61-1.4-1.56-.16-1.7-.13-3.42-.04-5.55l10.29-.56Z"/>
        </g>
        <g>
          <path class="cls-94" d="M206,259.33c0,.41-.76.58-1.08,1.2-.13,2.43-.67,4.52-1.73,6.37-1.21,2.1-.76,4.63-1.28,6.93-1.33,5.85-.07,11.73-.05,17.58l.08,21.73c-.73.06-1.15,1.13-2,.68-2.16-2.39.42-10.32-1.71-15.9-1.41.5-3.03-.88-4.06-.95-3.53-.26-13.45-1.32-8.62,2.82-2.19,2.31-2.86,6.48-.5,8.69,1.36,1.27,3.28.89,4.69,1.46.95.38,3.48,1.16,2.56,2.01l-1.95,1.81c-2.53.17-5.03-.17-7.92.71.63,1,1.44.22,2.17.45.48.15.54,1.01,1.53,1.45-.04.88-.32,1.68-.65,2.5-1.71-.43-3.54-.77-5.48-1.59l-1.08,19.5c-1.76,1.19-3.74,2.87-2.82,5.28.31,1.37-2.89,3.66-4.55,3.68l-30.87.26c-5.48.05-4.57-2.2-9.77-6.17-.63-.48-1.17-1.8-1.09-2.47,3.85-1.55,3.5,2.91,9.03,6.89l29.07-.1c1.57,0,2.04-1.61,3.03-1.83,1.4-.32,6.25-6,6.27-6.8.07-2.76.09-20.51.48-20.98l.92-1.1c.28-.33-.59-.64-1.23-.89-.2-3.15-.49-6.95.06-10.04.88-1.17,3.62-2.09,3.07-4.4-1.09.19-2.24-.17-2.94-.73l.12-5.56c.61-.42,1.35-.59,2.34-.59l13.46-.05.22-18.04c.06-4.74-.05-9.24.24-13.95-3.07-.67-5.76-.43-8.46-.63-.28-.87.1-1.98-.99-2.41-.3,1.7-1.17,1.36-1.05.03-.54-1.81-1.61-3.37-.97-4.94,7.57-.02,15.21-.51,22.93.62.64,2.68.4,5.11.58,7.45Z"/>
          <path class="cls-89" d="M217.02,355.68c.54.07.84.44.89.78.11.8-.92,1.53-.68,1.96,1.4,2.55-.61,7.24.93,7.42-.11.51-.22,1.88.68,1.88l7.22-.04c1.88-.01,2.59-1.39,3.5-1.49,1.72-.18,3.83.65,4.43-1.49.25-.91,1.56-1.3,2.46-1.67-.16-1.65.64-3.24,2.4-3.71.03-1.77.7-1.55.79.3.91-.85.22-1.76.32-2.56,1.17.01,2.52-.5,3.66-.27,2.61.52,5.31-.15,7.92.2,1.84.24,3.66-.27,5.35-.21,2.82.1,4.28,3.42,4.28,5.98l-.06,28.62c-.31.24-.57.02-.8-.11-.47-.25-.11-16.96-.73-22.01-.14-1.13-2.71.02-3.26.04-1.2-.9-2.81-.37-4.23-.38l-33.53-.22c-.46,7.82.99,4.21-4.79,9.88-.33,4.19-.18,8.18-.09,12.23.03,1.41.94,1.53,1.9,2.05.67.36.68,1.61,1.43,1.72.69.09,1.46-.19,2.26-.46.79-.24,1.19-.04,1.48-.36.61-.67.07-1.28-.04-1.89,1.65-2.27,1.83,9.56,2.34,9.69-.81-.11-.8.91-.25,1.22.29.17.66.33,1.44,1.46.2,1.14-1.86,1.15-2.52.37-.47-.55-1.33-1.33-1.14-2.73-.68-.28-1.55-.83-2.39-.95-.47-1.76-2.03-1.72-3.46-2.62l-6.2-3.93c-1.48-.69-1-2.66-.77-4.38.1-.69-1.03-1.3-.8-1.95.14-.39.44-.81.69-1.31,1.22-2.44.09-5.37,1.19-8.04.52-1.25,2.19-1.97,1.98-3.76-1.9.28-16.08-1.95-12.02,1.86-.25-.05-.74.03-1.11-.13-.03-.96-.19-1.64-.93-1.77-.55-.1-1.02-.16-1.55-.03,0-.28.15-.59-.2-1.18-1.02.56-2.86.58-3.26-.76s.2-2.89-.05-4.17c6.94.32,13.83.39,21.1-.07l.08-13.06c1.26-.39,2.83.25,4.12.04Z"/>
          <path class="cls-51" d="M107.99,274.36c-.65,2.19.63,5.45-.7,7.81-1.13,2-1.19,3.38-1.16,5.44l.11,9.69-.03,11.59-.15,7.9c-.03,1.65-.32,3.49-1.04,4.74-1.33-1.56-3.09,5.88-3.07,4.89-.93-.33-1.96-.79-2.97-.82-.21-1.16.02-2.59-.4-3.82-.67-1.94-8.41-2.78-10.47-3.48-.47-1.03-.46-2.26-.73-3.3,5.22-.15,2.05,2.37,4.55.65l2,2.44,1.73-6.52c-2.64-.64-4.12-2.76-6.52-2.74-1.5-3.05-7.98-4.25-12.29-6.18.29,2.74.65,5.02.23,7.45-.88-.16-2.59-.16-3.68.12-.92.24-1.88,1.63-1.92,2.81-.76-.09-1.52-.09-2.29.23.06-1.63.19-3.11-.68-4.47s1.65-1.77,2.1-2.56c1.01-1.8.23-4.32,1.12-6.4l5.05.38c.73-1.83-.22-3.85.72-5.36.68-1.08,2.37-.51,3.2-.94,1.69,1.85.47,4.58.49,7.19,0,1.2,2.6,1.36,3.72,1.85,2.64,1.15,4.47,3.45,7.48,3.84,1.06.14.75-2.59,1.13-3.33l1.25-2.41c-.85,1.64,1.32-7.78,6.28-15.5,1.05-1.64.61-4.41.66-6.23.08-2.5,4.85-5.11,6.28-4.95Z"/>
          <path class="cls-136" d="M252.2,306.58c-2.86,2.83.4,6.3-1.81,6.91s-5.5,0-7.21,1.67c-1.31,1.27-1.38,2.42-3.82,2.74-5.35.7-12.17,4.52-16.34,4.16,2.63-1.47,5.37-3.17,8.39-4.18l11.32-3.76c-.02-2.09.43-4.35-.26-6.19-2.35-1.74-7.2,2-10.33,2.27-.1-.92,1.26-.63,1.42-1.32.09-.39.1-.67-.24-1.17,8.24-6.63,2.91-5.75,8.31-7.65,1.48-.52,1.02-5-.42-5.66-2.05-.94-4.79-.58-6.61-.08-.96-2.4-.53-4.9-.74-7.82-2.08-.24-4.68.32-6.25-1.12-3.05-2.8-.62-9.24-3.37-10.5-2.37-1.09-5.14-.04-7.67-.88l-.43-6.9c-2.8,0-6.08-.87-8.19.67-1.32-.69-3.17-1.2-4.77-.87,1.06-1.85,1.61-3.94,1.73-6.37.32-.62,1.08-.79,1.08-1.2l10.92.44c.63,1.48.16,2.97.5,4.26,1.56,5.79,8.77-.47,8.69,5.99-.08,6.13,4.26.45,8.44,10.43l2.06,4.92c.52,1.23,2.97.28,4.07,1,.09.06,1.98,6.64,2.61,7.05,1.8,1.18,2.81,2.35,3.58,4.58-.04-.11,4.9,7.33,5.33,8.58Z"/>
          <path class="cls-99" d="M121.29,259.19l.36,14.18c.43.98,2.56,1.01,3.22,1.06l-.18,16.68c-6.04.22-11.73.44-17.67-.05.19-1.42.1-2.91-.89-3.45-.02-2.06.04-3.44,1.16-5.44,1.33-2.36.05-5.63.7-7.81s.42-4.38.66-6.67c.27-2.57,1.46-5.19,1.14-7.91l1.84-1.17c2.58.07,7.29.13,9.67.58Z"/>
          <path class="cls-153" d="M261.11,391.39c-.02,8.27-3.19,4.92-4.49,8.59-.77,2.18-2.63,2.4-4.19,3.23-1.32.7-1.8,2.41-4.07,1.94-.69-.14-1.59.35-1.87.74-.29.42-.26,1.6-.5,2.55-6.04.71-12.73.36-18.82.11-.84-.03-1.21-1.05-1.07-1.52.09-.32-.11-.49-.31-.61-.29-.19-.55-.26-.8-.08.84-3.62-1.01-1.96-1.93-4.78-.51-.14-.69-11.97-2.34-9.69.55-1.6-.55-3.97.43-5.6.97-.79,4.23-.91,5.25-.11,1.82,2.21-2.1,14.1.3,15.41,1.75,1.88,4.63.16,6.67.69,6.41,1.68,9.94-1.09,12.07-.7s2.96-.9,3.95-2.47c.63-1,2.86-1.38,3.06-3.16.23-1.97,1.78-3.12,3.57-3.8l.3-22.81c.54-.02,3.12-1.17,3.26-.04.62,5.06.26,21.76.73,22.01.23.12.49.34.8.11Z"/>
          <path class="cls-17" d="M108.64,267.69c-.24,2.29,0,4.44-.66,6.67-1.43-.16-6.2,2.45-6.28,4.95-.06,1.82.39,4.59-.66,6.23-4.96,7.72-7.13,17.15-6.28,15.5l-1.25,2.41c-.38.74-.08,3.47-1.13,3.33-3.01-.39-4.84-2.69-7.48-3.84-1.12-.49-3.71-.65-3.72-1.85-.02-2.6,1.2-5.33-.49-7.19.46-.13.59-.77,1.11-.78.85,1.17,4.52,1.71,5.23.46,1-2.19.52-5.11.39-7.22-.19-.39,0-.78.51-.55-.59,1.28,4.45.59,5.36.5,3.59-3.19,1.34-9.82,3.16-11.05.46-.31,5.8-.53,5.87-2.68l.19-5.55c1.99-.02,4.63-.76,6.14.65Z"/>
          <path class="cls-72" d="M249.28,319.9c-1.47,2.7-5.55-.01-6.23,2.43-3.69.51-7.54,2.15-11.13,3.73-2.61,1.14-5.25,1.58-7.6,2.94-1.97,1.14-4.43,1.86-6.56,2.38-.59-.58-1.64-1.33-2.47-1.29.67-1.87.15-4.39,2.15-5.37,1.14-.56,2.41-1.02,3.3-1.97.51-.4,1.76-.38,2.3-.68,4.17.36,10.99-3.46,16.34-4.16,2.44-.32,2.51-1.46,3.82-2.74,1.71-1.67,4.99-1.06,7.21-1.67s-1.05-4.08,1.81-6.91c.53.56,2.22-.24,2.76.63,2.04,3.48,1.87,7.63.83,11.21-4.78,1.27-5.28-.8-6.52,1.49Z"/>
          <path class="cls-46" d="M256.89,356.79c-1.69-.06-3.52.45-5.35.21.22-.32-.5-.65-.51-1.08l-.61-23.37c-.06-2.11-3.04,1.98-5.68-4.17-.83-1.94-1.1-4.01-1.69-6.04.68-2.44,4.76.28,6.23-2.43,3.78,2.19,2.1,5.03,4.9,10.72,1.96.07,2.57,1.64,2.58,3.27l.14,22.89Z"/>
          <path class="cls-69" d="M182.5,251.26c-.64,1.57.43,3.13.97,4.94-.12,1.33.76,1.67,1.05-.03,1.09.44.72,1.54.99,2.41-.88-.06-1.58-.72-2.47,0-.97-1.49-5.2-1.19-5.9.36-4.44,9.79-11.01,8.47-21.35,8.5-10.84.04-13.03-1.13-18-9.45l-5.04-.59,1.06-6.12c2.41.06,4.59-.46,6.3,0l.47.13c-1.45,9.92,2.23,8.17,3.76,10.67,1.36,2.23,3.22,3.68,6.06,3.43,9.69-.87,15.53,3.52,23.93-7.11.69-2.31.32-4.87.36-7,2.33,0,5.32.71,7.17-.75.44-.26.91.12.64.6Z"/>
          <path class="cls-29" d="M102.51,267.05l-.19,5.55c-.07,2.15-5.41,2.37-5.87,2.68-1.82,1.23.43,7.86-3.16,11.05-.91.09-5.95.78-5.36-.5.18-3.17.08-6.57.89-9.87l7.19-1.32c-.08-2.68-.23-4.97.78-7.19,2.07-.16,3.92-.38,5.72-.4Z"/>
          <path class="cls-109" d="M109.78,259.78c.32,2.72-.87,5.34-1.14,7.91-1.51-1.41-4.15-.67-6.14-.65.07-2.13.11-4.97,1.41-6.85,1.49-1.17,4.22-.34,5.87-.42Z"/>
          <path class="cls-43" d="M87.42,286.37c.14,2.11.61,5.03-.39,7.22-.71,1.25-4.38.72-5.23-.46.35-1.75-.27-4.19.88-6.03.85-1.37,3.52-.52,4.74-.74Z"/>
          <path class="cls-38" d="M226.1,407.04c-.4-.11-.59.63-.98.19,0-.31-.21-.51-.12-.89.25-.17.5-.1.8.08.2.13.4.3.31.61Z"/>
          <path class="cls-34" d="M130.35,266.97c-.54,2.51-.78,4.86-.88,7.64l-.58,16.41c-.08,2.22-.61,4.36.24,6.53l48.45-.16c.7.56,1.85.92,2.94.73.54,2.31-2.2,3.23-3.07,4.4-.55,3.09-.26,6.89-.06,10.04.64.24,1.51.56,1.23.89l-.92,1.1c-.39.47-.41,18.23-.48,20.98-.02.8-4.87,6.48-6.27,6.8.09-1.14-1.32-1.17-2.43-1.19l-29.12-.39c-2.7-.04-4.84-4.16-5.33-6.22-.92-3.85-.36-16.23-.1-19.96,10.1-.08,20.26-.34,30.47.22,1.32.07,9.66,1.13,10.18-.94.67-2.65-7.44-1.31-11.54-1.31h-23.01c-3.97-.02-7.78-.1-11.55,1.18l.05,12.79c.02,3.69-1.65,8.76,1.24,10.85-.08.67.46,1.98,1.09,2.47,5.2,3.97,4.29,6.21,9.77,6.17l30.87-.26c1.66-.01,4.86-2.31,4.55-3.68-.93-2.41,1.05-4.09,2.82-5.28l1.08-19.5c1.94.82,3.78,1.16,5.48,1.59,2.57.64,5.31.41,7.93.41,5.55,7.96.01,15.79-.31,17.78-.3,1.82.71,4.57-.9,5.85-1.22.97-2.39,1.07-3.03,2.9-.58,1.65-3.85,3.08-4.33,4.72.28,2.47.51,3.86-1.1,5.11-6.86.17-13.88-.83-20.6.49-.9-1.1-2.12-.14-3.37-.35-6.48-1.11-12.94-.08-19.07.26-5.27.3-10.89-1.46-16.84-.04l-.22,12.77-4.77.16c-.65.02-1.18,1.14-1.73.61-.08-.43-.22-.75-.21-1.19l.21-11.01c.01-.64-.22-1.21-.65-1.21.14-.08.16-.53-.08-.53l-10.99-.11.27-21.16c.06-4.46.19-8.75-.68-12.81.72-1.25,1.01-3.08,1.04-4.74l.15-7.9c.09.05.25.02.53-.12l.02-10.13c1.21-.1,2.13-.07,3.04,0-1.1,2.66-.55,5.99-.95,8.98-.58,4.39.87,7.64,4.64,9.75.94.53,1.08,2.06,3.1,1.73s5.8.81,7.31-.76c1.06-8.03,6.49-3.7,5.11-17.22-.16-1.56-2.42-2.55-3.13-2.96-1.7,1.02-1.96-.4-.36-.16.72-.3,1.08-.56,2.34-.53-.79-1.3-.21-2.62-.17-4l.55-15.78c-.06,1.87,1.02-15.83,2.11-10.72Z"/>
          <path class="cls-137" d="M186.72,374.96l-23.15-.12c-.58.31-.52,1.56-.79,1.92-.33.45-2.46.22-2.53.78-.88,6.89.07,13.78-.12,20.41-.12,4.35-.82,1.36,1.75,6.6-.74-.06-1.59.38-2.29.55.08-.5.11-1.8-.13-2.43-.16-.4-.78-.13-1.29-.4.43-2.64-1.81-2.34-.49-4.01,1.21-1.53.51-5.7.59-7.66.22-5.02.09-9.99-.18-15.52l-9.14.02c-.31,1.9-.15,3.24-.68,4.93-1.37-.7-2.98-.65-3.46-1.32-.34-2.97-2.19-3.82-4.75-3.82l-18.79-.04c-.45.55-1.49.56-.81,1.06-2.47-1.59-4.31-3.14-3.31-6.38.55.52,1.07-.59,1.73-.61l4.77-.16.29,5.03c5.64-.23,10.37-.09,15.63.18,1.13.06.82-2.01,1.02-2.69.13-.45.28-1.23.56-1.69,7.58.02,15.13-.71,22.55-.77l20.56-.16c1.25-1.82-.19-4.54-.27-6.61l-.24-6.42c.63.17,1.46.48,2.52.37-.04,2.16-.4,3.54.11,5.53.65,2.48-.46,9.6.34,13.41Z"/>
          <path class="cls-134" d="M71.47,313.03c2.99.35,6.19.84,8.14,2.98l2.24,2.47c1.78,1.96,4.81,1.89,6.74,3.72.19.78-1.12.91-1.18,2.04,1.1,1.18,4,.62,4.75,2.33.69,1.59,2.43,2.24,3.11,3.4,1.46,2.5.68,13.38.42,14.65-1.07-.54-2.35-.5-3.77-.93-2.21-8.53-3.12-3.43-5.04-7.76-.81-1.83-3.77-3.13-4.3-5.07-.61-2.23-1.82-2.51-2.79-3.76-3.76-4.86-6.87-9.66-10.6-13.84.77-.31,1.53-.32,2.29-.23Z"/>
          <path class="cls-110" d="M98.97,325.6c1.01.03,2.03.49,2.97.82l-.43,23.52c-.02.97.05,2.13-.84,2.46l-4.44-3.45c-.11-1.22-.79-3.16-.55-4.35.26-1.26,1.04-12.15-.42-14.65-.68-1.16-2.42-1.8-3.11-3.4-.75-1.71-3.64-1.15-4.75-2.33.07-1.13,1.37-1.26,1.18-2.04.82.78,9.28,3.36,10.38,3.39Z"/>
          <path class="cls-115" d="M105.01,321.53c.87,4.07.74,8.35.68,12.81l-.27,21.16,10.99.11c.24,0,.22.44.08.53l-12.64-.05.46,1.97-3.66-2.14c.68-.53,1.09-1.04.88-1.83-.14-.5-.83-.85-.86-1.69.89-.34.82-1.5.84-2.46l.43-23.52c-.02.99,1.75-6.45,3.07-4.89Z"/>
          <path class="cls-23" d="M116.5,356.14c.42,0,.66.57.65,1.21l-.21,11.01c-6.96,1.69-2.05-1.44-10.23-6.79-.92-.6-1.02-2.72-2.39-3.52l-.46-1.97,12.64.05Z"/>
          <path class="cls-55" d="M178.34,274.28l-.1,8.01c-.04,3.17-.47,6.32-.54,9.55l-.12,5.56-48.45.16c-.85-2.17-.32-4.32-.24-6.53l.58-16.41c.1-2.78.34-5.13.88-7.64l.77-3.58c.8.46.59,1.48.93,2.04.29.47,5.9,1.65,7.52,1.47.98,1.28.08,3.06.83,4.27.85,1.38,2.84,2.25,4.49,2.33,10.65.53,20.88.64,31.49-.38.49-.05,1.13-.2,1.53-.01.36.17.32.63.43,1.18Z"/>
          <path class="cls-37" d="M234.61,294.32c.61,1.51.48,4.96-.2,6.52-1,2.32-2.65,4.6-1.09,6.87-1.12.9-3.11.76-4.34,1.59-2.1,1.42-10.63,5.67-12.04,5.42-2.7-.48-1.28-5.51-2.41-6.71-.97-1.02-4.59,0-7.18-.96.12-4.02-.64-8.28.02-12.89l-3.45-1.38c-.86-.34-1.11-1.53-2.07-1.37-.02-5.85-1.28-11.73.05-17.58,1.29.27,3.5.89,4.56-.34.74-.85-.08-2.92.97-3.89.28-.26,1.11-.35,1.02-.94-.04-.28-.7-.39-.5-.9,2.12-1.54,5.39-.67,8.19-.67l.43,6.9c2.53.84,5.31-.21,7.67.88,2.75,1.26.32,7.71,3.37,10.5,1.57,1.44,4.17.88,6.25,1.12.2,2.92-.23,5.42.74,7.82Z"/>
          <path class="cls-79" d="M207.88,323.4c-.2,1.93-.14,3.92.23,6,2.46.81,4.81.79,7.17.69.83-.04,1.88.71,2.47,1.29,1.27,1.25.71,3.36,1.53,4.97.39.77,1.21.92,1.35,1.67-.83.12-1.54-.38-2.85-.34l-.11,14.24c-.01,1.48-.36,2.59-.66,3.78-1.29.21-2.86-.43-4.12-.04-1.46.45-2.65.13-4.37.1l-14.52-.22c-1.18-.02-1.94.36-2.5,1.03s.02,11.16.22,12.22c.24,1.28-.36,2.8.05,4.17s2.24,1.31,3.26.76c.34.59.2.91.2,1.18-.62.96.19,1.56.56,2.59.84,2.31.59,5.29,2.55,7.15,1.2,1.14,2.05,2.13,1.79,3.64-.58-.18-.91-.21-.72-1.23-2.7-.76-3.42-3.34-5.05-5.19-1.73-1.96-3.4-3.44-2.8-6.71-2.08-.19-3.37-.15-4.83-.15-.8-3.82.31-10.93-.34-13.41-.52-1.98-.15-3.37-.11-5.53-1.06.11-1.89-.19-2.52-.37,1.62-1.26,1.38-2.64,1.1-5.11.48-1.64,3.75-3.08,4.33-4.72.64-1.83,1.82-1.93,3.03-2.9,1.61-1.29.6-4.03.9-5.85.33-1.99,5.86-9.83.31-17.78,1.68,0,2.65-1.98,3.44-3.19.84-1.28,2.54-1.12,3.07-2.27.85.45,1.27-.62,2-.68,0,1.81.64,3.99,1.15,5.96.6,2.34,3.93,2.99,4.8,4.29Z"/>
          <path class="cls-68" d="M185.51,258.59c2.71.2,5.39-.04,8.46.63-.29,4.71-.18,9.21-.24,13.95l-.22,18.04-13.46.05c-.99,0-1.73.17-2.34.59.07-3.23.5-6.38.54-9.55.6.07,2.81-.03,2.82-1.15,0-3.12.75-6.02-.34-8.53,1.77-4.42,1.51-9.33,2.32-14.03.89-.73,1.58-.07,2.47,0Z"/>
          <path class="cls-39" d="M133.97,314.59c-.26,3.73-.82,16.11.1,19.96.49,2.06,2.63,6.18,5.33,6.22l29.12.39c1.11.01,2.52.05,2.43,1.19-.99.23-1.46,1.83-3.03,1.83l-29.07.1c-5.52-3.98-5.18-8.45-9.03-6.89-.01-2.37-.4-20.4.52-22.51.58-1.33,2.69-.26,3.63-.27Z"/>
          <path class="cls-30" d="M199.94,313.83c-.54,1.15-2.23.98-3.07,2.27-.79,1.21-1.76,3.18-3.44,3.19-2.62,0-5.36.24-7.93-.41.32-.82.6-1.62.65-2.5,3.07,1.35,5.9-1.76,5.9-1.77-.16-.69-.95-.97-1.68-.84l1.95-1.81c.92-.85-1.6-1.63-2.56-2.01.95-.81,2.19-1.15,3.68-1.92.69-2.64.83-5.9-1.44-8.16-1.35-1.34-4.98-1.6-6.44-.07-4.83-4.14,5.1-3.08,8.62-2.82,1.03.07,2.65,1.45,4.06.95,2.13,5.58-.45,13.51,1.71,15.9Z"/>
          <path class="cls-58" d="M207.35,307.05c-.11,3.74-.04,7.64.79,11.56.54-.5.78-.8,1.07-.63-.07,1.89.42,4.29-1.33,5.42-.86-1.3-4.19-1.95-4.8-4.29-.51-1.98-1.14-4.16-1.15-5.96l-.08-21.73c.97-.16,1.21,1.02,2.07,1.37l3.45,1.38c-.67,4.61.1,8.87-.02,12.89Z"/>
          <path class="cls-15" d="M189.75,309.94c-1.41-.57-3.34-.2-4.69-1.46-2.37-2.21-1.69-6.38.5-8.69,1.45-1.53,5.09-1.27,6.44.07,2.26,2.25,2.13,5.51,1.44,8.16-1.49.77-2.73,1.11-3.68,1.92Z"/>
          <path class="cls-35" d="M207.96,267.77c-.2.51.46.61.5.9.09.59-.74.68-1.02.94-1.06.97-.24,3.04-.97,3.89-1.07,1.23-3.27.61-4.56.34.52-2.3.08-4.84,1.28-6.93,1.6-.33,3.45.18,4.77.87Z"/>
          <path class="cls-126" d="M190.36,313.76c.73-.14,1.52.15,1.68.84,0,0-2.82,3.12-5.9,1.77-1-.44-1.05-1.3-1.53-1.45-.73-.23-1.54.55-2.17-.45,2.89-.88,5.39-.54,7.92-.71Z"/>
          <path class="cls-20" d="M252.1,368.93c-1.56,4.38,1.16,20.08-3.31,22.05-1.95.86-4.01.72-5.63,1.57-5.45,2.85-8.69.08-10.87,1.72-.87.65-.06,1.59-.11,2.57-.16,2.9-3.03,4.54-5.47,4.73-2.4-1.31,1.52-13.21-.3-15.41-1.02-.79-4.27-.68-5.25.11-.98,1.63.11,4-.43,5.6.11.6.65,1.22.04,1.89-.29.32-.69.12-1.48.36-.79.28-1.57.55-2.26.46-.76-.1-.77-1.36-1.43-1.72-.96-.52-1.87-.64-1.9-2.05-.08-4.05-.24-8.03.09-12.23,5.78-5.67,4.32-2.06,4.79-9.88l33.53.22Z"/>
          <path class="cls-130" d="M243.05,322.33c.59,2.03.86,4.1,1.69,6.04-.47.06-.97-.23-1.33.04-.46.35-.34.98-.32,1.71l.53,26.68c-1.13-.23-2.49.29-3.66.27l-15.07-.19.11-24.95c0-1.21-.26-2.15-.69-2.94,2.35-1.36,5-1.8,7.6-2.94,3.6-1.58,7.45-3.22,11.13-3.73Z"/>
          <path class="cls-80" d="M212.9,355.64l-.08,13.06c-7.27.46-14.16.39-21.1.07-.2-1.05-.77-11.57-.22-12.22s1.33-1.05,2.5-1.03l14.52.22c1.72.03,2.91.35,4.37-.1Z"/>
          <path class="cls-53" d="M256.33,369.32l-.3,22.81c-1.79.67-3.34,1.83-3.57,3.8-.21,1.79-2.43,2.16-3.06,3.16-.99,1.58-1.82,2.86-3.95,2.47s-5.66,2.39-12.07.7c.69-2,3.97-.21,8.43-3.9,1.5-1.24,1.91-4.11,1.35-5.82,1.62-.85,3.68-.71,5.63-1.57,4.46-1.96,1.75-17.66,3.31-22.05,1.43,0,3.03-.51,4.23.38Z"/>
          <path class="cls-141" d="M244.74,328.37c2.64,6.15,5.63,2.06,5.68,4.17l.61,23.37c.01.44.73.76.51,1.08-2.61-.35-5.31.32-7.92-.2l-.53-26.68c-.01-.73-.13-1.36.32-1.71.35-.27.86.02,1.33-.04Z"/>
          <path class="cls-93" d="M224.89,356.88l15.07.19c-.09.8.59,1.71-.32,2.56-.09-1.85-.76-2.07-.79-.3-1.76.47-2.56,2.06-2.4,3.71-.89.36-2.2.76-2.46,1.67-.6,2.14-2.71,1.32-4.43,1.49-.91.09-1.62,1.48-3.5,1.49l-7.22.04c-.9,0-.79-1.37-.68-1.88.41-1.94-.47-4.25.48-5.95,1.02-1.83,2.25-2.66,3.92-2.69.78-.01.79-1.24,1.48-1.68.31.84.04,1.32.87,1.36Z"/>
          <path class="cls-2" d="M207.65,386.74l-4.92-1.03c-2.42-2.71-2.87-8.7-3.92-8.91-4.06-3.8,10.12-1.58,12.02-1.86.21,1.79-1.46,2.51-1.98,3.76-1.1,2.66.03,5.6-1.19,8.04Z"/>
          <path class="cls-133" d="M220.63,338.01c1.75,9.49.67,11.17,1.92,19.19-1.66.03-2.89.85-3.92,2.69-.95,1.7-.07,4.01-.48,5.95-1.54-.18.47-4.87-.93-7.42-.24-.43.79-1.16.68-1.96-.05-.34-.34-.71-.89-.78.3-1.19.65-2.3.66-3.78l.11-14.24c1.31-.04,2.01.46,2.85.34Z"/>
          <path class="cls-97" d="M183.04,258.59c-.81,4.71-.54,9.61-2.32,14.03-.77.3-2,.88-2.39,1.66-.12-.55-.08-1.01-.43-1.18-.39-.19-1.04-.04-1.53.01-10.6,1.02-20.84.91-31.49.38-1.65-.08-3.63-.95-4.49-2.33-.75-1.21.15-2.99-.83-4.27-1.63.17-7.23-1-7.52-1.47-.34-.55-.13-1.57-.93-2.04.46-2.11.35-4.19,1.63-5.98l5.04.59c4.97,8.32,7.16,9.49,18,9.45s16.9,1.29,21.35-8.5c.7-1.55,4.92-1.85,5.9-.36Z"/>
          <path class="cls-56" d="M124.87,274.43c-.65-.05-2.79-.08-3.22-1.06l-.36-14.18c1.02.19,3.46-.74,4.07.59.9,1.96.14,4.32-.15,6.23-.44,2.89-.31,5.68-.34,8.41Z"/>
          <g>
            <path class="cls-119" d="M140.24,243.46c.03,2.6.29,5.25-.12,7.83-1.71-.46-3.89.06-6.3,0l-1.06,6.12c-1.29,1.8-1.18,3.87-1.63,5.98l-.77,3.58c-1.09-5.11-2.17,12.58-2.11,10.72l-.55,15.78c-.05,1.38-.62,2.7.17,4-1.26-.02-1.61.23-2.34.53-1.6-.24-1.34,1.18.36.16.71.41,2.97,1.4,3.13,2.96,1.38,13.52-4.05,9.19-5.11,17.22-1.51,1.57-5.29.43-7.31.76s-2.16-1.2-3.1-1.73c-3.77-2.11-5.22-5.36-4.64-9.75.39-3-.16-6.33.95-8.98.22.16.75-.16.58-.34-1.6-1.61-.23-.65-4.14-1l-.11-9.69c.99.54,1.08,2.04.89,3.45,5.95.49,11.63.27,17.67.05l.18-16.68c.03-2.73-.09-5.53.34-8.41.29-1.91,1.05-4.27.15-6.23-.61-1.33-3.05-.4-4.07-.59-2.38-.45-7.09-.51-9.67-.58.09-2.31,2.6-3.45,3.97-5.04.88-1.02.78-2.25,2.75-2.29l15.11-.27c.17-3.2.58-5.97.05-8.59.61,0,7.29-.75,6.74,1.02Z"/>
            <path class="cls-118" d="M115.18,309.43c-.65-.7-2.66-1.38-2.88-2.49-.36-1.8-.3-4.24,1.03-5.74.96-1.08,2.81-2.97,4.74-2.37,1.53.48,3.13,1.67,4.19,3.09,1.31,1.75.83,4.62-.68,5.92-1.92,1.66-4.32,1.51-6.39,1.58Z"/>
            <path class="cls-74" d="M112.29,306.95c.22,1.11,2.24,1.79,2.88,2.49.41.78.9,1.15.63,1.65-.79,1.46-4.91,1.98-5.63.75-.11-.18-.09-4.89,2.12-4.89Z"/>
            <path class="cls-84" d="M119.75,315.84c-2.01.67-4.28-.12-5.89-1.53-.08-1.14,6.86-.78,7.01-.46.36.83-.06,1.63-1.12,1.99Z"/>
          </g>
          <path class="cls-138" d="M109.79,298.64c-.91-.07-1.82-.09-3.04,0l-.02,10.13c-.28.13-.44.16-.53.12l.03-11.59c3.91.36,2.54-.61,4.14,1,.17.17-.36.5-.58.34Z"/>
          <path class="cls-60" d="M77.07,310.1c.51,1.3,8.74,4.13,10.36,4.27-.2.21-.11.39-.05.62.28,1.04.27,2.27.73,3.3,2.06.7,9.8,1.54,10.47,3.48.42,1.23.19,2.67.4,3.82-1.1-.03-9.56-2.62-10.38-3.39-1.93-1.83-4.96-1.76-6.74-3.72l-2.24-2.47c-1.95-2.15-5.15-2.63-8.14-2.98.04-1.18.99-2.58,1.92-2.81,1.1-.28,2.8-.28,3.68-.12Z"/>
          <path class="cls-127" d="M89.13,308.83c-1.26,3.07-.19,3.97-1.7,5.54-1.62-.14-9.85-2.97-10.36-4.27.42-2.42.06-4.7-.23-7.45,4.31,1.93,10.79,3.13,12.29,6.18Z"/>
          <path class="cls-33" d="M87.37,314.99c-.06-.23-.15-.41.05-.62,1.52-1.58.44-2.47,1.7-5.54,2.4-.02,3.88,2.09,6.52,2.74l-1.73,6.52-2-2.44c-2.49,1.71.68-.8-4.55-.65Z"/>
          <path class="cls-149" d="M223.02,322.06c-.54.3-1.79.28-2.3.68-.23-1.58-.28-3.17-.23-4.76,2.05-2.43,5.28-3.08,8.23-4.7,1.19-.65,2.06-2.97,3.42-3.09,3.13-.27,7.98-4.01,10.33-2.27.68,1.85.24,4.1.26,6.19l-11.32,3.76c-3.02,1-5.75,2.71-8.39,4.18Z"/>
          <path class="cls-71" d="M233.33,307.71c.34.5.33.78.24,1.17-.16.69-1.52.4-1.42,1.32-1.36.12-2.23,2.43-3.42,3.09-2.95,1.62-6.18,2.27-8.23,4.7-1.38-.02-3.44-.19-4.71.61.08-.71-.45-1.22-1.35-1.55-1.84-.67-3.72.11-5.23.94-.29-.17-.53.14-1.07.63-.82-3.92-.9-7.82-.79-11.56,2.59.96,6.21-.06,7.18.96,1.13,1.19-.28,6.23,2.41,6.71,1.41.25,9.94-4,12.04-5.42,1.23-.83,3.22-.69,4.34-1.59Z"/>
          <path class="cls-146" d="M233.33,307.71c-1.56-2.27.09-4.55,1.09-6.87.67-1.56.8-5.01.2-6.52,1.81-.5,4.55-.86,6.61.08,1.44.66,1.9,5.14.42,5.66-5.4,1.9-.07,1.02-8.31,7.65Z"/>
          <path class="cls-65" d="M233.38,402.27c-2.05-.54-4.93,1.19-6.67-.69,2.45-.19,5.32-1.84,5.47-4.73.05-.98-.75-1.92.11-2.57,2.18-1.64,5.42,1.13,10.87-1.72.56,1.71.14,4.58-1.35,5.82-4.46,3.69-7.74,1.9-8.43,3.9Z"/>
          <path class="cls-73" d="M224.89,356.88c-.82-.04-.56-.52-.87-1.36-.69.44-.7,1.67-1.48,1.68-1.24-8.02-.17-9.7-1.92-19.19-.14-.74-.96-.89-1.35-1.67-.82-1.62-.26-3.72-1.53-4.97,2.14-.52,4.59-1.24,6.56-2.38.44.79.7,1.73.69,2.94l-.11,24.95Z"/>
          <path class="cls-102" d="M215.78,318.59c-1.28.8-1.03,4.29.05,5.12.61.47,1.5.26,1.59,1-2,.98-1.48,3.5-2.15,5.37-2.36.1-4.71.13-7.17-.69-.37-2.08-.43-4.07-.23-6,1.75-1.13,1.27-3.53,1.33-5.42,1.5-.83,3.39-1.6,5.23-.94.89.32,1.42.83,1.35,1.55Z"/>
          <path class="cls-75" d="M220.5,317.98c-.06,1.59,0,3.18.23,4.76-.89.95-2.16,1.41-3.3,1.97-.09-.73-.98-.53-1.59-1-1.08-.83-1.33-4.32-.05-5.12s3.33-.64,4.71-.61Z"/>
          <path class="cls-16" d="M183.75,355.66l.24,6.42c.08,2.07,1.52,4.79.27,6.61l-20.56.16-.55-12.7c6.72-1.31,13.74-.32,20.6-.49Z"/>
          <path class="cls-129" d="M140.71,356.05c.41,4.54-.88,9.23.45,13.56-.28.46-.43,1.24-.56,1.69-.4.02-.46-.15-.58-.36s1.05-1.51.29-1.64c-5.89-.98-11.3-.69-16.65-.52l.22-12.77c5.94-1.42,11.57.34,16.84.04Z"/>
          <path class="cls-81" d="M133.97,314.59c-.93,0-3.04-1.06-3.63.27-.92,2.11-.53,20.14-.52,22.51-2.89-2.09-1.23-7.15-1.24-10.85l-.05-12.79c3.76-1.28,7.57-1.2,11.55-1.2h23.01c4.1.02,12.21-1.32,11.54,1.33-.52,2.06-8.87,1.01-10.18.94-10.2-.55-20.37-.3-30.47-.22Z"/>
          <g>
            <path class="cls-5" d="M61.3,352.57l.57,9c2.02.07,3.81.89,5.43.8-.1,1.12,1.07,1.76,1.85,2.89s.37,3.2,1.78,3.55l-1.59.66c-.42.17-.02.92-.28,1.28-.42-.9-.91-2.02-2.19-2.06-3.13-.09-3.71-3.08-5.55-4.65-1.29-1.11-3.24-1.92-3.65-4.39-.83-5.04-.46-10.25-.11-15.48.73-.42,1.13-.35,1.38-.61,3.39.79-.84,10.25,2.35,9.02Z"/>
            <path class="cls-66" d="M82.59,347.81c-.28-.23-1.14-.27-.96-1.9-2.42.71-2.86,2.95-3.11,4.56-.61,3.95,3.97,4.01,3.44,9.04-.1.99-1.56,2.15-3.14,2.24l-11.53.61c-1.61.09-3.41-.74-5.43-.8l-.57-9-.41-8.45c6.93-.55,13.57-.32,20.42-.19.96.77,1.4,2.95,1.27,3.88Z"/>
            <path class="cls-105" d="M82.59,347.81l4.03,3.42c2.75,2.33,1.21,6.97,1.1,10.28-1.52.26-3.57-.37-5.01.54-1.53.97-.16,3.55-.87,4.93-.47.91-2.93.49-2.95,1.86-2.5-.24-5.38.6-7.96-.03-1.4-.34-1-2.42-1.78-3.55s-1.95-1.77-1.85-2.89l11.53-.61c1.58-.08,3.04-1.25,3.14-2.24.52-5.03-4.06-5.1-3.44-9.04.25-1.61.69-3.85,3.11-4.56-.18,1.63.69,1.67.96,1.9Z"/>
            <path class="cls-92" d="M87.72,361.51c-.06,1.99.13,4.19-.19,6.26-2.94,1.72-5.87,1.34-8.65,1.07.02-1.38,2.48-.96,2.95-1.86.72-1.38-.66-3.96.87-4.93,1.43-.9,3.49-.27,5.01-.54Z"/>
            <g>
              <path class="cls-40" d="M67.94,308.72c.11,1.34-.14,2.79.17,4.26.08.39.89.65,1.08.28,3.74,4.18,6.84,8.97,10.6,13.84.96,1.25,2.18,1.53,2.79,3.76.53,1.94,3.49,3.24,4.3,5.07,1.92,4.32,2.83-.78,5.04,7.76,1.42.43,2.71.39,3.77.93-.24,1.19.44,3.13.55,4.35l4.44,3.45c.03.83.72,1.19.86,1.69.21.79-.2,1.3-.88,1.83l3.66,2.14c1.37.8,1.47,2.92,2.39,3.52,8.18,5.35,3.26,8.48,10.23,6.79,0,.44.13.76.21,1.19-1,3.24.84,4.8,3.31,6.38-.82-.52,6.76,7.04,6.24,6.89-1.33.81-.29,7.8-1.17,11.12-.99,3.75-4.73,5.71-7.66,7.96-2.24,1.71-4.94,1.2-7.49,1.55-3.03-1.32-10.21-9.79-12.64-9.71.73-2.96-2.95-3.62-5.43-9.04-.91-1.99-1.86-4.33-4.09-4.45l-.6-5.09-14.26-.22c-2.15-.03-3.56-2.66-4.28-4.19.26-.36-.13-1.1.28-1.28l1.59-.66c2.58.63,5.47-.21,7.96.03,2.78.27,5.71.64,8.65-1.07.32-2.06.13-4.27.19-6.26.1-3.31,1.64-7.95-1.1-10.28l-4.03-3.42c.13-.94-.31-3.11-1.27-3.88-6.86-.14-13.5-.37-20.42.19l.41,8.45c-3.19,1.23,1.04-8.23-2.35-9.02-.37-1.67.48-4.35-.36-5.86-3.62-4.05-8.68-10.11-11.37-14.78-.46-.8-3.5-.08-3.48-1.9.02-1.34.12-2.68-.5-3.88l-28.94-.39c.68-3.97-1.71-4.42-3.59-5.77-1.63-1.17-2.28-3.83-4.41-4.73.45.19-5.46-5.36-5.77-8.28-.75-7.14-.79-14.18.45-21.24,11.88-2.03,9.97,3.27,14.22,6.05,2.1,1.37,3.21,2.77,4.38,4.87.54.97,2.71,1.72,2.78,3.36,2.68.01,5.97-.53,8.54-1.32,2.22-.68,1.97-2.12,2.19-3.85.27-2.1,3.74-1.07,4.75-1.93,1.53-8.21,1.91-5.43-.61-11.16-1.89-4.29-7.26-5.38-9.96-13.6-.31-.96-.88-1.57-.32-2.41.46-.7,1.07-1.06,2.23-1.04,6.35.08,12.43-.18,18.73.27.63.05,1.03,1.63,1.73,1.57,2.51-.22,2.52,1.97,3.55,3.21.77.93,3.46-.02,4.13,1.15.71,1.25,1.57,2.23,1.77,3.75.16,1.25,2.51,1.31,3.12,2.26l3.07,4.72c.77,1.18,1.3,11.41-.72,15.14l-3.49,6.44c-.87,1.61-4.05,3.96-1.75,5.74,7.33,5.68-.56,4.87,8.6,8.79Z"/>
              <g>
                <path class="cls-38" d="M69.18,313.26c-.19.37-1,.11-1.08-.28-.31-1.47-.06-2.92-.17-4.26.2-.24.39-.15.57.07.87,1.36.73,2.84.68,4.47Z"/>
                <path class="cls-98" d="M10.48,301.6c-7.31-5.85-3.64-9.29-4.66-19.02,2.92-1.93,6.64,4.85,9.88,7.69.79.69,2.23.31,3.22,1.05l.78,5.76c14.28-.51,12.49-4.24,14.9-5.58,1.86-1.03,3.24-1.08,3.75-3.31.27-1.18,8.07-7.1,6.39-12.51-.57-1.85-3.09-3.52-2.63-5.7-6.37-3.09-.27-2.35-8.51-8.33,4.64-.61,8.41-.07,12.49-.09,3.17-.02,5.49,1.58,6.05,5.08,2.01.78,3.66.41,5.96.76-1.06,2.91.93,4.99,1.37,7.09.74,3.48.67,7.77-.1,11.39-.41,1.95-3.17,3.36-2.04,6.2-1.73,1.11-3.26,1.28-4.26,2.49-1.21,1.47.07,4.25-1,5.71-1.23,1.69-4.01,2.58-5.58,4.03-2.13,1.97-4.31,1.97-6.93,3.07l-8.04,3.36c-3.89,1.62-9.54.48-13.88.07l-4.21-4.87c-1.16-1.35-1.32-3.01-2.97-4.33Z"/>
                <path class="cls-114" d="M81.96,337.68c-.2,2.71-12.45,1.31-12.83,1.18-2.57-.85-5.21-1.97-7.98-2.42l-2.63-5.21c-.79-1.57-1.16-2.56-2.51-3.79-1.92-1.76-3.94-4.3-5.56-6.37-1.74-2.22-2.42-5.82-6.44-5.1.15-2.66-1.31-3.64-3.45-3.59.6-2.25,2.81-2.78,4.49-3.9,3.11-2.07,5.31-4.68,8.37-7.08.87,1.11,2.7,1.82,3.16,3.04.75,2,2.21,2.56,3.42,4.02-1.48-1.8,8.26,12.51,7.22,9.11l1.08,3.55c3.03,1.75,4.17,4.56,5.69,7.26,1.18,2.1,3.24,3.66,4.16,6.16.45,1.21,3.96.95,3.8,3.15Z"/>
                <path class="cls-148" d="M106.06,368.33c.33,1.2-1.31,2.56,1.19,3.95,1.42.78,2.38,3.22,3.76,4.57,1.2,1.17.58,3.09,1.67,4.02-.46-.03-.53.32-.94.48-1.07.41-2.5-.1-3.53.49-4.58,2.58-5.93-6.28-9.17-4.95-1.05.43.01,2.82.69,3.29,2.21,1.54,2.86,4.21,4.14,6.1,4.56,6.73,1.77,2.12,5.89,6.2.94.93,2.64.73,3.69.66,1.52,1.4,3.34-.31,5.56-1.15s1.99-5.17,4.41-5.07c0,2.61-.32,4.2-2.15,7.01-2.51,3.85-8.71,4.95-13.33,3.69-.2-1.36-1.27-2.37-2.74-3.64-1.37-1.19-3.17-7.48-6.71-7.48-.15-.72.11-2.09-.54-2.41-.53-.26-1.14,0-2.16-.04,1.23-3.33-3.95-9.08-6.9-10.09-1.29-.44-1.3-4.77.02-5.13,8.81-2.41,5.16-10.36,7.3-13.86,4.76,7.22,8.22,7.34,9.9,13.38Z"/>
                <path class="cls-100" d="M123.4,386.91c-2.42-.1-2.11,4.2-4.41,5.07s-4.03,2.55-5.56,1.15c.86-.96,2.39-.19,3.72-1.08,2.47-1.65,2.92-5.28,1.76-7.56-1.3-2.55-3.41-3.44-6.23-3.62-1.1-.93-.48-2.85-1.67-4.02-1.38-1.35-2.34-3.79-3.76-4.57-2.51-1.39-.86-2.74-1.19-3.95,1.25.39,2.66-.2,4.14.75,3.68,9.36,2.78,3.5,11.26,12.81,1.88,2.07,1.93,2.33,1.93,5.01Z"/>
                <path class="cls-64" d="M88.82,347.03c-1.66-.48-2.88-1.16-3.1-2.66,1.96-.39,3.01,1.16,3.1,2.66Z"/>
                <path class="cls-103" d="M112.69,380.87c2.82.17,4.93,1.07,6.23,3.62,1.16,2.28.7,5.91-1.76,7.56-1.33.89-2.86.13-3.72,1.08-1.05.07-2.75.27-3.69-.66-.35-.54.23-.62,1.06-.61-.35-2.4-.1-5.05.42-7.72.2-1.05,1.33-1.77.52-2.79.42-.16.48-.51.94-.48Z"/>
                <path class="cls-151" d="M111.74,381.35c.81,1.02-.32,1.74-.52,2.79-.52,2.67-.77,5.32-.42,7.72-.82,0-1.41.07-1.06.61-4.11-4.08-1.32.53-5.89-6.2-1.28-1.89-1.93-4.55-4.14-6.1-.67-.47-1.74-2.86-.69-3.29,3.24-1.33,4.6,7.53,9.17,4.95,1.03-.58,2.47-.08,3.53-.49Z"/>
              </g>
            </g>
          </g>
          <path class="cls-45" d="M140.59,371.29c-.2.69.1,2.75-1.02,2.69-5.25-.27-9.99-.4-15.63-.18l-.29-5.03c5.35-.18,10.76-.46,16.65.52.75.12-.41,1.43-.29,1.64s.18.38.58.36Z"/>
          <path class="cls-124" d="M178.25,282.29l.1-8.01c.39-.79,1.62-1.36,2.39-1.66,1.08,2.5.34,5.4.34,8.53,0,1.12-2.22,1.22-2.82,1.15Z"/>
          <g>
            <path class="cls-8" d="M163.15,356.14l.55,12.7c-7.42.06-14.97.79-22.55.77-1.33-4.32-.03-9.01-.45-13.56,6.13-.35,12.59-1.38,19.07-.26,1.25.21,2.47-.75,3.37.35Z"/>
            <path class="cls-76" d="M158.86,365.97c-4.41.32-8.44.21-12.77.06-.43-1.86-.46-3.38-.01-5.2h12.87c.08,1.65.07,2.57-.09,5.13Z"/>
          </g>
        </g>
      </g>
    </g>
  </g>
</svg>