<?xml version="1.0" encoding="UTF-8"?>
<svg id="_レイヤー_2" data-name="レイヤー 2" xmlns="http://www.w3.org/2000/svg" viewBox="0 0 282.67 505.23">
  <defs>
    <style>
      .cls-1 {
        fill: #6d6078;
      }

      .cls-2 {
        fill: #fefeff;
      }

      .cls-3 {
        fill: #eceff2;
      }

      .cls-4 {
        fill: #6f5e74;
      }

      .cls-5 {
        fill: #ae7382;
      }

      .cls-6 {
        fill: #685c6e;
      }

      .cls-7 {
        fill: #eed594;
      }

      .cls-8 {
        fill: #958fa6;
      }

      .cls-9 {
        fill: #fdfefe;
      }

      .cls-10 {
        fill: #fdf2df;
      }

      .cls-11 {
        fill: #8f8091;
      }

      .cls-12 {
        fill: #d9dce3;
      }

      .cls-13 {
        fill: #e4aea4;
      }

      .cls-14 {
        fill: #877a8e;
      }

      .cls-15 {
        fill: #a88483;
      }

      .cls-16 {
        fill: #695c74;
      }

      .cls-17 {
        fill: #e7e9ec;
      }

      .cls-18 {
        fill: #9c7886;
      }

      .cls-19 {
        fill: #a1a1b5;
      }

      .cls-20 {
        fill: #6b5c71;
      }

      .cls-21 {
        fill: #d3d6dc;
      }

      .cls-22 {
        fill: #a58391;
      }

      .cls-23 {
        fill: #e8b1a8;
      }

      .cls-24 {
        fill: #7aa8c3;
      }

      .cls-25 {
        fill: #66566c;
      }

      .cls-26 {
        fill: #898aa2;
      }

      .cls-27 {
        fill: #6b5c70;
      }

      .cls-28 {
        fill: #f8f9fa;
      }

      .cls-29 {
        fill: #faead5;
      }

      .cls-30 {
        fill: #9593a8;
      }

      .cls-31 {
        fill: #fff;
      }

      .cls-32 {
        fill: #fdf4e3;
      }

      .cls-33 {
        fill: #836778;
      }

      .cls-34 {
        fill: #e8e7e6;
      }

      .cls-35 {
        fill: #f5c4b8;
      }

      .cls-36 {
        fill: #817d92;
      }

      .cls-37 {
        fill: #938294;
      }

      .cls-38 {
        fill: #6c80a4;
      }

      .cls-39 {
        fill: #d7d9df;
      }

      .cls-40 {
        fill: #dcdee4;
      }

      .cls-41 {
        fill: #bbc2cf;
      }

      .cls-42 {
        fill: #98797d;
      }

      .cls-43 {
        fill: #dba19b;
      }

      .cls-44 {
        fill: #ccd2da;
      }

      .cls-45 {
        fill: #e9edf2;
      }

      .cls-46 {
        fill: #98697b;
      }

      .cls-47 {
        fill: #cacfda;
      }

      .cls-48 {
        fill: #ca888c;
      }

      .cls-49 {
        fill: #c69f9e;
      }

      .cls-50 {
        fill: #ca8b8d;
      }

      .cls-51 {
        fill: #67576c;
      }

      .cls-52 {
        fill: #da9b99;
      }

      .cls-53 {
        fill: #a86c7d;
      }

      .cls-54 {
        fill: #e5e3e3;
      }

      .cls-55 {
        fill: #d39292;
      }

      .cls-56 {
        fill: #86819b;
      }

      .cls-57 {
        fill: #7daec8;
      }

      .cls-58 {
        fill: #9492a7;
      }

      .cls-59 {
        fill: #c2b8bf;
      }

      .cls-60 {
        fill: #6c7b9d;
      }

      .cls-61 {
        fill: #d89d98;
      }

      .cls-62 {
        fill: #80798d;
      }

      .cls-63 {
        fill: #7e6476;
      }

      .cls-64 {
        fill: #9a9cb1;
      }

      .cls-65 {
        fill: #a77383;
      }

      .cls-66 {
        fill: #fcf3e3;
      }

      .cls-67 {
        fill: #c8c1c6;
      }

      .cls-68 {
        fill: #b3b5c6;
      }

      .cls-69 {
        fill: #fbecd7;
      }

      .cls-70 {
        fill: #f1bbad;
      }

      .cls-71 {
        fill: #6f86a7;
      }

      .cls-72 {
        fill: #81b2c9;
      }

      .cls-73 {
        fill: #a18f97;
      }

      .cls-74 {
        fill: #cca797;
      }

      .cls-75 {
        fill: #fcfdfe;
      }

      .cls-76 {
        fill: #7c6275;
      }

      .cls-77 {
        fill: #eeeff5;
      }

      .cls-78 {
        fill: #f4f4f6;
      }

      .cls-79 {
        fill: #6d7695;
      }

      .cls-80 {
        fill: #766679;
      }

      .cls-81 {
        fill: #f3c1b6;
      }

      .cls-82 {
        fill: #78687c;
      }

      .cls-83 {
        fill: #dc9c9a;
      }

      .cls-84 {
        fill: #fffefe;
      }

      .cls-85 {
        fill: #c0c7d6;
      }

      .cls-86 {
        fill: #f0b5ac;
      }

      .cls-87 {
        fill: #b7abb6;
      }

      .cls-88 {
        fill: #d1d5dd;
      }

      .cls-89 {
        fill: #847689;
      }

      .cls-90 {
        fill: #fcf1e0;
      }

      .cls-91 {
        fill: #ac7880;
      }

      .cls-92 {
        fill: #fdf4e5;
      }

      .cls-93 {
        fill: #a28485;
      }

      .cls-94 {
        fill: #b6bbcc;
      }

      .cls-95 {
        fill: #717c9b;
      }

      .cls-96 {
        fill: #baaeb6;
      }

      .cls-97 {
        fill: #63556b;
      }

      .cls-98 {
        fill: #6d7ea0;
      }

      .cls-99 {
        fill: #cac4c9;
      }

      .cls-100 {
        fill: #80b1ca;
      }

      .cls-101 {
        fill: #a38081;
      }

      .cls-102 {
        fill: #fcf0dc;
      }

      .cls-103 {
        fill: #fbe8d4;
      }

      .cls-104 {
        fill: #e5afa4;
      }

      .cls-105 {
        fill: #e4afa2;
      }

      .cls-106 {
        fill: #fad9c9;
      }

      .cls-107 {
        fill: #715f77;
      }

      .cls-108 {
        fill: #cbd0db;
      }

      .cls-109 {
        fill: #f6dac3;
      }

      .cls-110 {
        fill: #fcfcfd;
      }

      .cls-111 {
        fill: #ad898c;
      }

      .cls-112 {
        fill: #feffff;
      }

      .cls-113 {
        fill: #e5eaed;
      }

      .cls-114 {
        fill: #c4aba7;
      }

      .cls-115 {
        fill: #cfd3dd;
      }

      .cls-116 {
        fill: #6a7999;
      }

      .cls-117 {
        fill: #9897ad;
      }

      .cls-118 {
        fill: #c6cbd6;
      }

      .cls-119 {
        fill: #85b2ca;
      }

      .cls-120 {
        fill: #8c7a8c;
      }

      .cls-121 {
        fill: #fdfdfe;
      }

      .cls-122 {
        fill: #fbf2e6;
      }

      .cls-123 {
        fill: #a08f9e;
      }

      .cls-124 {
        fill: #d18e90;
      }
    </style>
  </defs>
  <g id="_レイヤー_1-2" data-name="レイヤー 1">
    <g id="_生成オブジェクト" data-name="生成オブジェクト">
      <path class="cls-2" d="M227.07,362.68c-.49.19-.64-.01-.6-.6l.28-4.2c.46.4,1.63.19,1.82,1.09.26,1.2-.29,1.82-1.07,2.6l-.43,1.12Z"/>
      <g>
        <path class="cls-40" d="M149.15,490.71c0,1.2.03,2.47.45,4.12h67.35c.65-.99.57-1.85.38-2.52,1.71.24,1.08-1.7,1.18-2.83.38-.17.74.03,1.01.04.75.02-1.64-2.92,7.09-1.49.51.08,1.18-.98,1.5-.78l1.54.97c-.22-.14,9.95-1.68,11.44,1.23.56,1.09-.11,4.31,1.42,4.77l24.46.3c-2.17-.03,9.58,1.1,7.26,2.26-1.01,1.59-.53,3.54-.72,5.36-1.7-.18-3.44,1.38-5.26,1.53-11.95.96-23.27-.75-35.14.55-6.95.76-13.46.32-20.61.55-20.94.67-41.48.15-62.21.2l-8.98.02c-23.68.07-47.04.57-70.84-.17-9.49-.3-18.04-.55-27.23-.64l-36.55-.38c-2.55-.03-5.33-.62-5.97-2.95-.2-.88.23-1.9-.06-2.76s.4-2.74,2.01-2.76l17.37-.19c1.65-.02,3.21-1.41,5.11-1,.93-1.42.77-3.96,1.96-5.02,2.35-2.08,18.34-1.48,22.87-1.11,1.08.09,1.85,2.44,3.09,1.48,0,1.55.18,3.16.36,5.33h77.11c.16-1.67.36-2.81.36-3.93,2.83.66.26-4.26,7.29-3.71,2.88.23,6.21-.05,8.63,1.53.4.26,0,2.17.98,1.89.45-.13.91-.16,1.34.11Z"/>
        <path class="cls-2" d="M273.53,502.14c.18-1.82-.3-3.77.72-5.36.72-1.37,1.61,5.6-.72,5.36Z"/>
        <path class="cls-2" d="M.74,500.85c-.68-.07-.82-.93-.69-1.67.06-.36-.19-1.29.63-1.09.29.86-.13,1.88.06,2.76Z"/>
      </g>
      <g>
        <g>
          <path class="cls-99" d="M215.19,28.83c-2.08.8-4.44.49-6.65.46l-3.22-.48c-.02-2.72.22-5.45.01-8.15,3.03.19,6.39-1.19,9.83-.26.52,2.74.47,5.77.03,8.42Z"/>
          <path class="cls-89" d="M234.76,32.57c-1.55.14-.18-1.46-1.44-.49-.52.41.22,1.3.26,1.64-1.43,3.27,1.27,4.41-.66,5.9-.57.44-5.8.49-6.43.1-2.45-1.52-.92-4.82-.91-6.88,0-.86-1.71-1.31-1-2.17l10.15.2.05,1.7Z"/>
          <path class="cls-34" d="M61.14,20.24c1.99.83.6,6,1,9.65,3.37.13,6.6.59,9.51-.39-.18.45.33.72.71.62.25,3.14.02,6.21.08,9.84,3.45.1,6.39.25,9.8-.15l.19-9.22c13.72-.89,27.71-.88,41.22-.04l.56,9.41c3.11-.11,6.06.39,8.84-.39.23-3.53-.16-6.52.45-9.39l63.08-.41,7.94.22-.31,38.64c-2.74-.01-5.54.25-8.58-.29v-8.25s-12.81-.06-12.81-.06l-.47,10.32c-3.72-.69-6.84.28-9.69.17-3.49-.13-7.01-.66-10.98-.18l-.14,19.7c-3.91.34-7.68.22-11.72.08l-.18-9.66-10.65.19-.19,9.55-86.1.16-.19,8.88c-2.98,0-6.18,1.13-9.71.56l-.27,10.58c-2.79-.6-5.63-.03-8.45-.09l-8.66-.2-.09-50.23c3.04.38,6.08-.69,8.65-.52,2.7.18,5.59,1.17,8.99.54l.14,10.05c3.33.26,6.32.52,9.35-.04l.27-9.73,19.31-.37c.24-3.4.3-6.34.07-9.46l-19.48-.16c-.41-3.54.27-7.07-.6-9.87,1.76-6.1.24-12.75.95-19.74l8.15-.31Z"/>
          <path class="cls-123" d="M208.54,29.3c1.32,1.71,3.87.44,6.48.4-.19,3.97-.4,6.96.06,10.43l9.99.59.07,9.93c3.21.43,6.12.3,9.14.26l1.53,1.19c-1.6,2.04-.84,4.8-.57,7.83l9.5.1c.52,6.46.22,12.92.3,20.12l9.84.29-.07,58.07-19.85.25c-.08,3.2-.38,6.06.1,8.82-.68.67-1.31,1.03-2.63,1.01l-6.67-.11c-1.51-8.96-.63-18.39-1.09-27.96l-9.57-.11.06-9.34c0-.62.08-1.08-.38-1.43-.23-.17-.53-.43-.93-.14-.04-3.25.67-6.65-.23-9.97-3.59-.23-6.4.16-9.06.15l-152.03-.44.19-8.88,86.1-.16.19-9.55,10.65-.19.18,9.66c4.04.14,7.81.27,11.72-.08l.14-19.7c3.97-.48,7.49.05,10.98.18-.51,3.06-.7,6.2-.38,9.8h31.82c.52-4.25.08-7.99.11-11.7l.31-38.64c.56-.13.8-.66.8-1.17l3.22.48Z"/>
          <path class="cls-78" d="M72.42,140.84v8.11c-3.21-.27-6.49-.04-10.26.41l-.2,29.91,21.43-.09.16-28.95c0-.36.24-.9.06-1.33l59.15-.17c.41.68-.36,1.49.48,1.51-.78,1.89.58,8.32-1.04,9.27l-21.92.03c-1.88,0-3.85-.85-5.99.13-.16,2.72-1.32,7.9.03,8.4l1.25.47c.13.05.17.41.08.79-.26.16-1.26-.15-1.32.17-.59,3.09-.14,6.12-.29,9.32l-10.05.37-.26,7.59c-1.82,1.81-1.18-.76-1.44,1.08l-49.79-.15-.42-8.57c-3.59-.68-7.05-.06-10.38-.27-.1-.28-.28-.46-.05-.8.25-.09,1.18.35,1.38-.09.79-2.44-.75-5.31.49-7.72l3.76-3.39,6.84-8.88,8.21-9.83,8.71.08c.39-1.61-.89-9.13,1.35-7.39Z"/>
          <path class="cls-92" d="M195.37,109.9c-2.23,1.75-1.89,8.17-.85,10.43l-44.23.28c-.53,3.14,0,5.75-.17,9.54l-48.61-.51c-.44-2.7.61-5.61-.12-8.47-.27-1.05-2.19-.49-2.94-.5l-43.68-.13c-2.23-.02-1.7-1.07-2.2-.89l.52-9.56,142.29-.18Z"/>
          <path class="cls-20" d="M98.45,120.67l-.74,8.79c1.42.95,2.7.16,3.8.17l48.61.51c.16-3.79-.36-6.4.17-9.54l44.23-.28c.54,0,.91.17,1.46.14.36,3.25.19,6.56-.02,9.83l-9.2.69c-7.01.53-14.27-.2-21.4-.1-4.68.06-9.46-.66-14.95-.13-.29,2.75.17,5.61-.24,8.2l-54.46.35h-19.54c-.32,0-.43-.85-.55-1.03l-.34-7.58-21.45-.24c-.39,0-.73-.05-1.22-.05l-.04-9.26c-.33-.3-1.15.02-1.43-.33.09-.91,1.47-.11,1.44-1.16.5-.18-.03.86,2.2.89l43.68.13Z"/>
          <path class="cls-96" d="M71.16,9.76l1.17.45c-.49,3.14-.48,6.46.03,9.8l89.05-.09c.78-3.26-.56-6.37.49-9.23,7.77.04,15.78-1.16,24.37-.18l.32,9.61c3.56.25,6.64.09,10-.06v9.71s-63.08.41-63.08.41c-3.11.02-6.91.54-9.85.36-13.51-.83-27.5-.84-41.22.04-3.07.2-6.8-1.36-10.07-.47-.38.1-.88-.17-.71-.62.33-2.74.04-5.69.07-8.98l-9.28-.96c-.09-3.37-.76-7.03.53-10.14,2.67.7,5.77-.58,8.19.35Z"/>
          <path class="cls-23" d="M225.06,187.74c-.3,2.99.35,6.03.27,8.96-.14,5.08-.49,10.17-.19,15.78l-9.79.34-.15,9.79c1.93-.59-16.87,1.32-9.88,1.14l-17.81.46c-.57,3.34-.15,6.93-.17,10.31-5.32,1.28-10.56.07-15.35.1-.56-2.96-.11-5.98-.28-9.92l12.51-.54.47-10.26c3.09-.65,5.99,0,9.52-.34.32-2.08.28-4.15-.07-6.37l-22.23-.11c-.12-3.55-.25-6.35.11-9.08,14.31.07,28.53-.42,43.09-1.24.22-3.15-.23-5.93.3-8.96l9.66-.06Z"/>
          <path class="cls-21" d="M196.58,138.83c1.44-.13,2.74.92,3.99.88-.6,6.37-1.37,12.57-1.45,18.57-.47.44-.63-.16-.9-.17-2.06-.11-1.25,16.37-1.11,19.35.1,2.05-9.66,1.05-10.97,1.07.48-3.03.39-6.35-.04-9.44l-16.66-.32c.03-6.68.77-13.52-.7-19.99.77-.28-.18-.96-.11-1.81l3.41-7.08c2.36-.9,15.94.83,14.68-1.6.86,1.51,7.89.73,9.86.55Z"/>
          <path class="cls-54" d="M161.9,10.69c-1.05,2.86.29,5.97-.49,9.23l-89.05.09c-.51-3.34-.52-6.66-.03-9.8l89.57.48Z"/>
          <path class="cls-31" d="M75.62,138.27c-.67-.06-.42.63-.73,1.43-1.37-.19-2.53.03-2.47,1.14-2.24-1.75-.96,5.78-1.35,7.39l-8.71-.08-8.21,9.83-6.84,8.88-3.76,3.39c-1.24,2.41.3,5.28-.49,7.72-.2.44-1.13,0-1.38.09,1.05-1.59.75-3.22.73-5.28l-.39-33.15,10.28-.29.43-8.26c.41-.09,1.17.07,1.11-.62l21.45.24.34,7.58Z"/>
          <path class="cls-112" d="M52.04,40.29c.87,2.8.2,6.33.6,9.87l19.48.16c.23,3.13.18,6.07-.07,9.46l-19.31.37-.27,9.73c-3.03.57-6.03.3-9.35.04l-.14-10.05c-3.4.63-6.29-.36-8.99-.54l.29-8.84,8.55-.24.22-9.83,8.98-.14Z"/>
          <path class="cls-41" d="M199.11,158.28l-.28,19.85,3.47.97-.03,8.46-52.3.04c-.32-3.07-.24-5.66.1-8.51,6.72.06,13.01-.23,19.32-.33l16.74-.24c1.31-.02,11.07.99,10.97-1.07-.15-2.98-.95-19.46,1.11-19.35.26.01.43.62.9.17Z"/>
          <path class="cls-64" d="M150.09,140.91c2.77,5.63-1.44,4.4,3,6.1.5.19.57,1.03.46,1.63-1.11.09-2.23.52-3.35.49-1.79-.05-4.83-.16-6.58.12-.26.04-.03.86-.38.97-.84-.02-.07-.82-.48-1.51l-59.15.17c-.98-2.33-.65-5.02-.51-7.9l20.79.08c-.16,1.49-.42,3.67,1.01,3.66,9.1,0,17.88.36,26.72-.19,2.86-.18,5.39-2.19,8.48-1.64.46-3.68,7.26-1.98,9.98-1.99Z"/>
          <path class="cls-9" d="M186.77,130.99l-.05,7.29c1.26,2.43-12.32.7-14.68,1.6l-3.41,7.08c-.07.85.88,1.54.11,1.81l-9.43.62c-1.05,3.24.6,7.15-.78,9.93-1.74,3.45-5.29,5.97-7.91,9.06-.99-4.76-.05-8.39-.18-12.18,5.78-.84,1.12-2.24,5.59-5.23,2.17,1.75,4.1-6.79,2.06-6.57.69-.89.87-2.38,1.31-3.41,1.7-3.94,3.43.27,5.96-10.12,7.14-.09,14.39.63,21.4.1Z"/>
          <path class="cls-27" d="M142.2,159.49c.94,2.82.71,6.65.33,9.49-.79.35-1.81.81-2.23,1.21-.4-2.33-3.1-.63-4.23-.6-3.71-.95-9.58-.39-13.76-.4-.74,2.97-.25,5.79-.59,9.12l-7.58.46-.25,9.02c-3.09-.06-6.27.22-9.15-.07-.36-.04-.54-1.42-.99-.96l.26-7.59,10.05-.37c.15-3.2-.3-6.23.29-9.32.06-.32,1.06-.02,1.32-.17.95-.57,3.22.45,4.54-.24.35-3.24.18-6.44.08-9.54l21.92-.03Z"/>
          <path class="cls-16" d="M236.47,148.76c-2.52-1.07-1.46,8.39-.89,9.5l8.7.06c.27,0-.04,1.17.31,1.19l-.05,9.35-9.41.32-.06,3.01c-1.7.63.59-2.09-1.62-3.33-1.13-.63-6.38.02-8.12-.31-1.46-6.69.7-13.82.42-20.06l6.67.11c1.32.02,1.95-.34,2.63-1.01.56-.55,1.39.85,1.41,1.18Z"/>
          <path class="cls-117" d="M213.86,148.93l-.1,29.57c-2.44.05-6.21.68-7.87-.21-.63-.37-1.91-2.15-1.97-3-.22-3.33-.55-25.6.92-26.4.43-.23,1.32-.6,1.81-.55l7.21.59Z"/>
          <path class="cls-105" d="M235.08,172.19l.06-3.01,9.41-.32.05-9.35c.7.01.51-.78.51-1.26l9.38.46-.13,19.2-19.02.34c-.24-2.33-.3-4.2-.27-6.07Z"/>
          <path class="cls-17" d="M35.96,148.28c-.07.85,1.78,2.32,1.8,3.17.13,7.33.31,14.13-.19,21.48-.11,1.59-2.78,3.29-1.7,5.2-1.87-.06-3.96,1.22-6.18.14l-.18-30.87c.4-.16.55.03.8.14.43.19-.11,1.29.28,1.34,2,.24,3.83-.3,5.38-.61Z"/>
          <path class="cls-36" d="M42,139.62l.39,33.15c.02,2.06.32,3.68-.73,5.28-1.85.69-3.95.15-5.81.09-1.08-1.92,1.59-3.61,1.7-5.2.5-7.35.32-14.15.19-21.48-.02-.85-1.87-2.32-1.8-3.17.22-2.67.49-5.43.09-8.08,1.98-.24,3.9-.52,5.96-.58Z"/>
          <path class="cls-28" d="M186.13,178.52l-16.74.24.05-10,16.66.32c.43,3.09.52,6.41.04,9.44Z"/>
          <path class="cls-35" d="M205.04,120.09l-9.06.39c-.55.02-.92-.15-1.46-.14-1.04-2.26-1.38-8.68.85-10.43,3.02,0,6.15-.05,9.38.13.31,3.87-.25,6.96.29,10.05Z"/>
          <path class="cls-110" d="M52.52,187.7c-3.52-.01-7.05.18-10.85-.14-.42-3-.26-5.9.05-8.71,3.33.22,6.79-.4,10.38.27l.42,8.57Z"/>
          <path class="cls-81" d="M72.25,198.09c.07,2.85-.38,5.73.13,8.57-3.15-.05-6.6,1.22-10.34.2-.12-2.91.3-5.96-.18-8.72,3.47-.39,6.94-.01,10.39-.05Z"/>
          <path class="cls-67" d="M71.65,29.5c-2.91.99-6.14.53-9.51.39-.4-3.65.99-8.82-1-9.65.49-.02.99-.26,1.31-.69l9.28.96c-.03,3.29.26,6.25-.07,8.98Z"/>
          <path class="cls-61" d="M225.33,196.69c.08-2.93-.57-5.97-.27-8.96,3.33-.02,6.66-.23,10.25.03l.04,8.72c-3.48.52-6.77.09-10.03.2Z"/>
          <path class="cls-22" d="M236.47,148.76l8.71.12-.07,9.37c0,.48.19,1.27-.51,1.26-.35-.02-.04-1.19-.31-1.19l-8.7-.06c-.57-1.11-1.63-10.57.89-9.5Z"/>
          <path class="cls-43" d="M213.94,130.81c-2.68-.59-5.59.19-8.27-.29l-1.14-.21-.16-7.32c-.02-1.02.22-1.76.9-2.11,2.89-.24,6.15-.28,9.07.08.86,3.59-.51,6.91-.4,9.85Z"/>
          <path class="cls-106" d="M82.29,197.99l-.3,9c-3.38.99-6.65-.28-9.61-.33-.51-2.84-.06-5.72-.13-8.57l10.04-.1Z"/>
          <path class="cls-66" d="M51.13,120.81c.28.35,1.1.03,1.43.33l.04,9.26c-3.01-.05-5.97.18-9.4-.09-.43-3.14-.2-6.06-.02-9.51h7.95Z"/>
          <path class="cls-37" d="M213.85,109.5c-2.52.47-5.03.03-8.44.29l-.02-9.45c0-.55-.53-.61-.83-.66,2.66,0,5.47-.39,9.06-.15.9,3.33.19,6.72.23,9.97Z"/>
          <path class="cls-103" d="M205.04,120.09c.04.25.53.44.23.79-.68.35-.93,1.09-.9,2.11l.16,7.32c-2.65.34-5.33.09-7.99.09-.19,0-.38-.12-.57-.1.21-3.26.37-6.57.02-9.83l9.06-.39Z"/>
          <path class="cls-87" d="M42.55,110.38c-.08,3.17.75,6.36.04,9.96h-8.55s.07-10.05.07-10.05c2.82.06,5.66-.51,8.45.09Z"/>
          <path class="cls-82" d="M204.53,130.31l1.14.21.42,9.03-5.52.17c-1.25.04-2.55-1.01-3.99-.88-.17-2.8-.18-5.63-.04-8.43,2.66,0,5.34.25,7.99-.09Z"/>
          <path class="cls-18" d="M213.94,130.81l.3,8.12c-2.52.37-5.18-.14-7.6.6-.14.02-.42.01-.56.02l-.42-9.03c2.68.48,5.59-.29,8.27.29Z"/>
          <path class="cls-14" d="M214.24,138.94l-.38,9.99-7.21-.59c-.18-2.94.61-5.93-.02-8.8,2.42-.74,5.08-.22,7.6-.6Z"/>
          <path class="cls-120" d="M244.75,60.03l-9.5-.1c-.27-3.02-1.03-5.79.57-7.83,2.25.52,5.51-.69,7.87.45,1.72,1.86.89,5.32,1.06,7.47Z"/>
          <path class="cls-12" d="M36.04,140.2c.4,2.65.14,5.42-.09,8.08-1.54.31-3.38.85-5.38.61-.39-.05.15-1.15-.28-1.34-.26-.11-.4-.3-.8-.14-.01-2.15.41-4.66.15-7.29,2.24-1.33,4.65.29,6.39.08Z"/>
          <path class="cls-11" d="M71.16,9.76c-2.42-.93-5.52.36-8.19-.35-.63-1.35-.67-2.82-.18-4.66,2.53.53,5.41-.62,8.06.33,1.66.6.8,3.51.31,4.67Z"/>
          <path class="cls-77" d="M150.44,156.22l-.24-7.08c1.12.03,2.24-.4,3.35-.49,2.16-.18,3.26-2.57,4.54-4.22,2.04-.21.11,8.32-2.06,6.57-4.47,2.99.19,4.39-5.59,5.23Z"/>
          <path class="cls-73" d="M140.31,170.19c.45,2.6.06,5.39-.15,7.99-.92.13-2.95.55-3.92-.15-.59-2.9-.21-5.78-.16-8.44,1.13-.03,3.83-1.73,4.23.6Z"/>
          <path class="cls-59" d="M204.22,68.62c-.03,3.71.42,7.45-.11,11.7h-31.82c-.32-3.61-.13-6.74.38-9.8,2.84.1,5.97-.87,9.69-.17l.47-10.32,12.81.06v8.25c3.04.54,5.84.28,8.58.29Z"/>
          <path class="cls-84" d="M82.44,30.59l-.19,9.22c-3.42.4-6.35.25-9.8.15-.07-3.64.17-6.7-.08-9.84,3.28-.89,7,.67,10.07.47Z"/>
          <path class="cls-121" d="M133.51,30.18c-.61,2.87-.22,5.85-.45,9.39-2.78.77-5.72.28-8.84.39l-.56-9.41c2.93.18,6.73-.34,9.85-.36Z"/>
          <g>
            <path class="cls-32" d="M136.08,169.59c-.05,2.66-.44,5.54.16,8.44.97.7,3,.29,3.92.15,1.99-.26.67,6.83,1.29,9.32l8.28.23.24,10.17,22.05.1c-.35,2.73-.22,5.53-.11,9.08l22.23.11c.35,2.21.38,4.29.07,6.37-3.53.34-6.43-.31-9.52.34l-.47,10.26-12.51.54c.17,3.94-.29,6.96.28,9.92l-99.65.75-.45-11.23-9.36-.22c.25-.46-.03-.98-.55-.67.16-3.23.34-6.54-.04-10l-9.23-.44.17-14.71c3.47-.58,6.28.34,8.99.04.48,2.76.06,5.81.18,8.72,3.73,1.02,7.19-.25,10.34-.2,2.97.05,6.23,1.32,9.61.33l.3-9,21.26.04c.34-3.39.21-6.93.08-9.96l-1.32-.22c.26-1.84-.38.72,1.44-1.08.46-.45.64.93.99.96,2.88.29,6.06,0,9.15.07l.25-9.02,7.58-.46c.35-3.33-.15-6.16.59-9.12,4.18.01,10.05-.55,13.76.4Z"/>
            <path class="cls-80" d="M144.23,213.88l-29.96.09c-.19-3.12-.2-5.64,0-8.97l30.22-.1-.26,8.98Z"/>
          </g>
          <path class="cls-51" d="M72.43,148.95c3.45.29,6.86.13,10.5.22.11.52.04,1.12.63,1.05l-.16,28.95-21.43.09.2-29.91c3.77-.45,7.05-.68,10.26-.41Z"/>
          <path class="cls-88" d="M150.18,138.96c-.03.17.07.45.19.57.42.47-.09.8-.27,1.39-2.72,0-9.52-1.69-9.98,1.99-3.09-.55-5.62,1.46-8.48,1.64-8.84.54-17.62.18-26.72.19-1.43,0-1.17-2.18-1.01-3.66l-20.79-.08c-.14,2.89-.47,5.58.51,7.9.18.43-.05.98-.06,1.33-.59.08-.52-.53-.63-1.05-3.64-.1-7.05.06-10.5-.22v-8.11c-.06-1.11,1.09-1.33,2.46-1.14.31-.79.06-1.49.73-1.43.12.18.24,1.03.55,1.03h19.54s54.46-.34,54.46-.34Z"/>
          <path class="cls-39" d="M120.28,159.53c.09,3.1.26,6.3-.08,9.54-1.32.69-3.59-.33-4.54.24.09-.39.05-.74-.08-.79l-1.25-.47c-1.35-.5-.18-5.67-.03-8.4,2.14-.98,4.11-.12,5.99-.13Z"/>
          <path class="cls-49" d="M101.51,129.63c-1.1-.01-2.38.78-3.8-.17l.74-8.79c.76,0,2.68-.56,2.94.5.72,2.86-.32,5.77.12,8.47Z"/>
          <path class="cls-30" d="M165.36,130.89c-2.52,10.39-4.26,6.18-5.96,10.12-.06-.36.13-.85-.01-1.11-.3-.5-1.18-.65-1.96-.63l-7.07.25c-.11-.13-.21-.4-.19-.57.41-2.6-.05-5.45.24-8.2,5.49-.52,10.27.2,14.95.13Z"/>
          <path class="cls-58" d="M195.97,130.3c.19-.01.38.1.57.1-.14,2.8-.13,5.63.04,8.43-1.97.17-9.01.96-9.86-.55l.05-7.29,9.2-.69Z"/>
          <path class="cls-62" d="M159.41,141.01c-.44,1.02-.62,2.52-1.31,3.41-1.28,1.65-2.38,4.05-4.54,4.22.1-.6.03-1.44-.46-1.63-4.45-1.71-.23-.47-3-6.1.18-.59.69-.91.27-1.39l7.07-.25c.78-.03,1.66.12,1.96.63.15.26-.04.74.01,1.11Z"/>
        </g>
        <g>
          <path class="cls-107" d="M226.34,365.29c.28,4.12.18,8.25,0,12.36-.76,0-1.08.73-1.79.86-2.71-1.08-5.9-.86-8.8-.66.04-.17-.08-.33-.08-.49.04-3.58-.04-7.17.24-10.74.63-.96,2.17-.63,2.55-1.83,2.66-.32,5.23.37,7.88.49Z"/>
          <path class="cls-85" d="M183.42,270.32c.31-.11.83.1.67.51-.19.47-.17,1.13.54.99.28,2.83.14,5.77,1.29,8.4-5.8-1.48-7.29-.95-13.23-1.07-.03-2.79-.36-5.67.01-8.88l10.72.04Z"/>
          <path class="cls-97" d="M51.93,324.19c-.04,2.64.3,5.32,0,7.97-.16,1.37-.55,2.68-2.13,2.65-2.31-.16-4.89,0-7.23.07l-.09-10.68h9.45Z"/>
          <path class="cls-4" d="M32.54,350.74c-.62-.82-.04-2.95.02-3.94l9.51.08c.09,3.86.56,6.62-.19,9.8l-8.43-.3c-.38-2.13.49-4.16-.91-5.65Z"/>
          <path class="cls-8" d="M223.99,354.64c-.05,1.34,1.85,2.46,2.75,3.24l-.28,4.2c-.04.59.1.79.6.6-.25.65-.78,1.81-.72,2.6-2.64-.12-5.22-.81-7.88-.49-.59-2.18-1.39-7.13.4-7.65l2.29-.67c.6-.18.11-1.37,0-2.08.8-.31,2.13-.25,2.83.25Z"/>
          <path class="cls-115" d="M223.99,354.64c-.7-.5-2.03-.56-2.83-.25-.59.23-1.16-.26-1.98-.1-1.11.21-1.3-.28-1.39-1,.68-.23,1.64.43,1.88-.32.18-.59.36-1.9-.17-2.19-.49-.27-1.26.14-1.71-.03.13-.38-.01-.92-.02-1.34,1.67-.61,3.82-1.37,5.09.07s1.95,3.55,1.13,5.16Z"/>
          <path class="cls-119" d="M130.17,368.71c-.35,5.66-.36,11.37-.11,17.74,4.09.33,7.89-.31,11.5.83-3.74.05-7.53-.26-11.38.37l-.28,6.93c-1.51-1.23-3.19-.5-4.9-.46-3.96.08-7.61-.68-11.42.52l-.43,8.42c-.05.97-2.24.69-3.24,1.29l-.33,52.97-27.91.08.68-70.16c3.03.23,6.37.23,9.42-.42.68-3.49-.25-6.56-.07-9.44l.62-10.17,36.53-.07c.64,0,1.06.29,1.21.52.19.31.13.71.11,1.05Z"/>
          <path class="cls-24" d="M176.73,387.38c.34,1.69-1.26,5.05.62,6.43,1.61,1.19,7.59.17,9.02.12-.11,1-.12,2.59.82,3.25l-.97,49.98-14.84.32c-.44,7.55-2.13-2.67-2.58,9.52-2.72-.26-5.89,1.23-8.89.24l-.47-53.32c-.05-5.27,1.3-10.94.46-16.51-3.17-.72-6.73-.02-9.78-.27-2.72-.22-5.91.55-8.56.12-3.6-1.14-7.41-.5-11.5-.83-.25-6.37-.24-12.08.11-17.74,3.43,1.12,7.04.04,10.6.56l.04,15.89c2.28.3,4.55.42,6.36-.54.77-5.34.77-10.38.96-15.41.72-1.4.58-2.05,2.66-2.05l24.92.03c.85,7.12-.28,13.76,1.01,20.2Z"/>
          <path class="cls-60" d="M168.79,457.01c.44-12.18,2.13-1.97,2.58-9.52l14.84-.32.97-49.98,9.82.63.03,59.56c-9.81-.16-19.09.52-28.25-.37Z"/>
          <path class="cls-98" d="M129.89,394.58c-.01.33-.05.69-.03,1.32-3.27.16-6.48-.19-9.85.33l-.3,61.03c-3.87.39-7,.04-10.12.05l.33-52.97c.99-.6,3.19-.32,3.24-1.29l.43-8.42c3.82-1.2,7.46-.44,11.42-.52,1.71-.03,3.38-.77,4.9.46Z"/>
          <path class="cls-13" d="M71.68,336.06c-3.15.04-6.26-.45-10.02.06l.08,11.36c-2.9.12-5.75.19-8.66-.01l-.32-11.38c-1-.8-2.57-.24-2.98-1.28,1.58.03,1.97-1.27,2.13-2.65.76.52,1.18-.71,1.78-.72l17.81-.26.22-16.31c3.12,1.02,6.77-.59,10.42.26l-.3,20.82-10.19.12Z"/>
          <path class="cls-10" d="M205.8,377.22c-.03,3.56-.31,7.13.05,10.68-2.79.28-5.83.5-8.64-.03-3.08-.57-6.12-.29-9.25-.44-.62-.03-1.37-.14-1.43-.83l.02-20.47c4.05,1.14,12.87.22,18.6,1.17,1.34,4.21-.32,8.71.65,9.93Z"/>
          <path class="cls-31" d="M185.92,280.22c.44,1,.22,2.46.76,3.4l-.1,21.85c-6.17,3.09-10.42.98-13.56,3.93l-.33-30.24c5.95.12,7.44-.41,13.23,1.07Z"/>
          <path class="cls-19" d="M248.43,457.78c-.09-.74.75-.96,1.03-1.38.43-.67-.22-1.09-.46-1.66-1.83.17,8.75-4.16,7.35-5.18,4.29,4.15,7.02,9.81,10.56,14.76,2.51.3,5.02-1.17,7.31-.68,2.96.62,2.88,4.2,2.77,6.64-.08,1.77-1.33,1.12-2.34,1.4-1.52.42-1.49-1.18-2.69-1.72-1.52-.68-4.99,1.67-4.78,3.35.35,2.85-.85,4.84-.93,7.3-1.62-.4-3.38.54-4.76-.26-.62-.36-.28-1.91-.59-2.43-.45-.77-2.31-.44-3.12-.81-1.65-.75-.96-3.5-.27-4.72,1.43-2.55-1.02-3.58-1.79-5.3-.96-2.18-4.96-9.98-7.3-9.3Z"/>
          <path class="cls-69" d="M71.74,314.87l-.22,16.31-17.81.26c-.6,0-1.02,1.25-1.78.72.3-2.65-.04-5.34,0-7.97l9.85-.22.43-9.75c3.72-.27,6.7-.28,9.54.65Z"/>
          <path class="cls-47" d="M196.16,304.2c-1.04.9-9.03.99-9.58,1.27l.1-21.85c2.98-.37,5.94-.19,9.44-.23l.04,20.81Z"/>
          <path class="cls-71" d="M159.43,403.93c-3.01.78-6.27.79-9.45.31l.13-17.08c3.05.24,6.61-.46,9.78.27.84,5.57-.51,11.24-.46,16.51Z"/>
          <path class="cls-56" d="M257.08,430.26c1.31,5.55.12,11.5-1.39,17.42-.2.79.95,1.31.66,1.88,1.4,1.02-9.18,5.35-7.35,5.18-1.37.15-1.58-1.86-2.6-2.41-1.65-.89-3.37.37-4.67.5.53-1.49.22-3.7,2.73-4.3,2.17-.52,4.59-.33,7.06-.54l.6-17.72c1.96-.33,3.54-.16,4.97,0Z"/>
          <path class="cls-45" d="M196.16,304.2l.17,3.86c-12.56,2.48-5.59,6.49-20.43,8.3-4-5.4-2.84-3.89-2.87-6.95,3.14-2.95,7.39-.84,13.56-3.93.56-.28,8.55-.37,9.58-1.27Z"/>
          <path class="cls-124" d="M215.91,366.63c-.28,3.57-.2,7.16-.24,10.74l-9.87-.14c-.97-1.22.69-5.72-.65-9.93-5.73-.95-14.55-.03-18.6-1.17,5.76-1.33,12.6-1.08,19.19-.62,2.92.2,5.59,2.18,8.87.39.41.16,1.05.77,1.3.74Z"/>
          <path class="cls-26" d="M224.27,400.4c-.43-.27-1-.14-1.72-.16-.81,2.53-3.17,5.23-5.98,5.6s-6.11-.27-9.3-.09c-.29-2.95-.33-5.47,0-8.12l7.78-1.13c2.13-.31,4.48-.21,6.66-.37,1.41,1.15,1.62,3.06,2.56,4.27Z"/>
          <path class="cls-29" d="M49.79,334.81c.41,1.04,1.98.48,2.98,1.28l.32,11.38c-3.34-.23-6.77.54-10.37-.23-.15-4.28-.12-8.39-.16-12.37,2.34-.06,4.92-.23,7.23-.07Z"/>
          <path class="cls-91" d="M205.85,387.9c2.35-.23,6.3-.17,8.26.15.95,1.91.52,4.51-.07,6.89l-16.68.17c-.36-2.57-.88-5.04-.16-7.25,2.81.53,5.85.31,8.64.03Z"/>
          <path class="cls-50" d="M71.68,336.06l-.23,11.54c-3.49.74-6.62-.24-9.71-.11l-.08-11.36c3.76-.51,6.87-.02,10.02-.06Z"/>
          <path class="cls-79" d="M148.13,369.21c-.19,5.03-.18,10.07-.96,15.41-1.81.96-4.08.85-6.36.54l-.04-15.89c2.37.34,4.97-.56,7.36-.06Z"/>
          <path class="cls-104" d="M215.67,377.37c0,.16.12.32.08.49.03-.15-1.02,10.56.1,8.76.03.61-1.15,1.54-1.75,1.44-1.97-.32-5.91-.38-8.26-.15-.36-3.54-.08-7.12-.05-10.68l9.87.14Z"/>
          <path class="cls-95" d="M91.7,377.38c-.18,2.89.75,5.95.07,9.44-3.05.64-6.39.65-9.42.42.03-3.14-.6-6.34.12-9.87,3.2-.42,6.36-.54,9.23,0Z"/>
          <path class="cls-5" d="M224.55,378.51c.06,2.42.17,5.07-.5,7.73l-8.19.37c-1.12,1.81-.07-8.91-.1-8.76,2.9-.2,6.08-.42,8.8.66Z"/>
          <path class="cls-116" d="M187.96,387.43c.05.68-.59.43-1.48.59-.02,2.15.1,4-.12,5.92-1.43.05-7.41,1.07-9.02-.12-1.87-1.39-.28-4.74-.62-6.43,3.62-.75,8.47,1.07,9.81-.79.06.69.81.8,1.43.83Z"/>
          <path class="cls-1" d="M249,454.74c.24.57.89.99.46,1.66-.27.42-1.12.64-1.03,1.38-3.07.89-6.35.55-9.34.04.03-.25,1.24-.15,1.21-.42-.17-1.69.98-3.34,1.43-4.58,1.3-.13,3.03-1.39,4.67-.5,1.03.56,1.24,2.56,2.6,2.41Z"/>
          <path class="cls-75" d="M229.85,447.1c-1.4-8.84,4.64-5.21,2.16-8.56-.15-.21-.61-.15-.92-.12.85-.76,1.74-.19,2.46-.5,1.08-.47.07-2.45.4-3.17l.45-1c1.5,4.04.41,8.61,1.02,13.26-2.39.41-3.89.36-5.56.1Z"/>
          <g>
            <path class="cls-68" d="M224.27,400.4l3.49,4.46c2.66-1.35,4.69-2.03,6.87-2.19,1.04.38,2.6,1.28,3.73,1.31-1.48.82-.83,3.36-1.69,4.63-1.99,2.93-1.79,5.37.46,7.79,1.68,1.81,2.37,5.48,5.99,5.08-1.73-2.53-3.07-5.03-2.17-7.51,2.92-.39,5.81-.81,8.75-.74,9.13,7.03,6.44,13.06,7.38,17.03-1.43-.15-3.01-.32-4.97,0l-.6,17.72c-2.47.21-4.89.02-7.06.54-2.51.6-2.2,2.81-2.73,4.3-.45,1.24-1.59,2.89-1.43,4.58.03.27-1.18.17-1.21.42-1.79-.3-3.83.22-6,.18-1.08-2.31-2.92-4.09-5.11-5.58l-.66-4.59c.78-.22,2.17.34,2.53-.74,1.67.27,3.17.32,5.56-.1-.61-4.66.48-9.22-1.02-13.26-1.9-5.11-2.81.12-6.31-9.93-.68-1.96-2.58-2.21-3.42-3.5-1.17-1.79-1.21-4.64-3.41-5.99-.59-.36-1.94,0-2.07-.86-.91-6.02-2.46-2.05-2.6-7.63,2.81-.36,5.16-3.06,5.98-5.6.71.02,1.29-.11,1.72.16Z"/>
            <path class="cls-75" d="M229.85,447.1c-.36,1.08-1.76.52-2.53.74-.16-1.11.22-1.59.37-2.2.19.43-.09,1.24.44,1.37.57.14,1.16-.12,1.72.09Z"/>
            <path class="cls-6" d="M251.31,428.72c-.66.99-3.87,1.18-4.75.19-1.88-2.12-1.77-5.17-2.74-7.68,2.67-.22,4.73-.5,7.4-.15.45,2.18.47,5.2.09,7.65Z"/>
          </g>
          <g>
            <path class="cls-25" d="M205.33,20.67c.21,2.7-.03,5.43-.01,8.15,0,.51-.24,1.04-.8,1.17l-7.94-.22v-9.71c-3.36.15-6.44.31-10,.06l-.32-9.61c-8.58-.98-16.6.22-24.37.18l-89.57-.48-1.17-.45c.49-1.17,1.35-4.08-.31-4.67-2.64-.95-5.53.2-8.06-.33-.49,1.84-.45,3.31.18,4.66-1.29,3.11-.62,6.78-.53,10.14-.32.43-.81.67-1.31.69l-8.15.31c-.71,6.99.81,13.64-.95,19.74l-8.98.14-.22,9.83-8.55.24-.29,8.84c-2.57-.17-5.6.9-8.65.52l.09,50.23,8.66.2-.07,10.04h8.55c.71-3.59-.12-6.78-.04-9.95l.27-10.58c3.52.56,6.72-.57,9.71-.56l152.03.44c.3.05.83.11.83.66l.02,9.45c3.41-.26,5.92.17,8.44-.29.4-.29.71-.03.93.14.46.35.38.81.38,1.43l-.06,9.34,9.57.11c.45,9.57-.43,19,1.09,27.96.28,6.24-1.88,13.37-.42,20.06,1.74.33,6.98-.33,8.12.31,2.21,1.24-.08,3.97,1.62,3.33-.03,1.87.03,3.74.27,6.07l19.02-.34.13-19.2-9.38-.46.07-9.37-8.71-.12c-.01-.33-.84-1.73-1.41-1.18-.48-2.76-.19-5.62-.1-8.82l19.85-.25.07-58.07-9.84-.29c-.07-7.2.22-13.67-.3-20.12-.17-2.15.66-5.61-1.06-7.47-2.37-1.14-5.62.06-7.87-.45l-1.53-1.19c-3.02.04-5.93.16-9.14-.26l-.07-9.93-9.99-.59c-.46-3.47-.25-6.46-.06-10.43-2.62.04-5.16,1.32-6.48-.4,2.21.03,4.57.34,6.65-.46-1.79,2.18,6.96,1.78,9.37,1.83-.71.86,1.01,1.31,1,2.17,0,2.06-1.53,5.36.91,6.88.63.39,5.86.35,6.43-.1,1.93-1.49-.76-2.63.66-5.9-.04-.34-.78-1.23-.26-1.64,1.26-.97-.11.63,1.44.49l.48,8.79,9.67.55.2,10.67,9.94.31.12,27.59,10.04.12.14,68.52-6.92.48c-.89,10.19,1.92,8.47,1.62,11.94-.42,4.91-.95,9.65-1.13,14.58l-.39,11.06-12.63.38-.27,9.15-9.73.32-.37,25.27-19.63.41-.35,10.83-27.89,1.19-.33,11.22-27.06.44-.15,11.33,19.36-.03.15,10.63,4.11.94c.36.08-.27.8-.3,1.04l-10.72-.04c-.37,3.21-.04,6.09-.01,8.88l.33,30.24c.03,3.07-1.12,1.56,2.87,6.95,14.84-1.81,7.87-5.82,20.43-8.3l-.17-3.86-.04-20.81c-3.49.04-6.45-.14-9.44.23-.54-.94-.32-2.4-.76-3.4-1.14-2.62-1-5.57-1.29-8.4-.03-.33.04-.66.09-.98,3.65-.67,7.48-.46,11.57-.25l.1,12.51,10.53.16.1,23.74,10.5.27.25,42.13c0,.41.15.96.02,1.34-.31.91-.11,1.64,0,2.54.08.72.27,1.21,1.39,1,.83-.15,1.4.33,1.98.1.1.71.59,1.91,0,2.08l-2.29.67c-1.79.53-.98,5.47-.4,7.65-.38,1.2-1.93.87-2.55,1.83-.26.03-.89-.58-1.3-.74-3.28,1.79-5.95-.19-8.87-.39-6.58-.45-13.43-.71-19.19.62l-.02,20.47c-1.34,1.85-6.18.04-9.81.79-1.28-6.44-.16-13.08-1.01-20.2l-24.92-.03c-2.08,0-1.94.64-2.66,2.05-2.39-.5-4.99.41-7.36.06-3.56-.51-7.17.57-10.6-.56.02-.34.08-.74-.11-1.05-.15-.24-.57-.52-1.21-.52l-36.53.07-.62,10.17c-2.86-.54-6.02-.43-9.23,0-.72,3.53-.09,6.73-.12,9.87l-.68,70.16,27.91-.08c3.12,0,6.25.34,10.12-.05l.3-61.03c3.38-.53,6.58-.18,9.85-.33-.02-.64.02-1,.03-1.32l.28-6.93c3.85-.64,7.64-.33,11.38-.37,2.64.43,5.84-.34,8.56-.12l-.13,17.08c3.18.48,6.44.47,9.45-.31l.47,53.32c3,.99,6.17-.5,8.89-.24,9.16.89,18.44.22,28.25.37l-.03-59.56-9.82-.63c-.95-.66-.93-2.24-.82-3.25.21-1.92.1-3.77.12-5.92.89-.16,1.53.09,1.48-.59,3.12.15,6.17-.13,9.25.44-.73,2.21-.2,4.68.16,7.25l16.68-.17c.59-2.39,1.02-4.99.07-6.89.59.1,1.77-.83,1.75-1.44l8.19-.37c.67-2.66.56-5.31.5-7.73.71-.13,1.03-.86,1.79-.86,1.24-.02,2.5,0,3.83.46-.04,3.01-.11,5.83-.71,8.76-1.67.54-3.01,0-4.64.77.59,2.58-.36,5.41.62,7.41,1.94,2.51,5.78,2.93,9.11,2.48.71,1.86.46,3.61.07,5.14-2.18.16-4.21.84-6.87,2.19l-3.49-4.46c-.94-1.21-1.15-3.12-2.56-4.27-2.18.16-4.54.06-6.66.37l-7.78,1.13c-.32,2.64-.28,5.17,0,8.12,3.19-.19,6.38.47,9.3.09.14,5.58,1.69,1.61,2.6,7.63.13.86,1.49.5,2.07.86,2.2,1.35,2.24,4.19,3.41,5.99.84,1.28,2.74,1.54,3.42,3.5,3.49,10.05,4.41,4.82,6.31,9.93l-.45,1c-.33.73.68,2.71-.4,3.17-.72.31-1.61-.25-2.46.5-.77.69-2.16,1.23-1.95,2.53-.56-.31-.57.4-.72.77-.5,1.22-.42,2.71-.72,3.93-.16.61-.54,1.09-.37,2.2l.66,4.59c2.19,1.49,4.02,3.26,5.11,5.58,2.17.04,4.21-.48,6-.18,2.99.5,6.28.84,9.34-.04,2.34-.68,6.34,7.12,7.3,9.3.76,1.73,3.21,2.76,1.79,5.3-.69,1.22-1.38,3.97.27,4.72.81.37,2.67.04,3.12.81.31.52-.03,2.06.59,2.43,1.38.81,3.14-.14,4.76.26.08-2.45,1.28-4.44.93-7.3-.2-1.67,3.26-4.03,4.78-3.35,1.19.54,1.17,2.14,2.69,1.72,1.01-.28,2.26.37,2.34-1.4.11-2.44.19-6.02-2.77-6.64-2.3-.48-4.81.98-7.31.68-3.53-4.95-6.27-10.61-10.56-14.76.29-.57-.86-1.1-.66-1.88,1.5-5.92,2.7-11.87,1.39-17.42-.94-3.97,1.75-10-7.38-17.03-.15-.36-.11-1.18-.5-1.54-2.55.15-9.21-1.17-8.99,1.14.04.46.04,1.27.74,1.15-.9,2.48.45,4.98,2.17,7.51-3.63.4-4.31-3.27-5.99-5.08-2.25-2.42-2.45-4.86-.46-7.79.86-1.27.22-3.81,1.69-4.63l11.38.29c.65,2.2-.55,4.71.63,6.2,1.06,1.12,3.42-.28,4.68.58,2.33,1.6,5.49,3.91,6,6.68.43,2.37,1.44,4.55,1.38,6.74l-.65,23.69,2.92,2.9c1.78,1.77,2.46,3.62,2.87,5.88,2.26,1.73,5.92.58,8.8,1.31.12.03,4.6,4.83,5.62,7.01,1.47,3.16.02,7.12.35,10.9l-10.69.69-.07,7.49c-9.38-.91-5.25,2.64-10.46,2.18-1.66-.15,1.44-1.32-4.02-2.91.18-.35-.15-.73-.03-1.48-.24-.9-1.12-.77-1.4-.24-.2.38-.23.75-.04,1.08-2.92,1.95-2.51-13.8-3.9-15.13l-3.9-3.73c-2,2.95-11.02,2.74-13.13,1.84l-10.29-10.02c-1.31-1.28-3.65-.21-5.47-.88-.42-2.52-.38-4.94.06-7.36,1.25-.2,2.02-.08,2.8-.46l1.51-5.54c.59-2.15,2.99-2.51,3.84-3.63,1.45-1.91.32-5.71-1.12-7.37-1.92-2.22-1.33,4.34-2.57-8-2.77.59-5.34,0-7.23-2.13-.96-1.09.42-3.74-.75-5.21-.79-.98-2.33-1.43-3.07-2.84-.95-1.81-2.3-3.75-4.71-3.43l-.27,58.34,10.14.45-.23,21.5c-.01.94-.49,1.99-.02,2.94.19.67.27,1.53-.38,2.52h-67.35c-.42-1.64-.45-2.91-.45-4.12l.19-85.58-18.5-.14.06,85.9c0,1.12-.2,2.25-.36,3.92H53.44c-.18-2.17-.37-3.78-.36-5.33l.13-21.78,18.01-.18-.04-70.33-18.98-.28-.21-9.78c-3.07-.49-5.75-.08-9.11-.22-.62-3.01-.07-5.96-.21-9.18l-9.69-.68c-.41-7.07.54-13.5-.3-19.86-.31-2.33-.18-4.36-.14-6.45,1.4,1.48.53,3.52.91,5.65l8.43.3c.74-3.18.28-5.94.19-9.8l-9.51-.08c.14-2.66.43-7.82.3-11.67l9.7-.26c.03,3.98,0,8.09.16,12.37,3.59.77,7.03,0,10.37.23,2.9.2,5.76.13,8.66.01,3.09-.13,6.22.85,9.71.11l.23-11.54,10.19-.12.3-20.82c-3.65-.85-7.31.77-10.42-.26-2.84-.93-5.81-.92-9.54-.65l-.43,9.75-9.85.22c.06-3.32-.16-6.64.2-10.15h9.57s.02-27.02.02-27.02l10.06-.37c.23-1.54-.16-2.66.26-4.09l10.45-.19.49-8.62c2.92-.57,5.74.41,8.1-.6.76-1.14,1.9-2.38,3.78-2.2.19-4.44-.36-8.59.3-12.9l23.05-.18-.13-11.5-45.95-.22-.36-10.76-9.9-.2-.03-10.66c0-.43.59-.5.7-.63l9.36.22.45,11.23,99.65-.75c4.79-.04,10.03,1.18,15.35-.1.02-3.38-.4-6.97.17-10.31l17.81-.46c-6.99.18,11.81-1.73,9.88-1.14l.15-9.79,9.79-.34c-.29-5.61.05-10.7.19-15.78,3.26-.11,6.55.32,10.03-.2l-.04-8.72c-3.59-.26-6.92-.06-10.25-.03l-9.66.06c-.53,3.03-.08,5.81-.3,8.96-14.55.82-28.78,1.31-43.09,1.24l-22.05-.1-.24-10.17-8.28-.23c-.62-2.48.7-9.57-1.29-9.32.21-2.6.6-5.39.15-7.99.41-.4,1.44-.86,2.23-1.21.37-2.85.61-6.67-.33-9.49,1.63-.94.26-7.38,1.04-9.27.35-.11.12-.93.38-.97,1.75-.28,4.78-.16,6.58-.12l.24,7.08c.13,3.78-.81,7.42.18,12.18,2.62-3.09,6.17-5.61,7.91-9.06,1.37-2.79-.27-6.7.78-9.93l9.43-.62c1.47,6.48.73,13.32.7,19.99l-.05,10c-6.31.09-12.59.39-19.32.33-.33,2.86-.42,5.45-.1,8.51l52.3-.04.03-8.46-3.47-.97.28-19.85c.09-6,.86-12.19,1.45-18.57l5.52-.17c.14,0,.42,0,.56-.02.62,2.87-.17,5.86.02,8.8-.49-.04-1.38.32-1.81.55-1.47.8-1.14,23.08-.92,26.4.06.85,1.33,2.63,1.97,3,1.66.89,5.44.25,7.87.21l.1-29.57.38-9.99-.3-8.12c-.11-2.94,1.27-6.26.4-9.85-2.92-.36-6.18-.32-9.07-.08.3-.35-.18-.54-.23-.79-.53-3.09.02-6.18-.29-10.05-3.22-.19-6.36-.13-9.38-.13l-142.29.18-.52,9.56c.03,1.05-1.35.25-1.44,1.16h-7.95c-.18,3.45-.41,6.37.02,9.5,3.43.27,6.4.04,9.4.09.49,0,.84.05,1.22.05.06.69-.7.53-1.11.62l-.43,8.26-10.28.29c-2.06.06-3.98.34-5.96.58-1.74.21-4.15-1.41-6.39-.08.26,2.63-.16,5.14-.15,7.29l.18,30.87c2.22,1.07,4.31-.2,6.18-.14s3.96.6,5.81-.09c-.23.35-.05.52.05.8-.31,2.81-.47,5.71-.05,8.71,3.79.32,7.33.13,10.85.14l49.79.15,1.32.22c.12,3.03.26,6.57-.08,9.96l-21.26-.04-10.04.1c-3.45.03-6.92-.34-10.39.05-2.71.3-5.52-.61-8.99-.04l-.17,14.71,9.23.44c.38,3.46.2,6.78.04,10,1.42,1.06-8.73.47-9.51.49l-.26-10.81-9.74-.3-.26-14.76-8.38-.28c-1.3-1.55-.35-5.78-1.04-6.74-.33-.46-2.78-.62-3.16-.79-.54-.23-.28-1.43-.62-1.98-2.83-.64-6.35-.18-10.29-.25l-.13-48.21,7.02-.53c-.59-5.97.55-12.05-.43-17.91-.59-3.49-.32-6.71-.41-10.33l-10.2-.54-.07-50.67,10.42-.21.3-9.06,8.33-.28.33-9.6,8.76-.27.18-19.85,9.7-.25.15-19.91,19.86-.14,114.13-.09.27,10.14c3.06.53,6.08,0,9.52.22l.32,9.61c2.99-.29,5.92.53,8.58.69Z"/>
            <g>
              <path class="cls-2" d="M218.51,489.48c-.1,1.13.53,3.07-1.18,2.83-.46-.95.01-2,.02-2.94.41-.37.73.3,1.15.11Z"/>
              <g>
                <path class="cls-2" d="M257.11,483.61c.16.73-.49.72-.78.28-.21-.31-.7-.52-.69-.92-.19-.33-.16-.7.04-1.08.28-.53,1.16-.66,1.4.24-.12.75.21,1.14.03,1.48Z"/>
                <path class="cls-2" d="M184.63,271.83c-.71.14-.73-.52-.54-.99.26-.41.48-.52.63.02-.06.32-.13.65-.09.98Z"/>
                <path class="cls-31" d="M162.12,294.2c-4.42-3.54-1.41,16.87-2.84,19.58-2.74.64-5.24.29-8.07.36l-.62,9.67-9.48.53c-.32,2.36-.13,4.56-.74,6.73l-15.81.34c-.45,2.66.4,5.4-.64,7.77-.86,1.16-3.19.08-4.26.25.47-.65.83-1.37.48-2.28-.18-.46-.98-.87-1.56-1.2-4.05-2.25-.49-12.35-3.99-10.57l-.23-55.23,9.7.04.14,10.91c8.86.03,17.12.9,25.95-.05l.3-10.95c3.97-.21,7.81-.33,11.7.06l-.03,24.04Z"/>
                <path class="cls-118" d="M162.12,294.2c0,4.26.33,18.13,1.42,21.25s3,6.31,5.23,8.65l5.95,1.23c1.11,7.71.71,14.99.62,23.01l-60.87.04-.09-8.21c1.65-.82,3.48-.47,5.27-.75,1.07-.17,3.39.91,4.26-.25,1.04-2.37.19-5.11.64-7.77l15.81-.34c.61-2.17.42-4.36.74-6.73l9.48-.53.62-9.67c2.83-.07,5.33.27,8.07-.36,1.43-2.71-1.58-23.11,2.84-19.58Z"/>
                <path class="cls-90" d="M206.56,316.07l.11,40.09-20.4.04c.26-11.26-.41-21.99.37-32.63,2.93.86,6.29.54,9.49.3.88-2.74-.37-5.15-.12-7.46l10.54-.34Z"/>
                <path class="cls-15" d="M197.34,468.3c-.42,2.52.34,5.23-.52,7.98l-13.52.55-.5,6.66c-7.12,2.12-14.94.2-22.83.99l-.02-17.04,37.39.86Z"/>
                <path class="cls-101" d="M97.71,467.64c.64,5.73-.74,11.51-.12,16.59l-34.66.15c-.13-2.6-.23-5.06-.04-7.67h7.55c.93,0,1.33-.52,1.44-1.14,3.06,1.32,6.56.2,10.18.45l.2-8.41,15.45.04Z"/>
                <path class="cls-76" d="M97.59,484.23c-.63-5.07.76-10.86.12-16.59,7.35.02,14.67-.43,22.25.07l-.2,16.56-22.17-.05Z"/>
                <path class="cls-102" d="M61.76,357.07c1.04,3.34.15,6.81.11,10.13-2.84-.33-5.8-.23-8.94-.13l-.25,8.9c-.01.47-.04,1.29-.71,1.39l-8.87-.02.05-20.5,18.62.22Z"/>
                <path class="cls-52" d="M71.71,356.75c-.81,3.47.26,7.07.07,10.61-.18,3.32.06,6.62-.03,9.92l-.27,9.54c-3.6.65-6.66-.08-9.72-.22-.37-2.95.44-6.03-.54-8.87,2.12-.36.68-12.79.65-10.53.05-3.32.93-6.79-.11-10.13l9.95-.32Z"/>
                <path class="cls-33" d="M182.79,483.49l.5-6.66,13.52-.55c.86-2.75.1-5.46.52-7.98,2.71-.61,6.4-1.27,9.73-.22l-.09,16.14-23.41.12c-.21-.65-.35-1.12-.77-.85Z"/>
                <path class="cls-100" d="M103.4,303.71c-2.97.02-5.15.14-7.84-.16l-.15-32.33c2.51-1.01,5.08-.51,8.12-.61l-.13,33.09Z"/>
                <polygon class="cls-65" points="149.49 258.52 128.96 258.45 128.94 246.47 149.26 246.45 149.49 258.52"/>
                <path class="cls-108" d="M91.55,307.04c-2.85-.17-5.72-.45-8.55,0-.38.06-.9-.26-1.28-.27-.09-.54.37-.51,1.12-.71l-.43-19.77.83-2.47c2.11-.68,5.5-.58,7.47-.32,2.06-.78.92,22.36.85,23.53Z"/>
                <path class="cls-86" d="M149.49,258.52l.09,9.89-20.16-.68c-1.04-2.93-.38-6.2-.46-9.28l20.53.07Z"/>
                <path class="cls-63" d="M175.24,363.03l-16.3-.07c-2.29,0-4.37.03-7.12-.16-.61-2.78-.56-5.24.37-7.93l22.87.13c.45,2.65.5,5.02.17,8.03Z"/>
                <path class="cls-31" d="M82.41,286.3l.43,19.77c-.74.21-1.21.17-1.12.71-2.23-.07-4.5.37-6.72-.08.34-1.08.33-2.28-.87-2.5-.58-.11-.99-1.14-1.97-.6-.08-3.55.1-7.09-.19-10.6,4.54-.06-.23-5.26,7.04-4.58.24-.86-.01-1.4.04-1.89,1.11-.04,2.26-.57,3.36-.23Z"/>
                <path class="cls-38" d="M93.26,340.85c3.34-.33,6.7-.27,10.4-.26.36-2.84.38-5.46-.03-8.37-6.54-1.01-7.18,1.14-7.81-2.09,3.03-.31,6.27.25,9.58-.79,1.27-.46,1.13-2.51,3.09-2.61.6,4.7.37,9.58.09,14.21l-.44,7.11-14.64.13c-1.02-2.49-.34-4.94-.25-7.35Z"/>
                <path class="cls-44" d="M143.96,354.46c-.57.58-.31,1.39.24,2.16l-.11,8.14-13.95.16.2-10.64c4.93.1,9.29-.24,13.62.18Z"/>
                <path class="cls-42" d="M114.09,356.06h9.95c.37-.59.57-.9.3-1.17,1.37.22,3.79-.49,4.2.95.66,2.31.24,4.69.13,7.18-5.17.16-9.75.46-14.62-.19l.03-6.78Z"/>
                <path class="cls-48" d="M81.66,356.58c.64,2.94-.82,6.29.77,8.91-.1.72-.66,1.06-.66,1.75l-9.99.11c.2-3.53-.87-7.14-.07-10.61l9.95-.17Z"/>
                <path class="cls-72" d="M95.83,330.13c.63,3.23,1.27,1.08,7.81,2.09.41,2.91.38,5.53.03,8.37-3.71-.02-7.06-.07-10.4.26.18-4.79-.53-9.6.25-14.77,2.02.68,2.04,2.64,2.32,4.05Z"/>
                <path class="cls-46" d="M81.77,367.25v9.53s-10.02.5-10.02.5c.09-3.3-.15-6.6.03-9.92l9.99-.11Z"/>
                <path class="cls-57" d="M108.18,314.76c-4.39-.81-7.39-.11-11.59-.27-.62-2.41-.59-4.71.03-7.48,3.89.2,7.91-.58,11.65.67,1.15,1.64.52,4.95-.09,7.09Z"/>
                <path class="cls-74" d="M82.27,467.61l-.2,8.41c-3.62-.24-7.12.88-10.18-.45l.04-7.77c3.66-.42,6.99-.2,10.34-.2Z"/>
                <path class="cls-109" d="M61.22,377.74c.98,2.84.17,5.92.54,8.87-2.71-.12-5.92,1.03-9.12.24l-.68-9.48c.67-.1.7-.93.71-1.39.69-.06.42.67.62,1.47l7.93.29Z"/>
                <path class="cls-83" d="M206.56,316.07l-10.54.34c.29-2.59.5-5.22.67-8.09,3.29-1.01,6.54-.7,9.59-.24.53,3.01.54,5.47.28,7.99Z"/>
                <path class="cls-53" d="M82.43,365.49c-1.6-2.63-.13-5.98-.77-8.91l8.91-.49c.79,2.91.84,6.34.12,9.34l-8.26.07Z"/>
                <path class="cls-93" d="M104.22,363.38c-3.47.52-7,.3-10.81.38-.38-2.83-.24-5.19-.27-7.59,3.69-.27,7.41-.34,11.55.1l-.47,7.11Z"/>
                <path class="cls-70" d="M196.02,316.41c-.26,2.31.99,4.73.12,7.46-3.2.24-6.56.56-9.49-.3.16-2.18-.85-4.66.08-6.99l9.29-.18Z"/>
                <path class="cls-114" d="M104.22,363.38l.47-7.11c-4.14-.44-7.86-.37-11.55-.1-.26-2.53,14.15-1.58,16.3-1.64.29,3.27.16,6.16-.15,9.1-1.95.65-3.51-.48-5.07-.25Z"/>
                <path class="cls-7" d="M105.46,324.45l-8.55.84c-.23-2.62-.79-5.13.14-7.08,2.05-1.19,5.33-.5,7.88-.6.66,2.32.53,4.2.54,6.85Z"/>
                <path class="cls-94" d="M91.55,307.04c-.16,2.4.28,4.75-.24,7.54l-8.18-1.17c-.36-2.34-.21-4.36-.13-6.36,2.83-.46,5.7-.18,8.55,0Z"/>
                <path class="cls-122" d="M149.58,268.41c.71.06.68.68.53,1-.19.42-.68.37-1.33.39l-19.08.36c-.61.01-.75-1.02-.79-1.38-.03-.33.46-.62.51-1.05l20.16.68Z"/>
                <path class="cls-113" d="M144.09,364.76l.11-8.14c-.55-.77-.81-1.59-.24-2.16,1.12.11,2.25-.49,3.56.27.04,3.28.48,6.58-.28,9.69-.53.78-2.56.38-3.14.34Z"/>
                <path class="cls-3" d="M249.7,413.23c-2.94-.07-5.83.35-8.75.74-.7.13-.69-.69-.74-1.15-.22-2.31,6.44-.99,8.99-1.14.39.36.35,1.18.5,1.54Z"/>
                <path class="cls-111" d="M124.34,354.88c.27.27.07.58-.3,1.16h-9.95c-2.07-2.13,10.06-1.2,10.26-1.16Z"/>
                <path class="cls-75" d="M228.41,441.71c.15-.36.15-1.08.72-.77.13.5-.2.88-.72.77Z"/>
                <path class="cls-55" d="M61.87,367.2c.03-2.26,1.48,10.17-.65,10.53l-7.93-.29c-.2-.8.07-1.54-.62-1.47l.25-8.9c3.15-.1,6.1-.2,8.94.13Z"/>
              </g>
            </g>
          </g>
        </g>
      </g>
    </g>
  </g>
</svg>