<?xml version="1.0" encoding="UTF-8"?>
<svg id="_レイヤー_2" data-name="レイヤー 2" xmlns="http://www.w3.org/2000/svg" xmlns:xlink="http://www.w3.org/1999/xlink" viewBox="0 0 240.33 505.23">
  <defs>
    <style>
      .cls-1 {
        fill: #928493;
      }

      .cls-2 {
        fill: #737a9f;
      }

      .cls-3 {
        fill: #fefeff;
      }

      .cls-4 {
        fill: #efccc4;
      }

      .cls-5 {
        fill: #8489ad;
      }

      .cls-6 {
        fill: #8d8ca8;
      }

      .cls-7 {
        fill: #f0d3a4;
      }

      .cls-8 {
        fill: #97b6cc;
      }

      .cls-9 {
        fill: #e8c19a;
      }

      .cls-10 {
        fill: #f4dba8;
      }

      .cls-11 {
        fill: #e4b59a;
      }

      .cls-12 {
        fill: #7c8cae;
      }

      .cls-13 {
        fill: #e9c3a0;
      }

      .cls-14 {
        fill: #e5b9ba;
      }

      .cls-15 {
        fill: #deebf3;
      }

      .cls-16 {
        fill: #f2d8a6;
      }

      .cls-17 {
        fill: #e4b89a;
      }

      .cls-18 {
        fill: #f3d9a6;
      }

      .cls-19 {
        fill: #eac79d;
      }

      .cls-20 {
        fill: #8ba5c1;
      }

      .cls-21 {
        fill: #f2d4c9;
      }

      .cls-22 {
        fill: #8f7480;
      }

      .cls-23 {
        fill: #e8e6e3;
      }

      .cls-24 {
        fill: #8da6c1;
      }

      .cls-25 {
        fill: #e5b7b8;
      }

      .cls-26 {
        fill: #e5b9bb;
      }

      .cls-27 {
        fill: #b5ccdc;
      }

      .cls-28 {
        fill: #c7dae4;
      }

      .cls-29 {
        fill: #7e8caf;
      }

      .cls-30 {
        fill: #acadc0;
      }

      .cls-31 {
        fill: #827e9e;
      }

      .cls-32 {
        fill: #f6dfcf;
      }

      .cls-33 {
        fill: #896c7e;
      }

      .cls-34 {
        fill: #d9d7e1;
      }

      .cls-35 {
        fill: #9ab8cc;
      }

      .cls-36 {
        fill: #c79ea8;
      }

      .cls-37 {
        fill: #8f98b7;
      }

      .cls-38 {
        fill: #b6bed3;
      }

      .cls-39 {
        fill: #dcab94;
      }

      .cls-40 {
        fill: #e2b79c;
      }

      .cls-41 {
        fill: #869dbb;
      }

      .cls-42 {
        fill: #f0eff1;
      }

      .cls-43 {
        fill: #fff;
      }

      .cls-44 {
        fill: #a398ad;
      }

      .cls-45 {
        fill: #98b7cc;
      }

      .cls-46 {
        fill: #f2d7c3;
      }

      .cls-47 {
        fill: #d9a596;
      }

      .cls-48 {
        fill: #7e637a;
      }

      .cls-49 {
        fill: #edc8c2;
      }

      .cls-50 {
        fill: #e4ba9c;
      }

      .cls-51 {
        fill: #7f809f;
      }

      .cls-52 {
        fill: #e5b9b9;
      }

      .cls-53 {
        fill: #7a87ab;
      }

      .cls-54 {
        fill: #8398b8;
      }

      .cls-55 {
        fill: #859cba;
      }

      .cls-56 {
        fill: #edcba1;
      }

      .cls-57 {
        fill: #797599;
      }

      .cls-58 {
        fill: #9c7f86;
      }

      .cls-59 {
        fill: #948493;
      }

      .cls-60 {
        fill: #808dae;
      }

      .cls-61 {
        fill: #716e8d;
      }

      .cls-62 {
        fill: #f1d4a5;
      }

      .cls-63 {
        fill: #7c657a;
      }

      .cls-64 {
        fill: #93adc7;
      }

      .cls-65 {
        fill: #eccba0;
      }

      .cls-66 {
        fill: #e5ba9d;
      }

      .cls-67 {
        fill: #dcad9d;
      }

      .cls-68 {
        fill: #726e90;
      }

      .cls-69 {
        fill: #8c6f7f;
      }

      .cls-70 {
        fill: #8583a2;
      }

      .cls-71 {
        fill: #9d9bb3;
      }

      .cls-72 {
        fill: #967c92;
      }

      .cls-73 {
        fill: #f6e0cf;
      }

      .cls-74 {
        fill: #ebc4be;
      }

      .cls-75 {
        fill: #e5babb;
      }

      .cls-76 {
        fill: #e0b499;
      }

      .cls-77 {
        fill: #af8b9c;
      }

      .cls-78 {
        fill: #8ba1be;
      }

      .cls-79 {
        fill: #7a86aa;
      }

      .cls-80 {
        fill: #f2d6a9;
      }

      .cls-81 {
        fill: #abacc3;
      }

      .cls-82 {
        fill: #afbfd6;
      }

      .cls-83 {
        fill: #eaf4fa;
      }

      .cls-84 {
        fill: #efd0a3;
      }

      .cls-85 {
        fill: #fdf8ec;
      }

      .cls-86 {
        fill: #849dbc;
      }

      .cls-87 {
        fill: #deafaf;
      }

      .cls-88 {
        fill: #78789d;
      }

      .cls-89 {
        fill: #e2b79e;
      }

      .cls-90 {
        fill: #8fa8c3;
      }

      .cls-91 {
        fill: #959cbb;
      }

      .cls-92 {
        fill: #e3b3b7;
      }

      .cls-93 {
        fill: #edc2be;
      }

      .cls-94 {
        fill: #73749a;
      }

      .cls-95 {
        fill: #f4d7ca;
      }

      .cls-96 {
        fill: #d9a6aa;
      }

      .cls-97 {
        fill: #e3b89a;
      }

      .cls-98 {
        fill: #8ea8c2;
      }

      .cls-99 {
        fill: #e4b5b7;
      }

      .cls-100 {
        fill: #e1b59d;
      }

      .cls-101 {
        fill: #aa8a8d;
      }

      .cls-102 {
        fill: #d5a1a7;
      }

      .cls-103 {
        fill: #949dbb;
      }

      .cls-104 {
        fill: #7981a5;
      }

      .cls-105 {
        fill: #b1c9da;
      }

      .cls-106 {
        fill: #97b7cc;
      }

      .cls-107 {
        fill: #7a84a8;
      }

      .cls-108 {
        fill: #7f768e;
      }

      .cls-109 {
        fill: #a99eac;
      }

      .cls-110 {
        fill: #75789c;
      }

      .cls-111 {
        fill: #e4b8b9;
      }

      .cls-112 {
        fill: #e1b9b7;
      }

      .cls-113 {
        fill: #e6c09c;
      }

      .cls-114 {
        fill: #a19fb4;
      }

      .cls-115 {
        fill: #a7afc4;
      }

      .cls-116 {
        fill: #99b6cb;
      }

      .cls-117 {
        fill: #8597b8;
      }

      .cls-118 {
        fill: #869bb9;
      }

      .cls-119 {
        fill: #fdfbf2;
      }

      .cls-120 {
        fill: #ebc69f;
      }

      .cls-121 {
        fill: #abbad2;
      }

      .cls-122 {
        fill: #cfd0da;
      }

      .cls-123 {
        fill: #7c647a;
      }

      .cls-124 {
        fill: #d3a1ad;
      }

      .cls-125 {
        fill: #76799f;
      }

      .cls-126 {
        fill: #fdfcf5;
      }

      .cls-127 {
        fill: #907580;
      }

      .cls-128 {
        fill: #f3dab9;
      }

      .cls-129 {
        fill: #7e87ac;
      }

      .cls-130 {
        fill: #d29fa8;
      }

      .cls-131 {
        fill: #bec0cd;
      }

      .cls-132 {
        fill: #9d707e;
      }

      .cls-133 {
        fill: #859ab9;
      }

      .cls-134 {
        fill: #e8e7ea;
      }

      .cls-135 {
        fill: #7a7393;
      }

      .cls-136 {
        fill: #8491b3;
      }

      .cls-137 {
        fill: #ebf3f9;
      }

      .cls-138 {
        fill: #8194b4;
      }

      .cls-139 {
        fill: #6c7490;
      }

      .cls-140 {
        fill: #e6be9a;
      }

      .cls-141 {
        fill: #f4d9ca;
      }

      .cls-142 {
        fill: #f3d9a5;
      }

      .cls-143 {
        fill: #8092b3;
      }

      .cls-144 {
        fill: #a9bad4;
      }

      .cls-145 {
        fill: #836c7e;
      }

      .cls-146 {
        fill: #9e9cb3;
      }

      .cls-147 {
        fill: #74769b;
      }

      .cls-148 {
        fill: #fafdfe;
      }

      .cls-149 {
        fill: #feffff;
      }

      .cls-150 {
        fill: #777da2;
      }

      .cls-151 {
        fill: #73759a;
      }

      .cls-152 {
        fill: #717092;
      }

      .cls-153 {
        fill: #f0d1a2;
      }

      .cls-154 {
        fill: url(#_名称未設定グラデーション_21);
      }

      .cls-155 {
        fill: #a2acc7;
      }

      .cls-156 {
        fill: #edecee;
      }

      .cls-157 {
        fill: #f7e7bf;
      }

      .cls-158 {
        fill: #8faec8;
      }

      .cls-159 {
        fill: #daa89c;
      }

      .cls-160 {
        fill: #8484a4;
      }

      .cls-161 {
        fill: #faf1d9;
      }

      .cls-162 {
        fill: #f3d7a6;
      }

      .cls-163 {
        fill: #a5868b;
      }

      .cls-164 {
        fill: #7d7593;
      }

      .cls-165 {
        fill: #e7bcba;
      }

      .cls-166 {
        fill: #9d8087;
      }
    </style>
    <linearGradient id="_名称未設定グラデーション_21" data-name="名称未設定グラデーション 21" x1="60.34" y1="40.89" x2="100.6" y2="68.92" gradientUnits="userSpaceOnUse">
      <stop offset="0" stop-color="#e0b199"/>
      <stop offset="1" stop-color="#eac5a0"/>
    </linearGradient>
  </defs>
  <g id="_レイヤー_1-2" data-name="レイヤー 1">
    <g id="_生成オブジェクト" data-name="生成オブジェクト">
      <path class="cls-34" d="M214.7,500.23c-.32-3.01.18-6.07.03-9.08.87.59,1.9-1,2.82-.8,1.76.38,3.01,1.93,4.83,2.05,2.17.14,4.31-.25,6.43.09,1.82.29,3.43.73,5.45.76,1.12.02,1.54,1.77,1.55,3.05,1.4-.16,4.07.41,4.48,2.35.37,1.75-2.15,2.52-3.43,2.5l-5.91-.08c-4.05,1.13-1.44,4.25-6.62,4.14-.44,0-7.68-5.19-9.64-4.99Z"/>
      <g>
        <path class="cls-102" d="M163.86,215.89c-1.21.71-.19,2.6-.9,3.87s-3.19.78-4.63.87c-.79,1.98-.2,4.08-.35,6-1.77,1.23-3.99.13-6.19.88-.15,1.92.21,3.98-.6,5.81-2.05.11-3.93-.67-5.6.27-.81.46-.46,2.02-.62,2.77l-5.06,1.18c-.99.23-1.07,1.25-1.3,2.35-.29.24-.86-.21-1.01-.34.14-2.94.66-.77,2.44-4.79.2,1.43,7.35-5.18,5.35-6.91l-22.6-.09c-.19,1.16-.69,3.09.43,3.74.68.39,2.56-.8,2.77.45.16.96-.51,2.99.94,3.02,1.22.03,1.71.79,2.08,1.14-1.75.33-3.55.85-5.31.31-.53-.74-.31-1.96-.68-3.09-1.88-.36-3.57.06-5.36-.49l-.35-5.11c-1.89-.75-3.78-.17-5.79-.64-.19-1.73-.61-3.34-.29-5.41l-4.31-.53c-.3-1.02-.04-1.8-.48-2.8-1.47-.23-3.76-.04-5.09.96-1.07,2.48-.53,5.76-.42,8.44-2.54-.18.15-5.59-2.25-5.81,1.28-3.79.44-2.89.98-7.01l62.44-.45c.65,0,1.21.17,1.55.29.28.1.15.86.23,1.12Z"/>
        <path class="cls-34" d="M54.75,491.72l.17,9.07c-.93-.1-1.55.24-2.27.69-2.14,1.34-5-.23-7.12.09-2.01.3-3.3.18-5.11-.3-3.31-.88-11.3.94-12.22-1.32-.32-.78-.23-2.17.3-2.98.21-.32,4.04-.45,4.01-.71,0-.06.08-3.83,2.21-3.82l9.58.07c1.88.01,3.76.14,5.11-1.44,2.15-2.51,4.83,1.48,5.34.66Z"/>
        <path class="cls-165" d="M137.59,239.55c-1.12.52-3.59,1.3-4.73.21l-3.87-3.66c-.37-.35-.85-1.11-2.08-1.14-1.45-.04-.78-2.06-.94-3.02-.21-1.25-2.09-.06-2.77-.45-1.12-.65-.62-2.58-.43-3.74l22.6.09c2,1.73-5.14,8.34-5.35,6.91-1.77,4.02-2.3,1.85-2.44,4.79Z"/>
        <g>
          <g>
            <path class="cls-154" d="M99.11,74.03c.04,3.8-1.45,8.19-.5,12.22l-20.68-.08c-5.9-.02-11.58.56-17.13-.3-1.83-.28-3.98.12-5.81-.77l-.18-37.06.18-9.06,6.5-.5.43-6.35c1.99-.66,4.38.58,5.92-.69,1.53.98,2.98.44,5.57.39.96-1.97-.19-4.38.21-6.16s.81-3.68.67-5.92l14.27-.98c2.21-.15,3.82.81,4.6-1.14.04.54-.43.82-.29,1.02.97,1.37,3.9.6,5.61.91l.62,54.48Z"/>
            <path class="cls-159" d="M54.82,48.03l.18,37.06c1.83.89,3.98.49,5.81.77,5.54.86,11.22.28,17.13.3l20.68.08c3.1.01,6.12.02,9.18.03l24.04.02,82.05.07c.43,0,.66.27,1.08.14l-.36,5.81-146.53.12c-.36,2.22-.23,4.06-.26,6.46h151.46c1.41,0,2.86,0,3.65.76.17,1.06.09,2.32-.42,3.18-6.9-.5-13.87.04-20.82.04l-132.28.04-26.42-.5c0-.77-.15-1.58-.4-2.64l-4.95-.35.17-18.83,5.23-.33.25-20.26,5.52-.11.4-11.7,5.62-.16Z"/>
            <path class="cls-162" d="M229.57,90.16c-.01,2.99.55,6.05-.11,9.21-2.36.11-4.62-.22-6.54.28-.79-.76-2.23-.76-3.65-.76H67.81c.03-2.4-.1-4.24.26-6.46l146.53-.12.36-5.81c2.46-.7,5.23-.46,8.01-.15l.4,5.99c5.8,1.21,3.1-.47,6.21-2.18Z"/>
            <path class="cls-48" d="M69.4,102.92c.2.82-.88.42-1.16.69-.22.22-.16.49.14.85-.75,1.31-.88,2.84-.68,4.33-.38-.07-.6.08-.46.48l-4.34.08-.39,4.15c-.35-.18-.81.1-1.18.13-1.83.11-3.52-.07-5.84.21-.49,5.64-.48,11.04-.55,16.29.07-.31-.12-.49-.3-.55-.27-.08-.68.13-.86.14l-9.92.09c-.68-.08-.65-.88-1.06-.75l.17-26.65,26.42.5Z"/>
            <path class="cls-16" d="M158.98,6.47l.09.53c.33,2.06-.13,4.27-.1,6.4l-47.98.08c-1.26,0-2.27.4-3.21-.07.09-.54.12-1.51-.19-2.03-.68-1.13-.16-2.18-.23-3.37-.02-.34.03-.64-.13-.98-.13-.28.17-.44.17-.65l51.58.09Z"/>
            <path class="cls-9" d="M158.98,6.47l-51.58-.09.19-6.32,51.24-.07c.43,2.39-.17,4.5.15,6.47Z"/>
            <path class="cls-33" d="M222.5,102.84c.94,8.4.19,17.36.44,26.2.01.43-.35.7-.45.63-2.31.3-4.67.16-6.98,0-1.42-5.07-.12-10.49-.85-16.04-1.9-.46-4.27-1.22-6.1-.55,0-.88-.7-2.28-.34-3.32-1.62-.72-3.54-.38-5.04-.5-1.13-1.07-.68-2.88-.67-4.26,0-.87.13-1.59-.83-2.11,6.94,0,13.92-.55,20.82-.04Z"/>
            <path class="cls-120" d="M218.79,48.29c.39,3.18-.35,6.5.41,9.73,1.2,5.07-.2,14.36.8,14.95.19.11.53-.04.76.14.6.49,1.69.9,2.51,1.23l.36,6.14,5.99.23c.38,3.4-.04,6.46-.05,9.46-3.11,1.7-.41,3.38-6.21,2.18l-.4-5.99c-2.78-.31-5.55-.55-8.01.15-.43.12-.66-.14-1.08-.14.86-1.07.87-2.62.88-4.24l.09-31.42c0-1.11.05-2.25,1.17-2.58.81-.24,1.95.22,2.79.18Z"/>
            <path class="cls-47" d="M107.23,7.03c.16.34.11.64.13.98-1.27-.8-.32,3.85-.74,5.15-1.61.41-3.07-.13-5.01.13l-.48,58.62c0,.64-.43,1.3-.61,1.63-.21.38-.92.28-1.4.48l-.62-54.48c-1.71-.3-4.64.46-5.61-.91-.14-.2.33-.49.29-1.02l-.24-3.2c-.04-2.06,4.26-.65,5.79-1.63l.3-5.46,8.21-.29Z"/>
            <path class="cls-153" d="M202.53,36.78c-.5.02-.81.65-.94,1.02l-5.36-.09c-.63-1.86.01-3.81-.41-5.73l-8.37-.22c-.03-2.14.04-4.03-.27-6.3-1.75-.48-3.43.08-5.55-.18-.53-1.74-.16-3.53-.36-5.41-2.18-.49-4.26-.08-6.28-.19-.3-2.57-2.55-1.12-1.15-5.8,2.39-.05,4.84-.28,7.5.02l.48,5.33,11.09.64c.22,1.99-.26,3.72.21,5.62l5.56.39.12,5.69,3.39.4c.52,1.7.03,3.31.33,4.82Z"/>
            <path class="cls-17" d="M165.95,7.5c.23,1.47-.32,3.38.42,4.88.48.97,2.49.64,3.2.46-2.83.22,7.13.98,4.28,1.04-1.4,4.68.86,3.23,1.15,5.8-1.25-.07-2.41-.36-3.69-.16-.67.11-1.63.03-2.28-.15-.61-.17-1.91-.28-2.43-.91l-.66-5.1c-2.61-.17-4.85.05-6.98.06-.03-2.14.43-4.34.1-6.4,1.85.29,5.28-.12,6.89.5Z"/>
            <path class="cls-80" d="M220.76,73.11c-.22-.18-.57-.03-.76-.14-.99-.59.4-9.88-.8-14.95-.76-3.23-.02-6.55-.41-9.73.66-.04,1.34-.12,2.25.13l.27,23.82c-.28.31-.83.5-.56.87Z"/>
            <path class="cls-39" d="M73.63,25.66c-.4,1.79.74,4.19-.21,6.16-2.59.04-4.04.58-5.57-.39l.38-5.77c1.97-.04,3.75-.23,5.4,0Z"/>
            <path class="cls-46" d="M92.93,14.41l.24,3.2c-.78,1.96-2.4.99-4.6,1.14-.44-1.46-.8-3.17.46-4.18,1.1-.88,2.63-.51,3.9-.17Z"/>
            <path class="cls-128" d="M169.57,12.84c-.71.18-2.73.51-3.2-.46-.73-1.5-.19-3.41-.42-4.88.74.28,2.61-.77,3.27.39.82,1.44.11,3.46.35,4.94Z"/>
            <path class="cls-126" d="M175.01,19.67c2.01.1,4.09-.31,6.28.19.2,1.88-.17,3.67.36,5.41,2.12.26,3.79-.3,5.55.18.31,2.27.24,4.15.27,6.3l8.37.22c.43,1.92-.22,3.88.41,5.73l5.36.09c.35,0,.89.19.88.66l-.31,28.68c-3.81.38-11.6.93-14.92.04-.22-1.96.18-3.69-.31-5.62l-3.7-.45c.06-2.26-.05-4.3,0-6.34l.35-13.74c.04-1.4,2.1-.85,3.05-1.13.72-2.4.73-5.51.16-7.93-2.28.09-4.12-.41-5.96-.52.91-1.58.49-5.03-1.59-5.55-2.92-.72-5.92.11-8.58-1.13.35-2.03.62-3.69.65-5.27,1.28-.2,2.43.09,3.69.16Z"/>
            <path class="cls-66" d="M107.78,13.41c-.26,1.56-.03,3.14-.04,4.7l-.38,67.17c.15.58.68.7.42.99-3.05,0-6.08-.01-9.18-.03-.95-4.03.54-8.42.5-12.22.48-.2,1.19-.09,1.4-.48.18-.33.61-.99.61-1.63l.48-58.62c1.94-.26,3.4.28,5.01-.13.42-1.31-.53-5.95.74-5.15.07,1.19-.45,2.23.23,3.37.31.52.29,1.49.19,2.03Z"/>
            <path class="cls-157" d="M158.5,18.15c.56,2.23.65,4.69.18,7.33l-35.3.02c-.82-2.44-.69-4.69-.75-6.87.04-.25.06-.52.19-.69s.47-.36.95-.35l30.52.18c1.45,0,2.88-.12,4.21.38Z"/>
            <path class="cls-85" d="M158.97,13.41c.02,1.54-.18,3.35-.47,4.74-1.32-.5-2.75-.37-4.21-.38l-30.52-.18c-.49,0-.82.18-.95.35s-.15.44-.19.69c-2.41.04-4.74-.31-7.29-.36l-7.6-.15c0-1.56-.22-3.14.04-4.7.94.47,1.94.07,3.21.07l47.98-.08Z"/>
            <path class="cls-161" d="M171.32,19.51c-.03,1.58-.29,3.24-.65,5.27,2.66,1.23,5.66.4,8.58,1.13,2.08.52,2.5,3.97,1.59,5.55-2.18-.12-5.1.39-7.46-.09-.98-.2-3.62.88-4.02-.57-1.02-3.76,0-7.76-.32-11.43.65.18,1.62.26,2.28.15Z"/>
            <g>
              <path class="cls-7" d="M169.04,19.36c.32,3.67-.7,7.67.32,11.43.39,1.45,3.03.37,4.02.57,2.36.48,5.29-.03,7.46.09,1.84.1,3.68.61,5.96.52.57,2.42.56,5.53-.16,7.93-.95.28-3.01-.27-3.05,1.13l-.35,13.74c-.05,2.04.06,4.08,0,6.34l3.7.45c.48,1.93.09,3.66.31,5.62,3.31.89,11.11.34,14.92-.04l.31-28.68c0-.48-.54-.66-.88-.66.13-.36.44-1,.94-1.02.25.04.02.99.23,1.15l5.5.18.55,3.78,5.86.31.28,5.92c.02.32.87-.29,1.06,0-1.12.33-1.17,1.47-1.17,2.58l-.09,31.42c0,1.62-.02,3.17-.88,4.24l-82.05-.07-24.04-.02c.25-.29-.27-.4-.42-.99l.38-67.17,7.6.15c2.55.05,4.89.4,7.29.36.06,2.17-.08,4.43.75,6.87l35.3-.02c.47-2.64.37-5.1-.18-7.33.28-1.4.49-3.21.47-4.74,2.13,0,4.38-.22,6.98-.06l.66,5.1c.52.63,1.82.73,2.43.91Z"/>
              <path class="cls-119" d="M208.3,51.99c-1.66.51-3.11.35-4.59-.28l-.16-6c1.65-.29,3.03-.14,4.74-.11.33,2.23.27,4.19.01,6.39Z"/>
            </g>
          </g>
          <g>
            <path class="cls-52" d="M53.79,129.73c1.19,2.38.39,5.73.65,9.61-1.56.43-3,.33-4.5.13-.45-.44-.35-1.58-.98-1.74-1.75-.45-3.35.13-5.22,0-.27,1.21-.94,2.29-.93,3.64l.08,8.85c1.1-.37,2.13,1.41,3.32,1.54l8.59.93c-.65,1.2-.65,8.41.69,5.35,2.29.31,5.01-.25,7.49.28.36.99.21,1.78.37,2.87,1.49.41,2.94.64,4.32.59-.15.42.35.29.24.79-.07.92-.1,1.88.24,3.05h47.16c-.06,1.03.31,2.11-.22,3.29l-11.11.29c-9.66.25-19.09.28-28.75-.15-3.74-.17-1.42,16.52-2.03,15.91l1.32,1.32c1.02,1.02-.23,3.68.13,5.51l5.96.18.07,8.55,19.62.03.25,5.93c3.91-.22,7.51.27,11.48.3l45.95.37c.84,0,1.85-1.12,3.11-.96,3.1.4,6.19.33,9.29.11l.21-5.8,16.98-.03.04-8.45c2.28-.29,4.15.13,6.11-.32l.31-5.65,8.28-.28.54-8.54c.07-1.14,1.13-11.65-.79-11.41.16-1.26-.28-2.85-.07-4.07l.56-3.28,4.57-.63.41-4.11,6.92-.2c.59,1.41.11,3,.53,4.62l13.37.3c-.02,1.97.47,4-.26,6.15h-13.37s-.54,6.84-.54,6.84c-1.96.03-3.5-.2-5.12.36-.24,6.46.26,12.69-.69,18.96-.2,1.3-4.78-.19-5.38,1.01-.36.73.03,1.64-.27,2.4-.38.96-2.46.02-3.03.7-.93,1.35.1,3.19-.69,4.68-1.8.36-3.54-.12-5.28.55l-.34,4.68c-1.82.65-3.79-.24-5.47.51-.75.34-.49,1.9-.66,3.03l-12.16.5c-.43,2.04.19,3.9-.45,5.75-1.75.24-3.31-.13-4.56.23-.86,2.52.61,5.05.16,7.08-.83,1.3-.57,2.78-.57,4.38-1.7-3.18.34-6.95-.78-10.6-1.76-.24-3.57.16-5.05.26-.08-.26.04-1.02-.23-1.12-.35-.12-.91-.3-1.55-.29l-62.44.45c-1.83.01-4.04-.74-6.16-.4l-.13-5.8-12.94-.19-.43-3.01-5.37-.19-.4-5.63-5.93-.16-.17-4.76-4.87-.65c.06-.89.01-2.12-.57-2.69-.34-.33-1.5.35-1.9-.33-.93-1.61-.15-3.67-.38-5.53l-5.04-.45-.5-20.35h-11.94c-.61-1.91.06-3.95-.37-6.16l-4.79-.1-.42-5.79c-1.15-.12-3.04.33-3.97-.54l.22-22.06c3.27-.95,6.64.71,9.23-1.07.41-.14.38.66,1.06.75l9.92-.09Z"/>
            <path class="cls-95" d="M222.49,129.66c-.13,1.99,4.3-.41,7.45,1.15,2.28,1.13,2.76,2.74,3.67,4.31.99,1.72,1.49,2.47,1.48,4.58l-.06,11.18c0,.99-1.45.98-1.76,1.38-1.24,1.55-1.62,4.16-3.32,5.32-.43.23-1.16-.52-1.16.26,0,.16-.4.27-.41.57l-13.37-.3c-.41-1.62.07-3.21-.53-4.62.18-.45.52-1.01.49-1.5,6.12.27,5.12.8,8.71-2.53,1.33-3.89,1.41-7.62,0-11.27-4.24-.56-5.34.66-8.72.98.17-3.15-.88-6.64.58-9.5,2.31.16,4.67.3,6.98,0Z"/>
            <path class="cls-130" d="M54.96,130.14c-.13,9.15.7,18.3-.12,27.59.39.16.63.25.65.29-1.34,3.06-1.34-4.15-.69-5.35l-8.59-.93c-1.19-.13-2.21-1.9-3.32-1.54l-.08-8.85c-.01-1.35.66-2.43.93-3.64,1.87.14,3.47-.44,5.22,0,.64.16.54,1.31.98,1.74,1.5.2,2.94.3,4.5-.13-.26-3.88.54-7.23-.65-9.61.19,0,.59-.22.86-.14.18.06.37.23.3.55Z"/>
            <path class="cls-93" d="M202,161.72c-.21,1.22.24,2.82.07,4.07-1.9.3-3.8.13-5.7.13.37-.72.37-1.82.34-2.72-.01-.4.18-.94.56-1.1,1.5-.62,3.16-.15,4.73-.39Z"/>
            <path class="cls-87" d="M214.95,151.99c-.24-4.27-.25-8.56-.02-12.82,3.39-.32,4.48-1.54,8.72-.98,1.41,3.66,1.33,7.39,0,11.27-3.59,3.33-2.59,2.79-8.71,2.53Z"/>
            <path class="cls-99" d="M196.37,165.92c-.35.68.59,2.89-.61,3.01-9.91.98-19.51.21-29.32.14l-13.78-.09c-.48-1.21-.33-2.21-.13-3.17l43.84.12Z"/>
            <path class="cls-92" d="M147.73,158.35c.17.09.77.08.57.41-.4.68.05,1.42.57,1.86.46.39,1.11.11,1.68.39s.87.98,1.09,1.55-.01,1.08-.08,1.64c-2.4-2.22-6.14.18-6-2.58.06-1.24-.11-2.27,0-3.25.71-.09,1.5-.38,2.17,0Z"/>
            <g>
              <path class="cls-32" d="M145.15,157.4c-.09.41.46.56.41.96-.12.98.06,2.01,0,3.25-.14,2.76,3.6.37,6,2.58-.08.6.49,1.39.97,1.61-.2.96-.35,1.97.13,3.17l13.78.09c9.81.07,19.41.84,29.32-.14,1.2-.12.27-2.33.61-3.01,1.91,0,3.81.17,5.7-.13,1.92-.24.86,10.26.79,11.41l-.54,8.54-8.28.28-.31,5.65c-1.96.45-3.83.03-6.11.32l-.04,8.45-16.98.03-.21,5.8c-3.1.22-6.19.29-9.29-.11-1.26-.16-2.27.97-3.11.96l-45.95-.37c-3.97-.03-7.57-.53-11.48-.3l-.25-5.93-19.62-.03-.07-8.55-5.96-.18c-.36-1.83.89-4.49-.13-5.51l-1.32-1.32c.61.61-1.71-16.07,2.03-15.91,9.65.43,19.08.4,28.75.15l11.11-.29c.53-1.18.16-2.26.22-3.27,1.37-.3.54-1.88.81-2.92.22-.61.74-1.02,1.01-1.58,1.17-.16,3.19.32,4.42-.62,1.35-1.04,1.37-3.44,1.62-4.83,2.81-1.69,6.02.38,4.9-2.09.7-.01.98-.88.98-1.48.68.32.62-.44.77-1.18,2.37-.47,5.02-.56,7.23-.06.09.81.42,1.47.85,1.7.39.21,1.5-.34,2.01.52.59.99-.19,2.96.8,3.86,1.23,1.11,3.17,1.19,4.43.48Z"/>
              <path class="cls-132" d="M154.36,184.34l-40.03.08-.71-6.1,41.44-.13c-.52,1.96-.37,3.72-.7,6.15Z"/>
              <path class="cls-112" d="M128.08,153.56c1.12,2.47-2.09.4-4.9,2.09.06-.37-.31-.59-.06-.94.24-.33.16-.74.09-1.09,1.61-.24,3.24-.06,4.87-.05Z"/>
            </g>
            <g>
              <path class="cls-151" d="M61.35,113.63c-.35,1.66.44,3.47.46,5.33l.24,34.4c2.08-.1,3.86-.68,5.66-.26.43,2.16-.32,4.15.62,5.9.09.79-.49,1.98-.65,2.75-1.38.04-2.83-.19-4.32-.59-.17-1.09-.02-1.88-.37-2.87-2.47-.53-5.19.04-7.49-.28-.02-.04-.26-.14-.65-.29.82-9.29-.02-18.43.12-27.59.08-5.25.07-10.65.55-16.29,2.31-.29,4-.1,5.84-.21Z"/>
              <path class="cls-125" d="M215.51,129.66c-1.46,2.87-.41,6.35-.58,9.5-.23,4.26-.22,8.55.02,12.82.03.5-.31,1.06-.49,1.5l-6.92.2-.41,4.11-4.57.63-.56,3.28c-1.57.24-3.23-.23-4.73.39-1.01-.57-1.24-3.18,0-3.7,1.64-.7,3.34.27,5.12-.34.74-1.77-.69-4,.33-5.49l1.62-2.35,4.57-.17-.35-36.98c1.83-.66,4.2.1,6.1.55.72,5.55-.57,10.97.85,16.04Z"/>
              <path class="cls-103" d="M117.14,161.11c-.27.57-.79.97-1.01,1.58l-28.09.15-20.13-.3c.1-.49-.4-.36-.24-.79.16-.77.74-1.97.65-2.75.41.33.54-.43.96-.6,1.85.25,3.32-.17,4.79-.17l40.04-.07c1.26,0,2.22-.31,2.29-1.4,1.96.47-1.01,1.79.74,4.34Z"/>
              <path class="cls-94" d="M116.13,162.69c-.27,1.04.56,2.62-.81,2.92h-47.16c-.34-1.19-.32-2.15-.24-3.07l20.13.3,28.09-.15Z"/>
              <path class="cls-57" d="M201.68,102.88c.96.52.84,1.24.83,2.11-.28.03-.33-.39-1.01-.41l-133.12-.11c-.3-.36-.36-.63-.14-.85.28-.28,1.35.13,1.16-.69l132.28-.04Z"/>
              <path class="cls-28" d="M67.25,109.27c.94,1.32.1,2.88.53,4.33.48,1.58.41,3.26.63,5.05,2.17.22,3.47-.22,5.12.22.23-1.89.38-3.43.21-5.05h108.77c-.2,1.93.17,3.89-.3,5.98l-7.36.16-.35,6.25-8.69-.06c-.76-1.96-.18-3.96-.57-6.14-2.53-.38-5.03-.07-7.38.02l-5.17.2c0,6.73-.47,13.14.05,19.77.2,2.51-.78,5.23.04,7.95l5.03.32c2.3.15,4.64.77,7.38.15l.36-5.68,5.05-.4.12-5.09,3.67-.36.28-5.57,12.56-.18.57-5.23,7.9-.13c.81-2.38-.52-5.11,1.14-6.85,1.41.12,2.79.05,4.6.4l-.1,28.69c-1.76.51-3.32.18-5,.38l-.32,4.43c-1.47.44-2.86-.11-4.27.48l-.07,4.85-31.64.16c-1.27,0-2.21-.39-3.16-.43.51-1.48.54-3.35.11-4.99l-5.03.16c-.38-.3-1.5-.33-1.92-.62-1.09-.74-.35-2.5-1.09-3.22-.92-.89-2.44.03-3.19-.85.07-1.97.27-4.43-.49-6.4-.27-.71-2.41-.04-2.37-1.08-.33-1.01.67-1.62,1.14-2.95l-15.07-.33c-.65,1.64-.12,3.23-.4,4.75-1.69-.34-3.6.28-5.58.13.22,2.75-.15,4.5-.29,6.41-1.84.35-4.09-.32-6.03.41-1.03.76.12,2.77-.05,3.75-.19,1.16-.34,2.52-.21,3.7-.07,1.08-1.04,1.39-2.29,1.4l-40.04.07c-.31-3.14-.13-6.35-.03-9.5,1.98-.09,4.11-.56,6.47-.35.17-2.3-.31-3.89.23-5.75,2.13-.42,4.05.04,6.27-.1l.22-11.06c1.84-.74,5.25.34,6.03-.69l.18,21.41,13.32.04c.11-5.34.3-9.99-.07-14.65-.15-1.95.78-4.27.16-6.34-.42,0-.63-.05-.69-.13.15-.45.56-.88,1.04-.97-.26,1.51,6.37.95,7.67.73.16-1.54,0-2.82-.02-4.74-2.56-.29-5.37-.53-7.65.25-.69-.34-1.59-.55-2.64-.54l-11.24.14c.02-1.81-.34-3.56-.25-5.71-2.14-.43-4.25-.36-6.25.04l-.25,5.54c-2.09.74-3.91.34-5.96.42-.41,1.75.08,3.17-.44,4.5-1.75.45-3.32-.13-5.18.78,1.01,2.43-.87,3.97-.96,5.58l-6.04-.28c-.36,3.74-.22,7.31-.22,10.89v.53c-1.11-3.09-.46-6.88-.3-10.58.15-3.43.65-23.19-.71-23.59-1.6-.47-3.03.05-4.22-.58l.39-4.15,4.34-.08Z"/>
              <path class="cls-37" d="M204.34,150.23l-1.62,2.35c-1.02,1.48.41,3.72-.33,5.49-1.78.6-3.48-.36-5.12.34-1.23.52-1.01,3.13,0,3.7-.38.16-.57.7-.56,1.1-.7-.75-1.45-.54-2.61-.54h-37.74c-1.69.01-3.28-.92-4.72-.11-.22-.57-.51-1.27-1.09-1.55.87-.14,1.48-2.11.51-2.43-1.09-.36-2.11-.1-2.76.18.19-.33-.41-.31-.57-.41,1.02-1.07.96-3.31-.08-4.42-.31-.33-1.28-.13-1.71-.38-1.12-.64-.14-6.47-.19-5.17.75.88,2.27-.04,3.19.85.74.72,0,2.48,1.09,3.22.43.29,1.55.32,1.92.62-.05,1.49-.47,2.89.11,4.53,1.8-.55,3.26.25,4.82.31.95.04,1.89.44,3.16.43l31.64-.16.07-4.85c1.41-.6,2.79-.05,4.27-.48l.32-4.43c1.69-.2,3.25.13,5-.38l.1-28.69c-1.81-.35-3.2-.28-4.6-.4-.64-1.27-.69-3.03-.44-4.94-4.87-.49-9.38-.17-13.89-.17h-108.77c-1.99,0-3.98-.43-5.96-.22-.43-1.44.4-3.01-.53-4.33-.15-.39.08-.54.46-.48,3.51.61,6.82.37,10.84.37l119.22.04c.61,1.75.38,3.17.72,4.8l3.65.13c.45,1.61.08,3.12.29,4.73.6.47,1.36.33,2.04.7l-.12,30.65Z"/>
              <path class="cls-38" d="M202.51,104.99c-.02,1.38-.46,3.19.67,4.26l-.16,4.14c1.91.24,3.89.28,5.55-.32l.35,36.98-4.57.17.12-30.65c-.67-.37-1.44-.23-2.04-.7-.2-1.61.17-3.12-.29-4.73l-3.65-.13c-.34-1.63-.11-3.05-.72-4.8l-119.22-.04c-4.02,0-7.32.24-10.84-.37-.21-1.49-.08-3.02.68-4.33l133.12.11c.67.02.72.44,1.01.41Z"/>
              <path class="cls-155" d="M62.52,113.51c1.2.63,2.63.12,4.22.58,1.37.4.86,20.16.71,23.59-.16,3.7-.81,7.49.3,10.58,2.06-.44,4.29.55,6.28.45-.09,3.15-.28,6.36.03,9.5-1.47,0-2.94.42-4.79.17-.42.17-.55.93-.96.6-.94-1.75-.19-3.73-.62-5.9-1.8-.42-3.58.16-5.66.26l-.24-34.4c-.01-1.85-.81-3.67-.46-5.33.37-.02.83-.31,1.18-.13Z"/>
              <path class="cls-129" d="M208.56,113.07c-1.66.6-3.64.56-5.55.32l.16-4.14c1.51.12,3.42-.22,5.04.5-.35,1.03.34,2.43.34,3.32Z"/>
              <path class="cls-110" d="M145.75,148.38c.05-1.3-.93,4.53.19,5.17.44.25,1.4.04,1.71.38,1.04,1.11,1.1,3.35.08,4.42-.67-.37-1.45-.08-2.17,0,.05-.4-.5-.55-.41-.96.12-1.12.24-2.29-.18-3.69-1.56-.13-3,.07-4.54-.24l-.21-5.15c-1.84-.57-3.43.09-5.31-.14s-4.13-.99-5.63.32c-.92.8-.26,2.68-.22,3.58,0,.6-.28,1.47-.98,1.48-1.63,0-3.25-.18-4.87.05-.27-1.44-.63-3.22-.52-4.7.14-1.91.51-3.66.29-6.41,1.98.15,3.88-.47,5.58-.13,4.26.85,8.77,1.12,13.21,0,.56-.33.46-1.44,1.13-1.48-.04,1.04,2.1.37,2.37,1.08.76,1.97.56,4.43.49,6.4Z"/>
              <path class="cls-147" d="M196.72,163.2c.03.9.02,2-.34,2.72l-43.84-.12c-.48-.22-1.05-1.02-.97-1.61.07-.55.31-1.04.08-1.64,1.44-.81,3.03.12,4.72.12h37.74c1.16-.01,1.91-.22,2.61.52Z"/>
              <path class="cls-25" d="M145.15,157.4c-1.26.71-3.2.63-4.43-.48-.99-.9-.22-2.87-.8-3.86-.51-.87-1.62-.31-2.01-.52-.43-.23-.76-.9-.85-1.7-2.2-.49-4.86-.41-7.23.06-.16.74-.09,1.5-.77,1.18-.03-.9-.69-2.77.22-3.58,1.5-1.31,3.82-.54,5.63-.32s3.48-.43,5.31.14l.21,5.15c1.55.31,2.98.11,4.54.24.41,1.39.29,2.57.18,3.69Z"/>
              <path class="cls-88" d="M123.12,154.71c-.26.35.12.57.06.94-.24,1.39-.27,3.79-1.62,4.83-1.23.95-3.25.46-4.42.62-1.75-2.56,1.21-3.87-.74-4.34-.14-1.17.02-2.53.21-3.7,2.71,1.67,5.48-.96,6.51,1.64Z"/>
              <path class="cls-148" d="M196.84,118.93c-1.67,1.74-.33,4.47-1.14,6.85l-7.9.13-.57,5.23-12.56.18-.28,5.57-3.67.36-.12,5.09-5.05.4-.36,5.68c-2.74.62-5.08,0-7.38-.15l.06-28.24c2.35-.09,4.85-.4,7.38-.02.39,2.18-.19,4.18.57,6.14l8.69.06.35-6.25,7.36-.16c.47-2.08.1-4.05.3-5.97,4.51,0,9.02-.32,13.89.17-.25,1.91-.2,3.67.44,4.94Z"/>
              <path class="cls-82" d="M107.2,126.37c.1,1.25-.24,2.52,0,3.76-.49.08-.89.52-1.04.97-2.38-.12-4.69-.1-7.37.09.21,2.13-.3,4.07.19,6.06l7.7.32c.37,4.67.18,9.31.07,14.65l-13.32-.04-.18-21.41.06-4.78,11.24-.14c1.05-.01,1.95.2,2.64.54Z"/>
              <path class="cls-148" d="M93.31,125.98l-.06,4.78c-.78,1.04-4.18-.04-6.03.69l-.22,11.06c-2.22.14-4.14-.31-6.27.1-.54,1.86-.07,3.45-.23,5.75-2.35-.2-4.49.26-6.47.35s-4.21-.89-6.28-.45v-.53l5.7-.09.55-10.53c.08-1.61,1.97-3.14.96-5.58,1.86-.92,3.43-.33,5.18-.78.52-1.33.04-2.75.44-4.5,2.05-.09,3.87.32,5.96-.42l.25-5.54c2-.39,4.12-.46,6.25-.04-.09,2.15.28,3.91.25,5.71Z"/>
              <path class="cls-15" d="M157.87,120.02l-.06,28.24-5.03-.32c-.81-2.72.16-5.44-.04-7.95-.52-6.63-.05-13.03-.05-19.77l5.17-.2Z"/>
              <path class="cls-5" d="M142.89,140.9c-.67.04-.57,1.15-1.13,1.48-4.43,1.11-8.95.84-13.21,0,.29-1.53-.24-3.11.4-4.75l15.07.33c-.47,1.34-1.47,1.94-1.14,2.95Z"/>
              <path class="cls-83" d="M74.01,137.12l-.55,10.53-5.7.09c0-3.58-.14-7.14.22-10.89l6.04.28Z"/>
              <path class="cls-149" d="M106.15,131.1c.06.08.27.12.69.13.62,2.06-.32,4.39-.16,6.34l-7.7-.32c-.49-1.99.02-3.93-.19-6.06,2.68-.19,4.99-.2,7.37-.09Z"/>
              <path class="cls-137" d="M107.19,130.13c-.24-1.24.11-2.51,0-3.76,2.28-.78,5.09-.53,7.65-.25.02,1.92.18,3.2.02,4.74-1.3.21-7.93.78-7.67-.73Z"/>
              <path class="cls-91" d="M122.69,148.91c-.11,1.49.25,3.27.52,4.7.07.36.15.76-.09,1.09-1.03-2.61-3.8.03-6.51-1.64.16-.99-.98-2.99.05-3.75,1.94-.73,4.19-.06,6.03-.41Z"/>
              <path class="cls-144" d="M73.75,113.82c.17,1.62.02,3.16-.21,5.05-1.65-.44-2.95,0-5.12-.22-.22-1.79-.15-3.47-.63-5.05,1.99-.21,3.97.22,5.96.22Z"/>
              <path class="cls-121" d="M156.89,157.9c-1.56-.06-3.02-.86-4.82-.31-.58-1.64-.16-3.03-.11-4.53l5.03-.16c.43,1.64.41,3.52-.11,4.99Z"/>
              <path class="cls-139" d="M150.56,161.01c-.57-.28-1.22,0-1.68-.39-.52-.44-.97-1.18-.57-1.86.66-.28,1.67-.53,2.76-.18.97.32.36,2.28-.51,2.43Z"/>
            </g>
          </g>
        </g>
        <g>
          <g>
            <path class="cls-43" d="M149.25,429.74l.07,17.14c.96.62,1.7.11,2.79.54-.33,1.85.19,3.4.02,4.83-.64,5.38.54,10.86.47,16.09l-.3,20.81c-.42-.38-.78.31-1.36.31h-33.59c-.77,0-1.28-.61-1.84-.46l-.27-20.76c-.07-5.16.24-10.62.48-15.95l.23-5c1.52-.19,2.46.19,3.5-.38l.39-17.04c.64-.27,2.75.35,2.75-.63l.24-54,22.27.07.05,54.24c1.84-.22,3.07.43,4.08.21Z"/>
            <path class="cls-143" d="M124.74,340.68c.26.14.58.58,1.13.58l21.3-.03c1.09,0,1.33.32,1.33,1.43,0,3.47-3.91.89-8.51,2.06-5.26,1.34-1.41.02-7.82.44l-.07,23.4,14.22.32c.63.65.13,1.88.73,2.43,1.33,1.2,2.99.73,4.74.67.55,2.39.24,4.79.24,7.27l6.37.39.07,49.13c-.18.48-.62.92-.61,1.51-.29-.68-7.47-.8-8.62-.55-1.01.22-2.24-.42-4.08-.21l-.05-54.24-22.27-.07-.24,54c0,.98-2.11.36-2.75.63l-.39,17.04c-1.04.58-1.98.2-3.5.38l-.23,5c-.66.45-1.44-.61-2.1-.49l-3.97.73-.53,7.54-34.93.29c-.25-4.21-.3-8.33-.11-13-2.18-.26-4.55-.36-6.35.64l-.58-78.86c2.08.58.5-6.59.15-5.53.13-2.19.46-4.72-.04-6.86.17-.45.66-1.07.56-1.59,1.15,1.95,5.22-.06,5.89,1.49,1.01,2.34-.76,4.82.78,6.64.4,1.29-.45,3.65.88,5.31,1.59-.35,3.82.57,5.25.38l.23,8.48c.02.8-.08,1.68-.39,2.56-2.11.19-4.01-.25-6.48.29l.19,48.49c0,2.31-.42,4.64.15,7.25l5.98-.14.38,11.25,26.29-.15.28-11.59,6.83.07.62-6.63c.46.15.8-.17,1-.43.18-.23.26-.77.27-1.32l.18-58.34c4.59-.3,8.46.31,12.46-.44l.17-23.61-5.01-.25-.12-4.01c.42,0,.68.02,1.07.22Z"/>
            <path class="cls-63" d="M157.78,468.24l1.06,5.28c3.51.23,6.83.35,10.11-.14,2.1-.32-.16-4.17,2.79-5.01,8.1.37,16.32-.37,24.51-.14-.08,1.96-.26,3.92-.59,5.83-2.98-.15-6.02.39-8.96.41-2.38.01-5-.98-7.49.05l-.57,18.18c-.03,1.11.18,2.32,1.58,2.32l28.22.03c.27-1.94-.1-3.48.4-5.27l5.13-.52c-.54-2.87-1.24-5.22,0-7.53-.72-.27-1.34-.02-1.21-.63.7,0,1.09-.39,1.7-.6-.32,3.56.1,7.11.27,10.64.14,3.01-.35,6.07-.03,9.08.19.71-.34,1.42-1.42,1.42l-60.86-.02-.11-12.5.3-20.81c1.59-.39,3.64.52,5.18-.09Z"/>
            <path class="cls-123" d="M74.2,468.14l41.05.08.27,20.76-.06,12.84c-20.47-1.02-40.86,1.02-60.54-1.04l-.17-9.07.23-10.3c1.93-.51,3.96.04,5.91,0,.23,2.64-.9,5.79.53,8.12-1.06,1.09-.56,5.44.06,5.44l27.59.06.63-5.8c3,.07,6.45-.31,8.93.75l-.26,4.77,10.63.34c1.05-1.9.35-3.82.37-5.58l.17-15.24-10.61-.49c-.59-1.51-.06-2.86-.39-4.84-1.65-.21-3.11-.13-4.6-.12l-1.08,9.06c-.47.78-2.5.32-3.24.48l-.26-4.06-21.16-.19c-.72-1.87.25-4.02.06-5.86,1.98-.09,3.95-.15,5.94-.14Z"/>
            <path class="cls-150" d="M202.15,447c-.02,7.07-.3,14.18-.19,21.24-1.89-.33-3.82.05-5.71,0-8.19-.23-16.4.51-24.51.14l-10.12-.47c-1.59-.07-2.55-.17-3.85.34-1.54.61-3.59-.3-5.18.09.07-5.23-1.11-10.7-.47-16.09,1.88.57,3.84-.21,5.98.14.65,2.5.36,4.56.24,7.68,8.8.48,17.79-.32,26.33,0,3.73.14,7.4.15,11.1-.06l.34-13.01c2.29.16,4.18.42,6.02,0Z"/>
            <path class="cls-79" d="M196.22,339.76c-.4,1.49.29,3.21,0,4.66-.63,3.12-.74,6.48-.38,9.68l.59,5.17,6.02.39c-.07,1.3.06,2.43-.17,3.41-.32,1.31-.02,2.63-.02,3.95l-.07,68.17-3.29-.02c.13-.89,1.24-.48,2.69-.42v-65.48c-2.01-.99-3.92-.57-5.71-.22-1.11-.45-2.44-.31-4.05-.46l-.43-5.96c.07.95,1.32-7.29.95-7.74-.47-.58-2.42-.83-3.01-.38-.55-.06-1.1.1-1.59-.19-1.09-.64,0-2.84-.71-4.45-.48-1.09.8-3.18-.44-4.16s-3.82-.5-5.25-.09c-.58-.47-1.59-.18-2.17-.93-.06-1.77.3-3.24-.41-4.39,2.41-1.03,14.36-.67,17.45-.52Z"/>
            <path class="cls-163" d="M89.63,478.39c.05.82-.18,1.75-.18,2.58l-28.56.47c-1.94.03-3.98-.52-5.91,0,.05-2.18-.43-4.09.02-7.04,4.58.44,8.96-.28,13.2-.24l21.16.19.26,4.06Z"/>
            <path class="cls-101" d="M214.46,480.51c-.61.21-1,.6-1.7.6-1.34,0-2.98-.07-4.16.44-7.06-.79-14.33-.48-21.49-.4.03-2.02-.84-4.52-.41-6.68,2.94-.02,5.97-.56,8.96-.41,1.56.08,5.55.7,6.38-.49l.21.72c.04.14.55.09.94.1l11.25.17c.44,2.19.18,4.09.02,5.94Z"/>
            <path class="cls-2" d="M74.22,460.34c.15,2.56-.33,5.22-.02,7.8-1.98,0-3.96.05-5.94.14-.7-6.68-.45-13.52-.5-20.3,1.8-1,4.16-.9,6.35-.64-.18,4.66-.13,8.78.11,13Z"/>
            <path class="cls-69" d="M201.96,468.23l.08,5.34c-.83,1.18-4.82.56-6.38.49.33-1.91.51-3.87.59-5.83,1.88.05,3.81-.33,5.71,0Z"/>
            <path class="cls-104" d="M115.74,452.27c-.24,5.32-.55,10.78-.48,15.95l-41.05-.08c-.31-2.58.17-5.24.02-7.8l34.93-.29.53-7.54,3.97-.73c.67-.12,1.44.94,2.1.49Z"/>
            <path class="cls-35" d="M178.77,340.28c.7,1.15.34,2.62.41,4.39.58.75,1.6.46,2.17.93-.32,1.4-.38,2.79-.27,4.58,2.21-.16,4.1.16,5.96-.32.7,1.61-.37,3.81.71,4.45.49.29,1.04.13,1.59.19-.36.41-.99.98-1.41,1.14-.78.28-.84,6.19-.2,7.13,1.34.37,2.51-.2,3.67-.15l.43,5.96c1.61.15,2.94,0,4.05.46l-.19,58.62c0,2.72-4.19.34-2.97,3.26.22.52,1.1.29,1.72.66,1.34.82,1.39,2.49,1.38,3.6l-30.52-.02.03-6.08c-2.43-.56-4.64-.02-6.84-.3l-.07-49.13-6.37-.39c0-2.48.31-4.88-.24-7.27-1.75.06-3.41.53-4.74-.67-.6-.54-.1-1.78-.73-2.43l-14.22-.32.07-23.4c6.42-.42,2.57.9,7.82-.44,4.6-1.17,8.51,1.41,8.51-2.06,0-1.11-.24-1.43-1.33-1.43-.03-.75.68-.31,1.22-.36-.15-.93-.34-1.88.4-1.7,0,.2-.13,1.33.55,1.33l29.43-.22Z"/>
            <path class="cls-116" d="M123.67,340.46l.12,4.01,5.01.25-.17,23.61c-3.99.75-7.87.14-12.46.44l-.18,58.34c0,.54-.09,1.08-.27,1.32-.2.26-.54.58-1,.43-2.21.35-4.42.23-7.3.13l-.49,6.25-25.98.05-.5-6.38c-2.17-.33-4.26-.04-6.25-.1l-.19-48.49c2.47-.55,4.37-.1,6.48-.29.3-.88.41-1.76.39-2.56.79-1,2.88.11,3.78-.71.98-.89,1.38-2.31,3.38-1.95,3.26.59,3.99-4.13,3.65-6.01,1.8-1,1.53-3.48,2-5.4.28-1.16,2.93-.51,3.47-1.21,1.34-1.72.71-4.37.56-6.43-1.85-.5-3.4.51-4.52-.58.27-1.08.34-3.2.17-4.25-.03-.2.06-.83-.12-.98l-5.77.03c-.4-1.73-.03-3.07.02-4.46.39-.18.57-.44.96-.49,1.12-.15,2.57-.17,3.66-.92.52-.36.29-1.75.27-2.24.67-1.48,2.67-1.19,5.86-1.2l14.7-.04c3.69,0,7.21-.2,10.71-.16Z"/>
            <path class="cls-24" d="M114.73,428.85l-.62,6.63-6.83-.07-.28,11.59-26.29.15-.38-11.25-5.98.14c-.57-2.61-.14-4.94-.15-7.25,1.99.06,4.08-.22,6.25.1l.5,6.38,25.98-.05.49-6.25c2.89.1,5.09.22,7.3-.13Z"/>
            <path class="cls-136" d="M91.7,368.78c.34,1.88-.39,6.59-3.65,6.01-2-.36-2.4,1.06-3.38,1.95-.9.81-2.99-.29-3.78.71l-.23-8.48c2.62-.34,5.37-.02,7.89-.91,1.01.34,2.09.71,3.15.72Z"/>
            <path class="cls-118" d="M165.3,435.15c-2.34,0-4.72.56-7.37-.11l-.06-4.76c0-.59.43-1.04.61-1.51,2.21.28,4.41-.27,6.84.3l-.03,6.08Z"/>
            <path class="cls-22" d="M186.71,474.47c-.43,2.16.44,4.66.41,6.68-.32,2.49-.88,5.2-.22,8.26l21.41-.04c.48-2.81.15-5.32.29-7.82,1.18-.51,2.83-.44,4.16-.44-.13.61.49.35,1.21.63-1.23,2.31-.54,4.66,0,7.53l-5.13.52c-.49,1.8-.13,3.34-.4,5.27l-28.22-.03c-1.4,0-1.62-1.21-1.58-2.32l.57-18.18c2.49-1.04,5.11-.04,7.49-.05Z"/>
            <path class="cls-152" d="M171.75,468.37c-2.95.84-.68,4.69-2.79,5.01-3.28.49-6.6.37-10.11.14l-1.06-5.28c1.3-.51,2.25-.41,3.85-.34l10.12.47Z"/>
            <path class="cls-55" d="M198.9,435.16c-1.02,0-2.05.01-3.08.01.01-1.11-.04-2.78-1.38-3.6-.62-.38-1.5-.14-1.72-.66-1.22-2.91,2.96-.54,2.97-3.26l.19-58.62c1.79-.34,3.7-.76,5.7.22v65.48c-1.44-.06-2.55-.46-2.68.42Z"/>
            <g>
              <path class="cls-12" d="M157.87,430.28l.06,4.76c2.64.67,5.02.11,7.37.11l30.52.02c1.03,0,2.05-.02,3.08-.01l3.29.02-.04,11.82c-1.84.42-3.73.15-6.02,0l-.34,13.01c-3.7.22-7.37.2-11.1.06-8.54-.31-17.53.48-26.33,0,.11-3.13.41-5.18-.24-7.68-2.14-.35-4.1.42-5.98-.14.17-1.43-.36-2.97-.02-4.83-1.1-.43-1.83.08-2.79-.54l-.07-17.14c1.15-.26,8.33-.13,8.62.55Z"/>
              <path class="cls-106" d="M195.79,447.1l-19.23-.04-15.87-.15c-.28-1.84-.24-3.29.21-5.22l34.93.12c.08,1.85.14,2.93-.03,5.29Z"/>
            </g>
            <path class="cls-127" d="M109.37,489.53c-3.6,0-7.33-.54-10.74.47-2.48-1.07-5.94-.69-8.93-.75l-.63,5.8-27.59-.06c-.62,0-1.12-4.34-.06-5.44l26.6-.03c1.15,0,1.41-1.14,1.41-2.06v-6.5c0-.83.24-1.76.19-2.58.74-.16,2.78.29,3.24-.48l1.08-9.06c1.49,0,2.95-.08,4.6.12.32,1.98-.21,3.33.39,4.84l10.61.49-.17,15.24Z"/>
            <path class="cls-58" d="M89.44,480.96v6.5c0,.92-.27,2.06-1.42,2.06l-26.6.03c-1.43-2.34-.3-5.49-.53-8.12l28.56-.47Z"/>
            <path class="cls-145" d="M109.37,489.53c-.02,1.77.68,3.68-.37,5.58l-10.63-.34.26-4.77c3.41-1.02,7.14-.47,10.74-.47Z"/>
            <path class="cls-64" d="M191.4,362.61c-1.16-.05-2.33.52-3.67.15-.64-.94-.58-6.85.2-7.13.43-.15,1.05-.73,1.41-1.14.58-.45,2.53-.2,3.01.38.37.45-.88,8.68-.95,7.74Z"/>
            <path class="cls-54" d="M187.04,349.85c-1.86.49-3.75.17-5.96.32-.1-1.79-.05-3.18.27-4.58,1.42-.41,3.98-.92,5.25.09s-.04,3.07.44,4.16Z"/>
            <path class="cls-166" d="M208.6,481.54c-.14,2.5.19,5.01-.29,7.82l-21.41.04c-.66-3.05-.1-5.76.22-8.26,7.15-.08,14.42-.39,21.49.4Z"/>
            <path class="cls-115" d="M87.51,345.51c-.05,1.39-.42,2.73-.02,4.46l5.77-.03c.19.16.09.79.12.98-.77-.87-4.29.19-6.52-.4-1.84-.49-4.12.44-5.98-.62-.9-.51-.37-2.81-.25-3.73.22-1.7,7.24-1.26,6.86-.66Z"/>
            <path class="cls-114" d="M143.91,335.94c-.47-.51-.39.95-.66.95-4.45-.22-9.32.74-13.56-.42l.31-5.47,13.73-.07c.44,1.85,0,3.43.18,5.02Z"/>
          </g>
          <g>
            <path class="cls-100" d="M222.93,272.55c2.31.04,4.83.37,7.33-.12.43-.11.84-.61.3-.84.51.47,1.21.14,1.98.37.15.64.08.68-.1.85-.2.18-1.44.02-1.57.23-.72,1.23-.15,3.08.1,4.39-.71,1.35-4.56,1.11-6.45,1.01-.47-.03-.79-.53-1.32-.48-.95.09-.44,1.36-.93,1.78-1.48,1.29-2.43,2.89-1.96,4.97-2.14,1.19-4.77-.92-5.97,1.07-1.92.44-3.99-.31-5.8.59-3.72-1.25-7.81-.1-12.03-.35-.27,2.89-.4,5.17-.14,7.82l5.77.04c.92.47.29,1.58.06,2.18.06-.54-.23-1.59-1.1-1.61-1.78-.06-3.41.1-4.97.17l-.34,24.18c-2.79-.82-5.74.02-8.61-.41.11-17.38.58-34.87-.21-52.11-.1-2.13.22-4.35.26-6.48l8.95.19.4,6.48c1.75.49,3.54-.23,5.17.5l.24,12.07c4.17.33,8.13.12,12.4-.07l.53-6.08c2.81.31,5.48-.35,8.01-.31Z"/>
            <path class="cls-10" d="M201.63,237.45c-.19.43.18.44.51.41l.1,6.35c2.34.46,4.36.07,6.35.14.1,2.45-.17,4.93.28,7.68l5.68.53.12,11.47c0,.55.66,1.54.8,2.26,2.09.34,5.18.79,7.26-.15.54-.24.65-.84,1.54-.58.66.19-.07.75-.66.98-.17.07.06.06-.4.51l-.27,5.5c-2.52-.04-5.19.62-8.01.31l-.53,6.08c-4.27.19-8.23.4-12.4.07l-.24-12.07c-1.63-.72-3.42,0-5.17-.5l-.4-6.48-8.95-.19c.17-8.44-.5-16.93.41-25.18,3.48.88,8.39-1.6,8.29,2.65,1.81.05,3.98.58,5.7.21Z"/>
            <path class="cls-84" d="M80.1,259.79c-1.83.05-3.76.3-5.89-.1-.41.29.15-9.22-1.06-5.98-.05.12-.33.23-.34.66l-.19,5.06-4.65.24-.17,19.27c-2.05,1.23-4.67-.15-6.43.03l-.3-5.75c-4.4-.64-8.48.28-12.51-.52l.02-5.93c1.83-.34,3.73.04,5.86-.21.62-1.89.54-13.65.09-13.75l-.65-.15c0-.44.59-.51.67-.93,1.64,1.06,3.88.5,6.02.31l.3-7.26,6.4-.5c.52-1.86.14-3.85.27-5.95s1.23.7,2.94-2.84c.4-.82,1.66.32,2.19.19,2.52-.63,5.53-1.72,8.32-.51l.27,21.87c.01,1.22-.14,2.47-1.17,2.75Z"/>
            <path class="cls-97" d="M83.78,227.66l.51,39.49.09,51.33-10.23-.09c.01-.36-.03-.71-.04-1.07,1.05.44,5.35,1.43,6.09.39.22-.32.34-.6.34-1.58l.13-47.83c0-3.05.05-5.87-.55-8.51,1.04-.28,1.19-1.54,1.17-2.75l-.27-21.87c-2.79-1.21-5.8-.13-8.32.51-.53.13-1.8-1.01-2.19-.19-1.72,3.55-2.82.83-2.94,2.84s.25,4.09-.27,5.95l-6.4.5-.3,7.26c-2.14.19-4.39.75-6.02-.31l.27-6.99c1.94-.38,3.71.14,5.46-.47l.38-6.44c1.5-.36,2.79.13,4.02-.44.18-1.32-.59-2.93.21-3.92.58-.72,1.92-.24,2.97-.42l.44-5.39h15.47Z"/>
            <g>
              <path class="cls-53" d="M88.45,221.98c-1.26.61,1.07,4.36.76,4.92l-1.01,1.82-.14,31.19c3.63.22,6.56.07,10.24-.23l.02-15.43c0-5.32.34-10.42.05-15.58-.13-2.33-.44-4.62.28-6.74,2.4.23-.29,5.63,2.25,5.81.18,4.07.39,8.2.38,12.27l-.04,19.74c0,2.12-.51,4.36-.13,6.52-3.2,5.35.87,6.69-.87,12.87-.41.84-2.69.17-3.23-.17.18-1.05.45-1.95-.37-2.77.58-.75,1.05-1.41,1.01-2.37-.04-.83-.34-2.5-1.64-2.62-2.14-.19-4.11.18-5.96-.21-.52-.36-.72-1.25-.56-2.11-.73-.27-1.27-.29-1.8-.23.28-1.96-2.02-1.42-3.43-1.51l-.51-39.49c-.02-1.64-.08-3.74.32-5.48,1.16-.8,3.21-.15,4.35-.2Z"/>
              <path class="cls-133" d="M98.65,221.94c-.71,2.12-.41,4.4-.28,6.74.29,5.16-.04,10.26-.05,15.58l-.02,15.43c-3.68.29-6.61.44-10.24.23l.14-31.19,1.01-1.82c.31-.56-2.02-4.31-.76-4.92,3.4-.15,6.82-.36,10.2-.05Z"/>
            </g>
            <path class="cls-65" d="M230.57,271.59c.54.23.13.73-.3.84-2.5.49-5.03.16-7.33.12l.27-5.5c.47-.45.23-.44.4-.51.58-.23,1.32-.78.66-.98-.89-.26-1,.34-1.54.58-2.08.93-5.17.48-7.26.15-.15-.71-.8-1.71-.8-2.26l-.12-11.47-5.68-.53c-.44-2.75-.18-5.23-.28-7.68l6.05.23.24,7.75,6.83.45c.38,2.21-.36,5.13.52,7.15.72.49,2.96-.55,3.15.74.29,2.03-.1,3.93.4,5.79l4.58.34c.25,1.8-.23,3.32.21,4.8Z"/>
            <path class="cls-40" d="M44.82,266.54c-.37.29-1.41-.02-1.73.46-.05,2.15-.11,3.96.13,5.63,1.86.51,3.8-.25,5.35.06,4.03.81,8.11-.12,12.51.52l.3,5.75c-3.83.96-7.85.11-11.85-.02-.57-.02-.92-.7-1.52-.66-.03-.44-.15-1.49-.77-1.76-1.49-.66-3.68.09-5.23-.81-.57-.33.5-1.58-.1-2.11-.55-.5-1.16.19-1.89-.06-.55-.19-1.35-.63-2.07-.74-.41-1.64-.23-3.68-.07-5.7,1.26-.73,5.42.66,4.98-1.44.62.3,1.55.42,1.97.89Z"/>
            <path class="cls-76" d="M53.89,252.66l.65.15c.45.1.53,11.86-.09,13.75-2.12.25-4.03-.13-5.86.21-1.21.22-2.57-.31-3.77-.22-.42-.46-1.36-.59-1.97-.89-.16-1.77-.42-3.69.25-5.53,2.05-.19,3.8.3,5.52-.3l.16-7.02c1.8-.24,3.54-.51,5.11-.16Z"/>
            <path class="cls-19" d="M201.63,237.45c-1.72.37-3.89-.16-5.7-.21.1-4.25-4.81-1.76-8.29-2.65.23-2.1-1.18-4.86.05-6.9,4.68-.41,9.45-.15,14.31.03l.16,8.53c.01.62.03,1.08-.53,1.19Z"/>
            <path class="cls-140" d="M208.58,244.35c-1.99-.08-4.02.32-6.35-.14l-.1-6.35c1.99-.2,4.07-.12,6.39.05.35,2.37-.02,4.37.06,6.45Z"/>
            <path class="cls-135" d="M67.85,325.04c-.84,1.94.32,4.19-.15,6.14-.56,2.3-.3,5.68.03,7.48.37,2.04-.54,4.36.4,6.62,2.22-.03,4.41-.1,6.13.21.75,1.55-1.35,10.1,1.44,10.4,1.93.2,3.95-1.14,5.09.26l-.06,5.43c.14,2.6-5.06.15-6.2,1.69-1.55-1.82.22-4.3-.78-6.64-.67-1.55-4.74.46-5.89-1.49-.26-1.3-.78-2.68-.39-4.15-1.24-.85-2.81.17-3.64-1.01-.12-4.53.27-9.06-.33-13.52-.5-3.73.4-7.65.44-11.24,1.24-.51,2.62-.11,3.92-.18Z"/>
            <path class="cls-71" d="M93.39,350.92c.16,1.04.09,3.17-.17,4.25-2.5.9,1.16,7.38-2.87,7.84-.08,1.91-.75,3.56-1.8,5.05-2.52.89-5.27.57-7.89.91-1.43.18-3.66-.73-5.25-.38-1.33-1.66-.48-4.03-.88-5.31,1.13-1.54,6.34.91,6.2-1.69.77,1.59,3.81,1.06,5.84.71.13-2.38.25-4.44-.08-6.53-.27-1.69.41-3.56.38-5.25,2.23.59,5.75-.47,6.52.4Z"/>
            <path class="cls-164" d="M99.88,326.41l.34,11.8,21.66-.16.82-11.07,2.16-.62c0,3.73-.08,7.46.11,11.18.05,1.05-.01,2.13-.22,3.15-.39-.21-.64-.22-1.07-.22-3.5-.04-7.02.15-10.71.16l-14.7.04c-.38-1.7.56-3.69-.56-5.21,1.46-1.21-1.32-11.75,2.18-9.04Z"/>
            <path class="cls-122" d="M148.32,337c.55.45.03,1.26.47,1.78.08.1.01.27,0,.39-.74-.18-.55.76-.4,1.7-.54.06-1.25-.38-1.22.36l-21.3.03c-.55,0-.87-.44-1.13-.58.21-1.03.28-2.1.22-3.15,3.08-1.52,3.83.44,4.73-1.06,4.24,1.16,9.11.21,13.56.42.27,0,.19-1.46.66-.95.78.84-1.22.92,4.41,1.06Z"/>
            <path class="cls-50" d="M169.68,226.22l-.19,40.35c-2.08.24-4.19.02-6.28.01,1.47-1.17.32-3.91.74-6.59l2.41-.57-.02-19.73-8.45-.12c-.09-1.79-.64-3.67-.12-5.59l4.57-.3c-.19-2.31-.19-4.23-.14-6.55-1.42-.34-3.05-.66-4.23-.5.15-1.92-.44-4.02.35-6,1.45-.09,3.94.39,4.63-.87s-.31-3.16.9-3.87c1.48-.1,3.29-.51,5.05-.26,1.12,3.65-.92,7.41.78,10.6Z"/>
            <path class="cls-44" d="M195.79,318.77c-.03,1.83.22,3.69-.06,5.51-1.96-.15-4.31.8-6.38.45.25-.45-.16-.46-.37-.51-1.02-.25-1.85,2.15-1.8-5.87,2.87.43,5.82-.41,8.61.41Z"/>
            <path class="cls-13" d="M123.68,236.41l-.94,3.11-21.45.5c0-4.06-.21-8.2-.38-12.27-.12-2.68-.65-5.96.42-8.44,1.33-1,3.62-1.19,5.09-.96.44,1,.18,1.77.48,2.8l4.31.53c-.33,2.07.1,3.67.29,5.41,2.01.47,3.9-.11,5.79.64l.35,5.11c1.79.55,3.48.13,5.36.49.37,1.13.15,2.35.68,3.09Z"/>
            <path class="cls-89" d="M128.99,236.1l3.87,3.66c1.15,1.09,3.62.31,4.73-.21.15.14.72.58,1.01.34.23-1.1.32-2.12,1.3-2.35l5.06-1.18c-.17.82-.1,2.61,1,2.65.6.02,1.12-.19,1.48-.09.21.05.38.27.32.63-.18,1.12-1.65-.01-2.24.19-1.08,1.08-.37,3.17-.94,4.65-1.7.79-3.46.2-5.44.57-.36,7.2-.58,14.07-.26,21.08.39.11.91,0,.86.5-.87,0-2.08.37-2.74-.29l.13-21.13c-1.62-.58-3.29-.53-5.27-.08l.26,21.31c-1.36.08-2.75.37-4.11.28-.2-.4.65-.49.65-.97l-.02-20.8c-1.81-.31-3.36.33-4.91-.17-1.06-1.73.45-3.91-.99-5.16l.94-3.11c1.76.54,3.56.02,5.31-.31Z"/>
            <path class="cls-56" d="M157.89,239.57c-3.33-.05-6.79.63-10.12-.03.05-.36-.12-.57-.32-.63-.36-.09-.88.12-1.48.09-1.1-.04-1.17-1.83-1-2.65.16-.74-.19-2.31.62-2.77,1.67-.94,3.55-.16,5.6-.27.81-1.82.45-3.88.6-5.81,2.2-.75,4.42.35,6.19-.88,1.18-.15,2.81.16,4.23.5-.05,2.32-.05,4.24.14,6.55l-4.57.3c-.52,1.92.03,3.8.12,5.59Z"/>
            <g>
              <path class="cls-68" d="M33.11,332.22l-.46,18.18-22.74-.08-.22-5.8-4.3-.11-.28-6.53-4.83-.29c-.24-2.07-.42-4.08,0-6.13l16.36-.36.07-12.2c.61.1.21-.41.31-1.07,1.19.14,1.93.2,2.95.51.17,4.24.06,8.1-.36,12.19-1.15.23-2.09.61-2.76,1.41-.47.56-.12,2.01-.53,2.63l-5.88,1.03c-.65,2.92-.82,5.9-.15,8.76l14.52.09c.38-2.24.11-4.06.69-5.93l6.26-.23c.37-2.26-1.12-6.65,1.35-6.07Z"/>
              <path class="cls-61" d="M4.88,306.57c-.07,1.35.57,3.04.7,4.63l10.97.34c.23,2,.15,3.71.08,5.82-.71.11-1.42-.19-1.15.47-1.34-.11-2.71.2-4.18-.12l-.46-3.86-5.08-.64c-1.7-.21-3.07-1.46-5.42-.82-.52-2.07-.32-3.76-.21-5.69,1.73-.42,3.23-.23,4.75-.11Z"/>
              <g>
                <path class="cls-6" d="M33.17,305.52c-.09,8.89.17,17.79-.06,26.7-2.47-.58-.98,3.81-1.35,6.07l-6.26.23c-.58,1.88-.31,3.69-.69,5.93l-14.52-.09c-.67-2.86-.5-5.84.15-8.76l5.88-1.03c.42-.62.07-2.07.53-2.63.67-.8,1.61-1.19,2.76-1.41.42-4.09.52-7.95.36-12.19-1.03-.31-1.76-.37-2.95-.51-.1.65.3,1.17-.31,1.07-.21-.29-.09-.81-.5-1-.17-.08-.51.06-.72-.07-.28-.65.44-.36,1.15-.47.08-2.11.16-3.82-.08-5.82l-10.97-.34c-.13-1.59-.77-3.27-.7-4.63.1-1.96.51-3.91.4-6.41,8.76-.66,17-.65,25.57.06l.12,5.02c.84.32,1.54.25,2.19.28Z"/>
                <path class="cls-81" d="M30.84,311.66c-1.37.33-2.35-.18-2.87-.45-1.04-.55.29-3.04-.52-4.13-.44-.6-.97-.12-2.04.36l.02-1.4c.01-.75-1.15-1.01-1.93-1.01l-13.09.05c-.29-1.14-.35-2.13-.04-3.19,4.84-.96,9.75-.65,14.58-.51,1.21.95,3.23,5.82,3.88,6.11.48.21,1.54-.31,2.2.2.83.64.83,3.73-.19,3.97Z"/>
              </g>
            </g>
            <path class="cls-67" d="M80.1,259.79c.6,2.65.56,5.46.55,8.51l-.13,47.83c0,.97-.11,1.26-.34,1.58-.73,1.04-5.04.05-6.09-.39l-.45-14.91c-.08-2.63.47-5.33.03-7.97-.24-1.42.31-3.14-.29-4.9-.69,1.32-.08,2.67-.33,4.31-1.77-.14-3.42.22-5.1-.16l-.18-4.86c-2-.69-4.2.26-6.06-.76-1.99-4.07-4.05.82-6.43-4.13-.23-.48-.72-1.1-.97-1.45.1.14-3.97-1.2-4.86-.36.45-1.07-.93-2.25.08-3.18,4,.13,8.01.98,11.85.02,1.76-.18,4.38,1.2,6.43-.03l.17-19.27,4.65-.24.19-5.06c.02-.42.3-.53.34-.66,1.22-3.24.65,6.27,1.06,5.98,2.13.4,4.05.14,5.89.1Z"/>
            <path class="cls-113" d="M44.82,266.54c1.2-.09,2.56.44,3.77.22l-.02,5.93c-1.55-.31-3.49.45-5.35-.06-.23-1.67-.18-3.47-.13-5.63.32-.49,1.36-.17,1.73-.46Z"/>
            <path class="cls-146" d="M84.37,318.48c0,1.96.34,3.75.2,6.3,2.48-.34,6.03,1.09,8.22,1.01l.2,6.78c.03,1.03.62,1.98,1.43,2.3.24.21.39.81.84.99.72.29.91-.72,2.44-.41,1.12,1.51.18,3.5.56,5.21-3.2,0-5.2-.29-5.86,1.2.32-1.39-4.06.88-4.11,1.33-.08.65-.17,1.29.18,1.83-.39.05-.57.31-.96.49.38-.6-6.64-1.05-6.86.66.84-1.65-6.36-1.42-6.39-.66-1.72-.31-3.91-.24-6.13-.21-.94-2.27-.02-4.58-.4-6.62-.53-2.17,4.39-.77,6.1-1.43.17-2.05.19-3.98.11-6.04-2.2-.35-4.21.07-6.24-.02.47-1.95-.69-4.2.15-6.14l6.3-.35c.25-2.3-.09-4.29-.01-6.3l10.23.09Z"/>
            <path class="cls-18" d="M122.74,239.52c1.44,1.25-.07,3.43.99,5.16,1.55.5,3.1-.14,4.91.17l.02,20.8c0,.48-.85.57-.65.97-7.43-.48-14.93.41-22.3-.45.62-1.86.31-3.97.23-6.23-1.84-.17-3.22.1-4.69-.19l.04-19.74,21.45-.5Z"/>
            <path class="cls-60" d="M90.07,271c-.19,1.49-.97,3.73.56,4.79,1.81,1.25,4.09.26,6.03.4.82.83.54,1.73.37,2.77-2.09.88-4.81.33-7.35.56-2.43-3.4-2.54-7.12-1.96-10.87.53-.07,1.07-.05,1.8.23-.17.86.04,1.75.56,2.11Z"/>
            <path class="cls-156" d="M96.66,276.19c-1.93-.15-4.22.85-6.03-.4-1.53-1.06-.76-3.31-.56-4.79,1.85.39,3.82.02,5.96.21,1.3.12,1.61,1.79,1.64,2.62.04.96-.44,1.61-1.01,2.37Z"/>
            <path class="cls-11" d="M105.71,266.17c-1.25-.15-3.27,1.33-4.59.1-.38-2.16.13-4.4.13-6.52,1.47.29,2.86.01,4.69.19.08,2.26.39,4.37-.23,6.23Z"/>
            <path class="cls-20" d="M174.93,227.55c2.33.62,4.86-.11,7.68.35v32.06s-8.21-.15-8.21-.15c-.57-.01-.97.36-1.33.34l-.12-32.12c.51-.44,1.72-.02,1.98-.49Z"/>
            <path class="cls-107" d="M174.93,227.55c-.25.47-1.47.05-1.98.49l.12,32.12c0,1.87-.52,3.8-.18,6.07-.51.96-2.45.71-3.24.93l-.17-.58.19-40.35c6.27,2.88.69.12,5.24,1.33Z"/>
            <g>
              <path class="cls-29" d="M187.68,227.69c-1.22,2.04.19,4.8-.05,6.9-.91,8.26-.24,16.74-.41,25.18-.04,2.13-.36,4.35-.26,6.48-1.36.9-3.03.27-4.92.72-.36,4.36.72,8.43-.71,12.4l-11.65-.04c-.07-4.39.99-8.59-.03-12.18.79-.22,2.73.03,3.24-.93-.34-2.27.18-4.19.18-6.07.36.02.76-.35,1.33-.34l8.21.15v-32.06c-2.83-.46-5.35.26-7.68-.35-4.56-1.21,1.02,1.55-5.24-1.33,0-1.6-.26-3.09.57-4.38l16.99.08c.02,1.93.15,4.22.44,5.76Z"/>
              <path class="cls-42" d="M180.76,275.6c-1.22,1.45-3.55.88-5.35.68-.34-1.71-.53-2.97-.48-4.64,2.05-.38,3.83-.61,5.92-.18.32,1.16.9,2.96-.09,4.14Z"/>
            </g>
            <path class="cls-108" d="M202.23,337.96c-.51.21-.44.95-.5,1.32-1.74.53-3.69.57-5.51.48-3.1-.15-15.04-.51-17.45.52l-29.43.22c-.68,0-.56-1.13-.55-1.33,0-.12.07-.29,0-.39.98.16,2.02-.49,3.13-.51l21.94-.35c5-.08,6.59,1.23,13.35.13l.03-12.11c.55-.64,1.1-1.39,2.11-1.22,2.06.35,4.42-.6,6.38-.45s3.96.87,6.3.59l.2,13.08Z"/>
            <g>
              <path class="cls-4" d="M223.49,368.95c1.42-1.52-2.85-.12-2.98-.86l-.2-1.11c-.3-1.71-1.22-3.06-1.02-4.71,4.1.6,8.26.13,12.69.29.74-1.65.87-3.39.89-5.25l.21-22.96-.17-48.75-6.89-.62c-.84-3.73-.39-3.01-1.5-6.55,1.89.1,5.75.35,6.45-1.01,1.1,1.78,3.54,1.36,5.9,1.46.39,2.26-.57,4.71.17,6.85.76.78,1.69,1.19,1.7,2.69l.25,69.35c.01,3.04-.06,5.7-.5,8.62-.46,1.05-1.91,1.66-2.63,2.66-4.44-.48-8.38-.08-12.36-.11Z"/>
              <path class="cls-26" d="M201.7,354.12c-1.23,0,7.98.65,7.36.08,1.21,1.12,2.94.07,4.7.73l.53,7.28c1.81,1.03,3.6-.14,4.99.06-.2,1.65.72,3,1.02,4.71l.2,1.11c.13.74,4.41-.66,2.98.86l-19.27-.14c-.92,0-.83-1.41-.96-1.9-.29-1.12.54-4.57-.99-3.85.24-.97.11-2.11.17-3.41l-6.02-.39-.59-5.17,5.87.02Z"/>
              <path class="cls-3" d="M203.26,366.92c-.35-.08-.66.32-1,.09,0-1.31-.3-2.63.02-3.95,1.52-.72.7,2.73.99,3.85Z"/>
              <path class="cls-73" d="M224.52,278.43c1.11,3.54.65,2.82,1.5,6.55l6.89.62.17,48.75-.21,22.96c-.02,1.87-.15,3.6-.89,5.25-4.43-.16-8.59.31-12.69-.29-1.39-.2-3.18.97-4.99-.06l-.53-7.28c-1.76-.67-3.49.38-4.7-.73-.02-1.17-.29-2.29-.59-3.68l-6.36-.25c.09-1.92-.41-3.91-.48-5.79-.06-1.58.84-3.64.1-5.19.06-.37,0-1.11.5-1.32,2.83-1.37,4.78.2,5.3-1.13.63-1.64,1.29-4.26.91-6.07l5.84.03.06-45.03c1.2-1.98,3.83.13,5.97-1.07-.47-2.08.48-3.68,1.96-4.97.49-.43-.02-1.69.93-1.78.52-.05.84.45,1.32.48Z"/>
              <path class="cls-111" d="M214.34,285.77l-.06,45.03-5.84-.03c-.89-4.27-.17-8.74-.52-13.21-1.17-.53-2.39-.22-3.66-.27l-.56-6.75c-.83-.31-1.44-.62-1.44-1.9l-.06-12.6c.23-.6.86-1.71-.06-2.18.05-1.42-.54-3.44-.08-4.86,1.31-1.28,4.79.22,6.21-1.02.45-.39.02-1.1.27-1.63,1.8-.9,3.88-.14,5.8-.59Z"/>
              <path class="cls-96" d="M208.55,286.35c-.25.52.18,1.23-.27,1.63-1.42,1.24-4.9-.26-6.21,1.02-.46,1.42.13,3.45.08,4.86l-5.77-.04c-.26-2.65-.13-4.93.14-7.82,4.22.25,8.31-.9,12.03.35Z"/>
              <path class="cls-49" d="M201.64,344.47c.07,1.88.57,3.88.48,5.79-.06,1.28.15,2.69-.41,3.86l-5.87-.02c-.36-3.2-.25-6.56.38-9.68,1.79-.19,3.63-.1,5.42.05Z"/>
              <path class="cls-124" d="M201.64,344.47c-1.79-.15-3.63-.24-5.42-.05.29-1.46-.39-3.18,0-4.66,1.82.09,3.77.05,5.51-.48.74,1.55-.15,3.61-.1,5.19Z"/>
              <path class="cls-21" d="M209.07,354.19c.62.57-8.59-.08-7.36-.08.57-1.17.35-2.57.41-3.86l6.36.25c.29,1.39.56,2.51.59,3.68Z"/>
            </g>
            <path class="cls-51" d="M93.21,355.16c1.12,1.09,2.68.07,4.52.58.15,2.06.78,4.71-.56,6.43-.55.7-3.19.05-3.47,1.21-.47,1.92-.2,4.4-2,5.4-1.07,0-2.14-.38-3.15-.72,1.05-1.49,1.72-3.14,1.8-5.05,4.03-.47.37-6.94,2.87-7.84Z"/>
            <path class="cls-160" d="M92.4,341.85c.02.5.25,1.89-.27,2.24-1.09.75-2.54.77-3.66.92-.35-.54-.26-1.18-.18-1.83.05-.45,4.43-2.72,4.11-1.33Z"/>
            <g>
              <path class="cls-75" d="M48.01,278.28c-2.32.12-4.86.16-7.22.7-1.08,2.19.21,4.5.2,6.3l-.65,74.29c2.86.82,5.89-.03,8.66.4.42.58-.02,2.29.75,2.48,1.83.45,3.71.16,5.44.26-.32,2.32,4.39.4,5.51,1.41.41.37.85,5.26.84,4.93.06,1.85.07,3.71-.19,5.79-2.26.26-4.22.26-6.3-.01-.38-2.02.13-3.97-.42-5.82l-21.06-.31c.71-6.37-1.07-12.7-.93-18.29l.46-18.18c.23-8.92-.03-17.81.06-26.7l.27-26.72c2.38-.95,4-.71,6.36-1.08.18-1.59-.09-2.94.22-4.17.73.25,1.33-.44,1.89.06.59.53-.47,1.78.1,2.11,1.55.9,3.74.15,5.23.81.63.28.74,1.32.77,1.76Z"/>
              <path class="cls-72" d="M61.26,359.49c-.77,1.26.06,3.57,1.62,4.02,1.69.49,3.11-.16,4.45.09.35-1.06,1.93,6.11-.15,5.53l-5.64-.08c.01.33-.43-4.55-.84-4.93-1.11-1.02-5.83.91-5.51-1.41l-.05-9.01,5.07-.41c.48,2.08-.11,4.44,1.05,6.2Z"/>
              <path class="cls-36" d="M67.85,355.14c.1.51-.39,1.14-.56,1.59-1.15-.36-2.91-.62-3.65.75-.56,1.04-1.17,2.39-2.38,2.01-1.16-1.76-.58-4.13-1.05-6.2l-5.07.41c0-.87-.37-1.95.24-3,2.85-.56,5.86.48,8.43-.72.84,1.18,2.4.16,3.64,1.01-.39,1.47.13,2.85.39,4.15Z"/>
              <path class="cls-77" d="M67.29,356.73c.5,2.14.17,4.67.04,6.86-1.34-.24-2.76.4-4.45-.09-1.55-.45-2.38-2.76-1.62-4.02,1.21.38,1.82-.97,2.38-2.01.74-1.37,2.5-1.11,3.65-.75Z"/>
              <path class="cls-141" d="M49.1,284.93l5.76.05.05,45.62c1.65.87,3.63-.1,4.95.78,1.2.8.28,2.87.5,4.08.31,1.74,2.1.97,3.12,1.02.6,4.46.21,8.99.33,13.52-2.57,1.2-5.59.16-8.43.72-.61,1.05-.25,2.13-.24,3l.05,9.01c-1.73-.1-3.61.19-5.44-.26-.77-.19-.33-1.9-.75-2.48-2.77-.43-5.8.43-8.66-.4l.65-74.29c2.72-.07,5.44-.37,8.11-.35Z"/>
              <path class="cls-74" d="M48.01,278.28c.6-.03.95.65,1.52.66-1.01.93.37,2.11-.08,3.18-.37.89-.46,1.82-.35,2.81-2.67-.02-5.39.28-8.11.35.02-1.8-1.28-4.11-.2-6.3,2.35-.54,4.89-.59,7.22-.7Z"/>
              <path class="cls-43" d="M73.64,302.41l.45,14.91c.01.36.05.7.04,1.07-.08,2.01.27,4.01.01,6.3l-6.3.35c-1.3.07-2.68-.33-3.92.18.07-5.45-1.16-11.22.21-16.45-.06.62.2,1.26-.12,2.04,1.44.07,1.72.2,1.43-1.24-.08-.4,0-.88-.89-.84.71-.62,1.68.31,2.38-.51.3-.35.37-1.19.84-1.64.32-.17,1.01.26,1.28.06.51-.37.11-.98.27-1.58l.88-3.33c1.55.16,2.31.96,3.42.68Z"/>
              <path class="cls-14" d="M73.67,294.44c-1.79-.12-3.57.09-5.75.19l-.13,11.95c-.47.46-.54,1.29-.84,1.64-.7.82-1.67-.1-2.38.51-.09.08-.31-.04-.43.04-1.37,5.23-.14,10.99-.21,16.45-.05,3.59-.94,7.51-.44,11.24-1.02-.04-2.81.72-3.12-1.02-.22-1.21.71-3.28-.5-4.08-1.32-.88-3.3.1-4.95-.78l-.05-45.62-5.76-.05c-.11-.99-.03-1.91.35-2.81.9-.84,4.96.5,4.86.36.25.36.74.97.97,1.45,2.38,4.95,4.44.07,6.43,4.13,1.85,1.02,4.05.07,6.06.76l.18,4.86c1.68.38,3.33.02,5.1.16.25-1.65-.35-2.99.33-4.31.59,1.76.05,3.48.29,4.9Z"/>
            </g>
            <path class="cls-70" d="M80.65,346.16c-.12.92-.65,3.22.25,3.73,1.86,1.06,4.14.13,5.98.62.02,1.69-.65,3.56-.38,5.25-1.83.16-3.93.02-5.7.39-1.14-1.39-3.16-.05-5.09-.26-2.78-.29-.68-8.85-1.44-10.4.02-.76,7.22-.99,6.39.66Z"/>
            <path class="cls-31" d="M67.73,338.67c-.33-1.8-.6-5.18-.03-7.48,2.03.09,4.04-.33,6.24.02.09,2.06.06,3.99-.11,6.04-1.72.65-6.63-.74-6.1,1.43Z"/>
            <path class="cls-131" d="M86.49,355.76c.33,2.09.21,4.15.08,6.53-2.04.36-5.07.89-5.84-.71l.06-5.43c1.77-.38,3.87-.23,5.7-.39Z"/>
            <path class="cls-1" d="M122.69,326.98l-.82,11.07-21.66.16-.34-11.8c7.38.5,15.72-1.03,22.82.57Z"/>
            <path class="cls-134" d="M148.78,326.42l-.46,10.58c-5.63-.14-3.63-.21-4.41-1.06-.18-1.59.26-3.16-.18-5.02l-13.73.07-.31,5.47c-.9,1.5-1.65-.46-4.73,1.06-.18-3.72-.11-7.45-.11-11.18.59-.17.67-.75,1.72-.75h19.97c.98,0,1.89-.1,2.24.81Z"/>
            <path class="cls-59" d="M177.08,325.91l10.16.04-.03,12.11c-6.76,1.11-8.36-.21-13.35-.13l-21.94.35c-1.11.02-2.15.67-3.13.51-.43-.53.08-1.34-.47-1.78l.46-10.58,20.3-.13c.78.12,1.06.38,1.09.93.02.5-.22,1.42.13,1.89.85,1.16,2.59.53,4.01.43.14,1.53,1.37,1.5.95.27l.07-3.61,1.75-.28Z"/>
            <path class="cls-142" d="M157.89,239.57l8.45.12.02,19.73-2.41.57c-.42,2.69.73,5.43-.74,6.59l-23.46-.06c.05-.5-.47-.4-.86-.5-.32-7.01-.11-13.88.26-21.08,1.97-.36,3.73.22,5.44-.57.57-1.47-.13-3.56.94-4.65.59-.2,2.06.94,2.24-.19,3.33.66,6.79-.02,10.12.03Z"/>
            <path class="cls-62" d="M137.01,266.24c-1.52.76-3.25,0-4.88.1l-.26-21.31c1.98-.45,3.65-.5,5.27.08l-.13,21.13Z"/>
            <path class="cls-30" d="M94.43,334.87c-.81-.32-1.4-1.27-1.43-2.3l-.2-6.78c1.22-.05,4.16-1.13,4.37,1.07.23,2.41-.26,5.02-.15,7.51-.4.66-2.03.49-2.59.49Z"/>
            <path class="cls-86" d="M186.56,318.34c.25.08.41,0,.62.02-.05,8.02.78,5.62,1.8,5.87.22.05.63.06.37.51-1.01-.17-1.57.57-2.11,1.22l-10.16-.04c.03-.23-.11-.76.09-1.06l6.51-.26v-4.61c.02-.89.31-1.41.93-1.66.62-.06,1.34-.18,1.96.01Z"/>
            <path class="cls-109" d="M175.32,326.19l-.07,3.61c.42,1.23-.81,1.26-.95-.27-1.41.1-3.16.73-4.01-.43-.34-.46-.1-1.39-.13-1.89-.03-.55-.31-.81-1.09-.93l6.25-.1Z"/>
            <g>
              <path class="cls-8" d="M105.71,266.17c7.37.86,14.88-.03,22.3.45,1.36.09,2.75-.2,4.11-.28,1.63-.09,3.36.66,4.88-.1.66.66,1.87.29,2.74.29l23.46.06c2.09,0,4.2.23,6.28-.01l.17.58c1.02,3.59-.04,7.79.03,12.18l11.65.04c1.43-3.98.36-8.05.71-12.4,1.89-.45,3.55.17,4.92-.72.8,17.24.33,34.73.21,52.11-.21-.01-.37.06-.62-.02.11-2.25.3-4.93-.06-7.63-.11-.68-2.4-.58-2.76-.04-.18,2.77-.81,6,.87,7.66-.62.25-.92.76-.92,1.66v4.61s-6.52.26-6.52.26c-.2.3-.06.84-.09,1.06l-1.75.28-6.25.1-20.3.13c-.35-.91-1.26-.8-2.24-.81h-19.97c-1.05,0-1.12.57-1.72.74l-2.16.62c-7.09-1.6-15.43-.07-22.82-.57-3.49-2.71-.72,7.83-2.18,9.04-1.53-.31-1.72.7-2.44.41-.44-.18-.6-.78-.84-.99.56,0,2.19.16,2.59-.49-.11-2.49.38-5.1.15-7.51-.21-2.21-3.16-1.12-4.37-1.07-2.19.08-5.74-1.34-8.22-1.01.14-2.56-.2-4.34-.2-6.3l-.09-51.33c1.41.09,3.71-.45,3.43,1.51-.58,3.74-.48,7.46,1.96,10.87,2.54-.24,5.26.31,7.35-.56.55.34,2.82,1.01,3.23.17,1.74-6.18-2.33-7.52.87-12.87,1.32,1.23,3.34-.25,4.59-.1Z"/>
              <g>
                <path class="cls-138" d="M107.23,285.82c.48.15.65.24.45.57-1.25,2.12-.51,4.45-.55,6.49l-.34,19.92,23.33.03,5.87-.23c7.4-.28,14.63.18,21.81,0,2.24-.05,4.61.24,6.96,0,.7-2.16.31-4.15.35-6.05l.29-12.21c1.22.34,2.44.26,3.69.14.97,1.45,1.15,21.72-.99,22.85l-10.29.5-44.7.46c-2.19.02-5,.19-6.34-1.51-.64-.81.41-3.39-.79-3.52l-3.89-.43v-26.09c1.88-.83,3.77,0,5.15-.92Z"/>
                <path class="cls-27" d="M163.4,286.09l-22.91.15c-.52-2.26-.44-4.34.23-6.37h22.97s-.29,6.22-.29,6.22Z"/>
                <path class="cls-23" d="M123.18,279.95c-.3,2.06-.21,4.16-.07,6.23l-15.42.21c.2-.33.02-.42-.45-.57.28-1.9-.21-3.94.35-5.91,5.51-.34,10.58-.15,15.59.04Z"/>
                <path class="cls-41" d="M131.22,286.28c.04.07.27.12.77.17l.04,19.85c1.21.42,2.22-.1,3.71.14l.26,6.17-5.87.23c.41-.66.55-1.47.72-2.2.23-1-1.45-.64-1.54-1.36-.71-5.59-.3-11.07-.28-16.47l.02-6.45c.62.06,1.54,0,2.17-.06Z"/>
                <path class="cls-105" d="M131.22,286.28c-.62.06-1.54.12-2.17.06-1.96-.19-3.96-.19-5.94-.17-.14-2.07-.23-4.17.07-6.23,4.34.17,8.71-.59,13.6.03.75,1.63.43,3.87.19,5.85-2.15.38-3.94.27-5.75.45Z"/>
                <path class="cls-117" d="M139.88,300.45c-.02.94-2.88.4-2.88-.68-.01-4.41-.16-8.49.18-12.85.08-1.02,2.16-.82,2.93-.25l-.23,13.78Z"/>
                <path class="cls-90" d="M165.11,306.56c-.05,1.9.35,3.89-.35,6.05-2.34.25-4.72-.05-6.96,0,.29-1.8.23-3.62.26-5.84,2.48-.62,4.8-.35,7.04-.22Z"/>
                <path class="cls-78" d="M169.09,294.48c-1.25.12-2.47.21-3.69-.14.05-2.31-.43-5.2.34-7.54.62-.63,2.87-.6,3.27.09,1.34,2.33-.21,5.62.08,7.59Z"/>
                <path class="cls-158" d="M186.56,318.34c-.61-.19-1.33-.07-1.96-.01-1.68-1.66-1.05-4.89-.87-7.66.37-.55,2.65-.65,2.76.04.36,2.71.17,5.39.06,7.63Z"/>
                <path class="cls-45" d="M129.03,292.8c-.02,5.4-.42,10.88.28,16.47.09.72,1.77.36,1.54,1.36-.17.73-.31,1.54-.72,2.2l-23.33-.03.34-19.92,21.89-.08Z"/>
                <path class="cls-98" d="M123.11,286.18c1.99-.03,3.99-.03,5.94.17l-.02,6.45-21.89.08c.04-2.04-.7-4.37.55-6.49l15.42-.21Z"/>
              </g>
            </g>
          </g>
        </g>
      </g>
    </g>
  </g>
</svg>