<?xml version="1.0" encoding="UTF-8"?>
<svg id="_レイヤー_2" data-name="レイヤー 2" xmlns="http://www.w3.org/2000/svg" viewBox="0 0 384.26 512">
  <defs>
    <style>
      .cls-1 {
        fill: #6a5a78;
      }

      .cls-2 {
        fill: #b0a6b0;
      }

      .cls-3 {
        fill: #ddecf7;
      }

      .cls-4 {
        fill: #7680a2;
      }

      .cls-5 {
        fill: #a7b8d5;
      }

      .cls-6 {
        fill: #fefeff;
      }

      .cls-7 {
        fill: #e3eef5;
      }

      .cls-8 {
        fill: #8b7587;
      }

      .cls-9 {
        fill: #828fb1;
      }

      .cls-10 {
        fill: #71546e;
      }

      .cls-11 {
        fill: #a5b3d0;
      }

      .cls-12 {
        fill: #97b1d8;
      }

      .cls-13 {
        fill: #c9d9ec;
      }

      .cls-14 {
        fill: #bacbe4;
      }

      .cls-15 {
        fill: #fbf1e6;
      }

      .cls-16 {
        fill: #d9e2f0;
      }

      .cls-17 {
        fill: #635171;
      }

      .cls-18 {
        fill: #c9daed;
      }

      .cls-19 {
        fill: #bccee6;
      }

      .cls-20 {
        fill: #b9cae6;
      }

      .cls-21 {
        fill: #9faecd;
      }

      .cls-22 {
        fill: #72536f;
      }

      .cls-23 {
        fill: #674a6b;
      }

      .cls-24 {
        fill: #bac8dc;
      }

      .cls-25 {
        fill: #d8e7f5;
      }

      .cls-26 {
        fill: #c4d3e7;
      }

      .cls-27 {
        fill: #ccccd4;
      }

      .cls-28 {
        fill: #9cacce;
      }

      .cls-29 {
        fill: #dbeaf6;
      }

      .cls-30 {
        fill: #e7f1f9;
      }

      .cls-31 {
        fill: #afb5ca;
      }

      .cls-32 {
        fill: #927585;
      }

      .cls-33 {
        fill: #755e79;
      }

      .cls-34 {
        fill: #d28994;
      }

      .cls-35 {
        fill: #9baac8;
      }

      .cls-36 {
        fill: #f8fcfe;
      }

      .cls-37 {
        fill: #f8f8fb;
      }

      .cls-38 {
        fill: #e7f1fa;
      }

      .cls-39 {
        fill: #806076;
      }

      .cls-40 {
        fill: #b5908c;
      }

      .cls-41 {
        fill: #a27a82;
      }

      .cls-42 {
        fill: #becde4;
      }

      .cls-43 {
        fill: #bac8de;
      }

      .cls-44 {
        fill: #e6c5c9;
      }

      .cls-45 {
        fill: #957b8a;
      }

      .cls-46 {
        fill: #9eabc8;
      }

      .cls-47 {
        fill: #9dadca;
      }

      .cls-48 {
        fill: #a7b8d7;
      }

      .cls-49 {
        fill: #aab7d3;
      }

      .cls-50 {
        fill: #626184;
      }

      .cls-51 {
        fill: #6b4f6c;
      }

      .cls-52 {
        fill: #be9890;
      }

      .cls-53 {
        fill: #98a4c2;
      }

      .cls-54 {
        fill: #e5cfd7;
      }

      .cls-55 {
        fill: #5a4c71;
      }

      .cls-56 {
        fill: #acbdd7;
      }

      .cls-57 {
        fill: #f7fcfe;
      }

      .cls-58 {
        fill: #c7d5e9;
      }

      .cls-59 {
        fill: #c4d3e8;
      }

      .cls-60 {
        fill: #6c7095;
      }

      .cls-61 {
        fill: #e6c3c8;
      }

      .cls-62 {
        fill: #e6f1f9;
      }

      .cls-63 {
        fill: #848bab;
      }

      .cls-64 {
        fill: #70526f;
      }

      .cls-65 {
        fill: #e6f0f9;
      }

      .cls-66 {
        fill: #b8abae;
      }

      .cls-67 {
        fill: #8c687a;
      }

      .cls-68 {
        fill: #7d5d75;
      }

      .cls-69 {
        fill: #805f75;
      }

      .cls-70 {
        fill: #dcebf6;
      }

      .cls-71 {
        fill: #ddebf5;
      }

      .cls-72 {
        fill: #6b506d;
      }

      .cls-73 {
        fill: #927485;
      }

      .cls-74 {
        fill: #c3d0e5;
      }

      .cls-75 {
        fill: #bec7de;
      }

      .cls-76 {
        fill: #d7e1eb;
      }

      .cls-77 {
        fill: #929fc0;
      }

      .cls-78 {
        fill: #867082;
      }

      .cls-79 {
        fill: #a47b7f;
      }

      .cls-80 {
        fill: #a77e6d;
      }

      .cls-81 {
        fill: #e3eff8;
      }

      .cls-82 {
        fill: #909ec0;
      }

      .cls-83 {
        fill: #fbede3;
      }

      .cls-84 {
        fill: #7d6781;
      }

      .cls-85 {
        fill: #8e697a;
      }

      .cls-86 {
        fill: #6f6b90;
      }

      .cls-87 {
        fill: #6b7095;
      }

      .cls-88 {
        fill: #8894b6;
      }

      .cls-89 {
        fill: #d7e9f8;
      }

      .cls-90 {
        fill: #9aa7c3;
      }

      .cls-91 {
        fill: #735e78;
      }

      .cls-92 {
        fill: #7e6780;
      }

      .cls-93 {
        fill: #a07980;
      }

      .cls-94 {
        fill: #a4b1ce;
      }

      .cls-95 {
        fill: #b5c3dc;
      }

      .cls-96 {
        fill: #685671;
      }

      .cls-97 {
        fill: #f1f9fd;
      }

      .cls-98 {
        fill: #755672;
      }

      .cls-99 {
        fill: #b5c4de;
      }

      .cls-100 {
        fill: #9f798e;
      }

      .cls-101 {
        fill: #888cac;
      }

      .cls-102 {
        fill: #cddff0;
      }

      .cls-103 {
        fill: #a9b7d1;
      }

      .cls-104 {
        fill: #bdcbdf;
      }

      .cls-105 {
        fill: #d3e2f2;
      }

      .cls-106 {
        fill: #c7d6ea;
      }

      .cls-107 {
        fill: #95a2c2;
      }

      .cls-108 {
        fill: #777ca1;
      }

      .cls-109 {
        fill: #98a4c3;
      }

      .cls-110 {
        fill: #715e78;
      }

      .cls-111 {
        fill: #d5b07c;
      }

      .cls-112 {
        fill: #83697f;
      }

      .cls-113 {
        fill: #8d9aba;
      }

      .cls-114 {
        fill: #b9c8e0;
      }

      .cls-115 {
        fill: #cedaea;
      }

      .cls-116 {
        fill: #8ea7d1;
      }

      .cls-117 {
        fill: #bac9e1;
      }

      .cls-118 {
        fill: #af8786;
      }

      .cls-119 {
        fill: #abc5e7;
      }

      .cls-120 {
        fill: #c9d5e8;
      }

      .cls-121 {
        fill: #a3868f;
      }

      .cls-122 {
        fill: #74789c;
      }

      .cls-123 {
        fill: #99737d;
      }

      .cls-124 {
        fill: #c1d3ea;
      }

      .cls-125 {
        fill: #9eb4d7;
      }

      .cls-126 {
        fill: #cad3e5;
      }

      .cls-127 {
        fill: #e8f3fb;
      }

      .cls-128 {
        fill: #795973;
      }

      .cls-129 {
        fill: #edd1c6;
      }

      .cls-130 {
        fill: #d2d3de;
      }

      .cls-131 {
        fill: #a0828a;
      }

      .cls-132 {
        fill: #c2cfe6;
      }

      .cls-133 {
        fill: #949ebf;
      }

      .cls-134 {
        fill: #818eb5;
      }

      .cls-135 {
        fill: #c6d6eb;
      }

      .cls-136 {
        fill: #9d818d;
      }

      .cls-137 {
        fill: #bfcbdb;
      }

      .cls-138 {
        fill: #7b82a6;
      }

      .cls-139 {
        fill: #d0e2f2;
      }

      .cls-140 {
        fill: #8996b4;
      }

      .cls-141 {
        fill: #848bad;
      }

      .cls-142 {
        fill: #8d6879;
      }

      .cls-143 {
        fill: #78627c;
      }

      .cls-144 {
        fill: #755871;
      }

      .cls-145 {
        fill: #644f69;
      }

      .cls-146 {
        fill: #a57e7f;
      }

      .cls-147 {
        fill: #bec1ce;
      }

      .cls-148 {
        fill: #b68d8a;
      }

      .cls-149 {
        fill: #a08394;
      }

      .cls-150 {
        fill: #e9d1b9;
      }

      .cls-151 {
        fill: #f0e29c;
      }

      .cls-152 {
        fill: #c6d2e6;
      }

      .cls-153 {
        fill: #8c7184;
      }

      .cls-154 {
        fill: #b5c5de;
      }

      .cls-155 {
        fill: #8a97b4;
      }

      .cls-156 {
        fill: #ac8282;
      }

      .cls-157 {
        fill: #d2e1f0;
      }

      .cls-158 {
        fill: #e1eef7;
      }

      .cls-159 {
        fill: #b5c2db;
      }

      .cls-160 {
        fill: #8b94b7;
      }

      .cls-161 {
        fill: #8c95b7;
      }

      .cls-162 {
        fill: #97a2bd;
      }

      .cls-163 {
        fill: #8a86a6;
      }

      .cls-164 {
        fill: #bbcbe3;
      }

      .cls-165 {
        fill: #cfdeef;
      }

      .cls-166 {
        fill: #7c88ab;
      }

      .cls-167 {
        fill: #78627b;
      }

      .cls-168 {
        fill: #8aa4cb;
      }

      .cls-169 {
        fill: #dceaf6;
      }

      .cls-170 {
        fill: #847891;
      }

      .cls-171 {
        fill: #d4e4f3;
      }

      .cls-172 {
        fill: #d1e0f0;
      }

      .cls-173 {
        fill: #a79098;
      }

      .cls-174 {
        fill: #838fb3;
      }

      .cls-175 {
        fill: #b3b7cd;
      }

      .cls-176 {
        fill: #cad9ec;
      }

      .cls-177 {
        fill: #906a7a;
      }

      .cls-178 {
        fill: #664c6b;
      }

      .cls-179 {
        fill: #999cb2;
      }

      .cls-180 {
        fill: #7d5e76;
      }

      .cls-181 {
        fill: #dbe8f6;
      }

      .cls-182 {
        fill: #838baf;
      }

      .cls-183 {
        fill: #9eacc9;
      }

      .cls-184 {
        fill: #777da2;
      }

      .cls-185 {
        fill: #8a6d7b;
      }

      .cls-186 {
        fill: #6e526e;
      }

      .cls-187 {
        fill: #d6dbe8;
      }

      .cls-188 {
        fill: #805f78;
      }

      .cls-189 {
        fill: #e7bfc4;
      }

      .cls-190 {
        fill: #f0de9c;
      }

      .cls-191 {
        fill: #846075;
      }

      .cls-192 {
        fill: #eff7fc;
      }

      .cls-193 {
        fill: #cbd8eb;
      }

      .cls-194 {
        fill: #a1aecb;
      }

      .cls-195 {
        fill: #e2c2b9;
      }

      .cls-196 {
        fill: #615e81;
      }

      .cls-197 {
        fill: #a19cae;
      }

      .cls-198 {
        fill: #b5d1ed;
      }

      .cls-199 {
        fill: #b2c0d8;
      }

      .cls-200 {
        fill: #755571;
      }

      .cls-201 {
        fill: #655372;
      }

      .cls-202 {
        fill: #c8d6e9;
      }

      .cls-203 {
        fill: #886579;
      }

      .cls-204 {
        fill: #8e6a7a;
      }

      .cls-205 {
        fill: #8b6779;
      }

      .cls-206 {
        fill: #594c71;
      }

      .cls-207 {
        fill: #bbcbe4;
      }
    </style>
  </defs>
  <g id="_レイヤー_1-2" data-name="レイヤー 1">
    <g id="_生成オブジェクト" data-name="生成オブジェクト">
      <path class="cls-130" d="M288.21,413.58c1.04.9,1.07,1.56,1.1,1.98.05.57-.64,1.17-1.52,1.35-1.59.32-3.75-2.24-2.75-3.82.62-.32,2.02.76,3.17.48Z"/>
      <g>
        <path class="cls-187" d="M245.78,509.73c.38-.39,1.74.2,1.79-.61l.38-6.39,4.42-.29c.65-2.57.08-4.93.48-7.26,2.07-.66,4.34-.13,6.51.2,5.53.86,11.42-.12,17.43.41.98.27,2.11,1.35,2.77,2.35,7.84-.22,12.84.7,19.31,1.08l10.91.65,5.14.8c5.54.86,11.19.12,16.67,2.93-1.36,4.8-6.87,3.57-14.82,5.37-5.03,1.14-10.49-.72-15.28.48l-3.01.76c-5.14,1.29-38.24-.28-44.85.48-2.31.27-4.43,1.51-6.47-.84-.75.65-1.43.45-1.37-.14Z"/>
        <path class="cls-187" d="M71.93,495.88l.31,5.33c.11,1.96,1.84,3.33.96,5.85-.19.55.15,1.34.19,1.86.06.79,1.13.51,1.74.82-.62.37-2.16.84-3.09.84l-34.37-.03c-3.34,0-13.86-1.48-14.87-1.27-3.75.79-6.9-.89-10.37-1.23-3.92-.38-8.63,1-11.99-2.33-1.57-1.56,1.38-3.51,2.92-3.69,4.92-.55,9.07-1.75,13.6-1.42,1.44.11,3.49-1.13,5.15-1.13h17.52c8.25,0,5.95-3.97,8.98-3.92l23.32.31Z"/>
        <path class="cls-16" d="M282.61,377.81c-1.65,2.79-18.47-27.64-15.1-23.97l-3.58-3.91c-.96-1.05-.86-3.22-.38-5.55-1.79-.51-2.97.02-4.55-.64-.08-2.42-1.09-4.93-.41-7.63.29-1.15,3.81-.64,4,.59.45,2.88,1.43,4.85.63,7.25l5.53,1.64c.39,2.28.09,4.61,1.23,6.7.56,1.03,3.3.68,3.42,2.02l.68,7.39,4.17,1.6c.44,1.87.23,3.81.96,5.66.43,1.08,2.43.16,2.87.73,1.21,1.56,1.59,9.33.54,8.11Z"/>
        <path class="cls-20" d="M84.67,265.23c-.35,2.07.1,4.84-.81,6.95-4.1-.76-.93,4.22-3.06,7.1-.33.4-2.03.23-1.96,1.01.04.51-.15,1.63-.47,2.43-.51,1.3-4.89,1.38-5.14.01-.86-5.92-.14-12.1-1.99-17.42,4.37-1.18,9.08.3,13.44-.09Z"/>
        <g>
          <path class="cls-6" d="M315.61,271.72l-.06,4.41.19,33c-.18,1.71-2.68.42-4.89,1.25l-.21,25.27-5.72.45-.41,16.08c-1.54.21-3.99-.57-4.82.41-1.04,2.11.1,4.49-.5,6.75l-4.99.22-.36,8.56c-1.81.22-3.4-.31-4.7.5l-.37,9.34c-2.34-.03-4.2-.27-5.46,1.01l-.7-1.18c1.05,1.23.67-6.54-.54-8.11-.44-.57-2.44.35-2.87-.73-.73-1.84-.52-3.78-.96-5.66l-4.17-1.6-.68-7.39c-.12-1.34-2.86-.99-3.42-2.02-1.14-2.09-.85-4.41-1.23-6.7l-5.53-1.64c.8-2.4-.17-4.37-.63-7.25-.19-1.23-3.71-1.74-4-.59-.68,2.71.33,5.21.41,7.63,1.57.66,2.75.13,4.55.64-.48,2.33-.59,4.5.38,5.55-1.01-.52-.64-1.31-1.65-1.45-1.27-.18-1.66.91-2.38,1.21-2.15.18-5-1.35-6.69.22-3.43,3.16-2.9,8.27-6.6,12.28-.05-2.02-.85-1.63-2.42-1.95-1.33-.27-.46,1.05-1.45,1.95-.3-.91.14-2-.47-3l-4.36.49c-.12-.22-.37-.76-.71-.68-.37-.51.49-1.22.48-2.01l-.17-10.91c-1.87-.72-3.34-.25-4.8-.41-2.17-3.61.04-8.13-1.13-12.52-1.64-.09-3.28-.19-4.55-.09,0,2.1-.78-5.7-.93-5.75-.24-.09-.65-.12-1-.09-1.05.08-2.11-.35-3.11-.49l-.14-13.6c-1.89-.55-3.53.37-4.91-.55l-.22-15.2c-.12-8-1.05-16.1-.22-24.42l.82-8.29c9.04.28,18.15.64,27.18-.03,3.61.73,7.36.42,11.04.29.33-.01.61-.19.93.12.24.23.35.49.36.82l.33,6.29,30.61-.08c.52-2.38.41-4.68.14-6.84l11.81-.37c.56-2.09.2-3.76.41-5.53.68-.69,3.27-1.22,3.97-.35,1.15,1.44.24,3.74.65,5.56l10.56.37.31,6.8Z"/>
          <path class="cls-120" d="M252.16,320.16c.78,2.43.89,5.06.79,7.74-1.43.31-2.9.32-4.14-.02-1.09-2.82-.64-5.97-1.99-8.58-.91-.49-2.7-.49-3.31-1.05-1.03-.96-1.12-2.31-.91-4.08-.92-.99-2.03-.68-3.45-1.07-2.57-15.49-1.94-8.6-5.11-10.44-1.3-.76-1.06-4.28-.15-5.37.67-.79,3.68-.63,4.35.15,1.17,1.37-.6,5.01.82,5.46l1.81.58c.52.17,0,2.67.82,4.46.68,1.5,3.45-.41,4.92,1.37.39.47-.22,1.76,0,2.54,1.33,2.36,2.01,4.76,1.39,7.52,1.02.81,2.5.61,4.17.8Z"/>
          <path class="cls-193" d="M233.02,295.78c-.44,1.04-4.23,1.04-4.39-.06-.27-1.91-.14-3.67-1.28-5.34-.79-1.16.16-3.11-.2-4.46-.4-1.52-2.58-.42-3.45-1.24-1.52-1.44-.87-4.51-.7-6.48,1.72-.17,3.15-.43,4.41.24s-.6,4.04.88,5.87c.77.95,1.71.88,3.4.81-.36,2,.17,3.2,1.74,4.15-.45,1.89.42,4.47-.43,6.51Z"/>
          <path class="cls-115" d="M258.11,335.66l-4.42-.8c-1.34-1.5-.69-4.16-.67-6.24,1.17-.21,3.87-.95,4.71.21,1.39,1.93.44,4.58.38,6.83Z"/>
        </g>
        <g>
          <path class="cls-85" d="M336.13,271c1.13,1.6,3.21.13,4.89,1.13l-.02,23.62c-2.44.17-4.3.01-5.64.68,1.3,5.42.29,10.58.71,15.91.06.83-1.82.74-1.83,1.2l-.22,8.79-4.44.79-.33,12.67-5.24.49-.29,10.04c-2.13.27-3.78-.29-5.25.36-.41,2.86.48,6-.8,8.51-.99.51-3.22.13-3.54,1.34-.17.64-.15,1.48-.45,2.02-.23.4-1.74.34-1.79.84l-.79,8.41c-1.84.37-3.66,0-5.44.55l-.35,8.72-5.44.5c-.71,2.75.25,5.7-.69,8.33-.45,1.26-2.66.88-3.4.35l-1.29,3.34c-.41,1.08-2.54.2-3.6.92l-.51,8.37c-2,.12-3.83-.03-5.8.42l-.12,10.15c-.01,1.02-.42,3.29-1.6,3.35-2.33.11-5.01.36-7.09-.26-.86-1.15.15-2.92.21-3.7.72.04,3.07-.01,3.09-1.25l.28-20.82c-.23-.65-.54-2.49.53-2.74,1.44-.34,2.5.02,3.41-.43.37-.19.86-.32.66-.99-.06-.2-.15-.46-.52-.36.13-1.06.41-2.36-.11-3.24,1.26-1.27,3.12-1.04,5.46-1.01l.37-9.34c1.29-.81,2.88-.28,4.7-.5l.36-8.56,4.99-.22c.6-2.26-.54-4.64.5-6.75.83-.98,3.28-.2,4.82-.41l.41-16.08,5.72-.45.21-25.27c2.2-.84,4.71.45,4.89-1.25-.02-4.15,1.17,10.24,1.08,9.73,1.71-.11,3.08-.53,3.85-1.03,1.08-.7.55-2.53.79-3.94,1.36-.51,2.69.09,3.86-.72.06-1.55.55-2.74,1.26-3.15.98-.55,2.17-.24,3.74.19l-.16-13.01c-1.72-.47-3.03.26-4.68-.6,2.35-2.95,3.93-1.38,4.69-2.35,2.55-3.24.65-7.4,1.13-12.55l-6.58.34c.19-2.06.75-3.75.37-5.82-1.93-.24-4.59-.88-6.06.43-.1.97-.11,2.64-.78,3.09-.44.3-1.8.69-1.95-.06-.32-1.55.63-3.27-.73-3.57l.06-4.41c4.58-.8,9.27-.37,14.03-.41,1.7-.01,3.47-.31,4.82.81.89-.33,1.08-1.04,1.67-1.12Z"/>
          <path class="cls-72" d="M300.62,227.75c.37,1.14,1.98.57,3.38.92-.67,3.39-.65,6.69-.25,10.36l15.69-.3c.42.79,1.65.92,1.93,1.75-2.33,4.29,1.47,9.61.13,9.81-1.09-.69-1.08,3.55-1.74,3.86s-2.9-.31-3.5.44c-.11.14-.51,2.9.26,3.24-.97-.42,9.74-1.42,12.72-.57,2.1.6,3.04,2.21,5.9,1.44,1.94-.52,4.45.66,6.17-.62-.08,1.71.38,3.95-.48,5.89-.57,1.29-3.31.39-4.48.85-.36,2.12-.32,4.23-.22,6.19-.6.08-.79.79-1.67,1.12-1.35-1.12-3.12-.82-4.82-.81-4.76.04-9.45-.39-14.03.41l-.31-6.8-10.56-.37c-.42-1.82.5-4.12-.65-5.56-.7-.87-3.29-.34-3.97.35-2.42-2.15-5.42.9-5.78-2.41-.34-4.98-.77-9.94-.73-14.92.6.34.56-.53.84-1.16l4.94-.34c.49-3.49.84-7.05.61-10.64-.04-.56-1.89-.63-1.38-1.42.65-.16,1.35-.65,2.01-.69Z"/>
          <path class="cls-39" d="M354.96,223.28c.34,1.47-.06,3.15-.53,4.32-3.19-.62-9.12.53-12.2-1.01-1.12-.41-1.16,1.23-.08,1.16,1.55,9.93-.34,20.22-.85,30.32-1.73,1.28-4.23.1-6.17.62-2.85.77-3.8-.85-5.9-1.44-2.98-.85-13.69.15-12.72.57-.77-.34-.37-3.1-.26-3.24.6-.74,2.83-.13,3.5-.44s.65-4.55,1.74-3.86c.35.67-.14,1.42.31,1.96.37.46.83.65,1.5.65l12.88.05.17-23.81-11.71-.04-.1,10.95c-.91.37-2.22.56-3.18.42-.28-.83-1.51-.96-1.93-1.75-.19-.85,2.51-13.04-2.96-9.7l.65-3.06c4.56-.08.4-1.95,6.92-2.08l30.92-.61Z"/>
          <path class="cls-27" d="M275.97,408.82c-.5-5.64-.34-12.15-.15-18.05.06-1.76,2.63-2.87,3.52-4.02l-.28,20.82c-.02,1.24-2.37,1.3-3.09,1.25Z"/>
          <path class="cls-6" d="M101.64,298.19c-.22,0-.46-.11-.65-.08-.09-.36.06-.92.55-.58.11.15.16.43.1.67Z"/>
          <path class="cls-6" d="M245.15,210.86c-.14-.54.34-.68.76-.58.15.44-.32.77-.76.58Z"/>
          <path class="cls-6" d="M190.9,73.22c-.42-.02-.55-.08-1.02-.59-.19-.21-.62-.62.15-.68.08.56.98.64.87,1.26Z"/>
          <path class="cls-6" d="M332.44,114.02c-.85.24-1.7.06-2.05-.68.75.02,2-.4,2.05.68Z"/>
          <path class="cls-6" d="M314.9,219.14c-.26-.54.25-.58.64-.58.18.58-.12.84-.64.58Z"/>
          <path class="cls-6" d="M295.08,43.37c.22-.26.37-.07.6,0,.06.9-.95.98-.6,0Z"/>
          <path class="cls-6" d="M35.85,224.51c-.31.58-.54.15-.85.1-.29-.69.47-.87.99-.83.44.24,0,.43-.15.73Z"/>
          <path class="cls-6" d="M284.4,5.83c-.32-.28-.09-.43.15-.78.17-.24.05-.69.54-.37.11.27.23.64.13,1-.14.54-.42.23-.82.15Z"/>
          <path class="cls-6" d="M283.28,383.58c0-.46-.11-.94.14-1.35.37-.09.46.16.52.36.2.68-.29.81-.66.99Z"/>
          <path class="cls-6" d="M342.15,227.75c-1.07.08-1.03-1.56.08-1.16.43.42-.24.72-.08,1.16Z"/>
          <path class="cls-6" d="M207.65,86.23c-.53-.09-.53-.21-.52-.7.46-.08.61.33.52.7Z"/>
          <path class="cls-6" d="M247.71,366.76c-.22-.02-.43-.08-.63-.15.04-.8.84-.54.63.15Z"/>
          <path class="cls-41" d="M315.73,309.13l-.19-33c1.37.3.41,2.02.73,3.57.16.75,1.51.35,1.95.06.67-.45.68-2.12.78-3.09,1.47-1.32,4.14-.67,6.06-.43.38,2.06-.18,3.75-.37,5.82l6.58-.34c-.49,5.15,1.41,9.31-1.13,12.55-.76.97-2.33-.61-4.69,2.35,1.65.86,2.96.13,4.68.6l.16,13.01c-1.57-.42-2.76-.74-3.74-.19-.72.4-1.2,1.6-1.26,3.15-1.17.81-2.5.21-3.86.72-.24,1.4.29,3.23-.79,3.94-.77.5-2.14.92-3.85,1.03.09.51-1.1-13.88-1.08-9.73Z"/>
          <g>
            <path class="cls-93" d="M295.08,43.37c-.35.98.66.9.6,0,1.02.32,2.14-.23,3.43.55v5.9c.02,1.96,1.53,2.7,2.64,3.74l.58,6.32c1.14.18,3.12-.41,3.46.48,1.01,2.58.01,5.31.63,7.8,1.7.89,3.56.73,5.62.8l.32,10.35,5.52.54.51,10.49c2.09.05,3.47-.17,5.07.36l.32,7.93,5.37.49c.41,5.13-.75,10.04,1.25,14.24.35.74,1.2.92,2.05.68,0,.16.02.32.02.48l-.06,7.33c-.01,1.42-1.29,3.38-2.44,4.76-.8.96-3.78,1.14-4.6.5l-.33-11.88c-.03-1-2.07-1.45-1.39-3.24.78-2.04-.34-3.51-1.2-5.14-.42-.8.51-1.98-.46-2.32s-1.49-.73-2.76-.34c-1.73.52-1.94-1.79-1.78-3.09.29-2.39-.77-3.77-1.58-5.75l-1.7-4.18c-.14-.35-1.4-.84-1.45-1.38-.03-.4.9-.85,1.32-1.25.12-.75-.36-1.88-.77-2.65-5.49,1.36,1.39-5.18-6.76-9.23-1.84-.91-.94-4.81-1.58-6.3-.38-.87-1.5-.78-1.68-1.3-.23-.64.23-1.57-.02-2.06-.69-1.34-2.16-.68-3.17-.76-.1-1.41,0-2.88.08-4.63s-1.49-2.62-3.09-2.66c-.5-1.53-.29-2.88-1.11-4.31-1.01-1.78.41-4.39-.96-6.1-.61-.39-2.17.46-2.58-.41-1.27-2.66-.04-4.09-1.59-3.95-.49.05-1.31.43-1.34,1.29l-.3,11.81c2.19-.09,4.08-.84,4.47.68-1.5-.69-3.31.06-4.53.48-1.35-1.09-3.21-.56-5.22-.81l-.03-18.09c.57-.36.62-1.68,1.27-1.62,1.13,1.01,1.21-.06,1.44-.49.25-.47-.66-.95-.6-1.61.81-8.14.67-15.82.31-23.93-.05-1.22.76-2.57,1.19-3.42.33-.65,2.06-.15,2.88-.42,1.22-.41,1.07-2.42,3.09-2.29.17-1.93-.87-3.56-1.31-5.4.7.09,2.36-1.05,2.46.46.17,2.57.31,5.3-.42,7.62-.14.46-1.82-.13-2.08.22s-.64,1.1-.64,1.94l.07,28.91c1.36.12,2.17.01,3.31.31.02,1.33.36,2.46.25,3.58Z"/>
            <path class="cls-79" d="M310.9,108.06c-.54,2.04-1.37,5.65-.02,7.91,1.83.92,4.03.47,5.38.54,1.36,3.74-.23,7.72.46,11.99,6.44,1.32,5.33-1.47,6.27-.97,1.17.62,1.65,3.59.85,4.07-3.08,1.86-6.11-1.64-8.31,2.36-1.35,0-2.74.29-4.55,0l-.23-17.15-5.88-.06-.21-21.51-5.09-.33-.18-15.12c1.83.98,2.74.08,5.2-1.14-.6,3.9-.3,6.94.25,10.17l4.93-.58,1.15,19.81Z"/>
            <path class="cls-123" d="M335.13,157.33c.35,3.48.68,6.98.66,10.96l-.12,18.75c-.03,5.37.36,11.03-.29,16.15,0,.27,1.72.2,1.9.02.27-.27.37.71.29,1.15-1.74-.16-4.92-.94-6.21.74-.74,1,.09,3.1-.92,3.87-4.96.16-9.96.31-14.87-.03-.15-2.56-.07-5.1-.07-7.67.8.26.7-.62.89-1.55l14.62-.22c.65-15.83-.47-25.07.39-40.83.08-1.51,2.93-1.09,3.71-1.35Z"/>
            <path class="cls-142" d="M340.89,204.49c-1.09,0-2.24-.02-3.32-.12.07-.44-.02-1.42-.29-1.15-.18.18-1.91.25-1.9-.02.65-5.12.25-10.78.29-16.15l.12-18.75c.03-3.97-.31-7.48-.66-10.96-.39-3.91.66-8.61.57-12.38,1.01-.22,2.27.07,2.51-.23.16-.2.45-.48.15-.85l2.76.47-.23,60.14Z"/>
            <path class="cls-118" d="M292.13.33c.44,1.83,1.48,3.47,1.31,5.4-2.02-.14-1.88,1.87-3.09,2.29-.82.28-2.56-.22-2.88.42-.43.85-1.24,2.2-1.19,3.42.36,8.11.49,15.79-.31,23.93-.07.66.85,1.14.6,1.61-.23.43-.31,1.51-1.44.49-.65-.05-.7,1.27-1.27,1.62-.34-1.59-2.95-.34-4.22-.87-.9-3.23-.32-7.25-.57-10.52-.11-1.45.86-3.43-.2-4.62,1.34-4.32-.08-9.45.8-14.12.14-.73,1.29-1.4.75-2.41.71-.77,2.8-1.4,4-1.14.4.09.67.39.82-.15.1-.37-.02-.73-.13-1-.1-.64-.2-1.44.15-2.08-.44.81,3.52-2.7,6.9-2.26Z"/>
            <path class="cls-10" d="M337.57,204.37c1.08.1,2.23.12,3.32.12-.01,2.74,1.41,6.01-.31,8.8-.82,1.33.07,2.88-.33,4.14-.58-.47-.75.92-1.33.93l-23.38.2c-.53-1.67.22-3.48,0-5.14l14.88-.28c1.39-.03,1.54-3.93.03-4.16,1-.76.17-2.86.92-3.87,1.29-1.68,4.47-.9,6.21-.74Z"/>
            <path class="cls-146" d="M298.23,65.46c.85-.08.7.33,1.16,1.43-.25.53-1.05,1.34.05,1.25-.28,3.89-.11,7.8-.06,11.66-1.53-.82-3.57.65-5.33-.51l.09-12.55c.54-1.45,2.86-1.16,4.1-1.28Z"/>
            <path class="cls-69" d="M330.45,208.98c1.51.22,1.35,4.13-.03,4.16l-14.88.28c-.21-1.51.13-2.99.04-4.47,4.91.34,9.92.19,14.87.03Z"/>
            <path class="cls-156" d="M293.62,57.94c1.31,1.74-.13,4.74.84,6.83.82.65,3.33-.75,3.77.7-1.24.12-3.55-.17-4.1,1.28-.03-2.72-4.25-.23-4.74-2.02-.6-2.16-.02-4.3-.3-6.3,1.22-.42,3.03-1.17,4.53-.48Z"/>
            <path class="cls-40" d="M300.05,66.22c-.12.61-.57,1.26-.61,1.92-1.1.1-.3-.72-.05-1.25-.45-1.1-.31-1.51-1.16-1.43-.44-1.45-2.95-.05-3.77-.7-.97-2.09.46-5.08-.84-6.83-.38-1.52-2.27-.78-4.47-.68l.3-11.81c.02-.86.85-1.24,1.34-1.29,1.55-.14.32,1.28,1.59,3.95.41.87,1.97.02,2.58.41,1.36,1.72-.05,4.33.96,6.1.82,1.44.61,2.78,1.11,4.31,1.6.04,3.16.97,3.09,2.66s-.17,3.22-.08,4.63Z"/>
            <path class="cls-148" d="M316.25,116.51c-1.34-.08-3.54.38-5.38-.54-1.34-2.26-.52-5.87.02-7.91,1.49.3,4.59-.7,5.66.91.71,2.49.85,5.73-.31,7.54Z"/>
            <g>
              <path class="cls-52" d="M332.46,114.5c2.61-.82.18,4.32,1.49,6.99.25.5,1.54.2,1.69.66s.3.87.31,1.53l.18,20.46c1.07-.06,1.57-.37,2.22-.26.3.36.01.65-.15.85-.25.3-1.51.01-2.51.23.1,3.77-.96,8.48-.57,12.38-.78.26-3.63-.16-3.71,1.35-.87,15.76.26,25-.39,40.83l-14.62.22c-.19.94-.09,1.82-.89,1.55l.02-67.33c2.2-4,5.23-.5,8.31-2.36.8-.48.32-3.45-.85-4.07-.94-.5.17,2.29-6.27.97-.69-4.27.9-8.24-.46-11.99,1.15-1.81,1.02-5.05.31-7.54-1.07-1.62-4.17-.61-5.66-.91l-1.15-19.81-4.93.58c-.55-3.22-.85-6.27-.25-10.17-2.45,1.22-3.37,2.12-5.2,1.14-.05-3.87-.22-7.77.06-11.66.05-.66.5-1.31.61-1.92,1.01.08,2.48-.58,3.17.76.25.49-.2,1.42.02,2.06.18.52,1.3.43,1.68,1.3.65,1.48-.25,5.38,1.58,6.3,8.15,4.05,1.27,10.59,6.76,9.23.4.78.88,1.91.77,2.65-.42.4-1.35.85-1.32,1.25.04.54,1.3,1.03,1.45,1.38l1.7,4.18c.81,1.98,1.87,3.36,1.58,5.75-.16,1.31.05,3.62,1.78,3.09,1.28-.39,1.77-.02,2.76.34s.04,1.52.46,2.32c.86,1.63,1.98,3.1,1.2,5.14-.68,1.79,1.36,2.24,1.39,3.24l.33,11.88c.82.64,3.8.46,4.6-.5,1.15-1.38,2.43-3.33,2.44-4.76l.06-7.33Z"/>
              <path class="cls-150" d="M323.45,142.18c-1.76.13-3.88-.55-5.06-.89-.7-1.08.09-2.49.29-3.15.38-1.2,5.08-1.49,5.39-1.26.76.57.93,5.19-.62,5.3Z"/>
            </g>
          </g>
          <path class="cls-131" d="M324.04,223.89c-6.52.13-2.35,2-6.92,2.08l-.65,3.06c5.47-3.35,2.77,8.85,2.96,9.7l-15.69.3c-.39-3.67-.41-6.98.25-10.36-1.4-.34-3.02.22-3.38-.92.77-1.27,2.58-.09,3.75-1.2l-1.64-2.73,18.19-.1c.67,0,1.38-.88,2.06-.57.36.16,1.21-.16,1.07.74Z"/>
          <path class="cls-195" d="M323.3,252.91c-.67,0-1.13-.2-1.5-.65-.44-.55.04-1.29-.31-1.96,1.34-.2-2.46-5.52-.13-9.81.96.14,2.27-.05,3.18-.42,0,.95,1.5,1.7.36,3.14-.53.67-.53,2.78-.04,3.56,1.58.88,3.71.28,5.76-.19.83-1.33-.07-3.46,1.03-4.67.81-.89,2.75-.41,3.96-.6v11s-9.17-.03-9.17-.03l-2.1-1.1c-.41-.21-.65,1.54-1.04,1.75Z"/>
          <path class="cls-205" d="M298.61,228.44c-.5.79,1.35.86,1.38,1.42.23,3.59-.12,7.15-.61,10.64l-4.94.34c-.27.63-.23,1.5-.84,1.16,0-.48.08-1.23-.54-1.45l1.14-9.7c1.6.17,2.85-1.08,3.35-3.1.68-.16.45.96,1.05.68Z"/>
          <path class="cls-129" d="M323.3,252.91c.39-.21.63-1.97,1.04-1.75l2.1,1.1,9.17.03v-11c-1.2.2-3.15-.29-3.96.6-1.1,1.21-.21,3.34-1.03,4.67-2.04.47-4.18,1.07-5.76.19-.49-.78-.49-2.89.04-3.56,1.14-1.44-.37-2.19-.36-3.14l.1-10.95,11.71.04-.17,23.81-12.88-.05Z"/>
        </g>
        <g>
          <path class="cls-132" d="M257.54,66.25c-.56.82-3.65.87-3.97-.08-.68-1.97-.04-4.28.09-6.09,1.53-.1,2.33-.25,2.74-1.07s.14-2.03.54-2.99c.35-.86,1.64-.69,1.96-1.13,1.05-1.41-.26-5.01.99-5.51.93-.37,2.23-.46,3.02-.07,1.66.82-.14,7.5-.88,9.18-.69.75-3.25.61-3.59,1.95-.44,1.72.35,3.96-.9,5.81Z"/>
          <path class="cls-135" d="M243.19,84.93c-.58-1.27.88-2.69,1.25-3.97s-.98-2.95.2-3.94c.76-.63,1.65-1.69,3.58-1.45.84-2.89.81-8.54,4.22-7.92,1.75.32,0,3.1.33,4.52.36,1.54-3.04,2.94-3.87,4.14s-.78,10.29-5.7,8.62Z"/>
          <path class="cls-6" d="M248.42,219.25c-3.39,0-6.63-.29-9.86-.53-.05-1,.01-4.03,1.19-4.54,2.21-.95,3.77-1.29,4.88-3.31.03.82-.21,1.86-.03,2.85.12.66,1.88.74,2.23,1.33-.06.67-1.29,2.75-.34,3.23l1.93.97Z"/>
          <path class="cls-135" d="M238.56,95.15c.59,2.48-1.84,3.34-2.63,5.04l-3.81,8.15c-.41.5-.69-.07-1.09-.17.56-11.28,2.97-6.46,3.48-8.97.26-1.3.34-2.54,1.21-3.28.72-.61,1.88-.76,2.84-.77Z"/>
          <path class="cls-135" d="M242.54,85.54c.52,1.89-.64,7.83-1.02,8.12-.73.56-1.66,1.48-2.96,1.48.04.17.33-7.66,1.24-8.62.56-.59,1.83-1.12,2.74-.98Z"/>
          <path class="cls-175" d="M278.86,23.5c1.06,1.2.09,3.17.2,4.62-.96-.16-2.72.83-3.73-.09s-.23-3.13-.34-4.44c1.5-.51,2.68-.34,3.88-.09Z"/>
          <path class="cls-152" d="M267.42,39.3c3.14-1.88.18,6.86-.16,7.7-.3.73-2.74,1.56-2.81.58.39-4.31.55-6.83,2.97-8.28Z"/>
          <path class="cls-74" d="M272.76,37.71c-1.34.37-1.09.71-1.38.73-2.62.23-1.17-6.91-1.28-6.53.4-1.33,1.77-1.68,2.51-1.42,1.13.41,1.75,1.31,1.37,2.69l-1.22,4.53Z"/>
          <path class="cls-6" d="M65.24,161.61c.45,1.14-.47,2.64-1.7,2.71.26-.66-.18-1.68-.05-2.43.63.16,1.13-.68,1.75-.28Z"/>
          <path class="cls-135" d="M242.54,85.54c-.17-.63-.06-1,.65-.61.45.71-.03.88-.65.61Z"/>
          <path class="cls-161" d="M87.29,212.17c-.86.08-.15.97-.42,1.33-5.3.62-10.07-.3-14.81-.15,1.35-.92.93-4.27,2.15-4.87,2.91-1.43,5.48-6.34,4.69-9.66.7.15,1.49-.48,2.16.1.87.76-.53,4.76,1.12,7.58.78,1.33,3.41.63,4.21,1.48,1.11,1.19.33,3.09.91,4.19Z"/>
          <g>
            <path class="cls-77" d="M63.49,161.89c-.13.74.31,1.77.05,2.43-.65,1.66,1.06,2.85,1.17,4.49.19,2.83-1.11,5.49.75,7.73l-3.69.09c.22,1.21-.1,2.18-.89,2.62-2.32-.74-3.14-2.51-3.37-5.04-.15-1.58-2.75-.29-3.62-.67-1.51-.66-1.49-2.58-1.35-4.32-2.95-.3-4.66-2.44-4.7-5.5-.35-.72-1.44-1.74-2.37-2.17-.85,1-2.44,2.06-3.38,1-1.56-1.75-.85-3.98-.02-5.87.51-1.18-.25-1.9-.52-2.76,4.41-.93,3.02-8.89,3.69-11.38.28-1.05,2.57-.89,3.38-.47,2.1,1.1.48,6.35,3.38,8.04.48.28,2.08-.11,2.58.59.25.35.09.76.4,1.6,1.87.08,2.7,1.26,2.79,2.86.68.84,2.26.59,2.45,1.33.14,1.27.1,1.86.7,2.4.42.38,1.38.12,1.69.56.46.68,1,1.8.89,2.45Z"/>
            <path class="cls-65" d="M36.3,184.47c-.04.96-.81,3.12.62,3.66s3.71-.71,4.66.68c.73,1.07.36,3.06.09,4.06-1.01,3.74-4.93,1.89-10.33,2.29-2.07-2.61-2.54-1.73-5.93-1.73-2.33-3.27-6.32-5.27-9.54-7.91-1.7-1.4-2.42-3.34-4.44-4.77,8.64-.88,6.76.2,14.8-2.03,1.26-.35,2.17.89,3.95,1.55.76-1.05.04-2.18.55-3.07,1.16,1.46-.05,3.38.64,5.11.77,1.96,5.05-.56,4.93,2.15Z"/>
            <path class="cls-173" d="M68.19,204.51c-1.57.82-2.19,2.53-3.25,4.01-.99,1.39-4.48.14-5.53,1.37-3.77,4.44-7.96.27-7.54,3.67-2.08.33-4.39-.04-6.4-.06-.34-8.38,5.7-6.07,5.9-8.88.23.19,1.25.94,1.72.21,2.82-4.34,8.11-6.94,12.71-7.87.91-.66,1.7-3.53,3.43-2.1,2.28,1.89-1.39,7.3-1.04,9.65Z"/>
            <path class="cls-109" d="M35.84,163.21c1.94,8.76-.1,11.31,4.42,12.41-.56.59-1.15.56-.71,1.05-2.63.15-5.54.08-8.22-.37l-1.66-.28c-.3-.05-.78.16-.51.69h-1.17s-.74-.05-.74-.05c-1.99-2.3-2.28-5.76-2.66-8.91-2.69.53-8.37-6.31-5.17-9.48,1.38-.09,3.28.03,4.66.32.22,1.29-.41,3.8.78,4.31,3.68.9,7.44.03,10.97.31Z"/>
            <path class="cls-199" d="M45.29,186.34c-.54-.73-.97-1.67-1.92-1.93-.55-.47-.81-1.76-.63-2.41.16-.59-.03-1.32-.93-1.79-.35-.18-.3,1.36-1,.66-.11-1.84.02-3.46-1.26-4.19-.44-.49.15-.46.71-1.05-4.52-1.1-2.48-3.65-4.42-12.41-.21-.95-.44-3.26.5-3.38-.05,1.65.25,2.91,2.43,3.39-.52,1.25-1.01,2.96-.19,4,.48.61,2.76.63,2.81,1.51.22,3.58,1.16,6.51,2.92,9.34-.25,1.47.31,1.51.79-.1.18,6.57,3.07,2.86,3.97,9.83,1.09-.29,2.11.09.79.54-.16.34-.52,2.31-1.5,2.09-1.67-.38-2.1-2.79-3.08-4.1Z"/>
            <path class="cls-172" d="M46.64,198.07c-.4-.38-1.65.21-2.21.51-2.96,1.58-6.94-.61-9.9.73-1.71.77-3.25-.65-4.35-.56-4.89.4-3.49-3.5-4.77-5.31,3.39,0,3.85-.88,5.93,1.73,5.4-.4,9.32,1.45,10.33-2.29.86.85,2.13.68,3.99.49,1.06,1.61.47,3.28.99,4.69Z"/>
            <path class="cls-101" d="M39.55,176.67c1.27.73,1.15,2.35,1.26,4.19.71.71.65-.84,1-.66.9.47,1.1,1.2.93,1.79l-5.36.16c-.7.87.04,2.26-1.09,2.32.12-2.72-4.16-.2-4.93-2.15-.69-1.74.52-3.66-.64-5.11-.39-.71-.93-.53-1.55-.5-.27-.53.21-.74.51-.69l1.66.28c2.67.45,5.59.52,8.22.37Z"/>
            <path class="cls-65" d="M27.26,176.65l.74.04c.14.85-.94.78-.74-.04Z"/>
            <path class="cls-167" d="M78.9,198.82c.79,3.32-1.77,8.24-4.69,9.66-1.23.6-.81,3.95-2.15,4.87l-15.67.5c-1.51.05-3.01-.54-4.52-.3-.42-3.39,3.77.78,7.54-3.67,1.05-1.24,4.55.01,5.53-1.37,1.05-1.48,1.68-3.19,3.25-4.01.82.09,1.69.38,2.36.27,1.14-.18,1.34-1.77,1.94-2.27,1.68-1.4,2.96-2.7,3.72-4.57.91.26,1.76.69,2.68.88Z"/>
            <g>
              <path class="cls-8" d="M41.55,153.93c.27.86,1.03,1.58.52,2.76-.82,1.89-1.54,4.13.02,5.87.94,1.06,2.54,0,3.38-1,.93.42,2.02,1.45,2.37,2.17.04,3.05,1.75,5.2,4.7,5.5-.14,1.74-.15,3.66,1.35,4.32.87.38,3.47-.91,3.62.67.23,2.53,1.05,4.3,3.37,5.04-.04,1.16.25,1.84.99,2.4,2.84,2.17,3.38-2.94,3.53,11.86,3.47.2,6.77-.67,9.86.38.39,1.47.81,2.77.94,4.04-.76,1.87-2.05,3.17-3.72,4.57-.6.5-.8,2.1-1.94,2.27-.67.1-1.54-.18-2.36-.27-.35-2.34,3.32-7.75,1.04-9.65-1.72-1.43-2.52,1.44-3.43,2.1-4.6.93-9.89,3.53-12.71,7.87-.47.73-1.49-.02-1.72-.21-.32-1.34.23-3.13-.34-4.73-.63-1.76-3.2-.7-4.38-1.82-.53-1.42.07-3.08-.99-4.69-1.86.19-3.13.36-3.99-.49.27-1,.65-3-.09-4.06-.96-1.39-3.18-.12-4.66-.68s-.66-2.7-.62-3.66c1.13-.06.39-1.45,1.09-2.32l5.36-.16c-.18.65.08,1.94.63,2.41-.5.84-1.09,2.38-.21,2.94.83-.16,1.46-1.21,2.12-1.01.98,1.31,1.41,3.72,3.08,4.1.98.22,1.33-1.75,1.5-2.09,1.32-.45.3-.83-.79-.54-.9-6.96-3.79-3.26-3.97-9.83-.48,1.61-1.04,1.57-.79.1-1.76-2.83-2.7-5.76-2.92-9.34-.05-.88-2.33-.89-2.81-1.51-.82-1.05-.33-2.75.19-4-2.19-.48-2.48-1.73-2.43-3.39.02-.64.04-1.55-.24-2.02-.67-1.15-3.52-.06-4.61-1.19.69.72-2.33-9.56-.61-9.2.99-.97,4.79-.69,5.34.61.47,1.1-.34,2.67.41,3.38,1.34,1.28,4.15-.2,4.33,1.49.04.36.41.48.58,1.03Z"/>
              <path class="cls-37" d="M63.74,194.38c-1.52,1.13-3.29-.08-4.39.42-.87.39.08,2.9-.87,3.8,0,0-4.24,1-5.31.38-.78-.45-2.04-3.98-.75-5.32.59-.61,2.2.33,2.68-.11,2.55-2.3-.35-5.47-.88-7.76-.43-1.91-1.21-2.79-1.89-4.14-1-1.97-.67-4.54-2.83-5.96.35-1.14-.76-1.86-.26-2.15.71-.42,2.6-.53,2.72.56.14,1.23-.41,2.08.37,3.08.58.74,1.87.88,2.85,1.4,1,.9.02,2.87.93,3.89,1.46.07,3.56-.64,4.27.39.91,1.32-.08,3.23.4,4.88l3.01,1.04c-.55,2.14-.08,3.83-.07,5.6Z"/>
              <path class="cls-174" d="M45.29,186.34c-.67-.2-1.3.85-2.12,1.01-.88-.56-.29-2.11.21-2.94.94.26,1.37,1.21,1.92,1.93Z"/>
              <path class="cls-147" d="M47.49,169.04c.39-.44,1.02-.08,1.14.17.1.22,0,.57,0,1.27,0,.33-.33.46-.67.05-.37-.44-1.04-.85-.47-1.49Z"/>
            </g>
          </g>
          <path class="cls-168" d="M132.65,211.5c-.31.37.25.72.27.93-1.24.26-1.66,3.53-.56,3.56,2.95.08,5.17-.05,7.2,1.19,1.21-1.47,2.05-2.19,3.23-1.9,3.64.91,6.8,5.59,5.54,7.25-4.61.36-9.27.05-14.34.02-1.29,0-1.04-1.81-1.64-2.1-1.47-.7-3.02-.72-4.27-1.02.55-1.1,1.77-1.18,1.75-2.2-.01-.87-1.03-2.24-.88-2.95.22-1,.31-2.28.98-2.6.79-.36,2.09-.38,2.72-.19Z"/>
          <g>
            <path class="cls-36" d="M173.34,55.7l-.61,8.79c-.94.97-2.86.32-3.34,1.29-.64,1.85-1.65,1.58-3.3,2.26-1.35.56-.8,3.42-.56,4.77l21.44.57c-.37,2.22-1.22,4.53.5,5.71.88.6,2.36-.18,2.87.24.26,2.85-.15,5.79.49,8.74,10.48.55,2.11,3.8,9.79,2.65,1.03,2.29.32,4.58.77,7.64,2.33-.32,4.39.55,6.19.64-1.42,7.99.89,18.48-.11,27.55-2.53.73-4.9.55-7.37.11l-.16-8.95c-2.76-.78-5.76-.83-8.91-.17-.7,7.04-.45,13.76-.18,20.48.08,1.9-.24,3.87-.58,5.72l-13,.19c-1.21.02-1.96-.31-2.7-.84.98-2.16-.35-4.06-.86-6.21-1.07-4.51-.12-9.84-.98-14.62-.19-1.07-3.77-1.29-4.15-.29-1.13,2.96-1.46,11.13.86,5.56.21,1.86,1.15,12.17.66,13.2-.43.91-3.78-.04-4.44.66-.3.32-.4.88-.49,2.19l-20.81.62c-.28-.05-.7-.25-.81-.48l-.12-10.87c-3.62-.31-6.85.49-10.04-.13-.35-1.63.75-8.22-.55-9.27-1.05-.85-2.7-.15-4.01-.29l-.57,8.59c-10.28,2.94-10.3-1.4-10.71,4.68-.14,2.05-2.61.92-3.68,1.62-1.73,1.13-.68,4.01-.66,5.67l-10.94.29v64.76c4.34.69,8.04.56,11.69.26.94-.08,2.32,1.22,3.23-.11-.02.67-.44,1.29-.07,1.9-2.28.86-4.56.64-6.95.91-.54.06-1.03-.1-1.42.07-.65.28-.34,1.39-.67,1.62-2.26,1.57-4.87.61-7.21-.19-1.23-.42-4.19.65-4.68-1.1-1.25-4.51-.95-9.41-1.02-14.07-.09-5.39-3.29-.55-2.41-8.33,1.34-1.9,3.44-5.31,1.72-7.87-1.46-2.18-4.9.15-6.23,1.31-1.52,1.33-4.3.56-5.76-.12,1.27-1.76-1.24-2.74-1.24-3.94l.15-60.56c0-2.37.4-3.29,2.59-4.4.49-.25.06-1.82.44-2.18.57-.54,1.5-.55,2.75-.55l1.07-13.26c1.61-.16,3.33.12,4.22-.58.29-2.73.43-5.43.08-7.94.59.04,1.35-.14,1.41-.82,2.14.29,5.36,1.17,7.54-.47,1.01-.76-.23-3.99,1.76-4.55l4.49-1.25c1.79-.5,2.85-1.39,3.66-3.01,6.36-.49,13.46-.14,19.92,0,2.58.06,4.81.47,7.07-.56l.15-5.21c4.72-.55,10.21-1.17,15.36-.9l.76-4.91c.39-2.52,2.6,2.16,5.68-6.48l9.43-4.04c1.7-.73,1.8-1.92,3.57-1.76Z"/>
            <path class="cls-14" d="M190.03,71.95c-.78.06-.35.47-.15.68.46.51.6.56,1.02.59,1.48.09,3.04-.17,4.67.39-.06,1.13-.06,1.83.29,2.18.8.8,2.68-.33,3.58.99.24.35.4.86.32,1.65-.38,3.63,5.44,1.69,6.79,3.09.95.99.61,2.98.58,4.02-.02.5-.02.61.52.7.81.13,1.68.35,2.31.38,1.29.06.6,1.85,1.3,2.27,1.49.88,3.21.02,4.89.52l1,5.33c1.06.71,2.67.24,3.65,1.06.91.76.06,2.51.78,3.62l4.71.37.53,8.43c1.73.29,2.98-.34,4.23-.04.39.1.68.66,1.09.17l.39,13.82,5.28.58-.12,42.32c0,2.27-7.07,7.75-10.11,6.4-.26,5.8-.14,11.12-.02,16.87.02,1.02.84,1.97.94,2.8.11.93,2.22-.03,2.63.83,1.14,2.36,4.56,6.56,6.77,7.58,1.18.54,1.04,2.3,1.71,2.54l7.29,2.61c1.37.49.99,5.53-.97,5.61-.42-.11-.9.04-.76.58-.16-.07-.35,0-.52,0-1.11,2.02-2.67,2.36-4.88,3.31-1.17.51-1.24,3.54-1.19,4.54-7.95-.6-19.79.61-28.28.59.21-.68-.72-.72-1.3-.65-1.61.21-2.39.22-2.95-1.42-.35-1.02.44-1.02,1.06-2.26,1.04-2.07,2.12-2.28,4.53-2.31,1.47-.02,1.07-2.78,1.68-3.52.8-.96,2.74-.53,3.14-1.47.56-1.33,1.54-2.28.72-4.15-2.57,1.82-5.18,1.61-8.23,1.51-1.23-.04-1.5,2.82-2.34,3.37-1.62,1.05-3.65.2-5.41.94-.64,1.06-.24,2.7-.84,4.05l-8.96.66c-.41-.82-1.43-1.25-1.33-2.28.22-.1.45-.24.69-.32l1.99-.62,4.84-.63c.49-1.37-.21-3.02.41-4.39.7-1.55,3.32-.05,4.42-.74,1.56-.98.13-3.81,1.02-4.85.66-.28,2.21-.87,2.94-.94,1.06-.1,2.27.6,3.82-.18v-48.76s-3.09-.39-3.09-.39c-.4-1.75.56-4.14-.85-5.57-1.15-1.17-3.64-.24-5.03-.6l.68-5.1c2.9-.51,5.83.56,8.36-.61,1.34,1.2.61,3.24,1.34,4.99.49,1.17,4.04.87,5.19-.02v-31.01c.01-3.18-.38-6.52-.27-9.74.02-.58-1.47-1.8-1.08-2.8-2.12-1.45-5.48-.38-7.87-.5-1.8-.09-3.86-.96-6.19-.64-.45-3.07.26-5.35-.77-7.64.33-1.78.81-4.09.28-6.18-1.77,0-2.86.48-4.17.16l-.18-4.45c-6.52-4.11-4.82.22-6.21-.94-.51-.42-1.99.36-2.87-.24-1.72-1.17-.87-3.49-.5-5.71l-21.44-.57c-.24-1.35-.79-4.22.56-4.77,1.65-.68,2.66-.41,3.3-2.26.48-.97,2.4-.32,3.34-1.29l.61-8.79c1.08.1,2.91-1.27,4.44-.34,1.72,5.82-2.55,5.45-1.36,12.73,3.06.68,15.22.37,13.6,3.87Z"/>
            <path class="cls-102" d="M92.52,89.66c.35,2.52.21,5.21-.08,7.94-.88.7-2.6.42-4.22.58l-1.07,13.26c-1.26,0-2.19,0-2.75.55-.38.36.05,1.93-.44,2.18-2.19,1.11-2.59,2.03-2.59,4.4l-.15,60.56c0,1.2,2.51,2.18,1.24,3.94-1.09,1.51-1.04,3.98-.89,5.95l11.16.73c-.88,7.78,2.32,2.94,2.41,8.33.08,4.66-.22,9.56,1.02,14.07.48,1.75,3.45.68,4.68,1.1,2.34.79,4.96,1.76,7.21.19.33-.23.01-1.33.67-1.62.39-.17.88,0,1.42-.07.47,3.49,5.93.45,7.38,2.68.76,1.16-.44,3.09-.21,4.3-8.22,1.96-17.11-.27-25.29-.12.28-1.06.32-2.37.2-3.7-.22-2.43-4.53-.2-4.93-2.71-.58-1.11.2-3-.91-4.19-.79-.85-3.43-.15-4.21-1.48-1.65-2.82-.25-6.82-1.12-7.58-.67-.58-1.46.05-2.16-.1-.93-.2-1.78-.62-2.68-.88-.13-1.26-.55-2.57-.94-4.04-3.09-1.05-6.39-.18-9.86-.38-.16-14.81-.69-9.69-3.53-11.86-.74-.56-1.03-1.24-.99-2.4.79-.44,1.11-1.41.89-2.62l3.69-.09c-1.86-2.24-.56-4.91-.75-7.73-.11-1.64-1.82-2.83-1.17-4.49,1.23-.07,2.15-1.57,1.7-2.71-.38-.97.25-1.97.26-3.14l.29-32.9c.02-2.3,3.45-5.84,4.55-6.65,5.5-4.04,1.44-4.57,3.84-8.05.79-1.14,3.48,0,3.99-.87,2.82-4.81-.52-9.43,2.27-10.66,1.95-.86,4.52-1.11,7.14-1.74,1.82-.44-1.51-7.37,4.32-8,.16.3.43.04.61.06Z"/>
            <path class="cls-139" d="M124.99,51.33c.31,2.26-.79,5.22.38,7.33,2.59,1.87,1.54,1.55,2.31,5.81.05.3,6.57,2.23,7.34,1.43.46-1.45.17-3.14.14-4.39,7.41-.47,17.82-.62,25.18-.01-3.08,8.64-5.29,3.96-5.68,6.48l-.76,4.91c-5.16-.27-10.64.35-15.36.9-6.68-2.25-20.37.32-25.62-1.33.68-1.27,1.01-3.23,2.92-3.34l6.58-.38c.27-6.14-4.62-15.22-1.2-17.53,1.35-.91,2.62-.06,3.76.13Z"/>
            <path class="cls-3" d="M138.54,73.78l-.15,5.21c-2.27,1.04-4.5.62-7.07.56-6.46-.14-13.56-.49-19.92,0-.82,1.62-1.87,2.51-3.66,3.01l-4.49,1.25c-1.98.55-.75,3.79-1.76,4.55-2.19,1.64-5.4.76-7.54.47.3-.45-.13-.9-.02-1.37.49-4.05,4.94-2.39,6.39-3.89.9-.93.87-3.16,2.61-3.17.44,0,1.22.12,1.28-.37.07-.6.02-1.1.11-1.61.25-1.45.18-2.57.81-3.35.79-.97,6.03-1.22,7.79-2.62,5.25,1.65,18.95-.92,25.62,1.33Z"/>
            <path class="cls-127" d="M135.17,61.51c.03,1.25.32,2.93-.14,4.39-.78.8-7.29-1.13-7.34-1.43-.77-4.26.28-3.95-2.31-5.81-1.18-2.11-.08-5.07-.38-7.33,1.37.24,2.52,1,3.09,2.56.71,1.96,4.49,2.09,7.08,7.62Z"/>
            <path class="cls-6" d="M93.94,88.83c-.06.68-.82.87-1.41.82-.19-.01-.46.24-.61-.06-.15-1.17,1.55-1.54,2.01-2.13-.11.47.32.91.02,1.37Z"/>
            <path class="cls-6" d="M102.93,80.4c.44-.62.43-1.89,1.39-1.98-.09.5-.04,1.01-.11,1.61-.06.5-.84.37-1.28.37Z"/>
            <path class="cls-207" d="M133.37,132.71c3.19.62,6.41-.18,10.04.13l.12,10.87c-1.05.66-3.48-.62-4.37.34-1.6,1.71.31,4.09-.14,6.27l-8.13,1.18c-8.2-2.12-17.05-.81-26.03-.86l-.39,9.45c-.54,12.99-.4,25.97-.11,39.26.71,1.07,3.17.53,4.24.38s2.52.08,4.12.21c.05,2.45-.51,4.21.57,5.83.55.82-.28,2.47.64,3.26-3.64.3-7.35.43-11.69-.26v-64.76s10.94-.29,10.94-.29l14.91.02c.86-2.02-.33-4.04.68-5.91.83-1.54-.28-3.05.35-4.88,1.45,0,3.08-.46,4.25-.23Z"/>
            <path class="cls-169" d="M210.26,138.08l-.35-4.99c-5.63-.22-10.57-.3-15.74-.14-1.56.05-.43,5.67-3.33,5.07-.27-6.71-.52-13.44.18-20.48,3.15-.66,6.15-.61,8.91.17l.16,8.95c2.47.44,4.84.62,7.37-.11,1-9.07-1.31-19.56.11-27.55,2.39.12,5.75-.94,7.87.5-.39.99,1.1,2.22,1.08,2.8-.11,3.22.28,6.55.28,9.74v31.01c-1.16.89-4.71,1.19-5.2.02-.73-1.75,0-3.79-1.34-4.99Z"/>
            <path class="cls-176" d="M174.56,143.08c-1.92,1.3-4.77-.28-6.96.94-1.79,1-2.19,4.54-2.05,6.31-1.64-.65-2,8.24-2.09,6.51.02.44,1.3.41,1.59.47-1.9,2.18-5.03.92-7.91.65-4.06-10.59-3.81-5.04-11.44-8.68-.65-1.63-.53-3.63-1.35-5.08l20.81-.62c.1-1.31.19-1.86.49-2.19.66-.7,4.01.25,4.44-.66.49-1.03-.45-11.34-.66-13.2-2.32,5.57-1.99-2.6-.86-5.56.38-1,3.96-.78,4.15.29.86,4.78-.09,10.1.98,14.62.51,2.15,1.84,4.05.86,6.21Z"/>
            <path class="cls-164" d="M174.56,143.08c.74.53,1.5.86,2.7.84l13-.19c3.43-.05,7-.07,10.32.51-.23,1.79-.74,3.08.07,5.86l-9,.82c-2.77.25-5.9.47-8.67.03-5.78-.94-11.6-.27-17.43-.63-.14-1.77.26-5.31,2.05-6.31,2.18-1.22,5.04.36,6.96-.94Z"/>
            <path class="cls-29" d="M133.37,132.71c-1.17-.23-2.8.24-4.25.23-.63,1.83.48,3.34-.35,4.88-1.01,1.87.17,3.89-.68,5.91l-14.91-.02c-.02-1.67-1.08-4.54.66-5.67,1.07-.7,3.54.43,3.68-1.62.42-6.08.44-1.74,10.71-4.68l.57-8.59c1.31.13,2.96-.57,4.01.29,1.3,1.05.2,7.64.55,9.27Z"/>
            <path class="cls-18" d="M210.26,138.08c-2.52,1.17-5.46.09-8.36.61l-.68,5.1c-.13.19-.34.49-.64.46-3.32-.58-6.89-.56-10.32-.51.34-1.85.65-3.83.58-5.72,2.9.6,1.77-5.03,3.33-5.07,5.18-.16,10.11-.07,15.74.14l.35,4.99Z"/>
            <path class="cls-19" d="M117.09,210.82c1.18-.27,3.06.23,4.61.2s.5,2.59,1.17,3.12c1.53,1.19,4.62.91,6.07.15-.15.7.87,2.08.88,2.95.01,1.02-1.21,1.11-1.75,2.2-1.32-.31-3.12.09-3.96,1.13.49-2.37-9.21-1.29-6.8-1.87-.23-1.21.96-3.14.21-4.3-1.45-2.23-6.9.82-7.38-2.68,2.39-.27,4.67-.05,6.95-.91Z"/>
            <path class="cls-171" d="M200.61,90.72c-7.68,1.14.69-2.1-9.79-2.65-.64-2.95-.22-5.89-.49-8.74,1.39,1.16-.31-3.17,6.21.94l.18,4.45c1.31.32,2.4-.16,4.17-.16.52,2.09.04,4.4-.28,6.18Z"/>
            <path class="cls-70" d="M92.73,189.73l-11.16-.73c-.15-1.97-.2-4.44.89-5.95,1.46.68,4.24,1.45,5.76.12,1.33-1.16,4.77-3.48,6.23-1.31,1.72,2.56-.38,5.97-1.72,7.87Z"/>
            <path class="cls-38" d="M210.29,219.3c-8.41-.03-16.92.57-25.21-.54.94-3.75,6.02-1,6.31-4.72l8.96-.66c.6-1.34.2-2.98.84-4.05,1.75-.74,3.79.11,5.41-.94.84-.55,1.11-3.41,2.34-3.37,3.05.1,5.66.31,8.23-1.51.82,1.87-.15,2.82-.72,4.15-.4.94-2.34.51-3.14,1.47-.61.74-.21,3.5-1.68,3.52-2.42.03-3.49.24-4.53,2.31-.62,1.23-1.41,1.24-1.06,2.26.56,1.64,1.34,1.63,2.95,1.42.58-.07,1.51-.03,1.3.65Z"/>
            <g>
              <path class="cls-44" d="M143.53,143.72c.11.22.53.43.81.48.82,1.44.7,3.45,1.35,5.08,7.64,3.64,7.38-1.91,11.44,8.68-1.56-.15-4.45.68-5.86-.51-3.17-2.69-6.23-2.79-10.31-.49-.71.4-2.84-.77-2.59.83-4.4-1.91-9.56.05-14.05-.49-5.38-.65-10.86-1.1-16.77-.58l-.06,36.11c0-1.47.63,9.36,1.09,6.92-1.07.15-3.52.69-4.24-.38-.29-13.3-.43-26.28.11-39.26l.39-9.45c8.98.06,17.83-1.26,26.03.86.37,1.93,1.3,3.12,3.74,3.11l5.89-.03c.94,0,.66-2.22.52-3.16-.09-.61-1.65-.22-2.02-1.1.45-2.18-1.45-4.56.14-6.27.89-.96,3.33.32,4.37-.34Z"/>
              <path class="cls-61" d="M206.37,199.28l-.23-15.83c-1.84,2.04-2.42,4.12-4.81,4.82-.52,1.82.08,4.01-1.28,5.35-.51.5-2.26-.26-2.69.88-1.09,2.84.31,3.53-2.12,4.76-.78.84-.2,2.47-.54,3.7-2.42-.86-2.69,7.25-1.95,7.88l-1.99.62c-.57-3.38-.92-7.48,0-11.02.22-.84,2.8-1.22,1.84-3.01-.4-.74.2-1.58.49-2.1.59-1.03,2.08-.85,2.87-1.29.94-.53.73-2.14.76-3.12.1-2.73,2.13-4.3,4.6-4.36,0-7.88,2.82-5.41,2.05-8.02-.24-.8.2-1.67.41-2.11s2.41-.08,2.47-.58c.79-6.08.18-12.29.23-18.9-3.95-.79-7.73-.84-11.21.22-2.4.62-5.78-.98-8.29.07-.15-1.03-1.44-.09-2.02-1.23,1.38-1.33,3-.63,4.39-.97,1.86-.46,2.81-2.68,2.31-4.1l9-.82c-.81-2.78-.29-4.07-.07-5.86.3.02.51-.27.64-.46,1.39.36,3.87-.57,5.03.6,1.41,1.43.45,3.82.85,5.57l3.1.39v48.76c-1.56.78-2.78.08-3.83.18Z"/>
              <path class="cls-83" d="M206.37,199.28c-.74.07-2.29.66-2.94.94-.89,1.04.54,3.87-1.02,4.85-1.1.69-3.72-.81-4.42.74-.62,1.37.08,3.02-.41,4.39l-4.84.63c-.73-.64-.46-8.74,1.95-7.88.34-1.23-.24-2.86.54-3.7,2.43-1.23,1.03-1.92,2.12-4.76.44-1.13,2.18-.38,2.69-.88,1.36-1.33.77-3.53,1.28-5.35,2.39-.7,2.97-2.78,4.81-4.82l.23,15.83Z"/>
              <path class="cls-75" d="M190.05,211.76c-.1,1.03.92,1.46,1.33,2.28-.28,3.72-5.36.97-6.31,4.72-1.11-.15-3.15-.01-4.45.02.48-3.72,3.12-2.56,4.79-3.95.57-.48.25-2.09.8-2.46,1.28-.86,2.8-.16,3.83-.61Z"/>
              <path class="cls-206" d="M138.39,157.77l-.09,23.73-13.74-.03-.23-24.2c4.49.54,9.65-1.42,14.05.49Z"/>
              <path class="cls-55" d="M195.25,157.16c-.34,1.15-.38,2.5-.4,4l-.35,20.34-12.92-.06.11-19.7c0-1.19,3.15,0,4.14-1.9.25-.48.05-1.07-.14-1.43.03-.6.8-.99,1.26-1.18,2.51-1.05,5.89.55,8.29-.07Z"/>
              <path class="cls-189" d="M182.98,150.96c-1.8,2.89,1.9,4.26-.57,6.92-2.03-1.66-13.98-.47-17.36-.57-.29-.05-1.56-.02-1.59-.47.09,1.73.45-7.15,2.09-6.51,5.83.36,11.65-.31,17.43.63Z"/>
              <g>
                <path class="cls-15" d="M157.14,157.95c2.88.27,6.02,1.53,7.91-.65,3.37.1,15.33-1.09,17.36.57,1.06.87,2.13.16,3.29.54.19.36.39.94.14,1.43-1,1.9-4.14.71-4.14,1.9l-.11,19.7,12.92.06.35-20.34c.03-1.5.06-2.85.4-4,3.47-1.06,7.25-1,11.21-.22-.05,6.61.56,12.81-.23,18.9-.06.5-2.26.13-2.47.58s-.64,1.31-.41,2.11c.77,2.6-2.06.13-2.05,8.02-2.47.06-4.49,1.63-4.6,4.36-.04.98.18,2.59-.76,3.12-.79.45-2.29.26-2.87,1.29-.29.51-.89,1.36-.49,2.1.96,1.79-1.62,2.17-1.84,3.01-.91,3.54-.56,7.64,0,11.02-.25.08-.47.22-.69.32-1.03.45-2.56-.25-3.83.61-.55.37-.23,1.98-.8,2.46-1.67,1.39-4.31.23-4.79,3.95l-9.14.22-17.99-.22c-2.54-.03-2.71-1.94-4.3-3.02s-2.03-1.9-2.97-3.67c-6.04-2.05-5.93,1.73-13.57-.59-.64-.19-1.94-.17-2.72.19-.67.31-.76,1.6-.98,2.6-1.45.76-4.54,1.04-6.07-.15-.68-.53.44-3.15-1.17-3.12s-3.43-.47-4.61-.2c-.37-.61.04-1.23.07-1.9.03-.99.36-2.42-.66-2.84-1.07-.45-2.24-.54-3.21-.31-1.08-1.62-.53-3.38-.57-5.83-1.61-.13-3.08-.36-4.12-.21-.47,2.44-1.09-8.4-1.09-6.92l.06-36.11c5.91-.52,11.39-.07,16.77.58l.23,24.2,13.74.03.09-23.73c-.26-1.6,1.87-.43,2.59-.83,4.08-2.3,7.14-2.2,10.31.49,1.4,1.19,4.3.36,5.86.51Z"/>
                <path class="cls-54" d="M117.16,208.92c-.91,1.33-2.28.03-3.23.11-.92-.79-.09-2.45-.64-3.26.97-.22,2.14-.14,3.21.31s.69,1.85.66,2.84Z"/>
                <path class="cls-34" d="M172.86,197.63l-22.09.12c-.57-1.53-.42-3.19.02-5.11l21.93-.11c.86,1.52.63,3.26.14,5.1Z"/>
              </g>
              <path class="cls-149" d="M191.65,150.93c.5,1.42-.45,3.64-2.31,4.1-1.4.34-3.01-.36-4.39.97.58,1.14,1.87.2,2.02,1.23-.47.19-1.23.59-1.26,1.18-1.16-.38-2.23.33-3.29-.54,2.47-2.66-1.23-4.03.57-6.92,2.76.45,5.89.23,8.67-.03Z"/>
              <path class="cls-100" d="M130.88,151.5l8.13-1.18c.37.88,1.93.49,2.02,1.1.14.94.43,3.16-.52,3.16l-5.89.03c-2.44.01-3.37-1.18-3.74-3.11Z"/>
            </g>
          </g>
        </g>
        <g>
          <path class="cls-178" d="M211.67,297.26c1.67.09,3.38-.08,5.04.12l.22,15.2c.03,2.33-1.22,6.02-1.15,8.36-2.3,2.8-7.03,1.2-9.95,1.35-5.69.29-10.67,1.16-16.3.57-1.44-.15-2.89.73-4.4.73.07,1.8-.11,3.39.34,5.18,1.46-.1,3.43-.62,4.03.4.85,1.45.7,3.05.91,4.43,10.53.05,4.12.87,5.9,1.43.28.09.66.15,1.04.02.02.69-.51,2.05.44,2.66s2.51.68,3.46.5l.06,5.72c2.08.64,3.81.05,5.54,0,.21.43-.12.99.14,1.65.21.53,8.28-.05,8.8.44,1.48,1.41-.06,5.14.79,7.34,1.6.67,3.17.29,5.27.73-.31,1.84-.65,3.38-.26,5.29,1.28.52,2.99-.61,4.18.18,1.77,1.18-.91,6.52,2.56,5.49.95-.28,1.77-.16,2.36.36.45.4.35,1.29.31,1.9-.1,1.51.42,3.62,1.45,5.14.75.6,2.93-.11,3.75,1.42s.07,3.52.92,4.93,4.76,1.4,5.24-.32c1.17-4.27-.64-8.37,1.36-11.74,1.09-.22,2.26-.3,3.37-.13.2.08.41.13.63.15,1.09,4.96.28,10.77.52,15.82-1.31.57-1.51,1.58-1.75,2.91-.21,1.14-2.13.77-2.95.9-.74.98-.38,2.03-.75,3.18-1.94.29-3.7.21-5.36-.23.01-1.01.99-2.73,0-3.8s-3.01-.45-4.36-.88c-.89-1.74.02-3.83-1.06-5.42-.84-1.23-2.92-.68-4.39-.8-.73-1.78-.37-3.6-.62-5.33l-.8-5.6c-2.38-1.7-5.19-1.33-8.14-1.45-1.18-2.1-.37-4.44-1.17-6.51l-4.28-.38-.45-4.88c-.14-1.54-3.34-.74-4.9-1.37-.05-2.25-.74-3.73-3-4-6.45-.75-3.57-2.14-7.62-3.54,1.36-1.68-4.82-4.5-5.7-4.51.13-1.28-.41-2.58-.52-4.27-2.94.37-4.27-1.62-5.13-3.62-3.45-.84-7.75-.84-11.11-.59l.36-3.17.3-25.08c6.95-3.57,2.63-1.19,3.52-3.07.11-.23.5-.35.83-.29.68,2.36.26,4.67-1.11,6.96,3.15,2.03,12.61.17,17.36,1.34.75.82.45,2.96-.33,3.81-5,.44-10.62-.46-15.8.55-.99.77-.82,3.21-.68,4.71l22.07-.17.42-9.37,9.84-.81c1.55-.13,1.26-3.97.68-5.17-1.86.16-3.34-.15-4.7.1-.37-1.71-.34-3.52-.04-5.23,1.58-.03,3.16-.32,4.76-.23Z"/>
          <path class="cls-9" d="M134.26,398.53l.27,23.75c-1.68-.18-3.43-.43-5.54-.35-.65,2.83-.27,5.37-.24,8.14l5.87.75c-.23,3.08.1,5.92-.5,8.58l-18.98.35-19.46-.14c-1.52.47-.52,3.25-1.21,3.97-.56.58-.59.9-.6,2l-5.02-2.02c-.6-1.26.09-3.26-.95-4.27-1.1-1.06-2.96-.14-4.37-.94.1-4.99-.32-9.75.25-14.86.11-1.01,1.97-.56,2.47-.92,1.71,1.47-1.02,4.51,2.42,5.43.67.18,1.02.25,1.17.66.28.77.31,1.92.07,3.03,8.49.8,5.43,2.35,10.83,2.69,1.48.09,2.02-.48,3.18-1.46.39-.33,5.56.1,5.9-.22.69-.63.64-1.64.61-2.56l7.79-1.07c.57-.39,0-2.04.5-2.61.4-.47,1.48-.35,2.21-.77.93-.54,1.32-3.39.37-4.1-1.81-1.36-4.03-.98-6.07-1.17l-1.57-.15c-.38-.03-.39-.71-.47-1.21.39-.67-.31-1.88.01-2.66,2.14-5.16,9.24-3.2,10.12-4.47.37-.53.96-6.79-.3-8.96-.47-.82-.08-3.46.85-3.64,1.41-.27,3.28-1.04,4.4-1l5.99.21Z"/>
          <path class="cls-4" d="M226.99,373.11c.25,1.73-.11,3.54.62,5.33,1.46.12,3.55-.43,4.39.8,1.08,1.59.17,3.68,1.06,5.42,1.35.43,3.42-.14,4.36.88.99,1.07.02,2.8,0,3.8-.2-.05-.51-.05-.69-.02-.57.1-1.81-.75-2.74-.23-1.73.96-.7,16.55-.24,19.7.38,2.59,4.87,3.8,4.24,4.39-.55,1.89-.52,3.91-.66,5.84-.59.83-.78,2.31-1.28,3.35-2.63.16-5.31.14-8.15-1.06,1.52-2.35,4.94-1.2,4.39-3.99-.48-2.39-14.6-.62-14.4-.59l-3.76-.54c-.05-2-.86.07-3.08-1.9,1.27-.44,3.17-.1,4.41-1.15l6.27-5.32c1.36-1.15,5.32-1.64,5.28-4.26l-.34-20.79-15.73.04c-1.02,1.25-2.38,3-4.19,3.06l-.47,23.32-2.4,1.52c-.53-2.7-1.3-2.25-3.87-2.98l-.58-22.25.69-8.22c.07-.8-1.27-1.54-1.11-2.47.1-.62.11-1.8,1.47-1.73,2.68.14,5.17-.24,7.8-.2l18.71.27Z"/>
          <path class="cls-203" d="M86.01,329.28c-1.57,2.31.77,4.63,1.03,7.09l.75,7.07c.19,1.76-.86,3.82-.31,5.57-1.64.93-2.83.65-4.36,1.2.19,5.6.2,10.88-.26,16.38-1.31,1.13-2.81.92-4.42,1.58l-1.02,8.44c-.32,2.7-1.56,4.53-3.34,6.63-1.64,1.94-.88,5.18-2.17,7.44-2.83.64-6.05.68-8.66-.08-.28-4.31.78-8.46,1.84-12.91,1.12-4.71,1.76,1.29,3.47-7.59,1.45-7.55,2.66,3.43,5.33-14.08,1.11-7.27,4.41.67,4.24-14.82,1.59-.66,3.34-.43,5.23-.76.72-1.79-.58-11.54,1.14-11.34l1.51.17Z"/>
          <path class="cls-166" d="M231.64,444.84c.02-.62.2-1.16-.13-1.91-.31-.7.6-2.33-.14-3.16l-41.1-.52.39-8.78c3.86-.34,7.04.11,10.34.11.59,0,.59.97,1.02,1.11,1.7.57,3.72.77,4.1,2.94,4.7-.98,5.28-.13,6.1-2.81.27-.88,1.84-.11,2.51-.36,3.9-1.47,7.17-.18,11.06,1.16,2.21.76,5.62-1.98,6.39-3.67s2.69-.72,4.08-1.57c1.55-.95,1.44-4.34-.22-5.01.51-1.04.69-2.51,1.28-3.35.26.74.15,1.59.27,2.53l4.13.84.1,16.12-4.77.79c-.75,1.39-.14,3.49-1.17,4.46l-4.25,1.09Z"/>
          <path class="cls-86" d="M128.92,253.05c.12,1.81.24,3.69-.19,5.46-.74-.3-1.25.2-1.99.16-3.1-.57-6.08-.61-9.33.3.72,3.09.3,5.91.47,8.78-2.37-.26-5.22,12.23-4.7,8.45-1.87.51-3.83.03-5.95.32-.41,2.95-.13,5.55-.09,8.12.06,4.24-.66,8.56.17,12.72-1.31-.26-3.39-.24-4.38.78-.43-.04-.86.05-1.29.07.06-.24.01-.52-.1-.67l-1.37-1.87.16-30.42c4.03.35,8.45-1.24,12.9-.35-.02-2.99.49-4.76.18-6.97,1.22,0,4.11.74,4.4-.39l1.26-4.97c1.87.52,4.5.64,4.56-1.41,2.11-.77,3.46,1,5.3,1.9Z"/>
          <path class="cls-35" d="M113.2,416.41c-1.53-.53-3.2-.56-5.1-.58l-14.25-.08c-.66,0-.7-.84-.65-1.16,1.28-5.95.88-.43,1.36-7.11.78.17.83-.92.02-.76.17-.53.1-1.13-.03-1.66.96,1.1,1.69-1.47,4.16-1.52,1.37-.03,1.45,1.45,2.43,2.49.67.72,2.97,1.48,3.21,2.6.42,1.97,1.3,2.36,3.38,3.29,1.91.85,4,3.35,6.35,1.34,1.17-1,.81-3.25,1.1-4.56,1.16.03,2.58-.5,3.89-.92-.1-1.68-.16-3.25,1.26-3.43,1.29-.16,2.5-.18,2.67-1.39,1.26,2.18.67,8.43.3,8.96-.89,1.27-7.98-.68-10.12,4.47Z"/>
          <path class="cls-56" d="M93.2,414.59c-.05.32-.01,1.16.65,1.16l14.25.08c1.9.01,3.57.04,5.1.58-.33.78.38,2-.01,2.66-.44.74.05,1.19-.48,1.66-1.74,1.53-8.49.09-12.53.61-1.88.24-4.44-.59-5.59,3.45-1.35,4.76-6.57,1.32-5.92,3.2-3.45-.92-.71-3.96-2.42-5.43.73-.53,1.9-.68,2.63-1.37l.84-5.69c.59-.65,2.65-.49,3.49-.92Z"/>
          <path class="cls-22" d="M242.73,362.19c.5,1.55-.92,3.84.98,4.56-2,3.37-.19,7.47-1.36,11.74-.47,1.73-4.38,1.73-5.24.32s-.11-3.43-.92-4.93-3-.82-3.75-1.42c-1.03-1.52-1.55-3.63-1.45-5.14,1.82.33,3.54-.4,6.08-.66l.84-6.99,4.36-.49c.6,1,.17,2.09.47,3Z"/>
          <path class="cls-188" d="M100.99,298.11c.19-.03.43.09.65.08.43-.02.86-.11,1.29-.07.78,1.53-.11,3.16-.11,4.56-2.37-.46-5.07.39-7.24-.88-1.44-.84-2.79.22-3.32,1.5-.8-.82-1.19.46-1.66.07,0-.79.95-.37,1.44-1.24.38-.67.01-3.13,1.11-3.39,2.59-.63,5.33-.25,7.85-.63Z"/>
          <path class="cls-200" d="M221.98,326.72c.04,1.21-3.11.15-4.51,1.03-.53.33-.69,1.38-.9,2.07-5.34.81-11.75-1.78-9.04,1.39-3.11,2.83-10.34-.33-10.19,3.84-.38.13-.75.07-1.04-.02-1.78-.56,4.63-1.38-5.9-1.43-.21-1.38-.06-2.98-.91-4.43-.6-1.02-2.57-.5-4.03-.4-.45-1.79-.27-3.38-.34-5.18,1.51,0,2.96-.88,4.4-.73,5.63.58,10.61-.28,16.3-.57,2.92-.15,7.65,1.45,9.95-1.35-.06-2.35,1.19-6.03,1.15-8.36,1.38.92,3.02,0,4.91.55l.14,13.6Z"/>
          <path class="cls-180" d="M232.71,345.66c-.12.55-1.15,1.48-.92,1.99,1.23,2.79.07,5.42-.15,8.17s3.65,3.58,5.56,3.17c.34-.07.6.46.71.68l-.84,6.99c-2.54.26-4.26.98-6.08.66.04-.61.14-1.5-.31-1.9-.59-.52-1.41-.64-2.36-.36-3.47,1.04-.79-4.31-2.56-5.49-1.19-.79-2.9.34-4.18-.18-.4-1.92-.06-3.45.26-5.29-2.1-.44-3.68-.06-5.27-.73-.85-2.2.69-5.93-.79-7.34-.52-.49-8.58.09-8.8-.44-.26-.66.07-1.22-.14-1.65l9.91-.36c1.62,1.96,4.35.96,7.14.78.99-.06,3.33.78,3.62-.84.67-3.74-.47-7.16-.48-10.46,1.27-.1,2.91,0,4.55.09,1.17,4.39-1.04,8.9,1.13,12.52Z"/>
          <path class="cls-170" d="M227.02,333.05c.01,3.3,1.14,6.72.48,10.46-.29,1.62-2.63.77-3.62.84-2.79.18-5.52,1.18-7.14-.78.68-2,.82-5.11-1.05-6.35-.28-.19-1.14.14-1.52-.02-.5-.2-.77-3.92-1.97-4.73-1.57-1.05-3.31-.82-4.67-1.26-2.7-3.18,3.7-.59,9.04-1.39,2.21-.33,4.06,2.84,8.76,4.29.97-2.56.63-4.99-.23-6.89.34-.02.76,0,1,.09.15.05.94,7.85.93,5.75Z"/>
          <path class="cls-98" d="M237.19,358.99c-1.91.41-5.78-.49-5.56-3.17s1.39-5.38.15-8.17c-.22-.52.81-1.44.92-1.99,1.46.16,2.93-.31,4.8.41l.17,10.91c.01.78-.85,1.5-.48,2.01Z"/>
          <path class="cls-84" d="M225.09,327.21c.86,1.91,1.2,4.34.23,6.89-4.7-1.44-6.55-4.62-8.76-4.29.21-.69.37-1.74.9-2.07,1.4-.88,4.55.19,4.51-1.03,1,.14,2.06.56,3.11.49Z"/>
          <path class="cls-196" d="M231.51,442.93c-.91-.27-.59,1.22-.52,2.17-2.36,1.56-5.21.51-7.64,1.9-1.06.6-8.36-.74-12.48.21-1.75.4-3.1.25-4.8-.02-.04,0-18.93-1.45-16,.98-.64.05-.63-.52-.49-1.54-2.58-.31-5.43-.86-7.9.13-.72-1.92-3.34-.39-5.13-1.24-1.58-.75-.5-3.81-.62-5.09,4.65.05,9.79-1.23,14.32-1.17l41.1.52c.74.83-.17,2.46.14,3.16Z"/>
          <path class="cls-177" d="M107.31,297.35c1.62.32,3.89-.38,5.47.62,1.1,1.17-.01,3.41.25,5.12l21.05.03c3.37,0,6.75-.12,10.11.16-.5,4.86-.86,9.82-.48,14.45-.48.19-1.11.78-2,.74-7.04-.3-13.72.16-20.76.96-2.31.26-16.23.76-18.13-.96v-15.79c0-1.39.9-3.03.12-4.56.99-1.01,3.07-1.04,4.38-.78Z"/>
          <path class="cls-190" d="M149.42,298.76c5.19,0,10.34-.05,15.92.41-.07,1.22-1.23,1.54-.88,3.26-2.12.21-4.28,1-6.58.81-1.5-.55-2.12-.74-1.32.9-2.35.4-4.62-.62-7.1.56-.06,1.33.79,3.71-.61,4.33-1.1.49-2.17-.04-2.59.71-.39.7.35,1.98,0,2.72-.89,1.89-2.46,4.1-.93,5.99.97.68,2.67.11,3.77.67.25,1.98.23,3.63-.36,5.46l-4.46.09-.57-6.93c-.38-4.63-.02-9.59.48-14.45.07-.67,1.04-.39,1.36-.81.21-.26-.22-.8.1-1.76.45-1.33,2.53-1.95,3.76-1.95Z"/>
          <path class="cls-104" d="M102.25,333.92c-2.45,5.26-1.17,1.29-.68,10.16,2.56.45,4.49.62,6.46.49-.5.82-.04,2.31-.84,3.16s-2.6-.17-3.69.43c-.29.44.11,2.27-.78,2.83-2.1-.78-3.47.72-5.21,1.57-1.1.53-4.73.04-4.76-.09l-.35-1.3.65-8.34c.18-2.31.71-4.36,1.79-6.23,1.07.41,1.81.77,1.74,2.51,2.68.26.14-2.62,2.74-4.77.77-.64,2.04-.45,2.92-.4Z"/>
          <path class="cls-185" d="M112.61,344.26c.87-.69-1.64,6.09,0,6.35-.69,2.2-6.19.2-4.53,2.94-1.59.68-3.45.28-5.05,1.16.35,1.59.24,2.71-.49,3.52s-2.14.37-3.48.46c-2.67.19-4.83,1.54-7.1.97-.81-2.95.24-5.81.45-8.52l.35,1.3c.04.13,3.66.63,4.76.09,1.74-.85,3.12-2.34,5.21-1.57.89-.56.48-2.39.78-2.83,1.09-.6,2.93.37,3.69-.43.8-.85.34-2.33.84-3.16l4.58-.3Z"/>
          <path class="cls-2" d="M118.51,323.63c0,.99-.31,1.99-.06,2.97-.33-.16-.64.09-.65.36-.01.25-.05.82.1.99-3.2.19-6.72.15-9.73,1.08-1.28-2.05-7.79-.33-8.43-1.07l1.54-4.22,17.22-.11Z"/>
          <path class="cls-133" d="M134.47,339.37l-.11,3.93c-4.38-.39-6.64,2.14-12.05.34,1.61-.39,1.04-2.85,2.07-4.07.57-.67,3.16.79,3.47-.78.86-4.38,4.69-2.14,6.09-4.3,1.2,1.09.56,3.29.52,4.87Z"/>
          <path class="cls-32" d="M128.13,329.15c.81-1.32-11.52-1.85-9.67-2.54-.26-.99.05-1.98.06-2.97,4.94-.03,9.92-.71,15.11-.23.04,1.78-.03,3.38-.26,5.23-2,.41-3.71-.43-5.24.51Z"/>
          <g>
            <path class="cls-64" d="M102.82,302.68v15.79c1.89,1.72,15.81,1.22,18.12.96,7.04-.8,13.72-1.27,20.76-.96.89.04,1.52-.54,2-.74l.57,6.93c.21,2.51.06,5.21-.61,7.74-10.33-.54-8.34-.01-9.71,2.11s-5.24-.08-6.09,4.3c-.31,1.57-2.9.11-3.47.78-1.03,1.22-.46,3.68-2.07,4.07-.75.74-1.88.08-3.17.5-.44,1.96-.43,4.74-2.6,5.29-1.59.4-3.43-.46-3.95,1.18-1.63-.26.88-7.04,0-6.35,1.38-1.1.08-2.94.65-4.77,1.49-.58,2.96-.17,4.7-.42,1.01-1.3.16-3.74,1.6-4.75,1.38-.89,3.66-.17,5.3-.75.18-.42-.6-.4-.61-.62-.03-1.14,2.67-.91,3.28-1.47.5-.45.85-1.5.59-2.33,1.52-.95,3.23-.1,5.24-.51.23-1.85.3-3.45.26-5.23-5.19-.49-10.17.19-15.11.23l-17.22.11-1.54,4.22c-.52-.29-2.12.1-2.44.74-.95,1.85.37,4.17-.75,5.74-.96.58-1.25,1.35-1.7,2.13-1.09,1.87-1.61,3.92-1.79,6.23l-.65,8.34c-.21,2.71-1.26,5.57-.45,8.52.17.61.16,1.23.57,1.8-1.13.54.12,8.24-1.55,9.64-.37.31-1.98.16-2.17.77-1.31,4.19-.64,8.41-1.43,12.34l-4.35,1.38c-.37,1.72.41,4.44-1.36,5.53-.84.52-3.19-.43-3.31.82l-.69,6.86-14.54-.08c-.54-2.93.29-5.56.13-8.13,2.61.76,5.83.72,8.66.08,1.28-2.26.52-5.5,2.17-7.44,1.78-2.1,3.02-3.94,3.34-6.63l1.02-8.44c1.62-.65,3.11-.44,4.42-1.58.45-5.5.45-10.79.26-16.38,1.53-.55,2.72-.27,4.36-1.2-.55-1.75.5-3.81.31-5.57l-.75-7.07c-.26-2.45-2.6-4.78-1.03-7.09,1.23.14,2.73-.13,4.47-.34l.11-25.57c.47.39.86-.89,1.66-.07.53-1.28,1.88-2.34,3.32-1.5,2.18,1.28,4.88.42,7.24.88Z"/>
            <path class="cls-204" d="M95.11,318.43c-1.24-1.14.42-3.85-.66-4.78l-1.13-.98c-.2-.18,1.49-5.42,1.83-5.68.71-.54,2.65-1.42,3.42-.65.45,4.04.38,8.11.13,12.21-1.02.34-2.68.71-3.59-.12Z"/>
          </g>
          <path class="cls-87" d="M226.99,373.11l-18.71-.27c-2.63-.04-5.11.34-7.8.2-1.36-.07-1.37,1.11-1.47,1.73-.15.93,1.18,1.68,1.11,2.47l-.69,8.22.58,22.25c2.57.73,3.34.28,3.87,2.98.25,1.29,5.78,4,7.16,3.59,2.22,1.96,3.03-.11,3.08,1.9l-7.68.44c-1.69,6.74-3.68,2.27-5.87,5.55-.85,1.28-.24,2.2-.05,4.01l.47,4.4c-3.3,0-6.49-.45-10.34-.11l-.39,8.78c-4.53-.06-9.68,1.23-14.32,1.17-.61-.96-.28-2.2-.5-3.29.98-.11-2.34-1.27,5.68-1.35l.54-12.97,8.79-.32.34-8.58c1.54.02,3.04.08,5.07-.5l-.45-61.66,1.2-6.35c4.05,1.4,1.17,2.79,7.62,3.54,2.26.26,2.95,1.75,3,4,1.56.63,4.76-.16,4.9,1.37l.45,4.88,4.28.38c.8,2.06,0,4.41,1.17,6.51,2.96.12,5.76-.25,8.14,1.45l.8,5.6Z"/>
          <path class="cls-191" d="M190.37,302.07c-.32,1.97,15.68.82,16.57.65,1.36-.26,2.84.06,4.7-.1.58,1.21.87,5.05-.68,5.17l-9.84.81-.42,9.37-22.07.17c-.13-1.5-.31-3.94.68-4.71,5.18-1.01,10.8-.11,15.8-.55.77-.85,1.07-2.99.33-3.81-4.75-1.16-14.21.69-17.36-1.34,1.37-2.28,1.78-4.6,1.11-6.96.35.47,1.25.8,1.18,2.58.81.11,11.12,1.03,9.99-1.3Z"/>
          <path class="cls-179" d="M216.74,343.57l-9.91.36c-.81-1.68.16-3.65-.13-5.44-.21-1.28-5.09-.34-5.47-.27-.95.17-2.54.1-3.46-.5s-.41-1.98-.44-2.66c-.14-4.17,7.08-1.02,10.19-3.84,1.36.45,3.11.21,4.67,1.26,1.21.81,1.47,4.53,1.97,4.73.38.15,1.24-.17,1.52.02,1.87,1.25,1.73,4.35,1.05,6.35Z"/>
          <path class="cls-113" d="M206.91,297.49c-.3,1.72-.33,3.52.04,5.23-.89.17-16.89,1.32-16.57-.65.24-1.38.31-2.89-.03-4.26l16.56-.33Z"/>
          <path class="cls-108" d="M196.63,345.39l-1.2,6.35c-.53-.72-1.58-.1-2.64-.33l-1.51-.33c-.38-.08-.11-.78-.42-1.22l-.26-6.95c-.03-.7.26-1.32.33-2.03.88.02,7.06,2.84,5.7,4.51Z"/>
          <path class="cls-68" d="M206.83,343.93c-1.73.06-3.46.65-5.54,0l-.06-5.72c.38-.07,5.25-1,5.47.27.3,1.79-.68,3.76.13,5.44Z"/>
          <path class="cls-50" d="M143.67,445.59c.03.45-.23.6-.65.62l-7.15.33-27.26.89c-2.22.07-4.7-.51-6.94-.43s-4.58-.97-7.19-.71c.02-1.14.13-1.89,0-2.72.69-.72-.31-3.51,1.21-3.97l19.46.14,18.98-.35,9.31.22c-.17,2.42-.37,4.16.23,5.97Z"/>
          <path class="cls-60" d="M134.53,422.28l3.62.38c.35,2.54-.29,4.76.36,7.27,1.64.29,3.17-.52,4.56-.05,1.03,1.67.29,3.84.71,5.95,1.85.23,3.53-.25,5.04.11.2,3.21.32,6.47-.03,9.68-1.68-.22-3.46.53-5.13-.02-.6-1.81-.4-3.55-.23-5.97l-9.31-.22c.59-2.65.27-5.5.5-8.58l-5.87-.75c-.03-2.77-.4-5.31.24-8.14,2.11-.08,3.86.17,5.54.35Z"/>
          <path class="cls-155" d="M211.05,414.28c-1.38.42-6.91-2.3-7.16-3.59l2.4-1.52.47-23.32c1.81-.06,3.17-1.81,4.19-3.06l15.73-.04.34,20.79c.04,2.62-3.92,3.11-5.28,4.26l-6.27,5.32c-1.24,1.05-3.14.71-4.41,1.15Z"/>
          <path class="cls-140" d="M236.05,422.36c1.65.66,1.77,4.05.22,5.01-1.39.85-3.34-.04-4.08,1.57-.78,1.69-4.18,4.43-6.39,3.67-3.89-1.33-7.17-2.63-11.06-1.16-.67.25-2.23-.52-2.51.36-.83,2.68-1.4,1.83-6.1,2.81-.39-2.17-2.4-2.37-4.1-2.94-.42-.14-.42-1.11-1.02-1.11l-.47-4.4c-.19-1.81-.81-2.74.05-4.01,2.2-3.28,4.18,1.19,5.87-5.55l7.68-.44,3.76.54c-.21-.03,13.92-1.79,14.4.59.56,2.79-2.87,1.64-4.39,3.99,2.84,1.2,5.53,1.22,8.15,1.06Z"/>
          <path class="cls-46" d="M128.73,258.51c1.59.65,3.54.49,5.19.34-.26.47.08.85.58.67.02,1.51-.29,3.16.68,4.42,0,2.72-5.32.3-5.8,1.78-.59,1.8-1.35,2.74-3.24,3.57-.64,1.46-.49,4.04.02,5.56-.62-4.2-2.84,16.01-3.1,10.32.12,2.57-.89,5.36-3.42,6.22-1.44.49-1.77,4.6-.43,5.19l15.1.56c-.13,2.19.09,4.16-.23,5.98l-21.05-.03c-.26-1.71.85-3.94-.25-5.12-1.58-1-3.85-.3-5.47-.62-.83-4.16-.11-8.49-.17-12.72,1.27-.18,4.74,1.02,4.93-.42l1.11-8.02c-.52,3.78,2.32-8.71,4.7-8.45s5.09.47,7.65.42l1.21-9.49c.74.05,1.25-.46,1.99-.16Z"/>
          <path class="cls-163" d="M126.74,258.66l-1.21,9.49c-2.56.05-5.17-.14-7.65-.42-.18-2.87.25-5.68-.47-8.78,3.25-.9,6.24-.87,9.33-.3Z"/>
          <path class="cls-141" d="M113.18,276.18l-1.11,8.02c-.2,1.44-3.66.24-4.93.42-.03-2.57-.31-5.17.09-8.12,2.12-.29,4.08.19,5.95-.32Z"/>
          <path class="cls-128" d="M143.63,246.53l.02,5.72c0,1.63-.16,3.33.16,5.16,1.63.66,3.69-.38,4.91.87.5.74-.12,2.55.63,2.98s1.9.18,2.68.08c.47-.06.98.11,1.34.3,1.49.79-.31,2.64,1.33,4.71-1.26,1.18-.29,3.47-.12,4.77-.77,1.28-1.99,3.18-1.08,4.92,1.01,1.92,4.17,0,5.35,1.49,1.25,1.59-.82,5.55,1.05,6.55,1.14.61,3.98-1.17,5.2.34,1.11,1.38-.3,3.76.25,5.23.41,1.1,3.43,1.15,4.03.25.66-1.01,1.32-.39,1.82-.32,1.11.14.74,1.39,1.13,1.85l8.21.59c-.06,2.29-.52,3.63.03,5.67,2.73-.4,5.49,1.23,7.73-.12.51-.31,1.53.25,2.06.24.34,1.37.27,2.88.03,4.26,1.13,2.33-9.18,1.4-9.99,1.3.07-1.78-.84-2.11-1.18-2.58-.85-1.16-2.69.03-3.89-.53-1.37-1.18-2.29-2.48-4.18-2.18-.35-.27-1.21-.53-.63-1.01-.1-1.11.63-3.82-.54-4.46-1.99-.62-3.79-.04-4.98-1.59-1.33-1.11-3.61-.18-5.15-.48-.27-1.72.21-3.63-.42-5.58l-6.09-1.02c-.18-1,.1-2.58-.54-3.57-.43-.67-1.48-.58-2.39-1.16-.54-.34-.11-1.79-.92-2.04-1.12-.34-3.42.33-4.33-.91-.45-.61-.47-5.35-2.73-5.66-1.18-.16-2.22-.35-2.73-.97-.51-1.83.21-3.78-1.26-5.25-1.06-1.06.49-3.36.09-4.37-.66-1.62-2.91-.66-4.01-.5-.5.19-.84-.2-.58-.67.67-1.15,6.92-6.34,3.94-7.59-.44-.18-1.2-.04-1.8.07-1.48.26-2.08,1-2.16,2.69l-1.2-2.23c2.4-.54,1.85-3.66,1.99-5.63l8.95.37Z"/>
          <path class="cls-107" d="M170.5,297.08c-1.61,2.45-4.55.43-6.63.7-.03-.51.45-.6,1.14-.82.4-2.3-.02-4.08-.03-5.94,1.2,1.55,2.99.97,4.98,1.59,1.17.65.45,3.36.54,4.46Z"/>
          <g>
            <path class="cls-80" d="M163.87,297.78c2.08-.28,5.02,1.75,6.63-.7-.59.48.28.74.63,1.01,1.88-.3,2.8,1,4.18,2.18,1.2.55,3.04-.64,3.89.53-.33-.06-.72.07-.83.29-.89,1.87,3.43-.5-3.52,3.07l-.3,25.08-.36,3.17c-9.95.77-19.99.57-29.94.63-.09-.23-.29-.62-.58-.63.67-2.53.81-5.23.61-7.74l4.46-.09c.59-1.82.61-3.47.36-5.46-1.11-.56-2.81,0-3.77-.67-1.53-1.89.05-4.1.93-5.99.35-.75-.39-2.02,0-2.72.42-.75,1.49-.22,2.59-.71,1.4-.62.54-3,.61-4.33,2.48-1.18,4.75-.16,7.1-.56-.8-1.64-.18-1.44,1.32-.9,2.31.19,4.46-.59,6.58-.81-.35-1.72.81-2.04.88-3.26-5.59-.46-10.73-.41-15.92-.41l1.62-2c4.22,1.78,8.52,1.59,12.83,1.02Z"/>
            <path class="cls-151" d="M169.45,318.32c-.83,1.38-2.85-.41-3.75.02-1.9.9-.45,3.76-1.39,5.04-.72.98-3.92,1-4.88.26-1.31-1.02.39-3.77-.03-5.04-.69-2.07-3.73-.27-5.29-.57-3.37-4.08,3.29-6.33,3.91-9.78,1.49-.36,4.07-.93,5.7-.13,1.27.62,1.06,5.35-.14,5.3l-1.92-.08c-1.72-.07-1.47,4.14-1.64,3.93.21.26,3.74.9,4.56-.23.28-.38-.42-1.33-.22-2.14,1.44-1.06,3.56-.87,5.5-.89.27,1.42.41,2.94-.41,4.31Z"/>
            <path class="cls-111" d="M157.05,325.64c.97,2.81-7,3.1-7.68,2.01-.47-.76-.47-2.41.88-2.58,2.09-.27,4.14,0,6.8.57Z"/>
          </g>
          <path class="cls-67" d="M160.46,271.78c-.38.75-1.11,2.03-.66,2.96,1.2,2.46,3.37,1,5.03,1.31l5.93,1.12.49,4.98c1.07.51,2.16.3,3.75.36.37,2.41,2.28,2.23,3.7,2.77,2.08.78,1.54,4.13,2.37,5.87.28.58,2.15.85,2.65.46,3.7.68.84,5.93,4.55,5.96-2.23,1.34-5-.28-7.73.12-.55-2.04-.08-3.38-.03-5.67l-8.21-.59c-.39-.47-.02-1.71-1.13-1.85-.5-.06-1.16-.69-1.82.32-.6.91-3.62.86-4.03-.25-.55-1.47.86-3.85-.25-5.23-1.22-1.51-4.06.27-5.2-.34-1.87-1.01.2-4.97-1.05-6.55-1.17-1.49-4.34.43-5.35-1.49-.91-1.75.31-3.64,1.08-4.92,1.13-.07,2.54.43,3.63.28.31-.04.33-1.32.88-.98.21.76.5,1.32,1.39,1.37Z"/>
          <path class="cls-117" d="M183.72,291.61c-.5.39-2.37.12-2.65-.46-.82-1.73-.28-5.08-2.37-5.87.4.03.63-.67,1.1-.76l10.53-.25c4.73-.11,6.34,1.07,10.91-.84-.02,1.7,1.2,4.69.02,6.47-4.73,1.42-13.94-1.09-17.54,1.71Z"/>
          <path class="cls-23" d="M138.43,264.38c-1.03-.38-2.17-.3-3.25-.44-.97-1.26-.65-2.91-.68-4.42,1.1-.16,3.36-1.12,4.01.5.41,1.01-1.14,3.3-.09,4.37Z"/>
        </g>
        <g>
          <path class="cls-158" d="M128.27,398.33c-1.12-.04-2.99.73-4.4,1-.93.18-1.32,2.82-.85,3.64-.17,1.21-1.38,1.23-2.67,1.39-1.41.18-1.36,1.75-1.26,3.43-1.32.43-2.74.95-3.89.92-3.61-.1-7.24-.48-10.84-.07-.24-1.12-2.54-1.89-3.21-2.6-.98-1.04-1.06-2.52-2.43-2.49-2.47.05-3.21,2.62-4.16,1.52-1.33-5.62-1.99-11.5-1.61-17.67.08-1.23-.58-2.34-.48-3.16.4-3.29-1.19-8.93,1.06-10.36l2.56-1.63.44-3.51c.33-2.58,1.38-4.77,1.25-7.18,5.62-3.54,1.38-.52,9.27-1.55.11-2.05-.07-4.07.64-5.49,2.83-1.28,4.94-.64,7.49-.89l2.4-.23c1.09-.1.63-2,1.33-2.3,1.55-.65,2.15-1.61,2.8-2.49s3.55-.66,4.22.23c.95,1.27.03,3.26.32,4.96.09.52,1.74.57,1.74.93l.27,43.59Z"/>
          <path class="cls-24" d="M97.79,361.57c.14,2.41-.92,4.6-1.25,7.18l-.44,3.51-2.56,1.63c-2.25,1.43-.66,7.07-1.06,10.36-1.67.06-3.51.81-5.1-.03.79-3.93.12-8.15,1.43-12.34.19-.6,1.8-.46,2.17-.77,1.67-1.4.42-9.1,1.55-9.64,1.71-.71,3.48.09,5.26.1Z"/>
          <path class="cls-126" d="M236.73,389.32c-.65,3.57-.85,7.56.21,11.53.43,1.63,1.67,2.72,1.3,4.7-1,5.36,2.65,7.66-.25,7.63.64-.59-3.86-1.8-4.24-4.39-.46-3.15-1.49-18.74.24-19.7.93-.52,2.17.33,2.74.23Z"/>
          <path class="cls-158" d="M94.57,407.49c.02-.25-.06-.5.02-.76.81-.16.76.93-.02.76Z"/>
          <path class="cls-94" d="M122.31,343.65c5.41,1.8,7.67-.73,12.05-.34l-.1,55.23-5.99-.21-.27-43.59c0-.37-1.65-.41-1.74-.93-.3-1.69.62-3.69-.32-4.96-.66-.89-3.56-1.12-4.22-.23s-1.25,1.84-2.8,2.49c-.7.3-.24,2.19-1.33,2.3l-2.4.23c-2.55.25-4.66-.39-7.49.89-.71,1.42-.53,3.44-.64,5.49-7.89,1.03-3.65-1.99-9.27,1.55-1.79-.01-3.55-.81-5.26-.1-.41-.57-.4-1.19-.57-1.8,2.27.56,4.43-.79,7.1-.97,1.34-.09,2.73.38,3.48-.46s.84-1.94.49-3.52c1.6-.89,3.46-.49,5.05-1.16-1.66-2.75,3.84-.74,4.53-2.94.51-1.63,2.35-.78,3.95-1.18,2.16-.54,2.16-3.32,2.6-5.29,1.28-.43,2.42.24,3.17-.5Z"/>
          <path class="cls-165" d="M115.2,408.72c-.29,1.31.06,3.56-1.1,4.56-2.35,2.01-4.44-.49-6.35-1.34-2.08-.93-2.96-1.32-3.38-3.29,3.6-.41,7.23-.02,10.84.07Z"/>
          <path class="cls-157" d="M128.13,329.15c.26.82-.1,1.88-.59,2.33-.61.56-3.31.33-3.28,1.47,0,.21.79.2.61.62-1.64.58-3.92-.14-5.3.75-1.44,1.01-.59,3.44-1.6,4.75-1.74.25-3.2-.16-4.7.42-.57,1.83.73,3.68-.65,4.77l-4.58.3c-1.97.13-3.91-.04-6.46-.49-.49-8.86-1.77-4.9.68-10.16,2.43.14,4.74-1.03,7.14-1.15,2.54-.13,7.2.88,8.76-2.2.43-.84.29-2.03-.24-2.61-.15-.17-.11-.73-.1-.99.01-.27.32-.52.65-.36-1.85.69,10.49,1.22,9.67,2.54Z"/>
          <path class="cls-31" d="M99.75,327.97c.64.74,7.14-.98,8.43,1.07-.64,1.49.6,2.46,1.21,3.73-2.4.12-4.71,1.29-7.14,1.15-.87-.05-2.14-.24-2.92.4-2.6,2.15-.06,5.03-2.74,4.77.08-1.74-.67-2.1-1.74-2.51.45-.77.74-1.55,1.7-2.13,1.12-1.57-.2-3.89.75-5.74.33-.64,1.92-1.03,2.44-.74Z"/>
          <path class="cls-49" d="M143.66,332.39c.28.01.48.4.58.63-1.99,1.75.66,4.04-1.56,4.62-.43.12-.47.74-.34,1.14.04,0-9.2-.62-7.88.59.04-1.58.68-3.78-.52-4.87,1.38-2.12-.62-2.64,9.71-2.11Z"/>
          <path class="cls-194" d="M174.18,332.4c3.36-.26,7.66-.25,11.11.59.86,2.01,2.18,3.99,5.13,3.62.1,1.69.65,2.98.52,4.27-.07.71-.36,1.32-.33,2.03-3.49,1.32-7.78-.34-9.36,1.21,0-.22-.1-.4-.06-.66.34-2.04-1.33-4.4-3.96-4.42l-33.45-.33c-.52,0-.88.15-1.41.09-.14-.39-.1-1.02.34-1.14,2.22-.59-.43-2.88,1.56-4.62,9.95-.06,19.99.14,29.94-.63Z"/>
          <path class="cls-57" d="M142.35,338.79c.54.06.9-.1,1.41-.09,0,1.52.19,3.13.02,4.65-.23,2.16.06,4.29.05,6.44l-.14,77.6c0,1.2-.11,1.82-.62,2.49-1.38-.47-2.92.34-4.56.05-.66-2.51,0-4.72-.36-7.27l-3.62-.38-.27-23.75.1-55.23.11-3.93c-1.32-1.2,7.91-.58,7.88-.59Z"/>
          <path class="cls-47" d="M88.66,428.01c-.65-1.88,4.57,1.55,5.92-3.2,1.15-4.04,3.71-3.21,5.59-3.45,4.03-.52,10.78.92,12.53-.61.54-.47.04-.92.48-1.66.09.5.1,1.18.47,1.21l1.57.15c2.04.19,4.26-.19,6.07,1.17.94.71.56,3.56-.37,4.1-.73.42-1.81.3-2.21.77-.49.58.07,2.23-.5,2.61l-7.79,1.07c.02.92.07,1.93-.61,2.56-.34.32-5.51-.11-5.9.22-1.16.98-1.7,1.55-3.18,1.46-5.4-.34-2.34-1.89-10.83-2.69.24-1.12.22-2.27-.07-3.03-.15-.41-.5-.48-1.17-.66Z"/>
          <g>
            <path class="cls-201" d="M190.08,448.16c.27,1.74-.76,4.64.45,6.18,7.79,1.63,4.36.22,11.94.98-.65,1.57-1.54,4.66.64,5.88,6.13,3.42,7.35,2.35,13.82,1.66l-.2-5.67c.6-4.23,4.01-.43,6.73-3.57.9-.37,2.76.65,4.36.54.9-.06,1,1.86,1,2.56l-.06,14.29c0,.63,1.36.56,1.49.14.06-.21,0-.68.55-.43.19-3.84.74,8.33,1.35,8.84.32.27.89,0,1.4.17-4.77,1.97-16.47.19-18.94,2.09-.82.63-.66,2.08-1.38,2.76s-1.98.63-2.39,1.37c-.45.8-.41,1.87-.33,2.89.19,2.32-3.4,2.11-3.82,3.26-1.24,3.43-.15,7.14-.46,10.25,3.87.48,7.26.25,10.29-.47,10.15,1.52,20.8.38,31.55.55.35-4.3-1.03-7.27.15-10.36,1.12-.34,3-.83,4.11.03.3.98.65,2.34.52,3.08-.4,2.32.17,4.69-.48,7.26l-4.42.29-.38,6.39c-.05.81-1.41.23-1.79.61l-52.96.02c-.41-.37-1.19-.03-2.39-.3l-.25-15.42.04-22.59-7.71-.34c-.8-5.34.81-10.9-.58-15.88-.82-2.94-.76-5.76-.25-8.46,2.46-1,5.31-.45,7.9-.13-.14,1.02-.15,1.59.49,1.54Z"/>
            <path class="cls-17" d="M142.46,455.08c-.15,5.07.66,10.37-.04,15.81l-7.52.55c-.5,7.52-.1,14.82-.23,22.06l-.29,16.03c-1.06.14-1.76-.2-2.37.26l-56.88-.04c-.61-.31-1.69-.02-1.74-.82-.04-.52-.38-1.31-.19-1.86.87-2.52-.85-3.89-.96-5.85l-.31-5.33c-.02-.35.81-7.15,3.11-8.05.69,5.43,1.69-.37,1.57,7.44-.03,2.25-.61,4.49-.09,7.31l31.63-.11c.4,0,.46-.71.59-.74.38-.28.53.25.89.78l9.91-.28c.32-2.05-.66-3.68-1.05-5.72-.32-1.65.73-4.09-.67-4.98-7.39.49-1.09-6.65-5.99-10.59l-17.68-.61c-.29-.65-.31-1.3-.43-1.8-.55-2.33-.04-4.75-.02-7.11,1.44.16,2.96-.33,4.71-.35l25.48-.3c.36-5.31.04-10.16-.16-15.7,6.48-.12,12.7-.57,18.72,0Z"/>
            <path class="cls-187" d="M190.19,494.03l.25,15.42c1.2.26,1.98-.07,2.39.3l-7.15,2.25-49.15-.24c-1.5-.18-3.22-1.97-4.52-1.97.61-.46,1.31-.12,2.37-.26l.29-16.03c.13-.06.29.1.49.44l55.02.08Z"/>
            <path class="cls-143" d="M101.66,447.01c-.42,1.69-1.11,4.07-.21,6.07.24.54,1.3-.53,1.66-.45.28.06.48.11.47.66-1.3-.04-2.4.37-2.26,1.65.17,1.58.51,2.58,2.18,2.55.16.54.07.94-.27,1.03-.47.13-.74-.17-1.57-.69l-.51,4.43c2.15,1.08,4.78-.24,6.59,1.03s4.23,2.96,5.59.19c.65-1.3,2.77-.51,4.26-1.27,1.06-8.33-2.29-4.2-3.87-10.14-1.77.06-3.53.5-5.43-.21-.07-1.54.04-3.05.31-4.44l27.26-.89,7.15-.33c1.68,2.94-.49,6.47-.56,8.87-6.03-.58-12.24-.13-18.72,0,.2,5.54.51,10.39.16,15.7l-25.48.3c-1.75.02-3.27.51-4.71.35l.17-25.85c0-1.09.04-1.42.6-2,.12.83.02,1.58,0,2.72,2.61-.26,4.95.79,7.19.71Z"/>
            <path class="cls-92" d="M231.64,444.84c-.08,3.09-.09,6.11-.55,9.54-.71,5.36-.02,10.99-.29,16.36-.55-.26-.49.21-.55.43-.12.41-1.49.49-1.49-.14l.06-14.29c0-.7-.1-2.63-1-2.56-1.6.11-3.46-.91-4.36-.54-2.72,3.14-6.13-.66-6.73,3.57l-5.08-.25.9-2.24c-1.26-.98-3.87-1.1-4.96.02-1.6-1.85-3.54.76-5.12.6-7.58-.76-4.15.65-11.94-.98-1.21-1.54-.17-4.44-.45-6.18-2.93-2.43,15.96-.99,16-.98,1.7.28,3.05.43,4.8.02,4.12-.95,11.42.4,12.48-.21,2.43-1.38,5.28-.34,7.64-1.9-.08-.95-.39-2.44.52-2.17.33.75.14,1.29.13,1.91Z"/>
            <path class="cls-112" d="M248.22,492.07c-1.18,3.09.2,6.05-.15,10.36-10.75-.17-21.4.98-31.55-.55.63-3.61-.9-7.47.52-10.88-.3.17-.34.58.27.74,7.13-.13,15.11.56,21.7-.45.86-.84,1.61-2.57,3.47-2.29.61.09,1.04-1.43,1.96-1.5l2.88-.24c.47,2.06-.47,3.75.9,4.82Z"/>
            <path class="cls-33" d="M108.75,501.73c-.16-2.74,1.07-15.37-1.46-16.11-1.73-.5-3.52-.54-5.65-.54l-17.92.02c-.18,0-.52-1.18-.74-.76l.6-4.58,9.28-.32c.33-.01.41-1.14.89-.92.12.5.14,1.15.43,1.8l17.68.61c4.9,3.95-1.4,11.08,5.99,10.59,1.4.89.35,3.34.67,4.98.39,2.04,1.37,3.67,1.05,5.72l-9.91.28c-.36-.53-.51-1.07-.89-.78Z"/>
            <path class="cls-91" d="M239.38,484.4c-5.91,1.39-20.45-.39-21.74,2.24-.63,1.3-.08,3.1-.6,4.35-1.42,3.41.1,7.27-.52,10.88-3.03.72-6.41.95-10.29.47.31-3.11-.78-6.82.46-10.25.42-1.15,4.01-.94,3.82-3.26-.09-1.02-.12-2.08.33-2.89.41-.74,1.66-.68,2.39-1.37s.56-2.13,1.38-2.76c2.47-1.89,14.17-.11,18.94-2.09,1.57-.65,3.64.34,5.66.16.25,1.82.19,3.09.17,4.51Z"/>
            <path class="cls-121" d="M107.28,485.63c-.15,1.01.2,2.6-1.35,3.01-.84.22-2.21-.32-2.9.71-.81,1.21.05,5.02-1.45,5.07l-24.97.86c.12-7.81-.87-2.01-1.57-7.44.59-.23,1.03.33,1.43.01.59-.46.5-1.41,1.01-1.75,1.55-1.05,4.42.11,5.27-.87.15-.18.06-.59.21-.88.23-.43.56.76.74.76l17.92-.02c2.14,0,3.93.03,5.65.54Z"/>
            <path class="cls-73" d="M244.43,487.49c-.91.08-1.35,1.59-1.96,1.5-1.86-.27-2.6,1.45-3.47,2.29-6.59,1.01-14.57.32-21.7.45-.62-.16-.57-.57-.27-.74.52-1.25-.03-3.06.6-4.35,1.29-2.63,15.82-.85,21.74-2.24,1.89-.44,4.67,1.5,5.05,3.08Z"/>
            <path class="cls-6" d="M175.95,440.42c.13,1.28-.96,4.34.62,5.09,1.79.85,4.41-.69,5.13,1.24-.52,2.71-.57,5.52.25,8.46,1.39,4.99-.23,10.54.58,15.88l7.71.34-.04,22.59-55.02-.08c-.2-.34-.36-.5-.49-.44.13-7.24-.27-14.54.23-22.06l7.52-.55c.69-5.44-.11-10.74.04-15.81.07-2.4,2.24-5.93.56-8.87.42-.02.68-.17.65-.62,1.67.56,3.45-.2,5.13.02.83.11,2.23-.12,3.33.19,1.69.47.79,3.42.95,5.08,1.64.9,3.35.25,5.16.77.48,1.52.1,3.05.97,4.3,2.4.37,3.58-2.06,5.39-3.05.98-.54,2.15-.33,2.94-1.68.42-.72,2.13-.09,3.11-.6,1.45-9.37-1.56-7.25,3.64-11.42.49-.4.37-1.99,1.15-2.08.21,1.09-.12,2.33.5,3.29Z"/>
            <path class="cls-45" d="M207.59,454.72c-.2.69-.52,1.48-.46,2.32,1.64,1.03,3.05-.17,4.52-.1l5.08.25.2,5.67c-6.47.68-7.68,1.76-13.82-1.66-2.18-1.22-1.29-4.31-.64-5.88,1.58.16,3.52-2.45,5.12-.6Z"/>
            <path class="cls-153" d="M108.75,501.73c-.13.03-.19.74-.59.74l-31.63.11c-.52-2.83.05-5.07.09-7.31l24.97-.86c1.5-.05.64-3.86,1.45-5.07.69-1.04,2.06-.5,2.9-.71,1.56-.4,1.2-2,1.35-3.01,2.54.74,1.3,13.37,1.46,16.11Z"/>
            <path class="cls-136" d="M108.61,447.43c-.28,1.39-.39,2.9-.31,4.44,1.9.71,3.66.27,5.43.21,1.58,5.94,4.93,1.81,3.87,10.14-1.49.75-3.61-.04-4.26,1.27-1.37,2.76-3.82,1.05-5.59-.19s-4.44.05-6.59-1.03l.51-4.43c.83.52,1.1.81,1.57.69.33-.09.43-.5.27-1.03l4.29.1.58,3.92c.85.44,3.16,1.18,4.27.8,1.81-.61.84-6.3.71-6.35-5.54-1.99-3.08-.25-5.49-2.41-1.07-.73-3.1-.24-4.28-.27,0-.54-.19-.59-.47-.66-.36-.08-1.42.98-1.66.45-.89-2-.2-4.37.21-6.07,2.24-.08,4.73.5,6.94.43Z"/>
            <path class="cls-110" d="M103.58,453.29c1.18.04,3.2-.46,4.28.27,2.41,2.16-.05.41,5.49,2.41.13.05,1.1,5.73-.71,6.35-1.12.38-3.42-.35-4.27-.8l-.58-3.92-4.29-.1c-1.67.03-2.01-.97-2.18-2.55-.13-1.28.96-1.69,2.26-1.65Z"/>
            <path class="cls-1" d="M211.64,456.95c-1.47-.07-2.87,1.12-4.52.1-.06-.84.26-1.63.46-2.32,1.1-1.12,3.7-1,4.96-.02l-.9,2.24Z"/>
          </g>
          <path class="cls-106" d="M190.6,342.9l.26,6.95c.79,21,.79,42.69-.05,64.05l-.34,8.58-8.79.32-.54,12.97c-8.02.08-4.7,1.25-5.68,1.35-.78.08-.66,1.68-1.15,2.08-5.2,4.17-2.19,2.05-3.64,11.42-.99.51-2.69-.11-3.11.6-.8,1.35-1.96,1.14-2.94,1.68-1.81.99-2.99,3.43-5.39,3.05-.87-1.25-.49-2.78-.97-4.3-1.81-.52-3.52.13-5.16-.77-.17-1.67.73-4.62-.95-5.08-1.1-.31-2.5-.08-3.33-.19.34-3.2.22-6.46.03-9.68,1.43.34,3.35.61,4.94.81.51.57-.11,2.65,1.06,2.71,3.3.15,7.37.24,10.63-.35.5-.86-.13-2.83.94-3.1l4.42-1.14c0-1.58-.18-3.74,1.13-4.01s2.31.67,3.5-.07l-1.08-8.29c-.15-1.12-2.12-.93-1.81-2.46.25-1.23.89-1.55,1.66-2.63,2.73-3.84,7.1,1.21,7.09-3.57l-.09-69.71c1.58-1.56,5.88.1,9.36-1.21Z"/>
          <path class="cls-59" d="M134.3,273.09l.35,23.76,9.54-.08.33-4.9,14.7-.22c.66,0,.79-.85.61-1.11,1.54.3,3.82-.63,5.15.48.01,1.85.43,3.63.03,5.94-.69.22-1.17.31-1.14.82-4.31.57-8.61.77-12.83-1.02l-1.62,2c-1.23,0-3.31.62-3.76,1.95-.33.96.1,1.5-.1,1.76-.33.42-1.29.14-1.36.81-3.36-.29-6.74-.16-10.11-.16.32-1.82.1-3.79.23-5.98l-15.1-.56c-1.34-.59-1-4.69.43-5.19,2.53-.87,3.53-3.65,3.42-6.22.26,5.69,2.48-14.52,3.1-10.32,1.5-.12,3.19.23,4.5-1.24,1.56.4,2.73.22,3.65-.51Z"/>
          <path class="cls-197" d="M117.91,327.95c.53.58.66,1.77.24,2.61-1.56,3.08-6.22,2.07-8.76,2.2-.61-1.27-1.86-2.24-1.21-3.73,3.02-.93,6.53-.9,9.73-1.08Z"/>
          <path class="cls-183" d="M195.42,351.73l.45,61.66c-2.04.58-3.53.52-5.07.5.85-21.36.84-43.04.05-64.05.31.44.04,1.14.42,1.22l1.51.33c1.06.23,2.11-.39,2.64.33Z"/>
          <path class="cls-81" d="M181.17,343.45c-.04.26.06.45.06.66l.09,69.71c0,4.78-4.36-.27-7.09,3.57-.77,1.08-1.41,1.4-1.66,2.63-.31,1.53,1.66,1.35,1.81,2.46l1.08,8.29c-1.19.74-2.2-.2-3.5.07s-1.13,2.43-1.13,4.01l-4.42,1.14c-1.07.28-.44,2.24-.94,3.1-3.26.6-7.32.51-10.63.35-1.18-.06-.55-2.13-1.06-2.71-1.59-.2-3.51-.47-4.94-.81-1.5-.36-3.18.12-5.04-.11-.42-2.11.32-4.28-.71-5.95.51-.66.62-1.29.62-2.49l.14-77.6,5.2.46.48,3.17c1.23.61,2.29.08,3.49.07s.79-2.39,1.73-2.48l9.73-.89c.89-2.15-.16-4.58,1.03-6.37,5.19.09,10.45-.62,15.68-.28Z"/>
          <path class="cls-95" d="M181.17,343.45c-5.22-.35-10.49.37-15.68.28l-21.71-.39c.16-1.52-.02-3.13-.02-4.65l33.45.33c2.63.03,4.3,2.38,3.96,4.42Z"/>
          <path class="cls-26" d="M165.5,343.73c-1.19,1.79-.13,4.23-1.03,6.37l-9.73.89c-.94.09-.56,2.47-1.73,2.48s-2.26.54-3.49-.07l-.48-3.17-5.2-.46c0-2.15-.28-4.28-.05-6.44l21.71.39Z"/>
          <path class="cls-159" d="M138.43,264.38c1.47,1.48.75,3.42,1.26,5.25-1.59.13-3.49-.14-5.24.36-.22,1.28-.16,2.23-.14,3.11-.92.73-2.08.91-3.65.51-1.31,1.47-3,1.12-4.5,1.24-.51-1.52-.66-4.1-.02-5.56,1.89-.83,2.66-1.77,3.24-3.57.48-1.48,5.79.95,5.8-1.78,1.08.15,2.22.06,3.25.44Z"/>
          <path class="cls-62" d="M139.68,269.63c.51.62,1.55.8,2.73.97,2.26.31,2.28,5.06,2.73,5.66.91,1.23,3.21.56,4.33.91.81.25.38,1.69.92,2.04.91.58,1.96.49,2.39,1.16.64.99.36,2.57.54,3.57l6.09,1.02c.63,1.95.16,3.86.42,5.58.18.27.05,1.1-.61,1.11l-14.7.22-.33,4.9-9.54.08-.35-23.76c-.01-.88-.08-1.82.14-3.11,1.75-.49,3.66-.23,5.24-.36Z"/>
        </g>
        <g>
          <path class="cls-154" d="M51.86,213.56c1.51-.24,3.01.35,4.52.3l.1,4.65c.63.19,1.55.01,1.21.72-.4,0-1.25.24-1.51.67-.2.34-.1.88-.1,1.53l-.3,25.29,52.88-.44c8.51-.07,2.89-.38,6.65-2.55,2.04-1.18,3.8-3.45,6.48-3.22.56.05,1.28-.15,1.44-.47.2-.42.66-1.69.24-1.88,1.67-.88,3.57-.07,5.32-.64-.13,2.91.64,5.94.18,8.86-1.31,1.21-3.16-.07-4.98.59-.49,1.4-.16,2.91-.35,4.2-.06,2.05-2.69,1.93-4.56,1.41l-1.26,4.97c-.29,1.13-3.17.39-4.4.39l-68.57.15c-.06.64.54.81.6,1.17-4.26.36-1.28-.64-4.67-1.29l-.04-6.21c-1.57-.58-3.06-.22-4.36-.14-.37-.23-.87-.5-1.27-.71.78-.79.79-1.78.76-3.11l-.14-7.18c1.5-.27,3.11-.46,4.59-.01,1.29,1.52.02,3.54.91,5.53,3.31.12,6.03.51,9.3.03l.17-19.72c.02-2.19.84-4.09.46-6.33-2.8-1.15-6.92-1.34-9.3.03-.54.84-.72,2.84-1.57,3.87-1.4.64-2.91.31-4.41.5.16-.29.59-.49.15-.73.28-1.19-.64-3.14.57-4.16,1.07-.91,4.18.55,4.4-.69l.75-4.14c.16-.88,2.82-.84,3.74-1.29,2.01.03,4.32.39,6.4.06Z"/>
          <path class="cls-66" d="M355.28,219.9c-.12,1.02-.55,2.38-.32,3.38l-30.92.61c.14-.9-.71-.58-1.07-.74-.68-.31-1.39.57-2.06.57l-18.19.1-29.31-.32-13.49.18-58.5-.18-28.66-.18c.22-.49-.15-.76-.43-.77-.54,0-1.27.11-1.58-.21.28-1.18.89-2.3.72-3.34l9.14-.22c1.3-.03,3.34-.17,4.45-.02,8.29,1.11,16.8.51,25.21.54s20.32-1.18,28.28-.59c3.23.24,6.47.53,9.86.53l66.48-.11c.52.26.82,0,.64-.58l23.38-.2c.58,0,.75-1.4,1.33-.93-1.97,2.33,11.85,1.29,13.54,1.37.71-1.42.29-3.02,1.31-3.75.88,1.53.37,3.22.18,4.86Z"/>
          <path class="cls-82" d="M113.41,257.91c.31,2.21-.21,3.97-.18,6.97-4.46-.89-8.88.7-12.9.35-5.24-.45-10.41-.46-15.65,0-4.35.38-9.06-1.09-13.44.09-1.15.31-2.43-.34-3.84-.35l-20.95-.11-1-5.62c-.06-.36-.66-.54-.6-1.17l68.57-.15Z"/>
          <path class="cls-5" d="M35.01,224.61c.3.05.54.47.85-.1.52,1.26-.65,2.6-.6,3.88l.46,12.22.14,7.18c.03,1.32.02,2.32-.76,3.11-.99-.53-2.28.23-3.34-.47-.63-.41-.79-2.12-1.72-1.94,1.41-3.58.56-14.4.48-18.73,1.25-.98-.12-3.08.68-4.59.57-1.08,2.87-.7,3.82-.54Z"/>
          <path class="cls-124" d="M30.51,229.74c.08,4.33.93,15.15-.48,18.73-1.2.23-1.62-.55-2.33-1.75-2.82,2.54-1.56-15.59-1.61-16.6l4.43-.38Z"/>
          <g>
            <path class="cls-12" d="M371.21,219.37c1.82,0,2.51,2.39,3.79,3.06,2.07,1.08,4.49,0,6.45.76.2.86,0,1.39.02,1.88-7.27,2.67-4.49,4.14-13.33,5.46l-1.46,4.4-11.67-.06c-.44-2.6.15-5.16-.6-7.26.47-1.17.87-2.85.53-4.32l11.27-.08c.72-1.3.84-2.52,1.31-3.81,1.43-.16,2.55-.03,3.67-.02Z"/>
            <path class="cls-198" d="M370.53,214.35c-.47.75-1.53.36-1.03,1.43.36.77.58,1.26,1.94,1.63.84.23-.18,1.45-.23,1.96-1.12,0-2.25-.14-3.67.02-.46,1.29-.59,2.51-1.31,3.81l-11.27.08c-.23-1,.2-2.36.32-3.38,2.2-.1,4.46-.48,6.83-1.13-.26-2.28.69-3.82,2.9-4.35-.39-1.86-4.34-.3-4.5-1.87-.06-.58-.19-1.23.18-1.67,1.87-.27,4.73-1.28,6.46.25.61.54-.25,2.41.82,2.64.83.18,1.76.23,2.55.57Z"/>
            <path class="cls-119" d="M381.48,225.06c-.01-.48.17-1.01-.02-1.88-1.96-.76-4.37.32-6.45-.76-1.29-.67-1.98-3.05-3.79-3.06.05-.51,1.07-1.74.23-1.96-1.36-.37-1.58-.86-1.94-1.63-.51-1.07.56-.68,1.03-1.43,1.82.79,4.16.2,6.01,1.51.44.7-.04,2.32.91,2.77.65.31,1.72.83,2.76.76,2.37-.16,3.93.53,4.06,2.78.11,1.98-1.01,2.24-2.78,2.89Z"/>
            <path class="cls-89" d="M360.69,210.89c-.37.43-.24,1.08-.18,1.67.16,1.57,4.11,0,4.5,1.87-2.21.54-3.16,2.07-2.9,4.35-2.37.65-4.63,1.03-6.83,1.13.19-1.64.71-3.32-.18-4.86-.45-1.49.16-2.98.91-3.87,1.46-1.72,3.22-.07,4.68-.28Z"/>
          </g>
          <path class="cls-21" d="M40.77,257.95c-1.26-.24-2.45-.05-4.17-.2-.36-2.19-.63-4.23-.24-6.15,1.31-.08,2.8-.43,4.36.14l.04,6.21Z"/>
          <path class="cls-88" d="M241.64,245.03c-.06,3.84-1.14,8.1.11,11.71-.66-.29-.53,1.22-.93,1.2-7.83-.37-15.62-.33-23.41-.21-1.98,1.69-.8,5.16-.1,6.94l-.82,8.29c-.82,8.32.11,16.41.22,24.42-1.67-.2-3.37-.03-5.04-.12l-.75-20.43c-.23-6.32.54-12.42-.29-18.76-.16-1.23-1.76-2.16-1.05-3.91,1.04-2.58.38-4.78-.86-7.56,2.87-.25,5.75-.62,7.92.37,3.43,1.56,4.7.37,9.77,1.43.25.75.2,2.28.87,2.97,1.22,1.27,3.21.97,5.13,1.08l.97-5.87,4.16-2.49c1.49-.89,2.61-9.69,4.28-9.12l-.17,10.07Z"/>
          <path class="cls-53" d="M273.08,240.38c-.75,1.76.04,3.71-.24,5.5-.47,3.06.11,11.96.61,14.94.16.95-.73,3.68.55,3.83,4.98.59,9.48.72,13.88.58.27,2.17.38,4.47-.14,6.84l-30.61.08-.33-6.29c.28.31.52-.63.77-.64l10.11-.21c.29-1.83.39-5.46-1.03-6.66-4.36-1.12-8.59-.12-12.58-.4-.03-1.53-.03-4.26-1.72-4.93-.88-.35-2.03.76-2.6-.2-.92-1.56-.03-3.15-.12-4.51,4.02,1.37,5.15,2.55,9.01-1.26,2.42.45,1.26,5.34,7.78,3.7-.14-3,1.73-6.48,1.37-9.4,1.3-.56,2.95-.31,4.03-1.41.43.2.76.42,1.24.43Z"/>
          <path class="cls-51" d="M250.28,229.74c-.32,6.2-1.04,12.39-.62,18.59.09,1.36-.8,2.94.12,4.51.57.96,1.72-.15,2.6.2,1.69.67,1.69,3.4,1.72,4.93.04,2.32,1.1,4.59,1.44,6.96-3.68.13-7.43.44-11.04-.29l-2.74-7.9c-1.25-3.61-.17-7.87-.11-11.71,1.14.47,1.38,1.99,2.5,1.42.69-.35,2.95-.14,2.95-1.21-.01-1.71.3-3.14.49-4.66.52-3.98-1.71-11.27,2.7-10.84Z"/>
          <path class="cls-184" d="M244.48,264.64c-9.03.67-18.14.31-27.18.03-.7-1.78-1.88-5.25.1-6.94,7.79-.12,15.58-.16,23.41.21.4.02.26-1.49.93-1.2l2.74,7.9Z"/>
          <path class="cls-122" d="M300.11,259.34c-.21,1.77.15,3.44-.41,5.53l-11.81.37c-4.4.14-8.9,0-13.88-.58-1.29-.15-.39-2.88-.55-3.83,1.09.38,2.01-.75,2.11-2,.22-2.64,16.96-.34,18.77-1.9.36,3.31,3.35.26,5.78,2.41Z"/>
          <path class="cls-138" d="M256.82,265.87c-.02-.33-.12-.59-.36-.82-.32-.31-.6-.13-.93-.12-.34-2.37-1.39-4.65-1.44-6.96,3.99.27,8.22-.72,12.58.4,1.42,1.2,1.32,4.83,1.03,6.66l-10.11.21c-.25,0-.49.95-.77.64Z"/>
          <path class="cls-97" d="M117.31,218.71c-2.42.58,7.28-.51,6.8,1.87-.33,1.6,1.1,5.12,3.77,4.65.02,1.11.65,2.36.77,3.18-1.11,1.82-2.84,1.89-5.25,2.21-1.12.62-.93,3.49-.78,4.69l-9.23.72c-.48,1.6.44,3.47-.81,4.53-.82.7-3.23-.3-3.65.92-.55,1.57.06,3.35-.27,4.79l-52.88.44.3-25.29c0-.65-.1-1.19.1-1.53.26-.44,1.11-.67,1.51-.67l34.32-.64c8.19-.15,17.07,2.08,25.29.12Z"/>
          <path class="cls-48" d="M92.01,218.58l-34.32.64c.34-.71-.58-.53-1.21-.72l-.1-4.65,15.67-.5c4.74-.15,9.52.77,14.81.15.27-.35-.44-1.25.42-1.33.4,2.51,4.7.29,4.93,2.71.12,1.33.08,2.64-.2,3.7Z"/>
          <path class="cls-78" d="M128.07,219.44c1.26.3,2.8.32,4.27,1.02.61.29.35,2.09,1.64,2.1,5.07.03,9.73.34,14.34-.02,2.23-.18,4.71.47,7.14.51l17.29.28,28.66.18,58.5.18,13.49-.18,29.31.32,1.64,2.73c-1.17,1.11-2.98-.08-3.75,1.2-.66.04-1.36.53-2.01.69-.6.27-.37-.84-1.05-.68-.51,2.02-1.75,3.27-3.35,3.1.05-.4.02-1.81-.58-1.81l-11.2-.13c-.85-3.43-3.8-3.3-6.35-3.24-4.8.11-9.65-.39-14.79.08-.97.09-.79,1.57-1.2,1.95-.44.41-1.5,1.34-2.1,1.29l-3.79-.36c-1.62-.15-3.27-.29-3.92,1.11-4.41-.43-2.18,6.86-2.7,10.84-.2,1.52-.51,2.96-.49,4.66,0,1.07-2.26.86-2.95,1.21-1.12.57-1.36-.95-2.5-1.42l.17-10.07c.03-1.98.7-3.6,1.37-6-3.51-.72-7.14-.22-9.83,1.16,1.09-1.71-10.99-1.66-10.92-1.66-5.08.27-13.75-.63-16.64,1.27-.61-1.61-2.63-1.08-4.01-.75-1.33-1.53-3.69-.89-5.75-.76-6.03.38-11.73.13-17.4.19.15-.06.13-.4-.09-.7-4.26.31-8.25-.31-12.37.33-4.87.75-12.26-.29-18.71-.16l-4.48.09c-2.97.06-5.93-.9-8.82.51-.31,2.39-.35,4.73-.21,6.93.08,1.31.45,3.3.05,4.55-.53,1.23-1.15,2.73-.53,4.47.68.41.42.79-.2.89-.48-.25-1.88-.24-2.32.13-.35.29-.21.83-.61.96-.42.13-.89.06-1.37-.06.46-2.92-.31-5.95-.18-8.86s.33-6.07-.13-9.1c-.13-.82-.76-2.07-.77-3.18-2.67.47-4.1-3.04-3.77-4.65.84-1.04,2.64-1.44,3.96-1.13Z"/>
          <path class="cls-25" d="M40.3,240.59c.8-5.44.27-11.08-.03-16.58.85-1.04,1.03-3.04,1.57-3.87,2.39-1.37,6.51-1.18,9.3-.03.38,2.24-.44,4.14-.46,6.33l-.17,19.72c-3.27.47-5.99.09-9.3-.03-.9-1.99.38-4.01-.91-5.53Z"/>
          <path class="cls-105" d="M122.62,235.31c.11.85-.04,2.43.84,2.83.41.19-.04,1.46-.24,1.88-.16.33-.88.52-1.44.47-2.68-.23-4.43,2.04-6.48,3.22-3.75,2.17,1.86,2.48-6.65,2.55.33-1.45-.28-3.22.27-4.79.42-1.21,2.83-.22,3.65-.92,1.25-1.06.33-2.93.81-4.53l9.23-.72Z"/>
          <path class="cls-13" d="M40.27,224.01c.3,5.5.83,11.13.03,16.58-1.48-.45-3.08-.25-4.59.01l-.46-12.22c-.05-1.28,1.12-2.61.6-3.88,1.5-.18,3.01.15,4.41-.5Z"/>
          <path class="cls-145" d="M133.25,245.33c.42.22.58.8,1.42.84-.14,1.97.41,5.09-1.99,5.63-1.43.32-2.48.58-3.77,1.26-1.84-.9-3.19-2.67-5.3-1.9.2-1.3-.14-2.8.35-4.2,1.83-.66,3.67.62,4.98-.59.48.12.95.19,1.37.06.4-.12.26-.66.61-.96.44-.37,1.84-.38,2.32-.13Z"/>
          <path class="cls-202" d="M128.78,237.5c-1.74.57-3.65-.24-5.32.64-.87-.41-.73-1.98-.84-2.83-.15-1.21-.34-4.08.78-4.69,2.41-.32,4.14-.39,5.25-2.21.46,3.03.26,6.17.13,9.1Z"/>
          <path class="cls-11" d="M222.43,228.46c-.38.46.15.88.12,1.35-.37,1.13-1.97,2.05-2.82,2.96.16,2.37-.43,4.54-1.7,6.53-1.46,2.28-.97,5.04-1.39,7.68-2.18-.99-5.06-.62-7.92-.37,1.24,2.78,1.9,4.98.86,7.56-.71,1.76.89,2.68,1.05,3.91.83,6.34.05,12.44.29,18.76l.75,20.43c-1.6-.09-3.18.2-4.76.23l-16.56.33c-.54.01-1.55-.55-2.06-.24-3.71-.03-.86-5.28-4.55-5.96,3.6-2.8,12.81-.29,17.54-1.71,1.18-1.78-.03-4.77-.02-6.47l.19-19.02-.25-19.24c-1.72.29-3.68.03-5.02.95-.9.61.05,3.88-1.29,4.15-1.86.37-3.72.4-4.64,1.41l-9.62.9.44,5.45c-.65.08-1.15.68-1.84.7-2.47-.84-5.24-.58-7.78-1.12-.44-1.59-.18-3.31.02-5.38l4.94-.29c.56-1.92-.25-3.78.54-5.51,2.07.13,3.69.38,4.88-.48.03.81,0,1.56.87,2,.82.42,1.66.46,2.38-.87.77-1.43,3.05-.9,4.34-1.57,1.38-.72,1.24-3.03.84-4.23.04-.32.25-.52.56-.56,3.28-.38,7.23-.12,10.53-1.19.4-1.7.68-3.65,2.91-3.58.31-6.38,1.4-1.67,1.54-6.22,2.89-1.9,11.57-1,16.64-1.27Z"/>
          <path class="cls-63" d="M293.06,240.56c.62.22.55.97.54,1.45-.04,4.98.39,9.95.73,14.92-1.8,1.56-18.55-.75-18.77,1.9-.1,1.25-1.03,2.38-2.11,2-.5-2.99-1.08-11.88-.61-14.94,5.22.48,10.54.02,16.02-.17.29-1.95.4-3.52.42-5.1,1.25.02,2.55-.35,3.79-.06Z"/>
          <path class="cls-125" d="M171.48,219.01c.16,1.04-.45,2.16-.72,3.34.3.32,1.04.2,1.58.21.28,0,.64.28.43.77l-17.29-.28c-2.43-.04-4.91-.68-7.14-.51,1.26-1.65-1.89-6.34-5.54-7.25-1.17-.29-2.02.42-3.23,1.9-2.03-1.25-4.25-1.12-7.2-1.19-1.11-.03-.68-3.3.56-3.56-.02-.2-.58-.56-.27-.93,7.64,2.33,7.53-1.46,13.57.59.94,1.77,1.45,2.63,2.97,3.67s1.77,2.99,4.3,3.02l17.99.22Z"/>
          <path class="cls-186" d="M133.92,258.84c-1.65.16-3.6.31-5.19-.34.43-1.77.31-3.65.19-5.46,1.29-.68,2.34-.93,3.77-1.26l1.2,2.23c.08-1.69.68-2.43,2.16-2.69.6-.11,1.37-.25,1.8-.07,2.98,1.25-3.27,6.44-3.94,7.59Z"/>
          <path class="cls-43" d="M241.81,234.96c-1.67-.57-2.79,8.23-4.28,9.12l-4.16,2.49-5.75-.15c-.79-.02-1.38,1.45-1.21,1.97-5.06-1.05-6.34.14-9.77-1.43.42-2.64-.07-5.4,1.39-7.68l.25,1.38c.15.86,5.97.56,7.56.34.53-3.36.42-6.82-.45-10.36l-2.84-.84c.03-.47-.5-.89-.12-1.35-.07,0,12.01-.05,10.92,1.66,2.7-1.38,6.33-1.88,9.83-1.16-.67,2.4-1.34,4.02-1.37,6Z"/>
          <path class="cls-90" d="M233.37,246.58l-.97,5.87c-1.92-.12-3.9.19-5.13-1.08-.67-.69-.62-2.22-.87-2.97-.17-.52.42-1.99,1.21-1.97l5.75.15Z"/>
          <path class="cls-137" d="M294.21,230.86l-1.14,9.7c-1.24-.28-2.54.08-3.79.06l-16.19-.23c-.48,0-.81-.23-1.24-.43.76-1.18-.04-2.97.57-4.47,2.21-5.38.15-7.9,3.1-7.71.76.05,1.39.08,1.76-.41,1.02-1.38-1.96-.46-1.18-1.69,2.54-.06,5.5-.19,6.35,3.24l11.2.13c.6,0,.63,1.41.58,1.81Z"/>
          <path class="cls-7" d="M267.81,241.37c.36,2.92-1.5,6.4-1.37,9.4-6.52,1.65-5.36-3.24-7.78-3.7-4.72-.88-.49-13.87-.67-18.08.6.06,1.66-.88,2.1-1.29.71-.06.34.65.9,1.36,1.5-.1,5.05-.18,5.74,1.44.71,3.59.64,7.33,1.07,10.86Z"/>
          <path class="cls-103" d="M257.99,228.99c.18,4.22-4.05,17.2.67,18.08-3.85,3.81-4.98,2.63-9.01,1.26-.42-6.2.3-12.39.62-18.59.66-1.4,2.31-1.26,3.92-1.11l3.79.36Z"/>
          <path class="cls-76" d="M276.09,225.68c-.78,1.23,2.2.31,1.18,1.69-.36.5-.99.46-1.76.41-2.94-.19-.88,2.33-3.1,7.71-.62,1.5.19,3.29-.57,4.47-1.08,1.1-2.73.85-4.03,1.41-.44-3.53-.37-7.27-1.07-10.86-.69-1.63-4.25-1.54-5.74-1.44-.56-.71-.19-1.42-.9-1.36.41-.38.23-1.86,1.2-1.95,5.15-.47,9.99.04,14.79-.08Z"/>
          <path class="cls-162" d="M289.27,240.62c-.01,1.58-.12,3.15-.42,5.1-5.47.19-10.8.65-16.02.17.28-1.79-.51-3.74.24-5.5l16.19.23Z"/>
          <path class="cls-192" d="M201.77,228.97c.38,2.38-3.38.86-5.03,1.55-.46,1.78.06,3.36-.57,5.02l-5.2.12c-.43,1.91-.49,3.51-.17,5.05-.32.04-.52.23-.56.56l-8.05-.16c-.7,1.62-.44,3.29-.39,4.83-1.2.86-2.82.62-4.88.48-.79,1.73.01,3.59-.54,5.51l-4.94.29c-.2,2.07-.46,3.8-.02,5.38-1.53.45-3.99.95-5.96.83l-.43,7.37c-2.53.49-4.57-.2-6.46.62-1.1.27-2.76-.78-3.89-.08-1.64-2.07.16-3.92-1.33-4.71-.36-.19-.87-.36-1.34-.3,1.36-5.2,3.48-.53,1.84-9.54-8.05.23-4.8-2.06-10.21.44l-.02-5.72c2.42-1.75,18.42-.02,19.97-1.41,1.29-1.15.65-3.91.08-5.16,1.97-.36-.57-5.8,2.62-5.18,4.81.94.06-6.24,12.33-6.38,5.67-.06,11.37.18,17.4-.19,2.06-.13,4.42-.77,5.75.76Z"/>
          <path class="cls-28" d="M178.62,228.41c-12.26.14-7.51,7.32-12.33,6.38-3.19-.62-.65,4.82-2.62,5.18l-13.58-.41c-.03-1.67.39-3.68-.95-4.45s-3.32-.25-4.69-.76c1.29-2.1,3.06-3.91,2.98-6.47,6.45-.13,13.84.91,18.71.16,4.12-.64,8.11-.02,12.37-.33.21.3.24.64.09.7Z"/>
          <path class="cls-42" d="M163.68,239.96c.56,1.25,1.2,4.01-.08,5.16-1.55,1.38-17.54-.34-19.97,1.41l-8.95-.37c-.85-.03-1-.61-1.42-.84.62-.1.88-.49.2-.89-.62-1.73,0-3.24.53-4.47,3.26.09,6.81.15,10-1.54,1.12-.59.14-2.91-.3-3.64-.04-.45.41-.56.77-.43,1.37.51,3.29-.04,4.69.76s.92,2.77.95,4.45l13.58.41Z"/>
          <path class="cls-182" d="M205.78,229.72c-.14,4.55-1.23-.16-1.54,6.22-2.23-.07-2.51,1.89-2.91,3.58-3.3,1.07-7.25.81-10.53,1.19-.32-1.54-.26-3.14.17-5.05l5.2-.12c.63-1.67.11-3.24.57-5.02,1.66-.69,5.41.82,5.03-1.55,1.38-.33,3.4-.86,4.01.75Z"/>
          <path class="cls-116" d="M147.44,227.88c.08,2.57-1.7,4.37-2.98,6.47-.36-.13-.82-.02-.77.43-3.31.45-6.52,1.92-9.75.63-.14-2.2-.1-4.54.21-6.93,2.88-1.41,5.85-.45,8.82-.51l4.48-.09Z"/>
          <path class="cls-134" d="M143.69,234.78c.44.73,1.42,3.05.3,3.64-3.19,1.69-6.74,1.63-10,1.54.4-1.25.03-3.24-.05-4.55,3.23,1.28,6.44-.18,9.75-.63Z"/>
          <path class="cls-71" d="M190.33,284.27l-10.53.25c-.47.09-.7.79-1.1.76-1.43-.54-3.34-.36-3.7-2.77-1.59-.06-2.68.15-3.75-.36l-.49-4.98-5.93-1.12c-.36-1.18-.1-2.5.16-3.72s1.53-2.08,3.36-1.88c6.79-7.74,3.37-6.82,4.67-8.87,1.01-1.59,6.48-.17,6.18-2.86.69-.02,1.2-.62,1.84-.7l8.66-1.08c.19.18,1.16,1.15,1.13,1.82-.5,8.78.48,17.21-.5,25.51Z"/>
          <path class="cls-58" d="M201.24,283.43c-4.57,1.9-6.18.72-10.91.84.97-8.29,0-16.72.5-25.51.04-.67-.94-1.64-1.13-1.82.58-1.67.85-3.52.52-5.26.92-1.01,2.78-1.04,4.64-1.41,1.34-.27.4-3.53,1.29-4.15,1.34-.92,3.3-.66,5.02-.95l.25,19.24-.19,19.02Z"/>
          <path class="cls-99" d="M179.2,258.73c.3,2.7-5.17,1.28-6.18,2.86-1.3,2.04,2.13,1.13-4.67,8.87-1.83-.2-3.09.65-3.36,1.88-1.29-1.11-2.97-.47-4.54-.56-.88-.05-1.17-.61-1.39-1.37-.37-1.31.58-2.99-.49-3.99,1.89-.82,3.93-.13,6.46-.62l.43-7.37c1.97.12,4.42-.38,5.96-.83,2.55.53,5.32.28,7.78,1.12Z"/>
          <path class="cls-30" d="M218.03,239.29c1.28-1.99,1.86-4.16,1.7-6.53.85-.9,2.45-1.83,2.82-2.96l2.84.84c.87,3.54.97,7,.45,10.36-1.59.22-7.41.52-7.56-.34l-.25-1.38Z"/>
          <path class="cls-114" d="M190.22,251.68c.33,1.74.06,3.6-.52,5.26l-8.66,1.08-.44-5.45,9.62-.9Z"/>
          <path class="cls-160" d="M190.24,241.27c.4,1.21.54,3.51-.84,4.23-1.29.68-3.57.15-4.34,1.57-.72,1.33-1.56,1.29-2.38.87-.88-.44-.85-1.19-.87-2-.05-1.54-.31-3.21.39-4.83l8.05.16Z"/>
          <path class="cls-181" d="M152.02,261.34c-.78.1-1.91.36-2.68-.08s-.13-2.25-.63-2.98c-1.22-1.25-3.28-.21-4.91-.87-.32-1.83-.15-3.53-.16-5.16,5.41-2.5,2.16-.21,10.21-.44,1.64,9.01-.48,4.34-1.84,9.54Z"/>
          <path class="cls-144" d="M158.58,266.43c1.07,1,.12,2.67.49,3.99-.54-.34-.56.94-.88.98-1.09.15-2.5-.34-3.63-.28-.17-1.3-1.13-3.59.12-4.77,1.12-.7,2.79.35,3.89.08Z"/>
          <path class="cls-96" d="M165,272.34c-.26,1.22-.52,2.54-.16,3.72-1.66-.31-3.84,1.15-5.03-1.31-.45-.93.27-2.21.66-2.96,1.57.08,3.25-.55,4.54.56Z"/>
        </g>
      </g>
    </g>
  </g>
</svg>