<?xml version="1.0" encoding="UTF-8"?>
<svg id="_レイヤー_2" data-name="レイヤー 2" xmlns="http://www.w3.org/2000/svg" viewBox="0 0 371.11 512">
  <defs>
    <style>
      .cls-1 {
        fill: #b0cee0;
      }

      .cls-2 {
        fill: #95aac4;
      }

      .cls-3 {
        fill: #d5ebf0;
      }

      .cls-4 {
        fill: #f7d1b2;
      }

      .cls-5 {
        fill: #b7d2e3;
      }

      .cls-6 {
        fill: #cd9c90;
      }

      .cls-7 {
        fill: #949eb8;
      }

      .cls-8 {
        fill: #cfe4ef;
      }

      .cls-9 {
        fill: #d3828d;
      }

      .cls-10 {
        fill: #b3b6c2;
      }

      .cls-11 {
        fill: #b6cbdf;
      }

      .cls-12 {
        fill: #8ca9cc;
      }

      .cls-13 {
        fill: #4e2f56;
      }

      .cls-14 {
        fill: #f8fcfd;
      }

      .cls-15 {
        fill: #7f5669;
      }

      .cls-16 {
        fill: #897b9a;
      }

      .cls-17 {
        fill: #9c646a;
      }

      .cls-18 {
        fill: #623758;
      }

      .cls-19 {
        fill: #68729e;
      }

      .cls-20 {
        fill: #4e3158;
      }

      .cls-21 {
        fill: #955e63;
      }

      .cls-22 {
        fill: #7c91b8;
      }

      .cls-23 {
        fill: #c9978c;
      }

      .cls-24 {
        fill: #d5ebf2;
      }

      .cls-25 {
        fill: #d6ae8d;
      }

      .cls-26 {
        fill: #dff0f4;
      }

      .cls-27 {
        fill: #b8d5e8;
      }

      .cls-28 {
        fill: #9fb4d4;
      }

      .cls-29 {
        fill: #6c4f6e;
      }

      .cls-30 {
        fill: #d0e4ef;
      }

      .cls-31 {
        fill: #fcfefd;
      }

      .cls-32 {
        fill: #d5a9ad;
      }

      .cls-33 {
        fill: #706a87;
      }

      .cls-34 {
        fill: #4f547b;
      }

      .cls-35 {
        fill: #72608c;
      }

      .cls-36 {
        fill: #b7d4e5;
      }

      .cls-37 {
        fill: #f0b3a2;
      }

      .cls-38 {
        fill: #945e63;
      }

      .cls-39 {
        fill: #eef7fa;
      }

      .cls-40 {
        fill: #935d64;
      }

      .cls-41 {
        fill: #93b0c2;
      }

      .cls-42 {
        fill: #ddf0f4;
      }

      .cls-43 {
        fill: #a46f6a;
      }

      .cls-44 {
        fill: #8eadce;
      }

      .cls-45 {
        fill: #6d4962;
      }

      .cls-46 {
        fill: #8ba2c8;
      }

      .cls-47 {
        fill: #603c5c;
      }

      .cls-48 {
        fill: #e0cdbe;
      }

      .cls-49 {
        fill: #543a5f;
      }

      .cls-50 {
        fill: #646b96;
      }

      .cls-51 {
        fill: #7b475e;
      }

      .cls-52 {
        fill: #fdfbf8;
      }

      .cls-53 {
        fill: #c4e6ef;
      }

      .cls-54 {
        fill: #88a3c6;
      }

      .cls-55 {
        fill: #778bb7;
      }

      .cls-56 {
        fill: #e8f5f8;
      }

      .cls-57 {
        fill: #76435f;
      }

      .cls-58 {
        fill: #b8d2e3;
      }

      .cls-59 {
        fill: #bbcedf;
      }

      .cls-60 {
        fill: #e3a194;
      }

      .cls-61 {
        fill: #9db7d3;
      }

      .cls-62 {
        fill: #a6bfda;
      }

      .cls-63 {
        fill: #849abf;
      }

      .cls-64 {
        fill: #a7c9df;
      }

      .cls-65 {
        fill: #768bb2;
      }

      .cls-66 {
        fill: #83a4c1;
      }

      .cls-67 {
        fill: #806b81;
      }

      .cls-68 {
        fill: #615578;
      }

      .cls-69 {
        fill: #535c81;
      }

      .cls-70 {
        fill: #7e485f;
      }

      .cls-71 {
        fill: #f8d3b5;
      }

      .cls-72 {
        fill: #683959;
      }

      .cls-73 {
        fill: #9bb6d2;
      }

      .cls-74 {
        fill: #cba08c;
      }

      .cls-75 {
        fill: #adc8de;
      }

      .cls-76 {
        fill: #808fae;
      }

      .cls-77 {
        fill: #b07a6e;
      }

      .cls-78 {
        fill: #7e4b60;
      }

      .cls-79 {
        fill: #584368;
      }

      .cls-80 {
        fill: #5e3456;
      }

      .cls-81 {
        fill: #633f57;
      }

      .cls-82 {
        fill: #ca7f88;
      }

      .cls-83 {
        fill: #5d6c90;
      }

      .cls-84 {
        fill: #90b4d6;
      }

      .cls-85 {
        fill: #af7c6e;
      }

      .cls-86 {
        fill: #efcfa4;
      }

      .cls-87 {
        fill: #bbd2e4;
      }

      .cls-88 {
        fill: #646b97;
      }

      .cls-89 {
        fill: #c38093;
      }

      .cls-90 {
        fill: #b89494;
      }

      .cls-91 {
        fill: #714960;
      }

      .cls-92 {
        fill: #fcfdfc;
      }

      .cls-93 {
        fill: #74425d;
      }

      .cls-94 {
        fill: #b0697b;
      }

      .cls-95 {
        fill: #aec6dd;
      }

      .cls-96 {
        fill: #d0e6f1;
      }

      .cls-97 {
        fill: #663a59;
      }

      .cls-98 {
        fill: #c1dde7;
      }

      .cls-99 {
        fill: #afd5e4;
      }

      .cls-100 {
        fill: #a37e96;
      }

      .cls-101 {
        fill: #bccae0;
      }

      .cls-102 {
        fill: #b4817b;
      }

      .cls-103 {
        fill: #5e6a8f;
      }

      .cls-104 {
        fill: #d0ebf2;
      }

      .cls-105 {
        fill: #eff8fa;
      }

      .cls-106 {
        fill: #613f60;
      }

      .cls-107 {
        fill: #fdfcfb;
      }

      .cls-108 {
        fill: #633e5c;
      }

      .cls-109 {
        fill: #add4e6;
      }

      .cls-110 {
        fill: #b6dce9;
      }

      .cls-111 {
        fill: #70415d;
      }

      .cls-112 {
        fill: #9ab8d3;
      }

      .cls-113 {
        fill: #accadc;
      }

      .cls-114 {
        fill: #cbe2ed;
      }

      .cls-115 {
        fill: #acc3dc;
      }

      .cls-116 {
        fill: #d2e4ee;
      }

      .cls-117 {
        fill: #e9ecea;
      }

      .cls-118 {
        fill: #d3e3f1;
      }

      .cls-119 {
        fill: #afa1a7;
      }

      .cls-120 {
        fill: #bde0eb;
      }

      .cls-121 {
        fill: #c9dfeb;
      }

      .cls-122 {
        fill: #aa726c;
      }

      .cls-123 {
        fill: #e8a99f;
      }

      .cls-124 {
        fill: #716f96;
      }

      .cls-125 {
        fill: #7f7b95;
      }

      .cls-126 {
        fill: #6875a2;
      }

      .cls-127 {
        fill: #c57f89;
      }

      .cls-128 {
        fill: #dd9b8d;
      }

      .cls-129 {
        fill: #905d63;
      }

      .cls-130 {
        fill: #6d3e5b;
      }

      .cls-131 {
        fill: #96aed1;
      }

      .cls-132 {
        fill: #7b6885;
      }

      .cls-133 {
        fill: #9ec3d8;
      }

      .cls-134 {
        fill: #95b1cd;
      }

      .cls-135 {
        fill: #7c5266;
      }

      .cls-136 {
        fill: #5c3659;
      }

      .cls-137 {
        fill: #b8867e;
      }

      .cls-138 {
        fill: #5e537a;
      }

      .cls-139 {
        fill: #504e75;
      }

      .cls-140 {
        fill: #66719d;
      }

      .cls-141 {
        fill: #643757;
      }

      .cls-142 {
        fill: #614a6f;
      }

      .cls-143 {
        fill: #b1bbc8;
      }

      .cls-144 {
        fill: #ddab80;
      }

      .cls-145 {
        fill: #8289ab;
      }

      .cls-146 {
        fill: #d08f8d;
      }

      .cls-147 {
        fill: #5b385a;
      }

      .cls-148 {
        fill: #a5c5da;
      }

      .cls-149 {
        fill: #a5bdda;
      }

      .cls-150 {
        fill: #744e6a;
      }

      .cls-151 {
        fill: #b3ddea;
      }

      .cls-152 {
        fill: #b67c6e;
      }

      .cls-153 {
        fill: #85a0b9;
      }

      .cls-154 {
        fill: #4c3e66;
      }

      .cls-155 {
        fill: #543156;
      }

      .cls-156 {
        fill: #d69594;
      }

      .cls-157 {
        fill: #985e6a;
      }

      .cls-158 {
        fill: #765168;
      }

      .cls-159 {
        fill: #6c597b;
      }

      .cls-160 {
        fill: #5f6c9e;
      }

      .cls-161 {
        fill: #66769d;
      }

      .cls-162 {
        fill: #c0e2ec;
      }

      .cls-163 {
        fill: #4d436c;
      }

      .cls-164 {
        fill: #a1a5ba;
      }

      .cls-165 {
        fill: #9e6966;
      }

      .cls-166 {
        fill: #6b81a6;
      }

      .cls-167 {
        fill: #b77c72;
      }

      .cls-168 {
        fill: #8f9fbb;
      }

      .cls-169 {
        fill: #693d59;
      }

      .cls-170 {
        fill: #efc1a9;
      }

      .cls-171 {
        fill: #4c466d;
      }

      .cls-172 {
        fill: #cde4ee;
      }

      .cls-173 {
        fill: #7d6280;
      }

      .cls-174 {
        fill: #768db7;
      }

      .cls-175 {
        fill: #776887;
      }

      .cls-176 {
        fill: #98aacd;
      }

      .cls-177 {
        fill: #895765;
      }

      .cls-178 {
        fill: #845a6a;
      }

      .cls-179 {
        fill: #c7e2ea;
      }

      .cls-180 {
        fill: #707fa9;
      }

      .cls-181 {
        fill: #6796c3;
      }

      .cls-182 {
        fill: #75537a;
      }

      .cls-183 {
        fill: #93b3ce;
      }

      .cls-184 {
        fill: #9a666b;
      }

      .cls-185 {
        fill: #e1f0f6;
      }

      .cls-186 {
        fill: #7a99b8;
      }

      .cls-187 {
        fill: #73779f;
      }

      .cls-188 {
        fill: #a49ab4;
      }

      .cls-189 {
        fill: #885563;
      }

      .cls-190 {
        fill: #5f628f;
      }

      .cls-191 {
        fill: #5a3256;
      }

      .cls-192 {
        fill: #d1e3ed;
      }

      .cls-193 {
        fill: #7c768e;
      }

      .cls-194 {
        fill: #c8e5ee;
      }

      .cls-195 {
        fill: #f5fbfc;
      }

      .cls-196 {
        fill: #b87f70;
      }

      .cls-197 {
        fill: #513257;
      }

      .cls-198 {
        fill: #6e82ae;
      }

      .cls-199 {
        fill: #925e68;
      }

      .cls-200 {
        fill: #daecf3;
      }

      .cls-201 {
        fill: #a16a66;
      }

      .cls-202 {
        fill: #5e4265;
      }

      .cls-203 {
        fill: #a1b1c4;
      }

      .cls-204 {
        fill: #c5cddb;
      }

      .cls-205 {
        fill: #d1ebf3;
      }

      .cls-206 {
        fill: #684663;
      }

      .cls-207 {
        fill: #a7b2cc;
      }

      .cls-208 {
        fill: #835e74;
      }

      .cls-209 {
        fill: #f1bea8;
      }
    </style>
  </defs>
  <g id="_レイヤー_1-2" data-name="レイヤー 1">
    <g id="_生成オブジェクト" data-name="生成オブジェクト">
      <path class="cls-92" d="M4.3,501.32c.14.68.36,1.38-.04,2-.48-.21-1.38,0-1.74-.41-.69-.78.17-.97.55-1.32.35-.32.81,0,1.24-.27Z"/>
      <g>
        <path class="cls-144" d="M73.77,199.83c21.81,1.27,44.09.71,66.2.37,5.27-.08,10.65-.53,15.97-.38l11.54.32c7.16.2,14.41.24,21.59-.42.78-.07,1.66.08,2.42.25.27.06.4.46.67.04-.24.08-.35.33-.08.48l-1.47,2.77c-.28.53,1.15.55,1.49.41.29-.12.15-.55.61-1.22.84,2.79,6.21-1.27,5.9,1.91,3.88-.5-13.68.46-9.55.45l-157,.21c-.33-1.75-.92-3-.92-4.37,1.55-.04,3.13-.37,4.68-.2,7.48.85,15.12-.59,22.4-.61,5-.02,10.6-.3,15.55,0Z"/>
        <path class="cls-76" d="M155.94,199.81c-5.32-.15-10.69.3-15.97.38.52-.49.28-1.67.55-2.53,1.41-1.07,3.51.2,4.88-1.08.17-.65,0-1.56.44-1.79.18-.1.4,0,.69-.19,2.85.82,6.13,0,8.82-2.26,1.44,2.65.17,5.07.58,7.47Z"/>
        <g>
          <path class="cls-181" d="M35.88,211.19c-.1,2.77.36,5.36-.23,8.79-4.73-.28-9.55.59-14.07-.41,8.54,1.9-9.28-4.08-4.31-2.14-.41-.16-.37-1.24-.76-1.59-1.36-1.22-3.77.11-4.86-1.07-.55-1.06-.52-2.24-1.26-2.55-2.35-.99-1.91,1.12-3.23-.9.4.29.31-.16.73-.81.95,1.53,2.33-.02,3.36-.04l10.03-.26c1.98-.05,5.18,1.1,6.34-.7,1.03-1.6.29-3.2.11-4.32.28,0,.56.01.84-.03-.04,1.39.85,2.74.62,5.02,2.38.25,4.75.37,6.68,1.01Z"/>
          <path class="cls-56" d="M27.2,194.45c-.05,1.47.67,3.41-.28,4.92.38.57,1.81.69,1.78,1.69l-.13,4.1c-.28.04-.56.02-.84.03l-22.18.32c0-3.06,6.04-6.78,8.74-7.47,1.62-.41,2.05-2.09,3.57-2.92s8.75-2.83,9.34-.67Z"/>
          <path class="cls-84" d="M27.73,205.18c.18,1.12.92,2.72-.11,4.32-1.16,1.8-4.36.65-6.34.7l-10.03.26c-1.03.03-2.42,1.57-3.36.04-.42.65-.33,1.09-.73.81-1.25-1.92-4-.65-6.4-1.25-.88-.22-1.07-3.41-.17-3.58,1.77-.33,3.49-.97,4.97-.99l22.18-.32Z"/>
          <path class="cls-151" d="M35.83,200.44c-1.55-.18-3.14.16-4.68.2-.88.02-1.72-.26-2.44.41.03-1-1.4-1.13-1.78-1.69.96-1.51.24-3.45.28-4.92-1.39-2.04,7.01-.83,8.71-.85l-.09,6.84Z"/>
        </g>
        <path class="cls-92" d="M119.06,363.03c.49,1.62-.76,3.39.5,4.69.36,1.2-1.1,1.63-1.95,2.04-1.12.18-2.15-.72-3.27-.27,1.65,1.08-1-8.72-.27-6.92,1.69.09,3.33.12,4.99.46Z"/>
        <path class="cls-92" d="M162.02,61.57s-4.32-3.03-4.33-3.08c-.18-.82-.29-1.78.33-2.37,2.93-.19,3.55,3.64,4,5.45Z"/>
        <g>
          <path class="cls-204" d="M86.43,495.88c.02.41.03,1,0,1.47-.15,2.11-.24,4.2.11,7.02l52.08-.09.23-11.29,104.24.15c.7,3.3.62,6.74.55,11.19l44.99.04c.29-2.93.29-5.44.31-7.95,9.23-.14,18.64-.32,27.94.16l6.43.33c1.89.1,3.95,1.03,6.01.62,3.09-.61,5.51.28,8.29,1.34,1.44.55,4.07-1.14,4.91,1.14,2.8-1.67,4.74-.01,7.01.14,4.86.32,9.41-.01,14.25.05,1.32.02,2.36.61,3.16.66,1.31.09,3.99-.23,3.53,1.77-.6,2.64-3.95,2.47-6.1,2.4-5.21-.17-10.2.35-15.44-.25-1.74-.2-3.18.7-4.79.85l-7.65.73c-.34.65-.42,3.63-2.4,3.7l-20.29.79c-6.34.25-12.5.19-18.86.18l-41.83-.08-10.71-.25-6.15.91-41.8.04c-15.63.01-30.91,1.01-46.27-.35-13.3-1.18-19.73.41-29.81-.6-1.78-.18-3.17-1.9-5.22-.24-1.71,1.39-4.41-.2-6.31-.08-2.76.18-4.87.75-7.53.33-9.82-1.55-23.6,1.04-26.08.19-2.84-.97-5.43-.61-8.27-.59l-23.65.17c-1.17,0-2.88-.61-3.86-1.34-1.45-1.13-1.31-3.55-2.52-4.12-9.21.09-17.81.56-26.54-.14-1.68-.13-3.1-1.13-4.11-1.56.4-.62.19-1.32.04-2,2.08-1.3,4.64-1.14,7.4-1.12l14.43.13,1.75-1.25c.44-.31,1.91.32,2.55-.34.44-.44.65-1.48.69-2.2,1.45.45,2.68-1.02,4.06-1.11,5.7-.39,10.99.42,16.42-.8.21-1.03-.4-2.42.29-3.54,1.5-2.44,5.83-2.21,7.09.04.47.85-.37,3.72,1.23,3.73l22.89.08c1.25,0,2.36,1.1,3.33.93Z"/>
          <path class="cls-92" d="M31.13,496.54c-.03.71-.25,1.76-.69,2.2-.65.65-2.12.02-2.55.34.34-.61.39-1.71.82-2.13.53-.51,1.81-.59,2.42-.41Z"/>
        </g>
        <path class="cls-120" d="M172.37,73.76c-.51-.12-1.02-.11-1.54-.09-.23-1.57-2.13-2.39-2.02-4.05,3.1,1.03,1.94,2.51,3.56,4.14Z"/>
        <path class="cls-92" d="M157.22,54.72c-1.45.2-3.5-2.66-2.17-3.27,1.66-.33,2.18,2.41,2.17,3.27Z"/>
        <path class="cls-114" d="M165.29,64.98c-1.62.39-2.92-2.02-3.26-3.41,1.68.08,3.71,1.6,3.26,3.41Z"/>
        <path class="cls-92" d="M153.34,48.63c.17,1.22-1.02,1.03-1.45.41-.39-.56-1.5-1.43-.4-2.31.39-.31,1.67.64,1.84,1.9Z"/>
        <path class="cls-92" d="M167.46,66.92h-.67c-.58.08-.75-.54-1.04-.71-.69-.4-.62-.57-.46-1.23.96-.23,1.85,1.19,2.17,1.94Z"/>
        <path class="cls-120" d="M168.13,68.94c-.93-.12-1.57-1.12-1.35-2.02h.67c.31.72.92,1.19.67,2.02Z"/>
        <path class="cls-8" d="M158.02,56.12c-.56.04-.62.35-.69-.34-.04-.4-.2-.7-.12-1.06.37-.1.59.2.81.41.49.46.38.62,0,.99Z"/>
        <path class="cls-120" d="M168.81,69.62c-.42.1-.8-.24-.67-.67.42.05.78.15.67.67Z"/>
        <path class="cls-31" d="M215.43,385.35c1.03,2.02.36,4.39,1.04,6.46,3.23.46,2.63,3.31,3.12,5.46l1.33,5.8c1.98.02,2.84-.07,4.13.17l.83,5.62c-1.59,2.13-1.44,9.27-1.12,13.6.07.88,1.96,1.42,2.69,1.34.07,1.87-.13,3.81.17,5.91,1.6.7,4.06-.37,5.37.72,3.84,5.63,2.23,8.95,2.94,16.18,1.58.72,3.41.16,5.29.55l.4,15.7c.23.65,1.66.44,2.43.77.12,22.53,4,2.18,3.26,19.55-1.14.91-2.11.21-3.4.94.19,3.1-.29,6.51-.86,9.03l-104.24-.15c.06-2.73-.14-5.51-.26-8.68-.16-.77-2.24-.44-2.24-1.22l-.15-19.18c1.09-.87,2.35-.3,3.64-.77l.4-15.95,4.65-.31.46-12.89c.03-.89,2.51-.19,2.73-.7,1.27-2.85.7-6.29.72-9.13,1.46-.59,3.75-1.23,5.61-.35,1.24-3.18.55-12.01.2-14.89-.38-3.16,2.15-7.13-.1-11.17,2.62-.98,3.96-.4,6.38-.66l.52-11.8c2.22-.13,4.06-.07,5.93.06,0,5.8-.02,12.4.37,17.89,1.74.58,1.85,2.86,2.31,3.67,2.38,1.67,7.04-.9,7.09,2.66.14,9.29-.46,18.56.51,28.47.16,1.58,5.24,1.1,5.12-.66s.33-2.82,1.58-3.08c.79-.17,1.44.34,2.03-.16.67-.57.78-1.32.83-2.37l.2-4.48c1.71-.48,3.23-.15,4.91-.41.49-1.63-.04-3.17.69-4.51,1.67.13,3.42.2,5.37-.09l.31-5.8,6.19-.54.27-33.99,4.34.44c.5.62-.03,2.11.62,2.64,1.81.93,3.73.41,5.34.29Z"/>
        <path class="cls-31" d="M262.04,307.39c-.32-1.37-1.99-.76-3.15-.95-.15-.88.23-3.14-.93-3.61-1.88-.77-3.73.2-4.8-1.21.23-1.87.13-3.88.06-6.08-.05-1.47-1.9-1.04-2.47-1.59-.99-.95-.26-4.32-1.62-4.37l-7.4-.31c-.73-2.34.7-4.82-.85-6.57,2.09-3.76-.09-8.42,1.35-12.64.38-1.1,3.17-1.49,2.79-3.46.85-.44,2.44-.43,2.61-1.27l.68-18.51c-.22,6.04,1.91-10.96,2.2-5.73.62.55,2.13.22,2.79.93.95,1.02.01,2.74.81,4.08,1.68.16,3.59-.2,4.67,1.11.42.51-.05,2.33.94,2.61,4.54,1.31,1.6,3.51,3.46,4.97.71.56,1.88-.04,2.7.33,1.81.82,1.38,3.19,1.83,4.88l4.88.96c.94,1.14,0,3.42,1.46,4.3,1.21.74,2.8.41,3.76,1.27s.7,2.73,1.57,4,3.17.45,4.49,1.27c.43,1.84-.05,4.19,1.62,5.57.39.32,1.88,0,2.19.58.86,1.64-2.92,2.52-3.18,2.85-.57.74-.36,1.66-.38,2.63-.03,1.68-2.16.98-2.81,1.66-1.11,1.21-.1,2.88-.63,4.22-1.37.4-3.71-.36-4.58.86-.97,1.38-.42,3.25-.94,4.53-.77,1.89-3.53,1.42-4.66,2.72-.96,1.11.29,4.22-2.02,4.5-.86.1-1.84-.14-2.36.21-1.55,1.03.42,3.89-1.73,5.34-.51.35-1.35-.59-2.33-.07Z"/>
        <path class="cls-63" d="M203.76,273.22c.18.91.57,2.36,1.18,3.28,1.03.92,3.02.44,4.49,1.29-.69,2.15.17,2.73,1.03,3.72,1.36,1.56,2.55,1.23,4.42,1.88,1.45.5.92,4.65-.2,5.49-7.28.17-14.52-.09-21.71.59-6.36.6-13-1.41-19.34-.03-2.04.44-4.99-.74-7.06-.7l-.46-5.4c1.51-.99,3.74-.96,5.51-.85,6.67.42,13.38.76,20.05.18,3.03-.26,6.98.37,10.14-.59.39-1.62.89-3.65,2.96-3.97-3.41-4.15-.11.26-2.28-6.21.34.18,1.05-.39,1.38.43.1.25-.18.63-.13.89Z"/>
        <path class="cls-93" d="M204.49,258.48c-.14.51-.12,1.86.73,1.97,1.69.23,3.07-.26,4.92-.13.44,1.98.15,3.76.42,5.56.19,1.28.03,3.62-.41,4.81-3.35,2.09-5.11-1.32-5.59,2.01-.06.42-.34.79-.81.51-.05-.26.23-.64.13-.89-.33-.81-1.04-.25-1.38-.43-.98-.53-2.99-1.46-4.09-.68-1.11-1.56-.3-3.67-1.03-5.73-1.83-.49-3.85.29-5.1-.88.15-.9-.62-2.43-.02-3.4.19-1.45,6.01.22,6.2-.47l.49-1.81c.42-1.55,3.82-.35,5.54-.45Z"/>
        <path class="cls-161" d="M119.56,367.71c-1.26-1.3-.01-3.07-.5-4.69,1.54.32,2.98-.39,4-1.43-.2,1.79.03,3.63-.59,5.69l-2.91.43Z"/>
        <path class="cls-105" d="M137.72,210.91c-.25,1.56-.98,4.37-.04,5.94,1.98,1.34,5.38.77,7.57.27l-.81-6.23c1.75.27,3.84-.19,5.65-.07.3,2.14-.14,4.36-.18,6.52-.03,1.31-3.91-.21-4.48.97-.34.7-.27,1.34.28,1.68.34.21.96-.14,1.76.11,1.53.47,1.47,4.23,0,4.69-1.67.52-1.77,2.09-2.49,3.04l-7.26.26c-1.16.04-.32,2.44-.69,3.41-2.63.85-5.89.46-8.61.6-1.22-1.94.27-4.25-.62-6.1-.54-1.13-2.8-.41-3.62-.67-1.37-1.85.21-4.7-1.04-6.82-.68-1.14-3.11-.33-4-.77s-.25-1.79-.87-2.52c-.57-.68-2.13-.97-2.2-2.16-.04-.68-.81-1.4,0-2.28l21.66.13Z"/>
        <path class="cls-174" d="M155.18,211.29c-.17,2.12-.21,4.61.79,6.53-1.97-.7-1.34,4.64-.91,5.88.83,2.38-.27,5.06.24,7.71.52.12,1.38-.21,1.38.6-.65,0-1.1.24-1.45.51s.18,11.34-.71,13.62c-3.75-.72-6.95.25-9.32.69l-21.69-.43c-.43-1.63.28-3.28.32-4.85,2.9-.13,5.75.26,9,.54,0-1.42.05-3.47,1.48-3.48,6.67-.05,12.8.63,19.35-.09,1.22-6.82-.19-11.89.38-20.38-1.13-.6-2.86.28-4.12-.8.04-2.16.48-4.39.18-6.52,1.74.11,3.74-.74,5.09.48Z"/>
        <path class="cls-202" d="M198.61,204.35c2.04-.26,4.27.18,6.66.15l11.38-.12c.59.53,1.32,1.11,1.33,2.05l.02,3.46c-.89.06-1.61.48-2.33.64-1.1.24-1.68-.57-2.38-1.32-1.93-2.09-5.04-1.68-8.09-1.83l-11.81-.6c.27.62.22,1.33-.36,1.99-.88,1.01-1.45.98-2.62.52-.36-.1-.83.1-1.34-.17v-4.3c-4.15,0,13.42-.95,9.54-.45Z"/>
        <path class="cls-27" d="M144.43,210.88l.81,6.23c-2.19.5-5.58,1.07-7.57-.27-.94-1.57-.2-4.38.04-5.94,2.26.01,4.42-.38,6.71-.02Z"/>
        <path class="cls-31" d="M94.67,246.42c.45.05.68.46,1.16.45-.64.79-2,3.52-.63,3.99,4.61,1.6,9.36.27,13.56.25,2.9,0,6.34,1.42,9.75.28l.48-4.69c1.59-.14,3.12-.34,4.51-.31l21.69.43c.18,5.25-.42,10.57.12,16.24.05.48,2.18.2,2.03.88l.09,9.02c.03,3.42.65,6.68.39,9.83l-.5,6.01-2.71.62c-2.18-.77-4.67-.35-6.98-.29-1.78.05-5.22-.37-6.44,1.06.69,2.39-1.24,3.64-1.65,4.92-1.37,4.26-.17,9.09-.2,13.33-.04,6.76-.29,13.53.36,20.18.31,3.19-1.04,7.66,0,10.85l-1.1,5.73c-4.69,1.47-2.8,6.54-4.81,5.26-1.72-.36-3.49-.51-5.56-.44l-.26-5.88-5.15-.6c-.34-2.38.22-4.36-.46-6.3-1.96-.23-3.51,0-5.09-.4-.48-1.8.75-4.96-.68-5.47l-2.23-.78c-.51-.18-.15-1.33-.36-2.14-.3-1.16-2.41-.2-2.85-.88-1.18-1.81-.18-4.09-.78-6.15-1.72-.54-3.31-.05-5.05-.36l-.57-10.65c-.55-.69-2.66.11-3.07-.47-1.01-1.45-.28-3.33-.43-5.01-.12-1.27-1.32-1.23-2.02-1.27-.75-.05-2.5.69-3.09-.3-.82-1.38.2-3.34-.57-4.9-1.74-.44-3.23-.06-5.28-.35l-.17-34.57c-1.96-.75-4.1-.23-5.74-.27-.92-1.23-.49-2.53-.45-4.18l.27-12.33,20.46-.38Z"/>
        <path class="cls-23" d="M203.29,200.4c4.31-.13,8.64.28,12.95.42,1.25.75.51,2.35.42,3.55l-11.38.12c-2.39.03-4.62-.41-6.66-.15.3-3.18-5.07.88-5.9-1.91-.46.67-.32,1.11-.61,1.22-.35.14-1.78.12-1.49-.41l1.47-2.77c3.7-.46,7.45.04,11.21-.07Z"/>
        <path class="cls-16" d="M205.33,195.08c-.62.07-1.69,1.5-1.97,2.06.41-1.38-7.53-.6-6.41,2.03,1.78,1.29,4.51.15,6.26-.13-.14.46.38.91.08,1.37-3.76.11-7.5-.39-11.21.07-.27-.15-.16-.4.08-.48.59-.2,1.07-.31,1.46-.6.65-.48,1.12-1.08.5-1.64-.51-.46-1.62-1.07-2.08-.37s-.62,1.84-.55,2.56c-.76-.17-1.64-.32-2.42-.25.18-1.41-.77-3.22.62-4.11,9,.32,7.27-1.85,9.41-3.21,1.44-.42,3.47-.22,4.6,1.26.3.4.09,1.54.46,1.57.33.03.78-.28,1.16-.14Z"/>
        <path class="cls-35" d="M192.17,199.99c-.27.42-.4.02-.67-.04-.07-.73.08-1.84.55-2.56s1.57-.09,2.08.37c.62.56.15,1.16-.5,1.64-.39.29-.87.4-1.46.6Z"/>
        <g>
          <path class="cls-208" d="M289.42,269.31c-.28.47.06,1.01.58.72-.64,1.4.66,2.22,1.96,1.93.65-.14,2.08,0,2.22-1.33.11-1.05-.08-1.91.59-2.65.37-.42,1.11-.72,2.18-.89,1.3-.21,1.16-1.19,1.13-1.92-.05-1.26-1-3.74.27-4.6,1.18-.8,3.07.18,4.01-.6.21.41.43.44.66.02,1.14.94,1.12,1.08.86,2.52-.15.85-.19,1.91-.28,2.79l-2.35,1.57c-2.32,1.55-3.18,4.96-5.05,7.1-.63.72-1.43,2.55-.93,3.6,2.27.47,5.32,1.02,7.12-.22,4.52-.05,9.09-.23,13.51-1.21-1.11,1.28-2.07,3.46-4.22,4.33-1.47.59-2.09,3.41-.7,4.25,1.63.98,3.55,1.56,3.54,4.2-3.41.22-6.5.19-9.57,0-.08-.18-.27-.45-.02-.65,1.48-.17,3.35-.49,4.56-1.14-.01-2.04-.3-3.59-.81-4.97,3.81-2.88-5.87.09-9.02-1.05-.88-.32-1.47-.73-1.99-.43-.59.34-1.04.69-.77,1.3-1.43-.3-3.59-1.31-5.14-.88-2.04.57-2.08,3.08-3.45,4.28-.69-.12-.67.35-.82.72-.7,1.81-2.67,2.18-3.88,3.59l-6.74,7.86c.48-.55-10.94,12.76-8.22,10.23-.78.73-3,1.43-3.28,2.63-1.18-4.55-3.66,1.89-6.66,3.28-.17-.69-1.21-.79-1.65-.58s-.85,1.46-1.47,1.68c-.67-1.14-6.56-1.08-6.01-1.16-.61.09-.65,1.37-1.1,1.37-.84,0-1.12-1.34-.46-2,.38-.38,1.21-.04,1.94-.13l6.34-.74c1.35-.16,2.55-1.65,3.3-2.48.64.35.96-.25.95-.67.65-.34,1.03-1.06,1.49-1.6.98-.53,1.81.41,2.33.07,2.14-1.45.18-4.31,1.73-5.34.52-.35,1.5-.1,2.36-.21,2.32-.28,1.06-3.39,2.02-4.5,1.13-1.31,3.89-.83,4.66-2.72.52-1.28-.03-3.15.94-4.53.86-1.22,3.2-.46,4.58-.86.53-1.34-.48-3.01.63-4.22.66-.68,2.78.03,2.81-1.66.02-.98-.19-1.9.38-2.63.26-.33,4.03-1.21,3.18-2.85-.31-.59-1.8-.26-2.19-.58-1.67-1.38-1.19-3.72-1.62-5.57-1.32-.82-3.6.02-4.49-1.27s-.61-3.13-1.57-4-2.54-.53-3.76-1.27c-1.46-.89-.53-3.17-1.46-4.3l-4.88-.96c-.45-1.69-.02-4.07-1.83-4.88-.82-.37-1.98.24-2.7-.33-1.85-1.46,1.08-3.66-3.46-4.97-.99-.29-.52-2.1-.94-2.61-1.08-1.31-2.99-.95-4.67-1.11-.79-1.35.14-3.06-.81-4.08-.66-.71-2.16-.38-2.79-.93.1-1.91.55-4.33-.17-6.18.26-.07.53-.04.8-.03.52,1.47,2.42.76,3.92.98.6,1.51.06,3.07.32,4.86l5.5.46.28,4.5c1.94.27,3.49.25,5.23.78.5,1.25-.11,2.53.13,3.72.39,1.88,4.1.6,4.76,1.97.61,1.26-.34,2.76.3,3.61.83,1.11,3.75-.5,4.45,1.09.42.96-.3,3.56.69,4.11,1.24.69,3.8-.46,4.38.88.7,1.61-.22,3.3.66,3.77,2.32,1.22,2.64.16,3.77.75.73.37.52,1.46.86,2.12.55,1.07,2.23.97,3.04.84Z"/>
          <path class="cls-28" d="M303.88,262.51c.26-1.43.28-1.58-.86-2.52,0-.3-.01-.61.02-.92.16-1.29.36-2.59.47-4.16.69-.26,1.08,0,1.49.1.55.14.79-.12.6-.65-.11-.44-.49-1.18-.27-1.52.37-.56,1.35-.25,1.64-.44.81-.26,2.01-1.15,2.13-2.08s.16-1.94.69-2.92,1.66-.8,2.66-1.01c.5-.1.7-.26.65-.79-.11-1.26.36-3.56,1.85-3.96,1.81-.49,1.36-2.14,2.28-3.32l2.51-3.2c1.4-1.78,3.78-2.88,4.35-5.77.33-1.69,3.08-1.74,3.64-3.29.96.18,1.12-.69.1-.58-1.11-.45-.09-1,1.13-.67.29-2.36,1.63-4.28,3.71-5.34.63-.32,1.26-.05,1.75-.76.33-.48.19-.84.29-1.4.21-1.25.24-3.41,1.9-3.38.46.17.93-.14.79-.65-.08-.28.18-.5.2-.72.44-.33.65.63.71.38.08-.37,1.31-.93,1.34-1.3.14-1.69,2.28-2.86,4.15-3.48,2.11-.7,1.41-4.56,1.84-6.1,1.28-1.03,3.46-.28,4.2-1.66.54-1.01.2-2.86.94-3.62.48-.49,2.2-.32,2.47-1.36.63-2.37.68-6.03,2.88-7.79,1.69-1.36,3.82-1.85,3.16-5.09,2.1.19,3.6-.07,4.27-1.7.41-.99,1.5-1.88,1.19-3.62,4.52-.18,1.4-5.52,5.43-5.21,1.35.1.47,1.9.7,2.64.93,3.05-1.5,3.35-2.58,4.9-.83,1.19-.35,3.23-2.34,3.85-.84.88.22,4.48-1.15,4.78l-2.45.53c-.63.14-.33,1.32-.48,2.48s-1.88.77-2.56,1.6c-.16,1.27,0,3.3-1.61,3.61-.93.18-1.81-.22-2.09.47-.59,1.47.2,3.15-1.37,4.04-.64.36-1.64.07-2.41.37-1.65.65-.51,3.63-1.58,4.51-2.83,2.32-5.67,4.67-6.6,8.41-4.75-.29-1.55,5.73-4.73,4.93-1.65-.41-3.2,1.08-3.31,2.64-.2,2.98-2.98,3.98-4.07,5.86-1.51,2.59-2.84,4.93-5.64,5.9-.59,2.32-4.07,7.69-6.04,8.79l-.64,3.45-3.95.86c-.52,1.23-.14,3.68-1.47,4.17-3.3,1.22-3.63,4.91-5.64,6.76-1.62,1.49-3.4,2.83-4.33,4.96Z"/>
          <path class="cls-110" d="M356.15,187.62c-2.2,1.77-2.25,5.42-2.88,7.79-.27,1.03-1.99.87-2.47,1.36-.75.76-.4,2.61-.94,3.62-.74,1.38-2.93.62-4.2,1.66-.43,1.54.27,5.39-1.84,6.1-1.87.62-4,1.8-4.15,3.48-.03.37-1.26.93-1.34,1.3-.06.25-.26-.71-.71-.38.25-3.15-1.3-6.11-2.25-9.35-1.27-4.33,3.15-7.76,2.91-10.47-.19-2.17.67-4.44,3.03-5.29,1.14-.41,1.31-2.34,3.12-2.51.22-2.38,2.13-3.34,3.71-4.63-.44.36,1.59-2.94,4.83-2.82,5.55.2-.68,9.14,3.18,10.14Z"/>
          <path class="cls-160" d="M296.89,281.99c2.11,2.55,4.6,5.69,8.03,6.28-.24.2-.06.47.02.65l-.87,9.07c-2.05.53-4.08.38-6.17,0-.9-2.86-.67-5.54-.86-8.67-2.57-.52-4.91-.17-7.67-.35-.77-.85-.29-2.16-1.09-2.82.31-.25.31-.5.02-.76,1.37-1.19,1.41-3.71,3.45-4.28,1.55-.43,3.71.58,5.14.88Z"/>
          <path class="cls-134" d="M304.42,265.83c1.9.07,3.84-.12,5.98.3.33,2.08-.54,3.91-.7,5.75-1.54-.44-2.77.61-4.14.81-2.17.31-4.81-.71-7.02.09-.86.31-1.32,1.98-2.33,1.18,1.87-2.14,2.73-5.55,5.05-7.1l2.35-1.57c-.16.72.3.52.82.53Z"/>
          <path class="cls-100" d="M309.7,271.88c2.71.77,5.74,0,8.84.66.52,2.38-1.85,2.69-2.64,3.61-4.41.98-8.99,1.15-13.51,1.21l3.17-4.66c1.37-.2,2.61-1.25,4.14-.81Z"/>
          <path class="cls-53" d="M363.58,180.83c-.67,1.63-2.17,1.89-4.27,1.7.66,3.24-1.47,3.73-3.16,5.09-3.86-1,2.37-9.94-3.18-10.14,1.92-3.78.52-4.99,3.58-4.12,4.14,4.56.3,6.89,7.03,7.47Z"/>
          <path class="cls-75" d="M298.08,265.17c.03.73.17,1.71-1.13,1.92-1.07.17-1.8.48-2.18.89-.67.74-.48,1.6-.59,2.65-.14,1.33-1.57,1.19-2.22,1.33-1.3.28-2.6-.53-1.96-1.93.36-.2.06-.68.17-.9.48-1,.74-2.14,1.47-3.29,2.46.19,4.44-.25,6.43-.66Z"/>
          <path class="cls-92" d="M332.69,219.45c.2-.94,1.17-1.83,2.03-2.16-.1.56.04.92-.29,1.4-.49.71-1.11.44-1.75.76Z"/>
          <path class="cls-92" d="M288.28,286.14c-.27-.03-.53-.04-.8-.04.15-.38.13-.85.82-.72.3.26.29.52-.02.76Z"/>
          <path class="cls-92" d="M305.01,255.01c-.28-.46.1-.94.6-.65.19.54-.05.79-.6.65Z"/>
          <path class="cls-92" d="M306.98,252.4c.46-.75,1.21-1.81,2.13-2.08-.12.94-1.33,1.82-2.13,2.08Z"/>
          <path class="cls-92" d="M312.46,246.38c-.09-.41.1-1.05.65-.79.05.53-.16.69-.65.79Z"/>
          <path class="cls-92" d="M58.2,216.83l-.72-.24c-.28-.45.1-.92.59-.67.01.29.3.59.13.91Z"/>
          <path class="cls-92" d="M327.75,226.04c-.18-.23-.13-.42.1-.58,1.02-.12.86.76-.1.58Z"/>
          <path class="cls-92" d="M336.62,213.92c-.28-.51.37-.72.79-.65.13.51-.33.82-.79.65Z"/>
          <path class="cls-92" d="M290,270.03c-.53.29-.87-.25-.58-.72.26-.04.42-.6.76-.18-.11.23.18.71-.17.9Z"/>
          <path class="cls-92" d="M303.02,259.99c-.23.42-.45.39-.66-.02-.14-.45.07-1.13.68-.89-.04.3-.02.61-.02.92Z"/>
          <path class="cls-92" d="M304.42,265.83c-.52-.02-.98.19-.82-.53.4-.23,1.04-.04.82.53Z"/>
          <path class="cls-182" d="M304.92,288.27c-3.42-.59-5.91-3.74-8.03-6.28-.28-.62.18-.96.77-1.3.52-.3,1.11.11,1.99.43,3.15,1.14,12.83-1.83,9.02,1.05.51,1.38.8,2.93.81,4.97-1.21.65-3.07.96-4.56,1.14Z"/>
          <path class="cls-198" d="M305.56,272.69l-3.17,4.66c-1.8,1.24-4.85.69-7.12.22-.5-1.05.3-2.88.93-3.6,1.02.8,1.47-.87,2.33-1.18,2.22-.79,4.85.23,7.02-.09Z"/>
        </g>
        <path class="cls-189" d="M183.02,231.52c1.09.03,3.29-.48,4.06.5.88,1.12-.29,2.84.48,3.66,1.01,1.09,2.74.54,4.61.47l.49,9.72,5.55.17c.72,1.8-.14,3.49.78,5.14,1.83-.26,3.52.55,4.83.03.63,1.92-.03,4.01.79,5.88.19.44,0,.96-.11,1.39-1.72.1-5.11-1.11-5.54.45l-.49,1.81c-.19.7-6.01-.98-6.2.47-.65.3-.6-.35-.6-.82,0-1.5.68-4.09-.59-5.19-.7-.61-2.61.08-3.34.05-.78-.03-.38,1.4-1.25,1.84-.31-3.43-3.5-1.25-2.12-4.6,2.12.95,1.08-5.79,1.28-5.63l-1.35-1.1c1-.03,1.05-1.03.93-1.78-.09-.53-.48-1.71-1.54-1.49-.88.18-1.44.88-2.04,1.05-.28-1.58-2.6-1.31-4.11-1.59-1.9-.36-.51-2.57-.8-3.76-.52-2.12-3.69-2.04-5.02-1.53.29-2.28-.12-3.74,1.02-4.71l7.35.44c.86.05,2.15-.89,2.96-.87Z"/>
        <path class="cls-121" d="M198.42,271.22c-.16,2.05-3.36.3-4.77,1.67-.9.88.17,2.62-.23,3.22-2.38,3.57.6,2.3-1.74,6.55-6.67.58-13.38.24-20.05-.18.33-1.65.19-3.22-.27-4.83l10.83-.52.2-4.49c3.05-.64,6.06.14,8.97-.89l.92-7.14c1.25,1.17,3.27.39,5.1.88.73,2.06-.08,4.17,1.03,5.73Z"/>
        <path class="cls-132" d="M161.47,282.48c1.51-.05,3.28.23,4.64.85l.46,5.4c-2.07.04-4.36.77-6.62.38-3.05-.52-5.89.04-8.68.21-.44.03-.83.09-1.26.18-.95.21-1.84-.67-2.69-.7l.5-6.01c4.55.15,9.11-.14,13.64-.31Z"/>
        <path class="cls-73" d="M202.5,271.9c2.17,6.47-1.13,2.06,2.28,6.21-2.07.32-2.58,2.35-2.96,3.97-3.17.95-7.12.32-10.14.59,2.34-4.25-.64-2.98,1.74-6.55.4-.61-.67-2.34.23-3.22,1.41-1.37,4.61.38,4.77-1.67,1.1-.79,3.1.15,4.09.68Z"/>
        <path class="cls-142" d="M216.79,188.89c.22,0,.44-.04.65.05l.48,10.17c-1.01.07-.49,2-1.69,1.71-4.3-.14-8.64-.55-12.95-.42.3-.46-.22-.91-.08-1.37.16-.53-.06-1.47.15-1.89.28-.56,1.35-1.99,1.97-2.06,3.34-.36,1.13-2.83,4.65-6.25l6.81.07Z"/>
        <path class="cls-12" d="M123.81,241.55c.08-3.57.25-7.19-.17-10.74-.19-1.64.37-3.95.54-5.49.82.26,3.07-.46,3.62.67.89,1.85-.61,4.16.62,6.1,2.73-.15,5.98.25,8.61-.6.37-.97-.47-3.37.69-3.41l7.26-.26c.72-.96.82-2.52,2.49-3.04,1.46-.45,1.53-4.22,0-4.69-.8-.25-1.42.1-1.76-.11-.54-.34-.62-.98-.28-1.68.57-1.18,4.45.34,4.48-.97,1.26,1.08,2.99.2,4.12.8-.57,8.5.83,13.56-.38,20.38-6.55.73-12.68.04-19.35.09-1.43.01-1.47,2.05-1.48,3.48-3.25-.28-6.1-.67-9-.54Z"/>
        <path class="cls-36" d="M155.96,217.83c1.13-.08,2.74.04,4.11.23.32.04-.22,1.07.08,1.34.09,4.09.34,8.23-.06,12.59l-3.43.02c0-.8-.86-.48-1.38-.6-.51-2.65.59-5.33-.24-7.71-.43-1.24-1.06-6.57.91-5.88Z"/>
        <path class="cls-192" d="M108.66,247.02c-.2,1.34.04,2.74.09,4.09-4.2.01-8.96,1.35-13.56-.25-1.37-.48,0-3.21.63-3.99,4.28-.1,8.56.03,12.84.15Z"/>
        <path class="cls-7" d="M203.36,197.14c-.21.42,0,1.37-.15,1.89-1.75.28-4.48,1.43-6.26.13-1.12-2.63,6.82-3.4,6.41-2.03Z"/>
        <g>
          <path class="cls-199" d="M74.01,160.73c-1.31.56-2.83.64-4.27.6l-4.81-.13c.75-1.75.53-3.76.51-5.93-.06-7.3-.27-14.3.15-21.57.13-2.28,6.54.4,6.94-4.06.32-3.58-.51-7.29.87-10.89,1.12-2.93,5.71,1.63,5.77-19.69,1.84-1.05,4.05-.34,6.34-.71.65-3.78.98-7.38,1.01-11.14,1.62-.26,3.34.5,4.55-.4,1.83-1.36,2.25-3.91,2.92-5.73,1.42-.32,2.81-.59,4.61-.8.88-3.79-.99-9.82,2.46-9.56.37-3.39-.85-7.97,1.86-9.88,1-.7,2.64-.84,4.2-1.07,1.69-.26.34-3.18.99-4.25.92-1.52,3.53-1.29,5.25-1.35.38-2.27-.14-4.12-.21-5.95-.04-1.1-.28-2.93.36-4.17.68-1.31,2.98-.18,4-.46.19,1.16.7,2.25.76,4.02,1.73.14,1.96-1.57,2.97-2.62,1.08-.9,3.09-.33,4.2-1.09,1.94-1.35,1.8-3.31,2.06-5.24,1.62-2.44,1.2.85,4.82-1.8,1-.74-.16-3.47,1.04-5.13.53-.73,2.33-.05,3.15-.61,2.41-1.65.54-5.13.53-7.19.03-1.48.64-3.25.56-4.88.87-.26.95.52.84,1.48-.16,1.4,1.35,1,2.16.99,2.78-.02,1.73-12.06,3.09-13.88-1.43.6-2.01.69-2.56.14l.05-7.45c2.26-.3,4.22-.45,6.86-.11l-.19,21.43c-.89.6-1.84.25-2.58.9l-.59,8.03c-1.55.51-2.74.29-4.29.6l-.57,6.21-4.46.59c-.4,2.04-.12,4.06-.8,6.17-8.97-.63-.03,2.2-9.74,1.72l-.96,5.21-4.45.87c-.64,1.73.27,4.18-.96,5.68-1.23.85-3.4.18-4.86.7-.26,2.24-.09,4.35-.63,6.61l-4.92.7-.69,6.61c-1.66.56-3.27.07-4.99.43-.87,2.42.29,5.38-.81,7.43-.6,1.12-2.58,1.47-1.85,3.78.25.8-.32,1.9-.87,1.97-.71.09-1.38.12-2.62.03l-.82,6.8c-1.3.28-2.42-.05-3.56.44l-.62,8.89c-1.61.53-3.09.2-4.71.4-.77,1.86-.29,3.84-.91,6.09l-4.44.56c-2.32,10.27.95,15.49-2.82,25.9-.55.35-3.15-.28-3.06.99.12,1.67-1.05,3.15-1.07,4.54l-.21,20.22Z"/>
          <path class="cls-157" d="M31.14,200.64c0,1.37.59,2.62.92,4.37l157-.21v4.3c.53.27.99.07,1.35.17-.82,1.25-2.95,1.77-4.72,1.52-4.97-.7-9.69.46-14.12.4-5.16-.06-11.3-1.4-16.4.1-1.35-1.23-3.35-.37-5.09-.48s-3.9.34-5.65.07c-2.3-.35-4.45.04-6.71.02l-21.66-.13-10.68-.19h-1.36c-7.43-.09-15.03-.93-22.3.6-.68-.13-1.32-.48-2.03-.46-2.09.05-4.33-.65-6.12.61-.06-.51-.49-.71-1.22-.68l-14.16.55c-7.32.28-14.98-1-22.31-.02-1.93-.64-4.31-.76-6.68-1.01.23-2.29-.66-3.64-.62-5.02l.13-4.1c.73-.67,1.56-.39,2.44-.41Z"/>
          <path class="cls-97" d="M74.39,263.31c1.64.04,3.78-.48,5.74.27l.17,34.57c2.05.3,3.54-.08,5.28.35.78,1.56-.25,3.51.57,4.9.59.99,2.34.26,3.09.3-.65,1.47-1.92,1.29-4.24,1.02.85,5.11.02,10,1.47,14.17.5,1.44.71,3.12.86,4.93,1.44.8,4.65.34,5.03,1.97.75,3.21.43,6.83,2.06,9.26,1.5-1.08,2.87-1.66,4.15-.11,1.15,1.4.53,2.33-.54,3.84-1.25-.25-3.91.68-4.76-.63-1-1.54.48-3.49-.76-4.74-1.98-.59-4.09.11-5.94-.7l-.32-12.55-5.83-.31-.39-8.37-5.03-.37-.89-6.4c-1.5-.32-2.79-.08-4.03-.91l-.41-6.24c-1.83-.42-3.44.2-4.81-.54-.49-9.82.37-19.15-.57-28.37-.22-2.13,1.97-7.47,1.36-11.62,2-1.02,4.78-.91,6.89-.35.7,3.21-1.31,4.52.79,7.14.4.5.9-.21,1.04-.53Z"/>
          <path class="cls-136" d="M73.57,211.34c-1.68,1.18-3.69.22-4.03,1.92-.3,1.52-.84,3.66.37,5.21.65.83,3.25.55,3.42,1.74.5,3.51.72,7.08.65,10.48l-.21,9.71c1.96.49,4.11.46,6.41.11.34-2.97.62-5.65.49-8.35,1.79.36,3.36-1.19,5.51-.27l.2,6c1.52-.73,2.82-.79,3.62,1.22,1.37-.66,1.88-1.74,2.63-2.62-1.01-1.71-1.06-3.62-.02-4.82,1.51.46,3.16-.17,4.97.21.96-1.49-.41-8.15,1.76-7.2.21.02.41.23.61.23-.44,2.19-.01,4.4.12,6.59.16,2.72.24,5.83-.79,8.13l-.74,1.66c-.31.7-2.03.56-2.58.83-1.08,1.18-.83,3.05-1.28,4.29l-20.46.38-.27,12.33c-.04,1.66-.47,2.95.45,4.18-.14.32-.63,1.03-1.04.53-2.1-2.62-.09-3.93-.79-7.14-2.1-.56-4.89-.67-6.89.35-2.24-1.11-4.81-.47-7.25-.61l-.26-16.03,10.61-.36-.06-12.65c0-1.84-2.45-.63-4-2.01-.46-.41-.69-1.73.19-1.95.93-.23,2.5.61,3.08-.31.87-1.38.55-3.72.5-5.24-3.79-.95-7.26.5-10.26-1.05.16-.32-.12-.62-.13-.91-.07-1.56-.21-3.18.12-4.71l14.16-.55c.73-.03,1.17.17,1.22.68Z"/>
          <path class="cls-43" d="M92.01,73.78c1.54,1.25-1.16,6.4,1.98,7.31-.66,1.82-1.08,4.37-2.92,5.73-1.21.9-2.93.14-4.55.4-.03,3.76-.36,7.35-1.01,11.14-2.29.37-4.5-.34-6.34.71-.06,21.32-4.64,16.76-5.77,19.69-1.38,3.6-.55,7.31-.87,10.89-.4,4.45-6.81,1.78-6.94,4.06-.42,7.27-.21,14.27-.15,21.57.02,2.17.24,4.18-.51,5.93-2.05-.06-4.11.01-6.17.13.07-11.8-1.15-23.85-.17-36.15l6.09-.51.08-11.85c0-1.35.94-1.19,1.42-1.39,1.51-.72,3.83.11,5.22-.84,1.04-1.27-.16-3.35.07-4.58.5-2.65.17-5.3.53-8.08,1.6.18,2.79-.31,3.75-.55.76.25,2.28,1.51,3.1.31,1.03-1.49-.28-3.74.25-5.09,1.52-1.7.86-4.25.95-7.17,1.94-1.21,4.2-.13,6.14-.95l.26-10.29c1.99-.7,3.83-.02,5.54-.42Z"/>
          <path class="cls-78" d="M123.8,350.47c.82,1.61.13,3.49-.07,5.22l-.67,5.9c-1.02,1.05-2.46,1.75-4,1.43-1.66-.34-3.3-.37-4.99-.46-.63-1.56-1.06-3.13-.59-5.02.95.17,2.64.17,3.39-.33,1.1-.73.51-2.33.71-3.63.21-1.39-.89-1.81-1.74-2.1-.91-.3-1.86.16-3.64.83-1.63-1.32.23-4.09-1.18-5.74-1.17-1.38-3.8.03-5.15-.97-.7-.52.04-2.75-.83-3.23-1.7-.56-4.18-.15-5.58.86-1.06-1.3-.01-3.37-1.4-4.44,1.07-1.51,1.69-2.44.54-3.84-1.28-1.56-2.65-.97-4.15.11-1.64-2.43-1.31-6.05-2.06-9.26-.38-1.63-3.6-1.17-5.03-1.97-.15-1.81-.36-3.49-.86-4.93-1.45-4.18-.62-9.07-1.47-14.17,2.31.27,3.58.45,4.24-1.02.7.04,1.9,0,2.02,1.27.15,1.68-.58,3.56.43,5.01.4.58,2.52-.22,3.07.47l.57,10.65c1.73.31,3.33-.18,5.05.36.6,2.06-.4,4.33.78,6.15.44.67,2.55-.29,2.85.88.21.81-.16,1.96.36,2.14l2.23.78c1.43.5.2,3.66.68,5.47,1.58.4,3.14.17,5.09.4.68,1.94.12,3.92.46,6.3l5.15.6.26,5.88c2.07-.07,3.84.08,5.56.44Z"/>
          <path class="cls-80" d="M74.01,160.73l-.24,39.1c-4.95-.29-10.55,0-15.55,0,0-1.57.05-3.15-.04-4.72,1.35-1.85,3.85-.65,6.01-1.23s1.57-5.61-.33-6.21c-1.48-.47-3.22.4-4.38-.33-.93-.59-1.01-3.55-.04-3.92,1.66-.65,4.61.22,5.49-1.06-.63-1.9.51-4.27.62-6.29.08-1.47,2.6-.82,2.69-1.62.55-4.9,1.59-7.85,1.51-13.14,1.45.04,2.96-.04,4.27-.6Z"/>
          <path class="cls-123" d="M57.48,216.59l.72.24c3,1.55,6.46.1,10.26,1.05.05,1.52.37,3.87-.5,5.24-.58.92-2.15.08-3.08.31s-.65,1.54-.19,1.95c1.56,1.38,3.99.17,4,2.01l.06,12.65-10.61.36c-1.51.05-2.94.11-4.79-.58,1.2-2.72-.32-4.82-.39-6.91-.16-5.43,0-11.13.14-16.5,1.38-.77,3.31-.32,4.36.18Z"/>
          <path class="cls-111" d="M64.93,161.19l4.81.13c.08,5.29-.96,8.23-1.51,13.14-.09.8-2.61.15-2.69,1.62-.1,2.02-1.24,4.39-.62,6.29-.88,1.28-3.83.42-5.49,1.06-.96.38-.89,3.33.04,3.92,1.17.74,2.9-.14,4.38.33,1.91.6,2.56,5.61.33,6.21s-4.67-.62-6.01,1.23c-.65-11.31.5-22.7.57-33.8,2.06-.11,4.12-.18,6.17-.13Z"/>
          <path class="cls-77" d="M94,81.08c-3.14-.9-.45-6.06-1.98-7.31,1.37-1.92.3-4.69,1.01-7.05,1.18-.43,3.3.09,4.05-.83.97-1.63-.42-4.32,1.01-5.84.66-.7,2.93.29,3.42-.99.61-1.58-.24-3.38.91-4.75,1.93.03,4.13.77,5.31-.52.74-.87-.13-2.99.39-4.54,1.62-.97,3.62.07,5.04-1.04.07,1.84.59,3.68.21,5.95-1.73.06-4.34-.17-5.25,1.35-.65,1.08.7,4-.99,4.25-1.56.24-3.2.37-4.2,1.07-2.71,1.91-1.49,6.49-1.86,9.88-3.45-.26-1.57,5.77-2.46,9.56-1.8.22-3.19.48-4.61.8Z"/>
          <path class="cls-184" d="M113.48,357.54c-.72-1.89-3.15-1.16-5.31-1.32l-.51-6.28-6.43-.41c-.07-2.54-.44-4.65-1.79-6.3,1.39-1.01,3.88-1.42,5.58-.86.87.47.13,2.71.83,3.23,1.35,1,3.98-.4,5.15.97,1.41,1.66-.46,4.42,1.18,5.74,1.78-.67,2.73-1.14,3.64-.83.85.29,1.95.71,1.74,2.1-.19,1.3.4,2.91-.71,3.63-.75.5-2.44.5-3.39.33Z"/>
          <path class="cls-196" d="M137.05,23.9c0,2.07,1.87,5.55-.53,7.19-.82.56-2.62-.12-3.15.61-1.2,1.66-.04,4.39-1.04,5.13-3.62,2.66-3.19-.63-4.82,1.8-1.01-.29-1.94-1.14-3.04-1.09.91-1.29.37-3.15.43-5.34l6.28-1.54c.13-2.35-.11-4.36.36-6.41l5.53-.36Z"/>
          <path class="cls-177" d="M65.67,257.05c.61,4.14-1.58,9.48-1.36,11.62-1.84.36-4.02.81-5.75-.06-.62-4.28-.08-8.27-.14-12.17,2.44.15,5.01-.49,7.25.61Z"/>
          <path class="cls-122" d="M124.46,37.55c1.1-.05,2.03.8,3.04,1.09-.27,1.93-.12,3.89-2.06,5.24-1.1.77-3.12.2-4.2,1.09-1.02,1.05-1.25,2.76-2.97,2.62-.05-1.76-.56-2.86-.76-4.02.51.08.97-.25,1.37-.53,1.04-.72-.41-4.75,1.18-5.24,1.69-.52,3.18-.21,4.4-.27Z"/>
          <path class="cls-152" d="M137.61,19.02c-.12-2.43-.54-5.58.69-7.96.6-.61,2.83.04,2.77-1.14-.04-.73.07-1.48.07-2.17.54.55,1.12.46,2.56-.14-1.35,1.82-.31,13.86-3.09,13.88-.81,0-2.32.4-2.16-.99.11-.96.03-1.74-.84-1.48Z"/>
          <path class="cls-25" d="M79.12,92.6c-.53,1.35.78,3.59-.25,5.09-.83,1.2-2.34-.07-3.1-.31l.74-4.61c.96-.26,1.83-.05,2.61-.16Z"/>
          <path class="cls-48" d="M71.48,105.99c-.23,1.22.97,3.31-.07,4.58-1.4.95-3.72.12-5.22.84,6.69-2.84,2.45-4.38,5.3-5.41Z"/>
          <path class="cls-60" d="M81.72,211.19c-.41.36.17.9.09,1.27-.61,2.67-.79,5.49-.71,8.24-.89.75-.87,2.3-.82,3.38-2.14.09-1.16,4.68-3.22,6.32-.83.66-2.1.16-3.09.3.07-3.4-.15-6.97-.65-10.48-.17-1.19-2.77-.91-3.42-1.74-1.21-1.55-.67-3.69-.37-5.21.63.34,11.35.04,10.15-2.54.71-.02,1.35.33,2.03.46Z"/>
          <path class="cls-193" d="M116.06,210.78c-.8.88-.03,1.59,0,2.28.07,1.19,1.63,1.48,2.2,2.16.61.73-.03,2.08.87,2.52s3.32-.38,4,.77c1.25,2.12-.33,4.97,1.04,6.82-.16,1.54-.73,3.85-.54,5.49-.92.83-1.89,1.02-3.09.7-.28-2.24-.13-4.83-1.57-6.94-1-1.48-.27-3.54-1.77-5.31.71-1.37-.62-1.87-.92-.68-1.21-.34-2.18-1.11-3.43-.89-1.11.19-2.22-.39-3.32-.32.31-5.21-1.75-2.42-4.16-6.78l10.68.19Z"/>
          <path class="cls-10" d="M105.38,210.59c2.41,4.36,4.47,1.56,4.16,6.78-2.75.18-15.43-.48-12.87,1.36-2.41-2.92-1.73-2.8-2.58-6.01l7.46-.91c.63-.08,1.42.37,1.8-.17.21-.3.8-.5.67-1.07h1.36Z"/>
          <path class="cls-107" d="M104.02,210.57c.13.57-.46.77-.67,1.07-.38.54-1.17.1-1.8.17l-7.46.91c-.92.11-1.93,0-2.6.23-1.58.57-.68,2.48-1.18,3.58-.75,1.65-6.83.23-6.49.46-1.25-.84.26-1.65-.61-3.93-.16-.42-.84-1.13-1.4-.61.08-.37-.5-.91-.09-1.27,7.27-1.53,14.87-.69,22.3-.61Z"/>
          <path class="cls-170" d="M79.69,210.73c1.2,2.58-9.52,2.88-10.15,2.54.34-1.71,2.35-.74,4.03-1.92,1.79-1.26,4.03-.56,6.12-.61Z"/>
          <path class="cls-145" d="M120.56,231.5c.2,1.61.15,4.1-.7,5.67-.37.67-2.23,1.28-2.81,1.67-6.8,1.28-11.43.2-17.77.8,1.03-2.3.95-5.41.79-8.13,4.22-.62,8.94.97,13.53-.46,1.29-.4,2.2-2.88,4.31-2.67,1.45.14-1.53-9.27-1.61-9.81.3-1.19,1.64-.69.92.68,1.5,1.77.77,3.83,1.77,5.31,1.43,2.12,1.28,4.7,1.57,6.94Z"/>
          <path class="cls-187" d="M117.04,238.84c.53,1.51.68,3.81-1.25,4.63-1.16,4.68-5.07,1.93-7.13,3.55-4.28-.12-8.56-.26-12.84-.15-.48.01-.7-.39-1.16-.45.45-1.24.2-3.1,1.28-4.29.55-.28,2.27-.13,2.58-.83l.74-1.66c6.34-.6,10.97.47,17.77-.8Z"/>
          <path class="cls-143" d="M116.29,218.57c.07.54,3.06,9.95,1.61,9.81-2.12-.21-3.02,2.27-4.31,2.67-4.59,1.43-9.31-.16-13.53.46-.13-2.19-.55-4.4-.12-6.59,4.16.03,8.36.21,12.89-.13l.03-7.12c1.25-.22,2.21.55,3.43.89Z"/>
          <path class="cls-29" d="M92.6,231.68c-1.04,1.2-.98,3.11.02,4.82-.75.88-1.25,1.97-2.63,2.62-.8-2.01-2.09-1.96-3.62-1.22l-.2-6c-2.15-.92-3.72.62-5.51.27l-.38-8.1c-.05-1.08-.07-2.64.82-3.38.23-.17.84.13,1.09,0,.57-.34-.11-1.31.12-2.06.45-1.48,2.03-.7,3.16-.57.76.08,1.51,1.31,1.29,2.47-.53,2.81.18,5.27.65,8.47.36,2.47,3.1,2.05,5.19,2.7Z"/>
          <path class="cls-117" d="M109.54,217.36c1.1-.07,2.21.51,3.32.32l-.03,7.12c-4.53.33-8.73.15-12.89.13-.2,0-.4-.21-.61-.23.71-5.63-2.15.26-2.67-5.97-2.56-1.84,10.13-1.19,12.87-1.36Z"/>
          <path class="cls-82" d="M80.67,232.17c.13,2.69-.15,5.38-.49,8.35-2.3.35-4.45.38-6.41-.11l.21-9.71c.98-.14,2.26.36,3.09-.3,2.06-1.64,1.09-6.23,3.22-6.32l.38,8.1Z"/>
          <path class="cls-138" d="M123.81,241.55c-.03,1.57-.74,3.22-.32,4.85-1.4-.03-2.93.16-4.51.31l-.48,4.69c-3.41,1.14-6.85-.29-9.75-.28-.05-1.35-.3-2.75-.09-4.09,2.05-1.61,5.97,1.14,7.13-3.55,1.93-.82,1.78-3.12,1.25-4.63.58-.39,2.45-1,2.81-1.67.85-1.56.9-4.06.7-5.67,1.2.32,2.17.14,3.09-.7.42,3.55.25,7.16.17,10.74Z"/>
          <g>
            <path class="cls-67" d="M94.09,212.72c.85,3.21.16,3.09,2.58,6.01.51,6.23,3.38.34,2.67,5.97-2.17-.96-.81,5.71-1.76,7.2-1.81-.38-3.46.26-4.97-.21-2.09-.64-4.83-.23-5.19-2.7-.47-3.19-1.18-5.65-.65-8.47.22-1.16-.53-2.39-1.29-2.47-1.13-.13-2.71-.91-3.16.57-.23.75.45,1.72-.12,2.06-.24.14-.86-.16-1.09,0-.08-2.74.1-5.56.71-8.24.56-.52,1.24.19,1.4.61.87,2.28-.64,3.09.61,3.93-.34-.23,5.74,1.19,6.49-.46.5-1.1-.39-3.01,1.18-3.58.67-.24,1.68-.12,2.6-.23Z"/>
            <path class="cls-119" d="M92.15,219.5c1.11-.34,1.63.79,2.08,1.35.73.91,0,2.48-.81,2.54-1.48.11-2.83.31-2.92-1.04s.05-2.36,1.65-2.85Z"/>
          </g>
        </g>
        <path class="cls-102" d="M184.29,245.76c-.68.48-1.31-.27-2.3-.6-.88-.3-.31-.67-.36-1.61.6-.17,1.16-.87,2.04-1.05,1.06-.22,1.45.96,1.54,1.49.13.75.07,1.74-.93,1.78Z"/>
        <g>
          <path class="cls-126" d="M251.14,234.87c-.26-.01-.54-.04-.8.03-2.61.73.43-3.52-7.5-2.76-.87-1.22-.27-15.52-1.92-13.63.99-2.07.69-4.42.82-6.66.69.16,2.03-.91,2.23-1.58.25-.82-.08-1.95.3-2.95.83.15,2.88,1.06,3.55.05,1.29-1.96.56-4.54,1.42-6.74.92-.46,1.69.06,2.41-.08l.04,1.26c1.76,1.17,3.37-.31,4.72-.64,3.18-.14,7.02.16,10.31-1.4,1.26-1-.14-3.62-.05-4.64l3.93-1.81c.33-1.91,1.66-4.05-.06-4.95-.1-.05-13.16-1.28-14.11-.81-2.09-.41-.63-2.75-.76-3.96,2.61-.15,5.29.1,8.33-.28.89-.11.95-1.69,1.82-1.68,5.76.02,11.04.18,16.68-.15l.45-4.53c1.59-.94,3.35-.77,5.41-.81.17-3.63-.61-7.18.38-10.52,1.08.4,2.25-.37,3.56.34l.03,4.7c1.39.21,2.34-.19,3.78.43-.13,5.12.27,10.91-.41,15.8-.92.42-2.52.1-3.36.59,2.12-1.22-7.26,11.84-4.99,12.92-1.75.61-3.37.52-5.35.55-.69,1.48-.29,3.13-.62,4.88-1.62.98-3.45.1-5.23.73l-.42,4.45-7.08.77-.36,5.19c-1.98.37-3.77-.06-5.62.53l-.55,3.22c-1.71.13-3.03-.06-4.45.39l-.41,6.35-5.56.52c-.64,2.37.35,4.76-.54,6.86Z"/>
          <path class="cls-113" d="M282.76,161.97c1.25-.24,4.06-.67,4.8.54s-.18,2.95,1.16,3.12c-.98,3.34-.21,6.89-.38,10.52-2.05.04-3.81-.14-5.41.81l-.45,4.53c-5.64.33-10.92.17-16.68.15-.87,0-.94,1.57-1.82,1.68-3.04.38-5.72.13-8.33.28-2.17-.63-.76-5.62-1.98-6.82-.79-.77-2.28.15-3.27-.5-1.18-.78-.86-3.12-.67-4.21,3.49-1.04,7.22-.23,10.82-.68,1.66-.21,3.62.58,5.26.18.25,1.22-.67,2.48.18,3.97l16.31-.12.58-8.92c-1.26-.88-2.56-1-3.74-1.52.35-.24.28-.52-.08-.65.6-1.43,2.17-2.04,3.71-2.34Z"/>
          <path class="cls-92" d="M257.18,157.91c-2.37,7.27,10.42,1.2,14.22,4.11.19,1.4.06,2.94-.15,4.66l-9.94.73c-.58,1.38-.65,2.71-.76,3.96-3.6.45-7.33-.36-10.82.68-.43.13-.9.07-1.35.05l-5.55-.23c-.95-.04-.6-2.32-.18-3.03,1.37-2.31,3.64-.52,5.9-3.51.68-.9-.19-2.23.31-3.11.58-1.02,2.51-.06,3.68-.77,1.07-.65.72-2.57.9-3.46,1.13-.17,2.68.42,3.74-.08Z"/>
          <path class="cls-92" d="M282.76,161.97c-1.54.3-3.11.91-3.71,2.34-.68-.25.04-1.89-.37-2.27-2.2-.75-5.38-1.2-7.29-.02-3.8-2.9-16.59,3.16-14.22-4.11,1.42-.94,2.53-2.08,4.74-1.84,5.96.66,18.27-1.68,20.85,5.9Z"/>
          <path class="cls-55" d="M240.92,218.5c1.66-1.89,1.06,12.41,1.92,13.63,7.92-.75,4.88,3.5,7.5,2.76.72,1.84.27,4.26.17,6.18-.29-5.22-2.42,11.77-2.2,5.73l-.68,18.51c-.17.84-1.77.83-2.61,1.27.37,1.97-2.42,2.36-2.79,3.46-1.44,4.21.74,8.88-1.35,12.64l-10.54-.08c-.55-1.32.54-3.26-.34-4.4s-3.1-.48-4.87-.51l-1.06-5.12c-.04-.51.63-.58.74-1.25l-4.73-.12c.03-1.79-.3-3.01,0-4.3l5.75-.68c.38-1.56-.61-4.18.99-5.16,1.05-.64,4.09.79,4.4-.66,1.75-8.21-.33-16.18-.26-23.59.06-6.95,1.27-14.26.66-21.39,1.22.56,3.15.4,4.41.73,1.14,2.01,2.67,2.9,4.89,2.33Z"/>
          <path class="cls-112" d="M230.96,236.83c-.07,7.41,2.01,15.38.26,23.59-.31,1.44-3.35.02-4.4.66-1.6.97-.61,3.59-.99,5.16l-5.75.68c-.29,1.29.04,2.51,0,4.3l4.73.12c-.11.66-.78.73-.74,1.25-1.47-.63-3.12-.03-4.76-.52-.52-1.54-.37-3.16-.34-4.97l-8.41-1.23c-.27-1.8.02-3.58-.42-5.56-1.85-.12-3.24.36-4.92.13-.85-.11-.86-1.46-.73-1.97.12-.44.3-.96.11-1.39,3.42-.63,6.78-1.48,10.59-1.25.54-1.66-.27-4.03.74-4.23l3.45-.68c1.18-.23.07-3.06.65-4.76,1.4-.59,2.87-.11,4.48-.56.51-2.32.48-4.38-.46-6.68,1.17.35,1.2,1.1,2.08,1.53.47.23,1.32-.61.89-1.19-.82-1.11.07-1.88.06-2.91,1.25.41,2.56.53,3.88.5Z"/>
          <path class="cls-4" d="M236.8,192.91l.02,6.19c-17.2.92-9.34-2.69-13-3.82-.75-.23-.02,2.09.2,4.5-1.98.13-4.75,1.13-6.1-.67l-.48-10.17c.63-1.42,3.26-1.07,3.7-2.55.47-1.57-.07-3.28,1.24-4.14.82-.54,1.9-.81,3.02-.65.5.07,1.13.07,1.42-.36.14-.21-.25-1.18.02-1.41,1.94-1.68,3.9-1.27,5.1.63,1.8,2.86,4.82.83,4.86,12.44Z"/>
          <path class="cls-33" d="M249.74,172.05c-.19,1.09-.51,3.43.67,4.21,1,.66,2.48-.27,3.27.5,1.22,1.2-.2,6.19,1.98,6.82.13,1.21-1.33,3.55.76,3.96-.42,2.47.14,4.98-.04,7.46-2.36.24-.64,3.23-3.96,3.51-.06-2.12-.52-4.1-.76-6.17l-.84-7.29c-.11-.99-1.36.17-1.53-.22-1.32-3.04.19-8.84-.63-7-1.13,2.13-.8-.24-1.53-.54-.41-.16-.88.13-1.45.3-.59-2.63,2.09-.43,3.19-1.92,1.37-1.85-.95-.3-.49-3.58.45.02.92.08,1.35-.05Z"/>
          <path class="cls-96" d="M251.66,192.35c-2.89.78-5.84,1-8.82,1.22-1.87-.34-.87-3.7-1.32-5.99.5-.8,1.97-.24,2.67-.8,2.12-1.72-.23-5.21.35-9.05.41.04.75-.02,1.14-.13.56-.16,1.04-.46,1.45-.3.73.29.4,2.67,1.53.54.82-1.84-.69,3.97.63,7,.17.39,1.41-.77,1.53.22l.84,7.29Z"/>
          <path class="cls-39" d="M244.54,177.73c-.59,3.84,1.77,7.34-.35,9.05-.7.56-2.17,0-2.67.8-.77.19-1.25-.7-2-.63-.71-4.11-3.21-4.97-5.49-11.32,3.93-1.82,3.26-3.48,5.21-2.98,6.58,1.68-.52,2.14,5.3,5.07Z"/>
          <path class="cls-168" d="M241.52,187.58c.45,2.28-.54,5.64,1.32,5.99-.56,4.22.07,5.79-.48,8.26-.02-.36-.1-.73-.25-1.07-.34-.73-4.42-.45-4.86.21.02-.73-.43-1.14-.43-1.87l-.02-6.19c3.91-1.36,1.22-4.4,2.72-5.95.75-.07,1.23.82,2,.63Z"/>
          <path class="cls-131" d="M251.66,192.35c.24,2.07.69,4.05.76,6.17.02.69-.18,1.61-.77,2.02-.72.14-1.49-.38-2.41.08-.86,2.21-.12,4.79-1.42,6.74-.67,1.02-2.72.11-3.55-.05-1.91-.72-2.34-3.51-1.9-5.48.55-2.47-.08-4.04.48-8.26,2.98-.22,5.94-.44,8.82-1.22Z"/>
          <path class="cls-22" d="M266.65,195.12c-3.43.06-6.86-.45-10.28-.11.18-2.48-.38-4.99.04-7.46.95-.47,14.01.75,14.11.81,1.72.91.39,3.04.06,4.95l-3.93,1.81Z"/>
          <path class="cls-79" d="M242.36,201.83c-.44,1.98,0,4.76,1.9,5.48-.37.99-.04,2.13-.3,2.95-.2.67-1.55,1.74-2.23,1.58-3.59-.83-7.35.93-10.78-.51.36-1.58.01-3.21.56-4.76,1.76.1,3.64.05,5.61-.56l.13-5.03c.44-.66,4.52-.94,4.86-.21.16.34.23.71.25,1.07Z"/>
          <path class="cls-50" d="M266.65,195.12c-.09,1.02,1.3,3.65.05,4.64-3.28,1.55-7.12,1.25-10.31,1.4-.19-2.05-.17-4.1-.02-6.15,3.42-.34,6.85.16,10.28.11Z"/>
          <path class="cls-190" d="M241.74,211.83c-.13,2.24.17,4.59-.82,6.66-2.23.58-3.75-.32-4.89-2.33-1.26-.33-3.19-.17-4.41-.73-1.14-.52-2.17-.63-2.57-2.11.35-1.13.96-1.41,1.9-2.01,3.43,1.44,7.2-.32,10.78.51Z"/>
          <path class="cls-68" d="M256.38,195.01c-.15,2.04-.17,4.1.02,6.15-1.34.33-2.96,1.81-4.72.64l-.04-1.26c.6-.4.79-1.33.77-2.02,3.32-.28,1.6-3.27,3.96-3.51Z"/>
          <path class="cls-112" d="M213.3,209.19c.31.86-.1,1.38-.99,1.39-.47,0-.93-.54-1.46-.42-9.65,2.2-5.32-2.11-8.69-1.46-.93.18-1.13.59-1.04,1.57-.07-.68,3.69,4.89,6.87,2.97.1,1.38-.37,2.7.67,2.92.72.15,1.79,1.05,2.52,1-1.36,1.55-.67,3.91-.47,6.75-6.05.6-12.07.3-18.02.19l-.34-6.09c-5.46.48-10.98-1.21-15.91.61l-4.59-1.09c.37-2-.24-4.34-.29-6.34,4.44.05,9.15-1.1,14.12-.4,1.77.25,3.9-.27,4.72-1.52,1.17.46,1.73.5,2.62-.52.58-.67.62-1.37.36-1.99l11.81.6c3.05.16,6.16-.25,8.09,1.83Z"/>
          <path class="cls-18" d="M171.57,211.19c.05,2,.66,4.34.29,6.34-.3,1.61-.39,3.21-.6,5.21-.18,1.69-3.36,1.26-4.43,1.32-.52-.21-1.15-.7-1.42-1.17.26.45.44-4.36.42-4.38-.72-.78-2.2-.47-3.07-.35l-1.99.27c-.33.04.34,1.02-.62.97-.3-.26.24-1.29-.08-1.34-1.37-.19-2.98-.31-4.11-.23-1-1.92-.95-4.41-.79-6.53,5.09-1.5,11.24-.17,16.4-.1Z"/>
          <path class="cls-98" d="M265.81,171.56c2.19-.54,4.17-2.25,6.87-2.1.88.05,1.95.33,2.16-.26l.76-2.13c.38-1.06,3.12-.6,3.54-2.1,1.18.52,2.48.65,3.74,1.52l-.58,8.92-16.31.12c-.85-1.49.07-2.75-.18-3.97Z"/>
          <path class="cls-3" d="M279.06,164.31c.36.13.43.41.08.65-.43,1.5-3.17,1.04-3.54,2.1l-.76,2.13c-.21.59-1.28.31-2.16.26-2.69-.15-4.68,1.56-6.87,2.1-1.64.4-3.6-.39-5.26-.18.11-1.26.18-2.59.76-3.96l9.94-.73c.2-1.72.34-3.26.15-4.66,1.91-1.18,5.09-.73,7.29.02.42.38-.3,2.03.37,2.27Z"/>
          <path class="cls-54" d="M220.14,211.94c2.83-.11,5.43-.36,9.1-.13.28.41-.51.88-.19,1.53.39,1.48,1.43,1.59,2.57,2.11.6,7.13-.6,14.44-.66,21.39-1.31.03-2.62-.09-3.88-.5,0-1.75-.43-3.29-1.97-4.21-.15-.89.25-2.4-.44-2.85.25-2.99.56-6.56.01-10.05-.27-1.69-3.81-1.73-4.69-.66l-1.31-1.26c-1.01-.97,0-3.32-.64-4.68.82-.07,1.21-.66,2.09-.69Z"/>
          <path class="cls-26" d="M224.68,229.28c.68.45.29,1.96.44,2.85,1.54.91,1.96,2.46,1.97,4.21,0,1.04-.89,1.8-.06,2.91.43.58-.42,1.42-.89,1.19-.88-.43-.91-1.17-2.08-1.53.95,2.3.98,4.36.46,6.68-1.61.45-3.07-.03-4.48.56-.58,1.7.53,4.53-.65,4.76l-3.45.68c-1.02.2-.21,2.58-.74,4.23-3.81-.23-7.17.62-10.59,1.25-.81-1.87-.16-3.95-.79-5.88,1.52-.6,3.93-.32,5.26-1.59.96-1.17.24-3.08,1.03-4.48,2.92-.06,5.84.1,8.81-.51-.24-4.1.61-7.48,1.06-11.07.19-1.53-.26-3.15,1.27-4.08.9-.54,2.46-.12,3.43-.19Z"/>
          <path class="cls-1" d="M158.74,272.72c2.39.66,4.98-.33,7.76.25.63,1.42.32,2.85.55,4.31,1.49.47,2.92.43,4.31.37.46,1.61.6,3.19.27,4.83-1.77-.11-4-.14-5.51.85-1.36-.62-3.13-.9-4.64-.85-.88-1.57.35-5.9-2.86-5.6-1.35.12-4.12,1.09-4.88-.43-.87-1.74-.2-4.16-.33-5.89-2.21-.8,8.9,3.15,5.33,2.17Z"/>
          <path class="cls-105" d="M172.16,242.32c.15.73-1.22,1.94-.41,3.07.64.88,1.66.97,3.35.76.52,2.26-.17,4.25.07,6.72,6.71,1.38,6.31-1.93,9.19-.37-1.38,3.36,1.81,1.17,2.12,4.6.08.87-.26,2.45,1.05,2.88,1.62.52,2.97.21,4.13.42,0,.46-.05,1.12.6.82-.6.97.17,2.5.02,3.4l-.92,7.14c-2.91,1.02-5.92.24-8.97.89l-.2,4.49-10.83.52c-1.39.07-2.82.11-4.31-.37-.23-1.46.08-2.89-.55-4.31-2.78-.58-5.37.41-7.76-.25,1.36-4.44-1.18-9.53.18-12.06s1.09-4.58,1.23-6.92c.16-2.62-.06-5.65.85-8.28,7.49.39,1.07-4.83,5.49-8.04,1.03-.75,4.45-1.14,4.73.23l.95,4.66Z"/>
          <path class="cls-209" d="M236.82,199.1c0,.73.45,1.14.43,1.87l-.13,5.03c-1.97.6-3.85.65-5.61.56-2.49-.14-4.87-.17-7.28-.62.32-2.04-.02-4.13-.21-6.16-.22-2.41-.95-4.73-.2-4.5,3.66,1.13-4.2,4.74,13,3.82Z"/>
          <path class="cls-94" d="M224.02,199.78c.19,2.03.52,4.12.21,6.16-1.97-.37-4.23,1.33-6.25.48,0-.94-.74-1.52-1.33-2.05.09-1.2.83-2.81-.42-3.55,1.2.28.67-1.64,1.69-1.71,1.35,1.8,4.13.8,6.1.67Z"/>
          <path class="cls-127" d="M224.23,205.94c2.41.45,4.79.48,7.28.62-.55,1.55-.2,3.19-.56,4.76-.94.6-1.55.88-1.9,2.01-.32-.65.47-1.11.19-1.53-3.67-.22-6.27.03-9.1.13-.85-.81-2.4-.54-2.14-2.06l-.02-3.46c2.02.85,4.28-.85,6.25-.48Z"/>
          <path class="cls-14" d="M218.05,212.63c.65,1.36-.37,3.71.64,4.68l1.31,1.26c-.96-.89-.06,13.15,1.25,10.9-1.54.93-1.08,2.55-1.27,4.08-.46,3.6-1.3,6.97-1.06,11.07-2.97.6-5.88.45-8.81.51-.79,1.39-.07,3.31-1.03,4.48-1.33,1.27-3.74.99-5.26,1.59-1.31.52-3-.29-4.83-.03-.92-1.65-.06-3.34-.78-5.14l-5.55-.17-.49-9.72c-1.87.07-3.59.61-4.61-.47-.76-.82.4-2.54-.48-3.66-.76-.98-2.96-.47-4.06-.5-.2-.03-.65-.12-.66-.6l-.17-6.85c-1.72-.39-5.09.8-5.24-.66l-.5-4.79c4.94-1.82,10.45-.13,15.91-.61l.34,6.09c5.95.11,11.97.41,18.02-.19-.2-2.84-.89-5.21.47-6.75,1.26-.1,2.57-.03,4.01,0,.58-1.67.06-2.97.31-4.34.11-.62,1.09-.77,1.51-.87.45-.11.78.19,1.04.7Z"/>
          <path class="cls-57" d="M176.45,218.62l.5,4.79c.15,1.46,3.53.27,5.24.66l.17,6.85c.01.48.46.57.66.6-.81-.02-2.1.92-2.96.87l-7.35-.44c-.34-.02-.89-.31-1.62.7-.76-1.36-2.91-1.49-4.05-2.92-1.27-1.59.05-4.07-.23-5.67,1.08-.06,4.26.37,4.43-1.32.21-2,.3-3.6.6-5.21l4.59,1.09Z"/>
          <path class="cls-124" d="M213.3,209.19c.7.75,1.27,1.56,2.38,1.32.72-.16,1.44-.58,2.33-.64-.26,1.52,1.29,1.25,2.14,2.06-.88.03-1.27.62-2.09.69-.25-.5-.59-.8-1.04-.7-.42.1-1.4.25-1.51.87-.24,1.37.27,2.68-.31,4.34-1.44-.03-2.75-.1-4.01,0-.74.06-1.8-.85-2.52-1-1.04-.22-.57-1.54-.67-2.92-3.18,1.92-6.94-3.65-6.87-2.97-.1-.97.11-1.39,1.04-1.57,3.37-.65-.96,3.66,8.69,1.46.53-.12.98.42,1.46.42.88-.01,1.29-.53.99-1.39Z"/>
          <path class="cls-49" d="M166.83,224.06c.28,1.61-1.04,4.08.23,5.67,1.14,1.43,3.28,1.55,4.05,2.92.73-1.01,1.27-.72,1.62-.7-1.14.97-.73,2.43-1.02,4.71,1.33-.51,4.5-.59,5.02,1.53.29,1.19-1.1,3.4.8,3.76,1.51.29,3.83.01,4.11,1.59.04.95-.53,1.31.36,1.61.99.33,1.62,1.08,2.3.6l1.35,1.1c-.2-.16.85,6.59-1.28,5.63-.33-1.84-2.26-.65-3.35-1.86.07-1.65-.46-2.78-1.1-3.61s-2.5-.21-3.35-1,.27-2.92-.97-3.54c-1-.5-2.32-.27-3.43-.17l-.95-4.66c-.28-1.37-3.7-.98-4.73-.23-4.41,3.21,2.01,8.43-5.49,8.04-.91,2.62-.69,5.66-.85,8.28-1.44.06-2.8-.24-4.72.08-.12,1.89-.42,3.7-.39,5.39l-4.79.93c.39,2.27-1.59,3.08-2.91,3.81.15-.68-1.98-.4-2.03-.88-.54-5.67.06-10.99-.12-16.24,2.37-.44,5.57-1.41,9.32-.69.89-2.28.35-13.34.71-13.62s.8-.51,1.45-.51l3.43-.02c.4-4.36.14-8.5.06-12.59.96.06.29-.92.62-.97l1.99-.27c.87-.12,2.35-.43,3.07.35.02.02-.16,4.83-.42,4.38.27.47.9.96,1.42,1.17Z"/>
          <path class="cls-183" d="M153.41,270.56c.13,1.73-.54,4.15.33,5.89.75,1.52,3.53.55,4.88.43,3.22-.29,1.98,4.04,2.86,5.6-4.54.16-9.09.46-13.64.31.26-3.15-.36-6.41-.39-9.83l-.09-9.02c1.31-.73,3.3-1.54,2.91-3.81l4.79-.93c.04,1.93,1.03,4.56-.26,6.4-1.18,1.7-1.52,3-1.37,4.95Z"/>
          <g>
            <path class="cls-44" d="M253.44,157.99c-.18.89.18,2.81-.9,3.46-1.17.71-3.1-.26-3.68.77-.5.88.37,2.21-.31,3.11-2.26,2.99-4.53,1.2-5.9,3.51-.42.71-.77,2.99.18,3.03l5.55.23c-.46,3.28,1.86,1.72.49,3.58-1.1,1.49-3.78-.71-3.19,1.92-.39.11-.74.17-1.14.13-5.82-2.93,1.28-3.39-5.3-5.07-1.95-.5-1.28,1.16-5.21,2.98,2.28,6.35,4.78,7.21,5.49,11.32-1.5,1.55,1.19,4.6-2.72,5.95-.04-11.61-3.06-9.58-4.86-12.44-1.2-1.91-3.15-2.31-5.1-.63-.27.23.13,1.19-.02,1.41-.29.43-.92.43-1.42.36-.19-.71-1.02-1.33-.21-2.38l-.99-.77c-.29-.23-1.03-.25-1.18-.58-.69-1.57.92-4.08-.41-5.65-2.29-2.7-2.41-2.9-5.14-4.02.26-.28.46-.85.35-1.2-.17-.53-1.05-.91-1.78-1.12-2.26-.68-2.14-2.84-2.01-4.55-1.89-1.91,1.87,1.44,1.99.32.08-.68-.22-1.03-.12-1.43,2.04.77,2.66,2.93,3.19,5,.36,1.4,3.04.87,4.53.6,1.38-.26.21-3.56,1.23-4.1,1.85-.99,3.69-.08,5.84-.79-1.1-2.2.32-4.12.53-5.97,1.57-13.98.56-28.1.74-42.45l-3.69-.82c-.62-1.26.22-2.48.05-3.66.41-.48,2,.56,2.54.05,1.4-1.29,1.2-4.09.12-5.35.91-1.26-.25-2.98,1.04-3.95,1.49.46,3.14-.36,4.96.46-.07,1.32-.54,2.69.02,3.54s2.18.38,3.32.58c1.86.33.95,2.41,1.01,3.57s1.67,1.09,3.02,1.08l.37,4.49c1.34.47,2.69-.1,3.97.81l.32,42.6c1.75.08,2.82-.18,3.57.08s1.04,1.21.86,2Z"/>
            <path class="cls-120" d="M220.67,87.83c.07.53-.09,1.17.42,1.35.41.14.79-.08,1.09-.11,2.11-.23,3.52,1.62,3.77,3.68.06.52,1.33.61.91,1.31-1.27,2.1-1.86,6.06.49,7.61,1.48.98,2.65,1.52,3.66,1.06,1.08,1.26,1.28,4.05-.12,5.35-.55.51-2.14-.54-2.54-.05-.1-.7-.54-2.17-1.19-2.48-.74-.35-1.69.63-2.37.42.65-1.94-.73-4.39.14-6.55-2-.26-3-.02-4.41-.45-.43-1.81.2-3.69-.85-5.07-.87-.14-1.79.11-2.29-.24-.72-.51-.65-1.32-.58-2.51.1-1.47-1.52-2-2.82-2.01l-37-.14c-.5,1.54.02,2.98-.63,4.12-.72.86-3.95.82-4.39-.29s-.15-2.37-.1-2.96c.1-1.16,2.06-.74,3.02-.91,2.45-.43,1.67-3.32,1.8-5.24.09-1.34,1.84-2.68-.88-3.32-.24-.44.44-1.43.44-2.1,1.85,1.84,3.32,4.24,4.98,6.06,4.23-.5,8.07-.91,11.81-.22,2.86.52,16.58-.52,24.26.09,2.11.17,3.17,2.15,3.37,3.62Z"/>
            <path class="cls-24" d="M153.46,183.6c1.56.5,1.53,2.54,2.37,3.83.6.93,2.03.4,2.77.28.52.73,1.41.5,1.9.59,1.04.19,1.41,1.4,1.09,2.14-.24.55-.55.99-.94,2.15,1.86.85,4.25.75,5.5-.84.32.83.55,1.71.58,2.62-.34.07-.26.39-.44.59-.43.51.71.72.91.99.76,1.4.13,2.88.29,4.18l-11.54-.32c-.41-2.41.86-4.83-.58-7.47-2.69,2.26-5.97,3.08-8.82,2.26.59-.37.52-1.23.82-1.54,1.18-.43,2.32-1.85,2.23-3.07-.1-1.3-.96-2.74-2.33-2.45l-.19-26.9c.06-.07.78-.08.78.22l.12,25.4c.63.84,3.06.93,3.7.36.86-.76.51-2.69,1.79-3.02Z"/>
            <path class="cls-194" d="M149.22,118.85c-.15,1.09-.44,3.2-.02,4.88s4.24.01,4.42,2.21c-.08-1.01-1.78,5.29-1.29,4.38-.48.89-2.13.65-3.06,1.07-.72,2.84-.49,6.46-.6,9.81l-.47,14.07c-.05,1.46-.43,2.37-1.7,2.59-2.09-1.42-1.55-3.69-1.59-5.87l-.09-5.35c-.07-4.31-1.26-29.41,2.4-27.78.7,0,1.31.16,2,0Z"/>
            <path class="cls-104" d="M153.97,106.62c1.01,3.02.88,13.26,1.02,17.14-2.15-1.52-.73-3.13-1.34-4.62-1.53-.28-3.07-.61-4.44-.29.03-.21.36-.65.08-.96-.16-.18-.14-.49-.56-.39.02-.75,3.49-12.94,5.23-10.89Z"/>
            <path class="cls-64" d="M232.03,98.79c-1.29.97-.12,2.68-1.04,3.95-1.01.45-2.18-.09-3.66-1.06-2.34-1.55-1.76-5.51-.49-7.61l4.4.25c.59,1.6-.64,3.45.78,4.48Z"/>
            <path class="cls-92" d="M147.36,193.06c1.02-1.03-.09-4.07-.1-5.52,1.37-.29,2.24,1.15,2.33,2.45.09,1.21-1.05,2.64-2.23,3.07Z"/>
            <path class="cls-92" d="M149.22,118.85c-.68.16-1.3,0-2,0,.36-.34.61-1.6,1.52-1.35.42-.11.4.21.56.39.27.31-.05.74-.08.96Z"/>
            <path class="cls-92" d="M222.18,89.07c-.3.03-.68.26-1.09.11-.5-.18-.35-.83-.42-1.35.5,0,1.09-.2,1.42.32.17.27.29.6.09.92Z"/>
            <path class="cls-179" d="M228.33,108.02c.16,1.18-.67,2.39-.05,3.66l3.69.82c-.18,14.35.83,28.47-.74,42.45-.21,1.85-1.62,3.77-.53,5.97-2.15.71-3.99-.2-5.84.79-1.02.54.16,3.85-1.23,4.1-1.49.28-4.17.81-4.53-.6-.52-2.07-1.15-4.23-3.19-5-1.21-1.38-.09-3.31-.52-4.91,2.57,1.83,1.38-17.04,1.23-18.2-.19-1.55-3.79-1.65-4.78-.87-1.6-2.67-1.04-6.22-.81-9.51,2.08-.2,3.67.17,5.57-.53l.16-7.29c2.33-.56,4.63-.05,7.18-.39.61-4.44-.47-8.66.83-12.54.68.21,1.63-.77,2.37-.42.65.31,1.09,1.79,1.19,2.48Z"/>
            <path class="cls-185" d="M211.84,136.22c.99-.78,4.59-.67,4.78.87.15,1.16,1.33,20.04-1.23,18.2-1.02-.06-2.09.64-3.52.48-.93-.11-.9-1.39-1.3-1.86-.08-1.2.34-2.53-.23-3.87-1.6-.57-4.34.51-5.53-.98-1.26-1.58-.02-4.08-1.67-4.96-.12-2.57-2.38,2.62-4.83-5.67-1.34-.08,3.16-2.43,4.66-3.35.83-.51.91,1.08,1.3,1.46,1.98,1.94,5.86,1.02,7.57-.32Z"/>
            <path class="cls-176" d="M154.43,148.42c1.64,1.46-1.07,7.39.92,13.51,1.41,4.31-.13,8.2,1.31,7.55-.03,3.33.47,6.75.11,10.06-.33,3.06-.02,5.55,1.82,8.16-.74.12-2.16.64-2.77-.28-.84-1.29-.81-3.32-2.37-3.83.35-.64-.77-.71-.99-1.39.14-6.74-.58-13.46.67-20.19,1.23-6.58-1.73-14.3,1.28-13.6Z"/>
            <path class="cls-89" d="M203.14,144.11c1.65.89.41,3.39,1.67,4.96,1.18,1.49,3.93.41,5.53.98.57,1.34.15,2.67.23,3.87-.52-.19-.57.05-.64.3-.13.45-.02.75-.04,1.04l-5.32-.09c2.96-2.1-15.52-.57-14.98-.65.25-.38.12-.84.13-1.28l5.4-.52c4.55-.44,3.05-4.79,3.39-8.29,1.58.23,3.07-.39,4.63-.33Z"/>
            <path class="cls-32" d="M168.84,151.26c.35.46,1.21,1.22,1.65,1.63,1.54,1.44,3.36-.53,4.89-.49.22.26.12.66,0,1.34,4.63.46,9.63-.04,14.33-.49,0,.44.12.9-.13,1.28-2.15.3-3.72,2.32-5.82,2.8-2.76-.72-11.18-3.38-10.9,1.37-.26-.06-.52-.07-.78-.05.95-.97-3.9-4.59-4.09-4.59-.14-.62-.56-1.17-.55-1.91,0-.64.66-1.04,1.4-.89Z"/>
            <path class="cls-188" d="M161.34,145.04c0,1.62-.17,3.31.61,4.78-1.21,0-3.21-.52-4.4.18-1.35.8-.4,2.87-.31,3.81.08.81.15,1.83.78,2.69-.29.19-.8.06-.96.26-.61.76-.07,4.51.28,3.88-.24,2.87-.65,5.92-.68,8.84-1.44.64.1-3.24-1.31-7.55-2-6.12.71-12.05-.92-13.51-.22-.29-.2-.52.14-.69.43.18,1.38.48,1.74-.03-.17-1.11-.04-2.3,1.03-2.94,1.65-1,2.34.1,4.01.27Z"/>
            <path class="cls-200" d="M161.34,145.04c-1.68-.17-2.36-1.28-4.01-.27-1.06.65-1.2,1.83-1.03,2.94-.36.5-1.31.2-1.74.03-1.45-1.78-1.89-11.26,3.17-10.84,2.11.18,2.28,1.33,2.45,3.63.61,8.63,1.16-1.64,1.16,4.51Z"/>
            <path class="cls-9" d="M161.95,149.82c1.58,0,3.21.34,4.82.04.38.92,1.5.64,2.08,1.39-.74-.15-1.39.24-1.4.89,0,.74.41,1.29.55,1.91l-10.76-.24c-.09-.94-1.04-3.01.31-3.81,1.2-.71,3.19-.19,4.4-.18Z"/>
            <g>
              <path class="cls-92" d="M172.37,73.76c.23.23-1.05.86-.84.95l1.18.53c.22.1-.51,1.29-.23,1.27-.53.03,4.05,2.07,3.76,1.77,0,.67-.68,1.66-.44,2.1,2.72.64.97,1.98.88,3.32-.13,1.92.64,4.81-1.8,5.24-.96.17-2.92-.24-3.02.91-.05.6-.34,1.84.1,2.96s3.66,1.15,4.39.29c.65-1.14.13-2.58.63-4.12l37,.14c1.3,0,2.92.54,2.82,2.01-.08,1.19-.14,2,.58,2.51.49.35,1.42.1,2.29.24,1.05,1.38.41,3.25.85,5.07,1.41.43,2.41.2,4.41.45-.88,2.16.5,4.61-.14,6.55-1.29,3.89-.22,8.1-.83,12.54-2.55.34-4.85-.17-7.18.39l-.16,7.29c-1.9.7-3.49.33-5.57.53-.23,3.29-.79,6.84.81,9.51-1.71,1.34-5.59,2.26-7.57.32-.38-.38-.46-1.97-1.3-1.46-1.5.92-6,3.28-4.66,3.35-.37.03-.62.33-.86.29-.1-.02-4.35-5.96-3.78-4.03-.71-2.42-2.29-3.15-3.6-4.69-1.02-1.21-1.2-3.42-3.29-3.5-.39-.8-.03-2.59-1-2.82-1.09-.25-1.77-.49-2.24-.93-.74-.68-.25-1.75-.66-2.55-.59-1.16-5.25-6.47-7.18-9.49l-2.94-4.59c-1.32-2.07-2.17-5.05-4.9-5.97-3.9-1.31,4.05,9.55,3.62,8.39.78,2.13,1.76,2.48,3.03,3.88,2.4,2.66,9.09,12.69,10.11,14.7,1.08,2.13,4.4,3.48,5.58,7,.36,1.07,2.64,2.31,2.09,4.03-1.4,4.37,6.66,1.73,6.21,6.28-.35,3.5,1.16,7.85-3.39,8.29l-5.4.52c-4.7.45-9.7.95-14.33.49.12-.67.21-1.08,0-1.34-2.38-2.85-6.01-4.16-9.07-7.15.11,1.54.59,2.99.45,4.62-1.61.3-3.24-.04-4.82-.04-.78-1.47-.6-3.16-.61-4.78,0-6.15-.55,4.12-1.16-4.51-.16-2.3-.33-3.45-2.45-3.63-5.06-.42-4.61,9.06-3.17,10.84-.34.17-.36.4-.14.69-3.01-.7-.05,7.02-1.28,13.6-1.26,6.73-.54,13.45-.67,20.19.22.68,1.34.75.99,1.39-1.28.32-.94,2.25-1.79,3.02-.64.57-3.08.48-3.7-.36l-.12-25.4c0-.3-.72-.29-.78-.22-.83-.64-.59-1.85-.56-2.79,1.27-.22,1.66-1.13,1.7-2.59l.47-14.07c.11-3.35-.12-6.97.6-9.81.93-.41,2.57-.17,3.06-1.07-.49.91,1.2-5.39,1.29-4.38-.19-2.2-3.98-.46-4.42-2.21s-.13-3.79.02-4.88c1.37-.32,2.91.01,4.44.29.6,1.49-.81,3.1,1.34,4.62-.13-3.88,0-14.12-1.02-17.14.13-.67.89-.96,1.42-1.23.61,1.17,2.48,1.03,3.47.91,1.72-.21,1.96-1.93,1.99-3.64.01-.89.14-2.02-.62-2.33-.37-.15-.94-.08-1.43-.19.89-1.11,1.08-3.08,2.64-3.42.06.6.06,1.47.32,1.92.48.82,4.65.89,4.96.23.45-.94.47-3.74-.87-4.5-.74-.42-1.04.09-1.76.2.19-.96,1.8-.72,2.26-1.63,2.41-4.79,9.22-4.18,6.96-6.73l-1.85-2.09c-.77-.87.75-1.91.78-3.07.07-2.81-1.07-5.1-1.41-7.38.52-.01,1.03-.03,1.54.09Z"/>
              <g>
                <path class="cls-120" d="M176.24,78.29c.29.29-4.28-1.75-3.76-1.77-.29.02.45-1.17.23-1.27l-1.18-.53c-.21-.1,1.07-.72.84-.95,1.99.47,3.87,2.45,3.87,4.53Z"/>
                <g>
                  <path class="cls-205" d="M155.39,105.39c0-2.24,1.18-4.6,3.4-5.25.49.11,1.06.03,1.43.19.76.32.64,1.44.62,2.33-.02,1.71-.27,3.43-1.99,3.64-.99.12-2.86.26-3.47-.91Z"/>
                  <path class="cls-109" d="M164.09,94.57c.72-.11,1.02-.62,1.76-.2,1.35.76,1.32,3.56.87,4.5-.31.66-4.48.59-4.96-.23-.27-.45-.27-1.32-.32-1.92.22-.56.18-1.54.49-1.97.54-.76,1.74.05,2.17-.18Z"/>
                  <path class="cls-95" d="M198.31,138.44c2.44,8.29,4.71,3.1,4.83,5.67-1.56-.06-3.05.57-4.63.33.45-4.55-7.61-1.9-6.21-6.28.55-1.72-1.72-2.95-2.09-4.03-1.18-3.52-4.5-4.87-5.58-7-1.02-2.02-7.71-12.05-10.11-14.7-1.27-1.4-2.24-1.75-3.03-3.88.43,1.16-7.52-9.7-3.62-8.39,2.72.92,3.57,3.9,4.9,5.97l2.94,4.59c1.93,3.01,6.58,8.32,7.18,9.49.41.8-.08,1.86.66,2.55.47.44,1.15.68,2.24.93.97.22.6,2.02,1,2.82,2.09.08,2.27,2.3,3.29,3.5,1.31,1.54,2.89,2.27,3.6,4.69-.57-1.93,3.68,4.01,3.78,4.03.25.04.49-.26.86-.29Z"/>
                  <path class="cls-116" d="M182.2,137.08c1.38,1.11-.4,11.57-.07,11.1-.53.76-1.89.66-2.88.52-1.28-.18-1.37-1.58-1.25-2.85l.79-8.73c.61-.33,2.9-.8,3.41-.03Z"/>
                  <path class="cls-101" d="M175.38,152.4c-1.53-.04-3.35,1.93-4.89.49-.44-.41-1.3-1.17-1.65-1.63-.58-.75-1.7-.47-2.08-1.39.14-1.62-.34-3.07-.45-4.62,3.06,3,6.69,4.31,9.07,7.15Z"/>
                </g>
              </g>
            </g>
            <path class="cls-195" d="M214.03,161.32c-.13,1.72-.25,3.87,2.01,4.55.72.22,1.61.59,1.78,1.12.11.35-.09.92-.35,1.2-1.04,1.13-.72,9.6-.62,11.25.16,2.7.34,5.43-.16,8.12-1.16.28-6.3.92-7.29-.56-.57-2.33,1.13-4.39,1.12-6.63l-.08-18.36c.23-.93.08-1.55,1.18-1.45.89.08,1.79.12,2.41.75Z"/>
            <path class="cls-87" d="M224.2,178.45c1.6.65-5.83.37-7.34.99-.1-1.65-.42-10.12.62-11.25,2.73,1.12,2.85,1.32,5.14,4.02,1.33,1.57-.28,4.08.41,5.65.14.33.89.35,1.18.58Z"/>
            <path class="cls-61" d="M225.4,181.6c-1.12-.16-2.2.11-3.02.65-1.31.86-.77,2.57-1.24,4.14-.44,1.48-3.07,1.13-3.7,2.55-.21-.09-.43-.05-.65-.05.37-.46-.18-.85-.09-1.32.51-2.7.33-5.42.16-8.12,1.51-.62,8.95-.34,7.34-.99l.99.77c-.81,1.05.02,1.67.21,2.38Z"/>
            <path class="cls-207" d="M215.39,155.3c.43,1.61-.68,3.53.52,4.91-.11.4.19.74.12,1.43-.13,1.12-3.89-2.24-1.99-.32-.63-.64-1.53-.67-2.41-.75-1.1-.1-.95.52-1.18,1.45-.01-2.17-.71-4.47-.55-6.75.02-.29-.09-.59.04-1.04.07-.25.12-.49.64-.3.4.46.37,1.75,1.3,1.86,1.44.17,2.51-.53,3.52-.48Z"/>
            <path class="cls-11" d="M171.61,194.94l18.09.65c-1.39.89-.45,2.71-.62,4.11-7.18.66-14.43.62-21.59.42-.16-1.3.47-2.78-.29-4.18-.19-.27-1.34-.48-.91-.99.17-.21.1-.52.44-.59,1.26,1.21,3.26.52,4.89.58Z"/>
            <path class="cls-52" d="M187.63,188.99c-.49-.21-.59-1.82-1.51-1.93-4.91-.55-9.49-.38-14.3,0l-.25,2.58c-.03.32-.16,1.08-.03,1.38-1.82.13-4.05-1.01-5.41.72-1.25,1.6-3.64,1.69-5.5.84.39-1.16.7-1.6.94-2.15.89,1.06,2.07.36,3.22.3,1.59-.09.67-2.31,1.31-3.01,1.42-1.54,1.32-3.37,1.37-5.88l24.43.05c.84,3.21-.1,6.31-1.53,9.08-1.44-.29-1.72-1.55-2.75-1.98Z"/>
            <path class="cls-90" d="M166.11,187.73c-.64.7.28,2.92-1.31,3.01-1.15.06-2.33.76-3.22-.3.32-.74-.05-1.95-1.09-2.14-.49-.09-1.38.15-1.9-.59-1.84-2.61-2.16-5.1-1.82-8.16.77,1.13,2.81.26,3.7.86l.81,6c.21,1.55,3.41,1.07,4.83,1.32Z"/>
            <path class="cls-6" d="M171.55,191.03c.44.99.76,2.83.07,3.91-1.63-.06-3.63.64-4.89-.58-.04-.91-.26-1.79-.58-2.62,1.36-1.73,3.58-.59,5.41-.72Z"/>
            <path class="cls-71" d="M209.89,155.26c-.15,2.28.54,4.58.55,6.75l.08,18.36c-1.72.06-3.72.04-5.41.99.02,2.68.61,5.42-1.13,7.08-3.74.78-.04.88-4.87,3.94-2.14,1.35-.41,3.53-9.41,3.21l-18.09-.65c.7-1.09.38-2.92-.07-3.91-.14-.31,0-1.06.03-1.38-.42.47,18.34.83,16.06-.65,1.03.44,1.31,1.7,2.75,1.98,1.43-2.76,2.37-5.86,1.53-9.08l-24.43-.05c-.06,2.51.05,4.33-1.37,5.88-1.42-.25-4.62.23-4.83-1.32l-.81-6c-.89-.6-2.93.27-3.7-.86.36-3.31-.14-6.73-.11-10.06.02-2.92.44-5.97.68-8.84,1.34-.06,2.66.22,3.98-.03.99,1.79.57,3.73.77,6.02.71.81,2.41.28,2.76,1.3.39,1.13.07,2.16.5,2.56.78.73,3.85.81,4.72-.7.57-.99-.86-1.61-.97-2.28-.44-2.55-.36-4.77-.38-7.03,1.03.03,1.62,0,2.44-.19.55-.12.77-.88.93-1.65.26-.02.52,0,.78.05-.03.33.06.68.27,1,.25.37.96.47,1.72.49l9.29.14c2.74.04,5.52-.21,8.68.1l.3,10.29c2.39.47,4.85.39,7.23-.13.45-3.51.39-6.67.44-10.24,3.01-.29,3.54-2.71,3.77-5.16l5.32.09Z"/>
            <path class="cls-20" d="M204.57,155.17c-.22,2.45-.76,4.87-3.77,5.16-.05,3.57,0,6.73-.44,10.24-2.38.53-4.83.61-7.23.13l-.3-10.29c-3.17-.3-5.94-.05-8.68-.1-.55-.92-.02-2.02-.39-3,2.1-.47,3.67-2.5,5.82-2.8-.54.07,17.94-1.45,14.98.65Z"/>
            <path class="cls-13" d="M168,154.05c.19,0,5.04,3.62,4.09,4.59-.16.77-.38,1.53-.93,1.65-.82.18-1.41.22-2.44.19.02,2.25-.06,4.47.38,7.03.12.67,1.54,1.29.97,2.28-.86,1.51-3.93,1.43-4.72.7-.42-.4-.1-1.43-.5-2.56-.35-1.01-2.05-.49-2.76-1.3-.2-2.29.22-4.23-.77-6.02-.65-1.18.57-3.03-.77-4.71-.74.65-1.67.7-2.53.6-.63-.86-.7-1.89-.78-2.69l10.76.24Z"/>
            <path class="cls-37" d="M183.76,157.32c.37.98-.16,2.08.39,3l-9.29-.14c-.76-.01-1.47-.11-1.72-.49-.22-.32-.31-.67-.27-1-.29-4.76,8.13-2.09,10.9-1.37Z"/>
            <path class="cls-156" d="M161.32,160.62c-1.33.25-2.65-.03-3.98.03-.35.63-.89-3.12-.28-3.88.16-.2.67-.07.96-.26.86.1,1.79.05,2.53-.6,1.34,1.68.12,3.54.77,4.71Z"/>
            <path class="cls-164" d="M216.7,187.57c-.09.47.46.87.09,1.32l-6.81-.07c-3.52,3.42-1.31,5.89-4.65,6.25-.37-.14-.83.17-1.16.14-.37-.03-.15-1.18-.46-1.57-1.13-1.48-3.17-1.68-4.6-1.26,4.83-3.06,1.13-3.16,4.87-3.94,1.87-.39,4.29.34,5.41-1.44,1,1.48,6.13.84,7.29.56Z"/>
            <path class="cls-146" d="M210.52,180.38c.01,2.24-1.69,4.3-1.12,6.63-1.13,1.78-3.55,1.05-5.41,1.44,1.73-1.66,1.15-4.4,1.13-7.08,1.69-.95,3.69-.93,5.41-.99Z"/>
            <path class="cls-128" d="M187.63,188.99c2.28,1.49-16.48,1.12-16.06.65l.25-2.58c4.81-.38,9.39-.55,14.3,0,.92.1,1.02,1.72,1.51,1.93Z"/>
          </g>
          <path class="cls-58" d="M224.68,229.28c-.97.07-2.53-.35-3.43.19-1.31,2.25-2.21-11.79-1.25-10.9.88-1.07,4.43-1.04,4.69.66.55,3.49.24,7.06-.01,10.05Z"/>
          <path class="cls-91" d="M191.66,260.39c-1.16-.21-2.51.1-4.13-.42-1.31-.42-.97-2.01-1.05-2.88.88-.44.47-1.87,1.25-1.84.73.03,2.64-.65,3.34-.05,1.27,1.1.59,3.69.59,5.19Z"/>
          <path class="cls-172" d="M160.15,253.74c-.14,2.34.17,4.31-1.23,6.92s1.18,7.62-.18,12.06c3.56.98-7.54-2.96-5.33-2.17-.15-1.95.19-3.25,1.37-4.95,1.28-1.85.3-4.47.26-6.4-.03-1.69.27-3.5.39-5.39,1.92-.31,3.28-.02,4.72-.08Z"/>
        </g>
        <path class="cls-59" d="M184.37,252.5c-2.89-1.55-2.48,1.75-9.19.37-.24-2.47.45-4.47-.07-6.72-1.69.21-2.71.13-3.35-.76-.82-1.13.56-2.34.41-3.07,1.12-.09,2.43-.32,3.43.17,1.24.61.1,2.73.97,3.54s2.7.17,3.35,1,1.18,1.96,1.1,3.61c1.09,1.2,3.02.01,3.35,1.86Z"/>
        <g>
          <path class="cls-106" d="M276.86,424.37l.42,57.39c-1.35-.38-3.46.02-5.18-.15-2.97-.29-7.04-.88-9.9.43-1.81,1.84-3.06,5.03-4.95,6.42l-2.71,2c-1.17,1.68-.73,4.3-.46,6.59l27.54-.14c-.17-3.53-.88-7.76,1.94-8.52,1.53.55,3.01-.02,5.05.39-.18,2.78.33,5.23.31,7.64s-.02,5.02-.31,7.95l-44.99-.04c.07-4.45.15-7.89-.55-11.19.56-2.52,1.05-5.93.86-9.03,1.29-.74,2.26-.03,3.4-.94.74-17.37-3.15,2.98-3.26-19.55-.77-.33-2.2-.12-2.43-.77l-.4-15.7c-1.88-.39-3.71.17-5.29-.55-.71-7.22.89-10.55-2.94-16.18-1.3-1.08-3.76-.02-5.37-.72-.3-2.1-.11-4.04-.17-5.91,5.37-.62,16.05-.29,21.51-.46,2.17,1.44.23,3.62,1.16,4.95,1.13,1.62,4.28.93,6.25.74l.59-5.63,18.98-.08c.63,0,.76.7.91,1.05Z"/>
          <path class="cls-197" d="M148.79,424.16c-.02,2.85.56,6.28-.72,9.13-.23.51-2.7-.19-2.73.7l-.46,12.89-4.65.31-.4,15.95c-1.29.47-2.55-.1-3.64.77l.15,19.18c0,.78,2.08.45,2.24,1.22.12,3.18.31,5.95.26,8.68l-.23,11.29-52.08.09c-.35-2.82-.26-4.91-.11-7.02,7,.47,14.16.39,21.16-.09,3.01-.21,6.27.47,9.4-.03,1.56-.25-.06-3.24.31-3.82,1.88-1.48,5.57-1.61,5.48-3.93-.05-1.17-3.92-5.99-4.47-5.79.06-.74-.46-1.31-.64-1.99-.85-2.8,3.56-.29,5.9-2.19,1.01-.82.27-2.55.34-4.24-4.06-1.06-8.25-1.92-12.22-.73-.8.24.05,1.73.32,2.42-1.95.06-4.65-.21-6.41,1.26-.53.44.03,1.96-.25,2.31-.5.62-6.94,1.96-7.89.49.25-.88-.04-1.82.26-2.7s2.58-.12,2.96-.73c1.59-3.94.4-8.22,1.05-12.36,1.59-.34,3.04-.16,4.37-.37.62-.1,1.21.2,1.84.14-.1,1.74-.38,3.42-.02,5.53,3.34-.32,6.54.52,9.65-.36,1.58-.92.27-3.97-.06-5.41,1.72.17,4.39-1.25,6.15-1.23,1.43.01,3.4.95,4.91-.57.33-.33,1.85-8.3.7-10.42-.87-1.61-3.59-.57-5.04-.76s-.66-2.93-1.43-3.7c-1.24-1.23-3.71-1.11-5.19-.7-1.26.35-2.4-1.08-3.79-.84-.29-.79.04-2.34-.79-2.73-1.81-.85-3.96-.53-5.64-.24-.2,1.68.77,3.29-.7,3.71.04-2.74-.48-5.53-.11-8.25.46-1.12,1.74-1.81,1.66-3.15.06,1.13,1.77-4.06,2.16-1.91.34,1.86.75,3.83,2.09,4.01.71.1,2.16-.24,2.06-1.38-.27-2.94,1.51-3.78,3.3-5.17.9-.7,1.12-2.46,2.32-2.65,1.04-.17,2.36-.54,2.88,1,.38,1.14.18,2.63.92,3.19.61.46,2.43.15,2.97.72,1.33,2.37-.11,5.5,1.04,7.93.42.9,3.77.8,3.86-.28.23-2.96.53-5.03,2.01-7.49.5-.83,1.72-.66,2.38-.09,1.02.87.05,3.5,1.31,4.69.34.32,2.02.63,2.09-.09,1.15-11.3-1.72-6.95-.24-15.02,3.36.18,6.76-.28,9.41.81Z"/>
          <path class="cls-42" d="M161.41,325.74c-1.14,1.53.11,3.47-.95,5.39-.44.79-2.29.25-3.47.34-1.26,1.77.63,4.89-1,6.37-1.47,1.34.08,3.71-.93,4.75-1.38,1.44-1.29,3.25-2.16,4.75-.98,1.7-1.88,2.23-1.8,5.02.06,2-1.98,4.25-1.16,6.44-1.12-.02-2.69-.39-3.88.33-1.3.79-.17,2.68-.67,3.87-.85,2.04-1.25,3.97-1.39,6.03l-4.67.36c-.44,3.62-.34,7.24-.38,10.51-1.47-.53-1.72,4.83-1.78,5.97-.98.01-3.41-.81-3.82.6-.37,1.24-.1,2.5-.23,3.73-.26,2.61-2.95-3.03-2.26,7.27-2.28-.52-5.01.75-7.17.48-3.55-.44-7.17-.55-10.82-.55.68-7.69-.74-5.33-.75-12.18.52-.02.6-.79,1.15-.68,1.49.26,2.92.47,4.73-.05-.35-5.08.94-10.08-.41-14.75.86-.41,2.31-.84,1.95-2.04l2.91-.43c.62-2.06.39-3.91.59-5.69l.67-5.9c1.46.56,3.13.83,5,.31.11-2.55-.18-4.73.41-7.07l8.6-.7.46-5.2,6.66-.31c.33-1.78.06-3.3,1.06-5.07.68.26.46,1.05,1.26,1.08-.16-1.39-.05-2.1-.37-3.31-.4,1.59-.56,2.05-1.34.9,1.08-1.29.89-2.12.52-2.93.8-.91,2.47-.09,3.46-.59,1.28-.65.6-2.79,1.6-3.83.46-.48,1.67-.62,1.85-1.2.15-.51-.11-1.04.21-1.66.53-1.04,1.86-.48,2.87-.77,1.61,2.08,1.93-3.34,5.26-3.5,0,1.34.74,3.14.17,3.9Z"/>
          <path class="cls-149" d="M276.83,408.11c-.68.25-1.39,1.4-1.32,2.42.05.78,1.31.61,1.94.9,1.01,1.73,2.31,3.25,3.7,4.51s1.43,6.29-.14,7.1c-1.62.57-3.58-.35-4.16,1.34-.15-.35-.28-1.05-.91-1.05l-18.98.08-.59,5.63c-1.97.19-5.12.88-6.25-.74-.93-1.34,1.01-3.51-1.16-4.95-5.46.17-16.14-.15-21.51.46-.73.08-2.63-.46-2.69-1.34-.32-4.33-.47-11.47,1.12-13.6.38.2.14,1.32.77,1.29,1.59-.07,2.56-.04,3.52.09,1.49,2.22-.34,6.01,1.38,6.24,5.7.76,11.08.21,17.12.27.31-2.45.54-4.33.37-6.27.51,0,.89-.38.81-.75.82.07.39-.73.93-1.6-.15,3.48,8.22,2.18,8.86,1.8.55-.32.17-1.44.41-1.85.68-1.16,3.32.02,4.91-1.25.64-.51.25-2.04.94-2.74.51-.52,1.72-.13,2.34-.62.39-.31.32-.82.59-1.35.39-.14.56.18.44.98,2.9,1.31,7.96-1.47,8.45,2.71.09.78.02,1.96-.89,2.3Z"/>
          <path class="cls-70" d="M263.29,326.59c2.3.4,4.59.62,7.65.28.87,2.57.24,4.89.25,7.13-1.14.79-2.51.06-3.96.29-2.79.45.26,8.1-2,9.19-2.53,1.21-5.43-.36-8.03.71l-.34,6.43-20.62.27c.19-3.37-5.03-.55-8.27-2.66-1.41-.92.03-3.81-.54-4.89,1.13-.48,2.33-.51,3.55-.54,1.28-.04,3.88,1.07,4.97-.39.81-2.55-.4-6.51,1.16-8.96.62-.72,3.14,0,3.84-1.13.47-.75.5-1.9.56-2.94l.23-3.99c3.39.5,6.99-.13,10.16,1.56-.51,1.04-.95,2.02-.66,2.59.32.61,2.85.94,4.72.18.79-.32-.25-2.07.42-2.59,1.77-1.36,4.89-.9,6.9-.54Z"/>
          <path class="cls-178" d="M112,476.96c.52,1.31,0,3.68,2.14,3.91,1.26.14,2.53-.33,3.52.82.18.67.7,1.24.64,1.99-1,.54-2.27,2.14-2.48,3.43-.17,1.01.72,2.13.84,3.03.37,2.81-7.66,2.28-9.4,3.42.32,1.86.67,2.69.33,3.7-7,.48-14.16.56-21.16.09.03-.47.03-1.06,0-1.47-.12-2.27-.22-4.62.14-7.07,1.48-.62,4.64.48,4.86-.83l.78-4.68c.17-1,3.06-.1,4.3-.6.81-.33.81-1.06.94-1.68.95,1.47,7.39.14,7.89-.49.28-.35-.29-1.87.25-2.31,1.76-1.46,4.46-1.19,6.41-1.26Z"/>
          <path class="cls-141" d="M271.19,334l.06,22.64-11.88.55-.17,11.09c-1.14-.06-2.3-.75-3.46-.59-.28-.49.2-.57.44-.67.31-.12,1.18.27,1.47.01,1.85-1.68.17-5.72-.01-9.14-3.91-.81-7.7.02-11.25.29-3.16.23-7.6-1.06-10.7-1.27-.15-1.99-.67-4.31.56-6.02l20.62-.27.34-6.43c2.6-1.07,5.5.5,8.03-.71,2.26-1.08-.79-8.73,2-9.19,1.45-.23,2.82.5,3.96-.29Z"/>
          <path class="cls-206" d="M277.28,481.76l6,1.44c.88,1.22.23,3.9.28,5.19-2.82.76-2.1,5-1.94,8.52l-27.54.14c-.27-2.29-.71-4.91.46-6.59l2.71-2c-.81.77,16.71.19,14.7-1.49.71-1.56-.2-3.86.14-5.37,1.72.17,3.84-.23,5.18.15Z"/>
          <path class="cls-92" d="M114.28,407.45c1.31-.09,2.68,0,4.14.51.22.86-.11,1.71.37,2.41l9.42.39c-.23,2.13-1.37,3.51-.34,4.75.37.45,1.59,1.23,2.18.46,1.15-1.5.62-3.78.29-5.24,1.98-.68,4.49-.77,6.61-.33-.08,1.9.44,4.04-.09,6.44,1.06.67-10.71,1.28-10.61,1.3-.74-.12-1.32-.98-2.28-.71-1.82.51,1,3.18-1.39,4.88-.85.61-1.75-.7-2.92-.67.09-.49-.05-1.14-.38-1.5-1.09-1.21-3.78-.09-4.67-.51-1.28-.61-.13-2.89-1.22-3.52-.43-.25-4.42-.56-5.12-.03-.53.41-.54,1.59-.88,2.29-1.21-.24-3.23.47-3.49-1.27-.19-1.29-1-2.05-.53-3.11.29-.65,1.15-.66,2.05-1.1,1.67-.83.53-2.99.52-4.14-.01-1.84,2.12-3.24,1.78-5.15,1.6.73,3.98-.35,5.59.65.3.95-.63,3.31.96,3.21Z"/>
          <path class="cls-15" d="M117.62,447.39c1.99,3.9-.12,10.42,1.56,11.38,1.1.62,2.55.21,3.74.69,1.43.58.79,3.06.73,4.08-1.75-.02-4.43,1.41-6.15,1.23-3.12-.31-6.35-.1-9.57.23-.63.06-1.22-.23-1.84-.14l.59-17.56c1.47-.42.51-2.03.7-3.71,1.68-.3,3.83-.61,5.64.24.83.39.5,1.95.79,2.73,1.39-.24,2.53,1.19,3.79.84Z"/>
          <path class="cls-19" d="M248.33,366.95c2.55-.07,4.84,1.08,7.41.74,1.16-.15,2.32.54,3.46.59l.55,6.21c.08.86,2.45.21,2.66.74,1.11,2.88.31,5.96.6,8.68-.66-.1-.32.58-.61,1.3-3.13-.59-6.25-.88-9.15-.06-2.63-1.06-.92-6.31-2.34-6.8l-2.2-.76c-1.48-.51-.08-3.36-1.34-4.71-1.75-.55-3.95-.88-5.25-2.3-.81-.88.09-2.57-.52-3.45l6.73-.18Z"/>
          <path class="cls-88" d="M268.83,402.11c-.27.52-.21,1.04-.59,1.35-.62.49-1.83.1-2.34.62-.69.7-.3,2.23-.94,2.74-1.59,1.27-4.23.1-4.91,1.25-.24.41.14,1.54-.41,1.85-.65.38-9.01,1.68-8.86-1.8-.54.88-.11,1.67-.93,1.6.97-1.97.36-4.13.49-6.25l5.47-.5c.99-.09,1.91.05,2.64-.53.16-.12-.42-3.28.1-5.02,1.39.1,2.84-.06,4.56-.15l-.06-11.32c.91-.27,1.83.24,1.6-.6,1.13.12,2.22-.34,3.78.35l.4,16.41Z"/>
          <path class="cls-5" d="M105.95,408.74c0,1.15,1.15,3.31-.52,4.14-.9.45-1.77.45-2.05,1.1-.47,1.06.34,1.82.53,3.11.26,1.73,2.27,1.03,3.49,1.27,2.73,5.49-.83,1.9-1.34,10.62,1.62.1,2.31-.93,3.47-.67,3.89,1.85-1.75,2.01-1.29,7.58.08,1.34-1.21,2.03-1.66,3.15-1.89-1.05-2.79-2.78-2.81-5.25l-.11-10.18c-1.2-.57-2.3-.15-3.76-.63-.91-17.35,2.64-6.44,3.08-12.87.1-1.47,2.02-1.51,2.98-1.37Z"/>
          <path class="cls-180" d="M264.65,385.36c.24.84-.68.33-1.6.6l.06,11.32c-1.72.09-3.17.25-4.56.15-2.06-.14-4.14.31-6.13-.51.91-3.64.84-8.1.82-11.78,2.9-.82,6.02-.54,9.15.06.29-.72-.05-1.39.61-1.3.04.41.33,1.16.69,1.5.19.18.58-.09.95-.05Z"/>
          <path class="cls-133" d="M112.9,397.41c3.65,0,7.27.11,10.82.55.34,1.62.17,3.44-.17,5.32l-9.51.12c.04,1.45.44,2.78.25,4.05-1.58.11-.66-2.25-.96-3.21-1.61-1-3.99.08-5.59-.65-.37-2.11.1-4.25.02-6.36,1.73.64,3.45.17,5.14.17Z"/>
          <path class="cls-162" d="M117.61,369.75c1.35,4.68.06,9.67.41,14.75-1.81.52-3.23.31-4.73.05-.38-.34-.35-1.27.11-1.59,1.04-.7-.27-12.33.93-13.48,1.12-.45,2.15.44,3.27.27Z"/>
          <path class="cls-99" d="M112.15,385.23c0,6.86,1.43,4.49.75,12.18-1.69,0-3.41.46-5.14-.17-.14-3.86-.18-7.76.22-11.94,1.81-.34,2.98-.1,4.17-.07Z"/>
          <path class="cls-92" d="M277.45,411.42c-.64-.28-1.89-.12-1.94-.9-.07-1.02.65-2.16,1.32-2.42-.32,1.01.02,2.29.62,3.31Z"/>
          <path class="cls-158" d="M272.1,481.61c-.34,1.51.57,3.8-.14,5.37,2.01,1.68-15.51,2.26-14.7,1.49,1.89-1.39,3.13-4.59,4.95-6.42,2.86-1.31,6.92-.73,9.9-.43Z"/>
          <path class="cls-159" d="M169.35,309.21c-.23.52.29.56.55.7.4.22,1.02-.1,1.56-.15-.5,1.19,0,2.5.39,3.31.54,1.12,1.97.08,3.03.1l23.91.56c.7,2.24.3,3.92.4,5.9l4.85.85c-.67,3.02.28,5.48.29,8.11.02,3.77,0,7.39.1,10.8l.29,9.44c.35,11.37.5,22.35.41,33.15l-.27,33.99-6.19.54-.31,5.8c-1.96.28-3.7.21-5.37.09-1.25-3.22-.55-7.05-.43-10.84l.54-16.26c1.16-1.11,2.82-.7,4.98-.83l.26-19.22-.17-31.14c-.04-6.4,0-12.5-.26-18.99-.26-1.17-3.08-.12-4.12-.11l-11.43.1c0-1.31.12-2.84-.62-4.25-2.09.84-3.84,1.38-5.11-.17-.66,1.39-.89,1.2-1.44.06-.41.28-1.01.37-1.4.44-.97.16-.81-1.39-1.21-1.76-1.39-.59-3.31-.35-5.15-.15l-.09,66.09c-1.87-.13-3.71-.19-5.93-.06l-.52,11.8c-2.43.26-3.76-.33-6.38.66,2.25,4.04-.28,8.01.1,11.17-1.88-.33-3.33-.21-5.14,1-.53.36-9.73,1.05-12.53.47-2.12-.44-4.62-.35-6.61.33-.12-.54.02-.74.03-1.3l12.11.1c.32-4.35-.64-4.18.74-6.09v6.06c9.57.18,2.36,0,10.69-2.18.42-3.11-.42-6.51.37-9.91.49-2.1,3.94-1.86,5.87-1.89.77-3.59-.96-6.98.22-10.13.57-1.52,3.48-.68,5.7-.68v-55.43c0-.83.08-2.04-.14-2.8-.15-.51-1.09-.55-1.7-.78.11-.12,1.78-8.42-.48-6.38-.24-.98-.43-2.42-1.53-2.75-.72-.22-1.76.47-2.25-.76,1.78.35,2.8-.61,3.89-.91.32-.09,1.4.36,1.87.31,2.57-.25-1.96-3.1,3.63-6.01Z"/>
          <path class="cls-139" d="M235.69,356.91c3.1.2,7.54,1.5,10.7,1.27-.09,9.67.05,1.38,1.94,8.77l-6.73.18c-5.21.14-10.65-1.12-16.14-.75l-.59,8.86c-.11,1.71-.3,2.3-.2,4.16l.95,18.24c1.34.07,3.24-.64,3.38.26l.82,5.38c3.87.43,7.57-.03,11.19.04,3.12.06,6.27.45,9.31.17-.12,2.13.48,4.29-.49,6.25.08.37-.3.75-.81.75-6.28-.11-12.64.56-18.86-.24-.96-.12-1.92-.16-3.52-.09-.63.03-.39-1.09-.77-1.29l-.83-5.62c-1.3-.23-2.16-.15-4.13-.17l-1.33-5.8c-.49-2.15.11-5-3.12-5.46-.69-2.07-.01-4.44-1.04-6.46.87.05.76-.97-.41-.74-.21-5.82-.55-11.55-.11-17.86.14-1.96-.71-6.11.3-7.79.11-.19.62-.59.63-.84l.38-17.4c.09-4,.56-7.81,0-11.49,1,.49,2.06-.38,3.33,1.38-4.34,2.51-.08,8.9-1.51,8.42.79.26.84,1.23,1.25,1.8,1.03,1.4,3.57,1.45,3.63,3.71.06,2.48,2.51,2.45,3.86,3.55.58.47-.52,3.05.47,3.36.56.17,1.65.21,2.26.67,1.4,1.04.07,3.33.82,4.65,1.11,1.93,4.02.48,5.34.15Z"/>
          <path class="cls-72" d="M151.27,289.32c-.25.9.69.88,1.62.94,1.55,1.41.56,4.04,2.29,5.29-.03,1.59-.49,3.44.09,5.07l17.05.23c1.44-.08-.84,4.5,2.73,4.91.78.78-.08,1.74-.12,2.68.02,1-1.07.66-.66-.72-1.56-.64-3.43.7-4.94,1.49-5.6,2.91-1.06,5.76-3.63,6.01-.47.05-1.55-.4-1.87-.31-1.08.3-2.1,1.25-3.89.91.49,1.23,1.53.55,2.25.76-.06.3-.79.61-.78.92.02.37,1.6.21,1.36.97-.79,2.53-3.91,2.35-6.05,2.14-1.26,1.32-.66,3.21-.75,4.73-1.01.29-2.34-.27-2.87.77-1.63,1.09-3.53-4.93-1.82-5.49,1.26-.41,3.78.62,4.43-.79.6-1.3-.64-3.46.4-4.57s3.33.06,4.24-.66c1.08-.87.78-3.33.33-4.75-3.87-.33-7.42-.17-10.89-.86l.34-16.31c.02-1.16.83-2.31-.13-3.16.42-.09.82-.16,1.26-.18Z"/>
          <path class="cls-154" d="M207.95,348.93c3.65,1.64-.9,5.79,3.17,8.45,1.1.72,2.4,1.47,4.09,1.58-1.01,1.68-.17,5.83-.3,7.79-.44,6.31-.1,12.04.11,17.86,1.18-.23,1.29.79.41.74-1.61.11-3.53.64-5.34-.29-.65-.53-.12-2.02-.62-2.64l-4.34-.44c.09-10.81-.06-21.78-.41-33.15l-.29-9.44c4.7.06,1.03,6.86,2.39,10.12.65-.33.99-.44,1.15-.57Z"/>
          <path class="cls-51" d="M214.68,288.88c.8,1.47,2.86-.02,4.09,1.23.11,1.48-.64,3.43.44,4.28,1.26.99,3.29.1,4.78.53,1.25,1.96.51,4.33-.45,5.84-2.59.32-4.24-.28-4.34,1.53-.92-.04-.09-.9-.39-1.47l-14.87-.07c-.97-1.77.63-4.1-.08-5.97-.57-1.12-4.85-1.18-5.36-.04-.38,1.76-.42,4.23-.09,5.59l-5.19.05c.33-2.26-.03-4.6-.1-6.86-.04-1.34-.52-2.75-.15-4.06,7.19-.68,14.42-.42,21.71-.59Z"/>
          <path class="cls-40" d="M253.16,301.62c1.07,1.41,2.93.44,4.8,1.21,1.16.48.78,2.73.93,3.61.12.72.03,1.78.29,2.52.08.26-.15.86.41.69-.75.83-1.96,2.32-3.3,2.48l-6.34.74c-.73.08-1.56-.25-1.94.13-.66.66-.38,2,.46,2,.45,0,.49-1.28,1.1-1.37-.55.08,5.35.02,6.01,1.16.62-.22,1.04-1.48,1.47-1.68s1.49-.11,1.65.58c.33.77.13,1.59.21,3.03l-21.09.15c-.91-2.55-2.56-4.86-2.5-7.18l.17-6.05c-.54-1.77,8.68.77,8.17-2.05.22-.04.45-.05.67-.05-2.69,2.45,10.51,2.31,8.83.08Z"/>
          <path class="cls-115" d="M216.23,329.22c.56,3.68.08,7.49,0,11.49l-.38,17.4c0,.25-.52.66-.63.84-1.68-.11-2.98-.86-4.09-1.58-4.07-2.66.48-6.81-3.17-8.45-.39-8.18-.98-15.03-.55-24.04,3.05-.4,5.56,0,8.39-.04.57,1.56.23,3.01.44,4.37Z"/>
          <path class="cls-38" d="M241.75,325.4l-.23,3.99c-2.52.35.16-1.83-1.48-4.11-.27-.38-7.98-1.34-8.21.14-1.5,5.89-1.08,11.78-.85,17.38-1.22.03-2.43.06-3.55.54-1.01-.61-2.23-.77-2.24-2.62l-.15-27.62c0-.93-.49-2.14,0-2.67,1.89-2.04,5.12,1.83,5.5,2.8.84,2.13-.24,4.32.24,6.71l10.17,1.51c.22,1.5.87,2.74.8,3.96Z"/>
          <path class="cls-74" d="M193.22,300.39c-.81,5.46-.92,3.85-1.49,8-3,.13-6.1-.13-9.21.24-2.62.32-5.26.78-7.57-.19.04-.95.9-1.9.12-2.68.69-.96,2.03-1.4,2.35-2.59-1.42,1.14,8.9.5,10.36.47.19-.75.52-10.29-.57-8.9,2.02-.02,4.28-.38,5.91-1.22.07,2.27.43,4.6.1,6.86Z"/>
          <path class="cls-169" d="M198.42,300.34c.62,2.49,1.06,5.09.53,7.96-2.56.34-4.89-.01-7.21.09.58-4.15.69-2.54,1.49-8l5.19-.05Z"/>
          <g>
            <path class="cls-155" d="M224.07,272.59l1.06,5.12c1.77.03,3.96-.67,4.87.51s-.21,3.08.34,4.4l10.54.08c1.55,1.76.12,4.24.85,6.57l7.4.31c1.35.06.63,3.42,1.62,4.37.58.55,2.42.12,2.47,1.59.07,2.2.17,4.21-.06,6.08,1.68,2.23-11.52,2.37-8.83-.08.59.15,1.18,1.3,1.36.07s1.54-2.72.47-3.87c-.78-.84-3.19-.48-3.34.76-.11.92-.25,2.58.84,3.09.51,2.82-8.71.28-8.17,2.05-1.21-.22-3.66-1.88-5.05-.33-1.17,1.31-.47,4.32-.1,6.01,2.08.31,3.46.34,4.98.37-.07,2.33,1.59,4.64,2.5,7.18l21.09-.15c-.07-1.44.13-2.26-.21-3.03,3-1.39,5.48-7.82,6.66-3.28-.3,1.31-1.15,2.07-1.91,3.14,0,4.77.4,8.89-.16,13.03-2.01-.35-5.13-.82-6.9.54-.67.52.37,2.27-.42,2.59-1.87.76-4.4.43-4.72-.18-.29-.57.16-1.55.66-2.59-3.17-1.69-6.77-1.05-10.16-1.56.07-1.21-.58-2.45-.8-3.96l-10.17-1.51c-.48-2.39.59-4.58-.24-6.71-.38-.96-3.61-4.84-5.5-2.8-.49.53,0,1.74,0,2.67l.15,27.62c.01,1.86,1.23,2.01,2.24,2.62.57,1.08-.87,3.97.54,4.89,3.25,2.1,8.46-.71,8.27,2.66-1.23,1.71-.7,4.03-.56,6.02-1.33.33-4.24,1.78-5.34-.15-.76-1.32.58-3.61-.82-4.65-.61-.46-1.7-.49-2.26-.67-.99-.31.11-2.89-.47-3.36-1.35-1.1-3.8-1.07-3.86-3.55-.06-2.26-2.6-2.31-3.63-3.71-.41-.57-.46-1.54-1.25-1.8,1.42.47-2.83-5.91,1.51-8.42-1.27-1.75-2.34-.89-3.33-1.38-.21-1.36.13-2.81-.44-4.37-2.84.03-5.35-.36-8.39.04-.43,9.02.17,15.87.55,24.04-.16.13-.49.24-1.15.57-1.36-3.25,2.31-10.06-2.39-10.12-.1-3.4-.08-7.02-.1-10.8-.01-2.62-.96-5.09-.29-8.11l-4.85-.85c-.1-1.98.3-3.65-.4-5.9l-23.91-.56c-1.07-.03-2.5,1.02-3.03-.1-.39-.81-.89-2.13-.39-3.31-.54.05-1.16.37-1.56.15-.25-.14-.77-.17-.55-.7,1.51-.78,3.38-2.12,4.94-1.49-.4,1.39.69,1.72.66.72,2.31.96,4.95.5,7.57.19,3.11-.38,6.21-.12,9.21-.24,2.32-.1,4.65.25,7.21-.09.54-2.87.09-5.47-.53-7.96-.34-1.37-.29-3.84.09-5.59.51-1.14,4.79-1.08,5.36.04.71,1.87-.89,4.2.08,5.97l14.87.07c.29.57-.53,1.43.39,1.47-.07,1.31-.68,3.74.24,5.44.63,1.12,3.49.19,4.49.08.94,1.08,1.03-.12.44-.88.62-2.38.59-4.72-.83-6.17.95-1.51,1.7-3.88.45-5.84-1.49-.43-3.52.46-4.78-.53-1.08-.85-.33-2.81-.44-4.28-1.23-1.25-3.29.24-4.09-1.23,1.12-.84,1.65-4.99.2-5.49-1.87-.65-3.06-.32-4.42-1.88-.86-.99-1.72-1.57-1.03-3.72-1.47-.85-3.46-.37-4.49-1.29-.62-.92-1-2.37-1.18-3.28.47.27.74-.09.81-.51.48-3.33,2.24.08,5.59-2.01.44-1.2.6-3.54.41-4.81l8.41,1.23c-.03,1.8-.19,3.42.34,4.97,1.65.49,3.29-.12,4.76.52Z"/>
            <path class="cls-17" d="M223.54,300.77c1.42,1.45,1.46,3.79.83,6.17.59.75.5,1.96-.44.88-1,.12-3.86,1.05-4.49-.08-.93-1.7-.31-4.13-.24-5.44.1-1.81,1.75-1.21,4.34-1.53Z"/>
            <path class="cls-167" d="M235.49,303.65l-.17,6.05c-1.53-.03-2.91-.06-4.98-.37-.37-1.69-1.07-4.7.1-6.01,1.39-1.54,3.83.11,5.05.33Z"/>
            <path class="cls-173" d="M209.02,317.79c-.12,1.5-.38,2.63-1.47,2.49-1.67-.23-2.81-.58-2.71-2.31.05-.9-.24-1.92.24-2.67.62-.96,1.91-.25,2.68-.34,1.37-.17,1.37,1.61,1.27,2.84Z"/>
            <path class="cls-137" d="M244.33,301.54c-.23,0-.45.01-.67.05-1.09-.51-.95-2.17-.84-3.09.15-1.24,2.56-1.6,3.34-.76,1.08,1.15-.29,2.58-.47,3.87s-.77.09-1.36-.07Z"/>
          </g>
          <path class="cls-147" d="M123.66,463.53c.06-1.02.7-3.5-.73-4.08-1.19-.48-2.64-.06-3.74-.69-1.69-.96.43-7.47-1.56-11.38,1.47-.41,3.95-.54,5.19.7.77.76-.03,3.51,1.43,3.7s4.17-.85,5.04.76c1.15,2.12-.38,10.09-.7,10.42-1.51,1.52-3.48.59-4.91.57Z"/>
          <path class="cls-45" d="M107.58,497.26c.34-1.01,0-1.84-.33-3.7,1.75-1.13,9.77-.6,9.4-3.42-.12-.91-1.01-2.02-.84-3.03.22-1.29,1.49-2.89,2.48-3.43.55-.2,4.42,4.62,4.47,5.79.09,2.32-3.6,2.46-5.48,3.93-.37.58,1.25,3.57-.31,3.82-3.14.5-6.4-.17-9.4.03Z"/>
          <path class="cls-47" d="M117.66,481.69c-.99-1.15-2.26-.68-3.52-.82-2.14-.23-1.63-2.6-2.14-3.91-.27-.69-1.12-2.18-.32-2.42,3.97-1.19,8.16-.33,12.22.73-.07,1.68.67,3.42-.34,4.24-2.33,1.89-6.75-.61-5.9,2.19Z"/>
          <path class="cls-108" d="M117.51,464.77c.33,1.44,1.64,4.49.06,5.41-3.11.88-6.3.04-9.65.36-.36-2.12-.09-3.8.02-5.53,3.23-.33,6.45-.54,9.57-.23Z"/>
          <path class="cls-171" d="M164.21,325.71c.61.24,1.54.27,1.7.78.23.76.14,1.97.14,2.8v55.43c-2.22,0-5.13-.85-5.7.68-1.17,3.16.55,6.54-.22,10.13-1.94.02-5.39-.21-5.87,1.89-.79,3.4.06,6.8-.37,9.91-8.33,2.17-1.12,2.36-10.68,2.18v-6.06c.63-.89,3.55.03,4.6-.31,2.33-.75.48-4.23.75-5.64.43-1.51.14-3.73.77-5.36.54-1.4,3.27-.53,4.91-.58l1.17-16.56c1.18-.5,2.31.29,4.44-.36.28-2.36.86-6.11-.61-8.07-.83-1.11-3.34-.76-3.98-.21.73-1.62-.03-4.14-.09-6.21.22-.37-4.7.14-4.86,0-.37-.32-.29-.84-.38-1.35-.82-2.19,1.22-4.44,1.16-6.44-.08-2.78.82-3.32,1.8-5.02.86-1.5.78-3.31,2.16-4.75,1-1.05-.54-3.41.93-4.75,1.62-1.48-.27-4.6,1-6.37,1.18-.09,3.03.45,3.47-.34,1.06-1.92-.19-3.86.95-5.39.86-.1,1.95-.36,2.8-.03Z"/>
          <path class="cls-130" d="M144.72,298.18c.76-.52.99,1.16,1.42.97,2.93-1.28.74,7.36,2.2,9.27.61.89,1.21.62,1.46.57,3.46.69,7.02.53,10.89.86.45,1.42.75,3.89-.33,4.75-.9.72-3.19-.46-4.24.66s.2,3.27-.4,4.57c-.65,1.41-3.16.38-4.43.79-1.71.56.19,6.58,1.82,5.49-.32.62-.05,1.15-.21,1.66-.17.59-1.39.73-1.85,1.2-1,1.04-.32,3.18-1.6,3.83-.99.5-2.66-.32-3.46.59-1.47,1.67-3.93,1.24-6.01,1.47-.41,1.05-.55,2.59-1.21,3.19-.82.75-1.78.56-3.02.7l-6.04.72c-1.04-3.19.31-7.66,0-10.85,2.36-.61,5.75.48,7.03-1.42,1.09-1.6.98-14.2.19-17.04-1.88.41-2.77,1.01-3.89.62-.87-.3-.82-1.35-1.4-1.97-.23-.33,0-1.04.21-1.33.14-.18.69-.31,1.18-.31l4.28-.03c-.2-1.71-.76-3.5.6-4.34,1.37-.17,2-1.66,2.1-3.06,1.5-1.38,3.32-.62,4.7-1.56Z"/>
          <path class="cls-83" d="M149.96,358.81c.09.5,0,1.03.38,1.35.15.13,5.08-.38,4.86,0,.05,2.07.82,4.6.09,6.21-1.25,2.77.31,6.16.15,8.64l-1.17,16.56c-1.64.05-4.37-.82-4.91.58-.63,1.63-.33,3.85-.77,5.36-1.98.38-4.63-.81-6.72.76-1.32.99-.97,3.63-1.51,4.84-2.1.4-4.04.19-5.87.13.44-1.81-.27-3.65-.03-5.49,4.72.12,2.4-5.71,2.75-11.86.06-1.14.31-6.5,1.78-5.97.64-.08,1.35-.45,1.89-.57.88-.19.01-3.69,1.03-4.38.41-.27,1.62-.01,1.86-.52.82-1.73.16-3.86.26-5.41.14-2.06.54-3.99,1.39-6.03.5-1.19-.64-3.08.67-3.87,1.19-.72,2.76-.35,3.88-.33Z"/>
          <path class="cls-2" d="M123.73,355.69c.2-1.74.89-3.61.07-5.22,2.01,1.27.12-3.8,4.81-5.26l1.1-5.73,6.04-.72c1.24-.15,2.2.04,3.02-.7.66-.6.8-2.13,1.21-3.19,2.09-.24,4.54.19,6.01-1.47.37.81.57,1.64-.52,2.93.78,1.15.94.69,1.34-.9.32,1.21.21,1.92.37,3.31-.8-.03-.58-.82-1.26-1.08-1,1.77-.73,3.29-1.06,5.07l-6.66.31-.46,5.2-8.6.7c-.59,2.34-.3,4.52-.41,7.07-1.87.52-3.54.25-5-.31Z"/>
          <path class="cls-166" d="M130.89,397.48c1.05.24,2.53.23,3.56.25-.24,1.84.46,3.68.03,5.49-1.25-.04-2.55.34-4.07.38l-.04,5.83c0,.56-.15.76-.03,1.3-.59-.5-1.52.05-2.12.03l-9.42-.39c-.48-.7-.15-1.55-.37-2.41-1.45-.51-2.82-.6-4.14-.51.19-1.26-.21-2.59-.25-4.05l9.51-.12c.34-1.87.51-3.7.17-5.32,2.16.27,4.88-1.01,7.17-.48Z"/>
          <path class="cls-186" d="M137.19,385.87c-.35,6.15,1.97,11.98-2.75,11.86-1.02-.03-2.51-.01-3.56-.25-.7-10.3,2-4.66,2.26-7.27.12-1.23-.14-2.49.23-3.73.42-1.41,2.84-.59,3.82-.6Z"/>
          <path class="cls-203" d="M164.21,325.71c-.85-.33-1.94-.06-2.8.03.57-.77-.18-2.56-.17-3.9-3.33.16-3.65,5.57-5.26,3.5.09-1.51-.51-3.4.75-4.73,2.14.22,5.26.39,6.05-2.14.23-.76-1.34-.6-1.36-.97-.01-.31.72-.62.78-.92,1.1.33,1.29,1.76,1.53,2.75,2.25-2.04.58,6.26.48,6.38Z"/>
          <path class="cls-66" d="M144.02,369.03c-.11,1.55.56,3.68-.26,5.41-.24.51-1.45.25-1.86.52-1.02.68-.15,4.18-1.03,4.38-.54.12-1.25.49-1.89.57.04-3.27-.06-6.89.38-10.51l4.67-.36Z"/>
          <path class="cls-118" d="M249.03,410.47c.17,1.94-.05,3.82-.37,6.27-6.03-.06-11.41.49-17.12-.27-1.71-.23.11-4.02-1.38-6.24,6.22.8,12.58.13,18.86.24Z"/>
          <path class="cls-201" d="M241.53,329.39c-.06,1.04-.09,2.19-.56,2.94-.71,1.13-3.23.41-3.84,1.13-1.56,2.45-.35,6.4-1.16,8.96-1.09,1.46-3.69.35-4.97.39-.23-5.6-.65-11.49.85-17.38.23-1.47,7.94-.52,8.21-.14,1.63,2.27-1.04,4.46,1.48,4.11Z"/>
          <path class="cls-31" d="M260.55,308.99c0,.42-.32,1.02-.95.67-.56.17-.33-.42-.41-.69.45-.31.9.18,1.37.02Z"/>
          <path class="cls-163" d="M255.74,367.69c-2.57.34-4.86-.81-7.41-.74-1.89-7.39-2.03.9-1.94-8.77,3.55-.26,7.34-1.09,11.25-.29.18,3.42,1.87,7.47.01,9.14-.28.25-1.15-.14-1.47-.01-.24.09-.72.18-.44.67Z"/>
          <path class="cls-30" d="M119.66,421.63c0,3.63-7.97-1.91-7.61,4.63-.72,1.26-2.66.52-2.52,2.05-1.17-.26-1.86.77-3.47.67.51-8.72,4.07-5.13,1.34-10.62.34-.7.35-1.88.88-2.29.69-.54,4.69-.22,5.12.03,1.09.63-.06,2.91,1.22,3.52.89.42,3.58-.7,4.67.51.33.36.47,1.01.38,1.5Z"/>
          <path class="cls-148" d="M130.33,410.73c.33,1.46.86,3.73-.29,5.24-.59.77-1.81,0-2.18-.46-1.03-1.24.11-2.62.34-4.75.61.03,1.53-.53,2.12-.03Z"/>
          <path class="cls-65" d="M241.6,367.12c.61.87-.29,2.56.52,3.45,1.3,1.42,3.5,1.75,5.25,2.3,1.26,1.35-.14,4.2,1.34,4.71l2.2.76c1.42.49-.3,5.74,2.34,6.8.01,3.68.08,8.14-.82,11.78-3.54,1.74-7.6-.15-11.25,1.07-.58-.83-1.75-.21-3.03-.66l-.65-11.33c-1.85-.53-3.71-.05-5.69-.4-.08-9.07-.4-2.78-1.69-10.43-1.95-.46-3.58.25-5.24.06l.59-8.86c5.49-.37,10.93.88,16.14.75Z"/>
          <path class="cls-140" d="M258.54,397.43c-.51,1.74.06,4.9-.1,5.02-.73.58-1.65.44-2.64.53l-5.47.5c-3.04.28-6.19-.12-9.31-.17l.15-5.31c3.64-1.22,7.71.67,11.25-1.07,1.98.82,4.06.37,6.13.51Z"/>
          <path class="cls-125" d="M198.33,375.26c-1.65-.19-3.43-.15-5.36.68-.19,6.62.33,13.08.13,19.37l-.54,16.26c-.13,3.79-.83,7.62.43,10.84-.73,1.34-.19,2.87-.69,4.51-1.68.25-3.2-.07-4.91.41l-.2,4.48c-.05,1.05-.16,1.8-.83,2.37-.59.5-1.24-.01-2.03.16-.33-1.01-1.38-.11-1.68-.56-.55-.82-.58-1.75-.56-2.65.2-7.33.45-14.32-.21-21.42-.11-1.15-1.64-.76-2.22-.98-1.1-1.06-.6-2.75-.38-4.45l-6.43-1.17.31-37.11c2.45.44,4.31.06,5.74-1.54.47-.53,3.4.45,3.4-.83l.06-38.5,11.43-.1c1.04,0,3.86-1.06,4.12.11.26,6.49.23,12.6.26,18.99l.17,31.14Z"/>
          <path class="cls-41" d="M182.35,325.11l-.06,38.5c0,1.28-2.93.3-3.4.83-1.43,1.6-3.28,1.98-5.74,1.54l-.31,37.11,6.43,1.17c-.21,1.7-.71,3.4.38,4.45-.59-.22-1.73.32-2.54.87-.05-3.56-4.71-.99-7.09-2.66-.46-.81-.57-3.09-2.31-3.67-.39-5.49-.38-12.09-.37-17.89l.09-66.09c1.84-.2,3.76-.45,5.15.15.39.37.24,1.92,1.21,1.76.38-.06.99-.16,1.4-.44.55,1.14.78,1.33,1.44-.06,1.27,1.55,3.02,1.01,5.11.17.74,1.41.62,2.94.62,4.25Z"/>
          <path class="cls-153" d="M179.65,408.72c.58.22,2.12-.18,2.22.98.66,7.09.41,14.09.21,21.42-.02.9,0,1.83.56,2.65.3.44,1.35-.46,1.68.56-1.25.27-1.7,1.35-1.58,3.08s-4.96,2.24-5.12.66c-.97-9.92-.37-19.19-.51-28.47.81-.55,1.95-1.09,2.54-.87Z"/>
          <path class="cls-69" d="M148.57,397.5c-.27,1.41,1.58,4.88-.75,5.64-1.05.34-3.97-.58-4.62.31-1.38,1.91-.42,1.74-.74,6.09l-12.11-.1.04-5.83c1.53-.04,2.83-.42,4.07-.38,1.84.06,3.77.27,5.87-.13.54-1.21.19-3.84,1.51-4.84,2.08-1.57,4.74-.38,6.72-.76Z"/>
          <path class="cls-175" d="M198.33,375.26l-.26,19.22c-2.16.13-3.82-.28-4.98.83.21-6.29-.32-12.75-.13-19.37,1.93-.82,3.72-.87,5.36-.68Z"/>
          <path class="cls-103" d="M241.17,397.99l-.15,5.31c-3.63-.07-7.32.39-11.19-.04l-.82-5.38c-.14-.89-2.04-.18-3.38-.26l-.95-18.24c-.1-1.86.09-2.45.2-4.16,1.66.18,3.28-.53,5.24-.06,1.29,7.65,1.61,1.37,1.69,10.43,1.98.35,3.84-.13,5.69.4l.65,11.33c1.28.45,2.44-.17,3.03.66Z"/>
          <path class="cls-86" d="M192.97,289.46c-.37,1.32.11,2.72.15,4.06-1.63.84-3.88,1.2-5.91,1.22-3.11.04-6.22-.59-9.59.11.05,3.07-.77,5.77-.21,8.31-.32,1.2-1.66,1.64-2.35,2.59-3.58-.41-1.29-4.99-2.73-4.91,1.05-2.07.17-4.44.47-6.62.22-1.58,1.15-3.17.84-4.8,6.33-1.37,12.97.63,19.34.03Z"/>
          <path class="cls-150" d="M166.58,288.73c2.07-.04,5.02,1.14,7.06.7.31,1.64-.62,3.22-.84,4.8l-15.46.18c-1.19.01-2.06-.03-2.15,1.14-1.74-1.25-.74-3.87-2.29-5.29-.93-.06-1.86-.04-1.62-.94,2.8-.17,5.64-.74,8.68-.21,2.27.39,4.55-.34,6.62-.38Z"/>
          <path class="cls-165" d="M172.8,294.23c-.3,2.18.58,4.55-.47,6.62l-17.05-.23c-.59-1.64-.12-3.49-.09-5.07.1-1.17.96-1.12,2.15-1.14l15.46-.18Z"/>
          <path class="cls-191" d="M150.02,289.51c.96.85.15,2,.13,3.16l-.34,16.31c-.25.04-.86.31-1.46-.57-1.46-1.9.73-10.55-2.2-9.27-.44.19-.67-1.48-1.42-.97.54-2.84.83-5.99-.1-8.75l2.71-.62c.85.04,1.74.91,2.69.7Z"/>
          <g>
            <path class="cls-62" d="M154.61,408.93c.35,2.88,1.04,11.71-.2,14.89-1.87-.88-4.15-.25-5.61.35-2.65-1.09-6.05-.63-9.41-.81-1.47,8.08,1.39,3.73.24,15.02-.07.72-1.75.41-2.09.09-1.26-1.19-.29-3.82-1.31-4.69-.66-.57-1.88-.74-2.38.09-1.48,2.47-1.78,4.53-2.01,7.49-.08,1.08-3.43,1.17-3.86.28-1.15-2.43.29-5.56-1.04-7.93-.54-.57-2.36-.26-2.97-.72-.74-.56-.54-2.05-.92-3.19-.51-1.54-1.84-1.17-2.88-1-1.2.2-1.42,1.95-2.32,2.65-1.79,1.4-3.57,2.23-3.3,5.17.11,1.14-1.35,1.48-2.06,1.38-1.34-.19-1.74-2.16-2.09-4.01-.4-2.15-2.1,3.03-2.16,1.91-.47-5.57,5.17-5.73,1.29-7.58-.14-1.53,1.79-.79,2.52-2.05-.35-6.54,7.61-1,7.61-4.63,1.17-.02,2.06,1.28,2.92.67,2.39-1.7-.43-4.37,1.39-4.88.95-.27,1.54.6,2.28.71-.1-.02,11.67-.63,10.61-1.3.54-2.4.01-4.54.09-6.44,2.8.58,12-.11,12.53-.47,1.8-1.22,3.26-1.33,5.14-1Z"/>
            <path class="cls-46" d="M153.88,422.82c-2.16-.38-3.02-.59-4.85-.42.28-1.91-.39-3.67.07-5.3.33-1.16,3.68-2.07,4.49-1.17,1.11,1.77.18,4.23.29,6.9Z"/>
          </g>
          <path class="cls-34" d="M155.42,375c.17-2.48-1.4-5.87-.15-8.64.65-.56,3.15-.9,3.98.21,1.46,1.96.89,5.71.61,8.07-2.14.65-3.26-.14-4.44.36Z"/>
          <path class="cls-21" d="M131.65,308.81c.57.63.52,1.67,1.4,1.97,1.12.39,2.01-.21,3.89-.62.79,2.84.89,15.44-.19,17.04-1.29,1.9-4.68.81-7.03,1.42-.64-6.65-.4-13.42-.36-20.18.53.07,1.88-.07,2.3.37Z"/>
          <path class="cls-85" d="M137.93,302.79c-1.36.84-.8,2.63-.6,4.34l-4.28.03c-.49,0-1.05.14-1.18.31-.22.29-.45,1-.21,1.33-.42-.44-1.77-.3-2.3-.37.03-4.24-1.17-9.06.2-13.33.41-1.27,2.33-2.53,1.65-4.92,1.22-1.43,4.66-1,6.44-1.06-.88,4.49-.15,9.1.29,13.65Z"/>
          <path class="cls-129" d="M144.61,289.43c.94,2.76.64,5.91.1,8.75-1.37.94-3.2.18-4.7,1.56-.1,1.4-.72,2.88-2.1,3.06-.44-4.56-1.18-9.16-.29-13.65,2.31-.07,4.8-.48,6.98.29Z"/>
          <g>
            <path class="cls-81" d="M187.22,294.75c1.09-1.39.76,8.14.57,8.9-1.47.03-11.78.66-10.36-.47-.57-2.55.25-5.25.21-8.31,3.37-.7,6.48-.08,9.59-.11Z"/>
            <path class="cls-135" d="M185.4,300.76c-2.22.49-4.73-.26-7.04-1.89-.91-1.56,8.57-1.78,7.62-1.93.79.13.9.94,1.03,1.65.23,1.19-.28,1.88-1.62,2.17Z"/>
          </g>
        </g>
      </g>
    </g>
  </g>
</svg>