<?xml version="1.0" encoding="UTF-8"?>
<svg id="_レイヤー_2" data-name="レイヤー 2" xmlns="http://www.w3.org/2000/svg" xmlns:xlink="http://www.w3.org/1999/xlink" viewBox="0 0 325.88 512">
  <defs>
    <style>
      .cls-1 {
        fill: #b19291;
      }

      .cls-2 {
        fill: #deeff5;
      }

      .cls-3 {
        fill: #856776;
      }

      .cls-4 {
        fill: #ebf6f8;
      }

      .cls-5 {
        fill: #fefeff;
      }

      .cls-6 {
        fill: #c9dfec;
      }

      .cls-7 {
        fill: #7d5d70;
      }

      .cls-8 {
        fill: #8d6b74;
      }

      .cls-9 {
        fill: #6a5d7e;
      }

      .cls-10 {
        fill: #b1c7e0;
      }

      .cls-11 {
        fill: #856371;
      }

      .cls-12 {
        fill: #b3cce1;
      }

      .cls-13 {
        fill: #8e6c76;
      }

      .cls-14 {
        fill: #828cb1;
      }

      .cls-15 {
        fill: #98adcd;
      }

      .cls-16 {
        fill: #bed8e9;
      }

      .cls-17 {
        fill: #806276;
      }

      .cls-18 {
        fill: #9d7c81;
      }

      .cls-19 {
        fill: #8e6f7c;
      }

      .cls-20 {
        fill: #ac8783;
      }

      .cls-21 {
        fill: #fdfeff;
      }

      .cls-22 {
        fill: #cce0ef;
      }

      .cls-23 {
        fill: #d7ecf2;
      }

      .cls-24 {
        fill: #92a4c6;
      }

      .cls-25 {
        fill: #bdd6e7;
      }

      .cls-26 {
        fill: #8f7480;
      }

      .cls-27 {
        fill: #dce2ee;
      }

      .cls-28 {
        fill: #7a596e;
      }

      .cls-29 {
        fill: #838fb4;
      }

      .cls-30 {
        fill: #8293b8;
      }

      .cls-31 {
        fill: #dde1ed;
      }

      .cls-32 {
        fill: #8a90b2;
      }

      .cls-33 {
        fill: #91a4c6;
      }

      .cls-34 {
        fill: #7a586e;
      }

      .cls-35 {
        fill: #8799bb;
      }

      .cls-36 {
        fill: #c8c1ce;
      }

      .cls-37 {
        fill: #f8fafd;
      }

      .cls-38 {
        fill: #f0cbb4;
      }

      .cls-39 {
        fill: #896878;
      }

      .cls-40 {
        fill: #a8c0da;
      }

      .cls-41 {
        fill: #e4f3f6;
      }

      .cls-42 {
        fill: #7f86ab;
      }

      .cls-43 {
        fill: #a3bbd7;
      }

      .cls-44 {
        fill: #73526c;
      }

      .cls-45 {
        fill: #dfa796;
      }

      .cls-46 {
        fill: #6d6383;
      }

      .cls-47 {
        fill: #f1f9f9;
      }

      .cls-48 {
        fill: #b8917b;
      }

      .cls-49 {
        fill: #d2998d;
      }

      .cls-50 {
        fill: #bdc0d8;
      }

      .cls-51 {
        fill: #f5d7ba;
      }

      .cls-52 {
        fill: #d7eaf4;
      }

      .cls-53 {
        fill: #a2bbd7;
      }

      .cls-54 {
        fill: #8c9cbf;
      }

      .cls-55 {
        fill: #75566f;
      }

      .cls-56 {
        fill: #ddf0f4;
      }

      .cls-57 {
        fill: #c4d9ea;
      }

      .cls-58 {
        fill: #dee1ef;
      }

      .cls-59 {
        fill: #b5cfe4;
      }

      .cls-60 {
        fill: #f4cfb9;
      }

      .cls-61 {
        fill: #a38387;
      }

      .cls-62 {
        fill: #b3cbe2;
      }

      .cls-63 {
        fill: #c8e0ec;
      }

      .cls-64 {
        fill: #d4eaf2;
      }

      .cls-65 {
        fill: #78586f;
      }

      .cls-66 {
        fill: #716485;
      }

      .cls-67 {
        fill: #7d5d73;
      }

      .cls-68 {
        fill: #70516c;
      }

      .cls-69 {
        fill: #93747d;
      }

      .cls-70 {
        fill: #836373;
      }

      .cls-71 {
        fill: #b5cde2;
      }

      .cls-72 {
        fill: #9e9cae;
      }

      .cls-73 {
        fill: #a3858b;
      }

      .cls-74 {
        fill: #f4d2b8;
      }

      .cls-75 {
        fill: #937781;
      }

      .cls-76 {
        fill: #a9c2db;
      }

      .cls-77 {
        fill: url(#_名称未設定グラデーション_36);
      }

      .cls-78 {
        fill: #bdd1e7;
      }

      .cls-79 {
        fill: #cea983;
      }

      .cls-80 {
        fill: #ddeef4;
      }

      .cls-81 {
        fill: #704f6a;
      }

      .cls-82 {
        fill: #d3e9f1;
      }

      .cls-83 {
        fill: #cae1ee;
      }

      .cls-84 {
        fill: #7d82a9;
      }

      .cls-85 {
        fill: #aac0d9;
      }

      .cls-86 {
        fill: #e8ebf4;
      }

      .cls-87 {
        fill: #8183a7;
      }

      .cls-88 {
        fill: #f4f8fc;
      }

      .cls-89 {
        fill: #cae0ec;
      }

      .cls-90 {
        fill: #edf7f8;
      }

      .cls-91 {
        fill: #cfe3f0;
      }

      .cls-92 {
        fill: #c5dceb;
      }

      .cls-93 {
        fill: #b3cde1;
      }

      .cls-94 {
        fill: #79586d;
      }

      .cls-95 {
        fill: #977b85;
      }

      .cls-96 {
        fill: #7f5e73;
      }

      .cls-97 {
        fill: #f9fcfe;
      }

      .cls-98 {
        fill: #7a586c;
      }

      .cls-99 {
        fill: #d4e8f2;
      }

      .cls-100 {
        fill: #7c5f78;
      }

      .cls-101 {
        fill: #f0f8f8;
      }

      .cls-102 {
        fill: #7d5b6f;
      }

      .cls-103 {
        fill: #e3e7f3;
      }

      .cls-104 {
        fill: #694a66;
      }

      .cls-105 {
        fill: #c9e0ec;
      }

      .cls-106 {
        fill: #8b9abf;
      }

      .cls-107 {
        fill: #a0b7d4;
      }

      .cls-108 {
        fill: #8c6873;
      }

      .cls-109 {
        fill: #cbe2ed;
      }

      .cls-110 {
        fill: #775f77;
      }

      .cls-111 {
        fill: #8b6a75;
      }

      .cls-112 {
        fill: #936f76;
      }

      .cls-113 {
        fill: #7b5c70;
      }

      .cls-114 {
        fill: #906d75;
      }

      .cls-115 {
        fill: #806478;
      }

      .cls-116 {
        fill: #c29d8e;
      }

      .cls-117 {
        fill: #80626d;
      }

      .cls-118 {
        fill: #766b8b;
      }

      .cls-119 {
        fill: #947781;
      }

      .cls-120 {
        fill: #967b84;
      }

      .cls-121 {
        fill: #dfdfe8;
      }

      .cls-122 {
        fill: #acc6de;
      }

      .cls-123 {
        fill: #c8a89b;
      }

      .cls-124 {
        fill: #837f9c;
      }

      .cls-125 {
        fill: #6a4b67;
      }

      .cls-126 {
        fill: #f4d4bb;
      }

      .cls-127 {
        fill: #7a7b9e;
      }

      .cls-128 {
        fill: #a3b9d6;
      }

      .cls-129 {
        fill: #bdd6e6;
      }

      .cls-130 {
        fill: #a1b8d5;
      }

      .cls-131 {
        fill: #d0e3f1;
      }

      .cls-132 {
        fill: #e0ad99;
      }

      .cls-133 {
        fill: #746b8c;
      }

      .cls-134 {
        fill: #7c7190;
      }

      .cls-135 {
        fill: #7c5a6f;
      }

      .cls-136 {
        fill: #78576d;
      }

      .cls-137 {
        fill: #9eb6d3;
      }

      .cls-138 {
        fill: #a6828c;
      }

      .cls-139 {
        fill: #bdd3e7;
      }

      .cls-140 {
        fill: #c0d9e8;
      }

      .cls-141 {
        fill: #c9deee;
      }

      .cls-142 {
        fill: #989fb9;
      }

      .cls-143 {
        fill: #e3f3f7;
      }

      .cls-144 {
        fill: #866471;
      }

      .cls-145 {
        fill: #e3e6eb;
      }

      .cls-146 {
        fill: #f2f9fb;
      }

      .cls-147 {
        fill: #d69d8e;
      }

      .cls-148 {
        fill: #5e3f60;
      }

      .cls-149 {
        fill: #6b4c6a;
      }

      .cls-150 {
        fill: #8387a8;
      }

      .cls-151 {
        fill: #aac3dc;
      }

      .cls-152 {
        fill: #8d6f7e;
      }

      .cls-153 {
        fill: #a38586;
      }

      .cls-154 {
        fill: #eaf5f7;
      }

      .cls-155 {
        fill: #b8978f;
      }

      .cls-156 {
        fill: #a4bcd8;
      }

      .cls-157 {
        fill: #d6ebf3;
      }

      .cls-158 {
        fill: #9a7c83;
      }

      .cls-159 {
        fill: #a37d7f;
      }

      .cls-160 {
        fill: #7b7c9d;
      }

      .cls-161 {
        fill: #8a6976;
      }

      .cls-162 {
        fill: #c3dbeb;
      }

      .cls-163 {
        fill: #eef7f8;
      }

      .cls-164 {
        fill: #b6cee2;
      }

      .cls-165 {
        fill: #929db9;
      }

      .cls-166 {
        fill: #a08690;
      }

      .cls-167 {
        fill: #937682;
      }

      .cls-168 {
        fill: #abc2db;
      }

      .cls-169 {
        fill: #b78e83;
      }

      .cls-170 {
        fill: #85616a;
      }

      .cls-171 {
        fill: #91a5c6;
      }

      .cls-172 {
        fill: #9789a1;
      }

      .cls-173 {
        fill: #7b5e74;
      }

      .cls-174 {
        fill: #b89790;
      }

      .cls-175 {
        fill: #9fb9d6;
      }

      .cls-176 {
        fill: #987b84;
      }

      .cls-177 {
        fill: #d49b8f;
      }

      .cls-178 {
        fill: #bf977e;
      }

      .cls-179 {
        fill: #feffff;
      }

      .cls-180 {
        fill: #9d92a0;
      }

      .cls-181 {
        fill: #a4bcd7;
      }

      .cls-182 {
        fill: #634262;
      }

      .cls-183 {
        fill: #a7bfd9;
      }

      .cls-184 {
        fill: #73536c;
      }

      .cls-185 {
        fill: #a68180;
      }

      .cls-186 {
        fill: #d7ebf2;
      }

      .cls-187 {
        fill: #8ca0c1;
      }

      .cls-188 {
        fill: #9f7d7f;
      }

      .cls-189 {
        fill: #7c5b71;
      }

      .cls-190 {
        fill: #e0f1f8;
      }

      .cls-191 {
        fill: #e5f3f7;
      }

      .cls-192 {
        fill: #b4cde1;
      }

      .cls-193 {
        fill: #b9d2e5;
      }

      .cls-194 {
        fill: #b57f82;
      }

      .cls-195 {
        fill: #dbeef5;
      }
    </style>
    <linearGradient id="_名称未設定グラデーション_36" data-name="名称未設定グラデーション 36" x1="92.31" y1="156.51" x2="58.75" y2="167.96" gradientUnits="userSpaceOnUse">
      <stop offset="0" stop-color="#c2dbea"/>
      <stop offset="1" stop-color="#a5bed9"/>
    </linearGradient>
  </defs>
  <g id="_レイヤー_1-2" data-name="レイヤー 1">
    <g id="_生成オブジェクト" data-name="生成オブジェクト">
      <path class="cls-5" d="M324.85,210.33c-.63.18-.79-.67-1.39-.61.27-.98,1.77-.7,2.41-.32-.57.54-.62.99-1.03.93Z"/>
      <g>
        <path class="cls-167" d="M264.28,313.28c-.28,2.21-1.3,14.54.86,14.85.6.09,1.31.32,2.69.05.28,1.54.05,2.89.1,4.48l-4.75.09c.28.59.62,1.03,1.08,1.12-.32,1.04.1,2.2-.25,3.63s-3.26.57-4.01,1.7c-.61.91.31,3.14.08,3.25l-1.48.68-.7,5.73c-1.49.37-2.99-.07-4.33.78-.11,1.58.37,3.5-.84,4.2-.84.48-1.66.46-1.86,1.05s-.02,1.6-.31,1.86c-2.89,1.6-1.05,3.55-2.4,4.67-.2.17-1.28.18-1.32.44-.24,1.8-1.08,3.38-2.46,4.73-.49.49-.08,2.25-.91,2.48-1.61.46-2.4.94-2.79,2.77-.36,1.7-1.81,3.09-1.29,5.46-1.48.53-2.52.73-4.12.88-1.16,2.17-.72,4.85-1.48,7.3-.35,1.04-2.88,0-3.44.55-1.23,1.21-.67,3.22-1.2,4.93-1.9-.04-2.63.45-3.61,1.97-.63.98-.79,2.06-.39,3.79l-4.5.31c-.56,2.44-.09,4.64-.83,6.82-1.04.86-2.9.19-3.79,1.1-1,1.02-.09,2.99-1.04,4.18-1.6.18-2.86-.04-4.05.5-.54,1.77-.38,3.57-.69,5.43l-5.79.68c-.27,1.33.1,2.52-.38,3.71-2.24.52-4.48.2-6.57,1.03.13,1.88.26,3.14-.28,4.8-5.1-.62-4.56,6.65-5.34,9.22-1.55.07-2.85.2-3.69.99-.19-.62-.84-.99-.94-1.45.17.86,1.91-6.36.36-8.01,1.31-1.12.63-2.98,1.3-4.76.43-1.14,2.76-.12,3.54-1.03.7-.81.83-3.39.37-4.28,1.21-.84,2.81-.39,4.56-.74.63-2.12,0-4.21.82-6.03,1.2-.09,3.63.6,3.78-.42l.78-5.33c.17-1.16,3.04-.3,4.18-.55.76-1.73-.23-4.03,1.13-5.3.93-.45,2.24-.28,2.81-.49.91-.32.61-1.41,1.01-2.36.29-.69,1.67-.78,1.66-1.51-.01-.78-.48-1.82.14-2.47.55-.57,1.73,0,2.25-.4,1.28-.99-.07-3.32.86-3.89,1.32-.82,3.58.41,4.48-.83.68-.94-1.06-5.68,2.02-5.95,4.33,2.15-.06-3.85,4.07-5.43l.69-3.57c.08-.4,1.11-.25,1.43-.56.83-.8-.06-2.64.93-3.69.27-.29,1.23-.19,1.46-.61.58-1.03.15-2.28.29-3.81,1.29-.71,2.71-.08,3.69-.98.2-1.66-.42-3.97,1.04-5.07,1.05-.79,2.86,0,4.23-.54.44-2.57-.11-5.51.61-7.83.76-.3,1.95.05,2.35-.72.33-.63-.06-1.71.38-2.43.63-1.02,2.1-1.14,1.76-2.96-.17-.91.36-1.85.64-2.36.44-.81,2.02-.07,2.45-.7,1.01-1.5.26-3.44.77-5.28l4.57-.83c.02-1.18-.83-3.18.3-3.69,1.32-.59,2.82.09,4.17-.68l.2-14.71c1.62-.55,3.19.12,4.51-.56.16.14.49.39.46.6Z"/>
        <path class="cls-68" d="M253.19,220.39c.4,2.07.35,4.25.31,6.36-.05,2.46-.58,5.02.24,7.34-.73,1.6-.52,3.7-.37,5.73,1.78.06,3.17.36,5.01,0,.64-1.98.95-4.04.24-5.73,1.32-.93.34-2.69.75-4.21,1.59-.8,3.88-.8,4.69.51.03,1.14.11,2.32-.02,3.45-.36,3.34.1,6.8.06,10.43,4.92.63,9.41,0,13.97.27l-.02,17.32c-.25.26-.54-.05-.77-.02.15-4.99-2.21,1.33-4.21-6.55-2.82-.16-5.76-.81-8.57-.07-.56,1.77.1,3.37-.04,4.78-.18,1.9.16,3.72.36,5.92l.18,1.96c.03.36-.48.71-1.05.51,0-1.54.4-2.97.04-5.06l-4.83-.48-.08-16.34c-1.85-.03-3.56-.51-5.23.16-.55.22-.08,1.76-.71,1.89-2.06.44-15.42-.08-18.8.41-.4.92.12,2.33-.63,2.82-1.07.69-2.23-.04-2.99.37-.6-1.59.07-3.68-1.03-5.32-2.5-3.7-2.73-11.4-2.6-11.04,1.67.39,3.39.55,5.24.69.43.85.38,2.35,1.25,2.77l11.77-.82c.08-4.07.22-7.84.01-11.59-.06-1,.53-1.96.09-2.92-.38-.82.89-1.25.66-2.32-2.02-.35-7.79.77-6.65-1.09l13.71-.11Z"/>
        <path class="cls-185" d="M301.76,210.92c.02.8-.37,1.42-.37,2.24-7.76.28-15.73-.81-23.21.76-.14-.46-.59-.89-1.35-.89l-13.62.06c-1.58,0-2.88.04-3.43,1.42-.09-.42.4-.87-.09-1.4l-101.03.16c-.93,0-2.08.08-2.98.01-3.97-.29-7.94.18-11.89.13-2.7-.04-5.61-.12-8.76.07l-13.72.82c-.39-4.16-12,.52-12.34-3.4.11-.73,1.02-.33,1.77-.34l25.99-.22c2.35-.02,4.83-.34,7.31.33,2.33.63,4.71-.29,6.93-.29l21.81.04,40.25-.03,84.99.12c1.63,0,2.64.29,3.74.4Z"/>
        <path class="cls-61" d="M277.29,261.84c.24-.03.53.28.77.02l5.41.84-.15,43.79c-.97.55-2.16.39-2.72.77-1.54,1.05-.22,3.32-1.38,4.48-1.41,1.42-1.66-3.3-2.27,6.9l-3.72.48-.34,9.04-4.14.65c-.31,1.61.1,3.22-.5,4.61-1.73-.06-3.34-.64-4,.47-.46-.09-.8-.53-1.08-1.12l4.75-.09c-.05-1.59.18-2.94-.1-4.48-1.38.27-2.09.04-2.69-.05-2.16-.31-1.14-12.65-.86-14.85.97-.13,3.38.39,3.88-.87.79-1.97.37-4.39,1.56-6.11.44.43,1.08.27,1.5.23,2.39-.23.09-6.15,1.84-6.27-.16.43-.07.78.2,1.24.14.25,5.13.53,5.12-.75-.01-2.46-.23-4.69-.39-7.11-.41-6.33.19-12.5.37-18.88.05-1.69.7-3.4-.34-4.58,1.38-.14,2.66-1.02,4.53-1.04.27-1.31.15-2.53.11-3.92-3.75-.2-6.93,1.46-9.37.19.23-.75-.29-2.2.39-2.89.84-.85,2.53-.56,3.58-.69Z"/>
        <path class="cls-116" d="M150.84,207.28c2.76.21,5.53,0,8.29-.05l3.48-.05h96.56c1.47-.01,3.33-.21,4.76-.02,4.69.62,9.39-.05,14.06-.02l23.16.15c.19,0,.38.13.53.12l.08,3.5c-1.1-.12-2.12-.4-3.74-.4l-84.99-.12-40.25.03-21.81-.04c-2.22,0-4.6.92-6.93.29-2.48-.67-4.96-.35-7.31-.33-.06-.08-.06-.52.15-.52l13.29-.28c.03-1.24-1.47-1.28-1.04-2.02.6.18,1.11-.3,1.71-.25Z"/>
        <path class="cls-5" d="M150.78,104.04c-1.74.14-3.85-.21-5.27-1.23-.09-.66.7-.88.66-1.63-2.13.47-4-.08-5.86.45-.41.12-.9-.02-.68-.53.2-.23.79,0,1.46-.2.66-1.18.03-2.45.39-3.52,1.21.32,2.88-.27,3.92-.85,1.16-.64,1.95-2.3,1.87-3.79-.19-3.68,1.63-5.89,3.15-8.98l2.52-5.13,4.43-8.51,5.95-7.58c1.96-2.5,3.37-6.21,4.73-6.48-1.39,3.85-2.38,6.1-5.05,9.78l-2.98,4.11c-1.11,1.53-.92,4.08-1.35,6.12l-1.03,4.8c-.64,3-4.23,9.15-4.76,9.65-1.57,1.48-2.87,2.61-3.11,5.16-.2,2.14-.2,6.98,1.01,8.36Z"/>
        <path class="cls-131" d="M134.09,509.24c-.35-.61-.53,0-1.07.32-2.58-1.61-14.93-1.35-17.22-1.01-2.68.4-5.31,2.06-7.99,1.39-1.33-.33-1.91-.51-3-.47,2.98-5.89,2.29-1.42,4.32-4.62,1.23-1.93,4.05-1.86,5.79-2.94,1.03-.64,1.23-2.31,2.16-2.52,3.11-.72,8.18,1.18,8.66,2.46.28.75-.09,3.04.99,3.15,2.49.25,3.62,1.43,5.39,3.25.42.43,2.17-.05,1.98.99Z"/>
        <path class="cls-149" d="M278.17,213.92c.28,1.91.35,3.96.02,5.87-.08.47.09.92-.17,1.37l-13.24-.14c-.27-1.47-.08-2.72-.19-4.42-1.5-.48-2.93-.56-4.28-.44-.41-.56-.4-.99-.54-1.65.55-1.38,1.85-1.41,3.43-1.42l13.62-.06c.77,0,1.22.43,1.35.89Z"/>
        <path class="cls-35" d="M319.07,208.66c.02.51.35.95.84.59-.21.54.37.46.69.44.95-.08,1.91.01,2.86.03.59-.06.76.79,1.39.61.27.5-.22,1.3-.59,1.55-.28.19-1.32.39-1.68.29-2.49-.69-2.47,1.85-3.57,2.24l-4.47,1.57c-.8.28-2.33.13-3.08.79-.45.4-.46,2.04-1.05,2.16-4.73.95-8.18,4.26-8.22,1.36,7.94-2.56,3.59-3.07,5.84-4.49.71-.45,2.45.19,2.93-.44.35-.46.7-1.61.2-2.17-1.8-.18-3.96-.34-6.07-.12-1.33.14-.31,2.27-.65,2.94-.43.85-1.73.47-2.3.72-.8-.93-.75-2.31-.75-3.57,0-.82.39-1.44.37-2.24,0,0,17.53.93,14.2-1.76.76-1.02,2-.82,3.12-.5Z"/>
        <path class="cls-173" d="M187.6,426.03c1.55,1.65-.19,8.87-.36,8.01.09.46.74.82.94,1.45.13.42.32.84.32,1.28-.91-.05-1.18.41-1.53,1.11-1.29.11-2.4-.53-3.54-1.08.34-1.57-.28-3.19-.16-4.75s-.14-3.53.48-5.49c.38-1.2,3.02-.59,3.85-.53Z"/>
        <path class="cls-187" d="M312.23,204.52c2.67.93,6.76,1.53,6.84,4.14-1.12-.32-2.35-.52-3.12.5-.15-.45.13-1.05-.42-1.29-1.42-.62-11.87-.57-13.87-.45-.16,0-.35-.12-.53-.12.88-.9-.28-2.52,1.22-3.01l3.35-.28c.42,1.08.19,1.38.53,1.73.26.26,6.01,1.11,6-1.22Z"/>
        <path class="cls-5" d="M302.18,220.3l-.05-3.57c.57-.25,1.88.13,2.3-.72.33-.67-.68-2.8.65-2.94,2.12-.22,4.27-.05,6.07.12.5.56.15,1.71-.2,2.17-.49.63-2.22,0-2.93.44-2.25,1.42,2.1,1.93-5.84,4.49Z"/>
        <path class="cls-141" d="M310.68,203.34l1.55,1.18c0,2.33-5.74,1.48-6,1.22-.34-.35-.11-.65-.53-1.73l-3.35.28c.67-.94-1.29-.77-1.06-2.53.07-.52.25-.99.92-.96,3.4-.29,5.6,3.44,8.46,2.54Z"/>
        <path class="cls-5" d="M162.69,199.61c-.01,2.56-1.3,5.22-.09,7.57l-3.48.05c.21-6.59,3.36-2.08,2.37-8.14.77.05.75.71,1.2.52Z"/>
        <path class="cls-85" d="M310.68,203.34c-2.87.89-5.06-2.83-8.46-2.54.21-.66-.56-.3-1.24-.83,2.88-1.17,5.44-.52,7.74,1.63.66.62,3.08.18,1.97,1.74Z"/>
        <path class="cls-5" d="M168.64,55.46c-.94.03,5.94-7.71,5.91-7.68.87.42-5.39,8.55-5.91,7.68Z"/>
        <path class="cls-5" d="M174.55,47.77c1.04-1.09,1.79-3.09,2.51-4.95,1.5-1.99-.51,6.05-2.51,4.95Z"/>
        <path class="cls-5" d="M171.04,129.42c-.53.07-1.5.37-1.74-.62s-.15-1.77-.21-2.42c.88.61,2.01,1.89,1.95,3.04Z"/>
        <path class="cls-5" d="M159.19,111.12c-.41-.13-1.1.05-1.17-.4-.09-.58.07-1.06-.06-1.49.46.5,1.15,1.1,1.23,1.89Z"/>
        <path class="cls-5" d="M153.24,106.39c-.41-.38-1.09-.62-1.24-1.26.51.21,1.38.46,1.24,1.26Z"/>
        <circle class="cls-5" cx="242.83" cy="95.36" r=".3"/>
        <circle class="cls-5" cx="178.4" cy="38.32" r=".48"/>
        <circle class="cls-5" cx="180.47" cy="33.59" r=".51"/>
        <circle class="cls-5" cx="186.08" cy="24.43" r=".3"/>
        <path class="cls-5" d="M168.05,56.05c.12-.32.09-.72.59-.59.11.48-.24.52-.59.59Z"/>
        <path class="cls-5" d="M165.69,118.79c-.32-.24-.57-.21-.64-.68.47-.19.76.27.64.68Z"/>
        <path class="cls-5" d="M52.78,401.35c0-.62.62-1.25,1.24-1.26-.42.16-.49,1.32-1.24,1.26Z"/>
        <path class="cls-5" d="M52.28,395.99c-.05-.4-.07-.93.51-.7.06.32-.03.9-.51.7Z"/>
        <path class="cls-5" d="M320.61,209.69c-.32.03-.9.1-.69-.44.34-.24.92-.06.69.44Z"/>
        <circle class="cls-5" cx="177.81" cy="39.79" r=".3"/>
        <path class="cls-17" d="M269.73,306.3c-1.19,1.72-.77,4.13-1.56,6.11-.51,1.27-2.91.75-3.88.87.03-.21-.3-.46-.46-.6l.14-44.3c.56.2,1.08-.15,1.05-.51l-.18-1.96c-.2-2.2-.54-4.02-.36-5.92.7.06,2.06-.34,2.58.54,3.08,5.24-.59,4.21,3.47,6.58-2.03,1.85-1.02,3.97-1.32,5.89-.55,3.55-.68,7-.69,10.62v16.03c-.02,2.4-.4,4.99,1.21,6.65Z"/>
        <path class="cls-21" d="M259.77,214.52c.14.66.14,1.09.54,1.65l-1.16.1c-1.47.13-3.5-.67-4.94.35-.89.63-.16,2.41-.44,3.16-.1.28-.23.61-.58.61l-13.71.11c-2.93.02-5.89.17-8.81-.11-1.32-.97-.03-2.93-.99-4.4l-17.27-.54c-1.75-.05-6.7,1.02-7.91,1.99-1.13.9-.92,2.08-1.1,3.42-1.24.09-4.14-.74-4.94.73l-.28,5.34c-.81.1-.66-.69-.6-1l.33-1.73c.23-1.21-.3-2.47-.24-3.25.04-.55,1.28-2.02.2-2.2l-3.99-.65c-.12-.56.26-1.57-.07-1.81-2.05-1.47-25.45.01-27.6-.11l-7.49-.44c-.3-1.25-.04-1.79-.07-2.47l101.03-.16c.49.53,0,.98.09,1.4Z"/>
        <path class="cls-24" d="M226.63,234.47l.48,1.31c-.13-.36.1,7.34,2.6,11.04,1.1,1.64.43,3.73,1.03,5.32-1.65.89-3.78-.03-5.19,1.36-3.17-.88-6.88-.11-10.13-.08-4.44-2.01-4.09-7.32-6.15-9.31-1-.97-.28-3.47-.31-4.74,1.83.11,3.7-.04,5.9-.37-1.26-4.26,3.38-11.94,6.76-9.47.7,1-1.19,7.27,1.1,7.54,2.45.29,1.98-3.08,3.92-2.61Z"/>
        <path class="cls-3" d="M239.48,220.5c-1.14,1.86,4.63.73,6.65,1.09.23,1.07-1.04,1.5-.66,2.32-4.24.26-8.78-.47-13.15.32-.68,1.04-.46,2.94-.1,4.15l12.46-.28c.39-.58.01-1.43.69-1.26.21,3.74.06,7.51-.01,11.59l-11.77.82c-.87-.42-.82-1.92-1.25-2.77-1.85-.14-3.58-.3-5.24-.69l-.48-1.31.93-10.39c.11-1.26.5-2.21,1.46-3.18.5-.11,1.62.45,1.64-.52,2.93.29,5.88.14,8.81.11Z"/>
        <path class="cls-19" d="M277.29,261.84c-1.06.13-2.74-.16-3.58.69-.68.69-.17,2.14-.39,2.89.32-1.05-.55,4.03-.55,3.68,0,.55.85.69,1.12,1.52-1.89-.9-.46,9.51-1.33,15.35-.27,1.84.76,2.57,1.72,3.48-.22.75-.34,1.73.04,2.2.52.65-.95.84-1.09,1.46-.54,2.42.54,5.05-.14,7.15-1.75.12.55,6.04-1.84,6.27-.42.04-1.06.2-1.5-.23-1.61-1.65-1.22-4.24-1.22-6.65v-16.03c.02-3.62.15-7.07.7-10.62.3-1.92-.72-4.04,1.32-5.89-4.06-2.37-.39-1.34-3.47-6.58-.52-.89-1.88-.48-2.58-.54.13-1.41-.52-3.01.04-4.78,2.81-.75,5.75-.1,8.57.07,2,7.88,4.36,1.56,4.21,6.55Z"/>
        <path class="cls-38" d="M260.31,216.16c1.35-.12,2.78-.04,4.28.44.12,1.7-.08,2.95.19,4.42l13.24.14c-.37.43.04.45.9.42-.14,1.34.5,3-.02,4.19-3.42.84-6.9-.73-9.42.68-4.37,2.45-8.42-2.91-9.83-2.28-.71.31-.42,1.99-.91,2.29-1.65.99-3.68.16-5.24.31.04-2.11.09-4.29-.31-6.36.35,0,.47-.33.58-.61,1.21.66,2.6.18,3.61-.18,1.67-.6,1.83-1.82,1.77-3.33l1.16-.1Z"/>
        <path class="cls-188" d="M245.47,223.91c.44.96-.15,1.92-.09,2.92-.68-.16-.3.69-.69,1.26l-12.46.28c-.36-1.21-.58-3.1.1-4.15,4.37-.79,8.91-.06,13.15-.32Z"/>
        <path class="cls-70" d="M258.62,234.09c.71,1.69.4,3.75-.24,5.73-1.84.37-3.23.07-5.01,0-.15-2.04-.36-4.14.37-5.73h4.88Z"/>
        <path class="cls-174" d="M273.08,300.26c.68-2.11-.4-4.74.14-7.15.14-.62,1.61-.81,1.09-1.46-.38-.47-.26-1.46-.04-2.2-.96-.91-1.99-1.64-1.72-3.48.87-5.84-.56-16.25,1.33-15.35l4.16-.43c1.05,1.17.39,2.88.34,4.58-.18,6.38-.78,12.55-.37,18.88.16,2.42.37,4.66.39,7.11,0,1.28-4.98,1-5.12.75-.27-.46-.36-.81-.2-1.24Z"/>
        <path class="cls-69" d="M278.04,270.18l-4.16.43c-.26-.83-1.12-.97-1.12-1.52,0,.36.87-4.73.55-3.68,2.43,1.27,5.62-.39,9.37-.19.04,1.39.17,2.61-.11,3.92-1.87.02-3.16.89-4.53,1.04Z"/>
        <path class="cls-78" d="M315.95,209.17c3.33,2.69-14.2,1.76-14.2,1.76l-.08-3.5c2-.12,12.45-.17,13.87.45.55.24.27.84.42,1.29Z"/>
        <g>
          <path class="cls-177" d="M278.08,244.54c-4.57-.26-9.05.35-13.97-.27.03-3.63-.42-7.09-.06-10.43l14.35-.22c.88-.62,1.14-3.22.24-3.78-4.72.06-10.21-.08-14.57.55-.81-1.31-3.1-1.31-4.69-.51-.41,1.52.57,3.28-.75,4.21h-4.88c-.82-2.32-.29-4.88-.24-7.34,1.55-.14,3.59.68,5.24-.31.49-.29.2-1.97.91-2.29,1.41-.63,5.46,4.73,9.83,2.28,2.52-1.41,6,.16,9.42-.68.52-1.19-.12-2.85.02-4.19-.86.03-1.27.01-.9-.42.26-.45.09-.9.17-1.37.56-.04.38.59.55,1.04,1.68.02,3.31-.17,4.85.54l-.04,22.64c-2.13.32-3.83.63-5.47.53Z"/>
          <path class="cls-126" d="M264.05,233.84c.12-1.13.04-2.31.02-3.45,4.36-.62,9.85-.49,14.57-.55.9.56.65,3.16-.24,3.78l-14.35.22Z"/>
          <path class="cls-60" d="M267.88,242.07c-.98-.06-1.57-3.23-.64-3.3l11.39-.87c.43,1.1.97,3.78-.14,4.06-3.48.61-6.91.32-10.61.11Z"/>
        </g>
        <g>
          <path class="cls-155" d="M278.17,191.41c-.59-.83-2.48-.79-3.9-.24-.73.28-.5,1.78-1.62,2.09.18-.84-.55-1.35-.61-2.38.58-.24.69.49.94.51.33.02.69-1.01,1.02-1.04,2.92-.31,5.66,0,8.72-.14-.04-2.12.22-3.95-.2-5.89-3.62.43-6.3.01-9.65-.14l-.04-10.54c1.74.09,3.4.41,5.52.41-.02-2.85.03-5.34-.24-8.12-.85-8.67,1.25-18.11-1.06-27.57-.29-.85-2.44.02-3.02-.4-1.1-1.34.5-4.08.04-5.34-.67-1.87-.56-3.79-1.06-5.71-.36-1.35-3.93-.26-4.84.76-.57-.87-2.44.04-3.21-.24-1.7-1.72-.69-4.61-1.05-6.78l-.51-3.12c.81-.31.52-1.12-.68-1.11-1.35.11-2.76.39-3.6-.87-.52-.78.98-1.93.73-2.6-.66-1.09-1.75-2.49-1.57-3.54-1.57.29-2.5.43-2.99.17-1.1-.61.43-3.3-.32-4.23-.47-.59-.95-.57-1.85-1.1,3.83-1.91-1.66-1.5-.36-5.32-1.17-.6-2.25-.13-3.7-.35-.5-2.13-.61-4.34-.19-6.4,1.29-.33.46-.58-.34-.79-1.64-.11-2.71-.06-3.53-1.58-.54-1-.62-1.88-.16-3.87-1.49,1.08-1.85,1.65-2.75,1.37-2.72-.85-.71-4.74-2.09-9.5-1.26-.72-3.96-.12-5.18.76-.79-1.5-3.99.71-3.58-1.82,1.11.42,3.03.69,4.06-.21.16-.88.54-2.8.13-3.44-.96-.88-.87-1.96-.57-2.83,1.14-.81,2.39-1.22,2.27-2.81.78-.09,1.64.15,2.63.25.38,1.39.1,2.74.66,4.04,1.19.44,2.41.04,3.77.32.2,1.68.03,3.24.44,4.89l3.67.51c-.15,6.17,1.82,3.73,1.92,4.89.2,2.39-.43,3.76.75,4.47.53.32,1.48.34,2.38.42,1.02,1.37.28,3.19.62,4.75l4.38.68c-.51,1.96.18,3.17,1.01,4.56.45.75-.72,2.87.5,3.46,1.04.5,2.58-.2,3.73.43.75,2.49-.25,8.54,1.65,8.98.57.13,1.5-.74,2.41-.1,1.68,1.18-.26,5.15,2.63,7.36.6.46,2.27-.21,2.37.79l.61,5.82c1.65.27,2.97-.28,4.31.45.09,1.25-.49,3.14.42,3.68,3.98,2.34-.54,5.66,1.55,6.19.83.21,1.35-.13,1.66.37.33.54-.83,2.23.24,3.06.3.23.72.04,1.87.25l.02,52.78c-1.96.23-3.74-.38-5.17.64Z"/>
          <path class="cls-152" d="M263.39,117.52l.51,3.12c.36,2.18-.65,5.07,1.05,6.78.77.28,2.64-.63,3.21.24.64,3.46-.16,7.36,1.41,10.46-.56.61-.66,1.43-.65,2.45l.11,12.88c.02,2.44-.82,16.58.05,18.61-.28-.66,1.52,1.45,3.74,1.57l.04,10.54c3.35.15,6.02.57,9.65.14.42,1.93.16,3.76.2,5.89-3.06.15-5.8-.16-8.72.14-.33.03-.68,1.07-1.02,1.04-.25-.02-.36-.75-.94-.51.06,1.03.79,1.54.61,2.38-1.01.28-3.2.4-3.87-.66l-.29-3.46c-1.58-.31-2.98-.27-4.36-.21l-.24-56.13-4.67-.55-.06-11.77c0-1.18.03-2.19.4-3.03l3.53-.46.29.53Z"/>
          <path class="cls-119" d="M201.66,20.07c.78,1.74-.04,3.5-.68,5.12.4.87,1.48,2.29,1.1,3.44.59.95,2.34.78,3.31,1.52,2.03,1.53,2.22,5.67.09,7.13-.96.55-2.51-.21-3.08-.16,0-1.66-.12-3.37-.33-5.27l-4.02-.47-.9-5.06c-1.21-.11-2.8.42-3.59-.54s.12-2.89-.95-3.71c-.88-.68-2.63.18-3.8-.51-.32-2.11.26-4.95-.72-6.78-.88-.54-3.79-.02-3.89-1.08.29-1.77-.71-3.05-.71-4.11.01-2.17.82-4.51.05-6.64.86-.47.1-1.42.53-2.52,1.09-.18,3.44-.88,4.05.11.71,1.15-.48,2.92.46,3.96.44.48,1.36.47,1.62.86.43.64.33,1.97.23,2.91-.13,1.32,1.93.56,2.38,1.06,1.22,1.38.43,3.48.41,5.21l3.92.65c1.31.22-.13,3.08.52,4.12.76,1.22,2.91.63,4.02.78Z"/>
          <path class="cls-120" d="M263.39,117.52l-.29-.53-3.53.46c-1.43-.89-3.14-.68-4.98-.47l-.43-5.86c-.09-1.26-2.13-.8-2.55-1.46-.71-1.12.51-3.08-1.39-3.51-1.66-.38-1.3-2.53-1.27-3.97-1.23-.46-2.44.02-3.75-.3-.35-2.93,0-5.75-.57-8.42-.28-1.28-2.57-.25-3.22-.66-1.47-.93-.17-3.21-.76-4.62s-3.04-.3-3.98-.92c-1.42-.94-.21-3.22-.9-4.63s-1.14-2.62-.94-4.08c1.22-.88,3.92-1.48,5.18-.76,1.38,4.76-.63,8.64,2.09,9.5.9.28,1.26-.29,2.75-1.37-.46,1.99-.38,2.87.16,3.87.82,1.52,1.88,1.47,3.53,1.58.79.21,1.62.46.34.79-.42,2.06-.31,4.27.19,6.4,1.45.22,2.53-.25,3.7.35-1.31,3.81,4.18,3.41.36,5.32.9.52,1.38.51,1.85,1.1.75.94-.79,3.63.32,4.23.49.27,1.42.12,2.99-.17-.18,1.05.92,2.45,1.57,3.54.25.67-1.25,1.82-.73,2.6.84,1.26,2.25.98,3.6.87,1.2-.01,1.49.8.68,1.11Z"/>
          <path class="cls-176" d="M230.7,59.56c-.03,1.44-2.22,3-.75,4.57.79.85.55,2.96-.44,3.63-.88.6-2.84-.67-2.93.71-1.45.38-.74-3.26-1.31-4.45l-3.51-.34c-.57-2.4-.21-4.61-.49-7.01-1.59-.38-3.11-.11-4.44-.68-.61-2.03.09-4.13-.87-5.83l1.05-3.63c1.04-.17,2.2.97,3.29.92,1.27-.06,1.16-2.32,1.02-3.27,2.19-.16.43,3.11,1.31,4.76.38.72,2.16-.04,2.67.64,1.02,1.32.01,3.15.76,4.7,1.06.12,3.68-.08,3.89,1.07.31,1.67.01,3.11.75,4.21Z"/>
          <path class="cls-44" d="M272.65,193.27c1.12-.31.89-1.81,1.62-2.09,1.42-.55,3.31-.59,3.9.24.44.54-.12,1.21-.12,1.77-1.28.42-.46,2.19-.63,3.59-1.35.42-2.93-.09-4.1.59-.2.59-.52,1.7-.21,2.18-2.72-.4-5.55-.15-8.51.16-.45,1.56-.43,2.85-.26,4.17-.5,1.03-.58,2.16-.42,3.29-1.43-.19-3.29,0-4.76,0l.1-13.36,4.75-.45.12-4.43c1.38-.06,2.78-.1,4.36.21l.29,3.46c.67,1.05,2.86.94,3.87.66Z"/>
          <path class="cls-73" d="M221.31,44.19c.14.95.25,3.21-1.02,3.27-1.09.05-2.25-1.08-3.29-.92-.2-.59-.05-1.42-.44-1.7-.64-.47-1.73.02-2.39-.09-2.45-.42-1.54-2.92-2.01-4.83-.44-1.8-4.21-1.35-4.99.16.34-3.57-4.78-.93-4.79-2.97.57-.05,2.12.71,3.08.16,2.14-1.46,1.95-5.6-.09-7.13-.98-.74-2.72-.56-3.31-1.52.38-1.15-.7-2.56-1.1-3.44.64-1.61,1.47-3.37.68-5.12,2.8.37-.7,4.32,1.82,4.47,1.07.07,1.97,0,3.06.17.19,1.86.05,3.36.66,5.14l3.82.31c.43,1.25-.14,2.77.45,3.8s2.38.19,3.37.73c1.38.75.67,2.86.68,4.05l4.29.96v3.41c0,.8.98,1.12,1.5,1.08Z"/>
          <path class="cls-65" d="M277.98,207.15c-4.68-.03-9.38.64-14.06.02-.16-1.13-.08-2.26.42-3.29,2.87.34,5.84,1.05,8.86-.44,1.11-.55.53-2.93-.09-3.89-.31-.48.02-1.59.21-2.18,1.17-.68,2.75-.17,4.1-.59.17-1.4-.65-3.17.63-3.59l-.07,13.97Z"/>
          <path class="cls-26" d="M217,46.55l-1.05,3.63c-.87.06-3.17.62-3.88-.26-1.13-1.41.02-3.54-.83-5.04-1.04-.56-2.75.28-3.53-.69s-.45-3.09-.53-4.09c.78-1.51,4.55-1.96,4.99-.16.47,1.92-.44,4.42,2.01,4.83.66.11,1.75-.38,2.39.09.39.28.23,1.11.44,1.7Z"/>
          <path class="cls-1" d="M237.14,67.45c.11,1.59-1.13,2-2.27,2.81-.34.06-.84-.29-.57-.32s.84-1.32.28-1.52c-1.84-.67-4.07-.33-5.56.19-.83.29-1.61-.35-2.45-.13.1-1.38,2.05-.12,2.93-.71.99-.67,1.23-2.78.44-3.63-1.46-1.57.72-3.13.75-4.57.82-.39,3.53-.84,3.59.39.1,2.31.26,3.13,1.47,4.45.71.78-.47,3.27,1.39,3.05Z"/>
          <path class="cls-95" d="M234.87,70.26c-.29.87-.39,1.95.57,2.83.41.64.03,2.56-.13,3.44-1.03.9-2.96.63-4.06.21.63-3.92-1.56-1.76-2.23-8.13,1.49-.51,3.72-.86,5.56-.19.56.2-.01,1.5-.28,1.52s.23.38.57.32Z"/>
          <path class="cls-5" d="M183.52,2.93c.77,2.13-.04,4.47-.05,6.64-1.98.68-3.36-1.83-3.97-3.82-.37-1.19-2.04-.93-2.62-2.14l6.65-.68Z"/>
          <path class="cls-123" d="M272.82,173.64c0-2.14.49-4.03.08-6.46s1.45-5.04.61-7.21-.18-4.33-.42-6.25l-.24-1.88c-.6-4.75.28-9.32-.38-13.87-1.18-.32-2.04-.11-2.9.16-1.57-3.1-.78-7-1.41-10.46.9-1.02,4.48-2.11,4.84-.76.51,1.91.39,3.84,1.06,5.71.46,1.26-1.15,4-.04,5.34.58.42,2.74-.45,3.02.4,2.31,9.46.21,18.9,1.06,27.57.27,2.78.22,5.27.24,8.12-2.11,0-3.78-.32-5.52-.41Z"/>
          <path class="cls-158" d="M273.08,153.72c.24,1.92-.42,4.1.42,6.25s-1.02,4.76-.61,7.21-.09,4.32-.08,6.46c-2.22-.12-4.02-2.23-3.74-1.57-.87-2.03-.03-16.17-.05-18.61,1.35-.49,2.7,0,4.06.26Z"/>
          <path class="cls-153" d="M273.08,153.72c-1.35-.26-2.7-.75-4.06-.26l-.11-12.88c0-1.02.09-1.84.65-2.45.86-.27,1.72-.47,2.9-.16.66,4.55-.22,9.12.38,13.87l.24,1.88Z"/>
          <path class="cls-96" d="M273.11,199.54c.62.96,1.2,3.34.09,3.89-3.02,1.49-5.98.77-8.86.44-.17-1.31-.19-2.61.26-4.17,2.96-.31,5.79-.57,8.51-.16Z"/>
        </g>
        <path class="cls-110" d="M209.99,224.57c-.12.26.05.65,0,.95-1.31.35-2.53-.19-2.79,1.11-.38,1.92-.22,3.21,1.54,3.64l.22,9.12c.03,1.27-.69,3.77.31,4.74,2.06,1.99,1.72,7.3,6.15,9.31.62,1.31-.66,2.3-.75,3.59h-7.48c.21-1.78.12-3.55-.46-5.7-1.44-.06-2.4-.19-3.42-.68-.57-4.76-.87-9.58-1.08-14.39-.22-5.14.46-10.33,1.16-15.41,3.02-.21,5.1-1.65,5.9-.26.27.47-.38,4.76.7,3.98Z"/>
        <path class="cls-121" d="M174.65,339.72c.1-1.5-2.37-1.52-2.69-2.71l-1.28-4.73c-1.05-.74-2.72-.54-2.44-2.57.23-1.71.03-3.26.36-4.7.76.33,1.48.7,2.49,1.26-.31,2.01,1.27,3.04,2.5,4.45l2.76,3.15c1.01,1.16,1.24,3.61,2.7,4.25,1.6.66,2.8.75,3.04,2.91.13,1.2.17,1.93-1.02,2.59-.59.33-1.78.42-2-.64l-.74-3.56c-1.36-.42-2.69-.42-3.68.3Z"/>
        <path class="cls-133" d="M225.55,253.51c.3.95.1,2.36-.18,3.46-3.74,1.12-7.38.05-10.7.06.09-1.29,1.37-2.28.75-3.59,3.25-.03,6.96-.8,10.13.08Z"/>
        <g>
          <path class="cls-179" d="M263.96,268.38l-.14,44.3c-1.32.69-2.89,0-4.51.56l-.2,14.71c-1.35.77-2.85.09-4.17.68-1.13.51-.28,2.51-.3,3.69l-4.57.83c-.51,1.85.24,3.79-.77,5.28-.43.63-2-.1-2.45.7-.28.51-.81,1.46-.64,2.36.33,1.82-1.13,1.94-1.76,2.96-.45.73-.06,1.8-.38,2.43-.4.77-1.59.41-2.35.72-.72,2.33-.17,5.26-.61,7.83-1.37.54-3.17-.25-4.23.54-1.46,1.1-.84,3.41-1.04,5.07-.98.9-2.4.27-3.69.98-.14,1.53.29,2.78-.29,3.81-.23.41-1.19.32-1.46.61-.99,1.05-.1,2.89-.93,3.69-.32.31-1.35.16-1.43.56l-.69,3.57c-4.13,1.58.26,7.58-4.07,5.43-3.08.26-1.34,5.01-2.02,5.95-.89,1.24-3.16.02-4.48.83-.93.58.42,2.91-.86,3.89-.52.4-1.7-.18-2.25.4-.62.64-.15,1.68-.14,2.47.01.73-1.37.81-1.66,1.51-.4.95-.1,2.03-1.01,2.36-.57.2-1.88.04-2.81.49-1.36,1.27-.37,3.58-1.13,5.3-1.14.25-4.01-.61-4.18.55l-.78,5.33c-.15,1.02-2.58.33-3.78.42-.82,1.83-.19,3.92-.82,6.03-1.75.35-3.35-.1-4.56.74-1.69-1.74-.55-5.64-1.91-8.17-.57-1.07-2.05-1.85-1.48-3.62,1.06-3.32-2.65,1.27-2.19-10.54.1-2.49-1.35-3.59-2.01-5.37-.15-.4-1.31-7.87-3.26-7.49-.89-2.7.5-7.72-1.59-9.16l-.88-7c.38-.21.16-.37,0-.59-.16-1.96,2.35-1.86,2.92-2.79,1.72-3.19-.7-8.25-4.21-9.49-.65-6.18-.18-5.18-2.58-6.09-.45-.17-1.09-3.92-.96-5.93,1-.72,2.33-.71,3.68-.3l.74,3.56c.22,1.06,1.41.96,2,.64,1.19-.66,1.15-1.39,1.02-2.59-.24-2.16-1.44-2.25-3.04-2.91-1.46-.64-1.69-3.1-2.7-4.25l-2.76-3.15c-1.24-1.41-2.82-2.43-2.5-4.45-1-.56-1.72-.93-2.49-1.26.29-1.28-.18-2.99.03-4.68-1.3-.39-4-.24-4.33-1.82-.34-1.66-.66-4.06-.79-5.33.43-1.82-.22-4.23-.11-5.97,1.04-16.29.34-32.77.56-49.18l43.23-1h7.48c3.32-.01,6.95,1.05,10.7-.07.28-1.1.48-2.51.18-3.46,1.4-1.39,3.54-.47,5.19-1.36.77-.41,1.92.32,2.99-.37.75-.49.23-1.9.63-2.82,3.38-.49,16.74.02,18.8-.41.62-.13.15-1.67.71-1.89,1.67-.67,3.37-.19,5.23-.16l.08,16.34,4.83.48c.36,2.1-.03,3.53-.04,5.06Z"/>
          <g>
            <path class="cls-58" d="M196.08,360.65c-.16-.37,1.05,3.6-.14,4.08-.43.17-1.53,0-2.13-.41-1.86-1.28-1.14-4.75-2.16-6.9-.46-.98-2.67-.49-2.78-1.7-.1-1.14-.68-3.12.93-3.35,3.76-.55.24,3.75,3.49,5.28.69.32.49,1.09.83,1.63.42.67,1.55.45,1.95,1.38Z"/>
            <path class="cls-86" d="M206.07,374.3c.64,1.13.72,2.44.09,3.26-.72.94-1.57-.31-3.03-.16,1.93-3.73-3.15-4-3.47-7.06-.14-1.3,3.37-1.19,3.65.08.39,1.71.71,2.91,1.67,3.65.73-.98,1.78-.74,1.08.24Z"/>
            <path class="cls-31" d="M187.78,348.15c.25.03,1.06,3.08-.18,3.89-.42.27-1.23.03-1.83-.16-1.12-.36-.35-2.6-.74-3.88-.26-.86-1.5-.41-2.04-.84-.6-.84-.26-2.1-.63-3.09,1.58-.49,2.3.12,3.25.9s.47,1.66.25,2.93l1.92.25Z"/>
            <path class="cls-103" d="M207.59,382.45c-.46-.51-.6-2.25-.66-3.18-.11-1.52,1.62-.56,2.3-.53,1.3.06,1.68,1.44,1.2,2.72-.28.75-1.48,1.99-2.84.98Z"/>
            <path class="cls-27" d="M198.15,364.97c.98.21,1.59,3.09.72,3.61-.47.29-1.01.17-1.58-.09-.12-.05-1.08-2.68-.66-3.22.24-.31,1.01-.4,1.51-.29Z"/>
          </g>
        </g>
        <path class="cls-180" d="M230.66,220.38c-.02.97-1.14.41-1.64.52-.29.04-.62-.65-1.21-.7-5.65.47-11.01-.2-16.86.64-1.38.2-.57,2.88-.96,3.73-1.08.78-.43-3.51-.7-3.98-.8-1.39-2.88.05-5.9.26.18-1.33-.02-2.51,1.1-3.42,1.21-.97,6.16-2.05,7.91-1.99l17.27.54c.96,1.48-.33,3.44.99,4.4Z"/>
        <path class="cls-132" d="M259.15,216.26c.06,1.52-.1,2.74-1.77,3.33-1.01.36-2.4.85-3.61.18.27-.76-.45-2.53.44-3.16,1.44-1.02,3.48-.23,4.94-.35Z"/>
        <path class="cls-6" d="M227.56,224.08l-.93,10.39c-1.94-.47-1.47,2.89-3.92,2.61-2.29-.27-.4-6.53-1.1-7.54-3.38-2.48-8.02,5.21-6.76,9.47-2.2.33-4.06.48-5.9.37l-.22-9.12c-1.77-.43-1.92-1.72-1.54-3.64.26-1.3,1.48-.75,2.79-1.11,1.83-.49,3.78-.32,5.95-.49l11.62-.94Z"/>
        <path class="cls-146" d="M229.02,220.9c-.96.97-1.35,1.92-1.46,3.18l-11.62.94c-2.17.18-4.12,0-5.95.49.05-.3-.12-.69,0-.95.4-.85-.42-3.53.96-3.73,5.85-.83,11.21-.17,16.86-.64.59.05.92.74,1.21.7Z"/>
        <g>
          <path class="cls-5" d="M118.97,403.67c0,.27.44.48.44.71l.34,29.61c1.35.37,3.3.6,4.27-.05l.71-8.44c.27-3.18.1-6.39,1.13-9.35.36-1.04,3.72-1.14,4.2-.16.85,1.75.15,3.99.42,5.75,1.74.61,3.68.46,5.5.04l.22-13.3c.54-.78,3.53-.14,3.62.8.71,7.18.34,14.2.35,21.55,0,1.35.09,3.51.94,4.39,1.2.86,3.2-.06,4.5.38,0,1.06.5,2.38,0,3.43-4.29-.04-2.66,6.3-2.89,10.05,1.52.78,3.06-.12,4,1.14-.42,2.66-.26,5.44-.07,8.44l5.19.31-.09,51.8-13.84-.43c-1.58-.05-2.87,0-3.81-1.08.19-1.04-1.56-.56-1.98-.99-1.77-1.82-2.89-3-5.39-3.25-1.08-.11-.71-2.4-.99-3.15-.48-1.27-5.56-3.17-8.66-2.46-.93.21-1.13,1.88-2.16,2.52-1.74,1.08-4.56,1.01-5.79,2.94-2.03,3.2-1.35-1.27-4.32,4.62-4.06.14-8.11.62-12.13.53-.03-1.01-.1-2.54-.34-3.57-.3-1.31.53-3.25-.63-4.71-.43-.54-2.25.18-2.21-1.13.04-1.69-.94-2.53-1.73-3.51l.48-25.71c1.17-.82,2.69-.3,4.36-.84l.47-11.84,4.05-.23c.24-2.91.54-5.66.07-8.29.58-1.62,3.34-1.49,4.16-2.52,1.31-1.65.43-4.36.56-6.13.09-1.28.33-2.64.22-4.14,1.01-.58,2.05-.34,3.45-.7l.65-8.65c.3-.46,1.99,0,2.17-.71.43-1.67.14-3.16.48-4.92l5.63-.73.35-17.57c1.38-.71,2.82-.17,4.1-.44Z"/>
          <path class="cls-9" d="M144.55,342.32c-1.07-.23-2.15.19-3.22.09-7.09-.65-14.25-.23-21.87-.44-.62,2.53-.24,4.65-.25,6.81l-.24,54.9c-1.28.27-2.72-.27-4.1.44l-.35,17.57-5.63.73c-.34,1.76-.05,3.24-.48,4.92-.19.72-1.88.26-2.17.71l-.65,8.65c-1.4.36-2.44.12-3.45.7.11,1.5-.13,2.86-.22,4.14l-17.94.64c-2.82-3.49-6.52-3.42-10.26-3.55-3.47-2.05-5.57-.96-7.44-3.68-1.9.49-4.44,1.75-5.78-.05-.14-1.44.14-2.95.19-4.55l.46-12.6,4.26-.35c.03-1.49-.05-2.8.88-3.67,1.73.17,3.68-.07,5.7-.4l.65-4.59c1.86-.34,3.66-.27,5.51-.38l.85-5.8c1.37.15,1.87-1.27,2.7-1.93,1.16-.91,2.68-.73,2.86-3.04.03-.44.26-1.2.62-1.44s.92-.03,1.32-.35c.44-.35.95.16,1.37-.1,1.1-.69.28-4,1.2-4.86s2.53.02,3.9-.3c-.43-2.33,1.06-3.48,1.96-4.97,1.2-1.98,2.18-3.98,3.62-5.84.81-1.05.52-2.42,2.5-2.73,1.09-.17.77-2.57.78-3.5,3.6-2.82.42-2.53,3.59-8.26,1.27-2.3.21-5.42,1.73-7.67,1.73-2.57,1.59-5.99,2.28-8.83.15-.64.36-1.35,1.07-1.29.33.03,1.33.16,1.54-.31.76-1.64.13-3.32.76-5.1-2.26.72-3.53.09-5.05.09-.22-.58,1.16-.78,1.1-1.26l-.47-3.38c.8,0,1.85.09,2.9.07l10.56-.23,3.04.28,17.55-.31c1.11-.02,2.1-.75,2.05-1.69,1.02.68,1.25,3.28,3.11,2.01.83.86.05,2.16-.21,3.09-.36,1.29-1.81,1.38-2.83,1.62Z"/>
          <path class="cls-125" d="M159.31,449.71l20.51.04c.32,1.22,1.88.23,3.14.66.82.28.24,2.96-.65,2.99-2.98.1-5.51.58-8.34.94s-6-.46-9.01.41c-.99.29-.82,2.91-.39,3.85.18.4-.21.8-.24,1.22-.64.13-.36-.61-.46-1.4-2.46-.07-4.78-.09-7.07.4.16,11.99,2.17.87,2.74,11.32l4.75.41c-.1,1.36-.18,3.42,1.13,3.57.9.11,2.03-.12,2.65.4,1.71,1.45,3.84-.27,5.91.45-.73.21-1.18.47-1.17,1.09,0,.72-.14,2.13.84,2.27-1.39-.2,3.89-.2,4.33,1.26,1.21,4.08-6.54,2.62-9.99,2.82l-.39,4.53c.74.63,1.5.8,2.17,1.15-1.1,1.63-3.19,2.49-5.42,1.92-.41,1.46-.5,2.85-1.26,3.36-1.08.71-2.21.41-3.33.92-1.55.71-.5,3.09.13,4.19.67,1.16,2.23,1.81,3.58,1.28-.29-.99.34-.95.84-.84-.69,2.3.14,4.68-.23,7.02-.45,2.86-1.1-1.35,0,5.18,3.89-.89,7.7-.68,11.75.1.51.1,1.22-1.35,1.69-.33.13.29.75.47.6.95l-24.82.16c-.93,0-1.89-.4-1.53-1.24l.09-51.8-5.19-.31c-.19-3-.35-5.78.07-8.44,4.12-.54,8.39-.52,12.58-.51Z"/>
          <path class="cls-42" d="M80.43,246.95c6.01.72,12.23-.29,18.05,1.25.11.96.08,2.8-.58,3.8l-8.78.68-.51,13.08c-4.75,1.18-9.59,1.13-14.52,1.54-1.64,3.51.07,9.65-2.41,8.66-1.39.57-1.81-10.57-2.01-11.37-.35-1.42-1.58-2.66-1.32-4.65.51-3.96-5.23-1.39-7.9-3.54l-.04-1.65c-.02-1.03,0-1.93.96-2.5.62-.37,1.72-.22,2.57-.63,1.76-.85.78-3.15,1.31-4.52,4.9,1.33,10.26-.74,15.17-.15Z"/>
          <path class="cls-53" d="M71.69,275.96c-1.08.94-2.27,2.19-2.29,3.34-.03,1.64,0,3.97,1.61,4.28,1.41.28,3.12-.25,3.21,1.23-1.31.25-2.76-.27-4.13-.24-1.83.04-2.22,1.91-2.59,3.25-.76,2.72-2.02,5.09-2.28,7.71-1.05-.26-2.64-.06-3.45.9-.42-1.19-3.52-1.08-3.89.05-.55,1.7-.43,3.62.17,4.84-.6.17-1.46,1.14-2,.97-.81-.26-1.91-.98-2.1-1.68.63-.19,1.2-.14,1.44-.52.93-1.43.99-13.21.06-16.16-1.06-3.36-.06-6.99-.35-10.4.53-.87,1.54-1.56,1.43-2.9-.13-1.61,2.15-1.73,2.45-2.58,1.03-2.93-.05-6.19.76-9.1.26-.92.75-1.64.72-2.55,2.67,2.15,8.41-.42,7.9,3.54-.26,2,.97,3.23,1.32,4.65.2.8.62,11.93,2.01,11.37Z"/>
          <path class="cls-160" d="M101.92,441.52c-.13,1.78.75,4.48-.56,6.13-.82,1.03-3.58.9-4.16,2.52l-38.98-.5c-.85.41-.57,1.26-1.16,1.24l-1.16-2.26c-1.86-3.63,0-8.61.38-13,1.69,0,3.03-.12,4.22-.76,1.34,1.8,3.87.53,5.78.05,1.87,2.71,3.97,1.62,7.44,3.68,3.74.13,7.44.06,10.26,3.55l17.94-.64Z"/>
          <path class="cls-7" d="M54.01,343.89c.64.08,1.25.47,1.61.88-2.79,1.06-3.03,4.7-5.22,5.8-1.71.87-4.05.79-3.96,3.41,0-.15-2.58,4.85-4.38,4.54-.47,2.26-2.32,3.94-4.8,3.44-3.33,7-5.69-.49-5.08,6.46l-4.6,1.76-.37,2.62c-.15,1.08-3.16.57-4.03,1.64-.6.74-.44,1.62-.17,2.59.79,2.83-6.67.26-10.17,2.22-1.41.79-1.46,4.14-3.41,4.49s-1.81,1.51-2.75,2.92c-1.3,1.94-4.7.91-6.57.95-.46-7.9,2.39-1.15,3.8-8,1.28-.62,2.85-.11,3.88-.94.96-.77-.12-2.92.85-3.83,1.12-1.04,3.28.14,4.32-1,.63-.69-.12-2.61.82-3.24,1.33-.89,2.99-.39,4.39-1,.58-1.04-.24-2.7.57-3.49,1.05-1.01,2.82-.35,4.15-.67.55-1.35.18-2.66.6-4.15l4.67-.6.8-3.97c2.6-.7,5.21-.52,7.81-1.52l.67-3.79,8.89-1.51,1.07-6.02c2.2-.03,4.41-.25,6.6,0Z"/>
          <path class="cls-130" d="M11.96,223.93c-.68,10.42,1.23,6.29,1.95,7.27.95,1.29,1.41,2.8,3.42,2.58.43,1.72.1,3.37,1.05,4.53.57.69,3.1.44,3.84-.16,1.08-.87,2.19-1.69,3.95-1.87,1.66-.17,2.37.71,3.13,1.69l21.46.2c.59-1.18.43-1.87.86-3.36,2.02,1.07,4.11.72,6.61,1.15.92.16,1.82,1.74,2.88.96.12.16.06.35.09.52.38,1.79.35,3.59.29,5.41-1.94-1.15-4.43.52-6.24,1.12l-5.99,1.99c-8.56,2.85-17.98-.9-26.45,1.05-1.31-1.31-3.4-.3-5.16-.95-1.07-1.68-.13-3.76-.91-5.71-.49-1.21-3.19-.64-4.32-.84-.86-1.58.29-4.42-1.08-4.87l-2.31-.76c-.27-3.04-.65-6.21.17-9.22.23-.86,2.29-.72,2.74-.73Z"/>
          <path class="cls-12" d="M19.17,220.25l-.98.26c-.39.1-.79,6.3-.14,7.51l8.79-.02c.73,0,1.36,1.02,2.23.66-.45,1.07,1.31,1.17,1.62,1.78.81,1.65,1.46,1.92,3.18,1.93l17.34.13c.53-1.47.62-2.7.48-3.89,1.32.31,2.99-.74,4.21.12.78.89.25,2.09.59,3.37,1.65.19,3.12.18,4.57.15-.05.8.02,1.62.21,2.4.18.72.2,1.56-.13,2.25-1.06.78-1.96-.8-2.88-.96-2.5-.43-4.6-.08-6.61-1.15-.44,1.49-.28,2.19-.86,3.36l-21.46-.2c-.76-.97-1.47-1.86-3.13-1.69-1.77.18-2.87,1-3.95,1.87-.74.6-3.27.85-3.84.16-.96-1.16-.63-2.81-1.05-4.53-2.01.22-2.47-1.29-3.42-2.58-.72-.98-2.63,3.15-1.95-7.27,1.72-5.73,4.65-2.3,6.1-5.32.39.33,1.24,1.07,1.11,1.64Z"/>
          <path class="cls-184" d="M64.05,496.45c.16,1.34,3.83-.53,3.47,1.05-.67.04-1.6.04-2.02.61.52-.7-.96,7.59.28,8.41,9.61.23,18.01.64,26.56-.09.24,1.03.31,2.56.34,3.57.01.51.15,1.99-.84,1.99h-39.72c.18-4.85-.18-9.67.89-13.84,1.81.04,4.48.26,3.95-1.73,1.25,1.19,2.86.71,4.67.42l2.41-.4Z"/>
          <path class="cls-114" d="M183.89,493.6c0,.89.08,2.73.53,3.6,1.37.97,3.22.01,4.76.48.76,1.08.31,2.64,1.21,3.68.66.76,2.18.11,3.26.35.66,1.74.32,3.52.33,5.23-.74-.65-1.71-.43-2.86-.42l-22.47.07c-1.73,0-3.34.19-4.58-.67.36-2.34-.47-4.72.23-7.02.48-.39-.06-.71-.21-1.22,1.1-.78,2.66.24,3.52-.51.94-.86.48-2.51,1.17-3.56,3.24.07,12.92,1.08,15.13-.03Z"/>
          <path class="cls-59" d="M69.56,200.87l.45,4.1c1.62.61,3.24.18,4.72.46.45,1.22.46,2.45.73,4.07l7.42.25c.37.95.92,1.63,1.32,2.34-.66.11-.75,1.03-.83,1.74-.15,1.29-.9,1.31-1.61,1.59-1.54-1.56-4.51-.22-6.51-1.42-1.48-.89-2.65-3.76-5.22-2.16-.76.48-1.94.07-3.11.27-15.35,2.53-7.96-.57-11.77-.69,1.04-.67,1.57-1.1,1.11-2.56-.55-1.77-5.19-.47-5.76-3.93,1.69-.03,3.29-1.97,3.11-3.71l7.37-2.05c.29,1.83,8.69-.88,8.58,1.71Z"/>
          <path class="cls-54" d="M61.52,242.85c.5.81.98,2.37,2.75,2.02.44.98.33,1.84.99,2.23-.54,1.37.44,3.67-1.31,4.52-.84.41-1.94.27-2.57.63-.97.57-.98,1.47-.96,2.5-1.5.33-2.21-1.31-2.96-2.54l-34.15-.32-.47-4.88c8.47-1.95,17.89,1.8,26.45-1.05l5.99-1.99c1.81-.6,4.31-2.27,6.24-1.12Z"/>
          <path class="cls-183" d="M42.73,208.61c-.27.61-.15,2.42,1.16,2.46l11.26.34c3.8.12-3.58,3.22,11.77.69,1.17-.19,2.35.21,3.11-.27,2.56-1.6,3.73,1.27,5.22,2.16,2,1.2,4.97-.14,6.51,1.42-.4.16-1.3.09-1.19.82-2.04-1.33-2.64,8.95-4.26,10.01-.96-.38-3.04.59-3.54-.7-.67-1.72.52-3.56.06-5.21.55-.16,1.26-.4,1.58-.76.49-.55.34-1.98.03-3-2.22,1.28-12.55-1.17-8.3-1.03l-18.67-.64c-.89-.03-1.27-.96-1.93-1.44-4.33-.29-8.65-.11-13,.14-5.59.33-.15,1.68-9.27,2.47-.55,1.8-.95,2.87-1.7,3.79-.79.19-1.59.17-2.38.38.13-.57-.72-1.31-1.11-1.64.41-.86-.24-1.9.44-3.02,1.56-.1,3.41.49,4.38-.65.39-.47-.19-2.23.72-2.47,1.68-.44,3.47.12,5.27-.77l.41-2.97,6.63-.03c-1.44,0,7.74-2.18,6.82-.09Z"/>
          <path class="cls-22" d="M56.33,318.02c.34,2.54.39,5.06.24,7.66-1.64.34-4.59-.79-6.02.7-.85,1.98-.2,4.83-2.46,6.36.4,1.16-1.28,9.94-2.44,9.53-1.5-.05-3.57.43-5.16-.3-2.65-1.22,1.53-6.22,1.65-7.52.34-3.83-.29-17.62,1.28-20.01.77-1.17,2.57-.94,4.12-1.23.64-.74.6-1.75,1.01-2.45,3.06-.67,3.57,5.34,4.02,6.4.41.97,2.9,1.38,3.76.86Z"/>
          <path class="cls-11" d="M183.88,458.03l-.14,12.44c-1.3-.14-3.15-.38-3.84,1.19-.52,1.2-1.78,1.18-2.59,2.02-.04.04-.97,2.14-3.35,1.31-2.07-.72-4.2,1-5.91-.45,1.31-1.01,3.06-2.69,1.47-4.45.61-.82,2.3-3.93.77-4.15l-5.81-.83c-.12-1.87-.26-3.64-.15-5.28.03-.42.42-.82.24-1.22l15.29-.22c1.41-1.14,2.84.16,4.02-.35Z"/>
          <path class="cls-165" d="M188.5,436.77c0,4.94.2,7.24.1,12.39-1.79.42-3.49.41-5.18.57-1.18.12-2.41.02-3.6.01l-20.51-.04c-.39-1.33-1.34-6.82.01-7.2.39-.11.85,0,1.16-.44l25.69-.12c.07-1.86.23-2.92.8-4.08.35-.7.62-1.16,1.53-1.11Z"/>
          <path class="cls-108" d="M183.74,470.47l.17,19.99c-1.6-.01-2.97-.85-5.22-.53-.14-1.13.2-1.85-.14-3.1l-8.81,1.28c-.66-.35-1.43-.52-2.17-1.15l.39-4.53c3.45-.2,11.2,1.26,9.99-2.82-.43-1.46-5.71-1.45-4.33-1.26-.98-.14-.83-1.55-.84-2.27,0-.62.44-.89,1.17-1.09,2.38.83,3.31-1.27,3.35-1.31.81-.84,2.07-.82,2.59-2.02.68-1.57,2.54-1.33,3.84-1.19Z"/>
          <path class="cls-113" d="M193.97,506.95c0,1.58.53,3.37-.28,4.98l-15.59-.09c.15-.49-.46-.67-.6-.95-.47-1.02-1.19.43-1.69.33-4.05-.78-7.85-.98-11.75-.1-1.1-6.53-.45-2.32,0-5.18,1.24.85,2.85.67,4.58.67l22.47-.07c1.15,0,2.12-.23,2.86.42Z"/>
          <path class="cls-113" d="M183.91,490.45l-.02,3.15c-2.21,1.12-11.89.1-15.13.03-.68,1.05-.22,2.7-1.17,3.56-.86.75-2.42-.27-3.52.51.15.5.69.82.21,1.22-.5-.11-1.13-.15-.84.84-1.35.53-2.91-.12-3.58-1.28-.64-1.1-1.69-3.48-.13-4.19,1.12-.51,2.25-.21,3.33-.92.77-.5.86-1.9,1.26-3.36,2.23.57,4.32-.28,5.42-1.92l8.81-1.28c.34,1.25,0,1.98.14,3.1,2.25-.32,3.61.51,5.22.53Z"/>
          <path class="cls-5" d="M56.56,325.68c-.14,2.41.36,4.88-.25,7.46-1.56-.11-2.66.05-3.59.96-2.38,2.34-1.34,6.55-.96,6.8,1.57,1.02,4.83.72,3.77,1.95-.43.49-.88.67-1.48.49-.15.22-.13.44-.05.57-2.19-.26-4.4-.04-6.6,0l-1.77-1.61c1.16.41,2.84-8.37,2.44-9.53,2.26-1.54,1.61-4.39,2.46-6.36,1.42-1.49,4.38-.36,6.02-.7Z"/>
          <path class="cls-28" d="M183.42,449.73c1.02,2.65.49,5.53.46,8.3-1.18.51-2.6-.79-4.02.35l-15.29.22c-.43-.93-.6-3.56.39-3.85,3.01-.88,6.11-.04,9.01-.41s5.36-.85,8.34-.94c.89-.03,1.47-2.71.65-2.99-1.26-.43-2.82.56-3.14-.66,1.19,0,2.42.1,3.6-.01Z"/>
          <path class="cls-62" d="M55.1,273.53c.28,3.42-.71,7.04.35,10.4.93,2.95.87,14.73-.06,16.16-.25.38-.81.32-1.44.52-.27-.97-1.66-1.51-2.48-2.2-.17-1.9,1.31-26.11,3.63-24.88Z"/>
          <path class="cls-16" d="M50.5,204.92c.57,3.46,5.21,2.17,5.76,3.93.46,1.46-.07,1.89-1.11,2.56l-11.26-.34c-1.31-.04-1.43-1.85-1.16-2.46,2.19.73,2.77-3.59,7.77-3.68Z"/>
          <path class="cls-46" d="M155.09,416.03c-.11,2.11.74,4.55.32,7.07,1.54.13,2.53.37,3.35.19.87.74.1,2.08.53,3.47.47,1.53,2.91.74,4.38.81.88,1.43.21,2.98.81,4.69,1.4.09,2.84-.13,4.14-.17,1.25,1.09.22,3.53,1.14,4.75,1.15,1.52,3.83.8,5.37.52,2.74-.5,5.9,1.09,8.31-.58,1.13.55,2.24,1.19,3.54,1.08-.57,1.15-.72,2.22-.8,4.08l-25.69.12c-.18-1.07-.17-1.87.39-3.26-3.75-.46-7.65-.67-10.83-.13-.52.79-1.1,2.09-1.83,2.18-.85.1-2.26.4-2.49-.45-.17-.61.04-1.15-.1-1.37.5-1.05,0-2.38,0-3.43,0-2.47.74-4.92,1.12-7.59,1.43-.27,2.57,0,3.93-.43.44-3.49-.34-6.85.52-10.51.24-1.03,3.13-1.28,3.92-1.03Z"/>
          <path class="cls-112" d="M79.85,496.8c2.06-.12,6.65,1.1,7.92.28.8.97,1.77,1.82,1.73,3.51-.03,1.31,1.79.59,2.21,1.13,1.16,1.47.33,3.4.63,4.71-8.55.74-16.95.32-26.56.09-1.24-.82.24-9.11-.28-8.41.42-.57,1.35-.57,2.02-.61l12.32-.7Z"/>
          <path class="cls-127" d="M160.48,442.07c-.31.45-.77.33-1.16.44-1.35.38-.4,5.87-.01,7.2-4.2,0-8.46-.03-12.58.51-.94-1.27-2.48-.36-4-1.14.23-3.75-1.4-10.09,2.89-10.05.13.22-.07.76.1,1.37.24.86,1.65.55,2.49.45.74-.08,1.32-1.38,1.83-2.18,3.18-.54,7.08-.33,10.83.13-.56,1.39-.57,2.19-.39,3.26Z"/>
          <path class="cls-15" d="M105.52,247.5c.66-.13,2.16.04,2.55.8.57,1.11-.08,2.36.32,3.34-2.81,1.86-5.49-1.38-7.82,4.23-.48,1.15-1.13,1.89-3.24,1.81.69,1.17.37,2.12.14,2.94-.46,1.63-1.68,1.46-3.52,1.48-.42,1.36-.6,2.65-.53,3.82-.25.06-.54-.02-.75-.03,1.64.09-3.54,2.61-3.58,3.51-.49,10.66-.4,21.09-.03,31.41l11.06.74c.63.04,1.46,1.37,2.21,1.55.42.85-.9,2.02.11,2.39.05.18.02.43.02.63-4.91,2.83-6.65,1.73-10.54,5.22l-3.08-.72c-.09-1.21.28-2.92-.84-3.5-1.49-.77-3.55-.55-5,.05.07-.49-.1-.65-.58-.58.88-1.84.72-4.12.56-6.24-1.69-.27-2.91-.12-4.22-.14.18-1.03-.22-2.35-.54-3.63-1.31.03-3.71.4-3.87-.66-.58-3.77.04-7.51-.16-11.11-.08-1.48-1.79-.95-3.21-1.23-1.6-.32-1.64-2.64-1.61-4.28.02-1.15,1.21-2.4,2.29-3.34,2.49.99.77-5.14,2.41-8.66,4.93-.41,9.77-.36,14.52-1.54l.51-13.08,8.78-.68c.66-1,.69-2.84.58-3.8,2.18-1.26,4.67-.23,7.04-.7Z"/>
          <path class="cls-97" d="M74.21,284.81c.2,3.6-.42,7.34.16,11.11.16,1.07,2.57.69,3.87.66.32,1.28.72,2.6.54,3.63-.37,2.16.04,4.29.06,6.42.02,1.95.16,4.39-.38,6.35-3.47,2.83-.76,3.67-3.37,4.24-1.83-.2,1.02-4.62-1.72-4.51-1.75.07-3.54.11-5.29-.02l-1.07-11.92-1.34-1.17c-.82-.72-.58-2.87-.46-4.06.26-2.62,1.52-4.99,2.28-7.71.37-1.35.77-3.21,2.59-3.25,1.37-.03,2.82.49,4.13.24Z"/>
          <path class="cls-189" d="M109.58,307.35c-1.09,1.84-2.56,3.73-1.34,5.69l-7.01.65c-.98.09-1.94-.75-2.82.27.4,1,.32,2.15.06,3.29,4.18.44,8.07-.34,12.23-.3s8.41.33,12.41-.31c.29,1.22-.08,2.37-.07,3.55l-24.6-.09c-4.99-.02-9.87.12-15.07-.16-1.27-2.43-.07-4.89-.35-7.21h7.57c.88.01,1.87-.79,1.33-1.38,3.89-3.49,5.63-2.39,10.54-5.22l1.75.17c1.93.19,4.08-.21,5.35,1.06Z"/>
          <path class="cls-79" d="M140.27,313.1c.73.95,1.12,1.93,1.35,3.34,2.26-.43,2.79.88,3.89,1.56v14.1c0,.88-.27,1.59-.96,1.64.19-.66-1.85-1.63-2.56-1.61l-.11-12.31-13.97-.09-.48,4.98c-.25,2.58.58,5.08.07,7.52-.09,1-1.26,1.52-2.45,1.64l-.64,2.4c-.52-.54.16-.98-.38-1.23-.28-.13-.52-.28-.79-.09l-.18-14.77c-.01-1.18.36-2.33.07-3.55s.55-2.4,1.05-3.49l16.1-.05Z"/>
          <path class="cls-29" d="M108.38,337.48l.47,3.38c.07.48-1.31.68-1.1,1.26h-25.37c-.61-1.63.03-3.16-.14-4.62,8.7-.41,17.43-.07,26.14-.02Z"/>
          <path class="cls-48" d="M141.98,332.13c.71-.02,2.75.95,2.56,1.61-.07.51-.17,1.37-.07,1.86.05.94-.94,1.67-2.05,1.69l-17.55.31c-1.34.11-1.63-1.54-1.65-2.63.28-.19.52-.04.79.09.54.25-.15.69.38,1.23l.64-2.4c1.19-.12,2.36-.64,2.45-1.64,3.92.46,10.85.01,14.49-.1Z"/>
          <path class="cls-30" d="M91.94,311.34c.54.6-.45,1.39-1.33,1.39h-7.57c-.22-1.84-.28-3.7-.02-5.56,1.45-.6,3.51-.82,5-.05,1.13.58.75,2.29.84,3.5l3.08.72Z"/>
          <path class="cls-106" d="M82.44,306.6c-1.19.18-2.4,0-3.59.04-.03-2.14-.43-4.27-.06-6.42,1.31.03,2.53-.12,4.22.14.15,2.12.31,4.4-.56,6.24Z"/>
          <g>
            <path class="cls-81" d="M82.44,306.6c.48-.07.65.09.58.58-.26,1.86-.2,3.72.02,5.55.28,2.32-.92,4.78.35,7.21,5.21.28,10.08.14,15.07.16l24.6.09.18,14.77c.01,1.1.3,2.75,1.65,2.63l-3.04-.28-10.56.23c-1.04.02-2.1-.07-2.9-.07-8.71-.05-17.44-.39-26.14.02-1.05.05-3.08-.34-3.87.59-.73.86.38,3.04-.64,3.62-1.64.94-3.85.14-5.67.87l-1.12,4.76c-.59.38-1.77.11-2.21.37-1.11.65.08,2.6-1.1,4.27-1.49,2.11-3.26-6.35-3.06,13.68-1.42.51-2.77.18-4.04.81-.3,1.42.1,3.28-.89,4.34-.56.6-2.86-.24-3.45.69-1.15,4-.37,17.51-2.22,19.75-.84,1.01-.8,2.27-1.09,3.48-.04.18-.12.36-.09.55-.58-.23-.56.3-.51.7.22,1.7-1.2,2.85-2.13,4.21-.71,1.04.17,3-1.23,3.87-.7.43-2.51-.14-2.83.87-.53,1.65-.01,3.43-.68,5.1l-2.9.51c-.51,1.54-.03,3.32-.76,4.69-.47.88-2.69.15-3.28.71l-2.58,7.48c-4.19.54-8.38.5-12.63.12l-.51-7.54c-.95-.48-2.36.08-3.03-.58-.75-1.43-.15-2.94-.32-4.45-3.54-1.28-.03-3.74-3.12-6.36l2.01-19.36c-2.72-.89-4.87,1.47-5.41,4.07-.44,2.11-3.75.66-5.2,1.91-.38.33-.27,1.38-.64,1.9-.66.92-3.88.91-4.33-.11s-.88-1.28-1.96-1.79c-1.21-.58-.57-2.72-.62-3.63,1.87-.05,5.28.99,6.57-.95.94-1.41.72-2.55,2.75-2.92s1.99-3.7,3.41-4.49c3.51-1.96,10.96.61,10.17-2.22-.27-.97-.44-1.84.17-2.59.87-1.07,3.88-.56,4.03-1.64l.37-2.62,4.6-1.76c-.6-6.95,1.75.54,5.08-6.46,2.49.5,4.33-1.18,4.8-3.44,1.8.32,4.37-4.69,4.38-4.54-.09-2.62,2.25-2.55,3.96-3.41,2.18-1.1,2.42-4.75,5.22-5.8-.36-.4-.97-.8-1.61-.88-.08-.13-.1-.36.05-.57.59.18,1.05,0,1.48-.49,1.06-1.23-2.2-.93-3.77-1.95-.38-.25-1.42-4.45.96-6.8.92-.91,2.02-1.07,3.59-.96.61-2.57.11-5.05.25-7.46.16-2.6.1-5.11-.24-7.66-.19-1.44,1.38-3.9,1.69-5.08,1.96-.31,3.5.84,4.82-.22.64.44,1.79-.18,2.36-.03.87.53,1.88-.07,2.88,0,1.75.13,3.54.09,5.29.02-.05,1.63.64,3.21.17,5.24l-3.51.75c.71,2.73.23,4.8.44,6.84-.21.32-.85.36-.6,1-1.29.6-3.35-.39-4.34.5-1.11,1-.33,3.4-.43,4.64,3.95-.54,8.6,1.5,8.95-.85.17-1.18-.17-2.84-.51-3.98-.69-.03-1.45.3-1.87.26-.72-.07-1.13-.97-1.19-1.58.6-.9,1.58-.86,2.69-.92,1.3-2.53-.42-6.89,1.93-7.4,2.61-.57-.1-1.41,3.37-4.24.54-1.96.41-4.4.38-6.35,1.2-.04,2.4.14,3.59-.04Z"/>
            <g>
              <path class="cls-67" d="M65.44,342.16c-1.94.3-3.21.05-4.9-.07-.38-1.21,0-2.17-.23-3.58-1.7.11-4.8-1.5-3.89-3.41s4.29-.48,5.72-.07c1.3.38,3.93-.04,3.63,1.74-.28,1.66-.95,2.97-.33,5.4Z"/>
              <path class="cls-166" d="M60.52,351.57c.2,1.24.74,3.33-.39,4.55-.7.76-2.99-.22-3.57,1.01s.27,3.28-1.05,4.23c-.91.65-2.55.22-3.79.27l-.12-4.7c1.57-.72,2.92-.37,4.46-.77.34-1.77-.09-3.22.47-4.55l3.99-.04Z"/>
              <path class="cls-94" d="M102.65,327.31c-2.61-.45-6.15,1.2-8.93-.08-.51-.24-.42-2.29.36-2.33,6.11-.26,11.8-.39,17.85.02.62.04.68.73.73.98.58,2.71-7.38,1.85-10,1.4Z"/>
              <path class="cls-135" d="M70.47,325.55c.06.61.48,1.51,1.19,1.58.42.04,1.18-.3,1.87-.26.34,1.14.69,2.8.51,3.98-.35,2.35-4.99.31-8.95.85.1-1.23-.68-3.63.43-4.64.99-.89,3.04.1,4.34-.5-.25-.65.39-.69.6-1Z"/>
              <path class="cls-135" d="M75.09,317.23c-2.35.51-.63,4.87-1.93,7.4-1.11.06-2.09.02-2.69.92-.21-2.04.27-4.11-.44-6.84l3.51-.75c.47-2.03-.22-3.61-.17-5.24,2.74-.11-.11,4.31,1.72,4.51Z"/>
              <path class="cls-36" d="M60.52,351.57l-3.99.04c-.81-.37,3.3-4.3,4.17-3.22.77.95-.32,2.33-.18,3.18Z"/>
            </g>
          </g>
          <path class="cls-55" d="M155.69,316.82l-.02,1.04c0,.32.05.7-.08.92-.67,1.14-4.17.03-4.46.99-1.39,4.55.36,9.22-.29,13.48-.52,3.43-1.16,7.03.07,10.73,1-.21,2.76-.42,3.39.69.97,1.71.16,3.89.83,5.72s4.49-.34,4.63,1.89c.07.83-.72,2.37.38,2.97.99.54,2.31.03,3.36.38.68,1.4.12,3.69,1.43,4.57l3.74,2.5-.54,2.02c-1.04-.04-2.06-.07-3.35-.51-.53.85-.52,1.38-1.1,2.09-.54-.5-1.01-.94-1.67-.84-1.43.23-3.55.53-4.59-.88-.44-.59-.03-1.63-.48-2.11-1.31-1.4-5.12-.64-5.25-1.59l-1.45-10.3c-.05-.34-1.26.25-1.49.06-.89-.78.35-4.67-1.09-6.5-.81-1.04-2.54-.75-3.13-1.82,1.01-.24,2.47-.33,2.83-1.62.26-.93,1.04-2.23.21-3.09-1.85,1.27-2.08-1.33-3.11-2.01-.11-.48,0-1.35.07-1.86.69-.05.97-.76.97-1.64v-14.1c0-.4.24-.97.55-1.16.35-.21,8.43.1,9.63-.01Z"/>
          <path class="cls-157" d="M101.83,360.51c2.13.69.01,6.46.56,10.22.17,1.14-1.34.04-2.35.61.94.57,2.06.87,1.8,2.14-.01.93.31,3.33-.78,3.5-1.98.31-1.69,1.68-2.5,2.73-1.44,1.86-2.42,3.86-3.62,5.84-.91,1.49-2.39,2.64-1.96,4.97-1.37.32-2.96-.57-3.9.3s-.1,4.17-1.2,4.86c-.42.26-.93-.25-1.37.1-.14-1.76-5.62,2.13-6.74.8-1.03-1.22.71-3.44-.3-5.7,2.87-.06,4.89-5.92,3.78-4.23.54-.81,2.85-1.36,2.26-2.58-.98-2.04,2.14-1.78,2.34-2.66.37-1.66,1.8-3.05,2.83-4.29,1.6-1.93,2.41-4.65,4.9-5.56,0-1.48,1-3.43,1.69-4.53l1.88-2.99c.98-1.57.76-3.37,2.68-3.54Z"/>
          <path class="cls-181" d="M144.55,342.32c.6,1.07,2.32.78,3.13,1.82,1.44,1.83.2,5.72,1.09,6.5.23.2,1.44-.4,1.49-.06l1.45,10.3c.13.95,3.95.2,5.25,1.59.45.48.04,1.52.48,2.11,1.04,1.41,3.16,1.11,4.59.88l.82,4.79c2.27.14,4.01.93,5.69,1.86-.51.13-.8.57-.97,1.58-.81.18-1.58-.31-2.29-.28-.19-.19-.46-.77-.76-.97-.4-.27-.56.21-1.08.5-.09-.89-.12-1.57-.61-1.59-.4-.02-1.47-.8-1.89-.7-3.32.78-7.21.58-10.68,1.06-.98.14-2.17-.52-3.53.03-1-2.96-1.37-5.87-1.39-8.76,0-.69-.19-1.07-.39-1.84-.8-3.15.05-6.51-1.09-9.45-.34-.88.06-1.66-.99-2.8-1.38-1.48-1.94-4.59-1.55-6.47,1.07.1,2.15-.32,3.22-.09Z"/>
          <path class="cls-71" d="M86.51,395.79c-.4.32-.95.1-1.32.35s-.59.99-.62,1.44c-.18,2.31-1.69,2.13-2.86,3.04-.84.66-1.34,2.08-2.7,1.93l-.85,5.8c-1.84.11-3.65.04-5.51.38l-.65,4.59c-2.02.33-3.97.57-5.7.4-.09-.29-.48-.34-.68-.27-.4.15-.68.82-.69,1.41-.03,1.15-.94,1.89-1.72,1.79-.58-.07-1.88-.08-2.33-1.33-.41-1.13.24-3.45.98-4.35,1.37-1.29,3.89-1.92,4.34-3.89.33-1.44,2.23-1.32,2.57-2.18.55-1.37,1.61-2.02,2.31-2.98,1.15-1.55.59-4.48,3.43-4.81.56-1.68-.07-3.63,1-5.01,1.16-.51,2.81-1.17,3.95-1.2,1.01,2.26-.73,4.47.3,5.7,1.12,1.33,6.6-2.57,6.74-.8Z"/>
          <path class="cls-151" d="M141.33,342.41c-.39,1.88.17,4.99,1.55,6.47,1.06,1.14.65,1.92.99,2.8-1.52,1.19-2.03-1.71-2.98-1.85-5.59-.87-11.79.66-16.9-.6-1.73-.43-3.17-.33-4.78-.45,0-2.16-.37-4.27.25-6.81,7.62.21,14.78-.21,21.87.44Z"/>
          <path class="cls-139" d="M109.44,348.73c-.68,2.83-.54,6.26-2.28,8.83-1.52,2.25-.46,5.37-1.73,7.67-3.17,5.74.01,5.44-3.59,8.26.26-1.27-.86-1.57-1.8-2.14,1.02-.57,2.52.53,2.35-.61-.55-3.76,1.56-9.54-.56-10.22,1-.84,1.08-2.77.88-4.17-.17-1.17,1.47-.91,1.89-1.32,1.68-1.66-.08-6.69,2.28-7.51,1.43-.5,1.8.29,2.56,1.22Z"/>
          <g>
            <path class="cls-107" d="M82.24,337.5c.17,1.47-.47,2.99.14,4.62h25.37c1.52,0,2.79.63,5.05-.09-.63,1.78,0,3.45-.76,5.1-.22.47-1.22.34-1.54.31-.71-.07-.92.65-1.07,1.29-.76-.92-1.13-1.71-2.56-1.22-2.37.83-.6,5.85-2.28,7.51-.41.41-2.06.15-1.89,1.32.21,1.4.13,3.33-.88,4.17-1.92.17-1.69,1.97-2.68,3.54l-1.88,2.99c-.69,1.1-1.69,3.05-1.69,4.53-2.49.9-3.3,3.63-4.9,5.56-1.03,1.24-2.46,2.64-2.83,4.29-.2.88-3.32.62-2.34,2.66.58,1.21-1.73,1.77-2.26,2.58,1.11-1.68-.91,4.17-3.78,4.23-1.14.02-2.79.68-3.95,1.2-1.06,1.38-.43,3.33-1,5.01-2.84.33-2.29,3.26-3.43,4.81-.71.96-1.77,1.61-2.31,2.98-.34.85-2.24.74-2.57,2.18-.45,1.97-2.98,2.6-4.34,3.89-.74.89-1.38,3.22-.98,4.35.45,1.25,1.75,1.26,2.33,1.33.78.1,1.69-.64,1.72-1.79.02-.59.3-1.26.69-1.41.21-.08.59-.03.68.27-.94.87-.85,2.19-.88,3.67l-4.26.35c-.04-.44-.17-.97-.51-1.09-.31-.12-.89-.13-1.35-.15l-7.96-.24c-.21-1.62-.38-15.38,1.44-14.9.75.05.82-1.11,1.24-1.26.82-.3.49-1.73.7-2.37.43-1.34,1.02-7.39-.75-6.46,1.85-2.23,1.08-15.75,2.22-19.75.58-.94,2.89-.09,3.45-.69.99-1.07.6-2.93.89-4.34,1.27-.63,2.62-.31,4.04-.81-.21-20.03,1.57-11.58,3.06-13.68,1.18-1.67,0-3.62,1.1-4.27.44-.26,1.62.02,2.21-.37l1.12-4.76c1.82-.73,4.03.07,5.67-.87,1.02-.58-.09-2.76.64-3.62.79-.93,2.82-.54,3.87-.59Z"/>
            <path class="cls-5" d="M54.72,397.71c-.45-.74,0-1.71-.34-2.76-.17-.52-1.23-.26-1.51-.22.3-1.21.25-2.47,1.09-3.48,1.77-.93,1.19,5.11.75,6.46Z"/>
            <path class="cls-186" d="M73.96,375.14c-.45-.36.61-.84.62-1.2l.29-7.82c1.31-.36,3.29.21,4.03-.83.96-1.36.09-3.83,1.75-4.79.73-.43,2.61-.08,2.77-1.15l1.09-7.43c4.85.85,9.51.35,13.56-1.77.49-.77-.11-2.33-.38-3.13.8,0,2.54.03,3.22.66,1.71,1.6.76,3.94-.1,5.64-.05.79,0,1.2-.22,1.47s-1.18.22-1.56.52c-1.81,1.45-.69,4.63-1.78,5.51s-2.54-.44-3.48.79c-.65.85.09,2.73-1.19,4.11-.48.52-2.35.32-2.52,1.05l-1.35,6.01c-.12.54-2.09.22-2.28.84l-.77,2.48c-.23.75-1.62.45-1.88.93-.86,1.62.39,3.43-1.94,3.83-2.1.36-4.28-.19-6.83-.05-.82-2.06.71-4.28-1.02-5.68Z"/>
            <path class="cls-164" d="M97.68,347.02c.27.8.87,2.36.38,3.13-4.05,2.12-8.71,2.62-13.56,1.77l-1.09,7.43c-.16,1.08-2.04.73-2.77,1.15-1.65.97-.78,3.44-1.75,4.79-.74,1.04-2.72.47-4.03.83l-.29,7.82c-.01.36-1.07.83-.62,1.2-1.16-.97-2.24,1.12-3.93.04-.09-5.75-1.16-2.27-1.83-7.87-.06-.53,1.05-.67,1.4-1.28.84-1.47-.07-3.42,1-4.59.64-.22,1.74-.03,2.01-.64s.1-1.19.28-2.02l1.45-6.81c1.47-.51,3.24.34,4.2-.62l1.15-4.29,18-.03Z"/>
          </g>
          <path class="cls-76" d="M192.81,415.96c.47.9.34,3.47-.37,4.28-.78.91-3.11-.11-3.54,1.03-.67,1.79,0,3.64-1.3,4.76-.83-.06-3.47-.67-3.85.53-.62,1.96-.35,3.88-.48,5.49-1.75.44-4.09-.8-5.71.57-.49.42-.14,1.31-.77,2.14-.73.96-2.03,1.44-1.67,2.61-1.54.28-4.21,1-5.37-.52-.93-1.23.1-3.66-1.14-4.75,2.23-.07,5.3.79,7.52.14.82-.24,1.51-2.4,1.29-3.2,1.68-.95,2.22-2.99,3.44-4.5s2.16-2.92,2.03-5.1c-.23-3.72.57-7.53-.46-11.23-4.44.45-.6-6.73-5.87-6.47-.17-1.67.57-3.25.16-5.28-.13-.67-1.45-.98-1.64-1.53-.23-.66.12-1.56.25-2.14.35-1.53-2.03-1.17-2.57-1.89-1.17-1.59-.96-3.56-1.72-4.95,1.51-.48,3.17-.03,5.03-.35l1.27-9.24c.31-2.23.95-4.2,3.01-4.75,2.09,1.43.7,6.45,1.59,9.16,1.96-.38,3.12,7.09,3.26,7.49.66,1.79,2.11,2.88,2.01,5.37-.45,11.81,3.25,7.22,2.19,10.54-.56,1.77.91,2.55,1.48,3.62,1.35,2.53.21,6.43,1.91,8.17Z"/>
          <path class="cls-136" d="M79.85,496.8l-12.32.7c.36-1.58-3.31.29-3.47-1.05-.14-.75-.22-1.61.5-2.14.62-.47,1.53.09,2.14-.02,4.26-.74,8.37-1.83,12.76-.8,1.04.24.21,2.65.4,3.32Z"/>
          <g>
            <path class="cls-104" d="M97.2,450.17c.47,2.62.17,5.37-.07,8.29l-4.05.23-.47,11.84c-1.67.54-3.19.02-4.36.84l-.48,25.71c-1.26.82-5.86-.4-7.92-.28-.19-.67.64-3.08-.4-3.32-4.39-1.03-8.5.06-12.76.8-.61.11-1.52-.45-2.14.02-.71.53-.63,1.4-.5,2.14l-2.41.4c-1.81.3-3.42.77-4.67-.42l.09-45.52c.59.02.32-.84,1.16-1.24l38.98.5Z"/>
            <path class="cls-98" d="M86.43,466.62c-2.18,2.61-11.57,1.91-11.82,1.64-.48-.53-.46-1.46-.06-2.87-1.9-.76-3.47-.07-4.83-.97.03-2.11-.45-3.82.03-6.04,1.98.56,3.75-.9,5.14-.62,7.5,1.55,8.05-.67,13.77.65-.09,1.8.74,3.42.11,5.05-1.18.3-1.5,2.16-2.33,3.16Z"/>
            <path class="cls-34" d="M74.7,478.78c-.23,1.12-.1,2.16.94,2.84.85.56,2.02.57,2.82-.18.76-.71.37-1.79.23-2.61.97-.73,3.58-1.44,4.53-.56.85,2.52.95,5.85-.03,8.08-1.47,3.35-6.71,3.59-9.82,1.27-.64-.48-2.31.59-2.5-.9-.12-.91-.58-4.16.15-4.62.34-.21,1.22.34,1.62.02.65-1.38.48-3.24,2.06-3.33Z"/>
            <path class="cls-102" d="M78.35,475.52c-1.93-.24-2.76,1.78-6.5.52.62-1.64-.23-2.56.4-3.81,3.8.37,7.23.31,10.54.2-.45.87.4,1.17.46,1.54.25,1.61-3.37,1.74-4.9,1.55Z"/>
            <path class="cls-144" d="M78.68,478.82c.14.83.53,1.91-.23,2.61-.8.75-1.97.74-2.82.18-1.04-.68-1.17-1.72-.94-2.84,1.35-.07,2.68.37,3.99.05Z"/>
          </g>
          <path class="cls-83" d="M155.66,213.29c.48,2.2-.58,2.58-1.02,6.13-1.14.47-3.48.33-4.11,1.66-.71,1.5-2.55,1.82-3.12,2.78-1.32,2.21-2.68,3.48-4.55,5.12s-2.71,4.05-5.71,4.47c-1.08.15-2.21,1.23-3.34,1.16l-8.92-.55c-.53-.03-.96.02-1.18-.37-.12-.21-.26-.52-.08-.81.5-1.52,1.73-2.68,3.58-2.43,3.9.54,13.26-3.08,11.4-5.44l2.27-3.93c-1.07-.04-1.88.15-1.92-.58,3.46-.71-.16-3.54,3.75-4.3,1.13-.22.77-2.11,1.05-2.8,3.95.05,7.92-.42,11.89-.13Z"/>
          <path class="cls-14" d="M143.77,213.42c-.28.69.08,2.58-1.05,2.8-3.91.76-.28,3.59-3.75,4.3l-20.35.43c.55-1.12,1.62-1.95.67-3.16-.26-.33.73-1.24-.21-1.54-.43-.14-.95.33-1.42-.58,1.49-.47,2.58-1.29,3.62-1.35l13.72-.82c3.15-.19,6.06-.1,8.76-.07Z"/>
          <path class="cls-18" d="M108.38,215.97c-1.12.11-3.01.24-4.38.22-7.33-.1-14.89-.38-22.12.54-.08-.57-.8-.52-1.32-.49-.11-.72.79-.66,1.19-.82.71-.28,1.46-.3,1.61-1.59.08-.71.16-1.63.83-1.74,3.81-.64,19.45-1.54,22.81,1.56.53-.21.8-1.27,1.16-1.32.47-.06.99.67,1.52,1.02-.51.85.29,1.94.45.26.04-.45.76-.45.61.66s-1.7,1.64-2.37,1.7Z"/>
          <path class="cls-99" d="M138.98,220.52c.04.73.85.54,1.92.58l-2.27,3.93c-5.42,0-11,.77-16.45-.14l-3.4-.57c-.03-1.18-.56-2.52-.15-3.37l20.35-.43Z"/>
          <path class="cls-194" d="M108.82,229.92c.41.32-.02.66-.42.53-.4-.52-.48-1.67-.66-2.2-.32-.97-1.26-.76-2.06-.55-.84.22-1.41.68-1.13,2.06.13.63.3,1.72-.06,1.82-.38.11-1.18.25-1.46.16,1.99-3.15-.47-6.28,1-11.06-.56-1.31-.93-3.15-.04-4.48,1.37.02,3.25-.11,4.38-.22-.31,2.76.45,5.54.45,8.54,0,1.92-1.12,3.84,0,5.41Z"/>
          <path class="cls-122" d="M123.64,232.88c-.18.29-.04.59.08.81.22.39.64.34,1.18.37l8.92.55c-.65,1.11-3.98,3.86-6.68,2.3-.52-.3-1.37.57-1.92.53-2.02-.15,1.18-3.18-8.39-1.79-.65-.4-.64-1.12-1.31-1.08,1.06-1.14.7-2.7.51-4.13,1.62.08,3.99-.48,5.58.23.45.77.77,2.61,2.03,2.21Z"/>
          <path class="cls-57" d="M116.04,230.45c.19,1.42.54,2.99-.51,4.13-6.51-.27-2.92.62-7.04-1.75-.1-.58.27-1.91-.08-2.38.39.14.83-.2.42-.53,2.38.26,4.81.41,7.22.53Z"/>
          <path class="cls-136" d="M164.33,459.82c-.1,1.64.03,3.41.15,5.28l5.81.83c1.52.22-.16,3.33-.77,4.15,1.6,1.77-.15,3.44-1.47,4.45-.61-.52-1.75-.29-2.65-.4-1.31-.15-1.23-2.22-1.13-3.57l-4.75-.41c-.57-10.46-2.58.67-2.74-11.32,2.3-.49,4.61-.47,7.07-.4.1.79-.18,1.53.46,1.4Z"/>
          <path class="cls-175" d="M158.64,213.28c.03.68-.23,1.22.07,2.47l7.49.44c-.27,2.89-3.6,1.41-5.88,4-1.16-.12-3.83-.23-4.48,1.01-.79,1.51.17,4.52-1.82,5.24-2.09.76-4.74,1.71-5.45,4.05-.89-.13-1.83.52-3.05.53l-.94,5.65c-2.21-.9-7.92,2.62-12.01,2.66-6.04.05-12.07-.65-18.41-1.75.34-1.24,1.32-.45,2.21-1.25-.23-.41-.62-.5-.91-.85-.22-.26-.22-.58.07-.89.67-.04.66.67,1.31,1.08,9.57-1.39,6.36,1.64,8.39,1.79.54.04,1.4-.82,1.92-.53,2.7,1.55,6.03-1.19,6.68-2.3,1.13.07,2.27-1.01,3.34-1.16,3-.42,3.89-2.87,5.71-4.47s3.23-2.9,4.55-5.12c.57-.96,2.41-1.27,3.12-2.78.63-1.34,2.97-1.2,4.11-1.66.44-3.55,1.5-3.92,1.02-6.13.9.07,2.05-.01,2.98-.01Z"/>
          <path class="cls-118" d="M80.56,216.23c.52-.03,1.24-.08,1.32.49.7,2.17-.99,4.04-1.49,6.02-1.05,4.22.08,8.49-.36,12.44-.25,2.28.6,4.23,1.17,6.53-.96,1.68-1.45,3.38-.77,5.23-4.92-.59-10.27,1.47-15.17.15-.66-.39-.55-1.25-.99-2.23-1.77.35-2.25-1.21-2.75-2.02.06-1.82.09-3.62-.29-5.41.5.27,1.68-.66,1.94-.24.56.89,1.8.68,2.53.95,1.32.49,1.97,3.15,3.66,3.29,1.86.16,4.14-.04,5.84-.88,1.39-.68.59-2.62.63-3.58l.47-10.75c1.62-1.06,2.22-11.33,4.26-10.01Z"/>
          <path class="cls-134" d="M102.87,242.97c1.37.96,3.13,2.73,2.65,4.53-2.37.47-4.86-.56-7.04.7-5.82-1.54-12.04-.53-18.05-1.25-.68-1.85-.19-3.55.77-5.23.34.94,2.39,1.62,3.53,1.59,6.08-.19,12.48.33,18.14-.34Z"/>
          <path class="cls-37" d="M61.77,296.43c-1.03,1.22-.04,3.52-1.42,4.76-.68.48-1.76-.02-2.3.14-.6-1.22-.72-3.15-.17-4.84.37-1.14,3.47-1.25,3.89-.05Z"/>
          <path class="cls-124" d="M75.83,236.99c-.04.96.76,2.9-.63,3.58-1.7.83-3.98,1.03-5.84.88-1.69-.14-2.34-2.8-3.66-3.29-.73-.27-1.98-.06-2.53-.95-.26-.42-1.44.51-1.94.24-.04-.17.02-.37-.09-.52.33-.69.31-1.54.13-2.25,1.51.55,4.3-1.76,5.52-.12.25.34.11,1.3.2,2.2,2.83.92,5.96.09,8.84.24Z"/>
          <path class="cls-101" d="M72.81,220.34c-8.57.28-7.25-1.02-11.66,4.6-.58-.17-2.46-.48-2.83.29-.68,1.43-1.17,2.74-2.43,3.53-1.21-.86-2.88.2-4.21-.12-.57-.13-1.35-.68-2.46-.43-3,.68-5.88.09-8.86.08-2.79,0-5.43.66-8.28-.03-1.14-.27-2.21.08-3.01.41-.87.35-1.5-.67-2.23-.66.59-.72.73-3.39-.49-3.43-1.69-.05-3.88.49-4.52-.57-.53-.88-1.02-3.24-.27-4.15s1.15-1.99,1.7-3.79c9.12-.79,3.68-2.14,9.27-2.47,4.36-.25,8.67-.43,13-.14.66.48,1.04,1.41,1.93,1.44l18.67.64c-4.25-.15,6.08,2.31,8.3,1.03.3,1.02.46,2.46-.03,3-.32.36-1.03.59-1.58.76Z"/>
          <path class="cls-72" d="M72.81,220.34c.46,1.65-.73,3.49-.06,5.21.5,1.29,2.58.31,3.54.7l-.47,10.75c-2.88-.15-6.02.68-8.84-.24-.09-.9.05-1.87-.2-2.2-1.22-1.64-4.01.67-5.52.12-.19-.77-.26-1.6-.21-2.4.15-2.45.25-4.89.1-7.34,4.41-5.62,3.09-4.31,11.66-4.6Z"/>
          <path class="cls-56" d="M51.68,228.63c.14,1.19.06,2.41-.48,3.89l-17.34-.13c-1.72-.01-2.37-.28-3.18-1.93-.3-.61-2.07-.72-1.62-1.78.8-.33,1.87-.68,3.01-.41,2.85.68,5.49.02,8.28.03,2.98,0,5.85.6,8.86-.08,1.11-.25,1.89.29,2.46.43Z"/>
          <path class="cls-63" d="M21.55,219.86c-.74.9-.26,3.27.27,4.15.65,1.06,2.83.52,4.52.57,1.23.04,1.08,2.71.49,3.43l-8.79.02c-.65-1.21-.25-7.41.14-7.51l.98-.26c.8-.21,1.59-.19,2.38-.38Z"/>
          <path class="cls-2" d="M61.15,224.93c.15,2.44.05,4.89-.1,7.34-1.46.03-2.92.04-4.57-.15-.34-1.28.19-2.48-.59-3.37,1.27-.78,1.75-2.1,2.43-3.53.37-.77,2.26-.46,2.83-.29Z"/>
          <g>
            <path class="cls-150" d="M65.21,295.54c-.12,1.19-.36,3.35.46,4.06l1.34,1.17,1.07,11.92c-1-.08-2.01.53-2.88,0,1.42.75-.3-5.26-.77-7.42-.16-.73-2.73-.46-2.73.26l.02,6.49c0,.65.88.52,1.12.69-1.33,1.06-2.86-.08-4.82.22-.31,1.17-1.88,3.63-1.69,5.08-.86.52-3.35.12-3.76-.86-.45-1.06-.96-7.08-4.02-6.4-.95-2.11-1.41-5.37-1.3-7.87,1.16-.7,2.04-1.68,1.69-3.43-.14-.69,2.01-1.48,2.54-1.04.82.69,2.21,1.23,2.48,2.2.19.7,1.29,1.42,2.1,1.68.54.17,1.4-.8,2-.97.54-.16,1.62.35,2.3-.14,1.38-1.24.39-3.54,1.42-4.76.8-.95,2.4-1.16,3.45-.9Z"/>
            <path class="cls-88" d="M65.2,312.69c-.57-.15-1.72.47-2.36.03-.24-.18-1.12-.04-1.12-.69l-.02-6.49c0-.72,2.57-.99,2.73-.26.47,2.15,2.19,8.16.77,7.42Z"/>
            <path class="cls-50" d="M51.2,301.78c.5-.82,1.23-.36,1.55-.05.4.4.66.67.24,1.15s-.8.51-1.15.46c-.49-.06-1.22-.62-.64-1.57Z"/>
          </g>
          <path class="cls-84" d="M183.27,432.05c-.12,1.55.5,3.18.16,4.75-2.4,1.67-5.57.08-8.31.58-.36-1.17.94-1.66,1.67-2.61.63-.83.28-1.72.77-2.14,1.62-1.37,3.95-.14,5.71-.57Z"/>
          <path class="cls-191" d="M145.35,362.97c.02,2.89.39,5.8,1.39,8.76,1.37-.55,2.55.1,3.53-.03-.21,1.07-.48,3.2,1.16,3.45,2.95.45,6.18-.63,8.26,1.15-.4,1.15-.07,2.11.58,3.02.5.71,2.45.47,2.78,1.35,3.59,9.53,3.34,4.27,5.83,6.43.68.59-.04,1.62.28,2.27,2.58,5.23,2.6,18.76,2.28,24.71-.3,5.59-5.77.59-5.66,7.34-2.57.72-4.97.76-7.03,1.86-.82.18-1.8-.05-3.35-.19.42-2.53-.43-4.96-.32-7.07.18-3.36,1.18-7.58-1.09-10.79-.56-.79-2.27-.97-2.17-2.59-2.76-1.53-.76-8.28-1.83-10.95-1.36-.66-4.39-.87-5.12.61-.51,1.04.52,2.98-1.03,3.39-1.17.31-2.28.09-3.54.21-.26-1.38-.85-3.31.21-4.59.7-.84,2.88.29,3.68-.97.65-1.02.3-3.32-.69-3.93-1.28-.79-2.71-.33-3.89-1.23l-.05-23.49c0-1.02,1.61-.84,2.16-.73,1.96.43.42,2.68,2.32,2.41.37-.05.75-.49,1.29-.41Z"/>
          <g>
            <path class="cls-82" d="M143.87,351.69c1.15,2.94.29,6.3,1.09,9.45.19.77.38,1.15.39,1.84-.54-.09-.92.35-1.29.41-1.9.27-.36-1.98-2.32-2.41-.55-.12-2.16-.29-2.16.73l.05,23.49c1.18.9,2.61.45,3.89,1.23.99.61,1.34,2.91.69,3.93-.8,1.25-2.99.13-3.68.97-1.06,1.28-.47,3.21-.21,4.59,1.26-.13,2.36.09,3.54-.21,1.55-.4.52-2.34,1.03-3.39.72-1.48,3.76-1.27,5.12-.61,1.07,2.67-.93,9.42,1.83,10.95-.1,1.63,1.6,1.8,2.17,2.59,2.27,3.2,1.27,7.42,1.09,10.79-.78-.25-3.67,0-3.92,1.03-.86,3.65-.08,7.02-.52,10.51-1.36.44-2.5.16-3.93.43-.37,2.68-1.12,5.12-1.12,7.59-1.31-.45-3.31.47-4.5-.38-.84-.88-.94-3.04-.94-4.39,0-7.35.36-14.36-.35-21.55-.09-.95-3.08-1.58-3.62-.8l-.22,13.3c-1.81.43-3.76.57-5.5-.04-.27-1.75.43-4-.42-5.75-.48-.98-3.84-.88-4.2.16-1.02,2.95-.86,6.16-1.13,9.35l-.71,8.44c-.97.65-2.92.42-4.27.05l-.34-29.61c0-.22-.44-.44-.44-.71l.24-54.9c1.61.13,3.05.03,4.78.45,5.1,1.26,11.3-.27,16.9.6.95.15,1.46,3.04,2.98,1.85Z"/>
            <path class="cls-154" d="M125.98,395.91c-2.17-2.45-2.26-18.39-2.34-23.59l-.25-16.34c0,.47.14-5.17,1.22-5.06.64.06.96.56.98,1.37l.95,33.61-.57,10.02Z"/>
          </g>
          <path class="cls-105" d="M165.13,375.76c1.09-.04,2.39.92,3.79,1.07-.17,2.14-.82,9.46,2.13,9.11.76,1.39.55,3.36,1.72,4.95.53.72,2.91.36,2.57,1.89-.13.58-.48,1.48-.25,2.14.19.55,1.51.85,1.64,1.53.4,2.03-.33,3.61-.16,5.28.8,8.01-.19,23.56.86,27.31.23.81-.46,2.96-1.29,3.2-2.21.64-5.29-.21-7.52-.14-1.3.04-2.75.26-4.14.17-.6-1.71.07-3.26-.81-4.69-1.47-.07-3.91.71-4.38-.81-.43-1.39.34-2.73-.53-3.47,2.06-1.11,4.46-1.15,7.03-1.86-.11-6.75,5.35-1.75,5.66-7.34.32-5.96.3-19.48-2.28-24.71-.32-.64.4-1.68-.28-2.27-2.49-2.16-2.24,3.1-5.83-6.43-.33-.88-2.28-.65-2.78-1.35-.65-.91-.98-1.87-.58-3.02,1.7-.67,3.63-.47,5.44-.54Z"/>
          <path class="cls-47" d="M112.54,252.87c.09,1.05.58,2.75.83,3.92.33,1.53,2.83.68,3.86,1.44,1.32.97.45,3.18,1.19,4.71,1.04.79,2.95-.03,3.64,1.03l.43,2.83c.22,1.42,1.79.64,3.05,1.07,1.37.47,1.05,2.56.97,3.51-.52.13-.69.06-.69.3v1.99c-.02,1.08-1.98.95-3.18,1.34-.05,2.95-1.97,3.93-3.81,5.72-1.95,1.89-4.46,6.07-8.22,5.11-1.98-.51-4.87-3.13-7.46-3.03l-1.34-11.61-.33-13.71c-.02-.7-.07-1.76-.9-1.61,2.33-5.61,5.01-2.37,7.82-4.23.98,1.28,2.83.62,4.14,1.23Z"/>
          <path class="cls-140" d="M126.52,271.38c.54,2.35,1.75.14,3.28,2.35.95,1.38-2.79,5.37-2.79,5.63,0,2.69-2.23,3.49-3.79,4.99-1.28,1.23-1.85,3.15-3.6,4.09-1.08.59-1.25,3.32-3.73,2.79-.82-.18-1.75.73-2.32.71-.82-.03-1.21.92-2.01,1.24-1.48.59-2.93.45-2.96,2.53-7.29.18-4.34,1.28-10.25-.45,1.72-2.75-1.72-4.19-1.45-5.53.55-2.74-1.64-4.04-2.18-5.68-1.93-5.83-.95-12.33-1.27-18.15-.06-1.18.11-2.46.53-3.82,1.84-.02,3.06.15,3.52-1.48.23-.82.54-1.77-.14-2.94,2.11.09,2.76-.65,3.24-1.81.84-.15.89.91.9,1.61l.33,13.71,1.34,11.61c2.59-.1,5.48,2.52,7.46,3.03,3.76.96,6.27-3.22,8.22-5.11,1.85-1.79,3.77-2.77,3.81-5.72,1.2-.39,3.16-.26,3.17-1.34v-1.99c.01-.25.19-.17.7-.3Z"/>
          <path class="cls-156" d="M93.43,265.92c.32,5.82-.65,12.32,1.27,18.15.54,1.64,2.73,2.94,2.18,5.68-.27,1.34,3.17,2.78,1.45,5.53,5.91,1.72,2.96.62,10.25.45.04-2.08,1.48-1.94,2.96-2.53.8-.32,1.19-1.27,2.01-1.24.16,1.6-.2,3.09-.93,4.53l-3.51,1.6c-1.1.5-.53,2.44-1.36,3.34-1.6.43-3.64.34-4.57,1.91-.38.65.16,2-.74,2.17-1.01-.37.32-1.54-.11-2.39-.75-.17-1.59-1.5-2.21-1.55l-11.06-.74c-.37-10.32-.46-20.75.03-31.41.04-.9,5.22-3.43,3.58-3.51.21.01.5.08.75.03Z"/>
          <path class="cls-100" d="M108.3,237.38c1.54.08,1.95,1.69,1.95,3.13,0,2.21,3.07-.28,4.74,5.45.41.28.09,1.19-.21,1.37-.49.29-1.45.16-2.67.14.26,1.85.28,3.68.43,5.41-1.32-.61-3.16.06-4.14-1.23-.4-.98.25-2.23-.32-3.34-.39-.76-1.9-.93-2.55-.8.48-1.8-1.28-3.57-2.65-4.53l.45-4.93c1.73.19,3.4-.74,4.99-.66Z"/>
          <path class="cls-39" d="M118.5,296.65c.18,1.38-.23,2.81-.05,4.19-1.41.45-3.06.02-4.67.78-.18,1.28.55,4.03-1.2,4.34-1.32.23-2.41.4-2.99,1.39-1.27-1.27-3.42-.87-5.35-1.06l-1.75-.17c0-.19.03-.45-.02-.63.9-.16.36-1.52.74-2.17.93-1.57,2.98-1.48,4.57-1.91.83-.9.26-2.84,1.36-3.34l3.51-1.6c-1.52.69,5.48-1.89,5.86.17Z"/>
          <path class="cls-168" d="M118.72,303.01l.33,10.01c-3.6-.09-7.24-.32-10.81.01-1.23-1.96.25-3.84,1.34-5.69.59-.99,1.67-1.16,2.99-1.39,1.75-.31,1.02-3.05,1.2-4.34,1.61-.76,3.26-.33,4.67-.78l.27,2.17Z"/>
          <path class="cls-8" d="M108.24,313.03c3.57-.33,7.21-.1,10.81-.01l5.12.13c-.5,1.09-1.35,2.23-1.05,3.49-4,.64-8.09.36-12.41.31s-8.05.74-12.23.3c.26-1.14.34-2.29-.06-3.29.88-1.03,1.84-.18,2.82-.27l7.01-.65Z"/>
          <path class="cls-92" d="M156.15,295.55c-.06,1.64.56,9.21-1.08,10.71-.6.55-2.45.03-2.69.52l-1.05,2.1c-.53,1.06-3.6-.16-4.57,1.23-.57.81-.72,2.02-1.3,2.73l-5.19.26-16.1.05-5.12-.13-.33-10.01c.71-.37,1.15.17,1.41.56.2.3-.57,1.61-.32,1.94,1.86,2.36,5.02,2.1,7.58,2.06l11.21-.18c.77-1.1,1.25-2.18,2.19-3.13,9.23,1.87,6.65-3.12,9.39-2.51,1.26.28,3.02-.14,3.5-1.03.57-1.07.83-3.1-.39-3.59-.86-.34-1.63.18-1.97-.71-.94-2.49-2.46-5.28-1.31-6.25.48-.41,1.08-.05,1.31.25.28.37-.03,1.32.29,1.83.39.62,1.27.55,1.49.83.37.49,0,1.11-.1,1.78-.19,1.19.81,1.3,1.69,1.31.47,0,.94-.05,1.45-.62Z"/>
          <path class="cls-161" d="M156.12,313.3c-.96,1.03-.41,2.33-.43,3.52-1.21.11-9.28-.2-9.63.01-.31.18-.55.76-.55,1.16-1.09-.68-1.62-1.99-3.89-1.56-.24-1.41-.62-2.39-1.35-3.34l5.19-.26c3.38-.17,6.87.72,10.17-.13-.03.38.08.59.49.59Z"/>
          <path class="cls-111" d="M159.77,352.28c-.14-2.23-3.93.02-4.63-1.89s.14-4.01-.83-5.72c-.63-1.11-2.39-.9-3.39-.69-1.23-3.69-.59-7.3-.07-10.73,1.38-.42,3.54.64,4.57-.41,1.36-1.39,3.28-2.02,2.56-3.65.79-.25,1.83.34,2.24.9.61.83-.4,1.6-.65,2.22-1.55,3.89-4.25-.1-4.78,3.61.07-.5,1.43,4.8,1.17,6.47,2.3,0,1.27,2.41,2.07,3.08,1.53,1.28,3.75,4.32,3.72,6.42-.57.29-1.34.46-1.97.39Z"/>
          <path class="cls-115" d="M179.48,364.02c.16.22.38.38,0,.59-.61,2.64-2.97.01-4.92,2.02-.07.08-.97,5.28-1.38,4.15-1.17-1.73-2.77-.03-3.61,1.03.34,1.93-.26.18-1.04.29-1.68-.93-3.43-1.72-5.69-1.86l-.82-4.79c.66-.11,1.13.33,1.67.84.58-.71.57-1.24,1.1-2.09,1.29.44,2.31.47,3.35.51.49.02.78.73,1.71.4,2.63-.94,5.03-1.89,6.99-3.44.78-.06,1.59-.32,2.19.71.31.52.36.82.44,1.63Z"/>
          <path class="cls-169" d="M162.14,313.29c2.1.55.99,4.98.83,5.17-.38.44-1.35-.75-1.93-.4-1.96,1.19-4.09,1.48-5.37-.2l.02-1.04c.02-1.19-.53-2.49.43-3.52,2.01.02,4.02.1,6.02,0Z"/>
          <path class="cls-159" d="M176.85,361.67c-1.96,1.56-4.36,2.51-6.99,3.44-.93.33-1.22-.38-1.71-.4l.54-2.02c.2-.74.56-1.92.93-2.73.48-1.06,3.58-1.79,4.32-.74.7,1,2.47,1.37,2.91,2.44Z"/>
          <path class="cls-128" d="M180.36,371.61c-2.06.54-2.7,2.51-3.01,4.75l-1.27,9.24c-1.86.32-3.52-.13-5.03.35-2.95.35-2.3-6.97-2.13-9.11-1.39-.16-2.7-1.12-3.79-1.07.03-.77.39-1.59.15-2.35.71-.03,1.48.46,2.29.28.16-1.01.45-1.45.97-1.58.78-.12,1.38,1.64,1.04-.29.84-1.07,2.44-2.77,3.61-1.03.4,1.13,1.3-4.08,1.38-4.15,1.95-2.01,4.32.62,4.92-2.02l.88,7Z"/>
          <path class="cls-193" d="M165.28,373.41c.24.76-.12,1.58-.15,2.35-1.81.07-3.74-.13-5.44.54-2.08-1.79-5.31-.71-8.26-1.15-1.64-.25-1.37-2.37-1.16-3.45,3.47-.48,7.36-.28,10.68-1.06.41-.1,1.49.69,1.89.7.48.02.52.7.61,1.59.51-.29.68-.77,1.08-.5.29.2.56.78.76.97Z"/>
          <path class="cls-183" d="M163.97,258.03c-.22,16.41.48,32.89-.56,49.18-2.4-.39-4.92-.39-7.61.11-.28,1.95-.02,3.67-.17,5.39-3.29.85-6.79-.04-10.17.13.57-.71.73-1.91,1.3-2.73.97-1.4,4.04-.17,4.57-1.23l1.05-2.1c.24-.49,2.09.03,2.69-.52,1.64-1.5,1.02-9.08,1.08-10.71l.68-17.36c.97-.21,2.04.27,3.19-.35l.26-20.2c1.17-.16,2.59.43,3.69.4Z"/>
          <path class="cls-33" d="M203.31,250.65c1.03.49,1.98.62,3.42.68.58,2.15.67,3.91.46,5.7l-43.23,1c-1.1.03-2.52-.56-3.69-.4l-.26-8.81c-1.44-.81-4.18-1.09-5.59-.19-.06-.28-.29-.33-.35-.51-.17-.48-.3-.46-.69-.14,1.19-1-.36-5.12,1.01-5.05,1.68-.3,3.41.07,5.37.28l4.4.47.45,8.36c4.39.38,8.4.86,12.58.01,5.02-1.01,19.91,1.11,23.22-.66.69-.37,1.96-1.2,2.89-.75Z"/>
          <path class="cls-66" d="M163.4,307.21c-.11,1.74.53,4.15.11,5.97-.46-.1-.93.09-1.37.11-2,.11-4.02.02-6.02,0-.41,0-.53-.21-.49-.59.16-1.72-.11-3.44.17-5.39,2.69-.49,5.21-.5,7.61-.11Z"/>
          <path class="cls-192" d="M177.43,429.04c-1.05-3.75-.06-19.29-.86-27.31,5.27-.25,1.42,6.93,5.87,6.47,1.03,3.7.24,7.51.46,11.23.13,2.18-.76,3.55-2.03,5.1s-1.76,3.55-3.44,4.5Z"/>
          <path class="cls-74" d="M104,216.19c-.89,1.33-.53,3.17.04,4.48-1.47,4.78.99,7.92-1,11.06-.57,1.26-2.38.95-3.9,1.26l-.52,4.27c-4.65.22-9.32.66-13.8-.37-1.67-.39-3.08-2-4.78-1.7.44-3.95-.69-8.22.36-12.44.49-1.98,2.19-3.85,1.49-6.02,7.24-.91,14.79-.63,22.12-.54Z"/>
          <path class="cls-49" d="M108.4,230.44c.36.47-.02,1.8.08,2.38.21,1.23-.27,3.21-.18,4.56-1.59-.08-3.26.85-4.99.66l-.45,4.93c-5.67.67-12.06.14-18.14.34-1.14.04-3.19-.65-3.53-1.59-.57-2.3-1.42-4.26-1.17-6.53,1.7-.29,3.11,1.32,4.78,1.7,4.48,1.03,9.15.58,13.8.37l.52-4.27c1.52-.31,3.33,0,3.9-1.26.27.1,1.07-.05,1.46-.16.36-.1.19-1.2.06-1.82-.28-1.38.29-1.84,1.13-2.06.8-.21,1.73-.42,2.06.55.18.53.26,1.68.66,2.2Z"/>
          <path class="cls-40" d="M115.52,234.57c-.29.31-.29.63-.07.89.29.35.68.44.91.85-.89.8-1.87.01-2.21,1.25,6.35,1.1,12.37,1.8,18.41,1.75.04.85-.66,1.34-1.57,1.39-2.67.13-9.8,2.63-9.96,2.75.05-.03-.95,3.81-.96,3.24,0,.65,1.66-.43.68,4.92-.99-.51-2.03-1.45-1.5-2.79-5.2-2.49-.38-1.28-4.25-2.87-1.67-5.73-4.74-3.24-4.74-5.45,0-1.44-.41-3.05-1.95-3.13-.09-1.35.38-3.33.18-4.56,4.13,2.37.53,1.48,7.04,1.75Z"/>
          <path class="cls-90" d="M160.32,220.18c.38.04.92.54,1.51.64,6.77,1.12,27.74-.68,35.83.14-.06.77.48,2.03.24,3.25l-.33,1.73c-.06.3-.21,1.09.6,1-.13,2.43-.2,4.94-.47,7.37l-4.37,1.6c-1.14.42-.92,2.42-2.1,3.12-1.39-1.44-1.1-3.23-1.36-4.92-2.3-.48-4.35.89-6.42,1.41-3.24.82-6.29.27-9.56.39-.8.03-8.15.92-7.95,1.02-1.75-.91-.28-3.33-1.22-3.49-2.17-.36-4.42.74-8.53-.09.57-.99.06-7.3-1.43-7.04l-.76.13c1.99-.72,1.02-3.73,1.82-5.24.65-1.24,3.33-1.13,4.48-1.01Z"/>
          <path class="cls-109" d="M203.4,220.86c-.7,5.08-1.38,10.27-1.16,15.41-1.15-.09-1.94.96-2.94,1.38-.6.26-1.24-.15-1.69.26-.55.49-.54,1.18-.86,1.8-1.29,2.54-6.09.54-8.02-.31-1.15-.51-1.76-1.22-3.63-.61-1.47.48-3.85-.42-5.04.75-.97,1.1-.12,3.08-.6,4.56-2.01.33-8.93.83-9.92-.4s-1.75-2.69-1.53-4.38c-3.52-2-9.62.42-12.47-.53.11-1.91-.29-3.74.68-5.43,4.11.82,6.36-.28,8.53.09.94.16-.53,2.58,1.22,3.49-.2-.1,7.14-.99,7.95-1.02,3.27-.12,6.32.43,9.56-.39,2.07-.52,4.12-1.9,6.42-1.41.26,1.69-.03,3.48,1.36,4.92,1.18-.7.95-2.7,2.1-3.12l4.37-1.6c.27-2.44.34-4.94.47-7.37l.28-5.34c.79-1.47,3.69-.65,4.94-.73Z"/>
          <path class="cls-195" d="M197.66,220.96c-8.09-.81-29.07.99-35.83-.14-.6-.1-1.14-.6-1.51-.64,2.29-2.59,5.62-1.11,5.88-4,2.14.13,25.54-1.36,27.6.11.34.24-.05,1.26.07,1.81l3.99.65c1.08.18-.16,1.65-.2,2.2Z"/>
          <path class="cls-4" d="M153.86,239.97c-.32.85.04,2.3.54,2.97-1.38-.08.18,4.05-1.01,5.05-.55.45-1.54,0-2.08.36-.86.56-.03,3.08-.85,4.47-.4.68-1.52.15-2.69.54-.86.47-.57,2.32-.64,3.41-4.23,2.02,1.21,5.64-4.61,5.56-1.24-.02-1.68,1.84-1.57,2.91.34,3.36-1.5.58-5.52,5.35-.61.72-1.25-7.72-.53-7.54-2.35-1.39-5.37-1.3-7.4-2.86-1.61-1.24-2.06-4.9-4.34-5.97-1.37-.64-3.03-.92-2.39-2.61.98-5.35-.67-4.27-.68-4.92,0,.57,1.01-3.28.96-3.24.17-.12,7.3-2.61,9.96-2.75.92-.05,1.62-.54,1.57-1.39,4.08-.04,9.8-3.55,12.01-2.66l.94-5.65c1.22-.01,2.17-.67,3.05-.53s1.2-.09,2.16-1.17c.72,1.06,1.02,11.3,2.3,10.91l.83-.26Z"/>
          <path class="cls-162" d="M156.2,233.35c-.97,1.69-.56,3.52-.68,5.43-.46-.15-1.5.72-1.67,1.18l-.83.26c-1.28.4-1.57-9.85-2.3-10.91-.96,1.09-1.27,1.31-2.16,1.17.71-2.34,3.35-3.29,5.45-4.05l.76-.13c1.49-.25,2,6.05,1.43,7.04Z"/>
          <path class="cls-75" d="M120.75,251.62c-.64,1.69,1.02,1.97,2.39,2.61,2.28,1.07,2.73,4.73,4.34,5.97,2.03,1.57,5.05,1.48,7.4,2.86-.72-.19-.08,8.26.53,7.54,4.02-4.78,5.86-2,5.52-5.35-.11-1.07.33-2.93,1.57-2.91,5.82.08.39-3.54,4.61-5.56.08-1.09-.22-2.94.64-3.41,1.17-.39,2.29.13,2.69-.54.83-1.39,0-3.91.85-4.47.54-.35,1.54.09,2.08-.36.39-.32.52-.34.69.14.06.18.29.23.35.51.27,1.37-.02,2.76-.02,4.15-.5.13-.34.6-.8,1.3-2.02-3.8-4.26,7.41-4.2,9.13-.76.57-2.52.08-3.03.74-.65.83-.83,1.9-1.06,2.88l-.8,3.46c-1.29.14-3.58,0-4.07,1.35-.7,1.93-.69,3.67-.85,5.42l-3.84,1.58c-1.38.57-.55,3.06-1.31,4.3-1.84,3.04-5.13-.85-6.36,7.38-1.52.71-3.11.05-4.48.9.14,1.59.27,3.83-1.31,4.5-1.12.47-2.74.32-3.81.91-.38-2.06-7.38.52-5.86-.17.73-1.43,1.09-2.92.93-4.53.58.02,1.51-.89,2.32-.71,2.48.53,2.64-2.2,3.73-2.79,1.75-.95,2.32-2.86,3.6-4.09,1.56-1.5,3.79-2.3,3.79-4.99,0-.26,3.74-4.25,2.79-5.63-1.53-2.21-2.73,0-3.28-2.35.08-.95.4-3.03-.97-3.51-1.26-.43-2.84.35-3.05-1.07l-.43-2.83c-.69-1.06-2.6-.24-3.64-1.03-.74-1.52.13-3.74-1.19-4.71-1.04-.76-3.53.09-3.86-1.44-.25-1.17-.74-2.87-.83-3.92-.15-1.73-.17-3.55-.43-5.41,1.22.03,2.19.15,2.67-.14.31-.18.62-1.09.21-1.37,3.87,1.59-.95.38,4.25,2.87-.52,1.34.52,2.28,1.5,2.79Z"/>
          <path class="cls-163" d="M154.4,252.79c.71-.19,1.27.07,2.35.25l.07,25.15-.68,17.36c-.51.57-.98.62-1.45.62-.88,0-1.89-.12-1.69-1.31.11-.67.48-1.29.1-1.78-.22-.28-1.1-.21-1.49-.83-.32-.51-.01-1.46-.29-1.83-.22-.3-.82-.65-1.31-.25-1.15.96.38,3.76,1.31,6.25.33.89,1.11.36,1.97.71,1.22.48.96,2.52.39,3.59-.47.89-2.23,1.31-3.5,1.03-2.75-.6-.16,4.38-9.39,2.51-.94.95-1.42,2.03-2.19,3.13l-11.21.18c-2.56.04-5.72.3-7.58-2.06-.26-.32.52-1.63.32-1.94-.26-.4-.7-.93-1.41-.56l-.27-2.17c-.18-1.39.24-2.81.05-4.19,1.07-.6,2.69-.44,3.81-.91,1.58-.67,1.45-2.91,1.31-4.5,1.36-.85,2.96-.19,4.48-.9,1.23-8.23,4.52-4.35,6.36-7.38.75-1.24-.07-3.74,1.31-4.3l3.84-1.58c.16-1.76.15-3.49.85-5.42.49-1.35,2.78-1.21,4.07-1.35l.8-3.46c.23-.98.4-2.05,1.06-2.88.52-.66,2.27-.17,3.03-.74-.06-1.71,2.18-12.93,4.2-9.13.46-.7.3-1.17.8-1.3Z"/>
          <g>
            <path class="cls-170" d="M141.98,332.13c-3.63.11-10.57.56-14.49.1.5-2.44-.32-4.94-.07-7.52l.48-4.98,13.97.09.11,12.31Z"/>
            <path class="cls-178" d="M139.12,325.05c.54,1.3.15,3.25-1.29,3.23l-5.2-.06c-1.72-.02-2.89-.2-2.99-1.17-.22-2.1.26-2.69,1.51-2.98,2.24-.51,2.57.58,2.66,2.55.04.92.55,1.49,1.31,1.24,1.38-.47,1.12-2.64,2.19-3.13.5-.23,1.47-.47,1.8.32Z"/>
          </g>
          <g>
            <path class="cls-41" d="M139.64,101.1c-.22.51.26.65.68.53.26.88-.22,2.11.41,3.06.73,1.1,1.92.54,3.05.11.78-.3,1.94-.56,1.74-1.98,1.42,1.02,3.53,1.38,5.27,1.23.69-.06.83.86,1.22,1.09.15.63.83.88,1.24,1.26.81.75,1.61,1.03,3.18.71.92-.19,1.05,1.61,1.52,2.13.13.43-.03.91.06,1.49.07.45.76.28,1.17.4,1.7.53,2.45,1.95,3.27,3.6.62,1.25,2.36,1.91,2.59,3.38.07.47.32.44.64.68.52.38,1.65.09,2.11.72,1.5,2.07,1.08,4.63,1.29,6.87.06.65-.02,1.41.21,2.42s1.21.7,1.74.62c.72-.1,1.57.2,1.91.78s-.06,1.34.04,2.11c.91,6.61.8,12.79.03,18.91-.31.16-1.01-.12-.8-.31.29-.25.66-1.25.02-1.61-1.73-.34-2.69,1.23-4.02,1.36-.04-3.39.39-6.77-.27-10.32-1.46.23-2.79.15-4.09.18,0-.94-.19-2-.31-3.19l-7.17-.03c-1.24-.64-.28-3.2-.93-4.48-.61-1.21-3.17-.47-4.84-.62-.8-1.46-.05-3-.45-4.66l-9.57-.13c-.95,1.37-.26,2.95-.81,4.44-1.35.47-2.75.08-4.36.41l-.4,5.11c-.1-.02-8.09-.23-8.34.87-1.91-.33-3.41,1.38-3.8,3.03-.43.09-.79.43-1.02.54-2.31.15-4.79-.3-7.34.47-.92.28-.57,2.51-.27,3.09-.4,1.47-2.39,1.15-4.27,1.01l-1.55,6.63c.69-1.62-4.82-.33-4.72-.38-.4.22-.29,1.13-.64,1.49-1.2.71-3.7.71-4.54-.7s.06-3.3-.64-4.78c-1.54.03-2.69-.09-3.75.16.25-1.18-1.05-3.31.29-4.46.72-.62,2.46-.53,3.04-1.18.85-.95,1.24-3.71.32-3.72l-3.09-.03c-1.49-.02-.64-3.88-.44-5.84,1.32-.39,2.19,0,3.44-.13-.04-2.18.84-3.51,2.83-4.34,1.28-.53,1.21-3.73.14-3.95-2.32-.47-4.91,1.32-7.07-.06-1.16-.75-.85-2.93-1.22-4.03-2.15-.66-4.42.42-6.43-.62-1.01-.63-.45-2.89-.76-4.04-2.05-.56-3.97-.08-5.84-.01,1.73-3.82.32-5.57,4.04-6.06.49-1.34.11-2.85.81-3.99s2.92-.27,3.79-.82c.97-1.95.34-4.42.33-6.31.77-.99,1.97-1.24,3.59-1.25l44.2-.3c-.71,1.78.22,2.88,1.25,3.49.59.35,1.32.01,2.27-.07Z"/>
            <path class="cls-77" d="M52.87,128.03c.7.14,1.59.35,2.05.71,1.66,1.33-.21,5.36,1.77,5.78,5.71,1.2.45-4.23,5.03-4.21,1.3,0,3.69-.47,4.54.89.66,1.06.25,3.27,1.97,3.44,2.19.22,4.4.1,6.41.12-.13,5.98-.19,12,.47,18.31l8.26.08.27,6.07c1.48.23,2.69.21,3.84-.1.99-1.65-.32-4.14,1.16-5.64.97-.74,2.93.07,3.85-1.11.69-.89,1.37-2.12,1.67-3.53,1.06-.25,2.22-.13,3.75-.16.69,1.48-.19,3.39.64,4.78s3.34,1.41,4.54.7c.7.44.73,1.72.5,2.49-1.02,3.39-.19,8.08-1.1,9.04-.81.86-3.68-.09-4.2.6-.27.36-.35.98-.52,1.57-1.87.12-3.46,1.16-5.85.81-.33,9.5-.14,18.58.5,28.06.09,1.28.19,2.8-1.28,2.76-1.06-.76-2.31.26-3.43.11-2.24-.31-2.39-3.3-2.49-5.08-.95-.2-2.12-.58-3.01-1.31-.72-.58-2.13.51-2.59-.58-.23-.56.12-1.71-.27-2.42-.71-1.32-3.49-.18-4.39-.91-3.63-7.62,2.68-5.93-4.06-8.15-.87-.29-2.02.35-2.78-.5-1.18-1.32-.78-10.96-1.89-12.88-.97-1.54-4.12-1.25-5.56-1.76-1.18-.42-3,0-4.24-.54-.97-1.42-1.9-1.47-3.62-1.61-1.19-.1-.68-2.6-.28-3.66.53-1.37,4.74-1.52,3.78-6.02-.28-1.31-2.29-1.54-3.32-1.31-3.2-6.56-4.86-2.58-6.79-4.6-.96-1.01-1.13-2.41-2.72-3.24-1.31-.69-2.61-3.57-1.44-4.81,1.54-1.64,3.82-2.79,4.65-5.15.72-2.04.01-4.57,1.46-6.17,1.64.09,3.1-1.21,4.74-.88Z"/>
            <path class="cls-25" d="M88.32,99.22c0,1.89.64,4.37-.33,6.31-.87.55-3.12-.28-3.79.82s-.31,2.64-.81,3.99c-3.73.48-2.31,2.24-4.04,6.06s.81,5.36-.49,7.57c-.8,1.36-2.68.85-4.02,1.33l-.2,9.46c-2.01-.02-4.22.1-6.41-.12-1.72-.17-1.31-2.38-1.97-3.44-.85-1.35-3.23-.88-4.54-.89-4.57-.02.68,5.42-5.03,4.21-1.98-.42-.11-4.45-1.77-5.78-.46-.37-1.35-.57-2.05-.71,3.47-8.3,6.03-2.25,3.5-10.58,1.08-.39,6.18-2.2,5.51-3.41.17-1.52.62-3.71,2.8-4.26,2.46-.62,3.79-2.82,5.88-4.34.69-.5,2.27.03,2.84-.71.33-.42.34-1.52.96-2.1,2.1-1.99,10.59-4.35,13.35-5.07.34.5.6,1.02.61,1.66Z"/>
            <path class="cls-93" d="M168.23,150.66l.09,8.01c1.47.63,2.67.03,3.9.24.57,1.6.27,3.69-.15,5.74-.84.07-1.5.34-2.17.24-.62-.09-1.14.45-1.25.89-.16.61.09,1.54.09,1.98l-.08,20.77c0,1.28-.23,1.72-.55,1.97-.34.26-.78.38-1.21.29-.58-.04-1.26.18-1.82-.02-.62-.22-1.2-.36-1.85-.44l.43-25.51.21-24.3c1.29-.03,2.62.05,4.09-.18.65,3.55.23,6.93.27,10.32Z"/>
            <path class="cls-64" d="M135.69,94.51c-.05.79-.36,1.72.41,2.17.58.34,1.29.32,1.88.21,1.23-.23,2.36.18,3.5.48-.35,1.07.27,2.34-.39,3.52-.66.2-1.26-.02-1.46.2-.95.08-1.68.42-2.27.07-1.02-.61-1.96-1.71-1.25-3.49l-44.2.3c-1.62.01-2.82.26-3.59,1.25,0-.64-.27-1.15-.61-1.66.88-1.85,1.37-4.85,3.99-4.58s4.73-.24,7.24-.34c10.64-.43,21.18-.45,31.76-.1,2.12.07,3.69,1.17,4.98,1.96Z"/>
            <path class="cls-52" d="M163.25,190.33c.65.08,1.23.22,1.85.44-.04.6.09,1.23-.04,1.82-.42,1.85-1.21,6.53-2.36,7.02-.44.19-.43-.47-1.2-.52,1,6.06-2.16,1.55-2.37,8.14-2.76.04-5.53.25-8.29.05.43-.77-.84-1.4-.57-2.13.68-1.87,2.76-.49,3.58-1.15,1.48-1.2,1.41-3.36,2.27-4.65,6.82.25.9-5.28,6.07-8.96.41.32.64-.1,1.06-.05Z"/>
            <path class="cls-91" d="M52.87,128.03c-1.64-.33-3.1.97-4.74.88-1.15-2.9.55-4.57,2.34-6.4s3.44-4.18,5.91-5.06c2.53,8.33-.03,2.28-3.5,10.58Z"/>
            <path class="cls-143" d="M173.03,151.22c.2-1.57-.58,8.63-.8,7.7-1.23-.22-2.43.38-3.9-.24l-.09-8.01c1.33-.13,2.29-1.7,4.02-1.36.64.36.27,1.36-.02,1.61-.22.19.49.47.8.31Z"/>
            <path class="cls-5" d="M137.98,96.89c-.59.11-1.31.13-1.88-.21-.77-.46-.46-1.39-.41-2.17.96.59,1.52,1.54,2.29,2.38Z"/>
            <path class="cls-5" d="M168.75,167.77c0-.45-.26-1.37-.09-1.98.12-.43.63-.98,1.25-.89-.33.92-.5,2.13-1.16,2.87Z"/>
            <path class="cls-5" d="M166.91,190.8c-.3.76-1.06,1.57-1.86,1.8.13-.59,0-1.22.04-1.82.56.2,1.24-.02,1.82.02Z"/>
            <path class="cls-147" d="M140.86,138.04c2.94.16,6.21-.58,9.25.41,1.41.46,2.73,1.32,4.43,1.66,1.52.3.71,3.19,1.66,3.91.79.59,2.96-.08,3.34.83.31,6.92.1,13.73.11,20.46l-3.51.73-.75-12.67c-1.43-.52-2.77-.18-3.95-.8-.04-1.17.35-3.43-.62-3.92-8.23-.38-16.36-.02-24.78.02-2.07,0-1.28,2.78-1.99,3.51l-8.79,1.18c-1.22,7.31-.63,1.78-3.14,6.98-1.03.22-1.99.04-2.82.6-.79,5.78-.47,4.94-1.81,10.14-1.38.88-3.17.56-4.72,1.24l.32,17.96c.02,1.11.97,3.53,1.54,4.47.72,1.18,3.36,2.28,2.76,4.4-.2.71,1.46,1.53.53,2.54-.55.6-.05,1.57.39,1.95s1.03.1,1.81.28l1.74.41c-.69.94-.77,1.62-.47,2.08.33.51.98.52,1.68.55l7.12.38c8.44.45,16.77.61,24.79-.45,1.07,1.2,2.8.28,4.13.67-.43.73,1.07.77,1.04,2.02l-13.29.28c-.21,0-.21.44-.15.52l-25.99.22c-.76,0-1.66-.39-1.77.34-3.78-.8,1.26-4.82-1.21-5.35-1.35-3.06-8.68-.16-9.49-7.24-1.16-10.14-.21-20.37-.49-30.46.17-.59.25-1.22.52-1.57.52-.69,3.39.25,4.2-.6.91-.96.08-5.65,1.1-9.04,1.18.71,3.76,1.36,4.78-.04.67-.92-.11-2.79.07-3.56l1.55-6.63c1.88.14,3.87.46,4.27-1.01,2.5-.29,5.43.56,7.89-.31,1.46-.52,2.52-1.07,4.05-1.01,4.03.17,8.35.78,12.46-.42,1.82-1.68-.49-5.92,2.19-5.6Z"/>
            <path class="cls-23" d="M94.14,148.83c-.3,1.41-.98,2.64-1.67,3.53-.92,1.18-2.87.37-3.85,1.11-1.49,1.5-.17,3.99-1.16,5.64-1.15.31-2.36.32-3.84.1l-.27-6.07-8.26-.08c-.66-6.31-.6-12.33-.47-18.31l.2-9.46c1.35-.48,3.23.03,4.02-1.33,1.3-2.21-1.22-3.82.49-7.57,1.87-.07,3.8-.54,5.84.01.31,1.15-.25,3.42.76,4.04,2.02,1.05,4.28-.04,6.43.62.37,1.1.06,3.29,1.22,4.03,2.16,1.39,4.75-.41,7.07.06,1.07.22,1.14,3.42-.14,3.95-1.99.83-2.86,2.16-2.83,4.34-1.26.14-2.12-.25-3.44.13-.2,1.97-1.05,5.83.44,5.84l3.09.03c.92.01.53,2.77-.32,3.72-.59.65-2.33.56-3.04,1.18-1.34,1.15-.04,3.28-.29,4.46Z"/>
            <path class="cls-87" d="M163.88,140.53l-.21,24.3-.43,25.51c-.42-.05-.65.37-1.06.05-.97-.74-1.97.5-3.04.27.34-.83.55-1.62.55-2.79l-.05-22.55c-.01-6.74.2-13.54-.11-20.46-.38-.9-2.55-.23-3.34-.83-.96-.72-.14-3.6-1.66-3.91-1.7-.34-3.02-1.21-4.43-1.66-3.04-.99-6.3-.25-9.25-.41-1.97-.1-3.91-.37-5.82-.66l.4-5.11c1.62-.33,3.01.06,4.36-.41.55-1.49-.14-3.07.81-4.44l9.57.13c.4,1.66-.35,3.2.45,4.66,1.67.15,4.23-.59,4.84.62.65,1.28-.31,3.84.93,4.48l7.17.03c.12,1.19.32,2.26.31,3.19Z"/>
            <path class="cls-138" d="M135.04,137.38c1.92.29,3.85.55,5.82.66-2.69-.32-.37,3.92-2.19,5.6-4.12,1.2-8.43.59-12.46.42,1.14-1.65.61-3.9.49-5.81.24-1.1,8.24-.89,8.34-.87Z"/>
            <path class="cls-10" d="M121.88,141.83c.66,1.06-.06,2.13.27,3.25-2.45.87-5.39.02-7.89.31-.29-.59-.65-2.82.27-3.09,2.55-.77,5.03-.33,7.34-.47Z"/>
            <path class="cls-142" d="M108.44,153.04c-.18.77.59,2.64-.07,3.56-1.02,1.4-3.6.75-4.78.04.23-.77.2-2.04-.5-2.49.35-.36.24-1.27.64-1.49-.09.05,5.41-1.24,4.72.38Z"/>
            <path class="cls-89" d="M126.7,138.26c.11,1.91.65,4.17-.49,5.81-1.53-.06-2.59.49-4.05,1.01-.33-1.13.39-2.19-.27-3.25.23-.11.59-.44,1.02-.54.39-1.66,1.89-3.37,3.8-3.03Z"/>
            <path class="cls-190" d="M145.51,102.81c.2,1.43-.95,1.68-1.74,1.98-1.13.44-2.32.99-3.05-.11-.63-.95-.14-2.18-.41-3.06,1.86-.53,3.72.02,5.86-.45.04.75-.75.97-.66,1.63Z"/>
            <path class="cls-41" d="M97.76,167.85c.28,10.09-.67,20.32.49,30.46.81,7.08,8.14,4.18,9.49,7.24,1.55,1.3-5.52,2.84-5.87,2.8-.75-.09-.38-2.14-.85-2.56l-6.08-.71c-2.85-3.2-1.61-.27-3.81-5.61,1.47.04,1.36-1.48,1.28-2.76-.64-9.48-.82-18.56-.5-28.06,2.4.35,3.98-.68,5.85-.81Z"/>
            <g>
              <path class="cls-137" d="M91.13,199.48c2.21,5.34.96,2.41,3.81,5.61l6.08.71c.48.42.11,2.46.85,2.56.35.04,7.42-1.5,5.87-2.8,2.47.53-2.57,4.55,1.21,5.35.34,3.93,11.95-.76,12.34,3.4-1.04.06-2.13.89-3.62,1.35.47.9.99.44,1.42.58.94.3-.05,1.21.21,1.54.95,1.21-.12,2.04-.67,3.16-.41.85.12,2.19.15,3.37l3.4.57c5.45.92,11.03.15,16.45.14,1.85,2.35-7.51,5.98-11.4,5.44-1.85-.25-3.08.91-3.58,2.43-1.26.4-1.58-1.44-2.03-2.21-1.58-.71-3.96-.15-5.58-.23-2.41-.12-4.84-.27-7.22-.53-1.11-1.58,0-3.5,0-5.41,0-3-.76-5.78-.45-8.54.66-.06,2.21-.55,2.37-1.7s-.57-1.11-.61-.66c-.15,1.67-.96.58-.45-.26-.54-.36-1.05-1.09-1.52-1.02-.37.05-.64,1.11-1.16,1.32-3.36-3.1-19-2.2-22.81-1.56-.4-.71-.96-1.39-1.32-2.34l-7.42-.25c-.26-1.62-.28-2.85-.73-4.07-.26-.7,1.01-4.34-.67-5.27.09.05-4.53-.31-3.77-.33-.42,0-.04.97-.72,1.04.11-2.59-8.29.12-8.58-1.71l-.33-33.16c1.44.51,4.59.22,5.56,1.76,1.12,1.92.71,11.55,1.89,12.88.76.86,1.92.22,2.78.5,6.73,2.22.42.53,4.06,8.15.9.73,3.68-.41,4.39.91.38.71.03,1.86.27,2.42.46,1.09,1.87,0,2.59.58.9.72,2.06,1.11,3.01,1.31.1,1.79.25,4.78,2.49,5.08,1.12.15,2.37-.87,3.43-.11Z"/>
              <path class="cls-171" d="M74.72,205.43c-1.48-.29-3.09.15-4.72-.46l-.45-4.1c.69-.07.3-1.03.72-1.04-.76.02,3.86.38,3.77.33,1.68.93.41,4.57.67,5.27Z"/>
              <path class="cls-145" d="M117.26,215.28c-.02,1.14.04,1.45-.35,1.49-4.37.47-3.25,1.65-4,1.16-.63-.41-1.45-1.44-1.38-2.07.22-2,4.81-.61,5.74-.58Z"/>
            </g>
            <path class="cls-32" d="M156.12,199.34c-.86,1.29-.79,3.45-2.27,4.65-.82.66-2.9-.71-3.58,1.15-.27.73,1,1.37.57,2.13-.6-.05-1.11.43-1.71.25-1.33-.39-3.06.52-4.13-.67-.13-.72-.36-2.91.61-2.98l4.9-.36.71-3.77c1.38-.39,2.73-.04,3.9-.6.35.05.65.18,1,.2Z"/>
            <path class="cls-172" d="M162.19,190.38c-5.17,3.68.75,9.21-6.07,8.96-.36-.01-.65-.15-1-.2.28-1.83.14-3.88.59-5.91s1.71-2.96,3.44-2.59c1.07.23,2.07-1.01,3.04-.27Z"/>
            <g>
              <path class="cls-51" d="M159.65,165.31l.05,22.55c0,1.17-.21,1.96-.55,2.79-1.73-.38-2.98.51-3.44,2.59s-.31,4.08-.59,5.91c-1.18.56-2.53.21-3.9.6l-.71,3.77-4.9.36c-.98.07-.74,2.26-.61,2.98-8.02,1.06-16.35.9-24.79.45l-7.12-.38c-.7-.04-1.35-.05-1.68-.55-.29-.45-.21-1.13.47-2.08l-1.74-.41c-.78-.18-1.36.1-1.81-.28s-.94-1.34-.39-1.95c.93-1.01-.73-1.83-.53-2.54.59-2.13-2.04-3.22-2.76-4.4-.57-.94-1.52-3.36-1.54-4.47l-.32-17.96c1.54-.68,3.34-.35,4.72-1.24,1.34-5.2,1.02-4.37,1.81-10.14.83-.55,1.79-.37,2.82-.6,2.51-5.19,1.92.33,3.14-6.98l8.79-1.18c.71-.73-.08-3.5,1.99-3.51,8.41-.04,16.55-.4,24.78-.02.97.49.59,2.75.62,3.92,1.18.62,2.53.29,3.95.8l.75,12.67,3.51-.73Z"/>
              <path class="cls-182" d="M151.11,171.08l-.35,12.37c-2.97.13-5.56.24-8.37,0-.06-5.96-.14-11.17.36-16.66l11.97.02c.18,1.35.5,2.88-.36,3.82-.63.68-1.93.18-3.25.45Z"/>
              <path class="cls-148" d="M123.87,183.22c-2.58.88-5.32.18-8.14.19l-.26-11.86c-2.15-.07-2.06-3.6-1.19-4.5,2.69-.93,6.35-.19,9.42-.24l.17,16.41Z"/>
              <path class="cls-45" d="M137.74,201.59c-3.55.73-6.92.36-10.38.3-.7-.01-.79-2.23-.1-2.32,3.53-.48,6.83-.21,10.3-.08.56.02.83,1.98.19,2.11Z"/>
            </g>
          </g>
          <g>
            <path class="cls-20" d="M163.51,313.18c.13,1.27.45,3.67.79,5.33s3.03,1.43,4.33,1.82c-.21,1.69.27,3.41-.03,4.68-.33,1.44-.13,2.99-.36,4.7-.27,2.03,1.39,1.83,2.44,2.57l1.28,4.73c.32,1.19,2.79,1.21,2.69,2.71-.14,2.01.51,5.76.96,5.93,2.4.91,1.93-.09,2.58,6.09,3.51,1.25,5.93,6.3,4.21,9.49-.57.93-3.08.83-2.92,2.79-.08-.81-.14-1.11-.44-1.63-.61-1.03-1.42-.77-2.19-.71-.44-1.07-2.21-1.43-2.91-2.44-.74-1.06-3.84-.32-4.32.74-.37.81-.73,1.99-.93,2.73l-3.74-2.5c-1.32-.88-.75-3.17-1.43-4.57-1.05-.35-2.37.16-3.36-.38-1.1-.6-.31-2.14-.38-2.97.63.06,1.4-.1,1.97-.39.03-2.1-2.19-5.14-3.72-6.42-.8-.67.22-3.08-2.07-3.08.27-1.67-1.1-6.98-1.17-6.47.52-3.71,3.22.28,4.78-3.61.25-.62,1.26-1.39.65-2.22-.41-.56-1.44-1.15-2.24-.9-.05-.4-1.23-1.95-1.78-1.41-.5.48-.91,1.13-.41,1.53.75.6,1.53.13,2.19-.11.73,1.63-1.19,2.26-2.56,3.65-1.03,1.05-3.19-.01-4.57.41.65-4.26-1.1-8.93.29-13.48.29-.96,3.79.15,4.46-.99.13-.22.07-.59.08-.92,1.27,1.68,3.41,1.39,5.37.2.58-.35,1.55.84,1.93.4.16-.19,1.27-4.62-.83-5.17.44-.02.91-.21,1.37-.11Z"/>
            <path class="cls-13" d="M159.67,336.95c-.7-.4-.22-1.68-.24-2.21-.02-.64,1.74-.74,2.14-1.4l2.22-3.6c.2-.33-.61-1.18-.57-1.5.01-.11,2.69-4.49,3.89-2.92.7,1.6.06,3.73.55,5.54-3.1.72-4.14,3.06-4.8,5.56-.35.63-2.29,1.04-3.19.53Z"/>
            <path class="cls-117" d="M157.97,329.19c-.66.25-1.44.71-2.19.11-.5-.4-.09-1.04.41-1.53.55-.53,1.73,1.01,1.78,1.41Z"/>
          </g>
          <path class="cls-80" d="M160.28,257.63l-.26,20.2c-1.15.62-2.22.14-3.19.35l-.07-25.15c-1.08-.18-1.64-.44-2.35-.25,0-1.38.3-2.78.02-4.15,1.4-.9,4.15-.62,5.59.19l.26,8.81Z"/>
          <path class="cls-43" d="M202.23,236.26c.2,4.81.51,9.63,1.08,14.39-.93-.44-2.19.38-2.89.75-3.31,1.77-18.19-.35-23.22.66-4.17.84-8.19.36-12.58-.01l-.45-8.36-4.4-.47c-1.96-.21-3.69-.58-5.37-.28-.51-.67-.87-2.12-.54-2.97.18-.46,1.21-1.34,1.67-1.18,2.85.95,8.95-1.46,12.47.53-.21,1.69.53,3.13,1.53,4.38s7.91.73,9.92.4c.48-1.49-.37-3.46.6-4.56,1.19-1.18,3.57-.27,5.04-.75,1.87-.61,2.47.1,3.63.61-.2,3.51-.73,6.69,2.7,7.07.89.1.9-1.22,1.67-1.58,1.44-.67,4.07.43,4.98-1.38.51-1.03-.38-2.59.26-3.41s1.19-1.5.96-2.45c1-.43,1.79-1.47,2.94-1.38Z"/>
          <path class="cls-129" d="M199.3,237.65c.23.94-.32,1.61-.96,2.45s.26,2.38-.26,3.41c-.9,1.81-3.53.71-4.98,1.38-.77.36-.78,1.68-1.67,1.58-3.43-.38-2.91-3.57-2.7-7.07,1.93.85,6.73,2.85,8.02.31.31-.62.31-1.31.86-1.8.45-.41,1.09,0,1.69-.26Z"/>
        </g>
      </g>
    </g>
  </g>
</svg>