<?xml version="1.0" encoding="UTF-8"?>
<svg id="_レイヤー_2" data-name="レイヤー 2" xmlns="http://www.w3.org/2000/svg" viewBox="0 0 274.51 419.01">
  <defs>
    <style>
      .cls-1 {
        fill: #867e89;
      }

      .cls-2 {
        fill: #a68e90;
      }

      .cls-3 {
        fill: #d2d5de;
      }

      .cls-4 {
        fill: #fefeff;
      }

      .cls-5 {
        fill: #d1d5de;
      }

      .cls-6 {
        fill: #9798aa;
      }

      .cls-7 {
        fill: #9696a1;
      }

      .cls-8 {
        fill: #b29495;
      }

      .cls-9 {
        fill: #b5b9c6;
      }

      .cls-10 {
        fill: #bc9e98;
      }

      .cls-11 {
        fill: #9393a5;
      }

      .cls-12 {
        fill: #9e9eac;
      }

      .cls-13 {
        fill: #eecdc7;
      }

      .cls-14 {
        fill: #a4898b;
      }

      .cls-15 {
        fill: #bf9f9f;
      }

      .cls-16 {
        fill: #998b8c;
      }

      .cls-17 {
        fill: #f8d6cf;
      }

      .cls-18 {
        fill: #cbcfd8;
      }

      .cls-19 {
        fill: #9999a6;
      }

      .cls-20 {
        fill: #c5cad3;
      }

      .cls-21 {
        fill: #cfd4dc;
      }

      .cls-22 {
        fill: #817f8d;
      }

      .cls-23 {
        fill: #a08a92;
      }

      .cls-24 {
        fill: #aaabba;
      }

      .cls-25 {
        fill: #f3cbc3;
      }

      .cls-26 {
        fill: #f7dcd2;
      }

      .cls-27 {
        fill: #e3e5e9;
      }

      .cls-28 {
        fill: #fffeff;
      }

      .cls-29 {
        fill: #cbcfd9;
      }

      .cls-30 {
        fill: #9091a2;
      }

      .cls-31 {
        fill: #bfc1ce;
      }

      .cls-32 {
        fill: #847882;
      }

      .cls-33 {
        fill: #7f737f;
      }

      .cls-34 {
        fill: #faece0;
      }

      .cls-35 {
        fill: #ced1da;
      }

      .cls-36 {
        fill: #7c7886;
      }

      .cls-37 {
        fill: #c3c6d1;
      }

      .cls-38 {
        fill: #9b9cac;
      }

      .cls-39 {
        fill: #b2b4c3;
      }

      .cls-40 {
        fill: #988489;
      }

      .cls-41 {
        fill: #92919f;
      }

      .cls-42 {
        fill: #dfb8b2;
      }

      .cls-43 {
        fill: #f0f3f6;
      }

      .cls-44 {
        fill: #dcdfe5;
      }

      .cls-45 {
        fill: #e2e4e8;
      }

      .cls-46 {
        fill: #c8cad5;
      }

      .cls-47 {
        fill: #ac908f;
      }

      .cls-48 {
        fill: #efc8bd;
      }

      .cls-49 {
        fill: #807987;
      }

      .cls-50 {
        fill: #bbbec8;
      }

      .cls-51 {
        fill: #afb1bf;
      }

      .cls-52 {
        fill: #898393;
      }

      .cls-53 {
        fill: #a1a5b3;
      }

      .cls-54 {
        fill: #dddfe7;
      }

      .cls-55 {
        fill: #faebdf;
      }

      .cls-56 {
        fill: #ebc2bf;
      }

      .cls-57 {
        fill: #c2c5d0;
      }

      .cls-58 {
        fill: #cbcdd7;
      }

      .cls-59 {
        fill: #cdd0da;
      }

      .cls-60 {
        fill: #8b8a9c;
      }

      .cls-61 {
        fill: #9d9cad;
      }

      .cls-62 {
        fill: #e0b7b5;
      }

      .cls-63 {
        fill: #d1b8bc;
      }

      .cls-64 {
        fill: #9a8c8d;
      }

      .cls-65 {
        fill: #cecfd9;
      }

      .cls-66 {
        fill: #828190;
      }

      .cls-67 {
        fill: #9293a2;
      }

      .cls-68 {
        fill: #989bac;
      }

      .cls-69 {
        fill: #9c9caa;
      }

      .cls-70 {
        fill: #faecdf;
      }

      .cls-71 {
        fill: #a4a5b4;
      }

      .cls-72 {
        fill: #b49597;
      }

      .cls-73 {
        fill: #c6cad6;
      }

      .cls-74 {
        fill: #e5beb6;
      }

      .cls-75 {
        fill: #8a8993;
      }

      .cls-76 {
        fill: #9391a1;
      }

      .cls-77 {
        fill: #a5a6b1;
      }

      .cls-78 {
        fill: #b2b5c4;
      }

      .cls-79 {
        fill: #9a8488;
      }

      .cls-80 {
        fill: #868694;
      }

      .cls-81 {
        fill: #f0f3f5;
      }

      .cls-82 {
        fill: #b49793;
      }

      .cls-83 {
        fill: #bdbdc6;
      }

      .cls-84 {
        fill: #d1d6dd;
      }

      .cls-85 {
        fill: #807e8c;
      }

      .cls-86 {
        fill: #857983;
      }

      .cls-87 {
        fill: #f8dbd3;
      }

      .cls-88 {
        fill: #d3d6de;
      }

      .cls-89 {
        fill: #cacdd7;
      }

      .cls-90 {
        fill: #f4d0ca;
      }

      .cls-91 {
        fill: #bcbfca;
      }

      .cls-92 {
        fill: #89808c;
      }

      .cls-93 {
        fill: #7a7784;
      }

      .cls-94 {
        fill: #abaebc;
      }

      .cls-95 {
        fill: #c9cdd6;
      }

      .cls-96 {
        fill: #8e8f9e;
      }

      .cls-97 {
        fill: #8d899a;
      }

      .cls-98 {
        fill: #fffffe;
      }

      .cls-99 {
        fill: #a4a7b7;
      }

      .cls-100 {
        fill: #f1c9c5;
      }

      .cls-101 {
        fill: #bbbeca;
      }

      .cls-102 {
        fill: #9897a3;
      }

      .cls-103 {
        fill: #f0c8c3;
      }

      .cls-104 {
        fill: #bfc2ce;
      }

      .cls-105 {
        fill: #9291a1;
      }

      .cls-106 {
        fill: #cfd3dc;
      }

      .cls-107 {
        fill: #feffff;
      }

      .cls-108 {
        fill: #94838a;
      }

      .cls-109 {
        fill: #e2e5e8;
      }

      .cls-110 {
        fill: #f5f7f9;
      }

      .cls-111 {
        fill: #ecedf1;
      }

      .cls-112 {
        fill: #fdfdfe;
      }

      .cls-113 {
        fill: #cdb9b6;
      }

      .cls-114 {
        fill: #aeb2c3;
      }

      .cls-115 {
        fill: #b0b2c1;
      }

      .cls-116 {
        fill: #c9ced8;
      }

      .cls-117 {
        fill: #cbcdd6;
      }

      .cls-118 {
        fill: #e7eaef;
      }
    </style>
  </defs>
  <g id="_レイヤー_1-2" data-name="レイヤー 1">
    <g id="_生成オブジェクト" data-name="生成オブジェクト">
      <g>
        <path class="cls-37" d="M167.7,410.99l.41,2.21c1.27.37,2.43-.19,3.44.39.18,1.81-.03,3.55.52,5.05-19.45.67-39.12-.05-58.62.01-.53-1.93,2.99-.54,4.79-1.23l.39-3.46c.12-1.02.49-2.08.5-3.02l48.56.05Z"/>
        <path class="cls-59" d="M201.99,418.23c.2-.28-.26-.53-.23-.73.03-.23.9-.39.92-.71l.25-5.52c1.56-.83,3.35,0,4.95.15l9.52.81c4.92.42,9.8-.18,14.9.17,1.74.12,3.65-.27,4.78,1.19,1.73-.48,3.78-.7,4.7.35,1.07,1.22.13,4.57-1.43,4.55l-38.36-.26Z"/>
        <path class="cls-106" d="M72.56,413.05c-.11.54.12,1.66.16,2.39,1.16.62,1.51,1.6,1.38,2.75-6.59,1.21-3.08.14-9.39.16l-11.31.04c-6.52.02-12.85.5-19.47-.26-1.58-.18-1.52-4.46,0-4.55l7.32-.43c2.54-.15,5.05-.29,7.68-.48,7.15-.54,14.07-.11,21.23-.26.82-.02,1.67.83,2.4.64Z"/>
      </g>
      <path class="cls-58" d="M65.59,261.85c-.86-.01-.87-.95-.96-1.57-.11-.77.8-.88,1.02-1.29-.13.95-.04,1.91-.06,2.86Z"/>
      <g>
        <g>
          <path class="cls-109" d="M203.81,216.68l.11,5.81,2.85.4.51,4.79c2.21.13.27,3.67,1.21,5.91l2.71.11.34,3.99,3.15.63.44,7.01c1.03.24,2.06-.07,3.07.36.52,1.85-.37,4.17.99,5.33l-.15,11.87c.78.61,1.62.11,2.67.5.17,1.15.47,3.12-.33,3.84-2.06.04-3.4.98-5.06,1.46l-8.74,2.49c-.97.28,1.83,1.52-4.66,1.5-.17-1.01-1.44-.77-2.51-.79-.54-1.97-.57-4.46-.34-6.56.05-.43.98-.73.81-1.06-.62-1.22-2.76-.18-3.9-.85-.61-.36-.54-2.4-.82-4.11-.11-.71-1.43-.35-1.62-.77-.64-1.4-.41-3.12-.23-4.39.01-.08.09-.22.42-.39l.32-8.4-2.9.1-.07-10.57c-1.06-.29-2.23.14-3.02-.37-.42-.27-.43-1.18-.88-1.19l-2-.06c-.53-2.64-.25-5.65-.33-8.52-1.07-.5-2.13-.14-3.45-.36-.25-2.49-.11-4.87.13-7.2.05-.46.32-.88.51-1.18.25-.4,1.45.03,1.62-.34,1.02-2.1.37-4.69,1.23-6.74.47-1.12.07-2.26.42-3.33s1.84-.47,2.56-.76c.98-.39.61-2.56-.11-3.03-1.32-.85-2.44-.56-3.63.24-.8.54-2.36,0-2.51,1.52-.34,3.63-.01,9.48-3.31,9.13-1.76-.19-3.25.9-5.11,1.1l.2,2.38c1.17.17,2.44.17,2.57,1.35.04.39-.36.67-.31.96.08.48.38.45.83.41-.03.42.35,1.24,0,1.51l-1.24.95c-.37.29-.83,1.91.2,2.3l.08,25.17-.09,2.75c.01-.36,1.16,4.89.36,6.16-.29.45-1.27.08-1.78.57-.48.46-.45,1.15-.77,1.41-.56.45-1.3.13-2.09.42-1.03.38-.66,1.69-.74,2.8-4.78.66-9.51.81-14.48.55-.17-1.04.34-2.54-.34-3.16-2.21-.27-4.68-.05-6.62.4,0,.78.04,1.55-.14,2.05-.48,1.33-5.72.69-7.47.91-.38,1.28-.15,2.49-.12,3.63l-3.15.11c-1,.03-.53,1.71-.2,2.41.26.55,1.21.19,2.05.57l.06,13.25c-1.3.02-3.3.7-4.88.41-.14-5.09.75-3.66.9-4.44.19-.98.77-9.24-1.1-9.42-3.01-.29-5.91-.19-9.05.11l-.14,9.76c1.61.32,2.97.44,4.53.12.14-1.33.13-2.4,0-3.71-.92-.28-1.68-.12-2.57-.11-.97-1.3-.02-2.18.79-3.25.98-1.29,4.93-1.25,5.2-1.1.49.28.72,1.76.15,1.99-.46.18-.96-.02-1.05.2-.07.18-.08.49.17.72.13.12.35-.6,1.04-.49.09,1.7.07,3.59,0,5.37-.03.7-1.15.6-1.85.54-1.1-.09-1.03,1.11.13.98.41-.04.59-.41.7-.5.16-.11.53-.12.77.17,0,0-.6,1.82-.38,1.65-1.67,1.28-7.29.34-7.83,1.24-.72-.29-2.45.46-3.04-.48l-.26-12.86c-.01-.75.64-2.26-.13-2.99-3.72.4-7.2,0-10.49.02.43-1.04.99-3.06-.07-3.9-.92-.73-2.71.29-3.57-.18-1.39-.76-2.28-.44-3.66-.05-2.18.62-4.6.08-6.75.16-1.11.04-2.09-.14-3.68-.19l.04-28.72c0-5.68.64-11.53.26-17.56-.04-.68.39-1.32.61-1.64.27-.37.9-.11,1.4-.21,1.11-.22.69-1.46.93-2.17.8-2.34,1.04-4.89-.18-7.28-.22-.44-1.69-.04-2.03.31-.12.12-2.06,8.69-1.87,9.84-1,.64-2.29.05-3.27.78s-.24,2.3-.22,3.33c-.29.34-2.12.21-2.23,1.02-.53,3.85-1.02,19.95-1.1,20.08-.17.28-1.07.28-1.21.61-.46,1.06.03,2.31-.36,3.5-1.03.65-5.09-1.71-4.94,0,.02.22.2.76.54.81,4.51.69,2.27,8.78,2.14,10.28l-.7,8.02-2.84.3c-.33,1.46-.02,2.91-.22,4.37-.05.36-1.35.81-1.64.6-1.55-1.12-5.73-1.53-8.18-2.67-1.51-.7-.61-2.99-.95-4.29.54-.1.11-.45-.25-.87l-3.05-.04c.03-.95-.07-1.91.06-2.86l2.69-.24c.81-.82.3-2.34.77-3.2.15-.25.16-.22.1-.5.56-.66,1.91-.12,2.56-.54,1.47-.93-.09-3.1.38-4.1.63-1.34.64-2.74.15-3.94.46.17.59-.13.4-.57.67-.27,1.82-.18,2.46-.54,1.32-.72.29-2.55.7-3.24,1.16-1.98,1.43-5.85,1.31-6.03-.06-.09.05-.29.07-.4.65.01,2.39.33,2.8-.4.93-1.66.18-3.79.61-5.51.34-1.36.67-2.57.67-4.15,0-1.18,2-.55,2.48-.99.67-1.41.06-3.43.53-5l2.93-.44c.43-3.49-1.24-4.66,1.45-6.06.56-1.46-.44-3.98.69-5.13,3.19-1.13,1.46-3.68,2.4-6.13l2.23-.25c.03-1,.27-2.75,1.38-3.08.99,1.42,2.56,1.87,3.74,1.97.13,2.07,1.55,3.64,3.35,4.59.76.42.51,3.22,1.59,3.2,3.81-.07-2.57,3.4,9.6,3.79.62.86.25,2.07.5,3.52l5.34.54c.8.89.22,2.21.69,3.26,1.58.58,3.31-.12,4.67.87.12.48-.16,1.5.07,2.05.35.85,3.33-.21,3.52,1.35.07.62.16,1.78-1.05,1.67-.65-.06-1.95-1.01-2.35-.24-.75,1.41-.34,3.16-.4,4.66l4.15.32-.28,35.71c-.01,1.28-2.02-.36-2.64.79,4.01.81,7.95.71,12.26.09-.84-1.51-2.14-.33-3.24-1l-.2-2.94c-1.48-.23-2.03-1.18-1.99-2.69-.38-.16-2.81-.04-2.81-.88l-.02-38.79c1.63-.28,3.16-.72,4.89-.5,1.02.13.32,1.57-.12,2.55,2.62.36,5.12-.1,7.89-.23l.15-5.12c2.88-.55,5.36-1.37,7.94-2.09.7-.2.14-2.2.65-2.49,1.85-1.04,4.01-.26,5.95-.88.23-.94-.1-1.85.28-2.77l5.29-.61,1.09-2.97c2.31-.48,4.7-.29,6.62-1.03.52-4.19,1-.23,4.53-3.68.3-.3,1.24-.1,1.69-.21.6-.16.32-1.56.77-1.73,2.19-.81,13.77-1.34,14.5-.64.39.37-.47,1.33-.24,1.68-.26-.39,2.88,4.86,2.18,4.6,1.09.1,1.72-.01,2.55.31l.1,3.99c.96.6,2.18-.15,3.13.39,1.15.65.31,2.33.59,3.19.36,1.12,1.38,1.93.6,3.75,1.13.37,2.19.26,2.89.8Z"/>
          <path class="cls-58" d="M138.65,201.34l-.33,3.7c-5.66.71-8.23-.18-13.99.42,0,1.09-.19,2.4.33,3.12s1.91.16,2.53.17c3.53.07,7.03.36,10.59-.23l.72-2.71c3.41-.63,6.83-.95,10.36-1.12.41-.83.39-1.58.78-2.13,4.06-1.09,7.94-1.73,12.15-1.31.65.06,1.27-.2,1.52-.46.4-.41-.09-1.77.15-2.28.74-1.38,6.13-.37,6.79-1.14,1.14-1.32-.25-2.75,1.46-3.21,1.68.33,3.39-.1,5.07-.11,1.54,0,3.13.26,4.85.02.63-1.01.35-2.13.44-3.12,2.01-1.08,4.61-.25,6.84-.5.31.2.67.04.9.24-.77-.66,2.86,4.74,1.66,2.15.85,1.84,4.32,2.08,3.77,1.36,1.99.19,3.34,1.26,4.7,3.01.6.77,2.13.5,2.47,1.47s.32,1.91.61,3.15c.18.77,2.12,1.37.71,2.97,2.43.81,3.16,2.69,3.91,4.96l2.17,6.51c.18.54.05,1.03.4,1.48.2.27.78.28,1.21.72,1,1.05.82,2.86,1.83,3.43,1.34.75,1.61,1.97,1.85,3.2.2,1.02,1.84,1.51,2.11,2.57.39,1.49.67,2.94,1.39,4.38-1.59-3.16.92,4.38.96,4.42,7.22,7.22,2.4.94,5.39,9.56.7.53,1.55.41,1.81.85.37.61.19,1.51-.06,2.08,2.23,1.26,2.17,4.05,3.06,5.93,1.5,3.16,2.29,2.78,2.14,8.66,3.81,2.85,1.39,3.69,3.46,7.33.27.47-.71,1.19-.38,1.54-.45-.47,3.41,4.96,3.51,5.28.17.57-.84,1.52-.19,2.15,1.23,1.19,4.16,1.03,3.79,3.2.04-.22.3,5.73,1.23,5.66,1.47-.11,1.91.09,2.61.85.66.72.79,1.36.65,2.61-.2,1.78,2.1.6,2.66,1.72,3.04,6.1.31,1.35,3.22,3.6,1.55,1.2.7,3.39.61,4.56s-.09,2.53.15,3.8c.32.34,1.16.04,1.38.21.58.45-.36,2.41.42,2.76.45.2.99.04,1.75-.1l1.12,3.36c.64.43,1.69-.05,2.15.35.31.27.2,1.14.57,1.41.98.71,2.26.15,3.26.34.24.04.57.04.45.38-1.08.62-1.03,3.45.25,3.71.75.16,1.7-.39,2.14.18.49.63-.15,2.8.36,3.56.19.27,2.68.48,3.4-.02.26-.18.16-.79.57-1.04-.09.74.57,1.1,1.43,1.29,1.79.39,2.25,1.72,1.91,3.02-.36,1.39-2.36.95-2.79,1.65-.71,1.39-2.69,3.07-3.54,4.14-1.5,1.9-1.72,4.65-4.8,4.92-.09,4.76-.77,1.75-3.75,4.72.74,2.01-2.68,2.92-2.74,4.09-.15,2.69-2.03,2.95-3.39,4.57-.3.36-2.64,8.26-6,7.09-1.04-.36-1-1.37-1.79-2.13-4.39-4.24-1.06-7.53-3.34-7.4-2.49.14-.9-1.68-2.73-6.04-.5-1.19-.05-2.7-.63-4.08l-2.39-5.64c-2.14-5.06-2.19-10.96-2.43-16.47l-.56-13.11c-.28-6.55-.03-12.96-1.45-19.25-.95-4.2-1.38-8.44-2.74-12.5-.64-1.92-1.19-3.78-1.61-5.74l-1.28-5.85c-2.36-.08-2.02-10.95-4.33-8.9l-.37-3.02c.42,3.42-1.86-6.2-1.55-5.57-.15-.29-1.47.06-1.57-.23-.42-1.21-2.59-1.82-3.09-2.82s-1.16-2.45-1.56-3.53c-.45-1.23-1.22-1.85-1.72-2.77-1.11-2.02-1.22-4.33-2.99-6.13-1.01-1.03-.76-3.06-1.87-4.05-1.2-1.07-.88-2.18-1.02-3.38-.16-1.37-2-.75-2.56-1.18-.7-.53-1.76-.43-2.89-.8.78-1.82-.24-2.63-.6-3.75-.28-.86.57-2.55-.59-3.19-.95-.53-2.18.22-3.13-.39l-.1-3.99c-.82-.33-1.45-.22-2.55-.31.7.26-2.44-4.98-2.18-4.6-.23-.36.63-1.31.24-1.68-.73-.7-12.32-.18-14.5.64-.46.17-.17,1.57-.77,1.73-.45.12-1.39-.08-1.69.21-3.53,3.44-4.01-.51-4.53,3.68-1.92.73-4.31.54-6.62,1.03l-1.09,2.97-5.29.61c-.38.92-.06,1.83-.28,2.77-1.94.62-4.1-.16-5.95.88-.52.29.05,2.3-.65,2.49-2.58.72-5.07,1.54-7.94,2.09l-.15,5.12c-2.77.13-5.26.58-7.89.23.44-.98,1.14-2.42.12-2.55-1.72-.22-3.26.21-4.89.5l.02,38.79c0,.83,2.43.71,2.81.88-.04,1.51.51,2.46,1.99,2.69l.2,2.94c1.1.68,2.4-.51,3.24,1-4.31.62-8.25.72-12.26-.09.62-1.14,2.63.5,2.64-.79l.28-35.71-4.15-.32c.06-1.5-.34-3.25.4-4.66.41-.77,1.71.18,2.35.24,1.21.11,1.12-1.05,1.05-1.67-.18-1.56-3.16-.5-3.52-1.35-.23-.55.05-1.57-.07-2.05-1.36-.98-3.09-.29-4.67-.87-.46-1.05.11-2.37-.69-3.26l-5.34-.54c-.24-1.44.12-2.66-.5-3.52-12.17-.39-5.78-3.86-9.6-3.79-1.08.02-.83-2.78-1.59-3.2-1.8-.95-3.22-2.51-3.35-4.59-1.18-.1-2.75-.56-3.74-1.97-1.11.34-1.34,2.08-1.38,3.08l-2.23.25c-.94,2.45.79,5-2.4,6.13-1.13,1.15-.13,3.67-.69,5.13-2.7,1.4-1.02,2.57-1.45,6.06l-2.93.44c-.47,1.57.14,3.59-.53,5-.48.44-2.48-.19-2.48.99,0,1.59-.33,2.8-.67,4.15-.43,1.72.32,3.84-.61,5.51-.41.73-2.15.42-2.8.4,1.16-7.3-1.94-8.13,3.85-10.69-.27-2.52.33-5.46.69-7.87s1.63-2.78,3.05-4.14c1.08-11.92,3.74-3.11,4.02-11.31.04-1.02,3.22-8.51,5.54-8.16-.76-1.3.83-1.91.99-2.64.92-.28,1.93.01,2.85-.18.82-.17.25,1.15.59,1.23,4.57,1.09,1.76,3.24,6.81,2.36.12-.76-.19-1.64-.43-2.28-1.28-.87-6.85-1.58-6.24-2.44-.17-.77-.06-1.54-.49-2.21-.04-1.07.46-2.13-.13-3.57-2.96-.07-5.79-.39-8.49.09-.53.06-1.31-.68-1.9-.94-.3-.13-.82.47-1.38.11-1.01-.65-.96-3.62-1.83-3.65-1.37.17-1.88-.1-2.55-.89-2.36-2.74,1.19.24-1.32-3.02-2.01.41-3.75-.52-4.7-2.55-.6-1.27-2.8-1.81-2.32-3.85-4.97-.53-4.08-3.86-5.41-3.65-2.21.34-2.11-1.57-2.97-2.86-.64-.96-2.32-1.26-2.07-2.83.4-2.5-2.39-.85-3.6-2.76-.42-.67-.51-1.44-.28-2.21,1.01-.03,2.01-.22,3.29.03.32,1-.3,2.07.44,2.96.33.34,1.02-.09,1.18-.23s.29.33.31.68c1.14.54,2.36,0,3.41.67-.02.69.02,2.3.61,2.81.45.4.97.58,1.99.68.43.47-.04,1.64.64,1.89,1.81.66,3.58.18,5.29.59.42.18-.03,1.23.31,1.7.5.68,1.89-.12,2.68.32.98,1.14.87,2.96.85,4.46,1.19.54,2.76-.02,3.63.73l3.5,2.98c.06.05,8.01,2.05,8.46,2.12,1.64,3.88,2.13.65,5.96,3.52.5.37,1.66.07,2.36.45s.75,1.6,1.23,2.23c1.4.96,5.53,0,7.14,1.23.6.47.31,1.65.65,2.28,1.47,2.74.55,4.08,1.38,7.89,1.61.72,3.44.31,4.97,1.2.82.47,1.01,1.93,2.76,1.21,1.65-.69.65,3,1.09,3.67.27.4.88.39,1.56.4l13.43.1Z"/>
          <path class="cls-71" d="M194.32,254.15c-.18,1.27-.41,3,.23,4.39.19.43,1.51.06,1.62.77.28,1.71.21,3.75.82,4.11,1.14.67,3.28-.37,3.9.85.17.33-.77.63-.81,1.06-.23,2.1-.2,4.59.34,6.56,1.08.02,2.34-.23,2.51.79.14.61-.34,1.38.09,2.04.37.56,1.43.41,2.56.46-.23,2.27.54,4.21,2.26,5.24.03.57.08,5.33,1.38,4.17-.06.54-.69.17-.76.38,1.42-4.34-1.93,9.17-1.01,3.93-.56,3.23-.3,6.59,0,10.02.1.52,1.69.44,2.38.4.71.72.25,1.79.88,2.61.41.53.85.3,1.14.24,2.46-.58-.22-8.04,2.12-8.29,2.77-.3.15,3.63,1.69,4.74.37.27,1.14.01,1.37.31.48.64-.05.87-.14,1.35-.52-.07-1.06-.14-1.52.41-.29.34-.25.76.19,1.44.26.4.76.11,1.3-.02.18,1.03.21,2.08.3,3.32,1.95.37,3.7,0,5.57-.32.37-.98-.09-2.16.61-3.09s2.43-.11,3.4-.67c.75-.43,0-2.82.78-3.38.23-.16.52-.24,1.13-.33-.28.39.74.34.74.57.08,2.18,1.56,4.36,1.81,6.55l.97,8.61c.13,1.12,1,1.6,1.9,1.33.23,5.51.28,11.41,2.43,16.47l2.39,5.64c.59,1.38.14,2.9.63,4.08-1.23.7-2.6.52-3.43-.74-.68-1.03-1.47-2.11-1.45-3.46-2.89-.79-6.33-.72-9.4-.61-.28,1.16.36,2.94-.63,3.38-.88.39-2.46-.21-2.59.98-.06.61-.17,1.41-.74,1.54-.27.07-.53.29-1.21.37l-.5,5.28-4.04.08-.38,6.75c-.04.67-1.51.29-1.59.71l-.65,3.45c-1.13.92-2.96.17-4.35.61-.25,1.39.09,2.69-.31,4.08l-9.61.13.4,8.84c-.9.26-1.78.18-2.51.28-.65-2.51-1.1-4.82-1.16-7.6l-.25-11.79c-.04-1.71-.46-3.22-.33-5l-2.09-.39c.96-4.7,1.24-4.6-.77-5.54-.4-.19-.33-.7-.27-1.13,1.52.2.09-1.57,4.22-1.94.57-.05.45-1.41.91-1.54,2.03-.57,4.13-.4,6.08-1.31.35-1.6.21-3.18.24-4.83l-2.48-.6c-.2-2.9-.19-5.62-.88-8.46-1.24-5.13.11-8.62-3.83-9.1l-.68-7.13c-.38-.32-1.66.01-2.07-.18-.29-.14-1.09-8.61-.93-10.39-.89-.71-1.83-.47-2.78-.82l-.73-7.6c-1.29-.17-2.64-.1-3.48-.87l-.32-19.03c-1.28.8-2.11-.04-2.74-.04.4-1.07.09-2.24.31-3.64l3.12-.49c.08-1.38.23-2.73-.16-4l-2.76.34-.21-8.01-.12-17.58c.73-.63,2.94-.61,3.23.12.55,1.35.15,3.29.61,4.85.71.41,1.45.16,2.34.33.63,1.93.01,4.03.83,6.01.34.82,1.6,1.46,1.22,2.7-.49,1.59.72,2.12,1.37,3.11.45.68-.32,1.93.4,2.54.42.36,1.27.37,1.93.66Z"/>
          <path class="cls-89" d="M94.95,234.71l-3.52.07-.03,13.08c0,3.9.6,17.24-.7,19.19-.2.29-1.13-.32-1.58.13-2.8,2.8.28,1.5-7.23,1.43.04,1.2-.18,2.05-.89,2.58-.5-.16-2.01-.57-2.14-.07l-.73,2.88c-.14.55-1.58.15-2.12.11-4.09-.28-7.31-3.05-10.91-3.21-3.45-4.2,2.57-2.27.48-8.53l3.3.39c.34,1.3-.56,3.59.95,4.29,2.45,1.14,6.63,1.55,8.18,2.67.29.21,1.59-.24,1.64-.6.19-1.46-.11-2.91.22-4.37l2.84-.3.7-8.02c.13-1.5,2.37-9.59-2.14-10.28-.33-.05-.52-.58-.54-.81-.15-1.72,3.9.64,4.94,0,.4-1.2-.09-2.45.36-3.5.14-.33,1.04-.33,1.21-.61.08-.13.57-16.23,1.1-20.08.11-.81,1.94-.68,2.23-1.02-.02-1.04-.72-2.63.22-3.33s2.26-.15,3.27-.78c-.19-1.15,1.76-9.72,1.87-9.84.34-.34,1.81-.74,2.03-.31,1.22,2.39.98,4.94.18,7.28-.24.71.18,1.95-.93,2.17-.5.1-1.14-.16-1.4.21-.23.32-.65.96-.61,1.64.38,6.03-.25,11.87-.26,17.56Z"/>
          <path class="cls-5" d="M89.15,293.88c.23,1.83.45,4.22-.49,5.94-2.72-.12-1.46,4.25-2,6.1-4.02-.38-5.07,9.79-5.23,12.5-2.58,1.13-.76,3.44-1.97,7.06-1.8,5.38.83,5.33-2.79,6.3-.1,1.31-.35,3.38.09,4.7.52.74,1.81.64,2.38,1.26-.03,1.06.44,1.72.89,2.16.8.79,2.39-.04,2.99.34,1.01,2.26,8.46,3.35,11.03,3.22.63,1.04.68,2.28.56,3.37-1.06-.06-2.32.56-3.43-.43l-.13-2.41c-1.26-.78-2.72,0-3.82-.29.86.23-9.97-4.12-9.15-3.88-1.1-.32-2.52-.34-3.32-1.08-1.46-1.33-1.29-4.68,0-5.93,2.92-2.82.83-2.8,2.75-8.63-.19.57.61-4.5,1.17-5.24.87-1.15.96-2.52.51-3.71.71-.13.51-.89.74-1.33.84-1.53-.05-3.97,1-5.09l2.57-2.73,1.74-8.12c.29-1.36-.7-3.02.23-4.06,1.18-.44,2.63-.94,3.68-.04Z"/>
          <path class="cls-38" d="M192.28,189.27c-.96.38-2.32,1.08-3.38,1.2-2.23.25-4.83-.57-6.84.5-1.44-.18-3.79-.76-5.41.32.25,1.11.57,2.03.12,2.77-1.68,0-3.39.44-5.07.11.04-1.02.21-2.27,0-3.28,1.2-.73,2.61.08,4.14-.35.54-1.04,0-2.36.71-3.14,4.39-.33,8.47.46,12.04-.97,1.1-.44.54,1.3,3.24,1.72.59.09.34.61.46,1.11Z"/>
          <path class="cls-13" d="M76.02,274.11c-1.23,2.12.85,6.16-1.43,6.57-1.85-2.56-4.91-3.38-8.17-4.06-.98-.2-2.17-1.3-3-.37-.3-2.21,1.4-2.14,1.69-5.35,3.6.16,6.81,2.93,10.91,3.21Z"/>
          <path class="cls-91" d="M263.9,314.19c-1-.19-2.28.37-3.26-.34-.37-.27-.26-1.14-.57-1.41-.46-.4-1.52.08-2.15-.35l-1.12-3.36c-.75.14-1.29.3-1.75.1-.78-.35.16-2.31-.42-2.76-.23-.17-1.06.13-1.38-.21-.24-1.27-.23-2.67-.15-3.8,1.16-.34,2.54-.13,3.78.22.3,1.11-.21,2.27.23,3.42.39,1.03,2.54.26,3.02.94.81,1.14.04,2.84.53,4.09l3.2.41.06,3.05Z"/>
          <path class="cls-39" d="M271.07,320.97c-.42.24-.31.86-.57,1.04-.72.49-3.21.29-3.4.02-.51-.76.13-2.93-.36-3.56-.44-.57-1.39-.03-2.14-.18-1.28-.26-1.33-3.09-.25-3.71.94-.24,1.95-.08,3.08.16.12,1.2-.38,2.29.11,3.36.97.53,2.34-.2,3.25.52.57.45.29,1.81.28,2.36Z"/>
          <path class="cls-58" d="M72.72,245.9c-.57-1.39-.43-3,.75-4.18.12-.29-.13-1.02.76-1.28-.89-.27,1.2-4.91,2.95-4.35.12.18-.15,4.05-1.31,6.03-.4.69.62,2.52-.7,3.24-.64.35-1.79.26-2.46.54Z"/>
          <path class="cls-58" d="M69.22,255.06c-.45-2.04.54-4.05.74-6.3.12-1.32,1.31-1.99,2.35-2.29.49,1.21.48,2.61-.15,3.94-.47,1,1.08,3.17-.38,4.1-.65.42-2-.13-2.56.54Z"/>
          <path class="cls-94" d="M195.23,194.21c.55.72-2.92.48-3.77-1.36,1.21,2.6-2.42-2.81-1.66-2.15-.23-.2-.59-.04-.9-.24,1.06-.12,2.42-.81,3.38-1.2.29,1.18,1.81,1.48,2.81,2.25.9.69.31,1.9.14,2.69Z"/>
          <path class="cls-13" d="M58.21,288.44c-.94-.4-1.78-1.23-2.09-2.22.66.21.88-.07,1.17-.44.36-.44-.19-1.38.08-1.78,2.49-3.77,1.46-3.29,3.61-5.08.16.99.05,2.06,0,3.24-1.52.36-1.39,1.48-1.75,2.73l-1.01,3.55Z"/>
          <path class="cls-58" d="M69.12,255.56c-.47.86.04,2.38-.77,3.2l-2.69.24c.31-.57.65-1.26.65-2.16,0-1.36,1.87-1.73,2.81-1.27Z"/>
          <path class="cls-13" d="M63.42,276.25c.06.48-.06,1-.15,1.78-.88,0-1.72.42-2.29.89-.04-.27.49-2.23,1.1-2.45.36-.13.91-.13,1.34-.22Z"/>
          <path class="cls-58" d="M68.89,262.76l-3.3-.39c-.05-.15,0-.36,0-.52l3.05.04c.35.42.79.77.25.87Z"/>
          <path class="cls-58" d="M72.32,246.48c-.3-.44-.11-.99.4-.57.18.44.05.74-.4.57Z"/>
          <path class="cls-115" d="M171.7,190.89c.21,1,.05,2.26,0,3.28-1.71.46-.33,1.89-1.46,3.21-.66.77-6.05-.23-6.79,1.14-.23.5.25,1.87-.15,2.28-.25.26-.87.52-1.52.46-4.2-.42-8.09.23-12.15,1.31-.39.55-.37,1.3-.78,2.13-3.53.17-6.95.49-10.36,1.12l-.72,2.71c-3.56.59-7.06.29-10.59.23-.62-.01-2,.59-2.53-.17s-.32-2.04-.33-3.12c5.76-.6,8.33.29,13.99-.42l.33-3.7,6.52-.88c1.09-.15,12.06.66,17.76-3.02.83-.54.2-2.05.68-2.88,1.73-.37,3.26.04,4.91-.53.3-.97-.38-2.24.33-2.93.65-.64,2.13-.29,2.85-.2Z"/>
          <path class="cls-79" d="M142.28,267.33c10.57-.36,29.94-.17,39.92-.1.63,0,1.46.85,2.74.04l.32,19.03c-15.82,1.21-31.97-.47-47.57,1.2-.58.06-1.59.2-2.15.05-3.87-1.01-8.09-.29-12.14-.42-.59-.02-1.22.08-1.8,0-5.06-.69-10.25-.69-15.37-.76l-6.81-.1c-.96-.01-.92-1.69-.9-2.25,4.26-1.27,14.32-.31,20.46-.6.41-.02.78-1.19,1.64-.79l-.44-2.23c-.89.08-1.74.26-2.56-.17-.43-.22-.11-1.04-.39-1.13-.47-.15-.94-.39-1.69-.13-.64-.61-.33-1.42-.59-2.43-.95-.03-1.53.5-2.64-.23-.48.63-.26,1.48-.53,2.47-1.35.55-3.12-.03-4.6.36-.37.1.01,1.23-.24,1.54-1.78,2.2-10.78-2.52-8.88,3.19l-3.06.08c-.13-3.24-.4-6.7.05-9.92.87.44,1.9.3,3.07.3l22.54.02c.66-1.37.41-2.69.4-4,.6.21,1.56-.21,2.2.2l.26,12.86c.59.93,2.32.18,3.04.48,3.01,1.23,6.47.94,9.59.18,1.58.29,3.58-.39,4.88-.41l15.07-.2c.51-1.42.48-2.61.82-4,1.63-.06,2.52-1.47,3.95-2.04.95-.38,2.49.44,2.55-1.14-8.32-.98-3.96-.08-9.74,1.51-.43-.64-.03-1.38-.52-1.8-.8-.69-1.17-1.19-1.91-.8-1.81.93.04,2.99-1.81,3.51-.75.21-3.34,0-3.55-.16-.35-.27-.84-3.95.48-3.98l20.94-.55c4.92-.13,10.05.55,15.23-.13.2-1.03.01-2.51-.01-3.77l-15.22.11c-8.79.06-17.63-.55-26.34.21-.84-.38-1.78-.02-2.05-.57-.33-.7-.8-2.37.2-2.41l3.15-.11Z"/>
          <path class="cls-46" d="M182.54,217.19c-.24,2.33-.38,4.71-.13,7.2,1.33.22,2.39-.14,3.45.36.08,2.87-.2,5.88.33,8.52l2,.06c.46.01.46.92.88,1.19.8.52,1.96.09,3.02.37l.07,10.57,2.9-.1-.32,8.4c-.34.17-.41.31-.42.39-.65-.29-1.51-.31-1.93-.66-.71-.61.05-1.86-.4-2.54-.65-.99-1.86-1.52-1.37-3.11.38-1.24-.88-1.87-1.22-2.7-.82-1.98-.21-4.07-.83-6.01-.89-.16-1.63.08-2.34-.33-.46-1.56-.06-3.5-.61-4.85-.29-.73-2.5-.75-3.23-.12l.12,17.58.21,8.01,2.76-.34c.39,1.28.24,2.63.16,4l-3.12.49c-.22,1.4.09,2.57-.31,3.64-9.98-.07-29.35-.26-39.92.1-.03-1.14-.26-2.35.12-3.63,1.75-.22,6.99.42,7.47-.91.18-.5.13-1.27.14-2.05,1.94-.45,4.41-.66,6.62-.4.68.61.17,2.12.34,3.16,4.97.26,9.7.11,14.48-.55.08-1.1-.3-2.42.74-2.8.8-.29,1.53.03,2.09-.42.32-.26.3-.95.77-1.41.51-.49,1.49-.11,1.78-.57.8-1.27-.35-6.52-.36-6.16l.09-2.75-.08-25.17c-1.04-.38-.58-2.01-.2-2.3l1.24-.95c.35-.27-.03-1.09,0-1.51.03-.49-.1-.99.04-1.34.12-.3,3.93-1.65,4.98-.39Z"/>
          <path class="cls-115" d="M234.08,314.7c-.9.27-1.78-.21-1.9-1.33l-.97-8.61c-.25-2.2-1.73-4.38-1.81-6.55,0-.23-1.02-.18-.74-.57,1.44.8.92-7.64.54-8.6s-1.84-1.61-1.77-3.31c.05-1.14-1.04-1.79-1.53-2.61,1.28-1.43,1.2-3.65.53-5.39.8-.4.44-1.41.65-2.23s-.52-1.07-1.16-1.09c.01-.4-.43-.66-.58-1.24.85-.52.76-.97.56-1.36.1-.88.78-1.24.96-1.69.27-.64-1.14-3.1-1.77-4.25-.28-.51.13-1.31-.22-1.76s-.91-.53-1.61-.61c-.42-2.44.36-5.08-.62-7.47-.46-1.14-1.85-1.89-1.35-3.73.14-.52-.22-1.17-.56-1.32-.48-.21-1.1.04-1.54.05-1.36-1.17-.48-3.48-.99-5.33-1.01-.42-2.04-.12-3.07-.36l-.44-7.01-3.15-.63-.34-3.99-2.71-.11c-.93-2.24,1-5.78-1.21-5.91l-.51-4.79-2.85-.4-.11-5.81c.56.42,2.39-.2,2.56,1.18.14,1.19-.17,2.31,1.02,3.38,1.11.99.86,3.02,1.87,4.05,1.77,1.81,1.88,4.11,2.99,6.13.5.91,1.27,1.54,1.72,2.77.4,1.07,1.05,2.49,1.56,3.53s2.67,1.61,3.09,2.82c.1.29,1.42-.07,1.57.23-.31-.62,1.97,8.99,1.55,5.57l.37,3.02c2.31-2.05,1.97,8.82,4.33,8.9l1.28,5.85c.43,1.96.97,3.81,1.61,5.74,1.36,4.07,1.79,8.3,2.74,12.5,1.42,6.29,1.17,12.7,1.45,19.25l.56,13.11Z"/>
          <path class="cls-78" d="M94.95,234.71l-.04,28.72c1.59.05,2.57.23,3.68.19-.38,1.35,0,2.67.04,4.04-.78,0-1.81.18-2.65.25-1.14.09-.7,1.61-.9,2.17-.37,1.03.12,2.88-.04,3.97-.45,3.22-.18,6.68-.05,9.92-.87.17-1.06,1.18-.7,2.47-1.01.79-2.04.26-3.24.48l-.46,5.3c-.03.32-.1,1.02-.29,1.29-.21.29-.7.23-1.16.37-1.04-.9-2.49-.4-3.68.04-.46-.29-.14-1.09-.3-1.81-.12-.54-.87-.4-1.13-.52l.27-3.57c.07-.97,1.79-1.07,2.17-1.6.67-5.55,2.39-2.4,1.75-8.85l-.42-4.26-6.82-2.1c.71-.53.93-1.39.89-2.58,7.51.06,4.42,1.37,7.23-1.43.45-.45,1.39.16,1.58-.13,1.31-1.95.7-15.29.7-19.19l.03-13.08,3.52-.07Z"/>
          <path class="cls-82" d="M167.32,270.21c-.19,1.27-.06,2.52,0,3.8l-20.94.55c-1.32.03-.84,3.71-.48,3.98.21.16,2.8.37,3.55.16,1.84-.52,0-2.58,1.81-3.51.74-.38,1.11.11,1.91.8.49.42.09,1.16.52,1.8,5.77-1.59,1.42-2.49,9.74-1.51-.06,1.59-1.6.77-2.55,1.14-1.43.56-2.32,1.98-3.95,2.04-.34,1.39-.31,2.58-.82,4l-15.07.2-.06-13.25c8.71-.75,17.55-.15,26.34-.21Z"/>
          <path class="cls-89" d="M225.9,271.79c-.81-.13-1.08.21-.48.85.28,1.07-1.37,1.31-1.54,2.06-.31,1.37-.55,3.04-2.41,2.94s-3.7.29-5.89.45c-.44.03-.85-.83-1.15-.78-.48.08-.46,1.03-.78,1.15-3.14,1.11-5.9-.37-5.79,1.95-1.72-1.02-2.49-2.97-2.26-5.24-1.13-.05-2.19.09-2.56-.46-.43-.66.04-1.43-.09-2.04,6.49.02,3.69-1.22,4.66-1.5l8.74-2.49c1.66-.47,3-1.41,5.06-1.46.8-.72.5-2.69.33-3.84-1.05-.38-1.89.11-2.67-.5l.15-11.87c.44,0,1.06-.26,1.54-.05.34.15.7.8.56,1.32-.5,1.85.89,2.59,1.35,3.73.97,2.39.2,5.03.62,7.47.69.08,1.27.17,1.61.61s-.06,1.24.22,1.76c.63,1.15,2.03,3.6,1.77,4.25-.19.45-.86.81-.96,1.69Z"/>
          <path class="cls-88" d="M182.54,217.19c-1.05-1.25-4.87.09-4.98.39-.13.34,0,.85-.04,1.34-.45.04-.75.07-.83-.41-.05-.29.35-.57.31-.96-.13-1.18-1.39-1.17-2.57-1.35l-.2-2.38c1.85-.2,3.35-1.28,5.11-1.1,3.29.35,2.97-5.5,3.31-9.13.14-1.53,1.71-.99,2.51-1.52,1.19-.8,2.32-1.09,3.63-.24.72.47,1.09,2.64.11,3.03-.72.29-2.2-.32-2.56.76s.05,2.21-.42,3.33c-.86,2.04-.21,4.63-1.23,6.74-.18.37-1.38-.06-1.62.34-.18.3-.46.71-.51,1.18Z"/>
          <path class="cls-75" d="M136.17,284.08c-3.12.76-6.59,1.05-9.59-.18.54-.9,6.16.04,7.83-1.24-.21.16.38-1.66.38-1.65-.24-.29-.61-.28-.77-.17-.12.08-.29.46-.7.5-1.16.12-1.23-1.07-.13-.98.7.06,1.82.17,1.85-.54.07-1.78.09-3.67,0-5.37-.7-.11-.91.61-1.04.49-.25-.22-.25-.53-.17-.72.09-.22.59-.01,1.05-.2.58-.23.35-1.71-.15-1.99-.27-.15-4.21-.19-5.2,1.1-.81,1.06-1.76,1.95-.79,3.25.89-.01,1.65-.17,2.57.11.13,1.31.14,2.38,0,3.71-1.56.33-2.92.2-4.53-.12l.14-9.76c3.14-.3,6.04-.4,9.05-.11,1.87.18,1.3,8.44,1.1,9.42-.15.78-1.04-.65-.9,4.44Z"/>
          <path class="cls-92" d="M98.64,267.66l14-.07c3.29-.02,6.78.37,10.49-.02.77.74.11,2.24.13,2.99-.65-.41-1.6,0-2.2-.2-2.07-.71-21.85.22-25.97-.29.2-.56-.24-2.08.9-2.17.84-.07,1.87-.24,2.65-.25Z"/>
          <path class="cls-59" d="M112.65,267.59l-14,.07c-.05-1.37-.42-2.68-.04-4.04,2.15-.08,4.57.46,6.75-.16,1.38-.39,2.27-.71,3.66.05.86.47,2.65-.55,3.57.18,1.06.84.49,2.86.07,3.9Z"/>
          <path class="cls-31" d="M182.07,190.97c-.1.99.19,2.1-.44,3.12-1.72.23-3.31-.03-4.85-.02.45-.74.13-1.66-.12-2.77,1.63-1.08,3.97-.49,5.41-.32Z"/>
          <path class="cls-65" d="M191.68,341.08c-3.26-.43-.46.73-4.13,1.16,1.05-1.42-5.51.95-5.29-.26-.16-.85.18-2.17.68-2.37.62-.26,1.47-.31,2.45-.39l.76-2.6c1.18-.16,3.43.21,4.12-.71.36-.48,1.65-1.25,1.78-1.86.75-3.46,0-7.81.39-11.28-1.34-.29-2.75.15-3.3-.62-.72-1.01-.24-2.57-.37-3.92-.09-.93-1.94-.49-2.2-1.05-1.07-2.28-.34-4.85-1.12-7.07-.84-.43-2.08.13-2.8-.47-.8-.67-.2-1.98-.27-3.25l-3.06-.8c-.52-2.95.38-6.82-.51-9.79.21.72-2.18-2.45-2.35-3.68-.04-.3-.64-.48-1.18-.48h-34.2c-1.22.01-2.27.21-3.15.44-.07-1.52-.25-3.05-.23-4.57,15.59-1.67,31.74.01,47.57-1.2.84.77,2.18.7,3.48.87l.73,7.6c.95.35,1.89.11,2.78.82-.16,1.78.63,10.25.93,10.39.41.2,1.7-.14,2.07.18l.68,7.13c3.94.48,2.59,3.97,3.83,9.1.69,2.84.67,5.55.88,8.46l2.48.6c-.03,1.65.11,3.23-.24,4.83-1.96.91-4.05.74-6.08,1.31-.47.13-.35,1.49-.91,1.54-4.13.37-2.7,2.14-4.22,1.94Z"/>
          <g>
            <path class="cls-55" d="M225.89,283.11c.5.83,1.58,1.48,1.53,2.61-.07,1.7,1.38,2.33,1.77,3.31s.9,9.39-.54,8.6c-.62.09-.91.16-1.13.33-.78.56-.02,2.94-.78,3.38-.97.56-2.72-.23-3.4.67s-.24,2.11-.61,3.09c-1.87.33-3.62.7-5.57.32-.09-1.24-.12-2.29-.3-3.32-.12-.68-.05-1.38.04-1.83.09-.48.62-.71.14-1.35-.23-.3-1-.04-1.37-.31-1.54-1.11,1.08-5.04-1.69-4.74-2.34.26.34,7.72-2.12,8.29-.29.07-.74.3-1.14-.24-.62-.82-.17-1.89-.88-2.61-.69.04-2.28.12-2.38-.4-.31-3.43-.57-6.79,0-10.02-.91,5.24,2.44-8.28,1.01-3.93.07-.21.7.16.76-.38,4.91-.02,11.64-.91,16.66-1.47Z"/>
            <path class="cls-23" d="M225.9,271.79c.2.39.28.84-.56,1.36.15.58.59.84.58,1.24-.51-.13-.91.2-1.17.53-.76.95,1.41,3.52,1.68,2.79.67,1.74.76,3.96-.53,5.39-5.02.56-11.75,1.45-16.66,1.47-1.3,1.16-1.36-3.6-1.38-4.17-.11-2.32,2.65-.84,5.79-1.95.32-.11.3-1.06.78-1.15.3-.05.7.81,1.15.78,2.19-.16,3.98-.55,5.89-.45s2.1-1.57,2.41-2.94c.17-.74,1.82-.99,1.54-2.06-.59-.64-.33-.99.48-.85Z"/>
            <path class="cls-48" d="M216.89,300.26c-.08.46-.16,1.15-.04,1.83-.54.13-1.04.43-1.3.02-.44-.68-.47-1.1-.19-1.44.46-.55,1-.48,1.52-.41Z"/>
          </g>
          <path class="cls-27" d="M187.55,342.24c-1.61.19-3.12.82-5.01.94-3.04.19-6.03.38-9.01,1.1-1.92.46-3.57,2.01-5.83,1.63-.43.17-.75,1.2-1.35,1.24l-13.58.94c-2.54.18-5.31-.6-8.15.07-.42-.33-.67-.47-.91-.49.2-.46.26-1.08.21-1.81l-1.18-18.31c-1.08-4.41-.36-8.81-1.2-13.26-.1-.54-1.5-.44-1.79-.63-.65-2.54-.04-5.18-.84-7.65-.25-.78-.91-12.44-.98-13.92.89-.23,1.94-.43,3.15-.43h34.2c.54-.01,1.14.16,1.18.47.17,1.23,2.57,4.4,2.35,3.68.89,2.98,0,6.85.51,9.79l3.06.8c.07,1.27-.53,2.58.27,3.25.72.6,1.97.04,2.8.47.78,2.21.05,4.79,1.12,7.07.26.56,2.11.13,2.2,1.05.13,1.35-.35,2.91.37,3.92.55.77,1.96.33,3.3.62-.39,3.47.36,7.83-.39,11.28-.13.61-1.42,1.38-1.78,1.86-.69.92-2.94.55-4.12.71l-.76,2.6c-.98.09-1.82.14-2.45.39-.5.2-.84,1.52-.68,2.37-.22,1.21,6.34-1.16,5.29.26Z"/>
          <path class="cls-27" d="M95.01,283.96l3.06-.08c.12.22.25.2.46.14-.01.56-.06,2.24.9,2.25l6.81.1c.36.58-.62,1.12-.75,1.66-.5,2.09,2.21,1.38,3,1.96,1.43,1.05,1.99,1.92,4.13,1.73,2.33-.2,4.82-.21,7.17.34.7,1.54-1.47,9.1-.04,9.99-.09,1.13-.32,2.3-.46,3.64l-.9,8.44c-.51.29-1.47.07-1.69.57-.75,2.24-.05,4.73-1.01,6.78-.28.6-1.28,1.04-1.06,2.26.3,1.71-.33,3.11-.89,4.56-.88,2.25-.14,4.76-.79,7.03l-2.18.21c-.37,1.6-.46,3.23.01,4.86l2.44-.11c.49,2.38.03,4.61.16,6.82-.1.47-.48.82-1.28.77l-17.49-1.05c.12-1.09.07-2.33-.56-3.37-2.57.14-10.02-.96-11.03-3.22-.61-.38-2.19.45-2.99-.34-.45-.44-.91-1.1-.89-2.16-.57-.63-1.86-.52-2.38-1.26-.44-1.33-.19-3.39-.09-4.7,3.62-.97,1-.92,2.79-6.3,1.21-3.62-.61-5.94,1.97-7.06.15-2.72,1.2-12.88,5.23-12.5.54-1.85-.72-6.22,2-6.1.94-1.72.72-4.11.49-5.94.46-.14.96-.08,1.16-.37.19-.27.27-.97.29-1.29l.46-5.3c1.2-.23,2.23.3,3.24-.48-.36-1.29-.16-2.3.7-2.47Z"/>
          <path class="cls-44" d="M135.01,291.72c-.21,1.08.31,2.35-.49,3.55l-.32,16.3-.37,36.14c-.91.06-1.74.59-2.73.55l-10.38-.44c-.72-.03-1.32-.58-1.14-1.07l.06-17.14c0-.49,0-1.15.18-1.43.16-.24.91-.2,1.16-.47l.4-13.86c1.71.39,3.81-.36,5.59.29.37.13.07,1.18.27,1.51s1.59.96,1.6.38l.37-20.73c.02-1.22.15-2.3.32-3.52,1.95-.46,3.74-.18,5.51-.07Z"/>
          <path class="cls-24" d="M123.41,287.13l-.25,19.81c-.61.11-.93.12-1.12.24-.32.21-.41.63-.43,1.18l-.25,5.49-.4,13.86c-.25.27-1,.23-1.16.47-.18.27-.18.94-.18,1.43l-.06,17.14-6.18.35c-.13-2.21.33-4.44-.16-6.82l-2.44.11c-.47-1.63-.38-3.26-.01-4.86l2.18-.21c.66-2.27-.08-4.77.79-7.03.57-1.45,1.19-2.86.89-4.56-.22-1.23.78-1.66,1.06-2.26.96-2.04.26-4.53,1.01-6.78.22-.5,1.18-.28,1.69-.57l.9-8.44c.14-1.34.38-2.51.46-3.64.06-.8,0-1.56.3-2.47.52-1.57.04-3.37.32-5.07l1.24-7.38c.58.08,1.21-.02,1.8,0Z"/>
          <g>
            <path class="cls-36" d="M112.5,382.08c2.43.1,4.82.04,7.26-.08.02,1.04,1.25,1.55.99,2.69-.07.72-.84.86-1.41,1.45l-.21,24.81c0,.95-.38,2-.5,3.02l-.39,3.46c-1.8.69-5.33-.7-4.79,1.23l-37.43.12c-.9,0-1.66.15-1.92-.6.13-1.15-.22-2.13-1.38-2.75-.04-.73-.27-1.85-.16-2.39.46-2.21.11-4.67.77-7.08.22-.69,2.22-.76,2.75-.53.15,1.16-.1,2.46-.14,3.68s-.82,2.53.15,3.89l18.04.05c1.2,0,2.12-.49,3.6-.13s3.45-.42,4.94-.48c.54-2.31,2.18-3.58,4.41-3.28l1.93-2.94c.86-1.3,1.41-4.79.29-5.92-2.13-.85-4.31-3.97-3.18-5.19.49-.53.98-.17,1.98,0,.92.15,1.02-.79,1.07-1.31.26-3.17-3.61-1.09-2.01-4.77-1.57,0-3.74-.29-5.11-.07-.45.07-.82,1.02-1.77.67-.12.38.03.6.11.77.2.45-.36.48-.46.63-.3-1.02-3.47-2.99-4.92-1.9-1.54,1.16,3.01.9,2.66,1.95-.71.48-1.58.95-2.18,1.14-.69.21-1.1,2.03-.6,2.46,3.62,1.26,8.77-1.04,9.44,1.48,2.62-.21-2.84,3.27-2.3,3.39-1.51-.54-10.09-.59-11.05.67l3.33,2.73c-3.64.39-6.69-.37-9.81-.64.12-.92.2-1.53-.34-1.36.15-.54-.38-2.04.38-2.19,2.22-.45,4.37.2,6.49-.38.21-5.29-.42-10.5.28-15.59.05-.37.75-.61.99-.8,2.15.51,11.91.13,12.6,1.16.25.37-.42.85-.27,1.14.62.21,1.32.37,1.56.06.42-.54.33-1.14.12-2.06,2.16-.06,4.23-.29,6.2-.21Z"/>
            <path class="cls-7" d="M102.04,399.56l-.05,5.71-3.38.73c0,1.14.13,2.16-.26,3.35-1.22-.04-2.18-.21-3.6.01-.28,1.33-.1,2.62-.62,3.69l-18.04-.05c-.98-1.36-.2-2.65-.15-3.89,1.36-.32,3.05.6,4.62-.08.94-.4.73-2.8.57-3.67-1.58-.5-2.97.39-4.25-.36l.26-2.44c1.57-.69,6.22-.02,6.79-.67.19-.22.15-.68.23-.95.54-.17.46.44.34,1.36,3.12.26,6.17,1.03,9.81.64l-3.33-2.73c.97-1.26,9.54-1.2,11.05-.67Z"/>
            <path class="cls-69" d="M106.55,377.15c-6.53-.23-13.22.63-19.79-.1-.56-8.6-1.04-2.93-1.25-4.88-.39-3.7-.07-7.2-.05-10.56.85.31.52,1.58.12,2.23.87.23,1.13-.04,1.45-.16-.35.13,8.8,5.79,6.5,3.55,3.94,3.84,14.26,1.39,15.97,2.79.59.48.58,2.19.16,2.7-.57.7-1.88.26-2.8.36-.38,1.57-.14,2.83-.31,4.07Z"/>
            <path class="cls-66" d="M106.55,377.15l12.83.45c1.16.04,2.73-.36,3.69.12,1.23.62.41,2.59-.21,3.85-.53,1.08-2.07.37-3.11.42-2.44.12-4.82.18-7.26.08-.29-.55.3-1.1.08-1.87-3.04-.58-5.97-.57-9.07-.33-3.89.29-7.63-.68-11.53-.08-.35,1,.3,1.57.31,2.21-.24.19-.94.43-.99.8-4.38-1.89-1.01-1.04-4.53-2.53-.81-.73.04-2.4-.01-3.22,6.57.73,13.26-.13,19.79.1Z"/>
            <path class="cls-77" d="M76.88,405.01c1.28.74,2.67-.14,4.25.36.16.87.37,3.27-.57,3.67-1.57.68-3.26-.24-4.62.08.04-1.22.29-2.52.14-3.68,1.22-.29.02-.88.8-.42Z"/>
            <g>
              <path class="cls-96" d="M191.68,341.08c-.07.43-.14.94.27,1.13,2.02.94,1.73.84.77,5.54l2.09.39c-.12,1.78.3,3.3.33,5l.25,11.79c.06,2.79.51,5.1,1.16,7.6-.04-.14.11,9.86-1.33,8.1.38-.8.85-2.39.15-3.28-3.03-.19-6.1-.38-9.37,0-.15,1.28.41,3.73-.87,4.41-2.87,1.51-9.92.09-13.14.93-.36.72.16,2.33-1.14,2.53-1.47.23-2.94.11-4.26-.23.11-1.14.6-1.52.44-2.41-1.22-.11-2.79-.46-3.69.16-.37.56-.36,1.88-1.03,2.42-.41,0-1.34.69-1.5-.41-.34-2.29-.17-4.5-.35-6.63l-3.03-.36-.08-4.88c0-.44-.82-.33-1.04-.5-.06-.05-1.12-5.38-1.34-6.24-.18-.71-1.56-.86-1.17-2.3.22-.8.19-2.13-.48-2.54.98-3.23-.55-9.86-.53-13.22l13.58-.94c.6-.04.92-1.07,1.35-1.24,2.26.38,3.91-1.16,5.83-1.63,2.97-.72,5.97-.91,9.01-1.1,1.88-.12,3.4-.75,5.01-.94,3.67-.43.87-1.59,4.13-1.16Z"/>
              <path class="cls-12" d="M182.81,373.09c-.69,1.26-.19,2.56-.76,3.99l-19.08.4c.46-4.17-.88-3.23,1.07-5.2.28-.28-.54-1.03-.39-1.33.13-.27.77-.65.95-1.37-1.4-.3-1.92-1.1-2.37-2.25-.33-.84-2.83-.81-2.95-2.02s-.52-2.14-.82-3.07c-.34-1.05,1.53-.79,2.04-1.07.49-1.37.07-3.44.61-4.71.48-1.12,2.03.13,3.16-.76.51-.4.45-1.09.12-2,4.68-1.63,9.58-1.61,14.68-1.24l.39,3.54,4.81.05c.14,2.15.42,4.95-.38,6.83-1.49,0-5.33,2.8-5.78,4.78-.37,1.6-5.58-.08-6.41,1.64,2.18-.09,4.21.33,6.27-.15,1.25-.29,9.08-2.64,8.71-.36.03-.17-1.13,3.75-1.35,4-.34.39-.9.53-2.5.29Z"/>
            </g>
            <path class="cls-51" d="M143.72,347.66c.24.02.49.16.91.49,2.84-.66,5.61.11,8.15-.07-.02,3.36,1.51,10,.53,13.22l-18.61-.12c-.57-1.94-.07-3.47-.39-5.47-2.1.02-3.94-.27-5.7.02,0-.86-.32-2.77.62-3.06l1.61-.51c.44-.14-.35-1.82.25-3.9,1,.04,1.82-.49,2.73-.55l4.37-.27c.56-1.3-.42-2.72-.13-2.93,1.67-1.26-.09,1.74,1,2.74,1.57.55,3.21.29,4.66.41Z"/>
            <g>
              <path class="cls-105" d="M94.62,346.83l17.49,1.05c.8.05,1.19-.3,1.28-.77l6.18-.35c-.18.49.42,1.04,1.14,1.07l10.38.44c-.6,2.08.19,3.77-.25,3.9l-1.61.51c-.94.3-.61,2.2-.62,3.06l-.17,21.82-4.12.38c-.21,7.04-.75,1.53-1.06,6.77h-2.52c.26-1.15-.96-1.65-.99-2.7,1.04-.05,2.58.67,3.11-.42.61-1.27,1.44-3.23.21-3.85-.96-.48-2.53-.08-3.69-.12l-12.83-.45c.17-1.24-.07-2.5.31-4.07.93-.09,2.24.34,2.8-.36.41-.51.43-2.22-.16-2.7-1.72-1.4-12.04,1.05-15.97-2.79,2.29,2.24-6.86-3.42-6.5-3.55-.32.12-.59.39-1.45.16.41-.65.73-1.91-.12-2.23l.06-12.13c0-.67,0-1.2.38-1.63.18-.2.95-.06,1.12-.45.54-1.25.13-2.57.21-3.7,1.1.29,2.56-.48,3.82.29l.13,2.41c1.11.99,2.36.37,3.43.43Z"/>
              <path class="cls-12" d="M106.94,365.8c-.59,1.67-1.67,1.49-2.85,1.96-1.6.63-2.31.28-3.74-.35-1.23-.54-3.24.52-4.41-.1s-2.02-1.58-3.36-1.96c-.94-.27-1.11-1.64-1.81-2.2-.21-.17-.84.02-.97-.13-.86-.98-.43-8.75.03-10.42,1.08-.76,4.39-1.07,5.2-.01,1.03,1.34,2.07,1.84,4.02,2.4l5.86,1.68c.53.15,1.14,1.64,1.55,2.02.45.41-.39,2.11.49,2.22l3.08.4c.22,1.17.58,2.53-.3,3.45-.61.64-2.35.44-2.8,1.05Z"/>
            </g>
            <path class="cls-85" d="M94.13,413.05c.52-1.07.34-2.36.62-3.69,1.42-.22,2.38-.05,3.6-.01.39-1.19.27-2.22.26-3.35l3.38-.73.05-5.71c-.54-.12,4.92-3.6,2.3-3.39-.67-2.52-5.82-.22-9.44-1.48-.5-.43-.09-2.25.6-2.46.59-.18,1.47-.65,2.18-1.14.57-.03,1.96.44,2.26-.05.1-.16.65-.18.46-.63-.07-.17-.23-.39-.11-.77.95.35,1.32-.6,1.77-.67,1.37-.22,3.54.07,5.11.07-1.6,3.68,2.27,1.6,2.01,4.77-.04.52-.15,1.46-1.07,1.31-1-.16-1.5-.52-1.98,0-1.13,1.22,1.05,4.34,3.18,5.19,1.12,1.13.57,4.62-.29,5.92l-1.93,2.94c-2.23-.3-3.86.97-4.41,3.28-1.49.06-3.42.85-4.94.48s-2.4.13-3.6.13Z"/>
            <path class="cls-41" d="M112.5,382.08c-1.98-.08-4.04.15-6.2.21.21.92.3,1.52-.12,2.06-.24.31-.94.15-1.56-.06-.15-.28.52-.76.27-1.14-.69-1.03-10.44-.66-12.6-1.16,0-.63-.66-1.21-.31-2.21,3.89-.6,7.64.38,11.53.08,3.1-.23,6.03-.24,9.07.33.23.77-.36,1.32-.08,1.87Z"/>
            <path class="cls-19" d="M99.94,391.04c-.3.49-1.69.02-2.26.05.35-1.05-4.2-.79-2.66-1.95,1.45-1.09,4.62.88,4.92,1.9Z"/>
            <g>
              <path class="cls-93" d="M195.23,380.65s.33,1.86-2.62,2.03l-.42,15.74,3.52.3.08,3.58c1.23.35,2.35-.03,3.52.44.42.8-.05,1.97.6,2.59.69.66,1.89.12,2.61.92l.41,5.04-.25,5.52c-.01.32-.89.49-.92.71-.02.19.43.44.23.73-5.52,1.59-24.37.23-29.92.42-.55-1.5-.34-3.25-.52-5.05-1.02-.58-2.17-.02-3.44-.39l-.41-2.21c.44-4.58.3-9.24.1-14.08-.03-.76-.66-1.18-.83-1.81-.55-1.96.24-4.11-.42-5.85-.59-.08-1.46.07-1.82-.19-.82-.58.12-3.25-.64-3.56-.41-.17-1.29-.3-1.77-.31.67-.54.66-1.86,1.03-2.42.89-.62,2.47-.27,3.69-.16.15.89-.34,1.26-.44,2.41,1.32.34,2.79.46,4.26.23,1.3-.2.78-1.81,1.14-2.53,3.22-.84,10.27.58,13.14-.93,1.28-.67.73-3.13.87-4.41,3.27-.38,6.35-.19,9.37,0,.7.88.23,2.48-.15,3.28Z"/>
              <path class="cls-102" d="M196.37,406.68c.32,1.96.21,3.88.18,6.05l-16.68.07c-2.09,0-4.06.55-6.03-.38l-.12-5.04c-.03-1.39.39-2.58,1.77-3.19.48-4.62,2.44-.16,4.14-4.86,2.59-.22,5.25-.37,7.71.27-.02.44-.42.69-.52.88-.17.32.2.97.67,1.03l4.44.56c.38.05.09,1.06.45,1.16,1.88.48,2.11-.2,2.58.5.92,1.37-1.09,2.63,1.41,2.96Z"/>
              <path class="cls-80" d="M171.27,390.56c.27-.48.63-.78.5-1.37,2.09-.12,4.13-.71,6.23-.1-.51.57-1.5.48-1.25,1.52,1.46.11,4.64-3.59,6.02-1.61.22-.11.64-.38.98-.23.26.12.31.45.28.66-.14,1.09-.59.26-2.12,1.15-.41.24-.16,1.12-.54,1.41-.96.75-2.62.19-3.23,1.23-.33.56,0,1.46-.54,1.62-1.1.33-2.29.12-2.65.46-.72.66-.18,2.72-1.2,3.27-.63.34-2.24.19-1.92-.69.34-.94,1.83-1.21,2.06-2.11-1.11-.6-2.29-.14-3.11-.9.39-.6.94-1.03.9-1.35-.03-.23-.65-.61-.29-.92.55-.47,1.01-.76.92-1.35s-.45-.73-1.04-.7Z"/>
              <path class="cls-83" d="M171.78,389.19c.12.59-.24.89-.5,1.37-.52.02-.89-.55-.83-1.03.02-.22.26-.36.59-.59.18-.13.43.26.75.26Z"/>
            </g>
          </g>
          <path class="cls-70" d="M74.59,280.68l-2.49.45-.36,6.31-2.43.27-.47,7.58c-.53.73-2.32.34-3.24.41-2.16.17-.53-3.14-1.83-3.95-.39-.9.29-2.05-.04-3.13-.21-.71-.89-.58-1.31-.42-.62.23-.9.75-.97,1.53-.48.05-1.1-.02-.89.5-.58-.05-1.3.24-1.8-.12s-.67-1.14-.55-1.67l1.01-3.55c.36-1.25.23-2.37,1.75-2.73.05-1.18.16-2.25,0-3.24.57-.47,1.41-.9,2.29-.89.09-.78.22-1.3.15-1.78.83-.93,2.02.17,3,.37,3.26.68,6.33,1.5,8.17,4.06Z"/>
          <g>
            <path class="cls-33" d="M81,271.19l6.82,2.1.42,4.26c.64,6.45-1.08,3.3-1.75,8.85-.38.53-2.1.63-2.17,1.6l-.27,3.57c-.82.28-2.19-.08-2.96.76-.52.56.42,2.12-.56,2.58-.6.29-1.15.36-1.47.49-.48.19-.07,1.41-.45,1.55l-2.87,1.11c-.08.61.41,2.24-.31,2.48-1.31.44-1.88.56-2.12,1.7-.35,1.67,1.26,1.02,1.91,1.84.81,1.02.96,1.53,2.37,2.48l3.36,2.26c-1.05,1.12-.16,3.56-1,5.09-.69.76-1.57.91-2.55.78.44-3.41,2.46-2.29,2.12-3.82-.39-1.8-3.5.7-4.08-1.61-.1-.4.37-1.75-.19-2.03l-1.28-.63c-.56-1.72-2.23-2.3-3.31-3.39-4.62-4.69-9.38-9.07-14.36-13.45-1.45-1.27-2.88-2.39-3.77-3.96.65.3.37-2.68.72-1.35.25.3.01.69.32.89,1.07.7,2.25-.07,2.55.89s1.15,1.82,2.09,2.22c-.12.53.06,1.32.55,1.67s1.22.07,1.8.12c.53.04,1.17-.29,1.42.26l.47,1.09c.23.54.99.19,1.32.17,1.3.81-.33,4.12,1.83,3.95.92-.07,2.72.32,3.24-.41l.47-7.58,2.43-.27.36-6.31,2.49-.45c2.28-.42.2-4.45,1.43-6.57.54.04,1.98.43,2.12-.11l.73-2.88c.13-.5,1.63-.08,2.14.07Z"/>
            <g>
              <path class="cls-40" d="M76.38,288.98c-.38.35-.24,1.07-.79,1.25-.8-.21-1.45-.47-1.58-1.48-.07-.56-.16-1.45.78-1.96.31-.17,1.05.04,1.11-.32.2-1.27-1.19-4.12.51-3.72,1.39.33,5.75,2.49,4.99,5.06-3.03.22-4.15-1.52-5.13-.14-.26.36-.54,1.03.11,1.31Z"/>
              <path class="cls-108" d="M81.76,277.06c1.25,1.28,2.4,2.08,2.67,3.72l-1.78.45-2.6-3.1c-.56-.67-.56-1.76-.21-2.88.13-.43,3.9-.32,4.13.15.26.54.11,1.41-.71,1.27-.37-.06-.63-.3-.72-.48-.11-.21-1.29.36-.78.87Z"/>
              <path class="cls-62" d="M74.16,295.24c-.12.91.79,1.84,0,2.53-1.28,1.13-1.82-.08-4.1,1.25-.58-1.36-1.3-3-.04-3.91l4.13.12Z"/>
              <path class="cls-26" d="M74.16,295.24l-4.13-.12-.29-2.76c-.11-1.08,2.6-1.03,3.3-.47.93.73,1.25,2.25,1.11,3.35Z"/>
              <path class="cls-2" d="M84.02,283.78c.36,3.09-5.13-1.37-6.06-2.72l.86-1.79,4.56,3.67c.34.27.61.6.64.84Z"/>
              <path class="cls-8" d="M75.58,290.23c.55-.19.41-.91.79-1.25.9.36,2.1.04,3.08.6.61.35.86,2.2.3,2.52-1.15.67-2.55.25-3.55-.07-.16-.79-.33-1.29-.62-1.8Z"/>
            </g>
          </g>
          <path class="cls-72" d="M63.77,291.74c-.33.02-1.08.38-1.32-.17l-.47-1.09c-.24-.55-.88-.22-1.42-.26-.21-.53.4-.45.89-.5.07-.78.35-1.3.97-1.53.41-.16,1.1-.29,1.31.42.33,1.08-.36,2.23.04,3.13Z"/>
          <g>
            <path class="cls-9" d="M63.34,308.8c-1.15.04-.85,1.3-.99,2.37-.16,1.24-2.15.41-2.87,1-.42.35-.37,1.44-.41,1.95-.06.66-1.31.67-1.72,1.17-.7.85,0,2.19-.57,3.21l-3.37.4c-.53,1-.15,2.15-.51,3.21-.83.43-2.16-.1-2.84.61s.03,2.09-.51,2.96c-1.23.24-2.34.17-3.37.29-.34.04-.46.13-.37.48.17.66-.14,1.37,0,2.27l-1.61.77c-.23.75.14,1.95-.61,2.54-.83.64-2.11.03-3.06.5-.44,1.22-.35,2.39-.49,3.59-.97.55-2.22,0-3.08.61-.76.53-.41,1.93-.49,3.01-1.11.65-2.34.25-3.65.51-.48.91-.2,1.94-.59,2.88-.3.73-1.81.25-2.15.63.57.83-2.63,4.21-3.62,4.01-.28.21.13,1.21.02,1.48-.24.58-1.74.62-2.39,1.06-.72.49-.1,2.14-.32,2.47-.62.95-1.99-.02-2.76.75-.24.24.11.91-.21,1.3-.59.73-1.77.18-2.55.74-.28.79.43,2.36-.37,3.03-.84.7-2.3.04-3.22.51-.3.81.36,2.18-.4,2.78-.82.64-2.07.13-3.11.56l-.26,3.36-9.88.53c-.43.02-.73-.1-.92-.36-.26-.36.15-.66.39-.74,1.44.31,1.84-1.58,2.74-2.18,2.46-1.64,5.03-6.14,6.9-8.29l5.98-6.87c1.19-1.37,2.36-2.82,3.41-4.05l2.99-3.51c1-1.17,1.8-2.23,2.73-3.23,1.36-1.47,2.75-2.31,3.66-4.16.38-.77,2.16-1.12,2.55-2.26.63-1.87,2.37-2.73,3.62-4l4.16-4.22,5.03-5.52c.69-.76.62-1.95,1.76-2.39.96-.37,1.17-1.37,1.67-2.12,1.9-2.8,4.53-4.98,6.62-7.7.56-.82.26-2.15.54-3.12-.75-.22-1.68-.48-2.37-.43-1.02,1.22-2.34,1.58-3.7,1.23-.29-.69-.53-2.28.21-2.9s2.1.21,2.73-.42c.7-.7.38-1.78.7-2.5.22.09.49,0,.55.29.05.25-.15.74.06,1.01.65.82,3.94-.19,3.29-.13.94-.09,3.44,4.36,2.46,3.4,5.09,4.99,1.87,1.37,4.56,7.65Z"/>
            <path class="cls-43" d="M3.22,363.04c-.73.37.34-7.63.8-8.78.5-1.27,2.42-.84,3.18-1.28.95-.98.41-2.77.6-3.94.05-.42.45-.72.82-.85.68-.12,1.95.19,2.52-.28.45-.38,1.02-3.66.33-4.63.39-.04.76,0,.9-.49.5.67,2.62.76,2.99-.03.45-.98-.33-2.4.52-2.84,1-.51,2.12.03,2.93-.45.37-.85-.25-2.19.39-2.99.82-1.02,2.53-.27,3.7-.65l.27-3.77c.89-.14,2.32,0,2.34-.99.02-1.15.63-2.3-.15-2.82-.05-.39.22-.5.57-.44.83.13,2.19.29,2.97-.37.38-.69.21-2.02.27-2.81-.05-.26.2-.38.44-.47.87-.17,1.98.4,3-.22.69-.42.73-2.44.06-2.93-.18-.37.22-.54.49-.44.96.14,1.92.02,3.04-.09.14-1.03.25-1.83.13-2.61-.02-.52.55-.72.69-1s-.34-.85-.02-1.3c1.07-1.51,2.82-2.08,3.7-3.64.53-.93-.07-2.44,1.03-3.08.23-.13.86.11.82-.23-.04-.42,1.2-2.99,2.63-2.94.05.86,1.43,1.14,2.59.72.92-.33,1.02-2.46.57-3.35-.25-.35-.07-1.13.45-.65,1.36.35,2.68,0,3.7-1.23.69-.05,1.62.2,2.37.43-.28.97.02,2.3-.54,3.12-2.09,2.72-4.72,4.9-6.62,7.7-.51.75-.71,1.75-1.67,2.12-1.13.44-1.06,1.62-1.76,2.39l-5.03,5.52-4.16,4.22c-1.25,1.27-2.99,2.13-3.62,4-.38,1.14-2.17,1.49-2.55,2.26-.91,1.85-2.31,2.69-3.66,4.16-.92,1-1.73,2.06-2.73,3.23l-2.99,3.51c-1.05,1.23-2.22,2.68-3.41,4.05l-5.98,6.87c-1.88,2.15-4.44,6.65-6.9,8.29Z"/>
            <path class="cls-22" d="M53.25,284.44c-.35-1.34-.08,1.65-.72,1.35-4.79-1.07-.7-4.43-4.98-4.11.21-.6-.15-1.34-.13-2.2-.76-.51-2.96-.71-3.25.29-.26.93-.27,1.68-.57,2.22s-1.12.21-1.59.6c-.5.42-.58,2.42.06,2.58,1.57.39,2.91.22,4.13.24.12.71.76.32,1,.49.3.21.21,1.1.39,1.26l12.15,11.08,5.59,4.94c2.79,2.47,5.25,5.07,8.35,7.11.38.25,1.76-.81,1.85.02-.45-4.17.26,7.28-.52,4.08.82.75,1.63.2,2.38.3.98.13,1.86-.02,2.55-.78-.24.43-.03,1.19-.74,1.33-2.15,1.44-4.32.57-6.43-.4-1.72-.79-2.01-1.1-2.85-2.77-.4-.8-2.1-1.45-2.78-2.57-.74-1.22-2.85-.6-3.8-.69-2.68-6.28.53-2.66-4.56-7.65.98.96-1.52-3.48-2.46-3.4.65-.06-2.64.95-3.29.13-.21-.27-.02-.76-.06-1.01-.06-.29-.33-.2-.55-.29-.77-.33-1.48-.87-1.66-1.83l-1.86-.23c-1.19-1.36-1.47-3.06-1.53-4.83l-3.06-.21c-.31-1.8-2.43-1.93-3.37-2.61-.67-1.97-.35-5.01.05-7.06,1.04.08,1.84-1.06,2.45-1.25,1.7-.54,5.04-.59,6.32.72.69.77.1,2.1.86,2.34l2.23.7c.65.2.27,1.6.4,2.11Z"/>
            <path class="cls-35" d="M12.37,342.81c.1-.36.57-.69.27-1.1-.29-1.52,2.03-1.71,2.7-2.79.95-1.52,1.31-3.51,4-3.08-.37-2.52.83-3.79,3.01-3.87-.29-2.23,1.2-3.8,2.99-3.7.78.52.16,1.67.15,2.82-.01.99-1.45.85-2.34.99l-.27,3.77c-1.17.38-2.88-.37-3.7.65-.64.8-.02,2.14-.39,2.99-.81.48-1.94-.06-2.93.45-.84.44-.07,1.86-.52,2.84-.36.8-2.48.7-2.99.03Z"/>
            <path class="cls-21" d="M3.22,363.04c-.9.6-1.3,2.5-2.74,2.18-.3-1.13.05-2.28.11-3.63l.27-6.24c.08-1.86,1.88-2,3.25-2.37.45-.7.18-2.2.89-2.95.65-.68,1.73-.99,2.8-1-.2,1.17.35,2.96-.6,3.94-.76.44-2.68.01-3.18,1.28-.45,1.15-1.52,9.15-.8,8.78Z"/>
            <path class="cls-84" d="M8.62,348.2c-.14-2.2.48-4.67,2.85-4.9.69.96.12,4.25-.33,4.63-.56.47-1.84.16-2.52.28Z"/>
            <path class="cls-18" d="M45.15,305.68c.53-.69.54-2.53,1.89-2.62.29-.02.72.44,1.01.28.13-.07-.05-.16.26-.29.45.89.35,3.02-.57,3.35-1.17.43-2.54.15-2.59-.72Z"/>
            <path class="cls-29" d="M29.58,324.18c.68-.67-.29-1.88.75-2.76.71-.6,1.77.36,2.31-.39.67.49.63,2.52-.06,2.93-1.02.62-2.14.04-3,.22Z"/>
            <path class="cls-116" d="M25.91,327.82c1.34-2.05-1.18-.12.66-2.63.38-.51,1.36-.38,1.82-.09.3-.49.46-.66.76-.46-.05.8.11,2.13-.27,2.81-.78.65-2.14.5-2.97.37Z"/>
            <path class="cls-95" d="M36.31,317.88c.12.79,0,1.58-.13,2.61-1.12.12-2.08.24-3.04.09.84-1.07.1-1.7.15-1.77.82-1.2,2.04-1.52,3.02-.93Z"/>
            <path class="cls-107" d="M12.64,341.71c.3.41-.17.73-.27,1.1-.14.48-.51.45-.9.49-.3-.41-.07-.95.36-1.26.2-.14.43-.59.81-.33Z"/>
            <path class="cls-107" d="M45.8,326.44c-.09-.35.03-.44.37-.48.06.26-.06.54-.37.48Z"/>
            <path class="cls-53" d="M52.52,285.78c.89,1.56,2.32,2.68,3.77,3.96,4.98,4.38,9.74,8.76,14.36,13.45,1.07,1.09,2.75,1.68,3.31,3.39l1.28.63c.57.28.09,1.63.19,2.03.59,2.31,3.69-.18,4.08,1.61.33,1.54-1.68.41-2.12,3.82-.76-.1-1.56.45-2.38-.3.77,3.2.07-8.25.52-4.08-.09-.84-1.47.23-1.85-.02-3.1-2.04-5.56-4.65-8.35-7.11l-5.59-4.94-12.15-11.08c-.18-.16-.08-1.06-.39-1.26-.24-.17-.89.22-1-.49.36-.05.82-.08.98-.48.34-.84-.22-1.61.36-3.25,4.28-.32.19,3.04,4.98,4.11Z"/>
            <path class="cls-118" d="M47.54,281.67c-.58,1.64-.02,2.41-.36,3.25-.16.4-.63.43-.98.48-1.22-.02-2.56.16-4.13-.24-.63-.16-.56-2.16-.06-2.58.47-.39,1.27-.03,1.59-.6s.3-1.29.57-2.22c.28-.99,2.49-.8,3.25-.29-.02.86.34,1.6.13,2.2Z"/>
          </g>
          <path class="cls-67" d="M137.7,287.5c-.02,1.53.16,3.05.23,4.57s.73,13.15.98,13.92c.8,2.48.2,5.12.84,7.65.3.19,1.69.09,1.79.63.84,4.45.12,8.85,1.2,13.26l1.18,18.31c.05.73,0,1.34-.21,1.81-1.45-.11-3.09.14-4.66-.41-1.09-1.01.67-4.01-1-2.74-.28.21.7,1.64.13,2.93l-4.37.27.37-36.14.32-16.3c.8-1.2.28-2.47.49-3.55.27-1.38.42-2.76.54-4.16.56.15,1.57,0,2.15-.05Z"/>
          <path class="cls-104" d="M135.55,287.55c-.12,1.4-.27,2.79-.54,4.16-1.77-.11-3.55-.39-5.51.07-.17,1.22-.3,2.3-.32,3.52l-.37,20.73c-.01.58-1.4-.06-1.6-.38s.1-1.37-.27-1.51c-1.77-.65-3.88.09-5.59-.29l.25-5.49c.03-.56.11-.97.43-1.18.19-.12.51-.13,1.12-.24l.25-19.81c4.05.13,8.27-.59,12.14.42Z"/>
          <path class="cls-10" d="M121.07,270.36c0,1.31.26,2.63-.4,4l-22.54-.02c-1.17,0-2.2.14-3.07-.3.15-1.09-.34-2.94.04-3.97,4.12.51,23.91-.42,25.97.29Z"/>
          <path class="cls-47" d="M98.53,284.02c-.21.06-.34.09-.46-.14-1.9-5.71,7.1-.99,8.88-3.19.25-.31-.14-1.44.24-1.54,1.48-.39,3.25.18,4.6-.36.27-.99.05-1.84.53-2.47,1.11.72,1.69.2,2.64.23.25,1-.06,1.82.59,2.43.74-.26,1.22-.02,1.69.13.29.09-.03.91.39,1.13.82.42,1.67.24,2.56.17l.44,2.23c-.86-.4-1.23.77-1.64.79-6.14.29-16.2-.67-20.46.6Z"/>
          <path class="cls-3" d="M121.62,287.13l-1.24,7.38c-.29,1.7.2,3.5-.32,5.07-.3.91-.24,1.66-.3,2.47-1.43-.89.74-8.45.04-9.99-2.35-.54-4.85-.54-7.17-.34-2.14.19-2.7-.68-4.13-1.73-.79-.58-3.5.12-3-1.96.13-.53,1.11-1.07.75-1.66,5.13.07,10.32.07,15.37.76Z"/>
          <path class="cls-14" d="M167.33,274.01c-.06-1.28-.2-2.52,0-3.8l15.22-.11c.03,1.26.22,2.74.01,3.77-5.19.68-10.31,0-15.23.13Z"/>
          <path class="cls-20" d="M225.91,274.39c.63.02,1.38.24,1.16,1.09s.15,1.83-.65,2.23c-.27.73-2.44-1.84-1.68-2.79.26-.33.66-.66,1.17-.53Z"/>
        </g>
        <g>
          <path class="cls-117" d="M188.59,186.43c-3.57,1.42-7.65.64-12.04.97-.72.78-.18,2.1-.71,3.14-1.53.43-2.93-.38-4.14.35-.71-.09-2.19-.44-2.85.2-.71.69-.02,1.96-.33,2.93-1.65.58-3.18.17-4.91.53-.48.84.15,2.34-.68,2.88-5.7,3.69-16.67,2.88-17.76,3.02l.39-4.25c6.5-.44,8.63-.51,15.04-1.97.08-1.23,0-2.11.38-3.26,7.16-.29,5.26-1.38,6.1-2.04,1.97-1.55,6.35-.33,6.15-4.69l7.92-.69c.83-.58.81-3.2-.05-3.88-3.27-.4-7.25.69-10.42,1.24-.11.63-.04,1.17-.35,1.48-.24.24-.66.41-1.31.47l-15.76,1.43c-.18.77-.05,1.58-.46,1.96-.28.25-.94.32-1.49.37l-6.08.59c-4.58,3.96-5.39,2.85-11.17,3.58-.38-.86-.61-2.61.23-3.02,1.62-.79,3.85-.28,5.16-1.67.61-.65.63-1.53,1.95-1.75l5.53-.95c2.35-.4,5.43.39,7.61-.74.55-4.54,7.9-2.52,12.15-3.54.54-.97.32-1.99.9-2.74,9.13-.97,8.15-3.42,14.46-4.02.34-1.16,1.3-1.7,2.13-2.19,4.88-2.89,1.93.26,6.78-2.54-.51-1.54,3.97-3.03,4.47-3.43s.2-1.52.64-1.77c.85-.48,2.19-.25,2.84-1.01.4-.47.18-1.99.78-2.44,1.29-.97,1.58-1.99,1.74-3.43.17-.44,1.65-.35,1.69-.79.46-5.39.83-2.27.99-3.67l.66-5.72c.57-.56,1.43-.46,2.14-1.01l.27-11.82v-17.52c-1.19-.49-2.26.1-3.04-.61l-.68-26.9c-.04-1.46-1.39-2.84-.57-4.64-1.09-.66-1.78-.4-2.74-.84l-.16-10.96c-1.36.01-3.49.2-3.57-.81l-.43-5.5c-1.04-.21-2,.03-2.99-.33l-.13-3.85-3.76-.36c-.31-.86-.15-1.58-.27-2.55l-5.89-1.25c-.67-.14-1.05-1.27-.85-2.02l5.34-.06c2.78-.03.1-2.9,2.8-4.15.25-.85-.17-1.85.23-2.65,4.17.37,1.7-12.75,3.12-13.82.3-.23,1.22-.22,1.64-.49.53-2.48.35-5.53.33-8.17-1.41-.32-2.12.05-3.01-.31-.19-1.1-.15-2.04-.53-3.09l-5.72-.98c-.26-1.26.01-2.27-.12-3.53-1.21-.41-2.35-.2-3.5-.3l-.66-3.69c-.21-1.17-2.97-.06-3.76-.75-.45-2.96-4.56-1.16-4.72-2.45l-.47-3.73-4.94-.5c-.59-.06-.93-.92-1.81-.95l-9.38-.3c-.34-1.65-.31-2.95-.15-4.23,1.22.02,2.15.22,3.69.26l6.39.18c1.5.04,1.12,2.47,1.73,3.22,3.92,1.78-1.06.36,3.89,1.09,1.47.22,2.81.24,4.31,1,3.16,1.61,3.39.49,5,1.71.73.55.58,1.79.85,2.74,2.78.71,5.88,1.56,8.59,2.93.35,1.22.27,2.21.83,3.4,1.36.04,3.04.2,3.86,1.71.23.42-.35,1.26.06,1.62.33.29.63,1.13,1.36,1.04,1.97-.25,2.05,2.02,2.91,2.52,1.66.97,3.3,1.72,3.07,4.36-.01.17.47.42.5.58.06.44.59-.1.93-.05,1.62.24,2.13,2.05,2,3.55,4.83.53,2.21,4.24,4.76,7.46,3,3.78.47,2.89,2.44,9.69.46,1.59,1.23,3.31.93,4.82-.66,3.29,3.11,1.41,3.38,10.48.04,1.37.43,3.53.11,4.92-.11.46.64,1.11.71,1.8.32,3-.78,5.95.04,8.53,1.07,3.34-.17,8.18.37,9.73,1.62,4.63-.91,5.4.56,6.27,1.02,2.54.28,5.56.5,7.87l.52,5.38c.16,1.68.73,10.27.8,10.49.9,2.6.33,5.17.86,7.83.75,3.82.06,7.94.57,12.65.55,5.15.3,10.49.01,15.76-.09,1.62-3.34,1.13-3.92,1.96-.5.72-.6,2.21-.89,3.03-.49,1.38-2.11,1.75-3.44,1.4-.28.72-.53.72-.69.82-.44.26.13.96-.04,1.31-.95,2.04-3.53,2.68-4.97,3.97l-3.24,2.9c-1.14,1.02-1.8,2.94-3.24,3.48l-3.73,1.38c-.46.17.44,1.74-.4,2.37-.45.34-1.12.67-2.12.88l-3.92.82c-.09,1.3-.69,2.11-1.28,2.77-.86.95-1.93.97-2.83.52.33,1.52.2,2.31,0,3.06Z"/>
          <path class="cls-54" d="M75.9,32.83c-.47.28-1.25.08-1.78.88-.41-.24-.68-.99-.68-1.31.02-1.18,1.6-4.2,3.89-4.48.63-3.23.96-1.89,3.38-4.02.39-1.65,1.99-2.8,3.85-2.79l.22,6.1c-1.91,1.14-4.22.16-6.2,1.1-.9.43-.24,1.94-.5,2.75-.28.87-1.54,1.37-2.19,1.76Z"/>
          <path class="cls-45" d="M98.9,9.78l-.28,2.77-3.54.07c-.61,1.47-.31,2.7-.16,3.98-1.64.96-3.8.29-5.69.6-1.51.24-.38,2.35-.91,3.08-.77,1.07-2.72.84-3.74.83-.03-.87.38-2.69,1.47-3.01,3.04-.88,2.66-1.69,3.58-4.24.1-.28,5.1-1.99,5.09-1.98,1.22-1.23,2.38-2.17,4.19-2.1Z"/>
          <path class="cls-101" d="M98.49,187.36c-1,.42-2.19-.39-3.09.38-1.56-.88-3.6.15-5.31-.64-.99-.45-.56-2.44-.22-3.23,2.7-.48,5.53-.15,8.49-.09.59,1.44.09,2.5.13,3.57Z"/>
          <path class="cls-68" d="M98.49,187.36c.43.67.32,1.45.49,2.21-.69.07-.1.95-.73,1.13-.92.2-1.93-.1-2.85.18.22-.98-.48-2.16,0-3.15.9-.76,2.09.04,3.09-.38Z"/>
          <path class="cls-110" d="M75.9,32.83c.66-.39,1.91-.89,2.19-1.76.26-.81-.4-2.32.5-2.75,1.98-.94,4.28.04,6.2-1.1l-.22-6.1c1.02,0,2.98.23,3.74-.83.52-.73-.6-2.84.91-3.08,1.89-.31,4.06.36,5.69-.6.89-.52,2.69.48,3.78-.64.73-.86-.16-2.57-.07-3.42l.28-2.77c2.05.08,4.05.19,6.52.51.14,1.97.21,3.77-.07,5.61l-6.32.32c-.15,2.71.35,5.29-.58,7.89-2.89-.46-4.72,1.05-4.99,3.48l-6.05.34-.62,4.06-6.99.72c-.48,1.04.28,2.52-.57,3.43-.55.59-2.81.66-2.91-.15-.15-1.19,0-2.2-.41-3.16Z"/>
          <path class="cls-99" d="M98.25,190.7c.63-.18.04-1.06.73-1.13-.61.87,4.96,1.57,6.24,2.44.24.63.55,1.52.43,2.28-5.04.88-2.24-1.26-6.81-2.36-.34-.08.23-1.41-.59-1.23Z"/>
          <path class="cls-111" d="M98.62,12.55c-.09.85.81,2.56.07,3.42-1.09,1.12-2.89.12-3.78.64-.15-1.28-.45-2.52.16-3.98l3.54-.07Z"/>
          <g>
            <path class="cls-45" d="M156.79.21c-.16,1.28-.19,2.58.15,4.23l9.38.3c.88.03,1.22.89,1.81.95l4.94.5.47,3.73c.16,1.29,4.27-.51,4.72,2.45.79.68,3.55-.43,3.76.75l.66,3.69c1.16.1,2.3-.11,3.5.3.13,1.26-.15,2.26.12,3.53l5.72.98c.38,1.05.34,1.99.53,3.09.89.36,1.6,0,3.01.31.02,2.64.2,5.69-.33,8.17-.43.27-1.35.26-1.64.49-1.42,1.08,1.05,14.19-3.12,13.82-.4.8.02,1.8-.23,2.65-2.7,1.25-.01,4.12-2.8,4.15l-5.34.06c-.19.76.18,1.88.85,2.02l5.89,1.25c.11.97-.04,1.69.27,2.55l3.76.36.13,3.85c.98.36,1.95.11,2.99.33l.43,5.5c.08,1.01,2.21.83,3.57.81l.16,10.96c.96.45,1.66.19,2.74.84-.82,1.81.54,3.19.57,4.64l.68,26.9c.78.72,1.86.12,3.04.61v17.52s-.27,11.82-.27,11.82c-.71.55-1.57.45-2.14,1.01l-.66,5.72c-.16,1.41-.52-1.71-.99,3.67-.04.44-1.52.35-1.69.79-.16,1.45-.46,2.47-1.74,3.43-.61.46-.38,1.98-.78,2.44-.65.76-2,.53-2.84,1.01-.43.25-.16,1.38-.64,1.77s-4.98,1.89-4.47,3.43c-4.85,2.81-1.9-.35-6.78,2.54-.83.49-1.79,1.03-2.13,2.19-6.31.6-5.33,3.05-14.46,4.02-.58.75-.37,1.77-.9,2.74-4.24,1.02-11.6-1-12.15,3.54-2.18,1.13-5.26.33-7.61.74l-5.53.95c-1.31.23-1.34,1.1-1.95,1.75-1.31,1.4-3.55.88-5.16,1.67-.85.41-.62,2.16-.23,3.02,5.77-.73,6.59.38,11.17-3.58l6.08-.59c.55-.05,1.21-.12,1.49-.37.41-.38.29-1.19.46-1.96l15.76-1.43c.65-.06,1.07-.23,1.31-.47.31-.31.24-.86.35-1.48,3.17-.54,7.15-1.64,10.42-1.24.87.68.89,3.3.05,3.88l-7.92.69c.2,4.35-4.18,3.13-6.15,4.69-.84.66,1.06,1.74-6.1,2.04-.38,1.14-.3,2.02-.38,3.26-6.41,1.46-8.53,1.54-15.04,1.97l-.39,4.25-6.52.88-13.43-.1c-.67,0-1.29,0-1.56-.4-.45-.67.56-4.36-1.09-3.67-1.74.73-1.94-.73-2.76-1.21-1.54-.89-3.36-.48-4.97-1.2-.83-3.81.09-5.15-1.38-7.89-.34-.63-.05-1.82-.65-2.28-1.61-1.24-5.73-.27-7.14-1.23-.48-.63-.52-1.84-1.23-2.23s-1.86-.08-2.36-.45c-3.83-2.87-4.32.36-5.96-3.52-.45-.07-8.4-2.07-8.46-2.12l-3.5-2.98c-.87-.74-2.43-.18-3.63-.73.02-1.49.14-3.32-.85-4.46-.79-.44-2.18.36-2.68-.32-.34-.46.11-1.51-.31-1.7-1.71-.41-3.48.06-5.29-.59-.68-.25-.21-1.42-.64-1.89-1.02-.1-1.54-.28-1.99-.68-.58-.51-.63-2.12-.61-2.81-1.04-.68-2.26-.13-3.41-.67-.02-.35-.15-.81-.31-.68s-.85.56-1.18.23c-.74-.89-.12-1.95-.44-2.96-1.28-.25-2.28-.06-3.29-.03-2.1-2.33,1.31-.69-1.34-3.87-5.58,1.77-2.32-11.11-2.84-18.65-.21-2.99.23-5.72.27-8.66l.3-20.28c.02-1.44.52-2.56.47-4.09-.27-7.24-.44-14.38.06-21.6-.05.77.51-12.7.67-9.96-.48-7.97,2.73-8.74,2.89-16.81.03-1.3,2.29-1.64,3.32-1.65.97-3.84.37-5.84.52-6.82.28-1.86,2.08-1.58,2.99-2.5.83-.84,2.14-2.49,2.61-3.46.77-1.93,1.63-3.89,3.99-4.03,0,.32.27,1.07.68,1.31.53-.8,1.31-.61,1.78-.88.41.96.26,1.97.41,3.16.1.82,2.36.75,2.91.15.84-.91.08-2.39.57-3.43l6.99-.72.62-4.06,6.05-.34c.28-2.44,2.1-3.94,4.99-3.48.94-2.6.43-5.18.58-7.89l6.32-.32c.28-1.84.22-3.65.07-5.61-2.46-.32-4.46-.43-6.52-.51.26-2.59,1.97-2.11,4.76-4.03.78-.53,5.58-.4,6.16-1.82.29-.7.26-2.69,1.37-2.76,1.37-.08,2.79-.65,4.04-.64,4.26.04,8.14.01,12.38-.23,9.74-.55,19.5-.23,29.16-.1Z"/>
            <g>
              <path class="cls-11" d="M139.67,175.65c-.74.85-2.13.77-3.27,1.21-.66.54-.33,1.81-1.11,2.11-.65.14-1.23.12-1.53.5-.18.23.07,1.11-.32,1.21l-4.26,1.06c-2.58.64-5.03,1.53-7.56.47-.42-.18-1.37.24-1.41-.44-.02-.29-.07-.68.33-.81.63.63,2.1.39,3.01,1.58.94-2.24-.26-6.09,1.11-6.56,4.07.8,10.15-.53,15.02-.3Z"/>
              <path class="cls-5" d="M194.33,108.74c-2.03-1,.61-1.08-2.8-4.91-.68-.76-.31-2.31-.46-3.16-.05-.3-.22-.63-.05-.93.45-.84,2.74-.79,3.23.06-.07,2.87.57,6.24.08,8.94Z"/>
              <path class="cls-81" d="M67.85,52.86c-.71.83-3,.85-3.87.14-.68-.56-.88-2.82-.2-3.25,1.19-.76,3.48-.77,4.28-.03.44.59.36,2.47-.2,3.13Z"/>
              <path class="cls-50" d="M80.11,156.09l-4.17-.38c-.24-1.63.19-3.03.11-4.41,1.28-.27,2.13-.15,2.85,1.17.35.64,1.35.48,1.39,1.39.03.66-.07,1.66-.18,2.24Z"/>
              <g>
                <path class="cls-97" d="M81.32,91.51l.29,7.71.11,43.34c0,1.2.89,1.49,1.01,2.26l.98,6.18,3.15.21.45,4c1.07.21,1.97-.02,3.28,0l.33,3.64h3.63c.6,1.31-.08,2.69.39,4.1l10.38.45.21,4.58,19.15.1c-.19,2.58-.28,5.32-.02,7.86-1.37.47-.17,4.32-1.11,6.56-.91-1.19-2.38-.95-3.01-1.58-.75-.75-2.12-.31-3-.9-1.29-.86-1.73-2.58-4.08-1.57-.32-1.27-.04-2.18-.47-3.11l-6.27-.66-1.02-1.25c-.79-.97-3.77.65-4.99-.4-1.26-2.69-5.82-.58-5.79-2.4l.05-2.78-6.98-.48c.03-1.63.45-2.67.19-3.76-1.23-.3-2.41.14-3.56-.27-.36-1.34,0-2.49-.15-3.75l-3.67-.11c-.35-1.19-.22-2.48-.69-3.4.1-.58.21-1.58.18-2.24-.04-.9-1.04-.75-1.39-1.39-.72-1.32-1.56-1.43-2.85-1.17-1.06-18.16-3.7-37.29-.44-55.06l.37-2.02c1.02.23,2.3.52,3.43-.17.49-.85.32-2.28,1.01-2.73.25-.16.45-.03.89.18Z"/>
                <path class="cls-90" d="M191.07,100.67c.14.85-.22,2.4.46,3.16,3.41,3.84.77,3.91,2.8,4.91.66,3.51.31,4.81.67,9.07.6,7.16-.04,14.17.19,21.08l-4.63.1-.29,11.97-2.94.11c-.21.91-.3,2.44-.29,3.22-1.58.1-3.08.31-5.01.08-.39-.85-.25-2.42.56-3.21l2.41-.36c.41-1.63.59-3.16.61-4.71l.19-13.42c.01-.88.66-1.27,1.08-1.72.37-.4,1.72.3,2-.09,1.05-2.04.79-4.9.67-7.17-.14-2.68.15-4.96.27-7.27.26-4.88.16-9.76.16-14.89,0-.54.05-.99.51-.97.17,0,.31.31.59.13Z"/>
                <path class="cls-103" d="M149.16,76.53l17.13.3c2.84.05.12,4.97,2.71,5.09l4.55.22c.74,1.14,1.27,3.87-.04,4.51-1.54.75-3.75,1-4.97.09s-.32-3.16-1.11-3.91c-1.08-1.03-3.11-.43-4.41-.5-6.91-.36-13.71-.59-20.73-.5-3.07.04-6.23.02-9.22-.32-.24-.38.01-.99.09-1.25.38-1.4,1.93-2.2,2.56-3.59.15-.03.32-.2.47-.18,4.3.46,8.66-.04,12.99.03Z"/>
                <path class="cls-15" d="M152.39,168.07c-.1,1.39.43,3.09-.44,4.45-.44.63-1.63.18-2.37.65-.11.65.13,1.29-.05,1.87-3.29.2-6.56.77-9.86.62-4.87-.22-10.95,1.1-15.02.3-.26-2.54-.17-5.28.02-7.86,9.23.05,18.47-.2,27.71-.02Z"/>
                <path class="cls-52" d="M118.85,75.81c.98,1.47,14.27-.15,16.85.87-.63,1.39-2.18,2.19-2.56,3.59-1.1.07-2.66.29-3.01,1.74-2.02.29-4.05.11-5.88.52-1.05.24-2.64-.12-3.84-.14l-10.19-.21c-.82-.02-.22-1.43-.4-1.88-1.78-.91-3.91.47-5.53,1.27-2.95,1.46-6.37.04-9.36.59.27-1.31,3.66.26,6.76-1.94s8.27-1.55,9-3.97l8.15-.44Z"/>
                <path class="cls-60" d="M195.19,138.89c.13,4.03.81,8.18.28,12.58l-3.12.41c-.36,1.36.12,2.83-.51,4.11-.3.44-1.54.21-1.57.88l-.09,2.03-4.11.69c-.16,1.28.29,2.92-.48,3.69l-3.96.56c-.44.06-1.41.2-1.85.17-1.11-.1-1.76-.48-2.08-1.1-.09-1.16-.11-2.43.09-3.83l4.31-.35c.32-1.14-.04-2.31.43-3.47,1.87-.23,4.54.65,4.52-.96-.01-.78.08-2.31.29-3.22l2.94-.11.29-11.97,4.63-.1Z"/>
                <path class="cls-87" d="M185.78,94.71c.17,0,.37.11.51.09.27,1.26.76,2.47.36,3.93,1.21.45,2.22.41,3.24.44l1.14.56c-.18.3,0,.63.05.93-.28.18-.42-.12-.59-.13-.46-.02-.51.43-.51.97,0,5.13.1,10.02-.16,14.89-.28.03-.53-.05-.72.02-.35.13.13.71,0,.91-.76,1.13-1.82.64-2.65.31-.98-.39-1.04-.89-1.3-2.22-.14-.75-1.63-.58-2.15-.82-.25.46.06-4.43-.84-4.98l-.13-10.4c.88-1.34-1.93-1.87-.19-4.94,1.18.7,2.64.36,3.96.43Z"/>
                <path class="cls-76" d="M110.7,76.24c-.73,2.42-5.84,1.73-9,3.97s-6.5.63-6.76,1.94c-.62.34-.66,1.43-.93,2.15-.34.9-1.8.62-2.58.65s-.87,1.45-1.37,1.52c-1.62.24-3.5-.14-4.69.91-.36.87.35,2.07-.07,2.68-.86,1.25-3.78-.67-3.98,1.44-.44-.21-.64-.35-.89-.18-.69.45-.52,1.87-1.01,2.73-1.13.68-2.41.39-3.43.17.15-.8-.61-2.62.2-3.31,1.09-.88,2.8-.07,4.01-.54.26-1.25-.13-2.5.38-3.7,1.32-.34,3.01.3,4.11-.48.9-.63.2-2.41.53-3.54,2.01-.26,3.96.23,5.77-.49.27-1.13-.21-2.24.28-3.19s2.18.58,3.41-.51c.2-.18.18-.96.42-1.31,5.29-.52,10.49-.64,15.6-.91Z"/>
                <path class="cls-6" d="M170.88,168.64c0,.72-.03,1.31-.5,1.78.2-.2-7.87,2.08-9.25,1.7-.33.72.12,2.34-.78,2.46-3.72.49-7.3.24-10.82.45.18-.58-.06-1.21.05-1.87.73-.47,1.93-.02,2.37-.65.88-1.36.34-3.05.44-4.45,5.23.1,10.64-.02,15.74-.62.38,1.47,2.08.2,2.76,1.19Z"/>
                <path class="cls-61" d="M137.5,71.89c.2,1.68-.6,3.14-1.33,4.61-.15-.02-.32.15-.47.18-2.57-1.03-15.87.59-16.85-.87l.95-3.78c1.58.76,2.97.18,4.5-.01,4.54-.58,8.9.08,13.19-.12Z"/>
                <path class="cls-30" d="M177.69,162.91c.32.61.97,1,2.08,1.1.44.04,1.41-.11,1.85-.17-.67,1.08-.32,2.57-1.18,3.67-3.4.49-6.58.25-9.55,1.13-.67-.99-2.38.28-2.76-1.19l-.27-3.94,9.84-.6Z"/>
                <path class="cls-57" d="M149.16,76.53c-4.33-.08-8.69.43-12.99-.03.72-1.47,1.53-2.93,1.33-4.61,3.65-.17,7.28.04,11.38.07.18,1.68-.09,3.16.29,4.58Z"/>
                <path class="cls-73" d="M189.74,95.15c-1.16-.11-2.28-.46-3.45-.34-.14.01-.34-.08-.51-.09.05-1.11.53-3.07-.62-3.85-.96-.65-2.48.26-3.4.33-.31-.08-.17-.17-.15-.38.16-1.41.19-2.85.09-4.27,1.36-.33,2.9-.37,4.3.09.41,1.08-.53,3.11.37,3.41l3.06,1.01c-.6-.2,1.63,4.48.3,4.11Z"/>
                <path class="cls-25" d="M181.7,86.54c.1,1.42.07,2.86-.09,4.27-1.6.42-7.72.21-9.37-.2.1-.36,4.64-4.05,4.95-3.72l3.65-.22c.33-.02.52-.71.83-.55.01.15.02.27.03.42Z"/>
                <path class="cls-114" d="M181.67,86.13c-.3-.15-.49.53-.83.55l-3.65.22c-.84.05-1.38-.07-2.25.09l-.5-4.54c2.18-.54,4.54-.08,6.93-.1l.29,3.78Z"/>
                <path class="cls-63" d="M189.74,95.15c.6,1.16.64,2.81.15,4.03-1.01-.03-2.02,0-3.24-.44.4-1.46-.09-2.67-.36-3.93,1.16-.12,2.29.24,3.45.34Z"/>
                <path class="cls-32" d="M182.01,99.23l.13,10.4-5.79-.13c.18,2.4,0,4.49-.08,6.46-1.4-.65-3.93-.33-5.11.51-.47,2.26-2.14,3.89-4.59,3.34-1.01-.23-2.13-.22-2.78-1.52-1.43-2.88-1.23-6.53-.33-9.51.7.05,1.28,0,1.1-.51.45-.02,1-.11,1.32-.3.71-.42.87-3.91.33-4.08-1.91-.6-3.87-.21-5.88-.25.04,1.6-.55,3.08.02,4.43-.37-.02-.54.39-1.05-.18-.45-.5-2.08.69-2.09,1.34-.15-.22.18-.88-.22-1.12-.95-.56-2.01.11-2.87-.23-1.5-2.44-.36-5.62-.58-8.77l28.46.13Z"/>
                <path class="cls-17" d="M124.26,82.53c-.04,2.15-2.46.4-4.28,1.73-.45.33-.49,1.36-.9,2.35-3.38.75-22.57,1.5-24.87,1.16-.83-.12-1.45-.28-2.18.23-.6.41-.74,1.21-.79,1.96-.52-.05-.51-.11-.65-.17-1.31-.56-1.43,3.47-1.93,4.21-.66.97-2.37.65-3.82.65l-.56,4.33c-.9.42-1.83.12-2.64.24l-.29-7.71c.2-2.11,3.12-.19,3.98-1.44.42-.61-.29-1.81.07-2.68,1.19-1.05,3.07-.68,4.69-.91.49-.07.55-1.48,1.37-1.52s2.25.24,2.58-.65c.27-.72.31-1.81.93-2.15,2.99-.55,6.4.87,9.36-.59,1.62-.8,3.75-2.18,5.53-1.27.18.45-.42,1.86.4,1.88l10.19.21c1.2.02,2.79.38,3.84.14Z"/>
                <path class="cls-16" d="M160.36,108.06c1.41.09,2.8.34,4.21.19.18.52-.4.56-1.1.51-.9,2.98-1.1,6.64.33,9.51.64,1.3,1.77,1.3,2.78,1.52,2.45.55,4.12-1.08,4.59-3.34,1.18-.84,3.7-1.16,5.11-.51-.07,1.82.84,4.13-.43,5.88-.73.99-.75,2.1-1.31,3.03l-2.8.57c-4.83.98-12.93-.74-11.78-.92-.67.11-3-7.04-2.49-4.62-.77-3.62-.27-7.22-.23-10.66,0-.66,1.63-1.85,2.09-1.34.51.57.68.16,1.05.18Z"/>
                <path class="cls-4" d="M182.14,109.63c.9.54.59,5.44.84,4.98-.62,1.16.07,2.81-.86,3.98-2.89,3.62.72,1.49-3.42,5.21-.95.66-2.99.83-4.18,1.07.56-.93.58-2.03,1.31-3.03,1.27-1.75.36-4.06.43-5.88.08-1.97.26-4.06.08-6.46l5.79.13Z"/>
                <path class="cls-28" d="M157.22,109.22c-.04,3.44-.53,7.04.23,10.66-.51-2.42,1.82,4.73,2.49,4.62-1.75.69-4.04.32-6.01-.05-.59-2.27-1.33-16.3.2-16.59.86.34,1.92-.34,2.87.23.4.24.07.9.22,1.12Z"/>
                <path class="cls-1" d="M177.19,86.9c-.32-.33-4.85,3.35-4.95,3.72-4.18,1.27-10.89,4.56-15.4,3.76-.16-1.21-.27-2.18.08-3.25,4.52-.49,9.02-.64,13.33-2.05,1.7-.55,3.01-1.78,4.69-2.09.87-.16,1.41-.04,2.25-.09Z"/>
                <path class="cls-113" d="M185.78,94.71c-1.33-.07-2.79.27-3.96-.43.05-1.02,0-2.07-.06-3.09.92-.07,2.44-.98,3.4-.33,1.15.78.67,2.74.62,3.85Z"/>
                <g>
                  <path class="cls-34" d="M133.14,80.27c-.07.26-.32.87-.09,1.25,3,.34,6.15.36,9.22.32,7.02-.09,13.82.14,20.73.5,1.3.07,3.33-.52,4.41.5.79.75-.16,2.97,1.11,3.91s3.44.66,4.97-.09c1.32-.64.78-3.36.04-4.51.15,0,.41-.14.66-.07.14.04.34.06.23.37l.5,4.54c-1.68.31-2.99,1.53-4.69,2.09-4.31,1.41-8.81,1.55-13.33,2.05-.34,1.07-.24,2.04-.08,3.25,4.5.8,11.22-2.5,15.4-3.76,1.65.41,7.77.62,9.37.2-.02.22-.16.3.15.38.06,1.02.11,2.07.06,3.09-1.74,3.07,1.07,3.61.19,4.94l-28.46-.13c.22,3.15-.92,6.33.58,8.77-1.53.28-.79,14.31-.2,16.59,1.97.36,4.26.73,6.01.05-1.15.19,6.95,1.9,11.78.92l2.8-.57c1.19-.24,3.22-.41,4.18-1.07,4.14-3.72.53-1.58,3.42-5.21.93-1.16.24-2.82.86-3.98.53.24,2.01.07,2.15.82.26,1.34.32,1.83,1.3,2.22.83.33,1.89.82,2.65-.31.14-.2-.34-.78,0-.91.19-.07.44,0,.72-.02-.12,2.32-.41,4.59-.27,7.27.12,2.27.38,5.13-.67,7.17-.28.4-1.63-.31-2,.09-.42.45-1.07.84-1.08,1.72l-.19,13.42c-.02,1.56-.2,3.08-.61,4.71l-2.41.36c-.8.79-.94,2.36-.56,3.21,1.93.24,3.44.02,5.01-.08.02,1.61-2.65.73-4.52.96-.46,1.17-.1,2.33-.43,3.47l-4.31.35c-.19,1.4-.18,2.67-.09,3.83l-9.84.6.27,3.94c-5.1.61-10.51.72-15.74.62-9.23-.18-18.48.07-27.71.02l-19.15-.1-.21-4.58-10.38-.45c-.47-1.42.21-2.8-.39-4.09h-3.63s-.33-3.65-.33-3.65c-1.31-.02-2.21.21-3.28,0l-.45-4-3.15-.21-.98-6.18c-.12-.76-1.01-1.05-1.01-2.26l-.11-43.34c.82-.12,1.75.18,2.64-.24l.56-4.33c1.45,0,3.17.32,3.82-.65.51-.75.63-4.77,1.93-4.21.14.06.13.12.65.17.05-.75.19-1.55.79-1.96.74-.5,1.35-.35,2.18-.23,2.3.34,21.49-.41,24.87-1.16.41-.99.44-2.02.9-2.35,1.83-1.32,4.25.43,4.28-1.73,1.83-.41,3.86-.23,5.88-.52.35-1.45,1.9-1.66,3.01-1.74Z"/>
                  <g>
                    <path class="cls-107" d="M94.94,115.5c.07,3.02.23,5.81,1.43,8.62-1.03,1.2-3.88,1.11-5.25.31-1.11-4.74-1.65-10.16-.67-14.72l4.37.24.12,5.54Z"/>
                    <path class="cls-42" d="M144.78,153.52l-20.15.22c-.41-1.32-.32-2.4-.02-3.72l20.68.04c.31.66.43,3.34-.51,3.46Z"/>
                    <path class="cls-98" d="M112.14,124.58c1.12-1.05,2.17-2.9,1.79-4.46.56.08.43-.52.43-.99l.02-9.91c.62.08.45-.76.55-1.63l3.35.93c.29,3.58.24,7,.12,10.49-1.68.79-.73,5.05-1.79,5.7-.56.34-4.88.53-4.48-.13Z"/>
                    <path class="cls-100" d="M167.12,167.49c-3.05-.26-6.26.34-9.42-.3-.96-.22-.88-3.27,0-3.68,3.04-.18,6.73-.27,9.77-.08.14,1.67-.06,2.67-.35,4.05Z"/>
                    <path class="cls-74" d="M131.18,138.68c-5.5-2.39-1.43-1.17-5.19-3.33-.91-.52-.71-3.42.18-3.97,2.81-1.72,2.22-4.12,4.55-4.75.84,1.87-1.36,3.44-1.58,5.06-.52,3.9,2.38,5.28,2.05,6.99Z"/>
                    <path class="cls-56" d="M177.11,162.46c-1.25.22-2.27-.37-4.05.34-.59-.53-1.05-2.76-.24-3.48.89-.8,2.69-.31,3.75-.41.55,1.25.69,2.27.54,3.55Z"/>
                    <path class="cls-49" d="M117.5,94.46c-1.28.37-2.24.45-3.32.04.19-1.16-.4-2.04,0-3.09.3-.8,2.65-.74,3.2-.14.4.93-.04,1.98.12,3.19Z"/>
                    <g>
                      <path class="cls-64" d="M113.94,120.12c.38,1.55-.67,3.41-1.79,4.46-.82-.22-1.99.72-2.7.81-4.38.57-9.6.56-13.07-1.27-1.2-2.81-1.36-5.6-1.43-8.62l2.83.19c4.17.29,2.41,4.5,11.18,2.67.38-1.04.26-1.76.72-2.69,1.11-.17,2.64-.32,3.89-.03.87,1.15.04,3.1.38,4.48Z"/>
                      <g>
                        <path class="cls-86" d="M114.39,109.23l-.02,9.91c0,.47.13,1.06-.43.99-.34-1.39.49-3.34-.38-4.48-1.26-.28-2.78-.13-3.89.03-.47.93-.34,1.64-.72,2.69-8.76,1.83-7.01-2.38-11.18-2.67l-2.83-.19-.12-5.54-4.37-.24c-.88-3.03-.63-6.71-.38-10.43l17.99-.25c-1.02-.73-2.3-1-3.69-1.15-1.97-.21-3.58-1.52-5.45-1.91-1.49-.31-2.64-.82-3.97-1.5-1.46-.75-3.55.23-4.88-.74-.67-.49-.5-2.41.03-2.85,3.06-.14,6.57-.21,9.75.18.84.11,1.56,1.09,2.32,1.42,3.72,1.61,7.7,2.18,11.6,2.63l.17,4.04,4.74.25c.02,1.92.19,3.62-.1,5.42l-4.22-.41c-.29,1.67.03,3.25.02,4.8Z"/>
                        <path class="cls-4" d="M102.06,107.98c-2.16.61-4.07.42-6.02.22-.29-1.54-.21-2.85-.12-4.42,2.12-.31,3.96-.11,6.31,0,.3,1.4.15,2.54-.17,4.2Z"/>
                      </g>
                    </g>
                  </g>
                </g>
                <path class="cls-112" d="M164.56,108.25c-1.41.15-2.8-.11-4.21-.19-.57-1.35.02-2.83-.02-4.43,2.01.04,3.97-.35,5.88.25.54.17.38,3.66-.33,4.08-.32.18-.87.27-1.32.3Z"/>
              </g>
            </g>
          </g>
        </g>
      </g>
    </g>
  </g>
</svg>