<?xml version="1.0" encoding="UTF-8"?>
<svg id="_レイヤー_2" data-name="レイヤー 2" xmlns="http://www.w3.org/2000/svg" viewBox="0 0 274.51 512">
  <defs>
    <style>
      .cls-1 {
        fill: #d6d7e1;
      }

      .cls-2 {
        fill: #fefeff;
      }

      .cls-3 {
        fill: #f9cfbb;
      }

      .cls-4 {
        fill: #a9a6b5;
      }

      .cls-5 {
        fill: #b9b8c4;
      }

      .cls-6 {
        fill: #9b96a8;
      }

      .cls-7 {
        fill: #d7d8e0;
      }

      .cls-8 {
        fill: #c0c0cd;
      }

      .cls-9 {
        fill: #f9ccb9;
      }

      .cls-10 {
        fill: #ccccd5;
      }

      .cls-11 {
        fill: #dc8996;
      }

      .cls-12 {
        fill: #afadbc;
      }

      .cls-13 {
        fill: #594e64;
      }

      .cls-14 {
        fill: #837d8e;
      }

      .cls-15 {
        fill: #736b7e;
      }

      .cls-16 {
        fill: #aaa7b6;
      }

      .cls-17 {
        fill: #bfbfcb;
      }

      .cls-18 {
        fill: #797284;
      }

      .cls-19 {
        fill: #c9c5d0;
      }

      .cls-20 {
        fill: #b0adbc;
      }

      .cls-21 {
        fill: #b8b6c4;
      }

      .cls-22 {
        fill: #ada8b9;
      }

      .cls-23 {
        fill: #bab8c5;
      }

      .cls-24 {
        fill: #cbcbd5;
      }

      .cls-25 {
        fill: #bebcc8;
      }

      .cls-26 {
        fill: #fff;
      }

      .cls-27 {
        fill: #cbbcbe;
      }

      .cls-28 {
        fill: #7b7180;
      }

      .cls-29 {
        fill: #61576b;
      }

      .cls-30 {
        fill: #a09eac;
      }

      .cls-31 {
        fill: #868092;
      }

      .cls-32 {
        fill: #f6dd95;
      }

      .cls-33 {
        fill: #fbd8c7;
      }

      .cls-34 {
        fill: #fde6cf;
      }

      .cls-35 {
        fill: #e7a99e;
      }

      .cls-36 {
        fill: #e2e3ea;
      }

      .cls-37 {
        fill: #e6b3a8;
      }

      .cls-38 {
        fill: #817785;
      }

      .cls-39 {
        fill: #dfdee5;
      }

      .cls-40 {
        fill: #fad4c1;
      }

      .cls-41 {
        fill: #f9cfc8;
      }

      .cls-42 {
        fill: #aea5ae;
      }

      .cls-43 {
        fill: #9691a3;
      }

      .cls-44 {
        fill: #785763;
      }

      .cls-45 {
        fill: #b5b2c0;
      }

      .cls-46 {
        fill: #bbbac8;
      }

      .cls-47 {
        fill: #c2c4d2;
      }

      .cls-48 {
        fill: #6d8fad;
      }

      .cls-49 {
        fill: #cecfd8;
      }

      .cls-50 {
        fill: #8b6367;
      }

      .cls-51 {
        fill: #fad2c3;
      }

      .cls-52 {
        fill: #695f72;
      }

      .cls-53 {
        fill: #ecaea0;
      }

      .cls-54 {
        fill: #bbbac6;
      }

      .cls-55 {
        fill: #827c8d;
      }

      .cls-56 {
        fill: #bbbac7;
      }

      .cls-57 {
        fill: #c4c3cf;
      }

      .cls-58 {
        fill: #6e93b1;
      }

      .cls-59 {
        fill: #b78673;
      }

      .cls-60 {
        fill: #4b4459;
      }

      .cls-61 {
        fill: #a09dad;
      }

      .cls-62 {
        fill: #cacbd6;
      }

      .cls-63 {
        fill: #cfd0db;
      }

      .cls-64 {
        fill: #c4c4cf;
      }

      .cls-65 {
        fill: #d7d8e2;
      }

      .cls-66 {
        fill: #9d716d;
      }

      .cls-67 {
        fill: #b3b1bf;
      }

      .cls-68 {
        fill: #f8cab4;
      }

      .cls-69 {
        fill: #aea9b8;
      }

      .cls-70 {
        fill: #a3a0b1;
      }

      .cls-71 {
        fill: #d7d8e1;
      }

      .cls-72 {
        fill: #a7a3b2;
      }

      .cls-73 {
        fill: #bebeca;
      }

      .cls-74 {
        fill: #fde7d6;
      }

      .cls-75 {
        fill: #e1e1e8;
      }

      .cls-76 {
        fill: #827886;
      }

      .cls-77 {
        fill: #5b5267;
      }

      .cls-78 {
        fill: #c7c8d2;
      }

      .cls-79 {
        fill: #fbdcc6;
      }

      .cls-80 {
        fill: #e0e1e9;
      }

      .cls-81 {
        fill: #cbccd6;
      }

      .cls-82 {
        fill: #d0d2dc;
      }

      .cls-83 {
        fill: #eba99f;
      }

      .cls-84 {
        fill: #a7a3b1;
      }

      .cls-85 {
        fill: #c8c8d2;
      }

      .cls-86 {
        fill: #cbcad4;
      }

      .cls-87 {
        fill: #a6a1b4;
      }

      .cls-88 {
        fill: #afacbc;
      }

      .cls-89 {
        fill: #aca9b6;
      }

      .cls-90 {
        fill: #f8c7b5;
      }

      .cls-91 {
        fill: #c4bfcb;
      }

      .cls-92 {
        fill: #755866;
      }

      .cls-93 {
        fill: #b7b5c3;
      }

      .cls-94 {
        fill: #a6a2b3;
      }

      .cls-95 {
        fill: #e0a499;
      }

      .cls-96 {
        fill: #fde8d7;
      }

      .cls-97 {
        fill: #aeabbb;
      }

      .cls-98 {
        fill: #7d7686;
      }

      .cls-99 {
        fill: #4b445a;
      }

      .cls-100 {
        fill: #c2c1cd;
      }

      .cls-101 {
        fill: #b9b8c6;
      }

      .cls-102 {
        fill: #aeacba;
      }

      .cls-103 {
        fill: #f1bdae;
      }

      .cls-104 {
        fill: #e0e1e8;
      }

      .cls-105 {
        fill: #aaa6b5;
      }

      .cls-106 {
        fill: #bab6c3;
      }

      .cls-107 {
        fill: #e9eaef;
      }

      .cls-108 {
        fill: #a17571;
      }

      .cls-109 {
        fill: #c0bfcb;
      }

      .cls-110 {
        fill: #938da1;
      }

      .cls-111 {
        fill: #a39fb0;
      }

      .cls-112 {
        fill: #807483;
      }

      .cls-113 {
        fill: #928c9f;
      }

      .cls-114 {
        fill: #d3d3dc;
      }

      .cls-115 {
        fill: #ccccd6;
      }

      .cls-116 {
        fill: #fdebdb;
      }
    </style>
  </defs>
  <g id="_レイヤー_1-2" data-name="レイヤー 1">
    <g id="_生成オブジェクト" data-name="生成オブジェクト">
      <g>
        <path class="cls-75" d="M122.9,319.23l.03,58.1v24.63s-.29,43.34-.29,43.34c-4.91-.69-10.28,1.14-14.75,1.19-10.95.12-21.91-1.15-32.8-1.88.3-1.53.48-3.65.15-5.46-2.92-.91-13.5.52-13.31-1.63.09-4.49.63-8.74,2.56-13.18,1.61-3.7,2.05-8.4,3.21-12.07.91-.24,2.33.32,2.67-.32.39-.75-.22-1.75-.08-2.46-.85,4.16.71-16.69,1.79-18.67l1.81-3.31c.95-1.73,1.39-4.05,1.72-5.67,1.5.2,3.22.75,4.88.64,2.03-2.58,1.52-5.27,1.57-7.81.59-1.77,2.72-.6,4.24-1.48,1.47-6.14-1.51-21.32,4.48-22.82l1.61-3.54c.44-.96,4.07-.26,4.33-1.68.4-2.19.74-4.28.82-6.06,1.44.08,2.95.26,4.39-.59-.33-3.29.06-6.32.19-9.35,1.51-.53,2.92-1.06,5.06-.97l.15-8.4c5.07-1.21,10.28-.23,15.57-.54Z"/>
        <path class="cls-49" d="M109.26,231.24c-.4,1.65-1.58,8.9-1.36,10.28l-15.76.36c-1.19.03-3.63-.66-4.17,1.08-.4,1.29.34,3.63-1.61,4.02-4.3.86-1.51-2.91-4.33,9.33-1.18.17-2.03-.02-3.15.33l-1.71,12.94-4.42.78-.58,7.29c-1.16.54-2.15.32-3.2,1.18,1.09,2.36-.71,3.66-1.12,5.26-.69,2.67-.26,5.16-1.3,7.24-.85-.53-1.82-.1-2.51.03-.89.16-1.17,1.78-.96,2.49.54,1.89-.62,2.59-1.18,3.82-1.05,2.31-.68,5.47-2,7.67-.26.42-2.02.8-1.99,1.43.18,3.88-1.64,6.52-2.55,9.74-.59,2.1-.43,4.17-3.27,4.69l-1.84,11.61c-.15.93-1.69.57-1.7,1.08l-.02,2.8c-.03,3.75-3.16,7.04-2.76,11.17-1.81.73-3.16.71-5.35.75-.75,11.56-1.1,6.57-2.13,8.81-1.63,3.53-1.1,7.86-2.05,11.58-1.46.47-2.8.12-4.93.35l-.62,17.06-4.87.48-1.47,27.91c-.13,2.38-.04,5.61-1.5,7.36s-4.67.71-6.41.97l-.15-9.6c-2.17-.16-3.78-.53-5.43-.49-.74.02-1.49-.92-2.08-1.21-.54-.27-1.84.56-2.59-.05-1.73-1.44-.85-4.06-1.84-5.69-2.33-1.52-2.27-3.92-2.86-5.7-1.31-3.98-1.97-5.27-1.06-11.57l1.55-10.69c1-6.93-1.09-4.84,1.47-8.7.46-.69,2.28-.48,2.93-1.11.66-2.12-.34-5.04.53-7.22.7-1.76,2.88-1.33,4.13-2.58-.05-3.2,1.47-6.14,5.19-5.68.28-4.96-.02-11.07,4.62-11.85l1.08-5.67c1.66-.42,3.51-.86,4.17-1.8.37-.53,2.6-14.52,2.16-14.08,1.77-1.76,3.12.09,5.87-1.9-.64-2.55-.55-4.63-.25-6.84.34-2.48,3.4-3.71,5.57-2.46.82-.2.56-.71.55-1.25,1.14.28,3.91.82,4.1-.32l.78-4.63.8-2.68c1.42-4.77,5.95-9.15,5.55-14.57.39.4.8,0,.43-.41,1.09-.06,2.23.02,3.58-.42.78-4.22,1-8.16,1.14-12.06.44.39.89-.14.5-.56,1.48-.2,3.1.05,4.67-.47l.46-8.62c.03-.48.51-.49.68-1.05.7.31,2.76.58,3.28-.14,1.19-1.95-.33-4.87,1.11-6.54,1.9-2.2,1.13-4.86,1.53-7.16.23-1.29,1.05-2.27,1.83-3.28.36-1.22,2.14-.49,3.03-.79,1.78-.6.75-2.91,1.3-4.25,1.04-2.5,1.62-4.83,1.03-7.1.46.2.73-.17.57-.61,1.31-.02,2.56.11,4.39-.33-.08-3.13.74-6.26,1.3-10.13,1.46-.24,3.05.03,4.27-1.07,1.54,1.74,3.45,1.02,5.59,1.38,1.01.17,1.1,2.1,1.18,2.91.47,4.74,6.08-.48,5.04,5.57,3.83.3,7.52.85,11.16,1.56Z"/>
        <path class="cls-45" d="M179.23,312.27c2.34,1.15,1.14,4.33,1.65,6.84,1.48.63,3.05-.07,4.35.66-.07,3.2-.05,6.14.32,8.98s-.88,6.08,0,9.26c.36,1.15,3.84.88,4.44-.05,2.12.29.42,5.95,1.66,10.27.36,1.26,3.47,1.29,3.77-.05.72-.05.56.96.96,1.29-1.65,3,1.68,11.25.57,17.46l3.67,1.03,1.31,11.58c2.94-.19,2.93,1.98,4.18,8.2l2.53,12.51c.25,1.25,1.63,1.87,1.63,3.57,0,2.95,1.27,5.58,1.71,8.43l1.58,10.27c.18,1.17,2.68.54,2.94,15.52.03,1.74-.8,3.72-.66,5.8-6.48-.32-5.7.91-10.29.59.17-.09-.16-1.08.06-1.08l9.57-.13c-.11-1.71.16-3.12-.18-4.95l-11.29.75c-.87,5.8-.44,4.65.52,5.6.36.36-.02,1.22-.49,1.21-.06-.02-.19-.39-.42-1.09-9.09.55-17.96,1.32-26.84,1.17.31-.72-.58-.66-1.21-.94l.07-10.03c4.54-.2,7.94-2.41,9.5-6.55l7.09-1.36c.7-13.86,1.21-40.01-.99-52.81-.2-1.16-1.61-2.16-1.28-3.54.19-.78-2.34-5.38-3.24-6.7-2.55-3.73,2.21-11.59-5.27-13.44-1.32-3,.19-4.25-1.08-6.9-.78-1.63-.91,1.53-4.33-2.46-2.03-10.43,1.2-3.43-5.76-11.47,5.82,1.64-7.08-6.22-4.93-4.41l.46,64.23c.07,9.69.44,18.75-.16,27.94-.83.07-1.69-.11-2.51-.23.13-1.11,1.47-.15,1.71-.6.38-.7.28-2.48.24-3.46-2.03-1-5.08-.42-7.42.18-.33-2.29-.52-4.68-.63-7.38-2.75-.39-4.55-2.05-4.49-4.73l.19-9.01c.04-1.87-.86-5.73,1.47-5.5,1.66-4.48-2.33-12.6,3.44-11.35.37-8.82-.12-17.5-.47-26.56l-1.14-29.08c-.08-2.09-.71-4.07.06-5.8l23.4-1.72Z"/>
        <path class="cls-98" d="M138.95,362c1.47,1.15,3.38-.03,5.03.46.47,1.27-.17,2.62-.02,3.55,1.33,8.39-.8,10.18,3.4,10.03l6.02-.21c.65,5.07-.56,4.18-.42,9.74-2.43,2.07-1.85,6.44-1.41,6.62.29.12.6.3.94.08l-.19,9.01c-.06,2.68,1.74,4.34,4.49,4.73.1,2.7.29,5.09.63,7.38.12.84-.63,2.84.31,3.33,1.74.91,3.63.32,5.16.54.82.12,1.68.3,2.51.23-.36,5.5.72,11.1.65,16.6-.05,3.68-.24,7.39.07,11.07-.59.66-1.49.63-2.61.65l-29.78.54-.83,11.91c-1.13.5-3.34.47-4.05-.4-.49-.6-.54-1.57-.89-1.94-.51-.54-1.31,0-1.9-.49-.68-.57-.07-1.96-.39-2.4s-1.6-.46-2.38-.81c-.34-2.23-.64-4.79-.63-6.95l.27-43.34c3.99,1.96,3.43-10.18,5.89-13.43,1.67-2.21,1.5-4.3,2.44-6.62,1.56-3.86,4.95-13.17,2.67-15.59.65-2.05,2.36-3.2,3.93-4.47.41.05.7.64,1.11.15Z"/>
        <path class="cls-54" d="M216.55,261.76c-.54,2.58-.13,5.24.31,8.58.22,1.63,3.76,1.51,4.79.32.02.52.23.87.63,1.24-1.61.28.01,11.8.09,11.88.05.06,3.04.77,3.83.1.25-.21-.42-.97.59-.93.07.41.06,1.11.5,1.26.22.07.65.11.92.17.2.66-.54.43-1.31.6l.27,8.33c1.4.16,2.71.07,3.04,1.22.25.87-.15,1.83.52,2.26.3.19,1.11.67,1.22.04.18-1.01-.12-1.85.69-1.65-.07.79.32,1.31.71,1.98-1.49,2.73-.67,6.39-.15,9.52,1.61-.13,3.88-.24,4.44.87-.49,1.74.82,10.6,1.18,10.81,0,0,4.03-.21,3.96-.18.97-.4.01-1.42.88-1.67,0,.44.11.97.13,1.42l.37,8.46c.04.91,2.24.4,2.31.92l.75,5.68c.19,1.43,4.31.76,5.39-.1.15.6.79.63,1.3.79-.08.52-1.06,1.05-1.06,1.76.62,4.14.75,8.16.64,12.46,1.95.6,3.7.37,5.31.66l.14,9.01c1.23.79,2.74.39,4.28.9.83,4.91.38,9.42.38,14.4v60.68s4.96.09,4.96.09c-.55,4.59-1.71,9.09-4.68,13.16-1.74,2.39-2.52,6.54-5.31,6.93.83-6.56-.46-11.3-.65-17.43-.11-3.71.24-7.42-.15-11.39-1.76-.26-2.68.23-4.55-.47,1.09-4.12-.64-8.65-.33-12.32.97-11.26-.03-22.68.26-34.28-1.8-.31-3.2.01-4.65-.54l-.77-14.12-3.83-.46-.93-9.38-1.65-1.2c-.64-.47.6-3.3.17-3.93-.85-1.24-3.12.26-3.62-.91-.08-.19-.6-6.23-.6-6.06-.08-2.03.3-4.2-.27-6.51-.19-.75-1.6-.56-2.29-.87.08-1.93-.5-4.23-2.08-5.04-.18-.51-.19-1.48-.61-1.74-1.2-.73-4.61.23-4.75-.94-.52-4.38.25-8.71-.59-13.05-1.73.24-2.54-.08-3.1-.62s-1.83-12.71-1.52-14.84c-1.86-.31-3.45-.25-4.87-.89-.57-1.82.48-4.03-.75-5.25-.69-.68-2.56.38-3.08-.55-1.13-2.02-.35-4.43-1.05-9l-.6-3.92c-.18-1.15-3.12.03-3.68-.78-1.69-2.41-.22-8.42-2.53-7.8.07-2.64-.12-5.31.76-7.75.6.33,1.11-.37,1.85-1.07,2.06.8,8.19,2.54,7.96-.29.74.09.57,1,.48,1.44Z"/>
        <path class="cls-85" d="M176.5,445.92c-3.28-.06-6.63.21-9.9.43,0-.28.16-.57.14-.83-.03-.36-.34-.67-.64-.35-.31-3.69-.12-7.39-.07-11.07,3.96-1.33,9.67-.51,9.64-7.69l-.2-47.79c-.05-12.73-1.05-25.31.31-37.41,3.43,3.99,3.55.84,4.33,2.46,1.27,2.65-.25,3.9,1.08,6.9,7.48,1.85,2.71,9.71,5.27,13.44.9,1.32,3.43,5.92,3.24,6.7-.33,1.38,1.08,2.38,1.28,3.54,2.2,12.79,1.68,38.94.99,52.81l-7.09,1.36c-1.55,4.14-4.96,6.35-9.5,6.55l-.07,10.03c.64.28,1.52.22,1.21.94Z"/>
        <path class="cls-111" d="M97.02,209.29c.38,1.71-.92,4.35.66,5.95.94.96,4.42-.43,4.57.89l.55,4.83,9.88.31c.23,1.87,0,3.46.7,5.21,2.41-.66,3.54,1.01,5.53,2.01.84.42,2.37-.09,3.25.41.57.32.69,1.52,1.29,2.36,5.24.62,10.27.44,15.43.08.41-.5.76-1.02.38-1.26,1.21-.3,2.23-.98,3.48-.74.12.43.16,1.71.71,1.98,1.83.07,4.08.47,5.57-.41,1.2-.71.49-2.96.44-4.18,3.51-.71,6.93-.07,10.36-.29.92-1.56-.02-3.9,1.13-4.9,1.4-.88,3.38-.06,4.9-.76l.94-5.8c3.52.06,6.72-.12,9.71.66-2.23-.31-.11,3.38-1.94,5.26-1.18-.72-8.65,1.85-8.13,1.28.27-.29-2.56,5.92,1,6.19,9,.7,2.43-1.19,9.13-1.07-.38,1.15-.65,2.11-2.3,3.17,1.09,1.29.92,1.61-.37,1.26-2.83-.62-5.1,2.35-7.86,3.21l-11.9,3.69c-4.42,1.37-8.62,1.92-13.23,1.24-8.59-1.26-16.72-3-25.14-4.94-.78-.18-1.51.41-2.02,0-.66-.54-.37-1.53-.62-2.44-.48-1.79-2.65-1.02-3.84-1.25-3.63-.71-7.33-1.26-11.16-1.56,1.05-6.05-4.57-.83-5.04-5.57-.08-.81-.17-2.74-1.18-2.91-2.14-.37-4.05.35-5.59-1.38-1.21,1.1-2.81.83-4.27,1.07l1.58-11c.39-2.69-2.81,1.8-1.9-7.43-2.1-.46-3.96.52-5.47-.39-1.17-.92-.4-3.55-.49-5.3l-6.27-.72c-.86-1.19-.14-3.62.31-4.91,1.78-.35,3.77-.55,5.93.03.93,1.47-.44,3.77.67,5.02,1.23,1.19,3.49.03,5.06.72l.1,5.41,4.69.45.37,5.88c3.63.58,7.06.57,10.41.63Z"/>
        <path class="cls-4" d="M268.56,433.62l-4.96-.09v-60.68c0-4.97.46-9.48-.37-14.4-1.54-.51-3.05-.11-4.28-.9l-.14-9.01c-1.6-.29-3.36-.06-5.31-.66.11-4.3-.02-8.32-.64-12.46,0-.71.98-1.23,1.06-1.76.86.28,1.8-.26,2.88.17.64,13.05,2.94-.88,2.25,14.44l4.73.51.13,9.47,4.91.44.23,9.82,5.16.51c.4,18.61.52,36.82-.5,55.55-1.44.75-2.61.16-4.33.54-.08,3.1-.51,5.79-.83,8.5Z"/>
        <path class="cls-16" d="M195.07,220.62c.44.07.97.25,1.45.29-1.81,1.63,1.88,4.59,1.15,9.61,1.58.25,2.79.4,4,.07.19.52.81.58,1.29.71-3.63,4.48,3.08,8.95-1.35,10.68l5.35,1.07c-.47,1.3.23,2.35.6,1.23.67.31,1.57.27,2.14.58.63.34.1,1.67.88,1.97,1.67.65,2.96.14,4.8.58.03,4.59,1.12,8.73.7,12.91.24,2.83-5.89,1.09-7.96.29-.75.7-1.26,1.4-1.85,1.07-1.49-.31.12-2-1.19-2.7-.5,1.46.61,2.95-1.13,2.84-1-.06-2.15.82-2.93-.35-.33-.49-.54-1.42-.6-2.41l-.37-6.03c-5.54.11-1.81-3.68-5.25-7.35-.87.43-2.6.67-2.76-.27-.22-1.25.37-2.44-.14-3.58l-13.49-.84c-.21-1.18,1.85-1.2,1.81-1.85-.1-1.34-.73-2.82-.69-3.86-1.53-.59-3.45-.11-4.91-.22.66-1.02-.67-2.28-.71-3.32,1.3.35,1.46.04.37-1.26,1.65-1.06,1.91-2.03,2.3-3.17,1.06-3.16,6.23-.19,7.27-1.91.51-.85.08-3.18.59-3.85.8-1.05,1.31,1.19,2.7-3.51,1.74-.42,2.5,1.76,3.93,1.97l4.02.61Z"/>
        <path class="cls-54" d="M30.68,386.42l-.03,36.61c0,1.02.03,1.95.44,2.72-.31-.57-.69,6.9-1.52,7.45-1.32.87-3.2-.36-4.46.33-.18-2.34-4.75.15-5.78-1.71-.22-.4.08-1.57-.36-1.97-.95-.87-2.18-1.73-1.84-3.19.53-2.28-1.83-2.83-2.51-4.35-.83-1.86-.84-3.4-3.15-4.19-.98-.91-.57-3.87-.62-5.07,1.65-.04,3.26.33,5.43.49l.15,9.6c1.74-.26,5.02.69,6.41-.97,1.46-1.75,1.37-4.98,1.5-7.36l1.47-27.91,4.87-.48Z"/>
        <path class="cls-88" d="M36.08,430.83c-.56,0-.76.89-.52,1.03l1.49.83c3.2,1.78,1.53,11.12,2.12,17.41-4.54.48-2.11-4.83-7.73-5.27l-1.01-4.83-5.01-.32c-.56-2.15-.66-4.22-.32-6.14,1.26-.68,3.14.54,4.46-.33.83-.54,1.21-8.02,1.52-7.45,1.31.27,3.54-.11,4.43,1.34.75,1.21.08,2.75.56,3.73Z"/>
        <path class="cls-100" d="M51.21,284.81c.4,5.42-4.13,9.8-5.55,14.57l-.8,2.68-.78,4.63c-.19,1.14-2.96.6-4.1.32-1.14-2.91-.59-6.54-.03-9.76,1.09-.16,3.04.36,3.43-.59.93-2.25.75-4.65,2.17-6.83.94-1.45.22-3.45.86-5.01,1.6-.6,3.37-.74,4.8-.01Z"/>
        <path class="cls-22" d="M243.67,316.5c-.87.25.09,1.27-.88,1.67.06-.03-3.96.18-3.96.18-.37-.21-1.67-9.07-1.18-10.81-.56-1.11-2.83-1.01-4.44-.87-.52-3.13-1.34-6.79.15-9.52,1.38-.19,2.82.05,4.48.17l.2,9.89c2.11.51,3.85.18,5.53.93l.1,8.36Z"/>
        <path class="cls-69" d="M252.62,332.88c-1.08.85-5.2,1.53-5.39.1l-.75-5.68c-.07-.52-2.27,0-2.31-.92l-.37-8.46,5.1.45.41,8.52c1.14.27,2.09.03,3.02.52.35,2.12-.28,3.86.3,5.47Z"/>
        <path class="cls-64" d="M75.09,444.61c-.36.24-.89.57-.9,1.24-1.13-2.63-9.42-.81-12.46-2.19.03-2.43.22-4.34-.93-5.68.38-.01.88-.13,1.12-.46-.18,2.15,10.39.71,13.31,1.63.34,1.81.15,3.93-.15,5.46Z"/>
        <path class="cls-25" d="M68.6,247.38c-.41,2.29.37,4.96-1.53,7.16-1.43,1.66.08,4.58-1.11,6.54-.52.72-2.58.46-3.28.14-1.64.49.13-12.05.15-13.76,2.03-.36,4.04-.61,5.77-.07Z"/>
        <path class="cls-67" d="M75.78,231.96c.6,2.27.01,4.61-1.03,7.1-.56,1.34.48,3.65-1.3,4.25-.89.3-2.67-.43-3.03.79-1.69,1.59-.7-11.36-.53-12.12,1.44-.96,4.57-.9,5.89-.02Z"/>
        <path class="cls-94" d="M226.79,282.94c-1.01-.04-.34.72-.59.93-.79.68-3.78-.04-3.83-.1-.08-.09-1.7-11.61-.09-11.88,1.29-.43,2.77-.21,4.29.15l.22,10.89Z"/>
        <path class="cls-6" d="M207.55,244.29c-.37,1.11-1.07.06-.6-1.23l-5.35-1.07c4.43-1.73-2.27-6.19,1.35-10.68,1.42.4,2.9-.25,4.56.44l.04,12.54Z"/>
        <path class="cls-109" d="M56.36,271.92c-.14,3.9-.36,7.84-1.14,12.06-1.35.44-2.49.35-3.58.42-1.22-3.87-.3-8.1-.36-12.39,1.9-.42,3.46-.39,5.08-.08Z"/>
        <path class="cls-4" d="M205.56,444.45c-.59,0-.9.59-1.31.18-.96-.95-1.39.2-.52-5.6l11.29-.75c.34,1.83.07,3.24.18,4.95l-9.57.13c-.22,0,.11.99-.06,1.08Z"/>
        <path class="cls-109" d="M61.99,262.26l-.46,8.62c-1.57.52-3.2.28-4.67.47-1.28-2.77-.49-6.08-.41-9.31,2.25-.21,3.89-.48,5.54.22Z"/>
        <path class="cls-107" d="M258.57,453.71c-1.16.7-1.17,2.31-3.12,2.74-.6-2.54-.85-20.07,2.47-20.16.19,6.12,1.48,10.87.65,17.43Z"/>
        <path class="cls-16" d="M232.65,295.17c-.82-.2-.52.65-.69,1.65-.11.63-.92.15-1.22-.04-.67-.43-.28-1.39-.52-2.26-.33-1.15-1.63-1.07-3.04-1.22l-.27-8.33c.77-.18,1.51.06,1.31-.6.83.19,2.65-.58,3.15.6-.07-.16,1.37,9.14,1.28,10.2Z"/>
        <path class="cls-72" d="M82.04,220.89c-.56,3.87-1.38,7-1.3,10.13-1.82.44-3.08.31-4.39.33-.42-.35-.51-.91-.48-1.57l.31-8.41c2.11-.63,4.01-.18,5.86-.48Z"/>
        <path class="cls-72" d="M221.65,270.66c-1.03,1.19-4.57,1.31-4.79-.32-.44-3.34-.85-5.99-.31-8.58l4.77.26.33,8.64Z"/>
        <path class="cls-43" d="M201.66,230.59c-1.21.33-2.42.18-4-.07.74-5.02-2.96-7.99-1.15-9.61,1.54.13,3.11-.27,5.02.34l.13,9.34Z"/>
        <path class="cls-2" d="M192.07,214.98c-.41.08-.89-.18-.81-.88s.09-.83.7-1.03l.11,1.91Z"/>
        <path class="cls-17" d="M96.26,319.25c.04,3.08-.25,6.19.32,9.65l.63-9.27c3.18-1.44,7.11.74,10.11.14l-.15,8.4c-2.14-.09-3.55.44-5.06.97-1.26.44-2.92-.23-4.45.47-.74,3.26,0,6.48-.14,9.47-.08,1.78-.42,3.87-.82,6.06-.26,1.43-3.89.72-4.33,1.68l-1.61,3.54c-5.99,1.5-3.01,16.68-4.48,22.82-1.53.89-3.66-.28-4.24,1.48-1.63-.65-3.42-.23-5.11-.56.65-1.66.09-3.9,1.13-5.79,3.91-7.14,2.56-15.91,5.13-20.27,1.4-2.36,2.84-4.53,2.41-7.6-.2-1.39,1.03-1.97,1.38-2.82,1.15-2.79.29-6.01,1.18-9.03,1.26-.3,2.42.08,3.67-.38l.62-8.43c.59-.95,2.84-.34,3.8-.54Z"/>
        <path class="cls-31" d="M130.39,315.23c0,.22-.02.42.12.61-.71-.22-.9.89-.52,1.08.74.37-.02,1.13-.03,1.65l-.69,28.15c-.09,3.82-.14,7.75-.11,11.55l8.7.19v3.38c-1.58,1.27-3.29,2.42-3.93,4.47-.4,1.28-1.08,3.16-2.32,3.29-1.89.2-.49,5.99-1.88,7.71h-6.78s-.03-58.09-.03-58.09c0-1.47.86-3.59.57-5.28,5.59.9,2.26.8,6.92,1.27Z"/>
        <path class="cls-15" d="M122.92,401.96v-24.63s6.8,0,6.8,0c1.39-1.72,0-7.51,1.88-7.71,1.24-.13,1.91-2.01,2.32-3.29,2.28,2.41-1.11,11.73-2.67,15.59-.94,2.32-.78,4.41-2.44,6.62-2.45,3.25-1.89,15.39-5.89,13.43Z"/>
        <path class="cls-21" d="M98.2,312.4c8.4.89,16.93.21,25.27,1.56.29,1.68-.57,3.81-.57,5.28-5.29.31-10.51-.67-15.57.54-3,.6-6.92-1.58-10.11-.14l-.63,9.27c-.57-3.46-.28-6.57-.32-9.65.01,1.04.39-8.71,1.94-6.85Z"/>
        <path class="cls-82" d="M82.06,374.66c-.05,2.54.47,5.23-1.57,7.81-1.66.11-3.38-.44-4.88-.64.51-2.5.36-5.23,1.34-7.73,1.69.32,3.48-.1,5.11.56Z"/>
        <path class="cls-71" d="M102.12,329.14c-.13,3.03-.52,6.06-.19,9.35-1.44.85-2.96.67-4.39.59.13-3-.61-6.21.14-9.47,1.53-.7,3.18-.02,4.45-.47Z"/>
        <path class="cls-70" d="M206.25,261.67c-.89,2.44-.69,5.12-.76,7.75-1.33-.25-2.67.09-3.97.03-1.55-.08-3.88-.79-4.94-1.85-.44-1.59.44-2.93.35-4.05-.19-2.24-.16-4.45-.53-7-1.01,0-1.91-.28-2.57-.05-.98-.88-.21-2.03-.33-3.03l-.81-6.35-13.19-.65-.16,11.86c-1.53.45-2.92.07-4.47-.1l.56-11.8c-3.47-.02-7.87-.85-10.82.58-1.15,3.44-2.69,4.44-6.29,5.24-1.77.39-4.17,2.56-6.28.9-.02.39-4.6,4.83-4.14,3.54l1.91,1.42c1.12.83,3.43-.54,4.67-1.01-.04.5.83,2.87-.24,2.9-1.77.05-3.48,1.17-4.89,1.24l-5.36.25-10.76-1.21c-2.63-.3-3.27-2.97-4.76-3.69-4.9-2.35-13.13-1.02-13.15-1.02-1.04-.13-.59-1.72-.99-2.53-3.46-.9-6.97.39-10.77.34l.42,26.3c-1.1,1.06-.32,3.16-1.08,4.38-.28-.21-.55-.27-.8.02-.52-.91-1.75-.53-2.8-1.05-.54-2.97-1.22-5.93-1.17-9.15.1-.76.18-1.44-.67-1.29-.55-1.8.35-3.77.56-5.86.68-6.87.45-13.5.28-20.37-10.63.27-5.91,3.33-8.56,3.68-1.21.16-2.47,1.36-2.46,2.56.02,4.06-2.96,3.11-3.88,9.05-3.12,1.72-1.87,6.41-2.92,8.04-.46.72-3.22-.1-3.4.97l-1.15,6.66c-.38,2.19-.05,4.46-.52,6.71-.98.48-1.98.49-3.07.87l-2.38,9.7c-.07-.79-.2-2.31-1.29-2.51-.58-.1-1.22-.23-2.12-.8,1.05-2.08.62-4.57,1.3-7.24.41-1.61,2.22-2.9,1.12-5.26,1.05-.86,2.04-.64,3.2-1.18l.58-7.29,4.42-.78,1.71-12.94c1.12-.35,1.97-.16,3.15-.33,2.82-12.23.03-8.47,4.33-9.33,1.95-.39,1.21-2.74,1.61-4.02.54-1.74,2.97-1.05,4.17-1.08l15.76-.36c1.44-.03,3.14.29,4.99.31.28,1.34-.47,3.76.8,4.25,4.52,1.74,9.04.43,13.81,1.16,1.08.17.44,3.01.02,3.94,4.98,1.77,12.75.11,16.43.5,2.19.23,4.58.45,7.1-.06.54-1.6-.08-2.9.08-4.22,2.81-1.12,5.83-.1,9.35-1.02,1.04-.27.83-3.15.9-4.14l4.23-1.14c-1.68-4.29,6.8-.95,8.55-3.56.16-.68-.01-1.8.44-2.49,1.46.11,3.38-.38,4.91.22-.04,1.03.59,2.52.69,3.86.05.65-2.01.68-1.81,1.85l13.49.84c.51,1.14-.08,2.33.14,3.58.16.94,1.9.69,2.76.27,3.45,3.67-.28,7.46,5.25,7.35l.37,6.03c.06.99.28,1.93.6,2.41.79,1.17,1.93.29,2.93.35,1.74.11.63-1.38,1.13-2.84,1.31.7-.3,2.39,1.19,2.7Z"/>
        <path class="cls-104" d="M196.94,263.54c.09,1.12-.79,2.47-.35,4.05,1.06,1.06,3.38,1.78,4.94,1.85.07,2.58.06,5.26,1.04,7.62,2.54-3.19,1.83,8.24,2.15,6.21-.2,1.29,1.93.77,2.11,1.38,2.81,9.49-2.26,13.72,3.7,12.29,1.33,7.02,1.56,13.73,1.12,21.01l-15.27,2.29-.73-14.34c-1.47-.57-2.64-.29-4.35-.35l-.53-7.77c-.25-3.71,1.02-7.62-.04-10.97-.92-2.91-.38-5.7-.28-8.83-1.75-.57-3.07.2-5.21-.22.59-6.29-1.36-12.6.36-18.29,1.95.97,3.88,1.9,6.19,2.56.63.18.93,2.29,1.98,1.91,1.29-.47,2.19-.62,3.15-.4Z"/>
        <path class="cls-56" d="M174.89,258.24c-.53,11.16.53,22.53-1.71,33.29l-11.72.37-.51,5.82c-10.33-.1-20.69,1.39-30.94.27-1.93-.21-3.88-.19-5.82-.26-1.05-2.9-5.98-.52-6.67-2.62-.42-1.31-1.26-2.27-.56-3.46,1.56.84,3.17.6,5.21.55l16.51-.42c.57-2.27.44-4.27.69-6.56l4.69-.41c3.39-.3,7.61-.4,10.24-3.24,5.33-5.75,12.73,1,12.85-5.76.04-2.34,1.51-3.96,1.98-5.79.64-2.51,2.43-16.18,1.07-16.73-.28-.11-3.48,0-4.05.19-.49.16-.37,1.76-1,1.84-3.83.48-7.36.6-10.66,1.83-1.25.47-3.56,1.84-4.67,1.01l-1.91-1.42c-.46,1.29,4.12-3.15,4.14-3.54,2.11,1.65,4.51-.51,6.28-.9,3.6-.8,5.14-1.8,6.29-5.24,2.95-1.43,7.35-.6,10.82-.58l-.56,11.8Z"/>
        <path class="cls-101" d="M193.84,256.5c-1.52.54-2.88.25-3.73-1.47-.47-.94-1.05-1.56-1.73-1.72-.9-.22-2.99-.34-2.68,1.08.45,2.09.4,3.43-.1,5.09-1.72,5.68.23,12-.36,18.29,2.13.42,3.46-.35,5.21.22-.11,3.13-.64,5.92.28,8.83,1.06,3.35-.21,7.26.04,10.97l.53,7.77c1.71.05,2.88-.22,4.35.35l.73,14.34c-1.04.16-3.28,1.39-4.29,0-2.29-3.2,1.05-10.57-4.85-11.36-1.55-3.49-.79-7.44-1.5-11.04-.95-4.79-.94-9.4-1.04-14.26-1.04-.69-2.2-.19-3.74-.83l-1.6-24.41.16-11.86,13.19.65.81,6.35c.13,1-.65,2.15.33,3.03Z"/>
        <path class="cls-97" d="M216.49,343.71l-4.43.32c-2.35.17-4.74-.09-7.07.26-1.03.16-2.36-1.2-3.83-.42-.32-1.03-.05-1.75-.75-1.46.25-.9-.19-2.75-.36-3.66-1.11-1.08-2.98-.59-4.17-.96-.3-1.28-.82-2.45-.17-4.07,6.19-.35,12.31-1.12,18.54-.59.63.1-.22,1.69-.96,2.22.96,1.07,2,.49,2.8,1.04,1.37,2.41.13,5.04.4,7.32Z"/>
        <path class="cls-90" d="M216.49,343.71c.22,1.84.81,3.91.27,6.28-1.13.9-2.76.24-4.08,1-.56,1.33.26,4.31-1.19,5.04-3.32,1.34-7.17.86-10.93.98-.32-2.44.3-4.32.45-6.32,1.08-.92,2.45,0,3.81-.37.04.24.37,1.57.84,1.49,2.12-.35,4.02-1.03,6.21-1.72l.19-6.05,4.43-.32Z"/>
        <path class="cls-113" d="M173.18,291.53c-.41,1.98-.02,4.15-1.84,5.69-2.58.29-7.27.52-10.38.49l.51-5.82,11.72-.37Z"/>
        <path class="cls-34" d="M200.41,342.41c-.66,2.36.54,4.85-.67,7.04-1.11-.1-2.26-.21-3.36.03-.41-.33-.24-1.33-.96-1.29l-.03-9.54c0-.32.56-.54.48-.85,1.2.37,3.06-.12,4.17.96.17.91.61,2.76.36,3.66Z"/>
        <path class="cls-89" d="M190,337.97c-.59.93-4.08,1.2-4.44.05-.88-3.18.36-6.48,0-9.26,1.23-.1,2.62-.32,4.22-.17l.22,9.39Z"/>
        <path class="cls-84" d="M237.27,341.21c-1.45.2-3.01.67-4.67-.08l.03-12.35c1.58.81,2.17,3.1,2.08,5.04.68.31,2.1.12,2.29.87.57,2.31.19,4.48.27,6.51Z"/>
        <path class="cls-83" d="M204.99,344.29c.53,1.88.85,4.29-.17,6.02-1.36.38-2.73-.54-3.81.37.17-.37-.11-.85-.39-1.05-.24-.17-.62-.04-.87-.18,1.2-2.19,0-4.68.67-7.04.7-.29.43.44.75,1.46,1.46-.78,2.8.57,3.83.42Z"/>
        <g>
          <path class="cls-55" d="M179.35,258.34l1.6,24.41c1.53.63,2.7.13,3.74.83.1,4.86.09,9.47,1.04,14.26.71,3.6-.05,7.55,1.5,11.04,5.9.79,2.56,8.16,4.85,11.36,1,1.4,3.25.16,4.29,0l15.27-2.29c.44-7.28.22-13.99-1.12-21.01-5.96,1.44-.88-2.8-3.7-12.29-.18-.62-2.31-.09-2.11-1.38-.31,2.03.39-9.4-2.15-6.21-.99-2.36-.97-5.03-1.04-7.62,1.29.06,2.63-.28,3.97-.03,2.31-.62.84,5.39,2.53,7.8.57.81,3.51-.37,3.68.78l.6,3.92c.7,4.57-.07,6.97,1.05,9,.52.93,2.39-.14,3.08.55,1.22,1.21.18,3.42.75,5.25,1.42.64,3,.58,4.87.89-.31,2.13.95,14.29,1.52,14.84s1.37.85,3.1.62c.83,4.34.07,8.67.59,13.05.14,1.17,3.55.21,4.75.94.43.26.43,1.23.61,1.74l-.03,12.35c1.65.75,3.22.28,4.67.08,0-.17.51,5.88.6,6.06.5,1.17,2.77-.32,3.62.91.43.63-.82,3.46-.17,3.93l1.65,1.2.93,9.38,3.83.46.77,14.12c1.45.55,2.85.23,4.65.54-.29,11.6.71,23.01-.26,34.28-6.91-.4-13.9-.56-21.1-.21-.6,1.59.4,3.4-.55,4.77-.78,1.13-2.91.4-4.45.71l-.48,6.53-4.9.34c-.42,4.73.23,9.24-.67,13.83h-4.23c-.27-14.99-2.76-14.36-2.94-15.53l-1.58-10.27c-.44-2.85-1.72-5.48-1.71-8.43,0-1.7-1.38-2.33-1.63-3.57l-2.53-12.51c-1.26-6.22-1.24-8.39-4.18-8.2l-1.31-11.58-3.67-1.03c1.11-6.22-2.22-14.46-.57-17.46,1.09-.24,2.25-.13,3.36-.03.25.14.64.01.87.18.28.2.57.68.39,1.05-.15,2-.77,3.88-.45,6.32,3.76-.12,7.6.36,10.93-.98,1.46-.73.64-3.7,1.19-5.04,1.31-.76,2.95-.1,4.08-1,.54-2.38-.05-4.45-.27-6.28-.28-2.28.97-4.9-.4-7.32-.8-.55-1.84.03-2.8-1.04.75-.52,1.59-2.12.96-2.22-6.23-.53-12.35.24-18.54.59-.65,1.62-.13,2.79.17,4.07.07.31-.48.53-.48.85l.03,9.54c-.3,1.34-3.4,1.31-3.77.05-1.24-4.32.45-9.98-1.66-10.27l-.22-9.39c-1.6-.14-2.99.07-4.22.17-.37-2.83-.39-5.78-.32-8.98-1.3-.73-2.87-.03-4.35-.66-.52-2.51.69-5.69-1.65-6.84,1.33-2.26.31-5.85-.09-8.07-.28-1.53,2.24-4.93-.43-6.13-1.72-.77-5.57-1.06-7.38-.85,1.83-1.55,1.43-3.72,1.84-5.69,2.24-10.76,1.18-22.13,1.71-33.29,1.54.16,2.94.54,4.47.1Z"/>
          <path class="cls-57" d="M195.75,328.73l.12-6.26,20.26-3.33.04,7.21c-6.83,1.23-13.63,2.04-20.43,2.38Z"/>
          <path class="cls-87" d="M195.87,322.47l-.12,6.26c-1.17.06-3.55.75-4.69-.33-1.42-1.33-.31-4.14-.17-5.71,1.97-.26,3.39-.21,4.98-.23Z"/>
        </g>
        <path class="cls-80" d="M75.79,319.66c-3.39-.58-6.43-.16-9.63-1.15.18-3.99-.6-8.4.81-11.94.74-1.87.62-4.34,1.62-6.14,1.19-2.14.91-3.93,1.37-5.8l2.38-9.7c1.09-.39,2.08-.39,3.07-.87.47-2.25.15-4.52.52-6.71l1.15-6.66c.18-1.07,2.94-.26,3.4-.97,1.05-1.63-.2-6.32,2.92-8.04.85.12,1.78.2,2.85-.26,1.42-.61.21-4.14,1.99-3.68s-1.02,1.43,4.25,3.38l-.22,15.64c-1.73.73-3.24.73-4.6,1.47-.34,2.41.05,4.37-.5,6.56-1.38.62-2.64.21-4.38.56.21,6.84.16,13.56-.43,20.45l-6.97.39c-.76.04-.93,2.19-.3,2.47l5.89,2.55c.58.25.74.8.76,1.17.12,1.87-4.17-.68-4.67,2.21-.34,1.98-.21,3.74-1.29,5.1Z"/>
        <g>
          <path class="cls-14" d="M102.12,284.09c.36,2.53-.73,5.53.45,7.81.64,1.24,1.58,3.7.11,4.88-.96.77-3.97-.82-4.45.98-.61,2.27-.29,5.08-.1,7.17.16,1.72-.4,3.5.1,5.2.2.7-.48,1.58-.02,2.28-1.55-1.85-1.93,7.9-1.94,6.85-.96.2-3.22-.41-3.8.54l-.62,8.43c-1.25.46-2.41.08-3.67.38-.9,3.02-.03,6.24-1.18,9.03-.35.85-1.58,1.43-1.38,2.82.44,3.07-1.01,5.24-2.41,7.6-2.57,4.36-1.22,13.13-5.13,20.27-1.04,1.89-.47,4.13-1.13,5.79-.98,2.5-.83,5.23-1.34,7.73-.33,1.62-.77,3.94-1.72,5.67l-1.81,3.31c-1.08,1.98-2.65,22.83-1.79,18.67-.15.71.46,1.71.08,2.46-.33.64-1.75.08-2.67.32-1.17,3.67-1.6,8.36-3.21,12.07-1.93,4.44-2.47,8.7-2.56,13.18-.24.33-.74.45-1.12.46-.22-.08-.69-.04-.93-.07-.37-.05-.01-.83-.31-1.04-1.27-.86-20.88-6.62-23.48-6.03-.48-.99.19-2.52-.56-3.73-.9-1.45-3.12-1.07-4.43-1.34-.41-.77-.44-1.7-.44-2.72l.03-36.61.62-17.06c2.13-.24,3.47.12,4.93-.35.95-3.72.42-8.05,2.05-11.58,1.03-2.24,1.39,2.74,2.13-8.81,2.18-.05,3.54-.02,5.35-.75-.4-4.13,2.73-7.42,2.76-11.17l.02-2.8c0-.51,1.55-.15,1.7-1.08l1.84-11.61c2.85-.52,2.68-2.59,3.27-4.69.91-3.23,2.73-5.86,2.55-9.74-.03-.63,1.74-1.01,1.99-1.43,1.33-2.2.95-5.36,2-7.67.56-1.23,1.71-1.92,1.18-3.82-.2-.71.07-2.33.96-2.49.69-.12,1.66-.56,2.51-.03.9.56,1.54.69,2.12.8,1.09.19,1.22,1.72,1.29,2.51-.46,1.86-.18,3.65-1.37,5.8-1,1.8-.88,4.27-1.62,6.14-1.41,3.54-.63,7.96-.81,11.94,3.19,1,6.24.58,9.63,1.15,3.09.53,6.39,1.8,9.83.42l1.75-8.54c.64-3.14,6.01-20.91,6.38-28.19,1.71-.53,2.37-1.21,2.64-3.12l1.09-7.64c.85-.15.77.53.67,1.29-.04,3.22.64,6.18,1.17,9.15,1.04.52,2.28.13,2.8,1.05Z"/>
          <g>
            <path class="cls-21" d="M82,338.54c-1.05-.85-3.79-1.03-4.52.4-.64,1.24-.76,3.34-.68,4.66-1.67-.07-3.38-.24-5,.25l-11.04-.08c.18-3.58-.19-7.33.86-10.98l20.24.76.14,5Z"/>
            <path class="cls-1" d="M78.84,322.37c-.08,2.06-.91,4.23-.12,6.2l-16.94-2.05c-.34-2.57-.39-5.12.54-7.45l16.51,3.3Z"/>
            <path class="cls-74" d="M71.79,343.84l.46,6.26c-.45,3.85-3.91.59-5.53,3.26-.48.8-.06,2.07-.75,2.63-.52-.23-1.38.19-1.96-.45-1.26-1.4.2-3.52-.97-4.54-.44-.38-1.96-.05-2.19-.44-1.16-2.03-.19-4.72-.09-6.81l11.04.08Z"/>
            <path class="cls-9" d="M76.08,350.82c-.21,1.98.64,3.94-.1,6.14-3.87.04-7.14.29-10.02-.97.69-.56.27-1.83.75-2.63,1.62-2.68,5.08.59,5.53-3.26l3.24-.24c.18.51.03,1.09.59.96Z"/>
            <path class="cls-40" d="M82,338.54l-.46,10.46c-1.53.74-2.77.13-3.99.46-.88-.93-.57-2.76-.75-5.86-.08-1.32.04-3.42.68-4.66.74-1.43,3.47-1.24,4.52-.4Z"/>
            <path class="cls-105" d="M78.73,328.57c-.8-1.96.04-4.13.12-6.2,2.51.5,5.43-.52,8.01.72.22,2.02.04,3.98-.53,6.07-2.81-.07-5.26.05-7.6-.59Z"/>
            <path class="cls-53" d="M76.79,343.6c.18,3.1-.12,4.93.75,5.86-.47.13-1.09-.13-1.3.46-.09.25.12.66-.17.91-.56.13-.41-.45-.59-.96l-3.24.24-.46-6.26c1.62-.49,3.33-.32,5-.25Z"/>
          </g>
        </g>
        <path class="cls-54" d="M173.88,231.74c.04,1.05,1.37,2.3.71,3.32-.45.69-.28,1.81-.44,2.49-1.76,2.6-10.23-.73-8.55,3.56l-4.23,1.14c-.07.99.14,3.87-.9,4.14-3.51.92-6.53-.1-9.35,1.02-1.89.75-4.58-.89-6.85.18l-.33,4.09c-3.68-.39-11.46,1.28-16.43-.5.42-.92,1.06-3.77-.02-3.94-4.77-.74-9.29.57-13.81-1.16-1.27-.49-.52-2.91-.8-4.25-1.84-.03-3.55-.34-4.99-.31-.22-1.38.96-8.63,1.36-10.28,1.19.23,3.36-.54,3.84,1.25.25.91-.05,1.9.62,2.44.51.42,1.24-.17,2.02,0,8.42,1.93,16.56,3.68,25.14,4.94,4.62.68,8.81.14,13.23-1.24l11.9-3.69c2.77-.86,5.04-3.83,7.86-3.21Z"/>
        <path class="cls-7" d="M175.77,341.21c-1.36,12.1-.36,24.69-.31,37.41l.2,47.79c.03,7.18-5.68,6.36-9.64,7.69.08-5.5-1-11.1-.65-16.6.6-9.19.23-18.25.16-27.94l-.46-64.23c-2.15-1.81,10.75,6.06,4.93,4.41,6.96,8.04,3.73,1.04,5.76,11.47Z"/>
        <path class="cls-30" d="M162.87,417.27c-1.53-.23-3.42.36-5.16-.54-.94-.49-.19-2.49-.31-3.33,2.34-.6,5.38-1.19,7.42-.18.04.99.14,2.77-.24,3.46-.24.44-1.58-.51-1.71.6Z"/>
        <g>
          <path class="cls-28" d="M179.34,473.54c-.02-2.2-.83-4.74-1.43-6.8,2.27-1.68.12-4.74,1.1-7.38l7.79-.85c3.61-.39,6.95-1.6,10.68-1.32l.51,26.24-12.56.63-1.1-10.22c-2.02.09-3.49.04-5-.3Z"/>
          <g>
            <path class="cls-77" d="M203.76,445.84l.6,41.6c1.89.41,3.34-.08,4.9.54l.93,5.67,4.53.67c1.11,5.86,1.09,11.57.7,17.42l-20.63-.05c-2.11,0-3.07-2.05-4.71-2.75-3.44-1.45-7.02-.68-10.51-1.46l-.23-33.92c1.51.34,2.98.39,5,.3l1.1,10.22,12.56-.63-.51-26.24c-3.73-.28-7.07.93-10.68,1.32l-7.79.85c-.97,2.64,1.17,5.7-1.1,7.38l-4.38-.47c-.72-4.3-.55-8.37-.8-13-1.8-.91-3.72-.03-5.74-.53-.52-2.29-.36-4.4-.38-6.4,3.27-.22,6.61-.49,9.9-.43,8.88.16,17.75-.62,26.84-1.17.23.7.36,1.07.42,1.09Z"/>
            <path class="cls-112" d="M207.69,503.33c-2.95.76-14.71,1.73-16.97.09-.5-1.82.12-3.65-.97-5.05-.45-.43-1.76-.1-2.16-.71-1.08-1.63,1.46-3.19.83-4.11-.66-.97-1.42-.28-2.25-.14-1.37.22-.98-1.79-.93-2.64.21-3.81,12.86-2.78,15.71-2.73l.76,5.53,5.87.54c1.16,3.5.11,4.93.12,9.23Z"/>
          </g>
          <g>
            <path class="cls-29" d="M107.89,446.49c1.51.98,1.45,5.33.04,6.3-1.14.79-3.08-.44-3.83.82-.49.82-1.83-.65-2.65-.61-8.4.4-17.19-1.03-21.67-.51-.66.08-.52,1.7-.07,2.02,1.51,1.1,4.73,1.52,5.5,2.8-1.71,1.78-2.83-.84-4.73.4-1.73,1.13-.86,21-1.92,26.03l13.74.29c-.65-2.59.62-4.78.53-7.14l-.36-9.78c-.1-2.73.34-5.32.1-7.79,1.44-.04,3.23-.45,5.16-.09,1.07,2.06.21,4.38.28,6.65.06,1.88.58,3.49.45,5.12-.9,11.92-.33,23.83-.58,36.48-3.28.6-6.31.45-9.73.68-.39,3.03-2.73,3.87-5.42,3.83l-20.67-.32c-.17-3.52-.1-5.83-.03-8.29l5.1-.12c-4.72.11,16.91,1.08,15.53.65,1.09-4.13-.87-4.91,1.95-7.31.52-.45,1.67.61,2.32.17,1.36-.9.36-2.97,1.17-4.11.47-.67,1.79-.69,1.72-1.42-.04-.45.34-1.62-.24-1.83-4.43-1.58-9.28-1.83-13.92-.95-.77.86-.11,2.83-.09,3.89.04,1.69-6.64,2.95-7.21.02-.18-1.12-.42-3.22.42-4.24l4.88-.9.54-41.41c0-.67.54-.99.9-1.24,10.89.73,21.85,2,32.8,1.88Z"/>
            <path class="cls-13" d="M104.1,453.61c.55,5.63.03,11.37-.97,17.16-2.09-.11-3.44-.37-4.67.24.12-1.63-.4-3.24-.45-5.12-.07-2.27.79-4.59-.28-6.65-1.93-.37-3.72.04-5.16.09-1.11-.29-6.92-2.47-7.35-2.01-.77-1.29-3.98-1.71-5.5-2.8-.44-.32-.59-1.94.07-2.02,4.48-.53,13.27.91,21.67.51.82-.04,2.16,1.43,2.65.61Z"/>
            <path class="cls-52" d="M67.36,494.04c1.56,2.65-.54,6.15-.24,9.23l-5.1.12c.07-2.8-.73-6.09.85-8.93.97-.84,3.42-.44,4.48-.42Z"/>
            <path class="cls-38" d="M92.55,459.33c.24,2.46-.2,5.06-.1,7.79l.36,9.78c.09,2.36-1.18,4.55-.53,7.14l-13.74-.29c1.06-5.03.19-24.91,1.92-26.03,1.9-1.24,3.02,1.38,4.73-.4.44-.45,6.25,1.73,7.35,2.01Z"/>
            <g>
              <path class="cls-76" d="M67.12,503.27c-.3-3.09,1.79-6.58.24-9.23.62-.41.19-1.47,1-1.66.57,2.92,7.25,1.67,7.21-.02-.02-1.06-.68-3.03.09-3.89,4.64-.87,9.48-.62,13.92.95.58.21.2,1.38.24,1.83.07.73-1.25.76-1.72,1.42-.8,1.14.19,3.22-1.17,4.11-.66.43-1.8-.62-2.32-.17-2.82,2.4-.86,3.19-1.95,7.31,1.37.43-20.26-.55-15.53-.65Z"/>
              <path class="cls-42" d="M69.53,499.46c-2.05.15-1.92-1.32-.33-1.18,1.61-1.05,5.92-1.34,5.95,1.31.02,1.88-4.78,1.81-5.62-.13Z"/>
            </g>
          </g>
        </g>
        <path class="cls-36" d="M144.01,261.51c-.8.95-.08,2.07-.07,3.32l.12,19.95-4.69.41c-.25,2.29-.12,4.29-.69,6.56l-16.51.42c-2.04.05-3.66.3-5.21-.55-1.07-.58-2.71-.43-3.88-.39.04-.34-.1-.68.04-.88.24-.36.66-.65,1.4-.4s.69-1.01.5-1.43c-.25-.54-4.1.41-4.08-2.88-.87-.68-2.26-.1-3.11-.85-1.44-1.29-.82-3.61-1.21-5.29-1,.19-1.83.21-2.6.18l-.42-26.3c3.8.04,7.31-1.24,10.77-.34.39.82-.05,2.41.99,2.53.01,0,8.24-1.32,13.15,1.02,1.49.71,2.13,3.39,4.76,3.69l10.76,1.21Z"/>
        <path class="cls-114" d="M144.05,284.79l-.12-19.95c0-1.25-.73-2.37.07-3.32l5.36-.25c1.4-.06,3.11-1.19,4.89-1.24,1.07-.03.2-2.4.24-2.9,3.29-1.23,6.83-1.35,10.66-1.83.62-.08.5-1.68,1-1.84.57-.18,3.77-.3,4.05-.19,1.36.55-.43,14.22-1.07,16.73-.47,1.83-1.94,3.45-1.98,5.79-.11,6.76-7.52,0-12.85,5.76-2.63,2.84-6.85,2.94-10.24,3.24Z"/>
        <path class="cls-65" d="M113.07,291.24c-3.05.09-6.11.54-9.15.27l-1.01-7.44c.76-1.21-.02-3.32,1.08-4.38.77.03,1.6,0,2.6-.18.39,1.67-.23,4,1.21,5.29.85.75,2.24.18,3.11.85-.01,3.29,3.83,2.34,4.08,2.88.19.41.24,1.68-.5,1.43s-1.16.04-1.4.4c-.14.21,0,.55-.04.88Z"/>
        <path class="cls-62" d="M193.84,256.5c.65-.23,1.56.05,2.57.05.37,2.55.34,4.76.53,7-.96-.23-1.86-.07-3.15.4-1.05.38-1.36-1.73-1.98-1.91-2.31-.66-4.25-1.59-6.19-2.56.5-1.65.55-3,.1-5.09-.31-1.43,1.78-1.3,2.68-1.08.68.16,1.26.78,1.73,1.72.85,1.72,2.2,2.01,3.73,1.47Z"/>
        <path class="cls-12" d="M151.13,247.4c-.16,1.32.46,2.62-.08,4.22-2.52.5-4.91.29-7.1.06l.33-4.09c2.27-1.08,4.96.57,6.85-.18Z"/>
        <g>
          <path class="cls-44" d="M179.14,304.21c.4,2.21,1.41,5.81.09,8.07l-23.4,1.72c-3.4.25-1.94-6.11-4.32-9.11,10.97.64,18.39-.94,27.64-.68Z"/>
          <path class="cls-108" d="M103.92,291.51c-.27,1.29.06,3.21.33,5.06,6.83.68,13.37.89,19.92,1.14,1.94.08,3.89.05,5.82.26-.86,2.05-.35,4.42-.55,6.9l-20.47-.34c-.51-.74-12.83-2.06-10.85.39-.2-2.09-.51-4.9.1-7.17.48-1.8,3.49-.21,4.45-.98,1.47-1.18.53-3.63-.11-4.88-1.17-2.28-.09-5.28-.45-7.81.25-.29.52-.23.8-.02l1.01,7.44Z"/>
          <path class="cls-92" d="M130.49,312.72l-.1,2.51c-4.66-.47-1.33-.37-6.92-1.27-8.34-1.35-16.87-.66-25.27-1.56-.46-.7.23-1.58.02-2.28,10.53-.09,17.49,1.99,28.45,2.1,1.35.01,2.68.92,3.81.51Z"/>
          <path class="cls-59" d="M135.66,317.77c2.21.8,4.57.42,7.32.38,1.62-.02,1.11,2.67.75,3.6-1.05,2.72-4.8-1.11-5.06,3.48-.47.44-.88.58-.76.76.2.33.56.7.76.63.22-.08.5-.42.93-.43l-.65,35.8c-.4.49-.7-.1-1.11-.15v-3.38s-8.69-.19-8.69-.19c-.04-3.8.01-7.73.11-11.55l.69-28.15c.01-.52.77-1.28.03-1.65-.38-.19-.19-1.3.52-1.08.22.54.02,1.48.68,1.91,1.61,1.06,3.29-.42,4.48.01Z"/>
          <path class="cls-110" d="M144.67,350.05l.08,9.74c.74,1.01-.76,1.97-.77,2.67-1.65-.49-3.56.69-5.03-.46l.65-35.8c.63-.38,3.58-.86,3.61.24l.56,21.78c.02.93.17,1.66.91,1.83Z"/>
          <path class="cls-32" d="M135.66,317.77c-1.19-.43-2.87,1.04-4.48-.01-.66-.43-.46-1.37-.68-1.91-.14-.19-.12-.39-.12-.61l.1-2.51c.08-2.23-.21-4.37.42-7.06,3.98-.63,8.38-1.53,12.11-.35,1.19.72,1.45,4.31-.08,4.8-2.28.72-4.54.19-7.3.71.02,2.56.48,4.79.04,6.95Z"/>
          <path class="cls-66" d="M144.75,359.79l-.08-9.74c0-2.43.78-4.89.49-7.66-.31-2.95-.41-5.67.06-8.6,1.92-.22,3.64-.24,5.58.04-.4,1.81.17,3.14.18,4.71l.14,28.07-4.96.04c-2.31-2.79.45-7.51-1.42-6.86Z"/>
          <g>
            <path class="cls-50" d="M171.33,297.22c1.81-.2,5.66.08,7.38.85,2.67,1.2.15,4.6.43,6.13-9.25-.25-16.66,1.33-27.64.68,2.38,3,.93,9.36,4.32,9.11-.77,1.73-.14,3.71-.06,5.8l1.14,29.08c.36,9.06.85,17.73.47,26.56-5.77-1.26-1.78,6.87-3.44,11.35-2.33-.23-1.43,3.63-1.47,5.5-.34.22-.64.04-.94-.08-.44-.18-1.02-4.55,1.41-6.62-.14-5.55,1.07-4.67.42-9.74l-6.02.21c-4.2.14-2.07-1.64-3.4-10.03-.15-.93.5-2.28.02-3.55.01-.7,1.51-1.66.77-2.67,1.86-.64-.89,4.08,1.42,6.86l4.96-.04-.14-28.07c0-1.57-.59-2.9-.18-4.71-1.95-.28-3.66-.26-5.58-.04-.47,2.92-.37,5.65-.06,8.6.29,2.77-.5,5.23-.49,7.66-.74-.17-.88-.9-.91-1.83l-.56-21.78c-.03-1.1-2.98-.62-3.61-.24-.43,0-.71.35-.93.43-.2.07-.56-.3-.76-.63-.11-.18.3-.32.76-.76.26-4.59,4-.76,5.06-3.48.36-.94.87-3.63-.75-3.6-2.75.04-5.1.42-7.32-.38.44-2.16-.01-4.39-.04-6.95,2.77-.52,5.03.01,7.3-.71,1.53-.49,1.27-4.07.08-4.8-3.73-1.18-8.13-.28-12.11.35-.63,2.69-.33,4.83-.42,7.06-1.13.41-2.46-.49-3.81-.51-10.96-.11-17.92-2.18-28.45-2.1-.5-1.69.07-3.48-.1-5.2-1.98-2.45,10.33-1.12,10.85-.39l20.47.34c.2-2.48-.3-4.85.55-6.9,10.26,1.13,20.61-.37,30.94-.27,3.11.03,7.81-.2,10.38-.49Z"/>
            <path class="cls-27" d="M143.95,313.05c.59,1.33.06,2.5-.78,2.83-.9.36-1.98.11-2.57-.89-.65-1.09.77-1.58,1.06-3.36.56-.61,1.95.63,2.29,1.41Z"/>
          </g>
        </g>
        <path class="cls-20" d="M113.07,291.24c1.17-.03,2.81-.19,3.88.39-.7,1.19.13,2.15.56,3.46.68,2.1,5.62-.29,6.67,2.62-6.55-.26-13.09-.47-19.92-1.14-.28-1.85-.6-3.78-.33-5.06,3.04.27,6.1-.18,9.15-.27Z"/>
        <path class="cls-96" d="M212.06,344.03l-.19,6.05c-2.19.68-4.09,1.37-6.21,1.72-.47.08-.8-1.25-.84-1.49,1.01-1.72.7-4.14.17-6.02,2.33-.35,4.72-.09,7.07-.26Z"/>
        <g>
          <path class="cls-46" d="M97.48,272.6l-1.09,7.64c-.27,1.91-.93,2.59-2.64,3.12-.37,7.28-5.74,25.05-6.38,28.19l-1.75,8.54c-3.43,1.38-6.74.1-9.83-.42,1.08-1.35.96-3.12,1.29-5.1.49-2.89,4.79-.34,4.67-2.21-.02-.37-.19-.92-.76-1.17l-5.89-2.55c-.63-.27-.45-2.42.3-2.47l6.97-.39c.59-6.88.64-13.61.43-20.45,1.74-.35,3,.06,4.38-.56.55-2.19.16-4.14.5-6.56,1.36-.75,2.87-.74,4.6-1.47l.22-15.64c-5.27-1.95-2.51-2.94-4.25-3.38s-.57,3.07-1.99,3.68c-1.08.47-2,.39-2.85.26.92-5.94,3.91-4.98,3.88-9.05,0-1.2,1.25-2.4,2.46-2.56,2.65-.35-2.07-3.41,8.56-3.68.17,6.86.4,13.5-.28,20.37-.21,2.09-1.12,4.06-.56,5.86Z"/>
          <path class="cls-39" d="M92.1,258.21c-.67-.59-2.1-2.22-1.41-3.24.55-.82,2.29-.16,2.31.5.03,1.03.31,2.04-.9,2.74Z"/>
        </g>
      </g>
      <g>
        <path class="cls-104" d="M190.67,19.34c-.31.52.06.69.52.52-.11,1.49-.44,3.07,0,4.52-.95,1.89-2.37,4.81-2.24,7.3,1.09,3.14,1.96,6.28,2.38,9.5.18,1.35-1,3.99.56,5,.97.63,3.55-.6,4.06.85,1.17,3.31-.3,7.36,1.08,10.41.91.43,3.03.05,3.61.68.7.76.73,2.15.75,3.25l.42,25.12-.27,9.98c-2.12.1-3.55.16-5.5-.11-.95-2.17-.57-5.66-2.02-7.6l-3.89-2.45c-5.39-3.4-9.76-1.96-9.6-7.23-1.82-.93-3.7-.76-5.68-1.44.26-2.78-1.36-3.4-3.5-4.26l-4.03-1.64c-7.55-3.07-14.73-5.21-22.97-5.03-.55,2.59-.5,5.04.03,7.9,5.92-.14,11.32,1.89,15.67,5.03-.78,5.36,7.72-1,10.93,3.2.93,1.22,2.28,1.78,3.61,2.14,1.06,1.78.24,3.98,1.11,6.24,3.06-.99,4.74.59,6.83,2.09,3.43,2.46,7.95,2.8,12.11,4.18,1.06,1.2.24,3.4,1.3,4.38s3.18.59,4.79,1.16c.45,2.08,1.04,10.74-1.03,11.45-1.18.4-2.8,1.08-3.65-.34-.22-.37-.06-1.17-.33-1.39-1.57-1.28-3.82.95-5.65-1.48-.71-.94-.86-2.46-.2-4.23-2.11-.56-4.32-.35-6.27.09-.89.2-1.77-.1-2.66-.15-.98-1.46,0-3.99-.42-5.44-1.51-1.84-4.47-.19-6.02-.3-1.79-.12-4.69-.36-6.49-1.03l-.07-4.8c-.03-1.84-5-.52-8.44-1.26-5.54-1.19-11.34-.21-17.14-.91-2.83-.34-5.62.71-8.35.12-.58-.13-1.08-.71-1.82-.5-.5.14-1.78.2-1.19,1.2l-.47.06c-4.7-.78-15.12.42-21.01.85-.5,1.89.01,3.69-.24,5.75l-10.93.58c-.18,2.2-.03,4.19-.62,5.98-1.62,4.91,2.16,2.62-5.99,6.86-.74.39-2.86-1.19-3.12.7-.2,1.5-1.5,2.66-.82,3.86-.35.38-1.6.79-1.7,1.39-.55,3.35-2.7,5.27-5.46,6.39-.81,1.08-1.66,3.27-1.91,4.53-1.19-.27-2.36.1-3.5.59-1.07.47-2.88,7.09-2.89,8.53l-.25,36.87,5.03.28.02,6.5c1.96.23,3.6-.14,5.44.32l.12,5.83c1.49.46,2.79,0,4.29.26.62,1.74.14,3.5.59,5.39,1.56.48,3.26.19,5.04.44.34,1.95-.13,3.65.48,5.46,1.94.1,3.63-.19,5.35.36.25,1.81-.07,3.52.3,4.97-.48.51-1.07,1.33-1.83,1.47.78.57.78,1.02.08,1.01-3.35-.05-6.78-.05-10.41-.63l-.37-5.88-4.69-.45-.1-5.41c-1.57-.69-3.83.47-5.06-.72-1.12-1.26.26-3.55-.67-5.02-2.15-.58-4.15-.38-5.93-.03-.4.08-.82,0-.64-.52-.11-1.63,1.16-4.16-.36-5.59-1.31-1.23-3.94-.31-5.45-.35-.37-.58-1.23-.93-1.81-1.31.82-1.47.27-3.14-.31-5.03l-3.69-.22c-1.39-1.87-.74-3.72-1.16-5.66l-.87-4.02.26-61.3.64-41.42c.03-1.67,1.77-1.67,2.91-2.09l2.33-9.63c.32-1.34,2.53-1.83,3.38-2.97.96-1.3.06-4.08,1.35-4.88,1.91-1.18,1.71-2.72,1.52-4.29-.04-.32-.16-.66-.16-.97,0-.35.34-.66.69-.4,1.17-.08,4.18.46,4.87-.95.98-2,.61-4.74.91-6.8,1.83-.39,3.87.25,5.92-.73.05-2.19-.38-4.43.75-6.37l5.35-.39c.57-1.88.61-3.83.32-5.54.24-.07.48-.24.55-.48,1.53.68,4.55.38,5.64-1.08,4.39-5.92,8.23-4.8,14.23-7.17,1.2-.47,1.87-3.1,4.31-2.85,2.22.22,23.42-11.05,54.23.2,1.51.55,3.87-.16,4.64,1.71.33.8.3,1.43.56,1.72.45.53,1.21.08,1.9.25l8.21,2c.29,1.21-.18,2.76.34,3.77,2.83,1.91,6.45,1.77,9.55,1.56Z"/>
        <path class="cls-102" d="M204.91,32.11c1.52.86,3.27.93,5.16,1.62-.44,1.72,1.57,7.3,1.68,7.34.27.09.71.15,1.02.2.06.94-.85.22-1.71.52l.96,9.73c1.63.13,2.87-.24,4.18.21l1.32,12.18c1.21.61,3.43.91,4.16-.04.37.37,1.09.48,1.26,1.02-.47.35-1.01.32-1.22.65-.4.63.1,1.39.11,2.1l.38,27.21.12,52.18c.01,4.98-1.07,10.08-.14,14.76,1.68,8.5-1.61,5.36-1.77,16.07-1.54.6-2.86.56-4.57.95.92,1.71-.08,2.64-.79,3.85-.65,1.11-1.81,1.13-3.68,1.46,1.35.55-1.69,6.88-5.25,6.19-.75-.14-1.55-.2-2.29.08-1.26.47-1.75,6.48-1.25,5.08-.42,1.18-2.46.18-3.28.53-1.28.55-2,3.5-2.06,4.77-.09,2.17-1.8,0-6.1,2.12-1.16.57.78,6.48-1.53,6.57-1.79.07-3.9.82-4.66-.11-.42-1.25-1-.11-2.09-.07-.31-.5-1.1-.71-1.4-.72-.35,0-.36.21-.84.51-.08-1.89-2-.55-1.63-1.68,1.05-1.59.11-3.66.77-5.58l5.11-.4.51-5.28,5.79-.51.29-5.08,4.38-.59c.48-2.08.58-3.93.58-6.01,1.4-.42,2.48-.1,4.44-.24l.39-6.47,5.48-.05c.13-13.33,4.28-27.14.53-39.78l-1.58-5.32c-.36-1.22-3.55-.81-4.48-.53.76-1.21-4.27-2.12-3.63-5.37.1-.48,1.11-.22,1.5-.46l1.93-.44c1.9-.43,4.01.37,6.62-.19l-.43-38.27c-1.95-.79-3.68-.1-5.37-.34l-.42-25.12c-.02-1.1-.04-2.49-.75-3.25-.58-.63-2.7-.25-3.61-.68-1.39-3.05.09-7.1-1.08-10.41-.51-1.45-3.09-.22-4.06-.85-1.56-1.01-.38-3.65-.56-5,5.22.2,2.13-6.83,6.5-9.15,2.29.76,4.86,1.14,7.08.07Z"/>
        <path class="cls-61" d="M222.94,64.89c.16-.49.43-.37.73-.07,3.76-1.26,3.75,18.02,3.77,21.06l.74,82.89c-2.02,1.05-3.94.18-6.16.83.1,3.34-.09,6.08-.45,9.28-1.16-.74-2.32.37-3.44.7-1.25.37.19,4.3-2.91,4.6-.85,1.96-.06,4.13-.66,6.28-1.89.62-4.24-.47-5.63.79-1.09.98-.31,3.13-.55,4.78-1.74.95-3.62.1-5.44.82-.44,1.92.17,3.69-.65,5.19-1.35.3-3.78-.33-4.1,1.29-.2.98.47,1.91.04,2.78-.67,1.35-2.21-1.1-3.46,6.01-1,.6-1.95.69-2.81.97-.61.2-.62.34-.7,1.03s.4.96.81.88c.62-.12,2.13-.2,2.54.58.88,1.64.34,3.51.46,5.07l-4.02-.61c-1.43-.22-2.19-2.4-3.93-1.97-1.38,4.71-1.9,2.46-2.7,3.51-.51.67-.08,3-.59,3.85-1.04,1.73-6.21-1.25-7.27,1.91-6.7-.12-.13,1.77-9.13,1.07-3.56-.28-.73-6.49-1-6.19-.52.57,6.95-2,8.13-1.28,1.83-1.88-.29-5.57,1.94-5.26,1.09.29,2.36-.04,3.93.09.38-1.98.26-5.05.19-6.65.47-.3.49-.51.84-.51.3,0,1.09.22,1.4.72,1.1-.03,1.67-1.18,2.09.07.76.93,2.87.18,4.66.11,2.31-.09.37-6,1.53-6.57,4.3-2.13,6.01.05,6.1-2.12.05-1.27.77-4.22,2.06-4.77.82-.35,2.86.65,3.28-.53-.5,1.4-.01-4.61,1.25-5.08.74-.28,1.55-.23,2.29-.08,3.57.69,6.6-5.64,5.25-6.19,1.87-.32,3.02-.35,3.68-1.46.71-1.21,1.72-2.14.79-3.85,1.7-.39,3.02-.35,4.57-.95.17-10.7,3.45-7.57,1.77-16.07-.93-4.68.15-9.78.14-14.76l-.12-52.18-.38-27.21c-.01-.72-.51-1.47-.11-2.1.21-.33.75-.3,1.22-.65Z"/>
        <path class="cls-86" d="M67.87,41.85c.19,1.57.39,3.11-1.52,4.29-1.29.8-.39,3.59-1.35,4.88-.84,1.14-3.05,1.63-3.38,2.97l-2.33,9.63c-1.13.42-2.88.42-2.91,2.09l-.64,41.42-.26,61.3c-1.4.43-2.58.44-3.55-.54-1.09-1.09-1.52-2.15-1.51-3.97l.49-74.69.43-13.84c-.06,1.87,1.69-13.47,1.88-10.21-.22-3.65,4.17-2.98,4.17-12.31l4.33-.96.77-6.73c.19-1.67.91-2.99,1.76-3.47,1.22-.68,2.74-.29,3.6.14Z"/>
        <path class="cls-24" d="M190.67,19.34c-3.09.21-6.72.35-9.55-1.56-.51-1.02-.05-2.56-.34-3.77l-8.21-2c-.7-.17-1.45.28-1.9-.25-.25-.29-.23-.92-.56-1.72-.77-1.87-3.13-1.16-4.64-1.71-30.81-11.25-52,.02-54.23-.2-2.44-.25-3.11,2.38-4.31,2.85-6,2.37-9.83,1.25-14.23,7.17-1.09,1.46-4.11,1.76-5.64,1.08l-.26-1,.98-1.36c.49-.69.33-1.61.5-2.14.24-.77,2.28-.07,2.95-.34,6.1-2.39,10.35-6.94,14.79-7.82,2.88-.57,13.54-6.08,16.86-5.16.71.2,1.89-1.16,3.16-1.17L144.75,0c7.16-.09,19.96,3.09,25.47,6.33,2.57,1.51,6.04,1.59,8.64,3.33,3.36,2.23,6.18,4.86,10.8,4.75.76,2.05.68,3.42,1,4.93Z"/>
        <path class="cls-20" d="M222,62.46c.04.46-.15.99-.33,1.41-.73.94-2.95.65-4.16.04l-1.32-12.18c-1.31-.45-2.54-.07-4.18-.21l-.96-9.73c.86-.3,1.77.42,1.71-.52.73.13,2.54-.43,2.92.81.87,2.83.45,5.83,1.01,8.72l4.46.74.85,10.92Z"/>
        <path class="cls-49" d="M197.03,25.21c-.27.7.33.61.79.57.51,2.05-.1,4.16,0,6.26-4.37,2.31-1.28,9.34-6.5,9.15-.42-3.22-1.3-6.36-2.38-9.5-.13-2.49,1.28-5.41,2.24-7.3-.68,1.64,5.83,1.07,5.85.83Z"/>
        <path class="cls-115" d="M74.18,32.73c.19-1.33.28-2.86.64-4.47.63-2.89,4.17-1.45,5.04-2.63,1.08-1.54.46-4.11,2.26-5.05,1.31-.68,2.8-.41,4.4-.88.29,1.72.26,3.66-.32,5.54l-5.35.39c-1.12,1.94-.69,4.18-.75,6.37-2.05.98-4.1.34-5.92.73Z"/>
        <path class="cls-23" d="M204.91,32.11c-2.22,1.07-4.79.69-7.08-.07-.11-2.1.5-4.2,0-6.26,1.92-.14,3.86-.19,5.93.36l1.15,5.97Z"/>
        <path class="cls-93" d="M69.15,190.64c-1.63-.07-4.54.71-5.89-.47-1.23-1.06-.71-4.37.08-5.48,1.51.04,4.15-.87,5.45.35,1.52,1.43.25,3.96.36,5.59Z"/>
        <path class="cls-5" d="M197.03,25.21c-.02.24-6.53.82-5.85-.83-.43-1.46-.1-3.03,0-4.52,1.68-.1,4.64-.82,5.94.52.96.99.93,4.13-.1,4.83Z"/>
        <path class="cls-115" d="M68.41,40.49c.45-1.46-.22-3.42.61-5.16.88-1.87,3.58-2.25,5.17-2.59-.29,2.07.07,4.8-.91,6.8-.69,1.41-3.7.87-4.87.95Z"/>
        <path class="cls-73" d="M57.53,178.13l3.69.22c.58,1.89,1.13,3.57.31,5.03-1.13-.4-3.07-.09-4.19-1.1-.98-.88-.71-2.86-.9-3.96.15-.23.82,0,1.08-.2Z"/>
        <path class="cls-2" d="M223.67,64.82c-.3-.29-.57-.41-.73.07-.18-.54-.89-.65-1.26-1.02.18-.42.36-.95.33-1.41.61.06,1.33.05,1.61.44.5.7.29,1.33.05,1.92Z"/>
        <path class="cls-18" d="M78.74,130.99l-.67,31.54c1.29.99,2.74.3,3.43,1.29l.63,5.23c.18,1.53,3.41.36,4.5.73s2.51,1.13,4.2.99l.27,6.21,5.18.3.34,5.83c2.44.13,4.36.21,6.24,1.07.64,1.37-.63,3.58.65,4.9,1.08,1.12,3.3.38,4.51.61.51.1.71.52,1.24.4.27,1.46-.14,2.8.46,4.43,6.94,1.39,13.6,2.58,20.22,2.43l-.03,18.74,3.87.66c-.26,1.05-.11,2.02.62,2.97,2.24,2.87,7.98,2.19,10.44-1.57l.95-1.44c2.32-3.54,5.06,8.28,4.28-19.35,3.23.45,6.98-.72,10.26-.71,2.16,0,4.44-.36,6.79-.89.62-1.64.04-3.3.91-4.69l7.07-.95.56-6.06c.78.28,1.76-.27,2.58-.16,1.81.24,3.7-.14,6.04-.1.75-1.98.33-3.68.54-5.98l5.92-.44.4-6.75c1.61-.24,4.18.61,5.02-.64,1.11-1.66.08-4.09.66-5.91l4.62-.65-.22-31.46c.93-.28,4.11-.7,4.48.53l1.58,5.32c3.75,12.64-.4,26.45-.53,39.78l-5.48.05-.39,6.47c-1.95.13-3.04-.18-4.44.24,0,2.08-.1,3.92-.58,6.01l-4.38.59-.29,5.08-5.79.51-.51,5.28-5.11.4c-.67,1.92.27,3.99-.77,5.58-1.25.38-3.36-.3-4.36,1.11-.58.82-.09,2-.94,2.1-2.09.25-5.28.41-6.08,1.01-.53.41-.51,1.94-1.06,2.61l-10.87,1.32c-.25,2.02.16,3.8-.36,5.5-2.55.45-4.71,0-6.87.77-.51,1.32.13,3.49-.98,4.27-1.4.99-3.35-.18-4.5.75-.68.56-.2,1.9-.24,2.49-1.25-.24-2.27.44-3.48.74l-.59-3.68-6.87-.27c-.63-1.55-.2-3.17-1.25-4.46l-7.75-.81c-.33-1.75.11-3.33.09-5.42l-13.28-1.03c-.44-1.47.23-3.16-.51-4.43-.68-1.17-2.77-.23-3.74-.78-2.18-1.25-4.2-2.47-6.61-2.41-.37-1.45-.05-3.16-.3-4.97-1.72-.55-3.41-.26-5.35-.36-.61-1.81-.14-3.51-.48-5.46-1.78-.26-3.48.04-5.04-.44-.44-1.9.03-3.66-.59-5.39-1.5-.25-2.8.2-4.29-.26l-.12-5.83c-1.85-.46-3.48-.09-5.44-.32l-.02-6.5-5.03-.28.25-36.87c0-1.44,1.82-8.07,2.89-8.53,1.14-.5,2.31-.87,3.5-.59Z"/>
        <path class="cls-10" d="M201.82,86.5c1.69.25,3.43-.45,5.37.34l.43,38.27c-2.62.56-4.72-.24-6.62.19-1.49-2.14.3-5.98-1.61-6.17.82.09-5.53.18-5.43.77-.27-1.28-2.41-.48-2.89-1.54l-2-4.42c-.48-1.06-2.44.2-3.6.11-3.2-.25-.08-5.46-1.86-6.92,1.95-.44,4.16-.65,6.27-.09-.67,1.76-.51,3.29.2,4.23,1.83,2.43,4.08.2,5.65,1.48.26.21.1,1.01.33,1.39.85,1.42,2.47.74,3.65.34,2.07-.71,1.48-9.36,1.03-11.45-1.6-.58-3.68-.13-4.79-1.16s-.24-3.18-1.3-4.38c-4.16-1.38-8.68-1.72-12.11-4.18-2.09-1.5-3.77-3.08-6.83-2.09-.87-2.26-.05-4.46-1.11-6.24-1.32-.35-2.68-.92-3.61-2.14-3.21-4.2-11.71,2.16-10.93-3.2-4.35-3.14-9.75-5.17-15.67-5.03-.52-2.86-.57-5.31-.03-7.9,8.24-.18,15.42,1.97,22.97,5.03l4.03,1.64c2.14.87,3.75,1.49,3.5,4.26,1.98.68,3.86.52,5.68,1.44-.16,5.27,4.21,3.83,9.6,7.23l3.89,2.45c1.45,1.95,1.07,5.43,2.02,7.6,1.95.27,3.38.21,5.5.11l.27-9.98Z"/>
        <path class="cls-81" d="M139.25,230.08c.38.24.02.76-.38,1.26-5.15.36-10.19.54-15.43-.08-.6-.84-.72-2.04-1.29-2.36-.88-.5-2.42,0-3.25-.41-1.99-.99-3.12-2.66-5.53-2.01-.71-1.75-.47-3.34-.7-5.21l-9.88-.31-.55-4.83c-.15-1.32-3.62.07-4.57-.89-1.58-1.6-.27-4.25-.66-5.95.7.01.7-.44-.08-1.01.76-.15,1.34-.96,1.83-1.47,2.4-.05,4.43,1.16,6.61,2.41.97.56,3.06-.38,3.74.78.74,1.27.06,2.96.51,4.43l13.28,1.03c.02,2.09-.42,3.67-.09,5.42l7.75.81c1.05,1.29.62,2.9,1.25,4.46l6.87.27.59,3.68Z"/>
        <path class="cls-78" d="M130.53,94.11c-.18,1.2.59,3.17-.22,4.33-1.75,2.49-16.85,1.13-20.56,2.44.17,2.38.39,4.77-1.39,5.26-3.48.97-7.19.68-10.62,1.12.59-1.79.44-3.78.62-5.98l10.93-.58c.25-2.05-.26-3.85.24-5.75,5.88-.43,16.31-1.62,21.01-.85Z"/>
        <path class="cls-19" d="M159.51,94.15c.08,1.91-.11,3.9.57,5.71l-19.04-1.33c-1.16-.08-.89-2.76-.78-3.97-3.14-.73-6.35-.91-9.26-.51-.59-.99.7-1.06,1.19-1.2.74-.2,1.24.38,1.82.5,2.74.59,5.52-.46,8.35-.12,5.8.7,11.6-.28,17.14.91Z"/>
        <path class="cls-63" d="M168.02,100.21c-.3.52-.72,0-1.15-.03l-6.79-.32c-.67-1.81-.49-3.81-.57-5.71,3.44.74,8.41-.59,8.44,1.26l.07,4.8Z"/>
        <path class="cls-91" d="M180.95,106.97c-1.85-.11-3.95.45-5.75-.01-.76-1.8-.53-3.79-.69-5.72,1.54.1,4.51-1.55,6.02.3.42,1.45-.56,3.98.42,5.44Z"/>
        <path class="cls-47" d="M91.75,114.13c-2.36,5.68-2.82,3.34-3.94,4.56-.68-1.2.62-2.36.82-3.86.26-1.89,2.38-.31,3.12-.7Z"/>
        <path class="cls-8" d="M178.99,207.41c-.37,1.12,1.55-.22,1.63,1.68.07,1.6.19,4.67-.19,6.65-1.57-.13-2.84.19-3.93-.09-2.98-.78-6.19-.6-9.71-.66l-.94,5.8c-1.52.7-3.5-.12-4.9.76-1.15.99-.22,3.34-1.13,4.9-3.43.22-6.85-.41-10.36.29.05,1.22.76,3.48-.44,4.18-1.5.88-3.74.48-5.57.41-.56-.27-.59-1.55-.71-1.98.04-.6-.44-1.93.24-2.49,1.15-.94,3.1.23,4.5-.75,1.11-.78.47-2.95.98-4.27,2.17-.77,4.32-.32,6.87-.77.52-1.7.11-3.48.36-5.5l10.87-1.32c.54-.67.52-2.21,1.06-2.61.79-.6,3.99-.76,6.08-1.01.85-.1.36-1.28.94-2.1.99-1.4,3.11-.73,4.36-1.11Z"/>
        <path class="cls-106" d="M201,125.3l-1.93.44c-2.64-.92-5.04-2.9-5.12-5.84-.1-.58,6.25-.68,5.43-.77,1.91.2.13,4.04,1.61,6.17Z"/>
        <g>
          <path class="cls-103" d="M160.08,99.86l6.79.32c.82,1.57.64,4.53,2.57,5.6,1.7.94,4.09.76,5.75,1.19,1.81.46,3.91-.1,5.75.01.89.05,1.77.35,2.66.15,1.78,1.46-1.35,6.67,1.86,6.92,1.16.09,3.12-1.17,3.6-.11l2,4.42c.48,1.06,2.61.26,2.89,1.54.08,2.94,2.47,4.92,5.12,5.84-.39.23-1.4-.02-1.5.46-.64,3.25,4.4,4.16,3.63,5.37l.22,31.46-4.62.65c-.58,1.82.45,4.24-.66,5.91-.84,1.26-3.42.4-5.02.64l-.4,6.75-5.92.44c-.2,2.29.21,3.99-.54,5.98-2.34-.04-4.23.34-6.04.1-.78-1.72.31-3.28,1-5.48.48-1.51,2.87-.66,4.35-1.31,1.77-.77,1.45-3.16,1.14-5.16l5.77-2.2c0-1.21-.62-2.65.09-3.3,1.88-1.71-.81-1.37,2.24-4.7.59-.64,1.33-.41,2.78,0-.57-7.25.35-14.44-.96-21.31-.62-3.23.09-6.62-.19-10.8l-17.83-1.47,13.62-3.55c.81-.97.67-3.28.34-4.56-3.39-.04-6.54.11-9.67.38-.72-.59-.33-1.6-.57-2.67-.7-1.13-2.47-.82-3.87-1.18.25-2.92-9.82-4.75-11.69-4.77l-20.09-.13c-.53-1.2-.47-2.12-.72-3.43-10.46.3-5.99,4.42-9.6,4.41-5.38-.01-10.75.39-15.73,2.21-9.47,3.46-17.88.08-24.99,4.89-.46.11-1.62-.04-2.12.45-.73,1.31-.32,2.96,0,4.42,4.66,1.01,9.02,1.38,13.28,3.37-5.8,1-10.72,1.26-16.53,1.37-.51,3.73-1.06,7.7.24,11.12-.93.15-3.48-.66-3.7.52-1.2,6.47-1.3,12.63-2.04,18.69-.21,1.7.13,3.44-1.29,4.52-.69-1-2.14-.3-3.43-1.29l.67-31.54c.25-1.26,1.11-3.45,1.91-4.53,2.76-1.11,4.91-3.04,5.46-6.39.1-.6,1.35-1.01,1.7-1.39,1.12-1.22,1.57,1.12,3.94-4.56,8.14-4.25,4.36-1.95,5.99-6.86,3.43-.43,7.15-.15,10.62-1.12,1.77-.49,1.55-2.88,1.39-5.26,3.71-1.32,18.81.04,20.56-2.44.82-1.16.04-3.13.22-4.33l.47-.06c2.91-.4,6.12-.22,9.26.51-.11,1.21-.38,3.89.78,3.97l19.04,1.33Z"/>
          <path class="cls-37" d="M168.02,100.21c1.8.67,4.69.92,6.49,1.03.15,1.93-.07,3.93.69,5.72-1.66-.43-4.06-.25-5.75-1.19-1.93-1.06-1.75-4.02-2.57-5.6.43.02.85.54,1.15.03Z"/>
          <path class="cls-35" d="M150.07,196.97c.78,27.63-1.96,15.81-4.28,19.35l-.95,1.44c2.32-3.31-10.02-1.65-11.06-1.4l-3.87-.66.03-18.74c6.67-.16,13.45-.91,20.14.02Z"/>
          <path class="cls-33" d="M164.89,188.63c-.33.45,1.08,1.3.74,1.9-1.1,1.9-3.46,1.37-5.2,2.02-.7,1.38.17,2.57-.11,3.71-3.28,0-7.02,1.16-10.26.71-6.69-.93-13.46-.17-20.14-.02s-13.28-1.03-20.22-2.43c-.6-1.63-.19-2.97-.46-4.43.67-.16,50.05,2.56,55.64-1.47Z"/>
          <path class="cls-3" d="M175.66,183.67l-.56,6.06-7.07.95c-.87,1.39-.29,3.05-.91,4.69-2.35.53-4.63.89-6.79.89.28-1.13-.59-2.33.11-3.71,1.74-.66,4.1-.12,5.2-2.02.34-.59-1.07-1.45-.74-1.9,1.49-1.07,2.98-1.76,4.94-2.65s2.95-3.33,5.83-2.31Z"/>
          <path class="cls-95" d="M144.84,217.76c-2.46,3.76-8.2,4.44-10.44,1.57-.74-.95-.88-1.92-.62-2.97,1.04-.25,13.39-1.91,11.06,1.4Z"/>
          <path class="cls-68" d="M86.62,169.79c-1.09-.36-4.31.81-4.5-.73l-.63-5.23c1.43-1.08,1.09-2.83,1.29-4.52,1.03-.08,2.26.28,3.38.44,1.05,1.9-.16,3.66.02,5.53.15,1.6.87,3.08.43,4.51Z"/>
          <path class="cls-79" d="M108.02,189.7c-1.21-.23-3.43.5-4.51-.61-1.28-1.32-.02-3.54-.65-4.9,1.53.7,3.5-1.36,4.59,1.23.59,1.39,1.4,2.3.57,4.29Z"/>
          <path class="cls-51" d="M194.65,140.04c1.31,6.87.39,14.06.96,21.31-1.44-.41-2.19-.63-2.78,0-3.05,3.33-.36,3-2.24,4.7-2.62.53-5.26.31-8.21.47l-.44-5.39c2.92-1.11,6.29.45,8.78-.9,1.77-.96-.5-3.55-.72-4.66l1.44-15.4c1.06.2,2.14-.2,3.21-.13Z"/>
          <path class="cls-58" d="M117.03,149.85c-.23,1.9.19,3.97-.54,5.84-6.64,1.11-13.65.9-20.34-.04-.3-.25-.24-.53-.02-.81,2.24-.3.43-3.85,2.26-4.75.82-.41,1.77-.67,1.82-1.26l.27-2.94c.94.89.31,2.33,1.13,3.63,2.25.85,4.83.61,7.43.17.52-1.97-.69-4.34.42-5.91.75-.65,3.66-.14,4.01.8.52,1.38-.34,3.75,1.55,3.86,1.33.08,1.01,1.44,2.01,1.43Z"/>
          <path class="cls-26" d="M96.14,154.83c-.22.28-.28.56.02.81-1.89-.27-4.37,1.13-6.24-.62-.43-4.24.21-11.4-.62-14.95-.25-1.09-.57-3.85.34-4.5,1.61-1.15,4.02-.47,6.12-.69.13,7.02-.31,13.45.38,19.95Z"/>
          <path class="cls-26" d="M121.5,135.6c-.06.48.38.66.89.82l-.05,19.18c-2.16,1.01-4.07-.22-5.84.07.73-1.87.31-3.94.54-5.84.59-4.77.22-9.59.52-14.56,1.56-.08,2.75.56,3.95.32Z"/>
          <g>
            <path class="cls-116" d="M180.92,120.03c-5.24.45-10.48.51-16.29.55-.59,2.78-.17,5.55-.13,8.46l-4.89.72c-.16,2.23-.03,4.02,0,5.8l.33,20.26c2.36-.01,3.96-.19,5.52.43.56.22,1.44,0,2.04,0,5.64-.04,11.38.72,16.84-.6,1.59-.33,3.97.95,5.67-.08.23,1.11,2.49,3.71.72,4.66-2.5,1.35-5.87-.21-8.78.9l.44,5.39c2.95-.16,5.59.06,8.21-.47-.72.65-.1,2.09-.09,3.3l-5.77,2.2c.31,1.99.63,4.39-1.14,5.16-1.49.65-3.88-.21-4.35,1.31-.69,2.2-1.78,3.76-1,5.48-.81-.11-1.79.44-2.58.16-2.89-1.02-3.96,1.47-5.83,2.31s-3.45,1.57-4.94,2.65c-5.59,4.03-54.96,1.32-55.64,1.47-.53.12-.73-.3-1.24-.4.83-1.98.02-2.89-.57-4.29-1.09-2.59-3.07-.53-4.59-1.23-1.87-.86-3.8-.94-6.24-1.07l-.34-5.83-5.18-.3-.27-6.21c-1.69.14-3.08-.62-4.2-.99.44-1.43-.29-2.92-.43-4.51-.17-1.88,1.03-3.63-.02-5.53-1.13-.15-2.35-.51-3.38-.44.74-6.06.84-12.22,2.04-18.69.22-1.18,2.77-.37,3.7-.52.23-.04.52,0,.76-.02.82,3.55.19,10.71.62,14.95,1.88,1.74,4.35.35,6.24.62,6.68.94,13.69,1.15,20.34.04,1.77-.3,3.68.94,5.84-.07l.05-19.18c-.51-.17-.95-.34-.89-.82.04,0,.42-.02.86-.13.32-1.94.24-3.72,0-5.84-1.64-.35-2.83,0-4.08-.59l-.18-8.19-24.45-1.49c7.12-4.81,15.53-1.43,24.99-4.89,4.98-1.82,10.35-2.23,15.73-2.21,3.62.01-.86-4.1,9.6-4.41.25,1.3.18,2.23.72,3.43l20.09.13c1.87.01,11.94,1.85,11.69,4.77,1.4.36,3.17.06,3.87,1.18.24,1.07-.15,2.08.57,2.67Z"/>
            <path class="cls-11" d="M149.41,178.47l-18.11-.18c-.88-.34-.56-3.64.37-3.64l17.47-.03c.83.69.91,2.48.26,3.86Z"/>
            <path class="cls-41" d="M96.29,160.82c2.36.29.55,4.98.37,5.18-1,1.08-7.6.96-7.96-1.01-.28-1.55-.33-3.92,1.71-4.12s3.98-.28,5.88-.05Z"/>
          </g>
          <g>
            <path class="cls-48" d="M184.91,151.72c-.11,1.24.46,2.87-.58,3.92-5.46,1.32-11.2.56-16.84.6.08-.99-.89-.42-1.14-.7-.5-.55-.07-4.29.06-4.41,2.87-2.62,6.73-.08,11.61-1.56.56-1.21.2-2.63.95-3.58s2.31-.37,3.07-.22c3.02.59.91,6.19,2.87,5.96Z"/>
            <path class="cls-26" d="M191.44,140.17l-1.44,15.4c-1.7,1.03-4.07-.25-5.67.08,1.03-1.05.47-2.68.58-3.92.48-5.49.56-10.9.54-16.82,1.53-.2,4.27-.56,4.94.77.73,1.45-.68,3.76,1.04,4.49Z"/>
            <path class="cls-26" d="M165.46,156.25c-1.56-.61-3.16-.44-5.52-.43l-.33-20.26,5.39-.22c.07,7.39-.08,14.17.46,20.91Z"/>
            <g>
              <path class="cls-99" d="M194.65,140.04c-1.07-.07-2.15.33-3.21.13-1.73-.73-.31-3.04-1.04-4.49-.67-1.34-3.41-.97-4.94-.77.02,5.92-.06,11.33-.54,16.82-1.96.23.15-5.36-2.87-5.96-.76-.15-2.29-.77-3.07.22s-.39,2.38-.95,3.58c-4.88,1.48-8.74-1.07-11.61,1.56-.13.12-.55,3.86-.06,4.41.25.28,1.22-.29,1.14.7-.6,0-1.49.22-2.04,0-.54-6.75-.39-13.52-.46-20.91l-5.39.22c-.03-1.79-.16-3.57,0-5.8l4.89-.72c-.04-2.91-.46-5.69.13-8.46,5.81-.04,11.05-.1,16.29-.55,3.14-.27,6.28-.42,9.67-.38.33,1.28.47,3.59-.34,4.56l-13.62,3.55,17.83,1.47c.29,4.19-.42,7.57.19,10.8Z"/>
              <path class="cls-26" d="M174.01,140.25c-.8,2.09-3.64,2.23-5.33,1.45s-2.39-3.19-1.72-5.8c.54-2.1,5.11-2.67,6.68-.88,1.12,1.28.83,4.03.37,5.23Z"/>
            </g>
          </g>
          <g>
            <path class="cls-60" d="M93.65,119.37l24.45,1.49.18,8.19c1.25.6,2.44.24,4.08.59.25,2.12.32,3.9,0,5.84-.44.11-.83.12-.86.13-1.2.24-2.39-.41-3.95-.32-.29,4.97.07,9.79-.52,14.56-1,.01-.69-1.35-2.01-1.43-1.89-.11-1.03-2.48-1.55-3.86-.35-.94-3.26-1.44-4.01-.8-1.12,1.57.1,3.94-.42,5.91-2.59.45-5.18.68-7.43-.17-.82-1.3-.2-2.74-1.13-3.63l-.27,2.94c-.05.59-1.01.86-1.82,1.26-1.83.91-.02,4.45-2.26,4.75-.69-6.5-.25-12.93-.38-19.95-2.1.23-4.51-.45-6.12.69-.92.65-.6,3.4-.34,4.5-.24.01-.53-.02-.76.02-1.3-3.42-.75-7.39-.24-11.12,5.81-.11,10.73-.37,16.53-1.37-4.26-1.99-8.62-2.37-13.28-3.37-.33-1.46-.73-3.1,0-4.42.49-.49,1.66-.33,2.12-.45Z"/>
            <path class="cls-26" d="M104.62,139.89c-.83,3-5.28,2.82-6.62.71-1.17-1.83-.58-4.08.03-6.02,1.71-.8,4.13-1.38,5.97-.06,1.05.75,1.14,3.51.62,5.37Z"/>
          </g>
        </g>
      </g>
    </g>
  </g>
</svg>