<?xml version="1.0" encoding="UTF-8"?>
<svg id="_レイヤー_2" data-name="レイヤー 2" xmlns="http://www.w3.org/2000/svg" viewBox="0 0 334.8 512">
  <defs>
    <style>
      .cls-1 {
        fill: #9791a7;
      }

      .cls-2 {
        fill: #fefeff;
      }

      .cls-3 {
        fill: #9795a6;
      }

      .cls-4 {
        fill: #807997;
      }

      .cls-5 {
        fill: #88849a;
      }

      .cls-6 {
        fill: #c2c1ce;
      }

      .cls-7 {
        fill: #a19cac;
      }

      .cls-8 {
        fill: #eff2f5;
      }

      .cls-9 {
        fill: #8d8b9d;
      }

      .cls-10 {
        fill: #9795a9;
      }

      .cls-11 {
        fill: #f2cabf;
      }

      .cls-12 {
        fill: #9693a8;
      }

      .cls-13 {
        fill: #9a95a8;
      }

      .cls-14 {
        fill: #9794a8;
      }

      .cls-15 {
        fill: #d2d3dc;
      }

      .cls-16 {
        fill: #cccdd7;
      }

      .cls-17 {
        fill: #a7a6b7;
      }

      .cls-18 {
        fill: #a3bbd7;
      }

      .cls-19 {
        fill: #afacbe;
      }

      .cls-20 {
        fill: #a3a1ae;
      }

      .cls-21 {
        fill: #a2a1ae;
      }

      .cls-22 {
        fill: #8d879b;
      }

      .cls-23 {
        fill: #8f8c9d;
      }

      .cls-24 {
        fill: #8d8a9c;
      }

      .cls-25 {
        fill: #9d9bb1;
      }

      .cls-26 {
        fill: #fdebd7;
      }

      .cls-27 {
        fill: #c1c0ce;
      }

      .cls-28 {
        fill: #d3d4dd;
      }

      .cls-29 {
        fill: #807a91;
      }

      .cls-30 {
        fill: #afb0c1;
      }

      .cls-31 {
        fill: #b0acbf;
      }

      .cls-32 {
        fill: #bcc7d9;
      }

      .cls-33 {
        fill: #fff;
      }

      .cls-34 {
        fill: #a2a1b4;
      }

      .cls-35 {
        fill: #fffeff;
      }

      .cls-36 {
        fill: #918da1;
      }

      .cls-37 {
        fill: #9995a5;
      }

      .cls-38 {
        fill: #aaaaba;
      }

      .cls-39 {
        fill: #a3a3b2;
      }

      .cls-40 {
        fill: #f7dac9;
      }

      .cls-41 {
        fill: #9e9bab;
      }

      .cls-42 {
        fill: #c4c4d0;
      }

      .cls-43 {
        fill: #bcbac9;
      }

      .cls-44 {
        fill: #e2b9b2;
      }

      .cls-45 {
        fill: #aaa9bb;
      }

      .cls-46 {
        fill: #8a8699;
      }

      .cls-47 {
        fill: #807a92;
      }

      .cls-48 {
        fill: #9d9aad;
      }

      .cls-49 {
        fill: #f4cfc4;
      }

      .cls-50 {
        fill: #cfcfd9;
      }

      .cls-51 {
        fill: #827d93;
      }

      .cls-52 {
        fill: #a3a2b3;
      }

      .cls-53 {
        fill: #bbbac8;
      }

      .cls-54 {
        fill: #a09db2;
      }

      .cls-55 {
        fill: #aeaabc;
      }

      .cls-56 {
        fill: #908c9d;
      }

      .cls-57 {
        fill: #8c899c;
      }

      .cls-58 {
        fill: #acabb9;
      }

      .cls-59 {
        fill: #918e9f;
      }

      .cls-60 {
        fill: #a59fad;
      }

      .cls-61 {
        fill: #b0a8b6;
      }

      .cls-62 {
        fill: #9f9daa;
      }

      .cls-63 {
        fill: #ceced8;
      }

      .cls-64 {
        fill: #837f95;
      }

      .cls-65 {
        fill: #9591a4;
      }

      .cls-66 {
        fill: #a5a2af;
      }

      .cls-67 {
        fill: #b8b6c5;
      }

      .cls-68 {
        fill: #ecb6ae;
      }

      .cls-69 {
        fill: #a29eb1;
      }

      .cls-70 {
        fill: #f6cec2;
      }

      .cls-71 {
        fill: #928fa3;
      }

      .cls-72 {
        fill: #8d899b;
      }

      .cls-73 {
        fill: #aeacbe;
      }

      .cls-74 {
        fill: #cdcdd7;
      }

      .cls-75 {
        fill: #9e9aa8;
      }

      .cls-76 {
        fill: #9693a2;
      }

      .cls-77 {
        fill: #dcdce2;
      }

      .cls-78 {
        fill: #a6a4b2;
      }

      .cls-79 {
        fill: #fdecd8;
      }

      .cls-80 {
        fill: #b4b1c1;
      }

      .cls-81 {
        fill: #9a96a6;
      }

      .cls-82 {
        fill: #e4ebf3;
      }

      .cls-83 {
        fill: #b9b7c6;
      }

      .cls-84 {
        fill: #a4a2b0;
      }

      .cls-85 {
        fill: #938fa1;
      }

      .cls-86 {
        fill: #a6a2b6;
      }

      .cls-87 {
        fill: #cfcfd8;
      }

      .cls-88 {
        fill: #a6a4b0;
      }

      .cls-89 {
        fill: #9996a5;
      }

      .cls-90 {
        fill: #b4b3be;
      }

      .cls-91 {
        fill: #d4d4dc;
      }

      .cls-92 {
        fill: #b1b2bd;
      }

      .cls-93 {
        fill: #fad9ca;
      }

      .cls-94 {
        fill: #9996aa;
      }

      .cls-95 {
        fill: #9793a6;
      }

      .cls-96 {
        fill: #928fa4;
      }

      .cls-97 {
        fill: #9290a1;
      }

      .cls-98 {
        fill: #c2c2cf;
      }

      .cls-99 {
        fill: #9590a3;
      }

      .cls-100 {
        fill: #a09eab;
      }

      .cls-101 {
        fill: #878399;
      }

      .cls-102 {
        fill: #827c93;
      }

      .cls-103 {
        fill: #b6b4c4;
      }

      .cls-104 {
        fill: #888397;
      }

      .cls-105 {
        fill: #d5deeb;
      }

      .cls-106 {
        fill: #818296;
      }

      .cls-107 {
        fill: #dfa8ab;
      }

      .cls-108 {
        fill: #8c889a;
      }

      .cls-109 {
        fill: #a7bfd9;
      }

      .cls-110 {
        fill: #9f9bae;
      }

      .cls-111 {
        fill: #d0d1da;
      }

      .cls-112 {
        fill: #e4e5e6;
      }

      .cls-113 {
        fill: #a8a7b8;
      }

      .cls-114 {
        fill: #cbcbd6;
      }

      .cls-115 {
        fill: #bfbecd;
      }

      .cls-116 {
        fill: #f9d8c8;
      }

      .cls-117 {
        fill: #a5a5b6;
      }

      .cls-118 {
        fill: #858299;
      }
    </style>
  </defs>
  <g id="_レイヤー_1-2" data-name="レイヤー 1">
    <g id="_生成オブジェクト" data-name="生成オブジェクト">
      <path class="cls-2" d="M249.67,5.86c-.25-.54-2.07-.5-1.36-1.76.87-2.23.19-3.72,2.03-4.09.65-.13,1.43.7,1.8,1.64s-1.3,1.62-2.24,1.86-.32,1.69-.22,2.34Z"/>
      <g>
        <path class="cls-2" d="M104.26,346.42c-.34,1.07-.49,2.92-.9,3.94-.17-.48.28-.94-.38-1.17-.26-.09-.48-.36-.77-.09.12-.98.37-1.87.63-2.82.5-.22.9.2,1.43.14Z"/>
        <g>
          <g>
            <path class="cls-51" d="M253.45,429.09c-.23,1.6-.8,3.64-.45,5.62l5.81.37c.18,4.96.58,9.42-.6,13.99l-3.7.78c-.52,7.68-.24,15.34-.06,23.13.06,2.5,1.67,3.19,2.92,4.62l1.84,9.45c.12.62,1.81.37,2.17.93.32.49.45,1.47.69,2.43,1.33,1.04,3.29.43,4.9.93l.94,4.43,5.41.73.14,15.21-34.56.28c-4.94.04-9.5-1.09-14.35-1.45-.42-15.6,1.23-28.49.64-43.04l-2.81-.68-.96-16.37c-1.99.24-3.08.24-4.08-.54-.65-.5-.41-1.83-.95-2.91-.7-1.4-2.99-.77-4.3-1.89-1.03-3.39-.55-6.79-.34-10.33-1.76.02-2.88-1.3-4.34-1.6l-3.87-.8c-.21-1.18-.07-2.29-.11-3.34.18-2.53-.91-4.87-.05-7.21.3-.44,1.65-.36,1.89-.79.3-.53.41-1.12.44-2.05.19-6.86,6.62-3.89,10.42-5.88,1.27-.66,1.77-1.81,3.65-1.68,8.01.56,23.9-.58,32.66.3l.99,17.35Z"/>
            <g>
              <path class="cls-81" d="M247.98,491.31c-.74,1.47-.72,3.11-.47,5.05,3.61-1.21,6.37.32,9.33.77.31.05,7.8.1,7.22-1.17.42-.18.97-.66,1.57-.53,1.21.26,3.54,3.72,2.97,6.88-.33,1.85-2.15.74-3.26.73l-31.84-.37c-1.05-10.03,3.69-4.88,5.57-10.47.34-1.01,2.36-1.35,3.19-1.72,1.75.55,3.77.76,5.71.83Z"/>
              <path class="cls-97" d="M215.84,434.79c.66-1.6.26-3.61,1.15-5.03,1.63-2.6,6.77.66,7.63-2.84.21-.86-.14-2.63.6-3.07,6.04-1.43,12.24-.39,18.39-1.15,1.57-.19,1.19,1.11,1.54,2.17.58,1.78-1.42,1.96-1.62,3.15l-.92,5.5c-2.56,1.02-5.33.74-7.98,1.39-4.4,1.07-8.7.21-13.24-.28-1.79-.19-3.3.96-5.55.17Z"/>
              <path class="cls-89" d="M237.4,489.25c-.48,1.28-1.17,1.59-2.04,1.78-1.33.29-1.91-1.01-2.8-1.57-1.75-1.1-2.93-1.67-2.61-4.13.49-3.87-.14-8.4.12-12.23.64-1.06,3.65-1.29,4.5-.27.5.78-.88,2.74-.1,3.47,6.45.86,5.17-1.74,12.47-.16.89.19,1.55-2.89.48-3.11-2.6-.53-5,1.16-7.44.8l-2.3-.34c3.49-3.84,4.97-.45,7.14-2.07.53-.4-.8-.7-.79-2.14-.89-.14-3.68-.73-4.53.33-1.18,1.48-3.13,3-4.95,1.62-.26-.2.23-1.08.28-1.39.41-2.31-4.37.28-4.85-2.13,2.07-1.27,3.91.93,5.37,1.1,2.52.3,4.96-1.05,7.29-.64l5.69,1.01c1.05.21-.05,2.4.46,2.84.1.09,3.87,1.63,3.64,2.97-.31,1.85-11.33,2.8-12.52,3.66l-2.01,1.45c-1.44,1.04-2.67,2.26-2.76,4.05,3.44-1.16,6.19-1.9,9.36-1.92,4.25-.02-.43-2.37,8.63-1.65.83.63.55,2.56.56,3.86-2.97-2.35-5.3-1.28-8.05-.39-1.95.63-3.09.51-4.06,2.54-.58,1.22-3.74,1.48-4.19,2.65Z"/>
              <path class="cls-23" d="M242.29,445.21c-5.64.32-8.32,3.67-16.92,2.12.34-2.38,5.99-1.13,8.45-2.12,1.39-.56-.2-3.21.51-4.15.49-.65,7.97-1.48,10.62-2.04,2.85-.6,7.21-1.19,9.93-.17,1.1.68.88,4.66-.52,5.22-3.85,1.53-8.1.92-12.07,1.14Z"/>
              <path class="cls-56" d="M232.58,460.93c-.8.11-1.16,1.34-1.56,1.9-1.69-.68.87,2.59-1.99,3.42-5.36,1.56-2.45-11.06-3.48-15.45,1.57-.31,2.99-.86,4.33-.11.62.35.44,1.63,1.12,1.82-.11-.03,10.97-2.55,10.04-1.8l2.37-1.92c2.17,4.46-5.52,3.72-5.56,6.15-.01.85.85,2.11.26,2.48-1.15.72-2.18.4-3.34-.17-.65-.32-.25-1.17-.46-1.45-.46-.63-1.44-.23-2.07-.01-.91.31-1.12,1.05-1.29,1.74-.23.95,1.52.61,1.56,1.14.07,1.16-.74,1.83.06,2.25Z"/>
              <path class="cls-108" d="M247.91,508.86c-3.93-.14-10.67,1.38-10.43-1.82.06-.86.77-1.59,2-1.59h28.66c.69,0,1.2-.17,1.5-.03.6.3.47,1.5.13,2.14-7.11,1.19-14.36,1.57-21.86,1.31Z"/>
              <path class="cls-24" d="M256.28,491.6l-8.3-.29c-1.93-.07-3.95-.28-5.71-.83.37-.68.49-2.18,1.19-2.64,3.55-.82,7.11-.43,10.59-.99,2.65-.42,4.53-.25,5.66,2.64.15.37,1.04.79.43,1.28-2.28,1.81-4.29-1.03-3.86.83Z"/>
              <path class="cls-88" d="M256.28,491.6c1.08-.22.83.92,1.25,1.55.81,1.21,2.65.65,3.82,1.35.83.5,1.68,1.49,2.72,1.46.58,1.27-6.91,1.21-7.22,1.17-2.96-.45-5.72-1.99-9.33-.77-.26-1.94-.27-3.57.47-5.05l8.3.29Z"/>
              <path class="cls-22" d="M220.7,445.11c-.41,1.03-3.76.89-4.45-.01-.94-1.24-.59-2.99-.83-4.54,2.63-.5,4.47-.48,7.18-.18l-1.9,4.74Z"/>
              <path class="cls-75" d="M248.31,457.67c-1.93-2.51-4.69.81-7.31-3.17,2.1-1.45,4.36-1.86,7.16-1.99.45,1.65.44,3,.16,5.17Z"/>
              <path class="cls-66" d="M231.02,462.84c.4-.56.76-1.79,1.56-1.9,2.86-.39,5.76-.69,8.85-.68l-5.39,2.5c-.37.17-3.94,2.04-4.48,1.68-.75-.51-.57-.94-.55-1.59Z"/>
              <path class="cls-7" d="M249.08,464.94c-.16,1.14-6.66-1.47-6.87-2.04,1.31-2.14,6.02-1.13,6.31-.92.65.46.52,1.49.56,2.96Z"/>
              <path class="cls-59" d="M243.95,459.29c-1.66.96-2.9.19-4.4.04-.69-.07-1.53-1.69-.66-1.86,1.79-.35,3.65.59,5.06,1.82Z"/>
            </g>
          </g>
          <g>
            <path class="cls-76" d="M128.75,486.01c-4.88,1.38-10.09.29-15.34.19l-15.15-.3c-.27-1.94-.16-3.84.41-5.5.08-.23.36-.43.56-.55.13,1.31,4.06-.7,3.86.41-1.24,2.67,8.66-.01,11.74,1.47.62-.95,1.81-1.72,2.2-2.95.17-.54-1.07-.91-1.5-.9.18-.72.6-1.42,1.14-2.24,1.57.13,2.77.49,4.19.39l.53-3.47c1.52.81,3.46,1.06,4.8-.29.21-.21-.48-.92.02-.97,1.39-.07,3.58-.18,4.66,1.14-.07,1.15-1.89,1.2-2.94,1.33-.95.11-.77,2.04-1.58,2.14l-4.49.55c-.42.65-.6,3.73.46,4l7.54,1.95c1.64.42-.4,2.68-1.12,3.6Z"/>
            <path class="cls-72" d="M128.75,486.01c.72-.92,2.76-3.17,1.12-3.6l-7.54-1.95c-1.07-.27-.88-3.36-.46-4l4.49-.55c.81-.1.64-2.03,1.58-2.14,1.05-.12,2.87-.18,2.94-1.33-1.08-1.31-3.27-1.21-4.66-1.14-.33.02-.86-.66-.93-.72-.29.3-.88.94-1.5.53-.42-.27-1.15-.79-1.21-1.27-.24-1.94,4.07-1.62,3.67-2.32.95.54,2.16.42,3.3.62s.32,1.41.71,2.21c.63,1.3,2.82,1.83,4.25,1.97.33-2.05-.27-3.43-.3-4.99,1.85-.18,15.5-1.64,12.93,3.32-1.17,2.25.67,3.57,1.13,5.24.94,3.37-.25,6.8-.07,10.46l-14.41.28c-1.79.04-3.63.36-5.03-.63Z"/>
            <path class="cls-104" d="M131.25,464.44c-.52-.66-1.12-1.49-2.09-1.46-.11-.24,0-.63.26-.65,1.17-.07.84-3.27.89-2.89,2.59-.6,5.7.68,8.04-.41,2.76-1.28,5.51-.37,8.49-.33.43,1.83.76,3.81.09,5.67-.2.54-2.04.93-2.59.7-2.82-1.17-9.82.75-13.09-.62Z"/>
            <path class="cls-21" d="M115.54,477.88c.43-.01,1.67.36,1.5.9-.39,1.23-1.58,2-2.2,2.95-3.08-1.48-12.98,1.2-11.74-1.47.37-.57.1-1.3,1.01-2.1l11.43-.27Z"/>
            <path class="cls-62" d="M129.16,462.97c.97-.03,1.57.81,2.09,1.46-.96-.14-1.51,2.59-.61,2.64,1.37.07,2.67.36,3.56.28.03,1.56.63,2.93.3,4.99-1.43-.14-3.62-.67-4.25-1.97-.39-.8.39-2.02-.71-2.21s-2.36-.09-3.3-.62c-.37-1.33-.37-2.73-.13-4.42,1.14-.28,2.1-.12,3.05-.14Z"/>
            <g>
              <path class="cls-51" d="M121.29,423.3c1.42-.08,2.85,1.12,4.45,1.3l12.4,1.34,21.87.25c1.83.02,3.44,1.53,5.71,1.22.59.47.36,1.71,1.1,1.72l-.51,5.12c-2.94.22-5.48.2-8.36.76l-.39,16.16-3.85.38c-.78,2,1.25,8.62-2.4,7.56-1.09,4.14.13,8.57.68,12.84.92,7.2.15,14.31.12,21.78l-58.74-.03c-.05-4.46.02-8.5.44-12.8,1.67-.38,3.29-.44,4.85-.48-.57,1.66-.68,3.56-.41,5.5l15.15.3c5.25.1,10.46,1.19,15.34-.19,1.4.99,3.23.67,5.03.63l14.41-.28c-.19-3.65,1.01-7.09.07-10.46-.47-1.66-2.3-2.99-1.13-5.24,2.57-4.96-11.07-3.49-12.93-3.32-.89.08-2.19-.2-3.56-.28-.91-.05-.35-2.78.61-2.64,3.27,1.37,10.27-.55,13.09.62.54.23,2.39-.16,2.59-.7.68-1.85.34-3.84-.09-5.67-2.98-.03-5.73-.95-8.49.33-2.33,1.08-5.45-.19-8.04.41-.15-1.07.47-2.49-.25-3.84-.43-.81-2.75-.8-3.52-.36-.41,1.62-.74,4.15.29,5.69,1.26-.77,2.48-1.25,3.47-1.48-.05-.37.28,2.83-.89,2.89-.26.02-.37.4-.26.65-.95.03-1.91-.14-3.05.14-.23,1.69-.23,3.09.13,4.42.4.7-3.91.38-3.67,2.32.06.47.79,1,1.21,1.27.62.4,1.21-.23,1.5-.53.07.06.6.73.93.72-.5.05.19.76-.02.97-1.34,1.35-3.28,1.1-4.8.29l-.53,3.47c-1.43.1-2.63-.26-4.19-.39-.54.81-.96,1.52-1.14,2.24l-11.43.27c-.91.81-.64,1.53-1.01,2.1.2-1.11-3.74.9-3.86-.41-.42-.43-.15-1.4-.03-1.96.1-.45,1.17-.92,1.94-.72,1.64.43,2.26-1.49,3.67-2.19,3.58-1.78,8.4-1.23,11.46-3.76,1.36-1.12,2.05-3.35,5.49-2.35.51-8.4-.34-16.25-.58-24.55l-.27-9.13-6.43-1.21c-.29-2.32-.22-6.68-.6-8.83-.1-.57.52-1.94,1.11-2.01,2.32-.29,4.34.29,6.31.18Z"/>
              <g>
                <path class="cls-57" d="M141.86,443.07c-.73.11-1.14,1.08-1.77.98-.67-.11-1.17-.77-1.99-.84l-9.01-.87c-1.25-.12-4.57-2.65-3.23-6.58l26.63-.26c.8,1.04.57,3.29-.7,3.69-1,.31-1.07,1.7-1.85,2.36-2.14,1.81-5.39,1.11-8.08,1.53Z"/>
                <path class="cls-46" d="M136.4,452.15c-.21.03-.33-.1-.51-.11-.12-.56.52-.08,1.15-.68-.49-.51-1.25-.48-1.46-.9-.44-.88-.31-1.77.04-2.23.57-.76,1.61-.76,2.54-.54.62.15,1-1.18,1.62-1.1,4.51.53,8.62-.71,12.94-.82,1.3.28.44,3.27-.55,4.04-.25.19.45,1.03.41,1.24-.05.3-.36,1.14-.75,1.06-2.87-.61-.78,4.25-10.43,1.96-1.48-.35-2.3-1.98-3.57-2.38-.5.77-.94.41-1.44.48Z"/>
                <path class="cls-62" d="M135.89,452.05c.19,0,.3.14.51.11-1.29,1.9-3.63,3.39-6.11,2.17-.34-.17.14-1.37-.56-1.44l-1.23-.12c-.65-.06-2.12.18-2.28-.4-.54-2.08-.11-4.21-.27-6.29,1.97-.73,3.51.53,5.34,1,1.31.34,2.88-.38,3.42,1.04-1.08.98-2.6.15-3.76.47-.76.21-1,2.8-.3,3.2l5.23.25Z"/>
                <path class="cls-100" d="M130.31,459.43c-1,.23-2.22.7-3.47,1.48-1.03-1.54-.7-4.07-.29-5.69.76-.44,3.09-.45,3.52.36.72,1.36.1,2.77.25,3.84Z"/>
                <path class="cls-9" d="M139.5,456.49c-1.4,1.66-4.19,1.43-5.81.56.19-1.45,4.66-2,4.52-2.07.39.19,1.53.93,1.29,1.51Z"/>
              </g>
            </g>
          </g>
        </g>
        <g>
          <path class="cls-58" d="M105.49,289.49c1.53.91,2.91,2.27,4.39,3.14,1.38.81,2.89.44,3.55,1.94.73,1.67,2.92,2.35,4.48,3.46l-.79,4.86c-5.4,1.59-1.53,6.56-5.87,7.06l-8.21-6.28c-5.01-3.83-9.32-7.34-15.55-6.1-.05-1.94.89-3.17,1.64-4.61.62-1.19.22-3.26,1.06-4,1.09-.95,1.44-2.01,1.3-3.46,3.09-1.25,6.72-.36,9.48,1.29l4.52,2.7Z"/>
          <path class="cls-12" d="M106.73,286.2c1.17-.22,1.03,1.66,1.59,2.21,2.25,2.2,4.96,3.81,7.87,5.44.38.21.1.67.31.85.39.34,1.06.52,1.31.42.8.69,1.92,1.69,1.79,2.88l-1.21,11.2c-3.88,5.1-2.48.38-5.02,4.59.39-2.36-1.56-1.71-2.13-3.83,4.34-.51.47-5.47,5.87-7.06l.79-4.86c-1.55-1.12-3.75-1.8-4.48-3.46-.66-1.5-2.17-1.13-3.55-1.94-1.48-.87-2.86-2.23-4.39-3.14l-.09-3.14c.36.18,1.05.1,1.33-.15Z"/>
          <g>
            <path class="cls-101" d="M98.23,277.72c-.01.99.31,2.99-1.09,3.24-.97.17-1.87-.26-2.18.4-1.67,3.54,3.17.67,7.12,3.72.95.73,2.36.8,3.32,1.27l.09,3.14-4.52-2.7c-2.77-1.65-6.39-2.54-9.48-1.29.14,1.45-.21,2.5-1.3,3.46-.84.74-.45,2.81-1.06,4-.75,1.44-1.69,2.67-1.64,4.61,6.23-1.24,10.54,2.27,15.55,6.1l8.21,6.28c.57,2.12,2.51,1.47,2.13,3.83-.49.81-.69,1.91-1.1,2.78,1.36-3.32-9.59,10.26-6.92,5.73l-2.17,3.67c-3.84,1.93-11.08,8.71-8.52,12.92-.77.9-1.73.31-2.44.16-2.7-.6-.13-3.72-2.53-4.46-.97-.3-1.91-.95-3.69-.45-.02-3.29-1.92-3.23-6.78-6.53-1.17-.79-2.03-2.62-3.52-1.54-.91-.59-2.43-1.4-2.87-2.58-.54-1.44-1.47-1.19-2.28-1.66.21.12-5.8-3.21-5.98-3.4l-1.66-1.67c-.45-.45-2.8-.02-2.78,1.01.06,2.49-1.1,3.96-3.26,4.63-.24.78-.66,2.36-.32,2.72s1.03.75,1.66.92c.98.25,1.26,1.11,1.72,2.09.52,1.11-1.13,1.11-1.16,2.24-1.17-.29-3.04.33-3.98-.89-.41-.54.36-1.85-.26-2.13-.32-.15-1.36-.14-1.6-.5-1.47-2.22.22-4.82,1.08-6.92s2.59-2.45,3.79-3.73c1.4-1.5,2.15-3.1,5.07-2.86.57.05,1.85.01,2.27.54.28.35.29,1.38.65,1.74,4.48,4.34,1.34,2.8,9.29,5.29,1.16-4.12.06-8.55,1.44-12.39.84-2.32,4.77-1.39,6.02-2.59,1.34-1.28,1.54-3.72,3.17-5.07.55-.46.18-2.04.05-2.57-.1-.4-1.11-.4-1.64-.69-.35-2.46.29-5.32.67-8.05l.62-4.47,5.63-.39.7-7.18c2.28-.1,4.67-.78,6.48.22Z"/>
            <g>
              <path class="cls-20" d="M94.97,314.68c-2.77.01-8.7-3.36-14.09.22-.41-2.2-.28-4.88.98-6.76,1.71-2.56,5.31-3.06,7.72-1.62.37.22.08,1.28.37,1.58-.73-.76,5.32,2.45,6.37,3.08.8.49-.25,3.49-1.35,3.5Z"/>
              <path class="cls-41" d="M104.2,309.65c.17.97-.29,2.46-.49,4.04l-5.64-4.4-8.04-4.8c-.98-.58.49-2.4,1.26-2.53,3-.53,4.93.8,6.98,1.78,1.17.56.08,1.57.2,2.45,1.25,2,4.2,1.5,5.73,3.45Z"/>
              <path class="cls-60" d="M86.75,316.95c-.25,5.28-2.88,5.26-5.63,8.56-1.25-.34-2.29-1.09-3.28-2.17.53-2.59,1.81-4.46,3.42-6.39,1.84.36,3.29.43,5.49,0Z"/>
              <path class="cls-44" d="M89.95,328.9c-1.77.14-6.7-.93-6.62-2.91,0,.14,4.94-4.3,7.04-2.46.73.91.41,4.19-.42,5.37Z"/>
              <path class="cls-85" d="M97.85,316.27c-.66-.58-.98-1.72-.62-2.38.27-.49,1.23-.2,1.67,0s.53,1.03.47,1.74c-.04.47-1.07,1.04-1.52.64Z"/>
            </g>
          </g>
          <g>
            <path class="cls-32" d="M83.89,349.18c-1.1.59-.62,2.17-.92,3.47-.35,1.49-3.24.52-3.35,1.43l-.4,3.31c-.07.54-1.82.42-1.94,1.2-.21,1.33.16,2.71-.61,3.06l-2.16.97c-.96.43.2,2.69-.83,3.68-.65.63-1.86.27-2.62.76l-.89,4.75-3.38.59-.9,5.25-3.96.56c-.13,1.53.48,3.17-.47,4.03-.84.76-2.22,0-3.37.64.61,2.5-.12,4.01-1.52,5.64-.4.46-.05,1.68-.62,2.02-1.2.7-2.2-.1-2.76.7-.63.89.56,2.09-.88,3.52-.83.82-3.45.16-3.93,1.15-.31.65.38,3.72-.59,4.33-.68.43-1.68-.05-2.49.17-1.52.42-.12,5.34-1.38,5.66l-2.7.68c-.79.2,0,2.73-.9,3.53-.53.47-2.24.63-2.44,1.35l-.7,2.63c1.37-5.09-2.76,5.43-1.73,4.14-.64.8-2.74-.16-3.18.88-.25.58.58,2.67-.55,3.3-1.35.75-2.63.02-3.21.89-.47.72.25,3.31-.72,4.17-.57.5-2.04-.07-2.65.41-1.23,1.46-.69,3.62-1.53,5.17-1.07.37-2.86.12-3.14.96l-1.26,3.72c-1.78,1.02-2.1,2.69-2.13,4.75-4.25.45-8.91.78-12.96.6-.5-1.5-.16-3.09-.37-4.63,2.44-.55,3.54-3.3,5.25-5.26.63-.73,2.21-1.9,1.16-3-.67-.7-2.06-2.85-.38-3.51,1.16-.45,3.27.75,3.79-1.11.17-.6.04-1.28.49-1.67s.78.02,1.38-.04c.71-.08,2.05-.09,2.32-1.2.26-1.04-.15-3.36.76-3.91,2.44-.27,2.96-1.53,3.72-3.35.44-1.05,2.31-1.72,1.33-3.53,1.25-.18,1.9-.12,3-.46.25-1.73.06-3.4.59-5.1,1.28-.24,2.34-.02,3.46-.44l1.13-5.13,3.16-1.81c1.66-.95,2.11-3.99,2.01-6.93.76-.87,2.81-.18,3.71-1.37.79-1.05.33-2.57.85-3.81,3.67-.11,2.66-3.35,3.5-4.55.95-1.34,1.76,1.15,3.88-2.86.87-1.65,1.9-3.02.59-4.9.58-.68.4-1.43.76-1.96l2.93.03c1.19.01,1.14-2,1.2-2.68.53-.87,2.25-.88,3.21-1.41.44-3.02,2.98-4.93,5-7.25,1.06-1.22.36-4.34,2.38-4.73,5.32-1.02-.38-6.26,6.45-6.4l1.37-4.38,2.87-.32c.55-.06.24-1.15,1.1-1.46-.44,1.97,4.5,1.03,6.59,1.97.31,1.18.02,2.25.6,3.09Z"/>
            <path class="cls-2" d="M72.77,339.62c-.77.03-.28.6-.27,1.32l-4.36.32c-.64,1.47.02,2.93-.31,4.52l-3.62,1.04c-.86,1.77.2,3.94-1.17,5.54-.46.41-1.5.39-1.88.64-.74.49-.48,1.64-.96,2.17l-3.14,3.5c-1.11,1.24-.25,3.65-1.34,4.96-1.6,1.92-3.29,4.41-1.42,6.44-.07.68-.02,2.69-1.2,2.68l-2.93-.03c-1.28-.01-2.25-.07-3.1,1.37-1.12,1.89-3.29,2.35-4.78,3.63-1.71,1.47-.51,4.53-1.19,6.17-.6,1.46-2.85,1.05-3.66,1.65-1.33.97-.24,1.33-1.68,4.11-.27.51-1.25,0-1.55.25-2.6,2.13-2.01,6.02-2.83,6.16-3.81.63-4.23,5.26-4.31,5.47-.27.67-1.62.23-1.8.74l-1.35,3.82c-.24.67-2.11.6-2.19,1.61-.09,1.26.32,2.21-.39,3.35-.46.74-2,.64-2.87,1.43-1.24,1.11-1.01,4.9-2.17,5.5-.44.22-1.38.16-2.26.2-.61,1.34-.86,3.48-.35,4.76.73.75,1.08.34,1.25.23.64-.39.54.57.47.88-.59.06-.95-.33-1.38.04s-.32,1.06-.49,1.67c-.52,1.86-2.63.66-3.79,1.11-1.68.66-.29,2.81.38,3.51,1.05,1.1-.52,2.27-1.16,3-1.71,1.95-2.81,4.7-5.25,5.26-.54-4.08-.16-8.23-.15-12.34.32,0,.51-.2.53-.5.82.25,3.15.68,3.77-.11l.69-7.1c1.01-.2,3.11,1.17,3.87-.28.95-1.82.61-4.19.75-6.09,1.25-.1,2.37.16,3.95-.2-.19-2.05.77-4.24-.08-6.01-.09-.4.27-.69.62-.46.78.55,2.46.98,3.1-.13.51-.88.29-1.92.51-3.1,2.45.13,2.04-2.24,2.89-3.33.96-1.24,2.82-1.17,3.2-2.76.35-1.45,1.4-3.49-.16-4.33-.07-.27.17-.36.29-.47.31-.28.44-.11.68-.03,1.05.33,3.07.58,3.78-.59.87-1.45-.31-3.57.9-4.82.56-.58,2.83.34,3.25-.75.82-2.12.2-4.31.69-6.24.15-.07.31-.03.47-.04.93-.02,2.73.3,3.61-.4l.97-5.72c.05-.28.24-.5.53-.54,1.45-.15,2.8.21,4.53-.25.18-2.78,1.39-5.18,1.27-7.78,1.25-.05,2.56.05,4.08-.15.37-2.51-.07-4.83.59-7.14,1.58.21,2.58-.16,3.26-1,.63-.78-.38-1.74.05-2.61.28-.57,1.4-.52,1.72-.81.29-.27-.06-1.33.24-1.55,1.46-1.05,1.45-2.44,1.2-4.25,1.41-.5,2.68-.17,3.95-.84.22-1.47.19-2.78.11-3.98.49.19.5-.35.48-.7.98-.24,2.08-.11,3.48-.31.68-1.75-.06-3.36.32-5.33,1.95.28,3.33.85,4.91,1.44.2,1.03-.21,1.86.15,2.61Z"/>
            <path class="cls-17" d="M63.43,341.91c.08,1.2.11,2.51-.11,3.98-1.27.66-2.54.34-3.95.84.25,1.81.27,3.2-1.2,4.25-.31.22.05,1.28-.24,1.55-.32.29-1.44.24-1.72.81-.43.88.57,1.84-.05,2.61-.68.84-1.68,1.21-3.26,1-.66,2.31-.22,4.63-.59,7.14-1.52.2-2.83.11-4.08.15-.1-2.3.42-4.66.68-7.09,1.06-.45,1.88-.41,3.14-.69-.5-1.82,1.79-2.18,2.04-3.39l1.22-5.81c.27-1.27,2.86-.49,4.23-.73.48-1.74-.51-3.46.37-4.78.61-.92,3.12-.87,3.52.15Z"/>
            <path class="cls-45" d="M3.61,426.26c-.02,4.11-.39,8.26.15,12.34.2,1.54-.13,3.13.37,4.63-1.14-.05-2.44.8-4.13-.05l.04-16.45c.65-.86,2.68-.48,3.57-.47Z"/>
            <path class="cls-31" d="M94.67,338.89c.26-.3.45-.05.69-.04-.5,1.26-.47,2.95.66,4.04.38.37.84.43,1.11.46.37.04.34-.82.94-.93.32.82-.42,1.61-.14,2.16.16.31,1.21.36,1.06,1.13.03-.12-.67,5.23-.98,4.73.23.37.66,1.06,1.24,1.05-.14,1.66-1.6,1.69-2.77,2.3.43-1.04,1.85-1.22,1.45-3.29l-3.92.06c1.09-2.47,2.8-.94,3.51-2.77.82-2.11-2.28-1.63-3.16-3.88-5.18-.77-1.25-1.68-5.69-3.81,2.33-4.84-.47-2.83,1.04-5.49,2.4.74-.17,3.86,2.53,4.46.71.16,1.67.74,2.44-.16Z"/>
            <path class="cls-5" d="M102.83,346.28c-.26.95-.51,1.84-.63,2.82-.17,1.31-2.34,1.7-2.98,2.38-.58.01-1-.68-1.24-1.05.32.5,1.01-4.85.98-4.73.16-.77-.9-.82-1.06-1.13-.27-.55.47-1.34.14-2.16-.6.11-.57.97-.94.93-.27-.03-.73-.1-1.11-.46-1.13-1.08-1.15-2.77-.66-4.04,1.31.04,3.13-.06,4.31,1.02.46.42.13,1.84,1.01,1.87.44.02,1.82-.08,2.1.49.54,1.12.34,3.02.06,4.05Z"/>
            <path class="cls-34" d="M27.26,391.86c1.56.84.51,2.88.16,4.33-.38,1.59-2.24,1.52-3.2,2.76-.85,1.1-.44,3.47-2.89,3.33-.23,1.18,0,2.22-.51,3.1-.64,1.1-2.32.67-3.1.13.19-1.59-.36-3.84,1.09-5.15.81-.73,2.22-.13,2.99-.9-.42-1.57,1.05-1.67,1.62-2.26.86-1.27-.08-3.04.65-4.76.44-1.02,2.41-.72,3.18-.58Z"/>
            <path class="cls-39" d="M36.85,378.97c-.5,1.92.13,4.12-.69,6.24-.42,1.08-2.68.17-3.25.75-1.22,1.25-.03,3.37-.9,4.82-.71,1.17-2.73.92-3.78.59l.2-4.95,4.13-.54c.54-2.21-.08-4.24.59-6.44.34-1.12,2.82-.81,3.7-.47Z"/>
            <path class="cls-30" d="M48.23,364.25c.12,2.59-1.09,5-1.27,7.78-1.73.46-3.08.09-4.53.25.11-2.47.62-4.96,1.33-7.51,1.78-.19,3.11-.47,4.47-.52Z"/>
            <path class="cls-113" d="M8.6,418.55l-.69,7.1c-.63.79-2.95.36-3.77.11l.26-6.55c1.61-.1,2.96-.42,4.2-.67Z"/>
            <path class="cls-54" d="M13.22,412.18c-.14,1.9.2,4.27-.75,6.09-.76,1.45-2.86.08-3.87.28l.32-6.1c1.56-.37,3-.17,4.3-.27Z"/>
            <path class="cls-117" d="M41.89,372.81l-.97,5.72c-.88.7-2.68.39-3.61.4,0-1.6.07-3.72.37-5.74.74-.9,3.14-.57,4.21-.38Z"/>
            <path class="cls-69" d="M17.09,405.97c.84,1.77-.12,3.95.08,6.01-1.57.37-2.7.11-3.95.2l.46-6.09c1.43-.1,2.46-.35,3.41-.12Z"/>
            <path class="cls-82" d="M50.18,372.7c-.35.54-.18,1.29-.76,1.96,1.31,1.88.28,3.25-.59,4.9-2.12,4.01-2.94,1.52-3.88,2.86-.84,1.2.17,4.44-3.5,4.55-.51,1.24-.06,2.76-.85,3.81-.89,1.19-2.95.51-3.71,1.37.1,2.94-.35,5.98-2.01,6.93l-3.16,1.81-1.13,5.13c-1.12.42-2.18.2-3.46.44-.52,1.69-.34,3.37-.59,5.1-1.1.35-1.75.28-3,.46.98,1.81-.89,2.48-1.33,3.53-.76,1.82-1.27,3.08-3.72,3.35-.9.55-.5,2.87-.76,3.91-.27,1.1-1.61,1.12-2.32,1.2.07-.31.17-1.27-.47-.88-.17.1-.52.52-1.25-.23-.51-1.28-.26-3.42.35-4.76.89-.03,1.82.03,2.26-.2,1.16-.59.93-4.39,2.17-5.5.87-.78,2.41-.69,2.87-1.43.71-1.14.29-2.09.39-3.35.08-1,1.95-.94,2.19-1.61l1.35-3.82c.18-.51,1.53-.07,1.8-.74.08-.21.51-4.85,4.31-5.47.83-.14.23-4.02,2.83-6.16.3-.25,1.28.26,1.55-.25,1.44-2.77.35-3.14,1.68-4.11.82-.6,3.06-.19,3.66-1.65.68-1.64-.52-4.7,1.19-6.17,1.49-1.28,3.66-1.74,4.78-3.63.85-1.44,1.83-1.38,3.1-1.37Z"/>
            <path class="cls-105" d="M76.7,344.12c-.85.3-.55,1.4-1.1,1.46l-2.87.32-1.37,4.38c-6.84.14-1.13,5.38-6.45,6.4-2.02.39-1.32,3.51-2.38,4.73-2.03,2.32-4.57,4.23-5,7.25-.96.53-2.68.54-3.21,1.41-1.87-2.03-.18-4.52,1.42-6.44,1.09-1.3.23-3.72,1.34-4.96l3.14-3.5c.48-.54.22-1.68.96-2.17.38-.25,1.42-.23,1.88-.64,1.37-1.6.32-3.77,1.17-5.54l3.62-1.04c.33-1.58-.33-3.05.31-4.52l4.36-.32c-.01-.72-.5-1.29.27-1.32.56,1.54,2.65.15,3.58,1.27.73.89.13,2.3.35,3.23Z"/>
            <path class="cls-6" d="M89.7,334.59c-1.51,2.66,1.28.65-1.04,5.49-2.64-.46-4.63-2.94-3.83-6.11-1.44.08-.84.76-.93,1.92-1.34-1.23-3.09-1.57-4.23-2.94-4.92-5.9-2.15.08-4.49-4.06,1.03-.54.51-1.85.53-2.81,1.49-1.08,2.35.75,3.52,1.54,4.87,3.3,6.76,3.24,6.78,6.53,1.78-.51,2.72.15,3.69.45Z"/>
            <path class="cls-115" d="M70.56,321.83c1.04,1.67-2.8-1.43-2.96.84-.72-.54-4.24-1.9-4.93-1.3-.86.75-.74,1.4-.52,2.52-2.19-1.17-2.58.89-3.93,2.15-.63-.16-1.32-.55-1.66-.92s.09-1.95.32-2.72c2.16-.66,3.32-2.14,3.26-4.63-.02-1.03,2.33-1.47,2.78-1.01l1.66,1.67c.18.18,6.19,3.52,5.98,3.4Z"/>
            <path class="cls-8" d="M70.56,321.83c.81.47,1.74.22,2.28,1.66.44,1.18,1.96,1.99,2.87,2.58-.02.97.5,2.27-.53,2.81l-7.76-3.61c-.32-1.09.06-1.82.18-2.6.16-2.27,3.99.83,2.96-.84Z"/>
            <g>
              <path class="cls-1" d="M67.6,322.67c-.12.78-.5,1.51-.18,2.6l7.76,3.61c2.34,4.14-.43-1.83,4.49,4.06,1.14,1.37,2.89,1.7,4.23,2.94.09-1.16-.51-1.84.93-1.92-.81,3.17,1.19,5.65,3.83,6.11,4.44,2.13.51,3.04,5.69,3.81.88,2.25,3.98,1.78,3.16,3.88-.71,1.83-2.41.3-3.51,2.77l3.92-.06c.4,2.07-1.02,2.25-1.45,3.29-1.8.94-3.9.93-6.2.19.02-1.24.59-2.94-.09-3.45l-6.29-1.34c-.58-.84-.28-1.9-.6-3.09-2.09-.94-7.04,0-6.59-1.97-.22-.93.39-2.34-.35-3.23-.93-1.12-3.02.27-3.58-1.27-.36-.75.05-1.57-.15-2.61-1.58-.59-2.97-1.16-4.91-1.44-.38,1.97.35,3.58-.32,5.33-1.4.2-2.5.07-3.48.31-1,.28.38-5.38.51-6.48-1.33-.77-3.13-.19-4.09-1.19-.84-.87.03-3.11-1.55-3.17.02-1.13,1.68-1.13,1.16-2.24-.46-.98-.74-1.84-1.72-2.09,1.35-1.26,1.74-3.32,3.93-2.15-.22-1.12-.34-1.77.52-2.52.69-.6,4.21.76,4.93,1.3Z"/>
              <path class="cls-86" d="M91.3,348.17c-2.56-3.48-6.55-.42-6.14-4.61.15-1.53-2.28-.97-2.77-1.65-.94-1.3-2.45-1.52-3.59-2.1-1.36-.69-2.06-3.22-3.45-4.16-1.58-1.08-4.2-.98-5.91-2.73-2.01-2.05-6.51-.52-7.79-1.62-.3-.25-.3-1.1.45-1.06.67.04,1.16.05,1.45.02.65-.08,0-1.62.42-1.73.87-.24,2.12.35,2.79-.5-.23-1.04.65-.97.35.11l4.68,2.39c.01.44-.1,1.42.35,1.48,6.11.76,4.63,1.99,5.79,3.08.08.07,7.64,4.38,7.99,6.61.32,2.05,2.28,2.16,3.99,2.19l.8,1.91c.28.66,1.49.38,2.41.56,1.07.2.72,1.19.51,1.63-.38.81-1.7,1.06-2.35.18Z"/>
            </g>
          </g>
        </g>
        <g>
          <path class="cls-83" d="M242.66,296.18c.13,2.74.46,5.58,1.19,8.53.43.79,1.86,1.04,2.47,1.76,2.54,12.17,6.06,4,6.74,10.09.17,1.5.33,3.15.85,4.7.87,2.59.06,5.39,1.21,7.73-1.62,2.77-1.17,13.89.18,15.62.71.91,2.4,1.67,2.5,2.87.17,1.99,1.33,2.47,2.27,3.68.64.83.46,2.62,1.83,3.03l.11,1.44c.05.68,3.67.31,3.32,2.94s1.78,2.82,2.9,3.98c4.11,4.26.76,6.82,5.32,9.89,2.11,1.43,1.23,5.31,2.31,6.79,4.18,5.71,2.3-.15,4.16,12.65,6.4,2.97,2.18,9.96,6.8,20.26.6,1.33,1.75,2.15,1.4,4.13-.11.62.64.93.97,1.1.52.26,1.71.31,1.98-.56,1.11-3.48,6.24-.66,6.19-.81.14.42.55.79.3,1.25.37,2.06-4.32.75-5.66,1.52-.58,2.8-3,2.87-5.87,3.37-.61,2.09-.64,4.28-1.66,6.44l-31.05.49-.99-17.35c-8.76-.88-24.65.26-32.66-.3-1.89-.13-2.39,1.02-3.65,1.68-3.8,1.99-10.23-.99-10.42,5.88-.03.93-.14,1.52-.44,2.05-.24.44-1.59.36-1.89.79-.86,2.34.23,4.68.05,7.21l-36.63.06c-.74-.01-.51-1.25-1.1-1.72-2.28.32-3.88-1.2-5.71-1.22-.87-1.6,2.35-.78,5.16-2.7,1.4-2.83.56-9.42,2.25-9.85,1.24-.32,3.54.49,4.28-.47.24-.32-.44-.8-.27-1.36,6.41-.68,12.86-1.23,19.5-1.08,3.74.09,7.48-.8,11.37-1.01,1.38-.08,1.83-1.61,2.73-1.75l12.4-1.93c6.74-1.05,32.43-.86,40.08.31,1.62.25,2.85,1.86,4.96,1.29-.26-5.21.1-10.62-1.09-15.68-.35-1.49-4.05-18.04-4.03-18.02l-2.21-2.21-.16-2.24c-.03-.47-1.59-.43-1.62-1.06-.27-4.84-1.09-9.17-1.8-13.81-1.15-.25-2.07.05-3-.42-.63-2.59-.12-5.2-1.01-7.67s.05-5.65-1.18-8.22c-.56-.56-2.87.32-3.35-.56l-.86-8.55c-.14-1.4-1.71-2.09-2.14-3.12-.72-1.73-.81-3.42-1.14-5.02l-.84-4.02c-.33-1.57.52-3.59-.58-5.16-.57-.8-1.9-.54-2.51,0,.33-3.43-.71-7.09-.52-10.43l1-17.45c.85-.07,1.39.05,1.94.58.74.71.47,1.69.82,2.73,2.25,6.64-.07,6.59,4.46,8.89Z"/>
          <path class="cls-63" d="M297.46,372.67c-1.8.18-.25,5.74,1.05,5.98,3.11.58,3.44,2.84,4.54,4.97.47.92,3.29.84,2.79,3.08,2.14-.02,3.37.16,5.03.35.38,1.68.09,3.19.7,4.76,1.23.41,2.6,0,3.57,1.03.39,8.07.09,3.17,2.41,7.13.38.5,2.38-.15,2.56.71l1.12,5.22c2.73.29,4.71,1.29,5.76-.48.46.61.69,1.14,1.09,1.16.19,0,.51-.15.75-.2,1.07-.19,2.27.2,3.18.92.8.63.59,1.74.95,2.69s2.17,2.09,1.76,3.18c-1.21,3.21-5.2,3.66-6.55,5.67-2.69,4-21.85,10.67-21.53,3.43.04-.98-1.25-1.96-.5-3.74-3.17.47-5.69-.75-8.48-1.27.25-.46-.16-.83-.3-1.25.05.15-5.08-2.67-6.19.81-.28.87-1.47.82-1.98.56-.34-.17-1.08-.49-.97-1.1.35-1.98-.8-2.8-1.4-4.13-4.62-10.3-.4-17.29-6.8-20.26-1.86-12.8.01-6.94-4.16-12.65-1.08-1.48-.2-5.36-2.31-6.79-4.56-3.08-1.21-5.63-5.32-9.89-1.12-1.16-3.24-1.43-2.9-3.98s-3.27-2.26-3.32-2.94l-.11-1.44c4.52-.45,14.87.77,18.56-1.04.11.38-.06.85.09.88l1.01.23c.51.12.93,1.56,1.72,2.02,2.26,1.3,3.55,3.48,5.18,5.37,2.08,2.42,5.01,4.21,6.49,7.28.73,1.52,2.24,2.27,2.51,3.73Z"/>
          <path class="cls-103" d="M121.29,423.3c-1.96.11-3.99-.46-6.31-.18-.59.07-1.21,1.45-1.11,2.01-3.26-.71-6.62-.88-10.01-2.03-.24-.49-.15-2.38-.99-2.58l-12.67-.78c-.61-.04-1.07-.49-1.36-.75-.33-.3.22-1.48-.27-1.59l-3.38-.72c.17-2.82-.17-5.96,1.07-8.58s.22-6.17,1.9-8.43c4.01-5.38,1.53-1.5,3.22-7.76,1.09-4.04.46-8.17,1.15-12.38l4.23-.75c.46-2.07.54-3.98.86-5.93l1.79-10.78c.1-.63,1.78-.81,1.31-2.25.46,1.41,3.34-9.35,2.63-9.46.41-1.02.56-2.87.9-3.94,1.3-4.1,2.49-8.29,3.54-12.92.44-1.94.37-3.95,1.23-5.6.54-1.03,2.21,3.18,3.62-10.69.02-.23-.49-.39-.38-.64.41-.87.61-1.97,1.1-2.78,2.54-4.21,1.14.51,5.02-4.59l.07,1.45c.04.78,1.6-.22,2.51.09.04,3.44-.66,7.06-1.13,10.51l-2.92,1.17-1,5.52c-.34.47-2.51.44-2.38,1.06.46,1.3-.27,1.67-.7,2.74-2.2,5.42.61,13.03-2.88,12.07-1.98,5.5-2.03,11.83-3.35,17.5-.42,1.82-2.5,3.27-2.55,5.83-.07,3.72-1.36,7.3-.88,11-1.22.67-2.2.31-3.23.65-.68.23-.71,1.73-.4,2.33.69,1.33-.75,2.21-.89,3.38l-.94,7.81c-.07.62-2.67-.25-2.81.78-.31,2.32-1.79,4.07-2.09,6.23l-1.28,9.01-1.01,7.05c1.42.91,3.46.54,4.92,1.75,1.74,1.44,4.01.94,5.96,1.66,7.24,2.66,5.91-.15,13.09,2.75,2.12.86,4.52-.23,6.68.34.28.54.07,1.02.09,1.41Z"/>
          <path class="cls-67" d="M268.62,257.77c-.43-.08-.86.23-1.33.45s-.42,1.09-.5,1.59c-.47.01-.83.03-1.02-.23-.42-.59-.32-1.48-.51-2.26-.54-.88-2.03-.46-2.81-.94-.24-1.93-.44-3.86-.57-5.8-.25-3.66-.94-7.51-1.41-11.38-.86-.59-2.25-.21-3.05-.18-.84.04-1.67-.17-2.79-.33-.1-5.77-.73-11.04-1.58-16.91-1.72.13-3.13-.57-4.53-.59.08-1.69.28-3.34-.13-5.14-3.02-.23-5.87-.36-8.8.45l-.73,2.63c1.63-.08,2.59-.06,3.85.13.18.1.15.49.12.62l-11.21.31c.31-.74-.5-.46-1.25-.52.25-1.74-.69-3.04-1.04-4.4.85-.63.73-2.25.77-3.31l9.83-2.43c1.56-.39,2.81-.79,3.87-1.54.4,1.32,2.59.21,3.5.96,1.76,1.45,1.31,4.4,1.4,6.64,1.71.47,3.43-.24,4.93.68.22,1.48-.63,3.59.42,4.58s3.02.27,4.52.65l2.14,16.71c1.33.46,2.96.1,3.6.99.88,1.24.35,2.95.78,4.45.85.46,1.75.2,2.43.84l1.09,13.27Z"/>
          <path class="cls-80" d="M138.74,223.05c-2.24-.28-4.72.58-7.53.03-1.24-.25-3.48-1.02-4.13.55-.9,2.18-.22,4.4-.59,6.27-.88,1.13-2.58.68-4.27.59-1.23,4.37-.98,10.86-1.67,15.6-2.3-.17-1.35,4.72-1.81,7.22-1.16.61-3.3-.06-3.51.9l-.83,3.73c-.15.66-1.86.35-2.2.84-.56.82.05,2.4-.61,2.8l-2.22,1.36c-.79.49.2,2.16.03,2.95-.24,1.09.11,2.7-.65,3.92-.8,1.08-3.15.44-4.34.7-.92-1.36.38-9.57.66-11.8l4.33-.83c1.71-1.35.82-4.14,2.09-5.69,1.69-2.06,1.7-4.77,2.19-7.26l2.78-14.25,5.04-.49c.21-3.71-.15-7.06.46-10.82,1.99.46,3.44-.45,4.29-1.26,1.95.37,4.37-.92,6.34-.29s4.44-.28,6.27.8c1.19.7.43,3.49-.11,4.42Z"/>
          <path class="cls-16" d="M120.06,271.51l-.44,6.37-6.11-.23c-.86,2.58-.71,6.5-2.92,7.41-1.35.56-2.9.28-3.86,1.14-.28.25-.97.33-1.33.15-.95-.47-2.37-.54-3.32-1.27-3.95-3.05-8.8-.18-7.12-3.72.31-.66,1.21-.23,2.18-.4,1.4-.24,1.07-2.25,1.09-3.24.43.14.54-.15.45-.52,1.65.07,3.22.08,5.14-.03-.18-2.28.59-4.2.22-6.12.42.47.77-.15.38-.53,1.19-.26,3.55.39,4.34-.7.76-1.22.41-2.83.65-3.92.91-.38,1.93-.1,2.6.45.98.8.79,2.05.65,3.74,3.72,1.44,5.61-.28,7.41,1.43Z"/>
          <path class="cls-42" d="M328.84,406.38c-.24.04-.56.21-.75.2-.4-.02-.63-.55-1.09-1.16-1.06,1.77-3.03.77-5.76.48l-1.12-5.22c-.18-.86-2.18-.21-2.56-.71-2.32-3.95-2.03.94-2.41-7.13-.97-1.02-2.34-.61-3.57-1.03-.6-1.57-.32-3.09-.7-4.76-1.66-.19-2.89-.38-5.03-.35.51-2.24-2.31-2.17-2.79-3.08-1.1-2.13-1.43-4.39-4.54-4.97-1.3-.24-2.85-5.8-1.05-5.98s4.04-.03,5.99.76c.43,1.82.25,3.47.51,5.38,1.08.52,4.96-.13,5.81,1.16.37.56-.05,1.96.13,2.54.43,1.35,2.38,1.78,1.86,3.66l4.68.79.58,5.06,4.13.46,1.06,7.11,5.6.8c.86,2.14-.02,4.31,1.03,5.98Z"/>
          <path class="cls-94" d="M286.63,291.16c-3.32-1.01-.97,8.72-1.31,9.68-3.16,2.6-6.72-1.12-11.56-.31.65-1.61.61-4.04.92-5.55,1.85-.87,4.83-1.12,5.48-3.76.29-1.2-.54-2.38-.24-3.33.77-.85,1.21-3.21.04-3.92-1.04-.63-2.51-.22-3.38-1.12.95-1.09,1.08-2.31,1.18-3.42.56-.2,2.12.22,2.39-.71.12-.4-.13-.92.36-1.45,7.18,4.42,1.06,4.06,5.34,5.61.82,2.76.52,5.62.79,8.29Z"/>
          <path class="cls-110" d="M280.49,277.27c-.48.53-.24,1.05-.36,1.45-.27.93-1.83.51-2.39.71-.1,1.11-.23,2.33-1.18,3.42.87.9,2.35.49,3.38,1.12,1.17.71.73,3.07-.04,3.92-4-1.85-2.96.08-5.41-3.15-.45-.59.64-1.42.53-1.87,1.13-1.21-8.59.6-8.02.4-.09-.59-.6-.91-1.7-1.32.93-.57.93-1.5.56-2.41,2.54.3,5.06-.23,8.14-.66.41-2.4-.12-4.6-.09-6.79.65-.27.37-1.24.93-1.65,1.4.2,2.91.04,4.59.51.44,2.3.18,4.48,1.03,6.33Z"/>
          <path class="cls-19" d="M268.62,257.77c1.6.28,3.28.16,5.01.81l1.25,11.85c-.56.42-.28,1.38-.93,1.65-.32-.24.1-.66-.11-1.19-1.7.02-2.89.21-3.96-.45,1.88-5.9-3.09-5.51-3.09-10.62.08-.51.04-1.38.5-1.59s.89-.53,1.33-.45Z"/>
          <path class="cls-38" d="M104.03,271.05c.37,1.92-.4,3.84-.22,6.12-1.91.11-3.48.1-5.14.03-.11-1.81-.65-4.3.25-6.19,1.08-.84,3.88-.51,5.11.04Z"/>
          <path class="cls-50" d="M229.34,215.28c.35,1.36,1.29,2.66,1.04,4.4.75.07,1.56-.21,1.25.52-2.78.08-5.25,3.25-9.05,3.44-1.4.07-2.29,1.3-3.34,1.44-3.97.54-1,5.93-5.02,5.07-2.37-.5-3.1.92-4.5,2.02-1.06.83-2.43.8-2.52,2.79-.11,2.48-2.56,3.78-4.86,3.6-5.42-.42-9.94,3.73-10.36,3.88-5.63,1.95.38,5.18-15.75,4.12-1.66-1.51-1.8-3.33-3.39-4.65-.65-.54-1.7-.99-1.58-1.85.85-.09,2.19-.52,2.91-1.13.11.88,1.01.5,1.31.23.5-.47.3-1.4.6-1.92.77-1.34,2.44-1.41,3.55-2.47,1.71-1.63,4.51-1.82,6.85-2.15,2.07-.29,2.22-1.33,3.17-2.45,1.35-1.57,4.38-.58,5.88-1.92,1.27-1.14,1.68-3.38,3.16-3.66,5.73-1.09,11.29-1.35,17.07-2.04.89-1.6.73-3.49.88-5.41l7.6-.96c1.86-.24,3.48-.73,5.1-.9Z"/>
          <path class="cls-27" d="M170.76,233.29c-.08.75-.09,1.91.31,2.69.6,1.17,3.52.77,3.26,2.04-.05.25-.54.51-.17.93-.72.61-2.06,1.04-2.91,1.13-1.05.11-3.4-.17-3.84-1.15.18-4.66-1.59-.9-.66-5.85,1.12-.66,2.78-.5,4,.21Z"/>
          <path class="cls-50" d="M129.11,288.86c.03,1.68.61,3.48.3,5.53-1.53.39-3.41.63-3.57,2.4-.42,4.67.05,9.37,0,14.09-.05,4.21,4.1-.12,1.46,18.13-.12.81-1.31,1.2-1.34,2.6l-.27,15.87c-.03,1.63-.98,2.49-1.17,3.52l-1.77,9.89c-.54,3.01-4.21,29.5-3.83,30.56.19.53-1.49.27-1.6.6-.82,2.63-.18,5.54.06,8.24l6.59-.22c-.32,5.77-2.38,9.68-1.61,14.83,3.96,1.42,7.22-1.2,10.71-1.76,11.17-1.8,25.41.51,31.92-1.07,2.1-.51,4.38-.08,6.43-.3-.17.56.52,1.04.27,1.36-.74.96-3.04.16-4.28.47-1.69.43-.85,7.02-2.25,9.85-2.81,1.92-6.03,1.1-5.16,2.7l-21.87-.25-12.4-1.34c-1.6-.17-3.03-1.38-4.45-1.3-.02-.38.19-.87-.09-1.41-2.15-.57-4.55.51-6.68-.34-7.18-2.9-5.85-.1-13.09-2.75-1.96-.72-4.23-.22-5.96-1.66-1.46-1.21-3.5-.84-4.92-1.75l1.01-7.05,1.28-9.01c.31-2.16,1.78-3.91,2.09-6.23.14-1.03,2.73-.16,2.81-.78l.94-7.81c.14-1.18,1.58-2.05.89-3.38-.31-.6-.29-2.1.4-2.33,1.03-.34,2.01.02,3.23-.65-.49-3.7.81-7.28.88-11,.05-2.56,2.13-4.01,2.55-5.83,1.31-5.67,1.36-12,3.35-17.5,3.48.96.67-6.65,2.88-12.07.43-1.07,1.16-1.45.7-2.74-.13-.62,2.03-.59,2.38-1.06l1-5.52,2.92-1.17c.46-3.45,1.17-7.07,1.13-10.51-.91-.3-2.47.69-2.51-.09l-.07-1.45,1.21-11.2,2.64.42.99-8.47,2.47-1.09c1.22.24,2.22.4,3.41,0Z"/>
          <path class="cls-87" d="M236.2,277.19c-.37,2.3-.63,4.44-.76,6.79l-1,17.45c-1.21.19-2.49.16-4.16.15-.76-2-.14-3.89-.16-6-1.76-.16-3.25.11-5-.24l.07-28.82c.01-4.44.93-8.42,1.35-12.45,3.3,1.39,1.81,5.85,4.4,10.7.88,1.65.67,4.07,1.56,5.28,3.12,4.21.54,9.02,3.71,7.14Z"/>
          <path class="cls-55" d="M237.7,277.15c-.21.44-.46.66-.92,1.25-.59.76,1.06.71,1.64.91,2.44,8.02,1.64-1.56,3.69,10.75.25,1.53.27,2.77,1.41,3.55.79,1.06-.77,1.67-.85,2.57-4.52-2.3-2.21-2.25-4.46-8.89-.35-1.04-.09-2.03-.82-2.73-.55-.53-1.09-.65-1.94-.58.13-2.34.4-4.48.76-6.79.46-.27,1.01.02,1.5-.04Z"/>
          <path class="cls-15" d="M238.88,321.02c-1.08.27-3.51,1.06-4.11,0-.68-3.18-.1-6.33.17-9.19.61-.54,1.95-.79,2.51,0,1.11,1.56.26,3.59.58,5.16l.84,4.02Z"/>
          <path class="cls-92" d="M279.91,287.88c-.29.96.54,2.14.24,3.33-.65,2.64-3.63,2.89-5.48,3.76-.3,1.52-.27,3.94-.92,5.55l-7.28,1.22c-8.63,1.44-7.55,4.94-14.09,8-.93-1.19.15-2.31-.39-3.49-.95-1.14-2.88-.87-4.5-1.24-.73-3.47-.91-6.98-.81-10.16,6.29-2.14,5.78-6.08,7.96-7.13,3.96-1.92,8.25-3.05,12.38-4.47-.57.2,9.15-1.61,8.02-.4.11.46-.98,1.29-.53,1.87,2.45,3.23,1.41,1.3,5.41,3.15Z"/>
          <path class="cls-98" d="M273.94,272.08c-.03,2.19.5,4.39.09,6.79-3.08.43-5.6.97-8.14.66s-4.82,1.28-7.13,2.21c-2.86,1.14-4.88,2.72-5.69,5.58-4.98,3.24-3.9,5.42-9.55,6.29-1.14-.78-1.15-2.02-1.41-3.55-2.05-12.31-1.25-2.73-3.69-10.75-.57-.2-2.23-.15-1.64-.91.46-.59.72-.81.92-1.25.5-1.06.64-2.38,2.02-2.4.9-.01,3.04-.53,2.84,1.09-.09.75-.49,1.28-.06,1.76.19.22,1.02.03,1.45-.1.37-.1-.36-.68-.01-1.42,1.42-.73,1.78-2.5,2.75-3.41,1.16.19,2.69-1.05,3.68-1.8.46.22,1.24,1.19,1.52,1.82-.55,4.45-5.53,7.39-4.11,9.74,2.09.88,2.57-2.19,3.36-3.23,1.5-1.97,5.4-3.5,7.93-2.95,4.47.97,1.27,1.54,9.95.02.14-2.13.28-4.07.85-5.84,1.07.66,2.25.47,3.96.45.21.53-.22.96.11,1.19Z"/>
          <path class="cls-10" d="M265.89,279.54c.36.9.36,1.83-.56,2.41,1.09.41,1.61.73,1.7,1.32-4.13,1.42-8.42,2.55-12.38,4.47-.13-.79-1.11-.12-1.58-.41.82-2.86,2.84-4.44,5.69-5.58,2.31-.92,4.62-2.51,7.13-2.21Z"/>
          <g>
            <path class="cls-64" d="M254.64,287.73c-2.17,1.05-1.66,4.99-7.96,7.13-.09,3.19.08,6.69.81,10.16,1.62.37,3.56.1,4.5,1.24.54,1.18-.54,2.3.39,3.49,6.53-3.07,5.46-6.56,14.09-8l7.28-1.22c4.85-.81,8.4,2.91,11.56.31.34-.96-2.01-10.69,1.31-9.68.36,3.56.71,7.25.3,10.94-.08.72-1.83.51-2.59.51-.38,5.74-.88,11.7.63,17.33l1.18,4.4c.59,2.21,1.41,3.47,2.32,5.24,1.82,3.52.58,7.93.98,11.65.26,2.41-.87,3.48-2.59,4.74-1.39,1.02-1.69,3.66-3.4,4.05s-2.95,1.58-2.98,3.12c-3.69,1.81-14.04.59-18.56,1.04-1.37-.41-1.19-2.21-1.83-3.03-.94-1.21-2.1-1.7-2.27-3.68-.1-1.2-1.78-1.96-2.5-2.87-1.35-1.73-1.81-12.85-.18-15.62,4.52-1.03.87-13.62-2.07-12.43-.67-6.09-4.2,2.09-6.74-10.09-.61-.72-2.04-.97-2.47-1.76-.73-2.95-1.06-5.79-1.19-8.53.09-.91,1.65-1.51.85-2.57,5.66-.87,4.57-3.04,9.55-6.29.47.28,1.45-.38,1.58.41Z"/>
            <g>
              <path class="cls-116" d="M284.93,335.07c1.04,3.63.02,13.55-5.6,13.41-1.15-1.36.49-2.17-1.31-3.67-.78-.65-1.07.46-1.46.38-2.42-.5-.7,2.72-6.64,1.17l1.48-.84s.1-3.62.95-3.57l1.46.09c.63.04,1.33-.23,1.67-.47.4-.29.5-4.61-1.7-5.94.6.08,1.26-.15,1.7.31.26.28.81.72.63,1.4-.35,1.36.38,2.35,1.42,2.62.53.14,1.49.95,1.74-.3.3-1.49.12-2.91.26-4.1l5.4-.49Z"/>
              <path class="cls-79" d="M273.78,335.64c2.2,1.33,2.1,5.65,1.7,5.94-.34.24-1.04.51-1.67.47l-1.46-.09c-.85-.05-.92,3.55-.95,3.57l-1.48.84c-1.72-2.97-.47-6.76-.97-10.3,1.89-.56,3.31-.63,4.84-.42Z"/>
              <g>
                <path class="cls-84" d="M274.29,309.52c-.77,1.17.01,2.13.17,3.21.61,4.22.72,8.44.39,12.5l-12.91.23c-1.75-5.19,5.03-3.33,4.09-8.25l-5.21,2.55c.16-1.4-.47-3.45.23-4.69,1.54-2.72,7.4-2.66,8.74-3.41.4-.22.3-1.18.8-1.65,1.05-1,2.54-.33,3.7-.49Z"/>
                <path class="cls-78" d="M279.34,328.05c.15,1.6.26,3.28-.34,4.79-3.87,1.02-17.33-3.3-16.05,1.61-1.48.17-2.94.1-4.43-.02l-.24-2.23c-.12-1.14,1.83-.7,2.15-1.39.66-1.43.62-2.61,3.01-2.63l15.9-.13Z"/>
                <path class="cls-37" d="M274.84,325.24c.33-4.06.22-8.28-.39-12.5-.16-1.08-.94-2.05-.17-3.21,1.49-.2,4.88-.74,5,.72l1.09,13.3c.04.44,1.11.68.57,1.16-.15.14-.5.46-.95.47l-5.16.07Z"/>
                <path class="cls-3" d="M279.27,307.14l-8.26.53c-2.72.17-5.77,1.24-7.78-.8,17.02-6.77,17.49.18,16.04.27Z"/>
                <path class="cls-99" d="M284.93,335.07l-5.4.49c.1-.87-.21-1.92-.53-2.72.6-1.5.49-3.19.34-4.79,1.17,0,3.94-.64,4.49.96.34,2.1.55,4.15,1.1,6.06Z"/>
              </g>
              <path class="cls-40" d="M260.68,349.75c.62-.11,1.74.35,2.39-.48s-.06-2.05-.78-1.75c-.34.14-1.25-.37-1.44.11s.23,1.17-.2,1.56c-1-.62.25-1.76-.21-2.58.51.47,1.75.71,2.09-.14.37-.93.04-1.67.05-2.24,1.15.3,2.16.04,3.67.15-.52,2.43.04,3.72,1.87,5.16-2.21,1.2-5.38,1.54-7.44.21Z"/>
              <path class="cls-61" d="M279.33,348.49c-1.05-.03-2.28.8-3.27-.19.75-1.1,1.52-2.35.51-3.11.38.08.67-1.03,1.46-.38,1.8,1.5.16,2.31,1.31,3.67Z"/>
            </g>
          </g>
          <path class="cls-16" d="M138.74,223.05c4.72.59,10.08.46,14.61,2.32,2.15.88,3.13,3.75,6.33,3.44.7-.07,2.05.56,2.46,1.07.35.44-.04,2.22.62,2.36l3.99.83c-.93,4.95.84,1.2.66,5.85-8.89,1.57-1.9-2.14-10.7-.32-2.29.47-4.8-.47-7.01-.52l-1.24-5.56c-.33-.32-1.22-.29-1.54-.42-.55-.23-.35-.99-.6-1.52-3.42-.52-7.23-.63-10.96-.2l-.77,8.36c-1.12.74-2.27.7-3.23,1.19-.57-1.05-1.8-.96-2.68-1.58.66-2.31.76-5.34.43-7.81-.83-.19-2-.18-2.63-.63.37-1.87-.3-4.09.59-6.27.65-1.58,2.88-.8,4.13-.55,2.81.56,5.29-.3,7.53-.03Z"/>
          <path class="cls-111" d="M248.53,221.21c-3.24-.05-1.77.54-5.69-1.32.03-.13.07-.52-.12-.62-1.26-.19-2.23-.21-3.85-.13l.73-2.63c2.93-.81,5.78-.67,8.8-.45.41,1.8.2,3.45.13,5.14Z"/>
          <path class="cls-74" d="M261.88,250.59c-1.32.06-2.25-.93-3.76-1.2l-.7-10.35c.8-.04,2.19-.41,3.05.18.47,3.87,1.16,7.72,1.41,11.38Z"/>
          <path class="cls-91" d="M128.69,238.34l-2.35.58c-1.07,9.49.06,18.72-1.65,26.76-1.11.72-2.91,1.59-3.44,2.91l-1.18,2.92c-1.8-1.71-3.68.02-7.41-1.43.14-1.69.33-2.94-.65-3.74-.67-.55-1.69-.82-2.6-.45.17-.8-.82-2.47-.03-2.95l2.22-1.36c.66-.4.04-1.99.61-2.8.34-.5,2.06-.19,2.2-.84l.83-3.73c.21-.96,2.35-.28,3.51-.9.46-2.5-.49-7.39,1.81-7.22.69-4.74.44-11.23,1.67-15.6,1.68.09,3.39.54,4.27-.59.63.46,1.79.44,2.63.63.34,2.48.23,5.51-.43,7.81Z"/>
          <path class="cls-53" d="M128.69,238.34c.87.63,2.11.54,2.68,1.58l-1.36,18.52c-.75,10.2-1.06,20.33-.9,30.41-1.18.41-2.19.24-3.41,0-1-3.86-.28-7.98,1.08-11.95-2.5.35-2.48,2.73-4,3.4-1.38.6-2.06,1.34-2.17,3.03-.26,4.09-.83,8.03-1.99,11.76-.51-.05-.72-.03-.8.02-.25.09-.92-.08-1.31-.42-.21-.18.06-.64-.31-.85-2.91-1.62-5.61-3.23-7.87-5.44-.56-.55-.42-2.43-1.59-2.21.96-.86,2.51-.59,3.86-1.14,2.21-.91,2.06-4.83,2.92-7.41l6.11.23.44-6.37,1.18-2.92c.53-1.31,2.33-2.19,3.44-2.91,1.71-8.04.58-17.27,1.65-26.76l2.35-.58Z"/>
          <g>
            <path class="cls-112" d="M242.84,219.9c3.92,1.86,2.44,1.27,5.69,1.32,1.4.02,2.81.72,4.53.59.85,5.86,1.48,11.14,1.58,16.91,1.11.15,1.95.37,2.79.33l.7,10.35c1.51.27,2.44,1.26,3.76,1.2.13,1.94.32,3.87.57,5.8-1.87,1.33-.69,4.09-.74,5.8-4.52.66-10.77,4.54-11.34,8.68-.99.75-2.53,1.99-3.68,1.8-.26-.35-.31-1.74-.9-1.75l-6.29-.08c-.28-10.17,2.56.31,4.76-12.58l-5.84.69c-.98-1.01.46-2.58-.02-3.83s-2.82-.56-4.51-.5l.53-18.69c-.43-.71-2.22.21-2.85.61-1.89,1.21-.6,7.23-2.32,9.03-.74-.03-2.92-.26-3.26.53-.52,2.81.8,5.5.55,7.96-.41,4.03-1.33,8.01-1.35,12.45l-.07,28.82c1.75.35,3.24.09,5,.24.02,2.1-.6,4,.16,6,1.67,0,2.94.04,4.16-.15-.19,3.33.84,7,.52,10.43-.27,2.85-.85,6-.17,9.19.59,1.05,3.03.26,4.11,0,.33,1.59.42,3.29,1.14,5.02.43,1.04,2,1.72,2.14,3.12l.86,8.55c.48.88,2.79,0,3.35.56,1.22,2.58.26,5.71,1.18,8.22s.38,5.08,1.01,7.67c.93.47,1.85.17,3,.42.71,4.64,1.52,8.98,1.8,13.81.04.62,1.59.59,1.62,1.06l.16,2.24,2.21,2.21s3.68,16.54,4.03,18.02c1.19,5.06.84,10.48,1.09,15.68-2.11.57-3.34-1.04-4.96-1.29-7.65-1.17-33.34-1.36-40.08-.31l-12.4,1.93c-.91.14-1.35,1.67-2.73,1.75-3.89.21-7.62,1.1-11.37,1.01-6.64-.15-13.09.39-19.5,1.08-2.06.22-4.33-.21-6.43.3-6.51,1.58-20.75-.73-31.92,1.07-3.49.56-6.75,3.18-10.71,1.76-.77-5.16,1.28-9.06,1.61-14.83l-6.59.22c-.24-2.7-.88-5.62-.06-8.24.1-.33,1.79-.07,1.6-.6-.38-1.06,3.29-27.55,3.83-30.56l1.77-9.89c.18-1.03,1.14-1.89,1.17-3.52l.27-15.87c.02-1.4,1.22-1.79,1.34-2.6,2.64-18.25-1.51-13.92-1.46-18.13.05-4.72-.41-9.42,0-14.09.16-1.78,2.04-2.01,3.57-2.4.3-2.04-.28-3.85-.3-5.53-.16-10.08.15-20.21.9-30.41l1.36-18.52c.96-.48,2.11-.45,3.23-1.19l.77-8.36c3.73-.42,7.54-.31,10.96.2.26.53.05,1.3.6,1.52.32.13,1.22.1,1.54.42l1.24,5.56c2.21.05,4.71.99,7.01.52,8.8-1.82,1.81,1.89,10.7.32.43.97,2.79,1.26,3.84,1.15-.12.86.93,1.31,1.58,1.85,1.59,1.31,1.74,3.13,3.39,4.65,16.13,1.06,10.12-2.17,15.75-4.12.43-.15,4.95-4.3,10.36-3.88,2.3.18,4.75-1.12,4.86-3.6.09-2,1.45-1.96,2.52-2.79,1.4-1.1,2.13-2.52,4.5-2.02,4.02.85,1.05-4.54,5.02-5.07,1.05-.14,1.94-1.37,3.34-1.44,3.8-.19,6.27-3.36,9.05-3.44l11.21-.31Z"/>
            <path class="cls-28" d="M164.57,379.45c-4.14-.54-4.23-3.82-6.49-3.42-.5.09.07-1.48-.15-1.62-2.47-1.56-3.93-4.32-4.78-7.15-.37-1.21-2.25-1.42-2.25-3.44,0-2.37-1.46-4.76-1.64-7.19-3.15-1.57-1.43-6.2-4.06-11.1-.48-.89-.07-1.93-.69-2.82-.7-.99-3.62-.19-4.05-7.06-.87-13.79-1.7-5.17-3.1-10.05-1.86-6.45-1.77-17.54-1.73-24.08l.04-6.62c.14-.96,3.37-1.39,3.66-.45,1.03,4.58.58,9.43.72,14.17.04,1.22.96,1.66,1.14,2.44.79,3.43.14,7.36,1.17,10.74.4.37,1.92,0,2.18.4.78,1.21.64,9.82,3.1,14.86.2.4,1.51.31,2.04.51.26.1,3.68,11.86,3.98,13.04.47,1.85,2.53,2.54,2.57,6.16.75.12,3.25-.4,3.44.78l3.04,18.55c.18,1.1,2.38,1.32,1.88,3.34Z"/>
          </g>
          <path class="cls-114" d="M246.69,272.67c-.98.91-1.33,2.67-2.75,3.41-.35.75.38,1.32.01,1.42-.43.12-1.26.31-1.45.1-.43-.48-.03-1.01.06-1.76.2-1.62-1.93-1.1-2.84-1.09-1.38.02-1.53,1.34-2.02,2.4-.49.05-1.05-.23-1.5.04.33-2.03.35-4.48-1.35-6.24-1.52-2.06.04-5.65-.99-8.32-5.8-1.3-2.11-14.13-4.61-17.05,1.72-1.81.43-7.82,2.32-9.03.63-.4,2.42-1.32,2.85-.61l-.53,18.69c1.69-.06,4.01-.81,4.51.5s-.96,2.83.02,3.83l5.84-.69c-2.2,12.9-5.04,2.42-4.76,12.58l6.29.08c.59,0,.64,1.4.9,1.75Z"/>
          <path class="cls-43" d="M229.24,245.58c2.5,2.91-1.19,15.75,4.61,17.05,1.03,2.67-.53,6.26.99,8.32,1.71,1.75,1.68,4.21,1.35,6.24-3.18,1.88-.59-2.93-3.71-7.14-.89-1.2-.68-3.63-1.56-5.28-2.58-4.85-1.09-9.31-4.4-10.7.25-2.46-1.07-5.14-.55-7.96.34-.79,2.53-.56,3.26-.53Z"/>
          <path class="cls-73" d="M125.7,288.86l-2.47,1.09-.99,8.47-2.64-.42c.13-1.19-.99-2.19-1.79-2.88.08-.05.3-.07.8-.02,1.16-3.72,1.73-7.67,1.99-11.76.11-1.7.79-2.43,2.17-3.03,1.53-.66,1.5-3.05,4-3.4-1.36,3.97-2.08,8.09-1.08,11.95Z"/>
          <g>
            <path class="cls-111" d="M266.79,259.82c0,5.11,4.97,4.72,3.09,10.62-.56,1.77-.71,3.71-.85,5.84-8.68,1.52-5.48.95-9.95-.02-2.53-.55-6.44.98-7.93,2.95-.79,1.05-1.27,4.11-3.36,3.23-1.42-2.35,3.55-5.29,4.11-9.74-.29-.62-1.07-1.6-1.52-1.82.57-4.15,6.82-8.02,11.34-8.68.04-1.71-1.13-4.48.74-5.8.78.48,2.27.06,2.81.94.19.77.09,1.67.51,2.26.19.26.54.24,1.02.23Z"/>
            <path class="cls-77" d="M261.81,270.8c-1.92,1.68-4.34,1.96-6.42.4,1.23-1.24,1.15-2.79,1.81-4.05.62-1.19,3.35-.4,4.45.03.43,1.41.08,2.44.16,3.62Z"/>
          </g>
        </g>
        <g>
          <path class="cls-90" d="M258.45,192.65c-.19.91-.13,1.68-.95,2.17-.65.39-1.99.39-2.8.74l-1.17,5.63-9.64,1.5c.01,2.05-.35,3.7-.08,5.31-1.06.75-2.31,1.15-3.87,1.54l-9.83,2.43c-.04,1.05.08,2.68-.77,3.31-1.61.17-3.23.66-5.1.9l-7.6.96c-.15,1.92.02,3.81-.88,5.41-5.79.69-11.34.95-17.07,2.04-1.48.28-1.89,2.52-3.16,3.66-1.5,1.35-4.53.35-5.88,1.92-.95,1.11-1.1,2.15-3.17,2.45-2.34.33-5.14.52-6.85,2.15-1.11,1.06-2.78,1.13-3.55,2.47-.3.52-.1,1.45-.6,1.92-.3.28-1.2.65-1.31-.23-.38-.41.12-.68.17-.93.25-1.27-2.67-.88-3.26-2.04-.4-.78-.39-1.94-.31-2.69,1.54-.71,1.94-2.26,1.69-3.85,7.31-2.13.32-3.74,6.78-5.81,1.6-.51,1.54-2.71,2.46-3.6,3.05-2.94,8.13-1.27,8.15-4.29,2.3-1.38,5.09-1.39,7.59-2.54.58-.99.36-2.23.71-3.32l7.86-1.67c1.12-.58.22-3.18.97-4.2,1.03-1.41,3.76-.45,4.97-1.65,1.08-1.07,2.18-1.83,3.87-1.73,3,.18-2.09-3.3,8.33-4.29.57-1.33.32-2.85.48-4.3l5.04-1.23c-.29-2.2.94-2.88,1.94-4.32l2.04-2.95c1.41-2.16.16-5.53,1.22-7.84.33-.48,2.25.02,2.41-.93.4-2.39.16-4.53.16-6.88-1.29-.44-2.13.07-3.08-.54.04-2.64-1.06-17.51-1.64-18.25-.49-.62-1.51-1.23-3.07-1.22l-.61-4.43c-1.99.33-3.1-.85-4.21-1.97.11-.34-.05-.87-.5-.59-.41-.91.11-2.57-.57-3.42s-2.17-.92-2.93-1.39c-.19-.25-.25-.66-.63-.73,0-.64-.25-1.22-.35-2.03-.03-.22-3.91-1.56-3.94-.88-3.48-3.85-9.32.15-8.97-5.82-.58.04-1.26.46-1.29-.28.21-.13,1.07.15,1.09-.21.07-1.02.33-2.77-.28-3.31-1.31-.6-2.84-.59-4.01-.5-.34.03-.48-.4-.66-.55-2.08-1.72-9.17-2.22-12.4-3.44-1.07-.41,4.22-4.01-20.29-3.94-4.33.01-21.91-.29-24.4,1.24-.27.17-1.87,3.76-.9,4.46,1.68-.13-5.97,1.41-8.5,1.63-1.43.12-3.29-1.14-4.99.06-.11,1.32-.22,2.57-.63,4.12l-7.49.7-.35,4.13c-2.93,1.47-5.64,2.79-8.92,2.21-.17,1.25-.84,5.41-1.22,5.6-.55.28-1.45.17-1.77.46-1.47,1.35-.2,3.55-.89,4.73-2.4,4.08-.32,2.6-1.47,8.65l-2.94.72c-.25,9.78-.67,19.37-.06,29.08,1.03.47,3.19.59,3.3,1.7s.08,2.01.5,3.21c.82,2.33-.5,5.04.79,7.08.65,1.02,2.77.29,3.81.59.6.76.15,1.58.97,1.92.43,3.09-4.16.25-6.55,2.47.03-1.59-1.64-1.88-1.7-2.54-.15-1.78-.79-2.05-1.84-2.23-1.11-.19-2.53-1.37-4.44-1.53l-1.15-14.72c-.65-8.29.9-17.03.01-25.43-.18-1.66.6-3.79.53-5.54,1.27.24,2.66-.13,4.05-.49l.61-8c.16-2.13.53-4.05.38-6.22.35-.77.24-1.21-.6-1.12-.13-.42.25-.75.63-.51.75.83,3.17,1.08,3.59-.17.97-2.92.19-6.21,1.44-9.03.5-1.13,1.66-2.03,1.54-3.82-.09-1.39.59-2.62.97-3.89.66-2.2.06-4.82,1.53-6.61.94-1.14,1.34-2.21,1.18-3.84l4.03-.56c.02-3.42.34-6.6,1.08-9.77,2.1-.02,3.44.01,5.08-.43l.07-12.48c.89-.8,2.7-.28,3.01-1.64.16-.89-.2-1.95.46-2.31.32-.18,1.38.16,1.57-.17.72-1.33-.2-2.92.24-4.46l4.74-.83c-.88-2.61.43-4.24.98-6.42.18-.73-.05-2.31.76-2.78.75-.43,3.74-.05,3.78-1.01l.08-1.94,4.43-2.04c.37-.63-.03-3.1.91-3.15,1.82-.1,2.76-.99,4.01-1.28.99-.23,3.1,1.12,3.16-.73.02-.8-.34-1.72.07-2.29,1.01-1.42,3.58-.5,4.4-1.64.29-.39-.18-2.27.32-2.4l10.49-2.92c1.19-.33,3.19-.33,3.22-2.32.64.27,1.49.44,2.06-.06.33-.28.25-1.49.5-2.26,3.31-.59,7.63-.52,11.28-.37l12.68.52c.13-2.22.61-4.06,1.27-5.86,2.87-.48,5.42-.33,8.14-1.41,1.16-.46.83-2.86,1.03-3.7.4.18.87-.06.49-.47.69.51,7.7-1.16,8.04-1.43.69-.56.39-1.41.79-2.39.78-.09,1.25-.63.24-.89.09-.49.53-.91.98-1.08.23.06.04.99.28,1.15,3.51-.28,7.32-.77,10.67-2.07.74-.29.22-1.85.52-2.42.46-.88.18-1.22-.66-1.2l.73-1.09c.5,2.12,5.93.26,8.1-.23.34-.12.06-1.37.35-1.49l1.95-.83c.67-.29-.25-2.49.81-3,2.33-1.13,5-.54,7.4-.47.93,7.1-1.44,3.77-1.35,6.9s3.86.04-1.05,16.83c-.37,1.27-1.93.56-2.59,1.11-1.22,1.02-1.96,2.34-3.79,1.65l-.74,2.81c-1.22.81-3.16-.08-4,.97-.93,1.16.09,2.68-.75,4.08-1.21-.6-3.11-1.18-3.76.08-.5.97.86,3.39-.74,4.04-.55.22-1.96-.62-2.83-.38-4.65,1.31-10.44-.22-10.96-1.04-.21-.33.24-.89.43-1.95-2.49-1.04-5.31-.42-7.97-1.11.02-1.54-.57-3.55-2.22-3.89-1.46-.3-2.56-.7-4.32-.23,3.43,7.93,2.26,2.81,6.27,6.18,2.7,2.27,3.82,2.99,7.7,3,.94,1.46.44,3,.75,5.02l9.16,1.33c.11,1.17-.45,2.73.47,3.54s2.48.3,3.49,1.05c.84,1.95.46,3.99.62,6.09l4.47.65c-.17,1.73-.17,3.23-.16,5.32,1.19.53,2.53.28,3.95.59l.43,9.52c.25,5.43.01,11.03.86,16.55.79.33,1.66.12,2.67.34.58,1.76.42,3.4.73,5.35l4.33.62c-.22,6.07-.15,11.86.95,17.87l4.29.55c.53,4.38-.21,8.68.76,12.88.46,1.11,3.01.82,4.03.72l1.67,18.37c1.22-.36,3.39-.68,3.4.52.07,7.11.17,13.93-.19,21.28l-3.56.89-1.39,8c-.35,2.01-2.91,2.41-4.51,2.96-.61.21-.39,1.55-.8,1.83-.45.31-1.39.03-1.84.56-4.43,5.2,1.17-.73-3.12,2.94-.36.31-.13,1.69.33,1.57,1.37-.83,2.7-.91,4.18-.08.61-.49.51-1.27.86-1.43-2.03.92,6.72-1.36,5.63-.62Z"/>
          <path class="cls-48" d="M248.31,4.1c-.71,1.25,1.11,1.22,1.36,1.76.34,1.18,2.38,2.33,2.8,3.29,3.15,7.17.32,27.12,0,27.58l-3.58,5.27c-2.29,3.37,2.18,17.89-9.27,18.73-.16,1.25-.56,3.04-.18,4.11,1.81,1.78,2.45,3.94,2.34,6.55,1.94.44,3.56.04,5.12.71l.33,7.47c1.11.39,2.19.16,2.97.92-.35,3.13.12,5.69.64,8.36l1.62,8.18,3.18,25.56c.06.46,1.75.05,1.97.54s.2,1.2.31,2.02l1.38,10.93c1.3.24,2.07-.01,3.24.49l1.87,17.46c.88.3,2.25,0,2.54.71,1.2,2.98.65,24.96.24,30.08-1.05.47-1.93.36-3.01.61l-1.15,5.95c-1.63.49-3.36.38-4.57,1.26,1.09-.74-7.67,1.54-5.63.62-.34.16-.25.93-.86,1.43-1.48-.83-2.81-.75-4.18.08-.46.12-.7-1.26-.33-1.57,4.29-3.67-1.3,2.27,3.12-2.94.45-.53,1.39-.25,1.84-.56.4-.28.19-1.62.8-1.83,1.6-.55,4.16-.95,4.51-2.96l1.39-8,3.56-.89c.36-7.35.26-14.17.19-21.28-.01-1.2-2.18-.88-3.4-.52l-1.67-18.37c-1.01.1-3.56.39-4.03-.72-.97-4.2-.23-8.5-.76-12.88l-4.29-.55c-1.1-6.01-1.18-11.8-.95-17.87l-4.33-.62c-.31-1.95-.16-3.59-.73-5.35-1.01-.22-1.89,0-2.67-.34-.85-5.52-.62-11.12-.86-16.55l-.43-9.52c-1.41-.31-2.76-.06-3.95-.59-.02-2.09-.01-3.59.16-5.32l-4.47-.65c-.17-2.09.21-4.14-.62-6.09-1.01-.75-2.58-.25-3.49-1.05s-.36-2.37-.47-3.54l-9.16-1.33c-.31-2.02.19-3.56-.75-5.02-3.88,0-5-.73-7.7-3-4.01-3.37-2.84,1.75-6.27-6.18,1.76-.47,2.86-.07,4.32.23,1.65.34,2.24,2.35,2.22,3.89,2.66.7,5.48.07,7.97,1.11-.19,1.07-.63,1.63-.43,1.95.52.82,6.31,2.35,10.96,1.04.87-.24,2.28.6,2.83.38,1.59-.65.23-3.07.74-4.04.65-1.26,2.55-.67,3.76-.08.84-1.4-.18-2.92.75-4.08.84-1.05,2.78-.16,4-.97l.74-2.81c1.82.7,2.57-.63,3.79-1.65.66-.55,2.22.16,2.59-1.11,4.91-16.79,1.13-13.62,1.05-16.83s2.28.2,1.35-6.9c-2.4-.07-5.06-.65-7.4.47-1.06.51-.14,2.71-.81,3l-1.95.83c-.29.12-.01,1.37-.35,1.49-2.17.49-7.6,2.35-8.1.23.37-.56.91-.96,1.44-1.5,2.78-2.83-.23-3.94,8.66-4.54l.52-4.63c2.76-.04,5.24-.52,7.66-.09Z"/>
          <path class="cls-95" d="M207.95,26.75c-.2.84.13,3.24-1.03,3.7-2.72,1.08-5.27.93-8.14,1.41-.67,1.8-1.14,3.63-1.27,5.86l-12.68-.52c-3.65-.15-7.97-.22-11.28.37-.25.78-.17,1.98-.5,2.26-.57.5-1.43.33-2.06.06-.03,1.99-2.03,1.99-3.22,2.32l-10.49,2.92c-.5.14-.03,2.01-.32,2.4-.83,1.14-3.39.22-4.4,1.64-.41.57-.04,1.49-.07,2.29-.06,1.85-2.17.5-3.16.73-1.25.3-2.19,1.18-4.01,1.28-.94.05-.54,2.52-.91,3.15l-4.43,2.04-.08,1.94c-.04.97-3.03.59-3.78,1.01-.81.47-.58,2.05-.76,2.78-.55,2.18-1.86,3.81-.98,6.42l-4.74.83c-.44,1.54.48,3.13-.24,4.46-.18.34-1.25,0-1.57.17-.67.37-.3,1.43-.46,2.31-.31,1.36-2.12.84-3.01,1.64l-.07,12.48c-1.64.45-2.98.42-5.08.43-.74,3.17-1.05,6.35-1.08,9.77l-4.03.56c.16,1.64-.24,2.7-1.18,3.84-1.47,1.79-.87,4.4-1.53,6.61-.38,1.28-1.06,2.5-.97,3.89.12,1.79-1.04,2.7-1.54,3.82-1.25,2.82-.47,6.12-1.44,9.03-.42,1.25-2.84,1-3.59.17-.75-7.67,1.86-14.12,3.73-21.17l1.61-6.06c.26-.99,2.29-.32,3.39-.65l.19-9.37c1.79-.47,3.47,0,5.14-.71-.53-2.26.54-3.76.65-5.41l.52-7.16c1.04-.66,3.35-.35,3.62-1.46l1.68-6.94c.2-.84,2.55.06,3.12-.95-.02.04,2.97-8.27,2.63-9.44,2.01-.52,3.47-.5,5.52-.79-.71-2.16,1.15-2.93,1.91-4.17,1.55-2.53,3.62-4.08,6.76-4.13.04-1.65,0-3.05,1-3.21.84-.14,1.67-.35,2.67-.32.65-1.09.34-2.39.82-3.72l8.36-1.05c0-1.75-.15-3.47.72-4.91,5.41-.73,10.59-1.16,15.42-2.54-.15-3.84,3.68-4.49,6.44-4.57l18.32-.54c.28-1.72,0-3.01.5-4.7l7.62-.77c.82-.08,1.52-.03,1.74.65Z"/>
          <path class="cls-52" d="M113.91,196.69c.89.47,1.97.45,3.1.96.51.23-.13,1.62.6,1.82,4.9,1.31,3.85-.09,5.48,2.53l7.36,1.87c.89.23-.2,2.31.28,2.91.96,1.21,2.65.8,4.07,1.23l9.76,2.98c.28.81.02,1.75.41,2.55,11.95,2.1,5.84,2.88,12.77,4.43l3.42,2.35c.85.59,1.05,1.97,1.51,2.48,8.36,2.57,1.73.25,8.3,5.24.55.42.61,1.72,1.5,1.38.24,1.59-.15,3.14-1.69,3.85-1.22-.72-2.88-.87-4-.21l-3.99-.83c-.66-.14-.28-1.92-.62-2.36-.41-.51-1.76-1.14-2.46-1.07-3.2.31-4.18-2.56-6.33-3.44-4.53-1.86-9.89-1.73-14.61-2.32.53-.93,1.29-3.73.11-4.42-1.83-1.08-4.24-.16-6.27-.8s-4.39.66-6.34.29c-.31-6.62-.59-1.93-3.15-6.01.78.52.55-.42.41-.59-.3-.37-1.36-.19-1.54-.49-.48-.83.01-2.96-1.26-3.17l-6.75-1.13c-.2.8.19,1.43-.46,1.25.2-1.95-3.68-.88-4.46-1.64-1.16-1.11.33-3.3-1.03-4.1-.73-.43-3.77.04-3.98-1.15-.4-2.3-.2-4.56-.19-6.67,1.05.18,1.69.45,1.84,2.23.05.66,1.72.94,1.7,2.54,2.39-2.22,6.98.61,6.55-2.47Z"/>
          <path class="cls-65" d="M98.24,152.71c.89,8.4-.66,17.14-.01,25.43-.86.14-3.27.42-3.74-.53l-.22-24.54c1.6-.46,2.81-.45,3.97-.36Z"/>
          <path class="cls-13" d="M103.22,131.35c.84-.08.95.35.6,1.12.15,2.17-.21,4.09-.38,6.22l-.61,8c-1.4.37-2.78.73-4.05.49-.18-5.11-.17-10.21.06-15.63,1.76-.26,3.07-.45,4.39-.2Z"/>
          <path class="cls-71" d="M229.3,15.95c.84-.02,1.12.32.66,1.2-.3.57.22,2.13-.52,2.42-3.35,1.3-7.16,1.78-10.67,2.07-.24-.16-.05-1.09-.28-1.15-.32-.7-.39-3.17.5-3.53,3.47-.79,6.96-.72,10.32-1.01Z"/>
          <path class="cls-14" d="M123.09,212.1l-9.36-.59c-.76-.83-.07-2.68-.24-3.55.65.18.26-.45.46-1.25l6.75,1.13c1.27.21.78,2.34,1.26,3.17.17.3,1.24.13,1.54.49.14.17.37,1.1-.41.59Z"/>
          <path class="cls-96" d="M217.5,21.57c1.01.25.54.8-.24.89-.4.98-.1,1.83-.79,2.39-.34.27-7.35,1.94-8.04,1.43-.43-1.34,0-2.74.41-4.4,3.05-.19,5.86-.66,8.66-.31Z"/>
          <path class="cls-118" d="M201.78,121.79c-3.53.34-7.93-1.54-11.35-2.38-7.4-1.82-15.19-1.77-23.02-1.15l-23.62,1.85c-.97-.7.63-4.29.9-4.46,2.49-1.52,20.07-1.22,24.4-1.24,24.51-.08,19.22,3.53,20.29,3.94,3.23,1.23,10.32,1.73,12.4,3.44Z"/>
          <g>
            <path class="cls-102" d="M135.29,121.74l-.6,3.94-4.46.65-.67,8.87c-.64.22-1.37-.46-1.63-.19-.28.29-.59,1.69-.23,2.04,3.38,3.32,1.95,5.95,2.29,12.44.09,1.62.02,3.35.35,4.94-2.23-2.99-2.93-6.76-4.44-10.75-1.09,5.4-1.28,9.51,2.51,12.84.65.34,1.47.11,1.64.4.2.34.2,1.14.32,1.45l.48,19.75c2.69.61,5.33.56,8.21.86l.67,5.97c2.3.48,4.46.1,6.39.72,3.14,1.01,1.54,2.94,2.52,4.75.37.69,16.25,2.23,16.03,2.11l1.78.96c.75.41,19.13,1.04,25.26-.73,3.49-1.01,7.28-.17,10.49-1.28,1.7-.59,3.32-.96,5.23-1.23,1.79-.25,1.27-3.34,2.2-4.14,1.74-1.48,4.53-.77,6.88-1.23l1.08-6.09c2.4-.51,5.19.13,7.78-.78.46-.6.04-2.37.67-2.76.64-.6,1.32-1.18,2.72-1.21.57-8.36.9-17.25.42-25.66-.49-.74-2.31-.59-3.31-.51l-1.02-6.4c1.11,1.12,2.22,2.31,4.21,1.97l.61,4.43c1.56,0,2.58.6,3.07,1.22.58.74,1.68,15.61,1.64,18.25.95.6,1.78.09,3.08.54,0,2.35.25,4.49-.16,6.88-.16.95-2.07.45-2.41.93-1.06,2.31.19,5.68-1.22,7.84l-2.04,2.95c-1,1.44-2.23,2.12-1.94,4.32l-5.04,1.23c-.17,1.46.08,2.97-.48,4.3-10.42.99-5.33,4.47-8.33,4.29-1.69-.1-2.79.66-3.87,1.73-1.21,1.2-3.94.24-4.97,1.65-.75,1.02.15,3.61-.97,4.2l-7.86,1.67c-.35,1.09-.13,2.33-.71,3.32-2.49,1.15-5.29,1.16-7.59,2.54-.02,3.02-5.1,1.35-8.15,4.29-.92.89-.86,3.09-2.46,3.6-6.46,2.07.52,3.68-6.78,5.81-.89.33-.95-.97-1.5-1.38-6.57-4.99.06-2.67-8.3-5.24-.46-.51-.65-1.89-1.51-2.48l-3.42-2.35c-6.93-1.56-.82-2.33-12.77-4.43-.4-.81-.13-1.74-.41-2.55l-9.76-2.98c-1.41-.43-3.1-.03-4.07-1.23-.48-.6.61-2.68-.28-2.91l-7.36-1.87c-1.63-2.61-.58-1.21-5.48-2.53-.73-.2-.09-1.58-.6-1.82-1.14-.52-2.22-.49-3.1-.96-.82-.34-.36-1.17-.97-1.92-1.04-.3-3.16.43-3.81-.59-1.29-2.04.03-4.75-.79-7.08-.42-1.2-.38-2.13-.5-3.21s-2.28-1.23-3.3-1.7c-.61-9.71-.18-19.3.06-29.08l2.94-.72c1.15-6.05-.93-4.57,1.47-8.65.69-1.18-.58-3.37.89-4.73.32-.29,1.22-.19,1.77-.46.39-.19,1.06-4.36,1.22-5.6,3.28.58,5.99-.74,8.92-2.21l.35-4.13,7.49-.7c.41-1.55.52-2.8.63-4.12,1.7-1.2,3.56.07,4.99-.06Z"/>
            <path class="cls-36" d="M190.64,209.79c.86,2.19-4.88,4.22-4.57,3.86-1.3,1.47-3.97,1.37-5.22,2.27-1.17.84-2.58,2.05-3.88,2.67s-1.86,4.79-3.87,3.87-4.15-2.12-6.37-2.72c-.7-.19-1.56-1.63-2.5-1.51-4.04.5-5.38-2.88-7.8-4.83-2.58-2.08-5.98-4.03-4.92-7.93.82-.05,1.69-.23,2-.56.5-.53.3-1.34.59-1.88.57-1.05,2.18-.66,3.18-.87.92-2.69,3.44-3.63,6.13-3.62,2.39.01,2.7,1.14,4.09,2.49,3.2,3.09,11.96,2.97,15.66,1.4,1.75-.74,4-.1,5.57-1.27,1.05-.79,4.75-3.4,5.86-2.33.4.39.07,1.19-.14,1.55-1.1,1.87-5.64-.38-6.69,4.89-.09.43-.99.6-.83,1.25.44,1.73,2.15-.69,3.72,3.27Z"/>
            <path class="cls-49" d="M130.33,154.44c.16.78.91,1.51-.12,2.67,1.06.64.69,1.32.15,1.27-.12-.31-.12-1.11-.32-1.45-.17-.29-.99-.07-1.64-.4-3.78-3.33-3.6-7.44-2.51-12.84,1.51,3.99,2.21,7.76,4.44,10.75Z"/>
          </g>
          <g>
            <path class="cls-11" d="M201.78,121.79c.19.15.33.58.66.55.19.93-.3,2.28.39,3.38.49.79,2.15.43,2.8.63.04.74.71.32,1.29.28-.35,5.97,5.49,1.97,8.97,5.82.21.52.51,1.1.49,1.68-.57,1.08-9.25.63-10.4.32-2.35-.63-3.78.43-5.06,2.26-1.25,1.02-2.45-1.71-3.5-1.99l-8.89-2.41c-5.51-1.5-11.86-1.41-17.78-.41-1.56.26-2.37,2.18-4.63,1.87-2.82-.39-5.75.58-8.47.7-3.48.15-6.93.76-9.62,3.31,1.02.82,9.85,1.46,8.97.88.37.25.39.77.19,1.23l-11.67-.59c-.92-.31-.08-2.71-.7-3.38-2.7-.58-6.52-.51-9.07-.22-.89.56-.96,3.7.04,3.96,1.78.45,3.67-.5,4.94.6-1.43,1.03-2.95,1.04-4.7,1.26-2.33,4.63-.65,4.17-1.7,7.69-1.35.21-2.78.64-4.35.29-.34-6.49,1.09-9.13-2.29-12.44-.36-.35-.05-1.75.23-2.04.26-.27.99.41,1.63.19l.67-8.87,4.46-.65.6-3.94c2.54-.22,10.19-1.76,8.5-1.63l23.62-1.85c7.83-.61,15.62-.67,23.02,1.15,3.42.84,7.82,2.73,11.35,2.38Z"/>
            <path class="cls-70" d="M220.19,135.36c.38.07.44.48.63.73-.04,1.5-.21,3.02.16,4.68,1.25.18,2.3.23,3.34.14.45-.29.61.24.5.59l1.02,6.4c1-.09,2.82-.24,3.31.51.49,8.41.16,17.3-.42,25.66-1.39.03-2.08.62-2.72,1.21-1.22,1.15-2.05,2.31-4.15,2-1-3.32-.5-7.53-1.56-12.21l-1.65,1.14c-.59.41-1.74-.13-1.69-1.16.07-1.3-.15-2.35-.66-3.05.21-2.25,1.28-4.94,3.32-5.78,2.04-4.35.56-9.95.98-15.22-1.78-.16-2.58.05-3.91-.4.17-1.92-.08-3.62.26-5.27,1.08-.03,2.15-.13,3.23.04Z"/>
            <path class="cls-106" d="M205.63,126.35c-.65-.2-2.3.16-2.8-.63-.69-1.1-.2-2.45-.39-3.38,1.17-.1,2.7-.1,4.01.5.6.54.34,2.29.28,3.31-.02.36-.88.07-1.09.21Z"/>
            <path class="cls-4" d="M224.32,140.9c-1.04.09-2.09.04-3.34-.14-.37-1.66-.2-3.17-.16-4.68.76.48,2.24.53,2.93,1.39s.16,2.51.57,3.42Z"/>
            <path class="cls-25" d="M220.19,135.36c-1.08-.17-2.15-.07-3.23-.04.06-.28.3-.48,0-.85-.16-.19-.31-.49-.57-.34.03-.58-.28-1.15-.49-1.68.03-.68,3.91.66,3.94.88.11.81.35,1.39.35,2.03Z"/>
            <path class="cls-93" d="M226.02,175.26c-.63.39-.22,2.16-.67,2.76-2.58.92-5.38.27-7.78.78.27-1.53,1.69-.52,2.57-1.19.71-.54.18-5.26.03-6.17-.12-.77-1.14-.72-1.73-.69-.79.04-.7,1.33-1.4,1.88-.9.71-2.91.52-4.01.14-.37-.71-.28-2.62-.85-3.43-.37-.51,1.27-1.45.56-2.61-.55-.91-1.42-1.66-1.35-2.64,1.43.41.92-1.23,4.91-2.13.51.69.73,1.75.66,3.05-.05,1.03,1.1,1.57,1.69,1.16l1.65-1.14c1.06,4.68.56,8.89,1.56,12.21,2.1.31,2.93-.85,4.15-2Z"/>
            <path class="cls-35" d="M219.62,156.21c-2.04.84-3.1,3.53-3.32,5.78-3.99.89-3.49,2.54-4.91,2.13-.19-.05-.43.09-.62,0,1.49-2.03.86-4.51.95-6.83.17-4.52.35-8.95-.19-13.78,1.84.32,3.56.16,5.18.61-.26.99.56,2.2.66,3.24l.75,7.6c.05.53,1.75.5,1.5,1.26Z"/>
            <path class="cls-33" d="M148.23,159.51c-1.06,1.45-1.48,3.15-1.08,4.91-.92-.17-3.01.63-3.72-.12-.92-1.29-3.06-1.3-3.83-2.25-1.48-1.83-2.12-10.81-1.42-13.69,1.05-.73,1.34-2.17.89-4.35,1.52-.21,3.26-.62,4.71-.15,1.23.4-.09,2.1-.19,2.94-.44,3.84-.28,8.23-.11,12.54,1.94-.38,3.3-.02,4.75.17Z"/>
            <path class="cls-33" d="M202.83,159.54c-.45,1.7-1.23,3.39-.04,4.89-2.65.03-5.96-.29-7.31-3.1-.63-1.3-1.62-2.4-1.89-3.68-.92-4.25-.03-8.5.01-12.67,0-.46-.17-1.35.6-1.49,1.45-.26,2.84-.36,4.49.07-1.56,4.92-.92,10.15-.55,15.66,1.75-.25,3.27.19,4.68.31Z"/>
            <path class="cls-109" d="M211.72,157.28c-.08,2.32.55,4.8-.95,6.83-.83-.39-1.44.74-2.26.93-2.19.5-3.99-.63-5.72-.61-1.19-1.5-.42-3.19.04-4.89,1.82.16,4.19-.13,6.05-.72.58-.33.49-1.63,1.23-1.92.48-.19.9.45,1.61.38Z"/>
            <path class="cls-18" d="M156.64,156.73c-.2,1.71.89,4.26-.32,5.81-4.94,2.95-1.55,3.28-9.17,1.88-.39-1.76.02-3.47,1.08-4.91,1.66.22,3.81-.12,5.6-.49,1.47-.31,1.43-2.46,2.82-2.29Z"/>
            <g>
              <path class="cls-26" d="M216.38,134.13c.27-.14.42.15.57.34.3.37.06.57,0,.85-4.79.15-9.62-.37-14.71.33-.1,1.24.53,3.05-.44,3.14l-7.83.72c-.94.51-.36,2.56-.41,3.94-1.38.72-2.71.17-4.33.52-.92.2-.89,2.38-.03,2.31,1.79-.15,3.12-.87,4.4-1.3-.04,4.16-.93,8.41-.01,12.67.28,1.28,1.27,2.38,1.89,3.68,1.35,2.81,4.67,3.13,7.31,3.1,1.73-.02,3.52,1.12,5.72.61.82-.19,1.43-1.32,2.26-.93.19.09.43-.05.62,0-.07.98.8,1.73,1.35,2.64.7,1.16-.93,2.09-.56,2.61.58.81.48,2.72.85,3.43,1.09.38,3.1.57,4.01-.14.71-.56.62-1.85,1.4-1.88.58-.03,1.6-.09,1.73.69.15.9.67,5.63-.03,6.17-.88.67-2.3-.34-2.57,1.19l-1.08,6.09c-2.35.46-5.14-.25-6.88,1.23-.94.8-.41,3.88-2.2,4.14-1.9.27-3.53.64-5.23,1.23-3.21,1.11-7,.27-10.49,1.28-6.13,1.77-24.51,1.14-25.26.73l-1.78-.96c.22.12-15.66-1.43-16.03-2.11-.97-1.81.62-3.74-2.52-4.75-1.93-.62-4.09-.24-6.39-.72l-.67-5.97c-2.87-.29-5.52-.24-8.21-.86l-.48-19.75c.54.04.91-.63-.15-1.27,1.03-1.16.28-1.89.12-2.67-.33-1.59-.26-3.32-.35-4.94,1.57.35,3-.08,4.35-.29,1.27-.2,2.58,0,3.85-.85-.7,2.88-.06,11.87,1.42,13.69.77.95,2.91.96,3.83,2.25.71.75,2.8-.05,3.72.12,7.63,1.4,4.24,1.06,9.17-1.88,1.21-1.55.12-4.1.32-5.81.73-6.44-.45-10.69.54-16.84.2-.45.18-.98-.19-1.23.88.58-7.95-.06-8.97-.88,2.69-2.56,6.14-3.16,9.62-3.31,2.72-.12,5.65-1.09,8.47-.7,2.26.31,3.07-1.6,4.63-1.87,5.93-1,12.28-1.09,17.78.41l8.89,2.41c1.05.29,2.26,3.01,3.5,1.99,1.28-1.83,2.71-2.89,5.06-2.26,1.14.31,9.83.75,10.4-.32Z"/>
              <path class="cls-107" d="M184.26,179.97c-.43,3.83-4.75,1.06-7.84,1.38-2.91.3-5.63-.29-8.42-.2-.98.03-.77-.56-.75-1.15.04-1.39.97-1.23,1.92-1.31,5.27-.44,10.28-.08,15.08,1.28Z"/>
              <path class="cls-68" d="M172.87,170.35c-1.81.8-3.57.19-5.79-.35-.4-.89-.42-2.27-.4-3.72.02-1.72,4.77-3.16,4.3-3.24,2.39.43-1.33,1.69-1.37,3.52-.05,2.28,1.23.47,3.26,3.8Z"/>
            </g>
            <g>
              <path class="cls-47" d="M157.18,139.88c-.99,6.16.19,10.41-.54,16.84-1.39-.17-1.34,1.98-2.82,2.29-1.79.37-3.94.72-5.6.49-1.45-.2-2.82-.55-4.75-.17-.17-4.31-.33-8.71.11-12.54.1-.84,1.41-2.54.19-2.94-1.44-.47-3.18-.06-4.71.15.45,2.18.15,3.62-.89,4.35-1.27.85-2.58.65-3.85.85,1.05-3.52-.62-3.06,1.7-7.69,1.75-.22,3.27-.23,4.7-1.26-1.27-1.11-3.16-.15-4.94-.6-1-.26-.94-3.4-.04-3.96,2.56-.29,6.37-.35,9.07.22.62.67-.22,3.07.7,3.38l11.67.59Z"/>
              <path class="cls-2" d="M151.65,146.29c1.39-.8,2.99-.02,3.31,1.26.23.92.05,2.59-1.02,3.13-1,.5-2.72.06-3.15-.78-.57-1.11-.41-2.88.86-3.61Z"/>
            </g>
            <g>
              <path class="cls-29" d="M216.96,135.32c-.34,1.66-.1,3.35-.26,5.27,1.33.44,2.13.24,3.91.4-.42,5.27,1.06,10.87-.98,15.22.26-.76-1.44-.73-1.5-1.26l-.75-7.6c-.1-1.04-.93-2.25-.66-3.24-1.62-.45-3.34-.3-5.18-.61.54,4.83.36,9.26.19,13.78-.71.06-1.12-.57-1.61-.38-.74.29-.65,1.58-1.23,1.92-1.86.6-4.22.88-6.05.72-1.41-.12-2.94-.56-4.68-.31-.37-5.51-1.02-10.74.55-15.66-1.66-.42-3.05-.33-4.49-.07-.77.14-.6,1.03-.6,1.49-1.28.43-2.61,1.15-4.4,1.3-.87.07-.89-2.12.03-2.31,1.62-.35,2.96.2,4.33-.52.05-1.38-.53-3.44.41-3.94l7.83-.72c.98-.09.34-1.9.44-3.14,5.08-.71,9.91-.18,14.71-.33Z"/>
              <path class="cls-33" d="M205.77,150.05c-.96-1.12-.43-3.07.6-3.69,1.14-.69,2.35-.28,3.01.75.48.75.48,2.02-.31,3.03-.55.71-2.2,1.19-3.3-.09Z"/>
            </g>
          </g>
        </g>
      </g>
    </g>
  </g>
</svg>