<?xml version="1.0" encoding="UTF-8"?>
<svg id="_レイヤー_2" data-name="レイヤー 2" xmlns="http://www.w3.org/2000/svg" xmlns:xlink="http://www.w3.org/1999/xlink" viewBox="0 0 261.69 500.09">
  <defs>
    <style>
      .cls-1 {
        fill: #bc7e7d;
      }

      .cls-2 {
        fill: #845c54;
      }

      .cls-3 {
        fill: #ce9b4f;
      }

      .cls-4 {
        fill: #fefeff;
      }

      .cls-5 {
        fill: #8a8ba7;
      }

      .cls-6 {
        fill: #c2e5f4;
      }

      .cls-7 {
        fill: #b47c7d;
      }

      .cls-8 {
        fill: #abd7ee;
      }

      .cls-9 {
        fill: #879cbf;
      }

      .cls-10 {
        fill: #f6d0b1;
      }

      .cls-11 {
        fill: #a4755d;
      }

      .cls-12 {
        fill: #845c53;
      }

      .cls-13 {
        fill: #c6c4d8;
      }

      .cls-14 {
        fill: #f7d4b8;
      }

      .cls-15 {
        fill: #fdfeff;
      }

      .cls-16 {
        fill: #675f77;
      }

      .cls-17 {
        fill: #f6d3b4;
      }

      .cls-18 {
        fill: #c2c1d6;
      }

      .cls-19 {
        fill: #cfebf6;
      }

      .cls-20 {
        fill: #b7b3cb;
      }

      .cls-21 {
        fill: #937785;
      }

      .cls-22 {
        fill: #f2f3f6;
      }

      .cls-23 {
        fill: #d7d6e4;
      }

      .cls-24 {
        fill: #b7e0f0;
      }

      .cls-25 {
        fill: #c17a76;
      }

      .cls-26 {
        fill: #875e58;
      }

      .cls-27 {
        fill: #7c7884;
      }

      .cls-28 {
        fill: #bfbcd2;
      }

      .cls-29 {
        fill: #9c767f;
      }

      .cls-30 {
        fill: #664a54;
      }

      .cls-31 {
        fill: #c3e6f4;
      }

      .cls-32 {
        fill: #8fabcf;
      }

      .cls-33 {
        fill: #67484f;
      }

      .cls-34 {
        fill: #56455a;
      }

      .cls-35 {
        fill: #e9b19a;
      }

      .cls-36 {
        fill: #785351;
      }

      .cls-37 {
        fill: #d5d4e3;
      }

      .cls-38 {
        fill: #e2e4ed;
      }

      .cls-39 {
        fill: #a17a81;
      }

      .cls-40 {
        fill: #e3a48a;
      }

      .cls-41 {
        fill: #6d86ac;
      }

      .cls-42 {
        fill: #93cea7;
      }

      .cls-43 {
        fill: #f8d8b9;
      }

      .cls-44 {
        fill: #c0bdd2;
      }

      .cls-45 {
        fill: #a67e83;
      }

      .cls-46 {
        fill: #fff;
      }

      .cls-47 {
        fill: #fcfeff;
      }

      .cls-48 {
        fill: #e4e6ee;
      }

      .cls-49 {
        fill: #493f5b;
      }

      .cls-50 {
        fill: #d8d9e5;
      }

      .cls-51 {
        fill: #736d7e;
      }

      .cls-52 {
        fill: #b7b4cb;
      }

      .cls-53 {
        fill: #9a8582;
      }

      .cls-54 {
        fill: #d6d7e3;
      }

      .cls-55 {
        fill: #90bbd9;
      }

      .cls-56 {
        fill: #7c7784;
      }

      .cls-57 {
        fill: #d9bbb3;
      }

      .cls-58 {
        fill: #a47b62;
      }

      .cls-59 {
        fill: #babed0;
      }

      .cls-60 {
        fill: #d4d4e2;
      }

      .cls-61 {
        fill: #8abada;
      }

      .cls-62 {
        fill: #a97960;
      }

      .cls-63 {
        fill: #b9e2f1;
      }

      .cls-64 {
        fill: #e0a38d;
      }

      .cls-65 {
        fill: #a9a8c2;
      }

      .cls-66 {
        fill: #cf8d84;
      }

      .cls-67 {
        fill: #ddae84;
      }

      .cls-68 {
        fill: #e3a993;
      }

      .cls-69 {
        fill: #fbfdfe;
      }

      .cls-70 {
        fill: #4a405c;
      }

      .cls-71 {
        fill: #906e7a;
      }

      .cls-72 {
        fill: #e9b49c;
      }

      .cls-73 {
        fill: #524760;
      }

      .cls-74 {
        fill: #e1a48e;
      }

      .cls-75 {
        fill: #bebdd2;
      }

      .cls-76 {
        fill: #a8517b;
      }

      .cls-77 {
        fill: #cfebf8;
      }

      .cls-78 {
        fill: #dcdce7;
      }

      .cls-79 {
        fill: #a3afd1;
      }

      .cls-80 {
        fill: #cccbdb;
      }

      .cls-81 {
        fill: #d7d7e4;
      }

      .cls-82 {
        fill: #926658;
      }

      .cls-83 {
        fill: #e2a58f;
      }

      .cls-84 {
        fill: #8498bc;
      }

      .cls-85 {
        fill: #b1dff3;
      }

      .cls-86 {
        fill: #cfcede;
      }

      .cls-87 {
        fill: #efbd9f;
      }

      .cls-88 {
        fill: #5e5268;
      }

      .cls-89 {
        fill: #766f7f;
      }

      .cls-90 {
        fill: #d6d4e3;
      }

      .cls-91 {
        fill: #959cbb;
      }

      .cls-92 {
        fill: #637497;
      }

      .cls-93 {
        fill: #b4dfe8;
      }

      .cls-94 {
        fill: #98d3cc;
      }

      .cls-95 {
        fill: #8b6a75;
      }

      .cls-96 {
        fill: #f5fafc;
      }

      .cls-97 {
        fill: #c2bfd4;
      }

      .cls-98 {
        fill: #d8eef4;
      }

      .cls-99 {
        fill: #afdef2;
      }

      .cls-100 {
        fill: #788db0;
      }

      .cls-101 {
        fill: #684b54;
      }

      .cls-102 {
        fill: #f3d55e;
      }

      .cls-103 {
        fill: #ccccdc;
      }

      .cls-104 {
        fill: #926557;
      }

      .cls-105 {
        fill: #9ba8c8;
      }

      .cls-106 {
        fill: #9fa0bd;
      }

      .cls-107 {
        fill: #817b96;
      }

      .cls-108 {
        fill: #c1bfd4;
      }

      .cls-109 {
        fill: #d8d8e4;
      }

      .cls-110 {
        fill: #856270;
      }

      .cls-111 {
        fill: #e2a891;
      }

      .cls-112 {
        fill: #e1a793;
      }

      .cls-113 {
        fill: #896b76;
      }

      .cls-114 {
        fill: #bfbbd1;
      }

      .cls-115 {
        fill: #cfd1df;
      }

      .cls-116 {
        fill: #c45783;
      }

      .cls-117 {
        fill: #715351;
      }

      .cls-118 {
        fill: #a87154;
      }

      .cls-119 {
        fill: #8b645c;
      }

      .cls-120 {
        fill: url(#_名称未設定グラデーション_22);
      }

      .cls-121 {
        fill: #fbfdff;
      }

      .cls-122 {
        fill: #69617a;
      }

      .cls-123 {
        fill: #e6ab91;
      }

      .cls-124 {
        fill: #bfbed2;
      }

      .cls-125 {
        fill: #815a53;
      }

      .cls-126 {
        fill: #d39584;
      }

      .cls-127 {
        fill: #f7d1b3;
      }

      .cls-128 {
        fill: #ebb99d;
      }

      .cls-129 {
        fill: #6e85aa;
      }

      .cls-130 {
        fill: #cae9f6;
      }

      .cls-131 {
        fill: #aca7c2;
      }

      .cls-132 {
        fill: #7594ac;
      }

      .cls-133 {
        fill: #f5f6f8;
      }

      .cls-134 {
        fill: #f2f4f6;
      }

      .cls-135 {
        fill: #9893af;
      }

      .cls-136 {
        fill: #98747b;
      }

      .cls-137 {
        fill: #e9b399;
      }

      .cls-138 {
        fill: #62556c;
      }

      .cls-139 {
        fill: #fdfaf2;
      }

      .cls-140 {
        fill: #c0dcf3;
      }

      .cls-141 {
        fill: #69494f;
      }

      .cls-142 {
        fill: #e6b59b;
      }

      .cls-143 {
        fill: #d3a673;
      }

      .cls-144 {
        fill: #878496;
      }

      .cls-145 {
        fill: #de9c8a;
      }

      .cls-146 {
        fill: #907477;
      }

      .cls-147 {
        fill: #9fd4bf;
      }

      .cls-148 {
        fill: #cfcee0;
      }

      .cls-149 {
        fill: #aaa8c2;
      }

      .cls-150 {
        fill: #d0d0df;
      }

      .cls-151 {
        fill: #544359;
      }

      .cls-152 {
        fill: #e4a78f;
      }

      .cls-153 {
        fill: #8b6976;
      }

      .cls-154 {
        fill: #a6acc3;
      }

      .cls-155 {
        fill: #f2bea0;
      }

      .cls-156 {
        fill: #c17d77;
      }

      .cls-157 {
        fill: #a6caea;
      }

      .cls-158 {
        fill: #d3d2e2;
      }

      .cls-159 {
        fill: #be7f78;
      }

      .cls-160 {
        fill: #f1f1f6;
      }

      .cls-161 {
        fill: #f8d6b7;
      }

      .cls-162 {
        fill: #cd9083;
      }

      .cls-163 {
        fill: #8b94b6;
      }

      .cls-164 {
        fill: #94b6d6;
      }
    </style>
    <linearGradient id="_名称未設定グラデーション_22" data-name="名称未設定グラデーション 22" x1="159.4" y1="4.68" x2="83.63" y2="74.47" gradientUnits="userSpaceOnUse">
      <stop offset="0" stop-color="#fbfcfc"/>
      <stop offset="1" stop-color="#d7d9e5"/>
    </linearGradient>
  </defs>
  <g id="_レイヤー_1-2" data-name="レイヤー 1">
    <g id="_生成オブジェクト" data-name="生成オブジェクト">
      <path class="cls-50" d="M128.55,484.8l17.57.05c.2,3.24.04,6.49.06,10.2l65.27.03c.15-2.23.53-4.16.31-5.97,6.84-1.1-.96-.82,7.05-.83l32.81-.07c1.81,0,2.74,1.99,3.74,2.12.45.06,6.02-.54,6.29,1.63.11.86.11,1.51-.69,1.94-1.74.94-3.02.68-4.43.87l-3.58.48c.15,1.34-.8,4.14-2.9,4.16-11.77.15-23.56.52-35.29-.13-3.02-.17-5.67-.79-8.67-.56-4.95.38-9.91-.43-14.78.26-3.05.43-6.08.64-9.07.28-2.7-.32-4.94.68-7.51.68l-75.85.15c-1.54,0-2.68-.63-3.91-.63h-25.84c-2.91,0-5.6-.36-8.39-.75-3.8-.53-7.21.3-10.86.54-9.67.66-19.34.31-29.01.08-2.12-.05-3.24-2.8-3.01-4.07l-5.59-.89c-1.1-.17-3.57-1.28-2.91-2.52,1.61-1.94,4.47-1.75,6.86-1.52.91.07,1.51-2.19,2.92-2.19l33.48-.05c1.26,0,2.18,1.01,3.18.9-.21,1.8.35,3.8.22,6.02l65.89.11.27-10.33c2.11-.41,4.19-.01,6.36,0Z"/>
      <g>
        <g>
          <path class="cls-6" d="M26.06,178.86c1.58.79,2.32,3.24,2.58,2.73.25,2.6-1.76,6.93-3.68,7.5-.49-.02-1.12.25-1.6.16-1.91-.38-4.32-2.22-4.43-4.32-.1-1.96.23-3.89,1.47-4.78,1.68-1.2,3.78-2.23,5.66-1.29Z"/>
          <path class="cls-31" d="M31.24,146.79l.66,1.59c.1.25-2.4,5.62-5.67,4.55-1.76-.58-2.88-1.46-3.27-2.52-.64-1.76-1.08-2.91.08-4.3.84-1,1.98-2.32,3.32-2.46,1.02-.11,3.94.88,4.88,3.14Z"/>
          <path class="cls-63" d="M39.99,160.91c.93,2.87-2.71,5.43-5.25,4.7-1.65-.48-2.15-1.7-2.11-2.89.05-1.38.18-3.08,1.97-3.47,1.65-.36,4.67-.56,5.39,1.66Z"/>
          <path class="cls-130" d="M24.94,191.13c.73.94,2.09,1.78,2.77,3.26.5,1.1-1.46,4.24-2.65,3.95-3.01-.73-2.89-5.11-1.57-7.15l1.45-.07Z"/>
          <path class="cls-46" d="M24.96,189.09l-.02,2.04-1.45.07-.12-1.96c.47.09,1.11-.18,1.6-.16Z"/>
          <g>
            <path class="cls-24" d="M29.68,179.61c-.87-.15-1.63-1-2.35-1.61-1.24-.75-.77-9.44-.3-10.42.63-1.33,2.59-1.17,4.02-.73,1.09.33,1.86,1.92,2.05,3.47.74.8,2.08.49,2.8,1.49,1.25,1.76,1.01,4.98-.82,6.6-1.22,1.08-3.53,1.52-5.39,1.2Z"/>
            <path class="cls-46" d="M29.68,179.61c-.39.66-1.12,1.15-1.04,1.98-.26.51-1-1.94-2.58-2.73.45.12.78.34,1.22-.28.12-.17.58-.18.05-.57.72.61,1.48,1.46,2.35,1.61Z"/>
            <path class="cls-121" d="M30.82,173.53c1.01.66.92,3.56-.31,3.83-1.63.36-2.47-1.44-2.39-2.42.09-1.07,1.35-2.3,2.71-1.41Z"/>
          </g>
          <g>
            <path class="cls-132" d="M25.02,201.79c.18,0,.35-.01.53,0,4.83.23,9.63-.25,14.84.6.38,2.92.33,5.81.05,8.81-1.35.14-2.38-.28-3.72.16l.04,19.27c2.09.08,3.4-.08,4.89.22l.49,4.8c.97.44,2,.3,2.84,1.09-.01,1.24-.56,3.23.6,3.84,1.37.72,3.39-.36,4.33.88.04,1.86-.15,3.88.72,5.85,1.41.35,2.77.05,4.06.13.35,5.03.31,14.71.12,20.17-.36,1.43-2.27,1.33-4.03.97-.96,1.79-.35,3.97-1.07,5.78-.37.93-3.67.08-4.4.93-.27.31.27,1-.06,1.3-.57.51.03,1.68-.41,2.3-1.65,2.36-4.37-1.74-6.98,5.12l-20.58.05c-.36-1.56-.06-2.72-.52-3.99l-6.01-.37c-.27-1.65.09-3.18-.55-4.67-1.43-.27-3.32.44-4.23-.58-.97-1.08.13-3.22-1-4.26-.46-.38-1.44.15-1.75-.26-.91-1.21-.5-2.59-1.36-2.78-.21-.05-1.06.14-1.56,0-.57-5.86-.07-12.02-.29-18.09-.1-2.84,1.86,1.02,1.83-6.76l4.99-.44.29-5.39,5.27-.63c.23-1.81-.16-3.47.44-5.04l5.02-.33.08-19.09-3.88-.31c-.25-2.97-.15-5.85.23-8.86l10.74-.4Z"/>
            <g>
              <path class="cls-19" d="M49.48,256.35l-4.12.18-5.01-.09-22.84-.14c.17-2.08.44-4.18-.11-6.5-1.87-.16-3.63-.32-5.37-.05-.72,2.42.15,4.57-.18,6.66-2.09.04-4.18.01-6.27.1.25-2.41-.46-5.14.13-7.71.36-.43,1.82-.18,2.09-.72.31,1.13,3.33,1.36,3.93.41.94-1.5-.03-4.12.11-5.66.03-.17.44-.36.41-.62.98.67,3.39,1.31,4.85.26,1.14-.82.91-4.12.03-5.14.27-.2.55-.53.91-.55,1.32.14,3.55,1.24,4.63-.18,1.17-1.54.27-4.13-.26-5.52,1.05-5.07.21-10.8.59-16.73,2.91-.25,5.86-.18,8.91.03l.07,16.54,4.21.45c.24,1.83-.06,3.3.45,4.9l3.62.87c-.6,2.55,1.34,4.28,4.07,4.4.54,2.19.35,4.36.64,6.59l4.25.39c.43,2.71.11,5.3.26,7.83Z"/>
              <path class="cls-93" d="M49.48,257.06c-.04,3.79-.04,7.65-.94,11.63-1.23.59-2.4.23-3.75.57l-.77,4.67-5.13.61-.27,4.01-20.97.06-.69-3.99-4.66-.31c-1.38-.83-.83-3.65-1.08-5.09.52.03,1.32.09,1.58-.41,1.24.22,3.68-.74,4.48.52.88,1.39-.21,3.28.65,4.93,6.39-.16,12.42.43,18.69-.4.91-.12.41-2.1.67-2.7.9-2.05,3.87-2.38,5.89-2.93,1.72-.47.98-3.07,1.58-3.92s1.56-2.11,1.69-3.38c.27-.31,1.25-.22,1.3-.56l.26-1.77c.09-.63.16-1.09.31-1.33.32-.53.75.05,1.16-.2Z"/>
              <path class="cls-94" d="M11.85,256.42c-.62,3.93-.79,8.04-.17,12.17.26.18,1.05-.03,1.13.21-.26.5-1.06.44-1.58.41l-4.37-.22c-.86-4.16-1.72-8.33-1.28-12.46,2.09-.09,4.18-.06,6.27-.1Z"/>
              <path class="cls-98" d="M35.74,210.59c-5.53-.55-10.87-.11-16.61-.31-.74-.03-.86-2.6-.26-3.15l16.82-.22c.49,1.21.29,2.23.05,3.68Z"/>
              <path class="cls-147" d="M49.48,256.35c.01.24,0,.47,0,.71-.42.25-.85-.33-1.16.2-.15.25-.22.71-.31,1.33l-.26,1.77c-.05.34-1.03.25-1.3.56-.13,1.27-1.07,2.5-1.69,3.38-1.2-1.03-2.9-.01-4.29-.94l-.13-6.92,5.01.09,4.12-.18Z"/>
              <path class="cls-96" d="M22.41,231.09c.52,1.38,1.43,3.97.26,5.52-1.08,1.43-3.32.33-4.63.18-.04-1.75.03-3.58.29-5.49l4.09-.21Z"/>
              <path class="cls-47" d="M17.12,237.34c.88,1.02,1.11,4.32-.03,5.14-1.45,1.04-3.87.4-4.85-.26-.12-1.23-.42-3.51.78-4.53,1.01-.85,2.98-.35,4.09-.35Z"/>
              <path class="cls-69" d="M11.84,242.83c-.14,1.54.82,4.16-.11,5.66-.6.96-3.61.73-3.93-.41l.35-4.78c1.38-.54,2.52-.61,3.69-.47Z"/>
              <path class="cls-42" d="M17.51,256.3l22.84.14.13,6.92c1.39.93,3.09-.09,4.29.94-.6.85.14,3.45-1.58,3.92-2.01.55-4.99.88-5.89,2.93-.26.6.24,2.58-.67,2.7-6.27.83-12.3.24-18.69.4-.87-1.65.23-3.54-.65-4.93-.8-1.26-3.23-.3-4.48-.52-.08-.23-.87-.03-1.13-.21-.62-4.13-.45-8.24.17-12.17l5.66-.11Z"/>
              <path class="cls-15" d="M17.51,256.3l-5.66.11c.33-2.1-.54-4.24.18-6.66,1.74-.26,3.49-.11,5.37.05.55,2.31.27,4.42.11,6.5Z"/>
            </g>
          </g>
        </g>
        <g>
          <path class="cls-20" d="M115.76,170.89c-2.07-.37-4.29-.59-6.41.48,0,1.5.02,2.73-.21,4.06-1.46.46-2.71.08-3.96.23-1.04,1.81-5.03.03-5.19,1.54-.19,1.89.52,3.63-.64,4.83-.82.04-2.83-.61-3.23.49-.6,1.64-.1,3.25-1.13,4.28l-11.24.42c-.75.31-.3,1.73-.82,2.31-1.49.5-2.82.26-4.41.51-.17,2.86.01,5.5-.57,8.29l-5.3.57c-.44,5.22-1.09,3.04-1.24,9.42-1.39.5-2.91.08-4.65.12l-.51,8.11-5.11.35-.21,26.25c-1.92.5-4.07.3-5.48,1.82-.54.58-.81,1.87-.77,2.47-1.3-.08-2.65.22-4.06-.13-.86-1.97-.68-3.99-.72-5.85.23-.37,1.18-.15,1.52-.58.68-4.07.66-7.91.74-11.94,1.09-.24,1.88,0,2.97-.38l.61-11.5,4.33-.37c.38-.03.53-.2.57-.61.24-2.49-.52-5.27.64-7.77.81-1.74.06-3.61.6-5.43l4.36-.29.4-7.49,5.63-.5.32-6.11,5.82-.53.24-6.04,12.97-.44c.24-1.91-.11-3.42.34-5.11,1.91-.11,3.63.04,5.64-.28l.23-5.16,6.64-.2.43-4.22,5.1-.59c-4.17.48,7.1-2.16,5.8-1.79-.12,2.28.03,4.52-.02,6.78Z"/>
          <path class="cls-28" d="M89.95,238.4c-.92-.1-1.89-.55-3.06-.14-.34,9.46-.04,18.71-1.1,28.48-.07.61-1.62.21-1.69.98l-.38,4.02c-.55,5.91-.37,11.79-.34,17.58-2.07,1.5-5.02-.66-4.88,1.78-.2.24-.25.07-.43-.04.08-.38.37-.88-.21-1.16-.54-.26-1.43.75-1.35,1.1s-.14,1.46-.71,1.53c-5.82.72-11.63,1.6-17.47.78-3.07-.43-7.04.07-9.68-1.45-3.27-7.44-5.81-3.81-10.79-7.86,2.61-6.86,5.33-2.77,6.98-5.12.44-.62-.16-1.8.41-2.3,1.2.24.14,2.09.58,2.98.58,1.17,2.25,1.27,2.54,2.44.16.65-.16,2,.42,2.28.48.23,1.33.96,2.25.96l27.1-.03,1.19-27.79c.06-1.37,2.43-1.39,3.39-1.53l.97-17.44c.24-4.27.62-8.36,1.74-12.16.72-2.45,1.1-5.79,1.32-8.64.47-.94,3.58-.77,3.83.13.81,6.81-.58,14.06-.63,20.62Z"/>
          <path class="cls-114" d="M196.92,333.02l-.08,23.32,5.26.33.37,21.03c.38.25,1.07.54.83.82-.15.17-.23.35-.19.58-.09.96-.33,2.15.47,3.07.19.22.82-.12,1,.07.95.9,1.17,1.94,1.04,3.83-.22,3.11.43,6.24-.85,9.33l-16.06.13c-.23,0-.25.75-.58.59-2.31-1.14-5.42-.8-8.06-.8l.04-6.13,8.47-.16c2.72-.05,5.57.38,8.47-.25l-.48-32.14c-1.76,0-3.67.09-3.93-1-.77-3.25.52-6.59-.08-9.97-.19-1.05-1.07-1.99-.64-3.19s-1.09-1.79-1.22-2.55c-1.32-7.75,1.18-11.19,1.19-12.31,1.21.38,3.34.09,4.19,1.34s-.3,3.12.85,4.05Z"/>
          <path class="cls-114" d="M222.07,266.16c-1.58.18-3.34.36-5.11-.35-.4-2.81-.23-5.51-1.07-8.17-.58-1.82.1-3.63-.74-5.44-1.35-2.87-.28-6.33-1.11-9.55-1.48-.13-2.69.14-4.24-.64,1.06-2.29-1.01-4.22-1.12-6.04l-1.14-18.77c-1.34-.19-3.83.31-4.68-.99-1.13-2.03,0-4.7-.59-6.87-1.16-.51-2.32-.02-3.58-.28-1.68-8.22-2.06-5.12-2.91-6.31-.73-1.03.32-4.11-1.29-4.21-.99-.06-2.11.06-2.17-1.08-.05-.87-.21-1.54-.51-2.33-.21-.56-1.67-.38-2.06-.92-.92-1.88-.09-4-.51-5.84l5.8.06c.38,2.26-.17,4.21.42,6.24l5.68.45.3,7.46c1.18.36,2.27-.11,3.22.57l.16,6.24,3.16.57.38,7.02c1.5.19,3.01-.06,4.37.38.71,3.82-.63,7.62.88,11.02,1.87,4.18,0,9.11,1.34,13.54l4.93.27.41,8.44,1.11,1.26c2.57,2.91.62,9.61.68,14.28Z"/>
          <path class="cls-52" d="M188.7,187.54c-9.7.85-5.25-1.54-12.34-1.63-1.5-.4-.25-2.7-.77-3.7-1.43-1.03-3.81-.53-5.52-.62-.21-.01-.38.03-.6-.04.7-.36.7-5.12.12-5.38-1.6-.71-3.19-.27-4.37.07-.59.13-1.12-.5-1.69-.45l.18-4.18c.57.05,1.17-.63,1.49-1.03,1.41.19,2.89-.3,4.6.13l.34,5.25c2.22.2,3.79-.09,5.46.32l.21,5.06,12.95.86c.11,2.07.29,3.76-.07,5.33Z"/>
          <path class="cls-20" d="M228.93,284.72c.03.6-.52.35-1.01.31.27.9-.12,1.25-.39,1.27.07-2.41-3.12-.74-5.26-1.57l-.21-18.57c1.73-.2,3.53-.04,5.47.27.37,2.2.18,17.88.6,18.11.2.11.56-.04.79.17Z"/>
          <path class="cls-65" d="M165.21,170.59c-.32.4-.92,1.08-1.49,1.03.49-1.35-4.77-1.03-5.2-.68-.26.21-.1.74-.35,1.07-.55-2.19-.38-4.49-.37-6.78l5.9.35c.42,1.63-.21,3.24.42,4.9.2.3,1.05-.25,1.09.11Z"/>
          <path class="cls-46" d="M204.58,382.23c-.18-.18-.81.15-1-.07-.79-.92-.56-2.11-.47-3.07,2.14-.21.77,2.47,1.47,3.13Z"/>
          <path class="cls-46" d="M78.07,291.05c-.49-.31-1.06.16-1.56-.06-.07-.35.81-1.36,1.35-1.1.57.28.28.78.21,1.16Z"/>
          <path class="cls-86" d="M176.36,185.91c-1.53,3.79.1,8.09-.8,12.41l-4.64.57c-.63,2.01.49,4.36-.45,5.99-.4.69-2.04,1.4-2.73,1.97-.86.71-2.36-.44-3.25.68,2.15,2.48,4.45,5.51,3.65,8.71-.44.45-2.05.08-2.26.87-.17.64,0,1.83-.56,2.28l-2.34,1.86c-.39.31-.09,1-.29,1.23-.86.99-1.69-.3-3.33,1.23-.36.34.01,1.34-.3,1.72-.8.92-1.56,2.22-2.04,3.15-1.06.81-3.58-.51-4.51.82-3.33,4.78-1.08,4.69-2.32,5.87-.66.63-1.68.2-2.31.71-.47.38-.3,1.29-.78,1.5-.71.3-1.28.29-2.01.31-1.48.05-.94,1.97-1.11,2.81-1.87,1.74-4.19,2.67-6.48,4.27-.05,4.28-.61,8.76.27,13.02.4.95,3.49.78,3.9-.16.62-1.41.87-2.37.28-3.24s-1.61-.92-2.85-1.17c.62-2.19,7.37.64,6.58,1.53l-3.78,4.38c-1.65.25-3.04-.32-4.46.16l-.28,25.51c-1.84-.04-3.61.02-5.45.04v-43.35c-1.59-.8-3.89-.62-5.16-1.68-.32-2.99-4.04-5.18-5.26-6.3-.72-.66.19-2.91-1.2-3.09-.85-.11-1.9.04-2.37-.62-.77-1.07-.62-3.95-1.41-4.45-.62-.39-1.3-.34-2.11-.54-1.34-.32-.87-1.99-1.13-3.02-.4-1.59-2.32-1.5-3.62-1.55-1.63-.07-1.19-2.06-1.94-2.79-1.03-1.01-4.82-1.34-1.18-9.71-6.94-5.48-5.74-2.14-5.96-9.23l4.66.18.26,3.96,9.81.67c1.56,2.2-1.59,4.12-2.72,5.68l-1.93,2.65c-.69.95-.73,3.85.14,4.63,1.19,1.07,3.19.26,4.42.99.68,1.13-.04,2.63.67,3.53.78.99,2.61.24,3.38.91,1.14,1.01.9,3.24,2.26,4.13,1.2.77,2.82.13,4.11.6.58,1.23-.13,3.14.61,4.21,4.08,2.53-.24,3.07,5.74,4.97.12,1.3.09,2.69,0,4.2,2.04,1.19,3.73.49,5.33.09,1.16-.29,1.51-.93,2.36-2.5,1.6-.23,2.52-1.92,3.79-2.48,1.63-.72,2.01-1.32,2.34-3.09s1.53-3.49,1.04-5.63l5.97-.4c.56-1.6.59-3.19,1.23-4.53,1.72-.17,3.91.53,4.81-.64.84-1.08-.04-2.84.79-3.79l4.53-.63c-.08-8.86-2.83-4-4.8-9.68-.25-.71-1.14-1.18-.87-2.01.96-3.04,3.9-.37,6.54-1.87.92-.52.13-2.57.33-3.71l4.93-.48-.02-17c1.71.09,4.09-.41,5.52.62.53,1-.72,3.3.77,3.7Z"/>
          <path class="cls-81" d="M222.27,284.73c2.14.83,5.33-.84,5.26,1.57.09,1.02.21,2.3-.16,3.77l-14.88,1c-1.66.11-2.18.78-3.2.95l-10.63,1.76c-1.97.32-3.37,1.55-5.26,1.49-.05-.04-.3-.06-.89-.03-.33-3.43-.1-6.9-.18-10.64l-.42-18.35-3.72-.44c-.45-3.38.18-6.35-.44-9.59-1.11-5.75.1-11.78-.55-17.67-.05-.44-.77-.58-.79-1.18-.06-1.73.59-3.11.52-4.29,5.13,2.98.27,3.66,5.62,4.6,1.2,1.89-.25,4.52,1.02,6.26.71.98,2.48.98,3.31,1.68l.13,10.78,8.67.07c-.14,2.23-1.92,2.89-3.47,4.03-1.39,3.26-1.11,2.01-4.89,3.31l-.02,21.93c8.86-.81,17.28.9,24.97-1Z"/>
          <path class="cls-97" d="M186.67,228.83l.26,4.24c.07,1.19-.58,2.57-.52,4.29.02.61.75.75.79,1.18.64,5.89-.57,11.92.55,17.67.63,3.23,0,6.21.44,9.59l3.72.44.42,18.35c.09,3.73-.15,7.2.18,10.64.59-.03.84,0,.89.03-.93-.03-2.36,1.13-3.5.58l-.09-5.71-8.67-.29.27-21.85c.09-7.47.31-14.84-.17-22.27-.36-5.57-.15-10.96-.09-16.44,1.76-.85,3.69.13,5.51-.46Z"/>
          <path class="cls-90" d="M186.67,228.83c-1.82.58-3.75-.39-5.51.46.01-1.24-.43-3.21.2-4.47,1.45-.81,3.68-.15,5.29-.21.4,1.57-.06,2.88.02,4.22Z"/>
          <g>
            <path class="cls-46" d="M188.7,187.54c.19.3.45.47.53.83.43,1.84-.41,3.96.51,5.84.39.54,1.85.36,2.06.92.3.78.46,1.46.51,2.33.06,1.14,1.18,1.02,2.17,1.08,1.61.1.56,3.18,1.29,4.21.85,1.2,1.23-1.91,2.91,6.31,1.26.26,2.42-.23,3.58.28.6,2.17-.53,4.84.59,6.87.85,1.31,3.34.8,4.68.99l1.14,18.77c.11,1.82,2.18,3.75,1.12,6.04,1.55.78,2.76.52,4.24.64.83,3.21-.23,6.67,1.11,9.55.85,1.81.17,3.62.74,5.44.84,2.66.67,5.36,1.07,8.17,1.77.71,3.52.53,5.11.35l.21,18.57c-7.69,1.9-16.11.19-24.97,1l.02-21.93c3.78-1.3,3.5-.04,4.89-3.31,1.55-1.14,3.33-1.79,3.47-4.03l-8.67-.07-.13-10.78c-.83-.7-2.6-.71-3.31-1.68-1.27-1.74.18-4.37-1.02-6.26-5.35-.94-.49-1.62-5.62-4.6l-.26-4.24c-.08-1.34.38-2.65-.02-4.22-1.61.05-3.83-.6-5.29.21-.63,1.26-.19,3.23-.2,4.47-.06,5.48-.27,10.87.09,16.44.48,7.43.26,14.8.17,22.27l-.27,21.85c-.22,0-.41.1-.6.1l-4.66-.07c.13-1.59.41-3.25-.12-5.08-1.46.13-2.85.34-4.18-.17l-.3-3.23-12.51.04-.08-21.86.09-.43c2.53.64,5.18.08,7.85.19,4.35.18,8.53.21,12.87-.08,0-2.69.2-4.8-.09-7.37-3.4-.03-6.44-.24-9.43-.06-1.7.38-.97-3.46-.87-5.21l10.46-.21c.48-2.98.9-5.88.06-8.72-.65-.79-2.43.03-3.21-.25-.41-.15-.51-.37-.96-.26.14-.39-.01-.88-.02-1.22-.02-.69-1.01-.94-1.71-.84-2.43.33-4.14-2.04-7.79-.76-.77.27-.73,1.91-.69,2.42-3.17,1.8-4.63-.65-5.38,2.14-.62,2.3-.41,4.85-.38,7.37,1.4.57,2.76,0,4.38.25.72,1.17.7,3.86-.03,5.08-1.7.36-3.34.29-5.02.13-.1-1.64-.16-3.29.02-5.07-1.43-.45-2.81-.27-4.18,0-.62,1.74.08,3.5-.14,5.13-.34,2.58.02,5.16.02,7.74l-.06,29.8c-1.17.63-2.72.6-4.1.61-.57-1.29-.45-2.57-.32-4.75l-12.88-.29.28-25.51c1.41-.48,2.8.09,4.46-.16l3.78-4.38c.8-.89-5.95-3.73-6.58-1.53,1.24.25,2.24.27,2.85,1.17s.34,1.83-.28,3.24c-.41.94-3.5,1.11-3.9.16-.88-4.26-.32-8.74-.27-13.02,2.28-1.6,4.61-2.53,6.48-4.27.17-.84-.37-2.76,1.11-2.81.73-.02,1.31-.01,2.01-.31.48-.2.31-1.12.78-1.5.63-.51,1.65-.08,2.31-.71,1.23-1.18-1.01-1.09,2.32-5.87.92-1.32,3.45-.01,4.51-.82.48-.93,1.24-2.24,2.04-3.15.31-.38-.06-1.39.3-1.72,1.64-1.54,2.47-.24,3.33-1.23.2-.23-.1-.92.29-1.23l2.34-1.86c.56-.45.39-1.64.56-2.28.21-.79,1.82-.42,2.26-.87.8-3.2-1.5-6.23-3.65-8.71.88-1.12,2.39.03,3.25-.68.69-.57,2.33-1.28,2.73-1.97.94-1.63-.18-3.98.45-5.99l4.64-.57c.91-4.32-.72-8.62.8-12.41,7.09.09,2.64,2.48,12.34,1.63Z"/>
            <path class="cls-140" d="M175.9,274.67c-7.95,1.91-5.26-1.06-7.56-.8-1.08.12-3.02.61-3.82-.2-.89-.89-.24-2.65-.28-3.94,4.08-.42,7.79-.32,11.93-.23.37,1.41.84,3.93-.27,5.17Z"/>
            <path class="cls-79" d="M158.81,251.73c-1.36-.14-2.92.65-4.29.07.22-1.63-.49-3.39.14-5.13,1.37-.28,2.75-.46,4.18,0-.18,1.78-.13,3.43-.02,5.07Z"/>
          </g>
          <path class="cls-46" d="M131.74,395.05l10.66.51.14,52.7c1.85.14,2.96-.02,4.03.34l-.45,20.24c-2.98-1.57-2.05,13.18-1.89,13.36.37.44,1.08.57,1.88.46-.07.67-.03,1.5.01,2.18l-17.57-.05c.65-.63.53-1.57.19-2.2-.7-1.28-3.88.47-3.86-.56.03-1.73-.72-10.92-1.15-11.23-.35-.25-1.05-.64-1.49-.23.39,1.6.03,3.21-.16,4.67-1.01-1.45-.17-3.56-.18-5.35l-.15-21.3,3.47-.48.19-52.59c2,.13,4.37-.55,6.34-.45Z"/>
          <path class="cls-46" d="M95,186.8l-.16,11.52c2.02.53,3.77.25,5.53.32.22,7.09-.98,3.75,5.96,9.23-3.64,8.37.14,8.7,1.18,9.71.75.74.31,2.72,1.94,2.79,1.3.06,3.22-.04,3.62,1.55.26,1.02-.22,2.7,1.13,3.02.81.2,1.49.15,2.11.54.79.49.63,3.37,1.41,4.45.47.66,1.53.51,2.37.62,1.39.18.48,2.43,1.2,3.09,1.22,1.12,4.95,3.31,5.26,6.3,1.26,1.06,3.57.88,5.15,1.68v43.35s-7.89.1-7.89.1l-.48,4.81-6.04.11-22.09-.15-.25-4.66-5.18-.33.22-26.78c.06-6.84-.11-13.34-.06-19.66.05-6.56,1.45-13.81.63-20.62-.25-.9-3.36-1.08-3.83-.13-.22,2.86-.6,6.19-1.32,8.64-1.28-.73-3.77-1.37-5.12-.22-.31,3.22.33,20.89-2.14,21.29-.98.16-1.78.24-2.25.75-.59.65-.22,1.6-.47,2.52l-1.43,5.29c-1.89,6.98.56,14.9-.82,22.28-.98,1.54-3.91-.53-5.19-.3-1.97.35-4.53,2.3-6.36.28-1.03-1.14-.16-3.64-.64-5.18-1.7-.37-3.4-.03-5.12-.75-.62-1.54-.4-3.5-1.09-4.66.19-5.46.23-15.14-.12-20.17-.04-.6.23-1.89.77-2.47,1.41-1.52,3.56-1.33,5.48-1.82l.21-26.25,5.11-.35.51-8.11c1.75-.04,3.27.39,4.65-.12.16-6.37.81-4.2,1.24-9.42l5.3-.57c.58-2.79.4-5.43.57-8.29,1.6-.24,2.92,0,4.41-.51.52-.58.07-2.01.82-2.31l11.24-.42Z"/>
          <path class="cls-23" d="M85.44,226.29c-1.12,3.8-1.5,7.9-1.74,12.16l-.97,17.44c-.97.14-3.33.16-3.39,1.53l-1.19,27.79-27.1.03c-.92,0-1.78-.73-2.25-.96-.58-.28-.26-1.63-.42-2.28-.29-1.17-1.96-1.27-2.54-2.44-.44-.89.62-2.74-.58-2.98.33-.3-.21-.98.06-1.3.73-.85,4.03,0,4.4-.93.72-1.81.11-3.99,1.07-5.78,1.76.36,3.67.46,4.03-.97.69,1.15.47,3.12,1.09,4.66,1.72.73,3.43.38,5.12.75.48,1.53-.39,4.04.64,5.18,1.83,2.02,4.39.07,6.36-.28,1.29-.23,4.21,1.84,5.19.3,1.38-7.38-1.07-15.3.82-22.28l1.43-5.29c.25-.92-.12-1.87.47-2.52.47-.52,1.27-.59,2.25-.75,2.47-.4,1.83-18.08,2.14-21.29,1.35-1.14,3.84-.51,5.12.22Z"/>
          <path class="cls-37" d="M115.76,170.89l-.25,11.76c-.03,1.21.89,2.64-.25,3.27l-10.56.47c-.21,1.01.2,2.46-.72,2.96s-2.22-.28-3.37.26c-.29,3.07-.33,6.1-.23,9.03-1.76-.07-3.51.21-5.53-.32l.16-11.52c1.03-1.03.53-2.65,1.13-4.28.41-1.11,2.42-.46,3.23-.49,1.38-.07,4.36.54,5.21-1.03s.04-3.84.61-5.33c1.24-.15,2.5.23,3.96-.23.23-1.32.21-2.56.21-4.06,2.12-1.07,4.33-.84,6.41-.48Z"/>
          <path class="cls-13" d="M99.36,182.02c1.16-1.19.45-2.93.64-4.83.15-1.51,4.15.27,5.19-1.54-.58,1.5.25,3.75-.61,5.33s-3.83.96-5.21,1.03Z"/>
          <path class="cls-60" d="M89.95,238.4c-.05,6.32.12,12.82.06,19.66l-.22,26.78,5.18.33.25,4.66c-.65,0-12.73.66-11.83-.51-.04-5.79-.21-11.67.34-17.58l.38-4.02c.07-.77,1.63-.37,1.69-.98,1.06-9.77.76-19.01,1.1-28.48,1.17-.41,2.14.04,3.06.14Z"/>
          <g>
            <path class="cls-105" d="M233.18,301.23c-1.6.08-3.21.09-4.8.37-1.35-2.73.18-2.68-1.57-3.37-.06-.52.43-.3.98-.41.11-1.92.27-3.56-.28-5.74l-12.22,1.26c-2.98.31-5.67,1.25-8.67,2-3.18.8-6.95.36-9.36,2.91-1.19,1.26-1.01,4.97.34,5.94v.63c-.41.03-1.06.55-1.03.99l-3.89-.11c-.61.69-.41,1.99-1.15,2.58-1.63,1.08-3.91.76-5.91.5-.39-1.58-.05-2.81-.17-4.09,1.37,0,2.9-.15,4.22-.47.19.33.43.77,1.24,1.1.63-1.53.28-3.44-.11-5.02-.18-.16-.61-.1-.88-.18-.26-1.46,0-2.82-.02-4.28,1.14.55,2.56-.61,3.5-.58,1.89.06,3.29-1.17,5.26-1.49l10.63-1.76c1.02-.17,1.53-.84,3.2-.95l14.88-1c.36-1.47.24-2.75.16-3.77.27-.02.66-.37.39-1.27.49.05,1.04.29,1.01-.31l3.92.26.3,5.46c.2,3.73,1.69,7.67.03,10.79Z"/>
            <path class="cls-153" d="M205.54,333.37l21.65.1c.49,0,.76.19.81.51.11,1.79.08,3.61-.15,5.66l-25.72.08-.39-6.24c.6-1.27.65-.12,3.81-.11Z"/>
            <path class="cls-95" d="M233.31,304.43c.17-.22.76.04.97.46l-.05,27.93c-1.85.61-3.62.34-5.29.25-.74-1.32-1.22-4-1-5.48.95-6.23.21-12.67.33-19.01l.06-3.26c0-.36.03-.77.11-1,.11-.31.68-.02,1.03.06,1.26.28,2.57,0,3.84.05Z"/>
            <path class="cls-64" d="M227.94,327.59c-.23,1.48.25,4.16,1,5.48-.12.41-.53.79-.95.9-.05-.33-.32-.51-.81-.51l-21.65-.1c-.27-3.89-.34-7.83.09-11.65,1.05.09,2.18.01,3.44.39l.34,5.25,18.53.24Z"/>
            <path class="cls-21" d="M197.6,304.83c1.95-.13,5.19-.52,5.29,1.04.06.85-.01,1.71-.03,2.57-1.81.32-3.78.02-5.71.62-.75,1.95.02,3.97-.17,5.75-.26,2.46-.26,4.91-.21,7.38.04,1.77-.37,3.65.1,5.67,1.81.15,3.47-.15,5.02.25-.41,1.03.52,2.63-.74,3.62-.73.57.51.73.17,1.37-1.45,0-2.97.27-4.4-.08-1.15-.92.02-2.77-.85-4.05s-2.98-.96-4.19-1.34l.26-18.54c1.41-.48,2.68.15,3.77-.29,1.27-.52.71-2.07.65-2.97-.03-.44.61-.96,1.03-.99Z"/>
            <path class="cls-7" d="M205.62,321.72c-.43,3.82-.36,7.76-.09,11.65-3.16-.01-3.21-1.16-3.81.11-.33.18-.61-.02-.41-.38.34-.63-.9-.79-.17-1.37,1.26-.99.33-2.59.74-3.62.73-1.82.96-3.97.58-5.89.79-1.05.31-2.63.65-4.3.14-.68,2.19-.86,2.3-.25.23,1.3.34,2.85.2,4.05Z"/>
            <path class="cls-46" d="M233.18,301.23c-.5.95.36,2.21.13,3.2-1.28-.04-2.58.23-3.84-.05-.82-.1-.96-.41-1.14-.82-.34-.81.26-1.54.05-1.96,1.59-.28,3.2-.29,4.8-.37Z"/>
            <path class="cls-8" d="M226.81,298.23c-2.54-.19-5.17.51-7.94.46-1.33-.02-1.92.71-2.89,1.01-3.25,1-6.85,1.1-10.39,1.36-1.29.09-1.34,1.21-2.1,1.63-1.81,1-4.01,1.13-5.9,1.51-1.35-.97-1.53-4.69-.34-5.94,2.41-2.55,6.18-2.11,9.36-2.91,3-.76,5.69-1.7,8.67-2l12.22-1.26c.55,2.18.39,3.82.28,5.74-.55.11-1.04-.11-.98.41Z"/>
            <path class="cls-5" d="M226.81,298.23c1.75.69.22.64,1.57,3.37.21.42-.4,1.15-.05,1.96.18.41.32.72,1.14.82-.35-.08-.92-.37-1.03-.06-.08.23-.11.64-.11,1-.74.01-.2-.64-.47-1.24-6.87.34-13.36-.13-20.18.57-1.83.19-3.64-.11-4.78,1.21-.11-1.56-3.35-1.17-5.29-1.04v-.63c1.89-.38,4.08-.51,5.9-1.51.76-.42.8-1.53,2.1-1.63,3.54-.26,7.13-.36,10.39-1.36.97-.3,1.56-1.04,2.89-1.01,2.77.05,5.4-.65,7.94-.46Z"/>
            <path class="cls-10" d="M228.27,308.58c-.11,6.34.62,12.78-.33,19.01l-18.53-.24-.34-5.25c-1.26-.37-2.39-.29-3.44-.39.14-1.2.03-2.75-.2-4.05-.11-.61-2.16-.44-2.3.25-.34,1.68.13,3.25-.65,4.3-1.89-.19-3.8-.14-5.7-.03-.05-2.47-.05-4.92.21-7.38,1.12-.2,2.85.61,3.98-.38.51-.44.23-1.78.94-2,.15,1.46,1.26,1.35,2.34,1.27,3.05-.24-.46-3.96,5.58-4.25l18.45-.87Z"/>
            <path class="cls-145" d="M228.33,305.33l-.06,3.26-18.45.87c-6.04.29-2.52,4.01-5.58,4.25-1.09.09-2.2.19-2.34-1.27.32-1-.32-2.22.33-3.33.95.03,1.62-.39.63-.67.02-.86.09-1.72.03-2.57,1.15-1.32,2.95-1.02,4.78-1.21,6.83-.7,13.32-.23,20.18-.57.27.6-.27,1.26.47,1.24Z"/>
            <path class="cls-123" d="M202.47,322.22c.39,1.92.16,4.07-.58,5.89-1.56-.4-3.21-.09-5.02-.25-.47-2.02-.06-3.9-.1-5.67,1.89-.11,3.81-.16,5.7.03Z"/>
            <path class="cls-40" d="M202.86,308.44c1,.28.32.7-.63.67-.65,1.11,0,2.32-.33,3.33-.71.23-.43,1.56-.94,2-1.13.99-2.86.17-3.98.38.19-1.78-.58-3.8.17-5.75,1.93-.6,3.91-.3,5.71-.62Z"/>
          </g>
          <path class="cls-4" d="M163.54,175.79c.56-.05,1.09.58,1.69.45-.32,1.56-.69,3.26-.34,5.03,1.75.36,3.2-.18,4.59.28.22.07.38.03.6.04l.02,17-4.93.48c-.19,1.14.6,3.18-.33,3.71-2.63,1.5-5.58-1.17-6.54,1.87-.26.84.62,1.3.87,2.01,1.97,5.68,4.73.82,4.8,9.68l-4.53.63c-.84.95.05,2.71-.79,3.79-.9,1.17-3.09.46-4.81.64-.64,1.34-.67,2.93-1.23,4.53l-5.97.4c.49,2.14-.7,3.82-1.04,5.63s-.71,2.37-2.34,3.09c-1.27.56-2.18,2.26-3.79,2.48-.85,1.57-1.2,2.21-2.36,2.5l-.1-5.41c-.03-1.38.86-2.75.75-4.42l3.23-.71c-.74-3.15.78-6.03.89-8.51,1.28-.01,2.65.37,4-.38l.36-12.8,4.34-.64.3-11.74c.78.18.39-.59.39-1.15,1.65-.3,2.85-.14,4.38-.05.49-2.6-.27-6.17.52-8.2.23-.58,1.51-.12,1.75-.54.79-1.37.31-3.11.3-4.41,0-1.72.3-3.51.11-5.22,1.73.05,3.48.1,5.21-.06Z"/>
          <path class="cls-158" d="M169.47,181.55c-1.39-.46-2.84.08-4.59-.28-.34-1.77.02-3.47.34-5.03,1.17-.34,2.77-.78,4.37-.07.58.26.58,5.02-.12,5.38Z"/>
          <path class="cls-148" d="M163.72,171.61l-.18,4.18c-1.73.16-3.48.12-5.21.06-.14-1.21.13-2.7-.16-3.85.24-.33.09-.87.35-1.07.43-.35,5.69-.67,5.2.68Z"/>
          <path class="cls-46" d="M115.26,185.92c.9,1,1.19,2.23,1.2,3.55s-.44,4.1.82,4.81c1.73.19,3.28-.25,4.25,1.12-.29,1.04.14,2.11.13,3.17-.03,2.83-.13,5.7.11,8.8,1.65.41,2.96-.11,4.4.42l.25,7.85c.05,1.44-.68,3.54.28,5.12,1.14.88,3.55.16,4.9.16.37,2.95.48,5.95.6,8.93.07,1.88-.61,3.98-.43,5.92-5.98-1.91-1.66-2.45-5.74-4.97-.75-1.07-.03-2.98-.61-4.21-1.3-.47-2.92.18-4.11-.6-1.37-.88-1.13-3.12-2.26-4.13-.77-.68-2.6.08-3.38-.91-.71-.91,0-2.41-.67-3.53-1.22-.73-3.23.07-4.42-.99-.87-.78-.83-3.69-.14-4.63l1.93-2.65c1.14-1.57,4.29-3.48,2.72-5.68l-9.81-.67-.26-3.96-4.66-.18c-.09-2.93-.06-5.96.23-9.03,1.15-.54,2.41.26,3.37-.26s.51-1.95.72-2.96l10.56-.47Z"/>
          <path class="cls-124" d="M137.01,234.64l.1,5.41c-1.6.4-3.29,1.1-5.33-.09.1-1.5.12-2.89,0-4.2-.18-1.93.5-4.04.43-5.92,4.07-.65,2.66,4.19,4.79,4.79Z"/>
          <g>
            <path class="cls-116" d="M158.78,259.13c.4-1.95-.3-4.06,0-6.36l2.92-.32c.46-.05.72.35,1.13.32.53-.04.91-.18,1.03-.78,2.08.35,4.12-.05,6.14-.18,2.99-.19,6.02.02,9.43.06.29,2.58.08,4.68.09,7.37-4.34.29-8.52.25-12.87.08-2.67-.11-5.31.45-7.85-.19Z"/>
            <path class="cls-146" d="M169.99,251.82c-2.02.13-4.06.53-6.14.18.26-.17.33-.31-.01-.39.73-1.22.76-3.91.03-5.08-1.62-.25-2.97.32-4.38-.25-.03-2.53-.24-5.07.38-7.37.97.31,2.21-.19,3.15.34.13.7-.07,1.58.63,1.35-.06.7-.29,1.45.08,2.41,4.15.07,8.35.32,12.54-.29,1.02-.25.58-3.28-.44-3.87-.74-.43-1.01-.35-1.6.08-.16-2.81.83,1,2.19-1.51.79.28,2.57-.54,3.21.25.84,2.84.42,5.74-.06,8.72l-10.46.21c-.1,1.75-.83,5.59.87,5.21Z"/>
            <path class="cls-32" d="M158.69,259.56l.08,21.86c0-1.3-.44,6.96-.16,7.3,1.24,1.52,3.53-.48,2.96,1.17-2.32,0-5.1.67-7.09-.56l.06-29.8c1.35-.35,2.89-.66,4.15.03Z"/>
            <path class="cls-76" d="M158.81,251.73c1.68.17,3.32.23,5.02-.13.34.09.28.23.01.39-.12.61-.5.75-1.03.78-.4.03-.67-.37-1.13-.32l-2.92.32c-.3,2.3.4,4.41,0,6.36l-.09.43c-1.27-.69-2.81-.38-4.15-.03,0-2.57-.36-5.16-.02-7.74,1.37.58,2.93-.21,4.29-.07Z"/>
            <path class="cls-59" d="M175.47,237.16c-.68.18-10.87.93-10.22-.4-.04-.52-.08-2.15.69-2.42,3.65-1.28,5.36,1.09,7.79.76.7-.09,1.69.15,1.71.84,0,.34.17.83.02,1.22Z"/>
            <path class="cls-53" d="M175.47,237.16c.45-.12.54.11.96.26-1.36,2.5-2.35-1.31-2.19,1.51l-10.17-.08c-.53,0-.37,1.22-.41,1.75-.7.23-.5-.65-.63-1.35-.94-.54-2.17-.03-3.15-.34.75-2.79,2.21-.34,5.38-2.14-.66,1.33,9.54.58,10.22.4Z"/>
            <path class="cls-143" d="M174.24,238.93c.59-.43.86-.51,1.6-.08,1.01.59,1.46,3.62.44,3.87-4.19.61-8.39.36-12.54.29-.37-.96-.14-1.71-.08-2.41.05-.53-.12-1.75.41-1.75l10.17.08Z"/>
            <g>
              <path class="cls-157" d="M175.88,289.87l-14.32.02c.57-1.66-1.72.34-2.96-1.17-.27-.34.16-8.6.16-7.3l12.51-.04.3,3.23c1.33.5,2.71.29,4.18.17.52,1.83.24,3.49.12,5.08Z"/>
              <path class="cls-77" d="M162.96,285.57c.66,1.2-.49,1.98-1.15,1.85-.54-.11-1.91-.04-2.25-1.19s2.86-1.63,3.4-.65Z"/>
            </g>
          </g>
          <g>
            <path class="cls-122" d="M143.51,334l3.32,17.41,2.17,23.3,1.33,14.5c.18,1.92-.02,3.89.43,6.18l29.31-.06c2.64,0,5.76-.35,8.06.8l.04,51.97-3.72.55c-.56-.45-1.53-.52-2.26-.7l-.17-45.65c-2.74-.11-5.2-.39-7.81-.43l-9.58-.16-4.19.98c-.91.21-1.43,2.72-3.11,1.96-.27,1.85-1.75,1.96-3.38,2.17-.51,13.85-.12,27.49.22,41.15-2.52-.02-5.16.2-7.6.65-1.07-.36-2.18-.21-4.03-.34l-.14-52.7-.23-29.18c0-1.17-.27-1.97-.38-2.8-.66-5.24-.1-10.44-.42-15.89-2.81-.42-5.74-.11-8.4.39-1.36,4.96-.99,14.67-1.23,19.93,0-2.16-1.08-4.82-.52-7.36l-4.81-.1c.26-7.08-.26-14.39,1.3-21.43,1.02-4.57.86-9.18,2.18-13.51,1.38,1.53,1.1,3.97,1.2,6.52,3.79,1.32,10.94-1.21,12.4,1.86Z"/>
            <path class="cls-16" d="M124.32,395.46c.31,0,.67.02,1.09.04l-.19,52.59-3.47.48c-.97-.6-2.62-.51-3.67-.94l.08-41.69c-1.87-.76-4.15-.03-5.86-1.06-.5-.3-.15-2.09-1.2-2.26-2.74-.44-5.37.04-7.99-.68-.7-.19-1.23-.94-1.88-1.06-.95-.18-1.19,1.01-2.09,1.38-1.2.5-3.48-.63-4.34.93-.33.6.11,1.68-.6,2.25-2.6,2.08-4.28-.66-4.23,2.88l.2,13.81.08,20.88c.96.78,2.1.35,3.06.94.12,1.38.06,2.68.7,3.72-3.36-.13-7.11,1.04-10.6.51-1.28-.19-2.65,1.73-4.39-1.3l.05-50.24c0-.28,0-1.18.58-1.18h44.67Z"/>
            <path class="cls-34" d="M154.17,447.97l25.9.16c-.1,1.22.25,2.58-.49,3.64-9.23-.32-18,.38-27.54.26-.02,2.13-.94,4.81.96,4.8.34.49-1,.28-1.01.55l-.21,23.15c0,.49.19,1.09.27,1.33.11.34.86.54,1.5.53l21.63-.18c2.93-.02,6.25,1.07,9.72.8,2.69-.21,5.37-.23,7.84-.28,4.32-.1,8.63.62,13.36-.09-.12-3.42.95-7.73-1.76-9.86-1.56-1.23-3.6-.47-5.2-.29-.16-.71-.05-1.42-.09-2.03-.13-1.65.28-3.69-.91-4.84,2.28,0,4.63.04,7.17.3l.37,6.92c1.83.03,3.45-.25,5.26.25.13,2.38-.39,4.33.32,6.54.97,3.04.13,6.39.5,9.46.22,1.81-.16,3.74-.31,5.97l-65.27-.03c-.02-3.7.14-6.95-.06-10.2-.04-.68-.08-1.51-.01-2.18.49-4.58-.09-9.25.01-13.82l.45-20.24c2.44-.45,5.08-.66,7.6-.65Z"/>
            <path class="cls-151" d="M118.08,447.64c1.05.43,2.7.34,3.67.94l.15,21.3c.01,1.79-.83,3.9.18,5.35-.4,3.17.2,6.41.12,9.57l-.27,10.33-65.89-.11c.12-2.22-.43-4.22-.22-6.02.36-3.11-.27-6.44.54-9.47.57-2.11.49-4.02.44-6.43,1.82-.3,3.44-.44,4.87-.07.3.26.66,0,.84.1.32.18.21.55-.05.51-2.05-.36-.67,6.63-1.1,8.86,1.99,1.25,3.97.03,5.66.14,9.34.6,18.76.16,28.12.17h11.65s9.63.08,9.63.08c-.41-9.34.65-18.18-.46-26.77-.16-1.25.5-2.78-.09-4.36l-26.36-.2c-.31,1.84-.75,3.95.29,5.18,2.95.07-8,.23-6.22.2.4.47.68-9.6-.15-8.74,3.49.53,7.24-.64,10.6-.51,7.97.3,16.11.78,24.06-.03Z"/>
            <path class="cls-44" d="M83.38,304.58l-.34,4.59c-.03.38-1.14.52-1.14,1l-.08,14.32c-.9.77-2.24.14-3.38.59-.57,2.66,0,5.07-.17,7.41-.12,1.63.44,5-.64,5.44l-1.54.63c-.21.09-.43,1.12-.45,1.8l-.49,16.12-3.44.48-.38,31.78c5.74,1.13,11.48-.08,16.88-.01l37.17.47c-.07,1.88.04,3.73-.21,5.76-.37.06-.89,0-.84.5h-44.67c-.58,0-.58.9-.58,1.18-.56.05-.35-.52-.54-1.17l-16.96-.19v-16.86c1.34-.61,2.65-.2,4.3-.43l.3-21.39,4.83-.35.56-23.51c.43-.64,2.13-.23,2.9-.58l.61-27.01c.78-.59,2.14-.31,3.25-.17.26-.61-.61-1.23.2-1.29.19.23.04,1.05.52,1,1.73-.29,3.01-.13,4.33-.14Z"/>
            <path class="cls-141" d="M95.12,482.8c1.45.52.46-8.02.46-8.05l-.23-5.26c-.04-1-1.99-.99-2.76-.86.14-2.57-.94.53-1.38-5.44l-9.26.13-1.57,2.21h-2.61c-1.09-.02-2.08-.34-3.09.34-.67.45-1.03,1.6-.82,2.54-.89-.29-3.32.09-3.68.97-.29.71-.49,1.95-.49,2.51-3.86-1.07-2.17,9.21-2.69,10.74-1.69-.11-3.67,1.11-5.66-.14.43-2.23-.95-9.22,1.1-8.86.25.04.36-.33.05-.51-.18-.1-.54.16-.84-.1-.27-.23.53-.38.54-.59l.25-6.56c3.83-.45,7.81.23,11.35-1.5.77-.37,1.19-2.18,2.77-1.71.56.16,2.11.02,2.27-.47.52-1.59-.1-3.19.36-5.08,1.61-.17,3.03-.17,4.38-.19-1.78.03,9.17-.13,6.22-.2l9.58.22,15.35-.21c.58,0,1.02-.36,1.23-.62,1.1,8.59.05,17.42.46,26.77l-9.63-.07h-11.65Z"/>
            <path class="cls-33" d="M180.04,456.65c1.26.63,4.05.7,5.32.47.61-.11,2.1-.64,2.53.18.85,1.62-.11,3.49.64,5.33l6.98.34c1.13.06,2.19.75,1.68,1.73-3.88,1.51-1.64,1.94-7.96,1.38l-.86-2.88c-2.92-.12-8.45-.65-10.51.55-2.36,1.38-5.57-.7-7.05.83-.71.73.69.94-.71,4.32,6.53,1.21,3.9-1.73,7.42-1.12.51.09,1.75.25,1.99-.24.26-.51-.08-1.35.04-1.86,1.12.55.21,1.75.64,2.6-1.31-.2-3.08.16-4.53.28-.59,2.58.31,4.93-.02,7.2-.31,2.12-.63,4.25-.44,6.43l-21.63.18c-.64,0-1.39-.19-1.5-.53-.08-.24-.27-.84-.27-1.33l.21-23.15c0-.26,1.35-.06,1.01-.55l27.04-.16Z"/>
            <path class="cls-82" d="M197.19,464.69l.95.92c1.19,1.15.78,3.19.91,4.84-1.46-1.37-3.89-.64-5.93-.35-.17,2.08.81,2.9-.11,5.1,1.36,1.07,3.37.5,5.34.32.05-1.26,1.01-2.09.79-3.05,1.6-.18,3.64-.94,5.2.29,2.71,2.13,1.64,6.44,1.76,9.86-4.74.71-9.05-.01-13.36.09.06-2.28,0-4.61-.74-6.74-1.02.43-1.63-.15-2.37-.15l-13.27-.06c-.09-.25.05-.53.52-.53l15.48-.09c-.04-2.45-.37-4.02.32-5.72-4.55-.85-11.33.99-12.5-1.14-.42-.85.49-2.05-.64-2.6-.49-.24-1.09-.26-1.46-.54-.33-.25-.02-1-.22-1.39,2.06-1.2,7.58-.67,10.51-.55l.86,2.88c6.32.56,4.08.13,7.96-1.38Z"/>
            <path class="cls-73" d="M182.19,447.94c.73.18,1.7.25,2.26.7.89,1.99-.6,7.23.91,8.48-1.27.23-4.06.16-5.32-.47-.51-1.59.25-3.35-.46-4.89.74-1.06.38-2.41.49-3.64.73,0,1.4-.36,2.12-.18Z"/>
            <path class="cls-46" d="M188.57,389.03l-8.47.16c-9.9.19-19.85-.26-29.77.01l-1.33-14.5-2.17-23.3-3.32-17.41c-.38-2.01-.27-4.12-.79-6.3l-1.4-5.88-.47-8.36,5.26-.34c1.13-.07,2.27-.49,3.64-.43l.92-3.37,21.96.13c2.84.02,5.51.27,8.13.99.16,2.57-.02,4.64.39,6.93,1.28.32,2.58-.06,3.61.67.38,7.82-.31,15.44.88,23s.89,15.3,1.64,23.21c.81,8.45,1.05,16.62,1.29,24.77Z"/>
            <path class="cls-46" d="M123.79,308.96c.82-.23,1.88.32,2.66.05.11,1.24-.22,2.57.27,4.03l3.3.31c1.18,2.61.41,5.35.69,7.96-1.18,1.14-.38,2.98-.79,4.31-1.32,4.33-1.17,8.94-2.18,13.51-1.56,7.03-1.05,14.34-1.3,21.43l-1.04,28.65-37.17-.47,1.06-52.98c1.5-.86,3.5-.2,4.45-1.27.34-.39.11-1.11.32-1.6-.05.71,5.75-3.29,5.19-2.56.97-1.25-.2-3.95,1.23-3.81,1.14.12,3.13.31,3.98-.59l.05-12.35c-2.49-1.31-14.99-.07-14.04-3.21.13-.44.73-.82,1.49-.82l22.81-.17c3.21-.02,6.23.36,9.05-.42Z"/>
            <path class="cls-56" d="M182.19,447.94c-.73-.18-1.4.19-2.12.18l-25.9-.16c-.34-13.66-.73-27.3-.22-41.15,1.63-.22,3.11-.33,3.38-2.17,1.69.76,2.2-1.74,3.11-1.96l4.19-.98,9.58.16c2.61.04,5.07.32,7.81.43l.17,45.65Z"/>
            <path class="cls-131" d="M142.4,395.57l-10.66-.51v-27.04c.24-5.26-.13-14.97,1.23-19.93,2.66-.5,5.59-.8,8.4-.39.32,5.45-.24,10.65.42,15.89.11.83.37,1.63.38,2.8l.23,29.18Z"/>
            <path class="cls-107" d="M131.74,368.01v27.04c-1.97-.09-4.33.58-6.34.45-.42-.03-.77-.04-1.09-.04-.05-.5.47-.44.84-.5.25-2.03.14-3.88.21-5.76l1.04-28.65,4.81.1c-.57,2.53.52,5.2.52,7.36Z"/>
            <path class="cls-150" d="M180.1,389.19l-.04,6.13-29.31.06c-.45-2.28-.25-4.26-.43-6.18,9.92-.27,19.87.17,29.77-.01Z"/>
            <path class="cls-144" d="M141.32,321.82l1.4,5.88c.52,2.17.4,4.29.79,6.3-1.45-3.08-8.61-.55-12.4-1.86-.1-2.55.18-4.99-1.2-6.52.41-1.34-.39-3.17.79-4.31,3.62,1.3-.31-5.69,1.63-8.08.78-.96,3.97-.86,4.97-.2,2.01,2.67-.67,7.39.69,8.18-.41-.24,2.78.35,3.34.63Z"/>
            <path class="cls-27" d="M118.08,447.64c-7.95.81-16.09.34-24.06.03-.64-1.04-.58-2.34-.7-3.72-.96-.59-2.1-.16-3.06-.94l-.08-20.88-.2-13.81c-.05-3.54,1.63-.8,4.23-2.88.71-.57.27-1.65.6-2.25.86-1.56,3.14-.43,4.34-.93.89-.38,1.14-1.56,2.09-1.38.65.12,1.18.87,1.88,1.06,2.62.72,5.25.24,7.99.68,1.04.17.7,1.96,1.2,2.26,1.71,1.02,3.99.3,5.86,1.06l-.08,41.69Z"/>
            <path class="cls-51" d="M179.58,451.76c.7,1.54-.06,3.29.46,4.89l-27.04.16c-1.9.01-.98-2.67-.96-4.8,9.54.13,18.31-.58,27.54-.26Z"/>
            <path class="cls-125" d="M192.74,482.71c-2.47.06-5.15.07-7.84.28-3.46.27-6.79-.82-9.72-.8-.19-2.18.13-4.3.44-6.43h.74l13.27.06c.74,0,1.35.59,2.37.15.75,2.13.8,4.45.74,6.74Z"/>
            <path class="cls-67" d="M199.05,470.45c.05.6-.07,1.32.09,2.03.22.95-.75,1.79-.79,3.05-1.97.17-3.99.75-5.34-.32.92-2.21-.06-3.03.11-5.1,2.04-.29,4.47-1.02,5.93.35Z"/>
            <path class="cls-12" d="M69.69,471.89l.02,3.96c8.38,0,16.47.24,24.78-.34.52-.04.76-.67,1.1-.76,0,.02.99,8.57-.46,8.05-9.36,0-18.78.43-28.12-.17.51-1.52-1.17-11.81,2.69-10.74Z"/>
            <path class="cls-89" d="M115.94,456.11c-.21.26-.65.61-1.23.62l-15.35.21-9.58-.22c-1.04-1.23-.61-3.35-.29-5.18l26.36.2c.58,1.58-.07,3.11.09,4.36Z"/>
            <path class="cls-109" d="M94.03,332.88c-.21.49.02,1.21-.32,1.6-.95,1.08-2.95.41-4.45,1.27l-1.06,52.98c-5.4-.07-11.14,1.15-16.88.01l.38-31.78,3.44-.48.49-16.12c.02-.68.24-1.72.45-1.8l1.54-.63c1.08-.44.52-3.81.64-5.44l13.67-.16c.97-.01,1.51.33,2.11.54Z"/>
            <path class="cls-78" d="M122.73,304.29c1.58,1.56.35,1.8,1.06,4.66-2.82.78-5.84.4-9.05.42l-22.81.17c-.76,0-1.35.39-1.49.82-.95,3.14,11.54,1.9,14.04,3.21l-.05,12.35c-.86.89-2.84.71-3.98.59-1.44-.15-3.08-1.38-4.79-1.37l-8.51.05c-1.91.01-3.96.42-5.35-.7l.08-14.32c0-.48,1.12-.62,1.14-1l.34-4.59,39.35-.28Z"/>
            <path class="cls-86" d="M100.45,326.51c-1.43-.14-.25,2.55-1.23,3.81.56-.73-5.24,3.27-5.19,2.56-.6-.21-1.14-.56-2.11-.54l-13.67.16c.17-2.35-.4-4.75.17-7.41,1.14-.45,2.48.18,3.38-.59,1.39,1.12,3.43.72,5.35.7l8.51-.05c1.71-.01,3.35,1.22,4.79,1.37Z"/>
            <path class="cls-11" d="M73.86,468.41c2.14.7,14.1,1.15,14.9-.15,1.09.92,2.5.6,3.84.37.77-.13,2.72-.13,2.76.86l.23,5.26c-.33.09-.58.72-1.1.76-8.31.59-16.39.35-24.78.34l-.02-3.96c0-.56.2-1.8.49-2.51.36-.88,2.79-1.26,3.68-.97Z"/>
            <path class="cls-104" d="M80.38,465.53c3.82,2.05,9.33-1.33,8.38,2.72-.8,1.31-12.76.85-14.9.15-.21-.95.15-2.09.82-2.54,1.01-.68,2-.36,3.09-.35h2.61Z"/>
            <path class="cls-2" d="M92.59,468.63c-1.34.22-2.75.55-3.84-.37.96-4.06-4.56-.67-8.38-2.72l1.57-2.21,9.26-.13c.44,5.97,1.52,2.87,1.38,5.44Z"/>
            <path class="cls-62" d="M180.18,468.28c1.17,2.13,7.95.29,12.5,1.14-.68,1.71-.36,3.27-.32,5.72l-15.48.09c-.47,0-.61.28-.52.53h-.74c.33-2.28-.57-4.63.02-7.2,1.45-.12,3.22-.48,4.53-.28Z"/>
            <path class="cls-36" d="M179.54,465.68c-.12.5.21,1.35-.04,1.86s-1.48.32-1.99.24c-3.52-.6-.89,2.33-7.42,1.12,1.4-3.38,0-3.59.71-4.32,1.48-1.53,4.7.55,7.05-.83.2.39-.11,1.14.22,1.39.37.28.97.3,1.46.54Z"/>
            <g>
              <path class="cls-101" d="M95.22,289.83l22.09.15c-1.21,2.4-.6.46-.65,5.43,2.46.14,4.92.68,7.03-.12l.1,8.87c-.37-.13-.7.13-1.06.13l-39.35.28c-1.32,0-2.6-.15-4.33.14-.48.04-.33-.77-.52-1l-.03-12.62c-.14-2.44,2.81-.28,4.88-1.78-.89,1.17,11.18.51,11.83.51Z"/>
              <path class="cls-30" d="M189.9,295.84c.02,1.46-.23,2.82.02,4.28.23,1.34-.56,2.74-.26,4.1-1.32.32-2.86.47-4.22.47l-34.57-.04c-.05-.63-.86-.51-1.09-.39-.12-3-.3-6.03-.02-9.03.74.32,1.65.43,2.72.42l28.13-.04c.97-1.88.55-3.92-.07-5.68.19,0,.38-.1.6-.1l8.67.29.09,5.71Z"/>
              <path class="cls-119" d="M161.57,289.89l14.32-.02,4.66.07c.62,1.76,1.04,3.81.07,5.68l-28.13.04c-1.07,0-1.99-.11-2.72-.42.16-1.74-1.01-4.11.61-5.29,1.38-.02,2.93.02,4.1-.61,1.99,1.23,4.77.56,7.09.56Z"/>
              <path class="cls-26" d="M123.35,289.86h.46c.26,1.82-.14,3.66-.12,5.43-2.11.8-4.57.26-7.03.12.05-4.97-.56-3.03.65-5.43l6.04-.11Z"/>
            </g>
            <path class="cls-81" d="M185.45,304.69c.12,1.28-.22,2.51.17,4.09,2,.26,4.29.58,5.91-.5.74-.58.53-1.88,1.15-2.58l3.89.11c.06.9.61,2.46-.65,2.97-1.08.44-2.36-.19-3.77.29l-.26,18.54c-.02,1.12-2.51,4.56-1.19,12.31.13.75,1.65,1.34,1.22,2.55s.45,2.13.64,3.19c.6,3.38-.69,6.72.08,9.97.26,1.09,2.17.99,3.93,1l.48,32.14c-2.91.64-5.76.2-8.47.25-.24-8.16-.48-16.32-1.29-24.77-.76-7.91-.44-15.56-1.64-23.21s-.5-15.18-.88-23c-1.03-.73-2.33-.34-3.61-.67-.41-2.29-.23-4.36-.39-6.93-2.62-.72-5.29-.98-8.13-.99l-21.96-.13-.92,3.37c-1.37-.06-2.51.36-3.64.43,0-1.57.23-3.21,1.62-4.07.59,0,1.58.06,2.04-.41.98-.99-.43-3.82,1.11-3.99l34.57.04Z"/>
            <path class="cls-160" d="M189.67,304.23c-.31-1.36.49-2.77.26-4.1.27.08.7.02.88.18.39,1.58.74,3.49.11,5.02-.81-.33-1.06-.77-1.24-1.1Z"/>
            <path class="cls-18" d="M147.73,309.05c-1.39.87-1.63,2.5-1.62,4.07l-5.26.34.47,8.36c-.55-.28-3.75-.87-3.34-.63-1.36-.79,1.33-5.51-.69-8.18-1.01-.66-4.19-.76-4.97.2-1.94,2.39,1.99,9.38-1.63,8.08-.28-2.6.49-5.35-.69-7.96l-3.3-.31c-.48-1.46-.16-2.79-.27-4.03,1.61-.57,3.38-.2,5.35-.17l15.94.22Z"/>
            <g>
              <path class="cls-3" d="M131.72,284.95c1.85-.02,3.61-.08,5.45-.04l12.88.29c-.12,2.19-.24,3.46.32,4.75-1.62,1.18-.45,3.55-.61,5.29-.28,2.99-.1,6.02.02,9.03l-.78.43c-.2.11-.87.02-.81-.4l-.5-12.12c-.25-6.09-19.63-2.2-23.89-2.3h-.46s.48-4.82.48-4.82l7.9-.1Z"/>
              <path class="cls-58" d="M123.79,304.16c.91.69,2.34.64,3.73.62,7.08-.07,14,.46,20.68-.49-.06.42.61.51.81.4l.78-.43c.23-.13,1.04-.24,1.09.39-1.54.17-.12,3.01-1.11,3.99-.46.46-1.45.41-2.04.41l-15.94-.22c-1.96-.03-3.73-.4-5.35.17-.77.28-1.84-.28-2.66-.05-.71-2.86.51-3.1-1.06-4.66.35,0,.69-.26,1.06-.13Z"/>
              <g>
                <path class="cls-102" d="M148.19,304.3c-6.68.95-13.6.41-20.68.49-1.39.01-2.82.06-3.73-.62l-.1-8.87c-.02-1.77.38-3.61.12-5.41,4.26.1,23.64-3.79,23.89,2.3l.5,12.12Z"/>
                <path class="cls-118" d="M143.3,295.28c-5.37.76-8.85-.16-13.39.38-.27-1.84-.47-3.53.25-5.2l12.69.28c1.19.82.36,3.31.45,4.54Z"/>
                <path class="cls-117" d="M143.3,295.28c.13,1.75.36,3.28-.13,5.04-4.5.32-8.76.12-13.18-.02-.3-1.77-.12-3.19-.08-4.64,4.55-.53,8.03.39,13.39-.38Z"/>
              </g>
            </g>
          </g>
        </g>
        <g>
          <path class="cls-111" d="M95.58,119.45c-1.62,6.72-.06,13.92-.7,21.1l5.46.19.29,4.54c1.26.52,2.54-.15,3.67.51.4.36.28,1.18.62,1.33.5.23,1.24.22,2.04.12.73-.09.59,2.03,1.17,1.99,1.57-.1,1.7,1.44,2.33,1.47l14.62.74c.43,1.89-.23,3.7.56,5.19l25.63.45c-.16,1.59-.11,3.22.13,4.81-.22.02-.53.39-.56.6l-26.08-.49-.34-4.83c-6.97-.8-12.29.26-19.46-.81-.46-1.12-.04-2.07-.65-3.18-1.99,0-8.46-.45-8.6-2.45l-.32-4.49-4.5-.24c-.78-.04-1.42,0-1.65.58-.4.2-.66-.14-.52-.54.58-1.71-.84-29.49.64-32.89,1.82.33,3.54.17,5.74.13-.27,1.98.94,4.33.49,6.17Z"/>
          <path class="cls-29" d="M193.84,119.38c1.27,1.03-5.31.43-6.06.81.17,1.61-.8,10.97.79,9.99-1.39.32-1.32,3.15-.5,3.87-.45.64-.21.85-.16,1.16-1.31,3.26-.16,6.96-.99,10.66l-6.09.24c-.32,2.31,0,4.3-.61,6.43-2.06.06-3.77.11-5.44.26-.1-2.1.37-4.18.08-6.28.04-.25.33-.38.57-.4,1.37-.11,3.64.61,4.9-.42,1.1-1.17.56-3.75.36-5.01.78-6.75,1.2-14.6-.1-21.23-.36-1.83,1.11-3.76.37-5.74-.41-.19-1-.04-.88-.57.35-.07.67-.18,1.03-.21,2.1-.16,4.29.4,6.29-.36.63,1.94.32,4,.35,6.64,2.1.44,4.15.14,6.09.14Z"/>
          <path class="cls-155" d="M193.71,130.08c0,.2-.17.33-.33.43-1.38-.19-3.34-.66-4.8-.32-1.59.98-.62-8.39-.79-9.99.75-.38,7.33.22,6.06-.81.08-2.62.18-5.28-.07-8.25-2.16-.62-4,0-5.84-.1-.56-1.84-.37-3.95-.06-6.15,2.22.45,4.31-.29,5.95-.2,2.17.62,4.23.47,7.03.63-.53,4.48,1.21,9.3-.06,13.33-.6,1.91-1.05,3.74-1.11,5.88-2.56.13-4.13-.19-6.03.37l.08,5.18Z"/>
          <path class="cls-39" d="M124.76,162c-.71.31-2.43.96-3.19.42-1.6-1.12-3.46-.23-5.26-.43l-11.51-1.25-.53-3.24-8.61-.21c-.31-1.74-.12-3.18-.69-4.66l-5.71-.17c-.07-2.25-.21-4.09-.01-5.88.24-.59.87-.62,1.65-.58l4.5.24.32,4.49c.14,2,6.62,2.46,8.6,2.45.61,1.11.18,2.07.65,3.18,7.17,1.07,12.49.02,19.46.81l.34,4.83Z"/>
          <path class="cls-136" d="M200.37,99.25c1.07.91.66,4.15,1.36,5.39.75,1.18,2.6.59,3.99.98.5,6.28.54,12.35.32,18.59-2.17.28-4-.2-6.03.29l-.24,5.63c-2.25.09-4.16.08-6.05-.05l-.08-5.18c1.9-.56,3.47-.24,6.03-.37.06-2.15.51-3.97,1.11-5.88,1.27-4.02-.47-8.85.06-13.33-2.8-.16-4.86,0-7.03-.63-.38-1.78.2-3.58.09-5.38,2.06.36,4.39-.73,6.46-.05Z"/>
          <path class="cls-45" d="M174.78,152.81c.06,1.35,0,2.76-.16,4.34l-5.24.4c-.46,4.34-9.25,3.9-12.66,3.94h-.7c-1.45.03-3.18.59-4.61.4-.23-1.59-.29-3.21-.13-4.81.02-.15.06-.31.1-.45,2.32.17,5.37.51,7.71-.08v-2.32c-.02-1.08,1.34-.65,2.41-.68,4.6-.14,8.97-.34,13.28-.74Z"/>
          <path class="cls-9" d="M156.01,161.49l-.37.76c-.16.32.16.98.54.75.14,1,1.22,1.39,1.62,2.23,0,2.28-.18,4.59.37,6.78.29,1.15.02,2.64.16,3.85.19,1.71-.12,3.5-.11,5.22-1.07-.22-1.01,1.15-2.4,1.84-.86-3.65-.4-7.15-.65-10.98-.29-.64-2.09-.63-2.85-.73-2.55-.35-.64,4.62-2.52,4.74-1.28.2-2.53-.21-3.71.32-.07-1.79-.03-3.67.43-5.39.94-.67,2.34-.5,3.94-.32.41-2.72.71-5.53.37-8.07.04-.21.35-.58.56-.6,1.43.18,3.15-.38,4.61-.39Z"/>
          <path class="cls-84" d="M121.57,162.42c.11,2.35-.11,5.2.52,7.62.7.77,2.84,1.09,3.79.96l-.05,5.14c-1.53-.14-3.13-.12-4.65.14.59-1.5.42-3.2.06-5.1-1.86-.64-3.76.02-5.48-.28.05-2.25-.1-4.5.02-6.78.04-.73.25-1.46.53-2.13,1.8.2,3.66-.69,5.26.43Z"/>
          <path class="cls-113" d="M193.38,130.51c.36,1.31.08,2.78.01,4.44-1.97.54-3.72.13-5.47.27-.05-.31-.29-.52.16-1.16-.83-.72-.89-3.55.5-3.87s3.43.13,4.8.32Z"/>
          <path class="cls-46" d="M156.19,162.99c-.39.24-.7-.43-.54-.75l.37-.76h.7c-.25.53-.75.86-.53,1.5Z"/>
          <path class="cls-46" d="M25.55,201.78c-.18,0-.35,0-.53,0-.04-.66.57-.67.53,0Z"/>
          <path class="cls-46" d="M60.07,216.67c-.09-.36.14-.8.57-.61-.04.41-.19.58-.57.61Z"/>
          <path class="cls-137" d="M94.5,48.82c.6.76.5,1.54.51,2.68l.21,31.33c.02,2.54.33,6.43-1.63,8.09-.91.77-3.28.45-4.4.45v-37.31c0-1.55.04-3.21.27-5.03l5.04-.21Z"/>
          <path class="cls-43" d="M126.33,42.73l.18,6.02c1.88.58,3.66.03,5.3.18,5.67.51,11.47.2,17.41.21,2.24,0,1.13-4.86,2.06-5.87,1.24-1.34,15.73-.49,18.14-.5.1,1.54-1.19,3.94-.19,5.26,1.46,1.18,4.19.46,6.2.67,1.1,1.33-.14,3.21.73,4.59.97,1.54,3.95,1.08,4.9-.21.06.5-.04,1.31.57,1.54l-1.04,28.15-5.93-.21c.14-2.21.29-4.43-.29-6.97l-22.88-.14c-1.21,2.49.14,4.98-.09,7.23l-.81,8.03c-.1.95-3.29,1.03-4.26.69-.64-.22-.49-.99-.64-2-4.69-.41-12.21.3-16.19-.17l-3.82-.46c.24-2.05-.3-4.19-.24-6.08.08-2.21.63-4.44.06-7.23l-24.58.06c-.48,2.7-.23,4.85-.38,7l-5.32.31-.21-31.33c0-1.14.09-1.92-.51-2.68.13-.25.48-.27.56-.55,2.7.73,5.48.4,8.65.27.17-2.21.79-4.31-.14-6,7.58-.2,15.18-.2,22.76.18Z"/>
          <path class="cls-128" d="M175.25,42.72c.23,1.77-.22,3.57.3,5.54l4.97.7.53,4.11c-.95,1.29-3.92,1.75-4.9.21-.88-1.38.37-3.26-.73-4.59-2.01-.21-4.74.52-6.2-.67-1-1.33.29-3.72.19-5.26l5.83-.04Z"/>
          <path class="cls-72" d="M102.55,42.49c.37.02.71.07,1.02.06.92,1.69.3,3.78.14,6-3.17.13-5.95.46-8.65-.27l.31-5.42c2.57-.42,4.89-.48,7.18-.36Z"/>
          <path class="cls-35" d="M131.81,48.92c-1.64-.15-3.41.4-5.3-.18l-.18-6.02c1.63.08,3.27-.32,5.29-.08.29,2.23.15,4.29.18,6.28Z"/>
          <path class="cls-57" d="M181.07,48.82c-.18,0-.4.15-.54.13l-4.97-.7c-.52-1.97-.07-3.77-.3-5.54,1.56,0,3.31-.43,5.14.03.68,2.11-.22,4.27.67,6.08Z"/>
          <path class="cls-1" d="M150.84,162.49c.35,2.54.04,5.35-.37,8.07-1.6-.18-3-.35-3.94.32-5.44-1.11-15.61-.58-20.65.11-.95.13-3.09-.18-3.79-.96-.63-2.42-.42-5.27-.52-7.62.77.53,2.48-.11,3.19-.42l26.08.49Z"/>
          <path class="cls-138" d="M185.9,89.6c.06,1.54,1.69,2.71,1.33,4.34s-.09,3.22.04,5.02c2.67-.25,4.6,0,6.62.34.11,1.8-.47,3.6-.09,5.38-1.64-.09-3.73.65-5.95.2-.31,2.2-.5,4.31.06,6.15-.41.32-.71,1-.53,1.57-1.99.76-4.18.21-6.29.36.07-7.49.4-15.23-.16-22.64.33-.29,0-1.22.54-1.23,1.84-.05,3.22-.26,4.41.5Z"/>
          <path class="cls-142" d="M185.9,89.6c-1.19-.77-2.57-.56-4.41-.5-.54.02-.21.95-.54,1.23-.54-.14-.47-1.25-.29-1.62.87-1.85-.33-4.1-.08-5.94l1.04-28.15c1.34,0,2.64-.17,4.4.21l-.12,34.78Z"/>
          <g>
            <path class="cls-103" d="M187.14,26.61c-1.55,1.4-3.75-.2-5.42.89-1.17-1.5-.4-7.53-1.04-10.55-4.18-.48-7.91.07-11.85-.73-.88-.18-1.85-1.45-3.17-1.39-.74-1-.19-2.83-.56-4.16l-14-.91-1.9-5.03-17.97-.04c-.62.78-.1,3.01-.99,3.14-4.48.68-8.82.07-13.4.44-.89.07-.52,1.83-.97,1.86l-13.6.75-.31,6.08c-2.01.72-4.13.14-6.56.36-.62,2.23-.05,4.43-.46,6.88-4.1.54-7.95.3-12.39.21l-.63,5.86c-1.45.37-2.69.28-4.45.54l-.7,10.28c-1.59.87-3.05.24-4.45.28,0-1.15.62-2.87.06-4.28-.7-1.75-3.11-1.9-4.47-2.67-.12-.73.07-1.48.51-2.06.52-.67,1.22-.64,2.25-.72l4.76-.37.35-4.76.89-6.25c.23-1.62,3.64-.33,4.45-.88l.97-.66c.31-.21.87.22,1.15.32-.6-2.45,4.36-.66,5.43-2.26.8-1.21.02-3.66,1.56-4.96.72-.6,4.62.05,4.93-1.07l.65-2.34c.24-.86-.65-2.02.44-2.76.71-.48,1.42-.85,2.57-.72,2.12.24,13.78.35,15.09-.58l2.56-1.84c-.24.17,9.21-.72,10.45-.95,1.13-.22,2.37.22,3.62-.14.36-.1.31-.85.16-.97,3.5-.56,7.35-.69,11.06-.02,5.15.92,8.05-.67,8.23,2.23.04.68,1.27,1.71,1.73,1.93,1.18-.59,1.95-.16,2.84.11,4.96,1.48,11.99-1.22,12.92,1.61.48,1.45.2,3.06.59,4.04,5.46-.14,7.64,1.06,11.97,1.23,1.66,3.12.01,3.21,1.64,4.69,1.15,1.05,3.23-.1,4.63,1.71.98,1.27.26,6.13.81,8.6Z"/>
            <path class="cls-54" d="M192.2,29.47c-1.37-.34-3.2-.26-4.66-.37-2.21,2.52-.25,5.27-.19,6.98l.4,11.5c.04,1.23-.21,2.16-.83,2.29.47-1.66-3.83-1.08-5.86-1.06-.89-1.81.01-3.97-.67-6.08-1.84-.46-3.58-.04-5.14-.03l-5.83.04c-2.41.01-16.9-.84-18.14.5-.94,1.01.17,5.88-2.06,5.87-5.94,0-11.74.3-17.41-.21-.04-1.99.1-4.04-.18-6.28-2.03-.24-3.66.17-5.29.08-7.58-.38-15.18-.38-22.76-.18-.31,0-.65-.04-1.02-.06.98-1.15-6.03-.18-7.17-.75-.36-1.91-.36-3.6.03-5.66l43.09.16.32,6.07,12.03.12c.1-2.21-.27-4.03.28-6.23l29.54-.25c.69,0,.8-1.47.82-1.97l.24-6.47c1.67-1.1,3.87.51,5.42-.89.29-.19.88.51.99.94,2.17-.98,3.31.59,4.07,1.92Z"/>
            <path class="cls-80" d="M205.59,89.25c-1.46.12-3.49-.52-4.89.55-.53.9.17,2.66-.57,3.61l-12.9.53c.36-1.63-1.27-2.8-1.33-4.34l.12-34.78c-1.76-.38-3.05-.2-4.4-.21-.6-.23-.5-1.04-.57-1.54l-.53-4.11c.14.02.36-.13.54-.13,2.03-.02,6.32-.61,5.86,1.06,1.05,7.93.18,16.16.27,24.35l.16,13.98c1.75.43,3.54.24,5.19-.16,1.39-2.55,1.32-5.12,1.67-7.8.17-1.28,2.32.03,4.75-1.01.99-.42,1.63-5.81,1.45-6.54.29.11.41-.12.43-.76,1.43-.12,2.84.48,4.53.05.34-2.26.13-4.33.05-6.28-.09-2.25-.02-4.52.04-6.77.05-1.94.2-3.86,0-5.8-.19-1.75.09-3.57.11-5.32,1.06-.05,1.9.9,3.17.7,1.53-.25,2.53.97,2.52,2.42l-.09,13.25c-.01,2.18-.12,4.25-.08,6.45l.08,5.75c.11,7.43-3.16,7.96-5.03,10.59-.21.29.48,1.57-.17,1.64-.25.03-.48.16-.39.63Z"/>
            <path class="cls-80" d="M192.2,29.47c.71,1.24,2.17,2.47,1.62,4.59-.13.51.22,1.53.62,1.69,1.24.5,2.2-.91,5.13,1.23,1.13.83.03,2.76.88,3.9,1.02,1.37,4.91.81,4.65,2.86-.24,1.83.48,2.77.47,4.08-1.76.08-3.61.23-5.54-.36l-.11-5.33-6.21-.55c.07-2.05.3-3.81-.21-5.56l-6.14.06c-.06-1.71-2.02-4.46.19-6.98,1.46.11,3.29.03,4.66.37Z"/>
            <path class="cls-75" d="M205.59,89.25l-.57,6.65c-1.21.55-2.77.22-3.9.6-.69.23-1.28,2.27-.75,2.75-2.07-.68-4.4.41-6.46.05s-3.96-.6-6.62-.34c-.13-1.8-.39-3.46-.04-5.02l12.9-.53c.74-.95.04-2.71.57-3.61,1.39-1.07,3.43-.43,4.89-.55Z"/>
            <path class="cls-46" d="M130.72.47c.14.12.2.87-.16.97-1.25.36-2.49-.08-3.62.14.97-.85,2.54-.89,3.78-1.11Z"/>
            <path class="cls-120" d="M181.73,27.51l-.24,6.47c-.02.5-.13,1.96-.82,1.97l-29.54.25c-.55,2.19-.17,4.02-.28,6.23l-12.03-.12-.32-6.07-43.09-.16c-.39,2.07-.39,3.76-.03,5.66,1.14.57,8.15-.39,7.17.75-2.29-.12-4.6-.06-7.18.36l-.31,5.42c-.08.28-.43.3-.56.55l-5.04.21c-.23,1.83-.28,3.48-.28,5.03-2.08.28-4.36-.41-6.28.58-2.63-.78-6.33-.97-9.01.13-1.78.73-1.86,3.82-2.02,5.24.7.05-9.67,1.23-10.25,0l-.16-12.02,5.36-.49c.3-1.92.08-3.58.14-5.85,1.81-.16,3.62-.22,5.36-.27,1.4-.04,2.86.58,4.45-.28l.7-10.28c1.76-.26,2.99-.17,4.45-.54l.63-5.86c4.43.09,8.29.32,12.39-.21.41-2.45-.16-4.66.46-6.88,2.42-.23,4.54.36,6.56-.36l.31-6.08,13.6-.75c.44-.02.08-1.78.97-1.86,4.58-.37,8.92.23,13.4-.44.88-.13.37-2.36.99-3.14l17.97.04,1.9,5.03,14,.91c.37,1.33-.17,3.16.56,4.16,1.32-.06,2.29,1.22,3.17,1.39,3.94.79,7.67.25,11.85.73.64,3.01-.13,9.04,1.04,10.55Z"/>
            <path class="cls-134" d="M82.9,54.64l-.33,5.54c-3.72.29-7.25.07-10.7-.17.16-1.42.24-4.51,2.02-5.24,2.68-1.1,6.39-.9,9.01-.13Z"/>
            <g>
              <path class="cls-108" d="M67.92,34.45c1.36.77,3.77.92,4.47,2.67.56,1.41-.06,3.13-.06,4.28-1.75.05-3.56.11-5.36.27-.06,2.27.15,3.93-.14,5.85l-5.36.49.16,12.02c.58,1.22,10.94.04,10.25,0,3.45.24,6.98.46,10.7.17l.33-5.54c1.92-1,4.2-.3,6.28-.58v37.31s-.59,6.82-.59,6.82l-10.42.05c-3.76.02-7.52-.09-11.27.06-.47.02-.45-.12-.47-.32-.27-2.97-1.18-.67-5.44-2.23l.04-10.85c-1.4.1-5.24-.56-4.69-2.58s-.74-3.53-.86-5.33c-.68-9.77-.27-19.24,0-28.92l5.84-.52c.12-2.38-.15-4.2.23-6.19l4.92-.4c.5-1.69-.79-7.02,1.47-6.51Z"/>
              <path class="cls-22" d="M82.86,79.85l-5.27.23c-.33-2.7-.45-5.19-.1-7.96,1.87-.32,3.35-.16,5.25-.18.47,2.65.3,5,.13,7.91Z"/>
            </g>
            <path class="cls-133" d="M205.57,47.83c-.02,1.75-.3,3.58-.11,5.32-3.77-.08-7.49-.02-11.4.44-.1,1.93-.37,3.45.25,5.53,3.97-.03,7.63.43,11.16-.17-.05,2.26-.13,4.52-.04,6.77l-11.32.02c-.65,1.81-.33,3.77-.14,5.83,1.68.43,6.78-.61,6.45,1.14.18.73-.46,6.12-1.45,6.54-2.43,1.04-4.58-.28-4.75,1.01-.35,2.68-.29,5.25-1.67,7.8-1.65.4-3.44.59-5.19.16l-.16-13.98c-.09-8.2.77-16.42-.27-24.35.61-.13.87-1.06.83-2.29l-.4-11.5,6.14-.06c.51,1.75.29,3.5.21,5.56l6.21.55.11,5.33c1.93.59,3.77.44,5.54.36Z"/>
            <path class="cls-38" d="M205.43,65.73c.08,1.95.29,4.02-.05,6.28-1.69.43-3.11-.17-4.53-.05-.02.63-.14.87-.43.76.33-1.75-4.78-.71-6.45-1.14-.19-2.06-.51-4.02.14-5.83l11.32-.02Z"/>
            <path class="cls-48" d="M205.46,53.15c.21,1.94.05,3.86,0,5.8-3.53.61-7.2.14-11.16.17-.62-2.08-.34-3.61-.25-5.53,3.91-.47,7.63-.52,11.4-.44Z"/>
          </g>
          <path class="cls-74" d="M74.43,118.37c.59-.17,1.29-.24,1.85-.27,1.06-.05.75,1.53,1.25,1.91,1.68,1.24,5.2-.72,5.01,1.56-.29,2.67.68,5.5-.19,8.48-2.22.24-4.51.11-6.81-.01-.58-1.88-.12-3.6-.42-5.48l-5.16-.39-.24-4.67c.86-.83,2.25-.99,3.07-2.15.4.07.48.57.55.74.13.35.76.38,1.1.29Z"/>
          <path class="cls-87" d="M72.22,105.06l-.33,5.49c-.03.57,1.44.58,1.92.47-.25,2.18-.1,4.39-.05,6.71.44.18.83.33.66.63-.33.1-.96.06-1.1-.29-.07-.17-.15-.68-.55-.74-.82,1.16-2.21,1.33-3.07,2.15l-2.84-1.03.59-13.06c.92-1.48,3.59-.03,4.76-.35Z"/>
          <path class="cls-25" d="M82.53,121.57c.19-2.28-3.33-.32-5.01-1.56-.5-.37-.19-1.95-1.25-1.91-.56.03-1.25.1-1.85.27.17-.3-.22-.45-.66-.63-.05-2.32-.2-4.53.05-6.71,2.21-.52,6.73.23,9.05-.62.02,3.79.06,7.52-.34,11.17Z"/>
          <path class="cls-152" d="M78.15,104.59c1.51.22,3.12.43,4.68.48l.03,5.33c-2.32.85-6.85.11-9.05.62-.49.11-1.96.1-1.92-.47l.33-5.49c1.71-.46,4.06-.74,5.93-.47Z"/>
          <g>
            <path class="cls-71" d="M78.17,98.24c.13.51-.5.53-.6.78-.23.55.56.81.56,1.22l.03,4.35c-1.87-.27-4.22.01-5.93.47-1.17.31-3.85-1.13-4.76.35l-.59,13.06,2.84,1.03.24,4.67,5.16.39c.3,1.88-.16,3.6.42,5.48,2.29.13,4.59.26,6.81.01.87-2.98-.1-5.8.19-8.48.4-3.65.37-7.38.34-11.17l-.03-5.33c1.82.06,3.81-.69,5.95.19.26,2.65-.27,5.58.57,7.88-1.48,3.4-.06,31.18-.64,32.89-1.92-.3-3.93.27-5.9-.34l-.19-10.35-7.04-.12c-.33-1.64-.17-3.18-.19-4.97-2.04-.35-3.78-.03-5.79-.14-.68-2.12.31-4.2-.76-6.01-1.75.22-3.02.35-3.01-.82-.55-2.18-.75-3.86-3.08-3.78-.18-.12-.66.03-.75-.15-.48-.91-.9-15,.93-17.07.57-1,2.63-.36,3.28-1.18s.28-2.07.67-2.81c3.75-.15,7.51-.04,11.27-.06Z"/>
            <path class="cls-46" d="M65.84,123.29c-1.15.59-1.88-.25-2.59-.98-.83-.85-1.16-1.75-.49-2.8,2.33-.08,2.53,1.6,3.08,3.78Z"/>
            <path class="cls-159" d="M77.04,104.06c-2.48-.07-4.61-.01-6.92.22l-.12-4.59c2.39-.48,4.55-.46,7.04-.39v4.76Z"/>
          </g>
          <path class="cls-17" d="M180.66,88.7c-.17.37-.25,1.48.29,1.62.56,7.4.23,15.15.16,22.64-.36.03-.68.14-1.03.21-1.76.34-3.83-.64-5.6,1.01l-18.28-.16c-.95,0-1.63-1.11-1.15-1.61l14.07-.66.81-3.89c1.24-.71,1.7-1.31,1.68-2.75l-.21-14.93c-2.23.57-9.61-1.13-8.31.61-1.61-1.87-5.92-1.15-8.5-1.03-.03-.36-.09-1.15.27-1.09.59.11,1.14-.19,1.79-.19l24.01.22Z"/>
          <path class="cls-112" d="M174.86,146.53c.29,2.09-.18,4.18-.08,6.28-4.31.4-8.68.59-13.28.74-1.07.03-2.43-.4-2.43.68v2.32c-2.32.59-5.37.25-7.69.08.04-1-.37-3.95.95-4.16,2.29-.36,4.01-.92,5.93-1.59,2.64-.93,5.71.5,8.07-.67.74-.81,1.65-2.03,2.89-2.5.77-.29-1.04-1.49,5.64-1.18Z"/>
          <path class="cls-156" d="M193.84,119.38c-1.94,0-3.99.3-6.09-.14-.03-2.64.27-4.7-.35-6.64-.18-.57.12-1.26.53-1.57,1.84.1,3.68-.52,5.84.1.25,2.97.15,5.63.07,8.25Z"/>
          <path class="cls-68" d="M180.69,140.71c.21,1.26.74,3.84-.36,5.01-1.26,1.02-3.53.3-4.9.42l.45-5.29c1.67-.46,3.3-.15,4.81-.13Z"/>
          <path class="cls-66" d="M146.53,170.88c-.46,1.72-.5,3.6-.43,5.39-.88.4-2.27-.16-3.12.58-1.26,1.1-.73,3.11-1.63,4.23-.73-.34-1.1.1-1.51.76l-2.14,3.46c-1.38.06-3.13.33-4.34-.4.24-1.22-.58-3.35-2.02-3.66-1.9-.4-3.37.29-5.25-.39.32-1.8-.26-3.32-.25-4.73l.05-5.14c5.04-.7,15.21-1.22,20.65-.11Z"/>
          <path class="cls-85" d="M149.81,175.95c-.04.61.52.05,1.22.35l-.18,17.41c-.58.18-1.12-.04-1.04.48l-3.23-.05c-1.54-1.38-.36-3.06-1.51-3.82-.42-.27-1.02-.13-1.61-.2-.54-.06-1.09.04-1.42-.47-.22-.34-.21-.73-.25-1.1-.13-1.35-.21-2.91-1.43-3.67.64-1.33.04-2.61,1-3.8,1.44.66,3.17.45,4.77.13.28-1.96.03-3.42-.02-4.94,1.18-.53,2.43-.12,3.71-.32Z"/>
          <path class="cls-164" d="M158.22,181.07c0,1.3.49,3.04-.3,4.41-.24.42-1.53-.05-1.75.54-.79,2.04-.04,5.6-.52,8.2-1.53-.09-2.74-.25-4.38.05,0,.57.39,1.33-.39,1.15,0-.18-.13-.54-.14-.8-.02-.3-.61-.45-.92-.45-.08-.52.46-.29,1.04-.48l.18-17.41c-.7-.29-1.27.26-1.22-.35,1.89-.12-.03-5.09,2.52-4.74.75.1,2.55.09,2.85.73.25,3.83-.21,7.32.65,10.98,1.38-.69,1.32-2.07,2.4-1.84Z"/>
          <path class="cls-99" d="M125.83,176.13c-.01,1.41.57,2.93.25,4.73,1.88.68,3.35-.01,5.25.39,1.45.3,2.26,2.43,2.02,3.66-.54.31-1.33.35-1.64.73-.41.48-.53,1.58-.43,2.31.17,1.23-.62,2.17-1.63,2.1-1.99-.15-3.06,1.64-3.14,3.98-1.44.62-2.93.03-4.27.31.24-.49-.32-.55-.94-.85l-.12-17.2c1.52-.27,3.12-.29,4.65-.14Z"/>
          <path class="cls-55" d="M121.18,176.27c-1.45,3.7-.03,7.94-.69,12.21l-4.03.99c-.01-1.33-.3-2.56-1.2-3.55,1.13-.63.22-2.06.25-3.27l.25-11.76c1.72.3,3.62-.35,5.48.28.36,1.9.53,3.6-.06,5.1Z"/>
          <path class="cls-127" d="M147.18,112c-1.7,4.4-.01,5.95-1.54,7.48-2.72.69-6.22.1-9.22.11-.81-.91-.96-2.81-.79-3.81,3.31-.48,4.67,1.21,6.77-.8.65-.62.85-4.17-.25-5.13s-5.81-.72-6.57.98c-.27-1.21-1.77-1.7-3.14-1.36-.41.85.4,2.51-.94,2.51l.3-15.75c4.76-.25,9.26-.18,14.08.07l.12,14.69c0,.9.71.9,1.18,1.02Z"/>
          <path class="cls-46" d="M155.05,112.41l-2.71-2.95c-1.71-1.87-.35-5.38-.53-7.88-.3-.38-.6-.63-.13-.73.31-.07.57.02.78.07.38,1.06-.16,3.6,1.27,4.29,2.71,1.31,7.71.78,10.95-1.17.11-5.68,1.37-9.79-1.61-13.26-1.3-1.75,6.08-.04,8.31-.61l.21,14.93c.02,1.44-.44,2.04-1.68,2.75l-.81,3.89-14.07.66Z"/>
          <path class="cls-83" d="M135.58,110.83c-.62,1.39.31,3.49.05,4.95-.17,1-.02,2.89.79,3.81,3,0,6.5.58,9.22-.11,1.52-1.54-.16-3.08,1.54-7.48,1.5.36,1.9,1.65,2.63,2.73-.4.15-.73-.25-1.48-.47l-.35,10.7c-7.57,1.48,1.92,2.9-11.96,3-1.39,0-3.96.48-4.61-.63l-.5-14.66c.32.18.66-.28.59-.7,1.35,0,.54-1.65.94-2.51,1.36-.33,2.87.16,3.14,1.36Z"/>
          <path class="cls-115" d="M125.44,82.67c-8.23-.54-16.61-.66-24.9-.16.15-2.15-.11-4.3.38-7l24.58-.06c.57,2.78.01,5.02-.06,7.23Z"/>
          <path class="cls-115" d="M174.65,82.55c-7.74-.28-15.53-.35-23.26.11.23-2.24-1.12-4.74.09-7.23l22.88.14c.58,2.54.43,4.77.29,6.97Z"/>
          <g>
            <path class="cls-161" d="M149.81,114.72c1.06,1.58,2.68,2.62,3.04,5.04l27.75-.29c1.3,6.64.88,14.48.1,21.23-1.51-.02-3.14-.33-4.81.13l-.45,5.29c-.24.02-.53.16-.57.4-6.68-.31-4.87.89-5.64,1.18-1.24.47-2.15,1.69-2.89,2.5-2.37,1.17-5.43-.26-8.07.67-1.92.67-3.63,1.23-5.93,1.59-1.32.21-.9,3.16-.95,4.16-.04.14-.08.3-.1.45l-25.63-.45c-.79-1.49-.13-3.29-.56-5.19l-14.62-.74c-.63-.03-.76-1.57-2.33-1.47-.58.04-.44-2.08-1.17-1.99-.81.1-1.55.11-2.04-.12-.34-.15-.22-.97-.62-1.33-1.14-.65-2.42.01-3.67-.51l-.29-4.54-5.46-.19c.64-7.17-.92-14.38.7-21.1.77.29,1.65.45,2.74.44l27.11-.27.53-6.51,4.95-.44.5,14.66c.65,1.11,3.21.64,4.61.63,13.88-.1,4.39-1.52,11.96-3l.35-10.7c.74.22,1.08.62,1.48.47Z"/>
            <path class="cls-110" d="M155.01,124.17c-1.25,1.86-.55,4.23-.45,6.37-1.05-.09-3.51-.08-3.95.91s.15,2.32-.58,2.78c-1.99,1.26-16.73.8-19.61.51-2.35-.24-4.26-1.65-4.78-3.85-1.67-.51-3.15.08-4.4-.86l.53-6.03c1.39-.05,3.25-.59,3.32,1.25.03.78-.09,1.53.32,1.91.65.6,2.91-.08,3.19,1.03l.41,1.66h18.89c.76-.64.4-2.05,1.24-2.19,1.01-.17,1.89.06,2.28-.45.49-.63-.1-1.67.2-2.38.53-1.28,2.35-.66,3.39-.64Z"/>
            <path class="cls-126" d="M121.24,130.03l-5.37,1.1c-.98,8.62-.13,2.74-2.65,7.52-.12.68-2.29.81-2.83.43-.71-7.98.2-6.76,1.21-10.69.17-.68,2.15-.4,1.56-2.14-.19-.57.27-1.35.6-1.64.38-.33.91-.37,1.55-.39l6.46-.23-.53,6.03Z"/>
            <path class="cls-162" d="M154.56,130.55c-.09-2.14-.8-4.51.45-6.37l6.61.12c-.79,2.3,1.44,3.35,1.77,4.63.23.9,1.84,11.94-2.08,10.02-.46-.23-.9-.97-.97-1.91l-.44-6c-1.87-.35-3.65-.33-5.34-.48Z"/>
          </g>
          <path class="cls-129" d="M141.06,203.34c.44,1.99,1.63,4.25,1.4,6.4-.4,3.75-.42,7.52-.58,11.25-.11,2.49-1.63,5.36-.89,8.51l-3.23.71c.11,1.66-.78,3.04-.75,4.42-2.14-.6-.72-5.44-4.79-4.79-.11-2.98-.23-5.98-.6-8.93-.06-.51-.2-1.1-.02-1.59.97-1.68.69-3.83,1.41-5.88,1.09-3.13,2.28-6,2.64-9.31,2.14-.2,3.82-.12,5.42-.8Z"/>
          <path class="cls-91" d="M146.58,194.13l3.23.05c.31,0,.9.15.92.45.02.25.15.61.14.8l-.3,11.74-4.34.64-.36,12.8c-1.35.75-2.72.37-4,.38.17-3.73.18-7.5.58-11.25,3.92.65,3.4-9.64,3.62-12.18.28-.86-.18-.97-.6-1.06-.29-.06-1.27-.61-1.39-.9-.35-.82,1.44-1.5,2.5-1.48Z"/>
          <path class="cls-92" d="M137.69,185.3c.86-.04,2.18.43,2.66-.42,1.23.76,1.3,2.32,1.43,3.67-2.83.71-5.73.67-8.87.57-.57,1.43-1.36,4.13-.09,5.14,1.36,1.08,7.87.42,7.59.54,1.28-.53-.02-2.89,1.14-4.12.56-.59,1.39.08,1.91-.58.6.07,1.19-.08,1.61.2,1.16.75-.03,2.44,1.51,3.82-1.06-.02-2.84.66-2.5,1.48.12.28,1.11.83,1.39.9.42.09.89.2.6,1.06l-2.98-1.51-2.04,7.28c-1.6.68-3.28.6-5.42.8-.36,3.31-1.55,6.18-2.64,9.31-.71,2.05-.44,4.2-1.41,5.88-1.28-.43-1.68-2.31-1.51-3.63.24-1.77-.28-3.78.08-5.51.84-4.06,3-8.65.28-11.14l-.28-2.7c-.22-2.09-.48-4.21-.5-6.32,1.01.08,1.8-.86,1.63-2.1-.1-.73.02-1.83.43-2.31.32-.37,1.1-.42,1.64-.73,1.2.72,2.95.45,4.34.4Z"/>
          <path class="cls-135" d="M146.1,176.27c.06,1.51.3,2.97.02,4.94-1.61.32-3.33.54-4.77-.13.9-1.11.37-3.13,1.63-4.23.85-.74,2.23-.18,3.12-.58Z"/>
          <path class="cls-163" d="M141.35,181.08c-.96,1.19-.36,2.47-1,3.8-.48.85-1.8.38-2.66.42l2.14-3.46c.41-.67.79-1.1,1.51-.76Z"/>
          <path class="cls-41" d="M141.78,188.55c.04.36.03.76.25,1.1.33.51.89.4,1.42.47-.52.65-1.35-.01-1.91.58-1.16,1.23.14,3.59-1.14,4.12.28-.12-6.24.54-7.59-.54-1.27-1.01-.48-3.72.09-5.14,3.14.1,6.04.13,8.87-.57Z"/>
          <path class="cls-100" d="M129.65,190.03c.03,2.11.28,4.22.5,6.32-1.82-.62-3.35,1.32-4.16,2.78-1.48.12-2.95,0-4.33-.57.01-1.06-.42-2.13-.13-3.17.1-.36.28-.98.71-1.07,1.34-.28,2.83.31,4.27-.31.08-2.34,1.15-4.14,3.14-3.98Z"/>
          <path class="cls-154" d="M122.25,194.33c-.43.09-.61.71-.71,1.07-.97-1.36-2.52-.92-4.25-1.12-1.26-.71-.81-3.51-.82-4.81l4.03-.99c.66-4.27-.76-8.51.69-12.21l.12,17.2c.62.3,1.19.37.94.85Z"/>
          <path class="cls-106" d="M126,199.13c1.33,1.93.51,4.8,1.34,7.29.19.58,1.35.68,1.39,1.74s.45,2.15,1.44,2.02c-.36,1.73.16,3.74-.08,5.51-1.13.7-2.43.11-3.66-.06l-.25-7.85c-1.45-.53-2.75-.01-4.4-.42-.24-3.1-.14-5.98-.11-8.8,1.38.56,2.85.69,4.33.57Z"/>
          <path class="cls-149" d="M130.09,215.7c-.18,1.32.23,3.2,1.51,3.63-.18.49-.04,1.08.02,1.59-1.36,0-3.76.72-4.9-.16-.96-1.57-.23-3.68-.28-5.12,1.22.17,2.53.76,3.66.06Z"/>
          <g>
            <path class="cls-88" d="M125.44,82.67c-.06,1.89.48,4.03.24,6.08l3.82.46c3.98.47,11.5-.24,16.19.17.15,1.01,0,1.78.64,2,.98.34,4.17.26,4.26-.69l.81-8.03c7.73-.46,15.52-.39,23.26-.11l5.93.21c-.25,1.85.95,4.1.08,5.94l-24.01-.22c-.65,0-1.2.29-1.79.19-.36-.07-.31.73-.27,1.09-3.71,1.91-3.93,9.17-2.12,11.17-.21-.05-.47-.14-.78-.07-.47.1-.18.35.13.73.17,2.5-1.19,6.01.53,7.88l2.71,2.95c-.48.51.2,1.6,1.15,1.61l18.28.16c1.77-1.65,3.84-.67,5.6-1.01-.13.53.47.38.88.57.74,1.99-.72,3.91-.37,5.74l-27.75.29c-.35-2.42-1.97-3.46-3.04-5.04-.72-1.08-1.13-2.37-2.63-2.73-.47-.11-1.17-.12-1.18-1.02l-.12-14.69c-4.81-.25-9.32-.32-14.08-.07l-.3,15.75c.07.42-.26.88-.59.7l-4.95.44-.53,6.51-27.11.27c-1.1.01-1.97-.15-2.74-.44.44-1.84-.76-4.19-.49-6.17-2.2.03-3.92.19-5.74-.13-.84-2.3-.31-5.23-.57-7.88-2.13-.89-4.13-.13-5.95-.19-1.56-.05-3.17-.26-4.68-.48l-.03-4.35c0-.42-.8-.68-.56-1.22.11-.25.73-.27.6-.78l10.42-.05.6-6.82c1.12,0,3.49.32,4.4-.45,1.96-1.67,1.65-5.56,1.63-8.09l5.32-.31c8.28-.49,16.67-.38,24.9.16Z"/>
            <g>
              <path class="cls-14" d="M121.28,113.73c-6.83.79-13.68.35-20.17.2,5.78.13-7.48-1.5-5.97-1.07-.2-6.75-.32-13.32.03-20.3,1.59-.29,2.83.07,4.18-.35.25-1.1.05-2.85.93-3.79,7.16-.07,14.22-.39,21.5.23,1.01.09,1.93,2.59,3.28.72.48,2.47.74,4.87.56,7.79-.3,4.94.4,9.92-.22,15.1-1.58-.72-3.07,1.34-4.13,1.46Z"/>
              <path class="cls-46" d="M113,90.69c-1.02,1.67-1.71,13.18.86,14.37,2.74,1.26,6.19-.11,8.95.52-.51.64-1.04,1.21-.91,1.9.27,1.43-2.38.9-2.79,1.75-.44.92.23,2.34-1.17,2.61-2.29.44-9.56-.91-9.37-.81-1.74-.86-.24-3.04-1.38-3.91-.33-.25-1.61.15-1.69-.48-.7-5.36-.13-10.62-.24-16.16,2.89-.19,5.45-.67,7.75.21Z"/>
              <path class="cls-49" d="M122.82,105.58c-2.76-.63-6.22.74-8.95-.52-2.57-1.19-1.88-12.7-.86-14.37,2.49-1.86,6.39-1.33,9.9-.63,2.53.5,1.47,11.31,1.26,13.03-.15,1.22-.76,1.75-1.35,2.49Z"/>
            </g>
          </g>
          <path class="cls-139" d="M135.63,115.78c.25-1.47-.67-3.56-.05-4.95.76-1.7,5.51-1.9,6.57-.98s.9,4.51.25,5.13c-2.1,2.01-3.46.32-6.77.8Z"/>
          <g>
            <path class="cls-70" d="M163.09,90.79c2.98,3.46,1.72,7.58,1.61,13.26-3.25,1.95-8.24,2.48-10.95,1.17-1.43-.69-.89-3.23-1.27-4.29-1.82-1.99-1.59-9.25,2.12-11.17,2.58-.12,6.89-.84,8.5,1.03Z"/>
            <path class="cls-4" d="M163.35,97.1c-.87,1.3-3.89,1.13-4.77.56-1.72-1.1-.95-4.45-.29-5.05.58-.53,3.66-.88,4.49-.25.99.75,1.57,3.23.57,4.73Z"/>
          </g>
          <path class="cls-61" d="M146.08,197.56c-.22,2.54.3,12.83-3.62,12.18.23-2.16-.95-4.41-1.4-6.4l2.04-7.28,2.98,1.51Z"/>
          <path class="cls-61" d="M130.16,196.35l.28,2.7c2.72,2.49.56,7.08-.28,11.14-.99.13-1.4-.98-1.44-2.02s-1.2-1.16-1.39-1.74c-.83-2.49,0-5.36-1.34-7.29.81-1.46,2.35-3.4,4.16-2.78Z"/>
        </g>
      </g>
    </g>
  </g>
</svg>