<?xml version="1.0" encoding="UTF-8"?>
<svg id="_レイヤー_2" data-name="レイヤー 2" xmlns="http://www.w3.org/2000/svg" viewBox="0 0 238.39 500.09">
  <defs>
    <style>
      .cls-1 {
        fill: #e6b5ae;
      }

      .cls-2 {
        fill: #f8f9f7;
      }

      .cls-3 {
        fill: #6b9692;
      }

      .cls-4 {
        fill: #5f526a;
      }

      .cls-5 {
        fill: #fefeff;
      }

      .cls-6 {
        fill: #e6e6ec;
      }

      .cls-7 {
        fill: #bebcd0;
      }

      .cls-8 {
        fill: #aaa7bc;
      }

      .cls-9 {
        fill: #94c3e0;
      }

      .cls-10 {
        fill: #89819b;
      }

      .cls-11 {
        fill: #cacbe0;
      }

      .cls-12 {
        fill: #847c9c;
      }

      .cls-13 {
        fill: #abdbf1;
      }

      .cls-14 {
        fill: #efccc0;
      }

      .cls-15 {
        fill: #866467;
      }

      .cls-16 {
        fill: #edc8bd;
      }

      .cls-17 {
        fill: #d6d9eb;
      }

      .cls-18 {
        fill: #d0eae4;
      }

      .cls-19 {
        fill: #e3e5f2;
      }

      .cls-20 {
        fill: #e1aaa7;
      }

      .cls-21 {
        fill: #cecfdc;
      }

      .cls-22 {
        fill: #617ca1;
      }

      .cls-23 {
        fill: #928aaa;
      }

      .cls-24 {
        fill: #b9bad4;
      }

      .cls-25 {
        fill: #a67d78;
      }

      .cls-26 {
        fill: #e2e2e8;
      }

      .cls-27 {
        fill: #c7e7f4;
      }

      .cls-28 {
        fill: #b8b5d0;
      }

      .cls-29 {
        fill: #faded3;
      }

      .cls-30 {
        fill: #c2bfd2;
      }

      .cls-31 {
        fill: #efc7bc;
      }

      .cls-32 {
        fill: #75b0b6;
      }

      .cls-33 {
        fill: #f0f9fc;
      }

      .cls-34 {
        fill: #faebde;
      }

      .cls-35 {
        fill: #d782a0;
      }

      .cls-36 {
        fill: #f3f4fa;
      }

      .cls-37 {
        fill: #fff;
      }

      .cls-38 {
        fill: #5e536b;
      }

      .cls-39 {
        fill: #6aa7cc;
      }

      .cls-40 {
        fill: #a9dbe6;
      }

      .cls-41 {
        fill: #8d899e;
      }

      .cls-42 {
        fill: #d6c0cd;
      }

      .cls-43 {
        fill: #dee1f0;
      }

      .cls-44 {
        fill: #bab9d2;
      }

      .cls-45 {
        fill: #cda99d;
      }

      .cls-46 {
        fill: #d3d4e8;
      }

      .cls-47 {
        fill: #665b78;
      }

      .cls-48 {
        fill: #dddee7;
      }

      .cls-49 {
        fill: #a7a1bb;
      }

      .cls-50 {
        fill: #faf0e9;
      }

      .cls-51 {
        fill: #a6c7e2;
      }

      .cls-52 {
        fill: #6f6682;
      }

      .cls-53 {
        fill: #fae9da;
      }

      .cls-54 {
        fill: #8f696a;
      }

      .cls-55 {
        fill: #f4d5c7;
      }

      .cls-56 {
        fill: #b6b4c9;
      }

      .cls-57 {
        fill: #fdfbf9;
      }

      .cls-58 {
        fill: #a0d19f;
      }

      .cls-59 {
        fill: #d8eef6;
      }

      .cls-60 {
        fill: #bbb9cd;
      }

      .cls-61 {
        fill: #afaec8;
      }

      .cls-62 {
        fill: #8b889c;
      }

      .cls-63 {
        fill: #806065;
      }

      .cls-64 {
        fill: #6eadd0;
      }

      .cls-65 {
        fill: #e9eaf1;
      }

      .cls-66 {
        fill: #f0ccc1;
      }

      .cls-67 {
        fill: #b6b2c8;
      }

      .cls-68 {
        fill: #a39eb8;
      }

      .cls-69 {
        fill: #dfe1f0;
      }

      .cls-70 {
        fill: #dadced;
      }

      .cls-71 {
        fill: #7a5c62;
      }

      .cls-72 {
        fill: #795f6e;
      }

      .cls-73 {
        fill: #eff6f8;
      }

      .cls-74 {
        fill: #7d6066;
      }

      .cls-75 {
        fill: #d3d5e8;
      }

      .cls-76 {
        fill: #a1d090;
      }

      .cls-77 {
        fill: #e9bcb3;
      }

      .cls-78 {
        fill: #726680;
      }

      .cls-79 {
        fill: #dcdeee;
      }

      .cls-80 {
        fill: #dee0f0;
      }

      .cls-81 {
        fill: #d9dbec;
      }

      .cls-82 {
        fill: #c7e0ec;
      }

      .cls-83 {
        fill: #b2b1cd;
      }

      .cls-84 {
        fill: #ac827c;
      }

      .cls-85 {
        fill: #9acebe;
      }

      .cls-86 {
        fill: #c3e5ee;
      }

      .cls-87 {
        fill: #978cad;
      }

      .cls-88 {
        fill: #69a1c6;
      }

      .cls-89 {
        fill: #aea1bd;
      }

      .cls-90 {
        fill: #f3a5a6;
      }

      .cls-91 {
        fill: #99b1d1;
      }

      .cls-92 {
        fill: #dfeed4;
      }

      .cls-93 {
        fill: #f2cbbe;
      }

      .cls-94 {
        fill: #f7dccd;
      }

      .cls-95 {
        fill: #dbdce5;
      }

      .cls-96 {
        fill: #997270;
      }

      .cls-97 {
        fill: #6e6681;
      }

      .cls-98 {
        fill: #956f6b;
      }

      .cls-99 {
        fill: #d0d2e6;
      }

      .cls-100 {
        fill: #f3cfc1;
      }

      .cls-101 {
        fill: #fbeada;
      }

      .cls-102 {
        fill: #a2cfe8;
      }

      .cls-103 {
        fill: #9cb3d3;
      }

      .cls-104 {
        fill: #b08174;
      }

      .cls-105 {
        fill: #bcdeef;
      }

      .cls-106 {
        fill: #a4d5ea;
      }

      .cls-107 {
        fill: #9796ae;
      }

      .cls-108 {
        fill: #ca999a;
      }

      .cls-109 {
        fill: #736d87;
      }

      .cls-110 {
        fill: #c8c7d7;
      }

      .cls-111 {
        fill: #c7c6d7;
      }

      .cls-112 {
        fill: #997370;
      }

      .cls-113 {
        fill: #dbddef;
      }

      .cls-114 {
        fill: #fdf7f6;
      }

      .cls-115 {
        fill: #c6e5f1;
      }

      .cls-116 {
        fill: #cacadb;
      }

      .cls-117 {
        fill: #edc6bc;
      }

      .cls-118 {
        fill: #f7e3d5;
      }

      .cls-119 {
        fill: #f4d4c6;
      }

      .cls-120 {
        fill: #7d5e65;
      }

      .cls-121 {
        fill: #d6d8e9;
      }

      .cls-122 {
        fill: #9f8da2;
      }

      .cls-123 {
        fill: #fbeadb;
      }

      .cls-124 {
        fill: #f2d0c4;
      }

      .cls-125 {
        fill: #f8f9fc;
      }

      .cls-126 {
        fill: #fcebdd;
      }

      .cls-127 {
        fill: #75c28d;
      }

      .cls-128 {
        fill: #f9e3d5;
      }

      .cls-129 {
        fill: #e4b1aa;
      }

      .cls-130 {
        fill: #e6b6ae;
      }

      .cls-131 {
        fill: #f5dd92;
      }

      .cls-132 {
        fill: #d4d4e0;
      }

      .cls-133 {
        fill: #e9f3e0;
      }

      .cls-134 {
        fill: #ecf7fb;
      }

      .cls-135 {
        fill: #feffff;
      }

      .cls-136 {
        fill: #faeadb;
      }

      .cls-137 {
        fill: #eff2f7;
      }

      .cls-138 {
        fill: #faf7f3;
      }

      .cls-139 {
        fill: #807b91;
      }

      .cls-140 {
        fill: #7e7b91;
      }

      .cls-141 {
        fill: #a3cce7;
      }

      .cls-142 {
        fill: #f5f6fa;
      }

      .cls-143 {
        fill: #cccde2;
      }

      .cls-144 {
        fill: #cfeaf4;
      }

      .cls-145 {
        fill: #e4f3f8;
      }

      .cls-146 {
        fill: #eab7af;
      }

      .cls-147 {
        fill: #6eada8;
      }

      .cls-148 {
        fill: #a9a4bc;
      }

      .cls-149 {
        fill: #e9eaf6;
      }

      .cls-150 {
        fill: #cbcbda;
      }

      .cls-151 {
        fill: #f8dbcb;
      }

      .cls-152 {
        fill: #a37a72;
      }

      .cls-153 {
        fill: #f4fafc;
      }

      .cls-154 {
        fill: #f4d2c5;
      }

      .cls-155 {
        fill: #f3f8f7;
      }

      .cls-156 {
        fill: #aaa4bd;
      }

      .cls-157 {
        fill: #f8eaae;
      }

      .cls-158 {
        fill: #e4a59f;
      }

      .cls-159 {
        fill: #a4b8d5;
      }

      .cls-160 {
        fill: #8f8aa6;
      }
    </style>
  </defs>
  <g id="_レイヤー_1-2" data-name="レイヤー 1">
    <g id="_生成オブジェクト" data-name="生成オブジェクト">
      <path class="cls-116" d="M136.74,488.62c0,1.1-.02,2.22.35,3.53l52.84-.03c.3-1.12.47-1.87.46-2.58l31.28,1.65c5.52.29,10.61.42,16.29.49.27.94.94,3.49-.29,4.19-10.05,5.73-163.59,4.1-186.34,3.72-15.77-.26-30.92-.73-46.5-2-1.38-.94-3.26-.51-4.37-1.62-.87-.87-.33-2.85-.05-4.2l41.8-2.2c.16.58-.17,1.9.42,2.49l53.61.07c.46-1.09.8-2.41.79-3.52h39.7Z"/>
      <g>
        <path class="cls-13" d="M21.77,259.57c-2.39,2.01-5.99,2.27-7.47-.55-1.25-2.37.2-5.19,2.26-6.47,1.56.18,3.24-.45,4.32.47,1.87,1.61,1.92,4.42.89,6.55Z"/>
        <path class="cls-145" d="M20.19,257.87c-.56,1.06-3.05.78-4.29.69-1.4-.1-.02-4.14.59-4.3,1.39-.13,2.87-.58,3.45.52.36.69.73,2.19.26,3.08Z"/>
      </g>
      <g>
        <g>
          <path class="cls-5" d="M110.8,327.84c-2.91.09-5.71-.02-8.94.26-.05,1.69-.7,3.43-.49,4.87l-37.13.16c-1.63,0-3.27-.55-5.46-.15-.27,3.93-.21,7.81.01,11.6.04.65,0,1.4.18,1.96-.14.67-.86,2.76.07,3.23h32.52c2.59,0,4.94.03,7.23.3v5.89s5.61.48,5.61.48v50.49s-.15,21.39-.15,21.39c1.7.4,3.23.11,4.93-.29l.19-16.5,14.7.21.1,16.41c1.31.69,2.79.51,4.58.16l-.28-39.42-.25-32.45c2.76-.31,5.84.42,8.78-.27,1.92-.46,3.51-1.13,5.76-.95s4.66-.64,6.97.19l.17,73.14-13.41.09c-1.8.01-3.52-.3-5.63.11.18,1.63-.5,3.86.53,5.16.99,1.02,3.33.21,4.59.37,1.34,10.74.09,21.93.81,33,.05.72.78.81,1.19,1.12l-1.11,5.73-.13,14.48h-39.7s-.17-19.11-.17-19.11c-.01-1.38,1.07-1.25,1.37-2.08.74-2.04-.57-4.64.26-6.49.47-1.04.38-1.97.25-2.89,2.19-4.34,2.17-16.31,2.08-22.12-.05-3.42,2.5,1.63,2.05-7.2l-43.34-.18c.13-.34.13-1.43-.23-1.48-.34-.04-.76-.23-1.34-.44-2.62-.97-10,.62-11.75-3.1-1.56-3.3-1.12-14.99-.67-19.18.72-6.65-.18-16.71.4-23.65.52-.12,1.26-.29,1.31-.67l.35-2.53c.14-1,1.95-.46,2.81-.89l.81-4.77c.19,0,.39-.09.58-.02,1.03.36,1.88-.2,2.61-.72.96-.69,1.27-2.11,1.03-3.3-.31-1.55,1.1-2.05,1.27-2.84.73-3.51-.02-7.17.25-10.61.13-2.33.2-4.75-.26-7.19-3.1-1.23-1.4-1.45-2.3-5.25-1-.2-2.56.2-2.71-.49l-.63-2.95c-.2-.95-2.48-.08-3.57-.56-.49-1.4-.06-2.76-.36-4.36-1.35-.11-2.98.33-3.72-.82-.64-.99-.03-2.37.02-3.3,1.22.47,2.87-.38,4.13-.05,1.63.05,3.64-.22,5.26-.44.17-.91.04-3.09,1.58-3.62,1.18-.41,2.56.07,3.57-.02-.04,1.78.23,4,.49,6,.16,1.09,3.78,1.27,3.98.43-.41-1.36.04-2.49.03-3.78l-.41-45.46c-.03-2.85.36-5.7-.08-8.72-.98-.1-2.4-.3-3.15.22-.45,2.57-.25,5.33-.27,8.09-1.49.67-2.87.16-4.58.6-.75,14.81-4.05.64-4.65,15.95-1.9.42-3.89-.1-5.79-.72-.25-1.6-.05-2.94-.09-4.61-1.8-.34-3.43-.61-5.05-.54-.17-.5-.53-.94-.53-1.49.46-.39,1.49-.56,2.29-.86.08-4.21.22-8.84-.33-13.14-.18-1.42-4.22-.34-4.65-1.55-.19-.52-.76-1.35,0-2.19.66-.73,2.94-.59,3.12-1.96.2-1.51.22-3.04.17-4.55.49.28.64-.06.47-.5,1.34.17,2.74-.07,4.29-.26.66-2.36-.23-7.9.81-8.83.24-.21,1.35.12,1.51-.28.66-1.68.64-3.79.09-5.28.07-.31.17-.64.48-.77l5.65-.09c.69-1.85.47-3.58.53-5.59l5.69-.29c.32-1.62.53-4.33.07-5.61-.12-.33.48-1.18.83-1,1.78,1.1,11.72-.66,15.32.27.77.34-.44,1.69-.58,2.21-.51,1.91-3.13,12.05-2.51,13.09.81,1.36,4.03-.05,4.74,1.2.6,1.07-.04,2.51.3,3.93l7.13.53c.87,2.12-1.97,3.08-2.5,4.66-1.33,3.97,1.65,7.31,4.36,9.64,1.51,1.3,2.3,2.89,5.01,2.44l.78,5.63,5.18.44c.2,1.97.09,3.86.51,5.72,1.21.57,2.98-.07,4.08.6,1.46,1.34,2.49,3.5,2.55,5.46,1.8.28,3.79-.48,4.74.64s.14,3.06.77,4.42c1.5.36,3.02.16,4.55.67,1.24.41.39,2.07.53,3.24.11.93-1.67,1.27-2.27,2.18-.46,7.03-.31,13.86-.34,20.9,0,.69-.16,1.12-.44,1.46Z"/>
          <path class="cls-5" d="M182,245.79c.18,3.9-.84,4.29,1.68,6.77,2.48,5.7,1.89-.96,5.09,4.29.89,1.47,4.32,1.26,5.58.32.16.38.55.6.58,1.03-1.28-1.15-.67,7.35-.66,8.3,1.77.17,3.32.42,4.71,0,.38-.12.68.07.59.48-.48.03-.55.47-.54,1.05l.08,5.59c1.17.46,2.07.28,3.33.38l-.04,8.29c1.22.48,2.25.29,3.9.52l1.27,15.8.67,35.91-14.31.23-.09-14.51c-1.44-.72-3.02-.46-4.65-.63-.55-4.12.39-8.15-.62-12.37-.34-1.39-1.47-2.88-.24-4.35,1.14-.31,2.66.16,4.1-.52,1.7-.8,1.21-10.46,1.15-13.45l-6.42-.32-1.28-5.82-7-.36-.29-8.08c-1.1-.82-2.31-.06-3.37-.13-1.42-.1-2.82-.55-4.53.11l-.16,7.76-5.92.53c-.37,1.53-.18,2.99-.77,4.26l-5.9.64-.33,30.88c-1.54.46-3.26-.49-4.43.39-1.8,1.36.64,4.78-3.46,5.37-.42,3.07-.22,6.01-.21,8.89-5.22-.25-10.47-.27-15.67,0-.49.03-.97-.31-1.43-.05-1.21-1.28-.27-3-.79-4.93l-15.85-.17c-.42-7.16-.07-14.53.28-21.82.87-.71,2.34-.51,3.38-.63,1.05-1.25.13-3.41,1.27-4.63.93-1,2.87-.44,3.83-1.33.55-1.42-.05-3.23.8-4.44l3.57-1.05c1.46-.43,3.68-5.13,3.92-5.17l3.72-.66c.55-1.65.29-3.37.43-5.24,1.59-.62,3.27-.19,5-.63l.95-5.23c1.9.46,2.45-.87,3.4-1.74,1.2-1.1,3.34-1.38,4.26-3.04,1.81-3.26,2.75-.92,2.01-7.42-.91-1.65-2.77-2.73-3.1-4.81,2.71-.55,5.24-.14,7.6-.96.82-.67.45-2.79.42-4.04,1.58-.75,3.4,0,4.75-.89.35-2.97-1.06-5.67-.38-8.23,5.01-.33,10.05.35,15.02-.34,1.65-.23,3.51-.25,5.08.21Z"/>
          <path class="cls-99" d="M158.14,232.8c.34,1.98.58,4.47,2.14,5.83-.98,0,.92,7.88,1.61,7.29-.68,2.55.73,5.26.38,8.23-1.35.89-3.17.13-4.75.89.02,1.25.39,3.37-.42,4.04-2.36.82-4.89.42-7.6.96.33,2.08,2.18,3.17,3.1,4.81.73,6.5-.2,4.16-2.01,7.42-.92,1.66-3.05,1.94-4.26,3.04-.95.87-1.5,2.19-3.4,1.74l-.95,5.23c-1.74.44-3.41,0-5,.63-.14,1.88.12,3.59-.43,5.24l-3.72.66c-.24.04-2.46,4.74-3.92,5.17l-3.57,1.05c-.84,1.21-.25,3.02-.8,4.44-.96.89-2.9.34-3.83,1.33-1.14,1.22-.22,3.38-1.27,4.63-1.03.13-2.5-.07-3.38.63-.35,7.29-.69,14.66-.28,21.82-1.63-.02-3.36-.1-4.99-.05.28-.34.44-.77.44-1.46.03-7.04-.12-13.87.34-20.9.6-.91,2.38-1.25,2.27-2.18-.14-1.17.71-2.82-.53-3.24-1.52-.51-3.05-.31-4.55-.67-.63-1.36.14-3.34-.77-4.42s-2.94-.36-4.74-.64c-.05-1.96-1.08-4.12-2.55-5.46-1.09-.67-2.87-.03-4.08-.6-.42-1.86-.31-3.75-.51-5.72l-5.18-.44-.78-5.63c-2.71.45-3.5-1.14-5.01-2.44-2.72-2.33-5.69-5.67-4.36-9.64.53-1.59,3.38-2.54,2.5-4.66l-7.13-.53c-.33-1.42.31-2.86-.3-3.93-.7-1.24-3.92.16-4.74-1.2-.62-1.04,2-11.18,2.51-13.09.14-.52,1.36-1.87.58-2.21-3.6-.92-13.54.83-15.32-.27-.3-1.18.6-2.54,1.24-3.25,1.17-1.28,6.41-1.28,8.23-1.58,2.7-.45,5.36-1.08,8.04-.17.27-.49.39-1.17.78-1.05s.58.7.82.14c.71-1.71.83-2.8.9-4.39.11-2.6,4.05-1.14,5.82-2.11l-1.36,5.26c-.72.31-1.39.63-2.46.87-1.91,6.16-3.71,12.2-4.74,18.77-.35,2.25,12.24,4.19,13.83,4.56-.07,1.54-.14,2.77-.58,4.31-1.69,1.14-5.26,3.48-4.82,5.93,1.21,3.09,4.73,4.81,6.3,7.52,1.07,1.84,3.05,2.42,4.49,3.66,1.66,1.43,2.2,3.63,3.73,5.18l4,.55c.46,1.88.13,3.68.77,5.44,1.44.56,2.93.14,4.08.82.94.55.32,2.48.71,3.44,1.69,1.7,4.64,1.6,6.54,3.13l.71,3.98c2.19-.35,2.83-2.33,3.68-3.98.79-1.53,2.87-2.07,3.99-3.29.86-.94.55-2.72,1.71-3.49.96-.64,3.1.08,3.73-1.19.73-1.47.34-3.22.98-4.79l4.33-.88c-.04-1.95,1.71-3.12,2.61-4.66l1.34-2.31c1.78-.67,3.3-1.14,4.61-2.6l5.08-5.67c2.58-2.88-3.26-5.13-4.34-6.32s-.31-3.47-.4-4.93l7.76-1.46c.72-.13,1.07-.84,1.53-.99,1.54-.51,3.3-.29,4.95-1.12.05-2.31-4.29-19.44-4.22-19.41-.47-.2-1.06-.28-1.83-.34-2.57-.19,0-5.1-3.3-5.9.36-.44.73-1.08,1.39-1.03.33,1.66,2.43,1.47,3.9,1.06.78.76,1.2.66,1.61.78.06.02,1.18,6.95,3.11,5.81Z"/>
          <path class="cls-81" d="M212.99,288.62c-.18.11-1.01.12-1.01.56l.03,10.79c.9.68,1.81.52,2.79,1.07.15,4.33.06,8.3.29,12.52l1.04,19.61c.04.68-.25,1.14-.48,1.52l-7.42-.18-.67-35.91-1.27-15.8c-1.65-.23-2.68-.04-3.9-.52l.04-8.29c-1.26-.1-2.15.08-3.33-.38l-.08-5.59c0-.58.06-1.02.54-1.05,1.11-.24,2.82.79,3.28,2.06.5,1.41-.25,3.15.65,4.27.71.88,4.07.14,3.62,8.26-.14,2.43,4.79-.07,4.72,5.02-.01.84.59,1.77,1.16,2.04Z"/>
          <path class="cls-143" d="M212.99,288.62c4.63-.62,1.56,7.5,3.36,11.78.89,1.22,2.89,1.48,2.71,3.84-.34,4.43.56,7.78.8,12.86l.24,4.8c.02.34.79,11.65,1.13,10.98l-.85,1.7c-.45.9-.88.92-1.3,1.13-.71-.19-1.36.13-2.06.06-.14-.58-.74-1.07-1.36-1.08.23-.38.52-.85.48-1.52l-1.04-19.61c-.22-4.22-.14-8.19-.29-12.52-.98-.55-1.9-.39-2.79-1.07l-.03-10.79c0-.44.83-.45,1.01-.56Z"/>
          <path class="cls-99" d="M188.21,250.92h-4.98c-.37-1.79-.23-3.72-1.23-5.13-1.57-.46-3.43-.44-5.08-.21.39-2.08.18-4.25.1-6.58l-16.74-.37c-1.56-1.35-1.8-3.85-2.14-5.83,1.13-.67,2.19,0,3.48.21l3.33.57c.76.13,11.02.76,11.69,1.79.48.74.48,3.98,2.81,4.25,1.54.17,3.01.99,3.42,2.61.2.82-.3,2.69.59,2.96,1.59.48,3.39.4,3.99,1.56.75,1.45,1.48,2.82.75,4.17Z"/>
          <path class="cls-19" d="M96.09,224.03c-.51.53-.56,1.24-.58,2.17l-.32,14.59c-.43.3-.71.54-1.42.44-.42-.06-.56-.53-1.05-1.05l-6.59-7.04c-.82-.88-1.79-1.45-2.75-1.77l1.36-5.26c.04-.17.08-.34.11-.5,2.12.55,3.91-.59,5.73-1.81,1.65-.07,4-.12,5.52.23Z"/>
          <path class="cls-80" d="M46.14,251.12c-.52-1.35-.47-2.7.37-4,.75-1.17,2.21-1.08,3.72-1.28,1.35-.18,1.89-1.42,1.69-2.56-.61-3.39,4.44-3.73,6.17-3.73.45,1.28.24,3.99-.07,5.61l-5.69.29c-.06,2.02.16,3.74-.53,5.59l-5.65.09Z"/>
          <path class="cls-113" d="M188.21,250.92c1.29,0,2.99.7,4.2,1.45,1.56.96,1.35,3.37,1.94,4.79-1.26.94-4.69,1.15-5.58-.32-3.2-5.25-2.61,1.41-5.09-4.29-2.52-2.48-1.5-2.87-1.68-6.77,1,1.41.86,3.35,1.23,5.14h4.98Z"/>
          <path class="cls-70" d="M38.96,266.53c-.19-1.22.28-2.38.61-3.72.41-1.67-.63-4.25,1.3-5.09.91-.39,2.04-.44,2.47-.94.7-.83.62-5.24,2.32-4.89.55,1.48.57,3.59-.09,5.28-.16.4-1.27.06-1.51.28-1.03.93-.14,6.47-.81,8.83-1.55.2-2.95.44-4.29.26Z"/>
          <path class="cls-46" d="M198.98,266.49c-1.38.43-2.94.18-4.71,0-.01-.95-.62-9.45.66-8.3,1.5-.04,3.76.73,3.83,2.58l.21,5.71Z"/>
          <path class="cls-17" d="M38.49,267.03c.05,1.52.03,3.05-.17,4.55-1.49.31-2.9.81-4.26,1.1-.18-1.82-.72-4.98,1.47-5.26.81-.1,1.06-.54,1.56-.71s1.01.16,1.4.32Z"/>
          <path class="cls-5" d="M219.07,335.71l-2.05,2.61c-.14-.85-.06-1.71,0-2.56.7.07,1.35-.25,2.06-.06Z"/>
          <path class="cls-5" d="M185.59,426.61l-3.2-.48c-.17-.19-.18-.38.02-.55,1.21.07,2.83-.45,3.18,1.03Z"/>
          <path class="cls-44" d="M101.41,349.73c.07.76.48,2.48,1.52,2.45,2.09-.07,4.11.22,5.65.43,0,1.5-.13,3.2.4,4.58-.81,1.1-.2,2.56-.32,3.8-.49,4.97-.11,9.99-.07,14.97l.32,34.54c1.33-3.71.63-6.92,2.26-10.3.68-1.4-.3-4.02.81-5.44.85-1.09,1.51-2.44,1.72-3.73,1.28-.66,3.3-.42,4.81-.34,1.12.06,1.34,1.94,1.53,2.87s1.41,1.13,1.43,1.99c.07,2.87.68,5.41,2.49,7.32.29-9.54.49-18.69.17-27.87-.16-4.59.92-9.34.05-13.98-.44-2.3,1.41-5.57.18-8.02-.06-.22-.5-.38-.29-.67,1.22-.04,2.43-.04,3.64.11-.31,1.32-.13,2.97.48,4.01l.25,32.45.28,39.42c-1.78.34-3.27.53-4.58-.16l-.1-16.41-14.7-.21-.19,16.5c-1.7.4-3.23.69-4.93.29l.15-21.39v-50.49s-5.61-.48-5.61-.48v-5.89c.77-.58,1.72-.51,2.63-.35Z"/>
          <path class="cls-75" d="M62.08,282.51c-1.23-.33-1.63,1.27-2.38,1.9-1.65,1.37-.93,2.43-.96,3.94l-.75,36.97c-1.01.09-2.39-.39-3.57.02-1.53.53-1.41,2.71-1.58,3.62-1.62.22-3.63.49-5.26.44.25-2.11,2.88-.32,4.25-.64,1.25-.29,1.26-2.85.91-3.78-3.12-.23-6.13.12-9.21-.59,0-2.84.26-5.28-.03-7.68,1.32-.65,1.74-2.38,2.04-3.87l1.48-7.39c-3.67-3.43-3.08-5.17-8-3.8,0-1.28-1.54-3.22-.13-4.22.02.3.1.75.36.83.5.16.98-.26,1.3-.65.83-1-.53-1.43-.63-2.15-.15-1.12-1.15-1.65-1.5-2.69,1.62-.06,3.25.2,5.05.54.04,1.67-.16,3.01.09,4.61,1.9.62,3.89,1.15,5.79.72.6-15.3,3.89-1.13,4.65-15.95,1.71-.44,3.09.07,4.58-.6.03-2.76-.18-5.52.27-8.09.75-.52,2.17-.33,3.15-.22.43,3.02.05,5.87.08,8.72Z"/>
          <path class="cls-149" d="M62.08,282.51l.41,45.46c.01,1.29-.45,2.42-.03,3.78-.2.84-3.82.66-3.98-.43-.26-2-.52-4.22-.49-6l.75-36.97c.03-1.51-.69-2.56.96-3.94.75-.63,1.15-2.23,2.38-1.9Z"/>
          <path class="cls-61" d="M101.46,346.95c.15.93-.14,1.88-.06,2.78-.91-.16-1.86-.22-2.63.35-2.28-.26-4.63-.29-7.23-.29h-32.52c-.94-.48-.21-2.57-.07-3.24l42.5.4Z"/>
          <path class="cls-24" d="M43.5,316.71c.28,2.4.02,4.84.03,7.68,3.09.7,6.09.36,9.21.59.35.93.34,3.49-.91,3.78-1.37.32-4-1.47-4.25.64-1.26-.33-2.91.52-4.13.05s-2.46-.32-3.83-.67c-1.6-.4-.56-7.1-1.15-9.01.19-.32.55-.61.55-1.01.71.39,1.91.38,2.39-.53.27-.51.24-.99.6-1.25.42-.31.98-.03,1.48-.27Z"/>
          <path class="cls-79" d="M176.2,324.26c-.09,1.58.46,3.22-.2,4.93-.47,1.22-.23,2.73-.24,3.97-.3.22-.43-.11-.64-.61l-25.21.51c-.12,0-.25,0-.37-.01-.02-2.88-.21-5.82.21-8.89,4.1-.59,1.66-4.01,3.46-5.37,1.16-.88,2.88.07,4.43-.39l.33-30.88,5.9-.64c.59-1.28.4-2.74.77-4.26l5.92-.53.2,49.77c1.66.36,2.97.19,4.5.2l.1-7.59c0-.3.81-.37.86-.21Z"/>
          <path class="cls-70" d="M193.92,334.74l-10.4.44c-.65.03-1.1.74-1.57.53-1.11-6.66-.06-13.6-.74-20.55-.02-.2-.61-.07-.78-.19,1.88-.08,1.17-11.26,1.22-13.52-1.04-.52-2.46-.82-2.46-2.44v-6.68c0-1.87-1.78-1.99-3.02-2.61-1.07-5-.86-10.57-.94-15.5,1.05.08,2.26-.69,3.37.13l.29,8.08,7,.36,1.28,5.82,6.42.32c.06,2.98.55,12.65-1.15,13.45-1.44.68-2.96.21-4.1.52-1.24,1.46-.1,2.95.24,4.35,1.02,4.22.08,8.25.62,12.37,1.62.17,3.2-.08,4.65.63l.09,14.51Z"/>
          <path class="cls-11" d="M175.23,274.21c.08,4.93-.13,10.5.94,15.5,1.24.62,3.01.74,3.01,2.61v6.68c0,1.62,1.43,1.92,2.46,2.44-.05,2.25.65,13.43-1.22,13.52l-1.74.08c-.33.01-.89.77-.72,1.49.32,1.33-.88,1.72-1.2,2.57-.6,1.61-.48,3.54-.57,5.15-.05-.16-.85-.09-.86.21l-.1,7.59c-1.52,0-2.83.16-4.5-.2l-.2-49.77.16-7.76c1.7-.67,3.11-.22,4.53-.11Z"/>
          <path class="cls-43" d="M176.92,245.58c-4.97.69-10.01,0-15.02.34-.69.59-2.6-7.29-1.61-7.29l16.74.37c.07,2.33.29,4.5-.1,6.58Z"/>
          <path class="cls-135" d="M180.43,314.97c.18.12.76,0,.78.19.68,6.94-.37,13.89.74,20.55.2,1.21-.37,2.27.85,3.12,2.04,1.41,5.51.74,5.4,5.28-.04,1.79-.39,3.43-2.06,4.21.85.7,1.41.99,1.09,1.62-1.75-.15-3.47-.31-5.59.09-.12,2.02-.14,3.95,0,5.99,1.46.27,2.51.02,3.97.45.35.79-1.21,8.34-1.05,6.11-.16,2.1-.04,4.26-.04,6.74l4.7.97c-.4,1.09.19,2.88-.67,4.01-1.31,1.74-3.8,2.3-5.59,2.24l-2.61-20.46c-1.49.05-2.62.13-3.11-.5-.9-1.15.24-4.41-1.45-6.43l-.15-2.05.11-13.95c.01-1.24-.23-2.75.24-3.97.66-1.71.11-3.36.2-4.93s-.03-3.54.57-5.15c.32-.85,1.52-1.25,1.2-2.57-.17-.72.39-1.48.72-1.49l1.74-.08Z"/>
          <g>
            <path class="cls-121" d="M182.97,376.55c-.56,1.03-.49,2.7-1.33,3.73-.79.97-2.49.49-3.38,1.18-.43,1.55-.36,2.95-.14,4.52-1.98.92-2.71,2.87-2.24,4.98-.53,1.75.57,3.56-.26,5.05-.55-1.19-.61,12.33.16,9.92.06,3.01-.42,6.07.55,8.83.29.83-.42,2.74.62,3.42,1.13.74,2.89-.06,4.01.19-.17.26.07.42.52.61.1,2.26-.22,4.68.93,6.58-.2.18-.19.36-.02.55-2.68,3.34-2.24-.36-7.73,2.12-1.44.65-3.21-.53-4.59.31h-20.19s-.17-73.15-.17-73.15c-2.3-.84-4.62,0-6.97-.19s-3.84.49-5.76.95c-2.94.7-6.01-.04-8.78.27-.62-1.03-.8-2.68-.48-4.01.73.09,1.91-.14,2.78-.37.6-.16,1.12-1.03.96-1.88.26.14.36-.13.55-.58l41.14-.09c1.08,0,1.92.04,2.64-.36,1.7,2.02.55,5.28,1.45,6.43.49.63,1.62.54,3.11.5l2.61,20.46Z"/>
            <path class="cls-36" d="M170,371.4c-2.72-.13-15.32,1.05-15.81-1.03-.53-2.3-.18-4.58-.91-6.67-.53-1.51-1.53-2.86-.57-4.65,1.16-.34,2.57.13,3.83-.34,1.76-.67,3.44,0,5.3,0,.44,0,.75-.64,1.29-.58-1.5-.18,4.98,1.82,6.99,1.5l-.12,11.78Z"/>
          </g>
          <g>
            <path class="cls-152" d="M101.37,332.97c.56,3.81.26,7.74.1,11.61-12.17-.12-24.24.94-36.61.05l-.23-8.97c-.6-.74-.5-1.62-.4-2.53l37.13-.16Z"/>
            <path class="cls-72" d="M101.47,344.58c-.03.72-.12,1.67,0,2.37l-42.5-.4c-.19-.56-.14-1.31-.18-1.96,1.79.31,3.65.56,5.44.11l-.03-8.51c0-.41.11-.76.45-.54l.23,8.97c12.37.9,24.43-.17,36.61-.05Z"/>
            <path class="cls-54" d="M64.24,333.13c-.1.9-.21,1.78.4,2.53-.33-.23-.45.12-.45.54l.03,8.51c-1.79.45-3.64.2-5.44-.11-.22-3.79-.28-7.67-.01-11.6,2.19-.41,3.83.15,5.46.15Z"/>
            <path class="cls-71" d="M175.76,333.16l-.11,13.95-42.72.03c-.56,0-.8.51-1.13.4l-.21-13.4c-.01-.67.46-1.08.84-1.16.46-.25.94.08,1.43.05-.69.95-.87,2-.48,2.9.53,1.23,1.18,2.02,2.73,2.49-.6.84-1.52.64-2.33,1.18-.71,1.62-.77,3.25-.62,5.03l15.69-.21c.69-3.9.82-7.69,1.04-11.38l25.21-.51c.21.5.34.83.64.61Z"/>
            <path class="cls-98" d="M149.53,333.04c.12,0,.25.01.37.01-.22,3.69-.35,7.48-1.04,11.38l-15.69.21c-.15-1.78-.09-3.41.62-5.03.81-.55,1.73-.34,2.33-1.18-1.54-.48-2.2-1.26-2.73-2.49-.39-.9-.21-1.95.48-2.9,5.2-.27,10.46-.25,15.67,0Z"/>
            <path class="cls-10" d="M175.64,347.11l.15,2.05c-.71.4-1.56.36-2.64.36l-41.14.09c-.19.44-.29.71-.55.58-.23-.87.35-1.78.34-2.64.33.11.57-.4,1.13-.4l42.72-.03Z"/>
          </g>
          <path class="cls-135" d="M95.18,240.79c-.05,2.09,4.86,13.96,4.81,15.13-.09,1.99,1.68,2.89,2.38,4.28.91,1.81,1.88,10.36,4.45,14.29,2.07,3.16,1.87,7.28,3.23,10.77,4.66.54,3.01,9.34,5.56,9.18,3.38-.21,2.8-2.14,4.48-7.84.36-1.22,2.08-.81,2.53-1.46-1.36,1.99,10.07-27.07,8.25-24.85l2.01-2.46c2.99-3.65,3.15-9.88,4.72-14.64l2.99,2.58c3.14.25,6.15-.31,9.18.68,3.97,5.22.95,4.16,2.77,6.49-.46.15-.82.86-1.53.99l-7.76,1.46c.09,1.46-.7,3.71.4,4.93s6.92,3.44,4.34,6.32l-5.08,5.67c-1.31,1.46-2.83,1.94-4.61,2.6l-1.34,2.31c-.89,1.54-2.65,2.71-2.61,4.66l-4.33.88c-.64,1.58-.25,3.33-.98,4.79-.63,1.27-2.77.56-3.73,1.19-1.17.78-.86,2.55-1.71,3.49-1.11,1.23-3.19,1.76-3.99,3.29-.86,1.65-1.49,3.63-3.68,3.98l-.71-3.98c-1.9-1.53-4.85-1.43-6.54-3.13-.39-.96.22-2.89-.71-3.44-1.15-.68-2.64-.26-4.08-.82-.65-1.76-.31-3.55-.77-5.44l-4-.55c-1.53-1.56-2.07-3.75-3.73-5.18-1.44-1.24-3.42-1.82-4.49-3.66-1.58-2.71-5.09-4.42-6.3-7.52-.44-2.46,3.13-4.79,4.82-5.93.45-1.54.51-2.77.58-4.31-1.59-.37-14.18-2.31-13.83-4.56,1.03-6.57,2.83-12.61,4.74-18.77,1.07-.24,1.74-.56,2.46-.87.96.32,1.93.9,2.75,1.77l6.59,7.04c.49.52.63.99,1.05,1.05.7.1.99-.14,1.42-.44Z"/>
          <path class="cls-69" d="M148.14,226.19c3.3.8.73,5.71,3.3,5.9.77.06,1.36.14,1.83.34-.08-.03,4.27,17.1,4.22,19.41-1.65.83-3.41.62-4.95,1.12-1.82-2.33,1.2-1.27-2.77-6.49-3.04-.99-6.05-.43-9.18-.68l-2.99-2.58c.62-1.89.42-16.45-.58-18.59,2.51-2.74,6.64.5,11.12,1.59Z"/>
          <g>
            <path class="cls-4" d="M174.67,428.26c-.16.29.02.48.54.65-.18,10.78.57,21.65-.37,32.4-.18,2.06-.41,3.93-.39,6.28l-1.72.83c-1.03.5-.2,3.1-.07,4.75,2.73.69,5.24.4,7.78.43.06.32-.11.53-.3.54-.32.02-.77-.08-1.18.02-.03,1.17-.6,1.26-.64,0-1.54-.06-2.88-.14-4.19.11-.44.08-1-.53-1.34-.57-4.8-.62-9.97-.65-14.88.01-1.1.15-.49,1.57-.55,2.12-.11.92-.36,2.24.41,3.07.22.31-.22.49-.3.36-.14-.22-.67-.41-.68-.65l-.2-4.9-13.76-.07c-.46,4.68-.09,9.11-.04,13.81l41.83.08c.98-2.06.45-4.16.39-6.15,0-.21.11-.43.06-.67,1.63-.31,3.3-.07,5.29.03l.06,8.77c0,.72-.16,1.47-.46,2.58l-52.84.03c-.37-1.31-.36-2.44-.35-3.53l.13-14.48,1.11-5.73c1.09-.65,3.05-.74,4.22-.94,5.01,1.35,10.41-.06,15.47.03-.04,0,15.02,1.56,15.71-.94.93-3.39-1.06-1.47.7-5.46.51-1.14.41-2.16.33-3.68-.44-8.29-.13-16.63-.13-24.95,0-.89,1.11-2.61-.12-3.23-.82-.42-2.23-.08-3.09-.15-.62.16-1.1.15-1-.52,1.38-.84,3.15.34,4.59-.31Z"/>
            <path class="cls-120" d="M185.05,480.74c.05.24-.07.46-.06.67-1.37-1.49-3.74,0-5.64-1.08-.04-.85.64-2.54-.19-3.4-1.7-.47-3.86-.9-5.5-.68.26-.71.8-1.15.44-1.96,1.31-.25,2.65-.17,4.19-.11.04,1.26.61,1.16.64,0,.41-.1.87,0,1.18-.02.19-.01.36-.22.3-.54,1.36.02,2.86-.27,4.33.37.24,2.54-.13,4.68.3,6.77Z"/>
            <path class="cls-97" d="M170.08,428.57c-.1.67.38.69,1,.52.86.07,2.27-.27,3.09.15,1.22.62.12,2.34.12,3.23,0,8.32-.31,16.66.13,24.95.08,1.52.18,2.53-.33,3.68-1.77,3.98.23,2.06-.7,5.46-.69,2.51-15.75.94-15.71.94-.26-2.59-.07-5.23-.06-7.83l.09-21.94-15.5-.27c.3,8.03-.31,15.72.49,23.27.23,2.19-.45,4.55-.5,6.73-1.17.2-3.13.29-4.22.94-.4-.3-1.14-.4-1.19-1.12-.73-11.08.53-22.27-.81-33,1.12-1.54.17-3.82.5-5.64l13.41-.09h20.19Z"/>
            <path class="cls-28" d="M136.48,428.65c-.33,1.82.62,4.1-.5,5.64-1.26-.16-3.6.65-4.59-.37-1.03-1.29-.35-3.53-.53-5.16,2.1-.41,3.82-.1,5.63-.11Z"/>
            <path class="cls-15" d="M157.75,478.93c2.62,3.04,17.66,2.03,21.61,1.4,1.9,1.09,4.28-.41,5.64,1.08.06,1.99.59,4.09-.39,6.15l-41.83-.08c-.05-4.7-.42-9.13.04-13.81l13.76.07.2,4.9c0,.23.54.43.68.65.08.13.53-.05.3-.36Z"/>
            <path class="cls-140" d="M157.62,459.67c-.01,2.6-.2,5.24.06,7.83-5.06-.09-10.46,1.32-15.47-.03.05-2.18.73-4.54.5-6.73,4.54.11,10.35-.57,14.92-1.07Z"/>
            <path class="cls-84" d="M173.67,476.25c1.64-.22,3.79.21,5.5.68.83.86.15,2.55.19,3.4-3.95.63-18.99,1.64-21.61-1.4-.77-.84-.51-2.16-.41-3.07,1.28-.09,2.44-.94,3.89-.43,2.11.73,4.51-.09,6.77.44,2.1.49,3.82.63,5.67.39Z"/>
            <path class="cls-96" d="M174.11,474.29c.36.8-.18,1.24-.44,1.96-1.85.24-3.57.1-5.67-.39-2.26-.53-4.67.3-6.77-.44-1.45-.5-2.61.34-3.89.43.06-.55-.55-1.97.55-2.12,4.91-.67,10.08-.63,14.88-.01.34.04.9.66,1.34.57Z"/>
            <g>
              <path class="cls-52" d="M98.75,458.05c-.06-.15-.88-.09-.88.21l-.1,8.15c-.01,1.01-1.53,1.39-2.58,1.4l-10.26.09c.39-2.23-.25-4.55-.1-6.74.48-6.88.17-13.87.26-21.39-3.41-1.13-6.84-.28-10.11-1.15-2.86-.76-5.68-.9-8.58-.89-.11.75-.41.9-.68.76.24-1.58-.55-3.95-1.96-5.27-1.02-.95-3.18-.17-4.26.05,0-1.23-.36-3.6.05-4.71l43.34.18c.45,8.83-2.1,3.79-2.05,7.2.08,5.81.11,17.78-2.08,22.12Z"/>
              <path class="cls-38" d="M98.75,458.05c.13.92.22,1.84-.25,2.89-.82,1.85.48,4.45-.26,6.49-.3.84-1.38.7-1.37,2.08l.17,19.11c.01,1.11-.32,2.43-.79,3.52l-53.61-.07c-.58-.6-.25-1.92-.42-2.49-.19-.67.3-1.37.22-2,1.53.27,3.13-.16,4.63-.17l20.76-.12,23.57.2-.03-13.52c-5.48-1.1-10.97.41-15.87.15s-9.26-1.83-13.89-.08c-3.23,1.21-8.23-.26-11.37-.43,3.69-.02,7.45.25,11.27-.45l.06-4.7c7.6-1.34,15.53-.48,23.33-.55l10.26-.09c1.04,0,2.57-.39,2.58-1.4l.1-8.15c0-.3.82-.36.88-.21Z"/>
              <path class="cls-139" d="M65.71,438.48c-.08.54-.53.78-.55,1.59-.18,6.93-.2,13.71.03,20.59l19.63.5c-.15,2.2.49,4.51.1,6.74-7.8.07-15.72-.79-23.33.55-.42-.47-1.83-.2-2.13-.94l.03-34.25c1.08-.22,3.24-1.01,4.26-.05,1.41,1.32,2.2,3.69,1.96,5.27Z"/>
              <path class="cls-74" d="M50.26,473.6c3.14.17,8.14,1.65,11.37.43.37.8-1.7,2.79-2.68,2.72-1.84-.13-3.66-.75-5.53-.06-.68.25-2.03-.71-2.55.64-.33.87.32,2.41-.4,3.04-.7.62-1.92.11-2.89.54-.54,2.22-.4,4.39-.49,6.48-1.5,0-3.1.44-4.63.17-.3-2.25-.25-4.6.06-6.96l4.69-.31.52-6.59c1.04-.17,1.83-.15,2.55-.11Z"/>
              <path class="cls-41" d="M84.83,461.16l-19.63-.5c-.24-6.88-.22-13.67-.03-20.59.02-.81.47-1.06.55-1.59.27.15.57-.01.68-.76,2.9,0,5.72.13,8.58.89,3.27.87,6.7.03,10.11,1.15-.1,7.52.21,14.51-.26,21.39Z"/>
              <path class="cls-63" d="M67.83,487.29c.91-4.38-.12-2.73.08-6.03,2.19-.44,4.95-.75,7.11-1.93l.49-5.21c4.89.26,10.39-1.25,15.87-.15l.03,13.52-23.57-.2Z"/>
              <path class="cls-112" d="M53.41,476.7c.03,1.17-.12,2.55.39,3.64,2.19,1,4.54.1,6.61.19,2.57.12,5.38-.35,7.5.72-.2,3.3.83,1.65-.08,6.03l-20.76.12c.09-2.09-.05-4.26.49-6.48.98-.44,2.19.07,2.89-.54.72-.63.07-2.17.4-3.04.52-1.35,1.87-.39,2.55-.64Z"/>
              <path class="cls-25" d="M75.51,474.12l-.49,5.21c-2.16,1.18-4.93,1.49-7.11,1.93-2.13-1.07-4.93-.61-7.5-.72-.33-.11-.22-.58-.45-.87-.13-.17-.23-.2-.76.02.1-1.18-.22-2-.27-2.93.98.07,3.05-1.93,2.68-2.72,4.63-1.75,9.2-.17,13.89.08Z"/>
              <path class="cls-45" d="M58.94,476.76c.04.93.36,1.75.27,2.93.53-.22.62-.2.76-.02.23.3.11.77.45.87-2.07-.1-4.41.8-6.61-.19-.52-1.09-.36-2.47-.39-3.64,1.87-.69,3.69-.07,5.53.06Z"/>
            </g>
            <path class="cls-62" d="M157.62,459.67c-4.57.5-10.38,1.18-14.92,1.07-.8-7.55-.19-15.24-.49-23.27l15.5.27-.09,21.94Z"/>
          </g>
          <path class="cls-47" d="M124.15,375c.33,9.18.12,18.33-.17,27.87-1.82-1.91-2.43-4.45-2.49-7.32-.02-.86-1.24-1.09-1.43-1.99s-.42-2.82-1.53-2.87c-1.51-.08-3.53-.32-4.81.34-.21,1.29-.87,2.64-1.72,3.73-1.11,1.42-.14,4.04-.81,5.44-1.63,3.38-.93,6.59-2.26,10.3l-.32-34.54c5.36-.99,10.27-.42,15.55-.96Z"/>
          <path class="cls-109" d="M115.36,361.32c2.94-.18,5.95.2,8.83-.3.88,4.64-.21,9.39-.05,13.98-5.29.54-10.19-.03-15.55.96-.05-4.98-.42-9.99.07-14.97,2.21.33,4.47.46,6.7.33Z"/>
          <path class="cls-160" d="M124.08,352.33c-.2.29.23.45.29.67,1.23,2.45-.62,5.72-.18,8.02-2.88.5-5.89.12-8.83.3-.02-1.23.82-2.37.41-3.87l-6.79-.26c-.54-1.38-.41-3.08-.4-4.58,5.14-.59,10.34-.1,15.51-.28Z"/>
          <path class="cls-107" d="M115.36,361.32c-2.23.13-4.49,0-6.7-.33.12-1.24-.49-2.7.32-3.8l6.79.26c.41,1.49-.42,2.64-.41,3.87Z"/>
          <path class="cls-36" d="M43.5,316.71c-.5.24-1.06-.04-1.48.27-.36.27-.33.75-.6,1.25-.48.91-1.68.92-2.39.53v-17.12c4.91-1.38,4.32.36,7.99,3.8l-1.48,7.39c-.3,1.49-.72,3.22-2.04,3.87Z"/>
          <path class="cls-137" d="M39.92,295.46c.1.72,1.45,1.15.63,2.15-.33.4-.81.81-1.3.65-.27-.09-.34-.54-.36-.83,0-.36-.02-1.03.11-1.7.06-.33.57-.12.93-.27Z"/>
          <g>
            <path class="cls-131" d="M110.8,327.84c1.64-.05,3.36.03,4.99.05l15.85.17c.52,1.92-.42,3.65.79,4.93-.38.08-.85.49-.84,1.16l.21,13.4c.01.86-.56,1.76-.34,2.64.16.85-.36,1.72-.96,1.88-.87.24-2.05.47-2.78.37-1.21-.15-2.42-.16-3.64-.11-5.17.19-10.37-.31-15.51.28-1.53-.21-3.56-.5-5.65-.43-1.05.03-1.45-1.69-1.52-2.45-.08-.9.2-1.84.06-2.78-.11-.7-.02-1.65,0-2.37.16-3.87.46-7.79-.1-11.61-.21-1.44.44-3.18.49-4.87,3.23-.28,6.03-.17,8.94-.26Z"/>
            <path class="cls-104" d="M108.07,342.27c2.34-.19,5.27.14,7.57-.49.63-.67.69-3.62-.24-3.85-2.4-.47-5.08-.26-7.2-.25-.66-1.08-1.14-2.96-.23-4.29l17.43-.05c.11,4.67.18,8.99-.2,13.6l-17.51.1c-.16-1.76-.55-3.55.38-4.77Z"/>
            <path class="cls-157" d="M108.07,342.27c-.68-1.35-.81-3.37.12-4.59,2.12,0,4.8-.22,7.2.25.93.23.87,3.18.24,3.85-2.3.63-5.23.3-7.57.49Z"/>
          </g>
          <g>
            <path class="cls-59" d="M211.96,370.38l.48,5.59c1.41.36,2.7.07,4.06.58l.15,4.01,4.16.53.46,4.3c1,.72,3.41.4,4.63.03.33-.22.6-.12.52.32-.87-2.06-.49,6.45-.54,5.78l-4.66.08c-8.74.15-17.52-.23-26.2.09-.85.03-1.83-.14-2.7-.18,1.17-.87-5.17-.54-6.62-.39-.28-.96-.68-3.49.31-4.29,2.15-.07,4.2.6,6.12-.2.32-1.36.15-2.78.21-4.31l5.51-.35c2.32-.15,1.53-10.05.56-11.91,4.5.4,9.05.46,13.56.32Z"/>
            <path class="cls-87" d="M230.79,394.49c.16,7.68.27,15.36-.09,23.33-1.86.34-3.28.07-4.83.55l-.55,5.57c-1.35.54-2.69.36-4.1.52-.38,1.56.02,3.06-.8,4.44-1.84-.09-3.4-.06-4.35,1.65-3.62-.06-29.49,1.13-29.84-1.14-.1-.68-.28-1.65-.16-2.24.08-.37-.08-.63-.48-.56-.35-1.48-1.97-.97-3.18-1.03-1.15-1.9-.83-4.32-.93-6.58-.45-.19-.69-.35-.52-.61,1.54.35,3.1.68,4.7.63.45,1.88.62,3.7.39,6.37l28.98-.13c1.97,0,3.99-.51,5.89-1.07.51-1.01.27-2.88.03-3.96-.68-3.06,4.67-.87,4.76-3.52l.7-22.65c1.47.02,2.94.18,4.39.42Z"/>
            <path class="cls-83" d="M208.24,334.5l7.42.18c.62.02,1.22.51,1.36,1.08-.05.85-.13,1.71,0,2.56.06.36-.37.66-.05.99-.42-.07-.58.52-.08.45-.37.13-.24.27.02.45l-7.07.03c-6.22.02-12.32-.22-18.85.54-.73,2.74.48,5.49-.78,7.85-.76.53-1.33,1.39-1.92,2.08-.18-.68-.54-.74-1.07-.78.32-.63-.25-.92-1.09-1.62,1.67-.78,2.02-2.43,2.06-4.21.11-4.54-3.36-3.87-5.4-5.28-1.22-.84-.65-1.91-.85-3.12.47.21.92-.5,1.57-.53l10.4-.44,14.31-.23Z"/>
            <path class="cls-108" d="M203.66,366.76c.19,1.01,8.76-.63,8.49-.48,1.04-.58.9-2.32,1.93-2.7.65-.54,1.74,1.92,2.7,1.44.74-.37.63-2.96,2.4-2.94.63,0,1.13.24,1.74.02.4-.15.24-.64.49-1.1.58,0,.28.47.23,1.13.65-.06,1.16-.3,1.16.33-1.86-.56-.08,3.91-1.5,4.74-1.28.75-3.05,1.29-4.31,1.67-1.55.47-3.42,1.37-5.02,1.49-4.51.14-9.05.08-13.56-.32-1.44-.13-2.7-.16-4.13,0-1.32.15-2.77-.32-4.1-.26-1.04-.69-.49-2.21-.94-3l4.69-.43c1.34-.12,1.65-2.12,1.71-3.28l.36-7.17c1.47-.18,4.23-.79,5.02.29l.15,10.82c.42.55,2.37.39,2.49-.29Z"/>
            <path class="cls-31" d="M216.92,340.22c.3,0,.77.16.7.53-.7-.07-1.05.22-1.26.89-.65,2.12.62,2.03-.25,3.87l-8.25.49c-4.43.26-9.13-1-13.93-.29-.97.14-.73,1.65-1.03,2.35-.52,1.17-1.93.97-2.68.58,1.27-2.36.05-5.12.78-7.85,6.52-.76,12.62-.52,18.85-.54l7.07-.03Z"/>
            <path class="cls-77" d="M217.62,340.75c.55,0,2.9-.25,3.08.65.89,4.63.33,9.66,1.58,13.86-1.05,1.44-.66,3.82-.87,5.75-.25.45-.08.95-.49,1.1-.61.22-1.11-.01-1.74-.02-1.77-.02-1.66,2.57-2.4,2.94-.96.47-2.05-1.99-2.7-1.44.1-.34-.24-.95.2-1.05.53-.13,1.1.46,1.5.49,1.02-.82.71-2.66.56-4.06-.31-2.78.72-10.42-.23-13.46.87-1.84-.4-1.75.25-3.87.21-.67.56-.96,1.26-.89Z"/>
            <path class="cls-91" d="M216.98,368.89l.11,5.53c1.44.62,2.93.1,4.16.84.16,1.53-.53,3.52.41,4.38,1.08.8,2.81.06,4.14.62-.06,1.8.41,3.53.1,5.17-1.22.37-3.63.7-4.63-.03l-.46-4.3-4.16-.53-.15-4.01c-1.36-.52-2.65-.22-4.06-.58l-.48-5.59c1.6-.12,3.47-1.02,5.02-1.49Z"/>
            <path class="cls-103" d="M230.79,394.49c-1.44-.23-2.92-.39-4.39-.42.03-.86-.47-1.7-.53-2.54.05.67-.32-7.84.54-5.78,1.34.07,2.8-.06,4.28.27.41,3.04.04,5.78.1,8.48Z"/>
            <path class="cls-12" d="M222.79,362.48c0-.63-.51-.39-1.16-.33.05-.66.36-1.13-.23-1.13.21-1.93-.18-4.3.87-5.75,1.45-.14,2.85-.11,4.74.03.27,2.51.28,4.8-.08,7.19h-4.15Z"/>
            <path class="cls-5" d="M149.48,223.08c-.06-.24-.11-.49-.05-.75.07-.31.33-.22.57-.27.19.17.07.53-.04.76-.08.16-.15.39-.48.27Z"/>
            <path class="cls-5" d="M216.89,339.77c-.5.06-.34-.52.08-.45.17.18.18.36-.08.45Z"/>
            <path class="cls-5" d="M186.08,427.17c-.37.21-.53-.2-.48-.56.4-.07.56.19.48.56Z"/>
            <path class="cls-51" d="M194.27,370.06l-.68,6.08c-1.45.41-2.87.15-4.65.37l-.8,4.53-4.93.42-.36,4.04-2.43.7c-.22,2.04.07,3.7.04,5.36.11-5.74-1.09,9.66-1.08,4.65-.27.28-.66.18-1.03.15-.66-.07-1.34-.12-2.3-.1-.41,3.36-.34,6.53-.28,9.69-.77,2.41-.71-11.12-.16-9.92.83-1.5-.27-3.3.26-5.05-.47-2.11.26-4.05,2.24-4.98-.22-1.58-.29-2.97.14-4.52.88-.69,2.59-.22,3.38-1.18.84-1.03.77-2.71,1.33-3.73,1.79.06,4.28-.51,5.59-2.24.85-1.13.27-2.92.67-4.01.37.02.73-.22.95-.5,1.33-.06,2.78.41,4.1.26Z"/>
            <path class="cls-42" d="M178.36,396.36c.46,3.41.79,5.3.28,9.23-.27,2.06,1.07,6.6.24,8.14h-2.47s-.08,1.04-.08,1.04c-.97-2.76-.49-5.82-.55-8.83-.07-3.16-.13-6.33.28-9.69.96-.02,1.64.03,2.3.1Z"/>
            <path class="cls-89" d="M178.89,413.74c1.02.99.7,2.54,1.21,3.9.31.22,1.21.21.87.76-1.12-.25-2.88.55-4.01-.19-1.04-.68-.33-2.59-.62-3.42l.08-1.04h2.47Z"/>
            <path class="cls-35" d="M225.88,391.52c.06.84.56,1.68.53,2.54l-.7,22.65c-.08,2.66-5.43.46-4.76,3.52.24,1.07.48,2.95-.03,3.96-1.9.56-3.92,1.06-5.89,1.07l-28.98.13c.22-2.68.05-4.49-.39-6.37,1.91-.06,3.99-.5,5.95-.24,5.69.74,11.41.39,17.22-.14,2.65-.24,2.65-2.63,3.94-3.98,1.03-1.08,3.25-.75,3.23-3.27-.05-4.82-.16-9.97.15-15.21,1.5-.88,3.18-.19,4.83-.79.53-1.39.11-2.63.25-3.78l4.66-.08Z"/>
            <path class="cls-33" d="M198.4,370.06c.97,1.87,1.76,11.77-.56,11.91l-5.51.35c-.06,1.53.11,2.95-.21,4.31-1.92.8-3.97.14-6.12.2-.99.81-.59,3.33-.31,4.29,1.45-.15,7.79-.48,6.62.39-4.71-.22-9.3.94-11.84.05.03-1.66-.26-3.32-.04-5.36l2.43-.7.36-4.04,4.93-.42.8-4.53c1.78-.22,3.2.04,4.65-.37l.68-6.08c1.43-.16,2.69-.13,4.13,0Z"/>
            <path class="cls-29" d="M192.31,391.51c.87.04,1.85.21,2.7.18.4,1.33.89,2.79.29,4.44-3.05.15-15.08,1.42-15.92.08,0,5.01,1.19-10.39,1.08-4.65,2.54.89,7.13-.27,11.84-.05Z"/>
            <path class="cls-101" d="M207.86,346c.19,2.89.4,16.63-.41,18.41-.64,1.41-2.66-.07-3.59,1.23-.21.29-.09.72-.2,1.13-.12.68-2.07.84-2.49.29l-.15-10.82c-.79-1.09-3.56-.47-5.02-.29l-.36,7.17c-.06,1.16-.37,3.15-1.71,3.28l-4.69.43c-.59-1.03-1.18-2.47-1.09-3.74.18-2.5.62-4.88.03-8.22-.27-1.51.46-2.87.13-4.12.59-.69,1.17-1.55,1.92-2.08.75.39,2.16.59,2.68-.58.31-.7.06-2.21,1.03-2.35,4.79-.71,9.5.55,13.93.29Z"/>
            <path class="cls-23" d="M187.23,349.94c.52.05.88.1,1.07.78.34,1.25-.4,2.61-.13,4.12.6,3.34.15,5.72-.03,8.22-1.22.34-2.39-.22-3.58-.48-.16,2.22,1.4-5.33,1.05-6.11-1.46-.43-2.51-.18-3.97-.45-.14-2.05-.11-3.98,0-5.99,2.11-.4,3.84-.24,5.59-.09Z"/>
            <path class="cls-154" d="M216.11,345.51c.95,3.04-.08,10.68.23,13.46.16,1.4.46,3.24-.56,4.06-.39-.03-.97-.61-1.5-.49-.44.1-.1.71-.2,1.05-1.03.38-.89,2.12-1.93,2.7.27-.15-8.3,1.49-8.49.48.11-.41,0-.83.2-1.13.93-1.29,2.95.19,3.59-1.23.81-1.79.6-15.52.41-18.41l8.25-.49Z"/>
            <path class="cls-122" d="M188.14,363.06c-.09,1.28.5,2.72,1.09,3.74.46.79-.09,2.31.94,3-.23.28-.59.52-.95.5l-4.7-.97c0-2.48-.11-4.64.04-6.74,1.19.26,2.36.81,3.58.48Z"/>
            <g>
              <path class="cls-90" d="M221.21,391.61c-.14,1.14.27,2.39-.25,3.78-1.65.6-3.32-.09-4.83.79-.31,5.24-.2,10.4-.15,15.21.03,2.52-2.2,2.19-3.23,3.27-1.29,1.36-1.29,3.74-3.94,3.98-5.81.53-11.53.88-17.22.14-1.96-.25-4.04.18-5.95.24-1.6.05-3.15-.28-4.7-.63.35-.55-.56-.53-.87-.76-.51-1.36-.19-2.91-1.21-3.9.83-1.54-.51-6.09-.24-8.14.51-3.93.18-5.82-.28-9.23.37.04.76.14,1.03-.15.84,1.34,12.87.07,15.92-.08.6-1.66.1-3.11-.29-4.44,8.68-.32,17.46.07,26.2-.09Z"/>
              <path class="cls-114" d="M186.31,403.25c-1.64,1.08-3.51,1.15-5.17.61-.37-2.06-.28-3.88-.16-6.06,1.71-.7,3.45-.9,5.06-.02.24,1.8.34,3.27.28,5.46Z"/>
              <path class="cls-57" d="M185.46,411.79c-.9.94-2.77.55-4.05.85-.59-2.07-.85-4.44.35-6.25,1.35.29,2.7.21,3.68.88.94.72.98,3.5.02,4.52Z"/>
              <path class="cls-2" d="M189.1,410.14c-1.22-.08-1.19-1.03-1.19-1.86,0-.74.21-1.6,1.31-1.77s1.94-.05,2.35.51c.54.73.6,1.56.33,2.31-.36,1.03-1.55.9-2.81.82Z"/>
              <path class="cls-50" d="M192.04,416.85c-.94-.09-1.37-.33-1.16-.81.23-.54.71-.82,1.41-.84.8-.02,1.14.26,1.11.83-.03.49-.34.92-1.36.82Z"/>
            </g>
          </g>
          <g>
            <path class="cls-127" d="M51.81,351.16c.33,0,.7.01,1.03.08-.66.8-.51,1.84-.51,3.05v16.56c-.01.43-.73.66-.5.96-.2-.07-.4.03-.58.02-1.13,0-3.44-.47-3.99,1.04-.38,1.05.64,2.58-.16,3.24-1.48,1.21-5.06.8-5.82,2.32-.45.9-.74,1.49-.36,2.75l-20.67.04c-1.52,0-3.09-.05-4.83-.3-.45-1.28-.01-2.48-.6-3.55l-4.38-.3c-.46-1.35.23-2.97-.5-4.25-.6-1.05-2.65-.44-3.91-.74-.36-1.73-.3-3.44-.17-4.98.03-.36.26-.68.55-.89,1,.02,2.07-.09,3.22-.31,1.08,1.88.72,3.77.85,5.82,1.61.45,3.21-.15,4.69.46-.03,1.5-.26,3.42.61,4.21,2.16-.16,4.68.92,6.58.61,2.16-.36,4.75-.16,6.61-1.2-.04.02,6.81-5.58,8.82-5.26.87-.9.54-3.07.82-4.29.88-.82,2.07-.44,3.22-.89l.19-13.22c2.89-1.03,6.55-1.04,9.8-.99Z"/>
            <path class="cls-147" d="M51.24,371.85l-.81,4.77c-.86.43-2.67-.11-2.81.89l-.35,2.53c-.05.38-.79.55-1.31.67-.7.16-1.83-.28-2.28.65-.35.72-.54,2.91-1.49,2.88-1.4-.04-2.33,1.35-3.28,1.45-6.2.67-12.16.25-18.25.38-.53-1.8-.48-3.29-.42-4.83l20.67-.04c-.38-1.27-.08-1.85.36-2.75.76-1.52,4.34-1.11,5.82-2.32.81-.66-.22-2.19.16-3.24.55-1.52,2.86-1.05,3.99-1.04Z"/>
            <path class="cls-106" d="M16.7,334.14c-2.59.1-1.32,3.68-2.13,4.55-.98,1.06-3.2-.12-3.68,1.25-.12.35-.18.76-.05,1.34.43,1.96-1.01,2.37-1.66,3.36-3.89,5.89-2.58-.05-2.65,7.16l-.14,14.43c-.29.21-.52.53-.55.89-.6-.91-1.87-.68-3.28-.67l-.11-19.58,3.37-1.17-.02-5.88,4.2-.5c.57-1.84.26-3.57.63-5.41,1.41-.24,2.6.2,3.86-.38.28-.13-.03-.95.3-.99.5.85,1.2,1.04,1.89,1.58Z"/>
            <path class="cls-102" d="M21.25,319.82l-.7,9.61c-.1,1.33-1.4,2.28-1.44,3.87-.02.69-1.75.8-2.41.83-.69-.54-1.39-.73-1.89-1.58.55-1.13-.3-2.63.62-3.76,3.42,1.06,1.47-7.02,1.79-9.14,1.23-.2,2.71.16,4.04.17Z"/>
            <path class="cls-9" d="M38.48,319.78c.59,1.91-.45,8.6,1.15,9.01,1.37.35,2.65.21,3.83.67-.05.92-.67,2.3-.02,3.3.75,1.15,2.37.71,3.72.82.3,1.6-.13,2.96.36,4.36,1.09.48,3.37-.4,3.57.56l.63,2.95c.15.69,1.7.29,2.71.49.9,3.8-.8,4.02,2.3,5.25.45,2.44.38,4.87.26,7.19-1.21-.4,0-2.08-.86-2.8-.95-.79-2.35-.12-3.28-.32-.33-.07-.7-.08-1.03-.08,0-1.05-.7-3.51-2.12-3.51,1.54.15.9-1.72.74-2.65-.2-1.14-1.98-.53-2.78-1.14-1.16-.87-.2-3.14-.61-4.43l-3.99-.64c-.83-.95-.15-2.96-.29-4.33l-4.13-.48c-.12-1.57.03-2.92-.28-4.29-1.39-.34-2.68.08-4.09-.43-.46-1.77.45-9.01-.46-9.4.18-.06.28-.18.42-.25,1.39-.65,2.95-.65,4.26.17Z"/>
            <path class="cls-159" d="M37.89,291.28c0,.55.36.99.53,1.49.35,1.04,1.35,1.57,1.5,2.69-.37.15-.87-.07-.93.27-.12.67-.12,1.35-.11,1.7-1.4,1,.13,2.94.13,4.22v17.12c.01.4-.34.69-.53,1.01-1.31-.81-2.87-.81-4.26-.17l.13-18.51c.02-2.79-.11-5.3.35-7.8.28-1.56,1.76-2.09,3.2-2.01Z"/>
            <path class="cls-32" d="M56.98,354.36c-.26,3.44.48,7.1-.25,10.61-.16.79-1.58,1.29-1.27,2.84.24,1.19-.07,2.61-1.03,3.3-.73.52-1.58,1.08-2.61.72-.23-.3.49-.53.49-.96v-16.56c.01-1.22-.14-2.26.52-3.05.93.2,2.33-.48,3.28.32.86.72-.35,2.4.86,2.8Z"/>
            <path class="cls-58" d="M49.7,347.65c1.42,0,2.11,2.46,2.12,3.51-3.25-.05-6.91-.03-9.8.99-7.3-1.12-14.8.28-22.14-.39.67-1.22.32-2.74.37-4.1l29.45-.02Z"/>
            <path class="cls-105" d="M34.22,319.61c-.14.07-.25.19-.42.25-1.5.48-3.23.67-4.38-.53-.61-.82.61-1.32.92-2.05,1.61-3.84,3.59-12.82-.69-14.63-1.26-.53-2.65-.08-3.7-1.06l.07-7.75,8.03.44c.27.01.1-1.5.65-.99-.46,2.51-.33,5.01-.35,7.8l-.13,18.51Z"/>
            <path class="cls-134" d="M26.02,293.84l-.07,7.75c-1.4.9-3.05.66-4.65.47-.37-1.09-.24-2.19-.17-3.56l.24-5.01c1.64-.38,3.33-.38,4.65.34Z"/>
            <g>
              <path class="cls-141" d="M38.33,271.58c-.18,1.37-2.46,1.24-3.12,1.96-.77.85-.19,1.67,0,2.19.44,1.21,4.47.13,4.65,1.55.55,4.3.41,8.93.33,13.14-.81.31-1.83.48-2.29.86-1.44-.08-2.92.45-3.2,2.01-.55-.52-.38,1-.65.99l-8.03-.44c-1.32-.73-3.02-.72-4.65-.34l-.24,5.01c-.07,1.37-.2,2.47.17,3.56-1.02-.12-2.03.15-3.04.08-1.19-1.82-.53-4.39-.63-6.71l-.17-3.87c-.84-.54-1.69-.5-2.43-1.16.27-2.43-.85-13.45,1.25-13.76,4.57-.67,9.14-.17,13.82-.44.67-.86-.1-1.64.31-2.78l3.66-.77c1.36-.29,2.77-.78,4.26-1.1Z"/>
              <path class="cls-27" d="M17.72,283.44c-.16-.44.08-.44.52-.37l7.36.14c1.51.03.93-2.2.44-3.14l7.67-.27c.84-.03,1.28.45,1.45.86.24.6-.33,1.13-.33,1.79l-.09,7.11c-5.27.26-10.61.72-15.48-.29-1.5-1.4,1.09-5.58-1.54-5.83Z"/>
              <path class="cls-134" d="M26.05,280.08c.48.94,1.07,3.16-.44,3.14l-7.36-.14c-.44-.07-.68-.07-.52.37-.62.14-.83-.09-1.18-.42-.18-.17-.16-.56.09-1.15.15-1.79,8.02-1.75,9.42-1.79Z"/>
            </g>
            <path class="cls-144" d="M33.79,319.86c.91.4,0,7.64.46,9.4,1.42.51,2.7.09,4.09.43.32,1.36.16,2.71.28,4.29l4.13.48c.14,1.37-.54,3.38.29,4.33l3.99.64c.41,1.29-.54,3.56.61,4.43.81.61,2.59,0,2.78,1.14.16.93.81,2.8-.74,2.65l-29.45.02c.08-1.93-.33-4.06.13-6.28.6-2.88,5.31.72,5.26-3.5l-.19-16.14-.5-1.89c1.48.09,3.04-.2,4.46-.53,1.14,1.2,2.88,1.01,4.38.53Z"/>
            <path class="cls-153" d="M24.95,319.86l.5,1.89.19,16.14c.05,4.22-4.66.62-5.26,3.5-.46,2.21-.06,4.34-.13,6.28-.06,1.36.3,2.88-.37,4.1-1.02-.09-2.72.72-3.74.46-1.73-.46-3.43-.16-5.19-.22-1.46-.04-2.92-.5-4.41-.2.07-7.21-1.25-1.27,2.65-7.16.66-.99,2.09-1.4,1.66-3.36-.13-.58-.07-1,.05-1.34.47-1.37,2.7-.19,3.68-1.25.8-.88-.46-4.45,2.13-4.55.66-.03,2.39-.14,2.41-.83.04-1.6,1.34-2.55,1.44-3.87l.7-9.61c1.25.01,2.46-.04,3.71.04Z"/>
            <g>
              <path class="cls-151" d="M29.64,302.65c-.13,1.39.25,2.84-.63,4.07l-11.9.64c-.65-1.33-.38-2.89-.4-4.33.48-.3,1.39-.1,1.54-.89,1.01.06,2.03-.2,3.04-.08,1.6.18,3.26.43,4.65-.47,1.04.98,2.44.53,3.7,1.06Z"/>
              <path class="cls-53" d="M29.01,306.73c1.01,1.02.91,3.54.03,4.82-3.82-.03-8.01.27-11.96-.35-1.19-.19-1.22-3.45.02-3.82l11.9-.64Z"/>
              <g>
                <path class="cls-100" d="M16.7,303.04c.01,1.45-.25,3,.4,4.33-1.24.37-1.22,3.64-.02,3.82,3.95.62,8.14.32,11.96.35.88-1.28.97-3.8-.03-4.82.88-1.23.51-2.68.63-4.07,4.28,1.81,2.3,10.79.69,14.63-.3.72-1.53,1.22-.92,2.05-1.42.33-2.98.63-4.46.53-1.25-.08-2.46-.03-3.71-.04-1.33-.01-2.81-.36-4.04-.17-.49.02-1.47-.33-2.03-.52-1.16-1.93-1.06-4.37-1.19-6.68-.19-3.22-.92-6.47.5-9.44.3-.63,2.28-.76,2.22.02Z"/>
                <path class="cls-118" d="M28.81,315.32c2.29,3.21-9.18,2-11.79,1.88-.99-.05-.47-2.41.63-2.44l9.34-.25c1.1-.03,1.39.21,1.81.81Z"/>
              </g>
            </g>
            <path class="cls-92" d="M16.14,352.23c-.91,3.92,1.81,9.11-2.31,9.76-1.89.29-2.73-1-2.77-3.08l-.11-6.9c1.77.05,3.47-.24,5.19.22Z"/>
            <g>
              <path class="cls-76" d="M10.94,352.01l.11,6.9c.03,2.08.88,3.37,2.77,3.08,4.12-.64,1.4-5.84,2.31-9.76,1.01.27,2.71-.55,3.74-.46,7.34.67,14.84-.73,22.14.39l-.19,13.22c-1.15.45-2.34.07-3.22.89-.28,1.21.05,3.39-.82,4.29-2.01-.32-8.86,5.28-8.82,5.26-1.86,1.04-4.45.84-6.61,1.2-1.9.32-4.42-.77-6.58-.61-.86-.8-.63-2.71-.61-4.21-1.48-.62-3.08-.02-4.69-.46-.13-2.04.23-3.94-.85-5.82-1.15.23-2.22.34-3.22.31l.14-14.43c1.49-.3,2.95.16,4.41.2Z"/>
              <path class="cls-133" d="M16.87,366.52c.52-.88,1.81-.72,2.64-.35.57.25.52,1.31,0,2.05-.38.55-1.25.93-2.04.56-.53-.25-1.25-1.17-.61-2.25Z"/>
            </g>
          </g>
          <g>
            <path class="cls-39" d="M123.15,245.91c.03-.41.48-.64.59-1.02.82.92,1.87.27,2.87-.02,1.18-.35,1.26-1.36,1.62-2.64l.92-3.25c1.81,0,2.8-.71,4.9-.15l-2.68,12.44c-.35,1.65-2.08,2.6-1.96,5.14.05,1.15-2.14.88-2.91.79-.61-.07-1.4-.77-1.65-1.69-.5-1.9-1.64-3.35-2.68-5.02-1.08-1.75.88-3.07.98-4.58Z"/>
            <g>
              <path class="cls-22" d="M123.15,245.91c-.1,1.51-2.06,2.84-.98,4.58s2.17,3.12,2.68,5.02c.25.93,1.04,1.63,1.65,1.69.77.08,2.97.36,2.91-.79-.12-2.54,1.6-3.5,1.96-5.14l2.68-12.44c-2.1-.56-3.1.15-4.9.15l-.92,3.25c-.36,1.28-.44,2.29-1.62,2.64-1,.29-2.05.94-2.87.02.52-1.78.38-3.71.6-5.74l4.16-.25c1.63-5.14-.26-2.5,4.11-5.05l.76-8.62,3.66-.63c1,2.14,1.2,16.71.58,18.59-1.57,4.77-1.73,10.99-4.72,14.64l-2.01,2.46c1.82-2.22-9.61,26.83-8.25,24.85-.44.65-2.16.24-2.53,1.46-1.69,5.7-1.11,7.62-4.48,7.84-2.54.16-.9-8.64-5.56-9.18-1.36-3.49-1.16-7.61-3.23-10.77-2.57-3.93-3.54-12.48-4.45-14.29-.7-1.4-2.47-2.3-2.38-4.28.05-1.16-4.85-13.04-4.81-15.13l.32-14.59c.02-.93.07-1.64.58-2.17,1.47.33,2.95.98,4.51,1.47l.3,7.8,2.62,1.58c0,1.59.44,3.31,2.01,3.66,1.19.27,2.36-.25,3.4.38l.48,6.16c1.37.57,2.67.62,4.39.78.52,2.15.49,6.91,2.73,6.69.78-.08,1.46-.62,1.66-1.55l1.03-4.83c1.48-.3,2.72-.15,3.93-.26Z"/>
              <path class="cls-64" d="M109.23,252.32c-1.6,1.98-1.68,5.18-4.51,5.07-1.06-.04-2.04-1.44-1.88-2.73.21-1.72-.78-2.13-1.49-3.18-1.05-1.57-.71-4.15-1.68-6.09-1.44-2.88-1.47-5.64.62-8.37.83.37,2.65.47,3.32,1.28.76,1.38,1.59,2.92,1.81,4.51.51,3.66,3.04.88,5.02,5.09.71,1.51-.11,3.06-1.21,4.42Z"/>
              <g>
                <path class="cls-88" d="M121.33,276.85c.55-.77-2.49,12.94-6.88,9.01-2.33-2.08-2.85-5.99-3.4-8.99-.22-1.21-1.37-1.46-1.75-2.32-2.65-5.94-1.46-10.27-2.26-11.53-2.09-3.28,3.42-3.29,3.23-8.03-.02-.44.46-1.38.7-1.72.32-.45,1.58-.67,2.31-.39l4.12,1.59c.8-1.66,3.61-3.17,5-1.48,1.31,1.59.34,4.47,1.56,5.7,1.16,1.16,1.26,2.6,2.33,3.43.88.68,1.04,1.09.94,2.48-.07.91-1.53.25-2.06.73-1.15,2.53.18,5.8-1.09,7.6l-2.76,3.92Z"/>
                <path class="cls-115" d="M117.87,265.29c1.52.73.86,5.36-.22,5.51-1.46.21-3.16-.56-3.38-1.53-.38-1.63-.26-3.7,1.35-3.99.86-.15,1.57-.32,2.25,0Z"/>
              </g>
            </g>
          </g>
        </g>
        <g>
          <g>
            <path class="cls-68" d="M211.52,141.49c-.39-.63-.93-1.14-.85-2.37-3.35-1.55-6.74-1.97-10.12-2.26,0-2.09-3.75-.48-5.74-1.51-.12-1.22.06-2.05-.47-3.14-2.2.49-4.31-.14-6.24-.12.07-1.77-.31-3.55-.48-5.54l-4.66-.31-.17-25.24-5.02-.91-.46-6.56c-1.43-.7-2.99-.51-4.73-.73-.44-1.51-.4-4.27-.87-5.53-1.47-3.87-3.87-1.34-6.84-3.08-.53-.31-.23-1.8-.69-2.14-1.08-.78-3.92-.47-4.82-.92-.44-.22-.32-1.03-.52-1.64.81-1.57,2.3-1.43,4.05-1.67,6.11-.84,11.93-1.38,18.2-.18,1.08.21,1.86,1.57,3.05,1.4l3.5,5.73c1.98,3.24.76,7.31,1.06,11.41,1.85.17,4.22.51,5.97.05s2.42-2.41,2.57-3.84c.16-1.58,4.18-2.11,4.29-5.69l.37-12.65c1.18-.75,2.57-.16,3.94-.76,1.32-3,1.26-15.68-2.13-16.76-.9-.29-3.66.26-3.58-1.17.23-4.22.22-7.92-.67-11.86.25-.17.61-.24.66-.17,1.23.39,3.03,1.13,3.58-.35,1.94-.04,3.98.09,6.14.43.73,1.58.05,3.61,1.21,5.03.88,1.07,2.72.45,3.9,1.32-.19,2.37,1.13,4.04,2.05,5.96,2.28,4.73,1.98.4,3.78,6.74.1.35,3.92,2.86,3.91,11.9l-.04,32.98-3.51,1.15c-.57,5.33.28,10.6-.54,15.81-.29,1.82-2.95,2.41-3.64,3.97-.77,1.75-.21,4.06-1.15,5.86-.64,1.23-2.86.87-3.55,1.84-1.18,1.66-.52,3.86-.7,5.53Z"/>
            <path class="cls-156" d="M140.62,84.61c-3.15.85-6.23,1.18-9.82,1.15l-45.37-.44c-4.64-.04-8.96-.13-13.33.41-8.47,1.04-4.2,8.44-10.06,8.07-.91,2.17-.36,4.53-.93,6.55-3.17.61-6.32.2-9.2,1.34-.7,3.32-.08,6.42-.13,9.31-.07,3.6-.24,7.21-.51,10.79-1.7-.16-3.46-.08-5.48.31-.42,3.39-.29,6.52-.18,9.66-2.04,1.1-4.49.26-6.88.73l-.54,3.13c-1.72.26-3.26-.07-4.65.39-.2.14-.51.54-.38.76l-8.05.39c1.26-2.61-8.36-.89-8.18-.97-.3.14-.61.83-.63,1.16.2-2.88-4.47-.83-6.52-1.82l-.68-28.48-6.79-.21c.02-.86-.21-7.49.86-6.5.18.17.22.27.61.31,3.5.36,7.07-.59,10.86.05.87.15,1.56,1.62,3.21,1,.71-.27,2.47-.68,3.11,0l-.12,21.56,3.83.35c.43,1.44-.31,3.2.44,4.33.98.9,3.17.41,4.41.09.62-1.48-.29-3.36.71-4.55.53-.63,2.22.04,2.58-.63.55-1,.3-3.93,1.24-4.57,1.01-.68,2.76.13,3.59-.88,1.43-1.76-1.03-3.18,2.66-6.11.92-.98.14-2.96.75-4.28l4.12-.55c1.14-4.33.92-8.77,1.2-13.27l3.54-1.14c1.16-.37.21-2.7.65-4.08l4.34-.43c.98-.1,2.49.25,3.63-.3,1.13-1.23.85-3.43.98-4.92.71-.07,2.38.34,3.09-.37,2.16-2.19,3.12-4.99,3.98-7.74,1.38-.34,2.67-.62,3.87-.5.77,1.25,5.84,2.02,6.74-.48.55-1.53,1.08-3.09.96-4.59.53.12,1.2-.21,1.27-.99l.5-5.59c2.8,1.03,5.11-.46,7.04-.59,5.65-.38,11.38-.35,16.92.17.78,1.7,2.53,1.2,3.68,1.4l.63-2.09c4.46-.17,8.76-.14,13.36-.08,10.74.15,6.32,2.04,11.9,4.49,4.79,2.11,10.58,13.25,8.86,18.38-.37.45-2,.03-1.71.88Z"/>
            <path class="cls-60" d="M194.97,35.51c-4.79.8-10.27-.68-15.87.25-.81,2.45.13,5.24-1.05,7.3-1.36,2.38-4.2,3.62-5.71,5.93-.85,1.31-1.23,2.73-3.04,2.84-.81,2.74-1.89,5.1-3.26,7.64-3.24,6.01-5.44,12.3-7.73,18.48-.55-.07-.87.16-.66.48l-3.39.21c-1.42.09-2.89,0-4.35-.22,1.74-4.59,2.26-9.59,3.31-14.72l5.35-.4c.54-3.16.48-6.24.33-9.36-.83-.81-3.66,0-4.31-.5-1.88-1.44,1.97-3.36-3.77-7.57-1.11-.81-.45-3.7-.39-4.95l7.24-.21c.19-4.89.21-9.46-.17-14.35-1.14-.14-3.24.38-3.71-.92-.79-2.19.18-4.91-1.19-7-.36-.55-1.73-.38-2.1-1.01-.89-1.52-.35-3.42-1.13-5.06,2.14-1.18,3.8.34,5.35,1.27,1.89,1.13,2.3,2.46,3.32,4.33,1.41,2.58,4.05,4.33,5.93,6.72l6.3-.31c.6-2.5.27-5.04-.56-7.44-1.22-.38-2.49.39-3.34-.7-.38-.48-1.15.6-1.74-.02-.78-.82-.13-5.97-3.27-6.25-1.55-.14-3.73.68-3.8-1.15.16-1.42.17-2.86.14-4.29l11.82-.03.1,5.51,4.26,1.02c.27,1.96.12,3.75.62,5.62,1.48.18,2.87-.05,4.12.41.73,4.09.39,8.05.68,12.09l15.55.36c.22,2.18.13,4.11.11,6Z"/>
            <path class="cls-95" d="M194.97,35.51c0,.38-.02.77-.04,1.15-.14,1.88.36,3.9.47,5.64.12,1.85-1.15,4-.41,6.1-1.05.81-2.07.72-2.8,1.56.09,1.43,1.16,2.74.8,3.79-.46.25-1.66.55-1.33,1.19,1.09,2.08,2.76,1.16,2.97,2.56.76,5.05.74,10.62-.07,15.8-1.15.34-2.74-.13-3.29.48-2.42,2.7-.53,4.09-3.09,4.7-1.46.35-2.83.17-4.07.56-1.19.17-1.97-1.19-3.05-1.4-6.28-1.19-12.09-.66-18.2.18-1.75.24-3.24.1-4.05,1.67-.07-.23-.19-.47-.27-.82-.1-.39-.47-.28-.88-.26-.21-.32.11-.55.66-.48,2.29-6.19,4.49-12.47,7.73-18.48,1.37-2.54,2.45-4.9,3.26-7.64,1.81-.11,2.19-1.53,3.04-2.84,1.51-2.31,4.34-3.55,5.71-5.93,1.18-2.06.24-4.85,1.05-7.3,5.6-.93,11.08.55,15.87-.25Z"/>
            <path class="cls-132" d="M97.28,4.57c-.39,1.36.54,4.03-.92,5.16l-33.4.38c-.27,1.72-.13,3.22.06,4.65.35,2.64,6.21,1.49,7.51,2.22.05,2.58-.66,4.83-.12,6.1l-19.37-.11-.71,6.01c-1.2.26-2.56.25-3.71.13.09-.72-.3-1.04-.67-.77.27-1.5-.46-2.96.27-4.59.82-1.83-.26-4.09.41-6.41l9.77-.31c.9-.03,2.48-.46,2.5-1.49.05-2.05-.38-3.71-.02-5.36,1-.38,2.15.26,3.21-.44.82-1.51.48-3.18.46-4.69,3.64-1,19.74.38,22.71-.48,2.78-.8,5.43.3,7.73,0,1.7-.22,2.94-.08,4.29,0Z"/>
            <path class="cls-132" d="M157.71,4.53c.04,1.43.02,2.87-.14,4.29-.3.24-.51,0-.71-.13-.54-.35.08-1.03.06-1.4l-.16-2.38h-22.85c-12.42,0-24.54.35-36.63-.35l3.5-4.57c6.23.55,12,.18,18.19.19l34.57.07c1.06,0,2.04-.41,2.75.37.64.71,1.3,1.59.49,3.09-.15.28.71.65.94.8Z"/>
            <path class="cls-111" d="M19.87,49.5c-.34,1.41,0,3.07-.55,4.66-.52,1.48-2.34,1.11-3.88.93-1.08,1.55-.3,3.54-1.01,5.15-.58,1.33-2.53,1.54-3.55,2.64-1.09,1.17-1.54,4.16-.43,5.27,3.06.93,7.11-1.36,10.43-.37,1.67.5-1.04,6.57-.48,10.19l-2.54,1.13c-1.22.54-1.94,2.57-2.56,4.02-.79,1.85.27,4.09-.66,5.82-.93.78-3.14.43-4.25.4-.93-4.89.07-10.07.43-15.39-1.9-.32-3.86.21-5.45-.45-.12-4.78,2.49-8.27,4.41-12.09.76-1.52-.56-3.92,1.42-5.09,1-.59,3-1.25,3.27-2.62l.79-4.11c1.55-.44,3.27-.81,4.6-.08Z"/>
            <path class="cls-150" d="M26.39,42.75c.26-1.24.18-2.57.29-4.07.24-3.33,5.2-1.22,7.08-2.04,1.68-.74,3.41-.18,4.95-.55l-.4,6.26-11.92.41Z"/>
            <path class="cls-7" d="M203.67,42.97c-.55,1.47-2.34.74-3.58.35.78-1.57-3.54-.6-4.69-1.02-.11-1.74-.61-3.76-.47-5.64.31.22.46-.08.6-.77,2.46.3,4.92.16,7.58.81l.56,6.28Z"/>
            <path class="cls-49" d="M25.1,137.15c-1.14-.27-.69,3.49-1.21,5.4-1.15.43-2.12.16-3.08.32-.34.06-.66-.4-1.02-.28.22-.44-.19-.75-.53-.88s-.82-.14-1.12-.1c-.38.05-1.38.1-1.53-.66-.22-1.13-.37-2.74-.33-3.6.01-.33.33-1.02.63-1.16-.18.08,9.44-1.64,8.18.97Z"/>
            <path class="cls-150" d="M44.73,29.36c.37,1.78.59,3.69.36,5.78l-6.27.45c-.28-1.75-1.07-4.77,1.09-5.85,1.29-.64,3.69-.19,4.81-.38Z"/>
            <path class="cls-21" d="M25.89,43.37l-.77,5.29-4.27.27c-.42-.76-.5-1.51.54-2.58-.47-.63-.5-1.93.54-2.49,1.23-.66,2.82-.28,3.97-.49Z"/>
            <path class="cls-65" d="M62.55,5.05c.02,1.5.35,3.18-.46,4.69-1.06.7-2.21.06-3.21.44.29-1.32-.36-2.98.28-4.36.73-1.57,2.38-.5,3.39-.77Z"/>
            <path class="cls-56" d="M148.93,78.92c0,1.01-.42,2.28-.81,3.33-9.07.31-2.13.92-7.5,2.37-.29-.86,1.34-.43,1.71-.88,1.72-5.13-4.07-16.27-8.86-18.38-5.58-2.46-1.16-4.35-11.9-4.49-4.6-.06-8.9-.1-13.36.08l-.63,2.09c-1.15-.2-2.9.3-3.68-1.4-5.53-.52-11.26-.55-16.92-.17l.22-4.03,5.02-.53c.31-1.48.09-2.91.67-4.63,2.82-.03,5.7-.47,8.46-.12,1.55.2,1.91-1.14,2.85-1.3,3.91-.69,7.97.57,12.15.24.88-1.71.32-3.48.67-5.47,7.18.41,16.32-1.38,21.31,3.63.62.63.47,1.51,1.67,2.16,2.4,1.3,4.72,7.49,6.13,10.33,2.61,5.31,2.77,11.44,2.82,17.19Z"/>
            <path class="cls-125" d="M50.33,28.98l.71-6.01,19.37.11,4.65.28c-.31-2.67-.29-4.82.09-7.37,2.58-.33,4.89-.2,7.62.03-.11,2.53-.15,4.63-.55,7.14-2.16.51-4.31.43-6.62.64-.33,1.23.52,3.57-.69,4.4-2.01,1.37-4.87.7-7.06,1.84-1.62.85-3.03,1.28-5.31.92.79,3.45-.38,4.95-2.37,6.87-1.19,1.15-2.25,2.89-3.88,3.68l-.53,6.44-4.58.79c.03,1.69.02,3.01-.73,4.17l-10.81.07c-.37-1.26-.81-3.78.16-4.47l6.54-.71.58-5.71c1.13-.48,2.24-.19,3.27-.76.69-4.26,1.03-8.47.13-12.36Z"/>
            <path class="cls-67" d="M78.16,68.62c.12,1.5-.4,3.06-.96,4.59-.9,2.5-5.97,1.72-6.74.48,1.2-1.72,5.31-6.19,7.7-5.07Z"/>
            <g>
              <path class="cls-48" d="M157.58,8.82c.07,1.83,2.25,1.01,3.8,1.15,3.14.27,2.49,5.43,3.27,6.25.59.61,1.36-.47,1.74.02.85,1.1,2.11.33,3.34.7.83,2.4,1.16,4.94.56,7.44l-6.3.31c-1.88-2.39-4.52-4.14-5.93-6.72-1.02-1.87-1.42-3.2-3.32-4.33-1.55-.93-3.21-2.45-5.35-1.27.78,1.64.24,3.55,1.13,5.06.37.63,1.74.46,2.1,1.01,1.37,2.08.4,4.8,1.19,7,.47,1.31,2.56.78,3.71.92.38,4.89.36,9.46.17,14.35l-7.24.21c-.06,1.25-.71,4.14.39,4.95,5.74,4.22,1.89,6.13,3.77,7.57.65.5,3.48-.31,4.31.5.15,3.12.21,6.19-.33,9.36l-5.35.4c-1.05,5.13-1.57,10.12-3.31,14.72l-.99.5c-.05-5.75-.2-11.88-2.82-17.19-1.4-2.85-3.72-9.03-6.13-10.33-1.2-.65-1.04-1.53-1.67-2.16-4.99-5.02-14.13-3.23-21.31-3.63-.35,1.99.21,3.76-.67,5.47-4.17.34-8.24-.93-12.15-.24-.94.17-1.3,1.5-2.85,1.3-2.76-.35-5.64.09-8.46.12-.58,1.72-.36,3.15-.67,4.63l-5.02.53-.22,4.03c-1.93.13-4.24,1.62-7.04.59l-.5,5.59c-.07.78-.74,1.11-1.27.99-2.39-1.12-6.5,3.35-7.7,5.07-1.2-.12-2.49.16-3.87.5-.86,2.76-1.82,5.55-3.98,7.74-.7.72-2.37.31-3.09.37-1.12.1-2.67-.08-4.42-.14-.46,1.77-.46,3.66-.19,5.37l-4.34.43c-.44,1.38.51,3.71-.65,4.08l-3.54,1.14c-.28,4.5-.06,8.94-1.2,13.27l-4.12.55c-.61,1.31.16,3.29-.75,4.28-3.69,2.94-1.23,4.35-2.66,6.11-.83,1.02-2.58.2-3.59.88-.95.64-.7,3.57-1.24,4.57-.36.66-2.05,0-2.58.63-1,1.19-.09,3.07-.71,4.55-1.25.32-3.44.81-4.41-.09-.75-1.13-.01-2.89-.44-4.33l-3.83-.35.12-21.56c-.64-.68-2.39-.27-3.11,0-1.65.62-2.34-.85-3.21-1-3.79-.65-7.36.31-10.86-.05-.5-1.13.58-1.9.51-3,.93-.25,1.13-1.43,1.52-2.2,1.65-.14,3.08-4.12,4.58-6.09,1.11.04,3.33.39,4.25-.4.93-1.73-.13-3.97.66-5.82.62-1.45,1.34-3.48,2.56-4.02l2.54-1.13c-.56-3.62,2.15-9.69.48-10.19-3.32-.99-7.37,1.3-10.43.37-1.12-1.11-.66-4.1.43-5.27,1.02-1.1,2.97-1.31,3.55-2.64.7-1.6-.07-3.6,1.01-5.15,1.54.18,3.35.55,3.88-.93.56-1.59.21-3.26.55-4.66.48.15.52-.55.98-.58l4.27-.27.77-5.29c.04-.26-.02-.82.5-.62l11.92-.41.4-6.26.11-.49,6.27-.45c.23-2.1,0-4-.36-5.78.27-.05.52-.2,1.15-.04.5.13-.27-.61.06-.98.37-.27.76.05.67.77,1.15.12,2.52.13,3.71-.13.9,3.88.55,8.1-.13,12.36-1.03.58-2.14.29-3.27.76l-.58,5.71-6.54.71c-.97.68-.52,3.21-.16,4.47l10.81-.07c.75-1.16.76-2.49.73-4.17l4.58-.79.53-6.44c1.63-.79,2.69-2.53,3.88-3.68,1.98-1.92,3.16-3.42,2.37-6.87,2.28.36,3.69-.07,5.31-.92,2.2-1.14,5.06-.47,7.06-1.84,1.21-.83.36-3.17.69-4.4,2.32-.21,4.46-.12,6.62-.64.4-2.51.44-4.61.55-7.14-2.74-.23-5.04-.35-7.62-.03-.38,2.56-.4,4.7-.09,7.37l-4.65-.28c-.55-1.27.17-3.52.12-6.1-1.3-.73-7.16.42-7.51-2.22-.19-1.43-.32-2.93-.06-4.65l33.4-.38c1.45-1.13.52-3.81.92-5.16,12.1.7,24.21.35,36.63.35h22.85s.16,2.38.16,2.38c.02.37-.6,1.05-.06,1.4.2.13.41.37.71.13Z"/>
              <path class="cls-5" d="M5.81,95.43c-.38.78-.58,1.95-1.52,2.2-.06-1.03.46-2.12,1.52-2.2Z"/>
              <path class="cls-5" d="M43.03,65.41c-.73.69-3,.73-3.7.18-.39-1.4-.58-4.14.41-5.61.91-1.23,4.05-.52,5.58-.39-.17,2.34-.74,4.35-2.29,5.82Z"/>
              <path class="cls-142" d="M29.12,94.49c-.75,1.22-2.99.81-4.02.5-.27-1.79-.13-3.13.18-5.01,1.04-.16,3.05-.84,3.91.22.64.79.58,3.23-.07,4.3Z"/>
            </g>
            <path class="cls-30" d="M59.52,82.3c-.12,1.49.16,3.69-.98,4.92-1.14.55-2.65.2-3.63.3-.28-1.71-.27-3.6.19-5.37,1.75.06,3.3.25,4.42.14Z"/>
            <path class="cls-110" d="M200.09,43.32c-.05-.07-.41,0-.66.17.89,3.94.9,7.64.67,11.86-.08,1.43,2.68.88,3.58,1.17,3.39,1.08,3.45,13.76,2.13,16.76-1.36.6-2.76.01-3.94.76l-.37,12.65c-.11,3.57-4.13,4.11-4.29,5.69-.15,1.43-.77,3.37-2.57,3.84s-4.12.12-5.97-.05c-.31-4.1.91-8.18-1.06-11.41l-3.5-5.73c1.24-.4,2.61-.21,4.07-.56,2.56-.61.67-2.01,3.09-4.7.55-.62,2.14-.15,3.29-.48.81-5.18.83-10.75.07-15.8-.21-1.39-1.88-.48-2.97-2.56-.33-.63.87-.94,1.33-1.19.36-1.05-.71-2.36-.8-3.79.72-.85,1.74-.75,2.8-1.56-.74-2.1.53-4.26.41-6.1,1.15.42,5.47-.55,4.69,1.02Z"/>
          </g>
          <g>
            <path class="cls-117" d="M211.52,141.49c.91,1.49,2.62,1.52,4.8,1.95,1.11,7.26,1.05,14.49.34,21.72-.33,3.4-4.05.38-4.46,5.92l-4.06.62c-.71,1.36-.16,3.34-1.22,4.48-.9.97-2.86.32-3.95.78-1.92.81,1.94,1.55-8.07,2.29l-.48,7.16-6.12.17-.64,11.12-4.41.4-.49,5.38-5.01.38-.53,5.19-5.32.75c-.51.36-.42,1.43-.89,1.87-1.57.15-3.17-.15-4.68.33l-1.01,3.77c-2.43.99-5.09-.02-7.52.48-1.19.72-.6,3.31-.86,4.8-2.31.64-4.72.53-6.94,1.01-.25.05-.5-.04-.57.27-.06.26,0,.51.05.75.04.15-.07.36-.01.48-.34-.79-16.21-.53-16.08-.55-5.47.95-26,.64-31.33.13-1.47-.14-3.03-.24-4.81.58-.84.39-1.23-.96-1.78-.87-3.64.66-7.28-.31-10.63-.11-.45-1.51-6.68-.77-8.72-1.31l-.48-5.15-8.13-.2c-.34-1.5-.23-2.94-.3-4.26.09-.41,0-.74-.5-.51-.09.04-.24-.04-.33.02.25-.75.65-1.54,1.52-1.61,2.38,1.61,7.17-.68,7.77,1.5.34,1.22-.37,3.46.81,4.16l5.89.86c.43.41.43,1.57,1.45,1.58l27.4.27,37.82-.23c.96-.45.58-2.09,1.36-2.58l5.85-.09c1.89-.03-.25-5.12,2.48-5.09,1.68.02,3.26.26,4.78-.3l.53-5.59,6.04-.32c.61-2.58.54-5.27.44-8.06l-12.45-.51-1.59-4.16c-.39-1.03,1.34-7.34,1.77-8.32,13.53.14,10.25-1.2,15.82-2.94,1.31-.41,1.38-3.19,3.27-3.59,1.19-.25,3.06-.06,3.8-1.01,1-1.29.64-3.15,1.47-4.67,1.5-.23,3.12-.46,4.56-.34,2.93.24,5.97,1.03,9.02-.02l1.25-3.96c.46-1.47,2.94-.98,4.06-1.65l1.17-11.29c.15-1.44,3.17-.5,4.11.51,1.54-1.03.77-2.58.48-3.93-.66-3.09-8.64-2.08-11.26-2.19-.06,1.13-.47,1.04-.86.31l.29-5.84,4.81-.37c.34-1.9.26-3.45.3-4.99,3.38.29,6.78.71,10.12,2.26-.08,1.22.46,1.74.85,2.37Z"/>
            <path class="cls-130" d="M149.47,223.56c.25.5-.04,1.12.06,1.6-.66-.04-1.02.59-1.39,1.03-4.48-1.08-8.61-4.33-11.12-1.59l-3.66.63-.76,8.62c-4.37,2.55-2.47-.09-4.11,5.05l-4.16.25c-.21,2.03-.08,3.95-.6,5.74-.11.39-.56.62-.59,1.02-1.21.11-2.46-.03-3.93.26l-1.03,4.83c-.2.93-.88,1.48-1.66,1.55-2.23.22-2.21-4.54-2.73-6.69-1.71-.16-3.02-.21-4.39-.78l-.48-6.16c-1.04-.63-2.21-.11-3.4-.38-1.57-.35-2.02-2.06-2.01-3.66l-2.62-1.58-.3-7.8c-1.56-.49-3.04-1.14-4.51-1.47s-3.87-.29-5.52-.23c-1.83,1.21-3.62,2.36-5.73,1.81.15-.95-.22-1.92,0-2.87,3.35-.19,6.99.78,10.63.11.54-.1.94,1.26,1.78.87,1.78-.83,3.34-.73,4.81-.58,5.33.52,25.86.82,31.33-.13-.14.02,15.74-.24,16.08.55Z"/>
            <path class="cls-1" d="M32.15,147.65l6.05.06c.09.58.1,1.97.8,2.19,1.34.43,6.18,4.25,6.3,7.62l.4,11.34c.02.55.04,1.07.21,1.45.08.17.56.04.73.2,0,.78-.69.02-1.15.31v15.52s-7.04-.05-7.04-.05c-.34-2.37.24-4.93-.41-7.2-2.34-1.08-5.35.61-6.9-1.47.71-.24.75-1.33,1.01-1.92,1.93-.02,3.76.4,6.04.25.15-1.84.73-4.21-.28-5.6-6.85-.52-1.19-4.4-7.43-5.95l-.38-10.95c-1.4-.6-2.56-.1-4.43.08-.11-1.22-.67-4.19.63-4.84,1.84-.92,4.09-1.04,5.86-1.02Z"/>
            <path class="cls-66" d="M20.81,142.88c-.21,7.5-.26,15.04.07,22.73.03.73,1.97.62,2.51.69,2.23.28-.16,5.14,3.62,4.74,4.04-.42,1.72,4.68,5.14,4.65-.27.59-.3,1.68-1.01,1.92-1.34-1.8-4.13-.55-5.1-1.89s-.28-3.09-1.27-4.37-2.34,1.39-4.27-3.74c-1.23-.5-2.47-.16-3.71-.89-.52-4.21-1.78-21.84,1.41-23.85.53-.34,1.04-.08,1.6-.26.36-.12.67.34,1.02.28Z"/>
            <path class="cls-55" d="M51.26,175.06c-1.94,6.81-.05,14.45-.95,21.74-.2.49-.78.31-1.12.6-5.25-.74-1.38-4.78-3.56-9.91.62-.65.59-1.15-.15-1.17v-15.52c.48-.28,1.16.47,1.16-.31l3.95.16.67,4.4Z"/>
            <path class="cls-124" d="M67.9,209.72c-.87.06-1.27.86-1.52,1.61-1.69,1.09-3.46-.43-4.4-1.49-1.51-1.71-4.44-.29-5.13-1.33s-1.43-3.85-1.05-4.53c3.82-.27,7.72.12,11.79.59l.31,5.16Z"/>
            <path class="cls-66" d="M55.45,203.59c-1.56.05-3.12,0-4.91-.26-.5-2.3.53-5.65-1.35-5.92.34-.29.92-.11,1.12-.6.97,1.3,3.14.37,4.74.9,1.08,1.41.4,4.3.4,5.89Z"/>
            <path class="cls-5" d="M19.79,142.59c-.56.19-1.07-.07-1.6.26-.24-.42-.27-.81-.04-1.25.3-.04.77-.04,1.12.1s.74.44.53.88Z"/>
            <path class="cls-124" d="M67.22,211.81c-.41.28-.91-.07-.5-.51.49-.23.59.1.5.51Z"/>
            <path class="cls-16" d="M154.27,78.64c-.05.82-.13,2.59-1.14,2.83l-3.65.86c-.22,2.25-1.61,4.21-4.3,3.78-2.97,2.52-6.36,3.79-10.01,4.38-4.95.8-3.79,2.8-10.08,2.84l-56.36.35c-1.92,1.45-1.53,4.42-3.1,5.75-1.69,1.44-2.93,3.29-4.5,4.8-1.1,1.06-3.39.99-3.4,3.36-6.02,1.29-3.11,2.47-5.96,3.41.06-2.9-.57-5.99.13-9.31,2.87-1.14,6.02-.73,9.2-1.34.58-2.02.03-4.37.93-6.55,5.86.37,1.59-7.03,10.06-8.07,4.37-.54,8.69-.45,13.33-.41l45.37.44c3.59.03,6.67-.3,9.82-1.15,5.37-1.44-1.56-2.06,7.5-2.37.39-1.05.82-2.31.81-3.33l.99-.5c1.46.21,2.93.31,4.35.22Z"/>
            <path class="cls-93" d="M124.58,160.51c-3.09-2.26-7.29-2.07-11.35-1.4-1.77.29-3.28,1.48-4.91.86.12-1.29-.56-3.13.36-4.52,2.3-3.49,12.14-4.02,15.23-.25,1.24,1.52.57,3.79.67,5.3Z"/>
            <g>
              <path class="cls-123" d="M124.58,160.51l.19,2.83c.53.81,2.24.54,3.1,1.18l1.36,5.38c.31,1.22,2.65.91,3.01,2.21.31,1.16.42,2.17.87,2.98.59,1.07,2.72.6,3.2,1.29,1.34,1.9,2.28,3.28,4.42,4.38,1.35.69,2.34,1.92,4.21,1.94l13.33.14c-.43.98-2.17,7.29-1.77,8.32l1.59,4.16,12.45.51c.11,2.79.17,5.47-.44,8.06l-6.04.32-.53,5.59c-1.52.56-3.1.31-4.78.3-2.74-.03-.59,5.07-2.48,5.09l-5.85.09c-.78.49-.4,2.13-1.36,2.58l-37.82.23-27.4-.27c-1.02-.01-1.02-1.17-1.45-1.58l-5.89-.86c-1.19-.7-.48-2.94-.81-4.16-.6-2.17-5.39.12-7.77-1.5l-.31-5.16c-4.07-.47-7.97-.86-11.79-.59.09-.17-.3-.28-.35-.38,0-1.58.68-4.48-.4-5.89-1.6-.52-3.77.4-4.74-.9.9-7.29-.99-14.93.95-21.74.36,1.24,1.92.85,3.1,1.18,1.9.54,3.42,4.18,9.31,6.03,7.98.97,15.82.32,23.72.5,2.17.05,2.99-1.36,4.39-2.23,1.65-1.03,3.86-2.02,4.37-4.02,6.54-1.52.74-2.23,6.67-6.32,1.54-1.06,1.12-3.68,1.65-5.42,1.14-.71,2.36-.49,3.58-.8.22-1.37.15-2.71.27-4.01,1.63.62,3.14-.57,4.91-.86,4.06-.67,8.25-.86,11.35,1.4Z"/>
              <path class="cls-158" d="M129.39,195.41l-25.81-.13c-.4-1.77-.17-3.19.23-4.82h25.45c.67,1.57.6,3.1.14,4.95Z"/>
              <path class="cls-146" d="M120,169.84c1.27,2.1,1.63,5.53.35,7.66-1,1.67-9.74,1.39-10.99-.68-1.53-2.53-1.02-6.34-.36-9.12.83-1.1,3.31-1.52,4.6-1.4-.1,2.44-1.34,5.15.13,7.43.77,1.2,3.43.32,4.49.18.97-1.27.13-2.84,1.78-4.07Z"/>
              <path class="cls-20" d="M101.41,187.7c-.1,1.07.16,1.82-.5,2.17-.4.21-1.18.49-1.67.1-.34-.27-.52-3.64.35-3.85,1.03-.25,1.97.09,1.83,1.57Z"/>
            </g>
            <path class="cls-14" d="M188.1,132.1c-5.21.06-10.43-.14-15.93-.35l-14.98-.59c.03-.29-.1-.63.02-.82.3-.52.99-.03,1.49-.05l11.54-.44c.5-2.48.05-4.77.35-6.97,1.51,1.17.91-15.05.82-16.07-.08-.95-.92-1.74-.83-3.06.23-3.43-.56-16.49,1.11-16.47.48,1.26.43,4.02.87,5.53,1.74.22,3.3.03,4.73.73l.46,6.56,5.02.91.17,25.24,4.66.31c.18,1.99.56,3.77.48,5.54Z"/>
            <path class="cls-136" d="M33.15,136.76c.25,1.76-.41,3.61.14,5.34.48,1.53-1.14.88-1.14,5.54-1.77-.02-4.02.1-5.86,1.02-1.3.65-.75,3.62-.63,4.84,1.87-.17,3.03-.68,4.43-.08l.38,10.95c6.24,1.55.58,5.42,7.43,5.95,1.01,1.39.44,3.76.28,5.6-2.28.15-4.11-.27-6.04-.25-3.42.03-1.1-5.07-5.14-4.65-3.77.4-1.39-4.47-3.62-4.74-.54-.07-2.48.04-2.51-.69-.33-7.69-.27-15.23-.07-22.73.95-.16,1.92.11,3.08-.32.52-1.91.07-5.67,1.21-5.4l8.05-.39Z"/>
            <path class="cls-119" d="M51.26,121.79c-.1,1.26.41,3.33-.27,4.53-.97,1.31-1.79,2.77-2.11,4.51-.1.52-2.19.21-1.64,1.23-.51.01-1.39.38-1.64-.3-.11-3.13-.24-6.27.18-9.66,2.03-.39,3.78-.47,5.48-.31Z"/>
            <path class="cls-129" d="M187.17,170.28l.88-13.78c.11-1.72,1.21-2.59,2.1-3.67,4.41-5.33,2.9.18,4.99-4.75.39.73.8.81.86-.31,2.62.11,10.59-.9,11.26,2.19.29,1.35,1.06,2.9-.48,3.93-.94-1.01-3.96-1.95-4.11-.51l-1.17,11.29c-1.12.67-3.6.18-4.06,1.65l-1.25,3.96c-3.05,1.05-6.09.26-9.02.02Z"/>
            <path class="cls-94" d="M38.2,147.71l-6.05-.06c0-4.66,1.62-4.01,1.14-5.54,1.5-.14,3.08-.1,4.78.19.04,1.79-.08,4.08.13,5.41Z"/>
            <path class="cls-148" d="M170.58,122.88c-.29,2.2.15,4.49-.35,6.97l-11.54.44c-.49.02-1.18-.48-1.49.05-.11.19.02.53-.02.82-1.67-.07-3.43-.1-5.1-.09,2.04-2.01-12.58-.12-15.21-1.41-.13-3.5-.45-6.81.32-10.13,11.46-.5,22.15-.57,33.05.3.22,1.27.44,2.18.33,3.05Z"/>
            <g>
              <path class="cls-126" d="M157.66,78.43c.41-.03.78-.13.88.26.09.35.2.59.27.82.2.61.08,1.42.52,1.64.9.45,3.74.13,4.82.92.46.33.16,1.83.69,2.14,2.96,1.74,5.37-.79,6.84,3.08-1.67-.03-.89,13.04-1.11,16.47-.09,1.32.75,2.11.83,3.06.09,1.02.68,17.24-.82,16.07.12-.86-.1-1.78-.33-3.05-10.9-.87-21.59-.81-33.05-.3-.77,3.32-.45,6.64-.32,10.13,2.63,1.29,17.25-.6,15.21,1.41l-9.86.07c-2.56.02-4.14,1.44-6.16,2.62-1.31.77-2.54.64-2.58,2.63-.03,1.63-1.78,2-3.11,2.34-1.17.3-.69,1.99-1.17,2.74-2.49,3.92-.85,5.81-2.44,5.59-7.29-1.02-14.24-.82-21.54,0-1.89-12.62-4.57-6.76-5.35-9.05l-.97-2.83c-.94-2.77-5.59-4.06-8.95-3.99l-42.72.86c-.55-1.02,1.55-.71,1.64-1.23.32-1.73,1.14-3.2,2.11-4.51.68-1.2.17-3.28.27-4.53.28-3.57.44-7.19.51-10.79,2.85-.94-.06-2.12,5.96-3.41.01-2.37,2.3-2.3,3.4-3.36,1.57-1.51,2.8-3.36,4.5-4.8,1.57-1.33,1.18-4.3,3.1-5.75l56.36-.35c6.28-.04,5.13-2.03,10.08-2.84,3.65-.59,7.04-1.86,10.01-4.38,2.69.42,4.09-1.53,4.3-3.78l3.65-.86c1.02-.24,1.1-2.01,1.14-2.83l3.39-.21Z"/>
              <path class="cls-8" d="M84.33,130.06c-5.9-.3-13.86.28-17.49-.92-1.53.22-2.71.43-4.4.22-.17-3.31-.16-6.37.18-9.71,11.29-.74,22.3-.69,33.6-.07.43,3.39.32,6.29.15,9.69-3.91,1.09-7.87,1-12.04.78Z"/>
            </g>
            <g>
              <path class="cls-78" d="M152.08,131.06c1.67-.01,3.43.02,5.1.09l14.98.59c5.5.22,10.72.41,15.93.35,1.93-.02,4.04.61,6.24.12.54,1.09.35,1.92.47,3.14,1.98,1.02,5.74-.58,5.74,1.51-.04,1.54.04,3.09-.3,4.99l-4.81.37-.29,5.84c-2.08,4.93-.58-.58-4.99,4.75-.89,1.08-2,1.95-2.1,3.67l-.88,13.78c-1.44-.12-3.06.11-4.56.34-.82,1.51-.46,3.38-1.47,4.67-.74.95-2.61.76-3.8,1.01-1.89.4-1.96,3.18-3.27,3.59-5.57,1.74-2.28,3.08-15.82,2.94l-13.33-.14c-1.87-.02-2.86-1.25-4.21-1.94-2.14-1.1-3.08-2.47-4.42-4.38-.48-.69-2.62-.22-3.2-1.29-.45-.81-.55-1.82-.87-2.98-.35-1.3-2.7-.99-3.01-2.21l-1.36-5.38c-.86-.64-2.57-.36-3.1-1.18l-.19-2.83c-.1-1.52.57-3.79-.67-5.3-3.08-3.77-12.92-3.23-15.23.25-.92,1.39-.23,3.22-.36,4.52s-.05,2.65-.27,4.01c-1.22.31-2.44.1-3.58.8-.53,1.73-.11,4.35-1.65,5.42-5.93,4.09-.13,4.8-6.67,6.32-.5,2-2.72,2.99-4.37,4.02-1.4.87-2.21,2.28-4.39,2.23-7.91-.18-15.74.47-23.72-.5-5.89-1.85-7.41-5.49-9.31-6.03-1.18-.34-2.75.06-3.1-1.18l-.67-4.4-3.95-.16c-.17-.16-.65-.02-.73-.2-.18-.38-.19-.89-.21-1.45l-.4-11.34c-.12-3.36-4.96-7.18-6.3-7.62-.7-.23-.71-1.61-.8-2.19-.21-1.33-.09-3.62-.13-5.41-1.71-.29-3.29-.33-4.78-.19-.55-1.73.12-3.58-.14-5.34-.13-.22.18-.63.38-.76,1.39-.45,2.93-.12,4.65-.39l.54-3.13c2.4-.47,4.84.37,6.88-.73.25.68,1.13.31,1.64.3l42.72-.86c3.35-.07,8.01,1.22,8.95,3.99l.97,2.83c.78,2.29,3.46-3.57,5.35,9.05,7.3-.82,14.26-1.01,21.54,0,1.59.22-.05-1.67,2.44-5.59.48-.75,0-2.44,1.17-2.74,1.33-.34,3.08-.72,3.11-2.34.04-1.99,1.27-1.85,2.58-2.63,2.02-1.19,3.6-2.61,6.16-2.62l9.86-.07Z"/>
              <g>
                <path class="cls-34" d="M96.67,145.54c-2.29-.14-3.4-4.32-6.56-3.51-2.65-3.2-8.33-3.11-12.51-2.79-6.26.47-7.96,1.48-10.01,6.74-.89-.52-4.37-.9-4.57.4-1.04,7.3-.25,14.37-.68,21.75-.06,1.11,2.31,1.35,3.28,1.2,3.34-.51,4.29,3.13,7.75,5.32,1.92,1.22,4.85-.47,6.75.91.45.32.94.27,1.46.4.19.05.42.27.22.6-5.4.24-10.88.09-16.55,0-1.84-.03-2.68-.68-3.35-2.47-.39-1.05-2.43-.52-3.45-.82-1.37-.41-.71-2.34-1.4-3.5-.47-.8-1.99-.16-2.19-1.19-.11-.57-.07-1.6-.43-2.27-.63-1.19-2.37-.65-3.2-1.59-.18-5.91-.44-11.64.11-17.51.1-1.04,2.25-.82,2.86-1.33,1.65-6.91,7.9-5.2,8.18-6.36l.41-1.65c4.56-.6,9.13-.14,13.82-.14h13.89c.38,4.99,4.94,2.33,5.43,4.89.21,1.08.2,2.1.75,2.93Z"/>
                <path class="cls-128" d="M149.83,176.47c-.2-.26-.19-.61.02-.86l7.48-.05c3.01-7.23,4.57-4.1,6.6-6.66,1.44.31,4.16.35,5.63-.51,1.39-2.51.48-5.71.48-8.29v-11.42c0-1.06-.28-2.72-1.49-2.85l-2.6-.28c.7-7.36-10.66-6.23-16.47-6.12.51-1.33-1.47.31-2.26-1.23-.09-.17-.03-.31.02-.6,2.85-.27,5.79.25,8.9.21l13.94-.18c-.86,6.1,7.17-.55,8.12,7.85l3.36,1.66c-.32,3.34,1.38,18.17-1.89,18.17-2.16,0-2.11,1.48-2.93,2.93-.67,1.17-1.84,2.13-2.28,3.48l-3.71,1.4c-.71.27-.18,1.95-.88,2.43-2.09,1.43-16.7.82-20.03.9Z"/>
                <path class="cls-138" d="M147.24,137.61c-.05.3-.11.43-.02.6.79,1.54,2.77-.1,2.26,1.23-1.72.03-4.91,1.86-5.37,3.46-.7,2.43-.83,4.61-.78,6.78l.4,16.08c-.7,1.37-.36,3.54,1.14,4.28,1.14.56,2.93-.35,4.04.43,1.47,1.04-1.21,5.47.94,5.15-.21.25-.22.6-.02.86-2.61-.06-5.18.13-7.61-.81-.3-1.06.09-2.18-.46-2.84-.63-.76-2.23.22-3.03-.5-.86-.78-.91-2.17-1.54-3.2-2.7-.22-3.93-2.3-4.15-4.94-.44-5.35-.39-10.61-.05-16,.11-1.7,1.55-2.57,2.88-3.19.68-.9.4-2.33,1.07-3.07.88-.96,2.46-.8,3.58-1.27s1.14-2.27,2.11-2.83c1.38-.79,3.22-.09,4.61-.22Z"/>
                <path class="cls-155" d="M67.59,145.98l.11,5.96c.06,2.97-.45,11.36,1.12,13.09.25.28.65-.17,1.06.08.36.22,1.38-.1,1.51.66.2,1.19-.21,3.42.95,3.83,4.63,1.64,9.02.89,13.32.6,1.56-.11,3.81.65,4.89-.82,1.22-1.68,1.79-4.37,3.76-5.67,4.53-2.98,2.84-4.89,4.34-13.43.31-1.77.22-3.09-.88-4.21.34.17,1.3-.24,1.53.32.74,1.84.43,12.97.19,16.26-.21,2.92-1.41,5.13-3.9,6.66-1.05.64-1.2,2.47-2.41,3.03-.8.37-2.22-.08-2.66.73-.48.89-.32,2.26-.99,2.35l-2.5.34c-2.03.27-3.49.71-5.2.79.2-.33-.03-.55-.22-.6-.52-.12-1.01-.07-1.46-.4-1.9-1.38-4.82.31-6.75-.91-3.46-2.19-4.42-5.82-7.75-5.32-.97.15-3.35-.1-3.28-1.2.43-7.37-.36-14.45.68-21.75.19-1.3,3.67-.92,4.57-.4Z"/>
                <path class="cls-86" d="M96.67,145.54c.46.03.82.3,1.09.52,1.1,1.12,1.19,2.44.88,4.21-1.5,8.54.19,10.45-4.34,13.43-1.96,1.29-2.54,3.99-3.76,5.67-1.07,1.48-3.32.72-4.89.82-4.29.29-8.69,1.04-13.32-.6-1.16-.41-.75-2.64-.95-3.83-.13-.76-1.14-.44-1.51-.66,2.67-2.37,2.46-5.27,6.29-4.57-.82,1.85-2.18,2.77-2.69,4.75,4.3.51,8.45.78,12.59.16,6.51-.99,3.59-19.07,4.04-23.41,3.16-.81,4.28,3.36,6.56,3.51Z"/>
                <path class="cls-6" d="M45.5,140.98l-2.7.35c-.87.11-.74-1.41-1.7-1.42-.67,0-1.34.08-1.6-.16-2.19-2.01,4.86-2.06,6.46-1.5.67.24.45,2.61-.46,2.72Z"/>
                <path class="cls-26" d="M190.62,140.77c-1.37.53-2.95.36-4.5.3-.19-1.13-.35-1.93-.27-3.01,2-.26,3.66-.11,5.77-.04-.06.98-.29,2.47-1.01,2.75Z"/>
                <path class="cls-73" d="M163.93,168.91c.94-1.19,1.84-2.17,1.84-3.62,0-1.56.7-3.14.7-4.73,1.24.03,2.43.08,3.57-.45,0,2.57.91,5.78-.48,8.29-1.47.86-4.19.82-5.63.51Z"/>
                <g>
                  <path class="cls-85" d="M90.11,142.04c-.45,4.34,2.46,22.42-4.04,23.41-4.14.63-8.29.35-12.59-.16.51-1.98,1.88-2.9,2.69-4.75-3.83-.7-3.62,2.19-6.29,4.57-.41-.25-.8.2-1.06-.08-1.57-1.73-1.07-10.11-1.12-13.09l-.11-5.96c2.05-5.26,3.75-6.26,10.01-6.74,4.18-.32,9.86-.41,12.51,2.79Z"/>
                  <path class="cls-135" d="M74.16,151.7c-1.16,1.05-4.28,1.1-5.49.14s-.97-4.72.14-5.69,4.3-.88,5.41.24,1.28,4.08-.06,5.31Z"/>
                  <path class="cls-18" d="M89.24,149.26c-.76,1.25-3.52,1.06-3.91.78-.42-.3-.65-.94-.39-1.58.48-1.18,4.87-.91,3.93-1.07.91.16.69,1.36.38,1.87Z"/>
                </g>
                <g>
                  <path class="cls-40" d="M165.77,165.29c0,1.45-.9,2.43-1.84,3.62-2.03,2.56-3.59-.57-6.6,6.66l-7.48.05c-2.15.32.54-4.11-.94-5.15-1.11-.79-2.9.12-4.04-.43-1.51-.73-1.85-2.91-1.14-4.28l19.26-.22c1-.01,1.94,0,2.78-.24Z"/>
                  <path class="cls-82" d="M170.04,160.11c-1.14.53-2.34.48-3.57.45v-6.78c.01-.8-.06-1.41-.43-1.96.61-2.11.79-4.32-.63-6.09.17-.05.34-.19.54-.17l2.6.28c1.21.13,1.5,1.79,1.5,2.85v11.42Z"/>
                  <g>
                    <path class="cls-3" d="M165.95,145.57c-.2-.02-.38.11-.54.17-1.21.38-3.3-.61-4.62.51-1.05.91-1.16,4.26-.16,5.35,1.36,1.48,3.89.7,5.41.23.38.55.45,1.16.45,1.96v6.78c-.01,1.59-.71,3.17-.71,4.73-.84.24-1.78.23-2.78.24l-19.26.22-.4-16.08c-.05-2.17.08-4.35.78-6.78.46-1.6,3.65-3.43,5.37-3.46,5.81-.1,17.17-1.23,16.47,6.12Z"/>
                    <path class="cls-37" d="M149.91,151.58c-1.07,1.21-4.43,1.24-5.53.2-1.51-1.44.06-3.44-.16-5.49,1.31-.84,3.94-1.31,5.59.07,1.07.89,1.26,3.92.1,5.23Z"/>
                  </g>
                  <path class="cls-37" d="M165.41,145.73c1.42,1.77,1.23,3.98.63,6.09-1.52.46-4.06,1.25-5.41-.23-1-1.09-.88-4.44.16-5.35,1.32-1.13,3.41-.13,4.62-.51Z"/>
                </g>
              </g>
            </g>
          </g>
        </g>
      </g>
    </g>
  </g>
</svg>