<?xml version="1.0" encoding="UTF-8"?>
<svg id="_レイヤー_2" data-name="レイヤー 2" xmlns="http://www.w3.org/2000/svg" viewBox="0 0 261.69 512">
  <defs>
    <style>
      .cls-1 {
        fill: #7d6b7c;
      }

      .cls-2 {
        fill: #72576b;
      }

      .cls-3 {
        fill: #fefeff;
      }

      .cls-4 {
        fill: #dba099;
      }

      .cls-5 {
        fill: #e0b585;
      }

      .cls-6 {
        fill: #b8bbd6;
      }

      .cls-7 {
        fill: #f0f2f8;
      }

      .cls-8 {
        fill: #daa29c;
      }

      .cls-9 {
        fill: #fdfeff;
      }

      .cls-10 {
        fill: #d99f9b;
      }

      .cls-11 {
        fill: #c9cce2;
      }

      .cls-12 {
        fill: #876a73;
      }

      .cls-13 {
        fill: #add1e3;
      }

      .cls-14 {
        fill: #f5d09e;
      }

      .cls-15 {
        fill: #fdfefe;
      }

      .cls-16 {
        fill: #675f78;
      }

      .cls-17 {
        fill: #dfa8a2;
      }

      .cls-18 {
        fill: #fbfcfe;
      }

      .cls-19 {
        fill: #e4c1b5;
      }

      .cls-20 {
        fill: #f8fafd;
      }

      .cls-21 {
        fill: #8c91b3;
      }

      .cls-22 {
        fill: #d99a98;
      }

      .cls-23 {
        fill: #bcbfd9;
      }

      .cls-24 {
        fill: #826570;
      }

      .cls-25 {
        fill: #f6deca;
      }

      .cls-26 {
        fill: #f6f9fc;
      }

      .cls-27 {
        fill: #b6b7d2;
      }

      .cls-28 {
        fill: #f4f6fb;
      }

      .cls-29 {
        fill: #f4d4c2;
      }

      .cls-30 {
        fill: #bb9489;
      }

      .cls-31 {
        fill: #af8fa8;
      }

      .cls-32 {
        fill: #f6db9f;
      }

      .cls-33 {
        fill: #ad8881;
      }

      .cls-34 {
        fill: #66556f;
      }

      .cls-35 {
        fill: #6a6f8d;
      }

      .cls-36 {
        fill: #d8def0;
      }

      .cls-37 {
        fill: #aea9bc;
      }

      .cls-38 {
        fill: #918da2;
      }

      .cls-39 {
        fill: #b2afd0;
      }

      .cls-40 {
        fill: #4c4666;
      }

      .cls-41 {
        fill: #f5dbc6;
      }

      .cls-42 {
        fill: #fae5d2;
      }

      .cls-43 {
        fill: #daa299;
      }

      .cls-44 {
        fill: #5f6183;
      }

      .cls-45 {
        fill: #fbfdfc;
      }

      .cls-46 {
        fill: #514364;
      }

      .cls-47 {
        fill: #977;
      }

      .cls-48 {
        fill: #f7e3b4;
      }

      .cls-49 {
        fill: #e49c84;
      }

      .cls-50 {
        fill: #987778;
      }

      .cls-51 {
        fill: #f8f0d1;
      }

      .cls-52 {
        fill: #795e6f;
      }

      .cls-53 {
        fill: #f7e5a4;
      }

      .cls-54 {
        fill: #c9cfe6;
      }

      .cls-55 {
        fill: #8b6b72;
      }

      .cls-56 {
        fill: #eec5b6;
      }

      .cls-57 {
        fill: #545579;
      }

      .cls-58 {
        fill: #626185;
      }

      .cls-59 {
        fill: #cfd2e5;
      }

      .cls-60 {
        fill: #fafbfd;
      }

      .cls-61 {
        fill: #59496a;
      }

      .cls-62 {
        fill: #ecbdb0;
      }

      .cls-63 {
        fill: #f9fbfd;
      }

      .cls-64 {
        fill: #6a576f;
      }

      .cls-65 {
        fill: #f0ccbe;
      }

      .cls-66 {
        fill: #f9f8dc;
      }

      .cls-67 {
        fill: #806470;
      }

      .cls-68 {
        fill: #dfe4f3;
      }

      .cls-69 {
        fill: #7b758a;
      }

      .cls-70 {
        fill: #987677;
      }

      .cls-71 {
        fill: #dde7f4;
      }

      .cls-72 {
        fill: #db9d98;
      }

      .cls-73 {
        fill: #7586b1;
      }

      .cls-74 {
        fill: #e2ae9f;
      }

      .cls-75 {
        fill: #e3b0a7;
      }

      .cls-76 {
        fill: #c0c3dc;
      }

      .cls-77 {
        fill: #71586c;
      }

      .cls-78 {
        fill: #a7a8cb;
      }

      .cls-79 {
        fill: #bb978a;
      }

      .cls-80 {
        fill: #f4d5c3;
      }

      .cls-81 {
        fill: #bec0d4;
      }

      .cls-82 {
        fill: #594868;
      }

      .cls-83 {
        fill: #f7e4d4;
      }

      .cls-84 {
        fill: #97b6d2;
      }

      .cls-85 {
        fill: #fcfdfe;
      }

      .cls-86 {
        fill: #f2f4f9;
      }

      .cls-87 {
        fill: #7c6a7b;
      }

      .cls-88 {
        fill: #d99a97;
      }

      .cls-89 {
        fill: #f4d3c2;
      }

      .cls-90 {
        fill: #e7b6aa;
      }

      .cls-91 {
        fill: #807c8f;
      }

      .cls-92 {
        fill: #4e4768;
      }

      .cls-93 {
        fill: #b89388;
      }

      .cls-94 {
        fill: #c9c9e5;
      }

      .cls-95 {
        fill: #71728b;
      }

      .cls-96 {
        fill: #f6d9c6;
      }

      .cls-97 {
        fill: #896a72;
      }

      .cls-98 {
        fill: #99b5d5;
      }

      .cls-99 {
        fill: #866871;
      }

      .cls-100 {
        fill: #a2a1c5;
      }

      .cls-101 {
        fill: #efb580;
      }

      .cls-102 {
        fill: #f6e8b7;
      }

      .cls-103 {
        fill: #90b2cd;
      }

      .cls-104 {
        fill: #fbfcfd;
      }

      .cls-105 {
        fill: #514363;
      }

      .cls-106 {
        fill: #6e6f88;
      }

      .cls-107 {
        fill: #e9b8ac;
      }

      .cls-108 {
        fill: #c9c3e1;
      }

      .cls-109 {
        fill: #666580;
      }

      .cls-110 {
        fill: #585676;
      }

      .cls-111 {
        fill: #bac0dc;
      }

      .cls-112 {
        fill: #bf8994;
      }

      .cls-113 {
        fill: #726178;
      }

      .cls-114 {
        fill: #a17b87;
      }

      .cls-115 {
        fill: #c6a192;
      }

      .cls-116 {
        fill: #c5b3a6;
      }

      .cls-117 {
        fill: #cca79e;
      }

      .cls-118 {
        fill: #d0d4e7;
      }

      .cls-119 {
        fill: #dda99c;
      }

      .cls-120 {
        fill: #93a0c3;
      }

      .cls-121 {
        fill: #f7db97;
      }

      .cls-122 {
        fill: #f4d3c0;
      }

      .cls-123 {
        fill: #6c657c;
      }

      .cls-124 {
        fill: #6e7592;
      }

      .cls-125 {
        fill: #856871;
      }

      .cls-126 {
        fill: #ced2e5;
      }

      .cls-127 {
        fill: #565475;
      }

      .cls-128 {
        fill: #f2da9c;
      }

      .cls-129 {
        fill: #e9cfc3;
      }

      .cls-130 {
        fill: #d49999;
      }

      .cls-131 {
        fill: #a4c7dc;
      }

      .cls-132 {
        fill: #575272;
      }

      .cls-133 {
        fill: #f9e3d0;
      }

      .cls-134 {
        fill: #f8e7d2;
      }

      .cls-135 {
        fill: #dea9a1;
      }

      .cls-136 {
        fill: #aeb0cf;
      }

      .cls-137 {
        fill: #f5dac5;
      }

      .cls-138 {
        fill: #8e6f73;
      }

      .cls-139 {
        fill: #e9f1f9;
      }

      .cls-140 {
        fill: #e0aaa1;
      }

      .cls-141 {
        fill: #fdfdfe;
      }

      .cls-142 {
        fill: #b28d84;
      }

      .cls-143 {
        fill: #807c90;
      }

      .cls-144 {
        fill: #d1dcec;
      }

      .cls-145 {
        fill: #dfe5f4;
      }

      .cls-146 {
        fill: #aba7ca;
      }
    </style>
  </defs>
  <g id="_レイヤー_1-2" data-name="レイヤー 1">
    <g id="_生成オブジェクト" data-name="生成オブジェクト">
      <path class="cls-81" d="M145.48,493.99c1.16,1.01.33,3.1.85,4.67.7,2.08,1.94,3.67,2.89,5.9l60.44-.18c2.91,0,2.94-7.04,2.89-7.99l28.5.71c.36.76.14,1.84.98,1.96,6.45.88,12.69.53,19.03,2.06.89.22.75,3.4-.04,4.01l-15.44,1.23c-2.37.19-4.11.62-4.91,3.04l-33.98,1.1-5.16.77-88.36.71c-19.47.16-38.24-.35-57.37-1.09l-40.35-1.58c-1.1-.04-1.12-2.63-1.29-3.09l-13.24-.94c-1.25-.09-1.25-4.1.1-4.41,4.56-1.04,9.01-.72,13.48-1.44.84-.14.5-1.45.84-2.15l34.11-.88c0,2.48.13,4.85,1.29,7.95h63.46c1.76-.55,1.78-3.23,2.44-4.45.89-1.64.65-3.86.52-5.73l24.3.31c1.52.02,2.83-.24,4.01-.5Z"/>
      <path class="cls-111" d="M28.21,142.07c-2.42-.6-3.84-1.93-3.54-3.93.33-2.17,2.22-3.63,4.65-2.99,2.06.55,3.03,2.29,2.76,4.17-.23,1.65-1.89,3.25-3.87,2.75Z"/>
      <path class="cls-18" d="M18.17,131.5c-.65.5-1.31.83-2.13.5-.67-.69-.76-1.07-.55-1.56.32-.75,1.49-1.16,2.02-.92.93.42.32,1.33.67,1.98Z"/>
      <path class="cls-144" d="M16.03,132.01c.82.32,1.48,0,2.13-.5.66,1.21-.48,1.23-1.22,1.17-.35-.03-1.08.16-.92-.66Z"/>
      <g>
        <g>
          <g>
            <path class="cls-2" d="M78.45,20.57c-.06.24.06.48.29.48.25,0,.76-.02.72.46-.5,5.67-.49,10.89.05,16.29l4.06.64.1,3.95c.99.62,2.48.28,3.31,1.03.92.93.09,2.63.98,4.03,2.37-.22,9.06,1.73,8.47,5.44,1.4-.09,2.99.54,4.22.06s.71-2.38.66-3.52c-.3-5.97-.3-11.54.89-17.33l7.4-.65c.81.35,2.14.5,3.36.63.5,1.3.08,2.56.76,3.54.22.33-.13.75.03,1.08-.47.76-2.07,1.18-2.37,2.29-1.17,4.42-1.09,9.09-.81,13.48.98.56,2.04-.35,2.67-.43,1.14-.14.78-1.76,1.19-2.61.86-1.78,6.94-7.32,9.52-6.55l.14-4.43c4.86-.65,9.87-1.05,15.17-1.4,1.64-.11,1.33,1.76,1.24,2.76-.22,2.4-4.99,1.11-5.96,4.88-.41,1.61-1.01,5.29-.14,5.83,2.04,1.28,9.42-.02,11.77-.58,2.66-.63,10.16,3.36,15.64,2.99.43,1.58.35,3.31.11,5.12-1.66.2-2.83-.36-4.27.31,1.85.8,3.7-.01,5.69.38,3.04.61,6.16-.06,9.54-.07,6.8-.02,13.49.69,20.07-.64,2.66-.54,2.7-4.29,2.5-6.25s2.21-1.35,3.05-1.93c1.74-1.19.98-3.47,1.27-5,1-1.28,3.18-.76,4.53-1.53,1.64-.93,1.41-3.27,1.82-4.9,1.16-.89,2.55-.78,3.67-1.17,1.15.09,1.58.96,1.61,2.3l.21,10.41c-.9,1.71-3.36.43-5.02,1.01-.98.34-1.1,3.45-.16,3.92,1.94.84,5.3.58,6.96-.46,1.51-.95,1.86-2.56,1.01-3.55,1.56.13,2.96-.41,5,0-.21,2.02.5,5.26-.82,6.74-1.61.71-6.58,3.74-6.61,5.7l-.35,20.14c-1.84.38-3.45.28-4.49,1.3-.22,5.95.52,12.35-1.18,18.21.23-.8-3.27,5.01-3.62,9.41-1.98.08-3.88-.06-6.12.28.04,2.63-.44,5.02.24,7.21-.6,1.5-.19,3.13-.25,4.7-.17,3.77.21,7.52-.22,11.71-2.12.4-4.11.06-5.96-.15l-1-53.22c-.06-3.27,1.25-6.99.18-10.8l-13.62-.31-23.63-.07c-.42-1.99-.06-3.87-.27-6.07l-31.88-.38-.79-6.03c-3.03-.61-6.01-.08-8.77-.08h-26.77c-.62,2.01-.05,3.9-.24,5.73-2.82,1.62-6.33.12-10.19.73l-.28,70.34c-2.06.83-4.01.73-6.2.44l-.25-11.33c-.04-1.74.19-3.45,0-5.21-.23-2.14.62-4.44.18-7.17l-10.61-.39c-.68-4.23-1.61-8.43-1.44-12.72,1.5.47,3.04.06,4.4-.67s1.75-2.62,1.77-4.44l.22-27.69c.36-1.14,3.19-.35,3.9-1.03,1.21-1.59.64-4.02.84-6.21,2.5-.79,5.02-.52,7.77-.54.46-1.68.62-3.45.57-5.08,3.41.27,6.86-.68,10.39-.77-.15-1.6.21-3.33-.41-4.24-3.16-2.34-7.11-6.33-8.85-10.15-.58,0-1.17.72-1.5.83-.5.17-1.02-.7-1.53-.86-2.93-.94-5.86-.54-8.71-.82-.04-1.45-.14-4.32,1.23-5.33,2.64-1.06,5.79-.27,8.83-.59.07-3.76-.15-7.26.26-10.99,1.93-.56,3.42-.26,4.87-.43Z"/>
            <path class="cls-55" d="M150.3,7.25l-26.15.44c-1.17.02-2.98-.03-3.33,1.2l-1.18,4.12c-1.49,5.23-.25,7.1-.75,12.08-.06.29-.4.57-.7.57-2.88.02-5.71,1.08-8.5,2.37.04,1.39-.33,2.39-.1,3.43l-7.4.65c-1.19,5.79-1.19,11.36-.89,17.33.06,1.15.62,3.03-.66,3.52s-2.81-.15-4.22-.06c.6-3.72-6.1-5.66-8.47-5.44-.88-1.4-.06-3.1-.98-4.03-.83-.75-2.32-.41-3.31-1.03l-.1-3.95-4.06-.64c-.54-5.4-.55-10.62-.05-16.29.04-.48-.46-.46-.72-.46-.23,0-.36-.24-.29-.48.38-.04.74.1,1.11,0,3.27-.82,5.09.98,5.4-1.25,1.42,2.34,5.25.13,6.56,1.39.94.9-.09,3,.79,3.96,1.7,1.85,2.98-3.85,3.45-4.16,1.41-.91,3.45-.07,4.97-.83,1.05-2,.86-4.28.91-6.6-6.39-.9-3.31,1.21-5.8.86.47-1.15.33-2.66.68-3.78,1.28-4.09,9.35-1.52,12.05-2.73-2.87-.65-5.32-.04-8.13-.31.2-.98-.33-1.49-.64-2.12C96.56.57,128.43.03,128.36,0l2.72,1.05s13.78-.79,18.51,2.1c.69.99.83,2.96.71,4.09Z"/>
            <path class="cls-70" d="M189.29,30.91c.01.43.21,1.07.66,1.21-.65,1.4-.65,3.71.07,5.36.42.96,3.5.78,4.1-.15.88-1.35.85-3.87.51-5.34-.16-.68.47-.83.59-1.18-.02.39.15.89.7.95,6.57.64,6.67-1.47,14.56,1.8.94,1-.81,2.65-.71,3.69-1.12.39-2.51.28-3.67,1.17-.41,1.63-.18,3.97-1.82,4.9-1.36.77-3.54.25-4.53,1.53-2.45-1.24-5.05,1.33-10.21.46-.78,1.55-.43,3.11-1.38,4.43l-7.98,2.54c-2.96.94-6.47-.18-9.74.05l-8.65.59c-5.49.38-12.99-3.62-15.64-2.99l-1.52-5.06-10.11-.2c.97-3.77,5.74-2.48,5.96-4.88.09-1,.4-2.86-1.24-2.76-5.3.35-10.31.75-15.17,1.4-3.39-1.08-7.11.47-10.93-.25.97-.62.93-.85.59-1.51-.16-.32.19-.75-.03-1.08,1.18-.38,3.16-1.53,3.4-3.05l1.09-6.92c.3,0,.63-.29.7-.57,1.07.23,11.77-.09,12.73.99,1.12,1.26,0,5.55,1.93,5.61l11.92.33.58,4.65c2.08-.95,3.63.7,5.25.9,15.77,1.95,15.45-1.63,20.87-1.3,1.87.11,2.92-.82,4.22-1.66-.5.32,12.57-4.08,12.9-3.69Z"/>
            <path class="cls-93" d="M150.3,7.25c.3,0,7.74,1.17,9.97,2.46.8.46.21,3.61,1.4,3.62,1.62.01,2.7.7,3.82.94,4.75,1.02,9.81.01,14.61-.07,2.97-.05,6.48-.15,9.3.35-.08,1.63-.16,3.32-.87,5.09-1.28.38-2.27.4-3.73.46-.35,2.74-3.33,2.45-4.62,3.9-.24-.39.44-1.25.15-1.65-1.39-1.89-3.39-.51-4.98-.43-4.61.23-9.49.5-14.24-.49l-11.54-2.42c-4.55-.95-1.55-2.66-3.5-4.58-.34-.34-5.22-1.34-5.71.33.05-.68-.31-1.22-1.2-1.24l-15.36-.31-4.16-.19,1.18-4.12c.35-1.23,2.17-1.19,3.33-1.2l26.15-.44Z"/>
            <path class="cls-47" d="M73.87,53.92c2.33.18-7.58-1.65-8.13-.31-.89,2.13.29,3.69-.56,4.77-1.24,1.59-8.85-.01-10.47.72l-.09-8.63c0-.33-.74-.6-1.02-.62,1.07-1.57,1.34-3.5,2.27-5.26,2.02-.91,4.3.05,6.72-.6.23-2.06.26-3.91.17-5.62.04-.3.23-.48.53-.46,2.85.28,5.78-.12,8.71.82.5.16,1.02,1.03,1.53.86.33-.11.92-.83,1.5-.83,1.74,3.83,5.68,7.81,8.85,10.15.62.91.25,2.64.41,4.24-3.53.08-6.98,1.04-10.39.77Z"/>
            <path class="cls-125" d="M73.87,53.92c.05,1.64-.11,3.4-.57,5.08-2.75.02-5.27-.25-7.77.54-.2,2.19.37,4.63-.84,6.21-.71.68-3.54-.11-3.9,1.03l-.22,27.69c-.01,1.82-.39,3.7-1.77,4.44s-2.9,1.15-4.4.67c.07-1.8-.39-3.84-.71-5.56,1.08-1.11.94-2.94.94-4.76l.05-30.18c1.62-.73,9.24.88,10.47-.72.85-1.09-.34-2.64.56-4.77.56-1.33,10.46.5,8.13.31Z"/>
            <path class="cls-77" d="M53.59,49.85c.28.02,1.02.29,1.02.62l.09,8.63-.05,30.18c0,1.82.13,3.65-.94,4.76-1.71.18-3.61.22-5.35-.79l-.05-43.06c1.69-.36,4.05-.41,5.28-.34Z"/>
            <path class="cls-52" d="M195.21,30.82c-.12.35-.75.49-.59,1.18-1.56.01-3.14.44-4.68.12-.44-.14-.64-.78-.66-1.21-.05-1.44.13-2.93.33-4.58,1.61-.43,2.99-.01,4.57-1.02-.29-3.65.89-7.29-.22-10.61-.52-1.54-3.84-.78-4.55-.16-2.82-.5-6.33-.4-9.3-.35-.69-1.05,1.28-1.27,1.68-1.94,3.28-5.59,2.44-.79,9-4.98,1.29-.83,3.29.9,4.21,1.6,1.1.84.98,3.1,1.25,4.66l3.68,1.28c.27,11.99.03,8.25-4.71,16Z"/>
            <path class="cls-142" d="M95.85,13.96c2.49.35-.59-1.76,5.8-.86-.05,2.32.15,4.59-.91,6.6-1.53.76-3.56-.08-4.97.83-.47.3-1.75,6-3.45,4.16-.89-.96.14-3.07-.79-3.96-1.31-1.26-5.14.96-6.56-1.39.07-2.43.8-3.75-1.15-4.81,2.02-.93,5.02.67,6.3-1.53.72-.06.37.65.4,1.11,2.04.59,3.64-.38,5.34-.14Z"/>
            <path class="cls-50" d="M95.85,13.96c-1.69-.24-3.3.73-5.34.14-.02-.46.32-1.17-.4-1.11-.08-9.53,7.19-1.28,9.69-7.96.31.63.83,1.14.64,2.12,2.82.27,5.27-.35,8.13.31-2.7,1.21-10.77-1.36-12.05,2.73-.35,1.12-.21,2.63-.68,3.78Z"/>
            <path class="cls-30" d="M214.37,50.89c.84.99.49,2.59-1.01,3.55-1.65,1.04-5.01,1.3-6.96.46-.94-.47-.82-3.58.16-3.92,1.66-.58,4.12.71,5.02-1.01.82.65,1.78.83,2.78.92Z"/>
            <path class="cls-12" d="M62.75,38.37c.09,1.72.06,3.56-.17,5.62-2.42.65-4.7-.31-6.72.6.69-1.31-.55-4.06.69-5.61,1.51-1.05,4.39-.61,6.2-.62Z"/>
            <path class="cls-99" d="M83.82,14.52c1.95,1.06,1.22,2.38,1.15,4.81-.31,2.23-2.14.44-5.4,1.25,0-1.67-.66-3.9.53-5.46.8-1.05,2.78-.17,3.72-.6Z"/>
            <path class="cls-67" d="M199.74,44.86c-.29,1.53.47,3.81-1.27,5-.84.58-3.25-.07-3.05,1.93s.16,5.72-2.5,6.25c-6.58,1.33-13.27.62-20.07.64-3.38,0-6.5.67-9.54.07-1.99-.4-3.84.41-5.69-.38,1.44-.67,2.61-.11,4.27-.31.24-1.8.33-3.53-.11-5.12l8.65-.59c3.26-.22,6.78.89,9.74-.05l7.98-2.54c.95-1.32.6-2.88,1.38-4.43,5.17.87,7.76-1.71,10.21-.46Z"/>
            <path class="cls-138" d="M124.07,38.47l-.14,4.43c-2.58-.77-8.66,4.77-9.52,6.55-.41.85-.05,2.47-1.19,2.61-.63.08-1.69.98-2.67.43-.28-4.39-.36-9.06.81-13.48.3-1.1,1.89-1.52,2.37-2.29.34.66.38.88-.59,1.51,3.82.72,7.54-.83,10.93.25Z"/>
            <path class="cls-24" d="M146.14,49.95c-2.35.56-9.73,1.86-11.77.58-.87-.55-.27-4.22.14-5.83l10.11.2,1.52,5.06Z"/>
            <path class="cls-97" d="M118.19,25.66l-1.09,6.92c-.24,1.52-2.22,2.67-3.4,3.05-.68-.99-.25-2.24-.76-3.54-1.22-.13-2.55-.28-3.36-.63-.22-1.04.14-2.04.1-3.43,2.79-1.29,5.62-2.35,8.5-2.37Z"/>
            <path class="cls-33" d="M140.36,14.75l.14,10.21c3.13,1.45,6.27,1.42,9.65,1.53l10.98.38c4.88.17,9.66.29,14.48-.37,2.52-.35,3.28-1.06,4.57-2.51s4.27-1.16,4.62-3.9c1.46-.06,2.46-.08,3.73-.46.71-1.76.79-3.45.87-5.09.71-.62,4.04-1.38,4.55.16,1.11,3.31-.07,6.96.22,10.61-1.58,1-2.96.58-4.57,1.02-.2,1.64-.38,3.13-.33,4.58-.33-.39-13.4,4.01-12.9,3.69-1.3.84-2.35,1.77-4.22,1.66-5.42-.32-5.1,3.25-20.87,1.3-1.62-.2-3.17-1.85-5.25-.9l-.58-4.65-11.92-.33c-1.93-.05-.81-4.34-1.93-5.61-.96-1.08-11.66-.76-12.73-.99.5-4.97-.74-6.84.75-12.08l4.16.19,15.36.31c.89.02,1.25.55,1.2,1.24Z"/>
            <path class="cls-79" d="M194.62,32c.35,1.47.37,3.99-.51,5.34-.6.93-3.68,1.11-4.1.15-.72-1.65-.72-3.96-.07-5.36,1.54.32,3.12-.11,4.68-.12Z"/>
            <path class="cls-115" d="M180.18,23.99c-1.29,1.46-2.06,2.17-4.57,2.51-4.82.66-9.59.54-14.48.37l-10.98-.38c-3.39-.12-6.52-.09-9.65-1.53l-.14-10.21c.5-1.67,5.37-.67,5.71-.33,1.95,1.92-1.05,3.63,3.5,4.58l11.54,2.42c4.75,1,9.63.72,14.24.49,1.58-.08,3.59-1.46,4.98.43.29.4-.39,1.26-.15,1.65Z"/>
          </g>
          <g>
            <path class="cls-107" d="M84.8,65.71c-2.03-.26-.32,2.14-2.82,4.77-.6.63-3.1.34-3.1,2.08l.06,94.08,5.11.38.33,4.86c1.91,1.22,4.49-.68,5.68,1.24l-.1,4.49c-.25-.07-.36-.01-.56,0-1.52.06-3.08-.05-4.96-.21l-.48-4.66-4.58-.42-.56-5.2c-1.91-.37-3.84.28-5.5-.33-.88-3.83.59-7.7-1.23-10.83.87-.85,1.05-4.02,0-4.67-1.89-1.18-4.23.18-5.89-.17-3.27-.7-6.63.04-10.32-.51-.61-1.76-.78-3.63-1.85-5.17-.68-.98-2.21-.75-3.35-.86-1.37-.13-1.9-1.39-1.95-2.69-.33-7.95-.57-15.69.21-23.72.12-1.27,1.26-2.95,1.63-4.14.5-1.61,3.17-1.01,4.28-1.11.22,1.63-1.3,5.81.49,6.99.63,1.33-.04,3.06.55,4.76l10.38.42.25,11.33c2.18.29,4.13.39,6.2-.44l.28-70.34c3.86-.61,7.37.89,10.19-.73.36-.21.75.11,1.09.12.51.02.62.31.52.68Z"/>
            <path class="cls-17" d="M183.34,167.41c.5,1.43.21,3.1,0,4.89l-4.43.61-.48,4.11c-1.68.51-3.29.56-5.26.73l-.71,5.96c-3.94-.36-7.72.14-11.37.36-5.18.32-10.59-.54-15.89.14l-.19,5.78c-4.72,1.12-4.51,4.96-7.2,6.75-4.15,2.75-9.09,2.52-12.96-.84-1.39-3.6-3.88-5.28-7.06-5.93-.07-1.81-.3-3.59.02-5.38-.74-.25,4.04-.9,1.68-.81,1.44-.06,4.27.1,5.92.08l19.14-.21c.57-1.62,0-3.39.5-5.45l27.04-.59c.4-1.8.19-3.4.39-5.24,1.03-.31,1.96-.05,3.01-.49l.37-4.41,6.09-.51c.66-.06,1.11.23,1.38.48Z"/>
            <path class="cls-90" d="M205.59,124.65c-.02.92.48,1.9-.6,2.63,3.32-1.31.53,8.25,2.38,11.08,1.25,1.27,4.14.15,5.88.13-.14,1.48,1.07,4.75-.56,5.28l-4.78,1.55-1.53,5.46c-3.66-.11-6.84.11-10.02.35-2.07.15-4.31-.41-6.38-.42-1.75-4.5.09-10.04,0-14.57,1.84.21,3.83.55,5.96.15.43-4.18.05-7.94.22-11.71,2.42-.18,8.79,1.35,9.42.07Z"/>
            <path class="cls-75" d="M119.51,183.76c2.35-.09-2.42.56-1.68.81-2.02-1.53-4.83.18-7.08-.51-2.64-.82-5.37.47-8.01-.01-4.05-.74-8.14-.08-12.57-.51-.42-1.96-.33-3.63-.24-5.19l.04-.73c1.81.52,4.04-.54,5.75-.29l22.07,1.01c1.36,1.08-1.04,5.72,1.72,5.42Z"/>
            <path class="cls-56" d="M213.25,138.5c-1.73.03-4.63,1.14-5.88-.13-1.85-2.83.95-12.39-2.38-11.08,1.08-.74.58-1.71.6-2.63s.62-2.03.2-2.97c1.94-.71,2.73-3.38,3.12-5.48.53-.93,1.85.07,1.94-.95.41.07.46-.49,1.2-.53-.48,1.6,1.21,2.35,1.27,3.48.38,6.96.57,13.7-.07,20.29Z"/>
            <path class="cls-41" d="M202.3,112.39c.37-.01.98.5,1.6.39,2.9-.49,5.16.66,6.95,2.48-.08,1.02-1.41.02-1.94.95-.38,2.1-1.18,4.77-3.12,5.48-.22-.49.2-.7.23-.95.27-1.91-8.28-.69-9.61-.85-.68-2.19-.2-4.58-.24-7.21,2.24-.34,4.14-.2,6.12-.28Z"/>
            <path class="cls-135" d="M196.37,151.12c-.17,1.52.03,3.14-.38,4.93l-6.34.46c-.19,3.59.13,6.8-.42,10.22-1.85.35-3.75.57-5.47.19-.21-3.31.3-6.68.79-10.29l4.73-.28c.5-1.85.08-4.07.71-5.66,2.07,0,4.31.57,6.38.42Z"/>
            <path class="cls-25" d="M66.28,119.88c-3.63-.14-7.35-.57-10.93.03-1.8-1.19-.27-5.37-.49-6.99.35-.03.82-.25,1-.6l10.61.39c.44,2.73-.41,5.03-.18,7.17Z"/>
            <path class="cls-4" d="M72.09,155.96c-1.49.09-3.98.93-5.33-.12-1.1-1.01-.42-3.51-.56-4.73,1.65.35,4-1.01,5.89.17,1.05.66.87,3.82,0,4.67Z"/>
            <path class="cls-3" d="M89.92,178.34c-.46.06-.57-.37-.51-.73.2,0,.31-.07.56,0l-.04.73Z"/>
            <path class="cls-62" d="M188.99,82.92c-6.94-.07-4.65-2.1-7.67-2.3-.88-.06-1.2-1.65-2-2.01-9.31-.96-18.49-.43-28.08-.92-1.31-.07.43-1.4-5.66-2.13-.8-.1,1.99-2.89-7.56-3.43l-15.4-.87c-3.51-.2-7.04-1.4-9.52-3.65-.11-.35.13-.44.45-.49.16-.02.33.15.76.14.5,0,.9-.81.75-1.18-1.31-.79-3.61.01-4.63-1.18-1.2-1.71-.17-4.04-.21-5.74,2.77,0,5.75-.53,8.77.08l.79,6.03,31.88.38c.22,2.2-.15,4.08.27,6.07l23.63.07,13.62.31c1.07,3.81-.24,7.53-.18,10.8Z"/>
            <path class="cls-122" d="M110.21,59.18c.03,1.7-1,4.03.21,5.74,1.02,1.19,3.32.39,4.63,1.18.15.37-.25,1.17-.75,1.18-.43,0-.6-.17-.76-.14-.32.05-.56.13-.45.49l-3.35-1.19c-3.72-1.32-25.31.6-24.93-.72.11-.37,0-.67-.52-.68-.33,0-.73-.33-1.09-.12.19-1.83-.38-3.71.24-5.73h26.77Z"/>
            <path class="cls-80" d="M95.71,177.33c-1.71-.25-3.95.81-5.75.29l.1-4.49c1.55-.1,3.81-1.32,5.19-.02.99.93.2,3.13.47,4.23Z"/>
            <path class="cls-88" d="M66.28,119.88c.19,1.75-.04,3.47,0,5.21l-10.38-.42c-.59-1.7.08-3.43-.55-4.76,3.58-.59,7.3-.16,10.93-.03Z"/>
            <path class="cls-72" d="M205.79,121.69c.42.94-.18,2-.2,2.97-.64,1.28-7-.25-9.42-.07.07-1.57-.34-3.21.25-4.7,1.32.16,9.88-1.05,9.61.85-.04.25-.45.46-.23.95Z"/>
            <g>
              <path class="cls-42" d="M84.8,65.71c-.38,1.32,21.21-.6,24.93.72l3.35,1.19c2.47,2.25,6.01,3.45,9.52,3.65l15.4.87c9.56.54,6.77,3.33,7.56,3.43,6.09.74,4.35,2.06,5.66,2.13,9.59.49,18.77-.04,28.08.92.81.36,1.12,1.95,2,2.01,3.02.2.73,2.22,7.67,2.3l1,53.22c.09,4.53-1.76,10.07,0,14.57-.63,1.58-.21,3.81-.71,5.66l-4.73.28c-.49,3.6-1,6.97-.79,10.29.42.4-.03.98-.42.48-.26-.25-.72-.54-1.38-.48l-6.09.51-.37,4.41c-1.05.44-1.97.18-3.01.49-.2,1.84.01,3.45-.39,5.24l-27.04.59c-.49,2.06.07,3.83-.5,5.45l-19.14.21c-1.65.02-4.47-.13-5.92-.08-2.76.29-.36-4.34-1.72-5.42l-22.07-1.01c-.27-1.1.52-3.3-.47-4.23-1.38-1.3-3.64-.08-5.19.02-1.18-1.91-3.76-.02-5.68-1.24l-.33-4.86-5.11-.38-.06-94.08c0-1.74,2.5-1.45,3.1-2.08,2.51-2.62.8-5.03,2.82-4.77Z"/>
              <g>
                <path class="cls-61" d="M175.16,106.21h-23.98c-.44-2.27-.31-4.26-.05-6.81l24.13-.13c.31,2.39.35,4.34-.1,6.94Z"/>
                <path class="cls-82" d="M110.99,106.21l-23.9.05c-.36-2.38-.35-4.31-.13-6.9l24.1-.07c.34,2.38.34,4.32-.07,6.92Z"/>
                <path class="cls-22" d="M120.65,163.14c-1.03-1.13-2.5-.31-3.59-.87-.09-1.39-.61-3.26.31-4.62.43-.63,2.74-.62,3.13,0l.56,3.67,19.86-.13c.78-1.02.09-2.39.8-3.54.4-.64,2.59-.72,3.16-.08.76.87.88,3.84-.07,4.61s-3.06-.59-3.45,1.19c-.16.73-.06,1.53-.42,2.07-.97,1.43-16.5.97-19.21.67-.97-.11-.44-2.28-1.07-2.98Z"/>
                <path class="cls-89" d="M180.04,150.43c-5.03.16-9.62.31-14.51-.14-.29-2.16-.65-4.56.21-6.58,1.25-2.93,8.54-2.15,9.4-1.6.69.44.27,1.83.5,2.63l4.75.45c.35,1.82.24,3.23-.34,5.24Z"/>
                <path class="cls-29" d="M96.4,150.05c-3.97.85-9.3.43-13.14.35-1.12-.89-1.45-4.34-.31-5.03,1.02-.62,2.6-.06,3.4-.48.62-.33.31-2.48,1.15-2.72,2.42-.69,6.49-.56,8.71,1.04,1.55,1.12,1.41,5.4.2,6.83Z"/>
                <g>
                  <path class="cls-46" d="M110.46,135.11c-8.06,1.52.55,6.49-14.03,4.78-.33-1.42-.67-2.64-1.09-3.5s-2.99-.61-3.67-1.36c-1.35-5.86-.38-11.95-.58-17.81,1.93-1.17,2.89-3.3,4.29-4.45,2.96-.35,6.52-.68,9.72.12,1.99.6,3.18,3.54,5.27,4.56l.08,17.66Z"/>
                  <path class="cls-9" d="M107.34,122.95c-1.95.27-4.14.79-5.76-.2-1.41-.86-1.59-4.29-.47-5.59s3.5-1.71,5.05-1.47c1.68.27,2.65,1.92,2.75,3.03.12,1.29.3,3.97-1.57,4.24Z"/>
                </g>
                <g>
                  <path class="cls-105" d="M166.13,140.03c-2.85.01-6.42.94-8.99-.42-.65-2.33-2.21-4.24-4.91-4.54l-.32-17.44c5.5-5.82,5.51-5.74,14.48-4.61,1.45.95,3.13,3.26,4.57,4.6.2,5.63.56,11.9-.09,17.16-2.05,1.16-4.98,1.68-4.74,5.26Z"/>
                  <path class="cls-9" d="M168.6,122.53c-1.83,1.1-4.94,1.11-6.73.13-1.54-.84-1.19-3.54-.79-4.71.5-1.47,2.34-2.11,4.14-2.42s3.28.8,3.78,1.9c.67,1.45,1.27,4.11-.4,5.11Z"/>
                </g>
                <g>
                  <path class="cls-43" d="M126.69,146.64c-1.95-2.43-1.55-4.49.15-6.76,1.8-2.4,5.3-3.76,7.52-1.52,1.83,1.84,3.24,3.57,2.73,6.13-.42,2.13-1.88,4.03-3.99,4.47-2.63.55-4.63-.11-6.4-2.32Z"/>
                  <path class="cls-83" d="M133.63,138.41c1.18,1.22,1.56,4.39.5,5.68-.78.95-2.13.83-3.71.73-3.39-.21-1.75-6.07-1.35-6.32.82-.53,4.44-.21,4.56-.08Z"/>
                </g>
              </g>
            </g>
          </g>
        </g>
        <g>
          <path class="cls-49" d="M216.78,381.3c.1,1.15.1,2.32.11,3.48l.17,32.55c1.36,1.01,2.91.39,4.21.88l.72.3c.57.24-.27,3.92,1.03,3.89,4.89-.12,9.88.38,14.36-.63.17.16.46.14.66.09-1.26.36,6.21.81,7.13-.18.86-.92-.04-8.99.61-11.22,1.98-.21,3.3.23,4.92.44-.27,3.23.92,9.42-.81,10.82-.33.27-.38.57.25.66-.37,3.03-2.52,4.48-5.74,4.56l-21.37.51c-.8.02-1.11.69-1.19,1.1-1.55.33-3.21-.04-4.64.74.42-.51,1.14-2.05.32-2.49-2.93-1.57.32-2.93-6.65-6.22.06-.43-.07-.84-.07-1.24.02-12.7-.23-25.46.55-38.08l5.12-1.06c.14.53.14.84.29,1.08Z"/>
          <path class="cls-112" d="M259.42,384.26l.16,43.76c-2.04.92-3.74.51-5.64.99l-1.17,5.55-35.46.15c-.27-2.02-.22-3.42-.21-4.83,0-.15.14-.4.1-.56,1.43-.78,3.09-.41,4.64-.74.42.13.98.5,1.75.51l22.57.12c2.27.01,5.42.26,7.19-1.44,1.54-1.48.96-4.59.97-6.44l.27-36.65.11-.49c1.52.39,3.17.27,4.72.08Z"/>
          <path class="cls-76" d="M244.5,339.13l.31,16.67c1.71.32,3.03.02,4.36.49.15,1.6-.28,2.91.43,4.13,1.37.58,3.41-.17,4.44.79.86,1.08.35,3.05.91,4.16l4.33.54c.57,6.28.12,12.32.14,18.33-1.55.19-3.19.3-4.72-.08l.14-17.81-4.72-1.24c-.32-1.18.27-3.7-.94-4.07-2.79-.86-5.48-.08-7.93-.58-.35-1.55-.1-2.97-.17-4.36l-.69-14.59c2.31-1-.36-3.03,2.55-3.09.59-.01,1.4-.06,1.54.7Z"/>
          <path class="cls-119" d="M236.99,311.76c1.01.23,2.67.9,3.41,1.66.88.9.22,2.42,1.15,3.24.87.19,3.56-.14,3.75.98.77,4.44.18,8.67.26,12.75-1.55.24-3.13-.34-4.67-.26l.06-8.37c.06-7.61-12.18-6.74-16.91-6.44l8.09-3.35c1.4.06,3.44-.53,4.85-.22Z"/>
          <path class="cls-146" d="M217.21,429.31c.04.16-.1.41-.1.56-.52.16-.39-.56-.58-.87l-5.63-.52c-.21-2.64-.37-5.35-.02-7.88,6.97,3.28,3.72,4.65,6.65,6.22.82.44.1,1.98-.32,2.49Z"/>
          <path class="cls-10" d="M221.97,341.92c.52,1.55,1.08,4.06-.7,5.1-8.55.24-2.28-4.28-10.39-7.31l-.57-18.01c2.83-1.88,6.11-3.19,9.23-4.59.38-.17.83-.29,1.24-.46.2,1.18.68,3.57-.55,4.05l-2.71,1.05c1.18,6.29-2.86,7.79-.89,17.88.46,2.36,3.76,2.54,5.33,2.28Z"/>
          <path class="cls-100" d="M225.93,339.04c.99.86,1.98,1.97,3.45,1.77.57,3.37,4.6-.99,4.62,1.08-1.92.55-.4.37-2.26,3.02-2.39,1.08-4.49-1.48-4.53,1.69l-.15,12.03c-.3-.32-.55.01-.88.09-.42.1-.12.87-.4,1.01-1.04.55-2.86-.12-3.61.37-1.37,1.44-3.09.85-4.42-.13.2-1.16-.16-2.43.39-3.71l4.27-.51.21-6.86c.02-.63-.08-1.63-.43-1.7l-.9-.18c1.78-1.04,1.22-3.55.7-5.1.54-.83.05-1.93.04-2.94,1.26.2,2.81-.9,3.92.06Z"/>
          <path class="cls-6" d="M227.05,358.64c0,.51.11,1.05-.09,1.85-1.69-.08-3.66.04-4.89,1.11-.44.81.04,2.14-.43,2.81l-4.66.97-.33,12.45c-.02.94.24,1.7.51,2.28.08.18.14.64.08.86-.05.18-.13.4-.46.32-.16-.24-.16-.55-.29-1.08l-5.12,1.06c.22-3.51-2.56-15.5,2.41-20.13,1.18-1.1,3.3.34,3.97-1.17,1.33.98,3.06,1.57,4.42.13.74-.49,2.57.18,3.61-.37.28-.15-.02-.92.4-1.01.33-.08.58-.4.88-.09Z"/>
          <path class="cls-66" d="M221.81,384.64c-.3,1.01.3,2.1.23,3.1-.76,10.19.74,20.54-.77,30.49-1.3-.49-2.85.13-4.21-.88l-.17-32.55c1.63-.6,3.25,0,4.93-.15Z"/>
          <path class="cls-45" d="M230.53,380.04c-.88,0-2.5-.13-3.26.36l-1.37,3.91-4.08.33c-1.68.14-3.3-.46-4.93.15,0-1.16,0-2.33-.11-3.48.34.07.41-.14.46-.32.07-.23,0-.68-.08-.86l3.83-.32c.71-3.54-.08-6.98.97-10.95.34-1.28,4.11-.69,4.44.78.52,2.35-.24,4.46.56,6.58l3.46-.77c1.3,1.66.17,3.1.12,4.61Z"/>
          <path class="cls-94" d="M221.84,428.57c.08-.41.39-1.08,1.19-1.1l21.37-.51c3.21-.08,5.37-1.53,5.74-4.56l1.2-.61c1.02.07,2.05-.02,2.98-.47-.01,1.85.57,4.96-.97,6.44-1.76,1.69-4.92,1.45-7.19,1.44l-22.57-.12c-.77,0-1.33-.38-1.75-.51Z"/>
          <path class="cls-139" d="M240.4,341.52l.69,14.59c.07,1.38-.19,2.81.17,4.36,2.46.5,5.14-.28,7.93.58,1.21.37.62,2.89.94,4.07l4.72,1.24-.14,17.81-.11.49-3.69-1.12c-.08-2.12-1.47-3.4-3.61-3.41l-16.76-.09c.06-1.5,1.18-2.95-.12-4.61l-3.46.77c-.81-2.12-.04-4.24-.56-6.58-.33-1.47-4.1-2.06-4.44-.78-1.05,3.97-.25,7.41-.97,10.95l-3.83.32c-.27-.59-.53-1.35-.51-2.28l.33-12.45,4.66-.97c.47-.67,0-2,.43-2.81,1.23-1.07,3.2-1.18,4.89-1.11.2-.8.08-1.33.09-1.85l.15-12.03c.04-3.18,2.14-.61,4.53-1.69,2.04,3.2-.3,7.41,1.08,11.01.36.94,3.61.69,3.71-.37.37-3.98.14-7.83.12-11.7-.61-.92-1.67-1.05-1.99-1.89,1.82-.82,3.85-.03,5.75-.45Z"/>
          <path class="cls-129" d="M230.53,380.04l16.76.09c2.14.01,3.53,1.29,3.61,3.41l3.69,1.12-.27,36.65c-.93.45-1.96.54-2.98.47l-.09-34.49c-1.13-1.42-3.42,0-4.59-.2,0-.2-.14-.93.18-1.05,1.28-.47,2.52.34,3.99-.44,2.13-1.14-29.42-.94-24.93-1.31l1.37-3.91c.77-.49,2.38-.36,3.26-.36Z"/>
          <path class="cls-96" d="M240.89,330.13c-5.58.29-11.33-.47-17.52.51-1.98,1.76-1.39,5.85-1.36,8.35,0,1,.5,2.11-.04,2.94-1.58.26-4.87.08-5.33-2.28-1.98-10.09,2.06-11.6.89-17.88l2.71-1.05c1.22-.48.74-2.87.55-4.05l3.26-1.34c4.73-.31,16.97-1.18,16.91,6.44l-.06,8.37Z"/>
          <path class="cls-71" d="M234,341.9c.19-.1.51.15.66.08.33.84,1.38.96,1.99,1.89.02,3.87.25,7.72-.12,11.7-.1,1.06-3.35,1.3-3.71.37-1.38-3.61.96-7.81-1.08-11.01,1.86-2.65.34-2.47,2.26-3.02Z"/>
          <g>
            <path class="cls-114" d="M240.89,330.13c1.53-.08,3.12.49,4.67.26l.13,6.4c.02,1.03-.2,2.26-1.19,2.34-.14-.76-.95-.71-1.54-.7-2.92.06-.25,2.08-2.55,3.09-1.89.42-3.93-.37-5.75.45-.15.07-.47-.18-.66-.08-.01-2.07-4.04,2.29-4.62-1.08,1.96-2.59.56-1.11,1.19-3.65.09-.36.8.2,1.33.05,1.11-.3,1.58-3.81.5-4.17-1.73-.47-4.28-.1-5.83.3-.33,2.18.43,4.21-.64,5.7-1.11-.95-2.66.15-3.92-.06-.02-2.5-.61-6.58,1.36-8.35,6.19-.98,11.94-.22,17.52-.51Z"/>
            <path class="cls-19" d="M229.38,340.81c-1.48.2-2.46-.92-3.45-1.77,1.07-1.49.3-3.51.64-5.7,1.55-.4,4.1-.77,5.83-.3,1.08.37.61,3.87-.5,4.17-.53.15-1.24-.41-1.33-.05-.62,2.54.78,1.06-1.19,3.65Z"/>
            <path class="cls-117" d="M240.36,336.17c-.49.62-4.79.43-5.34-.8-.33-.73-.4-1.33-.13-1.87.66-1.32,5.08-.78,5.36-.4.45.59.83,2.18.11,3.08Z"/>
          </g>
          <path class="cls-32" d="M225.9,384.31c-4.5.36,27.06.17,24.93,1.31-1.47.78-2.71-.04-3.99.44-.32.12-.19.84-.18,1.05-.77-.13-1.34.74-2.27.75-5.86.07-11.45.57-17.37.28-1.74-.09-3.36-.96-4.97-.39.07-1-.53-2.09-.23-3.1l4.08-.33Z"/>
          <g>
            <path class="cls-101" d="M251.34,421.79l-1.2.61c-.63-.09-.58-.39-.25-.66,1.73-1.41.54-7.59.81-10.82-1.61-.21-2.94-.65-4.92-.44-.65,2.23.25,10.3-.61,11.22-.92.99-8.39.54-7.13.18,1.38-.2,1.45-1.47,1.32-2.71-.08-.84-.52-2.01-1.91-1.93s-1.73,1.42-1.72,2.49c0,.87.71,1.69,1.65,2.07-4.47,1.01-9.47.5-14.36.63-1.3.03-.46-3.64-1.03-3.89l-.72-.3c1.51-9.95,0-20.3.77-30.49,1.62-.57,3.23.3,4.97.39,5.92.29,11.51-.21,17.37-.28.93-.01,1.5-.88,2.27-.75,1.17.2,3.46-1.21,4.59.2l.09,34.49Z"/>
            <g>
              <path class="cls-14" d="M238.04,421.87c-.19.05-.49.07-.66-.09-.94-.37-1.65-1.2-1.65-2.07,0-1.07.39-2.41,1.72-2.49,1.4-.08,1.83,1.1,1.91,1.93.13,1.24.06,2.51-1.32,2.71Z"/>
              <path class="cls-48" d="M242.36,409.59c-.99.12-1.58-.32-1.99-.82-.49-.59-.42-1.28-.3-2.2.18-1.47,1.34-2.56,2.86-2.52,1.35.04,2.34,1.15,2.51,2.39.27,1.91-.65,2.84-3.07,3.14Z"/>
              <path class="cls-102" d="M234.58,395.48c-.22,1.46-1.27,2-2.04,2.03-1.25.05-1.97-.96-1.98-2.33,0-1.46,1.1-1.98,2.01-2.09,1.38-.16,2.29.47,2.01,2.39Z"/>
              <path class="cls-53" d="M245.14,402.98c-.52-.66-.44-2.15.25-2.67.78-.59,1.58.09,1.89.52.48.67.47,1.5.12,1.91-.48.56-1.72.95-2.26.25Z"/>
              <path class="cls-121" d="M235.4,405.22c.66-.58,1.33-.07,1.75.36.45.47.25.99-.14,1.46s-1.22.5-1.8.11c-.44-.3-.53-1.29.19-1.93Z"/>
            </g>
          </g>
        </g>
        <g>
          <path class="cls-130" d="M18.9,193.46c2.91.76,6.33.19,9.34.28,1.33.04,2.6.78,3.96.75,0,.19,0,.41,0,.6-.03.44-.08,1.13.31,1.16l1.42.09c.82.05,1.64-.21,1.8.65.06.33-.27.59-.55.96-1.4-.07-2.88-.19-4.44.37-.61,2.26-.37,4.45.16,6.6,1.95.4,3.37.74,4.87.63,2.6,8.97-6,.92-2.96,14.8-1.62,6.22-8.89,8.32-14.43,9.56-1.08.24-2.48-.27-3.61-.1-.68.1-1.43-.87-2.17-.52s-2.58-.17-3.5-.61-.75-2.35-1.18-3.01c-.3-.45.4-.85.66-1.04,1.01-.51,2.06-.36,3.38-.23,2.76.28,5.24-.28,7.69-.33,9.07-.17,7.19-3.39,8.7-5.48,1.27-1.76,4.03,3.04,2.45-11.96-7.42,5.05-.94,9.68-6.51,11.19l-4.25,1.15c-1.81.49-3.8-.07-5.97.18.3-2.08.18-3.24-.63-5.36l13.07-2.42c.22-2.98-.06-5.62-.14-8.2l-.18-5.21c-1.24-.79-11.24-.26-11.59.12-.3.32.93,1.04-.32,1.12-.25-.39.02-.98-.47-1.13,2.5.54,1.62-5.08,3.15-4.49.85.33,1.42.23,1.95-.1Z"/>
          <path class="cls-8" d="M5.75,188.83c-.07.26.13.36.37.35-.14,3.04-.56,6.37.23,9.23,2.85.46,5.08-.88,7.45-.37.48.15.22.75.47,1.13.31.62,0,1.38-.57,1.74-2.47.81-5.2.27-7.69,1.63l-.1,14.62c.85,1.72,2.96,2.61,3.27,4.57.15.98-1.2,2-.6,2.89-.26.2-.95.59-.66,1.04-3.81-.79-1.35-5.36-5.1-5.45-1.02-.03-1.86-.79-1.86-2l.18-28.55c1.76-.76,3.24-.45,4.62-.83Z"/>
          <path class="cls-58" d="M13.57,152.97l13.87-.13c1,0,2.15.3,3.22.53.66,1.31.94,4.61-.34,5.53s-3.6.12-3.82,2.01c-1.43.02-2.51.04-3.58.16-3.15.35-5.91-.12-8.67,0-.49-2.16-2.85-1.17-4.16-2.21-1.08-.86-.85-3.98-.3-5.15,1.12-.78,2.79-.74,3.78-.75Z"/>
          <path class="cls-78" d="M26.5,160.92c1.2,5.08-.3,14.76.59,21.25,1.89.12,4.62-.02,4.92,1.86.59,3.7.03,7.14.18,10.46-1.35.03-2.62-.71-3.96-.75-.08-2.57.49-5.69.05-8.3-.71-.78-3.38-.77-3.57.41-.37.09-.64-.11-.62-.33.02-.37-.27-.98.38-1.57-.28-.54-.99-.42-.99-.78,0-.69-.04-1.45.47-1.73-.61-.31-1.33-.19-1.06-.78.67-.82-.3-1.78-.31-2.88l-.14-12.81c-.01-1.24.24-2.69.46-3.91,1.07-.12,2.15-.14,3.58-.16Z"/>
          <path class="cls-140" d="M36.79,219.42c-1.35.17-2.74.38-4,.93-3.04-13.88,5.56-5.83,2.96-14.8.74-.66,2.41-8.13-.59-7.6.28-.38.61-.64.55-.96-.16-.86-.98-.6-1.8-.65l-1.42-.09c-.39-.02-.34-.72-.31-1.16,1.44.39,8.64,0,8.96,3.61.48,5.45.73,11.17-.47,16.51-.22,1-2.49,1.73-1.81,3.17-.8.26-1.52.98-2.08,1.05Z"/>
          <path class="cls-39" d="M22.92,161.08c-.22,1.22-.47,2.67-.46,3.91-1.44.05-2.87.23-4.72.1-.2,3.73-.25,7.29.15,11.08.08.79,2.41.5,2.06,1.92-.29,1.2-.29,2.47-1.77,2.64-1.21.45-.49,2.36-1.69,3.26-1.43,1.07-1.55,2.53-1.66,4.05-6.55-1.74-2.15-.75-6.23-4.87,1.62-.6,3.55-.28,5.26-1.28.11-7.23-.48-14.08.39-20.83,2.77-.12,5.53.36,8.67,0Z"/>
          <path class="cls-5" d="M27.44,152.84l-13.87.13c0-1.54-.48-4.46.85-5.67,2.09-.38,11.75-1.04,12.55.36.97,1.72.01,3.7.48,5.18Z"/>
          <path class="cls-31" d="M8.6,183.18c4.08,4.12-.32,3.13,6.23,4.87-.01.17-.24.38-.08.58l-8.62.55c-.24.02-.44-.09-.37-.35l.52-5.12c.12-1.2,1.65-.28,2.34-.54Z"/>
          <path class="cls-137" d="M14.74,188.63c.98-.06,2.55.82,3.22,1.4.8.69.81,2.45.93,3.43-.53.33-1.1.43-1.95.1-1.53-.59-.65,5.03-3.15,4.49-2.37-.51-4.6.83-7.45.37-.79-2.87-.37-6.19-.23-9.23l8.62-.55Z"/>
          <path class="cls-108" d="M19.63,224.07c.52-1.64.45-3.39.39-5.11l4.25-1.15c5.57-1.51-.92-6.13,6.51-11.19,1.59,15.01-1.17,10.2-2.45,11.96-1.51,2.1.37,5.31-8.7,5.48Z"/>
          <path class="cls-26" d="M28.24,193.74c-3.02-.09-6.43.48-9.34-.28-.12-.97-.13-2.74-.93-3.43-.67-.58-2.24-1.46-3.22-1.4-.16-.2.07-.41.08-.58l8.1-.53c1.27-.08,2.54-.82,1.8-1.67.19-1.18,2.86-1.19,3.57-.41.43,2.6-.13,5.73-.05,8.3Z"/>
          <path class="cls-133" d="M26.35,203.15c-3.48-1.11-7-.48-11,.14-.54-1.06-1.41-1.64-1.65-2.38.58-.35.87-1.12.57-1.74,1.24-.08.02-.8.32-1.12.35-.37,10.35-.9,11.59-.12l.18,5.21Z"/>
          <path class="cls-134" d="M35.17,197.95c3-.53,1.33,6.94.59,7.6-1.5.11-2.92-.23-4.87-.63-.53-2.16-.76-4.34-.16-6.6,1.56-.56,3.04-.44,4.44-.37Z"/>
          <path class="cls-28" d="M22.46,164.99l.14,12.81c.01,1.1.98,2.05.31,2.88-2.85-1-5.39,1.76-4.73.06,1.48-.18,1.48-1.44,1.77-2.64.35-1.42-1.98-1.13-2.06-1.92-.4-3.79-.35-7.35-.15-11.08,1.86.12,3.28-.05,4.72-.1Z"/>
          <path class="cls-68" d="M18.18,180.73c-.66,1.7,1.89-1.06,4.73-.06-.27.59.45.47,1.06.78-.5.28-.46,1.03-.47,1.73,0,.36.7.24.99.78-.65.59-.36,1.2-.38,1.57-.01.22.25.41.62.33.74.85-.54,1.58-1.8,1.67l-8.1.53c.1-1.52.23-2.98,1.66-4.05,1.2-.9.49-2.81,1.69-3.26Z"/>
          <g>
            <path class="cls-65" d="M13.7,200.91c.25.74,1.11,1.31,1.65,2.38,4-.61,7.52-1.25,11-.14.09,2.58.36,5.22.14,8.2l-13.07,2.42c.81,2.12.93,3.28.63,5.36,2.16-.25,4.16.31,5.97-.18.06,1.72.13,3.47-.39,5.11-2.44.04-4.93.61-7.69.33-1.31-.13-2.37-.28-3.38.23-.6-.88.75-1.9.6-2.89-.3-1.97-2.42-2.85-3.27-4.57l.1-14.62c2.49-1.35,5.23-.82,7.69-1.63Z"/>
            <path class="cls-74" d="M14.13,210.99c-.73,2.21-2.8,1.61-6.67,1.18-.61-.07-.68-.7-.71-1.03-.23-2.25,5.63-2.28,6.43-2.19.95.1,1.13,1.51.95,2.05Z"/>
          </g>
        </g>
        <g>
          <g>
            <path class="cls-21" d="M117.29,423.43c.24,1.74.22,3.53.08,5.27l-.04.47-44.15-.02c-.21-.39-.32-.37-.24-.86.28-1.77-.19-3.59.28-5.33l44.07.48Z"/>
            <path class="cls-3" d="M134.63,422.72c2.35-.4.48,4.07,1.74,5.88,2.92.43,5.69-.07,8.43.06-.07.47.16.82.16,1.27l.03,46.75c0,.36.08.53.67.74-.35,5.41-.43,11.18-.18,16.57-1.19.26-2.5.52-4.01.5l-24.3-.31c-.39-5.35.08-10.65.09-16.4l.08-48.62.04-.47,11.31-.2c.97-1.87-.58-4.45,1.27-5.58,1.57-.17,3.15.18,4.69-.2Z"/>
            <g>
              <path class="cls-40" d="M79.03,470.2c-.02,1.82.07,3.66.05,6.06l30.55-.13,6.93,1.62c-.81,1.8-.67,3.07-.69,4.69l-.09,7.57c-.04,3.25.99,6.34-.16,9.58.07.43.61.18,1.03.31-.66,1.22-.68,3.89-2.44,4.44h-63.46c-1.16-3.09-1.29-5.46-1.29-7.94,0-2.3.19-4.67.47-7.07,1.4-.23,2.4-.19,3.69-.57.78-1.54.68-3.93,2.27-4.93,1.43-.91,6.06.28,4.97-1.19,0,.33.55.83.81,1-1.35.63-1.14,2.95-1.15,4.02-.69-.22-.6.59-.55,1.52-1.6.16-3.21-.35-4.91.32-.15,1.63-.2,3.13-.07,5.07l24.04-.08,17.33-.06c1.72,0,2.15-.69,3.4-1.77,1.12-.97,3.69-2.33,2.66-4.3.84,1.61-4.78-5.7-7.43-4.82-5.98,1.99-4.38-2.57-8.34-2.74-2.29-.1-2.83-1.68-3.87-3.26-.74-1.12-2.78.36-3.55.21.86-2.02-6.03-.34-6.01-1.57-.26-1.97-.03-3.98-.03-5.96,1.93-.26,3.96-.65,5.84-.04Z"/>
              <path class="cls-110" d="M117.33,429.17l-.08,48.62c0,5.75-.48,11.04-.09,16.4.14,1.87.37,4.09-.52,5.73-.42-.14-.96.12-1.03-.31,1.15-3.24.12-6.33.16-9.58l.09-7.57c.02-1.63-.12-2.89.69-4.69l-6.93-1.62c.52-.16,1,.01,1.25-.28.23-.27.13-1.03.12-1.47l-.14-29.5c-.01-2.3-.56-5.88-2.77-6.99-4.8-2.41-10.47-1.83-15.73-1.52l-12.89.74-.44,33.08c-1.88-.61-3.91-.22-5.84.04v-41.09s44.14.02,44.14.02Z"/>
              <path class="cls-143" d="M79.23,477.76c-.49,1.81-.52,3.71-.16,5.68,1.61.15,2.98.15,4.64-.35.25,2.26.18,3.88.11,5.93-6.14.26-11.82.18-17.55.09-1.12-3.26,1.34-4.3-.96-5.07,2.28-4.24-1.44-.84,2-4.89.32-.38.59-1.34-.85-1.52,2.03-.36,3.92-.29,5.63-.98l1.12-.46c-.02,1.24,6.87-.45,6.01,1.57Z"/>
              <path class="cls-132" d="M72.1,476.65c-1.71.69-3.6.62-5.63.98,1.44.18,1.17,1.14.85,1.52-3.44,4.05.28.65-2,4.89-.93-.17-2.85.16-3.67-.4-.26-.17-.81-.68-.81-1,.01-1.19-.41-3.52.54-4.38,3.28-2.21,7.12-1.55,10.71-1.61Z"/>
              <path class="cls-106" d="M109.63,476.13l-30.55.13c.01-2.41-.08-4.25-.05-6.06l.44-33.08,12.89-.74c5.26-.3,10.93-.88,15.73,1.52,2.21,1.11,2.76,4.69,2.77,6.99l.14,29.5c0,.44.11,1.2-.12,1.47-.25.29-.72.13-1.25.28Z"/>
              <path class="cls-16" d="M60.5,487.66c-.02,2.25,2.4,1.39,5.77,1.45,5.73.09,11.41.17,17.55-.09.07-2.05.14-3.67-.11-5.93-1.66.51-3.03.51-4.64.35-.36-1.98-.33-3.88.16-5.68.77.15,2.81-1.33,3.55-.21,1.04,1.58,1.58,3.16,3.87,3.26,3.96.17,2.36,4.73,8.34,2.74,2.65-.88,8.27,6.43,7.43,4.82,1.03,1.97-1.54,3.33-2.66,4.3-1.25,1.08-1.68,1.77-3.4,1.77l-17.33.06-24.04.08c-.13-1.94-.08-3.43.07-5.07,1.69-.68,3.3-.16,4.91-.32-.05-.94-.14-1.74.55-1.52Z"/>
              <path class="cls-38" d="M65.31,484.04c2.3.76-.15,1.81.96,5.07-3.38-.05-5.79.8-5.77-1.45,0-1.07-.21-3.38,1.15-4.02.81.55,2.74.23,3.67.4Z"/>
            </g>
            <g>
              <path class="cls-92" d="M185.49,476.76c-.6.04-2.09.1-2.18,1.05-.19,1.97,0,3.66-.26,5.29-2.44.65-5.74.04-7.9,1.88-2.56,2.18-2.62,6.32-2.34,9.47l33.92-.02c.4-1.87.43-3.59-.03-5.55-1.63-.25-3.49.33-5.12-.09-.32-.57.71-2.17-.5-2.27.4-.85,0-2.13-1.21-2.31s-2.25-.02-3.46-.46c-.76-.05-.89-.61-.91-1.37l-.16-5.7,5.73,1.58c.46,1.92.05,3.47.93,5.05,7.59-1.32,3.64,5.55,10.2,5.94l.35,7.14c.05.95.02,7.98-2.89,7.99l-60.44.18c-.95-2.23-2.2-3.82-2.89-5.9-.53-1.57.31-3.66-.85-4.67-.24-5.39-.17-11.15.18-16.57-.59-.21-.67-.38-.67-.74,3.05,1.74,11.97-.43,12.73-.46,8.69-.37,17.51.59,26.05-.53.48.49,1.5.28,1.72,1.06Z"/>
              <path class="cls-127" d="M189.21,427.72l-.09,48.55c-.86.98-2.46.42-3.62.49-.22-.78-1.24-.57-1.72-1.06l-.23-18.63c0-.66.12-1.24-.11-2.11-1.17-4.51,1.25-10.6-.53-15.03-1.99-4.97-8.33-3.08-11.96-3.19-4.51-.14-9.17-.91-14.31-.21l-.21,39.14c0,.56,1.28.45,1.29.57-.75.03-9.68,2.2-12.73.46l-.03-46.75c1.16-1.36,2.78-.91,4.66-.92l35.34-.07c1.22,0,2.44-.3,3.42-.37-.2-1.13-.03-1.88.65-1.61l.18.76Z"/>
              <path class="cls-69" d="M195.34,476.68l.16,5.7c.02.75.15,1.31.91,1.37.03.47-.51.63-1.12.51-1.86-.38-3.81-.15-5.69.07-.25-.09-.06-.87-.3-.92-1.95-.41-4.11-.32-6.26-.31.26-1.63.06-3.32.26-5.29.09-.95,1.58-1.01,2.18-1.05,1.16-.07,2.76.48,3.62-.49,1.99.42,4.23-.13,6.23.42Z"/>
              <path class="cls-44" d="M165.28,422.98l23.79-.02c.36,1.79.04,2.83-.04,4-.68-.26-.85.48-.65,1.61-.99.08-2.2.37-3.42.37l-35.34.07c-1.88,0-3.5-.45-4.66.92,0-.45-.23-.81-.16-1.27.25-1.78-.15-3.6.24-5.37l20.24-.31Z"/>
              <path class="cls-109" d="M170.95,436.73c.72,4.49-.07,9.13-.04,13.95l.11,18.8c1.74.19,4.45.72,5.12-.68,2.13-4.44,4.94-4.86,6.04-16.37,1.51,3.04-.9,4.87,1.37,4.64l.23,18.63c-8.55,1.12-17.36.15-26.05.53,0-.12-1.29,0-1.29-.57l.21-39.14c5.14-.7,9.8.08,14.31.21Z"/>
              <path class="cls-123" d="M183.05,483.1c2.15-.02,4.31-.11,6.26.31.23.05.05.83.3.92.09,1.49-.55,3.14.11,4.7,2.3.36,4.29.08,6.14-.16,1.41-.18,3.52,1.14,4.96-.27.36-.36-.22-1.67.28-2.08,1.21.11.18,1.7.5,2.27,1.62.42,3.49-.16,5.12.09.46,1.96.43,3.68.03,5.55l-33.92.02c-.28-3.15-.22-7.29,2.34-9.47,2.16-1.84,5.46-1.23,7.9-1.88Z"/>
              <path class="cls-37" d="M201.08,486.52c-.5.41.08,1.73-.28,2.08-1.43,1.41-3.54.08-4.96.27-1.62.17.09-5.27-.55-4.61.6.12,1.14-.03,1.12-.51,1.21.44,2.25.27,3.46.46s1.61,1.46,1.21,2.31Z"/>
              <path class="cls-95" d="M183.54,457.07c-2.28.24.13-1.6-1.37-4.64-1.09,11.5-3.91,11.92-6.04,16.37-.67,1.4-3.38.87-5.12.68l-.11-18.8c-.03-4.82.76-9.46.04-13.95,3.63.11,9.97-1.77,11.96,3.19,1.77,4.43-.65,10.52.53,15.03.23.88.1,1.45.11,2.11Z"/>
              <path class="cls-91" d="M195.3,484.26c.63-.66-1.08,4.79.55,4.61-1.85.24-3.83.52-6.14.16-.65-1.56-.02-3.21-.11-4.7,1.88-.22,3.83-.45,5.69-.07Z"/>
            </g>
          </g>
          <g>
            <path class="cls-3" d="M193.58,295.68c.67,4.53,3.16,4.21,6.43,11.55.67,1.49-.72,4,.57,5.08,1.22,1.02,3.24.19,4.29,1.18.19,2.32-.62,5.67,1.48,5.79.63.04,1.24-.2,1.68-.03,1.2.47,1.05,2.4,2.27,2.44l.57,18.01c8.12,3.03,1.85,7.55,10.39,7.31l.9.18c.35.07.45,1.07.43,1.7l-.21,6.86-4.27.51c-.55,1.28-.19,2.55-.39,3.71-.66,1.5-2.79.07-3.97,1.17-4.98,4.63-2.2,16.62-2.41,20.13-.78,12.62-.53,25.38-.55,38.08l-2.11-.04c1.43-3.36-1.23-19.07-2.18-23.45-1.55-7.1-1.92-14.17-2.39-21.44l-2.46-1.42c-.75-5.4-.69-11.01-2.72-16.2-.48-1.22-.9-1.89-1.07-3.26l-1.35-11.09-2.32-16.14c-.31-2.13-.5-4.11-.81-6.24-1.38-.7-3.07.06-3.96-1.2l.22-12.16.64-14.88c.03-.61.16-1.56.8-1.37,1.03,2.81.76,5.75,2.49,5.22Z"/>
            <path class="cls-34" d="M82.54,305.92c-.67.59-1.63.27-2.98.71-.14,1.95-.23,3.38-.13,5.91l38.54.04c.62-2.42.63-4.86-.29-6.93.43,0,.86-.59,1.24-.18v13.5c-2.07.37-4.21.04-6.26.05l-33.66.16c-2.52.01-5.09.04-7.59-.28v-12.88c3.68-.65,7.42-.03,11.13-.11Z"/>
            <path class="cls-103" d="M161.1,184.05c-.13,2.4,1.37,4.18,2.37,6.28-.93-.64-1.74-.08-2.76-.23-1.37-.21-2.83-.21-4.54.2-.15,10.06-2.15,4.74-2.72,7.34.43-1.95-1.64,13.9-1.62,14.13-1.34-.11-2.45.41-3.35.68-.72-.78-1.08-.1-1.49.25-.75.65.13,2.12-.36,2.6-1.41,1.35-3.86.75-5.75.67l-1.12-5.1c.55-.42,1.21-1.58.62-2.34,2.76.67,2.06,3.27,4.26,3.1,1.25-.09,1.25-.83,1.45-2.16.94-6.26,2-12.65,1.89-18.9-1.24-.16-2.4-.21-2.97-.61l.19-5.78c5.29-.68,10.71.18,15.89-.14Z"/>
            <path class="cls-23" d="M231.1,300.38c.49.12,1.04.94,1.81.56.75.57,1.07,1.47.67,2.97-.37,1.39,2.3,1.37,2.88,2.01.81,1.58.45,4.22.52,5.84-1.41-.32-3.44.27-4.85.22.2-1.44.33-3.56-.55-4.91-1.69-2.62-3.41-.27-4.89.38-4.29,1.9-8.17,3.48-11.85,5.58-3.02,1.72-7.24,2.11-8.5,6.26-2.1-.12-1.3-3.47-1.48-5.79-.47-1.17,8.33-2.95,7.77-3.94,2.12-.51,4.31-1.55,6.47-2.62,2.6-1.29,5.47-1.5,8.18-2.36,1.15-.37.73-2.08,1.03-3.19.24-.88,2.06-1.19,2.78-1.01Z"/>
            <path class="cls-98" d="M36.79,219.42c-.26.99.6,1.89.6,2.83s-.82,2.44.52,3c1.02-.26,1.14.11,1.22.58-.85.31-1.71-.28-3.02,0-2.32,2.88-5.57,5.97-9.1,6.86-.02-2.06-7.24,2.03-8.55-.47-.31-.59.02-1.74-.08-2.32,5.54-1.23,12.81-3.34,14.43-9.56,1.26-.55,2.65-.76,4-.93Z"/>
            <path class="cls-136" d="M14.76,229.8c-.44-.02-.56.55-.46,1.15l.94,5.96c.14.86.42,1.67,1.31,1.62-.09.61-.65,1.05-.63,1.68-.12-.06-.35.07-.46,0-1.35-.94-3.52,0-4.68-.99-.12-1.43-1.01-.19-1.41-.27-.51-.11-1.09-.51-1.04-.99.54-5.66,3.56-5.82,4.26-8.68.73-.35,1.49.62,2.17.52Z"/>
            <path class="cls-141" d="M133.34,301.32l-13.8.3c-.68,1.3-.61,2.52-.62,3.86-.38-.41-.81.18-1.24.18l-31.63-.09c.02-1.57.27-3.89-1.29-5.1-.84-.65-2.94-.17-2.88-1.81.03-1.02.13-2.04-.53-2.66-.41-.38-1.16-.18-2.32-.63l-.14-62.34c-1.95-.57-3.56-.36-5.28-.02-.46,1.39.17,2.94-.76,4-.52.5-2.15-.01-2.4.64-.3.81-.05,1.74-.22,2.62-.35,1.81-2.64,1.23-4.26,1.27l-.68,5.68c-1.57.38-3.04.02-4.19.8,0,1.5.07,2.68-.55,3.57-1.03,1.48-4.8-.13-4.71,1.92-1.41-2.72-3.69-.06-4.7-1.87-.51-2.27.31-4.83-.46-7.42-1.11-3.7-2.09-7.38-.9-11.2,1.49-.18,2.93.08,4.34-.41.78-1.84.18-3.77.59-5.72l4.68-1.2c1.06-1.58.36-4.36,1.66-5.52,1.17-1.01,3.38-1.26,4.15-2.38l.71-5.56,6.93-1.21c.49-2.44.34-4.53.48-7.1l15.47-.54c.51,3.18-1.9,13.55-.46,15-.51-.52,3.48,1.98,5.21,1.49,1.08-.31,3.33,1.29,2.58,2.12-1.82,2.02-4.72,3.47-4.87,6.59,4.26,2.23,2.89.04,5.57,5.76-6.27,1.51-10.84-.67-16.2,2.88-.19,1.11-.02,2.63.45,3.41l23.91.13.75,6.3c.89.19,2.95-.49,3.37.56.72,1.78.1,3.56.61,5.28,1.21.64,2.99-.16,3.83.77s.05,5.44,1.56,6.81c.68.62,1.67.39,2.69.7,3.09.93-1.04,5.53,3.89,5.67,3.28.09-2.49,5.32,9.4,6.81,3.85,1.11-6.27.6-6.08,7.05.06,2.01,2.25,3.45,3.6,3.86,1.69.51,3.89-.04,5.66-.88l.14,16.97c0,.34-1.65.06-1.08.65Z"/>
            <path class="cls-141" d="M194.69,247.65c.45-2.14.7-5.26-.9-6.67-1.5.12-3.2.35-4.24-.14l-.13-7.5c-1.76-.27-3.28-.52-5.02.02.43,7.61-3.48,50.68-5.29,55.39l-3.4,8.84c-5.73,2.14-4.22,3.22-9.29,3.27l-.06,4.67c-1.54,0-3.15.56-4.68.37-5.75-.7-11.57-.15-17.35-.27.05-1.09-.82-2.62-.56-3.98l-2.98-.39c.01-.2-.29-.3-.45-.51l.2-28.97c1.32-.53,2.54.07,3.55-.66.75-2.76-.22-6.25,1.09-8.66,2.32-.99,3.61-2.27,4.81-4.52-.14.26,4.4-5.2,4.51-6.04.97-6.91,8.12-2.63,8.51-10.94,4.79-1.74.6-2.07,3.9-7.18,1.26-1.95,3.1-3.35,4.45-5.12.99-1.29-.58-3.47-1.42-4.1-1.33-.99-1.19-1.67-1.05-2.6.28-1.83,1.18-1.18,2.91-1.93.94-.41,1.95-1.96,3.19-1.97.63-4.35-.39-9.08-.78-14.13,4.57-.83,9.25-.13,14.21.01,2.62.07.99,7.22,2.41,7.48,1.35.78,3.76-.37,5.02.97,0,2.61-.5,5.93,1.72,7.5.78.55,3.3-.61,3.38,1.2.09,2.15,1.59,3.61,2.18,5.18.62,1.66.2,3.05,2.13,4.06,1.09.57.39,3.04,1.09,4,1,1.38,1.2,2.55,1.46,4.14.75,4.53,2.05,8.8,3.03,13.15,1.28,5.7,3.23-3.21,2.85,12.71-3.26.49-15.7,2.03-16.94,1.29-1.09-.65,1.08-8.35-.58-13.06-.62-1.75-.72-3.48-1.46-4.94Z"/>
            <path class="cls-85" d="M110.18,195.58c-.19,4.69.35,9.41,1.17,14.01.13.75-.04,1.72.58,2.1.48.3,2.43.04,2.55.61l1.58,7.63c1.35,6.55,3.65,12.6,4.2,19.07l.18,2.1c.1,1.13,1.12-.12,3.44,2.63.74,3.87,1.16,7.81,1.24,12.19,1.42.64,2.97.49,4.35.88.54,1.82-.36,3.59,1,4.88.19,1.01-.36,5.37,1.22,5.17-2.06.33-3.85-.99-6.66-1.07.79-3.15-1.73-4.15-2.95-5.91-.79-1.13-.36-2.69-2.42-3.21-1.02-.26-.52-2.27-.89-2.86-2.75-4.4.64-3.5-1.85-5.47-.49-.39-.91.51-1.2.37-2.67-1.27-.69-4.24-1.96-6.08-.46-.67-1.57-.1-2.43-.28-1.5-.32-1.23-2.5-1.75-3.68-.91-.58-2.32-.29-3.09-1-.86-.79.07-2.94-.93-3.68-1.07-.8-2.71-.1-4.1-.62-.59-1.19.31-2.92-.54-4.04-.95-1.25-3.45,0-4.39-.77-3.14-2.6,5.29-5.39,5.21-9.19l3.97-1.63c.4-1.08-.06-2.05.12-3.33-4.49-1.01-8.74-1.26-13.42-1.41.6-2.79.98-5.67,2.2-7.9.44-.81,1.41-1.09,1.34-2.48-.12-2.44,1-4.54,1.13-6.88,1.7-.27,3.12-.42,4.59-1.11.1-1.44-.62-3.38.52-4.18s4.33-.56,5.08.55-.62,3.14.5,3.91c.59.4,1.79.11,2.41.65Z"/>
            <path class="cls-85" d="M160.71,190.1l1,4.48c.25,1.14,2.93.62,3.91,1.39l2.03,8.43c.72,2.97,3.28,5.21,2.68,8.8-4.83.12-9.99.09-14.68,1.11-.03,3.82,3.92,3.58,5.28,5.2,1.54,1.83,2.07,3.79,4.41,4.94,1.28.63,2,3.16.87,3.97-1.04.75-2.44-.02-3.63.54l-1.76,8.31c-1.31.34-2.59-.1-3.92.42l-.44,3.92-4.31.45c-.69,1.79.35,3.91-.92,5.32-.79.22-2.14-.08-2.63.37-.97.9-.46,2.35-1.06,5.15-.41,1.89-2.56-3.14-4.73,7.73-.2.98-1.84.64-2.38,1.13-.96.98-.49,2.57-.8,3.84-1.57,1.06-3.41.96-5.08.64-.11-2.12.7-4.04,1.12-6.45.09-.55-.67-1.18-.67-1.9,0-.92.59-.61,1.25-1.32.88.2,3.03.31,3.62-.49.47-2.61.18-5,1.05-7.24.36,0,1.12-.29,1.19-1.04.5-5.5,2.74-10.31,3.79-15.75,1.29-6.68,2.14-13.2,2.57-19.58.89-.27,2-.79,3.35-.68-.02-.23,2.05-16.08,1.62-14.13.57-2.6,2.57,2.72,2.72-7.34,1.7-.41,3.16-.41,4.54-.2Z"/>
            <path class="cls-63" d="M39.13,225.83c.79,1.01.76,2.19,1,3.51l1.41,7.73c1.02,5.6.74,11.58.98,17.57.03.87-.18,2.27.84,2.13,1.58-.22,2.33-4.23,3.11-2.38-.04-.09-.29,10.18-2.12,10.74-3.44,1.35-8.94.64-12.66.37-1.49-4.1-10.03-4.12-8.96-12.18l-3.59-.65c-.52-1.56.3-3.78-.72-5.08-1.36-.82-2.13-1.46-1.96-3.44.12-1.4-1.55-2.62-.99-3.95.11.08.34-.05.46,0,3.16,1.48,7.37,1.63,10.93.48,1.64-.53-.42-3.97-.54-6.26-.03-.67,1-1.02.69-1.73,3.53-.88,6.78-3.98,9.1-6.86,1.31-.28,2.18.3,3.02,0Z"/>
            <path class="cls-141" d="M203.39,274.9c1.88-.98,2.76-3.04,4.74-3.83.9-.36,2.04-.1,2.77-.98.37-.45.27-1.6.54-2.08.98-.11.6-1.09.92-1.64.58-.99,3.81-1.4,4.27-.28.86,2.1-.07,4.28.95,6.01l3.88,1.16,1.13,7.48c.41,2.71,2.53,4.99,2.23,7.98,2.07,1.26,2.6,3.49,2.14,5.74-2.93,1.09-6.16,1.28-9.19,2.77-1.27.62-1.91,2.49-4.04,2.52-1.13.02-1.87,1.72-3.13,1.55-.66-1.56.62-3.49-.69-4.58-.9-.43-2.18,0-2.52-.67-.74-1.5.04-3.98-1.1-4.76-.42-.29-1.39-.13-2.53-.21l-2.13-13.95c.06-1.01,1.87-1.23,1.76-2.23Z"/>
            <path class="cls-64" d="M166.37,305.53l21.94.11c1,0,1.2.32,1.34,1.06l-.22,12.16-45.22.06c-.39-2.16.2-4.4.06-6.54,6.08.37,12.22.13,18.49-.02.64-.02,1.66-5.93-1.07-6.45,1.53.19,3.14-.38,4.68-.37Z"/>
            <path class="cls-87" d="M86.05,305.57l31.63.09c.92,2.06.91,4.5.29,6.93l-38.54-.04c-.1-2.53,0-3.97.13-5.91,1.35-.44,2.31-.12,2.98-.71.82-.33,2.62-.35,3.51-.35Z"/>
            <path class="cls-11" d="M211.44,268.02c-.27.48-.16,1.63-.54,2.08-.73.88-1.87.62-2.77.98-1.98.78-2.86,2.85-4.74,3.83-.91-1.34-6.06.67-7.65,1.7l-.06,19.11c-.65-.09-.57-.74-1.05-.64s-.65.4-1.05.61c-1.73.53-1.46-2.41-2.49-5.22-.32-.88-1.18-1.89-1.27-2.97-.39-5.06-.56-9.93-.08-15.53,11.11.22,10.24-3,21.24-5.57.57-.13.5,1.36.46,1.63Z"/>
            <path class="cls-84" d="M117.83,184.57c-.32,1.79-.1,3.57-.02,5.38-.39.48-2.01.49-2.15,1.25-1.83,10.51,6.35,23.77-3.58,19.31.02-.47.12-.45.27-.55.27-.19.35-.9-.07-.92-.26-.01-.57.68-.94.57-.82-4.6-1.36-9.33-1.17-14.01.06-1.58.85-3.18.39-5.01-.54-2.17-.06-4.48.17-6.51,2.25.7,5.06-1.02,7.08.51Z"/>
            <path class="cls-60" d="M231.1,300.38c-.72-.18-2.54.13-2.78,1.01-.3,1.11.12,2.82-1.03,3.19-2.7.86-5.57,1.07-8.18,2.36-2.16,1.07-4.34,2.11-6.47,2.62-1.37.13-1.03-1.69-1.07-2.59-.12-2.45,4.03-.73,5.57-2.23.54-.53,0-1.88.36-2.42,1.06-1.59,3.57-1.47,5.08-2.29l7.55-4.09c1.4,1.2.92,3.01.97,4.43Z"/>
            <path class="cls-86" d="M194.69,247.65l-4.8-.37c-.55-2.18-.3-4.38-.34-6.44,1.03.49,2.73.26,4.24.14,1.6,1.41,1.36,4.53.9,6.67Z"/>
            <path class="cls-120" d="M136.28,256.55c-.66.71-1.24.4-1.25,1.32,0,.72.76,1.36.67,1.9-.42,2.42-1.23,4.34-1.12,6.45-.46,1.52-3.15.68-2.89.64-1.58.2-1.03-4.16-1.22-5.17,1.17-.3,2.72.52,3.92-.3s-.58-4.54.45-4.98c.46-.2,1.09.05,1.45.13Z"/>
            <g>
              <path class="cls-118" d="M110.74,184.06c-.23,2.04-.71,4.34-.17,6.51.45,1.83-.33,3.44-.39,5.01-.62-.54-1.82-.25-2.41-.65-1.13-.77.22-2.85-.5-3.91s-4-1.31-5.08-.55c-1.14.8-.41,2.74-.52,4.18-1.47.69-2.89.84-4.59,1.11-.14,2.34-1.25,4.44-1.13,6.88.07,1.39-.9,1.68-1.34,2.48-1.23,2.23-1.6,5.11-2.2,7.9,4.68.15,8.93.4,13.42,1.41-.17,1.28.29,2.24-.12,3.33l-3.97,1.63c.08,3.8-8.35,6.59-5.21,9.19.94.78,3.44-.48,4.39.77.85,1.12-.06,2.85.54,4.04,1.39.52,3.02-.18,4.1.62,1,.75.07,2.89.93,3.68.77.71,2.18.42,3.09,1,.52,1.18.25,3.36,1.75,3.68.86.18,1.97-.39,2.43.28,1.26,1.84-.71,4.82,1.96,6.08.29.14.71-.76,1.2-.37,2.49,1.96-.89,1.06,1.85,5.47.37.59-.14,2.6.89,2.86,2.06.52,1.63,2.08,2.42,3.21,1.22,1.75,3.74,2.75,2.95,5.91,2.81.08,4.6,1.4,6.66,1.07-.26.04,2.43.88,2.89-.64,1.67.33,3.5.43,5.08-.64.31-1.27-.16-2.86.8-3.84.53-.49,2.18-.15,2.38-1.13,2.17-10.87,4.32-5.84,4.73-7.73.6-2.81.09-4.25,1.06-5.15.49-.45,1.83-.15,2.63-.37,1.26-1.41.23-3.53.92-5.32l4.31-.45.44-3.92c1.33-.52,2.61-.08,3.92-.42l1.76-8.31c1.2-.56,2.59.22,3.63-.54,1.13-.81.41-3.34-.87-3.97-2.33-1.15-2.87-3.11-4.41-4.94-1.36-1.62-5.32-1.38-5.28-5.2,4.69-1.03,9.85-1,14.68-1.11.6-3.6-1.96-5.84-2.68-8.8l-2.03-8.43c-.99-.77-3.66-.24-3.91-1.39l-1-4.48c1.02.15,1.83-.41,2.76.23,1.44-.23,2.2,2.16,3.28,2.16,2.56,0,3.22,2.22,4.63,3.57,19.05.81,17.41,5.85,18.76,6.82,3.51,2.53,5.33,5.11,7.41,8.72,1,1.73,4.24,2.78,4.57,6.08.21,2.11,4.85,5,4.42,7.25-.16.81.68,2.28,1.14,2.93,2.22,3.14,2.87,7.27,4.26,10.66l2.13,5.18c.75,1.83.34,3.84.76,5.34l2.08,7.52c.34,1.25.57,2.96.95,4.31.31,1.09,3.08,6.15,3.23,7.9s1.58,2.75,2.51,3.73c4.02,4.2,4.3,9.83,5.86,15.02,1.32,4.39,2.81,9.22,3.45,13.41-.77.38-1.33-.44-1.81-.56-.05-1.43.43-3.23-.97-4.43l-7.55,4.09c-1.51.82-4.02.7-5.08,2.29-.36.54.18,1.89-.36,2.42-1.54,1.5-5.69-.22-5.57,2.23.05.9-.3,2.72,1.07,2.59.55.98-8.25,2.76-7.77,3.94-1.05-1-3.07-.17-4.29-1.18-1.29-1.08.09-3.59-.57-5.08-3.27-7.34-5.75-7.01-6.43-11.55.4-.21.56-.5,1.05-.61s.41.55,1.05.64l.06-19.11c1.59-1.03,6.73-3.04,7.65-1.7.11,1.01-1.7,1.22-1.76,2.23l2.13,13.95c1.14.08,2.1-.08,2.53.21,1.14.78.36,3.26,1.1,4.76.34.68,1.61.24,2.52.67,1.31,1.09.04,3.03.69,4.58,1.27.16,2-1.54,3.13-1.55,2.13-.03,2.77-1.9,4.04-2.52,3.04-1.49,6.26-1.67,9.19-2.77.46-2.25-.07-4.48-2.14-5.74.3-2.99-1.82-5.27-2.23-7.98l-1.13-7.48-3.88-1.16c-1.03-1.73-.1-3.9-.95-6.01-.46-1.13-3.68-.71-4.27.28-.32.54.06,1.52-.92,1.64.04-.27.11-1.77-.46-1.63-11,2.57-10.12,5.79-21.24,5.57-.48,5.59-.3,10.46.08,15.53.08,1.08.94,2.09,1.27,2.97-.65-.2-.78.76-.8,1.37l-.64,14.88c-.14-.74-.34-1.06-1.34-1.06l-21.94-.11.06-4.67c5.07-.04,3.56-1.13,9.29-3.27l3.4-8.84c1.81-4.71,5.72-47.77,5.29-55.39,1.74-.54,3.26-.29,5.02-.02l.13,7.5c.04,2.07-.21,4.26.34,6.44l4.8.37c.74,1.45.84,3.19,1.46,4.94,1.66,4.71-.5,12.41.58,13.06,1.24.74,13.68-.8,16.94-1.29.38-15.92-1.57-7.02-2.85-12.71-.98-4.35-2.28-8.62-3.03-13.15-.26-1.59-.46-2.77-1.46-4.14-.7-.96,0-3.43-1.09-4-1.93-1.01-1.51-2.4-2.13-4.06-.59-1.57-2.09-3.03-2.18-5.18-.07-1.81-2.6-.65-3.38-1.2-2.22-1.57-1.72-4.9-1.72-7.5-1.26-1.34-3.68-.19-5.02-.97-1.41-.26.21-7.41-2.41-7.48-4.96-.14-9.64-.84-14.21-.01.39,5.05,1.41,9.78.78,14.13-1.24.01-2.25,1.56-3.19,1.97-1.73.75-2.63.1-2.91,1.93-.14.93-.28,1.62,1.05,2.6.84.63,2.41,2.81,1.42,4.1-1.35,1.77-3.18,3.16-4.45,5.12-3.3,5.11.89,5.44-3.9,7.18-.39,8.32-7.54,4.04-8.51,10.94-.12.84-4.65,6.3-4.51,6.04-1.2,2.25-2.49,3.53-4.81,4.52-1.31,2.41-.34,5.9-1.09,8.66-1.01.73-2.23.13-3.55.66l-.2,28.97c.16.21.46.31.45.51-2.46.5-4.99,0-7.45.05-.57-.59,1.09-.32,1.08-.65l-.14-16.97c-1.77.84-3.97,1.4-5.66.88-1.35-.41-3.54-1.85-3.6-3.86-.2-6.46,9.93-5.95,6.08-7.05-11.89-1.49-6.12-6.72-9.4-6.81-4.94-.13-.8-4.73-3.89-5.67-1.02-.31-2.01-.09-2.69-.7-1.52-1.37-.76-5.91-1.56-6.81s-2.62-.13-3.83-.77c-.52-1.72.1-3.5-.61-5.28-.42-1.04-2.48-.37-3.37-.56l-.75-6.3-23.91-.13c-.47-.78-.64-2.3-.45-3.41,5.37-3.55,9.93-1.37,16.2-2.88-2.68-5.72-1.31-3.53-5.57-5.76.15-3.11,3.06-4.56,4.87-6.59.75-.84-1.5-2.43-2.58-2.12-1.73.5-5.72-2-5.21-1.49-1.43-1.45.98-11.82.46-15l-15.47.54c-.14,2.57.01,4.66-.48,7.1l-6.93,1.21-.71,5.56c-.77,1.12-2.98,1.37-4.15,2.38-1.3,1.16-.6,3.94-1.66,5.52l-4.68,1.2c-.41,1.95.19,3.87-.59,5.72-1.41.49-2.84.23-4.34.41-1.19,3.81-.21,7.5.9,11.2.78,2.59-.05,5.15.46,7.42-.77-.11-1.19.54-2.17.82.26,2.42-.87,4.59.29,7.04,3.49-4.08,6.74-1.99,6.57-5.99-.09-2.05,3.69-.44,4.71-1.92.62-.89.56-2.07.55-3.57,1.15-.78,2.62-.42,4.19-.8l.68-5.68c1.61-.05,3.91.53,4.26-1.27.17-.88-.08-1.81.22-2.62.24-.65,1.87-.14,2.4-.64.92-1.06.3-2.62.76-4,1.71-.34,3.33-.55,5.28.02l.14,62.34c1.17.45,1.92.24,2.32.63.66.62.56,1.64.53,2.66-.05,1.63,2.04,1.15,2.88,1.81,1.56,1.21,1.31,3.53,1.29,5.1-.9,0-2.7.02-3.51.35-3.71.08-7.45-.54-11.13.11,0-11-.51-22.11.13-33.13.16-2.7.83-11.03-.31-13.37-.37-.76-3.11.05-2.54,1.47.31.75-.75,2.36-1.3,2.73-9.71,6.33,1.98,5.51-10.9,7.88-.74.14-.15,1.3-.6,1.6-2.84,1.9-5.76,2.92-8.68,4.37-1.34.67-3.25-.28-4.64-.1-9.12,1.2-11.56-6.1-16.24-6.32-2.43-.11-1.87-3.5-3.03-4.89-2.43-2.93-4.71-5.53-5.93-9.43-.38-1.2-2.92-1.96-3.08-4.12-.18-2.44-1.92-4.59-3.65-6.56s-2.14-4.38-3.69-6.43c-.43-.57.78-1.85,1.37-1.77-.06.48.53.88,1.04.99.4.08,1.29-1.16,1.41.27,1.17.98,3.33.05,4.68.99-.56,1.33,1.11,2.55.99,3.95-.17,1.98.61,2.63,1.96,3.44,1.02,1.3.2,3.52.72,5.08l3.59.65c-1.07,8.06,7.47,8.08,8.96,12.18,3.72.27,9.22.98,12.66-.37,1.83-.57,2.08-10.84,2.12-10.74-.78-1.85-1.53,2.16-3.11,2.38-1.02.14-.8-1.26-.84-2.13-.24-6,.05-11.97-.98-17.57l-1.41-7.73c-.24-1.32-.21-2.5-1-3.51-.08-.47-.2-.85-1.22-.58-1.34-.57-.52-2.07-.52-3,2.49-.17,2.79,2.34,4.28,4.05s3.6,3.1,3.96,5.75c.14,1.02,3.31.88,3.31-.3,0-2.62,1.38-4.11,3.23-5.12,4.09-2.24,2.36-6.59,5.39-8.04,5.16-2.47,1.64-6.12,5.81-6.11.72,0,1.81-.26,1.71-1.27-.16-1.59,1.89-2.42,2.71-3.84,1.25-2.16,2.51-3.94,5.38-3.67,2.27-7.79,1.79-4.43,3.52-5.26,2.97-1.42,5.62-1.16,8.66-1.47,2.5-.25,5.92-1.39,8.86-1.08,1.83.19,2.31-2.66,2.68-4.24.42-1.81,2.67-1.73,4.37-1.53l1.46-6.07c2.65.49,5.37-.8,8.01.01Z"/>
              <path class="cls-3" d="M65.08,211.2c.1,1.01-.98,1.28-1.71,1.27.16-.65.96-1.53,1.71-1.27Z"/>
              <path class="cls-7" d="M51.16,251.65c1.01,1.81,3.29-.85,4.7,1.87.17,3.99-3.08,1.9-6.57,5.99-1.16-2.45-.04-4.62-.29-7.04.98-.28,1.4-.93,2.17-.82Z"/>
              <path class="cls-20" d="M127.26,278.24c.12-1.57,2.03-2.38,3.07-1.77,1.2.69.76,2.24-.17,3.04-.76.66-3.04.58-2.9-1.27Z"/>
            </g>
            <path class="cls-15" d="M112.66,319.03c.11.25-.03.42-.07.6-.05.27-.56.36-1,.52.73,2.2,2.84,3.06,4.84,4.18.79.45.73,2.12,1.28,2.51.85.6,1.8.74,2.98.7l13.76-.43-.28,22.62c-1.51-.95-2.09-2.27-3.61-2.3.2-1.66-.89-1.68-.55-.43.91,1.43-.34,16.55-.39,16.69-.79,2.36.18,4.79-.3,7.21-.52,2.6-1.02,4.92-1.04,7.5-.03,3.96-1.01,7.54-1.25,11.5l-1.35,22.6c-.22,3.59-.64,6.51-.51,10.45-2.92-.6-5.6.51-7.89.48l-44.07-.48c-6.76-.07-5.82,0-8.53-1.78-.86-.56-2.12-.37-2.49-.81-.47-.56-.83-1.74-.72-2.66l2.74-22.5,1.72-14.3,1.63-11.27c.96,1.19.75,2.44,1.18,4.14l4.76.95c1.35.27,21.43.44,23.23-.8,1.43-.98.36-4.39,1.47-4.99.6-.32,2.92.22,2.93-.83l.19-19.17c.05-5.05-.02-9.85-1.14-14.82l-21.53-.49.33-14.42,33.66-.16Z"/>
            <path class="cls-15" d="M165.28,422.98l-20.24.31c-1.22.02-2.94-.74-4.64-.31l.03-15.17-.06-80.88c2.49.83,3.94-1.14,5.55-1.68,4.83-1.62,9.99-1.67,14.97-1.24l-.04,9.02c1.4.54,2.58.35,4.06.59l-.24,4.39c-1.46.65-2.74.02-4.25.93v29.64c0,1.82,1.14,3.45.8,5.71,2.6-1.09,3.5.92,4.61,1.72l23.77-.79-.07,26.29c0,2.37-.12,4.74-.61,6.9-1.96.34-4.62.45-5.07,2.34-.25,1.04.59,4.2-.82,4.32-3.8.33-7.23.79-10.98,1.86-2.26.65-5.03.33-6.46,3.27-.36.74.17,2.11-.31,2.79Z"/>
            <path class="cls-27" d="M134.63,422.72c-1.54.39-3.12.04-4.69.2-.99-7.99-1.11-16.33-.75-24.85l1.17-27.92.39-13.79c.04-1.33,2.01-.89,3.51-.24l.48,43.07c.02,1.72.04,3,.03,4.62l-.14,18.91Z"/>
            <g>
              <path class="cls-126" d="M118.91,318.98c0,.07,0,.22.02.47-.26.78.27,1.37.64,2.76l21.91.11c1.42,0,2.24-.62,2.21-1.83-.01-.46-.19-1.52.54-1.58l45.22-.06c.89,1.26,2.58.5,3.96,1.2.31,2.13.5,4.12.81,6.24l2.32,16.14,1.35,11.09c.17,1.37.59,2.04,1.07,3.26,2.03,5.19,1.97,10.8,2.72,16.2l2.46,1.42c.48,7.27.84,14.34,2.39,21.44.96,4.38,3.62,20.09,2.18,23.45-6.65,4.52-4.06,1.12-11.17,4.1l-1.12,4.31c-2.65.3-4.88.08-7.21,0l-.18-.76c.08-1.18.4-2.22.04-4l-23.79.02c.48-.68-.05-2.05.31-2.79,1.43-2.94,4.2-2.62,6.46-3.27,3.75-1.07,7.18-1.53,10.98-1.86,1.41-.12.57-3.28.82-4.32.45-1.89,3.11-1.99,5.07-2.34.49-2.16.6-4.52.61-6.9l.07-26.29-23.77.79c-1.12-.8-2.01-2.81-4.61-1.72.34-2.26-.8-3.9-.8-5.71v-29.64c1.51-.91,2.8-.28,4.25-.93l.24-4.39c-1.47-.24-2.65-.04-4.06-.59l.04-9.02c-4.98-.43-10.14-.39-14.97,1.24-1.61.54-3.06,2.51-5.55,1.68l.06,80.88-.03,15.17c1.7-.42,3.42.33,4.64.31-.39,1.77.01,3.58-.24,5.37-2.74-.13-5.51.38-8.43-.06-1.25-1.81.62-6.28-1.74-5.88l.14-18.91c.01-1.62-.01-2.89-.03-4.62l-.48-43.07c-1.5-.65-3.47-1.08-3.51.24l-.39,13.79-1.17,27.92c-.36,8.52-.24,16.86.75,24.85-1.85,1.13-.3,3.71-1.27,5.58l-11.31.2c.14-1.74.16-3.53-.08-5.27,2.29.02,4.97-1.08,7.89-.48-.13-3.93.3-6.85.51-10.45l1.35-22.6c.24-3.96,1.22-7.54,1.25-11.5.02-2.58.52-4.9,1.04-7.5.49-2.42-.49-4.85.3-7.21.05-.14,1.29-15.26.39-16.69-.34-1.25.75-1.23.55.43,1.52.03,2.1,1.35,3.61,2.3l.28-22.62-13.76.43c-1.19.04-2.14-.1-2.98-.7-.55-.39-.48-2.06-1.28-2.51-2-1.12-4.11-1.98-4.84-4.18.44-.16.95-.25,1-.52.04-.18.18-.35.07-.6,2.04,0,4.19.32,6.25-.05Z"/>
              <path class="cls-18" d="M184.17,373.3l-18.43.08c-.69-1.67.44-3.37-.96-4.85l.13-29.67,24.59.09.05,29.27c-1.55.61-3.22.15-5.06.59-.45,1.33-.05,2.5-.32,4.49Z"/>
              <path class="cls-116" d="M143.68,320.5c.04,1.2-.79,1.83-2.21,1.83l-21.91-.11c-.37-1.39-.9-1.98-.64-2.76.81.02.53,1.1,1.31,1.72l18.91-.09c1.71,0,3.16-.29,4.53-.57Z"/>
            </g>
            <g>
              <path class="cls-59" d="M79,319.19l-.33,14.42,21.53.49c1.11,4.97,1.19,9.77,1.14,14.82l-.19,19.17c-.01,1.06-2.33.51-2.93.83-1.11.6-.05,4.02-1.47,4.99-1.8,1.24-21.88,1.07-23.23.8l-4.76-.95c-.43-1.69-.22-2.95-1.18-4.14l-1.63,11.27-1.72,14.3-2.74,22.5c-.11.92.24,2.1.72,2.66.37.44,1.63.25,2.49.81,2.71,1.78,1.77,1.71,8.53,1.78-.47,1.75,0,3.56-.28,5.33-3.61-.52-7.28-.73-11.19-.59l-1.61-4.73c-5.66-1.61-2.83-.09-7.18-2.07-3.09-1.41-3.42-3.4-2.96-6.83l.7-5.15c.4-2.94.62-5.87,2.68-8.66.5-.68.69-2.84.98-3.72.5-1.54-.63-3.63.54-5.61.96-1.62-.63-3.7.18-5.56.27-.61,1.13-.95.57-1.73-1.06-1.47.67-2.52.58-3.38-.32-2.97.07-5.81,2.13-8.04,1.75-6.85.64-5.14,2.35-12.6l1.8-7.8.35-4.36c.28-3.43.49-7.26,3.39-9.79-1.13.15.73-16.83.44-15.4.66-3.29,4.9-1.85,4.69-3.35,2.5.32,5.07.3,7.59.28Z"/>
              <path class="cls-104" d="M69.01,368.56c-.09-5.98.83-10.86.94-16.17l.28-13.41h26.4s.03,29.44.03,29.44l-27.66.14Z"/>
            </g>
            <path class="cls-54" d="M214.86,313.02c.56,3.2,2.86.57,3.33,3.49.91.07,1.47-.04,1.35.6-3.12,1.4-6.4,2.7-9.23,4.59-1.23-.04-1.08-1.97-2.27-2.44-.43-.17-1.05.07-1.68.03,1.27-4.15,5.48-4.54,8.5-6.26Z"/>
            <path class="cls-13" d="M145.02,189.97c.57.41,1.72.45,2.97.61.12,6.25-.94,12.64-1.89,18.9-.2,1.33-.2,2.07-1.45,2.16-2.2.16-1.5-2.43-4.26-3.1-.74-.95-1.16-2.05-.84-3.91-1.4-.83-2.95-.52-4.39-1.15-.71-1.08-.02-2.36-.62-3.75-1.72-.38-3.28-.33-4.94-.45l-.46,4.45c-1.44.22-2.82-.18-3.97.57-.57.37-.07,1.65-.57,2.38-.94,1.39-3.48,2.18-3.39,4.01.07,1.5,2.33.17,3.07.15,2.12.92,1.38,4.35,1.22,6.31l-1.65,19c-.24,2.81-.45,5.15.02,7.61-2.31-2.75-3.34-1.5-3.44-2.63l-.18-2.1c-.55-6.47-2.85-12.52-4.2-19.07l-1.58-7.63c-.12-.57-2.07-.32-2.55-.61-.62-.38-.45-1.36-.58-2.1.36.11.67-.58.94-.57.41.02.34.74.07.92-.15.1-.25.08-.27.55,9.92,4.45,1.74-8.8,3.58-19.31.13-.76,1.76-.77,2.15-1.25,3.18.65,5.67,2.33,7.06,5.93,3.86,3.36,8.81,3.59,12.96.84,2.7-1.79,2.48-5.62,7.2-6.75Z"/>
            <path class="cls-73" d="M18.37,229.9c.1.58-.23,1.73.08,2.32,1.31,2.51,8.53-1.59,8.55.47.31.72-.72,1.07-.69,1.73-4.12.14-3.92,3.01-9.77,4.1-.89.06-1.18-.76-1.31-1.62l-.94-5.96c-.1-.6.02-1.17.46-1.15,1.13-.17,2.53.34,3.61.1Z"/>
            <path class="cls-131" d="M148.49,212.46c-.43,6.37-1.28,12.89-2.57,19.58-1.05,5.43-3.29,10.25-3.79,15.75-.07.75-.83,1.05-1.19,1.04.61-1.58.11-3.84.03-5.74-.39-9.85-1.66-19.2-3.4-28.84-.32-1.77.92-3.02,2.18-3.36l1.12,5.1c1.9.08,4.34.68,5.75-.67.5-.48-.39-1.95.36-2.6.41-.35.77-1.03,1.49-.25Z"/>
            <path class="cls-36" d="M232.14,311.97l-8.09,3.35-3.26,1.34c-.41.17-.87.29-1.24.46.12-.64-.44-.54-1.35-.6-.48-2.92-2.78-.29-3.33-3.49,3.68-2.1,7.55-3.68,11.85-5.58,1.47-.65,3.2-3,4.89-.38.87,1.35.75,3.47.55,4.91Z"/>
            <path class="cls-145" d="M26.31,234.43c.11,2.29,2.18,5.73.54,6.26-3.56,1.15-7.77,1-10.93-.48-.02-.64.54-1.07.63-1.68,5.84-1.09,5.65-3.97,9.77-4.1Z"/>
            <path class="cls-1" d="M161.69,305.9c2.73.52,1.71,6.43,1.07,6.45-6.27.16-12.41.4-18.49.02-.15-2.18-.06-4.3.07-6.74,5.78.12,11.6-.43,17.35.27Z"/>
            <g>
              <path class="cls-57" d="M140.39,208.55c.59.76-.07,1.91-.62,2.34-1.26.34-2.5,1.59-2.18,3.36,1.73,9.64,3.01,18.99,3.4,28.84.07,1.9.57,4.16-.03,5.74-.86,2.24-.57,4.63-1.05,7.24-.59.79-2.74.69-3.62.49-.36-.08-.99-.33-1.45-.13-1.03.45.78,4.14-.45,4.98s-2.75,0-3.92.3c-1.36-1.29-.46-3.06-1-4.88-1.38-.39-2.93-.24-4.35-.88-.07-4.38-.5-8.32-1.24-12.19-.47-2.46-.26-4.8-.02-7.61l1.65-19c.17-1.95.9-5.39-1.22-6.31-.75.02-3.01,1.35-3.07-.15-.08-1.83,2.45-2.61,3.39-4.01.49-.73,0-2.01.57-2.38,1.15-.75,2.53-.35,3.97-.57l.46-4.45c1.65.13,3.21.07,4.94.45.6,1.39-.09,2.68.62,3.75,1.44.63,2.98.32,4.39,1.15-.32,1.86.1,2.96.84,3.91Z"/>
              <path class="cls-35" d="M134.96,247.24c-2.28.61-4.04.03-6.3-.2-.27-9.89.19-20.48.87-30.61.83-1.11,4.18-.94,4.85.21.69,9.87.52,20.11.58,30.59Z"/>
              <path class="cls-124" d="M135.35,211.5c-1.91-.2-4.5,1.01-5.83-.42-.98-1.06-1.19-4.56-.37-5.75.98-1.43,4.2-1.18,5.8-.91l.4,7.08Z"/>
            </g>
            <g>
              <path class="cls-128" d="M133.34,301.32c2.47-.05,4.99.45,7.45-.05l2.98.39c-.26,1.36.62,2.9.56,3.98-.12,2.44-.21,4.56-.07,6.74s-.45,4.39-.06,6.54c-.72.07-.55,1.12-.54,1.58-1.37.29-2.83.57-4.53.57l-18.91.09c-.77-.61-.5-1.7-1.31-1.72-.01-.25-.02-.4-.02-.47v-13.5c.01-1.34-.06-2.57.63-3.86l13.8-.3Z"/>
              <g>
                <path class="cls-113" d="M139.56,316.31l-15.37.24-.08-10c5.31-.19,10.2-.18,15.52.2l-.07,9.57Z"/>
                <path class="cls-51" d="M138.4,309.61c.96.56.82,1.95.49,2.44-.57.85-4.6.87-4.91-.01-.17-.5-.24-1.8.35-2.38.71-.71,2.87-.76,4.07-.05Z"/>
              </g>
            </g>
          </g>
        </g>
      </g>
    </g>
  </g>
</svg>