<?xml version="1.0" encoding="UTF-8"?>
<svg id="_レイヤー_2" data-name="レイヤー 2" xmlns="http://www.w3.org/2000/svg" viewBox="0 0 305.73 512">
  <defs>
    <style>
      .cls-1 {
        fill: #412e44;
      }

      .cls-2 {
        fill: #a2a1af;
      }

      .cls-3 {
        fill: #eab6a2;
      }

      .cls-4 {
        fill: #d6dadf;
      }

      .cls-5 {
        fill: #b3b6c2;
      }

      .cls-6 {
        fill: #837d92;
      }

      .cls-7 {
        fill: #dde1e5;
      }

      .cls-8 {
        fill: #49394e;
      }

      .cls-9 {
        fill: #bfc1cb;
      }

      .cls-10 {
        fill: #878192;
      }

      .cls-11 {
        fill: #b1b1bc;
      }

      .cls-12 {
        fill: #c2c4ce;
      }

      .cls-13 {
        fill: #dcdde4;
      }

      .cls-14 {
        fill: #d7dbe1;
      }

      .cls-15 {
        fill: #5c4d63;
      }

      .cls-16 {
        fill: #8d8b9c;
      }

      .cls-17 {
        fill: #b1b3bf;
      }

      .cls-18 {
        fill: #ababb7;
      }

      .cls-19 {
        fill: #8f8b9d;
      }

      .cls-20 {
        fill: #a29faf;
      }

      .cls-21 {
        fill: #d5d9e0;
      }

      .cls-22 {
        fill: #a7a7b4;
      }

      .cls-23 {
        fill: #9d99a8;
      }

      .cls-24 {
        fill: #e0e4e7;
      }

      .cls-25 {
        fill: #786e82;
      }

      .cls-26 {
        fill: #e5e9eb;
      }

      .cls-27 {
        fill: #9b97a6;
      }

      .cls-28 {
        fill: #a09dac;
      }

      .cls-29 {
        fill: #fff;
      }

      .cls-30 {
        fill: #dadde3;
      }

      .cls-31 {
        fill: #898496;
      }

      .cls-32 {
        fill: #868091;
      }

      .cls-33 {
        fill: #b9bdc5;
      }

      .cls-34 {
        fill: #a3a3b2;
      }

      .cls-35 {
        fill: #bfc3cc;
      }

      .cls-36 {
        fill: #9e9bab;
      }

      .cls-37 {
        fill: #b9bcc7;
      }

      .cls-38 {
        fill: #756d81;
      }

      .cls-39 {
        fill: #928da0;
      }

      .cls-40 {
        fill: #8c5664;
      }

      .cls-41 {
        fill: #a7a5b0;
      }

      .cls-42 {
        fill: #e5e9ea;
      }

      .cls-43 {
        fill: #544054;
      }

      .cls-44 {
        fill: #9995a7;
      }

      .cls-45 {
        fill: #e4e8e9;
      }

      .cls-46 {
        fill: #c2c5cf;
      }

      .cls-47 {
        fill: #928d9d;
      }

      .cls-48 {
        fill: #b0b1bc;
      }

      .cls-49 {
        fill: #e5e7e9;
      }

      .cls-50 {
        fill: #bbbdc7;
      }

      .cls-51 {
        fill: #bbbec8;
      }

      .cls-52 {
        fill: #ccd1d7;
      }

      .cls-53 {
        fill: #807a8e;
      }

      .cls-54 {
        fill: #bdbfc9;
      }

      .cls-55 {
        fill: #756e81;
      }

      .cls-56 {
        fill: #b6827f;
      }

      .cls-57 {
        fill: #adb0bb;
      }

      .cls-58 {
        fill: #9590a1;
      }

      .cls-59 {
        fill: #776d80;
      }

      .cls-60 {
        fill: #c17e77;
      }

      .cls-61 {
        fill: #caced5;
      }

      .cls-62 {
        fill: #817b8d;
      }

      .cls-63 {
        fill: #a5a3b1;
      }

      .cls-64 {
        fill: #9a99a9;
      }

      .cls-65 {
        fill: #997179;
      }

      .cls-66 {
        fill: #bb7b75;
      }

      .cls-67 {
        fill: #4b394e;
      }

      .cls-68 {
        fill: #f5f1f3;
      }

      .cls-69 {
        fill: #b67e7f;
      }

      .cls-70 {
        fill: #a7a7b3;
      }

      .cls-71 {
        fill: #d2d6dc;
      }

      .cls-72 {
        fill: #b77977;
      }

      .cls-73 {
        fill: #7a7285;
      }

      .cls-74 {
        fill: #8f92a4;
      }

      .cls-75 {
        fill: #dadee1;
      }

      .cls-76 {
        fill: #483649;
      }

      .cls-77 {
        fill: #39273e;
      }

      .cls-78 {
        fill: #584a5f;
      }

      .cls-79 {
        fill: #d3d6de;
      }

      .cls-80 {
        fill: #ced0d8;
      }

      .cls-81 {
        fill: #fbddc3;
      }

      .cls-82 {
        fill: #9895a4;
      }

      .cls-83 {
        fill: #d3d7de;
      }

      .cls-84 {
        fill: #dee1e7;
      }

      .cls-85 {
        fill: #9591a0;
      }

      .cls-86 {
        fill: #8c8998;
      }

      .cls-87 {
        fill: #7b7487;
      }

      .cls-88 {
        fill: #807a8c;
      }

      .cls-89 {
        fill: #b5b5c2;
      }

      .cls-90 {
        fill: #b8bac3;
      }

      .cls-91 {
        fill: #a09fad;
      }

      .cls-92 {
        fill: #8f8a9b;
      }

      .cls-93 {
        fill: #bd867d;
      }

      .cls-94 {
        fill: #5e5067;
      }

      .cls-95 {
        fill: #ba7c75;
      }

      .cls-96 {
        fill: #bec2cb;
      }

      .cls-97 {
        fill: #b4b4c0;
      }

      .cls-98 {
        fill: #afafbb;
      }

      .cls-99 {
        fill: #594a5f;
      }

      .cls-100 {
        fill: #bfc1c9;
      }

      .cls-101 {
        fill: #d59787;
      }

      .cls-102 {
        fill: #b3b4bf;
      }

      .cls-103 {
        fill: #827c8f;
      }

      .cls-104 {
        fill: #864a50;
      }

      .cls-105 {
        fill: #5e4e63;
      }

      .cls-106 {
        fill: #feffff;
      }

      .cls-107 {
        fill: #daa090;
      }

      .cls-108 {
        fill: #e4e8ea;
      }

      .cls-109 {
        fill: #9e9daa;
      }

      .cls-110 {
        fill: #c7cbd3;
      }

      .cls-111 {
        fill: #8c889a;
      }

      .cls-112 {
        fill: #9893a2;
      }

      .cls-113 {
        fill: #a8a7b4;
      }

      .cls-114 {
        fill: #a9a9b6;
      }

      .cls-115 {
        fill: #c1c3cb;
      }

      .cls-116 {
        fill: #fadec3;
      }

      .cls-117 {
        fill: #422f44;
      }

      .cls-118 {
        fill: #c3c8cf;
      }
    </style>
  </defs>
  <g id="_レイヤー_1-2" data-name="レイヤー 1">
    <g id="_生成オブジェクト" data-name="生成オブジェクト">
      <g>
        <path class="cls-14" d="M207.55,505.26c.57.98.2,2.21.14,3.6-.12,2.83-3.19,3.15-6.15,3.15l-126-.08c-2.2,0-4.53.1-5.1-2.07-.43-1.64.71-3.42-.16-4.61l137.26.02Z"/>
        <path class="cls-46" d="M278.26,498.93c-1.35,0,9.32-.42,9.43-2.05-.17.39.34,1.28.9,1.29l12.31.17c.34,1.13.52,2.48-.16,3.63-6.81-.2-14.17.14-20.94-.41-.34-.03-.29-1.43-.22-1.75.12-.58-.67-.9-1.32-.86Z"/>
        <g>
          <path class="cls-70" d="M213.04,492.09c1.69-.07,3.71.73,5.22-.39-5.48-.4,18.75,1.42,8.46,1.3l60.65.66c.98,1.12.31,2.22.32,3.22-.11,1.63-10.78,2.05-9.43,2.05l-9.91-.02c-.61,1.86.02,3.38-.34,6.28l-60.47.07-137.26-.02-46.57-.11.02-6.14-23.63-.3c-.13-1.94-.16-3.09.05-4.95l65.01-.41c-.06,1.13.17,2.3.32,3.91l52.52-.17.45-4.19h21.5c-.17.66.15,2.24.71,2.88l19.17.39c.14,1.95,3.55,1,4.49,1l32.91-.16c.26-2.06.35-3.68.28-5.28,1.49.77,2.93.92,4.84.84l10.7-.46Z"/>
          <path class="cls-68" d="M25.19,499.22c-.03-.4.76-.14,1.14-.2.19-.03.41.36.09.54-.18.1-.42.55-.61.57s-.59-.37-.63-.91Z"/>
        </g>
      </g>
      <g>
        <path class="cls-32" d="M191.55,237.16c0,1.26-.15,2.53-.04,4.12.99.5,2.09.14,3.35.59.69,3.81-1.54,8.34,1.83,9.01l.31,14.83c1.03.48,1.93.12,3.25.46l.33,18.58,3.47.45.49,18.84c.04,1.64-.05,3.58-.09,5.24-.14,6.34.01,12.92.33,19.58.12,2.62-.13,5.42,1.22,7.81,1.05,1.87.01,4.78,1.36,6.6.75,1.01,1.01,1.42,1.17,2.76l1.23,10.21c.14,1.2,1.87,2.16,1.28,3.98-.42,1.3,1.01,2.16,1.25,2.92.75,2.35.72,4.66,1.75,6.98,1.35,3.03.61,6.8,1.74,10.02.45.26,1.54-.06,1.78.22.28.33.71,1.06.75,1.87l.34,6.48c.96.61,2.15.1,3.52.45.33,2.75-.14,5.24.52,7.87.25.98,1.66.67,2.7.77-.18,2.03.06,3.48.97,5.03.48.81-.19,3.21.91,3.3l3.68.31c-.01,11.16,1.32,7.52,2.37,8.66s.15,2.33.73,3.72c.23.56,1.44.04,2.08.43,1.23.74.3,2.79,1.19,3.7.75.42,2.04.1,2.5.88.63,1.08.55,1.96.42,3.34-.1,1.1,1.91.51,2.26,1.04.88,1.31-.05,2.88.4,4.24,1.16.57,2.57-.07,3.78.82.14,1.22-.48,3.66.83,4.08,1.58.51,3.21-.36,4.55.63.38.98-.46,2.61.35,3.65.91.85,2.79-.03,4.06.5.71,1.66.14,3.25.5,5.25l27.92-.1.86-5.44c1.4.07-.4,1.22.95,1.09.15,3.13.12,6.35-.28,9.66-3.7.15-6.8-.14-9.94.39-.51,1.22.08,2.83-.64,4-.86,1.41-2.87.77-4.38,1.2l-.52,5.14-3.51.64c-.24,2.14.1,4.12-.48,6.18-2.11.27-4.5-.49-5.88.69-.42.36.12,1.93-.28,2.41-.46.55-1.56.34-2.43.54-.34,4.58-5.25,2.14-5.89,3.66-.29.69.02,3.08-.24,3.68-.47,1.09-2.63.05-3.49.91-.25.25-.14.8-.27,1.5-2.56.84-5.12.12-7.71.63-.28.95.02,1.85-.86,2.81-1.75-.88-2.92.78-4.09.88-5.75.48-11.15-.05-16.67.78l-.88,3.06c-1.51,1.12-3.53.32-5.22.39,1.2-1.49.64-12.44-.02-14.59-.3-.97-2-.99-1.7-2.9.44-2.79.23-5.79-.5-8.63-1.24-4.84-.25-10.01-1.24-15.07-.41-2.06-.61-3.87-.81-5.95l-1.51-15.47c-.08-.77-1.29-1.2-1.18-2.42.27-2.75-.18-5.38-.35-8.09l-1.01-15.78c-.04-.56.13-1.33-.37-1.58-.23-.12-.91-.08-.92-.63l-.34-12.74c-1.74.13-1.35-5.24-1.54-8.91l-1.06-19.93-1.69-18.42c-.73-7.93-1.12,1.36-1.29-9.25l-.26-16.6c-1.64-.34-3.32.25-4.8-.51l-.21-28.62c.02,2.89-1.62-19.12-1.46-7.68l-.55-39.32c0-.68.2-1.39.45-1.73.18-.24.6-.36.87-.1Z"/>
        <path class="cls-27" d="M182.92,187.47l.22,1.07c.17.84,2.47.13,4.19.42l.39,16.83,3.91.44-.09,30.93c-.28-.26-.7-.14-.87.1-.25.34-.46,1.05-.45,1.73l.55,39.32c-.16-11.44,1.48,10.57,1.46,7.68l.21,28.62c1.47.76,3.15.17,4.8.51l.26,16.6c.17,10.62.56,1.32,1.29,9.25l1.69,18.42,1.06,19.93c.19,3.66-.19,9.04,1.54,8.91l.34,12.74c.01.54.69.51.92.63.5.25.34,1.02.37,1.58l1.01,15.78c.17,2.72.62,5.34.35,8.09-.12,1.22,1.1,1.66,1.18,2.42l1.51,15.47c.2,2.09.41,3.89.81,5.95,1,5.06,0,10.23,1.24,15.07.73,2.84.94,5.83.5,8.63-.3,1.91,1.4,1.93,1.7,2.9.66,2.16,1.22,13.1.02,14.59l-10.7.46c-1.9.08-3.35-.07-4.84-.84l-.12-2.94c-1.76.04-2.87-.18-4.11-.23-.06-8.66.56-6.42.18-16.43l-.39-10.4c-.14-3.62.15-8.97-.98-9.79l-.32-28.82-.59-16.23-.35-22.49c-1.54-.01-2.94.2-3.67-.5l-.1-18.03c0-.91-.78-1.71-.78-2.83l.03-20.86c-1.09-.35-1.85-.1-2.97-.61l-.4-33.54-1.53-90.36c-.04-2.22-1.07-4.6-.54-6.97l-1.47-.99-.69-16.61c2.7-4.83.8.26,1.57-5.69.36,0,.92-.23,1.24.03.29.24.1.88.86,1.19.27-.45-.2-1.3.54-1.15Z"/>
        <path class="cls-23" d="M208.11,310.25c1.33,1.62.28,3.83.77,6.01,1.16.44,2.29.04,3.78.35l-.15,15.58c1.26.37,2.7-.37,3.35.82-.46,3.27-.15,6.63-.2,10.14.62.41,1.27.28,2.04.64l.32,12.48c1.12-.09,3.73-.62,3.87.41.39,2.78-.21,5.07,1.07,7.53.41.79-.48,2.49.55,3.09.96.57,2.35.83,3.13,1.54-.08,1.67-.13,3.39.06,5.19l4.06.32c.33,1.03.27,1.97.41,2.83.11.71-.6,1.81,0,2.55.66.82,2.05.21,2.95.3,1.55.14,1.03,2.09,1.3,3.29.13.59-.35,1.28-.01,1.83.43.71,1.38.4,2.08.5.69.27.94,1.12.65,1.76-.13,1.21-1.65,3.1-.33,4.3.81.74,3.42-.07,3.53,1.97.31,5.51,1.87-1.69,2.31,7.35.98.46,2.21-.25,2.98.46.62.57.05,1.82.46,2.43.2.3-.17,1.02,0,1.7,1.19.71,2.66.23,3.89.5.24.05.44.15.71.14.57,1.78-.09,3.66.28,5.78l6.06.93c.05,1.47.38,3.17-.01,4.43-.4.42.2.67.39.91.52.62,1.12.31,1.15-.33.02-.32,1.06-.36,1.24-.22.97,0,.29,1.53,1.01,1.9,1.4.73,2.93.12,4.47.71l.29,6.41c2.42.17,4.51.36,6.59.28,3,.06.51,3.46,1.96,6.52l17.28.25c.18,2.77.14,5.14-.16,7.76l-4.91.19c-.63.02-.52.73-.64,1.16-1.35.13.45-1.02-.95-1.09l-.86,5.44-27.92.1c-.36-2,.2-3.59-.5-5.25-1.27-.53-3.15.35-4.06-.5-.81-1.05.03-2.67-.35-3.65-1.34-1-2.96-.12-4.55-.63-1.3-.42-.68-2.86-.83-4.08-1.21-.89-2.62-.26-3.78-.82-.45-1.37.49-2.93-.4-4.24-.36-.53-2.37.07-2.26-1.04.13-1.38.21-2.27-.42-3.34-.45-.77-1.75-.45-2.5-.88-.89-.91.05-2.96-1.19-3.7-.64-.39-1.84.13-2.08-.43-.58-1.4.3-2.61-.73-3.72s-2.38,2.49-2.37-8.66l-3.68-.31c-1.1-.09-.44-2.49-.91-3.3-.9-1.55-1.15-3-.97-5.03-1.04-.1-2.45.22-2.7-.77-.66-2.63-.2-5.12-.52-7.87-1.37-.34-2.56.17-3.52-.45l-.34-6.48c-.04-.81-.47-1.54-.75-1.87-.24-.28-1.33.03-1.78-.22-1.14-3.22-.39-6.99-1.74-10.02-1.03-2.32-1.01-4.63-1.75-6.98-.24-.76-1.68-1.62-1.25-2.92.59-1.82-1.14-2.78-1.28-3.98l-1.23-10.21c-.16-1.34-.41-1.75-1.17-2.76-1.35-1.82-.31-4.73-1.36-6.6-1.35-2.39-1.1-5.19-1.22-7.81-.31-6.66-.46-13.24-.33-19.58.12.32.1,1.09.7,1.07l2.96-.11Z"/>
        <path class="cls-4" d="M79.4,273.54l.27,22.73-.13,114.52c2.91.14,5.11.14,7.3-.08l.36,67.38c-2.18-.06-5.03,1.02-7.28.45-1.69-.43-3.85-1.42-6.24-.33-1.23.56-2.42-.56-3.44-.73l.95-154.17,1.53-33.74.95-16.08,5.74.06Z"/>
        <path class="cls-47" d="M64.32,310.99l.25,12.91-.4,35.82-.26,110.4c-2.75-.04-5.25.31-7.75.54-.75-1.58-.33-3.3-.32-5.23l.18-80.78c.01-4.95.23-9.44-.49-14.17-1.46-1.03-3.99-.39-5.44-.07.01-6.08-.45-12.18.34-18.17,1.33-.31,2.56.24,4.25.68l.71-41.99,8.93.07Z"/>
        <path class="cls-59" d="M71.18,323.31l-.95,154.17c-1.62-.27-3.47.22-5.22-.29-.58-.67-.26-2.23-.44-3.27l-9.58-.4c-.1-1.16,1.01-1.8,1.18-2.86,2.5-.23,5-.57,7.75-.54l.26-110.4.4-35.82c2.19-.53,4.49.16,6.61-.59Z"/>
        <path class="cls-117" d="M94.19,478.14l4.89.4c.14,1.78-.29,3.01.05,4.66,1.67.26,3.1-.09,4.62.43.28,1.45-.26,2.62.17,3.84,1.47.49,2.93-.02,4.29.1,0,.92.21,2.07.26,3.15,3.59.64,6.56-.47,9.71-.83-.25.97.36,2.12.26,3l-.45,4.19-52.52.17c-.14-1.61-.38-2.78-.32-3.91l.25-4.45,3.98-.4c1.03-.1.15-2.38.53-3.01,2.43-1.82,5.55-1.08,8.17-.82-1.35.9-4.75.68-6.61.95-1.09.16-.66,2.22-.46,3.26l15.58-.1c.51-1.52.59-2.93.07-4.2-2.34-.03-4.37.01-6.7-.31-.13-.51.14-1.12-.47-1.08.3-1.53-.21-3.16.4-4.63,2.25.57,5.1-.51,7.28-.45,2.36.07,4.68-.14,7,.05Z"/>
        <path class="cls-112" d="M56.16,470.66c-.17,1.06-1.29,1.7-1.18,2.86-1.54-.06-3.02-.38-5.15-.63l.25-102.48c1.45-.32,3.98-.95,5.44.07.72,4.73.5,9.22.49,14.17l-.18,80.78c0,1.93-.43,3.65.32,5.23Z"/>
        <path class="cls-108" d="M58.91,248.58c-.17.92.62,1.71-.24,2.83,1.71.79,3.51-.16,5.61.33l-.07,13.45c-2.46.73-4.9.1-7.53.51l.1,9.61c-.88.08-1.46.03-1.84.79-.5.98.94,1.49,1.06,2.19.72,3.89-.29,7.86.18,11.65-2.1.57-.53-1.79-1.14-4.58-1.36-.18-3.16-.44-4.31.3-.2,1.12-.16,3.09.15,4.29h-17.84c.41-1.6.76-2.95-.12-3.99,2.79-4.76.48-.2,2.76-3.4,3.27-.57,6.74.07,9.3-.21.64-.07.06,1.11.46,1.33,1.36.75,2.88.95,4.51,1.04-.73-.73-1.53-.5-2.06-1.24-.42-.58.26-2.04-.33-2.7-1.19-1.33-6.59-1.16-9.1-2.32-.24-.85.49-.66,1.19-.44.31-3.78,4.75-6.37,6.74-11.62,4.66.57,2.94-2.96,5.52-7.39.41-.7,2.53-.93,2.77-1.86,1-3.78,1.08-9.98,4.24-8.58Z"/>
        <path class="cls-19" d="M175.67,169.23c-.82-.26-1.63-.64-2.82-.67l-4.51-.1c.07-1.25.57-2.83-.09-4.3-.16-.36-.94.21-1.07-.16.61-.34,1.17-2.78.41-2.99-2.76-.71-5.78.24-8.34-.75-.05-1.32-.15-2.82.35-4.22l7.9-.08c.19-1.43.6-2.96.07-4.45-.32-.9-2.37-.67-2.12-1.83s.07-2.23.59-3.12c1.38-.24,3.34-1.41,3.42-2.66,3.75,4.29-.17,2.02,7.87,3.36l.34,8.7c1.26.42,2.87-.32,3.76.72.65.76-.38,2.22.11,3.04.76,1.07,1.83,3.37.21,4.25-.99.54-3.11.06-3.4,1.86-.14.88-.03,2.25-.67,2.55-.58.27-1.5.52-2.01.84Z"/>
        <path class="cls-87" d="M168.34,168.46l4.51.1c1.18.03,2,.41,2.82.67.24,1.03.64,2.02.62,3.32.52.34,1.53.21,1.69.71.53,1.6.03,3.13.29,4.8,1.42.53,2.71.35,4.47.63l.19,8.79c-.74-.15-.27.71-.54,1.15-.76-.31-.56-.95-.86-1.19-.32-.26-.88-.02-1.24-.03-.37-1.1-1.7-.45-2.05-1.28-1.54-3.65.15-5.99-.95-7.64s-2.95-.55-4.28-.71c-1.41-.17-3.09.61-4.09-.76-.2-1.34-.08-2.84-.74-4.35-2.92-.24-5.69.52-8.37.53-2.84,0-5.81.52-8.42-.49,1.25-1.37,3.5-1.93,5.53-1.7,4.49.49-1.97-2.85,11.43-2.55Z"/>
        <path class="cls-83" d="M75.37,189.55c1.69,7.94-1.95,2.81-1.81,9.77.08,3.77.08,7.49-.5,11.24-1.01.57-2,.03-3.08.32l-.83,15.15c-.61.97-3.13.46-4.12.3-.52-5.8-.35-11.84-.19-17.97.06-2.53,3.03-1.92,4.01-2.16,1.17-1.95.99-5.5,1.45-7.53.37-1.66,2.04-2.82,1.34-5.14-.36-1.17.37-2.59,1.02-3.35s1.78-1.15,2.71-.63Z"/>
        <path class="cls-16" d="M104.33,187.36l-.21,5.58c-1.27.35-2.39.59-3.4.3-.77-.56-.46-1.84-.19-3.14-1.56-.56-2.89-.05-4.22-.28-.87-1.08-.48-2.81-.76-4.39l-4.24-.51-.29-4.14c-2.83-.56-9.22.36-9.92-.77.42-1.03-.24-2.48,1.07-2.79-.12.76.77.62.62-.06l1.05-.54c.28-.15.55-.2.9-.55.22-.22.46-.28.02-.58-.27-.19-.43-.41-.69-.13.27-.37.07-.73.13-1.13,9.54-1.08.7,2.52,10.2,3.16l.69,3.25c1.68.47,3.15.14,4.55.23.08,1.18.05,1.41-1.12,1.69.97,1.46,1.57,3.28,2.91,4.56.78.4,2.34-.34,2.92.24Z"/>
        <path class="cls-106" d="M273.62,424.41c-.21.77-.68,1.77-.45,2.64-2.08.08-4.18-.11-6.59-.28l-.29-6.41c-1.53-.58-3.07.02-4.47-.71-.72-.37-.04-1.9-1.01-1.9l1.48-4.92c.37-.32.51.23.87.6l8.37.55.05,8.52c0,1.42,1.07,2.02,2.04,1.91Z"/>
        <g>
          <path class="cls-67" d="M32.91,285.96c.87,1.03.52,2.39.12,3.98h17.84c.46,1.79.35,3.49.36,5.6,1.36.23,2.59.23,3.81.16l.35,15.23-.71,41.99c-1.69-.44-2.92-.99-4.25-.68.42-3.13-.93-6.73-.02-10.07l-3.18-.4-.1-7.61c-1.74-.19-3.07.07-4.57-.3-.26-.93.07-5.48-.18-5.59l-1.42-.61c-1.2-.52-.25-3.88-.23-5.59,1.58.71.85-11.58.97-13.16-1.26-.74-3.04.34-4.12-.49-1.02-.79-.36-2.7,1.04-3.46-.52-.88-.27-2.19-1.7-2.8-.79,4.79-.65,9.82-.6,14.5-1.21.11-2.47.25-4.05-.12l.11-17.88c-1.2-.41-2.13-.07-3.64-.19l-.21-12.18c1.71-.48,3.07.26,4.37-.33Z"/>
          <path class="cls-56" d="M40.74,322.07c-.84-.63-2.01-.27-3.4-.33-.72-1.84.44-4-1.01-5.07-.05-4.68-.19-9.71.6-14.5,1.44.61,1.18,1.92,1.7,2.8-1.4.76-2.06,2.67-1.04,3.46,1.08.84,2.86-.24,4.12.49-.13,1.58.61,13.87-.97,13.16Z"/>
        </g>
        <path class="cls-43" d="M78.1,484.65c.3-.2,1.14-.12,1.37-.59.1-.21-.02-.57.04-.9.6-.04.34.57.47,1.08,2.33.33,4.36.28,6.7.31.52,1.27.43,2.69-.07,4.2l-15.58.1c-.2-1.04-.64-3.1.46-3.26,1.86-.27,5.26-.05,6.61-.95Z"/>
        <path class="cls-5" d="M38.44,278.47c2.51,1.16,7.91.99,9.1,2.32.59.66-.09,2.12.33,2.7.52.73,1.33.51,2.06,1.24-1.63-.09-3.15-.29-4.51-1.04-.4-.22.19-1.4-.46-1.33-2.55.29-6.03-.36-9.3.21.16-1.16-.56-2.69.41-3.79.39-.45,1.83-.55,2.37-.31Z"/>
        <path class="cls-118" d="M76.9,188.5c-.54-1.74-.1-3.67.37-5.68s2.17-2.25,3.8-2.23c-.29,2.46.14,5.18-.79,7.88-.3.88-3.1.98-3.38.03Z"/>
        <path class="cls-79" d="M208.11,310.25l-2.96.11c-.6.02-.58-.76-.7-1.07.04-1.66.13-3.6.09-5.24,1.24-.83,2.38.03,3.42,1.32,1.14,1.43.05,3.57.15,4.89Z"/>
        <path class="cls-100" d="M168.36,488.78c-.14,1.38-.22,2.71-.04,4.09.11.88-.29,1.88-.31,2.93-2.05.53-3.75.54-5.5.25-.3-.6.55-1.3.56-2.15l.25-21.26-4.2-.36-.11-102.39-.18-53.01c-1.94-.22-3.54-.32-5.39.2l-.52,28.23c-2.39.51-4.33.19-6.82.02l.98-77.72,7.17-.23.42-9.61c1.48-.29,2.88.14,4.27-.44.47-1.82,0-3.56.32-5.62,1.33-.71,2.94-.32,4.14-1.2l.16-14,4.63-.24.27-36.38c1.14,0,4.1.32,4.67,1.75.67,1.67.67,3.98.67,5.78l.26,85.95.12,120.05.15,52.72c.02,5.77-.1,11.15.29,16.97-2.04.72-3.75.28-5.92.48-.59,1.79-.18,3.54-.34,5.19Z"/>
        <path class="cls-11" d="M168.91,177.02c.99,1.37,2.68.59,4.09.76-.56,8.48.2,3.93,1.92,11,1.51,1.25,3.69,1.85,3.8,4.32l.69,16.61,1.47.99c-.53,2.37.5,4.75.54,6.97l1.53,90.36.4,33.54c1.11.51,1.88.26,2.97.61l-.03,20.86c0,1.11.77,1.91.78,2.83l.1,18.03c.73.7,2.14.49,3.67.5l.35,22.49.59,16.23.32,28.82c1.13.83.85,6.17.98,9.79l.39,10.4c.38,10.01-.23,7.77-.18,16.43-2.07-.08-4.19.27-6.49-.02-.41-1.41-.14-2.72-.35-4.27l-3.47-.58c-1.02-.17-.27-2.6-.48-3.86-.87-.54-1.58-.21-2.26-.25-.58-.03-1.11-.15-2.06-.02-.4,3.07-1.47,6.4-.29,8.83-3.11.73-6.36,0-9.52.41.16-1.66-.25-3.41.34-5.19,2.16-.2,3.88.24,5.92-.48-.4-5.82-.28-11.2-.29-16.97l-.15-52.72-.12-120.05-.26-85.95c0-1.79,0-4.1-.67-5.78-.57-1.43-3.53-1.75-4.67-1.75l-.23-14.01c-1.87-.33-3.1.08-4.8-.43-.27-1.76.25-3.43-.56-4.95-1.38.12-3.49.69-3.94-.59-.39-1.09.29-2.49-.8-3.23.42-.13.98-.14,1.1-.59.7.06,9.69.94,9.69.94Z"/>
        <path class="cls-115" d="M113.91,336.87l.37,12.01c.04,1.3.19,2.28,1.85,2.33l-.24,5.24c2.41.42,4.51-.09,6.59-.12l.07,130.14c-.05.14-.19.64-.14.9.04.19.04.63.42.4-1.35,2.1-4.77.06-4.65,2.11-3.15.36-6.12,1.47-9.71.83-.04-1.07-.26-2.22-.26-3.15l.52-151.05c1.68.67,3.45-.02,5.17.36Z"/>
        <path class="cls-25" d="M140.05,345.94l-.45,141.88c-5.12.76-11.7-.29-16.77-.05-.39.23-.38-.21-.42-.4-.06-.26.08-.76.14-.9l8.38.1.12-3.38c.05-1.43.86-2.55-.37-3.97,1.61-.59,2.17-1.48,2.17-2.86l.05-28.22.03-91.23c0-1.49-.22-2.94-1.35-3.46-1.42-.65-.86-2.28-1.41-3.33-.62-1.19-2.45-.89-3.94-.74-.75-1.02-.72-2.37-.41-3.46-.83-.71,14.65-1.05,14.25.01Z"/>
        <path class="cls-63" d="M94.33,339.86l-.13,138.28c-2.32-.19-4.64.02-7-.05l-.36-67.38.69-69.86c2.31.24,4.69,0,6.8-.99Z"/>
        <path class="cls-114" d="M146.84,176.62c2.44-.53,5.62.08,7.95.42.12.57.67,2.64-.07,2.99-3.17,1.03-6.4.35-9.73.61-.78,1.46-.05,3.19-.58,5.01l-7.22.14-.48,4.12c-1.86-.26-3.74-.12-4.52,1.26-5.63-.6-11.66-.85-17.71-.47l.06,3.92c-1.87.8-.44,2.88-.98,4.8-1.26.44-2.62.09-4.26.48-.17,3.43-.02,6.82-.66,10.34-.58.75-2.61.39-3.72.27-.33-3.09-.06-5.86-.19-9.06-.05-1.23-3.4-.11-4.01-1.06-.25-.4-.3-1.08-.34-1.55,1.53-.1,3.21.21,4.64-.78.33-.83-.3-2.16.32-2.88.68-.79,2.21-.15,3.04-.84l.82-7.49c1.36.25,3.34.35,3.46-1.09.14-1.65-.15-3.28,1.44-4.24.85-.51,2.29-.02,3.58.14-.18.81-1.06,1.29-.54,2.27,1.97-.1,4.48.48,5.92-.45.45-.46-.1-2.81,1.1-2.85l11.29-.41c4.59-.17,5.62-2.34,11.39-3.61Z"/>
        <path class="cls-9" d="M79.4,273.54l-5.74-.06.2-13.63c-1.67-.43-2.91-.3-4.16-.09.04-1.87-1.47-4.45.17-6.63l3.96-.31c.55-2.15.06-4.03.13-5.86.13-3.52.37-7.07.07-10.81l-3.83-.02c-.27-.86-1.24-3.09,0-3.77s2.8.22,4.03-.3l.65-15.13c.04-.91.53-1.52.89-1.77s2,.28,2.18-.16c1.26-3.16-.25-8.6,1.66-8.8.27-.03.66.39.65,1.1l-.87,66.26Z"/>
        <path class="cls-31" d="M73.66,273.48l-.95,16.08-1.53,33.74c-2.12.75-4.42.06-6.61.59l-.25-12.91c-.09-4.71.6-9.47.41-14.22,4.29,1.12,3.17-16.32,3.32-18.73,1.42-1.59,1.27-4.34,1.2-6.71-.11-3.85.36-7.72.45-11.56,1.25-.22,2.49-.34,4.16.09l-.2,13.63Z"/>
        <path class="cls-90" d="M56.77,275.32c.24-.07.54-.12.78,0,.96.48.35,1.95.82,2.53,1.03,1.29,3.49-.76,4.74,2.87.15.45.73.67.99.66l.63,15.38c.2,4.75-.5,9.51-.41,14.22l-8.93-.07-.35-15.23c1.95-1.16,1.2-3.73,1.12-5.75-.47-3.79.54-7.76-.18-11.65-.13-.7-1.56-1.21-1.06-2.19.38-.76.96-.7,1.84-.79Z"/>
        <path class="cls-42" d="M137.2,298.51l.28,21.45c0,.41.32.89.47,1.04.14.13.3-.13,1.24-.51.2.69-.12,1.55.19,2.28l-2.24-.52c-.23-1.16-1.41-1.58-2.04-2.51l-1.83-2.68c-.53-.78-2.11-1.05-2.05-2.33.08-1.79.63-3.46.45-5.81-2.83-.48-5.77-.82-8.63-.26-.45,1.54,1.13,3.26-.49,4.03-1.17-.19-2.34.11-3.47.43-.04-1.41-.85-3.03-.58-4.49.38-2.05.37-4.1.54-6.18-.02-.25.32-.5.51-.56s.22.19.55-.11c.44.25,1.22,0,1.65-.4s1.23-4.2.85-4.03c.54-.24,1.39-.57,1.61-1.18.93.31,1.88-.59,2.72-.63,1.54.18,3.12-.06,4.74-.36-1.32,3.02,4.42,2.95,5.55,3.33Z"/>
        <path class="cls-8" d="M193.28,488.54c1.23.05,2.34.27,4.11.23l.12,2.94c.07,1.6-.02,3.22-.28,5.28l-32.91.16c-.94,0-4.35.96-4.49-1,.88.02,1.84-.24,2.68-.1,1.76.29,3.45.28,5.5-.25.02-1.05.42-2.05.31-2.93,1.86-.21,3.83-.4,5.8-.71l3.77-.6c.66-.1.05-1.43.72-1.69,1.31.33,2.06.56,3.06-.74.74-.96,1.43-1.18,1.49-2.27-.01.23-1.97-7.03-2.92-7.29.68.03,1.39-.3,2.26.25.21,1.26-.54,3.69.48,3.86l3.47.58c.21,1.56-.06,2.86.35,4.27,2.3.29,4.42-.05,6.49.02Z"/>
        <path class="cls-58" d="M119.19,316.66c.89.31-.09.68-.53,1.09-.18.17.01,0-.86,0,.56,1.92.19,3.54-.42,5.16-.1.26.67.69.47,1.01-1.11,1.81.2,4.42-1.2,6.19-.7.89.7,1.31.64,2.29-.31.96.11,1.85.61,2.91.89,1.87-.14,4.27.79,5.95.88.96,3.29.29,4.37.26l-.08,3.46-.5,11.35c-2.08.03-4.18.54-6.59.12l.24-5.24c-1.66-.05-1.81-1.03-1.85-2.33l-.37-12.01c0-.2.98-6.59,1.16-6.31-.2-.32-1.13-.3-1.16-.88-.17-4.34-.15-8.69,0-13.03,1.73.48,3.5-.08,5.27,0Z"/>
        <path class="cls-29" d="M139.6,487.82c.94,1.12.71,3.64.35,5.05h-21.5c.09-.86-.52-2.01-.26-2.99-.12-2.05,3.3-.02,4.65-2.11,5.07-.24,11.65.81,16.77.05Z"/>
        <path class="cls-78" d="M140.04,336.99v8.95c.41-1.06-15.08-.72-14.24-.01l-2.82-.94.08-3.46,11.29-.38c4.88-.16,1.85-4.72,5.69-4.15Z"/>
        <path class="cls-110" d="M138.96,296.77c-1.04,1.37,1.15,2.42,1.21,3.35.22,7.2.62,15.43-.14,22.75-.23.07-.45-.05-.65-.09-.3-.73.01-1.59-.19-2.28-.94.37-1.1.64-1.24.51-.16-.15-.47-.62-.47-1.04l-.28-21.45c-.01-.87.85-2.13,1.76-1.74Z"/>
        <path class="cls-12" d="M132.2,191.18c.81.49.7,3.36-.54,3.4-6.06.23-11.57.29-17.1.05l-.06-3.92c6.05-.38,12.08-.13,17.71.47Z"/>
        <path class="cls-64" d="M131.21,282.43c-.2.74.74,2.65-.82,2.7-.76.03-1.91.01-2.42.72-.23.32-.08.59-.01,1.24-.32,3.14-1.98,2.8-1.05,8.44-.83.04-1.78.94-2.72.63-1.68.85-1.32-3.17-1.29-5.01l.12-6.24c1.42-.55,3.92.25,4.24-1.19.08-.36.23-.77-.15-1.38,1.22-.79,2.79-.4,4.09.08Z"/>
        <path class="cls-44" d="M68.05,278.04c-.15,2.41.97,19.85-3.32,18.73l-.63-15.38c-.04-1.08-.13-2.44.44-3.39,1.14-.39,2.34.03,3.51.04Z"/>
        <path class="cls-39" d="M151.38,172.71c2.61,1.01,5.58.5,8.42.49-.18.97-.58,1.89-.58,2.88-.12.45-.68.47-1.1.59-1.1.34-2.28-.25-3.33.37-2.33-.34-5.5-.95-7.95-.42.45-.89-.3-1.61-.88-2.85-.37.59-.79.63-1.69.6-.43-.01-1.1.06-.78-.89.72-.19,1.62-.24,2.18-.79,1.78,1.16,3.88-.6,5.7.02Z"/>
        <path class="cls-49" d="M73.96,246.97c-1.35-.06-2.58-.04-4.18-.83.28-3.26-.75-7.09.42-10.01l3.83.02c.29,3.74.05,7.29-.07,10.81Z"/>
        <path class="cls-7" d="M138.96,296.77c-.92-.38-1.77.87-1.76,1.74-1.12-.39-6.86-.31-5.55-3.33-1.62.3-3.2.53-4.74.36-.93-5.64.73-5.3,1.05-8.44.46-.25.67.16.72.54.04.41-.62,1.19-.1,1.79.55.62,1.6.79,2.17,1.09.86.45.38,2,.73,2.76.89,1.89,3.44,1.53,4.92,1.67.15.76.27,1.06.43,1.32.3.48.93.21,1.42-.19.86,0,1.65.46.72.7Z"/>
        <path class="cls-57" d="M118.5,308.63c-.27,1.45.54,3.07.58,4.49.04,1.13.84,1.9.55,2.8-.42.12-.82.31-.43.74-1.77-.09-3.54.47-5.27,0,.1-2.63-.7-5.52.45-7.96,1.35.35,2.75-.06,4.13-.06Z"/>
        <path class="cls-41" d="M113.91,336.87c-1.72-.37-3.49.31-5.17-.36,0-2.02-.38-4.15.03-6.42l5.14-.42c.02.58.95.56,1.16.88-.17-.27-1.17,6.12-1.16,6.31Z"/>
        <path class="cls-33" d="M100.72,193.24c-.55,1.69-.47,3.8-.33,5.6-1.27.08-2.65.65-4.08-.04-.44-3.14-.14-6.11,0-8.97,1.33.23,2.66-.28,4.22.28-.27,1.3-.58,2.58.19,3.14Z"/>
        <path class="cls-61" d="M119.04,302.45c-.17,2.08-.16,4.13-.54,6.18-1.38,0-2.78.41-4.13.06-.99-1.63-.67-4.19-.34-6.26,1.27-.78,3.72-.45,5,.02Z"/>
        <path class="cls-89" d="M69.25,271.32c.07,2.37.22,5.12-1.2,6.71-1.16,0-2.37-.43-3.51-.04-1.04-1.87-.13-4.17-.3-6.42,2.23-.26,3.52.08,5-.25Z"/>
        <g>
          <path class="cls-75" d="M158.12,176.67c1.09.74.41,2.15.8,3.23.46,1.28,2.56.71,3.94.59.8,1.53.29,3.19.56,4.95,1.7.51,2.93.1,4.8.43l.23,14.01-.27,36.38-4.63.24-.16,14c-1.19.88-2.8.5-4.14,1.2-.32,2.06.15,3.8-.32,5.62-1.39.58-2.79.15-4.27.44l-.42,9.61-7.17.23-.98,77.72c2.48.17,4.43.49,6.82-.02l.52-28.23c1.84-.51,3.44-.41,5.39-.2l.18,53.01.11,102.39,4.2.36-.25,21.26c0,.85-.87,1.55-.56,2.15-.84-.14-1.8.12-2.68.1l-19.17-.39c-.55-.65-.88-2.22-.71-2.9.36-1.4.59-3.93-.35-5.05l.45-141.88v-8.95c0-3.2.74-6.5.21-9.81-.2-1.24-.37-3.04-.23-4.32.76-7.32.36-15.55.14-22.75-.06-.93-2.25-1.98-1.21-3.35.94-.23.14-.7-.72-.7-.49.4-1.12.67-1.42.19-.16-.26-.28-.56-.43-1.32-1.48-.14-4.03.21-4.92-1.67-.36-.76.13-2.31-.73-2.76-.57-.29-1.61-.46-2.17-1.09s.14-1.38.1-1.79c-.04-.38-.26-.79-.72-.54-.07-.64-.22-.92.01-1.24.51-.71,1.66-.7,2.42-.72,1.56-.05.62-1.96.82-2.7.84-3.11.56-6.27,1.28-9.78-1.53.19-2.85-.25-4.11.16-.15.82-1.18,2.21-1.24,2.93-.13,1.59.7,4.17-.68,5.14l-3.63.65c-.17.78.13,1.86-.55,2.89s-.92,8.34.62,6.75c-.04,1.84-.39,5.85,1.29,5.01-.22.61-1.07.94-1.61,1.18-.33-.99-1.62-1.05-2.51-.86-1.4.3-.94,1.77-.57,3.1.03.46-.24.92-.18,1.15.12.45.16,1.19.76,1.03-.33.3-.37.05-.55.11s-.52.32-.51.56c-1.29-.47-3.74-.8-5-.02-.34,2.07-.65,4.63.34,6.26-1.16,2.44-.35,5.32-.45,7.96-.16,4.34-.18,8.69,0,13.03l-5.14.42c-.41,2.27-.03,4.4-.03,6.42l-.52,151.05c-1.36-.12-2.82.4-4.29-.1-.43-1.22.11-2.39-.17-3.84-1.53-.53-2.95-.18-4.62-.43-.34-1.65.09-2.87-.05-4.66l-4.89-.4.13-138.28-.05-50.93c-1.04.66-2.86,1.92-2.8,3.25.53,11.53.07,24.89-.62,36.43-.9.43-1.82.39-3.01.48-.63,4.02-.28,7.92-.32,11.76l-.69,69.86c-2.19.22-4.38.21-7.3.08l.13-114.52-.27-22.73.87-66.26c0-.7-.38-1.12-.65-1.1-1.92.21-.4,5.65-1.66,8.8-.18.45-1.82-.09-2.18.16s-.85.86-.89,1.77l-.65,15.13c-1.23.52-2.73-.41-4.03.3s-.28,2.91,0,3.77c-1.17,2.92-.14,6.75-.42,10.01,1.6.79,2.83.77,4.18.83-.07,1.83.42,3.72-.13,5.86l-3.96.31c-1.64,2.18-.13,4.75-.17,6.63-.08,3.83-.56,7.71-.45,11.56-1.48.33-2.77,0-5,.25.17,2.25-.74,4.55.3,6.42-.57.95-.49,2.31-.44,3.39-.26,0-.84-.22-.99-.66-1.26-3.63-3.71-1.58-4.74-2.87-.47-.59.14-2.06-.82-2.53-.24-.12-.53-.07-.78,0l-.1-9.61c2.63-.42,5.07.22,7.53-.51l.07-13.45c-2.1-.49-3.9.46-5.61-.33.86-1.12.07-1.91.24-2.83.92-5.12,1.14-10.36,1.64-15.84l3.73-.52c-.31-1.8.91-4.27.76-5.88.99.15,3.51.66,4.12-.3l.83-15.15c1.07-.3,2.06.25,3.08-.32.58-3.74.57-7.47.5-11.24-.14-6.96,3.5-1.83,1.81-9.77.8-.05.54-1.32,1.52-1.05.28.95,3.08.85,3.38-.03.93-2.71.5-5.42.79-7.88.02-.18-.05-.36.03-.57.69,1.13,7.08.2,9.92.77l.29,4.14,4.24.51c.27,1.58-.12,3.31.76,4.39-.14,2.86-.44,5.83,0,8.97,1.44.69,2.82.12,4.08.04.04.48.08,1.15.34,1.55.61.95,3.96-.17,4.01,1.06.13,3.2-.13,5.97.19,9.06,1.12.12,3.14.47,3.72-.27.64-3.52.48-6.9.66-10.34,1.64-.39,3-.04,4.26-.48.55-1.92-.88-3.99.98-4.8,5.53.24,11.04.19,17.1-.05,1.24-.05,1.36-2.92.54-3.4.78-1.38,2.66-1.53,4.52-1.26l.48-4.12,7.22-.14c.53-1.83-.19-3.55.58-5.01,3.33-.26,6.56.42,9.73-.61.73-.35.19-2.42.07-2.99,1.05-.62,2.23-.03,3.33-.37Z"/>
          <g>
            <path class="cls-97" d="M94.33,339.86c-2.11.99-4.49,1.23-6.8.99.04-3.84-.31-7.74.32-11.76,1.19-.09,2.11-.05,3.01-.48.69-11.54,1.16-24.9.62-36.43-.06-1.33,1.76-2.59,2.8-3.25l.05,50.93Z"/>
            <path class="cls-37" d="M141.65,252.6c-.67-1.87-.21-3.89-.48-5.85,1.91-1.51,2.39-4.33,3.83-6.56.02-.77.01-1.36.35-1.52.52-.23,1.43-.2,2-.35.71-1.86.08-3.96.6-6.2l3.09-.62c.52-1.49.02-3.16.78-4.57,5.76,1.06-.85-11,6.4-8.91,1.21-1.67.55-3.65.97-5.79.24-1.22,3.18-1.32,3.64-.36.29,3.97-.72,8.76-3.36,12.11-1.11,1.4.17,4.01-1.31,5.42-.65.62-1.74.55-3.31.81.34,1.92-1.52,2.95-1.93,4.33-.5,1.71-1.2,2.5-2.28,3.75-1.15,1.39-.04,4.18-.71,6.02-1.09.5-2.06.25-3.09.53-.25,1.24-.23,2.35-.32,3.7-3.58,1.14-.91,4.23-4.88,4.06Z"/>
            <path class="cls-98" d="M136.62,235.6l.83,10.8c.34,4.44-.25,9.04-.22,13.58.28.47-.12.81-.58.58-1.33-.6-2.79-.33-4.18-.09-.66-8.41-.1-16.91-.18-25.32,1.4.35,2.9.46,4.34.46Z"/>
            <path class="cls-2" d="M140.14,211.78l-.11,34.54c-.83.43-1.69.18-2.58.07l-.83-10.8c-.57-7.5-.06-15.3.07-23.17.15-1.11,2.88-.57,3.44-.65Z"/>
            <path class="cls-71" d="M140.14,211.78c-.56.07-3.29-.47-3.44.65-.13,7.87-.65,15.66-.07,23.17-1.44,0-2.95-.1-4.34-.46-.05-4.47-.45-8.98,0-13.84.08-.88,2.37-.62,3.52-.59l.5-8.85c.06-1.03,3.72-1.18,3.84-.07Z"/>
            <path class="cls-21" d="M131.21,282.43c-1.3-.48-2.87-.87-4.09-.08.38.61.23,1.02.15,1.38-.32,1.44-2.82.64-4.24,1.19l-.12,6.24c-1.54,1.6-1.27-5.77-.62-6.75.69-1.03.38-2.11.55-2.89l3.63-.65c1.38-.97.55-3.54.68-5.14.06-.72,1.09-2.11,1.24-2.93,1.25-.4,2.57.03,4.11-.16-.72,3.51-.44,6.67-1.28,9.78Z"/>
            <path class="cls-88" d="M140.03,246.32c.4.08.76.31,1.14.43.27,1.96-.19,3.98.48,5.85-1.93,1.6-.22,4.7-1.28,7.15-.62.69-2.48.37-3.14.23-.03-4.53.56-9.14.22-13.58.88.11,1.75.35,2.58-.07Z"/>
            <path class="cls-6" d="M136.64,260.55c-.14,1.98.41,4.27-.43,6.36-.66.69-2.74.53-3.65.39-.8-2.38.08-4.67-.1-6.84,1.39-.24,2.86-.5,4.18.09Z"/>
            <path class="cls-96" d="M122.58,297.35c.39-.17-.43,3.65-.85,4.03s-1.21.65-1.65.4c-.6.15-.64-.59-.76-1.03-.06-.24.21-.69.18-1.15-.37-1.33-.83-2.8.57-3.1.9-.19,2.18-.13,2.51.86Z"/>
          </g>
        </g>
        <path class="cls-36" d="M180.28,187.4c-.78,5.94,1.12.86-1.57,5.69-.1-2.47-2.29-3.07-3.8-4.32-1.71-7.07-2.47-2.52-1.92-11,1.33.16,3.21-.88,4.28.71s-.58,3.99.95,7.64c.35.84,1.68.19,2.05,1.28Z"/>
        <path class="cls-106" d="M238.13,387.41c.28-.64.04-1.49-.65-1.76-.08-.39.25-1.37-.07-1.9-.29-.47-1.44-.64-2-.42-.26-1.2.26-3.15-1.3-3.29.11-.46.41-.93.19-1.42s-2.68-1.75-3.13-1.42c-.14-.86-.08-1.8-.41-2.83l-4.06-.32c-.19-1.8-.14-3.52-.06-5.19l22.24.26c12.52.15,8.61,1.74,9.27,2.25,1.21.96,1.7,4.48.38,4.99l-9.4.62c-.68.93,0,2.72-1.32,3.21-.77.28-1.69.1-2.18.39-.35.21-.38,1.23-.69,1.94-1.96.24-4.11,1.6-4.49,3.47-.09.44.74,1.54.16,1.92-.34.22-.71.7-1.34.59-.41-.07-.69-.85-1.13-1.08Z"/>
        <path class="cls-106" d="M259.57,417.97c-.03.64-.64.95-1.15.33-.19-.23-.79-.48-.39-.91.28.41,1.03.87,1.55.58Z"/>
        <path class="cls-106" d="M83.83,176.61c-.27-.37-.02-.93.23-1.27.27-.28.42-.05.69.13.44.3.2.36-.02.58-.35.35-.62.4-.9.55Z"/>
        <path class="cls-106" d="M82.17,177.22c.2-.05.42-.03.62-.06.16.69-.74.82-.62.06Z"/>
        <g>
          <path class="cls-84" d="M273.62,424.41c-.98.11-2.04-.49-2.04-1.91l-.05-8.52-8.37-.55c-.36-.36-.5-.92-.87-.6.32-1.08.31-3.13-.24-4.02-1.35-2.23-8.46-2.78-8.7-2.75-.47-.87-1.72-.43-2.39-1.09-.66-1.59-2.43-.98-3.88-1.05-.4-.61.17-1.86-.46-2.43-.77-.7-2.01,0-2.98-.46-.45-9.05-2-1.85-2.31-7.35-.11-2.03-2.72-1.23-3.53-1.97-1.32-1.21.2-3.09.33-4.3.44.23.72,1,1.13,1.08.63.11,1.01-.36,1.34-.59.57-.38-.25-1.48-.16-1.92.38-1.87,2.53-3.24,4.49-3.47.3-.71.33-1.73.69-1.94.49-.3,1.42-.11,2.18-.39,1.32-.49.64-2.28,1.32-3.21l9.4-.62c1.31-.51.83-4.03-.38-4.99-.65-.52,3.25-2.1-9.27-2.25l-22.24-.26c-.78-.71-2.16-.97-3.13-1.54-1.03-.61-.14-2.31-.55-3.09-1.27-2.46-.67-4.76-1.07-7.53-.15-1.03-2.76-.5-3.87-.41l-.32-12.48c-.77-.36-1.42-.23-2.04-.64.04-3.51-.26-6.87.2-10.14,3.66.03.03-1.48,4.32-.57.47.1.96.92,1.09,1.61.5,2.72,2.76,3.48,4.45,5.28.63.67.56,2.12,2.12,2.27,4,.4,1.99,4.79,3.58,5.15,2.08.47,3.41,1.32,3.71,3.55.16,1.22,2.27,1.69,3.56,2.29,1.59.74.78,3.36,1.62,4.01,2.78,2.14,6.04,1.26,7.37,7.21,10.3,1.14,6.9-.33,10.91,5.88,1.92-.49,3.91.36,5.18,1.36,1.8,1.41,1.05,3.6,1.2,5.8.08,1.14,2.76,1.92,1.74,3.87,2.84.18,4.73-.1,6.89.27-.19-2.2,1.53-2.86,2.67-2.82,1.55.07,1.69,2.45,1.71,3.71,4.37,3.67,11.92-.43,16.02-4,1.25-2.42-.36-5.51.66-8.23.47-1.25,2.82-.45,3.64.12,1.09.75.79,2.47,1.36,3.27,4.28,5.96,1.29,6.36,2.2,12.76.21,1.51,2.19.37,3.72,2.47,1.09,1.51-4.03,2.91-4.4,4.85-.47,2.46-3.06,3.19-4.21,4.97-1.6,2.49-3.8,3.35-6.69,3.23-.65-.03-2.17,1.12-3.21.34-3.5,3.97-6.15.77-7.78,2.97-.44.6-.09,4.87.57,6.24,1.36,2.82.65,13.67-6.24,13.56Z"/>
          <path class="cls-106" d="M253.36,406.06c-.55.09-1.11.17-1.66.19-.27.01-.47-.09-.71-.14-.22-.38.15-.76-.02-1.15.67.65,1.92.22,2.39,1.09Z"/>
          <path class="cls-106" d="M294.12,391.8c1.3,8.25-15.38,6.31-20.8,6.35-.23-2.21-.35-4.28.14-6.5l20.66.14Z"/>
        </g>
        <path class="cls-80" d="M56.17,289.95c.07,2.02.83,4.59-1.12,5.75-1.22.07-2.46.07-3.81-.16-.01-2.11.1-3.8-.36-5.58-.31-1.2-.35-3.17-.15-4.29,1.15-.74,2.95-.48,4.31-.3.61,2.8-.96,5.15,1.14,4.58Z"/>
        <path class="cls-17" d="M166.04,146.55c-.52.89-.33,1.94-.59,3.12s1.8.93,2.12,1.83c.53,1.49.13,3.02-.07,4.45l-7.9.08c-.5,1.4-.4,2.9-.35,4.22-1.21.15-2.96.7-4.42.53l-.63,3.32c-2.06.15-12.22,2.07-12.7,2.57-1.23,1.27-2.38,1.38-4.04,2.06-1.07.44-1.37,2.97-3.81,2.15-.45-.15-.95.89-1,1.15-1.23.63-2.99.81-4.46,1.28-1.18.38-.93,1.87-1.18,2.78-.52,1.92-4.51.81-5.18,2.53-.18.46.2,1.35-.06,1.64-1.4,1.53-2.61-.12-3.84.23-.22-1.15.44-5.98,1.27-6.81.42-.42,6.46-1.95,8.21-2.15l.4-3.09c1.22-.28,2.79.41,3.67-.27.83-.89.42-2.61.26-3.66-.44-2.91.27-5.89.44-9.09,1.6-.12,2.72.51,3.86-.48.56-.48-.33-2.74.18-3.33,2.85-3.35.68-1.86,9.37-2.28-.24,1.13-.59,2.26-.58,3.42,0,.86-.43,1.76-.6,2.57-.22,1.05-2.21.35-2.75.98-2.43,2.81-5.06,4.9-9.17,4.12-.32,1.73.17,2.54-.37,3.96,10.95-.15,5.71-4.27,10.17-4.32-1.18.01,4.24-1.21,4.52-1.7.24-.41.44-1.1.18-1.78,1.58-1.34,4.3-1.68,6.46-2.16.41-6.11,4.82-.84,6.04-7.48,2.33-.79,4.54-.05,6.53-.4Z"/>
        <path class="cls-53" d="M167.19,164c-3.82-.5-8.14.38-12.19.99-1.24,5.69-.1.74-6.73,4.7-1.35.81-2.95,1.04-2.59,3-.56.55-1.47.6-2.18.79-1.98-.06-4.46-.03-6.36.26-.17-1.33-5.08,1.02-4.47-1.69.05-.27.55-1.31,1-1.15,2.44.83,2.73-1.71,3.81-2.15,1.66-.68,2.81-.79,4.04-2.06.48-.5,10.65-2.42,12.7-2.57l.63-3.32c1.45.17,3.21-.38,4.42-.53,2.56.99,5.57.04,8.34.75.77.2.21,2.64-.41,2.99Z"/>
        <path class="cls-34" d="M167.19,164c.13.37.91-.2,1.07.16.66,1.47.16,3.04.09,4.3-13.39-.3-6.94,3.03-11.43,2.55-2.03-.22-4.28.34-5.53,1.7-1.82-.62-3.92,1.14-5.7-.02-.36-1.96,1.24-2.19,2.59-3,6.64-3.96,5.49.99,6.73-4.7,4.05-.61,8.36-1.49,12.19-.99Z"/>
        <path class="cls-91" d="M168.91,177.02s-8.99-.88-9.69-.94c0-.99.4-1.91.58-2.88,2.68,0,5.44-.77,8.37-.53.66,1.51.54,3.01.74,4.35Z"/>
        <path class="cls-55" d="M178.6,489.86c-.67.26-.06,1.59-.72,1.69l-3.77.6c-1.98.31-3.94.51-5.8.71-.18-1.37-.09-2.71.04-4.09,3.16-.42,6.41.32,9.52-.41l.73,1.49Z"/>
        <path class="cls-94" d="M180.23,479.55c.96.26,2.91,7.52,2.92,7.29-.06,1.1-.75,1.31-1.49,2.27-1,1.3-1.75,1.08-3.06.74l-.73-1.49c-1.18-2.44-.11-5.76.29-8.83.95-.13,1.48-.01,2.06.02Z"/>
        <path class="cls-10" d="M125.8,345.93c-.31,1.09-.35,2.44.41,3.46,1.49-.16,3.32-.46,3.94.74.55,1.06,0,2.68,1.41,3.33,1.13.52,1.35,1.98,1.35,3.46l-.03,91.23-.05,28.22c0,1.38-.56,2.27-2.17,2.86,1.23,1.42.42,2.54.37,3.97l-.12,3.38-8.38-.1-.07-130.14.5-11.35,2.82.94Z"/>
        <path class="cls-111" d="M137.13,173.74c-.77,2.63.61,6.62-1.68,6.49l-11.29.41c-1.19.04-.65,2.39-1.1,2.85-1.44.93-3.95.35-5.92.45-.53-.98.35-1.46.54-2.27l.26-1.16c1.23-.35,2.44,1.29,3.84-.23.26-.28-.12-1.17.06-1.64.67-1.72,4.66-.61,5.18-2.53.24-.91,0-2.4,1.18-2.78,1.47-.47,3.23-.66,4.46-1.28-.61,2.72,4.3.36,4.47,1.69Z"/>
        <path class="cls-20" d="M143.49,173.48c-.33.95.35.88.78.89.9.03,1.32,0,1.69-.6.58,1.24,1.32,1.96.88,2.85-5.77,1.26-6.8,3.44-11.39,3.61,2.28.13.91-3.86,1.68-6.49,1.9-.29,4.38-.32,6.36-.26Z"/>
        <g>
          <path class="cls-72" d="M140.26,327.19c.53,3.31-.22,6.6-.22,9.81-3.84-.57-.81,3.99-5.69,4.15l-11.29.38-.08-3.98c1.33.06,2.65.2,3.97.05,1.69-.18,3.46.32,5.33-.32-.02-1.56-.4-3.09.72-3.52,1.34.16,2.79.51,4.19-.04.29-2.63-.07-4.83.41-6.98l1.97-.56c.03.77-.25,1.45.68,1.01Z"/>
          <path class="cls-65" d="M139.38,322.78c.2.05.42.16.65.09-.13,1.28.03,3.07.23,4.32-.93.44-.65-.24-.68-1.01l-1.97.56c-.65-.57-.77-1.46-1.66-1.72.61-.83.39-2.06,1.19-2.77l2.24.52Z"/>
          <path class="cls-69" d="M133.27,317.06l1.83,2.68c.64.93,1.81,1.36,2.04,2.51-.8.71-.58,1.93-1.19,2.77-.95-.27-2,.06-2.85-.46-.92-.41-.03-1.75-.68-2.75-.52-.81-2.43-.8-3.42-.51-.48-1.01-1.74-2.02-1.89-3.52-.13-1.33-1.73-1.01-3.19-.96-.8.03-1.48.69-1.83,1.91-1.05-1.55-2.11-.77-.86.52-3.21-.32-.82,5.35-3.38,4.67.2-.32-.57-.75-.47-1.01.61-1.62.98-3.25.42-5.16.88,0,.69.17.86,0,.44-.41,1.42-.78.53-1.09-.39-.43,0-.62.43-.74-.04.36-.12.71.09,1.23,1.36-.51,2.82-1.43,2.76-2.84.88.85,1.84,1.3,3.39,1.14l.83,1.08c.17.23.92-.04,1.46,0l5.12.51Z"/>
          <path class="cls-8" d="M133.27,317.06l-5.12-.51c-.54-.05-1.29.22-1.46,0l-.83-1.08c-1.55.15-2.5-.29-3.39-1.14-.02-.54.73-1.08.08-1.62,1.61-.77.04-2.49.49-4.03,2.86-.56,5.79-.22,8.63.26.18,2.34-.37,4.01-.45,5.81-.06,1.28,1.52,1.55,2.05,2.33Z"/>
          <path class="cls-74" d="M122.55,312.69c.65.54-.11,1.08-.08,1.62.07,1.41-1.39,2.33-2.76,2.84-.2-.52-.13-.86-.09-1.23.29-.9-.51-1.67-.55-2.8,1.13-.31,2.3-.62,3.47-.43Z"/>
          <path class="cls-116" d="M133.1,324.56c-1.69,1.41.8,5.41-1.61,5.22-1,.33-2.15-.25-3.3.44.04,1.95-.07,3.75-1.67,4.7.59,1.1.37,1.91.44,2.68-1.32.14-2.64.01-3.97-.05l.13-13.09c0-.85-.62-1.28-1.01-1.35-2.91-.51-.71,4.53-1.58,7.02-.48,1.36-2.28,2.03-3.23,2.29.05-.98-1.34-1.4-.64-2.29,1.4-1.78.09-4.39,1.2-6.19,2.56.68.17-4.99,3.38-4.67-1.25-1.29-.19-2.08.86-.52.35-1.22,1.02-1.88,1.83-1.91,1.46-.05,3.07-.37,3.19.96.14,1.5,1.41,2.5,1.89,3.52.99-.28,2.89-.29,3.42.51.65,1-.23,2.35.68,2.75Z"/>
          <path class="cls-76" d="M122.98,337.55l.08,3.98c-1.08.04-3.49.7-4.37-.26-.93-1.68.1-4.08-.79-5.95-.5-1.06-.92-1.95-.61-2.91.95-.26,2.75-.92,3.23-2.29.88-2.49-1.32-7.52,1.58-7.02.39.07,1.02.5,1.01,1.35l-.13,13.09Z"/>
          <path class="cls-3" d="M135.95,325.02c.89.26,1.01,1.15,1.66,1.72-.47,2.15-.12,4.34-.41,6.98-1.41.55-2.85.2-4.19.04-1.76-.85.84-3.11-1.52-3.98,2.41.19-.08-3.81,1.61-5.22.85.53,1.9.19,2.85.46Z"/>
          <path class="cls-107" d="M131.49,329.78c2.36.87-.23,3.12,1.52,3.98-1.12.43-.75,1.96-.72,3.52-1.87.64-3.64.14-5.33.32-.07-.77.14-1.58-.44-2.68,1.6-.95,1.71-2.75,1.67-4.7,1.15-.69,2.3-.11,3.3-.44Z"/>
        </g>
        <g>
          <path class="cls-62" d="M168.79,121.07c-.09,5.77-.92,11.81-.07,17.7l.74,5.12c-.08,1.25-2.03,2.42-3.42,2.66-1.99.34-4.2-.39-6.53.4-1.22,6.64-5.63,1.37-6.04,7.48-2.16.47-4.88.82-6.46,2.16.26.68.06,1.37-.18,1.78-.29.49-5.71,1.72-4.52,1.7-4.46.05.77,4.17-10.17,4.32.54-1.42.05-2.23.37-3.96,4.11.79,6.74-1.3,9.17-4.12.54-.63,2.53.07,2.75-.98.17-.81.61-1.71.6-2.57,6.6-1.27,3.92-2.93,5.22-3.59.56-.28,1.83.19,2.07-.42l1.06-2.73c.29-.76,1.58-.25,2.12-.96s.31-1.93.89-2.22c1.28-.65,3.45.11,4.25-.82.44-.52.07-1.5.44-2.08.59-.91,2.09-.29,2.87-1.25l-.04-18.14c-1.44-.52-2.53-.34-3.94-.66l-.6-9.67c2.88.25,5.39-.13,8.9.42-.92,3.6.59,7.33.54,10.43Z"/>
          <path class="cls-106" d="M91.26,168.17c1.03-.06,2.34.62,3.4.04.28-.05.96.14.96.6v4.05s4.74.33,4.74.33l.34,7.57c1.14.47,2.35.03,3.66.34.51,1.95-.16,3.73.56,5.34.41.55-.57.46-.6.9-.58-.58-2.14.16-2.92-.24-1.34-1.28-1.93-3.1-2.91-4.56,1.17-.28,1.2-.52,1.12-1.69-1.39-.09-2.87.23-4.55-.23l-.69-3.25c-9.5-.63-.66-4.24-10.2-3.16.4-2.84-2.85.32-2.57-5.53l9.65-.52Z"/>
          <path class="cls-30" d="M69.72,136.39l-.34,14.36c1.08.19,2.49.77,3.46,1.74-1.17.45-1.45,2.06-1.25,3.86-.63.46-1.19-.09-1.74,0-1.4-.71-1.59-2.76-2.63-3.45-1.61-1.06-2.22-2.57-2.27-4.62l-.19-7.41c-.04-1.63-.06-2.9,1.04-4.18.89-1.03,2.67-.63,3.92-.29Z"/>
          <path class="cls-106" d="M81.04,168.18c-.59.28-.98-.48-1.62-.48-1.88.02-2.99-1.88-2.45-3.32.39-.16.78-.29,1.23-.19.39.08,1.14.7.19.91.68-1.52,2.53-1.08,3.09-.65,1.18.91.39,2.83-.44,3.74Z"/>
          <path class="cls-1" d="M92.39,105.73c-.02.24.03.48,0,.72-.11.71.48,1.8-.1,2.76s-1.53,3.52.13,3.58l7.42.27-.15,6.37c-.82,0-2.23-.42-3.2.17-.98,1,.28,3.12-.66,4.23s-3.35.73-3.78-.37c.53-1.35.7-2.63-.14-3.59-.26,5.04-.4,9.62.04,14.52,1.44.32,2.54.06,3.99.14l.62,7.75,4.34.26c.24,1.57-.12,2.84.26,4.27l4.97.26c.39.38-.31,1.28,0,1.5.4.27,1.03.41,1.53.41l6.19-.09c2.87-.04,5.8.31,9.07-.05l-.21-19.83c-.03-3.18-.54-6.21.26-9.02,1.09.27,2.3.41,3.4.14-.02.55.6.47.99.42l-.07,43.32-4.33.27c-.02-3.65-.37-7.26-.05-10.89-1.56-.22-2.25-.07-3.03.14-.32.09-1.49,9.03-.69,10.62,1.43-.01,2.64.2,3.77.13,0,1.12-.1,2.29-.26,3.75l-4.77.48-.35,4.48-3.79.38-.78,4.25c-1.02.28-2.75-.37-3.07.79-.18.63.43,1.21.52,1.51.18.66-1,.96-1.19,1.34-.78,1.55-.14,3.35-.72,5.09-1.27.08-2.49.45-3.62.25-.72-1.61-.05-3.4-.56-5.34-1.31-.32-2.52.12-3.66-.34l-.34-7.57-4.74-.33v-4.05c0-.47-.69-.65-.97-.6-.19-.57.31-.64,1.02-.78l-.33-14.14c-.86-.94-2.87-.49-3.63-1.5-1.02-1.35-.02-3.31-.65-4.92l-4.31-.4c-.68-3.51-.01-7.02-.04-10.64l-.07-8.53c-.05-5.68.47-11.89-.57-17.55-.14-.76-1.85-1.51-.98-3.1-2.79-.58-5.91-.3-8.63-.14,1.03-.06-5.75-.08-3.9-.76l19.83-.03Z"/>
          <path class="cls-105" d="M94.66,168.21c-1.06.58-2.36-.09-3.4-.04.21-1.38.4-2.85-.07-4.34l-3.82-.37c-.68-2.23-.13-4.37-.2-6.63l-6.17-.38c.14-3.54.69-6.51-.19-9.5-3.49.21-6.21.2-9.78-.21.05-2.73-1.72-28.11,3.66-26.31.26-5.58,1.65-8.45,1.76-13.91,2.73-.17,5.84-.45,8.63.14-.87,1.59.84,2.34.98,3.1,1.05,5.66.53,11.87.57,17.55l.07,8.53c.03,3.62-.64,7.13.04,10.64l4.31.4c.63,1.61-.38,3.57.65,4.92.76,1,2.77.56,3.63,1.5l.33,14.14c-.71.14-1.21.21-1.02.78Z"/>
          <g>
            <path class="cls-45" d="M191.46,4.89l.04,8.08c-3.1.95-6.41.12-9.62.56-2.57.35-5.38-.54-8.09.31-.47,2.31.34,4.61-.5,6.44-.53,1.17-.61,2.32-.51,3.89l-3.7.78c-.63,2.35-2.59,3.73-5.3,3.73l-.32,4.81-4.04.42-.11,6.2c-.93.03-2.84.34-4.09.32-1.07,1.64-.07,3.94-.64,5.77-.34,1.08-2.51.26-2.96.82-.95,1.17-.29,3.02-.86,4.33-1.62.87-3.77.37-5,1.58-.02.85.34,2.51-.36,3-1.28.89-3.71-.29-4.22,1.21-.16.47-.4,1.45.33,1.91,1.28.79,3.15-.02,4.72.69.14,1.8.24,3.27.23,4.66l-.06,5.9c-1.92.68-3.74.09-5.73.43-.18,1.45-.22,2.74-.2,3.97-2.96.94-6.19.1-9.44.77-2.95.62-1.18,2.47-2.27,3.49-4.24-.13-8.46.39-13.15.89,1.12.4,1.54.87,2.12,1.35,1.09.91,1.13,2.17.42,3.21-.55-.21-.78-.17-.82,0-8.51.29-17.11.07-25.58.89-.76-1.03-2.1-.28-3.19-.32-.6-2.8,1.06-4.78,3.1-6.24,1.34-.95,2.9-7.01,2.42-6.46,1.27-1.44,3.48-1.9,3.18-4.56-.11-.99.48-1.75,1.07-2.32.64-.62,1.38.32,2.02-.14.45-.32,1.42-.68,1.37-1.37-.41-5.29,5.41-2.06,4.46-7.38-.43-2.42,2.54-2.64,3.5-3.69,1.73-1.92,1.88-4.31,4.32-5.54,1.36-.68,1.45-3.31,2.84-4.32,11.46-2.21,3.47-8.77,10.68-7.46.39-2.09,2.69-2.92,3.75-4.08,5.49-5.97,6.75-4.43,8.26-7.82.55-1.24,2.31-1.33,2.75-3.03s3.33-1.28,4.23-2.65c1.74-2.65,4.58-2.67,7.19-3.32,1.53-.38,4.04-1.74,5.61-2.53,1.27-.64-.29-3.12,9.41-3.92-.5-.74-.12-1.53.35-2.23.83-1.24,5.5-.7,8.21-2.29.31-1.21.61-2,1.12-2.5.86-.84,1.68-.01,2.42-.55,2.21-1.59,9.13.59,9.13.58,2.67,2.98-1.26,2.49,1.5,3.73Z"/>
            <path class="cls-24" d="M147.42,93.29c1.94-.49,1.9,4.03,1.89,5.62l10.03.17c-.54,1.71,2.47.64,4.61,1.62-.05,1.63-.19,3.3.29,4.82l-5.45.26c-13.58.64-27.33-.64-40.9-.06-2.58.11-5.33-.36-8.09-.31l-17.41.32-19.83.03c-4.42,0-8.85.03-13.72.13-.68.01-.63,1.18-1.02,1.67-2.77.11-5.07-.11-7.56,1.06-3.61,1.69-8.29.68-12.31,1.41.12-1.15-.35-2.17-.51-3.58,3.02-.62,5.59-1.39,8.62-1.72,7.91-.85,1.55-4.32,12.76-3.72,1.77-1.44,3.67-1.07,5.41-1.78.59-2.97,2.89-3.21,5.57-3.89l6.12-1.54c8.3-2.09,5.9-4.84,9.86-4.62.62.03,1.18-1.14,2.02-.94,1.4.33,2.98-.05,3.92-1,8.02,1.3,23.45-.56,32.46,1.08.73.13.77,1.6,1.49,1.61,2.16.03,4.03.01,6.04.47,3.97.91,8.06,1.29,12.23,1.74,1.48.16,2.62.03,3.47,1.16Z"/>
            <path class="cls-99" d="M72.56,105.76c-1.84.69,4.93.7,3.9.76-.11,5.46-1.5,8.33-1.76,13.91-5.37-1.8-3.6,23.58-3.66,26.31,3.56.4,6.28.42,9.78.21.88,3,.33,5.97.19,9.5l6.17.38c.07,2.26-.48,4.4.2,6.63l3.82.37c.47,1.49.28,2.96.07,4.34l-9.65.52c-.37.17-.71-.13-.57-.51.83-.9,1.62-2.82.44-3.74-.56-.43-2.41-.86-3.09.65.95-.21.2-.83-.19-.91-.46-.09-.84.04-1.23.19-.73.29-1.76-.07-2.34-.31-1.17-.48-.17-1.84-.45-2.83-.41-1.46-2.64-1-3.96-.85-1.05-1.45,0-2.77-.37-4.05.54-.08,1.1.46,1.74,0-.2-1.8.08-3.4,1.25-3.86-.97-.96-2.38-1.55-3.46-1.74l.34-14.36.46-15.34c-2.75,1.21-4.79-.51-6.44-.6l-24.6-1.32c-.81-.04-1.64.54-2.09-.29-.22-.4,0-1.44-.31-2.2-1.08-1.07-3.16.07-4.54-.61-.93-.77-.98-4.25-.03-5.01,2.01-.11,4.09-.68,5.76-.99,4.02-.73,8.7.28,12.31-1.41,2.49-1.17,4.8-.95,7.56-1.06.39-.48.35-1.65,1.02-1.67,4.87-.1,9.3-.12,13.72-.13Z"/>
            <path class="cls-92" d="M186.39,23.11c-.19,1.11.36,2.99-.53,3.92-.99.64-2.53-.04-3.58.36l-.77,5.47c-.17,1.21-2.81.63-4.13.93l-.5,6.25c-1.55.27-2.85-.04-4.07.38-.19,2.14.11,3.94-.36,5.86l-3.89.38-.2,15.19-4.12.3-.08,11.44,4.27.51c-.06,3.63.19,6.95-.23,10.45l-3.44.66-.33,2.46c-1.69.34-3.31-.65-5.14-.96l-8.42-1.43c.85-.54.2-1.49.25-2.23.14-2.41-.47-4.03-1.94-5.65.83-2.07,1.65-3.96,1.62-6.6,1.86.58,2.74-.36,3.87-.71,1.34-.41,2.92.44,4.63-.2-.02-1.61.77-4.39-.46-5.46-1.69-.78-4.14-.81-5.82-.49-.89-.89-1.31-2.34-1.5-3.82h8c.14-7.11-.3-13.63-.18-20.03,2.17.29,5.92.8,8.28,0,.45-2.27.12-4.8,1.57-6.59l3.59-.62c.61-.95-.11-2.7.81-3.41,1.1-.84,2.71-.16,4-.57.58-3.13,2.92-1.51,4.35-2.17,1.57-.72-.41-4.6,1.93-4.97,1.2-.19,2.01.02,2.53,1.31Z"/>
            <path class="cls-15" d="M164.25,105.52c4.72-.22,9.55.09,14.25.74,2.47.34,5.21.57,7.68.89l8.08,1.05c1.23.16,1.98.89,3.54.96,5.63.25,10.94,1.55,16.27,1.47,2.1-.31,1.34,3.87.98,5.33-5.82.13-8.07,1.16-14.47,1.11-.43.92.04,2.02-.59,2.55-7.58.88-15.24-.44-22.4.94-3.06.59-5.91.73-8.8.51.05-3.1-1.46-6.83-.54-10.43-3.51-.56-6.01-.17-8.9-.42-.09-1.5.2-3.11-.56-4.44l5.45-.26Z"/>
            <path class="cls-38" d="M117.32,84.41c6.7-.23,13.64.72,20.48.06.89-.09,1.68.13,2.81.2l10.24.63,8.42,1.43c1.83.31,3.45,1.3,5.14.96-.1.75.5,1.76.82,2.34.34.62,2,.24,2.35.75.66.94.53,2.33.29,3.18l-.16.53-8.32-.83-11.93-1.37c-.23.39.02.8-.04,1.01-.85-1.13-2-1.01-3.47-1.16-4.17-.44-8.26-.83-12.23-1.74-2.01-.46-3.89-.44-6.04-.47-.72-.01-.76-1.48-1.49-1.61-9.01-1.64-24.45.22-32.46-1.08-.38-.55-.36-1.38.01-1.93,8.47-.81,17.07-.6,25.58-.89Z"/>
            <path class="cls-113" d="M193.26,16.84c-2.29-.77-1.3,4.44-2.16,5.37-.61-.06-5.61-.47-4.72.89-.52-1.28-1.33-1.49-2.53-1.31-2.35.37-.36,4.25-1.93,4.97-1.43.65-3.77-.97-4.35,2.17-1.29.4-2.91-.27-4,.57-.92.7-.2,2.46-.81,3.41l-3.59.62c-1.45,1.79-1.12,4.32-1.57,6.59-2.36.8-6.11.29-8.28,0l.11-6.2,4.04-.42.32-4.81c2.71,0,4.67-1.38,5.3-3.73l3.7-.78c-.09-1.56-.02-2.72.51-3.89l8.49-.66c.6-2.14.13-4.17.1-6.09,3.21-.44,6.52.39,9.62-.56.18.71,1.11.37,1.68,1.18-.72.94-.48,1.88.08,2.7Z"/>
            <path class="cls-22" d="M209.16,19.68c2.55,1.34,5.61,1.28,8.61,2.27.37,1.84-.12,3.66,0,5.6l13.18,1.14c.24,1.71.32,3.2-.12,4.86l-16.75-.05c-.38-2,.05-3.54-.52-5.18l-15.42-1.03c-.77-.44-.29-2.38-.28-3.03,2.08.04,1.61-2.42,1.53-3.92-.09-1.82,1.51-2.65,2.59-2.75,1.87-.18,2.26.63,3.34,1.85.84.95,3.02-.2,3.86.24Z"/>
            <path class="cls-22" d="M176.88,99.08l20.78,2.83c2.1,3.56,6.89-.25,6.35,3.32-2.52-.24-5.18.27-7.75.26l-16.6-.05c-.44,0-.9-.35-1.13.03-.12.2-.13.49-.04.8-4.7-.65-9.54-.96-14.25-.74-.48-1.52-.34-3.19-.29-4.82.04-1.35,2.71-.6,3.66-2.28-.34.78,9.8,2.77,9.28.65Z"/>
            <path class="cls-51" d="M209.16,19.68c-.83-.44-3.02.71-3.86-.24-1.08-1.23-1.46-2.03-3.34-1.85-1.08.1-2.68.93-2.59,2.75-.81.4-1.75.11-2.09-.45-.4-.67-.02-1.9-.47-2.39-.84-.86-2.48-.29-3.56-.65-.56-.81-.8-1.75-.08-2.7-.57-.81-1.5-.47-1.68-1.18l-.04-8.08c.57-.51,1.34-.69,2.29-.55l5.93.89c-.65,1,.96,7.36.96,7.36,1.46.78,3.52-.34,4.26.8.25.38-.08,1.74.4,1.85l3.62.87c1,.24.32,2.55.25,3.55Z"/>
            <path class="cls-103" d="M204.02,105.22l9.73.94c.26,1.8-.32,3.22.32,4.46-5.33.09-10.65-1.22-16.27-1.47-1.56-.07-2.3-.8-3.54-.96l-8.08-1.05c-2.47-.32-5.21-.55-7.68-.89-.09-.31-.09-.6.04-.8.23-.38.69-.03,1.13-.03l16.6.05c2.57,0,5.23-.5,7.75-.26Z"/>
            <path class="cls-91" d="M176.88,99.08c.52,2.12-9.62.13-9.28-.65-.18-1.3-.24-2.74.11-3.93l.16-.53,9.08,1.48c.1,1.49.15,2.6-.07,3.64Z"/>
            <path class="cls-86" d="M193.26,16.84c1.08.36,2.72-.21,3.56.65.45.49.07,1.73.47,2.39.34.56,1.28.85,2.09.45.07,1.5.55,3.96-1.53,3.92,0-.21.07-1.43-.41-1.48l-6.33-.57c.85-.93-.14-6.14,2.16-5.37Z"/>
            <path class="cls-106" d="M91.74,85.3c-.38.55-.4,1.38-.01,1.93-.94.95-2.52,1.34-3.92,1,.35-1.21,1.01-2.03.75-3.25,1.09.04,2.43-.71,3.19.32Z"/>
            <path class="cls-18" d="M153,63.96c-1.09,1.26-4.21-.46-6.54.45.01-1.39-.08-2.87-.23-4.66-1.57-.71-3.44.1-4.72-.69-.73-.45-.49-1.44-.33-1.91.51-1.5,2.94-.32,4.22-1.21.7-.49.34-2.15.36-3,1.23-1.21,3.37-.71,5-1.58.57-1.31-.09-3.16.86-4.33.45-.56,2.63.25,2.96-.82.57-1.83-.43-4.13.64-5.77,1.25.03,3.16-.29,4.09-.32-.12,6.4.32,12.92.18,20.02h-8c.19,1.5.61,2.94,1.5,3.83Z"/>
            <path class="cls-48" d="M128.75,78.97l11.8.37c-.21,5.59-2.35,2.13-2.75,5.13-6.85.66-13.78-.29-20.48-.06.04-.17.26-.21.82,0,.71-1.03.67-2.3-.42-3.21-.57-.48-.99-.94-2.12-1.35,4.69-.5,8.9-1.02,13.15-.89Z"/>
            <path class="cls-102" d="M153,63.96c2.4,2.39.24,4.27,1.65,6.15-1.13.34-2.01,1.29-3.87.71.03,2.64-.79,4.53-1.62,6.6-.56-.62-.78.64-1.26.7-2.22.3-4.3.09-6.28-.07-.92-.73-1.14-2.2-1.16-3.34-.02-1.23.02-2.52.2-3.97,1.99-.34,3.81.26,5.73-.43l.06-5.9c2.33-.91,5.45.8,6.54-.45Z"/>
            <path class="cls-54" d="M181.88,13.53c.03,1.92.49,3.95-.1,6.09l-8.49.66c.83-1.83.03-4.13.5-6.44,2.71-.85,5.52.04,8.09-.31Z"/>
            <path class="cls-35" d="M141.62,78.06l-.27.58c-.18.38-.39.91-.79.71l-11.8-.37c1.09-1.02-.68-2.87,2.27-3.49,3.24-.68,6.48.17,9.44-.77.02,1.15.24,2.61,1.16,3.34Z"/>
            <path class="cls-73" d="M158.79,105.78c.76,1.33.47,2.94.56,4.44-3.52-.31-7.05-.46-10.87-.46h-18.14c-2.74,0-5.62-.11-7.83,1.12-.49,0-1.29-.49-1.78-.11-.98-.54-2.72.53-3.15-1.32-.25-1.07.83-2.55.31-3.73,13.57-.58,27.33.69,40.9.06Z"/>
            <path class="cls-40" d="M117.89,105.72c.52,1.18-.57,2.66-.31,3.73.43,1.85,2.17.78,3.15,1.32-1.24.94-3.17.58-4.56.75.45-.27.88-2.28.13-2.22-4.36.37-8.26.7-12.58.57-1.43-.05-3.09.96-4.18-.21l-.2-3.3-6.94.08c.04-.24-.01-.48,0-.72l17.41-.32c2.76-.05,5.51.42,8.09.31Z"/>
            <path class="cls-52" d="M159.4,93.65c.12,1.8.19,3.65-.06,5.43l-10.03-.17c0-1.59.05-6.11-1.89-5.62.07-.21-.19-.62.04-1.01l11.93,1.37Z"/>
            <path class="cls-50" d="M167.72,94.49c-.35,1.2-.29,2.63-.11,3.93-.95,1.69-3.62.94-3.66,2.28-2.14-.98-5.15.09-4.61-1.62.24-1.79.17-3.64.06-5.43l8.32.83Z"/>
            <path class="cls-109" d="M150.86,85.29l-10.24-.63c-1.14-.07-1.93-.28-2.81-.2.4-3,2.53.46,2.75-5.13.41.21.61-.32.79-.71l.27-.58c1.98.16,4.06.37,6.28.07.48-.06.7-1.32,1.26-.7,1.47,1.62,2.08,3.24,1.94,5.65-.04.74.61,1.69-.25,2.23Z"/>
            <path class="cls-82" d="M154.65,70.11c-1.41-1.88.75-3.76-1.65-6.15,1.67-.31,4.13-.28,5.82.49,1.23,1.07.44,3.85.46,5.46-1.71.63-3.28-.21-4.63.2Z"/>
          </g>
          <path class="cls-85" d="M159.35,110.22l.6,9.67c1.41.32,2.5.14,3.94.66l.04,18.14c-.78.96-2.28.35-2.87,1.25-.38.58,0,1.56-.44,2.08-.79.93-2.96.17-4.25.82-.58.29-.38,1.53-.89,2.22s-1.82.21-2.12.96l-1.06,2.73c-.24.61-1.51.14-2.07.42-1.29.66,1.38,2.32-5.22,3.59-.01-1.16.34-2.29.58-3.42,1.28.94,1.84-8.46-.54-7.03-.11-.34.26-.87.37-1.25l.34-11.96c-5.65-1.1-3.57.63-8.05,1,.04-.45.08-1.25-.68-1.36-1.63-.23-3.2.13-4.75-.3l-.12-7.89c-1.97-.14-3.42-.19-4.81,0-.38.05-1.01.13-.99-.42.22-.27.5-.14,1.16-.24l-.56-3.88c-1.77-.13-2.91-.26-4.11-.07-.04-.76-.78-1.46-.41-2.3.4-.92.48-1.85.05-2.76,2.21-1.23,5.09-1.12,7.83-1.12h18.14c3.83,0,7.36.15,10.87.46Z"/>
          <path class="cls-26" d="M137.73,130.1c-.09,1.08-.76,2.84.15,3.89.76.87,2.34.12,3.64.49l.82,8.04c1.19.27,1.9-.27,2.72-.21,2.37-1.43,1.82,7.97.54,7.03-8.69.42-6.52-1.07-9.37,2.28-.5.59.38,2.84-.18,3.33-1.14.98-2.26.36-3.86.48-.18,3.21-.89,6.18-.44,9.09.16,1.05.57,2.78-.26,3.66-.88.68-2.45-.01-3.67.27l-.4,3.09c-1.75.21-7.79,1.73-8.21,2.15-.83.83-1.49,5.65-1.27,6.81l-.26,1.16c-1.29-.16-2.73-.66-3.58-.14-1.59.96-1.3,2.59-1.44,4.24-.12,1.44-2.1,1.34-3.46,1.09l-.82,7.49c-.83.69-2.36.05-3.04.84-.62.72.01,2.05-.32,2.88-1.43.99-3.11.68-4.64.78-.14-1.8-.22-3.91.33-5.6,1,.29,2.13.05,3.4-.3l.21-5.58c.03-.44,1.01-.35.6-.9,1.13.2,2.36-.17,3.62-.25.58-1.74-.06-3.53.72-5.09.19-.38,1.37-.68,1.19-1.34-.08-.3-.69-.87-.52-1.51.32-1.16,2.05-.51,3.07-.79l.78-4.25,3.79-.38.35-4.48,4.77-.48c.17-1.46.27-2.63.26-3.75l4.33-.27.07-43.32c1.38-.18,2.84-.13,4.81,0l.12,7.89c1.55.42,3.12.07,4.75.3.76.11.72.9.68,1.36Z"/>
          <path class="cls-66" d="M116.16,111.52c-2.31.93-4.77,1.5-7.69,1.4l-.08,6.04c-2.64,1.22-5.83.47-8.71.47l.15-6.37-7.42-.27c-1.66-.06-.72-2.58-.13-3.58s-.01-2.06.1-2.76l6.94-.08.2,3.3c1.09,1.16,2.75.16,4.18.21,4.32.14,8.22-.19,12.58-.57.75-.06.32,1.95-.13,2.22Z"/>
          <path class="cls-101" d="M119.49,119.19c.93.1,2.36.18,3.27-.24-.03.5.36.59.23,1.04-.8,2.81-.29,5.84-.26,9.02l.21,19.83c-3.27.36-6.2,0-9.07.05-.06-1.73-.18-3.55.12-5.47,1.35-.57,2.73-.13,4.18-.53,1.15-3.12-.67-4.95,1.73-6.08,1.19-.56,1.57-11.1-2.58-13.43-.21-1.12-.6-2.67.11-3.9.4-.69,1.57-.34,2.05-.29Z"/>
          <path class="cls-60" d="M122.97,164.14c-1.13.07-2.34-.14-3.77-.13-.8-1.59.37-10.53.69-10.62.78-.21,1.47-.36,3.03-.14-.32,3.63.04,7.24.05,10.89Z"/>
          <path class="cls-13" d="M126.39,120.13c-1.1.27-2.31.13-3.4-.14.13-.45-.26-.54-.23-1.04.06-.97.16-2.04.12-3,1.2-.19,2.35-.06,4.11.07l.56,3.88c-.66.09-.94-.03-1.16.24Z"/>
          <path class="cls-77" d="M122.51,110.88c.43.91.36,1.85-.05,2.76-.83-.4-1.29-1.53-2.58-1.35l-.4,6.9c-.48-.05-1.66-.4-2.05.29-.71,1.23-.32,2.78-.11,3.9-.02,1.84-2.79,1.22-4.97,1.06l-.46-5.22c-1.31-.16-2.46.12-3.5-.26l.08-6.04c2.91.11,5.38-.46,7.69-1.4,1.39-.17,3.32.19,4.56-.75.49-.37,1.29.12,1.78.11Z"/>
          <path class="cls-28" d="M145.07,142.32c-.82-.06-1.53.48-2.72.21l-.82-8.04c-1.3-.37-2.88.38-3.64-.49-.92-1.06-.25-2.81-.15-3.89,4.47-.37,2.4-2.1,8.05-1l-.34,11.96c-.11.38-.48.91-.37,1.25Z"/>
          <path class="cls-104" d="M122.46,113.65c-.37.84.37,1.54.41,2.3.05.97-.05,2.03-.12,3-.92.42-2.35.34-3.27.24l.4-6.9c1.29-.18,1.75.95,2.58,1.35Z"/>
          <g>
            <path class="cls-81" d="M117.32,123.38c4.14,2.34,3.77,12.87,2.58,13.43-2.4,1.12-.58,2.96-1.73,6.08-1.45.4-2.84-.04-4.18.53-.3,1.92-.18,3.74-.12,5.47l-6.19.09c-.49,0-1.12-.13-1.53-.41-.32-.21.39-1.11,0-1.5l-4.97-.26c-.39-1.42-.02-2.69-.26-4.27l-4.34-.26-.62-7.75c-1.46-.08-2.55.18-3.99-.14-.44-4.91-.3-9.49-.04-14.52.84.95.66,2.24.14,3.59.43,1.1,2.8,1.53,3.78.37s-.32-3.23.66-4.23c.97-.59,2.38-.17,3.2-.17,2.88,0,6.07.75,8.71-.47,1.03.38,2.19.1,3.5.26l.46,5.22c2.18.16,4.95.78,4.97-1.06Z"/>
            <path class="cls-95" d="M104.85,132.53c-.11,1.72-4.68.96-5.08.79-.51-.22-.13-1.41-.76-1.76-.57-.31-1.55-.41-2.03-1.12-.34-.5.13-7.4,1.92-6.08.68-.92-.34-2.34.72-3.34.42,2.62-.43,4.9-.32,7.48.1,2.42,4.25.13,5.41,1.62.44.56.2,1.69.16,2.41Z"/>
            <path class="cls-93" d="M108.88,138.35c-2,.51-4.03.47-6.35.03,2-.51,4.03-.47,6.35-.03Z"/>
          </g>
        </g>
      </g>
    </g>
  </g>
</svg>