<?xml version="1.0" encoding="UTF-8"?>
<svg id="_レイヤー_2" data-name="レイヤー 2" xmlns="http://www.w3.org/2000/svg" viewBox="0 0 277.36 418.9">
  <defs>
    <style>
      .cls-1 {
        fill: #fefeff;
      }

      .cls-2 {
        fill: #413d5b;
      }

      .cls-3 {
        fill: #e3a693;
      }

      .cls-4 {
        fill: #aba5b6;
      }

      .cls-5 {
        fill: #c2beca;
      }

      .cls-6 {
        fill: #dedce1;
      }

      .cls-7 {
        fill: #cac6cf;
      }

      .cls-8 {
        fill: #cdcad3;
      }

      .cls-9 {
        fill: #69637e;
      }

      .cls-10 {
        fill: #4f4b67;
      }

      .cls-11 {
        fill: #aea6b8;
      }

      .cls-12 {
        fill: #9891a6;
      }

      .cls-13 {
        fill: #615c76;
      }

      .cls-14 {
        fill: #dddbe0;
      }

      .cls-15 {
        fill: #9991a5;
      }

      .cls-16 {
        fill: #b77773;
      }

      .cls-17 {
        fill: #f4e369;
      }

      .cls-18 {
        fill: #bbb6c4;
      }

      .cls-19 {
        fill: #e9ac96;
      }

      .cls-20 {
        fill: #c67f77;
      }

      .cls-21 {
        fill: #beb8c3;
      }

      .cls-22 {
        fill: #423d5a;
      }

      .cls-23 {
        fill: #a29db0;
      }

      .cls-24 {
        fill: #eab869;
      }

      .cls-25 {
        fill: #fff;
      }

      .cls-26 {
        fill: #6c5c71;
      }

      .cls-27 {
        fill: #ecebeb;
      }

      .cls-28 {
        fill: #de9781;
      }

      .cls-29 {
        fill: #615974;
      }

      .cls-30 {
        fill: #d0ced5;
      }

      .cls-31 {
        fill: #898197;
      }

      .cls-32 {
        fill: #827b92;
      }

      .cls-33 {
        fill: #f7f3f3;
      }

      .cls-34 {
        fill: #d0ced4;
      }

      .cls-35 {
        fill: #d6d3db;
      }

      .cls-36 {
        fill: #d5897a;
      }

      .cls-37 {
        fill: #fefdfd;
      }

      .cls-38 {
        fill: #b9b4c2;
      }

      .cls-39 {
        fill: #fadbbc;
      }

      .cls-40 {
        fill: #b8b5c2;
      }

      .cls-41 {
        fill: #a7a1b3;
      }

      .cls-42 {
        fill: #7d7589;
      }

      .cls-43 {
        fill: #e2a38f;
      }

      .cls-44 {
        fill: #fcfcfb;
      }

      .cls-45 {
        fill: #c5c2cc;
      }

      .cls-46 {
        fill: #dcdadf;
      }

      .cls-47 {
        fill: #a09aae;
      }

      .cls-48 {
        fill: #837891;
      }

      .cls-49 {
        fill: #b7b1bf;
      }

      .cls-50 {
        fill: #d8d5db;
      }

      .cls-51 {
        fill: #4b4762;
      }

      .cls-52 {
        fill: #615a72;
      }

      .cls-53 {
        fill: #b4adbc;
      }

      .cls-54 {
        fill: #b3adbc;
      }

      .cls-55 {
        fill: #fcfdfe;
      }

      .cls-56 {
        fill: #de9b88;
      }

      .cls-57 {
        fill: #a49db0;
      }

      .cls-58 {
        fill: #5e5770;
      }

      .cls-59 {
        fill: #b9b3c1;
      }

      .cls-60 {
        fill: #e0dde1;
      }

      .cls-61 {
        fill: #e1e1e8;
      }

      .cls-62 {
        fill: #716b85;
      }

      .cls-63 {
        fill: #645b74;
      }

      .cls-64 {
        fill: #aba4b5;
      }

      .cls-65 {
        fill: #bab6c2;
      }

      .cls-66 {
        fill: #e9eef2;
      }

      .cls-67 {
        fill: #66627e;
      }

      .cls-68 {
        fill: #aa979f;
      }

      .cls-69 {
        fill: #a19aad;
      }

      .cls-70 {
        fill: #a69fb0;
      }

      .cls-71 {
        fill: #766f86;
      }

      .cls-72 {
        fill: #ae736c;
      }

      .cls-73 {
        fill: #e7e5e7;
      }

      .cls-74 {
        fill: #a59fb0;
      }

      .cls-75 {
        fill: #e2e0e3;
      }

      .cls-76 {
        fill: #958da1;
      }

      .cls-77 {
        fill: #ecb199;
      }

      .cls-78 {
        fill: #cbc7d0;
      }

      .cls-79 {
        fill: #9a93a8;
      }

      .cls-80 {
        fill: #66617d;
      }

      .cls-81 {
        fill: #968ea3;
      }

      .cls-82 {
        fill: #d69182;
      }

      .cls-83 {
        fill: #857e95;
      }

      .cls-84 {
        fill: #ca8377;
      }

      .cls-85 {
        fill: #6e657d;
      }

      .cls-86 {
        fill: #8a8298;
      }

      .cls-87 {
        fill: #a49caf;
      }
    </style>
  </defs>
  <g id="_レイヤー_1-2" data-name="レイヤー 1">
    <g id="_生成オブジェクト" data-name="生成オブジェクト">
      <g>
        <path class="cls-66" d="M66.58,13.89c-.12.97-.32,2.08-.64,2.81-1.23,2.78-7.12-.2-8.06,2.83-1.29,4.14,1.77,11.26-3.01,11.38-1.15.03-3.77-.17-4.17,1.22-.32,1.11-1.06,2.97-.84,3.92.69,2.49-1.43,3.75-2.89,5.3-1.34,1.43-2.14,4.33-4.36,4.95-.18,3.61-2.16,7.12-6.48,7.3-.21,0-.71-.55-.85-.2-.07.17-.13.46-.57.85-.4,12.56.01,8.41,2.42,9.62,2.05,1.03,1.18,4.09,2.31,5.14,1.93,1.8,3.93,4.3,1.66,6.9-.47.54-1.68,0-2.37.5-.29,1.85-.56,4.04.3,5.87,7.7.11,6.12,2.09,9.08,5.68-1.4,1.06-2.61.52-3.52,1.5-.34.37-1.35-.24-1.46.34-.09.48.04.92-.02,1.3-.23,1.67-.49,3.42-.17,5.23.17.94,2.17.69,2.53,1.59.48,1.19.25,3.1,2.05,3.12,3.86.05,6.51-.09,6.98,3.11.28,1.91,3.08-.61,3.54,5.93,5.25-.88,7.37,1.26,8.46,1.71,3.52,1.46,10.94.12,11.27,3.42l.39,3.84.22,8.29c5.82,3.23,1.52,1.46,4.08,4.59,1.35,1.65,7.65-1.02,10.92,1.76.67.57.51,2.1,1.27,2.35,2.26.77,5.82-.14,6.47,1.6-.02-.07.98,11.69.87,12.3-.86,1.03-1.18,2.67-1.42,3.88-3.41.02-3.03,2.98-5.35,2.78-2.19-.19-8.49.59-8.56-1.27l-.36-10.22c-.04-1.02-3.04-.88-3.17.32-.17,1.57-.2,2.82-1.17,3.83-.72.75-2.13,1.17-3.47,1.4l-2.18,6.15c-8.37-.83-16.39.65-24.28-.61-2.49-.4-1.48-5.5-.2-6.74,1.7-1.66,3.13-3.97,1.23-5.18-.58-.37-1.95-.6-2.51-.59l-6.97.13c-1.55.03-2.92-.34-4.25-.4-6.76-.27-1.73-4.02-6.57-4.6-1.42-.17-3.27.38-4.51-.52s-.53-2.78-.58-4.26c-.04-1.09-2.2-.99-3.28-1.76-.88-.63-.89-3.09-.07-3.67.56-.39,1.55.56,1.57-.02.02-.67,1.91.09.81-4.85-1.46.57-9.89,1.46-10.19-.97l-.53-4.28c-.24-1.96.06-4.01-.3-5.93-1.88-.81-3.9-.66-5.92-.65-3.35.02-1.54-4.36-2.72-7.15-2.43-.02-3.22-2.14-4.43-3.66s-2.06-2.66-2.28-4.85c-.97-9.7.69-13.49.29-22.39-.28-6.22,3.15-1.26,3.89-9.07.98-.93,2.32-.76,2.95-1.73-.11-1.34.43-2.7,1.08-3.45,1.33-1.54,4.31-.19,5.8-1.06,1-.59,2.05-6.44-.81-7.85-.46-.87,1.47-1.29,2-1.72,4.71-3.82,2.32-1.25,8.36-3.27-.35-.88-.01-1.9.26-2.72.42-1.28,2.02-.18,2.59-.91,3.27-4.17,4.84-2.1,5.41-4.32.16-.63-.38-1.96.26-2.71,1.26-1.46,2.4-.56,4.07-2.08.59-1.48.5-2.97.92-4.61,2.21-.81,4.78-.91,7.12-.75,1.98.13,2.44-1.08,3.7-1.74,3.17-1.68,5.11-5.95,8.53-7.97,1.31-.78,1.67-2.08,2.77-2.82.57-.38,7.45-1.28,7.09-1.2Z"/>
        <path class="cls-66" d="M66.58,13.89c.29-2.31-.06-5.59.92-6.58,1.25-1.26,8.09-1.38,10.1-.51.46,3.69.75,4.75-1.69,6.35-3.02-.24-6.44.09-9.33.74Z"/>
        <path class="cls-1" d="M44.57,89.45c-.14.71-.87,1.31-1.48,1.64.05-.37-.08-.81.02-1.3.11-.58,1.12.03,1.46-.34Z"/>
      </g>
      <path class="cls-1" d="M45.95,361.52c-.38-.14-.89-.5-.93-.97.51-.01.97.48.93.97Z"/>
      <path class="cls-1" d="M84.34,203.44c0-.37.05-.73-.09-1.08.09-.28.22-.3.4-.07.09.15.23.49.18.87-.02.19-.19.28-.5.28Z"/>
      <path class="cls-1" d="M83.85,204.91h.49c0,.4.17.84-.18,1.52-.56-.38-.31-1.01-.31-1.52Z"/>
      <g>
        <path class="cls-61" d="M171.72,403.21c.02.64-.38,1.89.54,2.01,13.66,1.72,27.84-.03,42.1.85.12-1.9.05-2.79.26-3.82,1.04.04,1.98-.84,3.23-.72,3.99.38,8.54-.24,14.83.08,1.58.08,3.07.77,4.82.5l1.09,3.58c5.67.43,11.05.33,16.53.49l15.67.45,3.54.57c1.12.18,3.4.86,2.98,2.21-.69,2.19-2.65,2.93-4.41,2.53-1.26-.29-6.4.96-5.16.11-.19.13-.32.45-.79.81l-34.83.06c2.3,0-8.73,1.01-7.3.48-1.6.16-.45,4-1.45,4.41-.35.14-1.03.34-1.64,1.06l-27.42-.23c-3.03-.03-15.03-.24-16.71.08s-3.15-.31-4.9-.17c-6.4.53-12.65.32-19.14.21l-2.52-.04-41.24-.13-14.21.05-3.27.04-25.63.11c-1.42,0-2.35-.08-3.16-1.01-.49-.56-.76-5.44-2.08-4.51-.55.39-7.42-.32-6.18-.31l-24.02-.18c-1.61-.01-3.78.55-5.35-.25-1.87-.95-6.04.34-6.61-2.52-.19-.97.06-2.05,1.71-2.59,1.44-.48,9.21-1.04,10.82-1.01l11.3.22c1.62.03,9.61-1.26,11.74-.57,1.26.4,1.7-.72,3.32-.55-.62-1.17.88-3.48,2.53-3.32,1.27.12,2.1-.68,3.05-.67l14.24.12c2.31.02,4.43.15,6.37,1.09.18.75-.11,2.19.36,3.19l43.69-.05.29-2.14c.57.17,1.35,0,1.57-.65.11-.32.21-.82.61-1.39,4.95-.37,9.71.48,14.33-.41,3.46-.67,6.81-.18,10.32-.45,1.13-.09,1.99.81,2.9.81h9.87c1.49.01,2.6.56,3.44,1.56Z"/>
        <path class="cls-25" d="M172.26,405.22c-.92-.12-.53-1.37-.54-2.01.18.04.36.05.53.04,0,.65-.12,1.32,0,1.97Z"/>
      </g>
      <g>
        <path class="cls-60" d="M135.79,154.7c.48.27,1.59.34,1.51.89l-.24,1.61c-.11.76.93,1.64.5,2.1-1.44,1.52-4.13-.24-4.57,1.25-.25.87-.39,1.92.47,2.31-.47.65-.58,1.21-.58,2.47l-.19,118.59.06,53.34c2.37.56,5.28.54,7.43-.83.87-.55.96-2.07,1.89-2.29l.17,39.87c-2.76,0-5.57.51-8.74.15-.26.73.07,1.37-.53,1.16-.1-.24.06-.58-.05-.72-.16-.2-.58-.22-.98-.22l-21.59-.06c.09-.21-.04-.54-.47-.53l-7.78.02c-.15.33-.16.51-.14.64-.78-.21-1.68.08-2.32-.57l.93-62.92.79-61.43c1.26-.02,2.6-.94,4.38-.64l.38-17.64c.72-.66,2.83.18,3-.94.38-2.48.39-5.04.41-7.77l.19-30.9c.24-.64,1.51-.65,1.86-1.22v-4.73c.02-.62-1.28-.66-1.66-.49l-.15-11.6c-1.18-.19-3.21-.61-4.05.14l-.77,11.55c-.07,1.02-1.98,0-2.49.32-1.98,1.26-.15,3.8-.42,5.14-.67,3.35-.34,6.85-.52,10.31-.63.59-1.46.32-2.47.34l-4.25.08c-1.33,1.78-.09,3.77-.25,5.31-.92,8.88-.44,17.89-.28,26.94l.3,15.88c.11,6.02-.42,12.11-.46,18.68l-.3,39c-1.75.21-2.91-.15-4.57.26l-.53,20.81c-1.7.31-2.4-.47-3.24.24l-.19,13.21c-.88.24-2.5-.16-2.76.6-.7,2.02,0,4.06-.46,5.95l-2.76.29c-.37,1.32.23,2.84-.53,3.89-.35.48-2.25-.32-2.56.36l-.86,13.46-12.12.03c-1.02,0-1.81-.14-2.23-.98-.45.58-.74,1.13-1.18,1.07-4.51-.64-9.09-.02-13.79-.41-.17-1.68-.2-3.17-.09-4.56.04-.49-.42-.98-.93-.97-1.27.15-1.74-1.13-1.62-2.48.06-.61-.14-1.19.22-1.6.65-.73,2.43.02,3.16-.87.37-.45-.12-1.42.28-2.03.62-.95,2.14-.29,3.15-.71.69-1.07-.1-2.67.78-3.51.71-.68,2.04-.07,2.8-.68l.86-11.82c1.39-.11,2.27.02,3.51-.21.22-2.12.31-4.16.36-6.21.04-1.46,2.13-.51,1.57-9.14-.21-3.29,2.28,1.11,2.04-7.5,1.31-.47,2.66.02,4.21-.33l.35-14.78,3.41-.53c.25-2.3.57-4.51.62-6.84l.33-14.68.1-21.65c.01-2.68-.44-5.69.95-7.78s.78-7.07,1.79-10.51c1.37-.08,2.52.05,3.76-.71l.59-21.44c1.41-.35,2.49-.19,4.43-.27.19-1.84-.59-4.19.68-5.66.11-.13-.35-.35-.5-.76.18-1.38-.31-7.55,1.4-5.48.13.35.09.72.09,1.08-.77,0-.5.96-.49,1.47s-.24,1.14.31,1.52c.35-.68.18-1.12.18-1.52v-1.47c.31,0,.48-.09.5-.28.05-.38-.1-.72-.18-.87-.18-5.6.02-11.48.66-17.23,1.68-.24,2.82.13,4.22-.44l.22-16.45c1.13-.47,2.18-.33,3.72-.37l.64-7.02c1.24-.72,2.93-.03,3.8-1.16.39-.51.23-1.56.69-2.01.32-.31,1.29-.11,1.56-.53.7-1.09.2-2.3.39-3.28.24-1.21.56-2.85,1.42-3.88,3.16-3.8,3.19-.81,4.73-4.02.47-.99,2.34-1.71,3.22-2.32.7-.48,2.91-.22,3.38.48.52.77-.05,2.51.6,3.22l7.63.53c1.14.08,1.97,1.99,3.5,1.76.21.92.13,1.54.59,2.22.31-.7,7.45,1.48,6.83.91.44.41.36,1.28.86,1.7.8.67,1.77-.1,2.48.3Z"/>
        <path class="cls-21" d="M199.65,160.29c1.03.23,1.94-.09,3.36.1-.07,10.92,1.64,5.95,1.99,8.02.2,1.21,1.44,2.25,1.65,3.09,1.05,4.28.1,9.23.7,13.45l3.65.29.22,6.13,3.41.22.19,9.96,3.21.36.39,12.84.32,7.42c1.16.33,2.29.04,3.77.23l.24,6.08,3.22.37c-.36,2.49.53,15.04,1.2,15.61.23.2,1.12-.09,1.47.31,1.02,1.14.62,3.23.27,4.54-1.34.46-2.82-.48-3.6.69-.16-.02-.33,0-.49.04-.26-.61-1.27-.68-2.06-.67-8.17.09-16.09.37-23.95-.27.7-.42.5-1.1.51-1.99l.05-18.42c-1.06-.94-2.47-.14-3.56-.72l.02-21.08-8.11.19.06-12.21c.01-2.77.5-5.52.25-8.87-1.29-.52-2.89-.53-4.44-.13l-.27,4.25c-.1,1.54,1.34,1.78,1.55,2.62,1.02,4.09.02,8.4.74,12.66.28,1.68.31,7.19.09,7.66,1.65.43,3.01,1.16,4.56.87.17,2.59-4.34,9.48,1.03,8.55.84,4.41.15,9.21.76,13.87.16,1.25,1.46.72,2.27.99,1.17.39.59,2.02.84,2.74.81,2.34.76,5.49.5,7.9-.25-.37-.63.15-.83.37-.1.11.25.37.39.76l.09,22.57c0,.57-.09,1.08.52.98l.32,21.11c.02,1.48-.65,3.39-.08,4.71.6.38,2.3.17,2.76.61,1.19,2.44-.07,2.98,1.3,7.47.69.61,2.25.24,3.03.51l.61,42.28c.85.56,1.91.23,3.09.35l-.21,24.34c-3.2.04-6.33.28-9.87.13-.2.54.26,1.1-.36,1.09-.19-.25.07-.86-.55-.85l-29.96.35-11.32-.91v-154.29s.06-40.64.06-40.64l-.2-11.34,5.72-.27c.38-1.25-.22-2.4.41-3.54.96-.63,2.56.43,3.43-.39s.2-2.52.46-3.56c3.63-.67,7.07-.2,10.71-.24l17.68-.18c2.49-.02,4.64.39,6.8.86Z"/>
        <path class="cls-15" d="M198.81,249.11c7.86.64,15.78.36,23.95.27.78,0,1.8.07,2.06.67.61,1.23-.65,2.52-.66,3.45l-20.92.28c-.26,5.05-.24,9.85,0,15.04,1.16.25,3.58.55,4.56-.26.83-1.66-.09-3.94.43-5.82.2-.72,2.74-.7,2.82.04.26,2.36.13,5.02-.2,7.3-.71.56-2.75-.31-3.12.68-.45,1.21-.29,2.48-.37,3.57,1.13.53,2.34-.52,3.37.16.43.28,0,1.46.29,1.75.47.48,1.29.13,1.85.24,2.89.57,1.85-1.47,5.81-2.83-.13.86-.1,1.83.24,2.87,1.52-.07,2.76-.18,4.58.07l.99,21.56,4.86.08.68,21.65,4.69.28.32,16.57,4.52.21.41,11.87,5.1.25.18,4.2c.44.38,1.68.14,1.69.81l.13,5.71c1.25.15,2.19-.21,3.4.08.11,2.12.28,4.16-.05,6.24l-15.58.25c-.23,1.21-.02,2.14-.46,3.37-1.95-.16-3.6.35-5.34.42l-9.64.41c-.35,1.2.05,2.48-.53,3.48-4.24.3-8.27-.05-12.24,0l.21-24.34c-1.18-.12-2.24.21-3.09-.35l-.61-42.28.03-7.93c-1.11-.32-2.09-.14-3.2-.33-.39-1.22.23-2.54-.53-3.56-1.55.03-3.27-.15-3.31-1.48l-.32-21.11.04-23.18c1-.24,2.08-.45,2.96-.38Z"/>
        <path class="cls-7" d="M101.37,249.53l-.79,61.43-.93,62.92-32.99.19c-.36-1.79.03-3-.48-4.46-1.46.42-2.39-.66-3.46-1.15-1.27-.58-2.85-.44-2.88-1.96.44.06.73-.48,1.18-1.07.42.84,1.21.98,2.23.98l12.12-.03.86-13.46c.31-.68,2.22.12,2.56-.36.76-1.05.16-2.57.53-3.89l2.76-.29c.47-1.9-.24-3.93.46-5.95.27-.77,1.89-.37,2.76-.6l.19-13.21c.85-.71,1.54.07,3.24-.24l.53-20.81c1.66-.42,2.82-.06,4.57-.26l.3-39c.05-6.57.58-12.65.46-18.68l6.78-.08Z"/>
        <path class="cls-6" d="M117.69,99.79c1.32-.1,2.51.11,3.72.55,0,.69.03,1.42.2,2.09-.24-.06-.49-.22-.7-.12-.32.15-.38.57-.26.89-.5-.24-1.85-.32-2.43.18l-.27,10.86-4.23.31c-.14,2.22-.11,4.19.02,6.45,1.33.4,2.43.1,3.67.29l.32,3.07c2.37.11,4.52.09,7.15-.33.68,1.22.23,2.33.54,4.14,2.46-.19,5.09.73,7.17-.37.5.06.84.62,1.35.65-2.06.14-.63,6.6-.3,7.01.76.95,2.84.41,3.68.31-.08.61,1,.65.7,1.32-.05.63-.56,2.06.25,2.66s2.25.24,3.1.4c2.53.49-.05,2.72,4.81,3.72-.52,1.21-.08,2.51-.51,3.9-1.12-.23-2.83.47-3.83-.07-1.09-.96-1.86-1.22-3.6-1.04-1.23.13-.62-1.96-.92-2.56-.52-1.03-2.8.07-3.43-.7l-1.92-2.37c-.25-.3-1.2-.3-1.34-.62-.09-.2.45-.61.04-.86-1.64-1.02-3.59-.37-5.45-.58-.58-.37-.33-2.1-1.14-2.37-.75-.25-2.14,0-2.35-.84s.13-1.57-.54-1.93c-.36-.2-.97.27-1.5,0l-6.75-3.32c-2.39-1.17-4-1.78-6.63-2.1-.82-.1-1.48-.72-2.34-.89-1.82-.35-1.96-2.05-1.72-3.79.16-1.15,1.86-1.33,2.49-2.35l2.48-4.02c.61-.98,1.56-2.35,1.6-3.3l.35-9.64c.04-1.2.19-2.38.19-3.6.31.05.78-.12.53-.48l7.79-.57Z"/>
        <path class="cls-4" d="M186.79,110.1c0,2.51.54,5.07.75,7.68,1.24.3,2.76-.36,3.62.41.7.95-.05,2.48.37,3.57l3.66.35c.02,2.07.04,3.92-.2,5.77-1.41.33-2.58-.46-3.46.3,2.1-.89-7.75-.12-8.26.17-.42.24-.34,1.38-.67,1.43-.89.13-1.72.04-2.2.54-.37.38-.2,1.58-.71,1.99-1.01.84-2.81-.24-3.64.59-.49.61-.41,1.87-1.15,2.14,13.39-4.88-27.6,9.48-3,1.71-1.05.33-2.25-.14-2.84.43-.28.28-.09,1.31-.53,1.62-1.39,1-3.35.13-4.63,1.19-.38.59-.1,1.62-.54,1.89-.97.59-2.41-.23-3.38.39-.34.22-.21,1.29-.67,1.51-1.11.55-2.5.14-3.86.66-.63.73-.13,2.33-1.04,2.84-1.12.62-2.57.43-3.78.6-.12-1.73.13-3.16-.87-4.19l5.08-4.08c.18-1.16.04-2.1.4-3.17,1.42-.17,2.69-.14,3.69-.72,1.25.13,3.05.71,4.38-.1.8-.48-.09-2.19.47-2.88.84-1.04,1.23-2.17.97-3.34.13-.4,0-.95.41-1.12.88-.37,3.28.18,3.39-.57l.45-3.11c2.38-.21,4.63.14,6.94-.31.14-1.31-.24-2.58.26-3.62,1.86-.53,4.16.39,6.03-.83,1.13-.74,1.27-4.04.51-5.03-1.06-.24-2.19-.15-2.85-.39-.27-1.76.34-3.58.21-5.34,2.66.68,3.83-1.16,5.72-.25.26.12.17.96.42,1.17.13.11.31.09.55.1Z"/>
        <path class="cls-77" d="M224.16,253.5l-.13,9.83c-.02,1.78-.37,3.45.24,4.9.1.76-.37,1.22-.85,1.34s-1.94-.24-2.05.1l-1.01,3.01c-.57.36-1.61.13-1.67.97-3.96,1.36-2.92,3.4-5.81,2.83-.55-.11-1.37.24-1.85-.24-.29-.29.14-1.46-.29-1.75-1.03-.68-2.25.37-3.37-.16.08-1.09-.09-2.37.37-3.57.37-.99,2.41-.12,3.12-.68.33-2.28.46-4.95.2-7.3-.08-.74-2.62-.76-2.82-.04-.51,1.88.4,4.16-.43,5.82-.97.81-3.4.51-4.56.26-.25-5.19-.27-9.99,0-15.04l20.92-.28Z"/>
        <path class="cls-47" d="M191.54,128.18l-.39,4.52-2.94.34c-.11,1.32-.08,2.52.09,3.77l2.64.46c.58.5.54,2.69-.1,3.25-1.58.32-3.47.41-4.85.92-2.96-1.18-9.95.91-14.01,1.91-.1,1.4.42,2.44-.03,3.99l-7.6.62c.06-.49-.43-1.32-.64-1.74-.17-.35-2.95-.75-3.36-.67-.71.13-.02,1.4-.44,1.81-1.14,1.11-2.7.19-3.97.95.49,1.41-.81,2.08-1.14,2.81-.88,1.95-2.24,3.22-4.7,2.7-.46,1.13-.21,2.11-.47,3.04-1.19.59-1.06,1.82-1.06,3.28-.77.03-.97-.86-1.62-.58-.32.14-.9.2-1.21.54.1-.49-.58-.25-.8-.39-.59-.36-.66,1.11-1.21,1.05-2.04-.23-1.14-2.87-.58-3.9,1.4.11,2.86.43,4.76-.06l.11-12.85c.5.13,1.17-.36,1.72-.26,1.01,1.03.76,2.47.87,4.19,1.21-.17,2.66.02,3.78-.6.91-.51.42-2.11,1.04-2.84,1.36-.52,2.75-.11,3.86-.66.46-.23.34-1.3.67-1.51.96-.62,2.41.2,3.38-.39.45-.27.17-1.31.54-1.89,1.28-1.06,3.23-.19,4.63-1.19.44-.31.24-1.34.53-1.62.59-.57,1.79-.1,2.84-.43-24.6,7.77,16.39-6.6,3-1.71.74-.27.66-1.53,1.15-2.14.83-.83,2.63.25,3.64-.59.5-.42.34-1.61.71-1.99.48-.5,1.31-.41,2.2-.54.33-.05.25-1.19.67-1.43.51-.3,10.36-1.07,8.26-.17Z"/>
        <path class="cls-64" d="M195.66,149.04c-.07,2.01-.14,4.03.02,6.3l3.51.2c.54,1.61-.22,3.31.47,4.74-2.16-.47-4.31-.89-6.8-.86l-17.68.18c-3.64.04-7.09-.43-10.71.24-.25,1.03.45,2.7-.46,3.56s-2.47-.24-3.43.39c-.63,1.13-.02,2.29-.41,3.54l-5.72.27c-.54-.23-1.32-.93-2.49-.43l-.12-6.31c-.01-.64.02-1.1.17-1.45.74-1.71,3.08.21,3.08-1.56,2.41-.72,6.4,1.8,5.76-1.25,2.33-.86,4.92.09,7.57-.65,1.04-.29.26-2.11.62-2.91l7.17-.61,16.63-.71c-.51-.71-1.69-.2-2.13-.38-.5-.2-.66-2.04-.13-2.21,1.53-.48,3.59-.08,5.08-.09Z"/>
        <path class="cls-12" d="M185.99,141.43c-.53.33-1.49.07-1.64.66-.2.74-.09,1.42.22,1.79.69.82,2.57-.07,3.06.67.53.8.01,3.14.59,3.54.19.3,9.63.09,7.44.95-1.49,0-3.54-.4-5.08.09-.52.17-.37,2.01.13,2.21.44.18,1.62-.33,2.13.38l-16.63.71-7.17.61c-.36.79.42,2.61-.62,2.91-2.65.74-5.25-.22-7.57.65.64,3.05-3.35.54-5.76,1.25-.59-.05-.53-.8-1.01-.98.54-.93.36-2.9,1.49-3.4,2.69-1.19,5.58-.49,8.26-1.48l.53-4.02,7.6-.62c.45-1.55-.08-2.59.03-3.99,4.07-1,11.06-3.09,14.01-1.91Z"/>
        <path class="cls-35" d="M143.16,156.86c-.56,1.03-1.46,3.67.58,3.9.55.06.62-1.41,1.21-1.05.22.13.9-.1.8.39-.11.09-.32.24-.42.38.52-.76.52,6.86.37,7.16.08.34-.19.53-.51.46.14-.34-.29-.44-.46-.75-.25-.45-.49.28-1.01.09l-.81-.31c-.24-.09-.67.02-.63.42-1.37-.18-2.78-.22-4.75-.16-.6-1.2-.24-2.43-.49-3.85-1.2-.69-2.5-.23-3.57-.68-.86-.39-.72-1.44-.47-2.31.44-1.5,3.13.26,4.57-1.25.43-.45-.61-1.34-.5-2.1l.24-1.61c.08-.55-1.03-.61-1.51-.89l.05-1.96c.02-.67-1.72,1.33-2.86-4.3-2.57.2-6.01,1.04-7.34-.2l-1.39-1.3c-1.12-1.04-2.39-1.73-3.11-2.85-1.64-2.09-5.13-.99-7.17-2.17-1.41-.82-2.48-1.83-4.12-1-.72.36-2.19-.12-2.85-.36s-1.15-2.23-.38-2.77c.62-.43,1.76-.58,2.2-1.19,2.28.13,5.21-.28,7.46.34.03.79-.17,1.91.06,2.42.18.42,1.21.48,1.78.3,2.11-.65,3.08.58,4.43,1.2s2.46.31,2.55,2.33c.05,1.25,4.44-.88,3.88,1.91.78,1.13,2.47.11,3.57.75.37.21.2,1.11.42,1.33,1.11,1.1,3.81-.48,3.96,1.06-.91,1.04.22,1.38.46,2.12.31.98,5.77-.32,5.22,3.01-.22,1.3-.45,2.73.54,3.47Z"/>
        <path class="cls-18" d="M146.17,143.88c.48-.01,1.27-.08,1.86.07l-.11,12.85c-1.9.49-3.36.17-4.76.06-.99-.74-.75-2.17-.54-3.47.55-3.33-4.91-2.03-5.22-3.01-.23-.74-1.36-1.08-.46-2.12-.15-1.55-2.85.03-3.96-1.06-.22-.22-.05-1.11-.42-1.33-1.1-.64-2.79.38-3.57-.75.56-2.79-3.83-.66-3.88-1.91-.08-2.01-1.21-1.72-2.55-2.33s-2.32-1.85-4.43-1.2c-.57.17-1.6.11-1.78-.3-.23-.51-.03-1.63-.06-2.42-2.25-.62-5.18-.22-7.46-.34l-.08-3.68c-1-.32-1.72,0-2.6-.42-.22-1.47-.24-2.88.18-4.08,2.63.33,4.24.93,6.63,2.1l6.75,3.32c.52.26,1.14-.21,1.5,0,.67.36.34,1.11.54,1.93s1.6.59,2.35.84c.81.27.56,2,1.14,2.37,1.85.21,3.81-.44,5.45.58.4.25-.13.67-.04.86.15.33,1.1.32,1.34.62l1.92,2.37c.62.77,2.91-.33,3.43.7.3.6-.3,2.69.92,2.56,1.74-.18,2.51.07,3.6,1.04,1,.54,2.71-.16,3.83.07.43-1.4-.02-2.69.51-3.9Z"/>
        <g>
          <path class="cls-58" d="M196.39,375.27c.11,2.03.06,4.12-.06,6.46l-4.53.32v7.75s4.05.23,4.05.23l.24,5.08c2.15,0,4.14.32,6.21.4l7.81.32.32,5.26c1.62.37,4.48-.75,4.17,1.16-.2,1.03-.13,1.92-.26,3.82-14.25-.88-28.44.86-42.1-.85-.13-.65,0-1.32,0-1.97l.04-21.33-4.54-.22c-.32-1.92.3-3.65-.46-5.36-.41-.23-1.18-.12-1.25-.57-.05-.3.17-.69-.16-1l29.96-.35c.61,0,.36.6.55.85Z"/>
          <g>
            <path class="cls-52" d="M110.36,374.31l21.59.06c.4,0,.81.03.98.22.11.14-.04.48.05.72l-.04,6.33-4.34.21.09,21.89-.29,2.14-43.69.05c-.47-1-.17-2.43-.36-3.19-.09-.36.08-1.31.46-1.44,1.34-.46,2.68.37,3.59-.57.23-.24.69.47.97.47l23.81-.13.12-11.2-5.79-.12c-.08-.4-.09-.82-.52-.72l-.02-6.96-4.88-.39c-.03-2.55-.28-4.99.32-7.23,2.63-.25,5.3-.13,7.95-.12Z"/>
            <path class="cls-42" d="M88.39,400.72c.07-1.58-.37-3.33.14-4.97,3.31-.33,6.28.29,9.14-.32,1.44-.3,2.75-.54,4.4-.41l.18-4.98c1.49-.46,4.98.61,4.73-1.02.42-.1.44.32.52.72l5.79.12-.12,11.2-23.81.13c-.28,0-.74-.7-.97-.47Z"/>
          </g>
        </g>
        <path class="cls-79" d="M184.58,88.94c.17.77.33,8.31,1.12,10.77,2.51.16.43,5.3,1.58,4.66-.64,1.76-.5,3.84-.49,5.72-.24-.01-.42,0-.55-.1-.25-.21-.17-1.05-.42-1.17-1.89-.91-3.06.93-5.72.25-.21-2.82.07-5.62.24-8.85-1.32-.61-2.57-.4-3.71-.38.02-3.25-.46-6.55-.1-9.8.14-.7.75-.84,1.58-.87l6.48-.22Z"/>
        <path class="cls-65" d="M135.79,154.7c-.71-.41-1.68.37-2.48-.3-.51-.42-.42-1.29-.86-1.7.62.57-6.52-1.61-6.83-.91-.47-.68-.39-1.3-.59-2.22-1.54.23-2.36-1.68-3.5-1.76l-7.63-.53c-.65-.7-.08-2.45-.6-3.22-.47-.7-2.69-.96-3.38-.48.1-.91-.4-1.77-.07-2.66,1.64-.83,2.71.18,4.12,1,2.04,1.18,5.53.08,7.17,2.17.72,1.12,2,1.81,3.11,2.85l1.39,1.3c1.33,1.24,4.77.41,7.34.2,1.14,5.63,2.88,3.63,2.86,4.3l-.05,1.96Z"/>
        <path class="cls-23" d="M224.27,268.24c-.61-1.45-.27-3.13-.24-4.9l.13-9.83c.01-.93,1.27-2.23.66-3.45.16-.04.32-.05.49-.04.52.82.84,1.7.94,2.94.96.35,1.85.24,2.71.8l.1,14.32-4.79.17Z"/>
        <path class="cls-1" d="M110.36,374.31c-2.65,0-5.32-.12-7.95.12-.2.12-.27.05-.44,0-.02-.13,0-.3.14-.64l7.78-.02c.43,0,.56.32.47.53Z"/>
        <path class="cls-1" d="M109.18,104.44c-.16.2-.3.22-.4-.03.35-1.5-.35-3.71.6-3.57,0,1.22-.15,2.4-.19,3.6Z"/>
        <path class="cls-85" d="M154.57,219.57v154.29c-4.04-.32-8.21.14-12.33.14l-.17-39.87.18-87.49c1.7-.35-.46-1.62,1.1-2.57.35-.21.68-.29,1.23-.03l.73-1.83c.29-.73,2.27-.26,3.63-.84.05-6.73.31-13.31-.29-19.65l-3.49.97c-1.15.32-1.67-.48-2.15-1.07-.44-.55-.09-1.3-.25-2,3.93-.24,7.87-.05,11.81-.06Z"/>
        <path class="cls-27" d="M142.27,167.55l-.02,52.09v27s-.18,87.49-.18,87.49c-.93.23-1.02,1.74-1.89,2.29-2.15,1.37-5.06,1.39-7.43.83l-.06-53.34.19-118.59c0-1.26.11-1.82.58-2.47,1.07.45,2.37,0,3.57.68.25,1.43-.11,2.66.49,3.85,1.97-.06,3.38-.02,4.75.16Z"/>
        <path class="cls-50" d="M101.37,249.53l-6.78.08-.3-15.88c-.17-9.05-.65-18.05.28-26.94,2.17.45,4.54-.01,7.06.23.75-2.11-.19-4.06-.09-5.96.18-3.45-.14-6.96.52-10.31,1.17-.87,5.89.68,6.72-1.03,1.38-2.84-.68-2.79,1.16-4.52.38-.17,1.67-.13,1.67.49v4.73c-.36.57-1.63.57-1.88,1.22l-.19,30.9c-.02,2.73-.02,5.29-.41,7.77-.17,1.12-2.28.28-3,.94l-.38,17.64c-1.78-.3-3.12.62-4.38.64Z"/>
        <path class="cls-75" d="M109.93,185.2c-1.84,1.73.22,1.68-1.16,4.52-.83,1.71-5.55.16-6.72,1.03.27-1.34-1.56-3.88.42-5.14.51-.32,2.42.71,2.49-.32l.77-11.55c.84-.75,2.87-.33,4.05-.14l.15,11.6Z"/>
        <path class="cls-73" d="M94.56,206.79c.16-1.55-1.07-3.54.25-5.31l4.25-.08c1.01-.02,1.84.25,2.47-.34-.1,1.9.85,3.85.09,5.96-2.53-.25-4.89.21-7.06-.23Z"/>
        <path class="cls-74" d="M195.8,227.98c0,6.35.8,12.87.38,19.71.34.83-.31,1.24-.54.3.26-2.41.32-5.56-.5-7.9-.25-.72.33-2.35-.84-2.74-.81-.27-2.11.26-2.27-.99-.62-4.66.08-9.47-.76-13.87-5.37.93-.86-5.96-1.03-8.55-1.55.29-2.91-.44-4.56-.87.22-.46.2-5.98-.09-7.66-.72-4.25.28-8.57-.74-12.66-.21-.84-1.65-1.08-1.55-2.62l.27-4.25c1.55-.4,3.16-.38,4.44.13.24,3.36-.24,6.1-.25,8.87l-.06,12.21,8.11-.19-.02,21.08Z"/>
        <path class="cls-53" d="M198.81,249.11c-.87-.07-1.95.14-2.96.38l-.04,23.18c-.61.1-.52-.41-.52-.98l-.09-22.57c-.14-.39-.49-.65-.39-.76.2-.22.58-.74.83-.37.23.94.88.54.54-.3.42-6.83-.39-13.35-.38-19.71,1.1.58,2.51-.21,3.56.72l-.05,18.42c0,.89.2,1.57-.51,1.99Z"/>
        <path class="cls-87" d="M203.14,307.08c-.78-.27-2.34.09-3.03-.51-1.37-4.49-.11-5.03-1.3-7.47-.45-.44-2.16-.23-2.76-.61-.58-1.32.1-3.23.08-4.71.03,1.33,1.75,1.51,3.31,1.48.76,1.03.14,2.35.53,3.56,1.11.19,2.09.01,3.2.33l-.03,7.93Z"/>
        <path class="cls-81" d="M122.2,89.13c-.71,1.11-.77,2.47-.78,3.75-2.02-.39-4.16.45-6.26-.18-1.42-.43-2.79.37-3.99-.12.23-.46-.16-1.36.64-2.08,1.16-1.04.67-3.01,1.04-4.28,2.84-.62,6.25-.21,9.05,0,.29,1.26-.57,2.23.29,2.92Z"/>
        <path class="cls-57" d="M121.43,92.88v7.46c-1.23-.44-2.42-.65-3.74-.55-.08-1.07-.09-2.08-.48-3.54-2.73-.95-5.64.5-6.41-.2-.31-1.16-.04-2.65.38-3.49,1.2.5,2.57-.31,3.99.12,2.1.64,4.24-.2,6.26.18Z"/>
        <path class="cls-54" d="M117.69,99.79l-7.79.57c-.27-.47.23-.51.76-.69-.26-1.26.42-2.54.14-3.61.77.7,3.68-.75,6.41.2.39,1.45.4,2.47.48,3.54Z"/>
        <path class="cls-86" d="M184.58,88.94l-6.48.22c-.83.03-1.44.17-1.58.87-.62-.02-.24-.89-.83-.98.08-.83-.21-1.64.13-2.78,2.92-.4,5.79-.61,8.66-.21.63.81-.04,2.22.1,2.88Z"/>
        <path class="cls-26" d="M120.65,103.2l1.03.1.19,11.63c.9.39,1.79.35,2.64.19,1,2.41.62,5.04.72,7.97,5.72.19.92.58,7.46,1.09l-.12,3.62c-2.08,1.1-4.71.17-7.17.37-.31-1.81.15-2.91-.54-4.14-2.63.42-4.78.44-7.15.33l-.32-3.07c-1.23-.19-2.34.1-3.67-.29-.13-2.26-.16-4.23-.02-6.45l4.23-.31.27-10.86c.59-.5,1.93-.42,2.43-.18Z"/>
        <g>
          <path class="cls-71" d="M156.08,81.98h18.68s37.7.66,37.7.66c-.23.92.1,1.89-.01,3.12,2.64,1.29,9.68.31,12.29.78.64.11,1.08,1.09,1.64.58.34-.31.51-.8.43-1.28l2.18.06c.34,1.92.4,3.95.02,5.94-1.31.36-3.34-.56-3.84.54l-1.01,2.26c-.09.21-7.36.95-8.67,1.1-.81.09-1.53,1.78-3.1,1.02-.36,1.26-.04,1.93-.59,3.01-1.99-.57-3.61.29-5.28.76-3.41.96-6.97.01-10.43.64l-.4,3.11c-2.94.19-5.71.42-8.4.11-1.15.64.93-4.5-1.58-4.66-.8-2.46-.96-10-1.12-10.77-.14-.66.53-2.07-.1-2.88-2.87-.39-5.73-.19-8.66.21-.34,1.14-.05,1.95-.13,2.78-.9-.35-3.46.1-3.37,1.51-.23-.4-.19-.78-.14-1.44-1.22.54-2.25.14-3.28.32-.29-.94-.24-1.85-.54-3.2l-27.8-.04c-.29,1,.26,2.27-.78,2.42-.2-.8.64-1.54.01-2.5-3.72-.32-7.29-.12-10.99.15-.21.99-.3,1.65-.35,2.33-1.99.63-4.19.59-6.26.51-.87-.69,0-1.67-.29-2.92-2.81-.2-6.22-.61-9.05,0-.37,1.27.12,3.24-1.04,4.28-.8.72-.41,1.62-.64,2.08-.42.84-.69,2.33-.38,3.49.28,1.07-.39,2.36-.14,3.61-.52.18-1.03.22-.76.69.25.36-.21.52-.53.48-.95-.14-.25,2.06-.6,3.57-2.21.33-4.51.28-6.9.07l-.19-3.34-10.83-.52-5.01-.73c-1.22-.18-1.51-1.67-2.46-2.05-.67-.27-1.4.02-1.82-.42-.27-.28-.05-1.36-.53-1.69-1.23-.86-3.85.59-4.7-.57-.46-.63-5.43-3.66-6.91-2.77-.31-1.12.12-1.92-.3-2.87-.94-.16-2.27-.1-2.42-.73-.11-.48-.15-2.19.39-2.24,1.89-.2,3.51-.22,5.08-.18,4.18.1,8.54.31,12.86-.09,1.19-.75.25-2.81-.14-3.7l39.35-.41,31.83-.18Z"/>
          <path class="cls-46" d="M142.69,6.11v4.38c.88.26,1.54,0,2.21.49.18,1-.39,2.59.44,3.11,1.06.67,2.49-.05,3.74.44.12,1.58-.01,3.13.41,4.48.13.4,4.31,2.01,4.96,1.33l.57,8.8c-1.05.38-.35,1.76-.53,2.75s-1.63.05-1.81.41c-.64,1.44-.09,3.87,1.04,5.09-1.67,1.11-3.16.32-4.76.97l-.21,3.26-6.04.52-.1,10.92c-2.96-.18-6.1-.6-8.63.21-.39.42-.28,1.75-.53,2.18-.96,1.66-3.02-.51-3.48,1.93-.07.39-.08,1.57.65,1.57l18.36.1c.29,2.15-.48,4.36.13,6.45-1.97-.06-4.73.53-6.88.57l-24.96.48.43-8.9c.05-1.02.53-1.87.34-3.15-.13-.84,1.39-1.91,2.91-1.39l1.61-7.78c1.03-.45,2.17.34,2.88-.15,2.38-1.63.66-9.63,1.59-11.62.33.06.57-.07.89-.07l9.15-.26c.12-2.4.21-4.52.03-6.7-2.26-.36-4.07.56-5.66-.25-.2-1.43,1.02-2.53.94-3.97-.02-.38.18-.83.45-.97.46-.24,1.07-.1,1.56-.16,2.36-.27,1.45-4.76,1.06-5s-1.38.31-2.16.12c-1.36-.33-.81-2.51-.66-3.98-3.36-.42-3.07.66-7.98.1-.22-2.04.23-4.06.28-6.36-2.4-.52-5.35.7-7.06-.44.49.33-5.32.96-7.89.16,1.11.57-1.27-4.89.81-5.17l4.59-.61,26.67.14c-.27,1.94-.3,6.47.64,5.96Z"/>
          <path class="cls-14" d="M164.33,73.83l-.5,5.44-8.95.29c-.3,1.52,1.24,1.41,1.2,2.41l-31.83.18-39.35.41c-.32-.74-.75-2.66-.07-3.23,2.79-.62,5.96-.31,9.03-.34.93,0,.85-2.23,1.63-2.8l10.91-.05c5.12-.02,2.14-1.44,6.91-2.36,11.76.37,23.77.3,35.39-.51,4.94-.35,10.5,1.2,15.64.56Z"/>
          <path class="cls-49" d="M164.38,32.71c.36,1.44-.35,3.37-.05,5.03-1.4.48-2.62-.14-3.51.61-.64.54-.41,1.81-.54,2.72,1.28.54,2.5.22,3.91.55l.31,14.04c1.31-.31,2.4.53,3.25-.08.76-.54.67-1.86,1.42-1.88.9-.02,1.59-.04,2.69.12.42,1.46.08,3.06.35,4.87l-7.57.17c-.2.03-.26.61-.35.75-.32-1.27-6.44-.55-7.26-.12,1.21-.39-1.55-.33-1.55-1.02v-.84c-.14-6.36-.3-12.78.35-19.22,1.08-10.68-.4-2.96-.81-9.26l-.57-8.8c-.65.68-4.83-.92-4.96-1.33-.42-1.35-.3-2.9-.41-4.48-1.26-.49-2.68.23-3.74-.44-.83-.53-.27-2.11-.44-3.11-.66-.49-1.32-.23-2.2-.49v-4.38c-.67-.99,4.96-.68,6.06-.65l.29,4.58,5.54.3c.14,2.54-.11,4.74.32,7.02l4.47.29c.06,2.63-.15,5.05.49,7.63l4.16.29c0,2.69-.19,4.94.36,7.14Z"/>
          <path class="cls-38" d="M109.98,5.78c2.57.8,8.38.16,7.89-.16,1.71,1.14,4.66-.07,7.06.44-.05,2.3-.5,4.32-.28,6.36.1.92-.46,3.19.87,3.44s2.92-.98,3.48.4c.51,1.26.9,2.09.35,2.71-.81.92-1.87.77-3.05.51-.6.6-.19,1.56-.62,2.24-1.18-.02-2.37.1-3.75-.22-.22-2.53-.52-4.72-.41-7.47l-17.26.15c-1.79,6.71-2.73,2.27-2.9,6.82-1.26.39-2.65-.21-3.71.47-.85.54-.29,2.25-.42,3.43-3.72.98-7.45,1.07-11.46.8-.24-1.54-.18-2.82.03-4.41l3.71-.21.27-3.5,4-.21c.47-1.37-.46-3.27.87-4.04,2.13.45,4.51,0,6.83-.4.24-1.13.02-2.07.51-3.06l6.43-.91c.64-.55.21-2.24,0-3.01.47-.26,1-.34,1.56-.17Z"/>
          <path class="cls-69" d="M179.94,66.43c-5.22.17-10.5-1.02-15.59-.88-.37-1.95-.22-3.99-.06-5.95.09-.14.15-.72.35-.75l7.57-.17c-.27-1.81.07-3.41-.35-4.87-1.09-.16-1.78-.14-2.69-.12-.76.01-.66,1.33-1.42,1.88-.85.61-1.94-.23-3.25.08l-.31-14.04c-1.41-.34-2.63,0-3.91-.55.13-.9-.1-2.18.54-2.72.89-.75,2.11-.13,3.51-.61-.29-1.66.42-3.59.05-5.03l3.9.14.25,7.75,3.75.26.14,6.85c1.03.47,2.05.3,3.51.36l.18,11.35c1.33.2,2.5-.12,3.7.21l.13,6.8Z"/>
          <path class="cls-32" d="M156.94,65.75l7.42-.2c5.09-.14,10.36,1.05,15.59.88.94-.03,2.26.65,3.63.39.09,2.55.1,4.48-.04,6.56-3.62.74-7.59.2-11.33.43-2.59.17-5.26-.32-7.87,0-5.14.64-10.69-.9-15.64-.56l.21-5.02-6.37,1.13c-.61-1.36-.32-2.28-.3-3.31,2.15-.04,4.9-.64,6.88-.57l7.83.25Z"/>
          <path class="cls-41" d="M213.95,82.25c-.13.69-1.08.22-1.5.39l-37.7-.65c1.05-2.56-3.83.7-6.86-1.6l3.76-1.67c.57-1.69.4-3.37.55-4.88,3.74-.24,7.71.31,11.33-.43.96,1.01,2.71-.37,3.44.73.13.19-.06,1.14.18,1.14l15.68.32c.68.34.04,1.97.34,2.74l10.44.43c1,.28.25,2.66.34,3.5Z"/>
          <path class="cls-70" d="M142.24,66.07c-.02,1.03-.31,1.96.3,3.31l6.37-1.13-.21,5.02c-11.62.81-23.63.88-35.39.51l.31-6.87c1.5.3,2.76-.39,3.65-.36l24.96-.48Z"/>
          <path class="cls-5" d="M132.39,22.3c-.58-.85-.72-1.08-1.67-1.1-.42,0-2.89,1.36-4.07,1.6-.07-.5-.36-1.2-.96-1.07.43-.69.01-1.65.62-2.24,1.18.26,2.24.41,3.05-.51.55-.62.17-1.45-.35-2.71-.56-1.38-2.22-.15-3.48-.4-1.32-.26-.77-2.52-.87-3.44,4.91.56,4.61-.53,7.98-.1-.15,1.47-.7,3.65.66,3.98.78.19,1.77-.37,2.16-.12s1.3,4.73-1.06,5c-.49.06-1.1-.09-1.56.16-.27.14-.47.59-.45.97Z"/>
          <path class="cls-83" d="M213.95,82.25l10.27.28c-.03,1.14-.07,2.22.55,2.84.46.47,1.4.44,2.03.46.08.48-.09.97-.43,1.28-.56.51-1-.47-1.64-.58-2.61-.46-9.65.51-12.29-.78.11-1.24-.21-2.2.01-3.12.42-.16,1.36.3,1.5-.39Z"/>
          <path class="cls-8" d="M108.42,5.94c.21.78.64,2.46,0,3.01l-6.43.91c-.49.99-.27,1.93-.51,3.06-2.32.4-4.7.85-6.83.4.04-.66-.24-2.22,1.01-2.44.81-.15,2.5.29,2.89-.97.43-1.39.4-3.94,2.38-4.06,2.6-.16,5.31-.46,7.49.09Z"/>
          <path class="cls-76" d="M84.9,82.57c.39.89,1.32,2.95.14,3.7-4.32.4-8.68.19-12.86.09.58-.98.17-2.34.32-3.78,4.28-.49,8.39.03,12.4,0Z"/>
          <path class="cls-40" d="M132.39,22.3c.08,1.44-1.14,2.54-.94,3.97-.98.62-2.12-.06-3.42.41l-.1,6.8c-.32,0-.56.13-.89.07-.63-3.23.07-7.4-.39-10.76,1.18-.24,3.65-1.61,4.07-1.6.96.02,1.09.25,1.67,1.1Z"/>
          <path class="cls-59" d="M172.2,73.82c-.15,1.52.02,3.2-.55,4.88l-3.76,1.67c3.03,2.31,7.91-.96,6.86,1.6h-18.68c.04-1.01-1.5-.9-1.2-2.42l8.95-.29.5-5.44c2.61-.33,5.27.16,7.87,0Z"/>
          <path class="cls-34" d="M155.49,57.62c-.92,1.12-7.09-.44-6.51,1.44l-18.36-.1c-.74,0-.72-1.18-.65-1.57.46-2.44,2.52-.27,3.48-1.93.25-.43.14-1.76.53-2.18,2.53-.81,5.67-.39,8.63-.21l.1-10.92,6.04-.52.21-3.26c1.6-.66,3.1.13,4.76-.97-1.13-1.23-1.68-3.66-1.04-5.09.18-.37,1.63.56,1.81-.41s-.52-2.37.53-2.75c.41,6.3,1.89-1.42.81,9.26-.65,6.44-.49,12.86-.35,19.22Z"/>
          <path class="cls-78" d="M127.92,33.48l.1-6.8c1.3-.47,2.44.22,3.42-.41,1.58.8,3.4-.11,5.66.25.18,2.18.09,4.3-.03,6.7l-9.15.26Z"/>
          <path class="cls-45" d="M157.03,59.48c.77,3.04-.28,3.06-.1,6.27l-7.83-.25c-.61-2.08.16-4.3-.13-6.45-.59-1.89,5.59-.32,6.51-1.44v.84c0,.69,2.76.63,1.54,1.02Z"/>
          <path class="cls-30" d="M164.29,59.6c-.16,1.97-.31,4,.06,5.95l-7.42.2c-.18-3.21.86-3.23.1-6.27.82-.43,6.94-1.15,7.26.12Z"/>
        </g>
        <path class="cls-11" d="M164.35,147.96l-.53,4.02c-2.68.99-5.57.29-8.26,1.48-1.13.5-.95,2.48-1.49,3.4-1.41.34-3.1.68-4.43,0,.25-.93,0-1.91.47-3.04,2.46.53,3.82-.75,4.7-2.7.33-.73,1.63-1.4,1.14-2.81,1.27-.76,2.83.16,3.97-.95.42-.41-.27-1.68.44-1.81.41-.07,3.19.32,3.36.67.2.42.7,1.25.64,1.74Z"/>
        <path class="cls-17" d="M147.18,167.72c.97.33,1.62.52,1.66,1.6.03.89-.24,1.7-1.16,2.08-.51.21-1.45-.05-2.02.15-.99-.8-.39-2.31-.45-3.47.32.07.59-.13.51-.46.44.19,1.1-.04,1.47.09Z"/>
        <path class="cls-63" d="M142.25,246.64v-27c.17.01.34,0,.5-.02.16.7-.19,1.44.25,2,.47.59.99,1.39,2.15,1.07l3.49-.97c.6,6.35.34,12.92.29,19.65-1.35.58-3.34.11-3.63.84l-.73,1.83c-.55-.26-.88-.19-1.23.03-1.56.95.6,2.23-1.1,2.57Z"/>
        <path class="cls-62" d="M147.67,171.41c2.06-.22.65,5.28.8,5.99-.52.97-3.14,1.49-3.58.58-.76-1.56.66-3.23.54-4.58-.06-.73-.26-1.41.22-1.84.58-.2,1.51.06,2.02-.15Z"/>
        <g>
          <path class="cls-31" d="M154.07,156.86c.49.18.42.93,1.01.98,0,1.77-2.34-.14-3.08,1.56-.15.35-.18.81-.17,1.45l.12,6.31c1.16-.5,1.94.2,2.49.43l.2,11.34-.07,40.64c-3.94,0-7.88-.18-11.81.06-.17.01-.34.03-.51.02l.02-52.09c-.04-.4.39-.51.63-.42l.81.31c.52.2.76-.54,1.01-.09.17.31.6.4.46.75.05,1.16-.54,2.67.45,3.47-.48.43-.28,1.11-.22,1.84.12,1.35-1.3,3.03-.54,4.58.44.91,3.06.39,3.58-.58.34.79,2.35.85,2.97.26.39-1.73-.24-4,.41-5.81.81-.37,1.56-.29,2.08-.67-.21-.92.3-2.07-.03-2.64-.74-1.27-3.3-.36-4.1-.76-1.07-.53-.27-1.47-.89-2.64-.67,1.04-.34,2.54-1.73,2.59-.37-.13-1.04.1-1.47-.09.16-.3.15-7.92-.37-7.16.09-.14.3-.29.42-.38.31-.34.89-.41,1.21-.54.64-.27.84.62,1.62.58,0-1.46-.13-2.69,1.06-3.28,1.33.68,3.02.34,4.43,0Z"/>
          <path class="cls-24" d="M148.46,177.4c-.15-.71,1.26-6.22-.8-5.99.93-.39,1.19-1.19,1.16-2.08-.03-1.09-.68-1.28-1.66-1.6,1.39-.05,1.05-1.55,1.73-2.59.62,1.18-.17,2.11.89,2.64.8.4,3.36-.51,4.1.76.33.57-.18,1.72.03,2.64-.52.38-1.27.3-2.08.67-.66,1.81-.03,4.08-.41,5.81-.62.59-2.63.54-2.97-.26Z"/>
          <path class="cls-29" d="M148.74,183.72c-.06,1.34-1.42,1.19-2.29.97-.76-.19-.65-1.35-.68-2.12-.04-1.12,1.14-1.28,2.51-1.08.7.11.51,1.14.46,2.22Z"/>
        </g>
        <g>
          <path class="cls-56" d="M168.91,89.45c.27.86-.64,1.9,0,2.88.68.03,1.2.62.34.65-4.09-.12-8.19-.28-12.5.05-.03,1.36.18,2.24.4,3.43h7.72c0,.88.17,1.79-.41,2.5-1.44.42-3.47-.14-4.88.48-.18.35.34,1.27.24,1.6-.09.3-.27.7-.76.71.18-.85-.49-1.2-.96-.19-.77-.03-1.18-.02-1.54.17.3-.54-.19-.38-.41-.48-.44-.19-1.07-.07-1.63-.05.77-1.32.68-4.29-1.05-4.63-3.87-.75-7.8.17-11.43.26.63,1.59-.15,2.27.06,3.04.22.81-.64.34-.87.49.89-1.56.77-3.41-.83-4.38.17-.91.05-1.84-.09-3.16-5.72-.15-9.7-.02-14.77.28.06-1.26,2.1-.5,2.7-1.29.56-.74.08-2.1.32-2.71,3.74-.2,7.51.08,11.21-.46,1.04-.15.49-1.42.78-2.42l27.8.04c.3,1.35.25,2.26.54,3.2Z"/>
          <path class="cls-13" d="M175.69,89.06c.58.09.2.96.83.98-.36,3.26.13,6.56.1,9.8-.04,4.77-.27,9.62.04,14.58,1.22.74,2.3-.36,3.22-.01.65.25,1.79.15,2.85.39.76.99.62,4.29-.51,5.03-1.86,1.22-4.17.3-6.03.83-.5,1.04-.12,2.31-.26,3.62-2.31.45-4.56.1-6.94.31l-.45,3.11c-.11.75-2.5.2-3.39.57-.4.17-.28.72-.41,1.12-.35-.01-.96-.37-.88-.91,1.17.6-.51-3.82.86-4.47,1.5-.71,3.09.3,4.57-.62-.53-1.41-.13-2.75-.09-3.98l2.6-.31c.82-1.38.27-2.7-.1-3.94,1.48,1.51.58-15.24.57-16.34-.03-2.73.22-5.5.05-8.26-.09-1.41,2.47-1.86,3.37-1.51Z"/>
          <path class="cls-9" d="M128.46,88.62c-.01.17.11.35.12.48-.25.62.23,1.98-.32,2.71-.6.79-2.64.04-2.7,1.29-.05.95.07,1.9-.06,2.84-1.44-.8-.87,4.84-1.4,6.31-.82.05-1.64.39-2.48.18-.18-.67-.21-1.4-.2-2.09v-7.46c.02-1.28.08-2.64.79-3.75,2.07.07,4.26.12,6.26-.51Z"/>
          <path class="cls-20" d="M172.32,90.57c.17,2.76-.08,5.53-.05,8.26-.9,0-.56,1.17-.54,2.28l-3.71-.48c.23.44.17.59-.04.64-.26.07-.54.1-.77-.06-.09-.34.25-.78-.03-1.1-.77-.9-1.44-.21-2.7-1.14.57-.72.4-1.62.41-2.49,1.95,0,3.99-.19,6.22-.28.33-1.42-.88-2.36-1.84-3.21.86-.03.34-.62-.34-.65-.64-.98.26-2.02,0-2.88,1.03-.18,2.06.21,3.28-.32-.05.65-.1,1.03.14,1.44Z"/>
          <path class="cls-48" d="M139.78,88.63c-3.7.54-7.47.25-11.21.46,0-.13-.13-.31-.12-.48.04-.68.14-1.34.35-2.33,3.71-.27,7.27-.46,10.99-.15.63.96-.22,1.7-.01,2.5Z"/>
          <path class="cls-39" d="M128.08,102.31c.83,1.56-.7,5.16,2.33,5.32-1.45,1.21,8.17,1.51,6.99-.39,1.31-.51,2.4.26,3.57.58,2.44.67,5.01.03,7.65.5.1,1.49.56,3.62-.28,4.98-.72.33-2.54-.8-3.01.26-.5,1.15,1.03,1.47,1.81,1.22l.12,1.58c.04.61,1.67,1.12,2.23.67.26.3.24.76.16.94-3.14-.06-6.39-.3-10.04.02-.76.07-.95,2.67-.24,3.03,2.46.42,5.54-.14,7.91-.08.28.31-.14.69.18.88.19.11.46.07.61.13,0,1.41-1.31.13-2.39,1.22-.31.31-.29.97-.45,1.68-.15.63-1.24.73-1.31,1.46-.13,1.27-.56,2.19-1.65,2.22-1.55-.25-3.02-.05-4.45.29-1.15.28-2.72-.3-3.89-.37-.52-.03-.85-.6-1.35-.65l.12-3.62c-6.54-.51-1.75-.9-7.46-1.09-.1-2.93.29-5.57-.72-7.97-.9-3.13.29-6.9.27-10.44,0-.77,2.16-1.21,1.39-2.2.62.02,1.28-.09,1.91-.17Z"/>
          <path class="cls-82" d="M159.39,128.75l-.46,6.96c-.99.59-2.27.56-3.69.72-.36,1.07-.22,2.01-.4,3.17l-5.08,4.08c-.54-.1-1.22.39-1.72.26-.59-.16-1.38-.09-1.86-.07-4.86-1-2.28-3.24-4.81-3.72,0-.67.31-1.38.05-2.03.83.56,1.31-.77,1.86-.78l11.04-.16c.39-1.59.03-3.33.23-4.87.12-.92.55-2.22.49-3-.16-1.96,5.9-.49,4.36-.56Z"/>
          <path class="cls-84" d="M142.26,128.53c-.31.85-.67,3.17.35,3.91,3.99.61,8.11.49,11.93-.13-.2,1.55.16,3.29-.23,4.87l-11.04.16c-.55,0-1.02,1.33-1.86.78-.65-1.24-2.19-.86-3.41-1.03.29-.67-.78-.71-.7-1.32,1.21-2.09-.12-4.66.51-6.95,1.43-.34,2.9-.54,4.45-.29Z"/>
          <path class="cls-3" d="M121.62,102.44c.83.21,1.66-.13,2.48-.18.69-.04,1.38.21,2.08.23.77.99-1.4,1.42-1.39,2.2.02,3.54-1.17,7.31-.27,10.44-.86.16-1.74.21-2.64-.19l-.19-11.63-1.03-.1c-.12-.32-.06-.74.26-.89.21-.09.46.06.7.12Z"/>
          <path class="cls-67" d="M137.81,128.83c-.64,2.29.7,4.86-.51,6.95-.84.1-2.92.63-3.68-.31-.33-.41-1.76-6.87.3-7.01,1.17.07,2.74.64,3.89.37Z"/>
          <path class="cls-68" d="M141.41,138.12c.25.65-.05,1.37-.05,2.03-.85-.16-2.3.19-3.1-.4s-.31-2.03-.25-2.66c1.22.17,2.76-.21,3.41,1.03Z"/>
          <path class="cls-28" d="M180.09,109.07c.13,1.76-.48,3.58-.21,5.34-.92-.34-2,.75-3.22.01-.31-4.96-.07-9.81-.04-14.58,1.14-.01,2.39-.22,3.71.38-.17,3.23-.45,6.03-.24,8.85Z"/>
          <path class="cls-80" d="M163.86,128.48c-.08.54.53.9.88.91.26,1.17-.13,2.31-.97,3.34-.56.69.33,2.4-.47,2.88-1.33.81-3.13.23-4.38.1l.46-6.96c1.39.06,3.04-.41,4.48-.27Z"/>
          <path class="cls-19" d="M156.57,101.73c-.16,1.39-.12,2.83-.08,4.46.75.71,1.62,1.02,2.38,1.46,1.51.87,3.98,1.34,5.75.25.5-.31,1.08-1.57,1.42-2,.13.29,1.88.87,2.31.29.9-1.23.64-3.88-.38-4.91.2-.06.26-.2.04-.64l3.71.48c-.02-1.11-.36-2.28.54-2.28.01,1.1.91,17.84-.57,16.34l-2.37-.02c-.52,1.49-.08,2.92-.13,4.27-.04,1.24-.43,2.57.09,3.98-1.48.92-3.07-.09-4.57.62-1.37.65.31,5.07-.86,4.47-1.44-.14-3.09.34-4.48.27,1.54.07-4.52-1.4-4.36.56-.76-.42-2.29-.81-2.84-1.42-2.24-5.73.07-3.49-4.13-5.94-.15-.06-.43-.02-.61-.13-.33-.19.09-.57-.18-.88l10.12-.07c.24-.87.45-2.5-.15-3.1-2.53-.22-5.04.25-7.59.2.08-.19.1-.65-.16-.94-.56.45-2.19-.07-2.23-.67l-.12-1.58c-.78.26-2.31-.06-1.81-1.22.46-1.06,2.29.07,3.01-.26.84-1.36.38-3.49.28-4.98-2.63-.47-5.2.16-7.65-.5-1.17-.32-2.26-1.08-3.57-.58-.21-.36.08-.71.08-1.05.58-.05,2.11.78,2.85.06,1.02-.98.59-3.28.02-4.42-.23-.46.65-1.09.9-1.47.22-.15,1.09.32.87-.49-.21-.77.56-1.45-.06-3.04,3.63-.09,7.55-1.01,11.43-.26,1.74.33,1.82,3.31,1.05,4.63.55-.03,1.19-.14,1.63.05.22.09.71-.07.41.48Z"/>
          <path class="cls-16" d="M125.49,95.94c1.23.42,14.34.95,14.92.04,1.6.98,1.72,2.83.83,4.38-.24.37-1.13,1-.9,1.47l-2.78-.11c.01-.66-.17-1.36-.29-2.26-1.8-.15-8.19-.95-7.73,1.4-.76.18-.67,1.36-1.47,1.45-.63.07-1.29.18-1.91.17-.7-.02-1.38-.27-2.08-.23.52-1.47-.04-7.1,1.4-6.31Z"/>
          <path class="cls-2" d="M167.21,101.21c-1.64-1.21-1.23,4.13-1.17,4.69-.33.43-.92,1.69-1.42,2-1.76,1.09-4.24.61-5.75-.25.25-1.97.48-3.91.2-5.89.49,0,.68-.4.76-.71.09-.33-.42-1.25-.24-1.6,1.41-.62,3.44-.06,4.88-.48,1.26.93,1.94.24,2.7,1.14.28.33-.05.76.03,1.1Z"/>
          <path class="cls-10" d="M140.42,95.98c-.58.91-13.69.38-14.92-.04.13-.94.01-1.9.06-2.84,5.07-.29,9.05-.43,14.77-.28.15,1.32.27,2.25.09,3.16Z"/>
          <path class="cls-51" d="M169.25,92.99c.96.85,2.18,1.79,1.84,3.21-2.24.09-4.27.28-6.22.28h-7.72c-.23-1.2-.43-2.08-.4-3.44,4.31-.33,8.41-.17,12.5-.05Z"/>
          <path class="cls-33" d="M159.07,101.75c.28,1.98.06,3.92-.2,5.89-.76-.44-1.63-.75-2.38-1.46-.05-1.63-.08-3.07.08-4.46.35-.19.77-.2,1.54-.17.48-1.01,1.14-.66.96.19Z"/>
          <path class="cls-72" d="M171.7,115.16c.37,1.24.92,2.56.1,3.94l-2.6.31c.04-1.34-.39-2.78.13-4.27l2.37.02Z"/>
          <path class="cls-55" d="M167.21,101.21c.23.17.51.13.77.06,1.01,1.03,1.28,3.69.38,4.91-.43.58-2.18,0-2.31-.29-.07-.56-.47-5.9,1.17-4.69Z"/>
          <path class="cls-43" d="M155.03,129.31c.07.78-.37,2.08-.49,3-3.82.62-7.95.74-11.93.13-1.02-.74-.66-3.06-.35-3.91,1.09-.03,1.52-.95,1.65-2.22.08-.73,1.17-.83,1.31-1.46.17-.71.15-1.37.45-1.68,1.07-1.09,2.39.19,2.39-1.22,4.19,2.44,1.88.2,4.13,5.94.55.6,2.08,1,2.84,1.42Z"/>
          <path class="cls-22" d="M137.57,101.73l-.1,4.47c0,.34-.29.7-.08,1.05,1.19,1.9-8.44,1.6-6.99.39.06-.02.4-.21.45-.53-.38-1.13-1.2-3.07.01-3.93.71-.5,1.19-.54,1.04-1.15-.09-.36-.05-1.03-.6-1.06l-1.76-.11c-.47-2.34,5.93-1.55,7.73-1.4.12.91.3,1.6.29,2.26Z"/>
          <path class="cls-36" d="M147.27,120.95c-2.37-.06-5.44.51-7.91.08-.71-.36-.52-2.96.24-3.03,3.65-.32,6.9-.08,10.04-.02,2.55.05,5.06-.42,7.59-.2.61.6.4,2.23.15,3.1l-10.12.07Z"/>
          <path class="cls-44" d="M130.41,107.64c-3.03-.16-1.5-3.76-2.33-5.32.8-.09.71-1.27,1.47-1.45l1.76.11c.54.03.51.7.6,1.06.15.61-.34.65-1.04,1.15-1.21.85-.39,2.8-.01,3.93-.05.32-.4.51-.45.53Z"/>
          <path class="cls-37" d="M140.35,101.83c.57,1.14.99,3.44-.02,4.42-.75.72-2.27-.11-2.85-.06l.1-4.47,2.78.11Z"/>
        </g>
      </g>
    </g>
  </g>
</svg>