<?xml version="1.0" encoding="UTF-8"?>
<svg id="_レイヤー_2" data-name="レイヤー 2" xmlns="http://www.w3.org/2000/svg" viewBox="0 0 305.73 418.9">
  <defs>
    <style>
      .cls-1 {
        fill: #9c9cae;
      }

      .cls-2 {
        fill: #9798aa;
      }

      .cls-3 {
        fill: #b5b7c3;
      }

      .cls-4 {
        fill: #c0c2cb;
      }

      .cls-5 {
        fill: #a2a0af;
      }

      .cls-6 {
        fill: #ceced4;
      }

      .cls-7 {
        fill: #373349;
      }

      .cls-8 {
        fill: #f2f3f4;
      }

      .cls-9 {
        fill: #41425a;
      }

      .cls-10 {
        fill: #9a6365;
      }

      .cls-11 {
        fill: #dcdfe8;
      }

      .cls-12 {
        fill: #a9a9b7;
      }

      .cls-13 {
        fill: #d5d7df;
      }

      .cls-14 {
        fill: #a0a0b1;
      }

      .cls-15 {
        fill: #d9d9dd;
      }

      .cls-16 {
        fill: #d1d2d9;
      }

      .cls-17 {
        fill: #bbbbc5;
      }

      .cls-18 {
        fill: #bdbdc8;
      }

      .cls-19 {
        fill: #e4e7ed;
      }

      .cls-20 {
        fill: #9a99ab;
      }

      .cls-21 {
        fill: #eef1f4;
      }

      .cls-22 {
        fill: #a4a3b2;
      }

      .cls-23 {
        fill: #e4e5e9;
      }

      .cls-24 {
        fill: #9c9bac;
      }

      .cls-25 {
        fill: #52455e;
      }

      .cls-26 {
        fill: #cfd0d6;
      }

      .cls-27 {
        fill: #a7a9b8;
      }

      .cls-28 {
        fill: #bfbfc8;
      }

      .cls-29 {
        fill: #eee;
      }

      .cls-30 {
        fill: #a86a6c;
      }

      .cls-31 {
        fill: #b4b5c2;
      }

      .cls-32 {
        fill: #5f3d4d;
      }

      .cls-33 {
        fill: #adacbb;
      }

      .cls-34 {
        fill: #ca7e76;
      }

      .cls-35 {
        fill: #e0e1e3;
      }

      .cls-36 {
        fill: #6b6a81;
      }

      .cls-37 {
        fill: #e1e0e2;
      }

      .cls-38 {
        fill: #8f8ea1;
      }

      .cls-39 {
        fill: #d6dae3;
      }

      .cls-40 {
        fill: #1e1727;
      }

      .cls-41 {
        fill: #a8a8b5;
      }

      .cls-42 {
        fill: #b6b7c3;
      }

      .cls-43 {
        fill: #a6a9b9;
      }

      .cls-44 {
        fill: #5f586d;
      }

      .cls-45 {
        fill: #fff;
      }

      .cls-46 {
        fill: #a1a2b1;
      }

      .cls-47 {
        fill: #5e5061;
      }

      .cls-48 {
        fill: #acaebd;
      }

      .cls-49 {
        fill: #9b9aab;
      }

      .cls-50 {
        fill: #3f3c52;
      }

      .cls-51 {
        fill: #dfe0e8;
      }

      .cls-52 {
        fill: #9593a6;
      }

      .cls-53 {
        fill: #b4b3bf;
      }

      .cls-54 {
        fill: #9193a3;
      }

      .cls-55 {
        fill: #966e78;
      }

      .cls-56 {
        fill: #9494a6;
      }

      .cls-57 {
        fill: #606077;
      }

      .cls-58 {
        fill: #2e293f;
      }

      .cls-59 {
        fill: #8d8fa2;
      }

      .cls-60 {
        fill: #707084;
      }

      .cls-61 {
        fill: #996167;
      }

      .cls-62 {
        fill: #bd7370;
      }

      .cls-63 {
        fill: #6a6a7f;
      }

      .cls-64 {
        fill: #bfbfc9;
      }

      .cls-65 {
        fill: #74748b;
      }

      .cls-66 {
        fill: #f4f6f8;
      }

      .cls-67 {
        fill: #8e8ca1;
      }

      .cls-68 {
        fill: #908fa1;
      }

      .cls-69 {
        fill: #807e93;
      }

      .cls-70 {
        fill: #c0c5d1;
      }

      .cls-71 {
        fill: #b6706b;
      }

      .cls-72 {
        fill: #8c8da0;
      }

      .cls-73 {
        fill: #9e9eb0;
      }

      .cls-74 {
        fill: #c0c4d0;
      }

      .cls-75 {
        fill: #5d5368;
      }

      .cls-76 {
        fill: #e2e4e9;
      }

      .cls-77 {
        fill: #a86b6b;
      }

      .cls-78 {
        fill: #d3d7e2;
      }

      .cls-79 {
        fill: #9e9cad;
      }

      .cls-80 {
        fill: #463f53;
      }

      .cls-81 {
        fill: #9291a4;
      }

      .cls-82 {
        fill: #9f9faf;
      }

      .cls-83 {
        fill: #828296;
      }

      .cls-84 {
        fill: #a4a5b4;
      }

      .cls-85 {
        fill: #ececee;
      }

      .cls-86 {
        fill: #85869b;
      }

      .cls-87 {
        fill: #7c7c90;
      }

      .cls-88 {
        fill: #69687d;
      }

      .cls-89 {
        fill: #8a8a9c;
      }

      .cls-90 {
        fill: #a9afbe;
      }

      .cls-91 {
        fill: #f4b193;
      }

      .cls-92 {
        fill: #acadb9;
      }

      .cls-93 {
        fill: #a4a5b3;
      }

      .cls-94 {
        fill: #707086;
      }

      .cls-95 {
        fill: #8f90a2;
      }

      .cls-96 {
        fill: #c0c1cb;
      }

      .cls-97 {
        fill: #9a9aac;
      }

      .cls-98 {
        fill: #c37874;
      }

      .cls-99 {
        fill: #9d9cac;
      }

      .cls-100 {
        fill: #7b7c91;
      }

      .cls-101 {
        fill: #c7c7d1;
      }

      .cls-102 {
        fill: #6d6a81;
      }

      .cls-103 {
        fill: #bcbfca;
      }

      .cls-104 {
        fill: #9897a7;
      }

      .cls-105 {
        fill: #7e7d91;
      }

      .cls-106 {
        fill: #a3a5b4;
      }

      .cls-107 {
        fill: #727387;
      }

      .cls-108 {
        fill: #b3b5c1;
      }

      .cls-109 {
        fill: #8c8b9d;
      }

      .cls-110 {
        fill: #8f8fa0;
      }

      .cls-111 {
        fill: #aeaeba;
      }

      .cls-112 {
        fill: #b6b6c1;
      }

      .cls-113 {
        fill: #9b9cad;
      }

      .cls-114 {
        fill: #8e8ea1;
      }

      .cls-115 {
        fill: #634d69;
      }

      .cls-116 {
        fill: #9895a9;
      }

      .cls-117 {
        fill: #9495a6;
      }

      .cls-118 {
        fill: #b8bac5;
      }

      .cls-119 {
        fill: #e6e5e7;
      }

      .cls-120 {
        fill: #d4d5db;
      }

      .cls-121 {
        fill: #9898aa;
      }

      .cls-122 {
        fill: #191727;
      }

      .cls-123 {
        fill: #bec1cb;
      }

      .cls-124 {
        fill: #babac7;
      }

      .cls-125 {
        fill: #80535c;
      }

      .cls-126 {
        fill: #f0a28b;
      }

      .cls-127 {
        fill: #bfc0ca;
      }

      .cls-128 {
        fill: #8b899c;
      }

      .cls-129 {
        fill: #abacba;
      }

      .cls-130 {
        fill: #dbdbe0;
      }

      .cls-131 {
        fill: #141423;
      }

      .cls-132 {
        fill: #b7b7c2;
      }

      .cls-133 {
        fill: #7a7a91;
      }

      .cls-134 {
        fill: #babac5;
      }

      .cls-135 {
        fill: #b0b2bd;
      }

      .cls-136 {
        fill: #80545e;
      }

      .cls-137 {
        fill: #8d8da1;
      }

      .cls-138 {
        fill: #adafbb;
      }

      .cls-139 {
        fill: #b1b0bc;
      }

      .cls-140 {
        fill: #454359;
      }

      .cls-141 {
        fill: #c2c1ca;
      }

      .cls-142 {
        fill: #9393a3;
      }

      .cls-143 {
        fill: #c3c3cc;
      }

      .cls-144 {
        fill: #adaebb;
      }

      .cls-145 {
        fill: #a3a2b2;
      }

      .cls-146 {
        fill: #89879b;
      }

      .cls-147 {
        fill: #555268;
      }

      .cls-148 {
        fill: #d3d2d8;
      }

      .cls-149 {
        fill: #da8a80;
      }

      .cls-150 {
        fill: #8e8c9f;
      }

      .cls-151 {
        fill: #7b7c92;
      }
    </style>
  </defs>
  <g id="_レイヤー_1-2" data-name="レイヤー 1">
    <g id="_生成オブジェクト" data-name="生成オブジェクト">
      <path class="cls-119" d="M277.57,416.33c-1.57.14-2.85-.41-4.3.32-2.29,1.14-4.96-.07-7.28.47-3.95.92-3.99-.65-4.72.81-3.92.29-7.7-.43-11.59.25-3.79.66-7.45-.18-11.18.2-.86.09-1.8.52-2.75.52-4.13,0-7.85.03-12.17-.41.49-.65,1.15-.34,1.05-1.11-.09-.67.13-1.93-1.28-1.67-.37-.5-.05-1.39-.5-2.37-1.68-.48-1.7-2.09-3.26-2.8.06-2.03,8.36-.77,8.77-.77l21.72.4c2.18.04,4.05.41,6.08.48l9.24.29,3.71.46c4.13.51,7.7.34,11.06,1.1l3.19.72c.75.17,1.13.84,1.04,1.3-.17.81-.87,1.26-1.79,1.34l-5.01.46Z"/>
      <path class="cls-119" d="M28.16,417.76l-9.01-.51c-7.12-.41-11.66-.33-19.15-1.98.27-.77,1.05-.73,1.67-.85l10.17-1.89c1.67-.31,3.23-.41,5.06-.54l6-.42c6.2-.43,5.78.28,10.33-.56,2.58-.47,5.24.04,8.01-.31,7.15-.92,14.44.11,21.99,0-2.15,1.91-3.98,1.71-4.57,4.24-.17.72-.87,1.44-.29,2.22.35.46,1.24.9,2.28.9.58.25.15.65-.02.51-.24-.2-.98-.09-1.22-.06-8.86,1.02-6.05-.43-13.79-.23l-5.65.15c-1.86.05-3.5-.43-5.53-.48l-6.31-.17Z"/>
      <g>
        <g>
          <path class="cls-143" d="M191.76,142.27c.22.53.82.26,1.18.46.05.47-.4.25-.87.38l.2,7.87c.03,1.05-.24,2.46-1.03,2.52-.57-1.11-2.94-.54-2.14.09.94.74-.75.51-.39,1.38.25.6.2,1.21,1.04,1.12,1.97-.22,3.86.68,5.58.05.26.19.44.87.83.8l.13,7.19c1.5.17,2.33,0,3.18.21.2.07.47.22.39.48-.25,1.76-.54,3.89.02,5.8.28.93,2.45.65,2.72-.15.09.26.1.6.08.94-.15,2.31-.31,4.79.19,7.29.14.69,2.35.73,2.65.18.32.54,1.28.17,1.37.9-.53-.04-.41.4-.39.9l.47,10.96c1.1.39,1.91.17,3.03.39l.28,7.17c1.07.45,2.01.17,3.42.41l.33,9.64c1.18.41,2.16.17,3.1.23.5,1.67.4,3.63.26,5.58-.1,1.36.53,2.1.78,3.09.53,2.07-.33,4.91.84,7.13,4.76-.04,2.16,5.64,3.17,8.54.26.76,2.91.91,2.9-.14.45-.03.32.42.5.85.67.12,2.77-.32,2.94.55.7,3.65.07,7.17.56,10.7,1.01-.02,1.8,0,2.43.24.53.2.83,1.36.57,1.96-.48,1.11.93,1.29,1.01,1.79.8,4.84.17,9.63.62,14.53l2.7.31c.54,1.09-.26,2.6.52,3.58.63.78,2.2.19,3.18.54l.33,5.08c1.14.1,2.04,0,3.15.33.45,1.51-.23,3.18.51,4.58.63.38,1.97,0,2.35.65.29.49-.04,1.46.29,2.16.58,1.24,3.24.01,3.43.83l.98,4.14c.2.86,2.18.3,3.04.73l.57,3.97,3.77.03c.36,1.19.07,2.35.62,3.5.98.24,3.06-.26,3.47.62.65,1.48-.29,3.02,1.03,3.71.7.37.05,2.52.72,2.92,1.82.75,4.16.54,5.6-.52.07.67-.04.94.57,1.18s1.5.05,2.12.37c.8.51.32,1.8.71,2.65l4.15.39c.29,1.33-.08,2.58.47,3.67,2.61.8,5.18.55,8.11.65.59,1.05.18,2.3.48,3.5,1.85.57,3.77.13,5.86.52.44.69.18,1.54.39,2.5l3.61.49c.18.78-.4,2.25.42,2.79,1.2.78,2.87.44,4.35.87.45.62.09,1.28.24,2.02,1.42.42,2.63.47,4.27.58l.02,10.59c-1.6.03-2.89-.13-4.07.36-.8.33-1.75-.11-3.05.22l-.25,11.86-20.66.23c-.35-1.43-.01-2.51-.46-3.77-1.29-.31-2.48-.29-3.76-.92l-.78-6.16c-.45-.77-3.26-.49-3.37.39-.13,1.09-.74,2.45-.77,3.33-.03.77,1,1.77,1.04,3.17.03.93,1.91,1.44,1.67,2.7-.31,1.61,1.59,1.55,1.71,1.75.78,1.22.3,2.73.88,4.16l3.54.3.2,16.55c.03,2.19-.59,4.23.08,6.32.39.22,1.17-.13,1.23.47-.23.35-.52-.18-1.13.05l-.33,4.37-18.54.19c-.27-1.65.02-2.84-.33-4.11-2.56-.17-4.76.19-7.14-.25-.4-.98.1-1.89-.44-2.72-2.52.13-5.13-.23-7.59.26-.42.21-.13,1.54-.7,1.74-.45.15-1.66.09-1.94.56-.67,1.15.06,2.94-.52,4.08-4.09.97-8.56-.89-12.04,1.07-1.11-.22-2.32-.55-3.9-.44-.87.06-.85,2.46-.47,3.2s1.74,1.09,2.57,1c-.37,1.32-1.85,1.52-3.37,1.24-.74,1.92-.36,3.78-.74,5.73l-8.28.26c-.37,1.89.13,3.03-.55,5.23-3.88-1.19-7.89.57-11.19.5l-16.23-.33c-.14-1.49.14-3.17-.33-4.73-.79-.14-1.73.19-2.08-.23-.63-.75-.05-2.82-.62-3.51-.38-.46-.77-.11-1.18-.08.43-1.11.25-2.47.13-3.87-1.36-.48-2.42.17-3.55-.09-1.12-12.36-.35-25.14-.5-37.66.47-.85-.11-1.8-.11-3.04l.03-47.71,4.18-1.04c.41,1.22-.3,2.55.46,3.88l.43-7.68c.07-1.2.58-1.8.59-3.07l.41-48.54c1.84-.47,3.43-.75,4.81-1.68-1.25-3.87.37-10.77-1.77-13.21-.3-.34.02-1.03-.14-1.28-.31-.48-1.18-.31-2.1-.2-.7-6.86-.49-13.91-.43-20.97.01-1.31-.21-1.84-.79-2.87-.99-1.75.16-4.32-.48-6.34l-2.04-.35c-.69-3.65-.07-7.57-1.23-11.29-.57-1.82.81-2.74-.13-4.73-.17-.35-1,.18-1.19-.07-.76-1-1.11-3.02-.44-4.16.44-.75,1.69-.36,2.31.17.45.39.46,1.13.17,2.43.65.46,1.33-.07,2.29.26l.96,14.8c1.25.19,2.22-.21,3.18.26.24,2.24.02,4.15.48,6.27l4.41-.47c-.04-5.06.21-9.78-.09-14.78-.05-.8-1.19-1.71-.24-3.08-1.16-.72-2.07-.31-3.17-.7l-.17-9.14-5.09-.85c-.41-.81-.23-2.08-.68-2.7-1.68-.76-1.98-2.05-1.59-4.54-4.98-.36-9.75-.59-14.37-.02-.01-.2-.21-.3-.39-.35l.37-3.13c2.52.23,3.85-.62,6.67-1.04-.5,1.29,13.45.29,15.22.33,0-1.07.15-2.13-.01-3.17,1.21-.14,1.29-2.61.45-3.14-1.42-.9-3.32,0-4.38.18-1.99.16-5.49-1.4-7.63-1.89-2.61-.59-5.14.41-7.5.24-1.24-4.13,7.08-2.24,8.84-3.34.54-.34.4-1.45,1.19-1.32l1.58.25c1.05.17,1.16-.06,1.64-.65s-.17-.5-.54-1.21c.05-.47.8-1.35,1.16-1.78,1.74-.49,3.62-.59,5.44-.22-.05,1.19-.32,1.74-.04,2.6,1.27-.25,2.6.97,3.3-.3Z"/>
          <path class="cls-112" d="M301.66,334.58l.09,15.75-14.05.27c-.38,1.61.24,2.87-.61,3.89-.37.44-1.23.17-1.71.44l-.49,3.5-3.34.48-.11,16.12-2.51.16c-.07-.6-.84-.26-1.23-.47-.66-2.08-.05-4.13-.08-6.32l-.2-16.55-3.54-.3c-.58-1.43-.09-2.94-.88-4.16-.13-.19-2.02-.13-1.71-1.75.25-1.27-1.64-1.77-1.67-2.7-.04-1.39-1.07-2.4-1.04-3.17.03-.87.64-2.23.77-3.33.1-.89,2.92-1.17,3.37-.39l.78,6.16c1.28.63,2.47.61,3.76.92.45,1.25.11,2.34.46,3.77l20.66-.23.25-11.86c1.3-.33,2.25.11,3.05-.22Z"/>
          <path class="cls-24" d="M202.32,397.14c.06,1.79.17,3.53-.11,5.65l-15.82-.03c-.15-.7-.8-1.41-.72-2.2.13-1.24.54-2.48.42-3.74l16.23.33Z"/>
          <path class="cls-81" d="M217.14,209.01c-.02.18-.06.25,0,.45-.94-.06-1.92.18-3.1-.23l-.33-9.64c-1.41-.25-2.35.04-3.42-.41l-.28-7.17c-1.11-.22-1.93,0-3.03-.39l-.47-10.96c-.02-.5-.14-.93.39-.9.83-.07,1.75-.15,2.75.12l.43,10.96c1.16,0,2.14-.25,3.3.16l.12,8.82c1.58.07,2.6-.46,3.83.18-.18,3.28.14,6.16-.19,8.99Z"/>
          <path class="cls-84" d="M225.08,233.65c0,1.06-2.64.91-2.9.14-1.01-2.9,1.6-8.58-3.17-8.54-1.17-2.22-.31-5.06-.84-7.13-.25-.99-.88-1.73-.78-3.09.14-1.94.24-3.9-.26-5.58-.06-.2-.02-.28,0-.45.7.95,1.92.48,3.28.49l.4,7.81c2.39-.87,1.14,7.33,1.49,8.64l2.78.26c.16,2.62.2,5.06-.02,7.45Z"/>
          <path class="cls-102" d="M195.33,156.14c-1.72.63-3.61-.27-5.58-.05-.85.09-.8-.52-1.04-1.12-.36-.88,1.33-.65.39-1.38-.8-.63,1.58-1.19,2.14-.09.79-.06,1.06-1.48,1.03-2.52l-.2-7.87c.47-.13.92.09.87-.38.54.31,2.4-.25,2.44.65.21,4.53.22,8.67-.04,12.76Z"/>
          <path class="cls-97" d="M73.07,224.94c-.11,3.09.22,6.22-.09,9.45-.03.35-.84.58-.84,1.09v8.9c-.78.04-1.58.08-2.36-.02-.28-3.01-.17-6.05-.04-9.35,3.43-.33-1.12-13.44,3.34-10.08Z"/>
          <path class="cls-46" d="M57.28,333.4c.01.23.92.05.9.25-.33,2.39.09,5.3-.66,7.74-.51,1.66-.91,2.88-.97,4.81-.03,1.05-2.57.81-3-.12.29-1.65-.22-3.5.38-5.32.14-.41,1.26-.23,1.31-.72l.15-1.38c.17-1.6.03-3.07.36-4.67.13-.64,1.21-.85,1.53-.59Z"/>
          <path class="cls-146" d="M199.48,164.34c-.85-.21-1.68-.04-3.18-.21l-.13-7.19c.97-.17,1.93-.18,3.2.17l.11,7.22Z"/>
          <path class="cls-54" d="M205.53,178.88c-.31.55-2.52.51-2.65-.18-.5-2.5-.34-4.98-.19-7.29.47-.11,2.23-.4,2.42.29.59,2.41.2,4.86.42,7.18Z"/>
          <path class="cls-118" d="M269.96,301.47c-1.45,1.06-3.79,1.28-5.6.52-.67-.4-.02-2.55-.72-2.92,1.97-.06,4.01-.12,6.1.25l.22,2.14Z"/>
          <path class="cls-93" d="M228.23,380.41c-.05,1.06.26,2.31-.25,3.45-.23.52-1.22.3-1.54.31-.83.09-2.19-.26-2.57-1s-.39-3.14.47-3.2c1.58-.1,2.79.23,3.9.44Z"/>
          <path class="cls-68" d="M202.61,170.47c-.27.8-2.45,1.08-2.72.15-.56-1.91-.27-4.04-.02-5.8.52-.06,2.11-.29,2.24.45.35,1.94-.02,3.65.5,5.21Z"/>
          <path class="cls-37" d="M177.87,295.89l-.22-5.53-.05-5.6c-.04-4.02.03-8.03-.02-12.04-.04-2.96.4-5.92.02-8.89-.12-.96,0-2.18,0-3.18,0-2.77.4-5.59-.13-8.32-.13-.68.18-1.21-.16-2.39-10.84-.5-4.13,1.07-10.86,1.36.21-1.12,1.52-2.25,3.58-2.2l-.08-11.73c0-.67-.39-1.04-.68-1.2-.48-.27-1.1-.21-1.49.02-.91.54-1.55-.15-2.26-.11-1.17.07-2.55.24-3.76.03-.3-5.01,0-9.6,0-14.19l3.98-1.1c.21-3.77.29-7.17.28-10.85l-.08-31.79c-1.59-.12-2.68-.33-4.24-.18-.12,5.74-.55,11.2-.32,16.57l-3.82-.31-.08-13.13c-.08-12.98,1.61-9.68,2.14-11.23.82-2.4.64-4.33,3.03-5.78.69-.42,1.03-1.38,2.42-1.6.73-.11,1.11-1.85,1.36-2.34,4.62-.57,9.39-.34,14.37.02-.39,2.49-.09,3.78,1.59,4.54.45.62.27,1.89.68,2.7l5.09.85.17,9.14c1.1.38,2.01-.02,3.17.7-.95,1.37.19,2.28.24,3.08.31,5,.06,9.72.09,14.78l-4.41.47c-.46-2.12-.24-4.03-.48-6.27-.95-.47-1.93-.07-3.18-.26l-.96-14.8c-.96-.33-1.64.21-2.29-.26.29-1.29.29-2.04-.17-2.43-.62-.53-1.88-.92-2.31-.17-.66,1.14-.31,3.15.44,4.16.19.25,1.02-.28,1.19.07.94,1.99-.44,2.91.13,4.73,1.17,3.72.55,7.64,1.23,11.29l2.04.35c.64,2.02-.51,4.59.48,6.34.58,1.03.8,1.55.79,2.87-.06,7.06-.27,14.11.43,20.97.92-.12,1.79-.29,2.1.2.16.26-.16.95.14,1.28,2.15,2.43.52,9.34,1.77,13.21-1.37.93-2.97,1.21-4.81,1.68l-.41,48.54c-.01,1.27-.53,1.87-.59,3.07l-.43,7.68c-.76-1.33-.05-2.65-.46-3.88l-4.18,1.04Z"/>
          <path class="cls-144" d="M188.25,152.85c.16,1.03,0,2.09.01,3.17-1.77-.03-15.72.96-15.22-.33l.19-2.6,10.76-.32c.21-.25-.01-.94.5-.88,1.1.86,2.62.31,3.76.96Z"/>
          <path class="cls-113" d="M188.25,152.85c-1.14-.64-2.66-.1-3.76-.96-.32-.63-.04-1.34-.17-2,1.06-.17,2.97-1.08,4.38-.18.84.53.76,3-.45,3.14Z"/>
          <path class="cls-8" d="M161.75,221.93l-.06-19.46-.33-7.88c-.22-5.37.2-10.83.32-16.57,1.56-.15,2.65.06,4.24.18l.08,31.79c0,3.68-.07,7.08-.28,10.85l-3.98,1.1Z"/>
        </g>
        <g>
          <path class="cls-37" d="M184.32,149.88c.13.66-.15,1.38.17,2-.51-.07-.29.63-.5.88l-10.76.32-.19,2.6c-2.82.42-4.15,1.27-6.67,1.04l-.37,3.13c-.46,1.05-2.28.3-3.03,1.01-1.44,1.38-2.73,2.36-5.01,2.51.41,1.28,1.26,2.74.4,3.6-.73.72-2.32-.05-3.24.27l-.27,4.55c-1.37.42-2.66-.27-3.92.44l-.2,97.58-.22,4.73c-3.5,1.25-1.36,4.1-2.85,4.78-1.62.74-3.32.48-3.28,3.13.08,4.73.14,9.2-.15,14.02-.58,9.37-.48,18.41-.46,27.78l.07,30.7v47.95c.05.17.26.49-.17.64-.15.05-.15-.14-.4.14-1.17-.18-2.4.24-3.65-.15-1.95-.62-6.18-.23-6.18-1.1.2-.5-.5-.53-.47-.97l.06-3.89c.01-.9.49-1.45.49-2.8l-.11-99.31-.08-95.63c-1.33-.47-2.61-.34-4.12-.02.23,2.61-.12,4.88-.4,7.44-.93,8.52-.76,16.79-.81,25.51l-.26,48.75-6.56.36.09,109.18c0,2.5.21,4.45-.33,6.5-1.13,0-2.28.08-3.38.3-.79.16-1.67.02-2.6,0-.59,0-.64-.8-.55-1.16.36-1.39-.07-2.83-.07-4.17l.09-119.74c0-.7.02-1.12-.34-1.23-5.06-1.5,4.81.23-3.44-.3l-.06-36.22-.31-31.48c-1.03-.57-2.37-.51-3.45-.02l-.4,8.3c-.41,8.36-.32,16.48-.39,24.57l-.21,23.73c-1.73.32-2.76.15-4.24.22l-1.05,18.89c-.06,1.16.03,2.27-1.14,2.76l-.43,21.81-3.33.58c-1.25,5.6.54,11.21.18,16.55-.84,12.44-.68,24.86-.73,37.65l-.13,32.56c0,.96-2.46,2.51-3.08,1.79-1.06-1.23-2.54-.74-3.98-1.31l.65-22.82,1.29-40.35,1.28-48.41c.3-.81,2.48-.18,3.33-.39l-.09-23.67.37-45.59c.22-.56.14-1.21.87-1.01.33.09.99.14,1.88.05l.62-27.84.56-1.86.04-16.47c2.02.04,3.62-.3,5.11.16.63.2,1.72-.18,2.4.34.92.71.65,2.06.83,2.93.29,1.37-.21,2.82.22,4.31.84.33,2.17-.16,2.8.52.77.85.05,2.2.46,3.23,3.31.43,6.55.33,9.93.21l13-.45c.77-.03,1.5-.25,2.05-.42.45-.14.21-1.21.6-1.4.72-.35,4.21-3.41,3.92-2.84.3-.57.18-1.21.13-1.86-.11-1.49,1.36-1.41,2.69-1.63,1.12-.19,1.22-2.1.86-2.91.74-.73,2.27-.22,3.16-.99.6-.52.36-2.1,1.43-2.15s1.87-.45,2.39-1.25c.27-.42-.18-1.32.14-1.99.5-1.05,2-.28,3.04-.65,5.15-1.81,5.45-.73,7.49-3.66.67-.96,2.55-.47,3.65-.93.45-1.07.04-2.13.6-3.06,1.23-.17,2.49-.67,3.57-.59,2.36.18,4.89-.83,7.5-.24,2.13.48,5.64,2.05,7.63,1.89Z"/>
          <path class="cls-28" d="M110.62,235.03l.06,36.22-.35,54.87-.13,65.97c-1.46.07-2.95-.08-4.55.18-.33,1.31-.03,2.63-.1,3.97-1.97.53-3.88-.29-5.55.53-2.34-1.23-5.14-.06-7.83-.66-.45-1-.14-2.16-.27-3.14.62.72,3.08-.83,3.08-1.79l.13-32.56c.05-12.79-.11-25.21.73-37.65,1.7-.04,1.32-1.9,1.91-3.18,1.02-2.21.41-5.16,1.13-9.65.24-1.51.08-2.91.11-4.3l.43-21.81c1.17-.49,1.08-1.59,1.14-2.76l1.05-18.89c1.48-.07,2.52.1,4.24-.22l.21-23.73c5.03.11.66-.29,4.56-1.38Z"/>
          <path class="cls-132" d="M94.37,256.01l.09,23.67c-.86.21-3.03-.42-3.33.39l-1.28,48.41-1.29,40.35-.65,22.82c-3.32,1.54-7.42-.13-11.24.8-.13,1.32,0,2.59-.35,3.98l-9.76.03-.4-4.17-7.1.25c-1.19-1.83,4.99-.38,6.87-.79.2-2.61-.03-4.8.06-7.23l.53-13.8h3.39s.23,17.27.23,17.27c.01.86.28,1.69.15,2.69-.08.63.77.77,1.1.45.15-.14.18-.46.19-.94l.36-19.65c1.34-.32,2.57-.02,4.05-.16.61-2.14.13-4.22.14-6.21l.11-26.51.51-56.16c8.46.89,5.83-1.33,11.12-1.09l.79-8.55c.24-.34,1.39-.27,1.38-1.01v-4.62s.34-9.85.34-9.85c1.16-.33,2.75-.28,4-.4Z"/>
          <path class="cls-17" d="M66.53,370.72l-.53,13.8c-.09,2.43.14,4.62-.06,7.23-1.88.41-8.06-1.04-6.87.79-.44.02-.94.06-1.3-.18-.21-.14-.19-1.14-.53-1.14h-10.16c-.34-1.28-.43-2.52.19-3.55.82-.18,1.47-.1,2.4-.48-.17-1.3,0-2.48-.42-3.7l-4.28-.11.61-18.2c1.27-.08,2.15-.12,2.9-.54,3.62.48-.39-.75,4.51-5.19l.47-12.46c.01-.29.02-.55.08-.91.43.93,2.97,1.16,3,.12.06-1.93.47-3.14.97-4.81.74-2.44.32-5.36.66-7.74.02-.21-.89-.02-.9-.25-.08-.26.1-.34.25-.32.2.03.42-.01.68-.03l2.71-.14c.06-2.88.41-5.54.14-8.18-.02-.18.18-.35.33-.43l4.57.58.3,44.33c0,.62.28,1.06.27,1.52Z"/>
          <path class="cls-6" d="M150.52,274.54l.34,50.08-.03,67.31c-1.4.4-2.14.22-3.16.34-.47,1,.29,1.8,0,2.53-.36.93.23,2.04.07,2.9-.22,1.14-.46,2.21-.26,3.9.17,1.51-2.44,1.82-3.61,1.27v-47.95s-.08-30.7-.08-30.7c-.02-9.37-.12-18.41.46-27.78.3-4.82.23-9.29.15-14.02-.04-2.65,1.66-2.39,3.28-3.13,1.48-.68-.66-3.53,2.85-4.78Z"/>
          <path class="cls-35" d="M91.84,189.96l-.22,3.72c-.65.69-1.52.69-2.74.67-.73,4.75.28,9.62-.2,14.23l-.3,2.85c-1.17-.12-2.85-.46-3.88-.01-1.06,3.46.86,7.15.21,10.42-.88,4.42-.48,9.03-.51,13.87l-3.91.51c.52,1.81.25,3.21-.62,3.97-.9-.05-2.07-.34-3,.22-.23.52-.16,1.22-.21,1.61-.26,1.84-2.71,3.47-4.31,2.37v-8.9c0-.52.8-.74.84-1.09.31-3.24-.02-6.36.09-9.45.37.2.8-.05.6-.47.28.21,2.27.19,2.29-.39l.45-14.1c.34.13.59-.04.38-.38.82.04,1.63.08,2.88-.15l.05-8.79c.51-1.44,2.99-.17,2.8-1.13.31,1.56,1.34-15.6.87-16.15.22.18.76.1.82-.2.03-.14-.16-.28-.02-.52.52.26,2.4.47,2.69-.16l.48-11.04c1.13-.42,2.09-.39,2.84-1.05.3-1.92-.23-3.76.38-5.63,1.55-.11,3.03-.08,4.71.16.08,2.27.23,4.38,0,6.66l-3.64.32c-.05,6.12.54,12.13.18,18.04Z"/>
          <path class="cls-109" d="M73.19,269.06c1.04,1.66,2.14.62,2.62,1.21.4.48.01,1.1.05,1.48l.89,9.78-.51,56.16-.11,26.51c-.53.3-.9.04-1.51-.21l-4.53-1.86c-.76-.68.04-2.35.06-3.22l.42-15.17.04-38.52-4.08-.48.02-14.37c1.27.11,2.76.46,4.12-.14.87-7.55-.61-15.09,1.01-22.09.54-.15,1.19.41,1.51.93Z"/>
          <path class="cls-42" d="M152.05,152.23c-1.17.11-.72,1.58-1.72,2.18-1-.4-1.83-.42-2.38.09-.34.31-.11,1.03-.45,1.54-.89.53-2.04.24-3.37.61-.73.2-.6,1.76-.65,2.32-.99.95-3.14.5-4.16,1.11-.53.32-.82,1.66-1.63,2.05-4.56,2.22-2.93.6-8.35,1.38-.24,1.1,0,1.96-.39,3.02l-11.83-.1c-.33-.87-.19-1.83-.76-2.55-2.11-.23-4.01.25-5.73-.34l-.95-4.22c-.18-.81-.03-1.54-.1-2.57-.72-.3-2.31-.77-2.91-.08-.75.85-.4,2.35-.19,3.2-.32.97-1.48.29-2.32.48-1.48.34-.93,2.25-.34,3.12-1.49-.46-3.09-.12-5.11-.16l-.04,16.47-.56,1.86c-.62-.76-2.43-.7-2.69.41-.55,2.36.43,4.76-.27,6.89-.43,1.3-2.41.61-3.31,1.04.35-5.9-.24-11.92-.18-18.04l3.64-.32c.23-2.28.09-4.39,0-6.66-1.68-.24-3.16-.27-4.71-.16-.61,1.87-.08,3.7-.38,5.63-.75.66-1.72.62-2.84,1.05l-.48,11.04c-.3.64-2.17.42-2.69.16-.97-.79-.2-2.22-.07-3.41.37-3.6,0-7,.63-10.48,6.3-.19.64-3.35,4.55-4.71.64.28,1.96-.76,2.15-1.43.24-1.62.52-3.76.34-5.13-.14-.34-1.35-.1-1.55-.46-.08-.54.62-.1,1.14-.24l1.19-.32c6.7-1.78-2.63-.54,4.65-.03.91.06,1.39-.09,1.52-.87.3-.11.3.16.41.28.16.18.19.56.09.73-.35.98.71,1.53,1.05,2.64.36.35,1.11-.48,1.48-.82.34-.3.32-.9.2-1.51.66-.02,1.41-.59,2.12.41.28-.84,1.05-1.17,1.69-1.68s.48-2.42-.18-2.9c.13-.22.39-.64.73-.38.31.24.2.62.26.84,1.96-.18.77,1.42,2.68,1.48.84,1.63,2.43,2.26,4.26,1.99l.72,3.39c7.01.05,9.64.91,16.26-1.59-.84,1.61,3.8,1.61,4.57,1.53.89-.09,1.77-2.57,1.13-3.47-.25-.35-.88-.36-1.38-.84,1.33.05.91-1.77,1.65-2.68.59-.72,2.26-.73,2.97-1.11.29-.16.56-.95.9-1.04,3.54-.92,6.78-1.23,10.47-1.74.51.75-.06,1.57.86,2.47.57-.36.74-1.45,1.86-1.05-.55.62-1.15,1.22-1.48,1.7Z"/>
          <path class="cls-22" d="M76.13,364.2c0,1.99.47,4.07-.14,6.21-1.48.14-2.71-.16-4.05.16l-.36,19.65c0,.47-.05.79-.19.94-.33.31-1.18.18-1.1-.45.13-1.01-.14-1.83-.15-2.69l-.23-17.26h-3.39c.02-.47-.26-.91-.27-1.53l-.3-44.33-4.57-.58c-.38-1.14-.17-2.39-.01-3.74.72-.18,1.57-.04,1.92-.47l.22-14.6c1.2-.21,2.4.19,3.02-.75l4.08.48-.04,38.52-.42,15.17c-.02.87-.82,2.54-.06,3.22l4.53,1.86c.61.25.98.51,1.51.21Z"/>
          <path class="cls-2" d="M180.45,134.24c-.26,1.41,6.87.91,8.24,1.39.43,1.45-.3,3.12.49,4.26.35.5,1.71.04,2.11.37.46.4.55,1.42.47,2-.7,1.27-2.03.06-3.3.3-.28-.86-.01-1.41.04-2.6-1.82-.37-3.7-.28-5.44.22-.36.43-1.11,1.31-1.16,1.78.37.71,1.01.64.54,1.21s-.59.82-1.64.65l-1.58-.25c-.79-.13-.65.98-1.19,1.32-1.75,1.1-10.08-.78-8.84,3.34-1.08-.08-2.34.41-3.57.59-.56.93-.15,1.99-.6,3.06-1.1.46-2.98-.03-3.65.93-2.04,2.93-2.34,1.85-7.49,3.66-1.04.36-2.54-.41-3.04.65-.32.67.13,1.56-.14,1.99-.52.8-1.36,1.21-2.39,1.25s-.83,1.63-1.43,2.15c-.89.77-2.42.26-3.16.99-1.5-.21-3.08-.3-4.6-.04-.24-.43-.59-.38-.8-.43-.46-.1-.85-.46-.62-.9.81-.39,1.1-1.73,1.63-2.05,1.01-.61,3.17-.15,4.16-1.11.73,1.22,2.29.56,3.35-.19.75-.53,2.85.43,3.4-.67,0-.53.16-1.4,0-1.62l-2.73-.45c.35-.51.12-1.23.45-1.54.55-.51,1.38-.49,2.38-.09,1-.6.55-2.07,1.72-2.18.76-.06,1.75.56,2.62-.05s1.01-2.61,1.91-2.89c.92.68,4.53-3.75,2.96-4.2-3.32-.95-6.49.47-9.25-.64l.99-2.46c1.63-.25,3.37-.03,4.79-.55.36-.13.07-1.29.61-1.44l1.23-.33c1.35-.36,2.63-.25,4.02-.66,3.1-.91,10.26-.89,11.16-2.33.22-.35-.16-.84.33-1.5,2.51.1,4.98.31,6.99-.93Z"/>
          <path class="cls-18" d="M88.07,254.1c-.47-.36-1.31-.02-1.9-.3-.96-.46-.86-2.21-.26-2.74-2.38-.04-4.02.23-5.58-.53-.12-.6.18-1.55-.09-1.97s-1-.22-1.56-.31c-1.45-.25-1.95.36-2.46,1.33l-2.73.3c-2.28.25-4.64.29-6.98.44,0-1.41-.77-3.49.39-4.73.8-.38,2.79.27,2.87-1.21.79.09,1.58.05,2.37.02,1.59,1.1,4.05-.53,4.31-2.37.66,1.28,1.67,1.44,2.9.98,1.62-.61.9-1.99.31-2.81.88-.76,1.15-2.16.62-3.97l3.91-.51c.03-4.84-.38-9.45.51-13.87.27-.38.91.14,1.51-.14.69-1.12.24-2.34.05-3.6.97-.22,1.6-.3,2.19-.71l.15,35.73c0,.51-.08,1.18-.53.97Z"/>
          <path class="cls-88" d="M73.5,249.88c-.17.44.09,3.29.44,3.63.47.45,1.01.61,1.85.68.28.18.44.64.18.77-.88-.08-2.03-.35-2.4.55-.34.7.43,1.95-.76,2.47.14.36.76.44.62,1.03-.13.52-.02,1.11-.89,1.09-1.16-.04-1.21,1.56-.71,2.47.34.62,1.71.1,2.65.09.55,0,.44.99.14,1.12-.41.18-1.41.08-1.65.38-.75.95-.1,2.23-.52,3.3-.83-.41-.8-.05-.77.68-1.62,7-.13,14.54-1.01,22.09-1.36.6-2.85.26-4.12.14l-.03-40.05c2.34-.15,4.7-.19,6.98-.44Z"/>
          <g>
            <path class="cls-105" d="M110.2,392.08c0,.15.04.33.01.48-.19,1.07-.62,3.12.08,3.94l4.15.19c-.1.36-.04,1.15.55,1.16.93.01,1.8.16,2.6,0,.04,1.47-.44,3.17.3,4.68,3.5.33,6.54-.45,9.46.18l-.14,14.2c-5.14.26-9.69-.06-14.53.45-8.76.94-17.49.15-26.76.48-.16-3.02-.25-5.83.21-8.53,2.63-2.11.96-2.04,4.61-2.29.37-.03.97.08,1.26-.05.38-.17.79.5.81.82-1.51.25-3.48.59-4.4,1.94s-.42,3-.39,4.66l15.35-.4c.6-.02.64-2.3,2.18-1.55-.07-1.67.85-3.9.31-5.3-.88-2.29-3.2-.51-4.29-.13-2.37.81-5.48-.34-7.75.22.14-.95.49-1.79-.17-2.18,1.07-.08.53-1.52.93-2.15.74-1.16,2.8-.33,4.01-.6,1.14-3.03-.49-1.23,1.42-5.54,1.67-.81,3.58,0,5.55-.53.07-1.34-.23-2.65.1-3.97,1.6-.26,3.09-.11,4.55-.18Z"/>
            <path class="cls-89" d="M93.63,405.04c.67.39.31,1.23.17,2.18,2.27-.55,5.38.59,7.75-.22,1.09-.37,3.41-2.15,4.29.13.54,1.4-.38,3.63-.31,5.3-1.53-.75-1.57,1.54-2.18,1.55l-15.35.4c-.04-1.66-.52-3.33.39-4.66s2.89-1.69,4.4-1.94c-.02-.33-.44-.99-.81-.82-.29.13-.89.02-1.26.05.18-.07.52-.11.55-.49.09-1.44,1.36-1.83,2.36-1.48Z"/>
          </g>
          <path class="cls-27" d="M114.59,152.46c-.12.59-.79,1.21-1.09,1.7-.93.01-1.83-.24-2.75-.38-.24-.43-.71-.68-1.05-1.51-.53-.59-2.59.2-3.07-.87-.31-.71.34-1.85-.51-2.06-2.45-.6-3.78.33-4.11-.58-.14-.38-.16-.96-.24-1.48-.18-1.24.01-2.87-.71-4.1-.7-.65-2.19.13-3,.28.08-1.09-.33-2.12.01-3.28.34-.1.97.21.97-.11,0-2.5,4.7-1.34,7.35-1.25,1.79,1.84-1.2,3.41-.28,6.2,1.21.43,2.74.22,4.04.39l.25,3.59c1.18-.65,3-.52,3.8.34.7.74.55,2.31.38,3.12Z"/>
          <path class="cls-49" d="M120.97,397.54l12.08.02-.06,3.89-4.31.21c-.65.03-1.44.33-1.33,1.04-2.92-.63-5.95.15-9.46-.18-.74-1.51-.26-3.21-.3-4.68,1.11-.22,2.25-.3,3.38-.3Z"/>
          <path class="cls-53" d="M53.46,347l-.47,12.46c-4.9,4.44-.9,5.67-4.51,5.19-.26-1.45.02-2.96.22-4.56,1.81,1.1.6-10.76,1.58-12.96,1.21-.25,2.23-.28,3.19-.13Z"/>
          <path class="cls-116" d="M83.4,183.39c.46.55-.56,17.71-.87,16.15.19.96-2.29-.31-2.8,1.13-.14-.64.02-1.32-.71-.53l-1.81-.33c-.42-.82,2.09-.26,2.42-.67.19-.23.47-.69.48-1.3l.45-14.26c.57-.65,2.24-.66,2.83-.2Z"/>
          <path class="cls-4" d="M100.45,149.07c.29-.02.89-.03.96.47.13.98-.22,1.75,0,2.73,1.41.55,3,.26,4.2.46.67.48.82,2.39.18,2.9s-1.4.84-1.69,1.68c-.71-1-1.46-.43-2.12-.41-.9.03-1.88-.02-2.73-.31.1-.17.07-.55-.09-.73-.11-.12-.11-.39-.41-.28.27-.5,0-1.07.09-2.08l-2.57-.27c.07-1.64.6-2.86.53-4.17.34.02.56-.31.88-.4.78.6,1.85.48,2.78.41Z"/>
          <path class="cls-92" d="M143.29,403.67c.18,1.61.13,3.25-.16,4.94-1.25,0-2.63.2-3.72-.14-.3-.33.07-1.67-.47-1.75-1.94-.32-3.68,0-5.96-.25.17-1.5-.75-3.19.48-4.05,0,.87,4.23.48,6.18,1.1,1.25.4,2.48-.03,3.65.15Z"/>
          <path class="cls-137" d="M76.42,209.99l-.45,14.1c-.02.57-2.01.59-2.29.39-.16-.14-.44-.19-.44-.58l.22-13.86c.91-.6,2.24-.31,2.96-.05Z"/>
          <path class="cls-83" d="M162.27,397.17c-.3-.05-.56.13-.82.28-.28.16-.42.84-.44,1.13-.19-.16-.07-.97-.53-1.01l-5.22-.03c.18-.94.63-1.67.4-2.63-.21-.89.28-1.96.41-2.79,1.71-.02,3.61-.31,5.55.13,0,1.93-.55,3.7.65,4.9Z"/>
          <path class="cls-151" d="M96.78,149.07c.07,1.32-.46,2.53-.53,4.17l2.57.27c-.09,1.01.19,1.59-.09,2.08-.13.78-.61.93-1.52.87-7.28-.51,2.05-1.75-4.65.03,1.09-4.59,1.38.19,1.63-7.28.81-.39,1.74-.19,2.57-.15Z"/>
          <path class="cls-67" d="M79.73,200.67l-.05,8.79c-1.25.24-2.05.19-2.88.15-.02-3.26-.5-6.69.41-9.8l1.81.33c.72-.79.56-.11.71.53Z"/>
          <path class="cls-99" d="M61.06,324.72c.27,2.64-.08,5.3-.14,8.18l-2.71.14c.03-2.6-.21-5.29.34-8.05.5-.52,1.94-.24,2.51-.28Z"/>
          <path class="cls-20" d="M155.66,394.92c.23.95-.23,1.68-.4,2.63-2.5-.01-5.01.21-7.53.16.17-.86-.43-1.97-.07-2.9l8,.11Z"/>
          <path class="cls-107" d="M101.77,147.28c-.67-.1-.19.47-.18,1.02-.67.22-1.33.28-1.14.78-.94.07-2,.19-2.78-.41l.4-5.2c.81-.15,2.3-.93,3-.28.73,1.23.53,2.86.71,4.1Z"/>
          <path class="cls-59" d="M89.3,164.07c.2-.58-.56-8.29.94-7.02.19.36,1.4.12,1.55.46.18,1.37-.09,3.51-.34,5.13-.19.67-1.51,1.71-2.15,1.43Z"/>
          <path class="cls-134" d="M166.4,160.2c-.25.48-.63,2.22-1.36,2.34-1.39.22-1.73,1.18-2.42,1.6-2.39,1.45-2.2,3.38-3.03,5.78-.53,1.55-2.22-1.75-2.14,11.23-.64-.03-1.26.48-2.06.59l.24,11.96.21,11.53-.12,61.41.62,7.06c.07.84,1.73.42,2.18.64.73.37,1.72.92,2.6.59-.21,1.84-.04,4.02.62,5.69-1.37,4.46,1.05,3.42.54,9.63,1.26.35,2.56-.05,3.66.53.36,9.88-.09,19.44,1.22,28.84.13.95.83,2.08.9,3.12.46,6.79,1.38,13.52,1.42,20.2.05,8.59,1.42,17.07,1.63,25.93l.47,19,.39,8.78c-2.14.03-4.24.39-6.38.11.13-4.28.14-8.51-.44-12.68-.35-2.58,1-5.81.04-8.65-.99-.36-2.38.05-3.47.03l-.39-6.15c-.28-4.37.33-8.92.26-13.8-1.39-.17-2.38.6-4.03.19l-.42-30.99c-2.27-.04-4.28-.26-6.3-.07l-.34-50.08.22-4.73.2-97.58c1.26-.72,2.55-.02,3.92-.44l.27-4.55c.91-.31,2.5.46,3.24-.27.86-.85.02-2.32-.4-3.6,2.28-.14,3.57-1.12,5.01-2.51.75-.72,2.57.04,3.03-1.01.18.05.38.14.39.35Z"/>
          <path class="cls-128" d="M177.65,290.36l.22,5.53-.03,47.71c0,1.24.58,2.19.11,3.04-1.26-.32-.69-2.17-.81-3.3-8.88,1.12-1.82-1.12-7.66-.43-.04-6.68-.96-13.4-1.42-20.2-.07-1.04-.77-2.16-.9-3.12-1.31-9.4-.86-18.96-1.22-28.84-1.1-.58-2.4-.17-3.66-.53.5-6.21-1.91-5.17-.54-9.63,1.05.43,2.75-.52,3.63.55.52.64.39,1.84.89,2.22.74.57,1.52.67,2.7.48.56.74.17,1.47.4,2.27l2.92-.18-.09,3.95c1.81.56,3.69.56,5.46.47Z"/>
          <path class="cls-79" d="M177.95,346.64c.15,12.52-.62,25.3.5,37.66.12,1.37-1.46,3.49.44,4.18-.76.68-1.1,1.93-1.15,3.12l-.2,5.19c-1.83-.16-3.73-.19-5.57-.17l-.39-8.78-.47-19c-.22-8.86-1.58-17.33-1.63-25.93,5.84-.69-1.23,1.55,7.66.43.12,1.13-.45,2.97.81,3.3Z"/>
          <path class="cls-114" d="M181.87,388.25c.41-.03.8-.37,1.18.08.57.69-.01,2.76.62,3.51.35.42,1.29.09,2.08.23.47,1.57.19,3.25.33,4.73.12,1.26-.29,2.5-.42,3.74-1.32.31-6.63-3.63-8.13-3.76l.2-5.19c.05-1.2.38-2.44,1.15-3.12l2.98-.23Z"/>
          <path class="cls-41" d="M181.87,388.25l-2.98.23c-1.89-.7-.31-2.82-.44-4.18,1.12.26,2.19-.4,3.55.09.12,1.4.3,2.75-.13,3.87Z"/>
          <path class="cls-141" d="M133.05,397.56l-12.08-.02c.54-2.04.33-4,.33-6.5l-.09-109.18,6.56-.36.26-48.75c.05-8.72-.13-16.99.81-25.51.28-2.56.63-4.83.4-7.44,1.51-.33,2.79-.45,4.12.02l.08,95.63.11,99.31c0,1.36-.48,1.9-.49,2.8Z"/>
          <path class="cls-29" d="M114.38,392.52l-4.16.04c.03-.15-.01-.33-.01-.48l.13-65.97.35-54.87c8.25.53-1.62-1.2,3.44.3.37.11.34.54.34,1.23l-.09,119.74Z"/>
          <path class="cls-150" d="M94.74,210.43l-.37,45.59c-1.24.11-2.83.07-4,.4-.42-.21-1.06-.69-1.85-.47-.21-.78-.19-1.34-.45-1.84.45.21.53-.46.53-.97l-.15-35.73c0-1.99.26-3.97-.07-5.97l.3-2.85c.7.11,1.5.08,2.31-.09.26-1.6-.35-3.46.63-4.52.94.14,1.84-.18,2.94.24l.18,6.22Z"/>
          <path class="cls-96" d="M143.72,163.5c.35.81.26,2.72-.86,2.91-1.33.22-2.81.14-2.69,1.63.05.65.16,1.3-.13,1.86.3-.57-3.2,2.49-3.92,2.84-.39.19-.15,1.27-.6,1.4-.55.17-1.28.39-2.05.42l-13,.45c-3.38.12-6.62.21-9.93-.21-.41-1.03.31-2.39-.46-3.23-.63-.69-1.96-.19-2.8-.52-.43-1.49.07-2.94-.22-4.31,1.03,0,2.07-.02,3.1.04,1.56.09,3.09.31,4.7.84-.16.49-.46.66-.35.78s.59.53.79.53l15.38-.35c1.1-.03,2.15-.31,2.28-1.47,1.92-.49,4.09-.02,5.91-.97.55-.51.39-2.19.26-2.67,1.52-.26,3.09-.17,4.6.04Z"/>
          <path class="cls-26" d="M110.62,235.03c-3.9,1.08.47,1.49-4.56,1.38.07-8.09-.01-16.21.39-24.57l.4-8.3c1.08-.49,2.42-.55,3.45.02l.31,31.48Z"/>
          <path class="cls-14" d="M98.11,181.63l-.62,27.84c-.89.09-1.55.04-1.88-.05-.73-.2-.64.45-.87,1.01l-.18-6.22c-1.1-.42-2-.09-2.94-.24-.07-3.43-.21-6.9,0-10.29l.22-3.72c.9-.42,2.89.27,3.31-1.04.7-2.13-.28-4.53.27-6.89.26-1.11,2.07-1.18,2.69-.41Z"/>
          <path class="cls-148" d="M98.99,303.82c-.03,1.39.13,2.8-.11,4.3-.72,4.49-.11,7.44-1.13,9.65-.59,1.28-.21,3.14-1.91,3.18.36-5.35-1.43-10.96-.18-16.55l3.33-.58Z"/>
          <path class="cls-72" d="M110.64,163.54c-.62.82-.61,2.19-.48,3.24-1.03-.06-2.07-.03-3.1-.04-.18-.87.09-2.22-.83-2.93-.68-.52-1.76-.15-2.4-.34-.58-.86-1.14-2.77.34-3.12.84-.19,2,.48,2.32-.48.92.83,2.33.07,3.2-.55l.95,4.22Z"/>
          <path class="cls-101" d="M114.38,392.52c0,1.34.43,2.78.07,4.17l-4.15-.19c-.71-.82-.27-2.87-.08-3.94l4.16-.04Z"/>
          <path class="cls-36" d="M90.02,266.26v4.62c.02.74-1.13.67-1.37,1.01l-.79,8.55c-5.29-.24-2.66,1.99-11.12,1.09l-.89-9.78h.46c.53.97,1.72.3,2.81.43-.12-.49-.58-.54-.49-.89,1.67-.05,1.75-1.78,1.99-3.17,1.1.7,2.44.04,3.71.21.48.07,3.59-1.13,3.01-3.24,1.37.32,1.72,1.24,2.66,1.18Z"/>
          <path class="cls-139" d="M161.34,369.29l-5.51.18.23,22.66c-.12.83-.62,1.89-.41,2.79l-8-.11c.28-.73-.48-1.53,0-2.53,1.02-.12,1.76.06,3.16-.34l.03-67.31c2.01-.19,4.03.03,6.3.07l.42,30.99c1.65.41,2.64-.36,4.03-.19.06,4.88-.54,9.43-.26,13.8Z"/>
          <path class="cls-135" d="M91.62,203.97c-.98,1.05-.37,2.92-.63,4.52-.82.17-1.61.2-2.31.09.48-4.61-.53-9.47.2-14.23,1.21.02,2.09.02,2.74-.67-.2,3.39-.06,6.86,0,10.29Z"/>
          <path class="cls-16" d="M88.38,211.43c.33,1.99.07,3.97.07,5.97-.59.41-1.22.49-2.19.71.19,1.26.64,2.48-.05,3.6-.6.28-1.24-.24-1.51.14.66-3.28-1.26-6.96-.21-10.42,1.04-.45,2.71-.11,3.88.01Z"/>
          <path class="cls-33" d="M79.66,240.19c.59.81,1.31,2.2-.31,2.81-1.23.46-2.23.3-2.9-.98.05-.39-.02-1.09.21-1.61.93-.56,2.1-.27,3-.22Z"/>
          <path class="cls-86" d="M139.02,148.54c.43-.03.51.21.89.23-.35,1.01-.71,2.06-.46,3.12-.71.39-2.38.39-2.97,1.11-.75.91-.32,2.73-1.65,2.68-2.27-.62-3.42,1.57-4.31,2.78-6.62,2.5-9.25,1.64-16.26,1.59l-.72-3.39c1.11-.16,1.92.88,3.32.76.65-.05.69-1.9.45-2.4-1.57-.24-3,.23-3.8-.87.29-.49.97-1.1,1.09-1.7.61,1.35,1.93-.43,2.6-.2,1.5.5,2.91-.35,4.14-.32l5.17.13c2.05.05,3.91.69,5.97.2.18-1.14-.03-2.25.4-3.28l6.15-.43Z"/>
          <path class="cls-65" d="M139.12,163.46c.13.48.29,2.16-.26,2.67-1.82.95-3.99.49-5.91.97-.13,1.16-1.18,1.45-2.28,1.47l-15.38.35c-.2,0-.67-.41-.79-.53s.19-.29.35-.78c-1.61-.54-3.13-.75-4.7-.84-.12-1.04-.14-2.42.48-3.24,1.72.59,3.63.1,5.73.34.56.72.43,1.68.76,2.55l11.83.1c.4-1.07.15-1.92.39-3.02,5.42-.78,3.79.84,8.35-1.38-.23.44.16.81.62.9.21.04.56,0,.8.43Z"/>
          <path class="cls-48" d="M152.05,152.23c.33-.48.93-1.08,1.48-1.7-1.12-.4-1.29.69-1.86,1.05-.92-.89-.35-1.71-.86-2.47-3.68.51-6.93.82-10.47,1.74-.34.09-.62.89-.9,1.04-.24-1.06.12-2.12.46-3.12,1.11.06,2.78.4,3.72-.49.41-.38-.1-1.72,1.03-1.55.64.09,1.59.05,2.18-.24.4-.19.09-1.39.93-1.49,1.06-.12,2.27.6,2.53-.56,2.76,1.11,5.93-.31,9.25.64,1.57.45-2.05,4.88-2.96,4.2-.91.28-1.01,2.26-1.91,2.89s-1.86,0-2.62.05Z"/>
          <path class="cls-133" d="M110.75,153.78c-.82-.2-.72.98-1.49.89-1.92-.06-.73-1.66-2.68-1.48-.07-.22.05-.6-.26-.84-.34-.26-.6.16-.73.38-1.2-.2-2.78.08-4.2-.46-.21-.97.14-1.74,0-2.73-.07-.49-.67-.49-.96-.47-.19-.49.47-.55,1.14-.78,0-.55-.48-1.12.18-1.02.08.53.1,1.1.24,1.48.33.91,1.66-.02,4.11.58.85.21.2,1.36.51,2.06.47,1.06,2.53.27,3.07.87.35.82.81,1.07,1.05,1.51Z"/>
          <path class="cls-123" d="M134.83,155.69c.51.48,1.14.48,1.38.84.63.9-.24,3.38-1.13,3.47-.76.08-5.41.07-4.57-1.53.9-1.21,2.05-3.4,4.31-2.78Z"/>
          <path class="cls-94" d="M143.49,158.97c.05-.56-.08-2.12.65-2.32,1.33-.36,2.48-.07,3.37-.61l2.73.45c.16.22,0,1.09,0,1.62-.54,1.1-2.65.14-3.4.67-1.06.75-2.61,1.41-3.35.19Z"/>
          <path class="cls-65" d="M110.75,153.78c.91.14,1.81.39,2.75.38.8,1.1,2.23.63,3.8.87.24.5.2,2.35-.45,2.4-1.41.11-2.21-.93-3.32-.76-1.84.27-3.42-.36-4.26-1.99.77.08.66-1.09,1.49-.89Z"/>
          <path class="cls-100" d="M109.69,159.32c-.87.61-2.28,1.38-3.2.55-.21-.85-.56-2.35.19-3.2.61-.69,2.2-.22,2.91.08.07,1.03-.09,1.76.1,2.57Z"/>
          <path class="cls-60" d="M101.97,156.91c.11.61.13,1.21-.2,1.51-.37.33-1.12,1.16-1.48.82-.34-1.1-1.39-1.66-1.05-2.64.85.29,1.84.34,2.73.31Z"/>
          <path class="cls-5" d="M161.34,369.29l.39,6.15c.17,2.63.04,5.38,0,8.28l3.42.34c.57,4.18.56,8.41.44,12.68-.95-.12-2.29.62-3.32.43-1.2-1.2-.65-2.97-.65-4.9-1.94-.44-3.84-.15-5.55-.13l-.23-22.66,5.51-.18Z"/>
          <g>
            <path class="cls-87" d="M171.97,396.62c1.84-.02,3.74,0,5.57.17,1.49.13,6.8,4.08,8.13,3.76-.08.79.57,1.5.72,2.2l-.25,15.49-30.47.05c-.69-9.93-.15-7.22,1.46-10.2.86-1.59,2.48-2.92,2.44-5.37,0-.58,1.13-.46,1.39-.91.25-1.07-.02-2.41.05-3.24.03-.29.17-.97.44-1.13.26-.15.52-.34.82-.28,1.03.19,2.37-.55,3.32-.43,2.13.27,4.24-.09,6.38-.11Z"/>
            <path class="cls-82" d="M179.47,409.32c-.26.81-.09,1.68-.52,2.67l-17.45-.03c-.14-1.8.25-3.34-.6-4.52.54,0,.45-.78.93-.97.63-.24,1.32.05,1.84-.23.47-.25.43-1.01.66-1.56,2.35-.41,8.83-1.15,10.66.94s5.24,1.37,4.49,3.7Z"/>
            <path class="cls-110" d="M160.89,407.44c.85,1.18.47,2.72.6,4.52l17.45.03c.44-.99.26-1.86.52-2.67.7-.08,2.18.16,2.16,1.35s-.75,4.07-2.15,4.09l-21.15.38-.59-3.07c-.02-.13,2.25-4.4,2.21-4.39.24-.07.64-.24.95-.24Z"/>
          </g>
          <path class="cls-69" d="M161.69,202.47l.06,19.46c.01,4.59-.29,9.17,0,14.19,1.21.21,2.59.03,3.76-.03l-.14,10.39-3.44.21c-.37,2.59.35,5.11-.13,7.42l-.39,1.85c-.77,3.69-.02,7.5-.21,11.09-1.83-.23-3.73.18-5.48-.42l.12-61.41,4.92-1.47c.34-.1.15-.78.12-.97-.03-.26.5-.37.79-.31Z"/>
          <path class="cls-124" d="M166.44,251.3c-.12.63-.69,2.04-1.28,2.3-1.11.48-2.36.34-3.36.51.48-2.31-.24-4.83.13-7.42l3.44-.21.14-10.39c.71-.04,1.34.65,2.26.11.39-.23,1.01-.29,1.49-.02.29.16.68.53.68,1.2l.08,11.73c-2.06-.06-3.37,1.08-3.58,2.2Z"/>
          <path class="cls-52" d="M157.45,181.15l.08,13.13,3.82.31.33,7.88c-.29-.06-.83.06-.79.31.02.18.22.86-.12.97l-4.92,1.47-.21-11.53-.24-11.96c.8-.11,1.42-.61,2.06-.59Z"/>
          <path class="cls-104" d="M161.2,267.04c-.14,2.63.21,5.24-.08,7.87-.88.33-1.86-.22-2.6-.59-.45-.23-2.1.2-2.18-.64l-.62-7.06c1.74.6,3.65.18,5.48.42Z"/>
          <path class="cls-111" d="M165.16,384.05l-3.42-.34c.03-2.9.16-5.65,0-8.28,1.08.02,2.48-.39,3.47-.03.96,2.84-.4,6.07-.04,8.65Z"/>
          <path class="cls-44" d="M78.65,271.29c-.09.36.37.4.49.89-1.09-.12-2.28.54-2.81-.43.31-.94,1.58-.28,2.32-.46Z"/>
          <g>
            <path class="cls-75" d="M88.07,254.1c.27.5.24,1.06.45,1.84.8-.22,1.44.26,1.85.47l-.35,9.85c-.95.07-1.3-.86-2.66-1.18.58,2.11-2.53,3.32-3.01,3.24.76-.78.99-11.7.81-13.4s-4.5.43-9.19.03c.26-.13.11-.59-.18-.77-.84-.07-1.38-.23-1.85-.68-.35-.34-.6-3.19-.44-3.63l2.73-.3c.51-.97,1.01-1.58,2.46-1.33.56.1,1.29-.09,1.56.31s-.03,1.37.09,1.97c1.56.76,3.19.49,5.58.53-.6.53-.7,2.28.26,2.74.58.28,1.42-.06,1.9.3Z"/>
            <path class="cls-34" d="M80.42,260.55c-.64-.23-.82.39-1.3,1.21.48.56,1.02,2.04.16,2.66-.73.53-1.81-.11-2.68.24,0,1.34.07,2.61-.26,3.77-1.06.18-2.07.83-3.15.63-.32-.52-.97-1.08-1.51-.93-.03-.73-.06-1.09.77-.68.42-1.07-.23-2.35.52-3.3.24-.3,1.24-.2,1.65-.38.31-.13.41-1.13-.14-1.12-.94,0-2.31.52-2.65-.09-.49-.91-.45-2.5.71-2.47.86.03.76-.57.89-1.09.15-.59-.48-.66-.62-1.03,1.19-.52.42-1.77.76-2.47.23-.05.44.03.69.13.37.16,1.63,2.97-.72,5.02.55.32.92.34,1.2.34.81,0,.5.74.93,1.51-.2-2.29,4.17-3.5,4.54-3.3.47.25.19.84.21,1.34Z"/>
            <path class="cls-55" d="M80.64,268.11c-.25,1.4-.33,3.13-1.99,3.17-.75.18-2.01-.48-2.32.46h-.46c-.03-.38.35-1-.05-1.48-.48-.59-1.58.45-2.62-1.21,1.09.2,2.1-.45,3.15-.63,1.47-.26,3.07.13,4.26-.9.04.21.09.35.05.58Z"/>
            <path class="cls-126" d="M84.35,268.33c-1.26-.18-2.6.48-3.71-.21.04-.23,0-.37-.05-.58-.43-2.33-.07-4.64-.17-6.99-.02-.5.26-1.09-.21-1.34-.38-.2-4.74,1.02-4.54,3.3-.43-.77-.12-1.51-.93-1.51-.28,0-.66-.02-1.2-.34,2.35-2.05,1.09-4.87.72-5.02-.24-.1-.46-.18-.69-.13.37-.9,1.52-.63,2.4-.55,4.69.4,9.01-1.78,9.19-.03s-.06,12.63-.81,13.4Z"/>
            <path class="cls-25" d="M80.42,260.55c.1,2.35-.26,4.65.17,6.99-1.19,1.03-2.78.64-4.26.9.33-1.16.26-2.43.26-3.77.88-.35,1.95.28,2.68-.24.86-.62.32-2.09-.16-2.66.48-.82.66-1.44,1.3-1.21Z"/>
          </g>
          <g>
            <path class="cls-147" d="M177.47,252.33c-2.37.84-5.22.12-8.69,1.29l-2.75.92c-.71,1.74-.42,3.26,0,4.63.51,1.65-.82,3.59.09,5.64.95-.03,2.15-1,2.74-1.82.26.22.4.57.78.52-.06.5-.74,1.09-.75,1.77,0,.4,1.35.67,1.09,1.18-.67,1.31-2.2,1.49-3.61,1.54-.37.79-.8,3.23-.13,3.71.16.11.44.01.7.06-.31,3.04-.44,6.44.05,9.84.13.88,2.96.9,3.42.14.62-1.04-.04-2.55.37-3.54.35-.09.71.03.96.19.06.04,1.04,2.45.34,2.98.73.43.96-.56,1.39-.08-.18,2-.42,4,.17,5.83.38-1.09.66-1.19.8,0,1.29.17,1.79-.96,2.26-1.87l.9-.48.05,5.6c-1.77.1-3.66.09-5.46-.47l.09-3.95-2.92.18c-.23-.8.16-1.53-.4-2.27-1.19.19-1.97.08-2.7-.48-.49-.38-.37-1.59-.89-2.22-.88-1.07-2.58-.12-3.63-.55-.66-1.67-.83-3.84-.62-5.69.29-2.63-.06-5.24.08-7.87.19-3.59-.56-7.4.21-11.09l.39-1.85c1.01-.17,2.26-.03,3.36-.51.59-.25,1.16-1.67,1.28-2.3,6.74-.29.02-1.86,10.86-1.36.34,1.19.03,1.72.16,2.39Z"/>
            <path class="cls-149" d="M177.6,263.83c.38,2.96-.06,5.93-.02,8.89-1.07,0-2.12-.17-3.19.01.09-.27-.21-.59-.08-1.06.28-1.01-.75-.96-1.24-.59-.28.21-.31.42-.13.95l-2.48.37c.03,1.47-.36,2.91.55,3.92-.4.56.02,1.27-.23,1.87-.4.99.26,2.5-.37,3.54-.46.76-3.3.75-3.42-.14-.48-3.4-.36-6.8-.05-9.84.99-.48,2.66.45,3.53-.6.37-.69.8-1.35,1.7-1.5.82-1.53.12-3.74,1.12-5.12.96-.9,3.08-.47,4.3-.72Z"/>
            <path class="cls-136" d="M177.59,260.65c-1.15.65-2.5.22-3.77.36-.39-1.36-2.37-.88-4.15-1.4.09-.33-.05-.47-.36-.47.63-1.77.1-3.8-.53-5.52,3.47-1.16,6.32-.44,8.69-1.29.52,2.73.12,5.55.13,8.32Z"/>
            <path class="cls-80" d="M177.6,263.83c-1.22.24-3.35-.18-4.3.72-1,1.37-.3,3.59-1.12,5.12-.89.15-1.32.81-1.7,1.5-.88,1.06-2.54.12-3.53.6-.26-.04-.54.05-.7-.06-.67-.48-.24-2.91.13-3.71,1.4-.04,2.94-.23,3.61-1.54.26-.51-1.1-.78-1.09-1.18,0-.68.69-1.27.75-1.77,1.17-.16,2.54-.06,3.75-.65.47-.4.28-1.39.43-1.85,1.28-.14,2.63.29,3.77-.36,0,.99-.12,2.21,0,3.18Z"/>
            <path class="cls-61" d="M177.58,272.71c.05,4.02-.02,8.03.02,12.04l-.9.48c-.16-1.9-.44-3.89-.3-5.9.13-1.82.83-3.98-.51-5.25-.45-.42-1.79-.49-1.49-1.36,1.06-.18,2.12-.02,3.19-.01Z"/>
            <path class="cls-98" d="M172.94,272.03c.73-.11.86.65,1.46.7-.3.87,1.04.94,1.49,1.36,1.35,1.27.64,3.43.51,5.25-.14,2.01.15,4.01.3,5.9-.47.91-.97,2.04-2.26,1.87-.14-1.19-.42-1.08-.8,0-.59-1.83-.35-3.83-.17-5.83.11-1.27.88-3.15.07-4.86-.3-.64-1.96-.4-2.54-.09-.91-1.02-.53-2.46-.55-3.92l2.48-.37Z"/>
            <path class="cls-30" d="M169.31,259.14l-3.28.03c-.42-1.37-.71-2.89,0-4.63l2.75-.92c.63,1.72,1.16,3.76.53,5.52Z"/>
            <path class="cls-50" d="M169.31,259.14c.31,0,.44.13.36.47-.97.87-.14,2.42-.81,3.38-.59.82-1.79,1.79-2.74,1.82-.91-2.05.42-3.99-.09-5.64l3.28-.03Z"/>
            <path class="cls-77" d="M173.82,261.01c-.15.47.04,1.45-.43,1.85-1.21.58-2.58.49-3.75.65-.38.05-.53-.3-.78-.52.67-.96-.16-2.51.81-3.38,1.78.53,3.75.05,4.15,1.4Z"/>
            <path class="cls-125" d="M173.47,281.28c-.42-.48-.65.51-1.39.08.69-.53-.28-2.94-.34-2.98-.26-.16-.62-.29-.96-.19.24-.6-.18-1.31.23-1.87.58-.31,2.24-.54,2.54.09.81,1.71.04,3.59-.07,4.86Z"/>
            <path class="cls-32" d="M174.39,272.73c-.6-.04-.73-.8-1.46-.7-.18-.53-.14-.74.13-.95.48-.37,1.52-.42,1.24.59-.13.46.18.79.08,1.06Z"/>
          </g>
          <g>
            <path class="cls-15" d="M182.67,13.42c2.6.23,5.26.69,7.94.64-.02,1.24-.8,2.36-.5,3.62-.91.13-2.53,1.01-3.01,1.74-.66,1.02.14,2.42-.8,3.21-.99-.08-2.95-.03-3.09,1.1l-.41,3.36c-2.59.37-5.23.06-7.79.71-.03,1.16.19,3-1.08,3.14l-4.36.49c-.19,1.24.13,2.38-.37,3.36-.39.76-1.7.26-2.22.49-1.92,4.34,1.06,3.32-.54,10.52l-4.62.34c-.71.05-1.16.65-1.12,1.01-.03-.25,2.38,5.8,1.57,4.32.54.99,2.33.21,3.12.62.64.34.59,1.25.71,1.71.92,3.71.49,36.46.19,43.45-.4.94-2.85-.02-3.5.72-.72.97.3,2.84-.65,3.67-.55.48-1.82.03-2.2.86-.22.47-.17,1.33-.59,1.9-.32.44-1.46.36-1.86.71-1.27,1.11.71,1.44-1.92,3.8-.92.82.13,2.76-.62,3.72-.99,1.25-2.98.97-4.26.82-.65-.79-.38-1.92-.53-2.87-.13-.87.54-2.11-.14-3.21-.45-.73-1.96-.18-2.82-.33-.65-1.5-.13-2.99-.47-4.53-1.09,0-2.21-.08-2.53-1.22-.1-.34.07-1.05-.18-1.33-.22-.25-.65-.27-1.06-.46.14-.6-.18-1.23-.26-1.82-.22-1.58.46-3.31-.27-4.77,1.11-1.61.53-3.86.49-6.09-.01-.68-1.63-.84-2.16-.87-.6-.04-1.49.72-1.71,1.33-.79-.71-2.1.22-3.05-.54-.26-.21.03-1.11-.23-1.42-.61-.75-2.25-.34-2.82-.51-.89-.28.02-1.33-.43-2.25-.31-.64-2.17-.04-3.23-.46-.52-.21-.04-1.37-.42-1.67-1.17-.95-2.88-.29-4.17-.47.14-.35-.06-.69-.45-.55.2-.78.12-1.66-.06-2.68l-6.01-.7c-.37-1.12-.1-2.05-.32-3.49l-15.44.06c-.52.11-.36,1.3-.36,1.74-.27-.1-.42-.22-.6-.33.99.61-6.87,2.88-7.35.36l.37-10.14c.92-.12,1.72.19,2.64-.14l.48-4.2c.8-.25,1.9.14,2.37-.42.94-1.12-.05-3.01,1.06-3.99.47-.42,1.68-.15,1.96-.65,1.38-2.49-2.05-1.22,4.17-5.39.28-.93-.07-1.8.56-2.49,1.2.42,2.2.31,2.52-.27.43-.8.13-1.74.37-2.63.48-1.11,2.3-.34,2.97-1.11.45-.51.12-1.65.58-2,1.16-.9,3.32.51,3.81-1.33.68-2.56,2.31-.15,4.36-1.63.7-.51.45-1.91,1-2.53,1.09-1.22,3.58.52,4.52-1.49.68.51,1.38.68,2.16.29.43-.22.14-1.15.27-1.79,1.59-1.52,4.29-.42,5.77-1.62.62-.51,3.49-1.77,3.91-2.75.22-.52.26-1.08-.46-1.18-.11-.37.17-.38.46-.38,3.32,0,7,.09,10.41-.79.46-3.85,2.88.04,5.18-2.13.25-.24-.25-1.35.37-1.52,1.76-.47,3.88.07,5.61-.9.56-.38.51-2.05.36-2.65.07,0,.17-.05.23,0,.3.2.8.12.65-.35,3.42-.14,7.01-.01,10.67-.43.72-.76.39-2.44.4-3.35.24,0,.38-.28.55-.44,2.71,1.02,5.56-.71,8.28-.47Z"/>
            <path class="cls-129" d="M186.5,125.76c-.23,0-.39.17-.6.21l-2.52.5c-.9.18-.52,1.83-1.04,2.33-.96.9-2.5.23-3.83.28-.54.86-.25,1.8-.64,2.69l-7.19.23-.35,2.96-8.96-.08c-1.74-.02-3.66-.04-5.62.32-1.58.29-1.48,2.13-1.41,3.22l-3.46.26c-.5,1.14-.2,2.12-.54,3.23-1.61.39-4.06.02-5.22,1.19-2.03,5.05-6.56-.04-6.11,5.47l-6.15.43c-.43,1.03-.22,2.14-.4,3.28-2.06.5-3.92-.15-5.97-.2l-5.17-.13c-.44-1.52-.27-2.92.63-4.22.1,1.62,7.09,1.84,7.67-1.06,2.02.36,3.27-1.08,4.05-2.43.56-.4,1.83-.41,2.51-.76,2.58-1.32,6-.96,8.66-2.55.56-.56.93-1.99,2.06-2.55.31-.15-1.67-3.66,8.3-3.53.43-1.01,1.01-2.2,1.61-2.66,1.14.08,2.14-.9,3.09-1.07,1.91-.35,3.37-.46,3.93-2.79,2.49,1.25,11.7-1.7,14.64-2.26,1.75-.33,2.26-.9,3.36-2.05s3.11-1.61,4.26-3.12c.69-.91,1.81-1.32,2.73-1.57.52.2,1.06.95,1.13,1.36-1.65.39-.8,2.05-1.69,2.98-.73.76-2.14.74-1.79,2.11Z"/>
            <path class="cls-106" d="M117.96,39.53c-.49,1.84-2.65.43-3.81,1.33-.46.35-.13,1.49-.58,2-.67.77-2.49,0-2.97,1.11-.24.89.06,1.83-.37,2.63-.32.59-1.31.69-2.52.27-.63.69-.28,1.56-.56,2.49-6.22,4.17-2.79,2.9-4.17,5.39-.28.5-1.49.23-1.96.65-1.1.98-.11,2.87-1.06,3.99-.47.56-1.57.17-2.37.42l-.48,4.2c-.92.33-1.72.02-2.64.14l-.37,10.14c-.06.61-.16,1.05-.56,1.23-.6.27-1.89-.08-2.61.13-.73,2.04-.48,4.87-.38,7.45,1.46-.49,2.6-.84,3.88-.5-.05.32.37.59.08.88l-1.39,1.81c.74,2.62.28,5.13.18,7.56-.28-.09-.44,0-.48.12l-.37,1.18c-.14.43-2.04.83-2.03,1.51-.02-1.17-1.61-.71-2.47-1.09-.48-6.13-.46-12.8-.21-18.88,1.17-.18,2.89.21,3.26-.6l.49-10.57,2.74-.35c.12-1.46-.5-3.35.67-4.2.65-.35,1.63.11,1.97-.22.71-.69-.02-2.7,1.08-4.04.39-.47,1.56-.2,2.15-.49,1.73-9.4,3.03-4.98,3.74-6.71.14-.34.14-1.03.47-1.57.5-.82,1.72-.48,2.35-1.1.07-.8,0-1.8.96-1.98.51-.1,1.26-.35,2.33-.16.77-1.27.56-3.3,1.56-4.36,1.35-1.43,3.6-.79,5.23-1.16.52.38.83.81,1.22,1.3Z"/>
            <path class="cls-127" d="M190.15,24.05c-2.11.34,1.99,1.26-.84,4.45-.92.32-1.95.06-2.99.53.53,1.73-.04,2.86-1.18,3.46-.16-.41-.08-.7-.34-.76.07.02-3.45-.64-3.47.97-.02.98-.34,2.23.93,2.24-.14.58-.93.3-1.24.73-.51-.76-2.11-.68-2.83-.27-1.02.58-.13,2.21-.28,2.94-.35,1.76-3.81-.8-3.84,2.04-.02,1.8-1.04,2.48-2.43,3.33-.32.2-.11,1.49-.67,1.67-1.59.53-3.09.29-4.53.39,1.6-7.2-1.38-6.18.54-10.52.52-.22,1.83.27,2.22-.49.5-.98.19-2.12.37-3.36l4.36-.49c1.27-.14,1.05-1.98,1.08-3.14,2.56-.65,5.2-.34,7.79-.71l.41-3.36c2.33.03,4.69-.05,6.94.33Z"/>
            <path class="cls-12" d="M181.01,35.67c.05.62.11,1.56-.28,2.31-.36.7-1.48.39-2.4.54-.64,1.32.6,12.53-1.25,11.32-.96.35-1.95,0-3.22-.07l-.55,8.44-1.66-.18c-1.81-2.46-1.97-4.68-5.57-4.24-.11-.46-.07-1.37-.71-1.71-.79-.42-2.58.36-3.12-.62.81,1.49-1.6-4.57-1.57-4.32-.04-.36.41-.95,1.12-1.01l4.62-.34c1.43-.11,2.94.14,4.53-.39.56-.19.35-1.48.67-1.67,1.4-.86,2.42-1.54,2.43-3.33.03-2.84,3.5-.28,3.84-2.04.14-.73-.74-2.35.28-2.94.73-.42,2.32-.49,2.83.27Z"/>
            <path class="cls-31" d="M199.46,17.3c-.65.23-1.57-.64-2.4-.25-1.7.79-1.27,2.85-1.41,4.26-.06.21-.26.32-.45.42-.82-.49-2.67-1-2.94.45-.11.57.06,1.48-.29,1.73s-1.28.23-1.83.14c-2.26-.38-4.61-.29-6.94-.33.14-1.12,2.1-1.17,3.09-1.1.94-.79.14-2.18.8-3.21.48-.74,2.11-1.61,3.01-1.74,1.32-.2,3.79.59,4.89-.77.97-1.19.7-3.64.3-4.9-.31-.97.14-1.8,1.1-2.65-.27-2.43,1.68-.22,2.71-.68.9-.4-.46-5.67.62-4.87-.26-.14-.83-.01-1.33-.1-.12-1.15-.12-2.27.18-3.68.98.14,2.85-.42,3.5.51.58.85-.33,2.29.46,3.04.66.35,1.35.17,2.28.41.33,3.63.31,7.29-.8,10.91-.26.86-1.66.41-2.19.75-.97.63-1.55,1.35-2.38,1.64Z"/>
            <path class="cls-57" d="M185.9,125.97c-.17.87.42,2.26-.45,3.13-.38.37-1.44-.25-1.79.21-.79,1.04.3,2.67-1.42,2.65-.74,0-1.59.25-1.77.68-.21.52,0,1.15-.03,1.6-2.02,1.24-4.49,1.03-6.99.93-.49.67-.11,1.15-.33,1.5-.9,1.44-8.06,1.42-11.16,2.33-1.39.41-2.68.3-4.02.66l-1.23.33c-.54.15-.25,1.3-.61,1.44-1.41.52-3.16.3-4.79.55l-.99,2.46c-.26,1.16-1.47.44-2.53.56-.85.09-.54,1.29-.93,1.49-.6.29-1.54.33-2.18.24-1.13-.16-.62,1.17-1.03,1.55-.94.89-2.61.54-3.72.49-.37-.02-.46-.26-.89-.23-.45-5.51,4.08-.41,6.11-5.47,1.16-1.16,3.61-.8,5.22-1.19.34-1.11.05-2.09.54-3.23l3.46-.26c2.17-.16,4.45-.11,6.74-.69.31-1.1.21-1.96.29-2.84l8.96.08.35-2.96,7.19-.23c.39-.89.1-1.83.64-2.69,1.33-.05,2.87.62,3.83-.28.52-.49.14-2.15,1.04-2.33l2.52-.5Z"/>
            <path class="cls-56" d="M177.07,49.83l-.16,8.91-2.82.39c-.23,1.6-.33,3.15.12,4.75,1.02.45,2.08-.01,3.03.56l.24,14.04c-1.04,1.05-.31.65-3.41.46l-.11-14.81-2.59-.3c-.26-5.43-1.75-3,.28-5.81l1.66.18.55-8.44c1.27.07,2.26.41,3.22.07Z"/>
            <path class="cls-103" d="M139.5,26.83c.72.09.68.65.46,1.18-.42.98-3.29,2.24-3.91,2.75-1.48,1.21-4.17.1-5.77,1.62-.13.64.16,1.57-.27,1.79-.78.39-1.48.21-2.16-.29-.94,2.01-3.43.27-4.52,1.49-.56.62-.3,2.02-1,2.53-2.05,1.48-3.69-.93-4.36,1.63-.39-.49-.7-.92-1.22-1.3,2.37.49.22-3.1,1.79-3.2s2.79.17,4.2-.3l.58-3.13c1.65-.21,3.45.29,5.03-.55.43-.23.06-1.39.5-1.51.76-.2,2.94-.22,3.09-.58l.63-1.56c.59-1.46,4.72-.57,6.92-.57Z"/>
            <path class="cls-108" d="M161.89,18.46c.14.6.19,2.27-.36,2.65-1.73.97-3.85.43-5.61.9-.62.17-.12,1.28-.37,1.52-2.3,2.18-4.72-1.71-5.18,2.13-3.42.87-7.09.78-10.41.79-.18-.95-.32-2.01.12-3.05l10.59-.59c.76-2.33,2.16-.64,4.3-1.95.46-.28.16-1.77.64-1.97,2.04-.83,4.35-.35,6.29-.43Z"/>
            <path class="cls-45" d="M195.29,12.01c-.87.02-.5,1.58-1.48,1.82-1.07.26-2.25.21-3.21.23-2.68.05-5.34-.41-7.94-.64,0-.66-.02-1.36.15-2.31l8.66-.39c.26-.63.03-1.58.41-1.72.47-.17,1.02-.34,1.42-.3,1.86.15,2-1.32,2.82-2.26.67-.77,2.19-1.04,1.58-2.3.41.33.37-.39.69-.42.5.09,1.07-.05,1.33.1-1.09-.8.28,4.47-.62,4.87-1.03.46-2.98-1.75-2.71.68-.96.85-1.41,1.67-1.1,2.65Z"/>
            <path class="cls-138" d="M197.71,4.13c.61,1.27-.91,1.53-1.58,2.3-.82.94-.96,2.41-2.82,2.26-.4-.03-.95.13-1.42.3-.38.14-.15,1.09-.41,1.72l-8.66.39c-.17.95-.15,1.65-.15,2.31-2.72-.24-5.57,1.49-8.28.47l.5-2.71c.71.22,7.52-.74,7.35-.64.34-.2.26-1.37.77-1.4l8.03-.54c.62-.65,1.28-1.84,2.91-1.52.07-1.19.23-2.03.85-2.38,1.06-.61,1.98-.93,2.9-.56Z"/>
            <path class="cls-142" d="M180.88,96.63c-.91.24-1.87.38-3.12.16l-.11-17.4c.95-.08,1.98-.29,3.01.26l.22,16.98Z"/>
            <path class="cls-117" d="M186.5,125.76c-.35-1.37,1.06-1.35,1.79-2.11.89-.93.04-2.59,1.69-2.98-.06-.41-.61-1.16-1.13-1.36,1.06-2.46,3.36-1.27,1.7-6.72-.34-1.13-1.41-1.85-.86-2.96.99-.05,1.98-.09,3.15.08l.75,8.24c.26,2.88-1.85.51-2.03,7.51-1.79.32-3.48.3-5.06.31Z"/>
            <path class="cls-121" d="M189.53,108.68c-.61.09-.16.61-.34.81-.56.63-2.99-.13-3.07-.25-.5-.76.45-1.19-.35-3.33-.2-.53-1.69-.12-1.92-.6-2.81-5.84-1.76-1.75-2.43-8.22.77.08,2.62-.44,3.15.41.77,1.23-.07,3.14,1.06,4.1.69.58,1.99.02,2.93.4l.96,6.69Z"/>
            <path class="cls-3" d="M173.85,14.33c0,.91.32,2.58-.4,3.35-3.66.42-7.26.29-10.67.43-.22,0-.44-.04-.66-.1-.51-.96-.38-2.13,0-3.39l11.72-.28Z"/>
            <path class="cls-145" d="M195.2,21.73c.06.73-.05,1.49-.21,2.34-.96.37-1.95.17-3.08.26l-.58,4.17c-.87.24-1.42-.21-2.03,0,2.83-3.19-1.27-4.11.84-4.45.54.09,1.48.1,1.83-.14s.19-1.16.29-1.73c.27-1.46,2.11-.94,2.94-.45Z"/>
            <path class="cls-73" d="M199.46,17.3c-.01,1.27-.19,2.56-.5,3.92-1.23.13-2.28.23-3.3.09.14-1.41-.29-3.47,1.41-4.26.83-.39,1.75.48,2.4.25Z"/>
            <path class="cls-38" d="M185.13,32.49c.19.59.33,1.91-.35,2.34-.61.38-1.77.14-2.53.11-1.27-.01-.95-1.25-.93-2.24.03-1.61,3.54-.96,3.47-.97.26.06.19.35.34.76Z"/>
            <path class="cls-45" d="M162.12,18.45c-.26-.19-.41-.36,0-.45.21.06.44.11.66.1.14.47-.36.54-.65.35Z"/>
            <path class="cls-23" d="M102.06,74.27c0,.42.09.99-.05,1.56-1.14.25-2.19-.06-3.38.35-.17,1.17.39,2.66-.42,3.31s-3.25-.46-3.42.73l-.35,2.39c-1.28-.35-2.42,0-3.88.5-.1-2.58-.35-5.41.38-7.45.72-.21,2.01.14,2.61-.13.4-.18.5-.62.56-1.23.47,2.52,8.34.25,7.35-.36.18.11.33.23.6.33Z"/>
            <path class="cls-85" d="M142.4,92.87c-.74-.45-1.6-.3-2.43-.41-.28-.03-.61-.07-.87-.18.11-1.6.15-3.51-.08-5.05.21-.61,1.11-1.37,1.71-1.33.53.03,2.15.19,2.16.87.04,2.22.62,4.48-.49,6.09Z"/>
            <path class="cls-120" d="M190.11,17.67c-.3-1.26.47-2.38.5-3.62.96-.02,2.14.03,3.21-.23.98-.24.61-1.8,1.48-1.82.4,1.25.67,3.71-.3,4.9-1.1,1.35-3.57.57-4.89.77Z"/>
            <g>
              <path class="cls-64" d="M171.65,58.02c-2.03,2.8-.54.38-.28,5.81l2.59.3.11,14.81c3.1.2,2.37.59,3.41-.46,0,.27.17.6.17.9l.11,17.4c1.25.22,2.22.08,3.12-.16.28-.03.49.2.54.47.67,6.48-.38,2.38,2.43,8.22.23.48,1.72.07,1.92.6.8,2.13-.15,2.56.35,3.33.08.12,2.51.88,3.07.25.18-.2-.27-.72.34-.81.04.31.35.56.17.93-.55,1.11.51,1.83.86,2.96,1.66,5.46-.64,4.27-1.7,6.72-.92.26-2.04.66-2.73,1.57-1.15,1.51-3.15,1.97-4.26,3.12s-1.61,1.72-3.36,2.05c-2.94.56-12.16,3.51-14.64,2.26-.56,2.33-2.02,2.44-3.93,2.79-.96.18-1.95,1.15-3.09,1.07-.6.46-1.18,1.65-1.61,2.66-9.98-.13-8,3.38-8.3,3.53-1.13.56-1.5,1.99-2.06,2.55-2.66,1.59-6.08,1.23-8.66,2.55-.23-.5-.56-1.2-.43-1.75.17-.71.2-2.39.95-2.75.93-.44,2.5-.04,2.57-1.46.04-.72.06-1.35.41-1.86.68-1.01,1.86-.05,3.03-.77.41-.25.3-.93.43-1.53.27-1.28.07-1.8-.86-2.28.28-.02.56-.24.57-.54.76,1.01,3.07.97,3.77-.1.36-.55,0-1.54.21-1.98.35-.7,4.82-1.64,3.4-9.99-.28-1.63-.27-3.64.42-5.03,1.28.15,3.27.43,4.26-.82.75-.95-.3-2.89.62-3.72,2.64-2.36.65-2.69,1.92-3.8.39-.34,1.54-.27,1.86-.71.42-.58.37-1.43.59-1.9.38-.82,1.65-.38,2.2-.86.95-.83-.07-2.7.65-3.67.65-.73,3.1.22,3.5-.72.3-6.99.73-39.74-.19-43.45,3.6-.44,3.76,1.78,5.57,4.24Z"/>
              <path class="cls-130" d="M173.41,121.17c-.8.21-5.28,0-5.05-.21-.22.2-.63-1.28-.32-1.34,1.21-.23,1.76-2.56,2.59-3.28,2.27-1.97,4.2-3.78,3.33-7.28.94-.35,2.97-.62,3.67.09.13,1.56.49,3.51.28,5.23-.14,1.12-1.67,1.94-.83,3.68.11.24-.16.99-.24,1.26-.33,1.03-3.45-.77-3.44,1.86Z"/>
            </g>
            <path class="cls-76" d="M142.3,131.06c.93.47,1.13,1,.86,2.28-.13.6-.02,1.28-.43,1.53-1.17.72-2.34-.24-3.03.77-.34.51-.37,1.14-.41,1.86-.07,1.42-1.65,1.02-2.57,1.46-.76.36-.78,2.04-.95,2.75-1.53.01-4.33.75-5.54.09.61-.75.09-2.32.92-2.94.59-.44,1.63-.14,2.14-.4.75-.38.38-1.42.72-2.19.68-1.51,2.55-1.4,4.12-1.5.51-1.1.15-2.16.44-3.38l3.72-.33Z"/>
            <path class="cls-13" d="M130.23,141.8c1.21.67,4.01-.08,5.54-.09-.13.55.2,1.25.43,1.75-.68.35-1.95.36-2.51.76-.78,1.35-2.03,2.79-4.05,2.43-.58,2.9-7.57,2.68-7.67,1.06.16-.71-.13-1.5.32-2.39l4.61-.2.53-3.07c.11-.61,2.2-.59,2.8-.26Z"/>
            <path class="cls-95" d="M161.37,134.87c-.08.88.02,1.74-.29,2.84-2.29.59-4.56.53-6.74.69-.08-1.09-.17-2.93,1.41-3.22,1.96-.36,3.87-.34,5.62-.32Z"/>
            <g>
              <path class="cls-1" d="M93.3,92.86c-.18,4.19,1.47,7.03,2.55,10.84.26.92,1.88,1.4,1.4,3.13-.23.85.69,1.75.69,2.42l-.02,16.96c0,.83,1.06.35,1.63.67,1.12.62.53,2.49.53,3.4,3.58,4.83,3.87-.04,4.17,4.41,1.17,1.29-4.08,1.04-4.82.21s-.4-2.09-.77-3l-2.43-.58c-.4-.1-.53-1.15-1.17-.88-1.73-7.47-.62-17.79-1.29-25.57-.68-.39-1.87,0-2.27-.43-.31-.34-.77-1.16-.8-1.84l-.29-6.93c-.01-.68,1.9-1.08,2.03-1.51l.37-1.18c.04-.12.2-.21.48-.12Z"/>
              <path class="cls-63" d="M104.25,134.7c1.1,1.09,2.63.37,3.98.21.74-.09,1.62.62,2.27-.15.22.59.21.95.65.87-.19.39.07.8,0,1.17-.15.85,1.38.62,2.11.86,1.1.37-.43,2.25.74,3.63.04.72-.81.1-1.45.55,1.18.15.78,1.18,1.13,2.1.26.68-.12.98-.07,1.23.01.07,1.93,1,2.39,1.32s.01,1.24.33,1.52c.77.65.89.93.77,1.81-.11.84-.46.6-1.31.88.59.56,1.23.09,1.27.48.04.43.04.78.13,1.08-.67-.22-1.99,1.55-2.6.2.16-.8.31-2.37-.38-3.12-.81-.86-2.62-.99-3.8-.34l-.25-3.59c-1.29-.17-2.83.04-4.04-.39-.92-2.79,2.07-4.36.28-6.2-2.65-.1-7.35-1.25-7.35,1.25,0,.32-.63,0-.97.11,1.1-3.72.91.81,1.21-4.73l-2.91-.44c-.63-1.57-.96-3.07-1.31-4.56.63-.27.77.78,1.17.88l2.43.58c.37.91.05,2.18.77,3s5.99,1.08,4.82-.21Z"/>
              <path class="cls-7" d="M124.24,79.35c-.07.06-.14.21-.22.34l-20.09.31c-1.46,6.44-.31,5.27-.48,10.3,2.03.31,3.68-.2,5.39-.14,1.24.05,2.76-.2,4.32.18.67.17.74,2.43.14,2.86l-6.51.21c-.45,4.67-.75,4.66.55,10.2.13.58-.48,2.19.55,2.21,1.08-.51,2.03-1.37,3.16-1.35-1.43,3.23-3.45.65-3.49,4.77l-.13,11.01c-.86.02-.37,1.2-.64,2.03-.34,1.06-3.49.82-3.64-.23-.23-1.55-.3-14.82-.09-16.79.4-3.71.04-7.41.21-11-1.74.35-.31-1.07-.61-1.35-1.7-1.61-2.77-3.22-1.63-5.33-.88-.36-1.56-.37-2.18-.84l-.27-3.64c-1.48.33-2.88-.2-4.07.37.29-.29-.13-.56-.08-.88l.35-2.39c.18-1.19,2.61-.07,3.42-.73s.25-2.15.42-3.31c1.19-.41,2.25-.1,3.38-.35.14-.57.04-1.14.05-1.56s-.15-1.62.36-1.74l15.44-.06c.21,1.44-.05,2.37.32,3.49l6.01.7c.18,1.01.26,1.9.06,2.68Z"/>
              <path class="cls-10" d="M124.69,79.9c-.18.46-.39.98-.21,1.44.48,1.26,2.77.98,3.25,1.38l1.12,3.13c1.21-.56,2.12-.82,2.78.11-1.16-.21-2.27.81-3.38.8-3.79-.02-15.72-.67-18.86.23-1.21.35-1.15,2.36-.54,3.17-1.71-.06-3.36.45-5.39.14.17-5.02-.98-3.85.48-10.3l20.09-.31c.08-.13.15-.28.22-.34.38-.14.59.21.45.55Z"/>
              <path class="cls-58" d="M150.15,110.54c-.82-.09-1.78-.34-2.71.1l-.41,7.88c-.11,2.21.11,4.45-.49,6.99-.21.88-2.27.66-2.85.47-1.08,0-.58-.41-.56-1.02.23-7.01.8-21.31.15-21.35l-.99-.06c1.01-1.18.32-2.7.64-4.08.41.18.84.21,1.06.46.25.28.08.99.18,1.33.33,1.14,1.44,1.21,2.53,1.22.35,1.54-.18,3.03.47,4.53.86.15,2.37-.4,2.82.33.68,1.09,0,2.34.14,3.21Z"/>
              <path class="cls-71" d="M139.11,92.28c.25.11.59.14.87.18-.78.97-.68,2.34-.2,3.71.31.87,1.78,1.66,2.9,1.47.08.59.4,1.22.26,1.82-.33,1.38.37,2.9-.64,4.08-.04.88-3.49.32-3.61,2.44,0-.11-1.46,2.14-1.26,2.1-.21.04-.42-.04-.64.15.19-.34-.04-.44-.39-.5-.19-.03-.45-.17-.62-.01-.06-.56-.05-1.22.49-1.54,4.41-2.65,1.86-6.93,2.1-6.74-.8-.65-2.71.09-3.28-1.1-.16-.33.63-.85-.26-1.29.02-.45.5-.94.08-1.38.77-.06.42-.72.19-.97-.46-.5-1.03-.09-1.7-.51.38-.7.84-.04,1.21-.07.65-.06.56-.51.75-.87.48-.96.36-1.99.43-3.06,1.41-.15-.18.56,3.33,2.09Z"/>
              <path class="cls-47" d="M139.03,87.23c.22,1.54.19,3.45.08,5.05-3.51-1.53-1.92-2.24-3.33-2.09-.32.03-.6-.13-.91-.14.15-.4.76-.73.54-1.2-.15-.31-.26-.78-.76-.87-.86-.15-1.81,1.16-1.86,1.16-.85-.02-.32-2.02-1.16-3.18-.66-.93-1.57-.67-2.78-.11l-1.12-3.13c-.47-.4-2.77-.13-3.25-1.38-.17-.46.03-.98.21-1.44,1.29.18,2.99-.48,4.17.47.38.31-.1,1.47.42,1.67,1.06.42,2.93-.18,3.23.46.44.92-.46,1.98.43,2.25.56.17,2.21-.24,2.82.51.25.31-.03,1.21.23,1.42.95.76,2.26-.17,3.05.54Z"/>
              <path class="cls-43" d="M150.15,110.54c.15.95-.12,2.08.53,2.87-.69,1.4-.7,3.4-.42,5.03-1.08.11-2.18.47-3.23.06l.41-7.88c.94-.44,1.9-.19,2.71-.1Z"/>
              <path class="cls-115" d="M142.4,92.87c.74,1.46.05,3.19.27,4.77-1.11.19-2.59-.6-2.9-1.47-.48-1.37-.58-2.74.2-3.71.83.1,1.69-.04,2.43.41Z"/>
              <path class="cls-9" d="M143.69,125.96c.12.35-.59.4-.61.66l-.21,3.89c-.02.3-.29.52-.57.54l-3.72.33c-.29,1.21.07,2.27-.44,3.38-1.56.1-3.44-.02-4.12,1.5-.34.77.03,1.82-.72,2.19-.51.26-1.55-.05-2.14.4-.84.63-.32,2.2-.92,2.94-.6-.33-2.7-.35-2.8.26l-.53,3.07-4.61.2c-.45.89-.16,1.67-.32,2.39-.9,1.31-1.07,2.7-.63,4.22-1.23-.03-2.64.82-4.14.32-.09-.3-.09-.65-.13-1.08-.04-.4-.68.08-1.27-.48.85-.27,1.2-.04,1.31-.88.12-.88,0-1.16-.77-1.81-.32-.27.12-1.2-.33-1.52s-2.37-1.25-2.39-1.32c-.05-.25.34-.55.07-1.23-.35-.91.05-1.94-1.13-2.1.64-.44,1.5.17,1.45-.55.25.14.84,0,1.03.39.17.34.07.84.03,1.39-.08,1.07,1.52,1.02,1.74,1.52.48,1.07.8,1.74,2.43,1.55.98-.11.94-1.18,1.04-2.26.89-.33,1.64-.91,1.52-2.26.74-.4,1.46-.18,2.05-.78.13-.91-.24-2.24.45-2.77.99-.76,2.36-.09,3.62-.59-.24-1.12.04-2.01,0-2.82,1.14-.18,2.29.48,3.65.03.58-.74.07-2.02,1.01-2.39.8-.12-.11-.6-.52-1.06.17-.41.66-.26,1.16-.27.33,0,.09.89.52.82.96-.16,1.51-.12,1.87-.32.56-.33.29-1.34.48-1.77.33-.75,1.97.04,2.47-.56.69-.84,0-2.35.49-3.24,1.17.14,2.29.12,3.67,0,.07-.45-.12-.97.41-.97-.02.61-.52,1.02.56,1.02Z"/>
              <path class="cls-51" d="M150.25,118.45c1.42,8.35-3.05,9.29-3.4,9.99-.22.44.15,1.43-.21,1.98-.7,1.07-3.01,1.11-3.77.1l.21-3.89c.01-.26.73-.31.61-.66.58.19,2.64.42,2.85-.47.6-2.54.37-4.78.49-6.99,1.05.41,2.15.04,3.23-.06Z"/>
              <path class="cls-140" d="M107.43,120.26c-.02,1.78.33,3.61.11,5.55,1.3.35,2.27.02,3.19.55-.72,1.32-.24,3.14-.45,4.54-.73,1.11,1.33.55,1.8,1.09-.11,1.38-.51,2.54-.93,3.64-.44.08-.43-.28-.65-.87-.64.77-1.53.06-2.27.15-1.34.16-2.88.87-3.98-.21-.3-4.45-.58.42-4.17-4.41,0-.91.59-2.78-.53-3.4-.56-.31-1.63.16-1.63-.67l.02-16.96c0-.68-.92-1.57-.69-2.42.48-1.73-1.14-2.21-1.4-3.13-1.08-3.81-2.73-6.65-2.55-10.84.1-2.44.56-4.94-.18-7.56l1.39-1.81c1.19-.58,2.59-.05,4.07-.37l.27,3.64c.62.47,1.3.48,2.18.84-1.14,2.11-.07,3.72,1.63,5.33.3.28-1.13,1.7.61,1.35-.17,3.59.18,7.28-.21,11-.21,1.98-.14,15.24.09,16.79.16,1.05,3.3,1.29,3.64.23.27-.83-.23-2.01.64-2.03Z"/>
              <path class="cls-19" d="M127.79,131.41c-.67.79-6.24-.1-6.62,3.61l-.89,8.86c-.11,1.08-.06,2.15-1.04,2.26-1.63.19-1.94-.48-2.43-1.55-.23-.5-1.82-.45-1.74-1.52.04-.56.14-1.05-.03-1.39-.19-.38-.78-.26-1.03-.39-1.17-1.38.36-3.27-.74-3.63-.72-.24-2.26,0-2.11-.86.07-.37-.2-.78,0-1.17.42-1.11.82-2.26.93-3.64-.47-.53-2.53.03-1.8-1.09.32.03.81.08,1.13-.03.26-.09.31-.72.59-1.2,1.04.31,1.84-.53,2.48-1.02l4.63.18c-.14.87-.19,2.13.52,2.38,4.28,1.52-.07-2.67,4.52-6.28.3-.23,1.25.34,1.64.09.36-.23.36-.51.24-1.03,1.4,2.03,1.63,3.98,1.78,7.43Z"/>
              <path class="cls-70" d="M128.35,115.16c.23-.16.7.04,1.14,0,.23-.02-.18-.32.05-.88,1.61.47,2.85,1.75,3.7,3.08l4.38-3.52c2.05,1.88,1.6,4.9,1.59,7.84,0,1.12.37,2.19-1.06,2.7.42.83.95.96.9,1.51-.49.89.2,2.4-.49,3.24-.5.6-2.13-.19-2.47.56-.19.43.08,1.44-.48,1.77-.35.21-.91.17-1.87.32-.43.07-.19-.83-.52-.82-.5,0-.99-.14-1.16.27.41.46,1.32.93.52,1.06-.93.37-.43,1.65-1.01,2.39-1.37.45-2.52-.21-3.65-.03l-.14-3.25c-.15-3.45-.38-5.4-1.78-7.43-1.14-1.65-2.3-3.29-4.15-4.14-.63-.29-.8-2.07-2.46-1.39-1.04.42-1.85-.65-2.62-.79-1.51-.28-2.25,1.38-2.07,2.89-4.31.76-1.74,1.7-3.98,5.81-.92-.52-1.88-.2-3.19-.55.22-1.94-.13-3.78-.11-5.55l.13-11.01c.05-4.11,2.06-1.54,3.49-4.77,2.79.05.12,1.39,2.24,4.64.6.92,2.36.17,3.58.13.14,1.16-.71,3.57.75,4.7.55.43,1.81.05,2.17.63.6-1.28.69-.37.79.42,2.55.38,3.27,2.14,4.24,3.92s2.75,3.03,2.91,5.34c.03.4.93,1.1,1.3.97.49-.17,1.37-.57,1.45-1.32.25-2.21,2.31-7.88-.77-8.5-.27-.05-.78.46-1.1.3-.18-.09-.33-.18-.3-.52Z"/>
              <path class="cls-62" d="M131.63,85.96c.83,1.17.31,3.16,1.16,3.18.05,0,1-1.31,1.86-1.16.5.09.62.56.76.87.22.47-.39.8-.54,1.2l-6.08-.17c.05-1.08-.72-2.03-.53-3.12,1.1,0,2.22-1.02,3.38-.8Z"/>
              <path class="cls-90" d="M143.13,124.94c-.53,0-.34.51-.41.97-1.38.12-2.5.13-3.67,0,.05-.55-.48-.68-.9-1.51,1.42-.51,1.05-1.58,1.06-2.7.01-2.94.46-5.96-1.59-7.84-3.3-3.03-2.97-5.57-4.15-5.5.8-.22,1.66-.05,2.3-.64.17-.16.44-.02.62.01.34.06.57.16.39.5-.87.77.29,3.12,1.31,3.13,1.54-.95,1.8-4.12.59-5.37.12-2.12,3.57-1.56,3.61-2.44l.99.06c.65.04.07,14.33-.15,21.35Z"/>
              <path class="cls-40" d="M128.78,89.88l6.08.17c.31,0,.59.17.91.14-.07,1.06.06,2.1-.43,3.06l-13.48.11c-.6-.52-.94-2.96-.13-3.21,2.44-.31,4.93-.32,7.05-.27Z"/>
              <path class="cls-74" d="M136.78,108.22c.22-.19.43-.11.64-.15-.19.04,1.27-2.21,1.26-2.1,1.2,1.25.95,4.43-.59,5.37-1.02,0-2.18-2.36-1.31-3.13Z"/>
              <path class="cls-78" d="M127.93,134.67c.03.81-.24,1.69,0,2.82-1.26.49-2.64-.17-3.62.59-.7.53-.32,1.86-.45,2.77-.58.6-1.3.38-2.05.78.11,1.35-.64,1.93-1.52,2.26l.89-8.86c.37-3.71,5.94-2.82,6.62-3.61l.14,3.25Z"/>
              <path class="cls-11" d="M121.86,119.84c-1.29.28-2.64.22-4.34.31l-.88,3.36c-.36,1.4-1.67-2.73-2.17,5.14-.63.49-1.43,1.34-2.48,1.02-.28.48-.33,1.11-.59,1.2-.32.11-.81.06-1.13.03.21-1.41-.27-3.23.45-4.54,2.24-4.1-.32-5.04,3.98-5.81-.18-1.51.57-3.17,2.07-2.89.77.14,1.58,1.21,2.62.79,1.66-.68,1.83,1.1,2.46,1.39Z"/>
              <path class="cls-66" d="M121.86,119.84c1.85.85,3.02,2.49,4.15,4.14.12.53.13.81-.24,1.03-.38.24-1.34-.33-1.64-.09-4.58,3.62-.23,7.8-4.52,6.28-.71-.25-.66-1.5-.52-2.38l-4.63-.18c.49-7.87,1.8-3.74,2.17-5.14l.88-3.36c1.71-.09,3.05-.03,4.34-.31Z"/>
              <path class="cls-21" d="M126.34,106.44c-.71.05-.61,1.52-1.63,1.25-.63-.17-1.28-.48-1.67-.36-.34.1-1.08.79-.6,1.09.57.36,1.8.34,1.92,1.06.08.49.9,1.38.07,1.86-1.15.66-2.92-.62-3.73,1.34l6.61.81,1.04,1.68c-.03.34.12.43.3.52.32.16.83-.35,1.1-.3,3.07.62,1.01,6.29.77,8.5-.08.75-.96,1.15-1.45,1.32-.38.13-1.27-.56-1.3-.97-.16-2.3-1.92-3.5-2.91-5.34s-1.69-3.54-4.24-3.92c-.1-.79-.2-1.69-.79-.42-.36-.57-1.62-.2-2.17-.63-1.46-1.13-.61-3.54-.75-4.7-1.22.05-2.98.79-3.58-.13-2.12-3.25.55-4.58-2.24-4.64.12-.27-.09-.8.22-1.06.24-.19.74-.24,1.11-.4,1.18-.49,1.32-1.95,1.93-2.55,1.3-1.3,2.22-.11,3.09.32,1.57.77,3.57,1.69,4.63,3.05.22.28,3.8,1.37,4.31,2.59Z"/>
              <path class="cls-39" d="M133.47,108.35c1.18-.08.85,2.46,4.15,5.5l-4.38,3.52c-.85-1.33-2.09-2.61-3.7-3.08-.22.56.18.86-.05.88-.44.04-.91-.17-1.14,0l-1.04-1.68-6.61-.81c.81-1.96,2.58-.68,3.73-1.34.83-.48.01-1.37-.07-1.86-.12-.72-1.35-.7-1.92-1.06-.48-.3.26-.99.6-1.09.39-.11,1.04.19,1.67.36,1.02.27.92-1.2,1.63-1.25,1.92.53,5.3,2.04,7.12,1.92Z"/>
              <g>
                <path class="cls-91" d="M128.25,86.76c-.19,1.09.58,2.04.53,3.12-2.12-.06-4.61-.04-7.05.27-.8.25-.47,2.69.13,3.21l13.48-.11c-.18.36-.1.81-.75.87-.37.03-.84-.63-1.21.07.67.43,1.24,0,1.7.51.23.25.57.91-.19.97-.36-.41-.64-.79-1.47-.8l-8.93-.02c-.71.38-.59,2.67.22,3.09.63.32,1.4-.71,1.83-.24.48.53.29,1.65.43,2.28,1.45.78,3.74.4,5.25.19.64-.62.11-1.84.33-2.75.2-.83,1.69-.46,2.26-.38.89.43.1.95.26,1.29.57,1.19,2.48.44,3.28,1.1-.23-.19,2.32,4.09-2.1,6.74-.54.33-.55.99-.49,1.54-.64.59-1.5.42-2.3.64-1.83.12-5.2-1.39-7.12-1.92-.51-1.22-4.09-2.31-4.31-2.59-1.05-1.36-3.06-2.28-4.63-3.05-.87-.43-1.79-1.61-3.09-.32-.61.61-.75,2.07-1.93,2.55-.37.15-.87.2-1.11.4-.32.26-.11.79-.22,1.06-1.14-.02-2.08.84-3.16,1.35-1.02-.02-.41-1.64-.55-2.21-1.3-5.55-1-5.53-.55-10.2l6.51-.21c.6-.43.53-2.7-.14-2.86-1.56-.38-3.08-.14-4.32-.18-.61-.81-.67-2.82.54-3.17,3.14-.9,15.07-.25,18.86-.23Z"/>
                <path class="cls-122" d="M134.9,95.67c.43.44-.06.93-.08,1.38-.57-.08-2.06-.45-2.26.38-.22.9.31,2.13-.33,2.75-1.5.21-3.8.6-5.25-.19-.14-.62.05-1.75-.43-2.28-.43-.47-1.2.56-1.83.24-.81-.42-.93-2.71-.22-3.09l8.93.02c.83,0,1.11.39,1.47.8Z"/>
                <path class="cls-131" d="M112.89,100.08c-.66.64-2.84.14-3.77.1-.57-1.81.15-3.36-1.03-5.19,1.6-.17,3.23-.45,5.19-.06-.04,1.68.45,3.35-.39,5.15Z"/>
              </g>
            </g>
          </g>
        </g>
      </g>
    </g>
  </g>
</svg>