<?xml version="1.0" encoding="UTF-8"?>
<svg id="_レイヤー_2" data-name="レイヤー 2" xmlns="http://www.w3.org/2000/svg" xmlns:xlink="http://www.w3.org/1999/xlink" viewBox="0 0 293.03 498.12">
  <defs>
    <style>
      .cls-1 {
        fill: #f8f9f7;
      }

      .cls-2 {
        fill: #49405f;
      }

      .cls-3 {
        fill: #fefeff;
      }

      .cls-4 {
        fill: #b7b1c5;
      }

      .cls-5 {
        fill: #b47e64;
      }

      .cls-6 {
        fill: #70647a;
      }

      .cls-7 {
        fill: #dedee2;
      }

      .cls-8 {
        fill: #e5aca4;
      }

      .cls-9 {
        fill: #55445e;
      }

      .cls-10 {
        fill: #d6d6db;
      }

      .cls-11 {
        fill: #dddde1;
      }

      .cls-12 {
        fill: #988394;
      }

      .cls-13 {
        fill: #e0e0e3;
      }

      .cls-14 {
        fill: #e9b5ac;
      }

      .cls-15 {
        fill: #df9e66;
      }

      .cls-16 {
        fill: #948ba4;
      }

      .cls-17 {
        fill: #c67e8a;
      }

      .cls-18 {
        fill: #d6c6ca;
      }

      .cls-19 {
        fill: #d0ccd6;
      }

      .cls-20 {
        fill: #a0635f;
      }

      .cls-21 {
        fill: #6e3d55;
      }

      .cls-22 {
        fill: #9a90a5;
      }

      .cls-23 {
        fill: #d7d4db;
      }

      .cls-24 {
        fill: #413859;
      }

      .cls-25 {
        fill: #493d5b;
      }

      .cls-26 {
        fill: #f9dece;
      }

      .cls-27 {
        fill: #fdf4e7;
      }

      .cls-28 {
        fill: #8991a5;
      }

      .cls-29 {
        fill: #d8d7df;
      }

      .cls-30 {
        fill: #e2a4a3;
      }

      .cls-31 {
        fill: #cb8690;
      }

      .cls-32 {
        fill: #e0e1e4;
      }

      .cls-33 {
        fill: #d1ced7;
      }

      .cls-34 {
        fill: #744655;
      }

      .cls-35 {
        fill: #e18f97;
      }

      .cls-36 {
        fill: #504364;
      }

      .cls-37 {
        fill: #5f97be;
      }

      .cls-38 {
        fill: #e7c5bc;
      }

      .cls-39 {
        fill: #e7e6e8;
      }

      .cls-40 {
        fill: #f7dac9;
      }

      .cls-41 {
        fill: #615872;
      }

      .cls-42 {
        fill: #7e7382;
      }

      .cls-43 {
        fill: #c0bacb;
      }

      .cls-44 {
        fill: #463852;
      }

      .cls-45 {
        fill: #e9afa5;
      }

      .cls-46 {
        fill: #f7f6f6;
      }

      .cls-47 {
        fill: #f5f6f4;
      }

      .cls-48 {
        fill: #5f5168;
      }

      .cls-49 {
        fill: #fae9da;
      }

      .cls-50 {
        fill: #bbb4c7;
      }

      .cls-51 {
        fill: #de9a95;
      }

      .cls-52 {
        fill: #d1d1d8;
      }

      .cls-53 {
        fill: #dd9e9d;
      }

      .cls-54 {
        fill: #85525b;
      }

      .cls-55 {
        fill: #bab3c5;
      }

      .cls-56 {
        fill: #352d53;
      }

      .cls-57 {
        fill: #cfcad4;
      }

      .cls-58 {
        fill: #f3cabf;
      }

      .cls-59 {
        fill: #ccc7d3;
      }

      .cls-60 {
        fill: url(#_名称未設定グラデーション_26);
      }

      .cls-61 {
        fill: #7a6f80;
      }

      .cls-62 {
        fill: #6a607a;
      }

      .cls-63 {
        fill: #dd9b99;
      }

      .cls-64 {
        fill: #f1bcb2;
      }

      .cls-65 {
        fill: #ecb9ab;
      }

      .cls-66 {
        fill: #e4e0e0;
      }

      .cls-67 {
        fill: #f3f4f6;
      }

      .cls-68 {
        fill: #5e5470;
      }

      .cls-69 {
        fill: #c37d8b;
      }

      .cls-70 {
        fill: #63566a;
      }

      .cls-71 {
        fill: #cfcdd6;
      }

      .cls-72 {
        fill: url(#_名称未設定グラデーション_23);
      }

      .cls-73 {
        fill: #cfccd5;
      }

      .cls-74 {
        fill: #fae4d4;
      }

      .cls-75 {
        fill: #362d53;
      }

      .cls-76 {
        fill: #544865;
      }

      .cls-77 {
        fill: #dbdde1;
      }

      .cls-78 {
        fill: #d9dce5;
      }

      .cls-79 {
        fill: #d4d1d9;
      }

      .cls-80 {
        fill: #6e4156;
      }

      .cls-81 {
        fill: #ccc8d2;
      }

      .cls-82 {
        fill: #ccc7d2;
      }

      .cls-83 {
        fill: #5e495f;
      }

      .cls-84 {
        fill: #d0ced6;
      }

      .cls-85 {
        fill: #cecad4;
      }

      .cls-86 {
        fill: #e5aba6;
      }

      .cls-87 {
        fill: #4d4565;
      }

      .cls-88 {
        fill: #a06158;
      }

      .cls-89 {
        fill: #e4bcae;
      }

      .cls-90 {
        fill: #c5acbb;
      }

      .cls-91 {
        fill: #bfb8ca;
      }

      .cls-92 {
        fill: #61546a;
      }

      .cls-93 {
        fill: #e4e4e6;
      }

      .cls-94 {
        fill: #f8f9f6;
      }

      .cls-95 {
        fill: #533958;
      }

      .cls-96 {
        fill: #524865;
      }

      .cls-97 {
        fill: #e5b8ab;
      }

      .cls-98 {
        fill: #91a6bd;
      }

      .cls-99 {
        fill: #c9c4d2;
      }

      .cls-100 {
        fill: #d89499;
      }

      .cls-101 {
        fill: #776a7c;
      }

      .cls-102 {
        fill: #dcdce0;
      }

      .cls-103 {
        fill: #c8c2d0;
      }

      .cls-104 {
        fill: #ad8c96;
      }

      .cls-105 {
        fill: #dad9de;
      }

      .cls-106 {
        fill: #f7f5f4;
      }

      .cls-107 {
        fill: #fbe3d5;
      }

      .cls-108 {
        fill: #f4f5f3;
      }

      .cls-109 {
        fill: #f8d2c5;
      }

      .cls-110 {
        fill: #cac4d1;
      }

      .cls-111 {
        fill: #ad6d5f;
      }

      .cls-112 {
        fill: #a45f74;
      }

      .cls-113 {
        fill: #43395a;
      }

      .cls-114 {
        fill: #b7b0c5;
      }

      .cls-115 {
        fill: #f5f5f5;
      }

      .cls-116 {
        fill: #609cc6;
      }

      .cls-117 {
        fill: #e2e2e4;
      }

      .cls-118 {
        fill: #e8e8e9;
      }

      .cls-119 {
        fill: #dfa1a1;
      }

      .cls-120 {
        fill: #f4f5f4;
      }

      .cls-121 {
        fill: #cdccd0;
      }

      .cls-122 {
        fill: #d59a5a;
      }

      .cls-123 {
        fill: #dbaaaa;
      }

      .cls-124 {
        fill: #edb8ae;
      }

      .cls-125 {
        fill: #f8fafb;
      }

      .cls-126 {
        fill: #e7afa7;
      }

      .cls-127 {
        fill: #eab1ac;
      }

      .cls-128 {
        fill: #fcfcfc;
      }

      .cls-129 {
        fill: #5d526f;
      }

      .cls-130 {
        fill: #816e7e;
      }

      .cls-131 {
        fill: #4f425c;
      }

      .cls-132 {
        fill: #bcb6c8;
      }

      .cls-133 {
        fill: #9a8ea2;
      }

      .cls-134 {
        fill: #4e405c;
      }

      .cls-135 {
        fill: #e3e3e6;
      }

      .cls-136 {
        fill: #cbc6d2;
      }

      .cls-137 {
        fill: #b3adba;
      }

      .cls-138 {
        fill: #cfcbd4;
      }

      .cls-139 {
        fill: #c17582;
      }

      .cls-140 {
        fill: #dbd9de;
      }

      .cls-141 {
        fill: #e3e2e4;
      }

      .cls-142 {
        fill: #be767d;
      }

      .cls-143 {
        fill: #7f7481;
      }

      .cls-144 {
        fill: #f5f9f9;
      }

      .cls-145 {
        fill: #6e7da7;
      }

      .cls-146 {
        fill: #9287a3;
      }

      .cls-147 {
        fill: #d0ced7;
      }

      .cls-148 {
        fill: #ad6d5c;
      }

      .cls-149 {
        fill: #594b63;
      }

      .cls-150 {
        fill: #483c59;
      }

      .cls-151 {
        fill: #b3abbf;
      }

      .cls-152 {
        fill: #b8b0c3;
      }

      .cls-153 {
        fill: #57465f;
      }

      .cls-154 {
        fill: #aea5bc;
      }
    </style>
    <linearGradient id="_名称未設定グラデーション_23" data-name="名称未設定グラデーション 23" x1="141.26" y1="49.8" x2="66.16" y2="139.92" gradientUnits="userSpaceOnUse">
      <stop offset="0" stop-color="#e5e5e7"/>
      <stop offset="1" stop-color="#cec9d4"/>
    </linearGradient>
    <linearGradient id="_名称未設定グラデーション_26" data-name="名称未設定グラデーション 26" x1="115.87" y1="327.65" x2="66.96" y2="413.02" gradientUnits="userSpaceOnUse">
      <stop offset="0" stop-color="#5c516f"/>
      <stop offset="1" stop-color="#837a91"/>
    </linearGradient>
  </defs>
  <g id="_レイヤー_1-2" data-name="レイヤー 1">
    <g id="_生成オブジェクト" data-name="生成オブジェクト">
      <path class="cls-3" d="M275.11,108.96c-.82,1.03-1.91,2.44-2.56,3.57-.35-.78.32-1.46.31-2.5-.02-1.2,1.16-1.04,2.25-1.07Z"/>
      <g>
        <path class="cls-4" d="M92.68,445.41c-.14,0-.31.18-.47.14-.42-.11-1.12.03-.83.58-3.34,1.97-7.25,2.58-11.09,3.7-1.25.36-2.26,1.16-4.01,1.22-11.74.36-23.19.14-34.84-.14-.42-1.34-.28-2.36-.45-3.37,3.99-.58-2.26-1.5-2.41-1.71-.39-.53.74-2.18.46-4.66,2.99.29,5.98.05,8.95.02l11.88-.13c2.7-.03,10.2,1.07,8.91-2.49.38-.37.43-1.65,1.07-1.73,2.16.16,3.53-.28,5.05-.85.51-.19,1.52.52,2.08-.23.3-.4.96-.99.67-1.69,1.12-.92,2.4-1.63,4.39-2,1.26-.23.83-2.53,1.55-3.12,1.57-1.26,4.08.29,4.7-1.76.25-.49,1.06-.61,1.41-.38s.28,1.33.47,1.74c1.96,4.09-2.5,1.34-.73,9.94.78.47,2.26.15,2.53.79.9,2.11.07,4.26.71,6.15Z"/>
        <path class="cls-99" d="M1.9,402.01c-.97,1.57-1.24,4.88.51,6.18.75.55,1.78-.13,2.04.38,1.31,2.52-.13,2.79,1.16,3.9.37.32,1.28-.05,1.76.24.51,1.06.34,2.39.57,3.75.15.92,1.64.67,2.19.68.46-.09,1.64-.17,1.8.54.26,1.13-.01,2.07.6,2.71-2.3,1.86,2.49,7.35,2.82,7.57,5.69,3.82-1.85,2.3,13.09,8.79,1.13.49,2.51.2,3.05-.58.44.41.83-.07,1.36-.07,1.05,0,2.11-.08,3.05.47-.64,1.04.38,1.89.33,3.5-.03,1.09,1.97,1.01,2.82,1.09.27,2.48-.86,4.13-.46,4.66.16.21,6.41,1.13,2.41,1.71-2.19-.47-4.74-.19-7.07-1.33-2.85-1.39-6.2.09-8.95-1.65-.17-.92.23-2.23-.38-2.55-1.06-.55-3.38-.08-4.03-.92-.35-.45.03-1.87-.52-2.27-1.74-1.27-4.15-.45-6.02-1.61-.76-1.44-.64-3.06-1.04-4.71-1.24-.47-2.36-.05-3.57-.77.07-2.4-1.09-3.9-3.1-4.44-.32-1.7-.17-2.97-.73-4.44-1.46.14-2.59-.45-2.65-1.93-.04-1.01-.02-2.05-.53-2.63-.31-.35-1.76-.41-1.84-.95-.77-4.9-.36-9.65-.51-14.86-.03-.85,1.36-.36,1.84-.46Z"/>
        <path class="cls-3" d="M51.14,350.9c-.34,1.62.12,3.33.03,5.19-.12,2.69-3.21,5.43-5.62,6.89-4.59,1.6-11.42-6.57-10.18-10.84,2.14-1.26.84,1.77,4.52,1.03.54-.11.65-1.13,1.63-1.58,8.49,1.91.15-1.4,9.62-.69Z"/>
        <path class="cls-29" d="M30.86,434.79c.1.58-.13,1.29.63,1.38-.55.78-1.92,1.07-3.05.58-14.94-6.5-7.41-4.97-13.09-8.79-.32-.22-5.12-5.71-2.82-7.57,1.76,1.52,4.74,1.46,6.68,5.5.7,1.47,3.27,1.85,4.2,3.09,2.77,3.73,6.62.79,7.46,5.82Z"/>
        <path class="cls-3" d="M47.99,441.17c-2.97.03-5.97.27-8.95-.02-.84-.08-2.85,0-2.82-1.09.05-1.6-.97-2.45-.33-3.5,2.38-1.13,4.5.24,6.57,1.56,1.87,1.19,3.98,1.72,5.53,3.05Z"/>
        <path class="cls-3" d="M7.37,412.71c-.48-.29-1.39.08-1.76-.24-1.29-1.11.15-1.38-1.16-3.9-.26-.51-1.29.17-2.04-.38-1.75-1.29-1.48-4.6-.51-6.18,1.04-.23,1.99,1.45,2.73,2.31,2.89,3.33,1.76,6.35,2.75,8.39Z"/>
        <path class="cls-3" d="M59.87,441.04c2.96-2.02,4.73,1.56,8.91-2.49,1.29,3.56-6.21,2.46-8.91,2.49Z"/>
        <path class="cls-3" d="M10.12,417.14c-.55,0-2.04.25-2.19-.68-.22-1.37-.05-2.69-.57-3.75,1.47.9,1.87,2.98,2.75,4.43Z"/>
        <path class="cls-3" d="M77.65,434.06c.29.7-.37,1.28-.67,1.69-.56.76-1.57.04-2.08.23-.41-.75-.23-1.63.47-1.88.84-.29,1.68-.26,2.28-.04Z"/>
        <path class="cls-3" d="M216.3,249.43c-1.26-.94-1.26-1.46-1.28-3.2,1.1.51,1.48,2.07,1.28,3.2Z"/>
        <path class="cls-3" d="M284.56,87.92c-.25.82-.76,2.05-1.41,2.52.06-.51.11-1.04.01-1.57-.18-.95.52-1.11,1.39-.95Z"/>
        <path class="cls-3" d="M32.85,436.1c-.52,0-.92.48-1.36.07-.76-.09-.53-.8-.63-1.38.61.43,1.74.49,1.99,1.31Z"/>
        <g>
          <path class="cls-147" d="M41.08,252.77c1.02,4.8-4.22,6.24-7.92,13.94-.87,1.8-1.45,3.82-3.44,4.63-.46-1.1-1.42.19-1.82.58-.62.59-.85,1.4-.19,2.1-2.79-.8-3.25,3.04-4.78,4.56-1.68,1.67-2.49,3.08-3.68,5.11-2.74,4.66-6.52,9.07-6.26,14.41.05,1.07-2.77,8.84-3.68,7.41-.89-1.36.29-2.81-.45-4.52-1.5-3.49.29-7.38-.89-11.07-.25-.78-2.32-.43-2.97-.29-.95.21-3.17,6.89-4.43,4.08-1.55-3.44.5-6.58,1.02-9.59.64-3.69,2.84-8.11,4.46-10.73l2.74-4.44c1.31-1.62,3.25-2.79,4.34-4.95-.94-1.33-2.38-.45-3.58-.65.88-3.45,8.63-5.44,11.89-8.16,1.15-.96,2.48-.5,3.68-.46,5.47.23,10.73-1.19,15.97-1.99Z"/>
          <path class="cls-3" d="M208.77,212.11l-2.43,1.25c3.76-1.94-7.36.52-7.76,5.54l-3.11-.55c-1-.18-2.48-.46-3.51-1.01l-3.97-2.12-.05-1.12c2.44-1.46,4.02-3.35,4.4-5.98.98-.34,2.3.14,2.97-.58.88-.92.52-2.47.86-3.44,2.88.69,4.68-1.03,6.82-2.61,1.89-1.4,3.35-2.15,4.75-4.38.92-1.47,3.59-2.82,4.19-4.58,1.16-.01.98,1.53,1.08,2.62.46,4.92.29,9.7-2.37,13.94-.69,1.1-1.98,1.78-1.87,3.04Z"/>
          <path class="cls-7" d="M41.08,252.77c-5.24.8-10.5,2.21-15.97,1.99-1.19-.05-2.53-.51-3.68.46.92-1.96-2.8-3.1-1.94-5.04.55-1.23,6.5.16,8.66-1.34,1.08-.75,1.39-2.52,3.47-2.77,1.53-.18,3.77.29,4.94-1.03.67-.75,1.07-1.47,1.61-1.65.83-.28,1.44.39,1.99,0,1.81-1.26,5.02-2.46,6.52-3.38.83-.51,5.72-1.92,8.35-.92.12,1.87.89,4.45-.46,5.48-1.44,1.1-2.7,1.81-3.83,3.09-1,1.14-2.78,1.9-3.99,2.93-1.8,1.52-3.68,1.87-5.68,2.18Z"/>
          <path class="cls-3" d="M8.79,268.96c.29-2.16,1.49-1.39,1.47-3.97,0-.56-.53-.82-.71-1.62,1.2.19,2.64-.68,3.58.65-1.1,2.16-3.03,3.33-4.34,4.95Z"/>
          <g>
            <path class="cls-114" d="M76.1,196.93l2.39,4.89c.88,1.8,3.02,2.81,3.03,5.14,0,1.45,1.92,2.41,2.09,3.47.29,1.83,1.99,2.13,2.8,2.99,1.52,1.63,2.89,3.67,4.96,5.09,1.41.96,2.59,2.13,2.72,3.83-.36,2.26-3.39.76-4.73,2.23-.92,1.01-.46,3.21-1.59,3.85-.79.45-2.38-.15-2.71.83-1.06,3.12.29,6.89-.96,9.83-1.16,2.73-2.92,5.42-2.25,8.44-.42.57-.24,2.24-.73,2.75-1.1,1.15-2.85.17-4.1.69-.7,1.33.03,2.92-.46,4.29-.46,1.27-2.5.56-3.37,1.17-1.1.79-.16,2.94-.61,4.26s-2.06.89-3.53.63c-.91,1.93.49,4.66-.9,6.77.27-.42-4.64,2.18-6.19,1.4l-.76,7.58c-1.45.23-2.47-.25-3.85-.19-.57,1.52-.73,2.81-.53,4.78l-2.93.6c-.18,1.91-.23,4.06-.86,5.6-.61.18-2.27-.39-2.6.53-.64,1.81.04,3.96-.96,5.53-.4.63-2.05.11-2.56.8s-.92,1.36-.82,2.65c.13,1.65-1.72,1.84-2.4,2.62-.9,1.04.11,2.92-1.05,4.01-.49.47-1.28.53-1.64.65-.41.14-2.42,6.12.51,8.88-2.01-.07-1.6,2.39-1.85,2.44-1.85.32-1.66,1.84-2.21,2.6-1.86,1.66-2.09,4.13-.61,6.05.3,1.93-2.38,3.35-4.19,3.36-.88,1.63-.56,3.36-1.68,4.77-1.31,1.64-1.64,3.7-2.55,5.52-1.18,2.38-.95,5.46.04,7.61,3.25,7.1,3.77,3.74,6.92,6.25-1.24,4.27,5.59,12.44,10.18,10.84-.2.12-.02,1.1-.26,1.09-3.13-.1-6.64.78-9.65-.28-.54-.19-.28-1.89-.69-2.16-2.77-1.84-.75,1.39-6.19-2.24-1.93-1.29-3.48-2.75-5.29-4.18-7.65-6.05-4.22-9.13-8.18-8.41-.47-1.5-1.14-4.22-2.01-5.3-.25-.31.36-1.14-.37-1.31-.47-.11-.84.05-.93.34-.14.44.11.8.15,1.09.35,2.4,1.12,4.98.48,7.97-3.95-5.33-.96-14.44-2.41-20.12-1.69-.23-2.76.23-4.17-.28-.7-8.31-.23-16.52,3.28-23.68.91,1.43,3.73-6.34,3.68-7.41,1.13-.59,1.72-2.45,1.94-3.86.33-2.07,2.07-2.51,2.67-3.74,4.31-8.75,6.59-8.59,10.11-16.49.86-.55,2.37-1.33,2.02-2.68,1.99-.81,2.57-2.83,3.44-4.63,3.7-7.7,8.94-9.14,7.92-13.94,2-.31,3.88-.66,5.68-2.18,1.22-1.03,2.99-1.79,3.99-2.93,1.13-1.29,2.39-1.99,3.83-3.09,1.35-1.03.58-3.61.46-5.48-2.63-1.01-7.52.41-8.35.92-.7-.44-.81-1.57-.43-2.05s1.61-.86,2.19-.75c3.13.61,3.39-2.81,4.62-3.75,2.53-1.94,6.88-4.05,6.13-8.65,1.69-.26,2.75-.2,4.02-.58l1.04-4.99c1.91,1.97,5.84-14.07,5.35-14.48,2.08-1.01,1.16-8.37,1.17-10.25.85-.19.51-1.13.96-1.15.78-.03,2.05-.36,2.11.08.1.78,1.44,4.27,2.26,3.49Z"/>
            <path class="cls-3" d="M13.28,341.49c-.45-.15-.72.62-1.15.13-.04-.29-.29-.65-.15-1.09.09-.29.46-.45.93-.34.73.17.12,1,.37,1.31Z"/>
            <path class="cls-67" d="M27.71,274.02c-3.52,7.89-5.8,7.74-10.11,16.49-.6,1.22-2.34,1.67-2.67,3.74-.23,1.41-.82,3.27-1.94,3.86-.26-5.34,3.52-9.75,6.26-14.41,1.19-2.03,2-3.44,3.68-5.11,1.53-1.52,1.99-5.36,4.78-4.56Z"/>
            <path class="cls-50" d="M20.4,333.41c-3.01,1.33-4.2-9.87-3.18-11.21l3.42-2.82c.37,2.79,1.87,13.1-.24,14.03Z"/>
            <path class="cls-46" d="M29.72,271.34c.35,1.35-1.16,2.13-2.02,2.68-.66-.7-.43-1.52.19-2.1.41-.38,1.36-1.68,1.82-.58Z"/>
          </g>
          <path class="cls-152" d="M123.62,205.16c2.2-.25,4.12.98,6.25.96-.28,1.27-.43,2.98-1.04,4.37-1.1,1.78-2.39,5.32.4,6.49,1.7.71,2.02,1.95,1.94,3.49-1.38.41-2.01-1.56-3.72-1.41-1.39.3-1.76-.61-.09-.65.97-4.81.1,2.18-.82-6.13-2.18-.23-4.19-.17-6.56.13.59,10.29,3.39,3.48,3.22,8.66-.98-.32-2.8.12-3.92-.64-1.37-.93-1.45-2.74-2.5-4.14-3.47.21-6.49-.94-9.48-.55.35-.86.51-1.82.52-3.14l4.45-.46c.58-1.09,1.06-7.74-1.28-6.89-1.14-1.39,9.33.28,12.64-.1Z"/>
          <g>
            <path class="cls-108" d="M284.56,87.92c-.87-.16-1.57,0-1.39.95.1.53.04,1.07-.01,1.57-.92,7.94-5.55,13.23-5.85,14.31-.53,1.9-1.28,3.07-2.19,4.21-1.09.03-2.27-.13-2.25,1.07.02,1.04-.65,1.72-.31,2.5.73,1.48-8.11,10.02-9.74,8.74-.28-.25-.07-.8-.31-.85-.32-.07-.95-.04-1.4.2-1.96,1.03-3.8-.29-4.57-1.85-.24-.63-.12-2.04.74-2.66.61-.44,1.52-.32,2.59-.4,1.86-.14,1.46-1.63,2.22-3.38.51-1.16,3.66-.99,4.54-2.58.83-1.5.57-3.15.97-4.85,2.25-.17,1.99-1.95,2.54-3.76.68-2.27,3.99-3.66,4.22-5.99.2-2.08,1.45-3.06,2-4.37,1.66-4.02,1.2-8.68,2.4-13.05l2.69-1.15.48-14.6c-.25,7.63,2.52-13.06,2.2-9.96.66-6.42.34-12.75,1.79-18.69,1.21-4.95,2.09-9.66,2.21-14.92-1.48,1.63-1.45,3.82-2.67,5.63-.29.42-1.28.35-1.59.6-.48.39-.75,1.17-.64,2.05.19,1.54-1.31,2.11-1.71,3.1-.43,1.08-.03,1.89-.81,2.34s-1.57.08-2.47.29c-1.12.25-.38,1.8-.59,2.46-.18.55.02,1.1.05,1.63.06.96-1.49.67-1.71,1.21-.65,1.58-.4,4.36-2.15,5.36-.7.4-2.09-.44-2.42.42-.18.48-.47,1.2-1.06,2.04-.87,1.23-.24,4.05-2.25,4.39-1.51.26-3.23.7-3.03,2.68.44,4.38-2.95-.65-3.28,8.02-.75.15-2.12.92-2.84,1.21-3.26,6.06,1.03,5.24-7.53,8.2-1.27.44-.78,2.62-1,4.16-1.09.25-2.34-.59-3.15.18-2.49,2.38-1.29,3.86-2.17,5.47-.37.67-1.39.28-2.36.58-1.66.51-1.27,2.86-1.32,4.2-1.1,1.07-2.45.43-3.69,1.39.96,2.8-.88,4.28-2.37,6.1-.73.34-2.05-.12-2.72.65-.82.94-.38,2.89-1.49,3.65-1.32.9-2.9,1.67-4.33,3.3-1.18,1.34,1.16,3.75,2.1,5.08l3.45,4.84c1.34,1.88,1.96,3.37,3.23,5.47l2.23,3.67c-.04,3.07.79,6.32,1.05,9.3l-1.09,6.18c-.45,2.58-4.05,2.93-5.72,1.52-.12-2.19.18-4.5-1.37-6.56-1.86-2.48-1.16-6.28-2.17-9.42l-3.15.2c-.16-1.05-.42-2.36-1.92-2.16,1.37,11.52,1.03,22.81.19,34.35.07-.9,3.01,13.82,3.93,11.47-.83,2.38,5,8.56,7.24,7.85.65-.2,1.53,1.3,2.24,1.53-.2,2.16-3.04,1.52-3.7,2.43-4.36-3.03-5.37-1.49-7.04-2.74-.4-.3-.42-1.11-.81-1.21-1.22-.29-2.54,4.96-2.28,6.52s-.87,1.99-1.23,3.02c-.9,2.62-1.83,9.52-2.15,9.76-.53.4-1.95-.3-1.93-1.41.06-5.95.08-11.64.57-17.45.29-3.47,1.1-7.36.1-10.6-1.65-5.32,1.49-9.81.18-16.72l-2.07,4.52c-1.69,3.7-2.94,6.77-5.86,9.7-1.07,1.08-1.23,3.67-3.31,2.84.07-3.48,2.14-7.01,1.83-10.5-.19-2.21-.69-4.16-.39-6.57.61-4.82.65-9.65.14-14.25-.09-.79-1.3-1.6-.8-2.72.75-1.69-1.25-2.11-1.45-3.16l-1.45-7.4c-1.45-.24-2.83-1.33-3.67-2.65-.63-1-.98-2.81-1.68-3.94l-2.64-4.29c-.9-1.46-2.48-2.07-3.67-3.97.11,3.21,2.11,5.24.96,8.28-1.11.26-2.09-.69-3.44-.54l-.2,4.31c-.57-.29-1.31-.01-1.74-.35-.53-.4-.48-1.31-.64-2.13-.31-1.63-2.09-1.69-3.26-1.96-.93-3.17-3.41-5.3-5.76-7.06-1.29-.97-6.38-7.9-12.87-5.23-2.57,1.06-3.83,3.96-4.76,6.06-3.75,2.35.59-7.49,1.9-8.84-5,5.17,16.36-16.16,6.51-7.39,5.48-4.88,15.51,3.33,15.5-6.55-9.09-.02-14.01,1.37-19.98,8.25-10.45,12.05-4.2,4.68-8.2,16.54-.72,2.14-1.43,3.26-3.69,4.55-1.31.74-2.28,2.73-3.29,3.7-.4.38-1.25.56-1.39,1.19-.82.24-1.88,1.01-2.73.33-1.63-1.29-.16-3.59-1.13-4.81l-3.82-4.83c-1.27-1.6-3.05-2.34-4.02-3.36s.19-3.84-1.4-4.6c-1.4-.67-3.06,5.67-3.25,6.6-1.95-.32-2.89,6.13-4.26,6.7-2.38,1-2.38,3.51-3.66,4.73-2.61,2.49-5.34,4.56-7.67,7.43.84-1.03-5.66,4.09-5.88,4.88-2.04-1.9-4.07,2.47-8.57,2.13.36-3.16.37-6.36,1.33-9.39l4.65-14.64,1.84-4.15c1.18-2.67,3.3-4.64,4.71-7.47-4.16.41-4.7,6.37-8.55,9.33-9.33-1.93-2.84.47-8.61.33-1.6-1.76,3.91-10.03,5.95-11.73,1.16-.98,2.07-1.42,2.8-2.98.67-1.44,2.9-1.81,3.78-3.05,4.76-6.74,13.64-6.33,22-9.73,2.1-.86,4.24-.14,6.47-.09,5.43.14,9.87,2.06,13.98,5.35.43.34,1.5-.09,1.74.45.21.49-.15,1.83.21,2.06,5.2,3.46,3.2,11.4,5.34,5.14l3.02-8.84c.98-2.88,5.69-9.01,4.61-9.68-1.66.42-3.54.9-5.46-.25,1.82-2.99,7.37-15.47,2.41-15.99,2.62-4.72-7.04,3.95-10.51,3.08.11-3.7,2.62-6.58.08-6.78-2.06-.17-.9,4.05-3.3,4.39-1.56-2.01-4.37-2.66-6.67-3.48-.48-.17-1.23-2.16-1.9-1.09-.9,1.46.11,3.43-.52,5.24-5.13-1.82-10.58-5-12.6-9.64l-1.55-3.54c-1.28.36-1.91-.21-2.45-.68-.1-.09-1.94-7.69-2.41-9.5-.29-1.1-1.74-2.19-1.09-3.64.56-.86.79-1.9,1.74-2.87-.45-2.34-1.13-5.68.29-7.84,1.07-.33,3.23.43,4.12.02,3.22-1.47,3.34,1.92,4.84,2.56,2.12.91,4.7,1.43,5.17,4.17,6.49-.5,4.08,3.73,6.99,4.41,1.13.27,3.9.31,3.84-.95l-2.51-7.02c-2.78.4-4.31-1.5-6.33-2.27l-11.85-4.52c2.7-2.05,5.36-.53,7.64-.37,5.1.35,8.72,2.56,12,6.38,2.73,3.19,8.39,9.96,8.27,13.91-.09,3.15,4.09-1.59,6.27,7.3,2.29-1.34,1.47-3.94,2.09-5.84.36-1.1.88-3.14-.89-3.5-.9-.18-1.75.04-2.28-.19-1-.44-1.04-1.07-1.01-2.27.04-1.35-2.24-2.02-2.31-2.96-.18-2.38-1.33-3.06-2.69-4.37-2.79-2.7-5.35-5.15-8.51-7.35,2.32-1.34,3.88.13,5.47-.53,1.65-.69,11.09,4.31,10.8,7.66-.55-.14-.92.37-.78.97.05.24.44.42.9.35.23-.03.76.11.43-.45,2.25,1.97,2.58,5.12,4.31,8.09,1.47,2.52,2.77,5.44,2.78,8.12,0,.37-.4.95-.2,1.57.17.53.92.32,1.31.34.98.83,2.64,2.17,3.72,3.2,6.18.25,10.94,4.32,12.04,10.2-.77.29-4.05-.83-3.72,1.08.43,2.51,3.1-.07,3.29,3.97,1.34.58,2.57-.17,3.45.32,1.65.92,3.68,1.79,3.97,3.77-1.05.39-.68.89.52.83-.12,1.36.6,1.46.82.38,9.48,3.57,7.36,15.66,16.29,10.35,1.16.46,4.08.69,4.87-.58.62-.99-.28-2.62.34-3.26.66-.7,1.79-.7,2.97-.69,1.68,0,1.12-2.02,1.72-3.1.86-1.57,3.12-1.43,4.51-1.91.87-1.96.17-3.91.75-5.66.3-.4.57-1.05,1.13-1.18,1.09-.1,2.63.19,3.19-.92.46-.91.72-1.96.73-2.91.11-.93,1.32-1.23,1.76-1.77-.08.73.6.5.87.2,1.4-1.57,3.47-.02,4.17-1.39.28-.54.5-1.53.19-2.17.43-.21.85-.59,1.33-.69l2.49-.55c.59-.13,1.03-.97.64-1.93.51-.32,1.07-.94,1.64-1.14,1.76-.56,3.63-.78,5.83-1.33,1.54-.39,2.27-3.49,1.12-4.42,2.75-.03,3.98-4.11,7.72-6.19,5.27-2.94,11.71-11.89,15.63-13.96.46-.24.95-.6,1.6-1.3.37-.39,1.61.4,1.98-.59.22-.6.42-1.32.35-2.05-.1-1.06,1.19-1.53,1.28-2.53.98.45,1.7.2,2.46-.22,1.09-.61,1.03-1.77,1.09-2.64l.1-1.41c.55-.09,1.52.31,1.9-.31.24-.4-.2-1.12.14-1.53,1.54-1.91,4.66-12.28,5.14-5.72l.47,6.38c.99,13.4-.48,26.17-.76,37.6l-.41,16.59c-.03,1.26-.56,3.56-1.17,4.46-1.49,2.19-3,4.43-2.23,7.52.43,1.7-2.89,10.98-3.57,13.22Z"/>
            <path class="cls-79" d="M233.36,175.5c-1.06,1.46-3.27.35-5,.61-1.94,8.14-6.03.03-5.5,13.74.08,2.05-2.14,2.32-2.74,3.29-1.51,2.43-.92,5.29-2.59,7.69-1.49,2.14-2.65,6.67-6.06,9.18-.8.59-1.21,2.62-2.71,2.11-.11-1.26,1.19-1.95,1.87-3.04,2.65-4.24,2.82-9.02,2.37-13.94-.1-1.08.07-2.63-1.08-2.62,1.04-3.04,1.55-6.79.94-9.85l-.88-4.43c-.26-1.32.91-3.67-.41-4.84-1.07-.94-3.19-.67-3.99.05-1.13,1.02-2.18,1.69-2.09,3.24-.45-.55-1.51.45-1.82.11-.65-.69-1.72-.92-2.17-1.81-.94-1.82,1.55-7.55,2.79-8.93,2.4-.54,1.67-3.48,3.24-4.34,2.08.83,2.24-1.76,3.31-2.84,2.92-2.93,4.16-6,5.86-9.7l2.07-4.52c1.31,6.91-1.82,11.4-.18,16.72,1,3.24.19,7.13-.1,10.6-.48,5.8-.5,11.49-.57,17.45-.01,1.11,1.4,1.81,1.93,1.41.32-.24,1.24-7.14,2.15-9.76.36-1.03,1.5-1.39,1.23-3.02s1.06-6.81,2.28-6.52c.39.09.41.91.81,1.21,1.67,1.25,2.69-.3,7.04,2.74Z"/>
            <path class="cls-132" d="M103.5,34.34c4.71,3.97,7.78,11.53,14.91,13.14,1.89,3.89,8.03,6.15,8.59,7.93.28.9,2.25.57,2.41,1.54-7.28.08-14.72-.05-21.97,2.16-.53.16-5.9,4.46-6.52,3.52-1.25-1.83-2.6-3.64-3.13-6.02l-5.73-.83c-.66-3.8.95-6.96,2.02-10.26.6-1.86.88-2.44,3.02-3.13,1.26-.77.48-4.12,1.48-5.52,1.06-1.47,3.45-2.58,4.91-2.53Z"/>
            <path class="cls-43" d="M66.3,173.03c.24.91,1.34.49,2.5.79-.42,2.49-1.16,4.71-.25,7.36,2.94.64.32-7.89,5.16-6.86-.75,2.27-.22,15.27.3,15.83.31.33,1.33-.06,1.48.25.65,1.37.54,3.34.52,4.7,0,.59.05,1.22.08,1.83-.82.78-2.16-2.71-2.26-3.49-.06-.45-1.33-.12-2.11-.08-.45.02-.11.96-.96,1.15-.12-.63-.14-1.02-.57-1.35-.32-.25-2.01.56-2.25.22-3.39-4.73-3.66-11.47-3.11-17.16.03-.3.31-.61.13-.95-.16-.3-.47-.45-.94-.32-.26.07-.48.39-.33.71-10.19,6.33-20.49-5.15-17.96-5.02l1.49.08c5.34.28,9.58-1.38,12.26-5.85.72-1.2,2.24-1.99,2.46-3.82s1.98-3.04,2.37-4.4c1-3.44.17-6.91.53-10.29-1.58-.04-2.81.11-2.9-.97s.16-1.97-.18-2.67c.49-.14.72-.49,1-.61.87-.36.84.92,1.31,1.06.87.27,1.57.18,2.08.05.41-.11,1.05-.65.05-2.07,1.04-.17,1.7-.95,1.9-1.96.39.42.87.22,1.11.52.1.13.64,10.58-1.6,15.8-.17.39-1.55.1-1.81.5-1.7,2.66,1.74,7.39,1.34,6.45.88,2.04.26,5.78-1.08,6.14l-1.11.3c-.46.12-1.04.62.21,1.13s-.3,2.58-.87,3.47c1.05.63,1.32-.48,2-.48Z"/>
            <path class="cls-135" d="M152.68,15.26c-1.59.66-3.15-.81-5.47.53,3.16,2.2,5.72,4.65,8.51,7.35,1.36,1.32,2.51,2,2.69,4.37.07.94,2.35,1.6,2.31,2.96-.04,1.19,0,1.83,1.01,2.27.53.23,1.38.01,2.28.19,1.77.35,1.25,2.4.89,3.5-.62,1.9.2,4.5-2.09,5.84-2.19-8.89-6.37-4.14-6.27-7.3.12-3.95-5.54-10.72-8.27-13.91-3.28-3.82-6.9-6.03-12-6.38-2.28-.16-4.94-1.67-7.64.37l11.85,4.52c2.02.77,3.55,2.67,6.33,2.27l2.51,7.02c.06,1.25-2.71,1.21-3.84.95-2.91-.69-.5-4.91-6.99-4.41-.47-2.75-3.05-3.26-5.17-4.17-1.5-.64-1.62-4.03-4.84-2.56-.89.4-3.05-.35-4.12-.02-1.42,2.16-.74,5.5-.29,7.84-.96.97-1.18,2.01-1.74,2.87-1.17-.43-2.53-.45-3.82-1.23-.92-3.19-.7-6.8.61-9.71.15-.33,1.7.21,1.72-.46,0-.32.35-2.73.07-3.2-.83-1.38.44-2.71,1.25-3.4,1.33-1.13,2.7.31,3.9.26,5.48-.25,10.25-.91,15.5.55,3.35.94,8.29.13,11.13,3.1Z"/>
            <path class="cls-33" d="M129.41,56.94c1.49-.02,3.12,1.85,5.23,1.07.35,1.62.99,3.8.58,5.07-1.58,1.97-2.2-1.58-3.11-2.11-3.63-2.11-8.87-1.22-12.81-.54-7.5,1.3-2.81,2.84-12.67,5.64-2.44.69-1.32,3.37-2.48,4.24l-11.89,8.94c-2.11,1.59-3.9,3.97-6.34,5.04-.66,1.22-.9,3.3-2.41,4.8-.6-.32-.25-1.08-.39-1.8-.4-2.17.97-4.92-.35-6.88-1.19-1.78-1.23-3.54-1.53-5.17,1.54-.14,3.84-.92,5.46.13.47-1.05,1.36-1.07,1.89-.99,1.91-1.78,2.95-4.39,4.91-5.81,1.69-1.22,3.47-1.86,4.83-3.79.39-.55,1.71.08,1.93-.5s.8-1.02.65-1.66c.62.94,5.98-3.36,6.52-3.52,7.25-2.21,14.69-2.08,21.97-2.16Z"/>
            <path class="cls-117" d="M262.81,121.28c-.87-.08-.97,1.04-1.01,1.91-.12,2.34-2.32,3.01-3.65,4.4-10.88,11.35-6.9,3.63-12.44,9.88-1.03,1.16-4.86.49-5.37,2.75-.58-.07-1.76-.64-2.16-.01-.15.24-.33.48-.91.93l-5.7.28c.23-1.35-.14-3.13-.6-4.35.54-.01.92-.82,1.11-1.26,1.68,1.41,5.27,1.06,5.72-1.52l1.09-6.18c3.13-.54,6.65-.46,9.95-.51.26-1.61,1.8-2.71,2.62-3.68.95-1.12.84-3.45,2.47-3.4.59.02,1.5.19,1.78-.37.18-.35.56-.98.81-1.37.76,1.56,2.61,2.88,4.57,1.85.45-.24,1.08-.27,1.4-.2.25.05.04.6.31.85Z"/>
            <path class="cls-136" d="M232.07,135.81c-.19.45-.57,1.25-1.11,1.26-.33,0-1.24-.64-1.47.15-.78,2.67-.1,5.97,1.46,8.12.64.88.21,2.5,1.14,3.04,1.74,1.01.75,2.89,1.49,4.27.4.76,1.04,1.65,0,2.09-.36.15-.95-.03-1.49-.07.51-1.07-1.09-1.43-1.52-2.01-1.58-2.08.13-5.06-2.09-7.1-.98,5.26-.8,9.85-.4,14.29.11,1.2.58,3.19-.5,3.84-.92,2.35-3.87-12.37-3.93-11.47.84-11.53,1.18-22.83-.19-34.35,1.5-.2,1.76,1.11,1.92,2.16l3.15-.2c1.02,3.13.32,6.94,2.17,9.42,1.55,2.07,1.25,4.38,1.37,6.56Z"/>
            <path class="cls-59" d="M118.41,47.47c-7.13-1.61-10.2-9.17-14.91-13.14-.08-.87-.69-2.08-.63-2.87.26-3.03,3.35-2.2,3.87-3.08,1.06-1.82-.14-5.23,4.23-5.94.67-.11,1.59-1.38,1.79-2.01,3.68,1.39-.02,3.45.28,9.39.38,7.57,4.39,11.97,5.37,17.66Z"/>
            <path class="cls-102" d="M212.62,76c0-.97,1.07-1.34,1.87-2.01,2.35-1.98,3.63-5.05,6.25-6.93,1.48-1.07,2.96-1.22,3.85-3.03.65-1.32,2.38-2.19,3.17-3.24-.57,1.75.12,3.71-.75,5.66-1.39.48-3.64.34-4.51,1.91-.59,1.08-.03,3.11-1.72,3.1-1.18,0-2.3,0-2.97.69-.62.65.28,2.27-.34,3.26-.79,1.27-3.7,1.04-4.87.58Z"/>
            <path class="cls-3" d="M232.09,154.67c-1.19,1.88-2.2,3.86-4.01,5.18-.4-4.44-.58-9.03.4-14.29,2.22,2.05.51,5.02,2.09,7.1.44.57,2.04.94,1.52,2.01Z"/>
            <path class="cls-3" d="M187.98,55.29c.39,2.09,2.78,3.21,3.02,5.37-.88-.49-2.11.26-3.45-.32-.19-4.04-2.87-1.46-3.29-3.97-.32-1.9,2.96-.79,3.72-1.08Z"/>
            <path class="cls-13" d="M245.89,46.34c.35-2.14,2.34-3.48,4.4-3.42-.24-1.87,1.52-2.32,2.56-2.33,1.15.92.42,4.03-1.12,4.42-2.2.55-4.07.76-5.83,1.33Z"/>
            <path class="cls-3" d="M230.96,137.07c.45,1.22.83,3,.6,4.35s-.77,2.53-.61,3.93c-1.56-2.15-2.25-5.45-1.46-8.12.23-.8,1.15-.15,1.47-.15Z"/>
            <path class="cls-11" d="M228.88,59.6c-.03-1.96,2.1-3.65,3.92-3.83-.01.96-.27,2-.73,2.91-.56,1.11-2.1.82-3.19.92Z"/>
            <path class="cls-32" d="M234.57,54c1.32-1.59,3.39-2.45,5.22-3.35.31.64.09,1.63-.19,2.17-.7,1.37-2.77-.18-4.17,1.39-.26.29-.94.52-.87-.2Z"/>
            <path class="cls-105" d="M276.2,20.45c.25-1.96,2.26-3.11,3.92-3.94.07.73-.13,1.45-.35,2.05-.36.99-1.61.2-1.98.59-.65.7-1.14,1.05-1.6,1.3Z"/>
            <path class="cls-10" d="M281.4,13.98c.05-.51,3.33-3.01,3.56-2.86-.06.87,0,2.03-1.09,2.64-.76.42-1.48.66-2.46.22Z"/>
            <path class="cls-77" d="M244.25,47.48c.39.96-.05,1.8-.64,1.93l-2.49.55c.4-1.38,1.56-2.94,3.13-2.48Z"/>
            <path class="cls-10" d="M285.06,9.71c.06-.82,1.14-1.76,2.03-1.84-.33.41.1,1.13-.14,1.53-.37.62-1.34.22-1.9.31Z"/>
            <path class="cls-3" d="M196.32,65.65c-.22,1.08-.95.98-.82-.38-1.21.06-1.57-.45-.52-.83.45-.34.83.1,1.17.46.23.24.53.42.17.75Z"/>
            <path class="cls-3" d="M172.23,41.89c-.39-.02-1.14.19-1.31-.34-.2-.62.2-1.2.2-1.57.66.37.62,1.36,1.11,1.91Z"/>
            <path class="cls-108" d="M164.03,23.78c-.39-.13-.88-.43-.55-.87.61-.28.53.5.55.87Z"/>
            <path class="cls-127" d="M259.86,115.72c-.02-1.13-.77-.56-1.45,0-.65-.49-1.16-.89-1.72-.43-.41.33-.4.9-1.15,1.7.47-1.28-1.08-3.83-.69-5.17,4.18-4.54,6.3-12.98,6-19.38-.73-.37-1.83.18-2.16-.58-.88-2.03-1.29-10.56-.01-12.26,1.14.22,5.96-6.25,5.87-7.92.14-1.13,2.2-1.62,2.95-2.95-1.37-1.65-1.37-3.48-.09-5.35-.33-.64-.28-1.57-.61-1.81,1.02-5.2,3.94-10.12,8.66-12.74.09-6.34,9.09-12.06,2.18-13.94.21-.67-.53-2.21.59-2.46.9-.2,1.74.13,2.47-.29.78-.44.39-1.26.81-2.34.39-.99,1.89-1.56,1.71-3.1-.11-.89.16-1.66.64-2.05.31-.25,1.3-.18,1.59-.6,1.22-1.81,1.19-4,2.67-5.63-.11,5.26-.99,9.97-2.21,14.92-1.45,5.94-1.14,12.27-1.79,18.69.32-3.1-2.45,17.59-2.2,9.96l-.48,14.6-2.69,1.15c-1.2,4.37-.73,9.03-2.4,13.05-.54,1.32-1.8,2.29-2,4.37-.22,2.33-3.53,3.72-4.22,5.99-.55,1.81-.29,3.59-2.54,3.76-.39,1.7-.14,3.35-.97,4.85-.87,1.59-4.03,1.41-4.54,2.58-.76,1.74-.37,3.24-2.22,3.38Z"/>
            <path class="cls-100" d="M266.78,61.58c.33.24.28,1.17.61,1.81-1.28,1.87-1.28,3.7.09,5.35-.75,1.33-2.82,1.83-2.95,2.95.09,1.66-4.73,8.13-5.87,7.92-1.27,1.7-.86,10.24.01,12.26.33.76,1.43.21,2.16.58.31,6.41-1.81,14.84-6,19.38-.38,1.34,1.16,3.88.69,5.17.76-.8.74-1.37,1.15-1.7.57-.46,1.08-.06,1.72.43.68-.56,1.43-1.14,1.45,0-1.07.08-1.98-.04-2.59.4-.86.62-.98,2.02-.74,2.66-.25.39-.63,1.02-.81,1.37-.29.56-1.2.39-1.78.37-1.63-.06-1.52,2.27-2.47,3.4-.82.98-2.36,2.07-2.62,3.68-3.3.05-6.83-.03-9.95.51-.26-2.99-1.08-6.24-1.05-9.3.02-2.06,4.6-5.71,4.69-12.58.01-.78-.54-1.72-.11-2.43.29-.47.97-.35,2.14-.9-.67-.47-2.69-1.8-1.65-2.67.61-.5,1.79-.47,2.62-.36.95-1.07.79-2.78,1.11-4.22-3.12-.97-11.46,1.2-9.23-2.5-.37-.68-1.53-1.15-2.05-1.01,1.49-1.83,3.33-3.31,2.37-6.1,1.24-.96,2.59-.32,3.69-1.39.05-1.33-.34-3.69,1.32-4.2.97-.3,1.99.09,2.36-.58.88-1.61-.32-3.09,2.17-5.47.81-.77,2.06.07,3.15-.18.22-1.55-.27-3.73,1-4.16,8.55-2.96,4.27-2.14,7.53-8.2.72-.29,2.09-1.07,2.84-1.21,1.66-.33,3.51.36,5,.94Z"/>
            <path class="cls-141" d="M109.01,106.29c-3.66-3.57-9.94,23.24-8.54,25.74-2.38.64-4.54,1.78-5.68,3.83l-5.19,9.36c-2.51-6.15,1.5-24.77,3.68-29.59l5.11-11.3c5.77.14-.72-2.26,8.61-.33,3.84-2.96,4.39-8.93,8.55-9.33-1.41,2.83-3.52,4.8-4.71,7.47l-1.84,4.15Z"/>
            <path class="cls-17" d="M235.37,92.14c.52-.14,1.67.33,2.05,1.01-2.23,3.7,6.11,1.54,9.23,2.5-.32,1.43-.16,3.14-1.11,4.22-.83-.1-2.01-.14-2.62.36-1.04.87.98,2.2,1.65,2.67-1.17.54-1.85.42-2.14.9-.44.71.12,1.65.11,2.43-.09,6.87-4.67,10.52-4.69,12.58l-2.23-3.67c-1.27-2.1-1.89-3.58-3.23-5.47l-3.45-4.84c-.94-1.33-3.28-3.73-2.1-5.08,1.43-1.63,3.01-2.41,4.33-3.3,1.11-.76.67-2.71,1.49-3.65.67-.77,1.99-.31,2.72-.65Z"/>
            <path class="cls-82" d="M207.53,161.72c-1.57.86-.84,3.8-3.24,4.34.34-3.66-.82-7.37-.46-11.32l.39-4.3.04-19.63c.02-8.49-4.78-12.74-2.51-16.35.84,1.32,2.22,2.4,3.67,2.65l1.45,7.4c.21,1.05,2.21,1.47,1.45,3.16-.5,1.12.71,1.94.8,2.72.51,4.6.48,9.43-.14,14.25-.31,2.41.19,4.36.39,6.57.3,3.49-1.77,7.02-1.83,10.5Z"/>
            <path class="cls-30" d="M266.78,61.58c-1.49-.59-3.34-1.27-5-.94.33-8.67,3.72-3.64,3.28-8.02-.2-1.98,1.52-2.42,3.03-2.68,2.01-.34,1.38-3.16,2.25-4.39.59-.83.87-1.56,1.06-2.04.33-.86,1.72-.02,2.42-.42,1.75-1,1.5-3.78,2.15-5.36.22-.53,1.77-.24,1.71-1.21-.03-.53-.23-1.07-.05-1.63,6.92,1.88-2.09,7.6-2.18,13.94-4.72,2.62-7.64,7.54-8.66,12.74Z"/>
            <path class="cls-93" d="M162.04,103.66c.47-.02.89-.05,1.93.1-3.83,1.42-2.6,2.05-6.19,1.91,4.01-11.87-2.25-4.49,8.2-16.54,5.97-6.89,10.89-8.27,19.98-8.25,0,9.88-10.02,1.67-15.5,6.55,9.85-8.77-11.52,12.56-6.51,7.39-1.31,1.36-5.65,11.2-1.9,8.84Z"/>
            <path class="cls-19" d="M201.75,114.47c-.72.22-1.84.38-2.46.99.02,2.41.45,4.37-.6,5.95-5.14-.6.49-1.89-5.28-4.31-1.18-.5-1.38-2.28-2.33-2.78l.2-4.31c1.36-.15,2.34.8,3.44.54,1.15-3.04-.85-5.07-.96-8.28,1.2,1.89,2.77,2.51,3.67,3.97l2.64,4.29c.69,1.13,1.04,2.94,1.68,3.94Z"/>
            <path class="cls-3" d="M164.03,23.78c.33.56-.2.42-.43.45-.47.07-.85-.12-.9-.35-.14-.59.24-1.11.78-.97-.33.43.16.74.55.87Z"/>
            <path class="cls-120" d="M85.12,177.55c.43.13.16.76.7.65,1.71,12.29-.71,22.21,5.72,33.96.17,1.81,2.63,7.1,4.67,6.12.51-.24,1.21-1.6,1.06-2.24-.55-2.34,1.72-2.4,2.32-3.32,2.38-3.67,1.7-8.27,2.82-12.22.21-.4,1.32-.08,1.71-.28.48.57,1,1.44,1.16,2.53l5.3,1.17c0,.56-.5,1.32.4,1.33,2.34-.85,1.87,5.8,1.28,6.89l-4.45.46c-.01,1.32-.17,2.28-.52,3.14-1.24.16-6.14.7-4.96,2.9-1.99.68-4.3.35-6.34.65-.41,1.07.08,1.89-.13,3.18-.13.8-1.38.16-1.79-.12-.13-1.7-1.31-2.87-2.72-3.83-2.07-1.42-3.44-3.45-4.96-5.09.69-.62.93-1.27,1-1.93.12-1.04-1.24-1.31-1.41-2.01-.38-1.63-2.96-8.3-3.61-9.49-1.43-2.62-1.1-5.74-2.73-8.4-1.23.96-.55,2.77-1.57,3.31-.51.27-1.34-.29-2.06.2.02-1.37.13-3.34-.52-4.7-.15-.31-1.17.08-1.48-.25-.52-.56-1.05-13.56-.3-15.83-4.84-1.03-2.23,7.49-5.16,6.86-.91-2.65-.17-4.87.25-7.36-1.16-.3-2.26.12-2.5-.79-.62-4.82,2.81-7.02,5.44-14.69.58-1.69,2-.9,3.02-.34,1.78.97-2.14,2.57,2.63,5.91,1.83,1.28-.64,7.22,4.2,6.44.37.44,2.78,10.01,3.52,7.2Z"/>
            <path class="cls-118" d="M86.4,213.43c-.81-.87-2.5-1.16-2.8-2.99-.17-1.07-2.08-2.03-2.09-3.47,0-2.33-2.15-3.34-3.03-5.14l-2.39-4.89c-.03-.61-.09-1.24-.08-1.83.72-.48,1.55.07,2.06-.2,1.02-.54.35-2.34,1.57-3.31,1.63,2.65,1.3,5.78,2.73,8.4.65,1.19,3.23,7.86,3.61,9.49.16.7,1.52.97,1.41,2.01-.07.66-.32,1.31-1,1.93Z"/>
            <path class="cls-110" d="M90.15,174.39c-1.61-.1-4.31,2.03-4.33,3.81-.54.11-.27-.52-.7-.65-.26-.55.86-12.4.9-12.48,1.12-2.68-.96-9.03,3.78-10.99,1.03,6.69-.11,13.56.35,20.32Z"/>
            <g>
              <path class="cls-72" d="M120.9,14.75c.28.47-.06,2.87-.07,3.2-.02.67-1.57.13-1.72.46-1.31,2.92-1.54,6.53-.61,9.71,1.3.77,2.65.8,3.82,1.23-.65,1.45.8,2.54,1.09,3.64.47,1.81,2.3,9.41,2.41,9.5.53.47,1.17,1.03,2.45.68l1.55,3.54c2.03,4.64,7.47,7.83,12.6,9.64.63-1.81-.38-3.78.52-5.24.66-1.07,1.41.92,1.9,1.09,2.31.82,5.12,1.47,6.67,3.48,2.39-.35,1.24-4.56,3.3-4.39,2.54.2.02,3.08-.08,6.78,3.47.88,13.14-7.79,10.51-3.08,4.96.52-.59,13-2.41,15.99,1.92,1.14,3.8.67,5.46.25,1.08.67-3.63,6.8-4.61,9.68l-3.02,8.84c-2.14,6.26-.14-1.69-5.34-5.14-.36-.24,0-1.57-.21-2.06-.23-.54-1.31-.11-1.74-.45-4.11-3.3-8.55-5.21-13.98-5.35-2.23-.06-4.37-.77-6.47.09-8.36,3.41-17.24,2.99-22,9.73-.88,1.24-3.11,1.61-3.78,3.05-.72,1.55-1.63,2-2.8,2.98-2.04,1.71-7.54,9.97-5.95,11.73l-5.11,11.3c-2.18,4.82-6.19,23.44-3.68,29.59l5.19-9.36c1.14-2.05,3.3-3.19,5.68-3.83-1.4-2.5,4.88-29.3,8.54-25.74l-4.65,14.64c-.96,3.03-.97,6.23-1.33,9.39,4.5.34,6.54-4.03,8.57-2.13-.61,2.2-2.81,3.24-4.37,4.97l-6.19,6.85c-.73.03-1.57.03-2.19.3-.85.37-.19,1.69-.56,2.55-.73,1.66-2.16,2.69-2.28,4.36-.1.51-1.01.64-.72,1.29-1.59,1.22-3.6,2.52-4.35,4.39-.53.14-.71.86-1.14,1.17-4.74,1.97-2.66,8.32-3.78,10.99-.03.08-1.16,11.93-.9,12.48-.74,2.8-3.15-6.76-3.52-7.2-4.84.77-2.37-5.16-4.2-6.44-4.78-3.34-.85-4.93-2.63-5.91-1.02-.56-2.44-1.35-3.02.34-2.63,7.67-6.06,9.86-5.44,14.69-.68,0-.95,1.11-2,.48.57-.89,2.12-2.96.87-3.47s-.68-1.01-.21-1.13l1.11-.3c1.34-.36,1.96-4.1,1.08-6.14.41.94-3.04-3.79-1.34-6.45.26-.41,1.64-.11,1.81-.5,2.24-5.22,1.7-15.67,1.6-15.8-.24-.31-.72-.1-1.11-.52-.1-.85.82-1.58.47-2.14-.54-.86-1.42-1.06-2.25-1.45-.27-.31.91-1.38.1-1.75,1.99-.07.49-6.25,1.27-9.35.2-.8,2.78-.43,2.84-2.03.04-.91.03-2.59-.91-2.9l-.21-16.57c1.68.23,3.4-1.11,3.46-3.15.72-.35.92-.53,1.15-.6.5-.16,1.03-.87.45-1.28,5.42-2.01,2.68-4.76,4.73-6.71,2.4-2.28-1.39-.76,3.91-3.98.13.72-.22,1.48.39,1.8,1.51-1.5,1.75-3.57,2.41-4.8,2.44-1.07,4.23-3.45,6.34-5.04l11.89-8.94c1.16-.87.04-3.55,2.48-4.24,9.86-2.8,5.17-4.34,12.67-5.64,3.94-.68,9.18-1.57,12.81.54.9.52,1.53,4.08,3.11,2.11.41-1.27-.23-3.45-.58-5.07-2.11.78-3.74-1.09-5.23-1.07-.16-.97-2.12-.65-2.41-1.54-.56-1.78-6.7-4.03-8.59-7.93-.98-5.69-4.99-10.09-5.37-17.66-.3-5.94,3.39-7.99-.28-9.39.16-.52.03-1.57,1.19-1.65,4.15-.27-.6-3.91,6.95-4.03Z"/>
              <path class="cls-108" d="M101.56,91.85c-4.37,5.97-2.85,4.48-14.04,7.45,3.28-8.25,5.28-9.45,11.23-14.78,1.8-1.61,4.08-2.43,5.96-3.61,4.26-2.67,9.34-1.17,9.31-1.22,1.09,1.68-7.51,5.42-12.46,12.16Z"/>
              <path class="cls-73" d="M81.41,92.77c.09,1.63-.67,1.82-.77.35.07-.73.41-1.02.77-.35Z"/>
            </g>
            <g>
              <path class="cls-47" d="M6.92,8.39c-.33,1.14.57,1.5,1.28,1.95,2.12,1.36,2.94,4.06,4.72,5.97l4.39,4.7c2.52,2.7,4.66,5.59,7.21,8.08,3.44,3.36,4.81,4.98,7.45,7.29l6.46,5.66c1.9,1.67,3.24,3.77,5.8,4.95s8.42,7.59,18.11,11.96c3.58,1.61,6.34,4.42,9.07,7.21l4.44,4.53c1.62,1.66,3.24,3.77,5.4,4.54.31,1.62.34,3.39,1.53,5.17,1.31,1.96-.05,4.71.35,6.88-5.3,3.22-1.51,1.7-3.91,3.98-3.81-.36-10.68-.7-15.53,1.27-.92.37-1.93,1.47-2.56.56-.76-1.1-2.47-.73-3.86-1.33-1.3-1.37-.38-3.91-1.05-5.74-.92-.97-2.68.04-3.74-.8-1.14-.9-.56-2.87-.74-4.42-1.31-.53-2.73-.16-4.37-.56l-.73-5.53c-1.31-.52-2.63-.05-4.16-.35l-.39-4.69-4.81-.91c-.29-2.48-.16-5.74-2.48-7.18-.56-.35-1.78.42-2.28-.16-1.21-1.39.45-4.76-.66-6.15-.48-.61-2.03-1.09-2.8-.71-.8.79-.52-4.12-1.73-4.36l-2.96-.6c-.57-2.39-.68-5.48-2.71-7.24-4.6-.08.5-5.82-4.91-5.3-.74-1.39.22-3.4-1.14-4.65-.52-.48-1.85.06-2.21-.52-2.79-4.38,1.23-3.2-3.11-5.79.07-.58.54-1.19.29-1.56-.31-.48-1.35-.19-1.56-.6-.61-1.21-.21-2.75-.84-3.71-.15-.22-.18-.44-.23-.67-.07-.31-.54-.33-.73-.35-3.11-.31-1.3-3.03-2.09-4.41-1.46-2.57-2.98-4.49-3.15-7.65-.04-.71-1.03-2.18-1.54-1.87.03-1.71-1.04-3.91,1.57-4.91,1.28,2.17,3.62,6.07,4.9,8Z"/>
              <path class="cls-73" d="M8.18,20.24c-.58-.08-1.31-.44-1.84-.02-.57.46-.4,1.19-.22,2.13,1.04,5.5,1.82,10.79,1.7,16.37-.04,1.85,1.06,3.07,1.33,4.36,1.41,6.84,1.11,13.46,2.12,20.24.7,4.7,1.5,9.15,1.42,13.75,1,.7,1.99.9,2.65,1.6,1.17,3.6.14,8.11,1.81,11.46.87,1.74,1.67,3.02,2.1,5.43s3.46,4.26,4.4,6.32c.37.82.08,1.81.57,2.46.38.49,2.04.15,2.15.76l1.04,6.01c.1.6,1.87-.03,2.27.34.72.69.59,1.95.89,3.06.45,1.68,2.71,1.05,4.08,1.25l1.47.21c.41.06.34.49.48,1.02-.12.41.1,1.67.14,2.14.06.96,2.82.44,3.74,1.01.47.29.13,2.02.55,2.71,2.16.17,3.87,2.36,3.89,4.54,2.89.74,6.34-.29,9.29.71.76,1.33.44,2.88.86,4.64l11.37,1.13c.81.37-.36,1.44-.1,1.75.83.39,1.7.59,2.25,1.45.35.56-.57,1.29-.47,2.14-.2,1.01-.85,1.79-1.9,1.96.99,1.42.36,1.96-.05,2.07-.51.13-1.2.22-2.08-.05-.47-.15-.44-1.43-1.31-1.06-.28.12-.51.48-1,.61-.38-.37-.47-.68-.67-.98-.39-.57-1.31.13-1.77.15-1.28.06-1.62-1.29-2.5-1.58l-6.38-2.12c-1.12-.37-2.74,0-3.51-.81-.47-.49-.82-1.51-1.18-2.62-2.92.51-4.41-2.03-5.98-3.4l-4.27-3.75c-9.02-7.93-.61-1.94-9.88-9.14-2.44-1.9-4.87-3.4-4.79-6.58.02-.63.03-1.39-.09-2.21-.09-.6-1.32-.24-1.84-.39-2.63-.77-2.02-4.87-3.41-6.64-.33-.41-1.42-.61-1.81-.98-.61-.58-.29-1.6-.72-2.14-2.25-2.84-2.45-10.37-3.25-11.9-.75-1.41-3.19-2.03-2.23-4.4-3.54-2.55-.28-9.93-2.4-14.3-.35-.73-2.98-.68-3.35-1.91-1.02-3.76.33-20.7-.34-22.78-1.21-3.77-.44-7.66-.9-11.83C-.5,23.21.3,14.15.45,5.3c.5-.31,1.5,1.15,1.54,1.87.17,3.16,1.69,5.08,3.15,7.65.78,1.38-1.02,4.09,2.09,4.41.18.02.66.04.73.35.05.23.08.44.23.67Z"/>
              <path class="cls-3" d="M20.86,111.89c-.84-.59-1.42-1.71-1.94-2.6.53.15,1.76-.21,1.84.39.12.81.11,1.58.09,2.21Z"/>
              <path class="cls-3" d="M8.2,10.34c-.71-.46-1.62-.82-1.28-1.95.35.53,1.88.8,1.28,1.95Z"/>
              <path class="cls-69" d="M29.06,54.57c.77-.38,2.32.09,2.8.71,1.1,1.4-.55,4.76.66,6.15.5.57,1.71-.19,2.28.16,2.32,1.44,2.19,4.7,2.48,7.18l4.81.91.39,4.69c1.53.3,2.85-.17,4.16.35l.73,5.53c1.63.39,3.06.03,4.37.56.18,1.55-.4,3.51.74,4.42,1.06.84,2.82-.18,3.74.8.67,1.83-.25,4.38,1.05,5.74,1.39.6,3.1.24,3.86,1.33-.03,1.05-.4,2.79.41,3.82,1,.23,2.57.38,3.34.53l.18,4.98,4.36.58.21,16.57c-1.05,1.05-2.87,2.04-4.06.81.38-.54,1.02-.29,1.53-.25,1.06.09-1.98-2.38-1.02-2.04-1.88-.67-5.85-.89-6.93-3.22s-2.12-3.43-5.05-3.75c-1.43-.15-.97-3.15-1.5-4.08-.66-1.16-1.16-2.37-.85-4.02.51-2.74-5.84-2.26-4.65-4.56.28-.55,1.37-.99,1.24-1.4-.15-.47-1.04-1.22-1.57-1.22-9.18-.01-2.02-11.14-11.01-8.55-.22-2.35,1.2-5.71-.94-7.48-.87-.42-2.36-.12-2.45-.73l-.27-1.87c-.2-1.34-1.55-2.14-1.02-3.85.23-.74.13-1.38,0-1.78-.26-.75-1.52-.07-2.09-.32-2.33-1.01-1.98-3.96-2.16-5.74l-.65-6.6c-.18-1.82-.76-3.46.43-4.99,1.03.48,1.5,1.1,2.46.63Z"/>
              <path class="cls-31" d="M69.64,119.58c.94.31.95,1.99.91,2.9-.07,1.6-2.64,1.23-2.84,2.03-.78,3.1.72,9.28-1.27,9.35l-11.37-1.13c-.42-1.76-.1-3.31-.86-4.64-2.96-1-6.4.03-9.29-.71-.03-2.18-1.74-4.37-3.89-4.54-.42-.69-.08-2.42-.55-2.71-.92-.57-3.67-.05-3.74-1.01-.03-.47-.25-1.73-.14-2.14l1.14-3.93c.13-.44,1.15-.56,1.32-.89.16-.31-.1-1.36-.49-1.5-3.01-1.16-2.83-4.06-4.27-6.04-1.21-1.66-2.88-2.6-2.62-5.42.32-3.49-.4-7.12.45-10.78,1.15-.74,2.5-.79,3.65-1.12,8.99-2.59,1.84,8.54,11.01,8.55.53,0,1.42.75,1.57,1.22.13.41-.96.86-1.24,1.4-1.19,2.3,5.16,1.82,4.65,4.56-.31,1.65.19,2.87.85,4.02.53.94.07,3.93,1.5,4.08,2.93.32,3.98,1.45,5.05,3.75s5.05,2.55,6.93,3.22c-.96-.34,2.08,2.13,1.02,2.04-.51-.04-1.15-.29-1.53.25,1.19,1.23,3,.24,4.06-.81Z"/>
              <path class="cls-39" d="M79.22,91.27c-2.05,1.95.69,4.7-4.73,6.71-.85-.35-2.16.85-3.17.66l-6.42-1.2c-.77-.14-2.34-.29-3.34-.53-.81-1.02-.44-2.77-.41-3.82.63.91,1.64-.19,2.56-.56,4.85-1.96,11.71-1.63,15.53-1.27Z"/>
              <path class="cls-52" d="M74.49,97.98c.58.41.06,1.12-.45,1.28-.22.07-.43.25-1.15.6-.06,2.03-1.78,3.37-3.46,3.15l-4.36-.58-.18-4.98,6.42,1.2c1.02.19,2.33-1.01,3.17-.66Z"/>
              <path class="cls-119" d="M8.18,20.24c.63.96.23,2.5.84,3.71.21.41,1.25.12,1.56.6.25.37-.22.99-.29,1.56,4.34,2.59.33,1.41,3.11,5.79.37.58,1.7.04,2.21.52,1.35,1.25.39,3.25,1.14,4.65,5.41-.52.31,5.22,4.91,5.3,2.03,1.75,2.14,4.85,2.71,7.24l2.96.6c1.2.25.92,5.15,1.73,4.36-.96.48-1.43-.15-2.46-.63-1.2,1.53-.61,3.17-.43,4.99l.65,6.6c.17,1.78-.18,4.74,2.16,5.74.57.25,1.83-.43,2.09.32.14.4.24,1.04,0,1.78-.53,1.71.83,2.51,1.02,3.85l.27,1.87c.09.62,1.58.31,2.45.73,2.14,1.77.73,5.13.94,7.48-1.15.33-2.5.38-3.65,1.12-.85,3.66-.12,7.29-.45,10.78-.26,2.82,1.41,3.76,2.62,5.42,1.44,1.98,1.25,4.88,4.27,6.04.38.15.64,1.2.49,1.5-.17.33-1.19.45-1.32.89l-1.14,3.93c-.14-.53-.07-.96-.48-1.02l-1.47-.21c-1.37-.2-3.63.43-4.08-1.25-.29-1.11-.16-2.37-.89-3.06-.39-.38-2.16.26-2.27-.34l-1.04-6.01c-.11-.61-1.77-.27-2.15-.76-.5-.65-.2-1.64-.57-2.46-.93-2.05-3.99-4.01-4.4-6.32-.43-2.42-1.23-3.69-2.1-5.43-1.67-3.35-.64-7.86-1.81-11.46-.65-.7-1.64-.9-2.65-1.6.08-4.59-.72-9.04-1.42-13.75-1.01-6.78-.71-13.4-2.12-20.24-.26-1.28-1.37-2.51-1.33-4.36.12-5.58-.66-10.86-1.7-16.37-.18-.94-.35-1.67.22-2.13.52-.42,1.26-.05,1.84.02Z"/>
            </g>
            <path class="cls-151" d="M205.49,176.69c.6,10.88-.52,20.59-9.33,27.41-.34.97.02,2.53-.86,3.44-.68.71-2,.24-2.97.58-.38,2.63-1.96,4.52-4.4,5.98l.05,1.12c.02.43-.43,1.32-1.14,1.16-3.99-.86-7.74-.09-11.49.32-.43-.22-1.17.05-1.26-.53.73-1.3.75-2.09,1.08-2.59,1.34-2.04,7.33.95,6.37-2.15-.46-1.51-7.67-.79-11.33.44-.59.2-1.78-.5-2.57-.45-1.04.07-.72.85-1.64,1.37.01-.76-3.35-4.06-1.44-6.09,2.33-2.48,5.19.3,4.57-2.01,1.46.02,3.93.1,5.33-.63l5.6-2.94c1.97-1.03,4.76-1.35,6.64-2.06.46.09,1.21.37,1.58-.13.6-.82.21-1.38-.22-1.94.75-.24,1.44-.5,2.49-.74,1.61-.36,2.7-2.64,2.02-4.03,1.11-.75,2.01-.23,3.2-.67.5-1.35.36-3.33,1.45-4.24,1.2-.54,2.66-1.43,2.85-2.82,1.66.38,1.88-5.21,3.61-7.72.32.34,1.38-.66,1.82-.11Z"/>
            <path class="cls-103" d="M211.92,192.51c-.6,1.76-3.27,3.11-4.19,4.58-1.4,2.23-2.85,2.98-4.75,4.38-2.14,1.58-3.94,3.31-6.82,2.61,8.81-6.81,9.93-16.53,9.33-27.41-.08-1.55.96-2.22,2.09-3.24.79-.72,2.92-.99,3.99-.05,1.32,1.16.15,3.51.41,4.84l.88,4.43c.61,3.06.1,6.81-.94,9.85Z"/>
            <path class="cls-154" d="M101.03,195.7l.42,1.23c.19.56-.11,1.62.73,2.31.43.36,1.2.07,1.95.98-.39.2-1.5-.12-1.71.28-1.12,3.95-.44,8.56-2.82,12.22-.6.92-2.87.98-2.32,3.32.15.64-.55,1.99-1.06,2.24-2.04.98-4.51-4.31-4.67-6.12.5,0,.87-.63.58-.96l-.84-.93c-3.88-4.32-.76-13.59-.33-20.43.46-.19.64-.33.63-.44,2.56.61,4.66,2.4,5.44,5.26l4,1.04Z"/>
            <path class="cls-90" d="M201.75,114.47c-2.27,3.61,2.53,7.86,2.51,16.35-.43.14-.49-.14-.56-.34-.09-.23.18-.98-.09-1.15-5.59-3.45-2.14-6.63-4.93-7.92,1.06-1.58.62-3.54.6-5.95.62-.62,1.74-.77,2.46-.99Z"/>
            <path class="cls-50" d="M90.15,174.39c.27,4,1.13,8.08,1.3,11.98l.13,3.03c0,.11-.17.25-.63.44-.42,6.85-3.55,16.11.33,20.43l.84.93c.29.33-.08.95-.58.96-6.43-11.75-4.01-21.67-5.72-33.96.02-1.78,2.72-3.91,4.33-3.81Z"/>
          </g>
        </g>
        <g>
          <path class="cls-3" d="M64.84,176.22c-.51.05-.58-.8-1.14-.55-.15-.32.07-.64.33-.71.46-.13.77.02.94.32.18.34-.1.64-.13.95Z"/>
          <path class="cls-3" d="M233.38,347.14c-.4.08-.96-.14-.71-.65.47.03.68.14.71.65Z"/>
          <path class="cls-3" d="M92.17,446.23c-.26-.06-.52-.1-.79-.1-.29-.55.41-.69.83-.58.32.25.32.48-.04.68Z"/>
          <path class="cls-3" d="M200.59,445.48c-.22.3-.52-.1-.7-.06-.25-.47.23-.87.67-.59-.05.21.04.44.03.65Z"/>
          <path class="cls-71" d="M175.35,216.71c-.32.72-1.82,4.59-2.82,4.94-.65.23-.85-.74-1.53-.65-.57-1.75,1.51-2.86-.06-4.25-1.32-1.17-4.91,1.04-5.12.04.13-1.28.16-2.69.18-3.98.92-.52.6-1.29,1.64-1.37.79-.06,1.99.64,2.57.45,3.66-1.24,10.87-1.95,11.33-.44.95,3.1-5.04.11-6.37,2.15-.33.5-.35,1.29-1.08,2.59.09.58.84.31,1.26.53Z"/>
          <g>
            <path class="cls-1" d="M198.58,218.9l3.18,3.73c1.55,1.82,3.63,3.6,3.69,6.48,2.39.53,2.33,2.87,3.53,4.14,2.58,2.72,6,10.48,6.03,12.97.02,1.74.02,2.26,1.28,3.2s2.86,6.84,4.69,10.53l3.27,6.59c2.19,4.42,4.2,8.12,6.12,12.35,1.18,2.59,3.92,4.48,4.45,7.73.16,1.01,7.86,11.12,8.77,14.42.35,1.27,1.03,2.32,1.71,3.17-.64-.27-.85.75-.6.99l1.11,1.07c.82.79.46,2.56.63,3.84-1.72.76-2.06,2.01-1.65,3.47-.96.18-1.47.04-1.42.79-.05.84-.41,1.75-1.02,1.85-.96.17-2.17.46-2.79.1-.89-1.02-.36-2.67.79-3.99-1.89-2.22-5.66,4.14-11.99,2.45,2.33-2.67,3.65-5.53,5.88-8.73-1.36-.65-3.49-.87-4.42.22-.48.57-.43,1.52-1.38,1.71-2.51.5.22-2.27-3.09-3.4-1.04-.35-2.03-.11-2.21-1.23l-.4-2.5c-.18-1.13-2.7-.95-4.12-.76-.82-1.75-.06-3.5-.58-5.16-.36-1.16-2.24-.45-3.02-.77-1.87-3.33-.76-7.51,2.35-10.97l-9.08-.65c-.64-.05-.24-1.49,0-1.88.27-.43.97-.51,1.88-1.07,1.1-1.53,1.84-3.26,2.86-5.26l-8.28-.96c-.57-3.08-.16-6.2-.43-9.39-1.56-.21-2.62-.15-4.19-.53-.72-3.63-1.26-7.67-.14-11.37.19-.63,1.29-1.19,1.08-1.8-.26-.74-1.41-.41-1.93-.82-.73-.57-.2-1.9-1.1-2.27-.54-.22-1.88.34-2.71.27-1.5-.11,1-7.21-.79-6.75-1.22.32-.66,1.82-1.29,2.92-.25.44-1.51,1.08-1.88.53l-.54-7.52c-1.61,1.59-1.31,4.05-1.33,6.41l-.11,17.01c0,1.17-.44,2.22-.67,3.34-1.81,2.03-4.82-.91-4.27,2.33s-.16,5.79-.37,8.83c-.25,3.57,1.18,7.92-.22,11.79-.23.63-2.33-.06-2.55.86s-.63,1.82-.16,3.31c3.36-.67,6.33.06,9.4,1.13.08-.31.51,8.1-1.26,7.6-2.24,1.09-4.73.31-6.9.7.2-.76-.02-1.68,0-2.63.04-1.77.17-2.14-1.58-2.81-.9-.35-1.15.44-2.37.91-5.28.47-11.1.22-16.15-.04-.98-6.93-5.07,4.06-12.05,1.77-.31-1.22.21-2.66-.52-3.87-2.97-.44-5.7.28-8.1-.6-.57-.21.12-2.01-.53-2.45-1.02-.68-3.65.34-4.1-.55-.83-1.61.06-3.44-.78-4.17-.16-.14-3.32-.85-4.73.4-.54.47-.46,1.51-.87,2.63-.62,1.7-3.09,1.62-4.23,2.65-.53.48-.35,1.55-.89,1.96-.43.33-1.39.1-1.63.59l-.94,1.91c-.25.5-8.44,1.82-9.23-3.35,3.97-4.88,3.91-.97,6.93-6.47.33-.59,2.11-.18,2.65-.49.76-.43,1.03-1.35,1.07-2.56,2.4.21,3-1.83,4.69-2.76l1.4-.77c.29-.16.35-1.39-.51-1.34-.96.05-3.04,1.08-3.22-.22l-.67-4.99c-1.34.16-2.75-.48-2.82-1.95l-.42-9.16c-1.89-.17-3.48.11-5.15-.59l-.09-10.61c-2.14-.55-3.71.09-5.66-.15l-.58-5.54c-1.93-.25-3.34.32-4.77-.22-.11-1.8.21-3.24-.16-4.96-1.16-.14-1.84.31-2.95.44-.14,1.53-.13,2.94-.07,4.34-1.14.24-3.05.25-4.66.32.19,2.61-1.64,3.77-3.18,5.18-1.07.98-.71,3.14-1.52,4.48-.45.74-1.67.54-2.48.82l-.24,7.88-4.61.55-.71,4.91c-.66.42-1.9.16-2.21.96-.46,1.21.26,3.01-.72,3.59-1.62.97-3.68.19-5.45.96-.51,1.9.54,4.21-.53,5.82-.4.59-2.87.26-2.4,1.46.52,1.34,2.95.3,3.68,1.24,1.14,1.47.93,4.2.27,5.66-.36.8-2.45,1.05-2.44,1.82.04,5.84-5.36,1.07-4.67,9.49l-6,.89c-.05,1.58.7,2.5.82,3.85.34,3.77-2.32,1.27-5.17,4.9-.96,1.22-4.55,2.42-5.68,1.48-7.98-6.61-1.43-1.32-5.96-7.87-1.39-2.01.32-4.85.36-7.44l3.13-.5c.52-2.36.41-4.82.02-6.93.63-1.55.68-3.7.86-5.6l2.93-.6c-.2-1.97-.04-3.26.53-4.78,1.38-.06,2.4.41,3.85.19l.76-7.58c1.56.78,6.47-1.82,6.19-1.4,1.39-2.12-.01-4.84.9-6.77,1.46.26,3.09.63,3.53-.63s-.49-3.47.61-4.26c.87-.62,2.91.1,3.37-1.17.49-1.37-.24-2.96.46-4.29,1.25-.53,3,.46,4.1-.69.49-.51.3-2.18.73-2.75.92.17,3.29,1.22,3.73-.36s-.39-4.78,2.21-5.31c1.02-.21,2.39,1.68,3.87.44-.27-2.8-2.35-5.96-1.31-8.8l2.13-5.78,4.41.54c.63-2.12-.72-3.42-.39-5.45,2.48,1.15,4.96.4,7.41.85.67.12.96,1.75,1.73,1.68.46-.04,1.69-.67,2.18-.44,5.01,2.32,8.2-.07,13.95.95.97,4.81,5.89,2.05,7.92,3.96,1.65,1.55,2.98.35,4.58-.08.84.4,1.85,1.15,2.79,1.21.04,1.02.22,2.89,1.6,2.95,1.01.05,1.89-.09,2.01.78,1.14,2.42,1.69,5.56,5.15,5.16-.04.7-.36,1.66.54,1.4-.08.73.15,2.12.91,2.17.66.05,1.94-.07,2.62-.74.6-.59.14-2.03.63-2.65.59-.76,1.83-.33,2.85-.81.74-.35.69-2.18.67-2.98-.05-2.01,4.23-3.42,6.62-7.83.68-1.25-.24-3.36,1.52-3.52-.39,1.2-.09,4.39,1.22,4,2.31-.68,4.15-2.45,6.22-2.75,9.05-1.33,14.12.49,15.13-4.39,2.28-1.48,5.5-2.11,8.19-2.78.97-.25,2.75.89,2.52-.61l3.11.55Z"/>
            <path class="cls-68" d="M162.28,327.58c.48,1.05-.58,2.49.04,3.56,2.55,4.41-1.08,7.64,3.47,6.63,2.14,1.81.08,4.95,1.19,7.3,2.52,1.42.38,3.56,1.72,5.1.4.46,2.27-.27,2.8.22.75,5.66-.15,12.13,1.13,17.85.16.73,2.5-.02,2.77.56.28.61.7,2.08.39,2.8-.8,1.88.59,2.71.78,3.93.33,2.17.7,14.83,1.57,15.23.45.21,1.67-.15,2.63.05l1.06,9.94c4.8.59,9.26-.34,13.67.52.98-.11.6,1.77,1.16,2.02,2.53,1.12,5.49.03,8.28.16.75,2.07-.03,4.23.38,6.25,2.89,2.26,3.17,5.94,2.18,9.31-.37,1.27.05,2.3-.09,3.14-.16.95-.4,1.86-.31,3.25.08,1.26-1.46,1.69-1.16,2.99,1.06,4.52.86,8.7-1.47,11.94-.58.83-2.64.26-3.44,1.18s-.31,2.42-.51,3.32c-.43-.28-.92.11-.67.59-1.98,1.05-5.22-.89-6.96-.61-.23-.92-.35-2.44.44-3.03.58.32,1.05.61,1.24.48.34-.22.12-.5.49-1.22.42.49,1.2.85,1.59.28.24-.35,1.04-1.13.4-1.56-.41-.27-.97-.79-1.47-.71.65-.91,1.64-1.56,3.06-2.08l6.18-2.27c1.34-1.48.47-4.48.54-6.25-4.1,1.31-7.4.18-11.1-.46l-5.62,1.43c-.68.17-.91,1.44-.74,1.89.31.82,1.18.85,2.59,1.17-.72.76-1.99.95-3.06-.44-3.04,4.09-10.48,1.62-16.22,2.44-.31,1.05-.78,3.45.34,4.11,1.6.94,3.56.52,5.23,1.18l.85,2.16c1.65-.22,3.36-.32,4.33.66-.08.51-.99.43-1.06.76-.15.68.67.82,1.05,1.93-.32.52-8.66-.34-7.35.85-1.17-.04-2.51-.28-3.45.49-1.09-1.67-3.37-.58-5.18-1.42-.42-1.08-.25-2.37-.43-3.83-4.17.23-2.81-7.94-1.38-9.69-.42-1.64-2.57-2.34-2.61-3.63-.07-2.07-3.16-6.76-5.07-8.61-2.23-2.16-.65-5.87-.46-8.58.44-6.25.16-12.17-.72-18.25-.2-1.4-1.39-2.98-1.27-4.49.07-.88-.16-.94-1.53-2.64,2.45-1.34,1.67-3.72,2.4-5.23.48-1.01,1.21-2.18,1.62-3.32.62-1.72,4.02-1.86,4.75-3.42.23-.5,4.45-5.96,4.76-6.18,1.25-.9-.62-1.97-1.35-2.42-1.82-1.12-4.42,3.88-7.16,6.11-2.95,2.39-7.49,1.17-11.23,1.57-1.28.14-3.51,1.01-3.62-.82l-.22-3.76c-.04-.64.36-1.25.15-1.87l5.47-.24c.42-1.39.09-2.46.11-3.55.02-1.26.99-2.73.55-4,.92-.68,1.76-.03,2.55.9,1.57,1.85.67,4.42,1.15,6.61.39.99,2.97.96,3.83.51.75-.39,2.33-1.41,2.93-2.55,1.53-4.09,1.44-10.61.57-15.19-.27-1.39-2.94-3.14-1.92-5.22.37-.74-.24-2.98-.94-2.92-2.34.21-4.3,1.53-6.34,2.16,1.3-2.35.87-6.79,3.35-6.31.58-.14,1.82.53,2.45,0,1.34-1.12.32-3.21.09-4.31.78-1.32.52-3,.48-4.52,1.51-.97,3.99-1.44,5.31.07Z"/>
            <path class="cls-60" d="M98.55,313.07c.12,1.3-.9,3.08.52,3.84-1.08.69-1.5,4.66-.1,4.98,5.39,1.26,10.44,2.76,15.83,2.85l12.33.2c1.35-6.68.31-1.41-1.04-6.78.23,0,.48-.04.69-.11l.97,2.51c4.33-.53,5.36-6.47,6.54-3.15-2.1,3.55-4.97,2.28-5.86,4.33-.58,1.33-.77,4.14,1.27,4.6l5.17,1.18c.06.68-1.77,12.47,1.1,9.56.41.84.96,1.89.47,2.4-.58.61-1.33,1.3-2.13,1.4.99-.12-1.92-.76-5.24,1.74-1.37,1.03-1.5,3.57-3.43,3.9-7.3,1.24-.47,3.97-5.93,7.57-.75.91-1.35,3.62-1.23,4.87.29,2.95-1.71,2.44-3.3,7.05-.42,1.21-1.77,2.44-2.4,3.69-.13.56.2,1.25-.04,1.39-.15.09-.49-.19-.57-.42-.06-.16.36-.07-.25-.97-.87,1.8,7.15-22.07,4.59-17.69l1.2-2.06c.33-.56-.86-1.29-.96-2.14-.17-1.47.76-3.12-.28-4.46-.78-.99-2.85-.14-3.98-.8-1.37-.81-.84-2.93-1.49-4.28-.86-1.79-3.34-.73-4.25.93-.59,1.08-.45,2.8-1.64,3.27-1.43.56-4.43.11-5.61,1.31.34,2.35-.12,3.39-1.43,5s-.2,4.98-.86,7.15c-.61,2.01-1.08,3.78-.94,5.59-.69-.19-2.19-1.15-2.85-.59-.06,1.14-1.89,2.32-1.73,3.18.43,2.37-2.41,3.09-2.73,4.34-.83,3.27-1.63,7.1-1.71,10.24l-.38,14.01c-.49,18.34-8.12,14.57-3.2,22.23.37,4.03,3.46,5.19,2.08,7.06l-21.3-.42c-.31-1.41.14-2.48-.41-3.46-1.71-.42-3.3-.08-5.02-.87,1.24-5.34,1.36-10.3,1.71-15.56l3.05-.41c.6-3.81.59-7.87,2.66-11.12.92-1.45,2.45-2.33,1.35-4.85.8-.63,2.2-.32,2.77-1.02l.87-16.36c1.89.03,3.21.25,4.57-.31.63-2.31-.15-4.46.75-6.61,1.4-.24,2.56.13,3.42-.53-.11-9.99,2.51-5.82,1.33-10.4,1.29-.91,2.38-.32,3.56-.72.9-9.64,2.19-3.77,2.52-11.65,1.06-.73,2.03-.35,3.31-.68.66-2.33.36-4.55.72-6.77.14-.84,1.98-.34,2.2-.83.81-1.84.23-3.72.52-5.81,1-.55,2.13-.19,2.93-.93.36-3.8-.04-7.11.02-10.39.5-.27,1.24.21,1.26.75Z"/>
            <path class="cls-57" d="M103.37,244.34c.06,1.39.3,3.12-.42,4.67-.3.65-1.58.5-1.89.94-1.3,1.85,2.38,13.29-.73,15.35-1,.45-1.66.46-2.02.84-.53.57.39,2.51-.08,2.85-1.11.79-1.79,3.59-2.9,4.06-6.78,1.38-.67,4.92-7.82,5.12-1.31,9.13-4.61,4.83-2.25,10.32-1.42.97-1.62,2.67-2.16,3.66-.77,1.42-1.09,1.92-1.13,3.44-.16,6.34-4.7,7.52-5.81,11.34-.35,1.2-1.85,2.5-1.74,4.1.17,2.59-2.79,2.72-3.17,3.88-.55,1.7-1.55,3.13-3.05,4.03-1.32.79-.91,3.65-2.78,4.13-.75.19-1.34,1.14-1.56,1.79-1.95-.16-4.26-.99-6.07-1.71.97-2.98-3.53-2.98-6.09-3.84-.23-.93-.16-2.07-1.02-3.02-2.26.29-4.18-.28-4.16-2.56l-5.01-.19c-2.93-2.77-.92-8.75-.51-8.88.36-.12,1.15-.18,1.64-.65,1.16-1.1.15-2.98,1.05-4.01.68-.77,2.53-.97,2.4-2.62-.1-1.29.32-1.96.82-2.65s2.15-.17,2.56-.8c1-1.57.32-3.72.96-5.53.33-.92,1.98-.35,2.6-.53.39,2.11.51,4.57-.02,6.93l-3.13.5c-.04,2.59-1.75,5.43-.36,7.44,4.53,6.55-2.02,1.26,5.96,7.87,1.13.94,4.73-.26,5.68-1.48,2.86-3.64,5.51-1.13,5.17-4.9-.12-1.35-.87-2.27-.82-3.85l6-.89c-.69-8.41,4.71-3.65,4.67-9.49,0-.77,2.08-1.03,2.44-1.82.66-1.47.88-4.19-.27-5.66-.72-.94-3.15.1-3.68-1.24-.47-1.2,1.99-.87,2.4-1.46,1.06-1.61.01-3.93.53-5.82,1.77-.77,3.82.01,5.45-.96.98-.58.26-2.39.72-3.59.31-.81,1.54-.54,2.21-.96l.71-4.91,4.61-.55.24-7.88c.81-.29,2.03-.08,2.48-.82.8-1.34.45-3.49,1.52-4.48,1.54-1.42,3.37-2.57,3.18-5.18,1.61-.07,3.52-.08,4.66-.32Z"/>
            <path class="cls-3" d="M201.17,293.52c.25.15.11.97,1.17.73l2.14,9.27c1.1.38,2.2.07,3.25.65-.13,8.93,4.08,2.61,3.51,9.52l2.76,1.25c-.16,1.85.6,3.2,1.08,4.98.43,1.57,1.9,1.33,3.35.95.43,1.47.14,2.68.79,3.91,1.22-.23,2.86.21,2.86,1.45,0,.58-.25,1.08.39,1.29s1.27-.07,2.08.08c1.41.26,1.14,1.92.95,3.32.84.78,1.98.76,2.8,1.03l-.09,10.14c-.01,1.62.35,3.11.74,4.38-2.9,2.73-2.22,4.23-6.43,7.01-2,.04-5.16.13-6.24,2.67-.86,2,.7,4.7.09,6.75-1.33.06.04-2.05-1.39-1.8-2.27.84-.36-5.89-1.74-8.49-.54-1.01-1.7-1.92-1.42-3.56-.6-.54-2.77.35-3.18-.59-.81-1.86.42-4.36-.71-6.21-3.98-6.5,2.04-2.24-2.96-5.13-2.29-1.33-1.19-2.62-1.73-7.05l-2.96-.92-.49-5.23c-1.06-.63-2.13-.56-2.79-1.32l.44-14.58c.02-.75.09-1.51-.42-1.84-.34-.22-1.03-.25-1.99-.45.57-1.8-.56-3.42-.87-4.65-.93-3.63.38-7.27.1-11.66,2.02-.28,4.83-.75,6.06.7.26,1.2.08,2.95.83,3.4Z"/>
            <path class="cls-22" d="M216.37,362.9c-.06.2-.01.42-.03.63-.1.96.32,1.89-.33,3.24-.23.47,1.18.67,1.67.55.55-.14,1.23.24,1.45.92-.67-2.03,2.08,8.54,1.53,7.96.63.51,2.17.12,2.4,1.09.59,2.49-.63,6.79.81,7.24l2.08.65c.59.19.17,3.59.84,4.2.31.29,1.32.01,1.73.42,1.17,1.18-.09,3.27.72,4.65,1.18,2.02,1.03,4.13,1.65,6.1.37,1.17,2.01,1.9,1.19,4.11-.2.55.11,1.47.41,1.78s1.78.04,2.02.42c.86,3.52.87,7.93.63,11.84-1.79.41-3.09-.05-4.6.56-.35.95-.19,1.74-.45,2.95l-22.64-.05c.14-.84-.28-1.87.09-3.14.98-3.37.71-7.05-2.18-9.31-.4-2.03.37-4.18-.38-6.25-2.79-.14-5.75.96-8.28-.16-.56-.25-.18-2.13-1.16-2.02,2.48.48,4.99-.66,7.54-1.11l6.07-1.08.75-3.5c3.33.23,6.49.1,10.09-.3l-.08-7.03c-3.6-.65-.93-6.87-1.9-12.25-.07-.37.32-1.28-.22-1.43-.34-.09-1.16.44-1.91-.16,0-1.6,1.99-1.79,2.58-3.38-3.43-.21-3.32-7.58-3.45-9.92,1.42-.26.05,1.86,1.39,1.8Z"/>
            <path class="cls-91" d="M106.07,302.36c.31-.99-2.47-1.15-3.81-1.27l.15-27.63c-2.77.85-3.73,3.19-5.32,5-.5.56-1.83.26-2.19.62-.56.56-.24,1.62-.46,2.65-.47.98-2.16.51-3.13,1.01-.73,1.22-.14,3.81-1.23,4.76-8.53,4.82-.71,9.52-8.12,8.1.04-1.52.36-2.02,1.13-3.44.54-.99.74-2.69,2.16-3.66-2.36-5.49.94-1.19,2.25-10.32,7.15-.2,1.04-3.74,7.82-5.12,1.11-.47,1.79-3.27,2.9-4.06.47-.34-.45-2.28.08-2.85.36-.38,1.03-.39,2.02-.84,3.1-2.06-.57-13.5.73-15.35.31-.44,1.59-.29,1.89-.94.72-1.55.49-3.28.42-4.67.64-.13,2.74-.44,2.68.53-.73,11.79-.76,23.05-.53,34.74l.36,18.34c.02.97-1.13,2.32.08,2.96.52.27.81.65.66,1.07-.08.21-.2.41-.55.37Z"/>
            <path class="cls-24" d="M248.41,314.86c.79.52,1.05,1.63.73,2.5-.44-.27-7.72-.61-10.03,3.37-.44.75.47,2.25-.6,2.94,2.56.16,3.68,1.42,4.25,3.28-.81.48-2.07.31-3.1.84-2.59,1.34-4.89,2.49-7.49,2.94-1.27.22-2.54,1.18-3.88,1.23-.82-.27-1.96-.25-2.8-1.03.2-1.4.46-3.06-.95-3.32-.81-.15-1.46.12-2.08-.08-.65-.2-.39-.71-.39-1.29,1.13-1.03,2.64-.88,4.35-1.14,11.08-1.69-.47-3.99,11.69-5.41.91-1.05.39-2.59,1.46-3.37.62.35,1.84.06,2.79-.1.61-.11.97-1.01,1.02-1.85,1.67.12,3.56-.46,5.02.49Z"/>
            <path class="cls-76" d="M63.86,324.86c1.01.21.85,2.37-.14,2.67s-1.82,0-2.18.72c-.72,1.44-.5,2.62-1.35,3.1-.54.3-1.04.17-1.55.07-.66-2.37-3.51-2.65-5.63-3.95-3.06-1.88-5.88-3.72-9.46-3.95.47-1.39.59-2.01.67-2.74,3.22.23,5.24,1.83,7.48-1.48,2.56.86,7.06.86,6.09,3.84,1.81.73,4.13,1.55,6.07,1.71Z"/>
            <path class="cls-76" d="M249.15,317.36c1.5.91,2.91,1.38,2.88,3.55-.02,1.38.45,2.96-1.07,4.02-1.84-1.15-3.94,1.16-5.52,1.94-.73-.14-1.97-.34-2.67.08-.57-1.86-1.69-3.12-4.25-3.28,1.07-.69.16-2.18.6-2.94,2.31-3.98,9.59-3.64,10.03-3.37Z"/>
            <path class="cls-113" d="M44.21,320.79c-.08.73-.2,1.35-.67,2.74,3.57.22,6.39,2.07,9.46,3.95,2.12,1.3,4.97,1.58,5.63,3.95.05.36-.22.58-.56.67-.83,1.01-11.85-4.13-12.63-4.65-2.61-1.78-5.97-1.38-8.61-2.81-1.48-1.93-1.25-4.4.61-6.05,5.42,3.53,2.87-.21,6.77,2.2Z"/>
            <path class="cls-149" d="M208.66,487.03c-1.09.27-.2.89.72.87,1.07,0,1.88-.16,1.96.57s-.02,1.23,0,1.74c-1.25-.06-2.36.09-3.27-.3,3.47-2.84-10.79-.41-11.43-.93.05-3.77-4.84,2.06-5.55-2.55,3.66-3.9,5.67-3.65,11.88-3.1.15-.64-.01-1.28.64-1.23.14.45-.2,1.17.61,1.42,1.34.41,3-.34,3.77.62.6.89-.18,2.32.69,2.89Z"/>
            <path class="cls-3" d="M248.41,314.86c-1.46-.95-3.35-.36-5.02-.49-.05-.75.46-.61,1.42-.79-.41-1.45-.08-2.71,1.65-3.47-.17-1.28.19-3.05-.63-3.84l-1.11-1.07c-.25-.24-.04-1.25.6-.99,2.49,3.1,4.47,6.71,3.1,10.65Z"/>
            <path class="cls-3" d="M217.67,367.32c-.49.12-1.89-.08-1.67-.55.65-1.35.23-2.28.33-3.24,1.22.75,1.42,2.45,1.33,3.79Z"/>
            <path class="cls-138" d="M182.41,299.98l-7.49,1.35c-.77.75-4.95,5.87-4.06,6.05-4.99.04-10.08.5-15.05.19s-9.6.22-14.4.16l-29.12-.38c-1.79-.02-2.87-.54-4-1.76-.53-.57-1.93-.15-2.01-1.04-.07-.74.18-1.44-.21-2.2.35.04.47-.16.55-.37.15-.42-.14-.8-.66-1.07-1.21-.64-.06-1.99-.08-2.96l-.36-18.34c-.23-11.69-.2-22.95.53-34.74.06-.97-2.04-.67-2.68-.53-.06-1.39-.08-2.81.07-4.34,1.11-.13,1.79-.58,2.95-.44.37,1.72.05,3.16.16,4.96,1.43.54,2.84-.03,4.77.22l.58,5.54c1.95.24,3.52-.4,5.66.15l.09,10.61c1.66.7,3.26.41,5.15.59l.42,9.16c.07,1.47,1.48,2.12,2.82,1.95l.67,4.99c.17,1.3,2.25.27,3.22.22.86-.05.8,1.18.51,1.34l-1.4.77c-1.69.93-2.29,2.97-4.69,2.76-.04,1.21-.31,2.14-1.07,2.56-.54.31-2.33-.11-2.65.49-3.02,5.5-2.97,1.59-6.93,6.47.79,5.17,8.98,3.85,9.23,3.35l.94-1.91c.25-.5,1.2-.26,1.63-.59.54-.41.37-1.49.89-1.96,1.14-1.03,3.61-.95,4.23-2.65.41-1.12.33-2.16.87-2.63,1.41-1.25,4.57-.54,4.73-.4.84.73-.05,2.56.78,4.17.45.89,3.08-.13,4.1.55.66.44-.03,2.25.53,2.45,2.39.87,5.13.15,8.1.6.73,1.22.21,2.66.52,3.87,6.98,2.29,11.07-8.69,12.05-1.77,5.05.26,10.87.51,16.15.04,1.23-.47,1.47-1.26,2.37-.91,1.75.68,1.62,1.04,1.58,2.81-.02.94.2,1.87,0,2.63Z"/>
            <path class="cls-85" d="M239.58,316.33c-1.07.78-.54,2.32-1.46,3.37-12.17,1.42-.61,3.72-11.69,5.41-1.71.26-3.23.1-4.35,1.14,0-1.24-1.64-1.68-2.86-1.45-.66-1.22-.37-2.44-.79-3.91-1.45.38-2.92.62-3.35-.95-.48-1.78-1.24-3.13-1.08-4.98l-2.76-1.25c.58-6.91-3.64-.59-3.51-9.52-1.06-.59-2.15-.28-3.25-.65l-2.14-9.27c-1.05.24-.91-.58-1.17-.73,3.47.26,1.99-8.79,1.85-11.38-4.12,1.14-4.98-1.64-6.32-3.83-1.05-1.71-3.07-2.21-2.5-5.08.65-3.28-.23-14.85-1.1-19.15-2.93,1.87-1.25,6.12-3.68,5.99l.11-17.01c.02-2.36-.29-4.82,1.33-6.41l.54,7.52c.36.56,1.63-.09,1.88-.53.63-1.11.07-2.61,1.29-2.92,1.79-.46-.71,6.64.79,6.75.82.07,2.16-.49,2.71-.27.9.37.37,1.7,1.1,2.27.52.41,1.67.08,1.93.82.21.61-.89,1.17-1.08,1.8-1.12,3.69-.59,7.74.14,11.37,1.57.38,2.63.32,4.19.53.26,3.19-.14,6.31.43,9.39l8.28.96c-1.02,2-1.76,3.73-2.86,5.26-.91.55-1.61.64-1.88,1.07-.24.39-.64,1.83,0,1.88l9.08.65c-3.11,3.47-4.22,7.65-2.35,10.97.78.33,2.66-.39,3.02.77.52,1.66-.24,3.41.58,5.16,1.42-.19,3.94-.37,4.12.76l.4,2.5c.18,1.13,1.17.88,2.21,1.23,3.31,1.13.58,3.9,3.09,3.4.94-.19.9-1.14,1.38-1.71.93-1.09,3.06-.87,4.42-.22-2.23,3.2-3.55,6.06-5.88,8.73,6.32,1.69,10.1-4.67,11.99-2.45-1.15,1.31-1.67,2.96-.79,3.99Z"/>
            <path class="cls-33" d="M131.18,220.46c-.02.44.26.87.64,1.08.04-.11,1.04,7.75,2.46,8.2-1.6.43-2.93,1.63-4.58.08-2.04-1.91-6.95.85-7.92-3.96-5.76-1.01-8.94,1.37-13.95-.95-.49-.23-1.72.4-2.18.44-.77.06-1.07-1.56-1.73-1.68-2.46-.45-4.93.31-7.41-.85-.33,2.03,1.02,3.34.39,5.45l-4.41-.54-2.13,5.78c-1.04,2.83,1.03,6,1.31,8.8-1.49,1.23-2.85-.65-3.87-.44-2.6.53-1.78,3.74-2.21,5.31s-2.8.53-3.73.36c-.67-3.02,1.09-5.71,2.25-8.44,1.25-2.94-.1-6.71.96-9.83.33-.98,1.92-.37,2.71-.83,1.13-.65.68-2.85,1.59-3.85,1.34-1.47,4.37.03,4.73-2.23.41.28,1.66.91,1.79.12.21-1.29-.27-2.11.13-3.18,2.04-.3,4.34.03,6.34-.65-1.18-2.19,3.72-2.73,4.96-2.9,3-.4,6.01.76,9.48.55,1.06,1.39,1.13,3.21,2.5,4.14,1.12.76,2.94.32,3.92.64.17-5.18-2.63,1.62-3.22-8.66,2.37-.3,4.39-.36,6.56-.13.92,8.31,1.8,1.32.82,6.13-1.67.04-1.3.96.09.65,1.71-.15,2.34,1.82,3.72,1.41Z"/>
            <path class="cls-55" d="M201.17,293.52c-.75-.45-.58-2.19-.83-3.4-1.23-1.46-4.04-.98-6.06-.7.28,4.39-1.03,8.03-.1,11.66l-5.58.57c.17-.54.61-1.91.72-2.37,1.78.51,1.35-7.91,1.26-7.6.91-3.43.22-7.17.14-10.98l-.35-15.94c-.32-.46-1.98-.56-1.62-1.34.23-1.12.66-2.18.67-3.34,2.43.13.75-4.12,3.68-5.99.87,4.3,1.75,15.87,1.1,19.15-.57,2.87,1.45,3.37,2.5,5.08,1.34,2.18,2.2,4.96,6.32,3.83.13,2.59,1.62,11.64-1.85,11.38Z"/>
            <path class="cls-140" d="M190.58,291.68c-3.07-1.07-6.04-1.8-9.4-1.13-.47-1.49-.06-2.4.16-3.31s2.32-.23,2.55-.86c1.4-3.87-.03-8.22.22-11.79.21-3.04.92-5.68.37-8.83s2.46-.3,4.27-2.33c-.36.78,1.31.89,1.62,1.34l.35,15.94c.08,3.81.77,7.55-.14,10.98Z"/>
            <path class="cls-23" d="M195.47,218.35c.23,1.5-1.54.37-2.52.61-2.68.68-5.91,1.31-8.19,2.78-1.01,4.88-6.08,3.06-15.13,4.39-2.07.3-3.91,2.07-6.22,2.75-1.31.39-1.61-2.8-1.22-4,2.7-.24-.3-6.32,2.43-5.24-.28,1.36-1.07,3.99.47,4.75,4.17,2.05,5.52-4.07,5.92-3.39.68-.09.88.88,1.53.65,1-.36,2.5-4.22,2.82-4.94,3.75-.41,7.5-1.19,11.49-.32.71.15,1.16-.73,1.14-1.16l3.97,2.12c1.03.55,2.51.83,3.51,1.01Z"/>
            <path class="cls-84" d="M189.31,299.28c-.1.46-.55,1.83-.72,2.37l-1.23,3.84c-.52-.02-3.71-.74-4.06-.36-.52.55-.62,1.11-.44,1.71-3.94.59-7.99.52-11.99.55-.89-.18,3.29-5.31,4.06-6.05l7.49-1.35c2.17-.39,4.66.39,6.9-.7Z"/>
            <path class="cls-2" d="M41.51,313.54l5.01.19c-.02,2.28,1.9,2.85,4.16,2.56.86.94.79,2.09,1.02,3.02-2.24,3.3-4.26,1.71-7.48,1.48-3.91-2.42-1.35,1.33-6.77-2.2.55-.76.36-2.29,2.21-2.6.25-.04-.16-2.51,1.85-2.44Z"/>
            <path class="cls-94" d="M203.25,343.35l-.04,8.09c1.73.55,3.35.1,4.82.78.54,3.37-.5,7.02.71,10.16,3.08,1.05.78,3.3,2.99,7.69.33.66.96-.1,1.17.06,1.45,1.13.37,4.87,2.11,5.24l2.97.64c.97,5.38-1.69,11.6,1.9,12.25l.08,7.03c-3.6.4-6.76.53-10.09.3l-.75,3.5-6.07,1.08c-2.55.45-5.05,1.6-7.54,1.11-4.41-.86-8.87.07-13.67-.52l-1.06-9.94c-.96-.2-2.18.16-2.63-.05-.87-.4-1.24-13.06-1.57-15.23-.18-1.22-1.58-2.05-.78-3.93.31-.73-.1-2.19-.39-2.8-.27-.58-2.61.18-2.77-.56-1.28-5.72-.38-12.2-1.13-17.85-.53-.49-2.4.24-2.8-.22-1.34-1.54.8-3.68-1.72-5.1-1.11-2.36.95-5.49-1.19-7.3.03-3.63-1.25-6.54,2.4-7.32.64-.14,1.57-.49,2.01.06.21.27.27.91.58,1.75l5.93.81c-2.21-.3,6.56,1.58,7.05,1.44,1.13-.31-.93-3.05,8.8-1.47.23,1.26-.87,3.67.97,3.87.97.11,1.61.72,2.18,1.21,1.04-.57,3.14-.93,3.6.74.23.83-.3,2.1.32,2.44,3.7,2.03,2.63-.33,3.6,2.04Z"/>
            <path class="cls-36" d="M142.5,368l.22,3.76c.11,1.83,2.33.96,3.62.82,3.74-.4,8.29.83,11.23-1.57,2.74-2.22,5.34-7.22,7.16-6.11.72.44,2.6,1.52,1.35,2.42-.3.22-4.53,5.69-4.76,6.18-.73,1.56-4.12,1.7-4.75,3.42-.41,1.14-1.14,2.31-1.62,3.32-.72,1.5.05,3.89-2.4,5.23,1.36,1.7,1.6,1.77,1.53,2.64-.85,0-1.12-1.12-2.07-.65.65-1.7.43-5.4-.04-7.32l-9.56-.21c-1.34-3.09-1.44-6.72-1.81-10.1-.2-1.8-1.65-1.61-3.17-2.4l-.76-6.46c-.45.96-3.46,1.53-3.57.02-.3-4.07-.08-8.59.14-12.34.98-.44,1.87-.85,1.72-2.16l-.66-5.61c.8-.1,1.54-.79,2.13-1.4.49-.52-.06-1.56-.47-2.4-2.87,2.92-1.04-8.87-1.1-9.56.88.15,2.54-.48,3.37.24-.44,1.89.68,2,.6.49-.73-1.19-.9-1.84-.62-2.21.35-.44,2.9-.86,4.12.2.7.61-1.37,5.55-1.41,8.84l-.33,30.69,1.89,2.23Z"/>
            <path class="cls-81" d="M204.98,337.14c-.41.85-1.31.53-1.58,1.19-.53,1.3.89,5.61-.15,5.03-.97-2.38.1-.02-3.6-2.04-.62-.34-.09-1.61-.32-2.44-.46-1.67-2.56-1.31-3.6-.74-.58-.49-1.22-1.11-2.18-1.21-1.84-.2-.75-2.61-.97-3.87-9.73-1.58-7.68,1.15-8.8,1.47-.49.14-9.26-1.74-7.05-1.44l-5.93-.81c-.31-.84-.37-1.48-.58-1.75-.44-.55-1.37-.19-2.01-.06-3.64.78-2.37,3.7-2.4,7.32-4.55,1.01-.92-2.22-3.47-6.63-.62-1.07.43-2.51-.04-3.56.65-1.12,1.55-.69,2.52-.78l16.19-1.46c5.62-.51,11.2-.82,16.03-2.74.66.76,1.73.69,2.79,1.32l.49,5.23,2.96.92c.54,4.43-.56,5.73,1.73,7.05Z"/>
            <path class="cls-61" d="M195.62,439.06c-1.36-.13-2.4,0-3.75.78-4.59,2.66-7.4.79-7.08,5.09-3.06,1.64-6.61,1.34-10.14,1.21-1.3-1.18,7.03-.32,7.35-.85-.38-1.11-1.2-1.26-1.05-1.93.07-.34.98-.25,1.06-.76-.98-.99-2.68-.88-4.33-.66l-.85-2.16c-1.67-.66-3.64-.24-5.23-1.18-1.12-.66-.65-3.06-.34-4.11,5.73-.83,13.18,1.65,16.22-2.44,1.07,1.4,2.34,1.2,3.06.44-1.42-.32-2.29-.35-2.59-1.17-.17-.45.06-1.72.74-1.89l5.62-1.43c3.7.64,7,1.77,11.1.46-.07,1.77.8,4.76-.54,6.25l-6.18,2.27c-1.42.52-2.4,1.18-3.06,2.08Z"/>
            <path class="cls-101" d="M148.78,358.35c-1.47-4.26.21-9-.88-13.47-.19-.79-.32-1.5-.3-2.16.35.13.45-.22.65-.31.57-.29.22-.46.18-.81.7.4,1.27,1.34,2.2,1.06,2.05-.63,4-1.95,6.34-2.16.7-.06,1.31,2.18.94,2.92-1.02,2.08,1.65,3.83,1.92,5.22.88,4.57.97,11.1-.57,15.19-.6,1.14-2.18,2.16-2.93,2.55-.86.44-3.44.48-3.83-.51-.49-2.19.42-4.76-1.15-6.61-.79-.93-1.63-1.58-2.55-.9Z"/>
            <path class="cls-41" d="M195.62,439.06c.5-.08,1.06.43,1.47.71.64.43-.16,1.21-.4,1.56-.39.57-1.17.21-1.59-.28-.37.72-.16,1-.49,1.22-.19.12-.66-.16-1.24-.48-.79.58-.67,2.1-.44,3.03-2.3.37-5.75,1.2-8.13.12-.32-4.3,2.49-2.43,7.08-5.09,1.35-.78,2.39-.91,3.75-.78Z"/>
            <path class="cls-143" d="M134.3,340.89l.66,5.61c.15,1.31-.74,1.72-1.72,2.16-.22,3.74-.44,8.27-.14,12.34.11,1.51,3.11.95,3.57-.02l.76,6.46c1.52.79,2.97.6,3.17,2.4-.44.03-1.07.17-1.19-.32-.06-.25.06-1.22-.71-.82-.86.44-1.17,2.51-1.13,3.72.09,2.68.1,17.19-1.05,18.28-.43.41-1.51.3-2.32.38-.91,3.08.32,6.62-.91,9.25-.82,1.76-.97,3.08-.91,5.41.01.5-1.71.88-1.21,1.63.29.42.68.76,1.26.98,2.56.99,1.24,3.31.67,4.91-.87,2.46-2.19,3.39-5.18,3.52-1.8.08-1.31-1.42-1.85-2.79-.85-2.14-17.6,8.09-18.76,5.13l-.58-1.48c-.81-2.06-5.77-.66-7.24-2.5-1.99-2.48-4.81-3.38-6.39-5.74-.4-.78-.16-1.53-.58-1.89-.63-.54-4.92.81-3.52-11.16l1.42-12.1c.13-1.15,1.48-2.07,1.08-3.74-.69-2.83-.26-8.87,2.19-11.66,1.11-1.26.37-3.78,1.26-5.09.59-.87,1.41-1.21,1.33-2.23-.14-1.81.33-3.58.94-5.59.66-2.17-.49-5.49.86-7.15s1.77-2.65,1.43-5c1.18-1.2,4.18-.75,5.61-1.31,1.19-.46,1.05-2.19,1.64-3.27.91-1.66,3.39-2.73,4.25-.93.65,1.35.12,3.47,1.49,4.28,1.13.66,3.2-.19,3.98.8,1.05,1.34.11,2.99.28,4.46.1.85,1.29,1.58.96,2.14l-1.2,2.06c2.56-4.38-5.46,19.49-4.59,17.69.6.89.19.8.25.97.08.23.42.51.57.42.24-.15-.1-.83.04-1.39.63-1.25,1.98-2.48,2.4-3.69,1.59-4.61,3.59-4.1,3.3-7.05-.12-1.25.47-3.96,1.23-4.87,5.46-3.6-1.37-6.32,5.93-7.57,1.92-.33,2.06-2.87,3.43-3.9,3.32-2.5,6.23-1.86,5.24-1.74Z"/>
            <path class="cls-16" d="M152.01,387.48c-2,5.26-3.74,18.1-8.58,24.7l-4.02,5.49c-1.69-.62-1.08-2.65-1.07-4.33.02-3.46-1.81-7.05-.37-10.23,1.18-2.6,1.76-5.26,2.18-8.11l2.26-15.06,9.56.21c.47,1.92.69,5.62.04,7.32Z"/>
            <path class="cls-42" d="M100.23,437.94c-1.03-.31-.95-2.56-.31-2.97,3.09-.64,7-.11,10.43-.21,4.46-.13,8.51-.76,12.59-.66.52-.46,2.51-.77,2.83-.06.88,1.99.24,4.2.54,6.42-2.98-.14-4.33,1.97-4.51,4.59-1.57.31-3.63.62-5.01-.23-.86-.54-.49-3.05-1.93-2.91s-2.83.42-3.84-.46c-.91-.79-.73-1.96-.55-3.75-3.58.44-7.13-1.41-10.25.25Z"/>
            <path class="cls-62" d="M123.5,447.42c-.66.07-.43-.63-.63-1.25-3.7-.25-7.16.75-10.58.01-1.11-.24-2.64-.95-3.79-.63-4.52-.15.11-3.62-3.31-7.1-.97-.99-3.5-.16-4.96-.51,3.12-1.65,6.66.19,10.25-.25-.18,1.8-.36,2.96.55,3.75,1.02.88,2.43.6,3.84.46s1.07,2.37,1.93,2.91c1.37.85,3.44.54,5.01.23.18-2.62,1.52-4.72,4.51-4.59-.3-2.21.34-4.43-.54-6.42-.32-.72-2.31-.4-2.83.06.68-1.06,2.07-1.15,3.25-1.29,2-.24,2.28-2.53,3.81-2.97-.72,2.56,1.89,3.15.66,10.05.35-1.94-1.92,5.08-2.08,5.23-.82.73-4.11.42-4.62.83-.41.33-.44,1.07-.44,1.47Z"/>
            <g>
              <path class="cls-129" d="M96.28,361.55c.08,1.02-.74,1.36-1.33,2.23-.89,1.31-.15,3.82-1.26,5.09-2.45,2.79-2.88,8.83-2.19,11.66.41,1.67-.94,2.6-1.08,3.74l-1.42,12.1c-1.4,11.97,2.88,10.62,3.52,11.16.42.36.18,1.11.58,1.89,1.58,2.36,4.4,3.25,6.39,5.74,1.48,1.85,6.44.45,7.24,2.5l.58,1.48c1.16,2.96,17.91-7.27,18.76-5.13.54,1.37.05,2.87,1.85,2.79,2.99-.14,4.31-1.06,5.18-3.52.57-1.6,1.88-3.92-.67-4.91-.58-.22-.98-.56-1.26-.98-.5-.75,1.22-1.13,1.21-1.63-.06-2.34.09-3.66.91-5.41,1.23-2.62,0-6.17.91-9.25.81-.09,1.89.02,2.32-.38,1.15-1.09,1.14-15.6,1.05-18.28-.04-1.21.26-3.28,1.13-3.72.78-.4.65.58.71.82.12.49.75.35,1.19.32.37,3.38.48,7.02,1.81,10.1l-2.26,15.06c-.43,2.84-1.01,5.5-2.18,8.11-1.44,3.18.39,6.77.37,10.23,0,1.68-.62,3.71,1.07,4.33-1.29,1.76-2.57,3.95-4.41,5.7-.55.53-2.3,0-2.62.99-.82,2.53,1.24,4.44-2.38,5.48-1.53.44-1.81,2.73-3.81,2.97-1.18.14-2.57.23-3.25,1.29-4.08-.1-8.13.54-12.59.66-3.43.1-7.34-.43-10.43.21-.64.41-.72,2.67.31,2.97,1.46.35,4-.48,4.96.51,3.42,3.48-1.21,6.95,3.31,7.1-1.78.49-3.9.38-5.89.3l-9.93-.44c-.64-1.89.2-4.04-.71-6.15-.27-.64-1.75-.32-2.53-.79-1.76-8.6,2.69-5.85.73-9.94-.19-.41-.11-1.5-.47-1.74s-1.15-.11-1.41.38c-2.16-4.29,1-5.09-2.53-5.15,1.38-1.87-1.71-3.03-2.08-7.06-4.92-7.66,2.71-3.89,3.2-22.23l.38-14.01c.08-3.14.88-6.96,1.71-10.24.32-1.25,3.16-1.97,2.73-4.34-.16-.86,1.67-2.04,1.73-3.18.67-.56,2.16.4,2.85.59Z"/>
              <path class="cls-6" d="M97.64,428.84c2.05-1.01,3.48.05,4.97-1.14.26,1.13.55,1.38,1.14,1.44.5.05,1.1-.64,1.31-.45,1.11,2.33,4.51,1.9,6.03.4,1.76-1.74,5.97-.08,7.64-2.18,2.02.54,4.33.11,6.66.07,2.89,2.53-16.98,5.88-19.72,4.86l-8.04-2.99Z"/>
            </g>
            <path class="cls-96" d="M108.5,445.55c1.15-.32,2.68.39,3.79.63-1.22,1.05-1.43,2.5-1.13,4.68-3.88.63-8.16.4-11.91.21-.61-.91-.73-3.41.28-3.83,1.39-.59,2.77-.12,3.09-1.39,1.99.09,4.11.19,5.89-.3Z"/>
            <g>
              <path class="cls-75" d="M102.61,445.84c-.32,1.27-1.69.79-3.09,1.39-1,.43-.89,2.93-.28,3.83,3.75.19,8.03.42,11.91-.21-.3-2.17-.09-3.62,1.13-4.68,3.41.74,6.88-.26,10.58-.01.2.62-.03,1.33.63,1.25l-.24,15.19c-1.4.42-2.38-.02-3.44.54.3,10.77-2.05,4.98-2.18,7.7-.14,2.91.33,5.77-.27,8.73-.62,3.11-.02,6.08-.11,8.9l-.33,9.64-36.22-.13c-.12-2.98.45-5.33.04-7.66,1.2,0,2.57-1.02,2.22-2.79,1.22-.83,2.64.1,3.66-.8.71-.63-.22-2.56.85-2.94,1.31-.46,2.79.18,3.59-.61.75-.74-.31-2.6.61-3.4,1.05-.9,2.45.04,4.07-.57-.54-5.67,1.02-11.55-.43-16.73-.96-3.43,0-6.67-.43-10.13-.93-.23-1.81-.09-2.5-.61-.18-1.96.29-3.8-.21-5.52.36-.2.36-.43.04-.68.16.04.32-.15.47-.14l9.93.44Z"/>
              <path class="cls-134" d="M85.76,493.42c2.43-2.19,5.42-.14,10.71-1.24.34-1.09.46-1.97.56-2.9-2.69-.67-5.17-.51-7.54-.96-.32-1.17,1.21-1.74,1.88-2.49.43-.48.07-2.66,1.28-2.55,3.37.32,6.33-.85,9.39-.8,3.54.05,6.67,3.7,5.31,6.51-1.49,3.06-4.64,4.51-7.69,4.49l-13.88-.07Z"/>
              <path class="cls-70" d="M89.48,488.32c2.37.45,4.85.29,7.54.96-.1.93-.22,1.81-.56,2.9-5.29,1.09-8.29-.95-10.71,1.24-.87,0-1.61-1.42-1.12-2.62.65-1.6,3.21-2.78,4.85-2.47Z"/>
              <path class="cls-131" d="M112.5,471.11c.27,2.81-8.97,1.52-11.42,1.7-.45-1.15-.4-2.72.19-3.26.68-.62,1.7-.38,2.68-.41,6.42-.18,8.22-1.47,8.55,1.96Z"/>
              <path class="cls-9" d="M111.7,478.93c-2.43-.15-10.09-.2-10.25-2.18-.24-3.13,13.64-1.33,10.25,2.18Z"/>
            </g>
            <path class="cls-137" d="M214.98,361.11c.13,2.35.02,9.71,3.45,9.92-.59,1.59-2.58,1.79-2.58,3.38.75.59,1.58.06,1.91.16.53.15.15,1.06.22,1.43l-2.97-.64c-1.74-.37-.66-4.11-2.11-5.24-.21-.16-.84.6-1.17-.06-2.21-4.39.09-6.63-2.99-7.69-1.21-3.14-.17-6.79-.71-10.16-1.47-.67-3.1-.22-4.82-.78l.04-8.09c1.05.58-.38-3.73.15-5.03.27-.65,1.17-.33,1.58-1.19,5,2.89-1.02-1.37,2.96,5.13,1.13,1.85-.1,4.34.71,6.21.41.94,2.58.05,3.18.59-.28,1.64.88,2.55,1.42,3.56,1.38,2.59-.53,9.32,1.74,8.49Z"/>
            <path class="cls-48" d="M211.33,490.22c.04,1.2.22,2.56-.67,3.44-2.15,2.12-12.18.36-13.13.3.61-1.53-3.17-4.34-.91-4.96.64.52,14.91-1.91,11.43.93.92.39,2.02.24,3.27.3Z"/>
            <path class="cls-25" d="M191.07,486.44c.71,4.61,5.6-1.22,5.55,2.55-2.27.62,1.51,3.44.91,4.96-3.2-.19-7.02-.29-8.31-4.12-.73-2.17,1.17-2.66,1.86-3.39Z"/>
            <g>
              <path class="cls-56" d="M192.92,444.81c1.75-.28,4.99,1.66,6.96.61.18-.04.48.36.7.06.62.75,1.8.39,1.89,1.11.13,1,.09,4.38-.22,5.25-.19.55-2.09.21-2.16.76-.45,3.43.53,6.49-.21,9.8-1.22,5.45-.42,11.65-.27,17.18,1.39.24,2.73-.38,3.59.23.59.42.13,1.48.39,2.31-.65-.04-.49.59-.64,1.23-6.21-.55-8.22-.79-11.88,3.1-.68.73-2.59,1.22-1.86,3.39,1.29,3.83,5.11,3.93,8.31,4.12.96.06,10.98,1.82,13.13-.3.89-.88.71-2.23.67-3.44-.02-.52.09-1.01,0-1.74s-.89-.56-1.96-.57c-.92.02-1.81-.6-.72-.87.89-.08,2.79-.28,3.28.69.45.88-.24,1.94.6,2.25.57.22,1.31.36,1.93.37.12,2.36.24,4.69-.05,7.77l-37.2-.05-.23-9.53c-.14-5.78.19-11.64-.37-17.85-.11-1.21-2.54-2.5-1.68-4.38.35-.76.14-2.48-.48-3.04-.58-.51-2.08-.29-3.25-.46v-16.17c.95-.78,2.29-.53,3.46-.49,3.52.12,7.08.42,10.14-1.21,2.39,1.08,5.83.25,8.13-.12Z"/>
              <path class="cls-153" d="M185.6,472.46c-1.78-2.02-.94-8.36-2.04-9.41-.51-.49-1.15-.62-1.25-.93-.16-.47.19-1.55.83-1.71,5.84-1.39,3.38-3.45,12.06-3.34,1.66,3.13-.49,5.83-.34,8.59l.37,6.83c-2.72.49-6.36.45-9.62-.04Z"/>
              <path class="cls-92" d="M197.28,451.31l-11.69-.22c-.87-.64-1.24-3.59-.3-4.08l12.13-.34c.87,1.47.55,2.87-.13,4.64Z"/>
              <path class="cls-83" d="M194.89,478.26l-9.22.47c-.68-.48-.76-3.11.28-3.32s12.06-1.74,8.94,2.84Z"/>
            </g>
            <g>
              <path class="cls-80" d="M102.26,301.08c1.34.13,4.12.28,3.81,1.27.39.75.14,1.46.21,2.2.08.89,1.48.47,2.01,1.04,1.13,1.22,2.22,1.74,4,1.76l29.12.38c-.09,2.25-.99,4.65-.37,7.39.36,1.6,3.03,1.71,4.75,1.76-.25,1.24-1.81,2.69-1.04,3.53,2.45.95,5.55-.46,7.03-2.53.31-1.2-1.92-1.1-2.61-2.64.5,1.03-1.17,2.05-2.01,1.78-1.42-.46-1.84-1.48-1.49-2.78.18-.68.08-1.35.64-1.58-.7.3,3.75-1.19,4.6.63.26.56-.67.89-.61,1.6,2.23-.68,3.46-.94,3.97.01,2.11,3.93-5.65,5.96-6.54,9.1,2.57.13,4.54-.45,7,.21,2.11.57-.32-6.68,3.89-7.1,2.1,4.03,1.78,1.44,6.09,2.63-.42,2.1.46,2.99,2.34,3.1,1.29.07,1.73-.29,1.84-1.9.09-1.43-.38-2.2-2.26-2.25-.51-.94-.54-1.94-1.39-2.54-1.84-.11-3.46-.03-5.02.03-2.01-2.53,11.25-1.51,10.22-1.25.66.99,1.2,2.49,1.35,3.7.14,1.13-.88,3.33.18,4.5,8.71.05,17.43-.13,24.69-1.82-1.16-1.75.17-2.31-.02-2.89-.28-.87-1.38-1.32-2.34-1-2.92.97-5.58.29-8.24.52.05-.5-.12-.44-.02-.68.34-.82,1.36-.62,1.71-.44.24-1.15.17-2.2.17-3.12,2.81-.04,2.39-1.81,6.33-1.91.35-1.57.36-3.19-.21-4.84-2.66-.44-5.02-.1-7.37-.23l.7-1.23,1.23-3.84,5.58-.57c.31,1.23,1.44,2.85.87,4.65.96.2,1.65.23,1.99.45.5.33.44,1.09.42,1.84l-.44,14.58c-4.82,1.92-10.41,2.24-16.03,2.74l-16.19,1.46c-.96.09-1.86-.34-2.52.78-1.32-1.51-3.8-1.04-5.31-.07-.5-.86-3.24-1.05-3.46-.05-1.03,4.54-5.56,10.15-5.1,14.14.04.35.4.52-.18.81-.19.1-.3.45-.65.31l.29-12.66c.02-.97.69-2.03.15-2.8-.13-.18-4.64-1.49-5.13,1.33-1.5,8.57-1.02,24.59-.79,33.73.03,1.24-.99,3.23.54,3.81.22.62-.19,1.23-.15,1.87l-1.89-2.23.33-30.69c.04-3.3,2.11-8.23,1.41-8.84-1.22-1.06-3.77-.64-4.12-.2-.29.36-.12,1.02.62,2.21.07,1.51-1.04,1.4-.6-.49-.83-.71-2.5-.08-3.37-.24l-5.17-1.18c-2.03-.46-1.84-3.27-1.27-4.6,1.94,1.14,4.61.97,7.06-.09,1.52-.66,1.47-3.04,1.37-4.54-1.15-.34-1.8.11-2.57.3-1.17-3.32-2.21,2.62-6.54,3.15l-.97-2.51c.92-.33,1.93-.86,1.97-2.46l-8.3.36c-.98.04-1.53.18-2.4-.07-.52-.14-.48-1.92-1-2.02-3.05.05-6.68-.81-9.77-.81h-8.73c-.02-.53-.77-1.01-1.26-.74.03-1.69-.21-3.59.35-5.66.19-.69,1.91-.34,1.94-.89.05-1.07-.28-4.25.46-4.59.59-.27,1.58-.16,2.21-.1Z"/>
              <path class="cls-111" d="M147.59,342.72c-.01.66.11,1.37.3,2.16,1.09,4.47-.58,9.21.88,13.47.44,1.27-.53,2.74-.55,4l-6.12-.03c-.23-9.14-.71-25.16.79-33.73.49-2.82,5.01-1.51,5.13-1.33.54.77-.13,1.83-.15,2.8l-.29,12.66Z"/>
              <path class="cls-148" d="M156.97,327.51c.04,1.52.3,3.2-.48,4.52-1.24,1.09-1.74,2.94-2.54,4.31-2.48-.48-2.05,3.95-3.35,6.31-.92.28-1.5-.66-2.2-1.06-.46-3.98,4.07-9.6,5.1-14.14.23-.99,2.96-.81,3.46.05Z"/>
              <path class="cls-15" d="M148.22,362.35c-.02,1.08.31,2.15-.11,3.55l-5.47.24c-1.53-.58-.51-2.57-.54-3.81l6.12.03Z"/>
              <path class="cls-5" d="M153.96,336.34c.8-1.38,1.3-3.23,2.54-4.31.23,1.1,1.25,3.19-.09,4.31-.63.53-1.87-.14-2.45,0Z"/>
              <path class="cls-21" d="M126.09,318.17c1.34,5.36,2.39.1,1.04,6.78l-12.33-.2c-5.39-.09-10.44-1.59-15.83-2.85-1.39-.32-.98-4.29.1-4.98,10.28,1.64,16.89,1.12,27.01,1.26Z"/>
              <path class="cls-95" d="M126.78,318.06c-.21.08-.46.12-.69.11-10.12-.13-16.74.38-27.01-1.26-1.42-.76-.4-2.54-.52-3.84h8.73c3.09-.01,6.72.84,9.77.8.52.1.48,1.88,1,2.02.87.24,1.42.11,2.4.07l8.3-.36c-.04,1.59-1.05,2.13-1.97,2.46Z"/>
              <path class="cls-88" d="M128.43,321.75c.89-2.05,3.76-.78,5.86-4.33.76-.19,1.42-.64,2.57-.3.1,1.5.15,3.88-1.37,4.54-2.45,1.06-5.12,1.23-7.06.09Z"/>
              <path class="cls-54" d="M186.67,306.72c2.35.13,4.71-.21,7.37.23.57,1.65.56,3.27.21,4.84-3.94.1-3.52,1.87-6.33,1.91-4.71.07-13.42.24-17.47,1.22,1.03-.25-12.24-1.28-10.22,1.25-2.3.09-2.8-2.83-3.81-4.33s-1.11-2.56-.59-4.27c4.97.3,10.06-.16,15.05-.19,4-.03,8.05.04,11.99-.55,1.23-.19,2.57-.18,3.81-.12Z"/>
              <path class="cls-122" d="M155.82,307.58c-.52,1.71-.46,2.7.59,4.27s1.52,4.42,3.81,4.33c1.56-.06,3.18-.14,5.02-.03.84.61.87,1.6,1.39,2.54,1.88.05,2.35.83,2.26,2.25-.1,1.61-.55,1.97-1.84,1.9-1.87-.11-2.75-1-2.34-3.1-4.31-1.19-3.99,1.4-6.09-2.63-4.22.42-1.79,7.67-3.89,7.1-2.45-.66-4.43-.08-7-.21.89-3.14,8.66-5.16,6.54-9.1-.51-.95-1.74-.69-3.97-.01-.06-.7.87-1.04.61-1.6-.85-1.81-5.3-.32-4.6-.63-.56.24-.45.9-.64,1.58-.35,1.3.07,2.33,1.49,2.78.84.27,2.5-.75,2.01-1.78.69,1.54,2.92,1.43,2.61,2.64-1.48,2.07-4.58,3.48-7.03,2.53-.77-.84.79-2.3,1.04-3.53-1.72-.06-4.39-.16-4.75-1.76-.62-2.75.28-5.14.37-7.39,4.8.06,9.57-.45,14.4-.16Z"/>
              <path class="cls-20" d="M171.8,318.63c4.77.06,9.52-.27,14.27-.69,2.66-.23,5.32.45,8.24-.52.96-.32,2.06.13,2.34,1,.19.58-1.14,1.14.02,2.89-7.26,1.69-15.98,1.86-24.69,1.82-1.06-1.17-.04-3.37-.18-4.5Z"/>
              <path class="cls-34" d="M187.92,313.7c0,.91.08,1.96-.17,3.12-.35-.18-1.37-.38-1.71.44-.1.24.08.18.02.68-4.75.42-9.5.75-14.27.69-.15-1.21-.7-2.71-1.35-3.7,4.05-.99,12.77-1.16,17.47-1.22Z"/>
              <path class="cls-146" d="M187.37,305.49l-.7,1.23c-1.24-.07-2.58-.07-3.81.12-.18-.6-.08-1.16.44-1.71.35-.37,3.55.35,4.06.36Z"/>
            </g>
            <path class="cls-115" d="M171,221c-.4-.67-1.75,5.44-5.92,3.39-1.53-.75-.74-3.39-.47-4.75-.57-1.25,1.07-1.85,1.21-2.86.21,1,3.8-1.21,5.12-.04,1.57,1.4-.51,2.51.06,4.25Z"/>
          </g>
          <g>
            <path class="cls-14" d="M191.08,114.32c.95.5,1.15,2.28,2.33,2.78,5.77,2.42.15,3.71,5.28,4.31,2.78,1.29-.67,4.47,4.93,7.92.27.17,0,.91.09,1.15.07.2.13.48.56.34l-.04,19.63c-1.61.18-2.82,1.09-4.27,1.69l-.18-3.63c-.31-6.36.18-12.88-.07-19.6l-6.82-.71c-1.43-.15-.07-3.75-3.17-4.93.77-1.84.09-3.18-.91-4.45-.84-1.07-2.42-1.06-4.18-.65-1-.75-.96-1.97-1.78-3.05-1.64.76-1.59-1.75-2.3-1.94-1.64-.39-2.83-1.48-3.66-2.74-.59-.91-2.6-1.65-2.96-2.79-4.74.1-2.6-.17-7.62-2.08-.36-.14-.84.93-1.18.95-2.33.09-4,1.2-6.17,2.07-4.35,1.74-1.68,3.01-3.57,3.97-.61.31-1.59-.2-2.18.47-.37.42-.67,1.38-1.45,1.28-.31-.04-.48-.24-.95-.39,1.01-.97,1.98-2.96,3.29-3.7,2.25-1.29,2.96-2.4,3.69-4.55,3.6.14,2.36-.49,6.19-1.91-1.04-.15-1.46-.12-1.93-.1.94-2.11,2.19-5,4.76-6.06,6.49-2.68,11.57,4.26,12.87,5.23,2.35,1.76,4.84,3.89,5.76,7.06,1.17.27,2.94.34,3.26,1.96.16.82.11,1.72.64,2.13.43.33,1.17.05,1.74.35Z"/>
            <path class="cls-124" d="M143.26,117.52c-2.18,0-5.18-4.82-7.56-5.6-2.25-.73-2.3,2.53-3.19,3.21-1.78,1.36-2.76,3.71-4.16,5.09-1.68,1.65-2.7,2.33-3.55,4.47-.53,1.33-2.88,2.04-3.46,3.81-.2.52-2.01.29-2.17.89-.22.83-.05,1.86-.36,2.54-1.06,2.33-4.1,2.42-6.35,2.9-1.1.84-.17,3.14-.27,4.22-3.5,1.01-7.52.88-11.17.97l6.19-6.85c1.57-1.73,3.76-2.77,4.37-4.97.22-.79,6.71-5.91,5.88-4.88,2.32-2.87,5.06-4.95,7.67-7.43,1.28-1.22,1.28-3.73,3.66-4.73,1.37-.57,2.31-7.02,4.26-6.7.42.07.46.55,1.17-.74,2.85,1.35,6.74,8.81,6.87,8.93,1.29,1.25,3.71,2.96,2.16,4.88Z"/>
            <path class="cls-18" d="M149.41,115.1c.62,1.81-.83,2.44-2.32,3.32-.86.5-.93,2.88-2.89,1.96-.73-.34-.57-2.23-.94-2.88,1.55-1.92-.87-3.63-2.16-4.88-.12-.12-4.01-7.58-6.87-8.93-.7,1.29-.74.81-1.17.74.2-.93,1.85-7.27,3.25-6.6,1.58.76.41,3.56,1.4,4.6s2.75,1.76,4.02,3.36l3.82,4.83c.96,1.22-.51,3.51,1.13,4.81.85.67,1.91-.1,2.73-.33Z"/>
            <path class="cls-51" d="M169.13,204.71c.62,2.3-2.24-.47-4.57,2.01-1.91,2.03,1.45,5.33,1.44,6.09-.02,1.28-.04,2.7-.18,3.98-.14,1.01-1.77,1.61-1.21,2.86-2.72-1.08.28,5-2.43,5.24-1.77.15-.85,2.27-1.52,3.52-2.39,4.41-6.67,5.83-6.62,7.83.02.8.07,2.63-.67,2.98-1.02.48-2.26.05-2.85.81-.49.62-.02,2.06-.63,2.65-.69.67-1.96.79-2.62.74-.76-.06-.99-1.44-.91-2.17-.2-.83.35-1.05,1.2-1.4,2.41-1,2.5-3.48,3.18-5.58.26-.82,2.1-.35,2.46-1.12,1.34-2.91.06-3.12,1.34-4.78.33-.42,1.34.18,1.76-.02,1.14-1.47.93-4,.72-6.08-4.89.64-9.36.7-14,.61-.87-4.1,18.49,2.98,13.86-5.38-8.61,1-15.43.29-24.46.58-.18,1.28-.26,2.37-.6,3.46-.38-.21-.66-.63-.64-1.08.07-1.54-.24-2.78-1.94-3.49-2.8-1.17-1.51-4.71-.4-6.49.61-1.39.75-3.1,1.04-4.37l33.87-.39c1.93-.02,3.66-1.05,5.39-1.02Z"/>
            <path class="cls-74" d="M146.37,241.25c-.9.26-.58-.7-.54-1.4-3.46.4-4.01-2.74-5.15-5.16,1.02-.43,1.13-3.39,0-3.47l-3.6-.26-.3-8c2.42-.1,4.28-.11,6.26-.07,4.63.09,9.11.03,14-.61.21,2.08.43,4.61-.72,6.08-.42.2-1.43-.41-1.76.02-1.28,1.65,0,1.87-1.34,4.78-.35.77-2.19.3-2.46,1.12-.68,2.1-.77,4.58-3.18,5.58-.85.35-1.4.58-1.2,1.4Z"/>
            <path class="cls-45" d="M143.02,222.88c-1.97-.04-3.83-.03-6.26.07l.3,8c-.94-.07-1.95-.82-2.79-1.21-1.42-.44-2.42-8.31-2.46-8.2.34-1.09.42-2.18.6-3.46,9.02-.29,15.84.42,24.46-.58,4.63,8.36-14.73,1.28-13.86,5.38Z"/>
            <path class="cls-89" d="M140.67,234.68c-.11-.87-.99-.74-2.01-.78-1.37-.06-1.56-1.93-1.6-2.95l3.6.26c1.13.08,1.02,3.04,0,3.47Z"/>
            <path class="cls-126" d="M101.47,148.61c-.88,2.39-.18,5-.34,7.52-.08,1.23-.47,2.48-.38,3.73h-5.6c-.1,7.92-.26,15.99.27,23.72.04.52.86,1.79.24,2.22-.48.33-1.47.4-2.09-.13-.28.87-.54,1.12-1.14.93-.27-.08-.69.06-.98-.22-.17-3.9-1.03-7.98-1.3-11.98-.46-6.76.68-13.63-.35-20.32.43-.31.61-1.03,1.14-1.17,1.14,1.64,1.99,3.68,4.59,3.33l.15-4.61c.04-1.24.23-2.34-.39-3.11-.3-.65.61-.78.72-1.29l5.47,1.39Z"/>
            <path class="cls-112" d="M90.94,152.9c.75-1.87,2.76-3.18,4.35-4.39.62.77.43,1.87.39,3.11l-.15,4.61c-2.59.35-3.44-1.69-4.59-3.33Z"/>
            <path class="cls-86" d="M204.29,166.06c-1.24,1.38-3.73,7.11-2.79,8.93.46.88,1.52,1.12,2.17,1.81-1.73,2.51-1.96,8.1-3.61,7.72l-.15-8.34c-.12-6.75.57-13.56-.58-20.14.23-1.15.69-2.68.63-3.91,1.45-.6,2.66-1.5,4.27-1.69l-.39,4.3c-.36,3.95.8,7.66.46,11.32Z"/>
            <path class="cls-58" d="M100.75,159.86c.16,2.25-2.19,1.23-1.46,4.43.19.82,1.91.23,2.2.7,1.01,1.66,2.35,3.11,4.4,3.04-.22.89-.22,1.83-.28,2.93l5.16.66c1.14,2.43,1.02,6.77-.35,8.98-4.23,1.21-9,.34-13.23,1.12-1.48.27-1.26,7.35-.62,9.55l4.28.41c.12,1.43-.19,2.92.18,4.02l-4-1.04c-.78-2.86-2.88-4.65-5.44-5.26l-.13-3.03c.29.29.71.14.98.22.6.18.86-.06,1.14-.93.62.53,1.61.46,2.09.13.61-.43-.21-1.7-.24-2.22-.53-7.73-.37-15.8-.27-23.71h5.6Z"/>
            <path class="cls-123" d="M123.62,205.16c-3.31.38-13.77-1.29-12.64.1-.9,0-.4-.77-.4-1.33l-5.3-1.17c-.16-1.09-.69-1.95-1.16-2.53-.75-.9-1.51-.62-1.95-.98-.83-.69-.54-1.75-.73-2.31,6.39-.76,4.46.76,8.7,4.17,3.49.41,6.68.39,7.34,3.33,2.1-.23,4.48-.48,6.14.72Z"/>
            <path class="cls-142" d="M199.78,148.5l.18,3.63c.06,1.23-.4,2.75-.63,3.91-1.5-.23-2.73.77-4.13,1.15.36-2.68.37-5.38.34-8.09,0-.25.05-.49,0-.74.55-.2.93-1.51,1.88-1.18-.05.79.1,1.41.93,1.53.52.08.94-.09,1.44-.21Z"/>
            <g>
              <path class="cls-125" d="M106.61,156.72l.48,4.86c.14,1.46.25,1.93,1.4,3.31.99,1.18.8,2.56,2.56,2.6.32.81-.74.46-1.16.62-.7.86-1.29.94-2.31,1.17s-.7-1.24-1.7-1.24c-2.05.07-3.38-1.38-4.4-3.04-.29-.47-2.01.12-2.2-.7-.73-3.2,1.62-2.18,1.46-4.43-.09-1.25.3-2.5.38-3.73l5.48.59Z"/>
              <path class="cls-37" d="M121.73,162.97c-.14.32-.83.77-.89,1.12-.02,1.31-.59,3.09-2.27,3.35-2.39-.21-5.1.08-7.52.03-1.76-.03-1.57-1.41-2.56-2.6-1.15-1.37-1.25-1.85-1.4-3.31,1.19-.51,3.09-.68,4.71-.77.85.34,1.35,1.8,2.7,1.68,1.58-.15,2.12-.43,3.19-1.85.42-.55,2.47-.11,2.79.51.26.51-.15,1.49.35,1.81.21.14.58-.02.9.01Z"/>
              <path class="cls-133" d="M106.61,156.72l-5.48-.59c.16-2.52-.54-5.12.34-7.52l5.37.25c.75,2.7-.47,5.4-.23,7.85Z"/>
              <g>
                <path class="cls-150" d="M126.25,149.03c-1.06-.07-2.23-.75-3.52.11.02,3.66.36,10.63-1.01,13.83-.32-.03-.69.12-.9-.01-.5-.32-.09-1.31-.35-1.81-.31-.61-2.37-1.06-2.79-.51-1.07,1.42-1.61,1.7-3.19,1.85-1.34.12-1.85-1.34-2.7-1.68-1.62.09-3.52.26-4.71.77l-.48-4.86c-.24-2.45.98-5.15.23-7.85l-5.37-.25-5.47-1.39c.12-1.67,1.55-2.7,2.28-4.36.38-.86-.29-2.18.56-2.55.62-.27,1.47-.28,2.19-.3,3.65-.09,7.67.04,11.17-.97,10.06,1.37-.83.62,9.84,2.16.78.11,0,1.41.27,2.32.51,1.67,3.26.51,4.3,1.34,1.1.89.33,3.3-.36,4.16Z"/>
                <path class="cls-106" d="M113.1,150.99c.13,2.08-.8,2.12-2.93,1.85-1.06-.13-.6-1.21-.83-2.6-.26-1.52,1.06-1.84,2.02-1.96,1.77-.22,1.66,1.31,1.74,2.71Z"/>
                <path class="cls-130" d="M106.42,143.95c-10.47,2.03-1.97,1.42-5.91,2.58-.42.12-1.14.01-1.61-.5-1.06-1.16,4.04-4.15,7.52-2.07Z"/>
                <path class="cls-28" d="M120.63,148.89c.79.12.6,1.85.33,2.44-.34.75-1.37,1.09-1.99.88-.95-.32-1.14-1.73-1.04-2.37.13-.83,1.4-1.14,2.7-.95Z"/>
                <path class="cls-98" d="M110.66,158.88c-.36-.11-.56-1.11-1.14-1.73.71-.85.96-.04,1.22.18.45.38.52,1.58-.08,1.54Z"/>
              </g>
            </g>
            <g>
              <path class="cls-8" d="M58.07,332.1c1.08,2.65.15,10.45-.18,13.92-.67.86-2.71.38-3.75.54-.33-.53-.92-1.12-1.01-1.66s.51-1.97,1.08-1.9c.98.12,1.61.63,2.4.45,2-.48.29-6.64.86-5.77-.92-1.4-3.09-.8-4.19.45-.95,1.08-.21,1.92.49,3.96-2.32-.23-3.97-.94-5.56-1.71.69-.56-.44-1.68-.56-2.24l-.8-3.85c-1.6-.51-4.85-.72-5.42.58.04,1.81-.98,2.66-3,3.14-1.46.35-1.14,2.69-.63,3.97-1.57-.06-3.17.94-4.59.39-1.56-.59-.65-2.83-.66-4.25-3.11,1.4,1.88,2.46-4.09,7.79-.99-2.15-1.22-5.23-.04-7.61.9-1.82,1.24-3.88,2.55-5.52,1.12-1.41.8-3.14,1.68-4.77,1.82-.01,4.49-1.43,4.19-3.36,2.64,1.43,6,1.03,8.61,2.81.78.53,11.8,5.66,12.63,4.65Z"/>
              <path class="cls-63" d="M48.2,340.37c-1.52,1.22-2.61,4.64-.36,5.86,1.72.93,3.92-.46,5.17.86-.23.72-.32,1.51-.34,2.59s-.87,1.35-1.53,1.22c-9.47-.71-1.13,2.61-9.62.69-.98.46-1.09,1.48-1.63,1.58-3.68.74-2.38-2.29-4.52-1.03-3.15-2.5-3.67.85-6.92-6.25,5.97-5.33.98-6.38,4.09-7.79,0,1.42-.9,3.66.66,4.25,1.42.54,3.02-.46,4.59-.39-.51-1.29-.82-3.63.63-3.97,2.03-.49,3.04-1.33,3-3.14.58-1.3,3.82-1.09,5.42-.58l.8,3.85c.12.56,1.25,1.68.56,2.24Z"/>
              <path class="cls-26" d="M250.96,324.93c2.14,1.33,11.19,12.99,8.33,17.68-4.84.01-2.08,3.53-4.78,4.01-.35.06-1.07-.54-1.18-1.02-.13-.56.77-1.97-.38-2.21-2.41-.5-4.65-.02-6.71-.58l-.08-4.92c-5.84-1.33-1.55-.86-4.57-3.29.1-5.42,2.1-3.16,3.86-7.73,1.59-.78,3.68-3.09,5.52-1.94Z"/>
              <path class="cls-53" d="M236.61,340.25c.1-.15.62,6,.02,4.91.94,1.68,2.55.55,3.71.64.87.07,1.81,1.91,2.96,1.36,1.23-.59,1.28-1.84,1.7-2.96.2-.54,1.25-.51,1.23-1.4,2.06.55,4.31.08,6.71.58,1.15.24.26,1.65.38,2.21.11.48.83,1.08,1.18,1.02,2.7-.47-.06-3.99,4.78-4.01.38.71.36,1.96.28,2.94-.1,1.14-1.77.7-2.4,1.49l-2.97,3.77-5.82.73c-1,1.18-1.53,2.45-3.72,1.89-.52-.13-1.46.17-1.81-.24-.25-.3-.13-1.45-.55-1.56-2.9-.73-5.82-.5-8.6-.89-.4-1.47-.26-2.54-.32-3.6-.03-.5-.24-.62-.71-.65-1.24-.08-2.48-.11-3.73-.01-.39-1.27-.75-2.76-.74-4.38l.09-10.14c1.34-.05,2.61-1.01,3.88-1.23-1.19,2.71-.82,6.25-.4,9.36,1.08,1.01,3.64.64,4.84.16Z"/>
              <path class="cls-40" d="M54.14,346.55c-.4.06-.85.22-1.13.54-1.25-1.32-3.45.07-5.17-.86-2.26-1.23-1.16-4.64.36-5.86,1.59.77,3.24,1.48,5.56,1.71-.7-2.04-1.44-2.88-.49-3.96,1.1-1.26,3.27-1.86,4.19-.45-.57-.86,1.14,5.3-.86,5.77-.78.19-1.42-.33-2.4-.45-.57-.07-1.17,1.37-1.08,1.9s.68,1.13,1.01,1.66Z"/>
              <path class="cls-65" d="M245.43,326.87c-1.76,4.56-3.76,2.3-3.86,7.73-.63.18-1.71-.68-2.51-.11-1.03.74-1.19,2.33-1.52,3.32-.28.83-.43,1.68-.94,2.46-1.2.48-3.76.84-4.84-.16-.42-3.11-.78-6.65.4-9.36,2.61-.44,4.91-1.6,7.49-2.94,1.03-.53,2.3-.36,3.1-.84.7-.42,1.94-.22,2.67-.08Z"/>
              <path class="cls-139" d="M241.58,334.6c3.02,2.43-1.27,1.96,4.57,3.29l.08,4.92c.01.89-1.03.86-1.23,1.4-.42,1.11-.47,2.37-1.7,2.96-1.15.55-2.09-1.29-2.96-1.36.99-.92,2.39-3.73,1.17-4.94.19-1.22-1.42-1.08-2.04-1.54s-.9-1.77-1.92-1.54c.33-.99.49-2.58,1.52-3.32.8-.57,1.88.3,2.51.11Z"/>
              <path class="cls-65" d="M241.5,340.87c1.22,1.2-.18,4.02-1.17,4.94-1.15-.09-2.77,1.04-3.71-.64.6,1.09.08-5.06-.02-4.91,1.15-.46,3.89-.34,4.89.62Z"/>
              <path class="cls-53" d="M241.5,340.87c-1-.96-3.74-1.08-4.89-.62.51-.77.66-1.62.94-2.46,1.01-.23,1.3,1.08,1.92,1.54s2.23.32,2.04,1.54Z"/>
            </g>
            <g>
              <path class="cls-109" d="M199.33,156.04c1.15,6.58.46,13.38.58,20.14-1.83-.36-2.91,1.51-4.67,2.3-4.45,1.99-10.39,3.8-15.4,2.14-2.54-.84-2.61-6.74-.66-7.6,1.12-.5,1.78-.03,2.61-1.12,1.52-1.99,4.85-1.48,7.24-1.3l-.51-2.61c4.98-.9,7.78-5.98,6.67-10.81,1.4-.38,2.63-1.38,4.13-1.15Z"/>
              <path class="cls-107" d="M192.4,172.3c.69-.28,1.07.21,1.16.52.14.49-.13,1.11-.54,1.3-.47.22-.79-.13-1.06-.45-.29-.35-.38-1.05.44-1.38Z"/>
            </g>
            <path class="cls-66" d="M195.53,148.36c.05.25,0,.49,0,.74-2.47-1.95-.52,8.15-1.65,10.14-1.58-.91-2.9-.38-4.15-.41.79.41.96.73.82,1.2-.3.98-.76.15-1.07-1-.92-.42-1.91-.94-1.88-1.42l.12-1.94c.14-2.26-1.4-5.07.06-6.81,1.59-.57,3.76.26,5.09-.9.44.39,1.9.67,2.66.4Z"/>
            <g>
              <path class="cls-44" d="M197.41,147.18c-.95-.33-1.33.98-1.88,1.18-.76.27-2.22,0-2.66-.4l.4-4.81c-2.45-.32-4.67-.21-7.55,0-.42,1.84-.07,3.64-.21,5.36-.04.34-.24.59-.59.51-.66-.1-1.34-.25-1.99-.39-1.1-.24-2.27-.17-2.5,1.1-1.21-.43-2.35.22-3.54.47.37-1.37-1.45-1.05-2.13-1.22-1.5-.39-4.14-1.27-5.5.61.26-1.17-1.74-.41-2.17-.97-.84-1.11-.42-2.87-.18-4.26,2.94.16,5.13-.93,6.24-3.84l5.34-.7,16.37-.08c-.1,1.81-.48,3.75.81,4.3.67.29,2.2-1.14,2.5-.04.34,1.27-.78,2.23-.75,3.18Z"/>
              <path class="cls-128" d="M187.78,148.86c-1.46,1.75.09,4.56-.06,6.81l-.12,1.94c-.03.48.96,1,1.88,1.42.31,1.15.77,1.98,1.07,1,.14-.46-.03-.79-.82-1.2,1.25.02,2.57-.51,4.15.41,1.13-1.99-.82-12.09,1.65-10.14.03,2.71.02,5.41-.34,8.09,1.11,4.83-1.69,9.9-6.67,10.81,2.3-.42-17.19.21-16.56.22-.76,0-2.62-.75-3.11-1.33-1.53-1.83-1.61-11.03.12-9.65-.17,1.16.81,2.59.58,3.7-.37,1.81,1.51,3.28,2.79,4.16.29.19-2.48,3.65,9.93,2.07,2.42-.31,2.06-3.03,2.58-4.2,1.43-3.25,1.66-10.11.06-13.93.35.08.56-.17.59-.51.75.24,1.5.62,2.27.35Z"/>
              <path class="cls-12" d="M192.87,147.96c-1.33,1.17-3.5.34-5.09.9-.77.27-1.52-.11-2.27-.35.13-1.72-.22-3.52.21-5.36,2.89-.22,5.1-.32,7.55,0l-.4,4.81Z"/>
              <path class="cls-116" d="M184.86,162.95c-.52,1.17-.16,3.89-2.58,4.2-12.42,1.58-9.65-1.87-9.93-2.07-1.28-.87-3.16-2.35-2.79-4.16,5.87-2.33,8.64,4,10.66.74.58-.94,1.89-1.81,2.76-1.25.61.39.28,1.5.52,1.9s.83.92,1.35.64Z"/>
              <g>
                <path class="cls-87" d="M174.75,148.98c-1.39.21-2.1.94-1.61,2.06.61,1.41,1.27,1.97,2.57,1.61,1.12-.3,1.13-1.54,1.17-2.45,1.19-.25,2.33-.9,3.54-.47-.07.73,0,1.6.61,2.15.34.31,1.6.39,1.76-.21.32-1.21.05-2.18.12-3.05.65.14,1.33.3,1.99.39,1.6,3.82,1.37,10.68-.06,13.93-.53.28-1.11-.24-1.35-.64s.09-1.51-.52-1.9c-.87-.55-2.18.31-2.76,1.25-2.02,3.26-4.79-3.07-10.66-.74.23-1.11-.75-2.54-.58-3.7.36-2.45-.36-5.23.28-7.64,1.36-1.88,4-.99,5.5-.61Z"/>
                <path class="cls-121" d="M174.75,148.98c.68.17,2.5-.14,2.13,1.22-.05.91-.05,2.15-1.17,2.45-1.3.35-1.96-.21-2.57-1.61-.49-1.12.23-1.85,1.61-2.06Z"/>
                <path class="cls-78" d="M182.92,148.63c-.08.87.2,1.84-.12,3.05-.16.6-1.42.51-1.76.21-.61-.55-.68-1.43-.61-2.15.23-1.27,1.4-1.35,2.5-1.1Z"/>
                <path class="cls-145" d="M175.62,159.81c-.5-.66-.37-1.44-.12-2.58.75.35.67,1.07.12,2.58Z"/>
              </g>
            </g>
            <g>
              <path class="cls-49" d="M199.78,148.5c-.5.12-.92.29-1.44.21-.82-.12-.98-.75-.93-1.53-.03-.95,1.08-1.91.75-3.18-.29-1.11-1.83.32-2.5.04-1.29-.55-.91-2.49-.81-4.3l-16.37.08-5.34.7c-1.11,2.91-3.29,4-6.24,3.84-.24,1.39-.66,3.15.18,4.26.43.56,2.42-.2,2.17.97-.64,2.41.08,5.19-.28,7.64-1.73-1.39-1.65,7.81-.12,9.65.49.58,2.35,1.33,3.11,1.33-.63,0,18.86-.63,16.56-.22l.51,2.61c-2.4-.18-5.73-.7-7.24,1.3-.83,1.09-1.48.62-2.61,1.12-1.95.86-1.88,6.75.66,7.6,5,1.66,10.94-.15,15.4-2.14,1.76-.79,2.84-2.66,4.67-2.3l.15,8.34c-.19,1.38-1.65,2.27-2.85,2.82-1.09.91-.95,2.89-1.45,4.24-1.19.44-2.09-.08-3.2.67.68,1.39-.41,3.66-2.02,4.03-1.05.24-1.74.5-2.49.74-.98.32-1.61.89-1.36,2.07-1.88.71-4.67,1.03-6.64,2.06l-5.6,2.94c-1.4.73-3.87.65-5.33.63-1.73-.03-3.46,1-5.39,1.02l-33.87.39c-2.13.02-4.05-1.21-6.25-.96-1.66-1.2-4.03-.95-6.14-.72-.66-2.94-3.86-2.92-7.34-3.33-4.24-3.4-2.3-4.93-8.7-4.17l-.42-1.23c-.37-1.09-.06-2.58-.18-4.02l-4.28-.41c-.64-2.2-.86-9.28.62-9.55,4.23-.78,9,.09,13.23-1.12,1.38-2.21,1.49-6.55.35-8.98l-5.16-.66c.06-1.1.07-2.04.28-2.93.99,0,.67,1.47,1.7,1.24s1.61-.31,2.31-1.17c.42-.15,1.48.19,1.16-.62,2.42.05,5.13-.24,7.52-.03.06,1.91,3.83.17,5.02-.73,3.2-2.42.98-12.23,1.86-16.9.85-.12,1.89-.45.79-.78.69-.86,1.46-3.27.36-4.16-1.03-.83-3.79.32-4.3-1.34-.28-.91.51-2.21-.27-2.32-10.67-1.54.22-.79-9.84-2.16.09-1.07-.83-3.38.27-4.22,2.25-.48,5.29-.57,6.35-2.9.31-.68.14-1.71.36-2.54.16-.6,1.96-.37,2.17-.89.58-1.77,2.93-2.47,3.46-3.81.85-2.14,1.87-2.81,3.55-4.47,1.4-1.38,2.38-3.73,4.16-5.09.89-.68.94-3.94,3.19-3.21,2.38.77,5.38,5.59,7.56,5.6.36.64.2,2.53.94,2.88,1.96.92,2.04-1.46,2.89-1.96,1.49-.88,2.94-1.52,2.32-3.32.14-.64.99-.81,1.39-1.19.47.15.64.35.95.39.78.09,1.09-.86,1.45-1.28.58-.67,1.57-.16,2.18-.47,1.89-.96-.77-2.23,3.57-3.97,2.17-.87,3.84-1.97,6.17-2.07.34-.01.82-1.08,1.18-.95,5.03,1.91,2.88,2.18,7.62,2.08.36,1.14,2.37,1.88,2.96,2.79.82,1.26,2.01,2.36,3.66,2.74.72.19.66,2.7,2.3,1.94.81,1.08.78,2.31,1.78,3.05,1.76-.41,3.34-.42,4.18.65,1,1.27,1.68,2.61.91,4.45,3.11,1.18,1.75,4.78,3.17,4.93l6.82.71c.25,6.72-.24,13.24.07,19.6Z"/>
              <g>
                <path class="cls-144" d="M126.25,149.03c1.1.33.05.66-.79.78-.89,4.68,1.34,14.49-1.86,16.9-1.19.9-4.97,2.64-5.02.73,1.68-.27,2.25-2.04,2.27-3.35.05-.36.75-.8.89-1.12,1.37-3.2,1.03-10.16,1.01-13.83,1.29-.86,2.46-.18,3.52-.11Z"/>
                <path class="cls-35" d="M155.14,189.6l-18.34.19c-1.14.01-.95-1.37-.82-1.91.21-.88,1.15-.79,2.14-.79l18.39.08c.91,0,.68,1.17.54,1.8-.19.91-.83.62-1.91.63Z"/>
                <path class="cls-104" d="M184.35,136.39c.62-.86-.32-1.64.38-2.32.59-.56,1.98-.29,2.59-.81,2.06-1.73,4.53-2.34,6.41-1.8.54.16,1.07,1.88.38,2.07l-9.77,2.86Z"/>
                <path class="cls-97" d="M150.3,194.77c-2.35.67-4.62.48-7.28.12,1.81-1.6,4.91-1.58,7.28-.12Z"/>
                <path class="cls-38" d="M186.7,199.08c-.26-1.18.37-1.75,1.36-2.07.43.56.83,1.12.22,1.94-.37.5-1.12.23-1.58.13Z"/>
                <path class="cls-104" d="M184.35,136.39c-.34.48.11,1.69-1.1,1.31-.62-.19-1.16,1.14-1.94.03,1.16-.91,2.04-1.25,3.04-1.34Z"/>
                <g>
                  <path class="cls-64" d="M151.59,174.94c-.06.14-5.25,3.77-4.32,3.51-1.98.54-2.72-1.56-6.63-2.97.51-1.63.71-3.69,1.86-5,1.61-1.81,7.27-.63,7.31-.62,1.16.43,2.18,4.18,1.77,5.08Z"/>
                  <path class="cls-27" d="M149.59,170.77c.17,1.83-.92,1.63-1.66,1.72-.63.07-2.36-.13-2.07-1.39.25-1.05,2.7-1.03,3.73-.33Z"/>
                </g>
              </g>
            </g>
          </g>
        </g>
      </g>
    </g>
  </g>
</svg>