<?xml version="1.0" encoding="UTF-8"?>
<svg id="_レイヤー_2" data-name="レイヤー 2" xmlns="http://www.w3.org/2000/svg" viewBox="0 0 372.18 512">
  <defs>
    <style>
      .cls-1 {
        fill: #bf6b87;
      }

      .cls-2 {
        fill: #a27150;
      }

      .cls-3 {
        fill: #acabbc;
      }

      .cls-4 {
        fill: #fefeff;
      }

      .cls-5 {
        fill: #d8a183;
      }

      .cls-6 {
        fill: #66647d;
      }

      .cls-7 {
        fill: #727087;
      }

      .cls-8 {
        fill: #947880;
      }

      .cls-9 {
        fill: #5a4c64;
      }

      .cls-10 {
        fill: #d1a65f;
      }

      .cls-11 {
        fill: #4d3f59;
      }

      .cls-12 {
        fill: #cfbdc7;
      }

      .cls-13 {
        fill: #bcbecf;
      }

      .cls-14 {
        fill: #f1ebcf;
      }

      .cls-15 {
        fill: #d0a070;
      }

      .cls-16 {
        fill: #dde0e8;
      }

      .cls-17 {
        fill: #6a6783;
      }

      .cls-18 {
        fill: #9290a8;
      }

      .cls-19 {
        fill: #5f4258;
      }

      .cls-20 {
        fill: #f6f6f6;
      }

      .cls-21 {
        fill: #9390aa;
      }

      .cls-22 {
        fill: #9781a0;
      }

      .cls-23 {
        fill: #634a61;
      }

      .cls-24 {
        fill: #62435e;
      }

      .cls-25 {
        fill: #dcdee1;
      }

      .cls-26 {
        fill: #524b6c;
      }

      .cls-27 {
        fill: #f1acac;
      }

      .cls-28 {
        fill: #d77899;
      }

      .cls-29 {
        fill: #94787d;
      }

      .cls-30 {
        fill: #fbfcf9;
      }

      .cls-31 {
        fill: #aeadbf;
      }

      .cls-32 {
        fill: #b4a4a1;
      }

      .cls-33 {
        fill: #44385a;
      }

      .cls-34 {
        fill: #b4b4c6;
      }

      .cls-35 {
        fill: #443b5e;
      }

      .cls-36 {
        fill: #a97b5d;
      }

      .cls-37 {
        fill: #ce9e71;
      }

      .cls-38 {
        fill: #5b4e41;
      }

      .cls-39 {
        fill: #936267;
      }

      .cls-40 {
        fill: #57405f;
      }

      .cls-41 {
        fill: #d5dbe0;
      }

      .cls-42 {
        fill: #fdfdfb;
      }

      .cls-43 {
        fill: #6c6982;
      }

      .cls-44 {
        fill: #604962;
      }

      .cls-45 {
        fill: #696a82;
      }

      .cls-46 {
        fill: #5c5474;
      }

      .cls-47 {
        fill: #eaebec;
      }

      .cls-48 {
        fill: #8c5e54;
      }

      .cls-49 {
        fill: #7c554f;
      }

      .cls-50 {
        fill: #694d68;
      }

      .cls-51 {
        fill: #f5ccc3;
      }

      .cls-52 {
        fill: #fafcf8;
      }

      .cls-53 {
        fill: #84606f;
      }

      .cls-54 {
        fill: #c8c4cf;
      }

      .cls-55 {
        fill: #d9aab6;
      }

      .cls-56 {
        fill: #fdfdfc;
      }

      .cls-57 {
        fill: #b6b7c6;
      }

      .cls-58 {
        fill: #685365;
      }

      .cls-59 {
        fill: #9c6d68;
      }

      .cls-60 {
        fill: #acabbf;
      }

      .cls-61 {
        fill: #433457;
      }

      .cls-62 {
        fill: #f2cb56;
      }

      .cls-63 {
        fill: #8f6861;
      }

      .cls-64 {
        fill: #edb8ce;
      }

      .cls-65 {
        fill: #4d375e;
      }

      .cls-66 {
        fill: #9e9cb4;
      }

      .cls-67 {
        fill: #8c8aa4;
      }

      .cls-68 {
        fill: #6d6b81;
      }

      .cls-69 {
        fill: #b4b5c5;
      }

      .cls-70 {
        fill: #67627d;
      }

      .cls-71 {
        fill: #9e9cb2;
      }

      .cls-72 {
        fill: #e994b3;
      }

      .cls-73 {
        fill: #9d9ab0;
      }

      .cls-74 {
        fill: #cc768e;
      }

      .cls-75 {
        fill: #6c687f;
      }

      .cls-76 {
        fill: #6b6980;
      }

      .cls-77 {
        fill: #e09ea6;
      }

      .cls-78 {
        fill: #9795ac;
      }

      .cls-79 {
        fill: #888da0;
      }

      .cls-80 {
        fill: #867789;
      }

      .cls-81 {
        fill: #89859e;
      }

      .cls-82 {
        fill: #403054;
      }

      .cls-83 {
        fill: #857b92;
      }

      .cls-84 {
        fill: #bcb8c7;
      }

      .cls-85 {
        fill: #b2b9bc;
      }

      .cls-86 {
        fill: #c0abae;
      }

      .cls-87 {
        fill: #fafbf8;
      }

      .cls-88 {
        fill: #cdced7;
      }

      .cls-89 {
        fill: #6c4b5a;
      }

      .cls-90 {
        fill: #76596f;
      }

      .cls-91 {
        fill: #c7c7d3;
      }

      .cls-92 {
        fill: #a57965;
      }

      .cls-93 {
        fill: #806571;
      }

      .cls-94 {
        fill: #e3bb74;
      }

      .cls-95 {
        fill: #736676;
      }

      .cls-96 {
        fill: #eeeeed;
      }

      .cls-97 {
        fill: #7b555a;
      }

      .cls-98 {
        fill: #a3a3b8;
      }

      .cls-99 {
        fill: #4e4266;
      }

      .cls-100 {
        fill: #9191a8;
      }

      .cls-101 {
        fill: #dbdbe2;
      }

      .cls-102 {
        fill: #e18d9c;
      }

      .cls-103 {
        fill: #b8b9c7;
      }

      .cls-104 {
        fill: #89869f;
      }

      .cls-105 {
        fill: #9693a3;
      }

      .cls-106 {
        fill: #473f5a;
      }

      .cls-107 {
        fill: #e2e2eb;
      }

      .cls-108 {
        fill: #d9d9e0;
      }

      .cls-109 {
        fill: #90645f;
      }

      .cls-110 {
        fill: #8e6e75;
      }

      .cls-111 {
        fill: #60465d;
      }

      .cls-112 {
        fill: #6a6782;
      }

      .cls-113 {
        fill: #7b555c;
      }

      .cls-114 {
        fill: #85717b;
      }

      .cls-115 {
        fill: #d3d4de;
      }

      .cls-116 {
        fill: #504867;
      }

      .cls-117 {
        fill: #9595ad;
      }

      .cls-118 {
        fill: #443a5b;
      }

      .cls-119 {
        fill: #c69266;
      }

      .cls-120 {
        fill: #533a58;
      }

      .cls-121 {
        fill: #767692;
      }

      .cls-122 {
        fill: #4a4061;
      }

      .cls-123 {
        fill: #a4a3b8;
      }

      .cls-124 {
        fill: #918da8;
      }

      .cls-125 {
        fill: #ab7662;
      }

      .cls-126 {
        fill: #c8a773;
      }

      .cls-127 {
        fill: #9d9bb0;
      }

      .cls-128 {
        fill: #ecebf1;
      }

      .cls-129 {
        fill: #afadb2;
      }

      .cls-130 {
        fill: #6d6a81;
      }

      .cls-131 {
        fill: #a87b5f;
      }

      .cls-132 {
        fill: #fafcfb;
      }

      .cls-133 {
        fill: #9b8066;
      }

      .cls-134 {
        fill: #bcbfca;
      }

      .cls-135 {
        fill: #71596a;
      }

      .cls-136 {
        fill: #dd8295;
      }

      .cls-137 {
        fill: #d47a91;
      }

      .cls-138 {
        fill: #514a6b;
      }

      .cls-139 {
        fill: #684a54;
      }

      .cls-140 {
        fill: #9a99b0;
      }

      .cls-141 {
        fill: #6a667f;
      }

      .cls-142 {
        fill: #9b726d;
      }

      .cls-143 {
        fill: #4a4161;
      }

      .cls-144 {
        fill: #75596b;
      }

      .cls-145 {
        fill: #494061;
      }

      .cls-146 {
        fill: #e0bec3;
      }

      .cls-147 {
        fill: #f5c1ba;
      }

      .cls-148 {
        fill: #a9a8bb;
      }

      .cls-149 {
        fill: #fcfdfa;
      }

      .cls-150 {
        fill: #4a3a5a;
      }

      .cls-151 {
        fill: #76738b;
      }

      .cls-152 {
        fill: #76525b;
      }

      .cls-153 {
        fill: #b29995;
      }

      .cls-154 {
        fill: #764c53;
      }

      .cls-155 {
        fill: #cdb07e;
      }

      .cls-156 {
        fill: #9b695f;
      }

      .cls-157 {
        fill: #815d59;
      }

      .cls-158 {
        fill: #a19fb3;
      }

      .cls-159 {
        fill: #7f616e;
      }

      .cls-160 {
        fill: #edbbb8;
      }

      .cls-161 {
        fill: #bfbcca;
      }

      .cls-162 {
        fill: #8787a1;
      }

      .cls-163 {
        fill: #63455d;
      }

      .cls-164 {
        fill: #845652;
      }

      .cls-165 {
        fill: #afafc1;
      }

      .cls-166 {
        fill: #a4969d;
      }

      .cls-167 {
        fill: #85829f;
      }

      .cls-168 {
        fill: #fbfcfb;
      }

      .cls-169 {
        fill: #473558;
      }

      .cls-170 {
        fill: #c26a87;
      }

      .cls-171 {
        fill: #e6e8e9;
      }

      .cls-172 {
        fill: #887586;
      }

      .cls-173 {
        fill: #60435a;
      }

      .cls-174 {
        fill: #a9a9bb;
      }

      .cls-175 {
        fill: #73505b;
      }

      .cls-176 {
        fill: #8584a2;
      }

      .cls-177 {
        fill: #55506e;
      }

      .cls-178 {
        fill: #eea8a9;
      }

      .cls-179 {
        fill: #a65c83;
      }

      .cls-180 {
        fill: #5d5978;
      }

      .cls-181 {
        fill: #b9b5c3;
      }

      .cls-182 {
        fill: #5c4369;
      }

      .cls-183 {
        fill: #c4c2c5;
      }

      .cls-184 {
        fill: #6f6d85;
      }

      .cls-185 {
        fill: #ad8b6c;
      }

      .cls-186 {
        fill: #9c6863;
      }

      .cls-187 {
        fill: #d1d2de;
      }

      .cls-188 {
        fill: #fafcfc;
      }

      .cls-189 {
        fill: #534f6d;
      }

      .cls-190 {
        fill: #f0f0f2;
      }

      .cls-191 {
        fill: #968fa8;
      }

      .cls-192 {
        fill: #c5c6d1;
      }

      .cls-193 {
        fill: #66637c;
      }
    </style>
  </defs>
  <g id="_レイヤー_1-2" data-name="レイヤー 1">
    <g id="_生成オブジェクト" data-name="生成オブジェクト">
      <path class="cls-86" d="M102.22,496.48l1.2,8.39,66.27.09c1.17-3.21-.97-6.45,1.55-8.34l64.36-.12c1.05,2.58.12,5.35,1.05,8.5h53.53s1.39-8.28,1.39-8.28l51.74.25c2.43.01,2.16,7.45.05,7.48l-47.11.7c.01,2.6.32,4.34-.56,6.71l-55.76.06-139.72.07-.85-6.79-59.86-.5c-2.18-.02-1.76-3.19-1.98-4.37s.33-3.42,2.2-3.43l62.52-.42Z"/>
      <g>
        <path class="cls-4" d="M235.6,496.51l-64.36.12c-.77-1.1-.91-2.39-.83-4.06l1.14-24.75c1.56.38,1.83,1.09,2.55,1.05,2.19-.11.74-5.46,1.54-7.89l9.29-.59.2-17.25c-.49-.57-.73-1.37-.73-1.97,15.78-1.98,9.48,1.01,24.27.11l.78,7.18c3.98.27,7.27-.27,10.72.81.58,3.78.54,7.46.75,11.88,2.95.75,5.77.14,9.44.39.54,5.86-.17,11.28-.86,17.11,1.55.27,2.68-.28,3.54.83,2.2,2.82.31,3.59,2.24,11.45.5,2.05-.33,3.98.32,5.58Z"/>
        <g>
          <path class="cls-31" d="M103.56,432.34c.65,0,2.2-.17,2.63-.76,1.18-1.88.53-4.22.44-7.03l12.08-1.01c.13-.44.19-1.02.19-1.19.29,2.89.14,19.17.38,19.41.33.32.82.63,1.42.74.4,2.48,1.21,5.15,0,7.8l-8.32.41c-.55,2.64.11,4.94-.82,7.13l-63.81.15c-.56-1.78-.24-3.19.22-4.13s4.66.26,5.4-1.08c2-3.61-5.79-.15-7.8-3.04-1.09-1.57.28-4.04-.67-5.68l-8.68-.44-.29-6.56-8.23-.4c-1.6-.84-.65-4.41-1.84-5.25-.87-.61-2.28.86-2.67.14-1.58-2.94,1.2-2.21-.37-3.51s-3.52-.53-6.96-.82l.07-16.48c-2.45-1.43-5.07-.65-7.41-.87-.6-.06-1.5.52-1.66-.53.37-.37,1.13-.09,1.83-.44-.71-8.94-.18-18.29.63-26.83,1.69-.24,3.41.03,4.87-.93-.12.54.82.97.96,1.79.76,4.48-.7,9.03.62,13.06.79,2.4.21,4.44.65,6.84,1.81-.14,4.43-.93,5.21.58.98,1.89-.51,4.15.33,6.03,2.33.51,4.62-.3,6.64.82.1,4.46-.29,8.08.21,11.91,3.34.36,5.87-.28,8.62.35.19,2.69-.27,4.49.22,6.52l8.47.55.28,6.36c3.33.46,6.32-.27,9.49.54l.03,6.42c5.23-.21,12.46,2.32,12.03-3.16l35.32-.32c.22-2.74.42-4.93.31-7.08Z"/>
          <path class="cls-193" d="M120.69,442.5c-5.57-.01,9.8-1.6,3.5-1.4,2.79-.09,1.51,8.5,1.92,9.33.26.53,3.95,1.13,4.85.49,3.71-2.66.36.05,1.06-8.39.79,1.93,1.62,5.27,1.53,7.39-.14,3.49-.77,7.13-.17,10.74-2.21,0-4.38.03-6.96-.34-.34-2.12-.41-4.2-.25-6.21.06-.72.31-1.14-.26-1.68-1.35-1.28-4.1-1.09-4.96-.01-.41.51-.45.89-.26,1.69.26,1.12,0,2.29-.17,4.1-2.86.19-5.08.34-7.32.13-.7-.07-.83.35-1.26.67-.72.53-.23,1.08-.25,1.64-.08,1.68.57,4.41-.87,5.95l-62.96-.06-.57-7.82c-2.24-.28-5.86.79-7.41-.57-1.16-2.44.11-5.3-.6-7.86-3.32-.65-6.56-.47-9.9-.77-1-9.7-1.1-4.52-2.6-11.78-2.47-.74-4.93-.48-7.26-.32-.87-7.45-3.73,2.26-3.67-10.22,3.44.29,5.35-.51,6.96.82s-1.2.57.37,3.51c.39.72,1.8-.75,2.67-.14,1.19.84.24,4.41,1.84,5.25l8.23.4.29,6.56,8.68.44c.94,1.64-.42,4.11.67,5.68,2.01,2.9,9.8-.56,7.8,3.04-.74,1.34-4.93.13-5.4,1.08s-.78,2.35-.22,4.13l63.81-.15c.93-2.18.27-4.48.82-7.13l8.32-.41c1.22-2.66.41-5.33,0-7.8Z"/>
          <path class="cls-130" d="M19.05,342.8c1.26.05,1.8-1.4,1.72-2.51-.12-1.61.25-3.38.31-5.29,2.42-1.33,4.79-.34,7.07-.43l-.45,7.13-5.82.99-1.01,18.7c-7.75-2.92-5.1-9.03-6.07-18.01-1.75-.7-3.8-.78-5.91-1.09-2.16,4.08,2.44,21.69-1.66,18.69-.72.91,1.07.73,1.37,1.47-1.47,6.38,1.28,13.49.7,19.6-.8,8.55-1.34,17.89-.63,26.83-.69.35-1.46.07-1.83.44-.87.23-4.02.57-4.28-.76-.79-4.09.1-7.6-.39-11.13-.08-.6-2.05-.78-2.06-1.44l-.12-40.8c.79-.47,2.43-.29,2.61-1.05.45-3.88-.57-7.42.35-11.41.34-1.46,2.93-.89,3.63-1.74,1.18-1.46.11-4.56,1.83-5.65s4.27.19,6.52.1c.5,2.63-.26,4.81.72,6.64.66.86,2.59.67,3.39.7Z"/>
          <path class="cls-75" d="M126.31,402.68c-.29,4.68-.76,9.69-.68,14.43-1.98-.93-4.06-.47-7.28-.54.43,1.91.34,3.84.54,5.79,0,.17-.06.75-.19,1.19l-12.08,1.01c.08,2.82.74,5.15-.44,7.03-.43.59-1.97.76-2.63.76l-34.24-.16c-1.29-2.6-.24-4.97-.94-7.53l-13.11-.3c-.71-.02-1.16-.38-1.41-.86s.31-.89.32-1.28c.14.07.63.08.87-.16.12-2.16,0-3.93.43-6.23,1.3.37,3.33-.68,4.4-.1,3.12,1.68,6.67.01,10.21,1.22.23,2.72-.4,4.91.11,7.28l35.54-.21.15-7.53,12.53-.36.07-14.7c2.66-1.25,5.34.37,7.4-1.06.02.75.49,1.54.44,2.31Z"/>
          <path class="cls-68" d="M76.23,340.11c-1.2.27-2.59-.27-4.13.24-.59.2-.6.94-.62,1.26-.01.27-.29.53-.68.42-.05-2.78-5.44-1.26-7.6-1.55l-.44-12.67-26.19-.25c-.89,2.26-.19,4.26-.81,6.71-3-.15-5.32.21-7.62.3.13-2-1.19-5.85.68-7.2,2.06-1.48,5.09.17,6.97-.55l.6-7.02,26.06.17c1.14,1.96.52,4.11.36,6.94,2.64,1.06,5.29.43,7.95,1.1.77,3.3-.49,6.51,1.2,9.32,1.47-.42,3.6-.39,3.83.73l.42,2.04Z"/>
          <path class="cls-6" d="M76.23,340.11c.7-.05,1.56.26,1.9.79.3.47.23,1.15.22,1.94l-.24,17.51c-2.43.81-5.74-.68-7.57,1.18-.44-.16-.62.1-.72.57-.12.56.09.85.24,1.2,1.06,2.46-.41,4.2-1.84,5.07-1.54.09-3-.48-4.84.03,0,2.15-.63,3.98-.14,5.67-.63-.41-.77.25-.76.68-3.03.62-6.08-.39-9.14-.13-1.73-1.74-1.93-4.34-.82-6.5l9.93-.22c.72-2.38.31-4.57.74-7.1l6.64-.66c.71-4.42-.39-8.57.83-12.42.62-1.98.17-3.81.14-5.7.39.1.66-.15.68-.42.02-.31.02-1.06.62-1.26,1.54-.51,2.93.03,4.13-.24Z"/>
          <path class="cls-151" d="M52.52,368.13c-1.11,2.16-.91,4.76.82,6.5-.76.24-.41,1.72-1.22,2.05-1.9.77-3.77-.13-5.88.5l.11,23.58c.5,1.76,4.41.78,5.61.98,2.93,1.47.54,5.12,1.57,8.33,2.05.55,4.33-.42,6.44.62.24,2.19-.4,3.68-.11,5.04-1.07-.58-3.1.48-4.4.1-.42,2.3-.31,4.07-.43,6.23-.23.23-.72.23-.87.16.03-1.73-.32-3.54-.67-5.75l-7.6-.65c-.41-2.85-.11-5.2-.22-7.53-.31-6.23-1.06-12.58-1.89-18.97-.56-4.31.68-7.77,1.26-11.95.38-2.77-.5-6.38.72-8.73,1.16-2.23,4.89-.46,6.75-.5Z"/>
          <path class="cls-4" d="M62.48,374.75c-1.54,4.1-3.68,8.2-6.49,13.36-.05.1-5.12,6.38-4.36,8.06-1.47-1.32-1.29-2.17-1.86-2.6-.85-.63-2.94-.71-2.64.69.45,2.09-1.11,4.59.43,6.13,1.23,1.22,3.44-.09,4.41,1.34-1.19-.19-5.11.78-5.61-.98l-.11-23.58c2.1-.63,3.98.27,5.88-.5.81-.33.46-1.81,1.22-2.05,3.05-.26,6.1.74,9.14.13Z"/>
          <path class="cls-76" d="M15.84,427.21l-7.08-.6c-.38-5.7-.57-11.33-.27-16.75,2.34.22,4.97-.56,7.41.87l-.07,16.48Z"/>
          <path class="cls-4" d="M68.23,368.37c-.95.58-2.1,2.3-3.8,2.77-.86.24.83,3.84-1.19,2.93-.49-1.7.14-3.52.14-5.67,1.84-.52,3.31.06,4.84-.03Z"/>
          <path class="cls-4" d="M126.17,454.12c-1.62-1.23-3.86-1.23-5.48,0-.19-.8-.15-1.17.26-1.69.86-1.08,3.61-1.27,4.96.01.56.53.31.96.26,1.68Z"/>
          <path class="cls-42" d="M63.2,340.48l-.45,7.46-6.96.57c-1.72.14.38,5.26-1.34,6.83-.41.37-1.42-.5-2.64-.16-1.75.82-.69,3.48-1.21,5.15-1.33,1.03-3.68.02-4.74,1.1-1.38,1.4-.31,3.88-.55,5.95l-7.78.83v34.35s1.35,5.54,1.35,5.54c2.51.36,4.62.1,6.82.18.12,2.33-.19,4.68.22,7.53l7.6.65c.36,2.21.7,4.01.67,5.75,0,.39-.55.83-.32,1.28.25.47.7.84,1.41.86l13.11.3c.7,2.56-.35,4.93.94,7.53l34.24.16c.11,2.15-.09,4.33-.31,7.08l-35.32.32c.43,5.47-6.8,2.95-12.03,3.16l-.03-6.42c-3.17-.81-6.16-.08-9.49-.54l-.28-6.36-8.47-.55c-.49-2.03-.03-3.84-.22-6.52-2.75-.63-5.28,0-8.62-.35-.5-3.84-.1-7.46-.21-11.91-2.02-1.12-4.31-.31-6.64-.82-.84-1.88.66-4.13-.33-6.03-.78-1.51-3.4-.71-5.21-.58-.44-2.4.13-4.45-.65-6.84-1.33-4.03.13-8.58-.62-13.06-.14-.82-1.08-1.25-.96-1.79,1.3-5.9-1.05-10.79,1.01-16.62l-6.58-2.05c-.3-.74-2.09-.56-1.37-1.47,4.09,2.99-.5-14.61,1.66-18.69,2.11.31,4.16.38,5.91,1.09.98,8.98-1.68,15.09,6.07,18.01l1.01-18.7,5.82-.99.45-7.13c2.3-.08,4.61-.45,7.62-.3.63-2.45-.08-4.44.81-6.71l26.19.25.44,12.67Z"/>
          <path class="cls-104" d="M125.64,417.1l.47,25.05c2.2.5,4.15-.6,5.92.38-.7,8.44,2.65,5.73-1.06,8.39-.89.64-4.58.03-4.85-.49-.42-.83.87-9.42-1.92-9.33,6.3-.21-9.07,1.38-3.5,1.4-.61-.1-1.09-.42-1.42-.74-.24-.23-.09-16.52-.38-19.41-.2-1.94-.11-3.88-.54-5.79,3.22.07,5.3-.4,7.28.54Z"/>
          <path class="cls-101" d="M14.17,381.13c-1.46.97-3.19.7-4.87.93.58-6.11-2.17-13.22-.7-19.6l6.58,2.05c-2.06,5.83.29,10.72-1.01,16.62Z"/>
          <path class="cls-174" d="M70.79,342.03c.03,1.88.49,3.72-.14,5.7-1.22,3.86-.12,8-.83,12.42l-6.64.66c-.43,2.53-.02,4.72-.74,7.1l-9.93.22c-1.86.04-5.59-1.73-6.75.5-1.23,2.35-.34,5.96-.72,8.73-.58,4.18-1.82,7.64-1.26,11.95.83,6.38,1.58,12.73,1.89,18.97-2.2-.08-4.3.18-6.82-.18l-1.35-5.54v-34.35s7.79-.83,7.79-.83c.25-2.06-.83-4.54.55-5.95,1.07-1.09,3.42-.07,4.74-1.1.53-1.66-.54-4.33,1.21-5.15,1.23-.34,2.23.53,2.64.16,1.73-1.57-.37-6.69,1.34-6.83l6.96-.57.45-7.46c2.16.29,7.55-1.24,7.6,1.55Z"/>
        </g>
        <g>
          <g>
            <path class="cls-150" d="M315.15,304.02c-4.66-.19-14.49,15.39-6.98,20.44l3.09-8.79c.79-2.25,1.63-4.62,3.98-5.38,2.36.11-2.69,5.36-2.22,10.36,6.02,1.41,6.18-3.81,8.72-2.27-.48,3.6-.24,7.36-1.22,11.36-.47,1.9-.42,3.72.76,4.91.82.82,2.8,2.78,4.08.96,1.36-1.93.9-5.1,1.62-7.48.62-2.07-2.34-2.91-2.52-4-.51-3.2.55-6.23-.09-8.93.31.08.54-.04.81-.14,1.21-.44,2.96.5,3.92-.62,1.09-1.27.5-5.37,1.44-5.93,1.99-1.19,3.11.61,3.95-.68.15-.23.2-.48.36-.84.64-1.45.79-3.02,1.06-4.84.97-.39,1.84.35,2.42.48.97.21,3.02.88,3.93.15.16,1.68.61,3.47-.08,5.28-1.72.58-3.52-.17-5.37.59-1.31.53-.85,2.26-.57,3.41.17.7.72,1.1,1.92,1.21.69.19,2.04-.22,1.09.79-1.79,1.14-4.59-.1-6.89,1.09-1.1,1.24-.83,4.86-.52,6.57.39,2.17.11,4.5.67,6.9,3.37.1,6.4-.03,9.06,1.16.01,1.38-.2,2.84-.79,4.09-.23,2.35-5.05.08-8.54,1.43-.23,4.04-.59,7.44,0,10.8-1.27.51-.11,3.07-1.99,2.85l-12-.64-.56-5.8-9.39-.11c-.61-1.89-.08-3.59-.33-5.2-.09-.54-.18-.98-.85-.94-2.95.16-5.3-.25-7.84-1.7-3.17-1.82-7.81.55-11.68-1.01-1.34-.54-.51-3.45-.72-4.54.42-.42,1.12-1.83.62-2.46l14.1-.42c.59-1.5-.09-2.61-.04-3.69.24-4.52.84-8.99,3.84-13.08,8.61-11.74,2.95-4.81,11.57-10.49-1.98.64,11.89-1.42,8.15-1.05-.05.33.17,1.14-.11,1.51-3.2.72-10.18.78-9.86,4.7Z"/>
            <path class="cls-173" d="M329.96,290.29c.63-.05,1.64,1.12,1.81,1.71-1.01,5.97,1.7,8.83,2.29,7.86l-.76,1.26c-1.15-.42-2.49-1.28-3.7-.57-2.74,1.6.28,5.93-1.52,7.71-.35-.5-.56-.74-.92-.78-1.26-.14-3.68,7.18-1.98,7.59-.27.1-.5.22-.81.14-.88-.24-1.58.19-1.88.76-.44.85-.65,1.64-.75,2.43-2.54-1.54-2.71,3.68-8.72,2.27-.47-4.99,4.58-10.25,2.22-10.36.1-1.82,1.91-3.08,2.28-4.84-.15-.88-1.71-1.62-2.36-1.44-.32-3.92,6.66-3.99,9.86-4.7.28-.37.06-1.18.11-1.51,1-.1,1.95.09,2.95.08.14.82.43,2,2.66,2.25l.11-7.98c-1.98-.29-3.42.42-4.94-.41.85-.73,1.9-.33,1.68-1.29l2.39-.18Z"/>
            <path class="cls-138" d="M357.82,337.12c-.28,1.79-.04,3.75-.59,5.76l-7.66.55-.71,16.51c-2.57.24-4.64.17-6.63.14l.06-16.56c2.81.56,4.24.56,5.69-.24,1.31-.72.59-3,.79-4.81l9.05-1.35Z"/>
            <path class="cls-180" d="M286.4,319.44c1.53,2.21-1.33,5.22,1.09,7.1.5.63-.2,2.04-.62,2.46-.35-.14-.03-1.3-.39-2.14l-7.53-.47-.43-5.8c-2.1-.81-4.04-.3-6.59-.67-.49-1.9.1-3.48-.55-5.15-2.7-.49-5.25.13-7.66-.44.22-.54-.13-.83-.44-.98-.54-.28-1.26.35-2.03-.34.72-.57,1.86-.36,1.66-1.63-.11-.72-.54-1.2-.82-2.01.52-.09,1.06-.14,1.56-.19,3.44-.39,7.03-.57,10.7-.09-1.05,2.24-1.79,5.29.85,5.78,1.29.24,3.22-.15,3.72,1.13.24.63-.64,2.37.32,2.95,2.22,1.35,5.2.79,7.16.49Z"/>
            <path class="cls-177" d="M335.6,359.21c-1.09,1.32-2.4,2.37-3.86,3.26-1.86-3.02-.54-9.86-1.49-13.53,1.88.22.72-2.34,1.99-2.85.02,1.43,1.95,1.11,2.92,1.55l.43,11.57Z"/>
            <path class="cls-46" d="M342.11,361.73c-.12,1.67.67,3.21-.27,5.34-2.78.06-5.79.51-8.42-.38-2.14-.72-1.13-3.28-1.67-4.23,1.46-.89,2.78-1.93,3.86-3.26.66,2.82,5.19-.85,6.51,2.52Z"/>
            <path class="cls-26" d="M320.06,290.14l7.51.33c.23.96-.83.56-1.68,1.29,1.52.83,2.96.12,4.94.41l-.11,7.98c-2.23-.25-2.52-1.43-2.66-2.25.48-3.12-6.59-.52-8.8-2.6,1.09-3.69-2.17-3.36.8-5.16Z"/>
            <path class="cls-165" d="M307.01,295.39l9.02.04c.56.93-.64,3.4.93,3.42-8.62,5.68-2.95-1.24-11.57,10.49-3,4.08-3.6,8.55-3.84,13.08-2.76-5.17-3.84-2.25-13.13-2.51-.6.7-.92.61-.91.29.02-1.3-.65-.83-1.11-.76-1.97.29-4.94.85-7.16-.49-.95-.58-.07-2.32-.32-2.95-.49-1.28-2.43-.88-3.72-1.13-2.64-.5-1.9-3.55-.85-5.78-3.68-.48-7.26-.3-10.7.09-1.37-2.27-.32-4.99-.55-8.01-2.45-.82-5.11.38-6.89-1.39-.34-.99-.03-2.05-.64-2.44-.45-.29-1.05-.56-1.64-.3-.2-4.18.25-8.34.72-12.35-.51,2.52,4.34.68,7.15,1.3.66,2.16-.48,4.05.4,6.01l7.53.04,1,2.72c.21.56,2.51-.33,3.73-.03,2.16.54,1,4.11,1.74,5.45,3.57,2.07,8.6,1.33,13.05,1.5.77,2.07-.01,4.12.4,6.43,3.14.93,6.32.37,9.79-.11,0-2.38-.3-4.27.46-6.62,1.84-.49,3.66-.25,5.61-1,.08-2.07-.02-4.29,1.5-4.98Z"/>
            <path class="cls-167" d="M254.68,283.17c-.15.51.03,1.05-.03,1.51-.47,4-.92,8.17-.72,12.35-6.36,2.6.87,3.4-2.53,11.23l-1.7-8c-1.43-.25-2.59.49-3.21.18-2.16-1.07.51-3.96-2.13-7.63,2.36-1.56.94-11.49,1.23-16.42.01-.25-.14-.56.07-.78,2.3-.21.97,2.66,2.94,3.36.45.16,1.31-.71,2.12-.76.9,1.45.96,3.61,3.13,3.3.07.98-.08,1.96.83,1.65Z"/>
            <path class="cls-84" d="M245.59,276.41c-.29,4.93,1.13,14.86-1.23,16.42-1.2.12-2.42-.29-3.6-.02-.4-4.9-.95-10.08.11-15.38.27-1.37,3.86-1.35,4.71-1.01Z"/>
            <path class="cls-117" d="M341.43,256.99c2.39,3.11-.32,11.01.45,12.37l1.09,1.92c.16.28-1.85,1.28-1.74,1.81.97,4.57-1.39,8.21-1.94,11.64.29-1.79,1.12,9.52-2.44,13.11l4.07,2.48c-.56,1.57-2.42,1-2.59,2.31-.59-.13-1.45-.87-2.42-.48-.27,1.82-.42,3.39-1.06,4.84-1.95,1.82-.75-7.21-1.56-5.88l.76-1.26c-.59.97-3.3-1.89-2.29-7.86.66-2.01,4.87-9.23-.41-9.82-.64-2.31-.87-5.82-.27-8.3,1.36-.03.52,1.94,1.75,2.76,4.58-3.86,3.83-.92,5.12-2.46,1.11-1.32-2.51-2.64-3.01-3.44.11-.64,1.05-.69.87-1.38,1.03.44,2.15-.09,3.48.14,1.36-2.21.45-4.81-1.28-6.36-.2-1.11.63-2.71-.24-4.85-.52-1.28,2.82-1.95,3.66-1.31Z"/>
            <path class="cls-60" d="M340.79,333.86c.59-1.26.8-2.71.79-4.09,2.26,0,5.17-.39,7.77-.82.67-3.01-.15-5.57.05-8.16.1-1.23.63-3.22-.44-4.43-1.82-2.06-4.56-1.16-6.72-.66.06-.72-.42-1.16-.8-1.71-.69-.98-1.45-.4-2.18.06.95-1.01-.4-.6-1.09-.79l8.97-4.85c.78-.42,2.14.45,2.5-.62,1.67,1.68,4.2.11,6.57.89l.19,20.19c-2.46.65-4.44,0-6.63,1.01.11,1.75.87,5.21-1.2,6.1-2.21.95-5.03,0-7.39.05-.19-1.34.77-2.14-.39-2.19Z"/>
            <path class="cls-13" d="M342.16,251.87c-.15,1.67.07,3.65-.73,5.11-.84-.64-4.18.03-3.66,1.31.88,2.13.04,3.74.24,4.85,1.73,1.55,2.64,4.15,1.28,6.36-1.33-.23-2.45.3-3.48-.14-.98-1.96-3.52-1.26-6.07-.87-.45-1.97-.48-4.02-.14-5.86,1.62.32,5.02.71,5.92-1.21.42-.89.34-1.97-.42-2.79,1.75.69,1.62-4.48,1.61-5.69,1.62,1.31,2.69-2.63,5.45-1.08Z"/>
            <path class="cls-20" d="M349.64,307.81c-.36,1.06-1.72.2-2.5.62l-8.97,4.85c-1.2-.11-1.75-.51-1.92-1.21-.28-1.16-.74-2.88.57-3.41,1.84-.75,3.65,0,5.37-.59.69-1.81.23-3.6.08-5.28,1.63-1.31,4.26-1.34,6.57-.71,1.48.98.56,4.18.82,5.74Z"/>
            <path class="cls-187" d="M334.95,270.75c.5.8,4.11,2.12,3.01,3.44-1.29,1.54-.54-1.4-5.12,2.46-1.23-.82-.38-2.79-1.75-2.76.24-1,.38-2.09.23-3.06.94-.18,3.11-.9,3.63-.07Z"/>
            <g>
              <path class="cls-121" d="M357.82,337.12l-9.05,1.35c-.2,1.81.52,4.09-.79,4.81-1.45.8-2.88.8-5.69.24l-.06,16.56c0,.55-.08,1.13-.12,1.66-1.32-3.37-5.85.3-6.51-2.52l-.43-11.57c-.98-.44-2.9-.12-2.92-1.55-.59-3.36-.23-6.75,0-10.8,3.49-1.35,8.31.92,8.54-1.43,1.16.05.2.84.39,2.19,2.36-.05,5.18.9,7.39-.05,2.07-.89,1.3-4.36,1.2-6.1,2.19-1.01,4.17-.36,6.63-1.01l-.19-20.19c-2.38-.79-4.91.78-6.57-.89-.25-1.55.66-4.76-.82-5.74-2.31-.63-4.93-.6-6.57.71-.91.73-2.96.07-3.93-.15.17-1.31,2.02-.74,2.59-2.31l-4.07-2.48c3.57-3.59,2.73-14.9,2.44-13.11.55-3.43,2.91-7.07,1.94-11.64-.11-.53,1.9-1.53,1.74-1.81l-1.09-1.92c-.78-1.37,1.94-9.26-.45-12.37.81-1.46.59-3.44.73-5.11.37-4.2,4.42-3.05,2.45-6.15-.36-.56-.7-.97-2.22-1.21-.78,2.17.03,3.88-1.37,5.09-1.59-.36-2.67-.17-3.62.29-1.14.56-.7,1.87-.69,3.05s.14,6.38-1.61,5.69c-1.47-.12-3.92-.74-5.2.79-.77.93-.15,2.41-.3,3.2-.33,1.85-.31,3.89.14,5.86,2.54-.39,5.08-1.1,6.07.87.19.69-.76.74-.87,1.38-.51-.83-2.69-.11-3.63.07.14.97,0,2.06-.23,3.06-.6,2.48-.37,5.99.27,8.3,5.28.6,1.08,7.81.41,9.82-.17-.6-1.18-1.76-1.81-1.71-.77-7.01.86-13.71-.69-19.8-1.74-.18-4.4.61-5.91-.58-1.33-3.39-.46-7.74-.36-11.07.68-.86,2.96-.83,3.75-.49.27.26.67.31,1.2.24.33-.04.81-.17.52-.66,2.87-1.28.25-4.77,1.61-7.1l5.39-.75.8-10.4c2.13.12,3.75,0,5.2-.64.52-.23.78-.28.86-.91.27-2.16-.09-4.39.44-6.85,1.95-.46,5.28.54,5.75-.71l1.32-3.54c.7-1.89,5.75-.35,8.33-.36.63,1.53.13,2.97,1.15,4.17,2.3.06,4.12-.02,6.43.43l-.18,19.16c-3.13.43-5.45-.14-7.99.5-.46,2.01.18,3.94-.67,5.93l-6.21.45c-.29,11.49-2.71,21.87-1.53,33.92.2,2.07,4.63,1.22,6.45,1.28l.95,9.41c1.87,0,5.46-.43,5.76,1.06,1.04,5.32,1.34,19.5.42,25.28-.22,1.38-3.3,2.07-2.42,4.95.53,1.73-.79,4.01-2.51,3.92Z"/>
              <path class="cls-115" d="M357.1,239.72c-2.12.72-3.13-.71-4.58.26.43,1.89,1.44,2.98.37,3.39-.9.34-2,.9-2.56.52-.35-.24-1.33-8.54-.1-9.25,1.98-1.14,4.72.09,7.23-.17-.2,1.88-.39,3.33-.36,5.26Z"/>
              <path class="cls-107" d="M342.16,251.87c-2.76-1.56-3.83,2.38-5.45,1.08,0-1.18-.46-2.5.69-3.05.94-.46,2.02-.65,3.62-.29,1.4-1.22.6-2.92,1.37-5.09,1.53.24,1.87.64,2.22,1.21,1.97,3.1-2.07,1.95-2.45,6.15Z"/>
              <path class="cls-128" d="M335.1,258.64c.76.82.84,1.9.42,2.79-.9,1.92-4.31,1.53-5.92,1.21.14-.79-.48-2.27.3-3.2,1.28-1.54,3.73-.91,5.2-.79Z"/>
            </g>
            <path class="cls-47" d="M349.4,320.8c-.21,2.59.62,5.14-.05,8.16-2.6.43-5.5.81-7.77.82-2.66-1.19-5.69-1.06-9.06-1.16-.56-2.4-.28-4.73-.67-6.9,2.96.69,5.88.07,8.73-.06,2.7-.12,6.12.91,8.82-.86Z"/>
            <path class="cls-156" d="M315.15,304.02c.66-.18,2.21.56,2.36,1.44-.37,1.75-2.18,3.02-2.28,4.84-2.35.75-3.19,3.12-3.98,5.38l-3.09,8.79c-7.51-5.05,2.32-20.64,6.98-20.44Z"/>
            <path class="cls-140" d="M301.56,322.43c-.06,1.07.63,2.19.04,3.69l-14.1.42c-2.42-1.88.44-4.89-1.09-7.1.46-.07,1.12-.54,1.11.76,0,.33.31.42.91-.29,9.3.26,10.37-2.66,13.13,2.51Z"/>
            <path class="cls-23" d="M324.36,315.19c.64,2.7-.42,5.74.09,8.93.18,1.09,3.14,1.93,2.52,4-.72,2.39-.26,5.55-1.62,7.48-1.28,1.83-3.27-.13-4.08-.96-1.18-1.19-1.23-3.01-.76-4.91.98-3.99.74-7.76,1.22-11.36.11-.79.31-1.58.75-2.43.3-.57,1-1,1.88-.76Z"/>
            <path class="cls-171" d="M319.26,295.29c2.21,2.08,9.28-.52,8.8,2.6-1,0-1.94-.18-2.95-.08,3.74-.37-10.13,1.69-8.15,1.05-1.57-.02-.37-2.49-.93-3.42l-9.02-.04-.11-1.25c-.05-.56-.73-.15-1.47-.76.83-.77,2.09-1.25,1.86-2.45,2.81.17,6.61-1.01,8.99,1.08.66.58,0,2.53.67,2.93s1.67-.27,2.31.34Z"/>
            <path class="cls-96" d="M333.29,301.12c.8-1.33-.4,7.7,1.56,5.88-.16.36-.21.61-.36.84-.85,1.29-1.96-.51-3.95.68-.93.56-.34,4.65-1.44,5.93-.96,1.11-2.71.18-3.92.62-1.7-.41.72-7.73,1.98-7.59.36.04.57.29.92.78,1.8-1.78-1.22-6.11,1.52-7.71,1.21-.71,2.55.15,3.7.57Z"/>
            <path class="cls-168" d="M342.24,315.71c-.41.1-1.33.13-1.38.94l-.28,5.01c-2.85.13-5.78.75-8.73.06-.31-1.71-.58-5.33.52-6.57,2.3-1.19,5.1.06,6.89-1.09.73-.47,1.49-1.05,2.18-.06.38.55.86.99.8,1.71Z"/>
            <path class="cls-87" d="M290.52,276.54c.96,1.85.39,3.72.62,6.34l12.9.25c.71,2.1.17,4.24.7,6.67.24,1.08,1.78,1.29,2.54,1.13.24,1.19-1.03,1.68-1.86,2.45.74.61,1.42.2,1.47.76l.11,1.25c-1.52.7-1.42,2.91-1.5,4.98-1.95.75-3.78.51-5.61,1-.75,2.35-.46,4.24-.46,6.62-3.47.48-6.64,1.04-9.79.11-.42-2.31.37-4.36-.4-6.43-4.45-.16-9.48.57-13.05-1.5-.74-1.34.42-4.91-1.74-5.45-1.22-.3-3.53.59-3.73.03l-1-2.72-7.53-.04c-.88-1.96.27-3.85-.4-6.01-2.81-.62-7.66,1.22-7.15-1.3.06-.47-.12-1,.03-1.51.55-1.89-.38-4.39.58-6.49.7-1.55,2.11-2.62,2.16-5,.03-1.57,1.58-2.42,3.48-2.07l1.23-5.44c4.87-1.11,9.68-1.23,14.69-1.25.45,2.4.39,4.54.12,7.07l-5.05.35c.29,2.03-.89,5.75.52,7.36,1.78,2.03,5.48-.32,7.53-.53,4-.42,7.29.09,10.58-.63Z"/>
            <path class="cls-98" d="M276.98,253.72l.84,3.91c.56,2.59,4.04,2.81,5.42,4.3,1.9,2.04.19,5.34,1.58,7.62l5.41.94.29,6.06c-3.29.72-6.58.21-10.58.63-2.05.21-5.75,2.57-7.53.53-1.41-1.61-.23-5.33-.52-7.36l5.05-.35c.27-2.53.33-4.67-.12-7.07-5.01.02-9.82.13-14.69,1.25l-1.23,5.44c-1.9-.34-3.44.5-3.48,2.07-.05,2.38-1.46,3.46-2.16,5-.96,2.1-.03,4.61-.58,6.49-.91.31-.76-.67-.83-1.65-2.18.32-2.23-1.84-3.13-3.3-.81.05-1.66.92-2.12.76-1.97-.7-.64-3.57-2.94-3.36-1.43-5.42,6.1-11.2,7.05-13.18.71-1.48.86-3,3-2.91.64-1.39.75-2.74,1.64-4.25l19.63-1.57Z"/>
            <g>
              <path class="cls-112" d="M285.02,248.93c3.37.32,9.72-.59,11.22,3.02,3.61,8.66,9.23,4.01,5.87,19.08-1.42.86-3.51-.93-5.02.39-.81.71-.59,3.56.36,3.97,1.81.78,3.8.3,5.42.34.9.04,1.9.13,2.33.84,1.19,1.95-.74,5.79,1.27,5.94,4.22.33,8.75.55,12.63,2.51,1.13,1.31.46,3.8.94,5.11-2.97,1.8.29,1.47-.8,5.16-.65-.61-1.64.07-2.31-.34s0-2.35-.67-2.93c-2.38-2.09-6.19-.91-8.99-1.08-.76.16-2.3-.06-2.54-1.13-.53-2.44,0-4.58-.7-6.67l-12.9-.25c-.23-2.62.33-4.49-.62-6.34l-.29-6.06-5.41-.94c-1.39-2.29.31-5.58-1.58-7.62-1.38-1.49-4.86-1.71-5.42-4.3l-.84-3.91c-.32-1.49.35-3.52.81-4.95,2.24.99,5.07-.04,7.23.17Z"/>
              <path class="cls-4" d="M302.12,271.03c-.33,1.5-.22,3.42.77,4.71-1.62-.05-3.62.43-5.42-.34-.95-.41-1.17-3.27-.36-3.97,1.51-1.32,3.6.47,5.02-.39Z"/>
              <path class="cls-4" d="M283.23,246.46c-.13.41-.3,1.45-.17,1.94.14.52,1.57.21,1.96.53-2.16-.2-4.99.83-7.23-.17.22-.69-.18-1-.21-1.65,1.69-.18,3.61-1.59,5.65-.65Z"/>
              <path class="cls-176" d="M296.77,262.37c-2.1,1.77-8.18-1.01-11.25-1.33-.95-.1-2.2-2.27-1-2.9,2.61-1.36,4.86,1.83,7.14,2.7,1.18.45,2.66-.74,3.57-.75.78-.01,2.03,1.65,1.54,2.29Z"/>
            </g>
            <path class="cls-108" d="M349.4,320.8c-2.7,1.77-6.12.74-8.82.86l.28-5.01c.05-.82.96-.85,1.38-.94,2.16-.5,4.91-1.4,6.72.66,1.07,1.22.54,3.2.44,4.43Z"/>
          </g>
          <g>
            <path class="cls-71" d="M158.9,395.19l13.91.03,1.26,7.62c.43,2.6.28,5.14.69,7.74.64,4.12.38,8.35.6,13.4,2.82,1.13,5.81.54,8.99.7l.06,16.48c-1.68.21-3.44-.47-5.56-.03-2.14,5.1,2.91,14.13-.51,14.39l-1.57-3.18c-.49-.98-1.79-.53-2.97-.97.61-.68,1.06-1.45.31-1.73-6.4-2.37-1.27,9.21-4.36,12.66-1.48-.38-4.47-.91-5.22.44-.47,1.45-.07,3.14-.34,4.8-4.09.33-7.82,1.32-11.65,1.34-4.23.02-8.62.3-13.16-.63-.88-2.32.49-4.81-.65-6.51-1.05-1.05-3.91-.55-5.27-.43.04-.23-.03-.43-.07-.65-.6-3.61.03-7.25.17-10.74,4.52-1.28,9.39-.07,14.43-.96l.46-6.98,10.14-.43c.26-2.49-.27-4.67.49-6.66,1.8-.76,4.69.54,6.12-.69,1.21-1.71.29-4.29.64-6.35.19-1.14,2.22-.88,2.29-1.51.62-6.22.66-12.27.54-18.34-2.43-.52-5.32.76-6.95-.88-1.16-1.17.16-5.32-1.78-6.29-3.42-1.72-7.87-.3-11.55-1.77-1.37-.59-1.64-2.86-2.44-3.77,4.26-.55,8.58-.1,12.94-.09Z"/>
            <path class="cls-145" d="M184.4,441.16c0,.6.24,1.4.73,1.97l-.2,17.25-9.29.59c-.79,2.43.65,7.78-1.54,7.89-.72.04-.99-.67-2.55-1.05l-1.14,24.75c-.08,1.67.06,2.96.83,4.06-2.51,1.9-.38,5.13-1.55,8.34l-66.27-.09-1.2-8.39c-.28-1.93.15-4.04,0-6.59,1.92-.92,3.73-.54,5.62-1.09.88-1.86-.36-4,.67-5.89.74-1.36,3.04-1.19,4.08-1.13.89,0,.91,1.11,1.36,1.6-.46,1.91.19,3.94-.5,5.8-1.99.02-3.33.01-4.89.28-.62,4.17-.91,8.62-.1,12.72.18.83,3.79.9,3.89.08l1.51-12.42c1.65-.52,3.6.01,5.05-.69.41-.2.15-1.13.28-1.48.85.67.81,1.89,2.21,1.87-3.82.98-2.42,8.96-1.89,12.9,2.21-.2,3.65-.05,4.96-.56-.52.62.47,1.31.74,2.01l42.61.35c1.66-3.73,2.26-8.76,1.46-13.61-2.32-14.15,2.59-14.55.2-20.19-1.38-3.26,3.97,1.87.29-8.12,3.09-3.45-2.04-15.03,4.36-12.66.75.28.3,1.05-.31,1.73,1.17.44,2.48-.02,2.97.97l1.57,3.18c3.41-.26-1.64-9.3.51-14.39,2.13-.43,3.89.24,5.56.03Z"/>
            <path class="cls-9" d="M185.11,362.79c-2.35.5-4.47-.89-7.29-1.3-.68,3.04-.35,5.92-.4,8.57-.09,5.4-.36,10.84-.36,16.26v22s8.28-.13,8.28-.13c.09.32.24.66.46.89.3.31.68.25,1.02.14-.48,1.34-1.08,2.92-2.73,2.91-.79-3.02-4.16-2.32-6.62-1.87l-.45,5.65c-1.65,3.53.08-7.31-2.27-5.32-.41-2.6-.26-5.14-.69-7.74.65.54,1.11-.39,1.33-.76.29-.5-1.06-3.88-1.68-5.32-.35-.83,1.23-.56,1.22-.87-.01-.5.48-1.53.6-2.32.85-5.31.2-10.18.47-15.63-1.56-.47-5.95-.77-6.22.93l-1.03,6.5c-.24,1.5-.54,2.9-1.26,3.77-2.34,2.82-6.78.28-8.04,2.38-.74,1.24-.8,2.46-.56,3.68-4.36,0-8.68-.46-12.94.09-2.29.3-4.78-.48-7.12.36-1.91.68-3.56.18-5.73.46l-.27,6.64c-2.37.16-4.52.32-6.51-.07.05-.78-.42-1.56-.44-2.31-.01-.59-1.28-24.16,1.35-20.9l5.56.23c-.17,1.66.47,3.45,1.6,4.25-.19,1.68-1.79,5.08-.34,6.84,1.75,1.45,5.48.66,7.78.33,5.4-.77,10.76.81,15.89-.66,2.19-.63.28-5.02,1.47-6.34.8-.89,3.09-.11,3.24-1.3.93.4,3.59,1.68,3.77.29.04-8.3,5.23-9.58,4.31-16.47,1.54-1,3.43-1.46,4.07-3.29,1.55,0,1.89-1.52,2.71-3.13,1.15-2.26,4.26.02,5.32,1.31.45.55,1.82-.05,2.17.1.53.22.26.74.33,1.17Z"/>
            <path class="cls-40" d="M152.53,468.88c.39.55-1.11.87-.92,1.54.36,1.26,1.37,1.68,1.25,2.9-.1,1.06-.92,1.51-2.45,3.13,4.02.08,2.68,9.95,2.35,11.84-.17.97-2.12.69-2.63,1.18-.05,1.92-1.21,3.98-1.89,5.44-.63-.9-.9-2.73-.56-3.91.95-3.34.39-6.69.44-10.99-7.08-.6-14.38-2.04-21.81-.46-1.92.41-3.95,1.95-4.99.02,1.14-.24,3.17-.82,4.04-2.03-.83-2.05-.04-3.4,1.98-5.56,1.08-1.16,3.98-.09,5.82-1.16.29-3.32-.24-6.53.31-9.51,1.37-.12,4.23-.62,5.27.43,1.13,1.69-.24,4.18.65,6.51,4.54.92,8.93.65,13.16.63Z"/>
            <path class="cls-93" d="M147.68,491c-.27-.83.28-1.93-.81-2.82-1.92.49-2.64,2.47-4.01,2.42l-16.77-.62c-.4.09-.62-.3-.61-.67.02-2.17.13-4.45-.29-7.02-2.3-.22-3.84.67-5.57.72-1.85.06-4.22-.99-5.66.35-.45-.49-.47-1.6-1.36-1.6l1.19-1.79c2.5-.52,5.25-.28,7.53-.41,1.04,1.93,3.08.39,4.99-.02,7.43-1.58,14.73-.14,21.81.46-.05,4.3.51,7.65-.44,10.99Z"/>
            <path class="cls-135" d="M125.34,282.85c1.23.43,1.41,2.37,1.15,3.49-.28,1.21.5,3.43-.48,4.76l-6.66.89c-.03,5.02-.21,9.56-.8,14.24s5.75,1.51,8.67,3.88c1.2.98,2.6,2.51,4.06,3.2-1.52.21-2.01,1.84-3.24,2.54-5-3.58-10.18-.49-15.01-.92-1.18-1.81-.57-3.32-.18-5.45.11-.58-1.61-.58-1.7-.22-.07.28-.52-.24-.4-.63.34-.21,1.44.05,1.44-.78l.12-16.59c2.22-.96,4.29-.37,6.67-.64l.35-7.45c2.06-.26,4.14-.86,6-.31Z"/>
            <path class="cls-67" d="M277.04,442.04l.57,7.24c.03.43-.11.9-.64.76-1.84-.32-3.51-.1-6.37-.3-.82,3.31-1.35,7.28.51,10.01-.57.2-.99.39-1.6.5-2.13.36-4.54-.37-6.27,1.03.1-1.15-1.86-2.4-1.91-3.87,4.57-17.66,3.15-5.06,6.58-14.62,2.97-1.34,5.92-1.16,9.13-.75Z"/>
            <path class="cls-134" d="M125.26,365.91c-10.93,1.73-12.09-3.23-14.71-4.2-1.69-.62-3.48-1.84-5.49-.88-.81.38-1.41-.09-1.67-.57,1.05-.08,1.41-.46,2.05-1.11,1.45-1.47,3.26-1.09,5.09-.7-.06.74.7,1.05,1.05.36.13-.26.47-.64.84-.34.76.61,1.13.91,2.04.9.26,0,5.01-5.57,4.48-5.95.08.31.03,1.37.34,1.44,2.42.49,2.6,4.04,3.65,5.26,1.61,1.86,3.25,3.02,2.34,5.8Z"/>
            <path class="cls-116" d="M269.52,460.24c-.38,17.94,1.09,7.05,4.12,16.77-1.09.2-1.38,1.55-1.63,2.46-1.51.32-2.74-.65-4.16-.62,1.23-1.88.92-4.13-1.42-5.52-.44-.26-.16-1.73-.66-1.98-.44-.22-2.03-.03-2.34-.55-1.73-2.92-.24-6.5-.18-9.53,1.73-1.41,4.14-.68,6.27-1.03Z"/>
            <path class="cls-189" d="M125.26,365.91c-.25.74.62,1.18.99,1.66l-.63,4.1-13.99-.17-.78-4.3-4.22-1.49c-.17-2.26,4.48-.68,3.91-3.99,2.63.96,3.78,5.92,14.71,4.2Z"/>
            <path class="cls-118" d="M276.97,450.04c.46,2.79.15,5.58-.25,8.86-2.2.3-3.94.27-5.61.85-1.86-2.73-1.34-6.7-.51-10.01,2.87.2,4.54-.02,6.37.3Z"/>
            <path class="cls-106" d="M110.55,361.71c.57,3.31-4.08,1.73-3.91,3.99-1.53-.54-2.1-2.69-1.58-4.87,2.01-.96,3.8.26,5.49.88Z"/>
            <path class="cls-8" d="M231.82,298.96c-.37.82,1.25.73,1.52,1.53.47,1.45-.44,2.3.42,3.17,2.01,2.02,8.37.78,6.41,3.09-.79.93-.8,2.33-2.37,2.16-3.41-.36,3.93,3.33.71,7.01-2.33.13-4.79-.82-7.63.1-2.33.76-.5,7.78-5.44,7.05-1.5-.22-4.05-.59-5.97-.15-3.75,5.09-15.78.73-28.87,3.27-1.87.36-4.35,2.85-6.67,2.09-.39-.13-1.05,1.24-1.61.73-.39-.36-.24.67-.36.96-1.04,2.44-4.04,1.61-7.66,1.65-1.03.01.16,3.15-1.89,3.35-2.83.28,2.19-3.46-7.76-5.69l-10.73-2.41c.19-2.17.58-3.81,1.07-5.25.69-.25,1.15.62.76,1.17s-.87,1.32.6,1.18c.87-.09.1-1.18.22-1.95.07-.48.81-.61.83,0,.13,3.74,8.11,2.05,10.03,1.25,2.75-1.14,5.63-.69,8-2.48,2.13-1.61,4.96-2.59,7.78-2.82.63-1.27.22-2.92,1.11-3.69,8.15,1.34,3.63-.09,12.43-1.67.55-1.5.2-2.68.97-4.1,3.38-.1,6.71.07,9.69-1.29-.23-2.6-1.1-4.71.05-6.19,1.43.15,4.85.26,5.64-.95,1.16-1.79,0-4.55.58-6.34,1.45-.46,3.33.46,4.83-.35s1.35-2.82,2-3.82c5.48,7.58,2.95-3.63,7.22,8.64.46,1.31,3.01,1.26,4.1.74Z"/>
            <path class="cls-122" d="M277.58,247.11c.03.65.43.97.21,1.65-.46,1.43-1.13,3.47-.81,4.95l-19.63,1.57c-.89,1.51-1,2.86-1.64,4.25-2.15-.09-2.3,1.42-3,2.91-.94,1.97-8.47,7.76-7.05,13.18-.21.22-.05.53-.07.78-.86-.34-4.44-.36-4.71,1.01-1.06,5.31-.51,10.48-.11,15.38.12,1.48-.83,2.66-1.95,3.77-.57.57-1.09.54-2.02.21-.66-.23-.19-1.11-.09-2.31-2.72.33-5.17-.58-8.02-.81.16,5.26,4,3.36,3.13,5.31-1.09.52-3.64.58-4.1-.74-4.27-12.27-1.74-1.06-7.22-8.64.51-.79-.26-1.52-.15-2.32.05-.38.08-.77-.38-.88-.35-.08-1,.41-1.29-.44,6.55.55,8.91-3.84,11.34-.13-1.15.84-2.81,1.7-2.32,3.53.21.79.73,1.79,2.09,1.87,1.84.11,5.83-2.33,5.61-4.43-.09-.87-1.19-1.38-2.65-2.19,2.26-1.74,1.22-4.13,1.09-6.47-.1-1.73,3.17-2.17,4.35-2.4l.99-5.65c2.7-.31,4.1-2.76,3.48-4.96.97-1.4,2.44-1.9,3.72-4.26-4.45-1.57-7.74-.78-9.68,2.47-.97,1.62-4.62,2.74-4.69,5.92-.06,2.83-3.02,3.29-4.64,4.17-1.05,3.05.42,6.92-1.06,10.04-1.95-1.79-.36-3.9-1.05-6.01-5.17-.26-2.93-6.96-5.29-6.31-.75.21-1.82.62-2.69.54.74-.62-.46-1.23-.1-1.92.54-.72,4.83-1.32,5.79-.67,1.23.84,1.58,1.93,1.86,3.45,1.54-2.12,1.92-7.44,2.92-7.93,1.87-.91,3.98.53,4.31-1.51.09-.57-.04-1.28-.57-1.69-.25-.19-4.76-.51-5.06,1.14-.88,4.9-3.56.63-9.88,3.7-4.13,2.01-9.1.61-13.13-.52.3-.89-.15-1.96.43-2.28,3.92-2.09,5.48,2.27,7.5-1.8.75-1.51,3.24-1.19,4.95-1.5,3.55-.66.59-4.42,2.24-5.32,2.31.02,4.63-.07,7.11-.15l26.83-.83.76-7.02c3.87,1.23,7.59-.51,10.71-.55,4.43-.05,9.14,1.29,13.65.81Z"/>
            <path class="cls-114" d="M225.44,384.64c.53.61,1.96.56,2.12,1.18.26,1-.46,2.13-.78,2.94,1.33.78,3.31.41,4.18,1.36,1.02,1.11.67,2.61.99,4.26.37,1.94,2.63,1.73,3.89,1.68l.82,4.13c.84,4.23.78,10.42-.07,15.17-2.82.49-8.51-.21-8.67,4.4-.03,1.01,0,2.6-.71,3.15-.4.31-1.74.18-2.15.79-.88,1.75-.84,4.22-1.25,5.87-.68-.37-.98.16-1.14,1.37-3.72-.78-7.66-.51-11.65-.57-.91-2.18.43-4.51-1.02-6.08.97.11,1.21-.86,2.24-.68,1.63.29,3.36.46,4.8-.46,1.83-.25.45-3.18,1.48-4.6l.07-37.2c.92-1.02,4.16-.83,4.8.14l.67,6.41c.52-1.49.57-2.42,1.37-3.26Z"/>
            <path class="cls-52" d="M203.86,276.5c-.51,1.38.29,3.14-.18,5.61l8.83.22c.83,1.12.88,2.89,1.43,4.84l6.42.1c-.11.8.67,1.53.15,2.32-.65,1-.5,3.01-2,3.82s-3.38-.11-4.83.35c-.7.22-2.07.02-2.69-.26-1.05-.48.12-2.02-.32-3.09-.48-1.19-1.68-.26-2.24-.02-1.14.49-1,2.18-1.45,2.91-5.79,1.37-12.27.54-18.41,1.18-.62,2.59-.46,4.84-.17,6.88-.51.23-2.19.37-2.54,1.22-.59,1.75-.5,4.39-.73,5.97-1.75.03-3.9.38-5.55.59-3.73-1.25-7.77-.15-12.17-.82-.43-.44.02-1.69-.83-1.48l-.09-4.96c2.73.18,5.35.31,8.58-.21-.57-3.92,2.03-5.28,4.48-7.03,2.13-1.51,3.78-3.59,7.05-3.51l.5-7.75c3.28-.37,6.15.32,9.08-.83l.1-5.75,7.58-.3Z"/>
            <path class="cls-92" d="M227.61,360.73l1.37,7.05c3.95.01,7.07-.29,10.1.43-.11,2.32-.74,5.71.92,8.09,1.39,1.5,4.92.72,6.65.83.13.43.67.38.93.69.08,1.78-.46,3.69-.1,5.84l8.18.81c2.35.23,4.74,2.52,7.17,1.77.68.92,1.74,3.55.72,4.47-8.25.92-16.45.53-24.95.37-.87-2.43-1.18-4.88-2.44-6.95-.74-1.21-3.63-.83-5.15-.95l-.92-6.66c-1.78-.61-3.41-.2-4.88-.52-1.54-1.13-1.28-2.33-1.34-4.74-3.5-.88-3.29-4.26-5.29-6.31-.85-.87-.34-3.17-.27-4.53,3.5.05,6.34.59,9.32.3Z"/>
            <path class="cls-148" d="M157.48,281.38c-1.49-1.75-2.08.38-2.96.91-1.83,1.11-1.81,7.43-1.88,9.98-.03,1.23-2.97.15-3.49.82-1.34,1.74-1.29,5.82.57,7.41,1,.85,3.79-.28,4.05,1.62s.79,4.47.28,6.22c-.67,2.31-.95,4.66-.45,7.68-2.29.95-4.78-.53-6.81.83-.84.64.49,3.04-1.3,3.89-2.32-5.45-7.4-2.01-9.94-5.2-1.05-1.33-3.01-1.63-4.29-2.23-1.46-.69-2.86-2.22-4.06-3.2.92-1.46,3-1.16,4.89-1.06,2.61.14,1.1-3.84,2.16-4.69,1.5-1.21,6.8.85,7.17-1.48l2.38-14.74c2.21.4,4.93.57,5-1.67.04-1.25.02-2.38.36-3.65.19-.71,2.06-.08,2.23-1.04.62-3.4,3.64-3.64,6.16-4.65,1.2-.76,1.49-2.62,2.63-2.26,1.53.48,3.63-.61,4.31.65s-.32,2.95-.25,4.8l-6.78,1.07Z"/>
            <path class="cls-37" d="M164.04,368.17c-1.46,4.76-1.02,9.76-1.62,14.64-.15,1.19-2.44.41-3.24,1.3-1.19,1.32.72,5.71-1.47,6.34-5.13,1.47-10.49-.12-15.89.66-2.3.33-6.03,1.11-7.78-.33-1.44-1.75.15-5.16.34-6.84,1.49.09,3.06.11,4.99-.18.63-2.04-.52-4.38.62-5.9s4.52-.04,5.5-1.07c1.5-1.57.36-4.39.75-6.45,11.31-.71,3.31-1.85,6.96-2.49.66-.12,8.91.41,10.84.33Z"/>
            <path class="cls-53" d="M197.48,375c-.06,1.07-1.08.27-1.35.6-.41.5-.07,1.79-.15,2.41-1.28,10.08-1.09,19.54,1.25,29.65,1.18.48,2.89.78,4.48.91.08.7.51.82.7,1.16.25.45-.98,1.48-.8,1.98.53,1.43,3.76,1.6,4.78.64.83-.78.86-2.13,1.76-2.52.65-.28,1.58,0,2.38.05-.09,9.46,2.16,2.29,1.71,13.72-1.03-.19-1.27.79-2.24.68-6.19-.7-12.45.92-18.73-.16.25-3.25.38-6.26-1.06-8.41.64-1.45-.37-3.73-.11-5.12,1.05-4.29,2.04-7.76,1.65-13.35-.43-5.99,1.03-17.53.23-23.31,1.92-.68,3.6.91,5.5,1.07Z"/>
            <path class="cls-159" d="M204.84,270.02c-1.4,1.95-.17,4.28-.98,6.48l-7.58.3-.1,5.75c-2.93,1.15-5.79.47-9.08.83l-.5,7.75c-3.27-.08-4.92,2-7.05,3.51-2.45,1.74-5.05,3.1-4.48,7.03-3.23.53-5.85.39-8.58.21,0-.56-.14-.65-.36-.89-.32-.35-.8-.36-1.21-.35l-.16-6.13c1.72-.15,3.44-.69,5.71-.54.31-2.31-.6-3.8.61-5.29,1.99.06,4.83.47,5.7-1.35.6-1.26-.7-3.86.87-4.38,2.55-.85,4.97-.25,7.41-.82.87-1.62-.56-4.44.75-5.57,1.75-1.51,4.29-.22,5.89-1.1,1.33-.73.79-3.44.88-4.55l1.69-1.09c3.22.41,6.08-.96,8.97-2.22.49.66,2.35,1.37,1.59,2.42Z"/>
            <path class="cls-24" d="M211.56,367.24c-.53,1.82-.66,3.61-.68,5.9l-.34,36.74c-.8-.04-1.73-.33-2.38-.05-.9.39-.92,1.74-1.76,2.52-1.02.96-4.25.79-4.78-.64-.19-.5,1.05-1.53.8-1.98-.19-.34-.62-.46-.7-1.16,3.53.77,2.12-28.98,2.44-33.01l-6.67-.57c-1.9-.16-3.58-1.75-5.5-1.07-.15-1.08-.85-2.79.19-4.84,5.57.64,12.23.26,18.2-.49.41-1.72-1.81-3.76.4-4.9.41,1.19,1.04,2.68.79,3.54Z"/>
            <path class="cls-29" d="M213.1,367.36c.94.28,1.73,1.24,1.44,2.89,1.86.45,2.53,1.77,2.53,3.73l-.03,49.16c-1.44.92-3.17.76-4.8.46.45-11.43-1.79-4.26-1.71-13.72l.34-36.74c.02-2.3.15-4.08.68-5.9.52-.15,1.08,0,1.54.12Z"/>
            <path class="cls-21" d="M277.04,442.04c-3.2-.41-6.16-.59-9.13.75l1.76-4.9c2.67-7.46.51-27.65,2.43-34.92l5.98.15.13,21.84,5.56.61c.35,2.71.3,5.26-.13,8.31-2.2.32-3.59-.53-5.62.13.08,3.04-.17,5.75-.97,8.04Z"/>
            <path class="cls-19" d="M255.47,377.01c-2.63.34-5.4-.24-7.89.81-.26-.31-.8-.26-.93-.69.8-2.13.95-5.64-.49-7.78-2.03-1.15-5.06-.66-7.08-1.14-3.02-.72-6.15-.42-10.1-.43l-1.37-7.05c9.16-.9,18.23.49,28.17.43l-.31,15.85Z"/>
            <path class="cls-110" d="M117.28,349.13l-12.11.14c-.22-3.6-1.29-8.77.81-12.24,4.3-2.13,21.48-.77,21.61,4.62.03,1.16-.62,2.35-2.07,2.24-1.3-.1-2.34-.07-2.95.66-1.12,1.35.79,3.88-1.6,4.38-.55.11-1.09.01-2.17-.11-.95-1.37-1.97-1.03-1.52.31Z"/>
            <path class="cls-90" d="M225.43,323.08c-.15,2.66.04,5.4-.89,7.93-1.98.24-4.2,1.42-6.58.63-3.1-1.03-5.99-1.17-9.14-.28-1.57.44-3.11-1.59-4.79-1.56-7.7.11-14.96-.41-22.08.18.13-.29-.03-1.32.36-.96.57.52,1.22-.85,1.61-.73,2.33.76,4.81-1.73,6.67-2.09,13.1-2.54,25.12,1.82,28.87-3.27,1.92-.44,4.47-.07,5.97.15Z"/>
            <path class="cls-166" d="M163.26,308.96l.12,2.97,1.94.92c.29.14-.27,1.81.07,2.26,3.04,1.62,7.07-1.12,9.38,1.61l.64,4.07c-2.37,1.79-5.25,1.34-8,2.48-1.93.8-9.91,2.48-10.03-1.25-.02-.61-.76-.48-.83,0-.12.77.66,1.86-.22,1.95-1.46.14-.98-.64-.6-1.18s-.07-1.42-.76-1.17l3.04-9.03c.55-1.62.69-3.05,2.2-3.65.94-.37,1.92-.27,3.05.02Z"/>
            <path class="cls-119" d="M184.84,386.4l.63,16.07c.07,1.9-.07,3.83-.11,5.72l-8.28.13v-22c3.37-.5,3.41,1.96,7.76.08Z"/>
            <path class="cls-58" d="M225.2,376.01c.9.66-1.09,3.79-1.96,3.3l2.2,5.33c-.8.84-.85,1.76-1.37,3.26l-.67-6.41c-.64-.97-3.89-1.16-4.8-.14l-.07,37.2c-1.04,1.42.35,4.35-1.48,4.6l.03-49.16c0-1.97-.67-3.28-2.53-3.73.28-1.65-.5-2.61-1.44-2.89.95-.8.88-2.89,1.61-.57.25,1.23,1.85.39,2.8-.04.63-.28.13-1.52,1.06-1.8,2,2.05,1.79,5.43,5.29,6.31.06,2.42-.2,3.61,1.34,4.74Z"/>
            <path class="cls-81" d="M270.58,399.31c-9.29,2.66-24.1,1.75-33.92.88l-.82-4.13c10.91-.38,21.92-.33,33.13.22,1.07-1.97-.38-4.21,1.86-6.15.24,3.11.85,6.37-.25,9.19Z"/>
            <path class="cls-164" d="M185.47,402.47l-.63-16.07c-.21-5.47,1.15-11.18-.32-16.56,1.12-.36.47-1.91,1.42-2.41.57,0,2.54.37,3.07,1.14,1.33,4.98.77,9.98.89,15.19.14,6.23.65,12.17-.35,18.2-1.81-.07-2.95.27-4.08.52Z"/>
            <path class="cls-18" d="M157.48,281.38c-1.16,3.69.44,7.94-.2,11.55-.54,3.06-.91,5.47,2.38,7.91-2.05.94-.74,4.12-.97,5.93-.33,2.56-3.21,1.72-4.63,1.56.51-1.74-.01-4.29-.28-6.22s-3.06-.77-4.05-1.62c-1.87-1.58-1.91-5.67-.57-7.41.52-.67,3.46.41,3.49-.82.07-2.55.05-8.87,1.88-9.98.88-.53,1.47-2.66,2.96-.91Z"/>
            <path class="cls-50" d="M238.51,315.93c.86,2.59,1.44,6.54.26,9.6-.36.92-3,.73-3.92.9-1.12.21-1.11,3.04-1.95,3.48-2.61,1.32-5.8.8-8.35,1.1.93-2.52.75-5.27.89-7.93,4.94.73,3.11-6.29,5.44-7.05,2.84-.92,5.3.03,7.63-.1Z"/>
            <path class="cls-163" d="M110.74,319.06c-.87,3.86,9.01-.6,16.44,3.14-.47.34-1.3-.09-1.8.61-.29.41.29.68.52.83l1.37.88c.53.34,1.71.68,2.17,1.47.17.29.54,1.27-.95.42l-2.14,3.27c-5.04-1.66-10.4-1.25-15.67-1.46.1-.86-3.38-11.11.06-9.14Z"/>
            <path class="cls-59" d="M128.04,315.85c1.16.83,3.22.65,3.59,1.76s.85,3.6,0,4.4c-.79.74-3.49.67-4.46.19-7.43-3.73-17.31.73-16.44-3.14.33-1.52.31-4.32,2.29-4.14,4.83.43,10.01-2.65,15.01.92Z"/>
            <path class="cls-188" d="M117.28,349.13c1.02.37,1.89.34,1.77,1.5-.1.92-.32,2.04-.12,2.78.54.38-4.21,5.95-4.48,5.95-.91.02-1.28-.28-2.04-.9.31-.62-.58-.92-.86-1.33-.46-.7-.7-.16-.85.08-.21.34-.56,1.03-.19,1.23-1.82-.39-3.64-.77-5.09.7-.93-3.23-.07-6.6-.27-9.88l12.11-.14Z"/>
            <path class="cls-183" d="M179.58,309.13c-.13,1.72,1.17,5.17-.77,6.28-1.39.8-3.29.14-4.05,1.32-2.32-2.73-6.34,0-9.38-1.61-.34-.46.22-2.13-.07-2.26l-1.94-.92-.12-2.97c.77.2,1.78.12,2.37-.15.72-.33.67-1.41.95-1.99.86-.21.41,1.04.83,1.48,4.4.67,8.44-.43,12.17.82Z"/>
            <path class="cls-125" d="M126.34,329.67l1.02,3.74c.53,1.93-3.13,1.62-5.2,1.51l-12.06-.67c-1.2-1.29-.85-5.06.57-6.04,5.26.22,10.63-.2,15.67,1.46Z"/>
            <path class="cls-36" d="M170.5,366.64c.92,6.89-4.26,8.17-4.31,16.47-.18,1.39-2.85.11-3.77-.29.6-4.88.16-9.88,1.62-14.64,1.51-.06,2.56-1.92,3.91-2.4.65-.24,1.27-1.04,2.14-.51.37.23.44.81.41,1.38Z"/>
            <path class="cls-142" d="M190.11,410.58c-.26,1.4.75,3.67.11,5.12-4.41-.04-8.84,1.01-13.2.19l.45-5.65c2.46-.45,5.83-1.15,6.62,1.87,1.65,0,2.25-1.57,2.73-2.91,1.33-.43,2.07,1.01,3.28,1.37Z"/>
            <path class="cls-111" d="M262.83,386.24c-2.44.75-4.82-1.54-7.17-1.77l.75-7.1c2.48-.05,6.66-.92,6.9-.86.55.16,1.97,9-.48,9.73Z"/>
            <path class="cls-2" d="M185.11,362.79l.83,4.63c-.95.5-.31,2.06-1.42,2.41-2.19,1.02-4.72.19-7.09.22.05-2.65-.29-5.54.4-8.57,2.82.41,4.94,1.8,7.29,1.3Z"/>
            <path class="cls-152" d="M255.47,377.01c.27-.04.62.36.94.35l-.75,7.1-8.18-.81c-.35-2.15.18-4.06.1-5.84,2.49-1.05,5.27-.46,7.89-.81Z"/>
            <path class="cls-129" d="M164.76,294.51l.16,6.13-5.26.21c-3.29-2.44-2.91-4.85-2.38-7.91-2.25,1.58,9.42,1.41,7.48,1.57Z"/>
            <g>
              <path class="cls-61" d="M177.02,415.9c4.35.81,8.79-.23,13.2-.19,1.44,2.15,1.31,5.16,1.06,8.41,6.27,1.08,12.53-.54,18.73.16,1.46,1.57.12,3.91,1.02,6.08,4,.07,7.93-.2,11.65.57.16-1.21.46-1.75,1.14-1.37.56,3.52-.93,5.42-4.11,7.75-.79.58.33,2.35,1.03,2.39.62.03,2.09.1,3.29.35l.97,15.24c1.82.34,2.62-1.32,4.47-1.5-.79,2.63.03,6.26,3.25,6.53.93.08,3.57-1.25,3.83.46.79,5.27-.07,10.89-.37,15.93,1.59-.49,2.03,2.94,3.09,2.91l28.57-.78c1.42-.04,2.65.94,4.16.62.98-.21,2.48,1.18,3.25-.01,2.73.6,5.51,2.85,8.97,1.44l.7,8.2,6.28.72c-.4,2.27.69,4.96.36,6.9l-1.39,8.29h-53.53c-.93-3.16,0-5.92-1.05-8.51-.65-1.6.18-3.53-.32-5.58-1.94-7.87-.04-8.64-2.24-11.45-.87-1.11-1.99-.56-3.54-.83.69-5.82,1.4-11.24.86-17.11-3.68-.24-6.49.37-9.44-.39-.21-4.43-.16-8.11-.75-11.88-3.46-1.08-6.74-.54-10.72-.81l-.78-7.18c-14.79.9-8.49-2.09-24.27-.11l-.06-16.48c-3.19-.16-6.17.43-8.99-.7-.21-5.05.05-9.28-.6-13.4,2.35-2,.62,8.85,2.27,5.32Z"/>
              <path class="cls-4" d="M275.25,479.46c-.76,1.19-2.27-.2-3.25.01.25-.91.54-2.26,1.63-2.46.65.64,1.31,1.59,1.62,2.45Z"/>
              <path class="cls-44" d="M271.93,490.2c-1.23-.43-2.31.22-4.07.07-.49,2.83-.91,5.89.83,8.02-.59.03-1.35.09-1.67-.36-.17-.25-.27-1.28-.76-1.29l-13.91-.28c-.2-1.33-1.26-5.01.15-5.92,5.5-3.53,1.69-8.22,15.03-6.05-.24,1.54-1.71,5.04.75,5.04,1.24,0,2.72-.02,2.8-.58.4-2.79-2.78-6.43.61-3.65.51,1.75.1,3.53.23,4.99Z"/>
              <path class="cls-181" d="M283.02,501.65c-.75,1.36-3.39.83-4.58.98l-.13-12.67c1.84-.62,3.14.01,5.68-.18.6,3.6,1.21,7.92-.97,11.87Z"/>
              <path class="cls-54" d="M271.93,490.2c2.22.79,3.56,3.66,2.49,5.97-.86,1.86-3.8,2.01-5.73,2.12-1.74-2.13-1.32-5.19-.83-8.02,1.76.15,2.84-.51,4.07-.07Z"/>
            </g>
            <path class="cls-87" d="M145.95,395.28c.8.91,1.07,3.18,2.44,3.77,3.68,1.48,8.13.06,11.55,1.77,1.94.97.62,5.12,1.78,6.29,1.63,1.64,4.52.36,6.95.88.11,6.07.08,12.12-.54,18.34-.06.63-2.09.37-2.29,1.51-.35,2.06.57,4.65-.64,6.35-1.43,1.23-4.32-.06-6.12.69-.77,2-.24,4.18-.49,6.66l-10.14.43-.46,6.98c-5.04.89-9.92-.32-14.43.96.08-2.13-.75-5.47-1.53-7.39-1.77-.98-3.72.12-5.92-.38l-.47-25.05c-.09-4.73.38-9.75.68-14.43,2,.38,4.14.23,6.51.07l.27-6.64c2.17-.28,3.82.22,5.73-.46,2.34-.83,4.83-.06,7.12-.36Z"/>
            <path class="cls-82" d="M169.74,462.31c3.68,9.99-1.67,4.87-.29,8.12,2.39,5.64-2.52,6.04-.2,20.19.8,4.86.2,9.89-1.46,13.61l-42.61-.35c-.27-.7-1.26-1.4-.74-2.01.79-1.65.63-3.56.98-5.37l17.3.09c2.75.01,4.55.36,5.51-1.69.69-1.46,1.84-3.51,1.89-5.44.52-.49,2.46-.21,2.63-1.18.34-1.89,1.68-11.75-2.35-11.84,1.53-1.63,2.34-2.07,2.45-3.13.12-1.22-.9-1.64-1.25-2.9-.19-.67,1.31-.99.92-1.54,3.84-.02,7.56-1.01,11.65-1.34.27-1.66-.13-3.35.34-4.8.75-1.35,3.74-.82,5.22-.44Z"/>
            <path class="cls-78" d="M174.07,402.85l-1.26-7.62-13.91-.03c-.25-1.22-.19-2.44.56-3.68,1.26-2.1,5.7.44,8.04-2.38.72-.87,1.02-2.27,1.26-3.77l1.03-6.5c.27-1.7,4.66-1.39,6.22-.93-.26,5.44.39,10.32-.47,15.63-.13.79-.62,1.82-.6,2.32,0,.31-1.58.04-1.22.87.61,1.44,1.97,4.82,1.68,5.32-.22.38-.68,1.3-1.33.76Z"/>
            <path class="cls-190" d="M119.61,483.03c-.86,1.34.07,3.21-.44,4.64-.13.35.13,1.28-.28,1.48-1.45.7-3.4.17-5.05.69l-1.51,12.42c-.1.83-3.7.76-3.89-.08-.81-4.1-.52-8.55.1-12.72,1.56-.27,2.9-.26,4.89-.28.7-1.86.04-3.89.5-5.8,1.44-1.34,3.81-.3,5.66-.35Z"/>
            <path class="cls-132" d="M125.48,489.33c0,.37.21.75.61.67-.61,2.1-.25,4.38-.66,6.52-.35,1.81-.19,3.72-.98,5.37-1.31.51-2.74.36-4.96.56-.52-3.95-1.93-11.92,1.89-12.9,1.17-.3,2.86.33,4.09-.21Z"/>
            <path class="cls-11" d="M125.48,489.33c-1.23.54-2.92-.09-4.09.21-1.4.02-1.36-1.2-2.21-1.87.51-1.42-.42-3.29.44-4.64,1.74-.06,3.27-.95,5.57-.72.42,2.57.31,4.86.29,7.02Z"/>
            <path class="cls-15" d="M184.51,369.84c1.47,5.38.11,11.09.32,16.56-4.35,1.89-4.39-.57-7.77-.08,0-5.42.27-10.86.36-16.26,2.36-.03,4.89.8,7.09-.22Z"/>
            <path class="cls-144" d="M147.68,491c-.33,1.18-.07,3.01.56,3.91-.96,2.05-2.76,1.7-5.51,1.69l-17.3-.09c.41-2.13.05-4.42.66-6.52l16.77.62c1.37.05,2.09-1.93,4.01-2.42,1.09.88.54,1.98.81,2.82Z"/>
            <path class="cls-105" d="M112.41,358.47c-.37-.3-.71.08-.84.34-.35.69-1.11.39-1.05-.36-.37-.2-.03-.89.19-1.23.15-.24.38-.78.85-.08.28.41,1.16.71.86,1.33Z"/>
            <g>
              <path class="cls-73" d="M270.58,399.31c.89,1.09-.23,3.1,1.52,3.66-1.92,7.28.25,27.47-2.43,34.92l-1.76,4.9c-3.43,9.56-2.01-3.05-6.58,14.62.05,1.47,2.01,2.72,1.91,3.87-.06,3.03-1.55,6.61.18,9.53.31.52,1.9.33,2.34.55.5.25.22,1.72.66,1.98,2.34,1.39,2.65,3.64,1.42,5.52l-28.57.78c-1.06.03-1.5-3.4-3.09-2.91.3-5.04,1.16-10.66.37-15.93-.26-1.72-2.9-.39-3.83-.46-3.22-.27-4.04-3.9-3.25-6.53-1.85.17-2.65,1.84-4.47,1.5l-.97-15.24c-1.2-.24-2.67-.31-3.29-.35-.7-.04-1.82-1.81-1.03-2.39,3.18-2.33,4.67-4.24,4.11-7.75.4-1.65.37-4.11,1.25-5.87.41-.61,1.75-.48,2.15-.79.72-.55.67-2.14.71-3.15.16-4.61,5.85-3.92,8.67-4.4.85-4.75.91-10.94.07-15.17,9.82.87,24.62,1.78,33.92-.88Z"/>
              <path class="cls-3" d="M262.08,429.63c-3.07.14-5.25-.13-8.51-.6-.03-5.17-.79-10.2.19-15.43.25-1.32,4.08-1.07,4.29.07.59,3.15,6.26,1.92,4.03,15.96Z"/>
            </g>
            <path class="cls-153" d="M207.45,301.04c-1.15,1.48-.28,3.59-.05,6.19-2.98,1.36-6.32,1.19-9.69,1.29-.77,1.42-.42,2.6-.97,4.1-8.79,1.57-4.28,3.01-12.43,1.67l.83-5.75c.23-1.57.14-4.22.73-5.97.35-.86,2.02-.99,2.54-1.22,1.31,1.25,2.88,0,4.1-.09,2.78-.21,5.67.29,8.32-.87,1.86-.81,4.92.48,6.63.66Z"/>
            <path class="cls-85" d="M213.67,293.75c-.58,1.79.58,4.55-.58,6.34-.79,1.22-4.21,1.1-5.64.95-1.71-.17-4.77-1.47-6.63-.66-.43-1.04-10.35-2.02-8.32.87-1.21.09-2.78,1.34-4.1.09-.29-2.04-.45-4.29.17-6.88,6.14-.63,12.62.19,18.41-1.18.44-.73.31-2.42,1.45-2.91.56-.24,1.75-1.17,2.24.02.44,1.07-.74,2.61.32,3.09.62.28,1.99.48,2.69.26Z"/>
            <path class="cls-172" d="M185.14,308.54l-.83,5.75c-.89.76-.49,2.42-1.11,3.69-2.82.22-5.66,1.21-7.78,2.82l-.64-4.07c.76-1.18,2.66-.51,4.05-1.32,1.94-1.12.64-4.57.77-6.28,1.65-.21,3.8-.56,5.55-.59Z"/>
            <path class="cls-63" d="M236.69,263.33c3.12,1.37,5.55-.42,5.96,1.79.62,2.2-.78,4.65-3.48,4.96l-.99,5.65c-1.18.23-4.45.67-4.35,2.4.14,2.34,1.17,4.73-1.09,6.47,1.46.81,2.55,1.32,2.65,2.19.22,2.1-3.77,4.55-5.61,4.43-1.36-.08-1.88-1.08-2.09-1.87-.49-1.84,1.17-2.69,2.32-3.53-2.43-3.71-4.79.68-11.34.13.29.85.94.36,1.29.44.46.11.43.5.38.88l-6.42-.1c-.56-1.95-.6-3.72-1.43-4.84l-8.83-.22c.47-2.47-.33-4.23.18-5.61.81-2.2-.42-4.52.98-6.48.84-.09,2.16-1.31,2.83-.41l1.37,1.83c-.37,1.57.02,3.42.99,4.51,1.41,1.59,3.1,1.55,5.32,1.05,1.4-.31,2.82-.34,3.07-2.28.12-1-.19-1.8-1.15-3.04.87.08,1.94-.33,2.69-.54,2.36-.66.12,6.04,5.29,6.31.69,2.11-.9,4.22,1.05,6.01,1.48-3.13,0-6.99,1.06-10.04,1.62-.87,4.58-1.33,4.64-4.17.07-3.18,3.72-4.31,4.69-5.92Z"/>
            <path class="cls-80" d="M217.17,269.77c-.24.32-1.35.32-1.73.18-.06-.82,1.06-.86.83-1.25-.64-1.07-1.73-.41-2.38-.51-2.77-.42-4.3.98-4.84,3.25l-1.37-1.83c-.68-.9-2,.32-2.83.41.76-1.05-1.11-1.76-1.59-2.42-.42-.57-.04-1.27.15-1.84,4.03,1.12,9,2.53,13.13.52,6.32-3.08,9,1.2,9.88-3.7.3-1.66,4.81-1.33,5.06-1.14.53.41.66,1.12.57,1.69-.33,2.04-2.44.6-4.31,1.51-1,.49-1.38,5.8-2.92,7.93-.28-1.53-.62-2.62-1.86-3.45-.95-.65-5.25-.05-5.79.67Z"/>
            <path class="cls-154" d="M242.65,265.12c-.41-2.21-2.85-.41-5.96-1.79,1.94-3.25,5.23-4.04,9.68-2.47-1.28,2.36-2.75,2.86-3.72,4.26Z"/>
            <path class="cls-5" d="M215.44,269.95c.37.14,1.49.13,1.73-.18-.36.7.84,1.3.1,1.92-1.27-.11-2.5.16-4.29-.14.46-1.18,1.61-1.9,2.46-1.59Z"/>
            <path class="cls-109" d="M246.65,377.13c-1.73-.11-5.26.67-6.65-.83-1.67-2.37-1.03-5.77-.92-8.09,2.02.48,5.05-.01,7.08,1.14,1.44,2.14,1.29,5.65.49,7.78Z"/>
            <path class="cls-39" d="M201.71,408.58c-1.59-.14-3.3-.43-4.48-.91-2.34-10.11-2.53-19.57-1.25-29.65.08-.63-.26-1.92.15-2.41.27-.33,1.29.46,1.35-.6l6.67.57c-.31,4.02,1.09,33.78-2.44,33.01Z"/>
            <g>
              <path class="cls-169" d="M244.36,292.82c2.64,3.66-.03,6.56,2.13,7.63.62.31,1.77-.43,3.21-.18l1.7,8c3.4-7.83-3.83-8.63,2.53-11.23.59-.27,1.19,0,1.64.3.61.39.31,1.45.64,2.44,1.77,1.77,4.43.57,6.89,1.39.23,3.02-.82,5.74.55,8.01-.5.06-1.04.1-1.56.19-1.45.26-2.96-.03-4.5.14-.7,1.84-.9,3.54-.28,5.57,2.2.65,3.9-1.58,5.47-.18l.17,17.19,5.94.12.79,8.76c.06.69,1.67.71,1.66,1.85l-.23,18.68,6.94.63.09,5.74c2.28.78,4.49.19,6.52,1.16l.25,18c1.94.49,4.49-.39,5.62,1.01,1.38,1.7-.66,4.86.88,6.49.84.89,4.2-.33,4.65,1.28.56,1.97-.19,3.73.16,5.51,2.16.62,4.36-.22,6.37.86.1,2.7-.29,4.7.09,6.87l6.01.46c.61,2.7.02,5.29.34,8.25l5.39.54c.48,3.17.37,6.16.03,9.21l-11.56.33-.63,6.69-7.12.23c-.44,2.08.13,3.97-.74,5.82l-9.42.28-.31,7.95c-2.62.45-4.88.34-7.07.46l-.57-7.24c.8-2.28,1.04-5,.97-8.04,2.03-.66,3.42.19,5.62-.13.44-3.05.49-5.6.13-8.31l-5.56-.61-.13-21.84-5.98-.15c-1.75-.56-.63-2.56-1.52-3.66,1.1-2.81.5-6.08.25-9.19-2.24,1.94-.79,4.19-1.86,6.15-11.21-.55-22.23-.6-33.13-.22-1.26.04-3.52.26-3.89-1.68-.31-1.65.03-3.15-.99-4.26-.87-.94-2.85-.58-4.18-1.36.31-.8,1.03-1.94.78-2.94-.16-.62-1.59-.58-2.12-1.18l-2.2-5.33c.87.49,2.86-2.64,1.96-3.3,1.47.32,3.1-.09,4.88.52l.92,6.66c1.52.12,4.42-.25,5.15.95,1.26,2.07,1.57,4.52,2.44,6.95,8.5.16,16.7.54,24.95-.37,1.02-.92-.04-3.55-.72-4.47,2.45-.73,1.03-9.57.48-9.73-.24-.07-4.42.8-6.9.86-.32,0-.67-.39-.94-.35l.31-15.85c-9.94.06-19.01-1.33-28.17-.43-2.98.29-5.82-.25-9.32-.3-.06,1.35-.57,3.66.27,4.53-.94.28-.43,1.52-1.06,1.8-.95.42-2.55,1.27-2.8.04-.73-2.32-.66-.23-1.61.57-.46-.11-1.02-.27-1.54-.12.25-.86-.38-2.36-.79-3.54-2.21,1.14,0,3.18-.4,4.9-5.97.75-12.63,1.13-18.2.49-1.04,2.05-.34,3.76-.19,4.84.8,5.78-.65,17.31-.23,23.31.4,5.59-.59,9.06-1.65,13.35-1.21-.36-1.95-1.8-3.28-1.37-.34.11-.71.17-1.02-.14-.22-.22-.37-.57-.46-.89.05-1.9.19-3.82.11-5.72,1.13-.24,2.27-.58,4.08-.52,1-6.02.49-11.96.35-18.2-.12-5.21.44-10.21-.89-15.19-.53-.78-2.5-1.15-3.07-1.14l-.83-4.63c-.08-.43.2-.95-.33-1.17-.35-.15-1.72.45-2.17-.1-1.06-1.29-4.17-3.57-5.32-1.31-.82,1.61-1.17,3.13-2.71,3.13-.55-1.83.64-6.06-1.27-6.28-3.29-.37-4.88,6.51-5.35,8.7-1.35.49-2.4,2.34-3.91,2.4-1.93.08-10.18-.44-10.84-.33-3.65.64,4.35,1.78-6.96,2.49-.39,2.06.75,4.88-.75,6.45-.98,1.02-4.37-.44-5.5,1.07s.01,3.86-.62,5.9c-1.93.29-3.5.27-4.99.18-1.12-.79-1.76-2.59-1.6-4.25l1.06-10.54c.13-1.24,3.13-.32,3.93-.84.87-1.98.24-4.64.2-6.84-1.9-.39-3.54-.37-5.17-.43-1.01-9.19-.92-2.71-3.32-10.11-.58-1.8-5.22-1.93-6.36-.61-1.23,1.42-.52,5.23.75,6.37.81.73,2.29.17,2.94.85.56.58-.09,2.28.49,2.7,1.6,1.16,3.89.75,5.49.8.22,1.99.02,3.99.12,6.73-2.36.16-4.57.11-6.69-.2-.36-.48-1.24-.92-.99-1.66.91-2.78-.73-3.94-2.34-5.8-1.06-1.22-1.23-4.77-3.65-5.26-.32-.06-.26-1.13-.34-1.44-.2-.74.02-1.85.12-2.78.13-1.16-.75-1.14-1.77-1.5-.45-1.34.57-1.68,1.52-.31,1.09.12,1.63.22,2.17.11,2.39-.5.47-3.03,1.6-4.38.6-.72,1.65-.75,2.95-.66,1.45.11,2.1-1.08,2.07-2.24-.13-5.39-17.31-6.75-21.61-4.62-2.1,3.47-1.03,8.64-.81,12.24.2,3.28-.66,6.64.27,9.88-.64.65-1,1.03-2.05,1.11-1.34.14-3.05.21-4.94-.42-.09-8.28-1.01-17.48,1.03-24.82,2.22-.48,3.95.08,5.82-.63l.27-25.19c1.3-1.14,3.82-.21,5.18-.58-.12.39.33.9.4.63.09-.36,1.81-.36,1.7.22-.4,2.13-1.01,3.64.18,5.45-1.98-.18-1.96,2.61-2.29,4.14-3.44-1.97.04,8.28-.06,9.14-1.42.99-1.77,4.76-.57,6.04l12.06.67c2.07.11,5.73.42,5.2-1.51l-1.02-3.74,2.14-3.27c1.49.85,1.12-.13.95-.42-.46-.79-1.64-1.13-2.17-1.47l-1.37-.88c-.23-.15-.82-.42-.52-.83.5-.7,1.34-.27,1.8-.61.96.48,3.67.56,4.46-.19.85-.8.38-3.24,0-4.4s-2.43-.94-3.59-1.76c1.23-.71,1.72-2.33,3.24-2.54,1.28.6,3.23.91,4.29,2.23,2.54,3.19,7.62-.25,9.94,5.2,1.79-.85.46-3.25,1.3-3.89,2.04-1.37,4.52.11,6.81-.83-.5-3.02-.22-5.37.45-7.68,1.43.16,4.3,1,4.63-1.56.23-1.81-1.08-4.98.97-5.93l5.26-.21c.42-.02.89,0,1.21.35.21.23.35.33.36.89l.09,4.96c-.27.57-.23,1.66-.95,1.99-.59.27-1.61.35-2.37.15-1.12-.29-2.1-.39-3.05-.02-1.51.59-1.65,2.03-2.2,3.65l-3.04,9.03c-.48,1.43-.88,3.08-1.07,5.25l10.73,2.41c9.94,2.23,4.92,5.97,7.76,5.69,2.05-.2.86-3.34,1.89-3.35,3.62-.04,6.63.79,7.66-1.65,7.13-.59,14.38-.06,22.08-.18,1.68-.02,3.22,2,4.79,1.56,3.16-.89,6.04-.75,9.14.28,2.38.79,4.6-.39,6.58-.63,2.55-.3,5.74.22,8.35-1.1.84-.44.83-3.27,1.95-3.48.92-.17,3.57.02,3.92-.9,1.18-3.06.6-7.01-.26-9.6,3.22-3.67-4.12-7.37-.71-7.01,1.56.17,1.58-1.23,2.37-2.16,1.96-2.31-4.4-1.07-6.41-3.09-.86-.86.05-1.72-.42-3.17-.26-.8-1.88-.71-1.52-1.53.87-1.95-2.97-.05-3.13-5.31,2.85.23,5.3,1.14,8.02.81-.11,1.21-.57,2.08.09,2.31.93.32,1.45.36,2.02-.21,1.11-1.11,2.07-2.28,1.95-3.77,1.18-.27,2.4.14,3.6.02Z"/>
              <g>
                <path class="cls-162" d="M262.09,309.36c.27.81.7,1.28.82,2.01.2,1.28-.94,1.07-1.66,1.63.77.69,1.49.06,2.03.34.31.16.66.44.44.98-.38-.09-1.31-.12-.94.56-1.57-1.4-3.27.83-5.47.18-.62-2.03-.42-3.73.28-5.57,1.54-.17,3.05.13,4.5-.14Z"/>
                <g>
                  <path class="cls-4" d="M132.79,379.69l-5.56-.23c1.68-2.43.59-5.98-1.61-7.8l.63-4.1c2.12.31,4.33.35,6.69.2-.1-2.74.1-4.73-.12-6.73,1.63.06,3.26.04,5.17.43.04,2.21.66,4.86-.2,6.84-.8.52-3.8-.4-3.93.84l-1.06,10.54Z"/>
                  <path class="cls-120" d="M238.32,355.16c-1.11-1.75.32-4.6-1.21-6.24-1.1-1.06-3.82-.7-5.1-.55.35-.21.03-1.16-.36-1.34l-14.28.12c-.19-2.5.22-4.29.48-6.14,6.54-.07,13.3.73,19.73-.51,2.2-.42,4.53.39,6.55.59,4-.87,8.1-.52,12.55-.34.78-1.68.11-3.17.48-4.55,1.2.1,4.8-1.44,4.91.91l.9,18.33c-8.62.22-16.6.21-24.65-.27Z"/>
                  <path class="cls-94" d="M165.64,337.04c-.27,1.25-.18,3.06-1.4,3.35l-4.48,1.07c-2.16.52-.59,5.1-2.08,6.91-1.08,1.31-3.86,1.05-5.91.52.52-3.01.94-6.27-1.59-8.41-.83,7.68,1.63,8.04-.08,17.1-1.74-.09-3.7,1.07-6.01-.06l.71-24.86,20.71-.4c.29,1.86.14,3.32.13,4.78Z"/>
                  <path class="cls-14" d="M206.58,346.82c-.17,1.14-1.32,2.81-2.12,3.48-.57.46-1.33-.02-1.69-.27-.59-.42-.59-1.39-.53-2.27l.71-10.53c-2.13-.61-4.04-1.02-6.07-.64-4.6.86-11.2-.09-12.45.98-2.76,2.34-.09,19.19-1.04,19.45-.4.11-1.03-.45-1.59-.23-.93-.45-1.89-.19-3.73-.83.84-6.66-1.85-15.04,1.65-21.29,3.08-5.49,24.1-5.72,26.84-.95,2.09,3.64.56,9.33.02,13.08Z"/>
                  <path class="cls-48" d="M150.11,357.57c1.71-9.06-.75-9.41.08-17.1,2.53,2.14,2.11,5.4,1.59,8.41,2.05.53,4.83.79,5.91-.52,1.49-1.81-.08-6.39,2.08-6.91l4.48-1.07c1.23-.29,1.13-2.1,1.4-3.35.76-.11,1.76.27,2.04-.47.27-.69.36-1.41,1.82-1.9.12,7.7,1,15.43-.92,23.4-6.54.17-12.6-.18-18.48-.5Z"/>
                  <path class="cls-113" d="M232.01,348.36c1.27-.15,4-.51,5.1.55,1.53,1.64.1,4.49,1.21,6.24-6.23-.37-12.89.99-19.88-.12-1.57-1.07-.53-5.11-.35-6.53,5.54-.18,9.58.36,13.92-.14Z"/>
                  <path class="cls-133" d="M187.58,355.79c4.17,1.82,9.54,1.41,13.87.12l.11,1.29c.04.52.99.88,1.52.52-.66,1.09-.98,2.8-.17,3.82-4.07.78-9.54,1.21-13.65-.03-1.43-.43-2.84-3.08-4.87-3.11.05-.64-.26-2.14.39-2.26.81-.14,2.13-.65,2.8-.36Z"/>
                  <path class="cls-4" d="M132.81,361.04c-1.6-.06-3.89.35-5.49-.8-.59-.43.06-2.13-.49-2.7-.66-.68-2.14-.12-2.94-.85-1.26-1.14-1.98-4.95-.75-6.37,1.14-1.31,5.77-1.19,6.36.61,2.4,7.4,2.31.92,3.32,10.11Z"/>
                  <path class="cls-131" d="M237.57,340.5c-6.43,1.24-13.19.44-19.73.51.32-2.31,3.66-1.99,6.02-1.32,1.16-1.21-.91-1.68-.38-3.2l13.19-.13c.78,1.5.49,2.88.89,4.13Z"/>
                  <path class="cls-97" d="M257.15,336.19c-.37,1.38.3,2.87-.48,4.55-4.45-.17-8.55-.52-12.55.34.1-1.6-.77-3.16-.23-5.12,3.89-.83,9.85-.6,13.26.22Z"/>
                  <path class="cls-175" d="M174.57,363.35c-.64,1.83-2.53,2.3-4.07,3.29.03-.57-.04-1.15-.41-1.38-.87-.53-1.48.27-2.14.51.46-2.19,2.06-9.07,5.35-8.7,1.91.22.72,4.45,1.27,6.28Z"/>
                  <path class="cls-32" d="M138.31,353.48c-2.11,1.53-1.94-2.24-2.75-3.11-1.11-1.17-3.7-4.6-1.12-5.61,2.13-.84,2.61,2.36,2.58,3.79s2.74,3.89,1.3,4.93Z"/>
                  <path class="cls-10" d="M218.03,334.91c-.16,2.09-5.67,2.07-6.89-.14,1.79-1.66,5.41-2.17,6.89.14Z"/>
                  <path class="cls-186" d="M173.18,338.6c.22-.99,1.1-.62,1.55-.57.64.08.75,1.03.44,1.68-.13.28-.56.52-.94.64-.45.13-1.28-.71-1.05-1.75Z"/>
                  <path class="cls-89" d="M201.61,353.36c-.05.86-.7,1.76-.16,2.54-4.33,1.29-9.7,1.7-13.87-.12.35-1.35,1.58-2.35,1.3-4.38,1.92-3.38,8.38,1.13,12.48-1.24.22,1.45.21,2.29.25,3.19Z"/>
                  <g>
                    <path class="cls-157" d="M206.58,346.82c2.77-.91,1.37,5.94,2.09,7.61.79,1.86-.88,3.23-1.38,4.67-1.05,2.96-2.65,2.12-4.37,2.45-.81-1.02-.49-2.73.17-3.82.39-.5,1.71-.13,1.97-1.33.19-.86.16-1.81-.38-2.37-.94-.97-2.17-.95-3.07-.66-.04-.9-.03-1.74-.25-3.19-4.09,2.37-10.55-2.14-12.48,1.24.27,2.03-.95,3.03-1.3,4.38-.66-.29-1.99.22-2.8.36-.65.11-.34,1.62-.39,2.26-1.02-.02-1.87-1.26-2.59-1.6.56-.23,1.19.34,1.59.23.95-.26-1.72-17.11,1.04-19.45,1.25-1.06,7.85-.12,12.45-.98,2.03-.38,3.94.03,6.07.64l-.71,10.53c-.06.88-.06,1.85.53,2.27.36.26,1.12.73,1.69.27.79-.67,1.95-2.34,2.12-3.48Z"/>
                    <path class="cls-155" d="M186.66,341.78c1.97.97.92,6.51.67,6.76-.48.49-1.99,1.1-2.64.55.38-4.43-1.04-8.81,1.97-7.32Z"/>
                    <path class="cls-185" d="M203.08,357.72c-.53.36-1.48,0-1.52-.52l-.11-1.29c-.54-.78.11-1.69.16-2.54.9-.29,2.12-.31,3.07.66.54.56.56,1.51.38,2.37-.26,1.2-1.58.83-1.97,1.33Z"/>
                    <path class="cls-126" d="M195.05,346.39c-.84,1.31-2.1,1.66-2.57,2.85-.71-1.4-.66-2.39.05-3.42.51-.73,3.13-.39,2.52.57Z"/>
                  </g>
                </g>
              </g>
            </g>
            <path class="cls-95" d="M200.82,300.39c-2.65,1.16-5.54.66-8.32.87-2.03-2.89,7.89-1.91,8.32-.87Z"/>
            <path class="cls-139" d="M215.44,269.95c-.85-.31-1.99.41-2.46,1.59,1.78.3,3.01.03,4.29.14.97,1.24,1.28,2.04,1.15,3.04-.24,1.94-1.66,1.96-3.07,2.28-2.22.5-3.91.54-5.32-1.05-.97-1.09-1.36-2.94-.99-4.51.54-2.26,2.08-3.67,4.84-3.25.65.1,1.74-.56,2.38.51.23.39-.89.43-.83,1.25Z"/>
          </g>
        </g>
        <g>
          <path class="cls-4" d="M132.05,283.34c-.32,1.34,1.1,2.59.45,4.46-2.43.12-4.17-1.02-6.01-1.45.26-1.13.08-3.06-1.15-3.49-.17-.62.29-.79.82-.53,1.79.9,3.93,1.41,5.89,1.02Z"/>
          <path class="cls-30" d="M172.22,264.33c1.02,2.24,3.84,2.78,6.43,3.38l13.94,3.2c-.09,1.12.45,3.82-.88,4.55-1.59.87-4.13-.42-5.89,1.1-1.31,1.13.13,3.95-.75,5.57-2.44.57-4.87-.03-7.41.82-1.58.53-.27,3.12-.87,4.38-.87,1.82-3.72,1.41-5.7,1.35-1.21,1.49-.31,2.97-.61,5.29-2.26-.15-3.98.39-5.71.54,1.94-.16-9.73.01-7.48-1.57.63-3.61-.97-7.87.2-11.55l6.78-1.07c-.07-1.85.94-3.54.25-4.8s-2.79-.17-4.31-.65c-1.13-.36-1.43,1.5-2.63,2.26-2.52,1.01-5.55,1.25-6.16,4.65-.17.96-2.04.34-2.23,1.04-.34,1.27-.32,2.4-.36,3.65-.08,2.24-2.79,2.07-5,1.67l-2.38,14.74c-.37,2.32-5.67.26-7.17,1.48-1.06.85.46,4.83-2.16,4.69-1.89-.1-3.97-.4-4.89,1.06-2.92-2.37-9.24.64-8.67-3.88s.77-9.22.8-14.24l6.66-.89c.98-1.33.2-3.54.48-4.76,1.84.44,3.59,1.57,6.01,1.45.65-1.87-.78-3.12-.45-4.46.35-1.46,1.12-2.9,1.28-4.49l.82-8.32,7.29-.52c.71-2.61.6-5.01.65-7.73,3.13-.98,9.51.92,8.96-1.95,4.12.4,8.3.72,12.97.81,2.64.05-1.28,3.45,8.21,3.19Z"/>
          <path class="cls-25" d="M194.28,269.82l-1.69,1.09-13.94-3.2c-2.58-.59-5.41-1.14-6.43-3.38,8.03-.23,16.08-.12,24.53,1.57-.47,1.13-1.68.91-2.15,1.48-.62.76-.22,1.65-.32,2.44Z"/>
          <g>
            <path class="cls-7" d="M107.44,34.39c.03.89.87,1.43,1.67,1.43,2.31,0,5.14.01,7.59.72.61,1.17.4,3.4.02,4.39-.49,1.25-.41,1.89.52,2.57,2.36,1.73,5.32.21,8.24,1.32l-.06,6.9c2.5.7,4.82.22,7.6.68,1.05,2.24-.37,4.93.86,6.85.93.93,3.25.62,4.66.64,1.6.02,1,1.67,1.64,2.41,1.39,1.57,4.04.65,5.75.78-.08,1,1.13.93.94-.01l2.22-.93c.53-.22,1.43.08,2.54-.02.04-1.59.14-2.81-.11-4.02s-.32-2.4.03-4.61l19.75.26c.59,0,.63.09,1.26-.53.59-.58.21-.84-.54-.85-.82-1.84-1.01-3.92-.68-6.59,2.37-.34,4.2.18,6.74.1,2.19,4.61,4.87,9.28,8.76,12.13-.16.4.07.82.43.92.6.16,1.01-.02,1.21-.42s-.14-.88-.11-1.29c.24-3.7,1.89-7.19,2.54-11.2l5.2-.61c.78-2.31,1.13-4.35,1.52-6.8,1.95-.82,3.99.13,5.63-.9.54-.34.41-1.68.81-2.03,1.04-.9,3.7-.06,4.99-1.83.45-.62-.16-2.55.46-2.93,1.57-.94,6.09-1.46,7.29.08,1.33,1.71-1.03,4.83.96,5.95.78.44,2.13.43,2.99.99.55.36,1.23,1.26.63,2.16s.22,2.06,1.1,2.41c1.38.56,1.07-.98,1.28-1.53.56-1.44,3.79-1.16,5.08-1.58,2.62-.86,5.71-3.28,8.5-1.27.3,10.75-1.61,7.26-6.28,12.63-.3.34-1.34,0-.9,1.2.23.63.35.44.83.52,10.1,1.75,21.19-.39,32.15.82,1.17,1.55-.21,4.5-.29,6.41-.49,1.27-2.19,2.71-2.39,4.53,2.05.08,3.12-1.79,4.68-2.06h3.43c.5,0,1.38.07,1.04-.74,1.03.35.52-1.51,1.08-1.92,1.54-1.16,3.75-.89,5.31-.75.72.06,1.77-.64,1.44-1.47-.35-.88-.17-2.38-.18-3.6,0-.66,1.08-1.63,2.01-1.25.03,1.22,1.35.69,2.07.76,1.16.11,1.61-.68,3.15-2.7,1.15,2.25,4.01.75,4.95,1.51,1.57,1.27-.58,3.05-1.63,3.84-1.16.87-3.13-.62-4.25-.29-1.71.51-3.57,4-2.62,5.87-1.24.53-3.52.06-4.06,1.22-.65,1.4-1.31,2.7-.74,4.92l-8.52.98c1.47,1.72,1.35,3.54.37,4.87-1.19-.2-2.43.08-3.52-.51-.31-.55-.08-2.26-.74-2.56-3.96-1.54-7.43-.23-10.62,1.19-1.87.83-5.78.84-7.34-.15.27-1.37-.66-4.08-.38-5.13.68-2.55,5.22-3.5,7.74-3.45,1.46.03,1.73-3.08.88-3l-22.49,2.29c-.51-2.5.06-3.86-.63-5.51-1.98-.07-3.94.2-5.62.71-4.65-4.09,5.88-9.16,3.8-13.62-3.2-.78-6.14,2.29-8.9,3.43-1.63.68-3.17.98-3.24,2.76-9.25,1.06-9.3,13.68-13.12,12.4-1.1-1.82-.73-5.47-.08-7.69.43-1.45,2.61-.76,3.52-1.24,2.69-1.43,3.29-4.52,4.76-6.92,1.39-2.27,4.91-5.57,3.04-8.65-.93-1.52-6.03.2-6.17,2.09-.18,2.54-.77,3.92-3.36,3.91-1.05,0-1.95.45-2.42.84-.71.61-.45,1.9-.7,2.78-1.27,4.48-6.36-5.43-11.54,16.95-1.54-.21-4.09.73-5.12-.43-1.28-1.46-.99-3.97-3.17-4.89-4.03-1.7.77-4.71-9.44-4.05l-.09,6.77-15.47.53c-.55,1.62.03,4.92-1.68,5.43-1.59.47-3.38-.48-3.93.92-.36.92.2,2.21-.16,3.54-.5,1.84-6.26.93-6.75.27-.24-.32-.2-1.78-.59-1.92-3.61-1.19-7.97-1.01-11.84-1.4l-.78-9.16c-.18-2.07-4.81-.89-6.25-1.18-1.35-1.94-.41-4.14-1.12-6.53-2.45-.84-6.51.87-8.07-1.33-1.45-2.05.21-5-.72-6.8l-9.37-.45c-.66-2.45.19-4.82-.92-7.37l-13.57-.92-.1-7.31.85-.3,14.58.3.22,6.32Z"/>
            <path class="cls-70" d="M344.73,140.98c-1.04-.26-1.73-.76-1.72-1.93.02-2.21.42-6.16.03-8.16-.17-.86.71-2.81,1.46-3.28,1.62-1.02,3.3-.02,5.51-.77-.14-6.91.4-13.8.25-20.45.25-3.51,1.96-.58,7.03-2.31l.14-30.22c.05-10.16-.84-20.41-.36-30.45l.55-11.48c.11-2.32.1-3.99-1.29-5.63l-.25-8.28c-4.87-.54-9.68-.19-14.44.11-.66,1.52-.78,2.74-1.59,3.01-1.1.37-3.18.3-4.48.04-1.43,1.82-.62,3.98-1.15,6.24l-12.05.34-.89,7.39-12.34.4c-1.02,2.19-.79,4.52-.82,7.46l-10.96.75-.86,6.95c-1.63-.23-3-.29-4.28.1-2.57.79-.18,4.89-1.93,5.8-1.85.96-5.04-.61-6.45.65-.81.72-1.02,2.35-.78,4.49-1.19,1.17-3.3-.01-4.6,1.1-1.56,1.33-.47,3.95-.81,5.87-2.82.04-5.41-.11-7.98.95-.04,1.78.11,3.36-.24,4.83l-1.38-1.09c.99-1.32,1.1-3.15-.37-4.87l8.52-.98c-.57-2.22.09-3.52.74-4.92.54-1.16,2.82-.69,4.06-1.22-.95-1.87.91-5.36,2.62-5.87,1.11-.33,3.09,1.16,4.25.29,1.05-.79,3.2-2.57,1.63-3.84-.94-.76-3.81.74-4.95-1.51-1.54,2.02-2,2.81-3.15,2.7-.72-.07-2.04.45-2.07-.76,1.77.73,3.53-2.44,8.98-2.48,1.28,0,2.39.1,2.81-.87.55-1.27-.64-4.49.97-5.62.62-.44,2.41-.06,3.09-.59,1.29-1.97.23-4.68,1.17-6.98l11.67-.67c.25-2.67-.36-4.92.19-7.46l13.52-.71c.05-2.48-.23-4.82.22-7.72,4.14-.83,8.95.51,12.88-.87.15-1.62-.38-4.51,1.16-4.84.84-.18,1.9-1.01,3-.69.78.22,1.74-.67,1.56-1.47-2.97-4.24,12.66-1.6,14.98-2.98l.29-8.12c3.53-.38,6.92-.71,10.3.22-.03,2.96-.29,5.16.32,7.55,2.01.34,3.86-.61,5.78.51-.12,3.94.13,7.29-.42,10.59l-5.97.53-.48,84.52c-2.58.6-4.8-.24-7.08.71l-.38,21.73-7.28.43-.34,13.45c-1.87.77-3.83.77-5.5.35Z"/>
            <path class="cls-17" d="M344.73,140.98c-.61,1.09-1.81-.01-1.84,1.04l-.07,2.8c-.03,1.19.04,2.34-.58,2.86-1.37,1.13-4.48-.49-5.65.73-.76.79-.06,5.36-.75,6.62-1,1.81-4.14-.83-5.8,1.78-.54.86-.28,2.04-.22,2.76.03.41-1.31.33-.62,1.23.28.37.44.8.88.48.48,3.18-5.71.71-7.2,2.35-1.36,1.49.26,4.42-1.13,5.58-1.25,1.05-3.44,0-4.96.9-.47,2.88.59,5.75-.44,8.38-3.65.21-6.59-1.18-10.07-.52,1.12,12.91,6.57,9.75,6.98,11.12.91,3.07-.92,6.91,1.09,8.23,2.45,1.6,6.17,1.78,7.67,4.62,1.44,2.72,1.01,6.71.4,9.59l-12.83.34c-.65.02-1.06.47-.83,1.28.1.35.24.84.72.5.36,3.32,1.16,6.9.23,10.83-2.75,1.13-5.68-.75-7.58,1.27-.88-.26-1.01.96-.06.92-.34,1.97.8,4.03-.34,6.14-3.01.34-5.5-.05-8.25.64l-.33,6.16c-2.85.23-5.61-.21-8.58.46-.17,2.56.52,5.03-1.33,6.39-2.04-.94-3.96.47-5.65.65-4.5.48-9.22-.86-13.65-.81.37-1.89-.49-3.83.33-6.08,4.66,0,9.17.12,13.71-.7l.42-6.4c4.45-.59,8.55.21,12.81-.97l-.03-6.82c2.11-.49,3.92.3,6.26-.58-.89-2.28-2.02-4.15-1.92-6.21.22-1.93,3.51-.05,4.15-1.54.46-1.05-1.6-2.66-.55-4.24,1.46-2.21,3.81,3.24,7.31,3.1-3.79-3.83-1.59-5.05-3.12-12.08,3.72-.82,7.2.28,11.2-.06,1.34-1.64-8.72-7.67-9.51-7.2l-1.45-10.86c-.37-2.77-3.87-5.06-3.61-8.52-.73-1.12-3.49-.98-3.05-2.84.26-1.12-.76-3.43.31-4.32,2.3-.98,4.96.19,7.56-.5.54-2.11-.25-4.15.49-6.08l16.61-.98c-.1-2.76.11-4.55-.19-6.27,1.63-2.16,4.61-.18,7.1-1.17l.4-6.86c2.47-.4,4.33.45,6.27-.44.22-2.62-.15-4.56.39-6.5,2.17-.43,4.12.23,6.3-.44.39-.57-.06-2.01.91-1.7,0,1.17.68,1.67,1.72,1.93Z"/>
            <path class="cls-184" d="M105.17,161.19c-.08,1.39-2.41.26-3.08,1.06-1.36,1.62.82,4.3,2.68,4.66.05,1.89.75,3.3.63,4.73-.44,5.49.05,11.07-.86,17.01-1.74.18-4.71-.7-5.74.66-.87,3.27-.15,6.69-.54,9.74-4.89,1.53-7.69-2.11-13.06,5.56,8.56,1.34,7.32,3.92,14.07,1.16,1.71-.7,4.06-.05,5.7-.46-.54,4.26-1.71,8.27-4.58,12.51l9.66.24c-.67,2.63-2.57,4.34-1.81,6.96,1.62.54,2.96.17,4.54.53.27,2.55-.13,4.76-.18,6.98-.32-.26-.81-.16-1.1.11-1.09.26-3.7.79-4.7-.4-1.2-1.42-.48-4.06-.35-5.57.17-.61.04-.81-.61-.87-3.06-.3-6.13-.27-9.64-.87-.12-1.55.58-2.63.61-3.91,1.48.12.32-1.58,1.23-2.47.7-.68-.31-1.66-1.31-1.69l-3.98-.11c-1.11-.03-1.79-.29-1.94-1.1-.09-.46-.35-.87.08-1.25.33-.64.49-1.6-.13-2.43-.31-.42-.66-.57-1.3-.68-2.76-.46-6.55.51-9.18-.95-2.42-1.35.46-9.62-.26-9.07,2.35-1.8,9.8-1.57,10.28-4.66.68-4.32.47-8.14,2.05-12.39,1.93-.64,4.03.29,6.01-.86l.95-20.53-7.92-.93c-1.62-.19-2.4-1.65-2.02-3.05,1.59.03.6-2.23.99-3.59l14.23-.12c.54,2.23.62,4.17.56,6.06Z"/>
            <path class="cls-43" d="M151.04,260.33c.55,2.87-5.83.98-8.96,1.95-.05,2.73.06,5.13-.65,7.73l-7.29.52-.82,8.32c-.16,1.59-.92,3.03-1.28,4.49-1.97.39-4.11-.12-5.89-1.02-.71-3.82-.35-7.89.09-11.9,2.61-.37,4.72-.06,7.17-.68-.16-3.27-.16-6.2.23-9.59,1.24-.7,2.52-.03,3.41-1.44-.81-.99-1.39-1.54-1.3-2.21.3-2.15,5.91-.11,5.11-2.85-.49-1.67-2.1-5.26-3.82-5.47l-17.69-2.17-.41-6.08c-1.54-1.2-4.88.17-5.94-1.52-.88-1.39-.39-3.71-.43-5.03.12-.24.29-.52.03-.86,1.63,1.35,4.18-.2,6.4.76,1.68.72.71,3.92.57,6.34l19.79,1c1.26,2.03.2,4.21.92,6.54l17.44.22c.38,2.3.18,4.14-.14,6.6l-6.36.57-.18,5.79Z"/>
            <path class="cls-57" d="M110.16,141.52c.34,6.55.13,13.16-.2,19.71-1.64.21-3.33,1.01-4.79-.04.06-1.89-.02-3.83-.56-6.06l-14.23.12c-.38,1.36.6,3.62-.99,3.59-.51.11-.66-.27-.77-.58-.17-.49.32-1.04.64-1.42.7-.85-.47-1.35-.63-2.02,2.54-.81,1.8-4.73,1.04-6.75,4.24-1.76,8.83.14,13.8-.89,1.4-.29,1.43-3.78,1.57-4.81,1.51-.54,3.42-1.43,5.12-.86Z"/>
            <path class="cls-146" d="M93.28,140.13c2.94,3.12,8.2.25,11.76,2.25-.14,1.03-.16,4.52-1.57,4.81-4.97,1.03-9.56-.87-13.8.89-2.22-.4-5.78,0-8.35-.69-2.08-.56-.53-4.07-1.36-5.13-1.04-1.32-5.97-.48-5.95-.57l-.27,1.55c-.58-.96-1.54-.69-2.33-.91-.35-.54.19-.87,1.52-.86l-.53-8.11c5.03,2.96,6.36.74,7.35,2.35.88,1.43.13,3.34.86,4.97,4.99-.37,9.31.25,12.67-.55Z"/>
            <path class="cls-45" d="M89.67,148.08c.76,2.01,1.49,5.94-1.04,6.75-2.5.18-5.14.08-7.99-.24-.77-2.23.33-4.6-.82-6.18-.92-1.26-3.54-.17-5.23-.9-1.48-.64-1.32-3.24-.85-4.28l.27-1.55c-.02.1,4.91-.75,5.95.57.84,1.06-.72,4.57,1.36,5.13,2.57.69,6.13.29,8.35.69Z"/>
            <path class="cls-4" d="M265.16,62.19c-1.57.27-2.63,2.14-4.68,2.06.19-1.83,1.9-3.26,2.39-4.53.17,1.14,1.29,2.07,2.3,2.47Z"/>
            <path class="cls-4" d="M149.08,62.16c-.21-.95.83-.7,1.78-.91.11-1.24-.61-2.82.65-3.13.25,1.21.15,2.43.11,4.02-1.11.1-2.01-.21-2.54.02Z"/>
            <path class="cls-4" d="M96.81,221c.03-1.4-.01-2.77-.08-4.16,1,.03,2.01,1.01,1.31,1.69-.92.89.25,2.59-1.23,2.47Z"/>
            <path class="cls-4" d="M223.77,41c-.21.55.1,2.09-1.28,1.53-.88-.36-1.7-1.5-1.1-2.41.8.48,1.37,1.08,2.38.88Z"/>
            <path class="cls-4" d="M338.95,12.96c.15-.66.88-1.31,1.56-1.47.18.8-.78,1.7-1.56,1.47Z"/>
            <path class="cls-4" d="M109.11,35.82c-.81,0-1.64-.54-1.67-1.43.73.05,1.49.74,1.67,1.43Z"/>
            <path class="cls-4" d="M117.24,43.51c-.93-.68-1.01-1.33-.52-2.57,1.11.26.47,1.74.52,2.57Z"/>
            <path class="cls-4" d="M171.3,53.77c-.06-.64,1.07-.64.73-1.38.75.02,1.13.27.54.85-.63.61-.68.53-1.26.53Z"/>
            <path class="cls-4" d="M276.02,58.77c.16-.63.8-1.31,1.44-1.47.33.83-.72,1.53-1.44,1.47Z"/>
            <path class="cls-4" d="M268.59,62.19c-.29-.74.51-.92,1.04-.74.34.81-.54.74-1.04.74Z"/>
            <path class="cls-4" d="M145.93,63.1c.31.02.62-.18.94-.01.19.94-1.02,1.01-.94.01Z"/>
            <path class="cls-4" d="M62.48,374.75c0-.42.13-1.09.76-.68.62.73-.34.6-.76.68Z"/>
            <path class="cls-4" d="M186.84,58.03c.8.36.8-.96,1.53-.8-.03.41.32.88.11,1.29s-.62.58-1.21.42c-.36-.1-.59-.52-.43-.92Z"/>
            <path class="cls-4" d="M341.48,239.03c-.15-.59.25-1.05.86-.91-.08.64-.34.69-.86.91Z"/>
            <path class="cls-4" d="M70.06,363.3c-.15-.35-.36-.64-.24-1.2.1-.47.29-.73.72-.57.13.14.13.94.13,1.28,0,.27-.09.58-.6.49Z"/>
            <path class="cls-4" d="M19.05,342.8c.61-.75.72-2.11,1.72-2.51.08,1.11-.46,2.55-1.72,2.51Z"/>
            <path class="cls-4" d="M307.96,337.19c-.66.31-.97-.42-.85-.94.67-.04.76.41.85.94Z"/>
            <path class="cls-4" d="M90.9,214.39c-1.12-.66-.35-2.3-1.42-3.11.64.11.98.25,1.3.68.61.83.46,1.79.13,2.43Z"/>
            <path class="cls-4" d="M309.46,213.64c-.48.34-.63-.15-.72-.5-.23-.81.18-1.26.83-1.28,0,.6.07,1.2-.1,1.77Z"/>
            <path class="cls-4" d="M231.01,52.49c-.48-.08-.6.1-.83-.52-.44-1.2.61-.85.9-1.2-.11.57-.04,1.15-.07,1.72Z"/>
            <path class="cls-4" d="M106.45,226.66c-.57.1-.71-.43-.61-.87.65.06.78.26.61.87Z"/>
            <path class="cls-4" d="M302.05,226.66c-.95.04-.81-1.18.06-.92.25.31-.01.63-.06.92Z"/>
            <path class="cls-4" d="M112.57,233.38c-.55.18-1.4-.06-1.07-.75.29-.27.78-.37,1.1-.11.26.34.09.62-.03.86Z"/>
            <path class="cls-4" d="M330.07,161.28c-.44.32-.6-.11-.88-.48-.68-.9.66-.82.62-1.23.37.51.17,1.13.26,1.71Z"/>
            <path class="cls-4" d="M328.47,257.92c.29.5-.19.62-.52.66-.53.07-.92.02-1.2-.24.01-.91,1.1-.72,1.72-.43Z"/>
            <path class="cls-4" d="M111.69,460.66c.03-.56-.46-1.1.25-1.64.43-.32.57-.74,1.26-.67-.65.65-.56,1.98-1.52,2.31Z"/>
            <path class="cls-103" d="M225.32,57.31c-2.77.84-5.2,2.72-8.77,2.17l.42-9.6c.08-1.78,1.61-2.08,3.24-2.76,2.76-1.14,5.7-4.21,8.9-3.43,2.08,4.46-8.45,9.53-3.8,13.62Z"/>
            <path class="cls-158" d="M264.51,72.91c1.1.59,2.33.31,3.52.51l1.38,1.09c-.25,1.04-.14,2.21-.52,3.49l-5.46,1.04-.77,9.11c-2.45-.07-4.76.12-7.07-.4-.61-2.98.07-5.34-.75-7.51,1.75-1.16,3.64-1.87,6.28-1.69.83-2.17.5-4.09,1.75-5.86.58-.05.99.81,1.29.96.28.13.72-.42.35-.74Z"/>
            <path class="cls-192" d="M264.51,72.91c.38.33-.07.87-.35.74-.3-.14-.71-1-1.29-.96-1.25,1.77-.93,3.7-1.75,5.86-2.63-.19-4.53.52-6.28,1.69-3.51.75-1.58-6.78-1.69-8.71,3.19-1.42,6.67-2.73,10.62-1.19.66.3.43,2.01.74,2.56Z"/>
            <path class="cls-170" d="M357.07,43.41c-1.82.92-3.9.39-6.52,1.26-.37,9.93,1.28,19.8-.15,29.1l-.76,4.93-6.5.31c-.79,1.35-.16,2.88-.85,4.57l-9.05.69c-1.67.13-4.41-1-5.94.74s.92,5.12-1.23,6.47c-2,1.26-.9,3.21-1.48,4.89-.45,1.32,1.76,31.67.66,36.31-4.6,1.38-.14,7.93-3.26,8.69-1.99.49-3.79-.46-5.44.33.23,2.18-.46,3.82-1.44,5.4-2.07-.44-6.08-.99-6.99,1.75-.69,2.1.5,4.4-1.07,5.74-4.21-.52-8.46.08-13.13-.62l.32-21.74c-2.25-1.75-5.97-.09-8.41-1.64-1.81-1.16-2.03-6.72-.02-7.91l7.4.04c2.04.01,3.38-1.56,3.29-3.18.78-.57.67-1.81.93-3.17l10.14-.38c.13-3.09,2.09-4.72,5.02-4.72.16-1.7.82-3.46.54-4.69-3.87-1.27-7.6.12-10.96-1.4-2.75-1.24-5.65-3.06-9.06-2.09-.77-.68-.87-2.3-.78-3.34.11-1.3,1.46-12.84-1.58-11.41,1.23-1.13.92-3.03,1.78-4.71l9.04-.65.53-12.67,7.87-.39.37-10.82,8.09-.32c.24-2.36-.4-4.56.21-6.86l7.51-.7c.38-2.33,0-4.54.68-6.51l7.42-.31c1.22-2.87,3.37-2.97,6.66-2.8,1.45-1.07,1.02-4.39,1.24-6.55l6.24-.69c.57-2.44.07-4.65.35-7.26,3.01-.67,5.44.24,7.59-.79,1.39,1.64,1.4,3.31,1.29,5.63l-.55,11.48Z"/>
            <path class="cls-178" d="M349.63,78.69l.62,27.7c.15,6.66-.39,13.54-.25,20.45-2.21.75-3.89-.25-5.51.77-.75.47-1.62,2.43-1.46,3.28-8.14,5.12-7.83-2.37-12.01-.18-.7.37-.77,2.17-1.75,2.82-1.18.78-2.83-.87-4.02-.87,1.1-4.65-1.11-35-.66-36.31,2.82,1.38,6.54,1.71,9.61.33-.19-4.58-1.27-8.41-.96-12.43l9.05-.69c.69-1.69.06-3.22.85-4.57l6.5-.31Z"/>
            <path class="cls-160" d="M343.03,130.9c.39,2,0,5.94-.03,8.16-.97-.31-.52,1.13-.91,1.7-2.18.68-4.13.02-6.3.44-.54,1.94-.17,3.88-.39,6.5-1.94.89-3.8.04-6.27.44l-.4,6.86c-2.49.98-5.47-.99-7.1,1.17l-4.72-2.37c-.38-1.2.52-6.2-1.82-6.69.99-1.58,1.67-3.22,1.44-5.4,1.65-.78,3.46.16,5.44-.33,3.11-.76-1.35-7.32,3.26-8.69,1.19,0,2.85,1.65,4.02.87.98-.65,1.05-2.46,1.75-2.82,4.18-2.2,3.87,5.29,12.01.18Z"/>
            <path class="cls-12" d="M357.43,73.86l-.14,30.22c-5.07,1.73-6.78-1.19-7.03,2.31l-.62-27.7.76-4.93,7.03.1Z"/>
            <path class="cls-77" d="M357.43,73.86l-7.03-.1c1.43-9.3-.22-19.17.15-29.1,2.63-.87,4.71-.34,6.52-1.26-.48,10.04.4,20.29.36,30.45Z"/>
            <path class="cls-1" d="M85.65,50.61c-.1.51-.56.79-.78,1.1-.31.44-1.45-.41-2.27.02-1.67.87-1.54,5.49.11,6.04,3.37.84,7.28.37,10.03.54,2.19.14,4.68,1.04,7.35.7l-.07,11.43c2.4.1,4.39.46,6.59.95.43,1.73-.45,3.54.12,4.62-.78,2.26-.65,4.65-1.14,7.33-.76.2-1.5.01-1.38.73-1.99-.28-5.43-.64-7.08.18-1.14,1.6,1.07,3.66,2.91,3.41.13,1.35-.55,1.81-.7,2.61-.47,2.56-1.83,7.31,1.43,8.36,1.78.58,3.78-.65,4.96.6.1,1.59-.19,3.17.11,4.75.11.58-.14,1.37-.75,1.54-1.82.42-5.5,1.24-6.15-.42.36-2.75-2.17-3.73-4.5-3.42-.29,1.39.37,2.81-.38,4.81-1.15-1.59-.38-3.64-.02-4.98.57-2.15-1.73-3.35-1.86-4.84l-1.08-12.47c-1.13.55-.95,1.62-1.61,2.18-1.67,1.44-1.49-.76-5.83.44-.89-1.93-.67-4.15-.43-6.92-2.27-1.37-5.43.18-7.38-1.69-.95-.91-.14-3.68-1.89-3.69.35-4.01.58-8.41-.66-12.55-.48-1.59-3.28-.83-4.26-1.32-2.79-1.41-1.44.78-2.05-8.78l-6.19-.31-.46-6.75c-1.72-.4-3.1-.65-4.48-.66l-.91-13.04c-.09-1.31-.85-2.79.15-3.47l11.28.21.3,7.11c1.61.71,4.11-.73,5.48.41,1.69,1.39.74,4.31.93,6.26,2.07,1.05,4.19.65,6.49.79,1.18.07.95,1.95,1.42,2.45,1.78.55,4.13-.08,6.24.85-.83,1.97-1.43,3.32-1.6,4.87Z"/>
            <path class="cls-51" d="M60.8,51.57c-1.68,1.83-1.65,20.05-1.45,22.76.35,4.67-.78,9.37.36,14.36,2.09.59,4.3.5,6.18.59-.02,5.18,1.52,11.19,0,16.18-1.11,3.63-1.55,7.31-.12,10.81h7.24c.96,2.36,0,4.73,1.42,6.86,2.41.07,4.76-.3,6.77.41-.51.77-.33,3.27.46,3.76,1.77,1.11,4.18-.03,6.12.59l.24,5.2c1.73.77,3.3.27,5.02.77.35,2.3.49,4.31.27,6.26-3.37.8-7.69.18-12.67.55-.74-1.63.02-3.54-.86-4.97-.98-1.6-2.32.62-7.35-2.35-.06-.87.77-2.74-.33-3.47-1.59-1.06-4.1.11-6.04-.86s-.12-4.68-1.31-6.05c-1.57-1.8-4.87-.47-7.25-.95-2.98-19.92-.58-63.25-1.6-77.87,1.37,0,2.75.26,4.48.66l.46,6.75Z"/>
            <g>
              <path class="cls-141" d="M69.13,11.37c-.1.76-.63,1.48-.14,2.48,1.87.81,3.38-.02,4.8.04l7.07.29c.39,1.92.07,3.41.88,4.97l10.16.49c.85,3.05-.26,5.72.72,8.12l-.85.3c-3.2,1.14-7.22-.01-11.14-.19-.35-1.02.21-3.2-.85-3.68-2.99-1.34-7.35-1.4-10.35-2.54.61-4.38-10.29-2.63-14.39-2.94-.22,3.16-.26,6.37.06,8.93-1,.69-.24,2.17-.15,3.47l.91,13.04c1.02,14.62-1.38,57.95,1.6,77.87,2.38.47,5.68-.85,7.25.95,1.19,1.36-.66,5.06,1.31,6.05s4.44-.2,6.04.86c1.1.73.27,2.6.33,3.47l.53,8.11c-1.33,0-1.87.33-1.52.86l-6.16-1.64c-1.32-2.98.07-6.79-.75-9.6-1.94-.79-5.15.44-6.7-1.13-1.66-1.77.28-5.16-1.08-7.21-.82-.98-2.72-.33-4.06-.96-1.56-12.85-3.7-3.7-3.83-11.41l-1.39-77.43-3.74-1.21-.89-10.01c-.98-.1-3.6.61-3.92-.48-1.18-3.99-.51-8.14-.43-12.23,2.35-.23,3.72.12,5.65-.34.23-1.69-.37-2.98.32-4.59,3.36-.41,6.27-.05,9.43.43l.21,4.83,13.91.76c.69.04,1.34.74,1.14,1.26Z"/>
              <path class="cls-4" d="M73.8,13.89c-1.43-.06-2.93.77-4.8-.04-.49-1,.03-1.72.14-2.48,1.9-.15,3.91.71,4.67,2.52Z"/>
              <path class="cls-83" d="M47,11.23c.12,2.11-.87,2.36-.99.45.09-.95.54-1.32.99-.45Z"/>
            </g>
            <path class="cls-69" d="M291.45,204.48c4.27,4.33-2.03,9.97,4.05,14.07-.1,2.07,1.03,3.93,1.92,6.21-2.34.88-4.15.09-6.26.58l.03,6.82c-4.26,1.19-8.36.38-12.81.97l-.42,6.4c-4.53.81-9.05.7-13.71.7-.82,2.25.04,4.19-.33,6.08-3.12.03-6.84,1.77-10.71.55l-.76,7.02-26.83.83c-2.47.08-4.8.17-7.11.15l-39.83-.33c-2.17-.02-3.95.28-5.05,2.11,9.04,3.1,21.83.66,26.92,3.35,3.74,1.98,7.04,2.25,10.78,1.69-2.02,4.07-3.58-.3-7.5,1.8-.59.31-.14,1.39-.43,2.28-.19.57-.57,1.28-.15,1.84-2.89,1.25-5.76,2.63-8.97,2.22.1-.79-.3-1.68.32-2.44.47-.57,1.68-.35,2.15-1.48-8.45-1.69-16.5-1.79-24.53-1.57-9.49.27-5.56-3.13-8.21-3.19-4.68-.09-8.86-.42-12.97-.81l.18-5.79,6.36-.57c.32-2.45.52-4.29.14-6.6l-17.44-.22c-.72-2.33.34-4.51-.92-6.54l-19.79-1c.13-2.42,1.11-5.62-.57-6.34-2.22-.95-4.77.59-6.4-.76.05-2.22.45-4.43.18-6.98-1.58-.35-2.92.01-4.54-.53-.76-2.62,1.14-4.33,1.81-6.96l-9.66-.24c2.87-4.24,4.04-8.26,4.58-12.51,2.02-.9,4.56-1.31,7.04-.63-1.18,9.19.93,5.51-.22,14.16,2.63.17,4.94-.88,7.48.01l.06,7.37,7.16.28.46,6.8,16.46.2c.94.39.71,2.85,2.17,2.34-.37.13,5.68-.85,6.1.23.2.53-.53,2.35-.24,3.3,4.58,1.32,10.06.13,15,.87.52,2.45-.43,4.32.3,6.52l70.37-.13.7-6.87,20.18-.67c.39-1.72-.11-4.27,1.55-4.84,3.47-1.19,6.88-1.14,10.43-1.39l.61-6.64,7.03-.65.55-13.86c2.3-.34,5.4.74,6.55-.68,1.14-1.71.15-4.16.72-6.11,2.25-.62,4.21.39,6.03-.44Z"/>
            <path class="cls-34" d="M296.5,119.53c-2.8.7-15.4-1.9-10.69,3.14-2.01,1.18-1.79,6.75.02,7.91,2.44,1.56,6.16-.11,8.41,1.64l-.32,21.74c4.67.7,8.91.1,13.13.62l5.01.62c1.83.23,3.54-.88,4.87-1.42l4.72,2.37c.3,1.72.09,3.51.19,6.27l-16.61.98c-.73,1.93.05,3.97-.49,6.08-2.6.69-5.26-.48-7.56.5-1.07.89-.04,3.2-.31,4.32-.44,1.86,2.32,1.71,3.05,2.84-.26,3.46,3.24,5.74,3.61,8.52l1.45,10.86c.21.58-.43,1.65-.79,2.13l-7.94.49c-1.22.08-2.76-.05-3.78.87s-1.4,2.39-1.05,3.78c-3.13-2.48-7.11-2.7-11.49-4.58,4.02-.9,8.03-.67,12.39-.36-.21-3.01-1.39-6.09-.47-8.82.6-1.79,4.09-.08,5.44-.99,1.58-1.06,1.1-5.53-.43-5.96l-5.18-1.44c-1.77-2.48-.51-6.22-1.31-8.66-1.14-1.03-5.97.08-5.97-2.62-.02-13.12.57-25.65-.15-38.5-2.28-.43-4.13.25-6.24-.76.02-8.73-.29-16.84.47-24.81,1.91-.18,3.82-.03,5.74.07.42,3.4,4.64-2.08,8.9-3.29,3.41-.97,6.31.84,9.06,2.09,3.36,1.52,7.1.14,10.96,1.4.27,1.23-.39,2.99-.54,4.69-2.93,0-4.89,1.63-5.02,4.72l-10.14.38c-.26,1.35-.15,2.6-.93,3.17Z"/>
            <path class="cls-66" d="M295.5,218.55c-6.08-4.1.22-9.73-4.05-14.07-.19-.19.01-.48-.04-.67-.35-1.39.07-2.9,1.05-3.78s2.56-.8,3.78-.87l7.94-.49c.36-.48,1-1.55.79-2.13.79-.47,10.85,5.56,9.51,7.2-4,.34-7.49-.76-11.2.06,1.53,7.03-.68,8.25,3.12,12.08-3.49.13-5.84-5.31-7.31-3.1-1.05,1.59,1.01,3.19.55,4.24-.65,1.48-3.94-.39-4.15,1.54Z"/>
            <path class="cls-16" d="M99.27,205.76c-6.75,2.76-5.51.18-14.07-1.16,5.37-7.67,8.17-4.02,13.06-5.56-.14.74.46.72,1.05,1.47-.22,2-1.13,3.81-.03,5.24Z"/>
            <path class="cls-100" d="M109.96,161.23c-.15,3.09.69,6.31-.08,9.87l-4.49.54c.12-1.43-.58-2.83-.63-4.73-1.86-.36-4.04-3.04-2.68-4.66.67-.8,3,.34,3.08-1.06,1.46,1.05,3.15.25,4.79.04Z"/>
            <path class="cls-137" d="M105.09,105.54c.58,1.76,1.58,3.91,1.44,5.85-.12,1.6-.71,3.27-.71,4.92-1.84,1.63-4.62.49-7.58,1.77-1.32.58-.48,3.12.21,4.11s2.77,2.1,4.1,2.1c.49,2.07,1.32-.59,8.63,3.68.72.42-.28,1.18-.49,1.5-1,1.47-1.91-1.35-4.25-.89-.45.09-1.02,1.14-.84,1.85.44,1.73,3.66,1.73,5.15.4,1.06.47.47,1.72,1.4,1.74-.25,3.05,1.63,8.01-1.99,8.94-1.7-.57-3.61.33-5.12.86-3.56-2-8.82.87-11.76-2.25.22-1.95.08-3.96-.27-6.26-1.71-.5-3.28,0-5.02-.77l-.24-5.2c-1.93-.62-4.35.52-6.12-.59-.78-.49-.96-2.99-.46-3.76.47-.71,1.45-1.89,1.47-3.21.15-11.54-.31-22.61,1.01-33.51,4.35-1.2,4.16,1,5.83-.44.65-.56.48-1.63,1.61-2.18l1.08,12.47c.13,1.5,2.43,2.7,1.86,4.84-.36,1.34-1.13,3.39.02,4.98.75-2,.09-3.42.38-4.81,2.33-.31,4.86.68,4.5,3.42.65,1.66,4.33.84,6.15.42Z"/>
            <path class="cls-123" d="M218.53,254.86c-1.65.91,1.3,4.67-2.24,5.32-1.71.32-4.2,0-4.95,1.5-3.74.57-7.03.3-10.78-1.69-5.09-2.7-17.88-.25-26.92-3.35,1.1-1.84,2.88-2.13,5.05-2.11l39.83.33Z"/>
            <path class="cls-88" d="M104.2,84.08c1.7.23,12.17,7.74,12.94,10.11.25.76.57,1.92,1.17,1.94.33,0,.59-.96.8-1.14l6.51,1.31c.33,4.07.67,7.62-.29,10.82-3.78-.86-7.68-.33-12.18-.66-2.29-1.74-4.79-2.69-7.32-2.46-.29-1.58,0-3.16-.11-4.75.85.33,3.05.16,4.13-.5,1.53-.93.71-6.19-1.03-6.58l-9.49-1.88c.15-.8.82-1.26.7-2.61-1.84.25-4.05-1.81-2.91-3.41,1.65-.82,5.09-.46,7.08-.18Z"/>
            <path class="cls-161" d="M125.51,114.43c-.27,1.81,1.13,4.34-.02,6.89-1.61.9-3.89.31-5.94,1.14-.98,2.88-.59,5.56-.67,8.4l-6.19.43-.54,1.29c-.93-.02-.34-1.27-1.4-1.74-1.49,1.33-4.71,1.33-5.15-.4-.18-.71.39-1.76.84-1.85,2.34-.46,3.25,2.36,4.25.89.22-.32,1.21-1.08.49-1.5-7.31-4.27-8.14-1.6-8.63-3.68,4.84,0,9.57.16,14.83-.73.55-1.95,1.68-3.61,1.9-6.07-4.84-.55-9.25.19-13.46-1.19,0-1.65.6-3.32.71-4.92,6.3,1.46,12.5,2.99,18.98,3.04Z"/>
            <path class="cls-91" d="M290.75,88.35c3.04-1.43,1.7,10.11,1.58,11.41-1.93.01-5.18-.8-6.94.42-1.17,1.61.43,4.84-1.19,6.21-1.91-.1-3.83-.25-5.74-.07.42-4.38-1.29-9.16-.03-13.94,2.45-.42,5.67.53,7.95-1.17.91-.68-.35-2.6,1.5-2.7l2.86-.16Z"/>
            <path class="cls-127" d="M125.34,107.12c.99,2.09.52,4.94.17,7.3-6.48-.05-12.68-1.59-18.98-3.04.14-1.94-.86-4.09-1.44-5.85.6-.17.86-.95.75-1.54,2.52-.23,5.03.73,7.32,2.46,4.51.33,8.41-.2,12.18.66Z"/>
            <path class="cls-191" d="M119.12,94.99c-.21.18-.47,1.14-.8,1.14-.6-.01-.93-1.17-1.17-1.94-.77-2.37-11.25-9.88-12.94-10.11-.12-.72.62-.53,1.38-.73.49-2.68.36-5.07,1.14-7.33,1.31,2.53,1.06,4.53,2.79,6.09,2.18,1.98,4.03,1.2,7.06,1.44,2.13.16,1.04,3.36,1.35,4.86.51,2.44,2.28,4.42,1.19,6.58Z"/>
            <path class="cls-74" d="M92.74,58.31c-2.75-.17-6.66.3-10.03-.54-1.65-.55-1.78-5.17-.11-6.04.82-.43,1.95.42,2.27-.02.22-.31.68-.59.78-1.1l6.71,1.41.39,6.29Z"/>
            <path class="cls-136" d="M333.24,84.27c-.31,4.02.77,7.85.96,12.43-3.07,1.38-6.79,1.05-9.61-.33.57-1.68-.52-3.63,1.48-4.89,2.15-1.35-.27-4.76,1.23-6.47s4.27-.61,5.94-.74Z"/>
            <path class="cls-55" d="M315.11,147.1c2.33.49,1.44,5.49,1.82,6.69-1.34.54-3.05,1.65-4.87,1.42l-5.01-.62c1.58-1.34.38-3.64,1.07-5.74.91-2.74,4.92-2.19,6.99-1.75Z"/>
            <path class="cls-124" d="M292.33,99.75c-.09,1.04,0,2.66.78,3.34-4.26,1.22-8.48,6.7-8.9,3.29,1.62-1.37.02-4.6,1.19-6.21,1.75-1.22,5-.41,6.94-.42Z"/>
            <path class="cls-22" d="M296.5,119.53c.09,1.62-1.25,3.19-3.29,3.18l-7.4-.04c-4.71-5.05,7.89-2.45,10.69-3.14Z"/>
            <path class="cls-27" d="M69.04,60.66c.15.39-.08.78,0,1.15.13.56-1.32.24-1.35.56-.33,3.72-.71,7.88.43,11.46,1.03,1.5,4.41.7,5.84.7,1.75,0,.94,2.78,1.89,3.69,1.95,1.86,5.11.32,7.38,1.69-.24,2.76-.46,4.99.43,6.92-1.32,10.91-.86,21.98-1.01,33.51-.02,1.32-1,2.49-1.47,3.21-2-.72-4.35-.35-6.77-.41-1.41-2.13-.45-4.5-1.42-6.87h-7.24c-1.43-3.49-.98-7.17.12-10.8,1.52-4.99-.02-11,0-16.18.02-4.47,1.01-9.36-.99-13.97-1.84-.75-3.88-.68-5.55-.98-.21-2.71-.23-20.93,1.45-22.76l6.19.31c.61,9.56-.74,7.38,2.05,8.78Z"/>
            <path class="cls-168" d="M105.73,99.25c-1.17-1.25-3.18-.03-4.96-.6-3.26-1.05-1.91-5.8-1.43-8.36l9.49,1.88c1.74.4,2.56,5.65,1.03,6.58-1.08.66-3.28.83-4.13.5Z"/>
            <path class="cls-102" d="M73.97,74.53c-1.42,0-4.81.8-5.84-.7-1.14-3.59-.77-7.74-.43-11.46.03-.32,1.48,0,1.35-.56-.09-.36.15-.76,0-1.15.98.49,3.78-.27,4.26,1.32,1.24,4.14,1.01,8.53.66,12.55Z"/>
            <path class="cls-147" d="M65.89,89.28c-1.88-.09-4.09,0-6.18-.59-1.13-4.99,0-9.69-.36-14.36,1.67.3,3.71.23,5.55.98,1.99,4.61,1,9.5.99,13.97Z"/>
            <path class="cls-87" d="M102.54,124.3c-1.33,0-3.43-1.14-4.1-2.1s-1.53-3.54-.21-4.11c2.95-1.28,5.74-.14,7.58-1.77,4.21,1.38,8.62.64,13.46,1.19-.22,2.46-1.35,4.12-1.9,6.07-5.27.89-10,.74-14.83.73Z"/>
            <g>
              <path class="cls-149" d="M356.33,26.3c-2.15,1.04-4.58.12-7.59.79-.29,2.62.22,4.82-.35,7.26l-6.24.69c-.22,2.16.21,5.48-1.24,6.55-3.29-.17-5.43-.07-6.66,2.8l-7.42.31c-.67,1.97-.3,4.18-.68,6.51l-7.51.7c-.61,2.3.04,4.5-.21,6.86l-8.09.32-.37,10.82-7.87.39-.53,12.67-9.04.65c-.86,1.68-.55,3.58-1.78,4.71l-2.86.16c-1.85.1-.59,2.03-1.5,2.7-2.28,1.7-5.5.75-7.95,1.17-1.26,4.78.45,9.56.03,13.94-.76,7.97-.45,16.08-.47,24.81,2.11,1.01,3.97.32,6.24.76.72,12.85.12,25.38.15,38.5,0,2.7,4.83,1.59,5.97,2.62.8,2.44-.47,6.18,1.31,8.66l5.18,1.44c1.53.43,2.01,4.9.43,5.96-1.36.91-4.85-.8-5.44.99-.91,2.73.26,5.81.47,8.82-4.36-.31-8.38-.54-12.39.36,4.38,1.88,8.37,2.1,11.49,4.58.05.19-.15.48.04.67-1.81.83-3.78-.18-6.03.44-.57,1.96.42,4.41-.72,6.11-1.15,1.42-4.25.34-6.55.68l-.55,13.86-7.03.65-.61,6.64c-3.55.25-6.96.2-10.43,1.39-1.66.57-1.15,3.12-1.55,4.84l-20.18.67-.7,6.87-70.37.13c-.73-2.2.22-4.07-.3-6.52-4.95-.74-10.43.45-15-.87-.29-.95.44-2.77.24-3.3-.41-1.08-6.46-.1-6.1-.23-1.46.51-1.24-1.95-2.17-2.34l-16.46-.2-.46-6.8-7.16-.28-.06-7.37c-2.54-.89-4.84.16-7.48-.01,1.16-8.65-.96-4.97.22-14.16-2.48-.68-5.02-.27-7.04.63-1.64.41-3.99-.25-5.7.46-1.1-1.43-.19-3.24.03-5.24-.59-.76-1.18-.73-1.05-1.47.39-3.05-.33-6.47.54-9.74,1.03-1.36,4-.48,5.74-.66.91-5.94.42-11.52.86-17.01l4.49-.54c.77-3.56-.08-6.78.08-9.87.33-6.55.54-13.16.2-19.71,3.62-.93,1.74-5.89,1.99-8.94l.54-1.29,6.19-.43c.08-2.84-.31-5.52.67-8.4,2.05-.83,4.33-.24,5.94-1.14,1.15-2.56-.25-5.09.02-6.89.35-2.36.82-5.21-.17-7.3.96-3.2.63-6.75.29-10.82l-6.51-1.31c1.08-2.17-.68-4.14-1.19-6.58-.32-1.5.78-4.7-1.35-4.86-3.04-.23-4.88.54-7.06-1.44-1.72-1.56-1.48-3.57-2.79-6.09-.56-1.09.31-2.9-.12-4.62-2.2-.49-4.19-.85-6.59-.95l.07-11.43c-2.67.34-5.16-.56-7.35-.7l-.39-6.29-6.71-1.41c.17-1.55.78-2.89,1.6-4.87-2.11-.93-4.46-.3-6.24-.85-.47-.5-.24-2.38-1.42-2.45-2.3-.14-4.42.25-6.49-.79-.19-1.95.75-4.87-.93-6.26-1.37-1.13-3.87.3-5.48-.41l-.3-7.11-11.28-.21c-.32-2.56-.27-5.77-.06-8.93,4.1.31,15-1.44,14.39,2.94,3,1.14,7.36,1.2,10.35,2.54,1.06.47.5,2.65.85,3.68,3.93.18,7.94,1.33,11.14.19l.1,7.31,13.57.92c1.11,2.55.27,4.92.92,7.37l9.37.45c.93,1.8-.73,4.75.72,6.8,1.56,2.2,5.62.49,8.07,1.33.71,2.39-.23,4.59,1.12,6.53,1.43.29,6.07-.89,6.25,1.18l.78,9.16c3.87.39,8.23.21,11.84,1.4.39.14.36,1.6.59,1.92.49.67,6.25,1.57,6.75-.27.36-1.33-.2-2.62.16-3.54.55-1.41,2.34-.45,3.93-.92,1.71-.51,1.13-3.81,1.68-5.43l15.47-.53.09-6.77c10.21-.66,5.41,2.35,9.44,4.05,2.18.92,1.89,3.43,3.17,4.89,1.02,1.17,3.57.22,5.12.43,5.18-22.38,10.27-12.47,11.54-16.95.25-.88-.01-2.17.7-2.78.46-.4,1.37-.85,2.42-.84,2.59,0,3.18-1.37,3.36-3.91.14-1.89,5.24-3.61,6.17-2.09,1.87,3.07-1.65,6.38-3.04,8.65-1.48,2.4-2.08,5.49-4.76,6.92-.91.49-3.1-.21-3.52,1.24-.65,2.21-1.02,5.87.08,7.69,3.82,1.28,3.87-11.33,13.12-12.4l-.42,9.6c3.56.55,6-1.33,8.77-2.17,1.67-.51,3.64-.78,5.62-.71.69,1.65.12,3.01.63,5.51l22.49-2.29c.85-.09.58,3.03-.88,3-2.53-.05-7.06.9-7.74,3.45-.28,1.05.65,3.77.38,5.13,1.57.99,5.48.98,7.34.15.11,1.93-1.82,9.46,1.69,8.71.82,2.17.14,4.53.75,7.51,2.31.53,4.62.33,7.07.4l.77-9.11,5.46-1.04c.38-1.28.28-2.45.52-3.49.35-1.47.2-3.05.24-4.83,2.57-1.06,5.16-.91,7.98-.95.35-1.92-.75-4.55.81-5.87,1.31-1.11,3.41.06,4.6-1.1-.24-2.14-.02-3.77.78-4.49,1.4-1.26,4.6.31,6.45-.65,1.75-.91-.64-5.01,1.93-5.8,1.28-.39,2.66-.33,4.28-.1l.86-6.95,10.96-.75c.03-2.94-.2-5.27.82-7.46l12.34-.4.89-7.39,12.05-.34c.54-2.26-.28-4.42,1.15-6.24,1.3.27,3.38.34,4.48-.04.8-.27.93-1.49,1.59-3.01,4.76-.3,9.58-.65,14.44-.11l.25,8.28Z"/>
              <g>
                <path class="cls-35" d="M163.9,173.55c-5.06.66-10.64.47-15.98.31-.79-11.06-5.77,3.26-3.49-19.97,2.26.2,3.55.59,4.45.05,1.19-.72,1.24-2.67.22-4.73-1.51-3.07-8.81-3.46-10.12.37-.48,1.42.2,4.01-1.01,4.51-.92.38-3.59.85-4.14-.46-1.37-4.36-.34-9.09-.48-13.81l19.08.03c.58,2.26-.52,4.59.79,6.01.81.88,4.07-.79,4.76.82.85,1.97-.39,4.3.62,6.31l5.71.04-.41,20.53Z"/>
                <path class="cls-179" d="M249.89,201.33c.75.08,2.14.3,3.32.59,3.5.88,1.72,10.36.66,11.1s-2.47.49-4.56.33c-1.03,3.21-.15,6.51-.57,10.14-.53,4.69-5.54,7.98-9.69,6.67s-3.75.92-5.22-1.06c-.45-.61-.41-1.41-.23-2.57-.32-.91-.87-.72-1.14.14-.68,0-.78-.91-1.44-.99.68-1.18,2.81-.48,2.69-2.13,1.26.5,2.35,1.47,3.98,1.6,1.95-1.36,3.12-5.15,1.23-6.99-1.4-1.37-4.04-.07-5.1.94.02-.93-.87-3.25-1.86-3.12l1.1-6.44,10.73-.94c.73-1.75-.3-4.39.9-5.87,1.38-.91,3.84-.84,5.2-1.38Z"/>
                <path class="cls-143" d="M204.84,214.03c1.31.27,1.08,4.24-.2,5.06-10.57-1.86-22.46-1.54-33.29-1.72-.5-3.11-2.9-4.68-4.82-6.37-1.32-1.17-.6-3.06-2.82-3.98s-2.78-7.64-3.32-9.82c-.29-1.16-2.02-.2-3.25-1.14-1.77-1.35-1.62-6.51-.05-8.06,2.75-.47,7.79-1.36,10.19.04,2.78,1.62.94,6.21-.66,8.35-1.87,2.5-1.17,8.48,1.35,10.51,1.6,1.28,3.07,2.01,4.14,3.57,1,1.44,5.58.99,7.25.36,3.68-1.4,6.23.68,8.99,1.86,4.82,2.07,11.12.22,16.49,1.35Z"/>
                <path class="cls-182" d="M232.46,226.66c.27-.86.83-1.04,1.14-.14-.18,1.16-.22,1.96.23,2.57,1.47,1.98,1.18-.22,5.22,1.06s9.16-1.98,9.69-6.67c.41-3.62-.47-6.93.57-10.14,2.09.16,3.5.4,4.56-.33s2.84-10.21-.66-11.1c-1.18-.3-2.57-.51-3.32-.59.57-1.37.53-2.79.92-4.78,4.98.32,2.57-1.07,7.71,3.76,3.37,3.17,3.68,8.66,2.52,12.77-1.88.45-3.27-.04-5.1.18l-.78,12.23c-1.2.77-2.6.3-4.19.73l-.73,7.4-17.2.02c-.47-2.55-.65-4.82-.57-6.98Z"/>
                <path class="cls-65" d="M231.96,215.97c.98-.12,1.88,2.19,1.86,3.12l-.1,4.45c.12,1.64-2.01.95-2.69,2.13-1.36-.35-2.76.41-4.34-.42-.18-3.09-.35-5.51-.03-8.61l5.3-.67Z"/>
                <path class="cls-41" d="M228.1,244.57c-1.49-.43-.83-3.26.33-3.04,1.41.26.98,3.42-.33,3.04Z"/>
                <g>
                  <path class="cls-62" d="M238.46,169.94c-.21,1.49.07,2.99-.8,4.3-1.97-.1-3.9.45-5.87-.05-2.3-7.11-.5.36-6.08-5.76-.84-3.17-.35-6.54-.2-9.77,1.83.32,3.91-2.28,6.24-.46l.1,10.38c2.54.18,5.32-.46,6.61,1.37Z"/>
                  <path class="cls-99" d="M261.27,139.11l-17.77-.35c.79-1.47.26-3.24.58-5.61l16.84-.18c.95,2.13.17,4.17.36,6.14Z"/>
                  <path class="cls-38" d="M231.79,174.18c-1.29-.32-3.8.79-5.04-.6-1.14-1.28-.65-3.7-1.04-5.16,5.57,6.12,3.77-1.35,6.08,5.76Z"/>
                  <g>
                    <path class="cls-33" d="M243.5,138.77l17.77.35c.35,3.78,1.44,26.36-1.29,28.38-.71.53-3.22-.1-3.79.64-1.29,1.69-.34,3.92-1.04,5.76-4.2.65-8.11.16-11.93.23-.38-1.24-.27-2.25-.92-2.94-.93-.99-2.89-1.62-3.82-1.24-1.29-1.84-4.07-1.19-6.61-1.37l-.1-10.38c-2.33-1.82-4.41.78-6.24.46s-4.65.38-6.38-.93c-1.41-1.36-.84-4.2-.65-5.84,2.66.35,4.46,1.11,6.9,1.1.67-2.64-.33-4.9.55-7.33,2.72-.27,5.5.21,6.83-1.41,1.07.62,2.62.26,3.57-.26,1.89-1.03.8-2.65,1.12-4.09,1.84-.87,3.98-1.17,6.04-1.13Z"/>
                    <path class="cls-79" d="M237.46,139.9c-.32,1.44.77,3.06-1.12,4.09-.94.52-2.5.87-3.57.26.39-1.08-.38-2.66.3-3.74,1.05-1.64,3.4-.14,4.38-.61Z"/>
                    <path class="cls-49" d="M243.21,174.12c-1.86.03-3.67.21-5.55.11.87-1.3.59-2.8.8-4.3.93-.38,2.89.25,3.82,1.24.65.7.55,1.7.92,2.94Z"/>
                    <path class="cls-56" d="M233.24,155.58c-1.01-.74-.75-4.13.15-5,.96-.92,3.63-.85,4.41-.05,1.08,1.11,1.21,2.98.75,4.25-.56,1.51-3.46,2.15-5.3.8Z"/>
                  </g>
                </g>
                <path class="cls-64" d="M233.71,223.55l.1-4.45c1.07-1.01,3.7-2.3,5.1-.94,1.89,1.84.71,5.64-1.23,6.99-1.63-.13-2.72-1.1-3.98-1.6Z"/>
                <g>
                  <path class="cls-28" d="M187.24,196.44c-.05-15.56-2.86-8.73-3.39-12.16-.38-2.5-2.03-2.75-3.66-3.29-.88-.33-.79-3.9.18-4.05,4.81-.53,9.91-.45,14.48.05,1.53.17.89,2.91.68,4.18-.27,1.61-5.18,1.18-7.61,6.88-.37,2.88.4,5.78-.68,8.39Z"/>
                  <path class="cls-72" d="M190.56,180.42c-.67,1.98-4.48,3.2-5.24,1.31-.6-1.49,1.25-2.59,2-2.51,1.08.11,2.67.32,3.24,1.21Z"/>
                </g>
              </g>
            </g>
          </g>
        </g>
      </g>
    </g>
  </g>
</svg>