<?xml version="1.0" encoding="UTF-8"?>
<svg id="_レイヤー_2" data-name="レイヤー 2" xmlns="http://www.w3.org/2000/svg" viewBox="0 0 314.55 431.73">
  <defs>
    <style>
      .cls-1 {
        fill: #c2c6d6;
      }

      .cls-2 {
        fill: #c6c7d7;
      }

      .cls-3 {
        fill: #cacddb;
      }

      .cls-4 {
        fill: #a1a1b6;
      }

      .cls-5 {
        fill: #f8ceb3;
      }

      .cls-6 {
        fill: #626078;
      }

      .cls-7 {
        fill: #aaaabe;
      }

      .cls-8 {
        fill: #d6d9e5;
      }

      .cls-9 {
        fill: #8f8ea5;
      }

      .cls-10 {
        fill: #fdfefe;
      }

      .cls-11 {
        fill: #cc766b;
      }

      .cls-12 {
        fill: #716c7d;
      }

      .cls-13 {
        fill: #b45e5c;
      }

      .cls-14 {
        fill: #685d67;
      }

      .cls-15 {
        fill: #acadc0;
      }

      .cls-16 {
        fill: #bdc0d2;
      }

      .cls-17 {
        fill: #c5756e;
      }

      .cls-18 {
        fill: #998b98;
      }

      .cls-19 {
        fill: #ebedf5;
      }

      .cls-20 {
        fill: #8b8aa1;
      }

      .cls-21 {
        fill: #9b99ae;
      }

      .cls-22 {
        fill: #2f2a3a;
      }

      .cls-23 {
        fill: #fff;
      }

      .cls-24 {
        fill: #bcbed0;
      }

      .cls-25 {
        fill: #d27872;
      }

      .cls-26 {
        fill: #8d8ba4;
      }

      .cls-27 {
        fill: #aaadbf;
      }

      .cls-28 {
        fill: #484157;
      }

      .cls-29 {
        fill: #3b3344;
      }

      .cls-30 {
        fill: #7e7c94;
      }

      .cls-31 {
        fill: #afb0c4;
      }

      .cls-32 {
        fill: #c46262;
      }

      .cls-33 {
        fill: #9c9cb2;
      }

      .cls-34 {
        fill: #bec1d2;
      }

      .cls-35 {
        fill: #dfe2ec;
      }

      .cls-36 {
        fill: #e69685;
      }

      .cls-37 {
        fill: #d6dae5;
      }

      .cls-38 {
        fill: #f4f1f3;
      }

      .cls-39 {
        fill: #afb2c4;
      }

      .cls-40 {
        fill: #262130;
      }

      .cls-41 {
        fill: #b7b8cb;
      }

      .cls-42 {
        fill: #8b88a1;
      }

      .cls-43 {
        fill: #716f89;
      }

      .cls-44 {
        fill: #30293a;
      }

      .cls-45 {
        fill: #e5e7f0;
      }

      .cls-46 {
        fill: #e1e2ec;
      }

      .cls-47 {
        fill: #e3e6ef;
      }

      .cls-48 {
        fill: #d8dbe7;
      }

      .cls-49 {
        fill: #df8c81;
      }

      .cls-50 {
        fill: #d0d4e0;
      }

      .cls-51 {
        fill: #645966;
      }

      .cls-52 {
        fill: #c2c2d2;
      }

      .cls-53 {
        fill: #dfe3ee;
      }

      .cls-54 {
        fill: #b3b5c6;
      }

      .cls-55 {
        fill: #e9ecf4;
      }

      .cls-56 {
        fill: #211d2c;
      }

      .cls-57 {
        fill: #85839a;
      }

      .cls-58 {
        fill: #b9bbce;
      }

      .cls-59 {
        fill: #403847;
      }

      .cls-60 {
        fill: #fcfbfc;
      }

      .cls-61 {
        fill: #cacbd9;
      }

      .cls-62 {
        fill: #7c727d;
      }

      .cls-63 {
        fill: #dadfe8;
      }

      .cls-64 {
        fill: #824650;
      }

      .cls-65 {
        fill: #c8ccd9;
      }

      .cls-66 {
        fill: #dce0eb;
      }

      .cls-67 {
        fill: #9c9bb1;
      }

      .cls-68 {
        fill: #c9cbd9;
      }

      .cls-69 {
        fill: #554c59;
      }

      .cls-70 {
        fill: #4b4350;
      }

      .cls-71 {
        fill: #dd9187;
      }

      .cls-72 {
        fill: #3c3443;
      }

      .cls-73 {
        fill: #e59b89;
      }

      .cls-74 {
        fill: #595161;
      }

      .cls-75 {
        fill: #bbc0cf;
      }

      .cls-76 {
        fill: #e0e4ee;
      }

      .cls-77 {
        fill: #d5d9e4;
      }

      .cls-78 {
        fill: #e09084;
      }

      .cls-79 {
        fill: #a6a6bd;
      }

      .cls-80 {
        fill: #302a37;
      }

      .cls-81 {
        fill: #c5c8d6;
      }

      .cls-82 {
        fill: #e29084;
      }

      .cls-83 {
        fill: #eda494;
      }

      .cls-84 {
        fill: #b6bbcc;
      }

      .cls-85 {
        fill: #817e94;
      }

      .cls-86 {
        fill: #554f67;
      }

      .cls-87 {
        fill: #dadee9;
      }

      .cls-88 {
        fill: #85839c;
      }

      .cls-89 {
        fill: #eef1f9;
      }

      .cls-90 {
        fill: #e0e3ed;
      }

      .cls-91 {
        fill: #b7bbc9;
      }

      .cls-92 {
        fill: #f7f3f6;
      }

      .cls-93 {
        fill: #fcf0e3;
      }

      .cls-94 {
        fill: #231f2e;
      }

      .cls-95 {
        fill: #e7a993;
      }

      .cls-96 {
        fill: #cf7a75;
      }

      .cls-97 {
        fill: #acacc0;
      }

      .cls-98 {
        fill: #fbdcc1;
      }

      .cls-99 {
        fill: #b3aec3;
      }

      .cls-100 {
        fill: #e19083;
      }

      .cls-101 {
        fill: #acb1c1;
      }

      .cls-102 {
        fill: #b1b5c6;
      }

      .cls-103 {
        fill: #feffff;
      }

      .cls-104 {
        fill: #463d4a;
      }

      .cls-105 {
        fill: #c2776b;
      }

      .cls-106 {
        fill: #76748a;
      }

      .cls-107 {
        fill: #bbbfcf;
      }

      .cls-108 {
        fill: #3e3645;
      }

      .cls-109 {
        fill: #4c4251;
      }

      .cls-110 {
        fill: #c5c7d8;
      }

      .cls-111 {
        fill: #abafc1;
      }

      .cls-112 {
        fill: #e7eaf3;
      }

      .cls-113 {
        fill: #fdfdfe;
      }

      .cls-114 {
        fill: #d4d6e3;
      }

      .cls-115 {
        fill: #dadde8;
      }

      .cls-116 {
        fill: #746373;
      }
    </style>
  </defs>
  <g id="_レイヤー_1-2" data-name="レイヤー 1">
    <g id="_生成オブジェクト" data-name="生成オブジェクト">
      <g>
        <path class="cls-15" d="M118.03,425.48c1.47-.11,3.63.24,5.24.23l39.91-.23,40.93.22,20.19.19c.55,4.13-.69-.07.57,5.32l6.66.06c.17.12.18.39.06.44l-186.9.03c-.06-2.6-.27-4.1.06-5.94l50.26-.12c7.67-.11,15.4.39,23.02-.2Z"/>
        <path class="cls-75" d="M231.59,431.71c.12-.06.11-.32-.06-.44l-6.66-.06c-1.25-5.39-.01-1.19-.57-5.32,1.14.01,2.29-.37,3.37-.55,1.38-.22,2.89.43,3.94-.33,8.9,1.72,18.55.06,27.97.83.25,1.88.31,3.87-.06,5.86h-27.92Z"/>
      </g>
      <g>
        <path class="cls-10" d="M180.56,54.54c.27-.13.58-.03.47.3-.89.39-.8,2.9.05,3.33,1.28.64,2.75-.14,3.83.29.13,1.18-.21,2.37.2,3.74,1.42.23,2.84.18,4.16.15.07,1.16-.25,2.33-.01,3.67,1.48.4,2.86.22,4.16.48-.03,1.06-.17,2.11-.06,3.58l3.54.56c-.04,2.01-.38,3.89.04,5.9,1.29-.25,2.35-.1,3.68-.56.29-.3.36-1,.43-1.26.82-.05.76,1.01,1.18,1.47-2.22-.15-1.27,5.21-1.23,7.48l3.7.07c1.91.04,2.25,2.6,2.8,3.97l-2.68.32c-.14,4.36-.46,8.54-.11,12.94.15,1.91-.7,4.16.31,6.2.51,1.04,2.51.72,3.32.32.55,5.48-.09,11.01.18,16.74,1.35.23,2.59-.2,3.76.44.27,2.37-.24,4.81.41,6.97.82.85,2.77-.07,3.48-.66l.38,1.01c-.94,8.7-.99,17.97.06,26.65-.26,1.26-1,3.15-.16,4.86,1.27-.1,2.42-.14,3.56-.14.33,3.31.2,6.7.01,10.03-.95,0-2.35.6-3.14,1.39-.81,1-.03,2.7-.24,3.83-1.04-1.17-.39-3.05-1.16-4.68-.92-.5-2.61.01-3.55-.8-.66-.76-.21-2.84.25-3.67s1.79-.11,2.54-.48c1.77-.9,1.64-3.32,1.09-4.91-1.41.23-2.3.47-3.63.13-.54.9-.1,2.35-.41,3.5-1.26.04-2.15.86-2.93,1.4-1.4.97-1.75,3.3-2.76,3.69l-2.33.91c.02-4.87.99-1.98.9-5.1.28.04.47-.06.64-.15.37-.21.5-.79.49-1.35l-.16-21.59c-.02-2.52.44-5.24-.02-7.75l-.11-7.07c-2.64-.62-.97-3.46-1.61-6.26-1.06-.46-2.13-.07-3.51-.43l-.06-11.28-4.24-.23c0-3.56-.22-6.73-1.11-9.85s-.34-6.6-1-10.13c-1.7-.2-3.51.53-4.71-.42.15-1.18.22-2.44.01-3.88l-4.22-.09c-.29-1.32,0-2.42-.14-3.86l-4.37-.29-.16-3.79-5.25-.05c-.08-1.5.17-2.74-.1-4.16l-4.05-.17v-4.37c-.01-.51-.38-.58-.99-.57l-22.65.12-.32,4.85c-1.3.28-2.55.01-4.16.14l-.28,3.64c-.05.69-1.45.41-1.93.42l-1.87.05-.36,3.48c-1.2.38-2.25.12-3.6.32l-.32,3.95-3.75.17c-.2,1.41.18,2.67-.25,4.05l-5.46.38c-1.11.08.12,3.5-1.2,4.39-.51-1.39-.4-2.94-.54-4.76-1.39.05-2.7.37-3.88-.25,1.23-.49,2.25-.13,3.61-.23.68-1.79-.08-3.48-.07-5.26l.03-11.63c0-1.63.57-4.45-.05-5.71-.26-.53-.18-2.08.31-2.42.97-.67,2.32,0,3.39-.56.35-.97-.36-2.65.41-3.35.93-.85,2.58-.02,3.68-.66.34-.95-.34-2.27.22-3.21.95-.97,2.6-.06,3.83-.42l.51-2.4c7.6.15-3.35-1.81,10.6-2.3.35-.43-.16-1.97,1.01-1.97h22.59s.77,2.51.77,2.51c1.89.36,3.41-.23,4.89.2,1.88.54,3.76,1.01,5.46.17Z"/>
        <g>
          <path class="cls-111" d="M118.5,75.72c-.37,8.2.27,16.45.1,24.96l-.22,10.99c0,.29-1.32,0-1.58.1s-.48.51-.32.91c-.46-.04-1.65-.08-1.67.58l-.31,11.03c-1.52.11-3.04-.22-4.36.27-.53,3.75-.08,7.34-.14,10.85l-.14,7.67-.24,19.77c0,.42.44.36.68.51-.04.24-.49.52-.75.37-.3-.17-.3-.88-.68-1.18-1.26.56-2.12,1.61-3.84,1.05.16,1.61-.21,3.11.11,4.37.08.28,1.24-.02,1.51.08s.36.62.25.97c-.2-.33-1.48-.78-1.54-.19l-.4,4.43-9.17.23c-.42.01-.46.69-.57.82-.36.07-.31-.37-.64-.71H0s.07-10.03.07-10.03l94.35-.05c.74-1.68-.34-3.88.65-5.27,2.34-3.28-.79-5.52,3.05-5.03l.64-11.08.66-1.16c-.41.71.92-12.27,1.68-13.18.36-.43,1.39-.11,2.22-.28.38-.92.51-2.35.48-3.33.78-.38,1.64-.24,2.64-.43.62-3.56.38-6.93.13-10.66-.06-.91,1.39-.74,2.07-1.2l.25-18.95c0-.47-.1-.67-.27-.94-.19-.3-.24-.59-.6-.16.36-.67.16-1.47.46-2.17,2.16.8,3.22-7.26,3.53-7.69,1.24-1.74,2.89-3.73,1.18-5.73.32-.11.8-.14.9-.56,1.45.29,2.94.07,4.42.01Z"/>
          <path class="cls-27" d="M220.03,173.39c.19-3.33.32-6.72-.01-10.03l94.53.27-.1,10.04-94.43-.28Z"/>
        </g>
        <g>
          <path class="cls-101" d="M162.72,46.86c-2.8-.51-5.94.83-8.75.02-.11.03-.39,0-.39-.19l.1-46.69,9.57.09.05,46.22c0,.51-.28.53-.57.55Z"/>
          <path class="cls-87" d="M162.72,46.86c2.21.4,5,.84,6.91,2.08.51.33-.11,1.98.52,1.81.34-.09,1.27.64,1.63.57,1.75-.33,3.04.27,4.91.57,1.03.16,2.29-.5,3.08.37.53.59.84,1.41.79,2.27-1.7.84-3.58.37-5.46-.17-1.48-.43-3,.16-4.89-.2l-.77-2.51h-22.59c-1.17,0-.66,1.53-1.01,1.97-13.95.49-2.99,2.45-10.6,2.3-.05-.38-.44-.6-.43-1.01.12-.88.18-2.49,1.46-2.85,1.75-.5,4.33-.24,5.63-1.52.28-.28-.34-1.55.3-1.76.28-.09.5-.67,1.21-.68l7.29-.1c1.19-.02,2.47-.5,3.25-1.14,2.82.81,5.95-.53,8.75-.02Z"/>
        </g>
        <path class="cls-97" d="M108.01,91.87c.36-.43.4-.14.6.16.17.26.28.47.27.94l-.25,18.95c-.68.46-2.13.3-2.07,1.2.26,3.73.5,7.1-.13,10.66-1,.18-1.86.04-2.64.43-.36-9.99.74-19.96,1.32-30.22.07-1.26.13-1.95,1.22-2.42.57.15,1.09.64,1.68.3Z"/>
        <path class="cls-77" d="M209.39,105.57l1.05.44c2.36-.76,1.62,9.32,1.94,13.34l.38,4.81c1.07-.08,2.39.7,2.83,1.88.53,1.42-.06,3.27.57,4.94-.71.59-2.67,1.5-3.48.66-.65-2.16-.14-4.59-.41-6.97-1.16-.64-2.41-.21-3.76-.44-.27-5.72.37-11.26-.18-16.74-.08-.8.08-2.04,1.05-1.92Z"/>
        <path class="cls-3" d="M219.6,158.49c-.96.41-2.02.59-2.99.15-1.05-8.68-1-17.96-.06-26.65-.08-.4,3.08,1.12,3.08,1.12.02.04.3,22.42-.02,25.39Z"/>
        <path class="cls-39" d="M134.82,54.93c0,.4.38.63.43,1.01l-.51,2.4c-1.23.35-2.89-.55-3.83.42-.56.94.12,2.26-.22,3.21-1.1.64-2.74-.19-3.68.66-.77.7-.06,2.38-.41,3.35-1.07.57-2.42-.11-3.39.56-.49.34-.57,1.89-.31,2.42-.18.27-.05.56-.1.77-.17.68-2.85.52-4.06.65l-.24,5.36c-1.47.06-2.96.28-4.42-.01.24-1.53-.28-3.48.24-5.11,1.05-.79,2.96-.15,4.15-.45l.05-3.6c1.23-.52,3.66.49,3.81-.51l.47-3.31c.12-.87,2.31-.09,3.59-.3.47-1.19-.33-2.78.41-3.7.73-.66,2.17-.07,3.47-.12l.5-3.81,4.04.13Z"/>
        <path class="cls-48" d="M207.5,87.71c.59,1.49,1.42,2.31,1.4,4.36-.11,7.65-.22,5.33.46,12.48.03.34.06.67.03,1.02-.98-.11-1.14,1.12-1.05,1.92-.81.4-2.8.73-3.32-.32-1.01-2.04-.15-4.29-.31-6.2-.36-4.4-.03-8.58.11-12.94l2.68-.32Z"/>
        <path class="cls-63" d="M194.57,66.44c.76-.21,1.59.09,2.13.43.74.46.4,1.82.61,2.83,2.42.1,4.14,3.4,3.73,5.03-.07.27-.14.96-.43,1.26-1.32.45-2.38.31-3.68.56-.42-2-.08-3.89-.04-5.9l-3.54-.56c-.12-1.48.03-2.52.06-3.58.41.08.76.05,1.15-.05Z"/>
        <path class="cls-54" d="M113.18,76.27c1.7,2,.06,3.99-1.18,5.73-.31.43-1.37,8.49-3.53,7.69.26-.6-.25-1.43-.06-1.98.39-1.14.18-2.31.75-3.59.99-2.23.22-4.9.67-7.51,1.1-.68,2.36,0,3.35-.35Z"/>
        <path class="cls-8" d="M204.7,83.75l-3.7-.07c-.04-2.27-.99-7.63,1.23-7.48.93.51,1.78,1.47,1.34,2.72.56-.71,1.87,4.62,1.13,4.83Z"/>
        <path class="cls-35" d="M219.6,158.49c-.16,1.51.27,3.42.41,4.87-1.14,0-2.29.04-3.56.14-.84-1.71-.1-3.6.16-4.86.97.43,2.03.26,2.99-.15Z"/>
        <path class="cls-50" d="M193.48,65.1c.11.48-.05.93-.07,1.4-1.3-.26-2.68-.08-4.16-.48-.24-1.34.08-2.5.01-3.67.95-.02,2.24-.11,3.08.36,1.06.6,1,1.62,1.14,2.39Z"/>
        <path class="cls-10" d="M185.31,58.39c-.13,0-.25.13-.4.07-1.08-.43-2.56.36-3.83-.29-.85-.43-.94-2.94-.05-3.33,1.21-.43,3.23.03,3.91,1.5.36.76-.16,1.65.37,2.05Z"/>
        <path class="cls-50" d="M189.27,62.35c-1.31.03-2.74.08-4.16-.15-.41-1.36-.07-2.56-.2-3.74.15.06.27-.07.4-.07,1.09-.03,2.47.21,3.24.94.83.78.66,2.08.72,3.02Z"/>
        <path class="cls-10" d="M108.41,87.72c-.19.54.32,1.38.06,1.98-.3.69-.1,1.5-.46,2.17-.58.34-1.11-.15-1.68-.3.2-1.01.29-3.26.97-3.69.26-.16.72-.13,1.1-.16Z"/>
        <path class="cls-10" d="M194.57,66.44c-.39.11-.75.13-1.15.05.01-.47.18-.92.07-1.4.58.09,1.25.73,1.09,1.34Z"/>
        <path class="cls-10" d="M210.45,106.01l-1.05-.44c.03-.34,0-.68-.03-1.02.62.11,1.33.8,1.08,1.46Z"/>
        <path class="cls-96" d="M170.86,164.24c-.25,1.41.43,2.99-.36,4.29-.55.56-1.78.06-2.33.72-.64.78.1,1.88-.45,2.9-1.8-.04-3.16,1.02-4.67,2.47-1.12,1.08-.08,3.46-.8,4.99-1.56,1.65-1.28,3.59-1.08,5.84-5.74.03-11.51.37-17.23-.09-.26-2.5.38-4.77.85-7.06.95-4.61-.05-9.45.67-14.1.19.04.59-.13.7.02.16.23,0,.55.48.97.32-.55.14-1.37.75-1.11s1.75-.17,1.92.58c.23,1.05-.25,1.86.15,3.03,5.23-.18,10.36.39,15.7-.15,1.44-.15,2.76-2.13,3.66-2.9s1.35-.37,2.06-.38Z"/>
        <path class="cls-71" d="M171.31,178.13c-.3,2.06-.73,4.6-.57,6.99-1.45.59-2.6.15-3.72.32-.63-5.05.88-4.16,1.21-4.51.89-.97-.78-2.21.77-3.13-1.01.17-1.87-.82-2.82-.83-1.58,0-3.16,1.82-3.93,2.64.73-1.53-.31-3.91.8-4.99,1.51-1.46,2.87-2.51,4.67-2.47.55-1.02-.19-2.12.45-2.9.54-.66,1.78-.15,2.33-.72l.82,9.6Z"/>
        <path class="cls-5" d="M167.02,185.44c-1.94.3-3.92,0-5.86.01-.21-2.24-.48-4.18,1.08-5.84.77-.82,2.35-2.65,3.93-2.64.96,0,1.81.99,2.82.83-1.55.91.12,2.16-.77,3.13-.33.36-1.84-.54-1.21,4.51Z"/>
        <path class="cls-89" d="M201.12,168.37c1.06-.2,2.42.29,3.51.22.09,3.11-.88.23-.9,5.1l2.33-.91c1.01-.39,1.36-2.72,2.76-3.69.03,1.26.71,2.98-.69,4.04-.81.61-2.32.41-3.58.9.16,1.72-.95,2.68-2.03,4.24l-6.13,1.63c-.21.99.02,1.65-.02,2.67-2.72-.51-3.21,2.78-5.32,3.12l-5.64.92c-.6.43-.12,1.76-.01,2.93-1.86.36-4.26.7-6.1-.13-.89-.64.03-2.54-.13-3.44,1.76.13,3.6-.04,5.53-.28l-.06-7.26,7.63-.08.28-4.95c1.36-.2,3.48.61,4.23-.57.46-.89-.78-3.12.49-3.63,1.48-.6,2.86.03,3.85-.83Z"/>
        <path class="cls-76" d="M123.8,96.79c-.23.78.42,1.9-.07,2.94l-4.59.25c-.06,1.48.37,2.44.1,3.52-.73,2.97,0,6.03-.34,9.16-.8.15-1.8.07-2.41,0-.16-.4.05-.81.32-.91s1.58.19,1.58-.1l.22-10.99c.17-8.5-.48-16.76-.1-24.96l.24-5.36c1.21-.13,3.89.04,4.06-.65.05-.2-.08-.49.1-.77.61,1.26.05,4.08.05,5.71l-.03,11.63c0,1.78.75,3.47.07,5.26-1.36.1-2.38-.26-3.61.23,1.18.62,2.49.3,3.88.25.14,1.82.03,3.37.54,4.76Z"/>
        <path class="cls-31" d="M110.31,163.36c1.33.31,2.93-.32,4.2.2-.05,1.32.41,2.8.02,4.59,1.61.49,2.86.03,4.16.26-.01,1.38.22,2.81.01,4.69l5.12.23c.07,1.72-.31,3.09.1,4.72l7.68.12c-.2,2.55.29,4.87-.04,7.15-.12.82-.84,1.3-.18,2.52.28.53-.46,1.35-.31,1.79-1.22-.02-2.47.24-3.83-.1-.26-1.18-.01-2.25-.14-3.47-1.35-.16-2.42-.1-3.98.06l-.24,2.62c-1.09-.87-.15-1.55-.43-2.63.9-.55,1.18-3.3.19-3.51l-3.59-.76c-.78-.17.14-2.54-.68-3.14-1-.74-2.55-.01-3.84-.52-.73-2.53-2.18-4.69-4.73-5.04,0-1.42-.16-2.99-1.13-3.42-.47-.21-1.46-.21-1.77-.74.11-.35.02-.87-.25-.97s-1.43.2-1.51-.08c-.32-1.26.04-2.75-.11-4.37,1.71.57,2.58-.49,3.84-1.05.38.29.38,1.01.68,1.18.27.15.71-.13.75-.37Z"/>
        <path class="cls-73" d="M188.37,125.09c.42-.29.76.16.93.42.14.21.12.78.12,1.17l-.16,18.32c-1.14.27-2.32.11-3.47-.02-1.03-1.73-.1-7.74-.5-11.08l-.4-3.35c1.18-1.07.78-2.9.92-4.39.06-.67.52-1.15,1.47-.96.49.1.84.04,1.09-.12Z"/>
        <g>
          <path class="cls-52" d="M118.31,396.03l-.28,29.45c-7.62.58-15.35.09-23.02.2l.29-31.4.12-69.36-.06-45.09c-2.58-.7-5.13.5-7.2.24-4.85-.61-9.66-.1-14.97-.37l-.05-6.27c-.04-4.68-.32-9.48-.27-14.01l.22-21.92,3.99-.26.35-8.24c.81-.19,2.05.54,2.15-.32.56,1.66,2.4,2.36,4.4,1.72.96,3.04,1.02,6.02.79,8.84l-.35,4.33-6.41.22.02,16.52,1.96.69c-.04,2.01-.28,3.77-.05,5.83,1.59.25,3.19.24,4.93-.07l-.11-5.95c1.83-.58,3.74-.01,5.76-.42l.4-5.36,4.61-.11c1.62-.04,3.32.42,5.04-.32-.12-2.1-.01-4.12.07-6.29l.46-11.93c.03-.86,1.79-.42,2.82-.33,0-4.82-.04-9.44-.03-14.11l.02-8.68c1.72-.17,2.88-.15,4.56.02l.23,8.67,4.9.05.12,6.64c1.57.48,2.99-.29,4.38.43l.21,166.98Z"/>
          <path class="cls-42" d="M88.24,299.39l.16,81.24c-1.34,2.19-1.17,4.35-.52,6.57,3.81-.49.14,5.26,1.22,6.98-1.3-.08-2.69.31-4.26-.12l-.22-6.86-5.36-.02-.11-15.99-5.03-.21-.12-80.11c-1.83-.85-.99-2.59-1.26-5.49-.04-.47-.2-1.26.42-1.38-.03,1.71,4.44.84,5.73,1.46l.51,4.86c1.86.08,3.42-.08,5.3.21-.07,2.96,0,5.78.9,8.45,1.17.13,1.93.15,2.65.4Z"/>
          <path class="cls-6" d="M95.3,394.28c-2.07-.02-4.13.03-6.2-.1-1.08-1.72,2.59-7.47-1.22-6.98-.65-2.22-.82-4.38.52-6.57l-.16-81.24c0-3.88.85-7.8.14-12.04-.41-2.45.38-5.03-.22-7.28,2.07.26,4.62-.94,7.2-.24l.06,45.09-.12,69.36Z"/>
          <path class="cls-88" d="M81.42,197.93c.38.85,1.61.35,2.8.09-.31,2.81-.04,4.85-.01,6.98.04,2.49-.37,5.06-.17,7.93l-4.08.28c-.12,4.22-.24,8.14-.11,12.01.04,1.11-.15,2.43-.28,3.47-.1.86-1.35.14-2.15.32l-.35,8.24-3.99.26-.22,21.92c-.15.43-.13.79-.44.8l-1.07.02c-1.2.03-1.99-.1-2.89-.3.36-5.69.58-11.39.18-17.2-.3-4.25-.28-8.72.7-12.73.31-.14.98.28,1.28-.02,1.09-1.1.37-2.48.46-3.62.15-1.96-.61-3.9.65-5.41.45.03,1.34.46,1.78-.19.38-.56-.06-1.56.1-2.17.92-3.38,1.42,1.44,1.59-5.31,1.61-.29,3.04.07,4.4-.34l.26-14.68c0-.5,1.41-.46,1.56-.36Z"/>
          <path class="cls-2" d="M100.26,182.6c.19,1.25-.7,2.55-.34,3.77.74.03.82.74.98.9.14.14.36-.4.55-.48.28,2.21.12,4.49-.12,6.97l-5.38.29-.2,14.65c-1.56.17-2.8-.15-4.34.21,0,2.79-.07,5.29-.49,7.98-1.19-.07-2,.2-2.82.2-1.12,0-2.33-.34-3.55.08l-.28,7.95c-1.59.47-3.01.07-4.43.07-.13-3.86-.01-7.78.11-12.01l4.08-.28c-.2-2.87.21-5.44.17-7.93l3.59-.34.44-10.08c-.59-.29-1.12.12-1.04-.45.38-.07.88-.05,1.02-.55.75-.04,2.22.71,2.99.06.84-.86.09-2.55.67-3.52,1.39-.19,2.47.1,3.69-.28l.37-6.79c-.47-.19-.78-.04-1.07-.06-.13-.57,0-1.27.48-1.47-.51,1.56,5.2,1.04,4.91,1.09Z"/>
          <path class="cls-43" d="M73.14,273.42l.05,6.27c5.3.27,10.12-.25,14.97.37.6,2.25-.19,4.83.22,7.28.71,4.25-.15,8.17-.14,12.04-.72-.26-1.48-.27-2.65-.4-.89-2.67-.97-5.49-.9-8.45-1.89-.29-3.44-.13-5.3-.21l-.51-4.86c-1.29-.62-5.76.25-5.73-1.46-.56-1.19.42-3.01-.49-4.22-.79-.89-2.83-.44-3.71-.17-1.46.14-.56-4.97-.96-5.7,1.58-.85,3.43-.18,5.15-.49Z"/>
          <path class="cls-107" d="M233.9,205.15c.83.14,1.89.04,2.98.38-.57,8.07,1.83,7.64.5,15.53-1.35-.06-2.7-.35-4.02.01-.52-1.73-.6-3.78-.18-5.84.25-1.26-.67-1.74-.8-2.54-.36-2.26-.17-4.58,0-6.85.04-.52,1.12-.77,1.52-.7Z"/>
          <path class="cls-41" d="M73.14,273.42c-1.71.31-3.57-.36-5.15.49l-.51-.93c.43-.05.84-.04.95-.38s.16-.66.15-1.11l-.1-9.18c0-.63-.06-1.28-.53-1.39l.52-.99c.91.2,1.7.32,2.89.3l1.07-.02c.31,0,.29-.38.44-.8-.05,4.53.23,9.32.27,14.01Z"/>
          <path class="cls-30" d="M94.87,182.99c.28.02.6-.12,1.07.06l-.37,6.79c-1.22.38-2.3.09-3.69.28-.58.97.17,2.66-.67,3.52-.77.64-2.24-.1-2.99-.06l.37-6.34,3.39-.35c.23-1.35-.3-2.71.34-3.62.47-.68,1.92-.18,2.55-.28Z"/>
          <path class="cls-20" d="M87.2,194.13c-.07.57.45.15,1.04.45l-.44,10.08-3.59.34c-.03-2.14-.3-4.17.01-6.98-1.19.26-2.42.76-2.8-.09.58-.42,1.98.22,2.53-.27.68-1.04,0-2.39.42-3.41,1.01-.39,1.94.05,2.83-.11Z"/>
          <path class="cls-1" d="M239.12,225.56c.86.23,1.94-.16,2.98.22.4.14,1.19,7.99.57,8.27-1.24.83-2.79-.13-4.43.19.02-.91-.8-10.28.87-8.68Z"/>
          <path class="cls-65" d="M219.96,182.38c1.62.56,1.78,2.26,1.96,3.96.44.73,2.47.57,3.35.8,1.66.44,1.14,2.29,1.54,2.97-1.46-.06-3.15-.67-4.25.48-1.19-.92-1.38-2.3-1.35-3.95-1.29-.51-2.9.39-4.23-.36-.99-.55-.44-2.84-.43-3.83,1.01.37,2.38-.19,3.42-.08Z"/>
          <path class="cls-7" d="M231.48,197.85c1.27,1.1.55,3.53.61,4.85,0,.51.39,1.86-.22,2.12-1.24.52-2.68.15-4.18.24-.12-2.53-.1-4.72.14-7.14l3.66-.07Z"/>
          <path class="cls-26" d="M67.94,260.93c.47.11.52.76.53,1.39l.1,9.18c0,.45-.04.75-.15,1.11s-.51.33-.95.38c-.35.2-.91.17-1.25,0-.49-.25-.11-10.16.15-11.77.07-.47,1.41-.26,1.57-.28Z"/>
          <path class="cls-4" d="M73.15,284c-.61.12-.46.91-.42,1.38-1.08-.4-2.24.19-3.63-.12l-.15-5.65c.88-.27,2.92-.72,3.71.17.91,1.22-.07,3.03.49,4.22Z"/>
          <path class="cls-47" d="M237.38,221.06c-.15.92,1.49,3.95.91,3.35,0,1.35-4.15,1.21-4.64.77-1.19-1.08.05-2.96-.3-4.11,1.33-.37,2.67-.08,4.02-.01Z"/>
          <path class="cls-84" d="M226.81,190.11c.53.89.6,2.25.49,3.42-1.3.79-2.98.51-4.63.26l-.12-3.2c1.1-1.15,2.8-.54,4.25-.48Z"/>
          <path class="cls-10" d="M219.96,182.38c-1.04-.11-2.41.45-3.42.08.02-1.26-.13-2.6.1-3.85,1.12-.54,1.45.93,2.42,1.37,1.21.55.07,1.73.9,2.4Z"/>
          <path class="cls-10" d="M69.34,230.02c.31-1.25.85-2.75,1.74-3.64-.09,1.14.63,2.52-.46,3.62-.3.3-.98-.12-1.28.02Z"/>
          <path class="cls-10" d="M73.6,218.61c-.16.61.28,1.61-.1,2.17-.44.65-1.33.22-1.78.19.57-.68.59-2.23,1.88-2.36Z"/>
          <path class="cls-61" d="M162.23,278.36c-.2.45.3.39.76.7l.19,146.42-39.91.23.03-22.34c.12-.85-.12-1.77.2-2.8,2.24.07,4.19.13,6.3-.38.21-7.7-.25-15.12.35-22.52.3-3.66.29-7.02.31-11.14l.32-76.81c1.55-.48,3.07-.46,4.55-.07l.18,27.67,4.78.17.86,29.02,1.23,32.24,1.04,22.16c.11,2.39-.98,5.18-.1,7.9,3.23.24,6.67.13,9.95-.02.52-2.77.09-5.3.1-7.83l.24-87.58-.09-30.85c0-1.5.6-2.97.47-4.18l8.23-.03Z"/>
          <path class="cls-34" d="M216.64,178.61c-.23,1.24-.08,2.59-.1,3.85-1.31-.48-2.6-.11-4.2-.39l-.3-4.75c-5.12-1.92-1.88,1.56-6.8.84l-.48,4.07c-1.38.34-2.85-.1-4.14.55,0,1.11.52,2.57-.25,3.22-.98.82-2.55-.09-3.74.62-.2.68.28,2.57-.61,2.63l-6.77.47c-.2,1.27.12,2.32-.25,3.65l-8.31.69c-.35,1.12.15,2.55-.59,3.5-.62.8-2.21.1-3.19.62-.26,2.22.21,4.71-.49,6.86-.25.78-2.74.79-3.16.1-1.12-6.32,1.26-5.27,1.33-5.51.41-1.34.79-3.66.16-5.24-.39-.97-3.54-.9-4.19-.14-.69,1.34.25,3.44-.28,5.13h-22.93c-.36-1.78-.27-3.2-.11-5.04l22.84-.2c.17-1.37-.43-3.11.37-3.94l3.56-.31c-.43-2.32.88-3.59,1.83-5.06.49-.31.32.8.57.87.97.26,1.93.2,2.75.27.16.9-.76,2.8.13,3.44,1.84.83,4.24.49,6.1.13-.11-1.17-.59-2.5.01-2.93l5.64-.92c2.11-.34,2.6-3.64,5.32-3.12.04-1.02-.19-1.68.02-2.67l6.13-1.63c1.08-1.56,2.19-2.53,2.03-4.24,1.26-.5,2.77-.29,3.58-.9,1.4-1.06.71-2.77.69-4.04.78-.54,1.67-1.36,2.93-1.4.31-1.15-.13-2.59.41-3.5,1.33.34,2.23.1,3.63-.13.55,1.59.69,4.01-1.09,4.91-.74.38-2.07-.36-2.54.48s-.91,2.91-.25,3.67c.94.81,2.63.29,3.55.8.78,1.64.12,3.51,1.16,4.68Z"/>
          <path class="cls-115" d="M103.88,221.93c-.01,4.67.03,9.3.03,14.11-1.03-.09-2.79-.53-2.82.33l-.46,11.93c-.08,2.17-.19,4.19-.07,6.29-1.73.74-3.42.28-5.04.32l.8-28.87c1.3-.46,2.93.29,3.95-.61.77-.68.03-2.41.78-3.2s2.03-.17,2.84-.31Z"/>
          <path class="cls-24" d="M122.45,186.14c.27,1.08-.66,1.76.43,2.63,2.47,1.97,3.28.17,4.14,1.4.45.64-.38,2.55.36,2.92.09.05,2.91-.02,3.33-.02.47,0,.17.69.29.98-5.18-.38-10.36-.34-15.75-.41-.33-1.58-.06-2.91-.22-4.39l-6.38-.12c-.17-.92-.28-1.44-.29-2.69-2.24-.26-4.83-.49-6.91.35-.19.08-.41.61-.55.48-.16-.16-.24-.87-.98-.9-.36-1.22.53-2.52.34-3.77,4.78-.7,9.7-.63,14.82-.61l.34,3.62c2.46.37,4.79-.06,7.03.53Z"/>
          <path class="cls-19" d="M123.29,403.37l-.03,22.34c-1.61,0-3.77-.34-5.24-.23l.28-29.45c1.46-.64,3.08-.89,4.86-.2-.54,2.95.12,5.4.12,7.54Z"/>
          <path class="cls-58" d="M143.86,190.12c-.82,1.16-.56,2.74-.96,3.98-.63,1.95-.25,3.95-.56,6.16-1.26.14-2.38-.32-3.67-.02-.17,3.14.04,6-.79,8.87-.39.45-1.14.35-1.91.69.52,1.2.09,2.46.36,3.54-1.58,1.11-1.06-.41-4.85-.04-.13-1.2-.44-2.43-.1-3.93l3.12-.83c-.29.4,1-12.18.39-9.68.34-1.41.17-2.81.27-4.5.56-.8,2.54-.07,3.15-.64.94-.88.22-2.48.41-3.41.19-.22.79-.14.93-.26.96-.36,2.5.34,3.28-.74.12.41.52.75.93.8Z"/>
          <path class="cls-66" d="M88.11,217.11l.2,3.78c-.17-3.26,2.18,7.51.85,10.67-1.02,2.43-1.17,4.77-1.06,7.49-1.39.12-2.41-.19-3.33.18.23-2.81.17-5.8-.79-8.84-2,.65-3.84-.05-4.4-1.72.13-1.04.31-2.36.28-3.47,1.42,0,2.84.4,4.43-.07l.28-7.95c1.23-.42,2.43-.08,3.55-.08Z"/>
          <path class="cls-112" d="M153.37,400.99c0,2.52.42,5.06-.1,7.83-3.28.15-6.72.26-9.95.02-.88-2.72.21-5.51.1-7.9l9.95.06Z"/>
          <path class="cls-33" d="M131.08,189.65c2.52.03,5.41.87,7.67-.43.38.1.77.46.9.84-.14.11-.74.04-.93.26-.19.93.53,2.53-.41,3.41-.61.57-2.59-.16-3.15.64-.1,1.69.08,3.1-.27,4.5-1.11,0-2.38-.02-3.67-.19-.55-1.77.37-3.25-.22-4.63-.12-.29.18-.98-.29-.98-.42,0-3.24.06-3.33.02-.74-.37.09-2.27-.36-2.92-.86-1.23-1.67.57-4.14-1.4l.24-2.62c1.57-.16,2.63-.22,3.98-.06.13,1.22-.12,2.3.14,3.47,1.36.33,2.61.08,3.83.1Z"/>
          <g>
            <path class="cls-80" d="M162.97,221.33c-.18,1.53.02,3.03.01,4.56-.04,4.54-.19,9.08.02,13.89l16.08.08-.02,8.18-16.02.15-.17,29.93c-.43.09-.6.16-.65.22l-8.23.03c-1.02-9.88.01-20.01-.53-30.26l-15.31-.08.03-8.14,15.35-.25v-13.52c-.01-1.64.32-3.27-.31-4.78.11-1.21.66-2.99.27-4.79l9.36-.02c.02,1.75.27,3.3.1,4.78Z"/>
            <path class="cls-34" d="M162.98,225.89c.01-1.53-.19-3.03-.01-4.56l11.99.06c.19,1.68.12,2.96-.06,4.73-4.08-.05-8.02.23-11.92-.23Z"/>
          </g>
          <path class="cls-16" d="M153.24,221.36c.63,1.51.3,3.13.3,4.78l-11.31-.04c-.3-1.64-.25-3.06-.06-4.68l11.07-.06Z"/>
          <path class="cls-106" d="M142.86,186.29c-.08,1-.02,2.03.06,3.03-.79,1.09-2.32.39-3.28.74-.12-.38-.51-.74-.9-.84.38-1.16-.15-2.4.4-3.55.32,0,.45.07.68-.07.27-.17.42-.45.43-.72.66.05.13.55.26.75.19.29,1.17.08,1.01.82.38.78.56-.15.61-.39.04-.19.56.21.73.22Z"/>
          <g>
            <path class="cls-10" d="M216.54,182.46c-.02.98-.56,3.27.43,3.83,1.34.75,2.95-.15,4.23.36-.03,1.65.16,3.03,1.35,3.95l.12,3.2c1.65.25,3.32.53,4.63-.26.32.28,3.93,2.63,3.88,2.57.26.38-.13,1.37.3,1.74l-3.66.07c-.24,2.41-.26,4.61-.14,7.14,1.5-.1,2.94.27,4.18-.24.62-.26.23-1.61.22-2.12.44.35,1.06.49,1.42.73.58.4.13,1.2.39,1.72-.4-.07-1.48.18-1.52.7-.17,2.27-.36,4.59,0,6.85.12.79,1.05,1.28.8,2.54-.41,2.05-.33,4.11.18,5.84.35,1.15-.9,3.03.3,4.11.48.44,4.64.58,4.64-.77.33.34.69.67.83,1.14-1.67-1.6-.86,7.77-.87,8.68,1.64-.32,3.19.64,4.43-.19.2.03.17.21.28.25.5.19.27.22.18.51-.85,2.7-.2,5.62-.06,8.74.44,10.04.52,19.62.38,29.79-5.72-.17-11.05.55-16.25-.34l.11-12.33-5.95-.18-.23-16.9c-.06-4.17-1.12,2.46-1.41-6.07-.64-.72-2.61-.49-3.65-.11l.11,85.1-.1,100.41c0,1.04-.17,1.71-.68,2.06-.44.31-1.02.12-1.67.09l-4.77-.19-.1-55.8c-.99,1.52-.17,3.11-.79,4.51l-3.75.27-.23,51.83-40.93-.22-.19-146.42c-.46-.31-.96-.25-.76-.7.05-.06.23-.13.65-.22l.17-29.93,16.02-.15.02-8.18-16.08-.08c-.21-4.81-.06-9.35-.02-13.89,3.9.46,7.84.18,11.92.23.18-1.77.25-3.05.06-4.73l-11.99-.06c.17-1.48-.09-3.03-.1-4.78l-9.36.02c.38,1.8-.17,3.58-.27,4.79l-11.07.06c-.19,1.62-.24,3.04.06,4.68l11.31.04v13.52s-15.34.25-15.34.25l-.03,8.14,15.31.08c.54,10.24-.5,20.37.53,30.26.12,1.2-.48,2.68-.47,4.18l.09,30.85-.24,87.58-9.95-.06-1.04-22.16-1.23-32.24-.86-29.02-4.78-.17-.18-27.67c-1.49-.39-3.01-.41-4.55.07l-.32,76.81c-.02,4.12-.01,7.48-.31,11.14-.6,7.39-.14,14.82-.35,22.52-2.1.51-4.06.45-6.3.38-.32,1.03-.09,1.94-.2,2.8,0-2.14-.66-4.59-.12-7.54-1.79-.69-3.4-.44-4.86.2l-.21-166.98c-1.39-.72-2.81.06-4.38-.43l-.12-6.64-4.9-.05-.23-8.67c-1.68-.17-2.85-.19-4.56-.02l-.02,8.68c-.81.14-2.09-.47-2.84.31s0,2.52-.78,3.2c-1.02.9-2.65.15-3.95.61l-.8,28.87-4.61.11-.4,5.36c-2.01.4-3.92-.17-5.76.42l.11,5.95c-1.74.32-3.34.32-4.93.07-.23-2.06,0-3.82.05-5.83l-1.96-.69-.02-16.52,6.41-.22.35-4.33c.92-.38,1.94-.07,3.33-.18-.1-2.71.04-5.06,1.06-7.49,1.33-3.16-1.02-13.93-.85-10.67l-.2-3.78c.81,0,1.63-.28,2.82-.2.42-2.69.5-5.19.49-7.98,1.54-.36,2.77-.04,4.34-.21l.2-14.65,5.38-.29c.24-2.48.4-4.76.12-6.97,2.08-.84,4.68-.61,6.91-.35,0,1.25.12,1.77.29,2.69l6.38.12c.16,1.48-.12,2.81.22,4.39,5.4.06,10.57.02,15.75.41.59,1.38-.33,2.86.22,4.63,1.29.17,2.56.19,3.67.19.61-2.5-.68,10.07-.39,9.68l-3.12.83c-.34,1.49-.03,2.73.1,3.93s-.32,2.3,0,3.92c1.51-.18,3.38.57,4.77-.2,1.02-.57.31-2.75.07-3.69-.27-1.08.15-2.34-.36-3.54.77-.34,1.52-.24,1.91-.69.83-2.87.63-5.73.79-8.87,1.28-.3,2.41.16,3.67.02.32-2.2-.07-4.2.56-6.16,1.05-.02,2.89.48,3.87-.22.72-.51.77-2.81.26-3.53-.63-.87-2.36-.13-3.17-.23-.42-.05-.81-.39-.93-.8-.08-1-.14-2.03-.06-3.03.06-.62.82-.49,1.07-.93,5.72.46,11.5.12,17.23.09,1.94,0,3.91.29,5.86-.01,1.12-.17,2.27.28,3.72-.32-.16-2.39.27-4.93.57-6.99,1.45-.29,2.93,0,4.39.03-.03,1.3-.15,2.62.13,3.9.19.9-.04,1.87.01,2.78-.95,1.47-2.26,2.73-1.83,5.06l-3.56.31c-.81.83-.2,2.56-.37,3.94l-22.84.2c-.16,1.84-.25,3.26.11,5.05h22.93c.53-1.7-.42-3.8.28-5.14.65-.75,3.8-.83,4.19.14.63,1.58.26,3.9-.16,5.24-.07.24-2.45-.82-1.33,5.51.41.69,2.9.68,3.16-.1.7-2.15.23-4.64.49-6.86.98-.52,2.57.18,3.19-.62.74-.95.24-2.38.59-3.5l8.31-.69c.37-1.33.05-2.39.25-3.65l6.77-.47c.88-.06.41-1.95.61-2.63,1.19-.71,2.76.2,3.74-.62.77-.65.25-2.11.25-3.22,1.29-.65,2.76-.21,4.14-.55l.48-4.07c4.91.71,1.68-2.76,6.8-.84l.3,4.75c1.6.28,2.89-.09,4.2.39Z"/>
            <g>
              <path class="cls-45" d="M209.73,293.34c0,3.31-.14,5.97-.43,8.98-.78-.35-.3-1.07-.62-1.75l-4.36-.24v-86.51c.63-.89,3.08-.86,3.6.02l.97,18.14c.39,7.34.86,14.3.85,21.73v39.62Z"/>
              <path class="cls-90" d="M232.32,260.22c-1.72.3-3.23.34-4.76-.05.13-1.96-.18-3.31.14-5.01,1.53-.31,3.07-.32,4.53,0,.23,1.67.06,3.02.09,5.05Z"/>
              <path class="cls-102" d="M136.33,213.34c.24.93.95,3.12-.07,3.69-1.39.77-3.26.02-4.77.2-.33-1.62.12-2.76,0-3.92,3.79-.38,3.26,1.14,4.85.04Z"/>
              <path class="cls-21" d="M142.89,194.1c.4-1.24.14-2.82.96-3.98.81.11,2.54-.63,3.17.23.52.72.46,3.01-.26,3.53-.99.7-2.82.21-3.87.22Z"/>
              <path class="cls-53" d="M179.61,212.43c-.4.62-2.55.49-2.99-.09-.7-.91-.1-2.55.25-3.58,1.02-.24,1.66.08,2.89.08.11,1.05.49,2.59-.14,3.6Z"/>
            </g>
          </g>
          <g>
            <path class="cls-57" d="M243.51,279.5l3.89.13c1.24,1.48.15,3.62.31,5.65l-4.55.34c-.03,1.62.22,2.99-.14,4.54-1.37.17-2.61-.13-4.05.36-.18.95.42,1.89-.18,2.57-1.18.25-2.5.32-3.85.32-.73,1.4.46,3.26-1,4.16l-5.96.12.18,34.92c0,1.04-.01,2.3-.01,3.34l-.03,19.32-.16,33.99c0,.38,4.05.96,3.91-.21-.04-.36-.6-.41-.1-.65.28-.13.36-.39.59-.11,0,.34.18.74.06,1.14-.67,2.35-.05,4.84-.44,7.65-1.39.4-2.67-.03-4.24.24l-.22,22.83c-.19.23-.26.37-.26.45-1.95-.13-3.86.07-6.17-.21l-.23-97.44.03-43.18,22.63-.25Z"/>
            <path class="cls-46" d="M220.86,322.92l.23,97.44c2.31.28,4.22.08,6.17.21.1,0,.21.04.32.03-.27,1.54-.02,3.18.11,4.73-1.08.17-2.23.56-3.37.55l-20.19-.19.23-51.83,3.75-.27c.62-1.39-.2-2.99.79-4.51l.1,55.8,4.77.19c.66.03,1.23.22,1.67-.09.51-.36.68-1.02.68-2.06l.1-100.41c1.59-.34,3.07.47,4.66.4Z"/>
            <path class="cls-68" d="M248.48,273.39c-1.36.01-2.83-.2-4.47.04l-.51,6.07-22.63.25-.03,43.18c-1.59.07-3.07-.75-4.66-.4l-.11-85.1c1.04-.38,3.01-.62,3.65.11.29,8.53,1.35,1.9,1.41,6.07l.23,16.9c.06,4.17-.41,8.41.06,12.71,1.98.44,4.15.15,5.79-.2,5.2.9,10.53.18,16.25.34.14-10.17.06-19.75-.38-29.79-.14-3.12-.79-6.04.06-8.74.64-.48,1.23.48,1.71.43,2.59-.27,1.64,5,2.76,9.88.49,2.14-.62,4.7.2,6.65,1.19,2.82.02,5.77.33,8.53.23,2.05.02,3.97.12,6.05.17,3.43.52-.65.22,7.04Z"/>
            <path class="cls-37" d="M238.79,293.08c.42,5.32-.2,7.49.26,13.98.31,4.43-.7,9.26-.1,13.03.27,1.69-.05,26.62-.05,30.29v14.4c0,2.58-1,4.65-1.16,7.09l-.39,5.67c-.2,2.84.32,7.8-1.17,10.63-.22.41-1.66.02-1.7.73.42-3.41.46-6.9.46-10.63l-.02-19.49c-.71-.21-1.11-.76-1.52-.68-1.09.22-.21-1.79-.86-2.9.96-.88.6-2.42.76-3.85.58-5.24.53-10.22.85-15.5-2.29-.25-4.13-.19-6,.07,0-1.03.02-2.3.01-3.34,1.98.04,3.93.14,6.38-.13l.22-34.33c0-.27-1.18-.19-.82-.57,1.47-.9.27-2.76,1-4.16,1.35,0,2.67-.07,3.85-.32Z"/>
            <path class="cls-91" d="M234.47,388.9c-.07,1.1-1.25.85-2.06.5.12-.4-.07-.8-.06-1.14l.17-26.73c0-1.34.98-2.27.87-3.42.41-.08.81.47,1.52.68l.02,19.49c0,3.73-.04,7.21-.46,10.63Z"/>
            <path class="cls-55" d="M248.48,273.39c-.07,1.65.33,4.85-1.08,6.24l-3.89-.13.51-6.07c1.64-.24,3.11-.02,4.47-.04Z"/>
            <path class="cls-9" d="M231.61,425.01c-1.05.76-2.55.11-3.94.33-.13-1.56-.38-3.19-.11-4.73,1.35-.18,2.75-.22,4.24.26-.17,1.5.1,2.85-.2,4.14Z"/>
            <path class="cls-114" d="M227.21,273c-1.64.35-3.81.63-5.79.2-.46-4.29,0-8.54-.06-12.71l5.95.18-.11,12.33Z"/>
            <path class="cls-23" d="M233.94,297.56c-.36.38.82.3.82.57l-.22,34.33c-2.46.28-4.4.18-6.38.13l-.18-34.92,5.96-.12Z"/>
            <path class="cls-67" d="M232.54,355.21c.65,1.1-.23,3.11.86,2.9.11,1.16-.86,2.08-.87,3.42l-.17,26.73c-.22-.27-.31-.02-.59.11-.5.24.06.29.1.65.14,1.18-3.91.59-3.91.21l.16-33.99c1.45.35,2.96.17,4.42-.04Z"/>
            <path class="cls-81" d="M232.54,355.21c-1.46.21-2.97.39-4.42.04l.03-19.32c1.87-.26,3.72-.32,6-.07-.32,5.29-.27,10.26-.85,15.5-.16,1.43.21,2.97-.76,3.85Z"/>
          </g>
          <g>
            <path class="cls-88" d="M106.91,169.02c.31.52,1.31.53,1.77.74.97.43,1.13,2,1.13,3.42,2.55.35,4,2.51,4.73,5.04,1.28.51,2.83-.22,3.84.52.81.6-.11,2.97.68,3.14l3.59.76c.99.21.71,2.97-.19,3.51-2.25-.59-4.57-.15-7.03-.53l-.34-3.62c-5.13-.02-10.04-.09-14.82.61.29-.04-5.42.47-4.91-1.09l-.12-7.21c.11-.13.15-.81.57-.82l9.17-.23.4-4.43c.05-.58,1.34-.14,1.54.19Z"/>
            <path class="cls-79" d="M108.42,181.13c-1.34.87-2.93.15-4.72.61-.31-1.09-.32-1.95-.14-3.24,1.48-.16,3.51-.44,4.92,0,.4.39.63,2.19-.06,2.63Z"/>
          </g>
          <path class="cls-110" d="M139.15,185.68c-.55,1.14-.03,2.38-.4,3.55-2.26,1.29-5.15.46-7.67.43-.14-.44.6-1.26.31-1.79-.66-1.23.06-1.71.18-2.52.52.53,6.02.31,7.58.34Z"/>
        </g>
        <path class="cls-49" d="M129.86,127.09c.11,1.29.54,2.36,1.2,3.46.12.2.03.29,0,.48-.63,3.31-1.38,7.24-.06,10.49-.61,1.32-.98,2.63-.97,3.96-1.3-.74-2.73-.06-4.52-.48l.23-18.42,4.12.51Z"/>
        <path class="cls-92" d="M184.89,130.56l.4,3.35c-.31.14-.92.02-.89-.27.02-.26.45-.74-.23-1.24-.58.69-.62,1.82-.99,2.56-.77,1.53-1.61.85-2.24.84-.03-2.46.16-4.95.31-7.52.03-.55.88-.65,1.41-.56,1.07.17-.11,1.3.76,2.59.24.36,1.12.55,1.47.26Z"/>
        <g>
          <path class="cls-98" d="M181.01,119.29l-14.92.41.06,3.69c.21.8-2.17.29-1.59,1.43.68,1.36,2.14-.48,3.55.91.25.81-.23,1.85.46,2.51-.14,2.26-.52,4.7.09,7.21.3,1.23,2.14.36,2.63-.09,2.86,1.25,6.52.38,9.64.45.64.02,1.47.69,2.24-.84.37-.74.41-1.87.99-2.56.68.5.25.98.23,1.24-.03.29.58.41.89.27.4,3.34-.52,9.34.5,11.08-.7,1.45-.27,3.31-.37,4.87l-.39,5.74-4.29.16c-.33,1.58.1,2.97-.38,4.42l-5.12.15-.18,3.81-4.21.11c-.7.02-1.18-.37-2.06.38s-2.22,2.76-3.66,2.9c-5.33.54-10.47-.03-15.7.15-.4-1.16.08-1.98-.15-3.03-.17-.76-1.28-.31-1.92-.58s-.43.56-.75,1.11c-.47-.42-.32-.74-.48-.97-.1-.15-.5.03-.7-.02-1.15-.26-2.87.42-3.94-.35-.68-.82-.03-2.41.06-3.5-1.49-.06-2.65-.31-3.72-.21.52-1.32.4-2.73.2-4.49-1.28-.09-2.15.08-3.11-.05-.28-3.14-.1-6.27.28-9.79-.31,2.91-.68-4.23-1.3-4.24l-2.91-.05c-1.31-3.25-.56-7.18.06-10.49-.08.91,1.09,4.23,2.22,4.59.62.2,1.34.7,1.94-.28,2.28,1.34,6.99.4,9.36.52.55.03,1.88.81,2.21-.11.88-2.45.06-5.11.54-7.46.44-.09.27-.26.19-.54,1.13.29,2.59.73,3.99.16,1.26-.52,1.52-2.89.61-3.62-.62-.5-1.99.09-1.97-.88l.05-3.85-18.31-.24c.09-.71,1.21-.58,1.42-1.19.16-.45,1.6-.08,1.59-.9,1.61.42,3.23-.91,4.98-1.38.57-.65.23-2.02.94-2.48.91-.59,2.19.12,3.07-.81.36-1.2.46-3.92,1.58-4.39,1.46-.61,3.13-.35,3.54-2.39.16-.8.63-1.63,1.68-1.61,4.43.09,8.64-.14,12.99.22l.74,3.2c1.71.62,3.48.36,5.31.59.7,1.2-.18,2.97.78,3.91s2.72.77,3.82,1.43c2.86,5.15,6.17,3.62,6.7,5.74Z"/>
          <g>
            <path class="cls-32" d="M165.16,155.06c-4.78.4-9.67.14-14.18-.24-.53-.36-.6-1.92-.11-2.43h14.38c.43.56.44,2.4-.09,2.67Z"/>
            <path class="cls-100" d="M156.56,140.1c-.08,1.06-.32,2.06-.01,3.35l2.37.42c.89.16,2.03-.38,3.02.03.69.28.49,1.95.06,2.34-.39.36-1.25.43-1.74.82-3.94.56.02-1.25-7.15-1.13-.4-1.43-.21-4.4.21-5.87,1.2-.52,2.38-.16,3.24.04Z"/>
            <path class="cls-82" d="M161.56,159.88c-2.35.84-4.78.12-7.13.27-.22-1.1-.24-1.88.04-2.85,2.23-.05,4.47-.04,6.94.06.54.02.72,2.31.14,2.52Z"/>
            <path class="cls-25" d="M160.26,147.06c-.3.24-.17.91-.48,1.01-.52.18-5.36.45-6.51-.01-.84-.33-.01-1.61-.15-2.13,7.18-.12,3.22,1.69,7.15,1.13Z"/>
            <path class="cls-93" d="M158.92,143.87l-2.37-.42c-.31-1.3-.07-2.3.01-3.35.54.13,1.44-1.21,2.19-.44,1.46,1.51-.21,2.9.17,4.22Z"/>
          </g>
        </g>
        <g>
          <path class="cls-99" d="M144.78,178.3c-.47,2.29-1.11,4.56-.85,7.06-.25.43-1.01.31-1.07.93-.16,0-.69-.41-.73-.22-.05.24-.23,1.17-.61.39.17-.74-.81-.53-1.01-.82-.13-.2.4-.7-.26-.75.1-2.13.36-4.26.34-6.46,1.56-.35,2.86-.35,4.18-.13Z"/>
          <path class="cls-44" d="M157.53,88.19c-.97-1.95-16.05-.44-19.22-.37-.43,1.56-.24,2.89-.22,4.5-1,.45-2.23-.2-2.84.53-.49.58-.11,1.79.13,2.65.21.74,1.83.48,2.25-.22.46-.77.16-2.41.85-2.78,1.45-.51,2.63-.03,3.89.3-.09,1.21-.16,2.2-.18,3.2-.03,1.39-1.42,2.42-.7,4.09.62,1.43-1.28,3.06-.51,4.47-.06.98-1.49.66-2.15,1.11.54,3.08-3.87,3.56-4.16,5.29l-.41,2.41c-.21,1.24-4.69,1.73-5.74,2.18-.96.82-.58,2.87-.51,4.02,1.51.24,1.86-1.23,2.96-1.32-.06.38.49,1.08.92,1.09l18.31.24-.05,3.85c-1.29.6-2.77.08-4.12.04l-15.04-.36c-.82-.02-.42-2.02-.58-2.69-.2-.83-1.12-.58-1.6-.44-1.82.52.06,4.49-1.57,5.02-.6.2-1.43-.07-1.68.43-.15.3.17.71.17,1.15l-.23,18.42c1.79.42,3.22-.26,4.52.48l.07,10.09c-2.61-.93.93-6.5-1.23-9.9-1.74.59-4.17.36-4.32-1.03-.5-4.65.6-13.77.04-15.43-.4-1.2.68-5.98,2.02-5.07.29-1.05.08-2.11.23-3.18-3.26,2.25-2.91.31-4.23,3.76-.56,1.46-1.68,2.49-1.93,4.1-.07.43-1.05.2-1.27.42-.32.32-.63,1.06-.62,1.78l.14,8.67-.23,28.72c-1.31-.23-2.56.22-4.16-.26.39-1.79-.07-3.27-.02-4.59.24-6.86.49-13.89-.24-20.62-.2-1.83,1.16-4.41.13-6.64-.66-1.42-3.14-1.25-4.4-.9.06-3.51-.39-7.1.14-10.85,1.33-.49,2.84-.16,4.36-.27l.31-11.03c.02-.66,1.22-.62,1.67-.58.61.06,1.61.14,2.41,0,.34-3.13-.38-6.19.34-9.16.27-1.09-.16-2.04-.1-3.52l4.59-.25c.5-1.04-.16-2.16.07-2.94,1.32-.89.08-4.31,1.2-4.39l5.46-.38c.43-1.37.05-2.64.25-4.05l3.75-.17.32-3.95c1.35-.2,2.41.06,3.6-.32l.36-3.48,1.87-.05c-.96.54-2.01,2.9-.83,3.66,1.66,1.06,4.06.19,5.86.12.38-6.02,1.13-1.04,1.75-6.64l10.47.16c-.31,3.92-.27,7.43-.32,10.9Z"/>
          <path class="cls-59" d="M194.94,102.62c.89,3.12,1.11,6.29,1.11,9.85l4.24.23.06,11.28c1.38.36,2.45-.02,3.51.43.64,2.81-1.03,5.64,1.61,6.26l.11,7.07c-.26-1.4-.64-2.99-.7-4.64-1.24-5.44-.61.6-2.04-7.37-.14-.77-.26-1.05-.89-1-2.77.2.28,4.3-1.87,6.33-1.2,1.13.42,2.9,1.57,3.57-.35.38-.51.52-.55.65-1.08-.11-1.92-.13-2.44-.69-.8-.86-1.1-2.04-.89-3.03.08-.83.03-1.35-.64-.47-.93-.69-1.26-2.02-1.48-3.5-.3-2.03-3.56-.64-3.76-2.74-.14-1.52.64-3.09.56-4.72-.86-.68-2.36.05-3.38-.43-.77-1.2.05-3.02-.42-4.42l-4.43-.53c-.1-1.59.55-2.7.64-3.93,1.23.12,2.54.15,4.01.14.4-2.91,0-5.56.74-8.5,2.07.29,3.75.77,5.34.16Z"/>
          <path class="cls-72" d="M189.22,92.07c-.2.21-.57.41-.87.39-2.15-.21-4.47-.72-6.72-.2-.64.15-.97-.25-1.58-.21-1.18-.78,5.7-.41,4.53-.89,0-.67.16-1.95-.23-2.49-.91-1.26-8.16-.68-9.11-.47-.86.19-2.7-.79-3.42.19-.47.64-.55,2.58-.09,3.3.53.82,1.94.17,2.5.33.06.19.19.48.48.44-.19,1.06-.56,2.16.19,3.38.71-.16,1.69.23,2.3,0l-1.49,1.44c-.38.37.19,1.13.76,1.93-.61.34-1.02.01-1.72.09-.04.4.43.51.55.65.13.15-.31.49-.42.61-.79-1.11-2.57-.39-3.97-.4-.77-1.5-.09-3.04-.49-4.83-2.54.69-4.92.9-7.55.5.24-3.95-.23-7.8.49-11.67,4.76-.56,9.4.33,13.67-.77.52-.14,1.3-.71,1.84-.66s.78-1.57.2-1.65c-1.84-.25-3.64.05-5.17-1.31-.59-.53.47-1.99.18-2.66-.9-1-2.41-.26-3.62-.48l.02-5.2c.11-.12.37-.1.44-.03v4.37s4.07.17,4.07.17c.28,1.42.02,2.66.1,4.16l5.25.05.16,3.79,4.37.29c.13,1.44-.15,2.54.14,3.86l4.22.09c.21,1.44.13,2.7-.01,3.88Z"/>
          <path class="cls-69" d="M194.94,102.62c-1.59.61-3.27.13-5.34-.16-.74,2.94-.34,5.59-.74,8.5-1.46,0-2.78-.03-4.01-.14s-2.35-.2-3.9-.24c-.37-1.16-.49-2.8-.33-4.08.07-.58.42-.97-.1-2.1-.69-1.48.26-3.55,0-5.06l4.05.71c.82.14-.08,1.96.38,2.42,1.07,1.05,2.87.7,4.1.44v-6.22c-.01-1.47.26-3.01-.69-4.23.3.03.66-.17.87-.39,1.21.95,3.02.23,4.71.42.66,3.53.12,7.04,1,10.13Z"/>
          <path class="cls-12" d="M205.61,145.49l.16,21.59c0,.57-.12,1.15-.49,1.35-.18.1-.36.2-.64.15-1.09.07-2.45-.42-3.51-.22-.29-8.43-.27-16.92.05-25.36,1.22-.35,3.16-.47,3.92.9.2.36-.19.93-.05,1.16.16.25.17.66.57.42Z"/>
          <path class="cls-74" d="M205.58,137.75c.46,2.5,0,5.22.02,7.75-.4.24-.41-.17-.57-.42-.14-.22.25-.79.05-1.16-.76-1.38-2.69-1.25-3.92-.9.1-2.54-.5-5.18-.06-7.73.04-.13.2-.26.55-.65-1.15-.67-2.78-2.44-1.57-3.57,2.16-2.03-.9-6.14,1.87-6.33.63-.04.75.23.89,1,1.43,7.97.8,1.94,2.04,7.37.06,1.65.44,3.24.7,4.64Z"/>
          <path class="cls-86" d="M114.28,142.94c.73,6.73.48,13.76.24,20.62-1.27-.53-2.88.11-4.2-.2-.25-.15-.69-.09-.68-.51l.24-19.77,4.41-.13Z"/>
          <path class="cls-28" d="M114.28,142.94l-4.41.13.14-7.67c1.26-.35,3.74-.52,4.4.9,1.03,2.23-.33,4.81-.13,6.64Z"/>
          <path class="cls-78" d="M181.01,119.29c-.52-2.12-3.83-.59-6.7-5.74-1.1-.66-2.86-.48-3.82-1.43s-.08-2.71-.78-3.91c-1.83-.23-3.6.03-5.31-.59l-.74-3.2c-4.35-.37-8.56-.14-12.99-.22-1.04-.02-1.52.81-1.68,1.61-.41,2.05-2.08,1.78-3.54,2.39-1.12.46-1.22,3.18-1.58,4.39-.88.93-2.16.22-3.07.81-.71.46-.36,1.83-.94,2.48-1.74.47-3.36,1.8-4.98,1.38-.12-1.01-.06-2.07.18-3.28l3.17-.28.43-3.91c1.32-.39,3.36.28,4.37-.83.87-.96.24-2.88.74-4.17l3.97-.48c.66-1.19.24-2.64.3-4.36l9.84-.2c.15-1.11-.25-2.23.59-3.03.92.96.32,2.25,1.14,2.94l10.53.34.23,4.59,3.89.23.06,4.42c.76.22,1.46-.1,2.22.24.22,1.26-.41,2.87.31,3.92.54.78,2.22.11,2.99.36,1.58.52.81,2.62,1.58,3.41s2.74.72,2.96,2.19c-1.27.47-2.35-.06-3.38-.04Z"/>
          <path class="cls-51" d="M157.53,88.19l-.12,7.43c-3.23.65-6.54.45-9.67.48-1.83.02-3.71.02-5.55-.1.02-1,.09-1.99.18-3.2-1.26-.33-2.44-.82-3.89-.3-.69.37-.39,2.02-.85,2.78-.41.7-2.04.96-2.25.22-.24-.86-.62-2.06-.13-2.65.61-.73,1.85-.08,2.84-.53-.02-1.61-.22-2.94.22-4.5,3.17-.07,18.25-1.58,19.22.37Z"/>
          <path class="cls-104" d="M180.52,99.33c.26,1.52-.68,3.58,0,5.06.52,1.13.17,1.52.1,2.1l-2.15-1.68c-.34-.73-2.38.39-3.14-.36-.99-.98.12-2.81-.45-3.88.11-.13.55-.46.42-.61-.12-.14-.59-.26-.55-.65.71-.08,1.12.25,1.72-.09-.57-.8-1.14-1.57-.76-1.93l1.49-1.44c.99-.36,2.12-.06,3.36-.03-.2,1.44-.23,2.45-.05,3.52Z"/>
          <path class="cls-109" d="M147.74,96.1c-.53.87.45,2.71-.33,3.48-.94.93-2.84-.05-3.45,1.07-.41.77.04,2.16-1.02,2.49-.47.15-1.5-.05-1.7.4-.13.3-.24.63-.27,1.02-.76-1.4,1.13-3.04.51-4.47-.72-1.67.67-2.7.7-4.09,1.84.12,3.72.12,5.55.1Z"/>
          <path class="cls-13" d="M189.27,145.01c-.01,1.38.46,3.21-.19,4.75-.4.93-2.89.54-3.65.09.11-1.57-.33-3.42.37-4.87,1.15.14,2.33.29,3.47.02Z"/>
          <g>
            <path class="cls-40" d="M170.92,71.41c-.07-.07-.33-.09-.44.03l-.02,5.2c1.22.23,2.73-.52,3.62.48.29.67-.77,2.13-.18,2.66,1.52,1.36,3.33,1.06,5.17,1.31.58.08.32,1.69-.2,1.65s-1.31.53-1.84.66c-4.27,1.1-8.91.21-13.67.77-.72,3.87-.25,7.72-.49,11.67,2.64.39,5.01.18,7.55-.5.39,1.79-.28,3.33.49,4.83,1.4.01,3.18-.71,3.97.4.57,1.08-.54,2.91.45,3.88.76.75,2.79-.37,3.14.36l2.15,1.68c-.16,1.29-.04,2.92.33,4.08,1.55.04,2.69.13,3.9.24-.1,1.23-.75,2.34-.64,3.93l4.43.53c.47,1.4-.35,3.22.42,4.42,1.02.49,2.52-.24,3.38.43.07,1.63-.71,3.2-.56,4.72.2,2.09,3.46.71,3.76,2.74.22,1.49.56,2.82,1.48,3.5.67-.88.73-.35.64.47-.2.99.1,2.17.89,3.03.52.56,1.37.59,2.44.69-.43,2.55.16,5.19.06,7.73-.32,8.44-.34,16.93-.05,25.36-.99.87-2.37.24-3.85.83-1.27.51-.02,2.75-.49,3.63-.75,1.18-2.88.37-4.23.57l-.28,4.95-7.63.08.06,7.26c-1.93.23-3.77.41-5.53.28-.81-.06-1.78,0-2.75-.27-.26-.07-.09-1.18-.57-.87-.05-.91.18-1.88-.01-2.78l4.03-.22.03-3.53c-1.51-.22-2.85-.12-4.19-.15-1.46-.04-2.94-.32-4.39-.03l-.82-9.6c.79-1.3.12-2.88.36-4.29l4.21-.11.18-3.81,5.12-.15c.49-1.45.05-2.84.38-4.42l4.29-.16.39-5.74c.75.45,3.25.83,3.65-.09.66-1.54.18-3.37.19-4.75l.16-18.32c0-.39.01-.96-.12-1.17-.17-.26-.51-.71-.93-.42.07-1.52.43-3.52-.24-5.01-.67-.37-2.4-.38-2.87.02-.54.84-.13,2.04-.55,3.19l-18.56.1-.06-3.69,14.92-.41c1.03-.03,2.11.51,3.38.04-.22-1.47-2.21-1.41-2.96-2.19s0-2.89-1.58-3.41c-.77-.25-2.46.42-2.99-.36-.72-1.05-.09-2.66-.31-3.92-.77-.34-1.47-.02-2.22-.24l-.06-4.42-3.89-.23-.23-4.59-10.53-.34c-.82-.69-.22-1.98-1.14-2.94-.84.81-.44,1.92-.59,3.03l-9.84.2c-.06,1.73.36,3.17-.3,4.36l-3.97.48c-.5,1.29.13,3.22-.74,4.17-1.01,1.11-3.04.44-4.37.83l-.43,3.91-3.17.28c-.24,1.21-.29,2.28-.18,3.28.01.82-1.43.45-1.59.9-.77-.02-1.58.04-2.34.1-1.1.09-1.45,1.56-2.96,1.32-.07-1.15-.46-3.2.51-4.02,1.05-.45,5.53-.94,5.74-2.18l.41-2.41c.3-1.73,4.7-2.21,4.16-5.29.66-.45,2.09-.14,2.15-1.11.02-.38.13-.72.27-1.02.2-.45,1.23-.25,1.7-.4,1.06-.33.61-1.72,1.02-2.49.6-1.12,2.5-.14,3.45-1.07.78-.77-.21-2.61.33-3.48,3.13-.03,6.43.17,9.67-.48l.12-7.43c.06-3.47.01-6.98.32-10.9l-10.47-.16c-.62,5.6-1.37.62-1.75,6.64-1.8.07-4.2.95-5.86-.12-1.18-.76-.12-3.12.83-3.66.48-.01,1.88.27,1.93-.42l.28-3.64c1.61-.12,2.86.14,4.16-.14l.32-4.85,22.65-.12c.61,0,.98.06.98.57Z"/>
            <g>
              <path class="cls-85" d="M175.83,182.07c-.28-1.28-.15-2.6-.13-3.9,1.34.04,2.67-.07,4.19.15l-.03,3.53-4.03.22Z"/>
              <path class="cls-105" d="M188.37,125.09c-.25.16-.6.21-1.09.12-.95-.19-1.41.29-1.47.96-.65-.12-1.13-1.33-1.65-1.78l-14.68-.29c-.53-.01-1.18.26-1.37.51-.17.23-.11.78,0,1.11-1.41-1.38-2.86.45-3.55-.91-.58-1.14,1.8-.64,1.59-1.43l18.56-.1c.42-1.15.01-2.35.55-3.19.47-.4,2.2-.39,2.87-.02.67,1.5.32,3.49.24,5.01Z"/>
              <path class="cls-11" d="M195.38,141.49c-.08.97-1.95.7-2.84.49-.02-3.48-.08-6.58.11-9.95.05-.93,2.7-1.03,2.77-.14.26,3.21.23,6.07-.04,9.6Z"/>
              <path class="cls-108" d="M195.93,168.06c-1.15-.09-2.3.29-3.44.09-.54-1.64-.61-3.32-.22-4.95l3.63.39c1.08,1.72.31,3.19.03,4.47Z"/>
              <path class="cls-22" d="M195.93,168.06c-.24,1.09.73,3.18-.51,3.9-.83.47-2.73,1.85-3.23.52-.55-1.44-.29-3.28.3-4.33,1.14.2,2.29-.17,3.44-.09Z"/>
              <path class="cls-64" d="M133.31,118.14c-.22.61-1.33.48-1.42,1.19-.43,0-.98-.7-.92-1.09.77-.06,1.57-.12,2.34-.1Z"/>
            </g>
          </g>
          <path class="cls-94" d="M130.09,155.58c1.49.53,3.32-.19,4.84.02l.39,4.28c.35.74,1.89.33,2.53.27,1.07-.1,2.23.15,3.72.21-.08,1.09-.74,2.67-.06,3.5,1.07.77,2.8.09,3.94.35-.72,4.66.28,9.5-.67,14.1-1.32-.22-2.62-.22-4.18.13.02,2.21-.24,4.33-.34,6.46-.01.26-.16.55-.43.72-.22.14-.36.07-.68.07-1.57-.03-7.06.19-7.58-.34.33-2.28-.15-4.6.04-7.15l-7.68-.12c-.4-1.64-.03-3-.1-4.72l-5.12-.23c.21-1.89-.02-3.31-.01-4.69l.23-28.72-.14-8.67c-.01-.72.29-1.45.62-1.78.22-.22,1.2,0,1.27-.42.26-1.61,1.37-2.64,1.93-4.1,1.32-3.44.97-1.51,4.23-3.76-.15,1.06.06,2.12-.23,3.18-1.34-.91-2.42,3.87-2.02,5.07.55,1.66-.55,10.77-.04,15.43.15,1.39,2.58,1.62,4.32,1.03,2.16,3.41-1.38,8.97,1.23,9.9Z"/>
          <path class="cls-83" d="M134.93,155.6c-1.52-.21-3.34.51-4.84-.02l-.07-10.09c0-1.33.36-2.64.97-3.96l2.91.05c.62.01.99,7.15,1.3,4.24-.37,3.52-.56,6.65-.28,9.79Z"/>
          <path class="cls-17" d="M146.03,123.47c.2.2.2.51,0,.72l-14.85.2c-.48,1.17-1.42,1.63-1.33,2.71l-4.12-.51c0-.45-.32-.85-.17-1.15.25-.5,1.07-.24,1.68-.43,1.63-.53-.24-4.5,1.57-5.02.48-.14,1.4-.39,1.6.44.16.67-.24,2.67.58,2.69l15.04.36Z"/>
          <path class="cls-95" d="M150.15,123.42c-.02.97,1.35.38,1.97.88.91.72.65,3.1-.61,3.62-1.4.57-2.86.13-3.99-.16-.03-1.36.32-3.6-1.49-3.57.2-.2.2-.51,0-.72,1.35.03,2.84.55,4.12-.04Z"/>
          <path class="cls-62" d="M180.05,92.04c.61-.05.94.36,1.58.21,2.25-.52,4.57,0,6.72.2.94,1.22.67,2.76.68,4.23v6.22c-1.21.26-3.02.61-4.09-.44-.46-.46.44-2.27-.38-2.42l-4.05-.71c-.19-1.07-.16-2.08.05-3.52-1.24-.03-2.37-.33-3.36.03-.61.22-1.59-.17-2.3,0-.75-1.22-.38-2.32-.19-3.38,1.59-.87,3.56-.27,5.33-.4Z"/>
          <path class="cls-70" d="M180.05,92.04c-1.77.13-3.75-.47-5.33.4-.29.04-.42-.25-.48-.44-.17-.5.42-.45.92-.57l.09-3.24c.94-.21,8.2-.79,9.11.47.38.53.22,1.81.23,2.49,1.17.48-5.71.11-4.53.89Z"/>
          <path class="cls-14" d="M175.26,88.19l-.09,3.24c-.5.12-1.09.07-.92.57-.56-.15-1.97.49-2.5-.33-.46-.71-.38-2.65.09-3.3.72-.98,2.56,0,3.42-.19Z"/>
          <path class="cls-103" d="M147.33,128.3c-.48,2.35.35,5-.54,7.46-.33.92-1.67.13-2.21.11l-.04-7.63c1.1-.57,1.92-.02,2.79.07Z"/>
          <path class="cls-113" d="M171.29,135.34c-.49.45-2.33,1.32-2.63.09-.61-2.5-.23-4.95-.09-7.21.83.39,1.72-.3,2.85-.43,0,2.63-.46,5.12-.12,7.55Z"/>
          <path class="cls-36" d="M137.84,160.15c-.64.06-2.17.47-2.53-.27l-.39-4.28c.96.13,1.83-.03,3.11.05.2,1.76.32,3.17-.2,4.49Z"/>
          <g>
            <path class="cls-56" d="M146.03,124.18c1.81-.02,1.46,2.22,1.49,3.57.09.28.26.45-.19.54-.88-.09-1.7-.64-2.79-.07l.04,7.63c-2.37-.12-7.08.82-9.36-.52-.85-1.92.53-7.25-1.1-7.63s-.39,2.24-1.44,2.84c-.37.21-1.1-.13-1.62,0-.67-1.1-1.09-2.17-1.2-3.46-.09-1.08.85-1.54,1.33-2.71l14.85-.2Z"/>
            <path class="cls-60" d="M135.22,135.34c-.59.99-1.31.48-1.94.28-1.13-.37-2.3-3.68-2.22-4.59.03-.18.12-.27,0-.48.53-.14,1.25.21,1.62,0,1.05-.6-.26-3.23,1.44-2.84s.25,5.71,1.1,7.63Z"/>
            <path class="cls-116" d="M136.06,128.1c1.38-.27.34,3.3,1.16,2.21-.26.34-.59.32-.74.2-.21-.16-.35-.52-.08-1.04-.3-.41-.57-.48-.61-.67-.06-.31.09-.66.28-.7Z"/>
            <path class="cls-18" d="M143.62,130.08c-.38.76-.78.29-.58-.5-.09-.5-.07-.81.2-.98s.64.11.78.37c.1.19-.28.36-.4,1.12Z"/>
          </g>
          <g>
            <path class="cls-29" d="M185.81,126.17c-.14,1.49.26,3.32-.92,4.39-.36.29-1.24.09-1.47-.26-.87-1.29.31-2.42-.76-2.59-.53-.08-1.37.02-1.41.56-.15,2.57-.34,5.06-.31,7.52-3.12-.07-6.79.8-9.64-.45-.34-2.43.12-4.92.12-7.55-1.13.13-2.01.82-2.85.43-.7-.66-.21-1.69-.46-2.51-.1-.33-.17-.87,0-1.11.19-.25.84-.53,1.37-.51l14.68.29c.52.45.99,1.66,1.65,1.78Z"/>
            <path class="cls-38" d="M178.03,130.74c-.93-.09-.83-2.63.06-2.78.81-.14,1.82-.27,2.19.1.47.48.3,1.48.13,2.18-.12.48-.89.65-2.37.5Z"/>
          </g>
        </g>
      </g>
    </g>
  </g>
</svg>