<?xml version="1.0" encoding="UTF-8"?>
<svg id="_レイヤー_2" data-name="レイヤー 2" xmlns="http://www.w3.org/2000/svg" viewBox="0 0 261.1 431.73">
  <defs>
    <style>
      .cls-1 {
        fill: #f0b3a3;
      }

      .cls-2 {
        fill: #aaaec5;
      }

      .cls-3 {
        fill: #999db5;
      }

      .cls-4 {
        fill: #fefeff;
      }

      .cls-5 {
        fill: #9a6168;
      }

      .cls-6 {
        fill: #a0a3b9;
      }

      .cls-7 {
        fill: #dbdeeb;
      }

      .cls-8 {
        fill: #cdd0df;
      }

      .cls-9 {
        fill: #878ba3;
      }

      .cls-10 {
        fill: #845d61;
      }

      .cls-11 {
        fill: #725f71;
      }

      .cls-12 {
        fill: #d9dce9;
      }

      .cls-13 {
        fill: #9194ac;
      }

      .cls-14 {
        fill: #edf0f8;
      }

      .cls-15 {
        fill: #6e6479;
      }

      .cls-16 {
        fill: #8a8ca6;
      }

      .cls-17 {
        fill: #666781;
      }

      .cls-18 {
        fill: #c1927d;
      }

      .cls-19 {
        fill: #d0a380;
      }

      .cls-20 {
        fill: #ab7c70;
      }

      .cls-21 {
        fill: #bec1d4;
      }

      .cls-22 {
        fill: #c09283;
      }

      .cls-23 {
        fill: #c19279;
      }

      .cls-24 {
        fill: #af806f;
      }

      .cls-25 {
        fill: #c8c9db;
      }

      .cls-26 {
        fill: #f9d9c3;
      }

      .cls-27 {
        fill: #9d726a;
      }

      .cls-28 {
        fill: #fffefc;
      }

      .cls-29 {
        fill: #edd5c4;
      }

      .cls-30 {
        fill: #d8dbe9;
      }

      .cls-31 {
        fill: #544860;
      }

      .cls-32 {
        fill: #9296ae;
      }

      .cls-33 {
        fill: #eab59e;
      }

      .cls-34 {
        fill: #e09897;
      }

      .cls-35 {
        fill: #5e4656;
      }

      .cls-36 {
        fill: #dce0ed;
      }

      .cls-37 {
        fill: #ebb2a2;
      }

      .cls-38 {
        fill: #4c4a61;
      }

      .cls-39 {
        fill: #8c6065;
      }

      .cls-40 {
        fill: #d7dae7;
      }

      .cls-41 {
        fill: #f8c8bc;
      }

      .cls-42 {
        fill: #ab7270;
      }

      .cls-43 {
        fill: #8f6463;
      }

      .cls-44 {
        fill: #fff;
      }

      .cls-45 {
        fill: #e6a699;
      }

      .cls-46 {
        fill: #69637b;
      }

      .cls-47 {
        fill: #fcfeff;
      }

      .cls-48 {
        fill: #767a94;
      }

      .cls-49 {
        fill: #858aa2;
      }

      .cls-50 {
        fill: #d6d8e6;
      }

      .cls-51 {
        fill: #fbe2cd;
      }

      .cls-52 {
        fill: #e19897;
      }

      .cls-53 {
        fill: #dfe2ef;
      }

      .cls-54 {
        fill: #d5d9e7;
      }

      .cls-55 {
        fill: #36334b;
      }

      .cls-56 {
        fill: #f6beac;
      }

      .cls-57 {
        fill: #f8c8bb;
      }

      .cls-58 {
        fill: #846272;
      }

      .cls-59 {
        fill: #6f4e56;
      }

      .cls-60 {
        fill: #ebc59b;
      }

      .cls-61 {
        fill: #dfe3f0;
      }

      .cls-62 {
        fill: #d8918b;
      }

      .cls-63 {
        fill: #765459;
      }

      .cls-64 {
        fill: #4b4863;
      }

      .cls-65 {
        fill: #635f78;
      }

      .cls-66 {
        fill: #ab8079;
      }

      .cls-67 {
        fill: #a26e6a;
      }

      .cls-68 {
        fill: #a17370;
      }

      .cls-69 {
        fill: #3c3a52;
      }

      .cls-70 {
        fill: #8487a1;
      }

      .cls-71 {
        fill: #f7e5c1;
      }

      .cls-72 {
        fill: #ad8071;
      }

      .cls-73 {
        fill: #d2b19f;
      }

      .cls-74 {
        fill: #e4e7f3;
      }

      .cls-75 {
        fill: #daddeb;
      }

      .cls-76 {
        fill: #6b4e58;
      }

      .cls-77 {
        fill: #fadfc5;
      }

      .cls-78 {
        fill: #fafbfd;
      }

      .cls-79 {
        fill: #9a99af;
      }

      .cls-80 {
        fill: #fefefb;
      }

      .cls-81 {
        fill: #8688a3;
      }

      .cls-82 {
        fill: #a4a7be;
      }

      .cls-83 {
        fill: #cb8781;
      }

      .cls-84 {
        fill: #a4a8bd;
      }

      .cls-85 {
        fill: #ab7d71;
      }

      .cls-86 {
        fill: #b3b5cb;
      }

      .cls-87 {
        fill: #70728f;
      }

      .cls-88 {
        fill: #323148;
      }

      .cls-89 {
        fill: #878aa4;
      }

      .cls-90 {
        fill: #cdcfe0;
      }

      .cls-91 {
        fill: #b38577;
      }

      .cls-92 {
        fill: #d1b9bc;
      }

      .cls-93 {
        fill: #614454;
      }

      .cls-94 {
        fill: #8e91aa;
      }

      .cls-95 {
        fill: #c2c3d6;
      }

      .cls-96 {
        fill: #d2a683;
      }

      .cls-97 {
        fill: #bec0d4;
      }

      .cls-98 {
        fill: #39374f;
      }

      .cls-99 {
        fill: #c2957b;
      }

      .cls-100 {
        fill: #e3e7f3;
      }

      .cls-101 {
        fill: #8789a5;
      }

      .cls-102 {
        fill: #6d4d59;
      }

      .cls-103 {
        fill: #7a7d98;
      }

      .cls-104 {
        fill: #9093ab;
      }

      .cls-105 {
        fill: #898ca7;
      }

      .cls-106 {
        fill: #b1b4c9;
      }

      .cls-107 {
        fill: #37344c;
      }

      .cls-108 {
        fill: #704e58;
      }

      .cls-109 {
        fill: #7d7f9a;
      }

      .cls-110 {
        fill: #de938e;
      }

      .cls-111 {
        fill: #bcbed3;
      }

      .cls-112 {
        fill: #d9ae87;
      }

      .cls-113 {
        fill: #70525d;
      }

      .cls-114 {
        fill: #fbe4ce;
      }

      .cls-115 {
        fill: #c6a496;
      }

      .cls-116 {
        fill: #898ba5;
      }

      .cls-117 {
        fill: #f4c2aa;
      }

      .cls-118 {
        fill: #b58f87;
      }

      .cls-119 {
        fill: #8b6262;
      }

      .cls-120 {
        fill: #e4bb92;
      }

      .cls-121 {
        fill: #8a8da7;
      }

      .cls-122 {
        fill: #d1a583;
      }

      .cls-123 {
        fill: #ad7f76;
      }

      .cls-124 {
        fill: #b68579;
      }

      .cls-125 {
        fill: #bbbdd1;
      }

      .cls-126 {
        fill: #694f5b;
      }

      .cls-127 {
        fill: #d4a882;
      }

      .cls-128 {
        fill: #e59b93;
      }

      .cls-129 {
        fill: #5c4556;
      }

      .cls-130 {
        fill: #ab7e75;
      }

      .cls-131 {
        fill: #8a8ca7;
      }

      .cls-132 {
        fill: #b18373;
      }

      .cls-133 {
        fill: #646481;
      }

      .cls-134 {
        fill: #fce5ce;
      }

      .cls-135 {
        fill: #b1b4cb;
      }

      .cls-136 {
        fill: #8b8ea7;
      }

      .cls-137 {
        fill: #cfd1e2;
      }

      .cls-138 {
        fill: #d4b2a0;
      }

      .cls-139 {
        fill: #9a6f6a;
      }

      .cls-140 {
        fill: #df9893;
      }

      .cls-141 {
        fill: #7d829c;
      }

      .cls-142 {
        fill: #35334c;
      }

      .cls-143 {
        fill: #d5d8e7;
      }

      .cls-144 {
        fill: #cccfe0;
      }

      .cls-145 {
        fill: #eef1f9;
      }

      .cls-146 {
        fill: #dcdfee;
      }

      .cls-147 {
        fill: #88666b;
      }

      .cls-148 {
        fill: #f3b6a7;
      }

      .cls-149 {
        fill: #eaaa9b;
      }

      .cls-150 {
        fill: #d28d86;
      }

      .cls-151 {
        fill: #8589a3;
      }

      .cls-152 {
        fill: #d3d6e5;
      }

      .cls-153 {
        fill: #dadcea;
      }

      .cls-154 {
        fill: #8486a2;
      }

      .cls-155 {
        fill: #55526d;
      }

      .cls-156 {
        fill: #eac59b;
      }

      .cls-157 {
        fill: #898ca8;
      }

      .cls-158 {
        fill: #f5c2b2;
      }

      .cls-159 {
        fill: #8386a0;
      }

      .cls-160 {
        fill: #a1a4bc;
      }

      .cls-161 {
        fill: #745158;
      }

      .cls-162 {
        fill: #b2b5cb;
      }

      .cls-163 {
        fill: #e6e9f5;
      }

      .cls-164 {
        fill: #845f63;
      }

      .cls-165 {
        fill: #9397af;
      }

      .cls-166 {
        fill: #e09490;
      }
    </style>
  </defs>
  <g id="_レイヤー_1-2" data-name="レイヤー 1">
    <g id="_生成オブジェクト" data-name="生成オブジェクト">
      <g>
        <path class="cls-125" d="M129.79,422.88l16.21-.42c3.9,2.52,32.62.32,36.02.33l78.96.27c.22,3.22.16,5.66-.09,8.64h-37.63s-107.2.02-107.2.02l-94.68-.32c-.18-2.72.64-5.49,0-8.14l73.74-.81c8.29,2.02,26.43.63,34.67.42Z"/>
        <path class="cls-30" d="M21.37,423.27c.63,2.65-.19,5.42,0,8.14,1.11,0-4.81.68-5.78-1-.18-1.87-.03-3.78.18-5.65.8-1.3,4.34-1.48,5.61-1.5Z"/>
        <path class="cls-4" d="M15.59,430.42c-.31-.55-2.05-.26-2.12-1.29-.29-4.34.07-.74,2.3-4.36-.21,1.87-.36,3.77-.18,5.65Z"/>
      </g>
      <g>
        <path class="cls-4" d="M184.96,157.59c2.14-.08,3.96.35,6.02-.17-1.21.31,6.28.65,6.83-.1.31-.42.73.06.4.41-.55,2.27-.13,4.57-.15,7.26,2.48.17,4.52.17,6.6-.03,0,.11.04.22.03.34-.33,5.13-.15,10.25-.09,15.6,2.23.01,4.15.24,6-.15.15,0,.43.21.55.28.11.07-.22.13,0,.37-.33,4.3.07,8.75.34,13.24,2.14.64,4.58-.37,6.02.75,1.57,1.22,1.3,3.93,1.5,5.68l1.3,11.08,5.65.04c.13.69.57,1.48.83,2.14-1.45,3.78-.09,8.16-.59,12.63l5.71.46.64,15.85c.34.42,6.8.68,6.01-.29.57.1.35.91.9,1.08-.12,2.48.09,4.95-.17,7.43l-1.28-1.09-14.67.23-.49,4.65c-2.34-.22-5.73,1.1-7.83-.1-1.92-1.1-1.1-5.59,1.14-5.95,1.73-.28,3.05-.42,4.6-.85.27-1.62-.27-3.24.18-4.75.3-1,1.62-.61,2.38-.29.4.17.58-.39.71-.41.24-.03.04-.81-.34-.83l-7.54-.33-.66-6.06c-1.83-.91-4.55-.44-4.76-.56-2.3-1.43,3.36-1.28-6.66-1.56l-.43-16.63c-2.37-.32-4.33-.09-6.76-.14l-.4-29.11-6.36-.2-.37-6h-7.65c-.93,0-2.73-1.19-3.41.13-.87,1.68-.04,3.92-.59,5.55-.33,1-.81,1.41-.83,2.99l-1.28,100.55-.49,57.55h-6.11c-.11-8.12-.99-16.41-.51-24.91-2.52-.45-4-.27-6.35.03l-.24,48.76-29.83.08-.25-37.09c.62-3.72.13-7.53.23-11.83-2.22-.44-4.11-.11-6.06-.26l-.03-12.77c-1.86-.42-3.76-.46-5.66.29-.52,3.3-.29,6.49-.36,9.86l-1.1,50.94c-.19.25-.13.6-.35.63-.28.05-.94.09-1.28.08l-5.7-.14-.13-35.58c-2.05-.43-3.94-.19-6.05,0-.46,12.1-.42,23.82-1.68,35.51l-5.1.08c-4.65.07-16.62-.56-20.29.83l.22-62.41c0-.66.41-1.56.41-2.3l6.24-.16,1.19-64.96c-.23-1.71,4.16-.55,6.13-1.17.57-5.13-.02-10.09.06-14.99l.51-30.2c-.21-1.91,4.38-.21,5.16-1.54.26-2.83.29-5.73-.09-8.49-1.59-.33-4.27.42-5.02-.91-.81-1.43.18-3.24-.7-4.57l-2.65,1.23.4,6.41c.04.69-1.31.21-1.85.16-1.93-.16-1.54,5.53-1.58,7.27l-.27,11.14c-1.96.63-4.1.02-6.71.43l-1,19.35-4.71.48-.35,6.71-1.22,1.18-.44,7.63c-2.28.13-4.47.28-6.77.09l-.21-9.97c-2.22-.42-4.27,0-6.5-.06l-.16-16.48c-1.93-.27-3.58-.05-5.19.02l-.34-9.01c.38.15.43-.68.71-.68l4.4-.12.32-5.14c.38.18.91,0,.52-.41,1.93.25,3.9.18,5.99,0,.09-2.62.34-4.59.12-6.6.35.07.83-.01.52-.44,1.89.26,3.83.21,5.97-.04l.5-13.26c.31,0,.63-.04.48-.44,1.72.13,3.44.1,5.56-.04l.45-7.17c.4-.17.68-.32.58-.77l6.49-.16.62-7.02c.32.21.76.07.47-.33,2.15.72,4.51-.27,6.63-.16,2.63.14,5.3.52,7.99.41l-.07,7.29,26.09.29c.16,3.68-.41,7.5.26,11.07.67.51,2.39,1.06,2.97.44-.25-.76-1.66-10.57.32-9.01-.23,5.39.66,10.71.72,16.05l.16,15.33-13.69.25c-.06,3.55-.14,6.96.13,10.31.1,1.22-.53,2.41.22,3.89l13.27-.35.16,15.15h12.3s.06-15.93.06-15.93c.48-.57.71.87,1.25.87l12.8.06c.5-1.41.26-2.54.27-3.71l.04-10.22-14.33-.18.1-16.76.46-24.9c1.56-.08,2.98-.42,4.25-.31,7.74.68,15.67.18,23.54.17,1.48,0,3.25.67,4.74-.18.67-2.6-.52-4.85-1.04-7.1l8.45-.31Z"/>
        <path class="cls-109" d="M189.63,199.73c.54,5.23.28,10.52.37,16.08.01.93.25,1.81,1.03,1.95-.39,2.46-.16,4.96.17,7.79,2.53-.79,3.8-.1,5.31.81l.52,7.18c3.99.01,2.62,6.02,3.83,9.23,1.21.41,2.36.05,3.55.59l.07,9.21c.01,1.37,1.01,1.56,2,1.85l.55,9.2,9.65-.02c.39-.65.4-1.16.68-1.97,1.83.01,3.27-.79,4.85-.99-.36.16.09.84.16,1.14.1.41.63.38,1,.4-1.52,3.07-1.84,6.82-1.59,10.43,1.47.64,2.91-.01,4.04.15.21,1.13,1.69.97,2.73,1.35.85.31.89,2.23,1.88,1.67.2-.11.27-.06.46-.03-.15.69-.99.63-.97,1.28.01.59-.37,1.87.52,1.88.97,0,2.07.98,2.93.79l-.67.18c-.7.19.24,1.9-.71,4.92l-6.27-.17c-.36,1.23-.13,2.29-.2,3.34-1.27,1.17-3.14.28-4.88.74l-.31,4.46-15.85.25.57,84.87-5.77.27-.33,6.43-25.48.51-5.63-.23c-5.63-.23-11.35-.51-16.94.25-1.37.19-3.89-1.32-4.68.55-1.16-1.17-14.23-.65-16.52-.52-.93.05-2.54-.15-3.66-.2-5.98-.24-11.99.11-17.97-.07l-5.13-.15c.09.82-.09,1.05-.38.94-.19-.13-.04-.78-.24-.79l-15.93-.21c.64-2.11.15-4.41.37-6.6,3.89-.13,7.81-.4,11.7-.28,4.39.14,8.79.33,13.18.02,2.61-.18,5.28.34,7.89.01,2.59-.3,5.2.6,8.18.41,23.6-1.48,47.01,1.81,70.88-1.8.04-23.36-.16-70.14-1-93.93-.03-.79.68-2.71-.39-3.07-2.07-.7-4.15-.09-5.93-.47l-.59-36.65c-2.34-.18-4.31.21-6.47-.19l-.25-44.87c.89,0,.66,1.17.59,2.23,1.73.12,3.44.05,5.07-.15Z"/>
        <path class="cls-50" d="M86.99,226.99l-.72,14.99-5.91.42c.8,7.08-.61,13.88-.67,20.32-1.27-.77-2.81-.51-4.2-.84-2.98-.72-3.49-3.87-3.46-6.27l.07-5.51c-2.92-.78-5.66.83-6.84-1.04.28-1.73.21-3.55-.1-5.5l-6.13.04c-.42.21-.76.01-.54-.5l-.12-7.89c-2.14-.55-4.04-.08-5.94-.08-.25-.17-.11-.32-.1-.56.08-2.29.6-4.76-.18-6.93,1.68.67.97-5.36.96-5.19.06-1.8.48-3.84.41-5.68,1.61-.07,3.26-.3,5.19-.02l.16,16.48c2.23.06,4.29-.36,6.5.06l.21,9.97c2.31.2,4.5.04,6.77-.09l.44-7.63,1.22-1.18.35-6.71,4.71-.48,1-19.35c2.61-.41,4.75.2,6.71-.43l.2,19.62Z"/>
        <path class="cls-4" d="M81.36,107.98c.61.87-1.12,1.26-1.31,1.95-.39,1.47,2.03,1.95,2.11,3.03s-.14,2.29-.34,3.03c-.84,3.17-.19,6.66-.58,10.25,2.26.74,4.46-.66,6.07.88-.16,1.2-.6,3.8.34,4.6,2,.63,4.09-.02,5.71.39.18.05.37.2.58.24l.3,4.95,6.18.53c.43,1.45.08,2.95.77,4.37,1.76.09,4.05-.01,5.22.19l1.56.89.04,8.08-5.93.43-.23-4.91-7.6-.02c-.92-.69-.07-1.96-.61-3.08-1.61-.32-4.41-.2-5.83-.11.05-.57-.49-.34-1-.4l-.29-4.44c-.04-.64.32-1.43-.13-1.89s-1.92-.07-2.06-.71c.11-.87,1.47-.91,1.61-1.56.12-.52.39-1.99-.5-2.09-2.34-.26-4.3.1-6.2-.34,0-.26-.13-.54-.41-.47.46-8.81-.26-16.82.38-25.8.43-.06,1.13-.17,1.42.28.31.48.33,1.22.71,1.71Z"/>
        <path class="cls-89" d="M198.07,138.68c-.37,1.64.26,3.43-.34,5.28l-3.74.48c-.58.07-.92,1.45-1.3,1.9-.41-.18-.5.16-.59.47l-.78-.46s-1.55,3.71-.24,3.08l.1,1.64c.06.97,5.55.89,6.51,1.15l.13,5.11c-.55.75-8.03.4-6.83.1l.03-5.65c-1.44.21-3.33-.31-4.92.27-2.53.92-1.9,3.75-1.13,5.55l-8.45.31c-.88.03-1.6-.34-2.48-.03-.97.35-1.93-.36-2.65-.94.21-.97-.47-2.84.41-3.68,4.41-.42,6.75-1.57,11.76-2.45l.58-6.5c2.22-.36,5.51.4,6.9-1.42.64-1.28-.07-3.35,1.13-4.15l5.91-.06Z"/>
        <path class="cls-157" d="M225.95,212.22l-5.65-.04-1.3-11.08c-.21-1.75.06-4.46-1.5-5.68-1.44-1.12-3.88-.11-6.02-.75-.28-4.49-.67-8.94-.34-13.24,1.63-.83,3.87-.4,5.8-.13l.91,12.8c2.19,2.66,3.78,1.65,7.74,1.92l.36,16.2Z"/>
        <path class="cls-89" d="M238.55,243.01c.79.97-5.67.71-6.01.29l-.64-15.85-5.71-.46c.51-4.47-.85-8.85.59-12.63l5.44.2.4,10.44c.06,1.55.35,2.47,1.31,3.61.84,1,2.14,1.06,4,.98l.62,13.42Z"/>
        <path class="cls-81" d="M210.6,180.76c-1.86.38-3.77.16-6,.15-.07-5.35-.24-10.47.09-15.6,1.76-.39,3.42-.09,5.83-.09-.14,5.38.72,10.5.08,15.54Z"/>
        <path class="cls-121" d="M72.24,181.06l-.5,13.26c-2.13.25-4.08.3-5.97.04l.42-13.15,6.04-.15Z"/>
        <path class="cls-31" d="M242.02,260.68c1.14,1.2.69,13.31.4,16-.37.82-1.88.04-2.43.17-.67-.13-1.43-.34-1.64-1.06l.13-13.65c.78-1.05,2.29-1.33,3.54-1.46Z"/>
        <path class="cls-133" d="M239.5,255.44c.83-.02,2.52.09,2.81,1.07.25.86-.34,2.09.66,2.09-.05.84-.55,1.32-.94,2.07-1.25.14-2.75.41-3.54,1.46-.71-.25-1.22-.7-1.97-.52-.47.11-1.1-.18-1.55-.02-.09-.73.02-2.64-.99-2.86-1.2-.26-2.3-.09-3.24-.72-.69-.46-.14-1.57-.39-2.36l9.15-.24Z"/>
        <path class="cls-116" d="M87.83,143.68c1.42-.09,4.23-.22,5.83.11.54,1.11-.31,2.38.61,3.08-.73,1.21-.01,2.67-.5,3.95-1.27-.24-2.56-.08-3.84-.05-.9.02-1.88-.14-2.86-.46-.19-1.95-.21-3.72-.25-5.47,0-.28.05-.89.36-.96.17-.04.47-.19.64-.2Z"/>
        <path class="cls-165" d="M58.49,243.1l-5.83-.14-.22-7.84c1.9,0,3.8-.46,5.94.08l.12,7.89Z"/>
        <path class="cls-78" d="M53.12,222.45c0-.17.72,5.85-.96,5.19-2.06.08-4.11.04-6.15-.19l-2.07.38c.28-.6-1.77-3.56-.98-5.02l10.17-.36Z"/>
        <path class="cls-70" d="M86.43,165.47l-.62,7.02-6.49.16c-.47-2.06-.37-5.22.4-7.2,2.18-.6,4.82-.31,6.71.02Z"/>
        <path class="cls-154" d="M89.32,158.38l3.5-.08c.07.09.71.08.79.28.21,2.23-.05,4.32-.08,6.39-2.12-.11-4.48.88-6.63.16-.27-2.02-.27-4.24.22-6.43.32-.57,1.66-.31,2.2-.33Z"/>
        <path class="cls-101" d="M204.66,164.97c-2.08.2-4.11.19-6.6.03.03-2.69-.4-4.99.15-7.26l6.1.09c.41,2.58.21,4.85.34,7.14Z"/>
        <path class="cls-9" d="M78.74,173.41l-.45,7.17c-2.12.14-3.84.17-5.56.04-.09,0-.54-.2-.52-.58l.49-7.06c.95-.2,6.81-.47,6.05.43Z"/>
        <path class="cls-81" d="M65.25,194.79c.22,2.01-.04,3.98-.12,6.6-2.1.19-4.06.26-5.99,0-.68-2.01-.34-4.35-.08-6.6h6.19Z"/>
        <path class="cls-82" d="M52.16,227.63c.78,2.17.26,4.64.18,6.93-1.78.23-3.63.14-5.61-.26-.32-.22-.2-1.15-.3-1.46.18-1.78.56-3.83-.42-5.4,2.04.23,4.1.26,6.15.19Z"/>
        <path class="cls-48" d="M242.97,258.61c-.99,0-.4-1.23-.66-2.09-.29-.98-1.98-1.1-2.81-1.07.28-1.28-.36-2.66-.23-3.93.25-2.47.04-4.95.17-7.43l3.49.53c.18,4.74.3,9.39.04,13.99Z"/>
        <path class="cls-3" d="M86.53,138.84c-.61.06-1.66.43-2.16-.03-.23-.86-.52-.47-1.06.24-1.32-.61-2.42-.51-3.5-.25-.3-.62-.69-1.02-.67-2.09l.11-4.45c1.9.44,3.86.07,6.2.34.89.1.62,1.56.5,2.09-.14.65-1.5.68-1.61,1.56.14.64,1.62.27,2.06.71s.09,1.24.13,1.89Z"/>
        <path class="cls-160" d="M65.26,249.06c-.06.4-.59.52-.6.93l-5.65-.29c-.13-2.24-.48-4.27.02-6.1l6.13-.04c.31,1.95.38,3.77.1,5.5Z"/>
        <path class="cls-97" d="M72.02,255.6c-1.97-.11-3.98.21-6.14-.13-.96-2.23.46-5.82-1.22-5.49.01-.41.54-.53.6-.93,1.18,1.87,3.92.26,6.84,1.04l-.07,5.51Z"/>
        <path class="cls-2" d="M86.53,138.84l.29,4.44c.51.06,1.05-.17,1,.4-.17.01-.47.16-.64.2-.31.07-.36.67-.36.96-.68.19-.38-.49-.45-1.14l-6.23-.26c-.51-1.77.3-3.31-.33-4.63,1.08-.26,2.18-.36,3.5.25.54-.71.83-1.1,1.06-.24.5.47,1.55.09,2.16.03Z"/>
        <path class="cls-49" d="M58.61,201.81l-.32,5.14-4.4.12c-.28,0-.33.83-.71.68-.01-.33-.35-.7-.6-.9l.34-5.17c2.11-.12,3.98-.35,5.68.12Z"/>
        <path class="cls-17" d="M238.36,275.79c.21.72.97.93,1.64,1.06-.92.22-1.23,1.63-1.62,2.29-1.6.74-3.52.22-5,.54-.86.19-1.96-.78-2.93-.79-.89,0-.5-1.29-.52-1.88-.02-.65.82-.59.97-1.28,2.46.38,4.98.21,7.46.05Z"/>
        <path class="cls-4" d="M93.77,150.82c-.15.41.15.45.14.88l-.07,6.12c-.32,0-1.03-.08-1.02.48l-3.5.08c.39-.69,1.06-.96,1.16-1.75.08-.6-1.06-1.59-1.04-2.3.63-1.25,1.33-2.26.5-3.56,1.28-.03,2.56-.19,3.84.05Z"/>
        <path class="cls-40" d="M231.99,284.79c-.27.85.22,1.59-.47,2.39-1.07,1.24-4.48,1.08-6.01.78.08-1.05-.16-2.11.2-3.34l6.27.17Z"/>
        <path class="cls-145" d="M46.42,232.84c-.53-.54-1.29-.28-1.63-.55.22.17-1.26-3.62-.87-4.47l2.07-.38c.98,1.57.6,3.61.42,5.4Z"/>
        <path class="cls-4" d="M192.09,146.81c-.28.9-1.15,1.62-1.02,2.61-1.31.64.27-3.06.24-3.08l.78.46Z"/>
        <path class="cls-25" d="M181.11,187.15c.14.52,1.08,1.3.82,1.89-.51,1.16,1.03,1.55,1.22,2.52.38,1.93.81,4.2.82,6.09l.25,44.87c2.16.4,4.13.02,6.47.19l.59,36.65c.02,1.01-.64,2.7.2,3.61,0,.47,6.27.76,6.11-.07.84,23.78,1.04,70.57,1,93.93-23.88,3.6-47.28.32-70.88,1.8-2.97.19-5.58-.72-8.18-.41-.39-.19-.33-7.01-.33-6.8l1.1-50.94c.07-3.37-.15-6.56.36-9.86,1.89-.75,3.79-.7,5.66-.29l.03,12.77c0,3.84-.31,7.72.02,11.83l5.82.27.25,37.09,29.83-.08.24-48.76c2.35-.3,3.83-.48,6.35-.03-.48,8.5.4,16.79.51,24.9s-1.2,15.74-.08,23.8c1.97.34,4.5.41,6.21-.1l-.02-23.7.49-57.55,1.28-100.55c.02-1.58.5-1.99.83-2.99.83.73,2.1.32,3.04-.09Z"/>
        <path class="cls-75" d="M239.27,251.51c-.13,1.26.51,2.64.23,3.93l-9.15.24c-2.03.05-4.96-.56-6.58,1.34-.83.97-.24,3.04-1.57,3.62-1.58.2-3.02,1-4.85.99-.28.81-.29,1.32-.68,1.97l-9.65.02-.55-9.2c-.99-.29-1.99-.47-2-1.85l-.07-9.21c-1.19-.54-2.34-.18-3.55-.59-1.21-3.21.16-9.22-3.83-9.23l-.52-7.18c-.19-2.66-.17-5.35-.62-8.31-1.7-.5-3.34-.44-4.85-.29-.78-.14-1.02-1.02-1.03-1.95-.09-5.57.17-10.86-.37-16.08-.2-1.97,1.42-4.61.27-7.09-1.03-.4-2.5-.21-3.86-.19-3.59.07-.66-4.59-4.12-3.41.26-.59-.68-1.37-.82-1.89.86-1.74.35-3.76.97-5.59h7.65s.37,5.99.37,5.99l6.36.2.4,29.11c2.43.05,4.39-.18,6.76.14l.43,16.63c10.02.27,4.36.12,6.66,1.56.2.13,2.93-.35,4.76.56l.66,6.06,7.54.33c.38.02.58.8.34.83-.13.02-.31.58-.71.41-.75-.32-2.08-.71-2.38.29-.45,1.52.09,3.13-.18,4.75-1.55.43-2.86.57-4.6.85-2.24.36-3.06,4.85-1.14,5.95,2.1,1.2,5.49-.12,7.83.1l.49-4.65,14.67-.23,1.28,1.09Z"/>
        <path class="cls-95" d="M118.95,151.81c-.93,1.66-.69,3.71-.6,5.99,2.67.38,5.15.23,7.64.05,1.57,1.75.38,4.35.75,6.48-.11.33-.11.68.38.6-8.37.9-17.01.11-25.59.44-2.69.11-5.36-.28-7.99-.41.03-2.07.29-4.16.08-6.39-.08-.2-.73-.19-.79-.28,0-.56.7-.49,1.02-.48,2.52.05,5.04.13,7.8-.09,0-2.37.19-4.09-.03-5.81.28.21.36.29.49-.13l5.93-.43c3.6-.26,7.3-.08,10.92.44Z"/>
        <path class="cls-153" d="M131.1,172.97c-1.18-.15-2.39,0-3.54-.01l-26.09-.29.07-7.29c8.58-.34,17.22.45,25.59-.44,1.22-.13,2.55.25,3.99.37.27,3.01.23,5.28-.01,7.66Z"/>
        <path class="cls-111" d="M174.03,157.87c.93-.02-1.79,5.37-1.21,7.31-7.87,0-15.8.5-23.54-.17,1.44.47.57-5.82,1.15-6.96,1.34-.46,2.49-.14,3.47-.63,1.83.96,4.16.86,6.46.79l10.12-.3c.49-.01.86-.72.91-.99.72.58,1.67,1.28,2.65.94Z"/>
        <path class="cls-74" d="M175.48,348.32l.02,23.7c-1.71.5-4.24.43-6.21.1-1.12-8.06.19-16.07.08-23.8h6.11Z"/>
        <path class="cls-100" d="M98.91,372c-.07,2.07-.64,4.1-.45,6.18-3.89-.12-7.82.15-11.7.28-2.33.08-4.78-.48-7.84-.09-.56-2.07-.31-3.75-.3-5.54,3.67-1.39,15.64-.76,20.29-.83Z"/>
        <path class="cls-106" d="M190.98,157.42c-2.06.52-3.88.09-6.02.17-.77-1.8-1.4-4.63,1.13-5.55,1.59-.58,3.48-.06,4.92-.27l-.03,5.65Z"/>
        <path class="cls-14" d="M131.1,172.97c-.08.79.04,1.67,0,2.49-1.98-1.56-.58,8.24-.32,9.01-.58.62-2.3.07-2.97-.44-.67-3.58-.1-7.39-.26-11.07,1.16.01,2.36-.13,3.54.01Z"/>
        <path class="cls-137" d="M176.51,157.9c.53,2.25,1.72,4.5,1.04,7.1-1.48.86-3.26.18-4.74.18-.58-1.94,2.14-7.34,1.21-7.31.88-.31,1.6.06,2.48.03Z"/>
        <path class="cls-163" d="M182.08,181.56c-.62,1.83-.11,3.85-.97,5.59-.93.41-2.2.82-3.04.09.54-1.63-.29-3.87.59-5.55.68-1.32,2.49-.12,3.41-.12Z"/>
        <path class="cls-77" d="M234.97,261.61c.45-.16,1.08.13,1.55.02l.41,9.16c-2.21.49-4.28.19-6.29.34.05-1.09.08-2.71-.29-3.86-.54-.69-3.33-.76-3.78.09-.84,1.59-.16,3.85-.74,5.4-1.14-.16-2.57.5-4.04-.15-.25-3.61.06-7.36,1.59-10.43,1.53.06,3.05.09,4.69-.34,2.29-.61,4.74.54,6.91-.22Z"/>
        <path class="cls-65" d="M230.35,255.68c.25.79-.3,1.89.39,2.36.93.63,2.04.46,3.24.72,1.01.22.89,2.13.99,2.86-2.17.77-4.62-.39-6.91.22-1.64.44-3.16.4-4.69.34-.37-.02-.9.01-1-.4-.07-.3-.51-.98-.16-1.14,1.33-.58.74-2.65,1.57-3.62,1.62-1.9,4.54-1.29,6.58-1.34Z"/>
        <path class="cls-37" d="M238.49,262.15l-.13,13.65c-2.48.15-5,.33-7.46-.05-.19-.03-.27-.08-.46.03l.19-4.65c2.01-.15,4.08.15,6.29-.34l-.41-9.16c.75-.18,1.26.27,1.97.52Z"/>
        <path class="cls-86" d="M189.63,199.73c-1.64.2-3.34.27-5.07.15.07-1.06.3-2.24-.59-2.23-.01-1.89-.44-4.16-.82-6.09-.19-.97-1.74-1.35-1.22-2.52,3.45-1.18.52,3.48,4.12,3.41,1.36-.02,2.83-.21,3.86.19,1.15,2.48-.47,5.12-.27,7.09Z"/>
        <path class="cls-16" d="M196.51,226.37c-1.51-.91-2.78-1.6-5.31-.81-.33-2.83-.56-5.34-.17-7.79,1.51-.15,3.15-.21,4.85.29.45,2.97.43,5.65.62,8.31Z"/>
        <path class="cls-15" d="M230.63,271.13l-.19,4.65c-.99.56-1.03-1.36-1.88-1.67-1.04-.38-2.52-.22-2.73-1.35.58-1.55-.1-3.81.74-5.4.45-.85,3.24-.78,3.78-.09.37,1.15.34,2.77.29,3.86Z"/>
        <path class="cls-135" d="M197.59,282.9c.15.83-6.11.54-6.11.07-.84-.91-.18-2.6-.2-3.61,1.78.38,3.85-.23,5.93.47,1.07.36.36,2.28.39,3.07Z"/>
        <path class="cls-152" d="M192.03,134.73l.14,4.01c-1.2.79-.49,2.87-1.13,4.15-1.39,1.82-4.68,1.07-6.9,1.42l-.58,6.5c-5.01.88-7.34,2.03-11.76,2.45-.88.84-.2,2.71-.41,3.68-.05.27-.43.97-.91.99l-10.12.3c-2.3.07-4.62.17-6.46-.79-.17-1.71-.13-3.44-.15-5.16l10.25-.3c1.54-.04,3.06-.13,4.51-.57.24-1.5-.17-2.8.4-4.03l6.34-.35c.54-.97.14-1.95.51-3.17,2.74.31,4.78-1.97,4.71-4.61,12.83-.04.28-1.63,11.56-4.52Z"/>
        <g>
          <path class="cls-88" d="M52.59,206.85c.25.2.59.57.6.9l.34,9.01c.07,1.85-.35,3.89-.41,5.68l-10.17.36c-2.87.1-5.8-.57-8.79.01l-.06,29.51-16.12.03-.04-29.65-17.95-.23.03-15.35,17.87-.18.16-21.54h16.06s.15,21.62.15,21.62l18.32-.18Z"/>
          <path class="cls-139" d="M29.66,194.04v17.01c1,.33,1.89.37,2.69.31-.15.22-.06.47.19.93h8.32c.26-.46.35-.71.19-.93,2.49,0,5-.35,7.75.23.31,2,.14,3.92-.01,5.98l-17.9.04c-.64,0-.96.53-1.11.85l-3.64-.39-.17,22.93c-.01,1.83-.11,3.51-.4,4.98,1.18.32,1.92.62,2.94.55.54-.04.53-.97,1.06-1.49l.06,2.33c-2.53.02-4.79.45-7.4.04l-.07-29.73-17.45-.25c-.35-2.13-.36-4,.02-6.11l14.08-.02c1.32,0,2.51.2,3.41-.57.43.67,3.16,1.15,3.33.26,1.05-5.75.1-11.05.53-16.48,1.25-.65,2.5-.44,3.58-.47Z"/>
          <path class="cls-43" d="M29.79,218.45l-.21,26.58c-.53.53-.52,1.46-1.06,1.49-1.03.07-1.76-.23-2.94-.55.3-1.47.39-3.15.4-4.98l.17-22.93,3.64.39Z"/>
          <path class="cls-123" d="M29.66,194.04c-1.08.03-2.33-.18-3.58.47-.43,5.43.52,10.73-.53,16.48-.16.89-2.89.41-3.33-.26l-.02-20.52,7.26-.09c.49,1.39.2,2.68.2,3.93Z"/>
          <path class="cls-66" d="M41.05,211.35c.15.22.06.47-.19.93h-8.32c-.26-.46-.35-.71-.19-.93,2.9-.22,5.81-.01,8.7,0Z"/>
        </g>
        <path class="cls-143" d="M107.49,142.34l6.05-.08c.46,0,.52.29.48.51-.31,1.63,3.35.35,4.1,1.15.45.48.28,1.49.2,2.55,1.32.88,2.82,0,4.22.57.43,1.34-.2,2.6,0,3.79-.44-.04-.5.34-.57.85-1.04-.27-2.17.25-3.02.13-3.61-.53-7.31-.71-10.92-.44l-.04-8.08-1.56-.89c.27.05.76-.05,1.07-.06Z"/>
        <path class="cls-61" d="M102.1,151.8c-.13.41-.21.33-.49.13-2.45-.76-5.17-.37-7.69-.23,0-.43-.3-.47-.14-.88.48-1.28-.24-2.74.5-3.95l7.6.02.23,4.91Z"/>
        <path class="cls-151" d="M101.61,151.92c.23,1.72.04,3.43.03,5.81-2.76.21-5.28.13-7.8.09l.07-6.12c2.53-.14,5.25-.53,7.69.23Z"/>
        <g>
          <path class="cls-94" d="M78.84,310.43l-.22,62.41c0,1.79-.26,3.47.3,5.54,3.06-.4,5.51.16,7.84.09-.22,2.19.27,4.48-.37,6.6-2.35-.03-4.79.35-7.3-.21l-.37-6.28-6.34-.31.16-67.68c2.45-.33,4.41-.37,6.31-.14Z"/>
          <path class="cls-104" d="M86.27,241.98c-.02.34-.16.97.42,1.03l-1.19,64.96-6.24.16.43-45.41c.06-6.43,1.47-13.24.67-20.32l5.91-.42Z"/>
          <path class="cls-38" d="M144.57,190.22l-.1,16.76,14.33.18-.04,10.22-14.04.12c-.14.87-.27,1.86-.27,2.65l-.06,15.93h-12.3s-.16-15.14-.16-15.14c-.01-1.08.58-2.23-.02-3.4l-13.48-.14c-.27-3.35-.19-6.76-.13-10.31l13.69-.25-.16-15.33c.96-.02,1.47-.5,2.24-1,2.24.13,4.47.04,6.71-.07,1.27-.06,2.52-.24,3.79-.22Z"/>
          <path class="cls-36" d="M119.2,371.41c0-.21-.06,6.62.33,6.8-2.62.32-5.28-.2-7.89-.01.24-1.89.28-3.87.08-6.12-2.73-.34-5.2-.19-7.71-.15,1.26-11.68,1.22-23.4,1.68-35.51,2.11-.19,4-.43,6.05,0l.13,35.58,5.7.14c.34,0,1-.03,1.28-.08.21-.04.16-.38.35-.63Z"/>
          <path class="cls-103" d="M153.36,151.8c.3.1.37.13.38.47.02,1.72-.01,3.44.15,5.16-.98.49-2.13.16-3.47.63-.57,1.14.29,7.43-1.15,6.96-1.28-.11-2.69.22-4.25.31l-.46,24.9c-1.27-.02-2.53.15-3.79.22l.16-17.47c.02-1.71.29-3.49-.26-5.32-2.21-.2-4.3.37-6.92-.62-.69,2.29-.14,4.64-.05,7,.19,4.94.1,9.92-.03,15.11-.02.65-.02,1.05.39,1.37-.77.5-1.29.98-2.24,1-.06-5.34-.95-10.66-.72-16.05.03-.82-.09-1.7,0-2.49.24-2.38.28-4.65.01-7.66-1.44-.12-2.77-.5-3.99-.37-.49.08-.49-.27-.38-.6l6.59.34c1.12-2.57-1.54-4.43.57-4.27.17.01.35-.17.27-.44.2.32.81-.26.88.07l.83,4.11c.28,1.4,3.44.75,4.72.22.47-1.28.07-2.92.84-3.82,1.03-.51,1.97-.7,2.27-1.67.18-.54,1.52-1.04,2.08-1.13.91-.15,5.36-2.84,3.61-4.96.06-.61.59-.92.89-1.41.89.7,2.08.08,3.08.42Z"/>
          <path class="cls-13" d="M93.38,196.65l-.51,30.2c-1.97-.19-3.96-.4-5.88.14l-.2-19.62.27-11.14c2.07.59,4.19.21,6.32.43Z"/>
          <path class="cls-21" d="M93.38,196.65c-2.13-.22-4.25.16-6.32-.43.04-1.74-.35-7.43,1.58-7.27.53.05,1.89.53,1.85-.16l-.4-6.41,2.65-1.23c.88,1.33-.11,3.14.7,4.57.75,1.33,3.44.58,5.02.91.38,2.77.35,5.66.09,8.49-.78,1.33-5.37-.37-5.16,1.54Z"/>
          <path class="cls-90" d="M92.88,226.85c-.08,4.9.51,9.86-.06,14.99-1.97.62-6.36-.54-6.13,1.17-.58-.06-.43-.69-.42-1.03l.72-14.99c1.92-.54,3.91-.33,5.88-.14Z"/>
          <path class="cls-144" d="M104.01,371.92c2.51-.04,4.97-.18,7.71.15.2,2.25.16,4.23-.08,6.12-4.39.31-8.79.12-13.18-.02-.19-2.08.38-4.11.45-6.18l5.1-.08Z"/>
          <path class="cls-14" d="M132.18,335.19l-5.82-.27c-.33-4.11,0-7.98-.02-11.83,1.95.15,3.83-.19,6.06.26-.1,4.3.4,8.11-.23,11.83Z"/>
          <path class="cls-54" d="M131.92,220.95l-13.27.35c-.75-1.48-.13-2.67-.22-3.89l13.48.14c.6,1.18,0,2.32.02,3.4Z"/>
          <path class="cls-12" d="M158.75,217.39c0,1.16.24,2.29-.27,3.71l-12.8-.06c-.54,0-.77-1.44-1.25-.87,0-.79.13-1.78.27-2.65l14.04-.12Z"/>
          <g>
            <g>
              <path class="cls-98" d="M108.06,385.27c.1,4.67-.33,9.36.33,13.92.27,1.91-1.24,4.48-.17,6.87l14.28.13c.42,1.55.41,3.26.52,4.99.09,1.5,1.83.49,2.55.55,1.27.11,2.56.17,4.11.22l.1,10.92c-8.24.21-26.38,1.6-34.67-.42l.24-9.95c2.2-.14,4.23-.15,6.19-.03.33,1.6-.98,2.86-1.1,5.12,2.09.61,4.19.14,6.87.22l.3-5.21c-2.06-.13-3.64-.03-5.26-.3l.19-26.25c.29.11.47-.12.38-.94l5.13.15Z"/>
              <path class="cls-124" d="M102.36,412.31c1.62.27,3.2.17,5.26.3l-.3,5.21c-2.68-.08-4.78.39-6.87-.22.12-2.25,1.43-3.51,1.1-5.12.38.02.47-.04.82-.18Z"/>
              <path class="cls-34" d="M126.03,385.34l-.3,20.84c-.88.25-1.84-.09-2.74.02-.91-1.92-.51-4.19-.74-6.71l-13.87-.29c-.65-4.56-.23-9.25-.33-13.92,5.98.18,11.99-.17,17.97.07Z"/>
              <path class="cls-69" d="M129.69,385.54l-.02,20.62c-.93.53-2.29.44-3.06.21-.35-.1-.5-.3-.88-.19l.3-20.84c1.12.04,2.73.25,3.66.2Z"/>
              <path class="cls-114" d="M122.99,406.2c-.13.02-.35,0-.49,0l-14.28-.13c-1.08-2.4.44-4.96.17-6.87l13.87.29c.23,2.53-.17,4.79.74,6.71Z"/>
              <path class="cls-58" d="M125.73,406.18c.38-.11.54.09.88.19.03.51-.46.27-1.04.42.25,1.78.04,3.34,0,4.95-.72-.06-2.45.95-2.55-.55-.11-1.73-.1-3.44-.52-4.99.14,0,.36.02.49,0,.9-.11,1.86.23,2.74-.02Z"/>
            </g>
            <g>
              <path class="cls-52" d="M167.84,385.26c-.21,4.67.38,9.4-.33,13.98l-12.15.27-.07,6.67-4.39.16v-20.83c5.6-.77,11.32-.49,16.95-.25Z"/>
              <path class="cls-107" d="M150.9,385.51v20.83c-1.4.05-2.82.18-4.2.32-1.23-6.67-.25-13.72-.48-20.61.79-1.87,3.31-.36,4.68-.55Z"/>
              <path class="cls-51" d="M167.5,399.24c.67,2.05.27,4.32.21,6.79l-12.43.15.07-6.67,12.15-.27Z"/>
              <g>
                <path class="cls-98" d="M173.46,385.49l.26,26.84c.84.36,2.51-.31,2.71.47l.92,3.54c1.49.5,2.95.33,4.56.65l.1,5.81c-3.4-.01-32.12,2.19-36.02-.33.68-3.57-.74-7.4.72-10.74l3.82.1.36-5.47,4.39-.16,12.43-.15c.06-2.47.46-4.74-.21-6.79.71-4.58.12-9.31.33-13.98l5.63.23Z"/>
                <path class="cls-22" d="M153.83,412.67l14.23.03c.19,1.2-.46,3.62.3,5.06l-17.24.15c.03-1.53-.19-3.04.18-4.76.23-1.05,1.93-.69,2.53-.49Z"/>
                <path class="cls-93" d="M168.05,412.71l-14.23-.03c.08-.28.08-.53-.04-.71-.32-.48-.86-.12-1.56-.39.97-.66,1.34-1.32.97-3.34,4.65-.09,9.46-.37,14.11.78.94.51.59,2.77.74,3.69Z"/>
                <path class="cls-67" d="M168.36,417.76c-.76-1.44-.11-3.86-.3-5.06,1.71.02,3.24-.41,4.82.26.81,1.45.69,3.18.26,4.77-1.65.45-3.24.02-4.78.03Z"/>
              </g>
              <path class="cls-29" d="M150.89,406.35l-.36,5.47-3.82-.1c.72-1.65.29-3.42-.01-5.05,1.38-.14,2.8-.27,4.19-.32Z"/>
            </g>
          </g>
          <path class="cls-47" d="M140.93,172.97l-.16,17.47c-2.24.11-4.47.2-6.71.07-.41-.32-.4-.72-.39-1.37.13-5.19.23-10.17.03-15.11.54.26.41-.41.58-.96,2.36-.38,4.49-.21,6.64-.1Z"/>
          <path class="cls-32" d="M126.56,152.29c-.52,1.78-.34,3.72-.58,5.56-2.49.18-4.97.33-7.64-.05-.08-2.28-.32-4.33.6-5.99.84.12,1.97-.4,3.02-.13.07-.5.13-.89.57-.85-.02,1.47,2.31.5,4.03,1.46Z"/>
          <path class="cls-146" d="M140.93,172.97c-2.15-.12-4.28-.29-6.64.1-.17.55-.04,1.22-.58.96-.09-2.36-.64-4.71.05-7,2.62,1,4.71.42,6.92.62.54,1.83.27,3.61.26,5.32Z"/>
        </g>
        <g>
          <path class="cls-4" d="M177.03,24.87c.15,0,.28.09.42.09-.14,1.71-.24,3.46.02,5.55,2.14.3,4.08-.17,6.04.4l.43,5.57c2.46.29,4.54.05,6.58.07-.4,2.57.55,5.22.55,7.64l-.02,88.85c0,.24.82.84.54.97-.2.1.34.28.51.2.04.2-.09.35-.08.52-11.29,2.89,1.27,4.48-11.56,4.52.07,2.64-1.98,4.92-4.71,4.61-.37,1.22.04,2.2-.51,3.17l-6.34.35c-.56,1.24-.15,2.54-.4,4.03-1.45.44-2.97.52-4.51.57l-10.25.3c0-.34-.08-.37-.38-.47.51-1.44.01-2.99.31-4.66l3.78-.26c.4-.03.74.21,1.15-.07.88-.61-1-2.27-.46-2.65,1.18-.84,1.78.19,2.46.06.32-.06.44-.62.86-.91,2.84-2.01,6.38,1.12,6.94-2.53.21-1.37,2.92.09,5.31-.87-.05-1.28.22-2.5-.19-3.56,1.38-.91,3.12-.14,4.77-.84-.2-1.54-.13-2.54.7-3.2,1.24.17,2.51.05,4.33.04.67-2.8.43-5.58.5-8.3.36-16.03.08-32.11-.41-48.59l-6.22-.33-.28-6.84-6.49-.26-.17-6.65-5.64-.51c-.7-1.61-.25-3.21-.46-5.06-1.79-.23-3.35-.29-4.88-.19-1.02-1.63-.71-3.69-.67-5.54l.11-5.02-.04-6.59c0-.94.37-1.92.16-2.87.19.02.38-.08.52-.2.34-.32,1-.14,1.17-.44.57-1.05-.41-3.31,1.28-4.18,1.88-.96,3.46-1.37,5.79-.95l.29-4.93c3.05.09,6.1.11,9.14.02Z"/>
          <path class="cls-53" d="M197.6,44.12c-.18.33.05.71.37.39l.18,88.67c-1.33.18-6.48-.96-6.04,1.02-.17.08-.71-.1-.51-.2.27-.13-.54-.73-.54-.97l.02-88.85,6.52-.06Z"/>
          <path class="cls-159" d="M198.61,134.23l-.46-1.05-.18-88.67c2.05-.52,4.38-.44,6.53,0l.34,89.19c-2.23,1.01-4.26.28-6.23.53Z"/>
          <path class="cls-105" d="M78.73,95.44c-.21,2.01.37,4.02.49,5.94.09,1.35.11,3.25,0,4.61-.64,8.98.08,16.98-.38,25.8-1.88.26-3.98.21-6.1-.13l.02-36.28c1.98-.15,3.98-.08,5.97.06Z"/>
          <path class="cls-136" d="M183.55,29.91c-.02.4.1.58.48.59l6.25.28c-.15,1.95.52,4.01.25,5.77-2.04-.01-4.12.23-6.58-.07l-.43-5.57c-1.95-.57-3.9-.1-6.04-.4-.26-2.08-.17-3.83-.02-5.55l5.92.15c.23,1.79.25,3.3.17,4.79Z"/>
          <path class="cls-79" d="M170.47,18.39c1.13-.04,2.18.41,3.5.58l3.05.4c.08,2.02.26,3.8,0,5.5-3.05.1-6.1.07-9.14-.02.02-.32,0-.64,0-.97l-.12-4.99c.45-.03,1.18.16,1.16-.48.2.07.3.09.5,0-.07.41.36.59.75.46.24-.08.51-.19.3-.48Z"/>
          <path class="cls-131" d="M197.6,44.12l-6.52.06c0-2.41-.95-5.07-.55-7.64,2.2.01,4.39-.12,6.83.19l.25,7.39Z"/>
          <path class="cls-162" d="M198.15,133.18l.46,1.05c.56,1.27-.21,2.98-.54,4.45l-5.91.06-.14-4.01c0-.17.13-.32.08-.52-.44-1.98,4.71-.84,6.04-1.02Z"/>
          <path class="cls-8" d="M152.53,2.67c-.02-.31-.07-.72,0-1.02.98.49,1.72-.36,2.69-.57,1.24-.26,2.27.65,2.33,1.43.34,4.47-2.7-.33-5.02.17Z"/>
          <path class="cls-4" d="M168.92,18.42c.01.64-.71.45-1.16.48,0-.19-.27-.31.04-.49.36-.05.77-.12,1.12,0Z"/>
          <path class="cls-4" d="M184.03,30.5c-.38-.02-.51-.2-.48-.59.42-.19.56.29.48.59Z"/>
          <path class="cls-4" d="M192.09,146.81c.1-.31.18-.65.59-.47-.22.25-.32.63-.59.47Z"/>
          <path class="cls-4" d="M170.47,18.39c.21.29-.06.4-.3.48-.39.13-.82-.05-.75-.46.33-.15.71-.02,1.05-.03Z"/>
          <path class="cls-84" d="M86.33,107.41c.02.82.87,1.72.52,2.6-.09.22.24.77.05.98-1.33,1.43-.96,2.67-.55,4.05.43,1.64-3.65.9-4.51.95.2-.74.41-1.95.34-3.03s-2.5-1.56-2.11-3.03c.19-.7,1.91-1.09,1.31-1.95,1.49-.75,3.36-.44,4.96-.57Z"/>
          <path class="cls-7" d="M86.33,107.41c-1.6.14-3.48-.18-4.96.57-.39-.49-.4-1.23-.71-1.71-.29-.44-.99-.33-1.42-.28.1-1.36.08-3.26,0-4.61,2.34.08,4.8-.16,7.25.34.65,2.06-.18,3.87-.14,5.69Z"/>
          <g>
            <path class="cls-27" d="M152.48,7.39c-.2,1.54-.03,3.12-.06,4.96l7.06.28.13,5.49c2.75.28,5.3.41,7.77.16.12.11.25.15.42.13-.31.17-.04.29-.04.49l.12,4.99c-1.2,2.14-7.84-.92-8.33,1.58-1.44,7.31-.1,3.72-.19,9.89-.13.13-.32.22-.52.2-1.56-.17-3.56-.67-4.92.38-.67.52-.38,2.36.36,2.48,1.72.27,3.07.09,4.4.01l.04,6.59c-1.64.21-3.33.38-4.95-.05.12-.25-.21-.38-.23-.59-.05-.45-.4-.35-.76-.37-.36-2.21.47-4.5-.92-6.51-3.43-4.98,2.28-11.27.11-12.51-1.29-.74-11.87.45-12.84-1.05l-.11-2.66c-.03-.68.62-1.35.88-2.23l10.75-.3.03-6.18-16.98.12c-.07-.92.09-1.46-.43-1.39-.2-1.69-.1-3.39-.12-5.09,2.67.02,19.6-1.02,19.32,1.17Z"/>
            <path class="cls-161" d="M86.92,38.93l-.27,16.76-7.34.27c-.37,1.91-.1,3.55-.12,5.08-.14,11.25-.58,22.55-.03,33.75-.44.01-.4.3-.43.64-1.98-.14-3.98-.21-5.97-.06l.27-39.78,5.99-.24.69-8.33c.11-1.32,2.59-5.95,2.24-7.88,1.72-.52,3.4-.37,4.97-.21Z"/>
            <path class="cls-59" d="M152.53,1.64c-.07.3-.02.71,0,1.02.04.78-.58,1.95.1,2.79.49.6,1.61.29,2.2.32,0,.81-1.1.6-1.79.61-.1.52.02,1.23-.56,1,.28-2.19-16.65-1.14-19.32-1.17l-14.68-.13c-.05-1.82-.11-3.61.12-6.04L150.77,0c.65,0,1.28.02,1.55.53.16.29.32.66.21,1.11Z"/>
            <path class="cls-76" d="M117.55,6.3c-.06.4.47.53.72.89-.08,1.84-.14,3.29-.03,4.76-1.11,1.4-3.2.25-4.9,1.15-.33,1.82-.13,3.38-.21,4.77.3,2.06-4.63.46-4.93,1.91-.4,1.95-.4,3.65-.39,5.15l-6.21.21-.68,5.47c-2.21.41-4.43.17-6.55.36l.32-5.75,6.91-.19.26-5.83,5.83-.33.29-5.92,4.78-.27c-.05-2.11-.09-3.9.14-6.03l4.63-.34Z"/>
            <path class="cls-19" d="M93.4,37.51c1.72,3.04-2.02.97-1.21,6.74.04.27,1.19.28,1.17.64-.01.3-.1.93.42,1.18l.16,5.04c.05,1.45-.81,3.12-.09,4.6l-4.98-.33c-.39-.03-1.12.34-1.03.55.08.18.73.38.63.69-.21.65-.62.62-.67.84-.09.44.89,2.36.43,2.91-.29.34-.97.61-1.34.42l-.24-5.08.27-16.76c.17-.46.62-.87.61-1.41,1.94-.46,3.9-.12,5.86-.02Z"/>
            <path class="cls-126" d="M167.38,18.28c-2.47.25-5.02.12-7.77-.16l-.13-5.49-7.06-.28c.03-1.84-.13-3.42.06-4.96.58.23.46-.48.56-1,.68,0,1.78.2,1.79-.61l3.4.19c1.05.06,1.88,1.01,3.44.58.68,1.79.23,3.42.52,5.24,1.52.22,3.01.26,5.03.35.33,2.16.15,4.16.17,6.15Z"/>
            <path class="cls-120" d="M133.16,6.23c.02,1.7-.08,3.4.12,5.09-.2.24-.07.51-.12.75-.07.35-.31.2-.58.21l.05-5.48-7.58-.11-.33,5.31c-3.52-.12-3.22.7-6.5-.03-.11-1.47-.04-2.91.03-4.76-.24-.36-.78-.5-.72-.89.32-.02.61-.2.94-.2l14.68.13Z"/>
            <path class="cls-63" d="M94.37,30.95c-.12,2.2.39,4.66-.97,6.55-1.97-.09-3.93-.44-5.86.02-.04-2.07-.17-4.22.29-6.35,2.32-.37,4.46-.04,6.55-.22Z"/>
            <path class="cls-10" d="M183.83,124.03c-1.94.07-3.84.2-5.75.59l-.31-39.74c-.01-1.4-.21-2.48-.73-3.37-.09-1.92.5-4.03-.03-5.96l-7.67-.52c-.08.35-.07.55,0,.61-1.28.02-1.1-1.8-1.23-2.81-.16-1.33.93-3.9-.2-4.88-1.77-.94-3.93-.16-5.47-.2.28,0-3.44-.33-3.49-.37-.27-.23-.72-.72-.29-1.04.14-1.73.57-3.65-.2-5.2.52-1.37.29-3.03.31-4.5,0-.33.23-.84.52-1.05,1.52-.1,3.08-.03,4.88.19.21,1.85-.24,3.45.46,5.06l5.64.51.17,6.65,6.49.26.28,6.84,6.22.33c.49,16.48.77,32.55.41,48.59Z"/>
            <path class="cls-108" d="M152.79,44.03c.35.01.71-.09.76.37.02.21.35.34.23.59l-.05,5.16c1.85.27,3.37.22,4.89-.09-.04,1.85-.36,3.91.67,5.54-.29.21-.52.71-.52,1.05-.82.03.09-.78-.19-1.14-1.95-.5-3.29-.34-4.76-.44l-.24-4.17-23.5.45c-3.39,2.6-2.8,6.76-2.89,9.79-4,.09-4.92-.69-5.25,1.07-.36-.44-1.16-.32-1.37-.88,1.1,6.03,1.93-16.96,2.01-12.17.48.28,1.9.72,2.3.21.77-.98.13-2.37.41-3.63,4.62-.33,9.33.43,14.08-.42.66-.12.55-1.72,1.8-1.68l11.62.39Z"/>
            <path class="cls-11" d="M177.56,127.67c-.49,1.05-1.58,3.01-.38,4.49.37.46.99.03,1.82.15-.84.65-.91,1.65-.7,3.2-1.65.69-3.39-.07-4.77.84-.2.13-.51.04-.53.2-.25,1.85-2.77-1.38-4.48,1.19-.48.72-.64,2.23-.1,3.05-.56,3.65-4.1.52-6.94,2.53-.41.29-.53.85-.86.91-.68.13-1.28-.9-2.46-.06-.54.38,1.34,2.04.46,2.65-.41.28-.75.04-1.15.07.06-1.17.76-2.52-.02-3.56,1.55-.17,3.08-1.81,4.97-1.9.37-1.68-.12-2.87.6-4.28s4.45-.36,5.34-1.86c.38-.64.02-1.43.08-2.06.03-.33-.16-.74-.04-1.05.55,1.02,5.73.55,6.02.23.55-.59.71-1.67.64-2.72,2.26,3.03.76-1.53,1-2.6.56.5.94.72,1.51.57Z"/>
            <path class="cls-130" d="M167.89,24.86l-.29,4.93c-2.33-.42-3.91,0-5.79.95-1.69.87-.71,3.13-1.28,4.18-.17.31-.83.12-1.17.44.09-6.18-1.25-2.59.19-9.89.49-2.5,7.14.56,8.33-1.58,0,.32.03.64,0,.97Z"/>
            <path class="cls-102" d="M183.83,124.03c-.06,2.72.17,5.5-.5,8.3-1.82.01-3.09.14-4.33-.04-.84-.12-1.45.31-1.82-.15-1.2-1.48-.11-3.44.38-4.49.42-.88.53-2.07.52-3.04,1.91-.39,3.81-.51,5.75-.59Z"/>
            <path class="cls-64" d="M157.43,143.32c.79,1.03.08,2.39.02,3.56l-3.78.26c-.3,1.67.2,3.22-.31,4.66-1-.34-2.19.28-3.08-.42.15-2.61.07-5.22.03-7.83,2.35-.09,4.78.03,7.11-.23Z"/>
            <path class="cls-91" d="M158.73,45.03l-.11,5.02c-1.52.32-3.04.37-4.89.09l.05-5.16c1.62.42,3.31.26,4.95.05Z"/>
            <path class="cls-6" d="M168.4,140.77c-.54-.83-.38-2.33.1-3.05,1.72-2.56,4.23.67,4.48-1.19.02-.16.34-.07.53-.2.41,1.07.14,2.28.19,3.56-2.39.96-5.09-.5-5.31.87Z"/>
            <path class="cls-18" d="M158.84,35.56c.21.95-.17,1.94-.16,2.87-1.33.08-2.68.26-4.4-.01-.74-.12-1.04-1.96-.36-2.48,1.36-1.05,3.37-.55,4.92-.38Z"/>
            <path class="cls-20" d="M139.03,21.29c-1.88-.73-4.1-.57-6.32-.52l-.25,3.47c-.01.2-.82.08-.82.36-3.91.17-9.09-.28-13.1.23-1.6-1.43-.64-3.46-.97-5.44l8.95-.99.22-5.89c2.17-.34,4.01-.24,5.83-.27.27,0,.51.15.58-.21.04-.23-.08-.5.12-.75.53-.06.36.47.43,1.39l16.98-.12-.03,6.18-10.75.3c-.26.88-.91,1.55-.88,2.23Z"/>
            <path class="cls-132" d="M152.79,44.03l-11.62-.39c-.98.36-.73-7.04-.43-5.63,1.14.49,3.6,1.76,4.85.28.89-2.2-.08-5.17.21-7.82l-11.13.15c-3.21.04-1.05-3.91-1.43-5.68,1.52-1.35,4.11-.37,5.91-.98.97,1.5,11.55.31,12.84,1.05,2.17,1.24-3.54,7.53-.11,12.51,1.38,2.01.56,4.3.92,6.51Z"/>
            <path class="cls-127" d="M139.03,21.29l.11,2.66c-1.8.61-4.39-.37-5.91.98-.51-.24-1.2-.21-1.58-.32,0-.29.8-.16.82-.36l.25-3.47c2.21-.05,4.43-.21,6.32.52Z"/>
            <path class="cls-122" d="M114.98,55.91c-.24,3.95.37,4.79.58,6.18.29,1.91,0,3.94-.03,6.14l-7.28.51-.28,7.27c-1.82-.25-4.3.77-5.9.18-2.53-1.21-5.35-.35-8.1-.45-2.2-.08-4.59-.94-7.23-.26.02,2.42-.89,6.56,1.04,6.99-1.68-1.22-.95,5.92-.95,6.36l-.04,5.78-7.63.19c-.55-11.2-.12-22.5.03-33.75,2.35-.28,4.72.12,7.08.05,1.97,1.47.14,2.58,1.15,5.96,2.65.7,5.17.06,7.49-.35,1.89-.34,3.88-.36,5.93-.13.39-1.58.41-3.06.17-4.4.38.15.43-.68.83-.69l5.87-.15.43-5.43c2.49-.2,4.69-.05,6.84,0Z"/>
            <path class="cls-129" d="M93.9,90.87c.38,1.36,0,2.88-.17,4.3-1.84.28-3.34-.18-5.15.49.3,1.66.21,2.86-.19,4.08l.99.31c-1.03,1.73.46,8.47-1.11,10.91-.63-.1-.84-.79-1.42-.95.35-.88-.5-1.78-.52-2.6-.04-1.82.79-3.63.14-5.69-2.44-.5-4.91-.26-7.25-.34-.12-1.92-.7-3.94-.49-5.94.04-.34-.01-.63.43-.64l7.63-.19.04-5.78c.4-.23.44.16.53.41.08.21-.07.9.1.99,2.12,1.08,4.35.42,6.43.63Z"/>
            <path class="cls-24" d="M86.66,55.7l.24,5.08c-.08.14-.32.32-.62.33-2.37.07-4.74-.33-7.08-.05.02-1.53-.25-3.17.12-5.08l7.34-.27Z"/>
            <path class="cls-141" d="M88.77,126.97c-.47,0-1.08-.18-1.45.15-1.62-1.54-3.81-.15-6.07-.88.39-3.6-.26-7.08.58-10.25.86-.05,4.95.69,4.51-.95,1.47,4.96,2.56-1.23,2.43,11.93Z"/>
            <path class="cls-46" d="M101.34,136.22c.24,1.43.02,2.88.68,4.53,1.93.3,3.78.6,5.52.46,0,.37-.14.75-.04,1.13-.31,0-.8.1-1.07.06-1.17-.2-3.45-.1-5.22-.19-.69-1.42-.35-2.92-.77-4.37l-6.18-.53-.3-4.95c1.99.37,4.11-.24,6.22.57-.34,1.72-.37,3.41,1.17,3.29Z"/>
            <path class="cls-147" d="M88.77,126.97l4.71.09c.27,1.35.96,3.62-.11,5.05-1.62-.41-3.71.24-5.71-.39-.95-.8-.51-3.4-.34-4.6.37-.33.98-.16,1.45-.15Z"/>
            <path class="cls-156" d="M131.65,24.62c.38.11,1.07.09,1.58.32.39,1.78-1.78,5.73,1.43,5.68l11.13-.15c-.29,2.65.68,5.61-.21,7.82-1.25,1.47-3.71.2-4.85-.28-1.96-.8-5.28.04-7.56-.25-.49,2.04.08,3.63-.51,5.26-2.98.42-5.99-.18-8.74,1-.49.21-.67,1.65-1.41,1.5-1.23.24-3.14-.36-4.3.31-1.36.52.69,7.68-.26,9.8-1.02.1-2.04.31-2.97.29-2.15-.05-4.35-.2-6.84,0l-.43,5.43-5.87.15c-.4.01-.45.84-.83.69.54-1.57-5.61-.93-6.91-.85l-.06,5.33c.59-.05.82-.02.86.05-2.32.41-4.84,1.05-7.49.35-1.02-3.38.82-4.49-1.15-5.96.3,0,.54-.18.62-.33.37.19,1.05-.08,1.34-.42.46-.55-.52-2.47-.43-2.91.05-.22.46-.19.67-.84.1-.31-.56-.51-.63-.69-.09-.21.64-.57,1.03-.55l4.98.33c1.15.08,2.73.25,3.9-.33.95-.47.31-2.3.34-3.22.86-.65,1.96-.09,2.95-.39.62-1.45.28-2.88.43-4.24.1-.91.95-1.37,1.54-1.94,1.41-.17,3.28.41,4.8-.27,1.22-.54.24-3.03.85-4.02.38-.61,1.8-.46,1.82-1.02.03-.83.32-1.58.28-2.52s-2.31-1.26-2.71-.3c-.35.83.35,2.4-.4,2.72-1.94.83-4.02,0-6.09.38-.2,1.43-.18,2.72-.15,3.95-.47-.24-.46.72-.96.76l-6.36.02c-.17.14-.22.64-.31.79-.52-.25-.43-.88-.42-1.18.02-.37-1.14-.38-1.17-.64-.81-5.77,2.93-3.7,1.21-6.74,1.37-1.89.85-4.35.97-6.55,2.11-.19,4.34.06,6.55-.36l.68-5.47,6.21-.21c.02,1.44.17,2.79.34,4.65.64-1.73,1.39-2.53,3-2.99,1.25-.36,6.91-1.67,7.4-1.73,4.01-.51,9.19-.06,13.1-.23Z"/>
            <path class="cls-112" d="M132.58,12.26c-1.82.04-3.66-.06-5.83.27l-.22,5.89-8.95.99c-.19-1.68-3.23.49-4.45-1.55.07-1.39-.12-2.95.21-4.77,1.7-.9,3.79.25,4.9-1.15,3.28.73,2.98-.08,6.5.03l.33-5.31,7.58.11-.05,5.48Z"/>
            <path class="cls-96" d="M117.58,19.41c.33,1.98-.63,4.01.97,5.44-.49.06-6.16,1.37-7.4,1.73-1.61.46-2.36,1.27-3,2.99-.16-1.86-.32-3.22-.34-4.65s-.02-3.2.39-5.15c.3-1.45,5.23.15,4.93-1.91,1.23,2.04,4.26-.13,4.45,1.55Z"/>
            <path class="cls-80" d="M101.47,47.53c-.15,1.35.19,2.78-.43,4.24-.99.3-2.09-.26-2.95.39-.03.92.62,2.75-.34,3.22-1.17.58-2.75.41-3.9.33-.73-1.48.13-3.15.09-4.6.8.04,2.6.76,3.21-.14.71-1.04-.15-2.5.3-3.75,1.42-.12,2.87-.24,4.02.3Z"/>
            <path class="cls-60" d="M103.01,45.59c-.59.57-1.44,1.03-1.54,1.94-1.15-.54-2.61-.43-4.02-.3-.44,1.25.41,2.71-.3,3.75-.61.89-2.41.18-3.21.14l-.16-5.04c.09-.15.14-.65.31-.79l6.36-.02c.5-.05.48-1,.96-.76.1.35.16.75.42.84.39.14.86.29,1.18.25Z"/>
            <path class="cls-87" d="M131.91,152.44l.51,5.33c.06.61.97.93.72,1.61-.08.22.07.51.25.52s.59-.25.78.06c.08.27-.11.45-.27.44-2.11-.15.55,1.7-.57,4.27l-6.59-.34c-.37-2.13.82-4.73-.75-6.48.24-1.84.06-3.77.58-5.56,1.79-.19,3.56-.13,5.35.15Z"/>
            <path class="cls-140" d="M145.2,150.35c-.04.23.17.42.17.62l-.04,4.87c0,.73.57,1.33.44,1.91-.57.09-1.91.59-2.08,1.13,1.12-1.4-4.59-.71-7.49-1.01-1.65-.17-2.23.5-3.07,1.5.25-.67-.66-1-.72-1.61l-.51-5.33c-.06-.58.23-1.12.19-1.69l13.09-.4Z"/>
            <path class="cls-26" d="M143.7,158.88c-.29.97-1.24,1.16-2.27,1.67-.77.9-.36,2.54-.84,3.82-1.28.53-4.43,1.18-4.72-.22l-.83-4.11c-.07-.33-.68.25-.88-.07s-.6-.04-.78-.06-.33-.3-.25-.52c.83-1,1.42-1.67,3.07-1.5,2.9.3,8.61-.39,7.49,1.01Z"/>
            <path class="cls-113" d="M150.32,143.55c.04,2.61.12,5.22-.03,7.83-.3.48-.83.8-.89,1.41-1.45-.43-2.52-1.62-4.02-1.82,0-.2-.21-.39-.17-.62.33-2.23.28-4.51.18-6.76,1.53.18,3.39.03,4.94-.03Z"/>
            <path class="cls-92" d="M149.39,152.79c1.74,2.12-2.7,4.82-3.61,4.96.13-.58-.45-1.18-.44-1.91l.04-4.87c1.5.2,2.58,1.39,4.02,1.82Z"/>
            <path class="cls-62" d="M178.08,124.62c0,.97-.11,2.16-.52,3.04-.57.15-.95-.08-1.51-.57-.24,1.07,1.27,5.64-1,2.6.07,1.05-.09,2.13-.64,2.72-.29.31-5.47.78-6.02-.23.49-1.3.49-3.42,1.6-4.51,1.18-.88,3.11-.12,4.51-.73l-.58-23.43c-.02-.92-.09-1.96-.87-2.17.69-1.87.76-4.3.04-6.16,1.44.75,1-3.36,1.23-4.19.2-.69.1-1.41.07-2.13-.1-2.4,1-4.7.72-7.06.39.29,1.57.02,1.93-.28.52.89.72,1.97.73,3.37l.31,39.74Z"/>
            <path class="cls-149" d="M168.11,72.84c.12,1.01-.05,2.83,1.23,2.81s.12,4.51,1.59,5.1c1.36.55,3.48-.05,4.18,1.06.28,2.36-.83,4.65-.72,7.06-.74.04-.28-1.16-.59-1.39l-5.4-1.03c.43-1.02-1.52-.33-1.58-.95l-.58-6.22c-.09-1-1.72-.76-2.23-1.08-1.8-1.15-.67-3.87-1.25-4.99,1.79.06,3.62.18,5.35-.37Z"/>
            <path class="cls-42" d="M177.05,81.52c-.36.3-1.54.58-1.93.28-.7-1.11-2.83-.51-4.18-1.06-1.47-.59-.34-5.12-1.59-5.1-.06-.06-.08-.26,0-.61l7.67.52c.53,1.93-.06,4.04.03,5.96Z"/>
            <path class="cls-150" d="M168.11,72.84c-1.73.55-3.56.43-5.35.37-.76-1.43-.82-3.51-.32-5.45,1.55.04,3.7-.74,5.47.2,1.13.99.04,3.56.2,4.88Z"/>
            <path class="cls-83" d="M158.76,56.64c-.02,1.47.21,3.13-.31,4.5l-3.96.04c-.25.31-.33.64-.57.5-.09-.41-.31-.5-.66-.62-.03-.14-.02-.27,0-.41.15-1.86.66-3.72.55-5.59,1.47.1,2.81-.06,4.76.44.27.35-.63,1.17.19,1.14Z"/>
            <path class="cls-148" d="M158.46,61.14c.77,1.55.34,3.47.2,5.2-1.16.2-3.05.44-4.11-.45-1.18-.99-.36-2.97-.61-4.21.24.13.32-.19.57-.5l3.96-.04Z"/>
            <path class="cls-35" d="M120.57,61.32c.21.56,1.01.44,1.37.88-.23,1.23-.02,3.63-.03,4.99,0,.26.22.48-.15.61-1.61.39-3.46-.21-5.13.51-.99.43-.56,2.01-.88,2.93l-1.49,4.31-5.83.62-.44,5.65c-1.38.68-3.1-.04-4.44.72s-1.04,2.91-1.47,3.95c-.72,1.73-3.15.24-3.31,3.28l-4.37.59c-1.31-2.12.11-4.79-.54-7.15l7.77-.63.43-6.39c1.61.6,4.09-.42,5.9-.18l.28-7.27,7.28-.51c.03-2.2.32-4.23.03-6.14,1.36-1.19,3.3-.39,5-.78Z"/>
            <path class="cls-110" d="M153.82,55.06c.11,1.87-.4,3.73-.55,5.59-1.22.36.25-3.17-.56-4.54-.89-1.51-5.73-1.17-6.4-.43-4.2-1.37-9.18-.17-13.74-.42l-.38,5.48c-1.71.46-3.41.36-5.01.4.09-3.03-.5-7.19,2.89-9.79l23.5-.45.24,4.17Z"/>
            <path class="cls-85" d="M140.74,38.01c-.29-1.4-.55,5.99.43,5.63-1.25-.04-1.14,1.56-1.8,1.68-4.75.85-9.46.1-14.08.42-.28,1.25.36,2.65-.41,3.63-.4.51-1.82.07-2.3-.21l-.06-3.64c.75.15.93-1.29,1.41-1.5,2.75-1.17,5.76-.58,8.74-1,.59-1.64.01-3.22.51-5.26,2.27.29,5.6-.54,7.56.25Z"/>
            <path class="cls-23" d="M122.52,45.51l.06,3.64c-.08-4.79-.91,18.2-2.01,12.17-1.7.39-3.64-.41-5,.78-.21-1.39-.82-2.23-.58-6.18.93.02,1.95-.18,2.97-.29.95-2.13-1.1-9.28.26-9.8,1.16-.67,3.07-.07,4.3-.31Z"/>
            <path class="cls-128" d="M127.18,61.13c-.06,1.9.37,3.81-.13,5.84-1.77.36-3.49.41-5.14.21,0-1.35-.2-3.76.03-4.99.33-1.75,1.24-.98,5.25-1.07Z"/>
            <path class="cls-45" d="M168.43,133.23c-.05.63.31,1.41-.08,2.06-.9,1.5-4.6.42-5.34,1.86s-.24,2.59-.6,4.28c-1.89.09-3.42,1.72-4.97,1.9-2.34.26-4.76.14-7.11.23-1.55.06-3.41.21-4.94.03-4.41-.52-8.87.32-13.2.17l-14.33-.53c-1.31-.05-2.63-.62-3.83-.45.04-.22-.03-.52-.48-.51l-6.05.08c-.1-.38.04-.76.04-1.13,2.15-.17,4.42.33,6.75.32l22.03-.05c5.05-.01,10.21.37,15.08-1.11,1.45-.44,2.41-1.86,4.53-1.19.6.19,1.94-.17,2.38-.62.32-.33.12-1.41.97-1.64,1.07-.28,1.98-.25,2.89-.55.77-.25.4-1.76,1.1-2.16,1.59-.91,3.57-.52,5.14-.99Z"/>
            <path class="cls-72" d="M102.07,76.19l-.43,6.39-7.77.63c-.09-.32-.11-.49-.5-.51-.14-.25.16-.34.56-.5.41-2.24.35-4.39.05-6.46,2.74.1,5.57-.76,8.1.45Z"/>
            <path class="cls-119" d="M87.78,82.48c1.84.41,3.73.12,5.59.23.39.02.42.19.5.51.65,2.36-.76,5.03.54,7.15.08.43-.14.54-.51.5-2.08-.21-4.31.45-6.43-.63-.17-.09-.02-.78-.1-.99-.09-.25-.14-.64-.53-.41,0-.44-.73-7.58.95-6.36Z"/>
            <path class="cls-99" d="M93.97,75.74c.3,2.07.36,4.22-.05,6.46-.39.16-.69.24-.56.5-1.86-.11-3.74.19-5.59-.23s-1.02-4.57-1.04-6.99c2.64-.68,5.03.18,7.23.26Z"/>
            <path class="cls-71" d="M101.02,62.19c.24,1.34.22,2.82-.17,4.4-2.05-.23-4.04-.2-5.93.13-.04-.07-.27-.1-.86-.05l.06-5.33c1.29-.08,7.45-.72,6.91.85Z"/>
            <path class="cls-166" d="M121.76,67.79c.95,3.51-.67,6.82-3.31,9.49-.39.4-.06,1.34-.54,1.61-1.41.79-2.12-.32-3.36.22-.75.33-.37,1.78-.78,2.68-.17.37-1.22.16-1.54.71l-1.86,3.22c-.31.53-1.58.05-2.05.81-.32.51-.41,1.43-.74,2.46-.52,1.65-3.11,1.29-4.59,1.47l-.85,4.11c-1.8.44-4-.31-5.8.54-.53.25-.84,1.61-1.87,1.44-.98.97.02,2.72-.99,3.54l-4.11-.03-.99-.31c.4-1.22.5-2.42.19-4.08,1.81-.67,3.31-.2,5.15-.49.17-1.43.54-2.95.17-4.3.37.04.59-.07.51-.5l4.37-.59c.16-3.04,2.59-1.55,3.31-3.28.43-1.04.17-3.22,1.47-3.95s3.06-.04,4.44-.72l.44-5.65,5.83-.62,1.49-4.31c.32-.92-.11-2.5.88-2.93,1.67-.73,3.53-.13,5.13-.51Z"/>
            <path class="cls-117" d="M93.48,100.09c.69,5.64.09,11.38-.03,17.01-1.47-.07-2.98-.06-4.69-.44.24-2.12.17-4.19-.49-5.68,1.57-2.45.08-9.18,1.11-10.91l4.11.03Z"/>
            <path class="cls-33" d="M88.27,110.97c.66,1.49.72,3.56.49,5.68,1.71.39,3.22.37,4.69.44-.07,3.01,1.12,7.03.03,9.97l-4.71-.09c.13-13.16-.96-6.97-2.43-11.93-.41-1.38-.77-2.62.55-4.05.19-.21-.14-.75-.05-.98.58.16.79.85,1.42.95Z"/>
            <path class="cls-164" d="M167.88,86.42c-.23.3.28.45.46.66.11,1.13-.13,2.24.11,3.31-5.29.37-10.56.18-16.18.16-.3-1.57-.35-2.81.08-4.08l15.53-.05Z"/>
            <path class="cls-56" d="M153.26,60.65c-.01.14-.02.28,0,.41-.56-.19-1.02.27-1.5.03-.37-.18-.45-.99-.88-1.08l-3.68-.74c-1.18-.24-.53-2.6-.89-3.6.67-.74,5.51-1.07,6.4.43.81,1.37-.67,4.9.56,4.54Z"/>
            <path class="cls-68" d="M107.54,141.21c-1.74.14-3.59-.17-5.52-.46-.66-1.65-.44-3.1-.68-4.53,1.95-.26,3.97-.33,6.12.02.12,1.87.07,3.41.07,4.97Z"/>
            <path class="cls-1" d="M174.39,88.86c.03.73.12,1.44-.07,2.13-1.88-.09-3.97-.73-5.87-.6-.25-1.07,0-2.18-.11-3.31-.18-.21-.69-.36-.46-.66.2,0,.32-.01.52.03l5.4,1.03c.31.22-.15,1.43.59,1.39Z"/>
            <path class="cls-155" d="M132.18,143.75c-.27,2.32-.2,4.67-.07,7,.03.57-.25,1.11-.19,1.69-1.79-.28-3.56-.34-5.35-.15-1.72-.96-4.05.01-4.03-1.46-.21-1.19.42-2.45,0-3.79-1.39-.57-2.89.31-4.22-.57.09-1.06.25-2.07-.2-2.55-.75-.8-4.41.48-4.1-1.15,1.19-.17,2.52.4,3.83.45l14.33.53Z"/>
            <path class="cls-28" d="M103.01,45.59c-.32.04-.8-.11-1.18-.25-.26-.09-.32-.49-.42-.84-.02-1.23-.05-2.52.15-3.95,2.08-.37,4.15.45,6.09-.38.75-.32.05-1.89.4-2.72.4-.96,2.67-.62,2.71.3s-.24,1.69-.28,2.52c-.02.57-1.45.41-1.82,1.02-.61.99.36,3.48-.85,4.02-1.52.68-3.39.11-4.8.27Z"/>
            <path class="cls-5" d="M145.38,143.59c.1,2.26.16,4.53-.18,6.76l-13.09.4c-.13-2.33-.19-4.69.07-7,4.33.16,8.79-.69,13.2-.17Z"/>
            <g>
              <path class="cls-55" d="M173.09,95.18c.72,1.86.65,4.29-.04,6.16-1.25-.07-2.58-.19-3.93.17l-.18,10.68-16.83-.07c.27-4.52-.6-9.46.58-13.33,2.13.6,3.66-.88,4.22-2.88.26-.56,1.07-.99,1.94-.97l14.24.25Z"/>
              <path class="cls-4" d="M162.58,100.95c-.05,2.21-.98,3.35-2.99,3.42s-2.81-1.26-2.94-3.43c-.12-2.01,1.07-3.56,2.94-3.54,2,.02,3.04,1.47,2.99,3.55Z"/>
            </g>
            <g>
              <path class="cls-134" d="M146.31,55.68c.36,1-.29,3.36.89,3.6l3.68.74c.44.09.51.9.88,1.08.49.24.94-.22,1.5-.03.35.12.58.2.66.62.26,1.25-.57,3.22.61,4.21,1.06.89,2.95.65,4.11.45-.43.32.02.81.29,1.04.05.04,3.77.38,3.49.37-.49,1.94-.44,4.02.32,5.45.59,1.13-.55,3.84,1.25,4.99.51.33,2.14.08,2.23,1.08l.58,6.22c.06.62,2.01-.07,1.58.95-.21-.04-.33-.03-.52-.03l-15.53.05c-.43,1.27-.38,2.51-.08,4.08,5.62.02,10.89.21,16.18-.16,1.9-.13,3.99.51,5.87.6-.23.82.21,4.94-1.23,4.19l-14.24-.25c-.87-.02-1.69.41-1.94.97-1.09-.42-2.56-.27-3.76,0-1.38.31-.46,2.07-.46,2.89-1.19,3.88-.31,8.82-.58,13.33l16.83.07.18-10.68c1.35-.36,2.68-.24,3.93-.17.78.21.85,1.25.87,2.17l.58,23.43c-1.4.61-3.33-.15-4.51.73-1.11,1.08-1.11,3.2-1.6,4.51-.12.31.07.71.04,1.05-1.57.47-3.55.08-5.14.99-.7.4-.33,1.92-1.1,2.16-.92.29-1.82.27-2.89.55-.86.22-.65,1.31-.97,1.64-.45.45-1.79.81-2.38.62-2.12-.67-3.09.75-4.53,1.19-4.87,1.48-10.04,1.1-15.08,1.11l-22.03.05c-2.33,0-4.6-.5-6.75-.32,0-1.56.05-3.11-.07-4.97-2.16-.35-4.17-.28-6.12-.02-1.54.12-1.51-1.57-1.17-3.29-2.1-.81-4.23-.2-6.22-.57-.21-.04-.4-.19-.58-.24,1.07-1.43.38-3.7.11-5.05,1.09-2.95-.1-6.96-.03-9.97.13-5.63.73-11.36.03-17.01,1.01-.82,0-2.56.99-3.54,1.03.17,1.34-1.19,1.87-1.44,1.8-.84,4-.1,5.8-.54l.85-4.11c1.48-.18,4.07.18,4.59-1.47.33-1.03.42-1.95.74-2.46.47-.76,1.75-.28,2.05-.81l1.86-3.22c.32-.55,1.37-.34,1.54-.71.41-.9.03-2.35.78-2.68,1.24-.55,1.95.57,3.36-.22.48-.27.15-1.21.54-1.61,2.64-2.68,4.26-5.99,3.31-9.49.37-.13.15-.35.15-.61,1.65.2,3.37.15,5.14-.21.5-2.03.08-3.94.13-5.84,1.6-.03,3.3.06,5.01-.4l.38-5.48c4.56.25,9.54-.94,13.74.42Z"/>
              <g>
                <path class="cls-39" d="M143.84,131.76l-11.39.07c-.3-1.65-.16-3.14-.04-4.99l11.52.03c.14,1.73.05,2.82-.09,4.88Z"/>
                <path class="cls-57" d="M109.21,121.41c-.07.52-1.23.67-1.58.5-.93-.94-2.94-.41-4.19-.82s-1.12-2.83-.88-4.01c.28-1.39,2.04-.71,2.85-.68,1.54.07,2.68-.67,3.96.32-.1,1.39.11,2.79-.16,4.69Z"/>
                <path class="cls-41" d="M169.77,120.9c-2.28.5-4.07.18-6.4.24-.29-1.76-.19-3.15.21-4.87l6.25.22c-.44,1.5-.39,2.68-.06,4.41Z"/>
                <path class="cls-158" d="M140.16,113.8c-.03.45-3.93,3-5.27,3.91-.68-1.51-.4-3.34-.14-4.93,2.37-.02,5.54-1.03,5.41,1.02Z"/>
                <path class="cls-73" d="M156.91,95.91c-.56,2-2.09,3.48-4.22,2.88,0-.82-.92-2.58.46-2.89,1.2-.27,2.67-.42,3.76,0Z"/>
                <g>
                  <path class="cls-115" d="M107.4,111.58c-1.11-.07-3.49,1-4.38-.07-.54-1.41-.36-3.36-.15-4.54-.31,1.74,3.6.19,4.37,1.24.73.98-.16,2.36.17,3.37Z"/>
                  <path class="cls-118" d="M107.43,95.51c.67,1.15.14,3.09-1.41,3.49-.96.25-1.89.14-2.55.04-.82-.75-.96-3.37-.13-3.4l4.1-.13Z"/>
                  <path class="cls-138" d="M120.68,98.68c-.64-.11-2.2.66-2.7-.15-.68-1.1-.51-2.53-1.42-3.39,1.14.12,2.74-.48,3.91.28s.58,2.35.22,3.25Z"/>
                  <g>
                    <path class="cls-142" d="M116.56,95.14c.91.86.74,2.29,1.42,3.39.5.81,2.06.03,2.7.15,1.8-2.44.9,12.79.92,13.47-4.62-.19-10.22.2-14.19-.56-.33-1.01.56-2.39-.17-3.37-.77-1.05-4.68.5-4.37-1.24.45-2.63-.65-5.48.59-7.94.66.1,1.6.21,2.55-.04,1.56-.4,2.08-2.34,1.41-3.49,3.14-.83,6.2-.67,9.13-.37Z"/>
                    <path class="cls-44" d="M113.83,100.22c.04,1.44.05,2.81-.84,3.49s-2.23.82-3.44.43-1.38-1.74-1.4-3.15c-.02-1.77.62-3.19,2.11-3.39,1.77-.23,3.51.16,3.58,2.62Z"/>
                  </g>
                </g>
              </g>
            </g>
          </g>
        </g>
      </g>
    </g>
  </g>
</svg>