<?xml version="1.0" encoding="UTF-8"?>
<svg id="_レイヤー_2" data-name="レイヤー 2" xmlns="http://www.w3.org/2000/svg" viewBox="0 0 265.24 431.73">
  <defs>
    <style>
      .cls-1 {
        fill: #e5e5ec;
      }

      .cls-2 {
        fill: #f1bda8;
      }

      .cls-3 {
        fill: #928a9e;
      }

      .cls-4 {
        fill: #7e7389;
      }

      .cls-5 {
        fill: #796775;
      }

      .cls-6 {
        fill: #978fa5;
      }

      .cls-7 {
        fill: #6d5d72;
      }

      .cls-8 {
        fill: #cccad6;
      }

      .cls-9 {
        fill: #e5e5ed;
      }

      .cls-10 {
        fill: #928aa0;
      }

      .cls-11 {
        fill: #706176;
      }

      .cls-12 {
        fill: #c99c93;
      }

      .cls-13 {
        fill: #90889d;
      }

      .cls-14 {
        fill: #e2ab9b;
      }

      .cls-15 {
        fill: #9e97ad;
      }

      .cls-16 {
        fill: #64556a;
      }

      .cls-17 {
        fill: #fefefe;
      }

      .cls-18 {
        fill: #de998f;
      }

      .cls-19 {
        fill: #f9dfc5;
      }

      .cls-20 {
        fill: #f3c8b0;
      }

      .cls-21 {
        fill: #978fa3;
      }

      .cls-22 {
        fill: #b9b4c4;
      }

      .cls-23 {
        fill: #e8e8ef;
      }

      .cls-24 {
        fill: #f5cdb1;
      }

      .cls-25 {
        fill: #d9dae4;
      }

      .cls-26 {
        fill: #7f7388;
      }

      .cls-27 {
        fill: #f8d9bf;
      }

      .cls-28 {
        fill: #8b8299;
      }

      .cls-29 {
        fill: #e5e6ed;
      }

      .cls-30 {
        fill: #dddde6;
      }

      .cls-31 {
        fill: #e7ba80;
      }

      .cls-32 {
        fill: #d2d1de;
      }

      .cls-33 {
        fill: #afaabd;
      }

      .cls-34 {
        fill: #91899d;
      }

      .cls-35 {
        fill: #e9af9d;
      }

      .cls-36 {
        fill: #fcfdfd;
      }

      .cls-37 {
        fill: #dd9c8e;
      }

      .cls-38 {
        fill: #c8c5d2;
      }

      .cls-39 {
        fill: #eff0f5;
      }

      .cls-40 {
        fill: #82798d;
      }

      .cls-41 {
        fill: #7a6e84;
      }

      .cls-42 {
        fill: #66586b;
      }

      .cls-43 {
        fill: #cfafac;
      }

      .cls-44 {
        fill: #886f74;
      }

      .cls-45 {
        fill: #8a8096;
      }

      .cls-46 {
        fill: #796d83;
      }

      .cls-47 {
        fill: #dad9e4;
      }

      .cls-48 {
        fill: #9f98ac;
      }

      .cls-49 {
        fill: #8f879c;
      }

      .cls-50 {
        fill: #dcdce5;
      }

      .cls-51 {
        fill: #877d93;
      }

      .cls-52 {
        fill: #8b8298;
      }

      .cls-53 {
        fill: #f6ccb4;
      }

      .cls-54 {
        fill: #e3e2ea;
      }

      .cls-55 {
        fill: #a09aae;
      }

      .cls-56 {
        fill: #d5d5e0;
      }

      .cls-57 {
        fill: #887e8f;
      }

      .cls-58 {
        fill: #eeb5a2;
      }

      .cls-59 {
        fill: #736271;
      }

      .cls-60 {
        fill: #e8ae9c;
      }

      .cls-61 {
        fill: #d8d8e3;
      }

      .cls-62 {
        fill: #938a9e;
      }

      .cls-63 {
        fill: #a29bae;
      }

      .cls-64 {
        fill: #7c6672;
      }

      .cls-65 {
        fill: #63546a;
      }

      .cls-66 {
        fill: #a29bb0;
      }

      .cls-67 {
        fill: #aa878f;
      }

      .cls-68 {
        fill: #958ca1;
      }

      .cls-69 {
        fill: #d8d7e2;
      }

      .cls-70 {
        fill: #8e859a;
      }

      .cls-71 {
        fill: #eec2ac;
      }

      .cls-72 {
        fill: #d7d6e1;
      }

      .cls-73 {
        fill: #cb9189;
      }

      .cls-74 {
        fill: #f8d5ba;
      }

      .cls-75 {
        fill: #dadae6;
      }

      .cls-76 {
        fill: #f2c1ab;
      }

      .cls-77 {
        fill: #897e95;
      }

      .cls-78 {
        fill: #6a5b6e;
      }

      .cls-79 {
        fill: #9e96ac;
      }

      .cls-80 {
        fill: #d5d4df;
      }

      .cls-81 {
        fill: #7b6f83;
      }

      .cls-82 {
        fill: #dddce6;
      }

      .cls-83 {
        fill: #91889d;
      }

      .cls-84 {
        fill: #c7c4d3;
      }

      .cls-85 {
        fill: #928a9f;
      }

      .cls-86 {
        fill: #dfdfe9;
      }

      .cls-87 {
        fill: #766371;
      }

      .cls-88 {
        fill: #68596d;
      }

      .cls-89 {
        fill: #836b76;
      }

      .cls-90 {
        fill: #66576c;
      }

      .cls-91 {
        fill: #b5afbf;
      }

      .cls-92 {
        fill: #988fa4;
      }

      .cls-93 {
        fill: #958ca2;
      }

      .cls-94 {
        fill: #f1bba7;
      }

      .cls-95 {
        fill: #63556a;
      }

      .cls-96 {
        fill: #e0e1e8;
      }

      .cls-97 {
        fill: #958da3;
      }

      .cls-98 {
        fill: #7b6f85;
      }

      .cls-99 {
        fill: #82788d;
      }

      .cls-100 {
        fill: #fcfcfd;
      }

      .cls-101 {
        fill: #e8e9ef;
      }

      .cls-102 {
        fill: #766472;
      }

      .cls-103 {
        fill: #847b91;
      }

      .cls-104 {
        fill: #948ca2;
      }

      .cls-105 {
        fill: #b2acbe;
      }

      .cls-106 {
        fill: #e7e8ef;
      }

      .cls-107 {
        fill: #968ea3;
      }

      .cls-108 {
        fill: #c0bccb;
      }

      .cls-109 {
        fill: #ebb6a1;
      }

      .cls-110 {
        fill: #7c6875;
      }

      .cls-111 {
        fill: #cac8d4;
      }

      .cls-112 {
        fill: #e19e8e;
      }

      .cls-113 {
        fill: #8e849b;
      }

      .cls-114 {
        fill: #65566b;
      }

      .cls-115 {
        fill: #897f94;
      }

      .cls-116 {
        fill: #f1bea8;
      }
    </style>
  </defs>
  <g id="_レイヤー_1-2" data-name="レイヤー 1">
    <g id="_生成オブジェクト" data-name="生成オブジェクト">
      <path class="cls-111" d="M143.27,416l.24,7.29,40.56-.08c.14-2.62.29-4.69.24-6.8,3,.06,6.45-.89,9.52.09,1.73.55,2.91.82,4.77.81,6.9-.07,13.67-.23,20.58.06l10.73.45c.94.04,2.02,1.59,7.59,2.14,4.56.45,9.06-.63,13.48.36,5.3,1.18,7.41-.03,9.12,1.61.26.25,1.17-.3,1.5.08.65.76,3.84-.04,3.66,1.89-.14,1.46.33,2.55-1.03,3.19s-3.01-.41-4.2,0c-2.52.87-12.81.79-15.25,1.57-3.09.99-6.67.29-10.04.27-1.83-.01-3.18.79-4.75.84l-9.82.32c-1.17.04-2.45.49-3.57.52l-19.8.55c-1.91.05-3.59.58-5.79.58l-126.76-.03c-5.77,0-16.74-.29-21.12-1.51-2.3-.64-6.93.47-13.46-1.08-2.85-.68-5.97.51-8.5-.46-4.13-1.59-7.43.09-14.26-.91-2.1-.31-4.93.53-6.66-1.87-.39-.55-.29-2.39.22-2.71,1.21-.12,2.48-.84,3.71-.83h3.95c-2.01,0,13.21-1.3,12.93-1.27,2.51-.28,4.93-.28,7.73,0,.56-.48,1.17-1.4,1.21-2.66,2.52-.42,4.74.18,7.17-.41,3.94-.96,8.24.07,12.46-.55,3.05-.44,15.13-.44,14.96-.14l.53-.94,7.24.09c-.13,2.08.08,4.19.22,6.83l43.27.03.3-7.31c4.23-1.03,17.74-.93,22.41-.46l4.73.48Z"/>
      <g>
        <g>
          <path class="cls-63" d="M64.59,291.01l.12,91.85,71.04.04,24.89-.1,30.86.02c-.03,1.22-.11,2.45,0,3.66l-32.33.14-94.32-.11c0-1.01-.13-2.09-.21-3.3l-7.24-.19v-85.39c0-.53-.04-.77-.19-.93-.13-.13-.43-.09-.61-.14-.21-.3.09-.49.8-.45-.1-1.7.43-3.52-.24-5.14.11-.17.23-.33.42-.41,2.33.4,4.64.6,7.01.45Z"/>
          <path class="cls-81" d="M191.51,386.49c2.31,0,4.7.36,6.98.03-.24,1.71.29,3.47-.18,5.31l-24.35.07c-.19.16-.21.73-.34.77-.23-.13-.33-.56-.37-.73-.1-.36-.53-.08-.79-.12-1.11-.17-2.33-.38-3.63.14l-.22,8.57c-2.62.6-5.08.21-7.62.33-.64,1.65-.21,3.19-.41,5.05-1.33,1.26-3.88.32-6.04.79-1.55-1.4.65-10-.19-14.76-3.71-.61-6.92-.05-10.52-.2-.19.66.26,1.29-.4,1.37-.18-.16-.04-.54-.22-1.19l-26.93-.03c-.24,0-.07.74-.25.75-.52-1.8-3.17-.65-4.12-.83-2.02-.39-4.1-.27-6.58-.02l-.3,8.91c-5.86.93-7.94-1.11-14.18.96-.33.11-.96.02-1.2-.08-.19-.08-.27-.15-.34-.49l-.37-8.98c-.5-.78-2.73-.49-3.36-.02l-20.57-.26c-.5-1.96-.18-3.67-.18-5.31l94.32.11,32.33-.14Z"/>
          <path class="cls-40" d="M42.24,209.49c-.19,1.84.07,3.7.07,5.52l-.1,52.59.32,5.64c.11,1.94-.61,4.07-.04,6.03.1.35.03.57,0,.92-.46.04-.37-.44-.45-.8l-7.01-.17v-70.22c1.09-.17,7.93-.54,7.21.48Z"/>
          <path class="cls-3" d="M199.59,295.71c1.21-.21,2.35,1.05,3.14-.05.03.37-.11.9.48,1l-.07,89.2-4.64.66c-2.28.33-4.68-.04-6.98-.03-.12-1.21-.04-2.44,0-3.66l4.35-.11c.77-.02,1.53.11,2.69-.22l-.02-84.87c0-1.1.22-1.97,1.07-1.92Z"/>
          <path class="cls-46" d="M203.2,296.66c-.59-.09-.45-.62-.48-1l-.35-4.75c2.79-.05,5.58.02,8.57-.21.24-1.77.47-3.33.46-5.09.86-.2,1.4-.04,2.37-.15.72-1.09-.66-8.2,1.2-6.24,1.7-.04,3.52.11,5.41-.14l.04-5.54c.01-1.87.01-3.67.12-5.54.71-12.21.14-24.57.12-36.86l6.68.24-.04,47.82-6.59.13-.34,6.26-6.32.22-.46,10.75-10.41.08Z"/>
          <path class="cls-34" d="M213.93,208.02c-.53.09-.37.85-.85,1.05-1.91.3-3.89.07-6.1,0l-.16-23.19c-1.28-.53-2.48.23-3.34-.5-.47-.4-.54-1.39-1.34-1.62-.99-.29-2.87.01-3.56-.95-.84-1.18-.02-3.03-.38-4.27.43-.4,1-.8,1.35-1.27,1.05.22,2.7-.63,3.61.36.53.57.1,1.72.73,1.96.48.18,1.56-.09,1.82.22.94,1.12.61,2.86.6,4.27-.02,2.94,4.71,1.28,7.6,1.79v22.15Z"/>
          <path class="cls-99" d="M220.67,231.15l-6.24.12c-.47,0-.38-.84-.42-1.18l.02-20.51c-.46-.13-.97.01-.95-.51.47-.2.32-.96.85-1.05.31.31-.34.52-.06,1.07l6.77-.03.04,22.09Z"/>
          <path class="cls-52" d="M43.51,190.66l4.19.11c.52.01,1.7.2,1.85.89-.26,5.77.22,11.58-.37,17.32-2.19-.06-4.4-.19-6.58.06-.3-1.96-.48-17.79.24-18.38.17-.14.42-.15.66,0Z"/>
          <path class="cls-4" d="M49.71,285.52c.44,1.53.03,3.21.22,5.2l7.23.25c.67,1.61.14,3.44.24,5.14-.71-.04-1.01.15-.8.45l-6.74-.16-.2-5.51-7.02-.15c-.46-1.7-.06-3.36-.07-4.92l4.22.1c1.02.02,1.75-.24,2.18-.93-.04.41.41.48.73.52Z"/>
          <path class="cls-82" d="M49.18,208.98c-.21,2.05.78,4.21-.14,6.52-2.23-.02-4.66.1-6.74-.48,0-1.82-.25-3.69-.07-5.52.33.18.57-.15.36-.45,2.18-.25,4.39-.11,6.58-.06Z"/>
          <path class="cls-11" d="M48.98,285c-.43.69-1.17.95-2.18.93l-4.22-.1c-.02-1.86-.32-3.76-.1-5.63.04-.35.11-.57,0-.92l6.51.14v5.58Z"/>
          <path class="cls-33" d="M56.9,185.63c.21,1.52.24,3.11.02,5.02l-6.37.08c-.37,0-.78.13-.95.26-.14.1.1.48-.06.66-.15-.69-1.33-.88-1.85-.89-.17-.73.37-.39,1.24-.1.56-1.17.37-2.22.26-3.26-.09-.82.25-1.59.85-1.92,2.27.34,4.56.17,6.86.15Z"/>
          <path class="cls-49" d="M57.21,179.88c-.31.86-.05,2.4-.04,3.32,0,.81-.37,1.62-.26,2.43-2.29.03-4.59.2-6.86-.15l.05-5.63c2.55-.08,4.85-.26,7.11.03Z"/>
          <path class="cls-32" d="M64.24,178.51c.52,1.17.64,3.04.26,4.71-2.56.42-4.94-.14-7.34-.02,0-.91-.27-2.46.04-3.32.19-.33,1.12-.7.76-1.34,2.08-.1,4.2-.31,6.27-.03Z"/>
          <path class="cls-100" d="M49.19,187.41c.11,1.04.31,2.09-.26,3.26-.87-.29-1.41-.63-1.24.1l-4.19-.11c0-.85-.57-2.79.25-3.33,1.71-.95,3.77-.38,5.44.08Z"/>
          <path class="cls-8" d="M184.67,216.4l-.14,7.58-.11,31.37c-.01,2.93.61,5.87.07,8.3-.28,1.29-.14,2.52-.09,4.01.08,2.36-1.32,6.21.6,5.99s3.81.3,5.68-.15c.26-.06.33.02.55.05-.22,3.97.22,7.96.22,11.92l-.09,96.38c2.47.39,5.05-.61,4.49.86l-4.35.11-30.86-.02-24.89.1-71.04-.04-.12-91.85.36-5.32,6.71-.44c-.07-.57-.02-.81.1-.83l.42,80.96c.02,3.23-.3,6.11.34,9,3.79.43,7.84-.22,11.24-.53l31.88.54.14-56.92,4.22-.34.07-43.87c1.81.25,3.65-.13,5.46-.07,4.84.15,9.7.24,14.54.04,0,2.97.45,6-.1,9.26l-4.82.08c-.18,4.79-.14,7.89-.22,12.16-.01-2.6-1.15-5.59-.25-8.39l-6.99.09-.13,87.74c2.77.42,5.29.22,7.75.22l44.67-.04-.18-103.99.49-67.38,4.17.19.21,13.23Z"/>
          <path class="cls-98" d="M71.83,273.56l-.07,10.86c-.12.02-.17.26-.1.83l-6.71.44-.36,5.32c-2.37.14-4.68-.05-7.01-.45-.19-1.61-.02-3.27-.02-5.11l6.98-.05-.03-5.65c-.01-2.04.17-4.08.08-6.12,2.32.04,4.87-.62,7.24-.08Z"/>
          <path class="cls-109" d="M64.51,279.76l.03,5.65-6.98.05c0,1.84-.17,3.5.02,5.11-.19.08-.31.24-.42.41l-7.23-.25c-.19-1.99.21-3.67-.22-5.2l7.41-.13.07-5.61,7.33-.03Z"/>
          <g>
            <g>
              <path class="cls-5" d="M111.91,391.8l-.24,13.37c-.07,4.03.2,7.94-.27,12.33l-33.02.03c-.05-2.1.31-3.69-.23-5.19-.12-.35.05-.71.43-.53-.4,1.16,4.73-.02,5.63-.07.46-.7.2-1.62.78-1.94l3.85-.46c.32-.71.95-1.97,1.74-2.33-.68-1.09-2.24-.73-3.42-.41-.68.08-1.29-.7-1.75-.47l.03-2.72c.93.1.57-1.26.81-1.77,1.02-.46,2.2-.43,3.08-.56.06.35.15.41.34.49.24.1.87.19,1.2.08,6.23-2.07,8.31-.03,14.18-.96l.3-8.91c2.48-.25,4.56-.37,6.58.02Z"/>
              <path class="cls-16" d="M116.03,392.64l.1,23.34-.3,7.31-43.27-.03c-.14-2.64-.36-4.74-.22-6.83l.24-3.72c1.73-.79,3.85-.27,5.57-.37.54,1.51.18,3.1.23,5.19l33.02-.03c.47-4.38.2-8.3.27-12.33l.24-13.37c.95.19,3.6-.97,4.12.83Z"/>
              <path class="cls-42" d="M78.57,411.81c-.05-1.54-.25-3.3.12-4.9,2.3-.65,4.88.72,6.71-.77.46-.23,1.07.55,1.75.47,1.18-.32,2.74-.68,3.42.41-.78.36-1.42,1.62-1.74,2.33l-3.85.46c-.58.32-.32,1.25-.78,1.94-.91.04-6.03,1.23-5.63.07Z"/>
              <path class="cls-7" d="M89.32,401.08c-.88.14-2.07.1-3.08.56-.24.52.13,1.87-.81,1.77.05-3.78-.08-7.58.16-11.34.63-.47,2.85-.76,3.36.02l.37,8.98Z"/>
            </g>
            <g>
              <path class="cls-88" d="M154.55,406.7c-.45.43-.45,10.52.4,10.75h24.39c.53-1.86.18-3.46.08-5.19-2.07.09-3.87.24-5.83-.21-.12-2.11-.24-3.77-.63-5.45-.78-3.45.14-11.28-.5-14.77.26.04.69-.24.79.12.05.17.15.61.37.73l.06,14.03,5.99.19v5.39c1.43.08,2.66-.29,4.51.08l.11,4.07c.06,2.1-.1,4.18-.24,6.8l-40.56.08-.24-7.29.16-22.9c.66-.08.21-.71.4-1.37,3.6.15,6.82-.41,10.52.2.84,4.76-1.36,13.36.19,14.76Z"/>
              <path class="cls-102" d="M172.46,391.82c.64,3.49-.28,11.32.5,14.77.38,1.68.51,3.35.63,5.45,1.96.45,3.76.3,5.83.21.1,1.73.45,3.33-.08,5.18h-24.39c-.85-.22-.85-10.32-.4-10.74,2.16-.47,4.71.47,6.04-.79.2-1.86-.23-3.4.41-5.05,2.54-.11,5,.28,7.62-.33l.22-8.57c1.3-.52,2.51-.31,3.63-.14Z"/>
            </g>
          </g>
          <path class="cls-17" d="M105,178.43c.13,2.02-.28,4.01.26,6.32,2.38-.26,4.43.28,6.65.32l9.37.16c2.22.04.05,3.63.89,4.51-.59-.14-1.26.1-2.12.31l-.11,15.04-14.98.15-.18,5-4.3.08-.05,8.31,4.41.25c0,1.59-.24,3.05.18,4.67l14.99.22.06,49.51-.07,43.87-4.22.34-.14,56.92-31.88-.54-.06-157.5c-2.26-.12-3.9.42-5.39-.27l.03-12.89c-2.18-.48-4.11,0-6.14-.09-2.38-.1-4.8-.18-7.44,0-.68,16.03.64,31.98-.67,47.68l-6.71.29-.25,9.93-8.05.29.04,6.49c-2.3,0-4.65.23-6.91-.17l.1-52.59c2.07.59,4.51.46,6.74.48.92-2.3-.07-4.46.14-6.52.59-5.74.11-11.55.37-17.32.16-.18-.08-.56.06-.66.16-.12.58-.25.95-.26l6.37-.08c.22-1.91.19-3.5-.02-5.02-.11-.81.27-1.62.26-2.43,2.4-.11,4.78.45,7.34.02.38-1.67.26-3.55-.26-4.71.72-1.83.43-4.08.43-6.06.5.06.4-.41.44-1.3l33.74.22.19,6.55c1.99-.15,4.4.03,5.95.51Z"/>
          <path class="cls-74" d="M64.59,273.64c.09,2.04-.09,4.08-.08,6.12l-7.33.03-.07,5.61-7.41.13c-.32-.04-.77-.11-.73-.52v-5.58s-6.5-.14-6.5-.14c-.57-1.96.15-4.09.04-6.03l22.06.39Z"/>
          <path class="cls-70" d="M49.11,267.78h22.83c.34,1.96-.1,3.91-.11,5.78-2.37-.54-4.92.12-7.24.08l-22.06-.39-.32-5.64c2.26.4,4.61.17,6.91.17Z"/>
          <path class="cls-91" d="M198.53,290.99v4.22c.67.05,1.3-.1,1.05.5-.85-.06-1.07.81-1.07,1.92l.02,84.87c-1.16.33-1.92.2-2.69.22.56-1.47-2.02-.47-4.49-.86l.09-96.38,6.49.12c.19,1.91-.69,4.04.59,5.39Z"/>
          <path class="cls-69" d="M202.38,290.92l.35,4.75c-.79,1.1-1.93-.16-3.14.05.25-.6-.39-.45-1.06-.5v-4.22s3.85-.07,3.85-.07Z"/>
          <path class="cls-38" d="M191.43,243.7c.08,5.58-1.1,11.56-.11,17.41,2.48.36,4.87-.21,6.83-.08,2.83.18,5.65.08,8.49.04,2.2-.03,4.44.35,7.21.03l.07-29.22c0-.54-.46-.65-.35-1.1.06-.25-.1-.96.45-.7.05.34-.05,1.19.42,1.18l6.24-.12c.02,12.28.6,24.65-.12,36.86-9.81-.33-19.66-.19-29.48-.02-1.9.03-3.84-.63-6.4-.02.16,2.08.45,3.94.33,5.69-1.92.23-.53-3.62-.6-5.99-.05-1.49-.2-2.72.09-4.01.54-2.43-.08-5.37-.07-8.3l.11-31.37c2.01-.28,4.1.09,6.06-.44,0,.37.65.75.6,1.38-.46,6.46.15,12.69.24,18.77Z"/>
          <path class="cls-107" d="M220.56,268c-.11,1.88-.11,3.67-.12,5.54-2.01-.24-4.03-.15-6.03-.11l-7.86.17c.35,0-10.33-1.02-8.51.97-.19-.19-.21-.65-.14-1.03-2.62-.14-4.61.27-6.67,0-.22-.03-.29-.11-.55-.05-.03-.31.07-.62.42-.91l-.02-4.61c9.82-.17,19.67-.31,29.48.02Z"/>
          <path class="cls-43" d="M220.43,273.55l-.04,5.54c-1.89.25-3.71.09-5.41.14.06-.49-.38-.45-.92-.52-.08-1.83-.2-3.63.33-5.26,2-.04,4.02-.14,6.03.11Z"/>
          <path class="cls-17" d="M185.12,178.91c.16,1.18.27,2.61.8,3.74.72.05,1.72.14,1.89.92.36,1.67,2.1,1.09,2.89,1.54,1.31.75,2.66.54,4.42.64l.53,4.6,2.34.57.11,18.56c.03,5.07-.4,10.47.12,15.67,1.67-.04,2.14.92,2.81,1.93.73,1.11,2.01,1.79,1.38,3.7,1.95.22,3.02-.11,4.25.15v30.13c-2.85.04-5.67.14-8.5-.04l-.08-17.16-6.64-.18c-.09-6.08-.71-12.31-.24-18.77.05-.64-.59-1.02-.6-1.38l-.19-7.35c-2.06-.06-3.93-.1-5.72.21l-.21-13.23-4.17-.19c.01-1.84-.69-3.93-.33-6-2.37-.11-4.2-.17-6.54.14v69.98c7.9,1.29,1.99,3,6.38,3.26l.18,103.99-44.67.04-.38-79.66c.07-4.26.03-7.37.22-12.16l4.82-.08c.56-3.25.09-6.28.1-9.26l.15-49.55,15.4-.1.39-4.69,4.17-.16.07-8.39-4.38-.32-.33-4.82-15.32-.05-.13-15.16-4.94-.14c-.08-1.61.01-3.01.07-4.36,0-.19.17-.34.2-.47,1.63.26,3.61,0,5.09-.29,4.28.71,8.71.02,13.31.28.5-2.04-.44-4.58.71-5.33,1.27-.82,3.48.05,5.13-.39.19-2.43,4.24-.97,8.46-1.62.48-.07,1.07-.67,1.55-.39.21.12.32.42.72.78,3.61-1.13,6.85-.37,10.41.24,1.53.26,3.49-.88,4.3.62Z"/>
          <path class="cls-69" d="M185.44,171.01l5.76.21.33,6.46,5.67-.06c.42,0,.78.01.91.29.07.16-.04.41.1.64.36,1.25-.46,3.1.38,4.27.68.96,2.57.66,3.56.95.8.23.87,1.23,1.34,1.62.85.72,2.05-.03,3.34.5l.16,23.19c2.21.07,4.19.3,6.1,0-.02.52.49.38.95.51l-.02,20.51c-.55-.27-.39.44-.45.7-.11.45.35.56.35,1.1l-.07,29.22c-2.77.32-5.01-.06-7.21-.03v-30.13c.01-4.33.39-8.78.22-13.41l-.23-6.24c-.04-1.16-.98-1.61-1.93-1.63l-6.61-.18-.11-18.56-2.34-.57-.53-4.6c-1.75-.1-3.11.11-4.42-.64.39-1.82.27-3.84.18-5.62-.82,0-.82-.42-.69-1-1.91.35-3.52-.26-5.06.41-.82-1.5-2.78-.35-4.3-.62-3.56-.61-6.8-1.37-10.41-.24-.41-.36-.51-.65-.72-.78-.48-.28-1.07.31-1.55.39-4.23.65-8.28-.8-8.46,1.62-1.66.44-3.86-.43-5.13.39-1.15.74-.21,3.28-.71,5.33-4.61-.26-9.03.43-13.31-.28l.4-6.47,14.69-.37.32-6.29,29.51-.58Z"/>
          <path class="cls-80" d="M72.19,203.1l-.04,64.57c2.45,0,3.99.14,5.85-.08l.31-51.51c1.49.69,3.13.15,5.39.27l.06,157.5c-3.4.31-7.45.96-11.24.53-.64-2.9-.32-5.78-.34-9l-.42-80.96.07-10.86c.01-1.87.45-3.82.11-5.77h-22.83s-.04-6.5-.04-6.5l8.05-.29c2.37-.09,4.67.19,7.41-.04l.02-9.62c-.45-.14-.49-.26-.47-.55,1.3-15.69,0-31.65.67-47.68,2.64-.19,5.06-.11,7.44,0Z"/>
          <path class="cls-1" d="M134.94,294.72l.38,79.66c-2.47,0-4.99.2-7.75-.22l.13-87.74,6.99-.09c-.89,2.8.24,5.79.25,8.39Z"/>
          <path class="cls-96" d="M180.29,202.99l-.49,67.38c-4.39-.26,1.52-1.96-6.39-3.26v-69.98c2.35-.32,4.18-.25,6.56-.14-.36,2.07.34,4.15.33,6Z"/>
          <path class="cls-41" d="M198.04,274.58c-.1,1.44.05,3.62.08,5.12.03,1.83-.21,3.66,0,5.7l4.09.08c.09,1.8.03,3.64.16,5.44l-3.84.07c-1.28-1.35-.4-3.48-.59-5.39l-6.49-.12c0-3.97-.44-7.96-.22-11.92,2.06.27,4.05-.14,6.67,0-.08.38-.06.84.14,1.03Z"/>
          <path class="cls-25" d="M190.59,223.55c-1.96.53-4.05.15-6.06.44l.14-7.58c1.79-.3,3.67-.27,5.72-.21l.19,7.35Z"/>
          <path class="cls-48" d="M191.08,267.98l.02,4.61c-.35.29-.45.59-.42.91-1.87.45-3.79-.07-5.68.15.12-1.75-.17-3.61-.33-5.69,2.57-.61,4.5.05,6.4.02Z"/>
          <path class="cls-22" d="M78.3,216.09l-.31,51.51c-1.86.22-3.4.08-5.85.08l.04-64.57c2.03.09,3.96-.39,6.14.09l-.03,12.89Z"/>
          <path class="cls-101" d="M64.08,250.78c-.02.29.02.41.47.55l-.02,9.62c-2.74.22-5.04-.05-7.41.04l.25-9.93,6.71-.29Z"/>
          <path class="cls-9" d="M198.15,261.04c-1.96-.13-4.35.44-6.83.08-.98-5.86.19-11.84.11-17.41l6.64.18.08,17.16Z"/>
          <path class="cls-24" d="M206.55,273.61l-.19,11.7c-1.39.3-2.8.2-4.14.17-.09-1.84-.12-3.67-.06-5.74-1.38-.38-2.73-.19-4.04-.04-.03-1.5-.19-3.68-.08-5.12-1.83-1.99,8.86-.98,8.51-.97Z"/>
          <g>
            <path class="cls-60" d="M214.4,273.44c-.52,1.63-.41,3.44-.33,5.26.53.07.98.03.92.52-1.86-1.96-.48,5.15-1.2,6.24-.97.11-1.51-.05-2.37.15.01,1.76-.22,3.33-.46,5.09-3,.23-5.79.16-8.57.21-.13-1.8-.07-3.63-.16-5.44,1.34.03,2.74.13,4.14-.17l.19-11.7,7.86-.17Z"/>
            <path class="cls-37" d="M210.35,289.58c-1.15.13-2.09.35-3.35.36-.52-1.04-.47-3.04.19-3.97.5-.7,2.88-.78,3.34-.07.62.96.01,2.72-.19,3.68Z"/>
          </g>
          <path class="cls-29" d="M206.65,230.95c-1.23-.27-2.3.07-4.25-.15.63-1.91-.66-2.59-1.38-3.7-.67-1.01-1.13-1.97-2.81-1.93-.52-5.2-.09-10.61-.12-15.67l6.61.18c.95.03,1.89.47,1.93,1.63l.23,6.24c.17,4.63-.21,9.08-.21,13.41Z"/>
          <path class="cls-23" d="M190.7,185.12c-.78-.45-2.53.13-2.89-1.54-.17-.79-1.17-.88-1.89-.92-.53-1.13-.64-2.56-.8-3.74,1.54-.67,3.15-.05,5.06-.41-.13.58-.12,1.01.69,1,.1,1.78.22,3.8-.18,5.62Z"/>
          <g>
            <path class="cls-28" d="M135.23,185.49c-.06,1.35-.15,2.75-.07,4.36l4.94.14.13,15.16,15.32.05.33,4.82,4.38.32-.07,8.39-4.17.16-.39,4.69-15.4.1-.15,49.55c-4.84.2-9.7.11-14.54-.04.01-1.42-.48-2.88.34-4.12l8.95-.32-.03-50.37,19.99-.25.26-7.51-20.09-.06-.16-20.21c-3.18.11-6.3-.46-9.18.4-.31-.72-1.19-.75-1.82-.95.67-1.3.06-2.85.59-4.53,2.08-.11,9.67-.52,10.85.22Z"/>
            <path class="cls-103" d="M122.17,189.73c.51.12,1.13-.09,1.61.07.63.2,1.52.23,1.82.95l-.02,19.79-20.07.14c-.18,2.68-.29,4.96.02,7.53l20.04.08.3,50.77c-.83,1.25-.33,2.7-.34,4.12-1.81-.05-3.65.32-5.46.07l-.06-49.51-14.99-.22c-.42-1.61-.17-3.08-.18-4.67l-4.41-.25.05-8.31,4.3-.08.18-5,14.98-.15.11-15.04c.86-.21,1.53-.45,2.12-.31Z"/>
            <path class="cls-31" d="M125.88,269.07l-.3-50.77-20.04-.08c-.31-2.58-.19-4.85-.02-7.53l20.07-.14.02-19.79c2.88-.86,5.99-.29,9.18-.4l.16,20.21,20.09.06-.26,7.51-19.99.25.03,50.37-8.95.32Z"/>
          </g>
          <path class="cls-67" d="M202.22,285.48l-4.09-.08c-.21-2.04.04-3.87,0-5.7,1.31-.15,2.66-.34,4.04.04-.06,2.07-.03,3.9.06,5.74Z"/>
        </g>
        <g>
          <path class="cls-100" d="M149.05,6.13c-.57,2.05-.25,4.13-.22,6.77l9.5.26c-.19.93-.06,2.55-.83,3.41s-2.4.34-3.37.84c-.37.19-.87,1.53-.36,1.69,2.23.67,4.51.02,6.97.55l.02,12.23,4.12.4c.47.92-.09,2.15.58,2.75.58.53,1.68.08,2.53.39.57,1.78.09,3.46.42,5.53l4.84.38.28,6.35,6.2.39c.21,1.84-.19,3.4.45,5.23l3.66.15.09,11.5c0,.24-1.06.17-.79.57l-4.47-.19-.16-5.8-5.04-.11-.11-5.94-5.17-.1-.14-5.94-5.99.15c-.97.02-1.82-.12-1.8-1.1.48-1.6.33-3.36.21-5.25l-5.39-.04-.26-8.72-49.66.19c-.21,2.86-.33,5.69.12,8.36l-8.84.23c-2.05.05-4.1-.06-6.55-.02-.36,2.23-.07,4.17,0,6.11-.88.87-.03,3.96-.41,6.25l-5.93.2c.22,1.9-.43,4-.09,5.77l-5.03.14-.15,5.52-5.9.24-.1,17.93c-1.28-1.52-1.54,6.4-1.52,6.59.47,4.91-.45,9.66-.27,14.36l.31,8.13c.05,1.29-.72,13.79-1.26,14.08s-.71-.4-1.12-.47c-3.8-.63-1.15-5.48-3.64-4.32l-.15-74.04c0-.34.1-.95-.04-1.26.73-.15.82-.54,1.53-.15,1.55.88,3.75.28,5.77.38.15-2.72.57-3.92-1.04-5.02.35-.08.49.02.67-.12.28-.22.48-.83.47-1.23l-.14-7.87c.42.41.18-.46.67-.54,1.8.25,3.59.12,5.71.05.15-2.16.27-3.92,0-5.67,1.71-.06,3.45.22,5.28-.29.02-1.89.18-3.59.02-5.01.23-.12.64-.41.68-.74l5.51-.19.32-6.47c.51.12.74-.45,1.2-.45l20.46-.29c.41-2.02.19-3.98.26-6.48l33.27-.11c-.56-.64-1.9-.18-2.05-.84-.35-1.54.02-3.08.14-4.48,1.45.22,3.72-.61,4.98.24,1.36.91,1.17,3.57.79,4.94Z"/>
          <path class="cls-50" d="M167.34,13.6c.73,2.44-.45,3.07.56,6.53,1.79.17,3.44.36,5.5.14.06-.46-.37-1.18.35-1.03,0,.26.04.74.21.89s.78-.15.75.41c-1.71.08-.89,2.73-.89,5.67,2.19.03,4.18.36,5.97-.3-.15.31.06.48.26.43.28-.07.43,0,.75.08.1.27-.11.39-.64.29-.39,1.62-.17,3.27-.1,5.18,1.55.37,3.39.65,4.58-.38.29.18.51.49.7.77-.84-1.21-.3,7.73-.16,8.4,2.29-.04,4.56.65,6.38-.27,0,.26.22.37.46.37.15,2.47.46,4.97.46,7.44l-.09,102.52c.36.17.54.22.6.19l-1.36.82c-1.93-1.37-4.67-.44-6.96-.56l-4.43-.25c.27-1.57-.73-3.4.14-5,1.11-.2,2.6.04,3.5-.23,1.27-2.55-.23-5.36-.22-7.41l.19-71.67c0-.74-.09-.96-.7-1.09-.27-.4.79-.34.79-.57l-.09-11.5-3.66-.15c-.64-1.83-.23-3.39-.45-5.23l-6.2-.39-.28-6.35-4.84-.38c-.33-2.07.15-3.75-.42-5.53-.84-.31-1.95.14-2.53-.39-.66-.6-.11-1.84-.58-2.75l-4.12-.4-.02-12.23c-2.46-.53-4.74.12-6.97-.55-.51-.15,0-1.5.36-1.69.96-.5,2.6.03,3.37-.84s.64-2.48.83-3.41c2.88.08,5.85.09,8.66-.36,0,.42.23.42.34.79Z"/>
          <path class="cls-62" d="M64.62,47.74l.15,74.04.02,20.77c0,1.23,0,2.49-.11,3.71-2.31.37-4.76.35-7.3.07l.02-98.39,7.21-.2Z"/>
          <path class="cls-26" d="M198.2,48.22l.3,102.74c-2.29.08-3.91.12-5.53-.02-.06.03-.23-.02-.6-.19l.09-102.52c1.89-.18,3.86-.36,5.73,0Z"/>
          <path class="cls-108" d="M180.22,150.94c-.32,1.89-.78,3.96-.23,5.89-.67,1.19-4,.4-6.31.61-.15,2.01-.18,3.6-.03,5.84,2.1,0,4.28.65,5.71-.59,1.51.69,3.16.49,4.81.56-.08,1-.01,5.08,1.65,4.9.06.97-.57,1.86-.38,2.85l-29.51.58-.32,6.29-14.69.37-.4,6.47c-1.48.3-3.46.55-5.09.29l.32-7.02c1.46.08,3.04-.54,4.95-.18l.25-6.48c2.36.47,4.57-.38,6.57-.2,2.44.22,4.99.61,7.67.05l.6-2.28,9.3-.43.16-5.29c.92.11,1.98-.22,3.08-.32.06-2.05-.05-3.79.19-5.53l4.78-.09c.27-2.43.17-4.11.1-6.24l6.82-.07Z"/>
          <path class="cls-84" d="M89.88,163.48c-.07,1.13-.13,2.29.07,3.9,3.32.25,6.35-.02,9.4.03l.44,3.42c1.86.36,3.95-.08,5.57-.24,1.79,1.21,4.03.25,6.26.72l.04,5.96c-1.75,1.61-4.52.24-6.66,1.15-1.55-.48-3.95-.66-5.95-.51l-.19-6.55-33.74-.22c-.04.89.06,1.36-.44,1.3-.16-.18-.12-.69-.3-.86-.14-.14-.62.12-.71-.38,1.04.05,1.39-1.03,1.32-1.97,2.29-.08,4.5-.74,6.97-.21-.28-1.93,1.04-6.28-.8-5.6l1.29-.81c.13,1.08,4.89.82,5.9.61v-5.52c-1.9-.29-5.57-.72-5.7-.15l-.21.85c-.27.09-.26-.16-.36-.25-.25-.21-.04-.4-.02-.57.23-1.87.22-3.82.13-5.71,2.05-.18,4.17-.35,6.41-.04.21,1.93-.2,3.65.22,5.54l4.98.11.28,5.91c2.18-.67,4.15.21,5.81.1Z"/>
          <path class="cls-93" d="M143.28.95c-.12,1.4-.49,2.94-.14,4.48.15.67,1.5.21,2.05.84l-33.27.11c-.06,2.5.15,4.46-.26,6.48l-20.46.29-.41-.45c-1.14-1.27-.19-4.26.06-6.46l19.28-.24c.12-2.34-.22-4.1.22-6.01l31.51.02c.88,0,1.32.36,1.41.93Z"/>
          <path class="cls-92" d="M167,12.8c-2.81.46-5.78.44-8.66.36l-9.5-.26c-.03-2.65-.35-4.73.22-6.77l17.91.2c.13,2.36.05,4.41.04,6.47Z"/>
          <path class="cls-85" d="M199.56,177.28c-.35.46-.92.86-1.35,1.27-.15-.23-.03-.47-.1-.64-.12-.27-.49-.29-.91-.29l-5.67.06-.33-6.46-5.76-.21c-.18-.99.44-1.87.38-2.85-.04-.63.99-.45,1.33-1.04l1.03-1.78c.45-.77,1.67-.97,1.88-1.82.29.01,1.19-.31,1.21.15l.33,7.35,6.71.29c.46,2.06-.83,6.54,1.25,5.97Z"/>
          <path class="cls-10" d="M191.61,151.75c.28,1.39-.09,2.76-.95,3.85-.91-.3-5.35-1.05-4.96,1.02.03.17,0,.63-.46.68-.1.01.3.36.04.46l-5.63.34-.29,4.59c-1.43,1.23-3.61.58-5.71.59-.15-2.24-.12-3.83.03-5.84,2.3-.21,5.64.58,6.31-.61.91-.64,3.11-.48,4.49-.91.24-1.62.25-3.24.17-4.74,2.29.13,5.03-.81,6.96.56Z"/>
          <path class="cls-83" d="M71.83,32.47l.14,7.87c0,.4-.19,1.01-.47,1.23-.17.14-.32.04-.67.12-1.75-.26-3.57-.28-5.31.02-.25-.09-.79-.28-.78-.89l.09-8.58c2.66.14,4.89-.4,6.99.23Z"/>
          <path class="cls-66" d="M71.58,146.6c.79,1.54.52,3.51.6,5.27.09,1.89.1,3.84-.13,5.71-1.59-.05-3.25.1-4.88-.19l-.2-5.03c-.03-.72-1.52-.14-1.82-.65-.8-1.39-.86-3.75-.06-4.97,2.15-.3,4.33-.1,6.48-.14Z"/>
          <path class="cls-51" d="M191.55,40.41c-1.82.91-4.09.22-6.38.27-.14-.67-.68-9.6.16-8.4,1.97-.12,4-.09,6.11.06l.11,8.06Z"/>
          <path class="cls-68" d="M63.67,171.2c.08.51.56.25.71.38.18.17.14.68.3.86,0,1.98.3,4.23-.43,6.06-2.07-.27-4.19-.06-6.27.03-1.19-2.11-.26-4.77-.44-7.23l6.14-.11Z"/>
          <path class="cls-105" d="M198.2,48.22c-1.87-.35-3.84-.17-5.73,0,0-2.47-.3-4.97-.46-7.44,2.03.06,4.29-.14,6.35.15.67,2.57-.17,5.05-.16,7.28Z"/>
          <path class="cls-45" d="M173.74,19.24c-.72-.15-.29.57-.35,1.03-2.06.22-3.71.03-5.5-.14-1-3.46.17-4.09-.56-6.53l6.22.03.18,5.62Z"/>
          <path class="cls-97" d="M90.01,13.61l-.32,6.47-5.51.19c-.86,1.05-.51-5.97-.42-6.72,2.25-.13,4.31-.38,6.26.06Z"/>
          <path class="cls-107" d="M71.16,163.42c1.83-.67.51,3.67.8,5.6-2.47-.53-4.68.13-6.97.21-.14-1.83-.32-3.68.02-5.77l6.15-.04Z"/>
          <path class="cls-39" d="M70.83,41.7c1.61,1.1,1.19,2.3,1.04,5.02-2.02-.1-4.21.5-5.77-.38-.7-.4-.8,0-1.53.15-1.03-1.7.97-3.02.94-4.76,1.74-.3,3.57-.28,5.31-.02Z"/>
          <path class="cls-115" d="M174.7,20.54c1.11-.05,3.27-.03,4.84.01.54,1.85,0,3.62.24,5.36-1.79.66-3.78.33-5.97.3,0-2.94-.82-5.59.89-5.67Z"/>
          <path class="cls-104" d="M78.2,26.31c.28,1.75.16,3.51,0,5.67-2.12.07-3.91.2-5.71-.05-.62-1.6-.17-3.47-.12-5.41l5.82-.21Z"/>
          <path class="cls-49" d="M72.45,162.61c-.16-1.39-.17-2.83-.01-4.22l.21-.85c.14-.57,3.81-.14,5.71.15v5.52c-1.01.21-5.78.47-5.91-.61Z"/>
          <path class="cls-13" d="M83.5,21.01c.16,1.42,0,3.12-.02,5.01-1.83.5-3.57.23-5.28.29-.28-1.75-.13-3.53-.03-5.64.75-.13,6.32-.38,5.33.34Z"/>
          <path class="cls-72" d="M68.92,142.68c.65.04,1.99-.13,2.72.24,1.39.71.15,2.81-.05,3.69-2.15.03-4.33-.17-6.48.14.04-.28-.09-.62-.42-.48.1-1.22.11-2.48.11-3.71,1.28.61,2.76.04,4.13.13Z"/>
          <path class="cls-21" d="M184.63,31.51c-1.19,1.02-3.03.75-4.58.38-.07-1.9-.29-3.56.1-5.18.53.1.74-.02.64-.29,1.16.3,2.38-.25,3.78.26.13,1.78.23,3.35.06,4.82Z"/>
          <path class="cls-79" d="M190.06,163.52c-.21.85-1.43,1.05-1.88,1.82l-1.03,1.78c-.34.59-1.36.41-1.33,1.04-1.67.17-1.74-3.9-1.65-4.9l5.89.26Z"/>
          <path class="cls-100" d="M190.66,155.6c-1.12,1.43-3.24,1.16-4.96,1.02-.39-2.07,4.05-1.32,4.96-1.02Z"/>
          <path class="cls-56" d="M155.06,41.22l-28.13-.2-21.66.03c-.45-2.67-.33-5.49-.12-8.36l49.66-.19.26,8.72Z"/>
          <path class="cls-47" d="M96.42,41.27c-.31,1.84-.28,3.77-.11,5.62-.43.06-.76.55-1.26.53-1.73-.08-3.49.32-5.19-.06-.07-1.95-.36-3.88,0-6.11,2.46-.04,4.5.07,6.55.02Z"/>
          <path class="cls-100" d="M72.68,138.43c1.54.05,3.12.16,4.67.08.22,1.19-.43,2.51.04,3.79,1.06-.08,1.05,1.43,1.49,1.82,1.17,1.05,3.16.19,4.72.5l.2,5.89c2.21-.42,4.05.11,5.71.29.03,1.75-.1,3.47.14,5.47,3.75-.11,6.93.27,10.1-.2,1.45-.21,2.93.42,4.72.42-.54,1.73.14,2.33,1.03,3.34.73.83,1.71.67,3.14.4.62,1.1-.02,2.25.73,3.24,2.39-.07,4.39-.09,6.29-.42.21.06.52.27.46.51-.21.94.25,1.86.39,2.87.2,1.42-.44,2.81-.09,4.5l18.8.07.36-3.53c1.51-.57,3.35.31,4.69-.43.94-.67.33-2.67.38-3.84l5.64-.37.17-6.31,9.36-.43.34-5.47c2.92.06,5.55-.6,8.18-.29,2.89.35,5.77,0,8.91-.02.23-2.33.34-4.39.08-6.49-.03-.26.25-.57.51-.56l5.53.07c.25-1.65.15-3.13.08-4.6,1.18-.4,2.81-.86,4.17-.46,0,2.06,1.49,4.86.22,7.41-.91.27-2.39.03-3.5.23-.88,1.6.12,3.43-.14,5l-6.82.07c.07,2.13.17,3.81-.1,6.24l-4.78.09c-2.37.05-4.77-.22-7.32-.16-.33,1.84-.33,3.48-.09,5.29l-.96.17-7.95.17-1,4.91-3.59.56-.09,2.86c-2-.18-4.21.67-6.57.2l-.25,6.48c-1.91-.36-3.49.26-4.95.18-7.53-.41-15.07-.33-22.87-.26-.6,0-1.01-.14-1.21-.46l-.04-5.96c-2.23-.47-4.46.49-6.26-.72-.09-1.35.55-2.9-.63-3.78-.65-.93.02-2.29-.5-3.58-4.99.08-9.7-.07-14.36.25-1.66.11-3.62-.77-5.81-.1l-.28-5.91-4.98-.11c-.42-1.89-.01-3.61-.22-5.54-2.24-.31-4.35-.14-6.41.04-.08-1.76.18-3.73-.6-5.27.21-.88,1.44-2.98.05-3.69-.72-.37-2.07-.19-2.72-.24-.23-.8,1.54-.54,1.62-1.2.21-1.58-2.42-2.85-3.72-1.85.11-1.95,1.62-1.17,2.7-1.54.65-.22,1.31,1.33,1.96,1.43.69.1.98-.21,1.15-.39.21-.23.49-.56.06-.69Z"/>
          <path class="cls-55" d="M184.65,151.19c.08,1.5.06,3.12-.17,4.74-1.37.43-3.58.27-4.49.91-.55-1.93-.1-4.01.23-5.89l4.43.25Z"/>
          <path class="cls-30" d="M135.75,178l-.32,7.02c-.03.13-.19.29-.2.47-1.17-.75-8.76-.33-10.85-.22-.54,1.68.08,3.23-.59,4.53-.48-.15-1.1.05-1.61-.07-.84-.88,1.33-4.47-.89-4.51l-9.37-.16c-2.22-.04-4.27-.58-6.65-.32-.54-2.3-.14-4.3-.26-6.32,2.14-.91,4.92.46,6.66-1.15.21.32.61.47,1.21.46,7.8-.07,15.34-.14,22.87.26Z"/>
          <path class="cls-61" d="M160.15,162.64c-.01.77.62.07,1.05.18,1.46-.11,2.75.22,4.05.37l-.16,5.29-9.3.43-.6,2.28c-2.68.56-5.23.17-7.67-.05l.09-2.86,3.59-.56,1-4.91,7.95-.17Z"/>
          <path class="cls-54" d="M168.52,157.34c-.24,1.74-.12,3.48-.19,5.53-1.1.1-2.16.43-3.08.32-1.3-.15-2.59-.48-4.05-.37-.43-.11-1.06.59-1.05-.18l.96-.17c-.24-1.81-.24-3.45.09-5.29,2.55-.06,4.95.21,7.32.16Z"/>
          <path class="cls-106" d="M104.73,166.82c-.21-.24-6.86.57-5.38.6-3.05-.05-6.08.22-9.4-.03-.2-1.61-.14-2.77-.07-3.9,4.66-.32,9.38-.17,14.36-.25.52,1.29-.15,2.65.5,3.58Z"/>
          <path class="cls-75" d="M104.73,166.82c1.18.88.54,2.43.63,3.78-1.62.16-3.71.59-5.57.24l-.44-3.42c-1.47-.03,5.17-.84,5.38-.6Z"/>
          <path class="cls-15" d="M173.34,143.84c.26,2.1.15,4.16-.08,6.49-3.13.03-6.01.37-8.91.02-.65-2.02.91-3.96,2.86-4.58.79-.25.81-1.3,1.52-1.82,1.28-.93,3.26-.1,4.61-.11Z"/>
          <path class="cls-86" d="M94.54,150.33c1.4-.13,2.84,0,4.44.47l.77,5.28c-3.17.46-6.36.09-10.1.2-.24-2-.11-3.72-.14-5.47l5.03-.48Z"/>
          <g>
            <path class="cls-64" d="M183.13,65.54c.62.13.7.35.7,1.09l-.19,71.67c-1.37-.4-3,.06-4.17.46-1.33-.72-3.52-.84-5.4-.3-1.05.93-.39,3.47-.21,4.82-.26,0-.54.31-.51.56-1.36.01-3.34-.82-4.61.11-.71.52-.73,1.57-1.52,1.82l.46-2.36-18.25.35-.21,7.04-41.93.17c-1.43,0-1.23-1.09-1.79-1.79-.99-.94-2.78-.19-4.13-.85l-.4-4.42-5.34-.5c-.41-1.72-.24-3.42-.19-4.96l1.04-.15,12.17-.11v-9.21c1.31-.91,4.67.51,4.78-1.07.52,0,.36.9.6,1.2.28.33.78.66,1.06.47-.7.99-.19,2.47.15,3.45-1.31,3.62-.21,8.02-.62,12.32l9.64.07.36-4.85,9.45-.06.3,4.76c2.54.12,4.64.18,7.25.03-.07-4.3.46-8.32-.21-12.25-.21-1.21.45-2.67-.37-3.74.31.02.57-.1,1.05-.5.67.73.81.42.75-.35l4.45.28.24,4.28c.09,1.64-.34,3.27.09,5.26,4.83-.22,9.49.27,13.99-.43,2.13.25,4.83.79,7.29.21l-.12-8.13c.15.11.34.21.46-.06,2.12-.16,4.62.41,6.69-.34.84-1.1.38-3.38-.22-4.46-.03-.27.34-.39.34-.92l.02-46.08c-.87-.5-1.91-.2-2.44-.64-.8-1.35-.42-2.9-.52-4.68-2.2.12-3.77-.88-5.52-1.55-1.54-.6-3.16-1.14-3.19-3.27l-.1-7.9c-1.8.81-3.24-.48-4.51-.57-6.03-.4-11.72-.01-17.4-.02-.05-.7-.56-.05-1.11-.13.03-1.71-.54-6.14,1.46-5.97,1.7.15,3.37.43,5.07-.2l-.36-6.32c4.27,0,8.62,0,12.83-.33-.02.98.83,1.12,1.8,1.1l5.99-.15.14,5.94,5.17.1.11,5.94,5.04.11.16,5.8,4.47.19Z"/>
            <path class="cls-78" d="M141.14,60.48c.23,1.62.18,3.33-.16,5.13-2.04,0-3.87-.17-5.84.33-.13.8-.14,6.39-1.2,5.83-1.57-.32-3.88.77-5.42-.23-1.71-1.11-1.92-3.69-3.29-5.15-1.59-1.7-9-.22-10.09-1.15l-.18-5.64-14.41-.06-.25,5.69c-1.35.94-3.1-.2-4.74.57-.26.12-.09.71-.33.79-1.31.44-2.69-.01-4.23.18-.88,1.55-.87,3.22-.94,5.13l-5.82.34-.63,5.03c-1.34.41-2.79.01-4.37.28-.48,3.02-.1,5.85-.1,8.62l.04,32.9c0,1.76-.52,3.61,0,5.55,1.54.51,4.53-.58,4.77.69l.12,4.49,4.82.26c.17,1.01.27,2.05.3,3.03.05,1.67-.22,3.32.17,5.24l6.07.13c-.05,1.54-.22,3.23.19,4.96l5.34.5.4,4.42c1.35.66,3.14-.09,4.13.85.56.69.36,1.79,1.79,1.79l41.93-.17.21-7.04,18.25-.35-.46,2.36c-1.95.62-3.51,2.56-2.86,4.58-2.63-.31-5.26.34-8.18.29l-.34,5.47-9.36.43c-1.9.09-4.24-.44-5.85.49-8.12-1.19-16.59-.14-25.05-.44l.09,6.47c-1.9.33-3.9.35-6.29.42-.75-.99-.1-2.15-.73-3.24-1.43.27-2.41.44-3.14-.4-.89-1.01-1.57-1.61-1.03-3.34-1.79,0-3.27-.63-4.72-.42l-.77-5.28c-1.59-.47-3.04-.6-4.44-.47-.15-1.14-1.07-2.47-2.25-3.17-4.42-2.58.37-3.93-8.39-4.39l-.24-4.28c-2.32-.19-4.32-.06-6.31.03-1.55.07-3.13-.04-4.67-.08-.36-.2-.37-.54-.37-1.18l-.04-53.84.1-17.93,5.9-.24.15-5.52,5.03-.14c.34,1.76.49,3.44.41,5.92l-5.02.21c-.03,1.6-.87,3.89-.05,5.61.94,1.01,4.02.41,5.35-.02l.08-4.99,6.83-.4c.59-1.97-.08-3.98.42-6.02.33-1.35,2.76-.58,3.91-.79.86-1.79.48-3.58.82-5.52l18.49-.03c.3.82-.02,1.64.41,2.24,1.84.24,3.69-.39,5.31.54.83.48.32,2.23.53,3.09l6.3.35.18,5.54c2.46.13,4.96.15,7.56.02.14-2.05-.17-3.66.2-5.68,1.88-.38,3.72-.33,5.8-.2.19.6-.12.87.16,1.01Z"/>
            <path class="cls-57" d="M155.06,41.22l5.39.04c.12,1.89.28,3.64-.21,5.25-4.2.32-8.56.32-12.83.33l-20.06.03-.43-5.84,28.13.2Z"/>
            <path class="cls-110" d="M126.93,41.02l.43,5.84c-10.39.01-20.86.9-31.05.04-.17-1.85-.2-3.78.11-5.62l8.84-.23,21.66-.03Z"/>
            <path class="cls-59" d="M95.06,47.42c1.37,1.84.07,3.08-.34,5.61-1.29.62-3.08-.23-4.24.54-1.1.73-.48,6.58-1.02,4.81.07.23.15.47.35.94-2.07.71-4.29.2-6.37.26-.34-1.77.32-3.86.09-5.77l5.93-.2c.38-2.29-.47-5.38.41-6.25,1.7.38,3.46-.02,5.19.06Z"/>
            <path class="cls-35" d="M175.69,125.09c-2.06-.54-4.32-.19-6.58-.14-.29,2.05-.02,3.43.11,4.93-.12.27-.31.17-.46.06-.85.31-1.67-.22-2.55-.07-.51.17-.34-.33-.35-.6.68-.06,1.39.22,2.22.02.35-1.46-.3-3.14.18-4.55.89-2.61,0-4.96,0-7.11l-.04-38.84c-1.11-.47-2-1.26-2.98-1.37.16-1.81.05-3.73-.46-5.74l-10.85.14c-.6-1.96-.09-3.85-.43-6.02-3.74-.17-7.4-.38-10.66.55-1.24.36-1.33,1.64-1.84,2.02-1.23.91-3.04,1.37-2.39,3.55-2.01.29-3.27.1-4.67-.18,1.05.56,1.07-5.03,1.2-5.83,1.97-.5,3.81-.33,5.84-.33.34-1.8.38-3.5.16-5.13.63-.13.06-.53.22-.68.32-.31.79-.36,1.02-.36,5.68,0,11.37-.38,17.4.02,1.27.08,2.7,1.37,4.51.57l.1,7.9c.03,2.13,1.64,2.67,3.19,3.27,1.75.68,3.31,1.68,5.52,1.55.1,1.78-.27,3.33.52,4.68.53.44,1.56.14,2.44.64l-.02,46.08c0,.54-.38.66-.34.92Z"/>
            <path class="cls-44" d="M127.36,46.86l20.06-.03.36,6.32c-1.7.63-3.37.35-5.07.2-1.99-.18-1.42,4.26-1.46,5.97.55.08,1.06-.57,1.11.13-.23,0-.7.05-1.02.36-.15.15.41.55-.22.68-.28-.14.03-.41-.16-1.01-2.08-.14-3.92-.18-5.8.2-.37,2.02-.06,3.63-.2,5.68-2.6.12-5.1.11-7.56-.02l-.18-5.54-6.3-.35c-.21-.86.29-2.61-.53-3.09-1.62-.93-3.47-.3-5.31-.54-.43-.6-.11-1.42-.41-2.24l-18.49.03c-.33,1.94.05,3.74-.82,5.52-1.15.21-3.58-.56-3.91.79-.49,2.04.17,4.04-.42,6.02l-6.83.4-.08,4.99c-1.33.43-4.41,1.03-5.35.02-.81-1.72.02-4.02.05-5.61l5.02-.21c.08-2.48-.07-4.16-.41-5.92,2.09-.06,4.3.45,6.37-.26-.2-.47-.28-.71-.35-.94.54,1.77-.07-4.08,1.02-4.81,1.16-.77,2.96.07,4.24-.54.41-2.53,1.71-3.77.34-5.61.5.02.83-.46,1.26-.53,10.19.86,20.66-.03,31.05-.04Z"/>
            <path class="cls-27" d="M135.75,129.47c.38,1.09.45,2.21.56,3.6,1.93.09,3.51.11,5.09,0,.67,3.93.14,7.95.21,12.25-2.61.15-4.71.09-7.25-.03l-.3-4.76-9.45.06-.36,4.85-9.64-.07c.41-4.3-.69-8.69.62-12.32,1.22.02,2.45.14,3.81-.3.19-1.09.01-2.07.34-2.96,5.37-.76,10.91-.24,16.36-.3Z"/>
            <path class="cls-87" d="M142.83,128.47c.06.77-.08,1.08-.75.35-.48.41-.75.53-1.05.5-1.76-.13-3.53.13-5.28.15-5.46.06-10.99-.47-16.36.3-1.28-.15-2.92-.44-4.3-.19-.28.19-.78-.14-1.06-.47-.25-.3-.09-1.2-.6-1.2.24-1.55-.18-3.33.35-4.95h28.82c.14,2.24-.38,3.96.25,5.51Z"/>
            <path class="cls-76" d="M161.37,132.97l.22,4.89c-4.5.7-9.16.2-13.99.43-.42-2,0-3.62-.09-5.26,2.94-.44,10.98-.44,13.86-.06Z"/>
            <path class="cls-73" d="M168.76,129.95l.12,8.13c-2.46.58-5.16.04-7.29-.21l-.22-4.89c-.19-4.26,3.6.15,4.83-3.1.88-.15,1.71.38,2.55.07Z"/>
            <path class="cls-71" d="M96.46,138.3l-1.04.15-6.07-.13c-.39-1.91-.12-3.57-.17-5.24,2.16-.17,4.43-.28,6.78.05.01,1.88-.25,3.7.5,5.17Z"/>
            <path class="cls-89" d="M175.69,125.09c.6,1.08,1.06,3.36.22,4.46-2.07.75-4.57.18-6.69.34-.13-1.5-.4-2.89-.11-4.93,2.27-.06,4.53-.41,6.58.14Z"/>
            <path class="cls-77" d="M179.47,138.75c.07,1.46.17,2.95-.08,4.6l-5.53-.07c-.18-1.35-.84-3.89.21-4.82,1.88-.54,4.07-.42,5.4.3Z"/>
            <path class="cls-14" d="M141.03,129.32c.83,1.07.16,2.53.37,3.74-1.59.11-3.16.09-5.09,0-.11-1.38-.18-2.51-.56-3.6,1.75-.02,3.52-.27,5.28-.15Z"/>
            <path class="cls-12" d="M119.39,129.77c-.32.89-.14,1.87-.34,2.96-1.36.44-2.59.32-3.81.3-.34-.98-.85-2.45-.15-3.45,1.38-.25,3.03.03,4.3.19Z"/>
            <path class="cls-113" d="M146.47,156.53l-.17,6.31-5.64.37c-.05,1.16.57,3.16-.38,3.84-1.34.75-3.18-.13-4.69.43l-.36,3.53-18.8-.07c-.35-1.69.28-3.08.09-4.5-.14-1.01-.61-1.93-.39-2.87l24.19-.23c.61-2.21.28-4.32.31-6.31,1.62-.93,3.96-.4,5.85-.49Z"/>
            <path class="cls-112" d="M140.62,157.02c-.03,2,.3,4.1-.31,6.31l-24.19.23c.06-.25-.25-.46-.46-.51l-.09-6.47c8.46.3,16.93-.76,25.05.44Z"/>
            <path class="cls-58" d="M95.24,66.58c1.75,4.22-5.22,5.17.5,5.61.18.01.5.15.3.47-1.04-.02-2.89.06-3.5,1.25-.47.93-1.8,2.01-1.21,3.28-.9.03-1.44.8-1.42,1.65-1.64.27-2.4,1.8-3.67,2.85-.45.37-1.61-.26-1.73.38-.34,1.76-.33,3.16-.71,3.81-.08.14-3.99.14-4.66.28,0-2.77-.38-5.6.1-8.62,1.58-.26,3.03.14,4.37-.28l.63-5.03,5.82-.34c.06-1.92.06-3.58.94-5.13,1.54-.19,2.92.26,4.23-.18Z"/>
            <path class="cls-6" d="M94.54,150.33l-5.03.48c-1.66-.17-3.5-.71-5.71-.29l-.2-5.89c-1.56-.32-3.55.54-4.72-.5-.44-.39-.43-1.89-1.49-1.82-.47-1.28.18-2.6-.04-3.79,1.99-.1,3.99-.22,6.31-.03l.24,4.28c8.76.46,3.97,1.81,8.39,4.39,1.19.69,2.1,2.03,2.25,3.17Z"/>
            <path class="cls-116" d="M115.15,65.23c-2.15.03-4.72,1.08-6.91.77-2.67-.37-5.39.16-7.92-.78l.25-5.69,14.41.06.18,5.64Z"/>
            <path class="cls-20" d="M108.24,66.01c-1.32.83.34,4.13-1.09,5.14-1.57,1.11-3.84-.1-5.49.56-1.96.79-3.62.99-5.62.95.2-.32-.13-.46-.3-.47-5.71-.44,1.25-1.4-.5-5.61.25-.08.07-.67.33-.79,1.64-.76,3.39.38,4.74-.57,2.54.94,5.25.42,7.92.78Z"/>
            <path class="cls-53" d="M89.42,118.7c-.07,2.01-.2,4.03-.05,6.04-1.6-.07-3.73.79-5.42.55-.25-1.26-3.24-.18-4.77-.69-.51-1.93,0-3.79,0-5.55,3.38-.53,6.84-.33,10.24-.36Z"/>
            <path class="cls-114" d="M89.91,78.84c-.03-.84.52-1.61,1.42-1.65,6.84-.25,13.74-.2,20.59,0,2.01,5.4-.67,4.63-2.41,7.33-4.95-.18-10.32.39-15.46-.25-1.01-.13-1.96-2.27-3.75-1.56-.41-1.67-.27-2.64-.38-3.87Z"/>
            <path class="cls-90" d="M165.24,77.43c-.3,3.42,1.59,4.22-2.75,7.11l-16.58-.15c-.27-1.68-1.53-1.71-2.79-2.34-1.16-.58-.86-3.89.16-4.95,7.4.23,14.91-.42,21.96.35Z"/>
            <path class="cls-2" d="M165.86,129.27l-.3-3.94c-3.62-.78-7.04-.28-10.76-.48-.65-2.02-.49-4.14-.22-6.32l11.23-.27c.96-.02,2.09.23,2.45-.63,0,2.15.88,4.5,0,7.11-.48,1.41.18,3.09-.18,4.55-.83.2-1.54-.08-2.22-.02Z"/>
            <path class="cls-94" d="M89.37,124.74c-.14-2.01-.02-4.03.05-6.04l10.76-.1c.27,2.06.33,4.25-.31,6.22-3.78.27-7.15.06-10.51-.08Z"/>
            <g>
              <path class="cls-19" d="M115.15,65.23c1.09.93,8.5-.55,10.09,1.15,1.36,1.46,1.58,4.04,3.29,5.15,1.54,1.01,3.86-.08,5.42.23,1.4.29,2.66.47,4.67.18-.65-2.18,1.16-2.64,2.39-3.55.51-.38.6-1.67,1.84-2.02,3.26-.93,6.92-.73,10.66-.55.35,2.17-.17,4.06.43,6.02l10.85-.14c.51,2,.62,3.93.46,5.74-7.05-.76-14.56-.11-21.96-.35-1.02,1.07-1.32,4.38-.16,4.95,1.26.63,2.52.66,2.79,2.34l16.58.15c4.34-2.89,2.44-3.68,2.75-7.11.98.11,1.87.9,2.98,1.37l.04,38.84c-.37.86-1.5.61-2.45.63l-11.23.27c-.27,2.18-.43,4.29.22,6.32,3.73.2,7.14-.3,10.76.48l.3,3.94c0,.27-.17.77.35.6-1.24,3.25-5.02-1.16-4.83,3.1-2.88-.39-10.91-.38-13.86.06l-.24-4.28-4.45-.28c-.62-1.55-.11-3.27-.25-5.52h-28.82c-.53,1.63-.11,3.41-.35,4.96-.12,1.58-3.48.16-4.77,1.07v9.21s-12.19.11-12.19.11c-.76-1.47-.49-3.28-.5-5.17-2.34-.33-4.61-.22-6.78-.05-.03-.98-.13-2.02-.3-3.03l-4.82-.26-.12-4.49c1.69.24,3.82-.62,5.42-.55,3.36.14,6.73.35,10.51.08.64-1.97.57-4.16.31-6.22l-10.76.1c-3.4.03-6.86-.17-10.24.36l-.04-32.9c.68-.14,4.58-.15,4.66-.28.38-.65.36-2.05.71-3.81.12-.64,1.28,0,1.73-.38,1.27-1.05,2.03-2.58,3.67-2.85.11,1.23-.03,2.2.38,3.87,1.79-.71,2.74,1.43,3.75,1.56,5.14.64,10.51.07,15.46.25,1.74-2.69,4.42-1.93,2.41-7.33-6.85-.2-13.75-.25-20.59,0-.59-1.27.74-2.35,1.21-3.28.6-1.19,2.45-1.27,3.5-1.25,2,.04,3.66-.17,5.62-.95,1.65-.66,3.92.55,5.49-.56,1.43-1.01-.23-4.31,1.09-5.14,2.19.3,4.76-.75,6.91-.77Z"/>
              <path class="cls-65" d="M106.7,113.74c-6.97-.2-7.2,1.54-11.37-2.7-.02-5.66-.49-11.79.1-17.37.34-3.21,4.01-5.01,6.86-5.02,2.67,0,6.36,1.87,6.71,5.06.63,5.71-.03,11.23.27,16.9-.91,1.09-1.68,1.51-2.57,3.13Z"/>
              <path class="cls-18" d="M130.86,114.46c1.28.57.73,3.05.46,3.97-.58,1.95-3.31,1.9-4.77,1.18-1.89-.92-2.61-3.66-.94-5.26,1.18-.43,3.71-.58,5.26.11Z"/>
              <g>
                <path class="cls-95" d="M156.8,113.46c-2.59.82-4.95.19-7.34.33-1.08-1.26-2.4-2.18-3.32-3.5l-.13-15.59c-.03-3.65,2.68-6.01,6.18-6.08,3.84-.08,7.11,1.81,8.28,5.59l-.17,15.03c-.02,1.71-1.79,3.67-3.5,4.22Z"/>
                <path class="cls-36" d="M153.68,97.93c-1.46.23-2.55.19-3.75-.11-.42-1.39-.34-2.62,0-4.01,1.31-.46,2.6-.42,3.78.33.28,1.31.28,2.35-.03,3.78Z"/>
              </g>
            </g>
          </g>
        </g>
      </g>
    </g>
  </g>
</svg>