<?xml version="1.0" encoding="UTF-8"?>
<svg id="_レイヤー_2" data-name="レイヤー 2" xmlns="http://www.w3.org/2000/svg" xmlns:xlink="http://www.w3.org/1999/xlink" viewBox="0 0 294.99 491.22">
  <defs>
    <style>
      .cls-1 {
        fill: #e0cab8;
      }

      .cls-2 {
        fill: #88717f;
      }

      .cls-3 {
        fill: #cfb2a3;
      }

      .cls-4 {
        fill: #dac5ae;
      }

      .cls-5 {
        fill: #7c6f88;
      }

      .cls-6 {
        fill: #917785;
      }

      .cls-7 {
        fill: #fcfaf6;
      }

      .cls-8 {
        fill: #efdfc8;
      }

      .cls-9 {
        fill: #f1f5fb;
      }

      .cls-10 {
        fill: #b89e91;
      }

      .cls-11 {
        fill: #cfb3a6;
      }

      .cls-12 {
        fill: #bb9d90;
      }

      .cls-13 {
        fill: #a88988;
      }

      .cls-14 {
        fill: #817489;
      }

      .cls-15 {
        fill: #efe2cc;
      }

      .cls-16 {
        fill: #c7bdc1;
      }

      .cls-17 {
        fill: #a99296;
      }

      .cls-18 {
        fill: #f8fafd;
      }

      .cls-19 {
        fill: #ead8c2;
      }

      .cls-20 {
        fill: #a38a8a;
      }

      .cls-21 {
        fill: #d9d3d5;
      }

      .cls-22 {
        fill: #917a87;
      }

      .cls-23 {
        fill: #b8b1b5;
      }

      .cls-24 {
        fill: #978089;
      }

      .cls-25 {
        fill: #ae9993;
      }

      .cls-26 {
        fill: #afa3a9;
      }

      .cls-27 {
        fill: #bfa19a;
      }

      .cls-28 {
        fill: #625e77;
      }

      .cls-29 {
        fill: #e5d2be;
      }

      .cls-30 {
        fill: #ac918c;
      }

      .cls-31 {
        fill: #776981;
      }

      .cls-32 {
        fill: #a39292;
      }

      .cls-33 {
        fill: #a1a6be;
      }

      .cls-34 {
        fill: #a0a7c0;
      }

      .cls-35 {
        fill: #a78a86;
      }

      .cls-36 {
        fill: #fff;
      }

      .cls-37 {
        fill: #b79995;
      }

      .cls-38 {
        fill: #887d8f;
      }

      .cls-39 {
        fill: #cfc8cb;
      }

      .cls-40 {
        fill: #7b768e;
      }

      .cls-41 {
        fill: #bec4d4;
      }

      .cls-42 {
        fill: #bb9e90;
      }

      .cls-43 {
        fill: #625e79;
      }

      .cls-44 {
        fill: #ccafa1;
      }

      .cls-45 {
        fill: #a6a7b5;
      }

      .cls-46 {
        fill: #8e7680;
      }

      .cls-47 {
        fill: #c5c8d3;
      }

      .cls-48 {
        fill: #f0f4f9;
      }

      .cls-49 {
        fill: #a68c88;
      }

      .cls-50 {
        fill: #b29c96;
      }

      .cls-51 {
        fill: #937985;
      }

      .cls-52 {
        fill: #b69794;
      }

      .cls-53 {
        fill: #d0afa2;
      }

      .cls-54 {
        fill: #bb9e91;
      }

      .cls-55 {
        fill: #bb9b97;
      }

      .cls-56 {
        fill: #e7d4bf;
      }

      .cls-57 {
        fill: #cbaea1;
      }

      .cls-58 {
        fill: #caaca0;
      }

      .cls-59 {
        fill: #ecdac5;
      }

      .cls-60 {
        fill: #9795aa;
      }

      .cls-61 {
        fill: #c1a39a;
      }

      .cls-62 {
        fill: #f9f4ea;
      }

      .cls-63 {
        fill: #947f88;
      }

      .cls-64 {
        fill: #fbfdfe;
      }

      .cls-65 {
        fill: #d0b5a5;
      }

      .cls-66 {
        fill: #d2d8e4;
      }

      .cls-67 {
        fill: #cdb6a5;
      }

      .cls-68 {
        fill: #867987;
      }

      .cls-69 {
        fill: #d2b7a8;
      }

      .cls-70 {
        fill: #816f81;
      }

      .cls-71 {
        fill: #bfa099;
      }

      .cls-72 {
        fill: #8b7381;
      }

      .cls-73 {
        fill: #927b89;
      }

      .cls-74 {
        fill: #cbb4a7;
      }

      .cls-75 {
        fill: #aa8d88;
      }

      .cls-76 {
        fill: #a98c8a;
      }

      .cls-77 {
        fill: #fbf7f0;
      }

      .cls-78 {
        fill: #f2e7d4;
      }

      .cls-79 {
        fill: #b09392;
      }

      .cls-80 {
        fill: #a89493;
      }

      .cls-81 {
        fill: #9e868c;
      }

      .cls-82 {
        fill: url(#_名称未設定グラデーション_37);
      }

      .cls-83 {
        fill: #9f9cac;
      }

      .cls-84 {
        fill: #7b667c;
      }

      .cls-85 {
        fill: #a6888c;
      }

      .cls-86 {
        fill: #8e8ba1;
      }

      .cls-87 {
        fill: #a58d88;
      }

      .cls-88 {
        fill: #a68b88;
      }

      .cls-89 {
        fill: #e3e8f1;
      }

      .cls-90 {
        fill: #8e7480;
      }

      .cls-91 {
        fill: #8c7f8d;
      }

      .cls-92 {
        fill: #cbafa2;
      }

      .cls-93 {
        fill: #bcc3d4;
      }

      .cls-94 {
        fill: #adb4c9;
      }

      .cls-95 {
        fill: #9b888d;
      }

      .cls-96 {
        fill: #ceb2a5;
      }

      .cls-97 {
        fill: #d7beaf;
      }

      .cls-98 {
        fill: #69627e;
      }

      .cls-99 {
        fill: #9f9caf;
      }

      .cls-100 {
        fill: #8e89a1;
      }

      .cls-101 {
        fill: #cbaea2;
      }

      .cls-102 {
        fill: #aa9794;
      }

      .cls-103 {
        fill: #8f7b8b;
      }

      .cls-104 {
        fill: #a48787;
      }

      .cls-105 {
        fill: #a69ca0;
      }

      .cls-106 {
        fill: #837589;
      }

      .cls-107 {
        fill: #9d868a;
      }

      .cls-108 {
        fill: #d3bbab;
      }

      .cls-109 {
        fill: #837a8f;
      }

      .cls-110 {
        fill: #7d687f;
      }

      .cls-111 {
        fill: #8a7886;
      }

      .cls-112 {
        fill: #b0948b;
      }

      .cls-113 {
        fill: #e4d0bb;
      }

      .cls-114 {
        fill: #efe1cb;
      }

      .cls-115 {
        fill: #ae9fa2;
      }

      .cls-116 {
        fill: #a89fa7;
      }

      .cls-117 {
        fill: #dadfeb;
      }

      .cls-118 {
        fill: #8d7986;
      }

      .cls-119 {
        fill: #64607b;
      }

      .cls-120 {
        fill: #908895;
      }

      .cls-121 {
        fill: #9a8389;
      }

      .cls-122 {
        fill: #988488;
      }

      .cls-123 {
        fill: #97858d;
      }

      .cls-124 {
        fill: #999eb6;
      }

      .cls-125 {
        fill: #ebd9c3;
      }

      .cls-126 {
        fill: #65617b;
      }

      .cls-127 {
        fill: #d5baaa;
      }

      .cls-128 {
        fill: #9c8f96;
      }

      .cls-129 {
        fill: #ceb2a4;
      }

      .cls-130 {
        fill: #877e98;
      }

      .cls-131 {
        fill: #87839c;
      }

      .cls-132 {
        fill: #d7bfaf;
      }

      .cls-133 {
        fill: #f9f5ea;
      }

      .cls-134 {
        fill: #757492;
      }

      .cls-135 {
        fill: #8a7281;
      }

      .cls-136 {
        fill: #c4a59d;
      }

      .cls-137 {
        fill: #8d7889;
      }

      .cls-138 {
        fill: #aa9197;
      }

      .cls-139 {
        fill: #64607a;
      }

      .cls-140 {
        fill: #a9b0c6;
      }

      .cls-141 {
        fill: #7c809f;
      }

      .cls-142 {
        fill: #81738e;
      }

      .cls-143 {
        fill: #fdfdfe;
      }

      .cls-144 {
        fill: #9c9198;
      }

      .cls-145 {
        fill: #ccafa3;
      }

      .cls-146 {
        fill: #615c77;
      }

      .cls-147 {
        fill: #8a7587;
      }

      .cls-148 {
        fill: #a48887;
      }

      .cls-149 {
        fill: #7d718c;
      }

      .cls-150 {
        fill: #947b88;
      }

      .cls-151 {
        fill: #c6bfc4;
      }

      .cls-152 {
        fill: #caada1;
      }
    </style>
    <linearGradient id="_名称未設定グラデーション_37" data-name="名称未設定グラデーション 37" x1="221.53" y1="448.73" x2="189.65" y2="462.75" gradientUnits="userSpaceOnUse">
      <stop offset="0" stop-color="#928690"/>
      <stop offset="1" stop-color="#7e6f87"/>
    </linearGradient>
  </defs>
  <g id="_レイヤー_1-2" data-name="レイヤー 1">
    <g id="_生成オブジェクト" data-name="生成オブジェクト">
      <path class="cls-39" d="M174.43,468.72c-.01,1.22.26,2.45.43,4.07l6.99.12.22,8.69,72.19.08c.43-1.31.8-2.31.76-3.3.17.04.46,0,.93-.41l34.89-.11c5.31-.02,4.22,8.52,3.58,10.07-1.14,2.77-4.93,1.47-6.99,1.82-3.02.52-5.63,1-8.91,1.02l-56.04.37-8.88.03-165.68.04c-1.62,0-2.38-.78-3.56-.8l-28.45-.37c-4.34-.06-8.17-.26-12.6-.31-.83,0-2.29-1.22-3.08-1.78,0-2.43-.68-5.84.22-8.13,1.12-2.84,4.71-1.42,6.81-1.66,6.27-.73,11.88-.08,18.35-.02,1.24-4.42,9.9-3.72,13.63-3.36l.36,6.95,66.06-.32c2.29-.01,4.68.37,7.26-.06.31-3.12-.41-5.74.08-8.24.27-1.39.4-2.82.41-4.24l6.68-2.03c-6.75,2.05,57.09-1.36,46.5,1.08,2.85-.66,5.37.4,7.83.79Z"/>
      <g>
        <g>
          <path class="cls-119" d="M237.58,108.61c-.48.03-.97,0-1.32.14-.81.31-.72,6.25-.56,5.08-.61,4.29-.83,8.81-.13,13.26,3.22.26,5.84-.24,9,.34l-.05,87.04-8.84.37c-.29.01.03,1.46-.35,1.41-.43-.2-.58-.79-.39-1.46.69-2.42.33-5.01.34-7.49l.06-79.58c-3.07-1.12-6.09-.26-9.6-.65l-.39-9.97c-3.07-.18-5.93.76-8.2-.59l.31-7.67c2.5-1.16,5.39-.3,8.05.14.14.02.3-.04.44.06l.26,7.49c2.87.59,5.69.57,8.65.42-.28-3.43.61-6.03-.5-8.46,1.42.2,1.05-1.7,1.04-2.93l-.14-40.98v-15.01s.06-19.82.06-19.82c0-3.7.67-7.55,0-11.59l-8.84-.04-.21,10.28c-.3.1-.04,1.13-.3,1.14l-8.68.34-.46,19.39c-2.97.6-5.37,0-8.71.28-.03,3.52-.22,6.61-.44,9.69l-8.47.27c-1.14,3.92-.65,7.78.03,11.24-.2,2.52-1.26,6.16-1.15,8.86l-7.91.31.2,15.43c-3.07-.09-6.8,1.27-9.42-.59.27-2.4.39-4.87-.03-7.62h-66.89c-2.92-.01-6.09.88-8.95-.07-.52-2.31.11-4.75-.04-7.38l-7.07-.41-.39-7.83-8.93-.41c-.43-4.13-.13-7.8-.42-11.48l-.77-9.8-9.46-.46c.27-4.09.15-7.75-.21-11.38-.22-2.22.37-4.79,0-7.29.23-.3,1.28-.13,1.41-.25,2.3.02,4.79-.28,7.39.12.66,3.49-.81,7.11.52,10.45,1.16,2.91.2,5.75.82,8.6l9.63.2.47,21.27,9.32.37.37,7.58c2.05.47,3.68-.4,5.71-.4l67.46-.02c1.48,1.27,4.74,2.06,5.46.58,1.14-2.36-.12-4.82.64-7.19l9.07-.54.51-11.65c.02-.55,2.02-.22,2.04-1.22l.39-17.82,9.24-.17.33-10.35,8.48-.11.48-10.7c2.38-.31,4.36.19,6.46-.43l.24-9.95,10.95-.13.23-8.71c3.18-.07,5.97-.42,9.23.14l-.06,107.89-7,.41Z"/>
          <path class="cls-126" d="M77.24,29.89l-8.44-.16c-2.29-.04-4.55-.74-7.91-.18-.87-4.1.05-7.72-.91-11.32-.76-2.85-.48-6.19-.05-8.97,2.84-.57,5.84-.34,9.01-.13l.14,11.86,8.09.47.07,8.43Z"/>
          <path class="cls-126" d="M234.97,222.41l-.22,8.88-16.28.49c-1.59-.75-1.51-2.28-1.49-3.89.02-1.48,0-2.76.15-5.04,3.02.25,5.62-.3,8.18-.35,3.19-.06,6.46.61,9.66-.09Z"/>
          <path class="cls-28" d="M59.41,8.85l-6.74.03c-.96,0-1.94-.53-2.93-.31-.36-2.58-.35-5.17-.14-8.42,3.61-.12,6.48-.2,9.88.12l-.07,8.59Z"/>
          <path class="cls-121" d="M234.93,214.79c-.19.67-.04,1.26.39,1.46.31,1.85-.3,4.29-.35,6.16-3.19.7-6.47.03-9.66.09-.34-2.62.09-5.2.61-7.66l9.01-.05Z"/>
          <path class="cls-102" d="M77.24,29.89c.7.01,1.9-.62,1.95.52-.13.12-1.19-.04-1.41.25.38,2.5-.21,5.06,0,7.29-2.94-.05-5.87.06-9.02-.4.02-3-.32-5.44.04-7.82l8.44.16Z"/>
          <path class="cls-115" d="M59.41,8.85c.24,0,.41.21.52.41-.43,2.78-.71,6.12.05,8.97-2.3.3-4.62.03-6.9-.07-.55-.7-.54-1.56-.52-2.7l.11-6.58,6.74-.03Z"/>
          <path class="cls-120" d="M52.67,8.88l-.11,6.58c-.02,1.15-.03,2,.52,2.7-1.45-.06-3.29-.1-4.48.83-.58.19-.9-.13-.93-.71-.17-2.81.04-5.77.06-8.82.72-.4,1.59-.81,2.01-.9.98-.22,1.97.32,2.93.31Z"/>
          <path class="cls-138" d="M218.48,231.78l-1.26.11c-2.99.25-6.02.32-9.02.17-.05-.95-.77-3.32.61-3.66,2.94-.73,5.71.26,8.17-.51-.02,1.61-.1,3.14,1.49,3.89Z"/>
          <path class="cls-143" d="M237.58,108.61c-.48.65-1.76,7.07-1.87,5.21-.17,1.17-.25-4.77.56-5.08.34-.13.83-.11,1.32-.14Z"/>
          <path class="cls-101" d="M104.53,87.28l.26,8.02c.45.06,1.12-.03,1.02.6-.15.34-1.2-.25-1.21.11l-.25,7.46c-2.62.12-4.77-.31-7.27.14l-.44,4.63-5.28.78c-.22,2.27.85,5.05-1.23,6.17-.81.44-2.88-.93-3.19.57-.27,1.3.04,2.73-.71,3.45s-2.82-.22-3.75.41c-1.74,1.19-.18,4.62-1.25,6.52-.84,1.49-3.52.44-5.4.95l.29,88.2c0,2.77,1.07,5.39-.26,7.63-2.76.06-5.58.27-8.68-.19l-.25-7.83-5.65-.31.14-78.83c0-3.12-.82-5.86.04-8.66,2.49-.19,4.94.21,7.61-.27l.36-9.65c2.7-.2,4.62.21,7.07-.3l.59-9.24c1.13-.1,2.31-.21,3.72-.54l.3-9.66c.85.28.87-.61.78-1.69l5.42-.79c-1.45-2.91-.02-5.11.03-7.21l17.15-.49Z"/>
          <path class="cls-114" d="M53.09,18.16c2.29.1,4.61.36,6.9.07.96,3.6.04,7.22.91,11.32,3.35-.56,5.61.13,7.91.18-.36,2.39-.01,4.83-.04,7.82,3.14.47,6.08.36,9.02.4.35,3.64.47,7.29.21,11.38l9.46.46.77,9.8c.29,3.67-.01,7.35.42,11.48l8.93.41.39,7.83,7.07.41c.15,2.63-.48,5.07.04,7.38-.16.12-.34.18-.53.18l-17.15.49c.07-2.63-.47-5.5-.2-8.5l-8.96-.46-.4-12.04.03-6.96c0-.57-.43-.75-.71-.66l-7.01-.07c-.83,0-1.75-.17-2.7-.49-.5-2.74-.01-5.32-.17-8.61-2.11-.59-4,.08-5.83-.21-.33-.33-.84.1-1.38-.1l-.3-10-10.73-.24c.26-6.65-1.42-13.67-.42-20.43,1.19-.93,3.02-.89,4.48-.83Z"/>
          <path class="cls-145" d="M180.97,244.77l-.2,8.64h-67.67c-.53-2.71.06-5.09-.18-8.4l-16.47-.3-.48-6.84-9.68-.17c.91-2.28-.33-4.32-.21-5.79l.66-8.27c1.93.17,4.64-1.52,7.11-.2-.6,17.43,1.8,1.28,2.59,13.91l24.02.02.37,7.59,60.15-.21Z"/>
          <path class="cls-71" d="M70.14,59.07c-.2,2.17-.37,4.38.08,6.89h6.9s.02-6.82.02-6.82c.28-.09.71.09.71.66l-.03,6.96c-2.75-.19-5.37-.11-8.56.32.2,3.39-.67,6.87.21,10.02s1.99,5.79,1.44,9.52c-.12.83.21,1.69.81,1.72-.92,1.62.03,3.98-.96,5.71l-1.43,2.49-.33,11.14c0,.3-.51.46-.56.76-.47,2.81.08,5.46-.54,8.28-2.97.28-5.44.42-7.85.04l-.34-8.73-11.15-.26c-.71-2.54.56-5.07.47-6.96l11.23-.61-.17-49.87c.59-.37,1.41.28,1.35-.57,1.82.29,3.72-.38,5.83.21.16,3.28-.32,5.86.17,8.61.95.33,1.88.49,2.7.49Z"/>
          <path class="cls-69" d="M61.44,49.76c.06.85-.76.2-1.35.57l.17,49.87-11.23.61c-.98-20.41-.79-41.11,0-61.39l10.73.24.3,10c.54.19,1.06-.23,1.38.1Z"/>
          <path class="cls-150" d="M77.13,107.66c-2.69.24-5.44.21-8.13.03l.33-11.14,1.43-2.49c.99-1.73.05-4.09.96-5.71l4.98.22.44,19.09Z"/>
          <path class="cls-152" d="M197.31,236.85c1.3,2.08.55,4.95.42,7.75l-16.23.12c-.27-2.29-.24-4.82.12-7.44l15.69-.43Z"/>
          <path class="cls-136" d="M86.73,223.65l-.66,8.27-9.23-.37c-.37-2.85-.25-5.43-.26-7.96,3.28-1.06,6.87-.23,10.16.06Z"/>
          <path class="cls-7" d="M180.93,94.79c-1.67.92-3.89.7-6.17.7l-54.63.22-.11-6.84c-2.32-1.03-4.47-.37-6.58-.25,0-.67.45-.83.57-1.46h66.89c.41,2.77.29,5.23.03,7.63Z"/>
          <path class="cls-11" d="M235.23,64.6l.14,40.98c0,1.23.38,3.13-1.04,2.93-2.8-.3-5.74-.44-8.4.55-.13-.11-.29-.04-.44-.06.69-1.95-.26-11.22-.94-13.05.96-2.04,1.63-5.73,1.33-8.07,5.36,2.48,1.46-15.99,3.32-20.86,1.4-.79,3.43.8,4.78-.37.64-.55.29-2.21,1.25-2.04Z"/>
          <path class="cls-58" d="M235.24,49.59v15.01c-.98-.17-.63,1.49-1.26,2.04-1.35,1.17-3.38-.42-4.78.37-1.86,4.87,2.04,23.34-3.32,20.86-.9-7.12,1.28-21.2-1.98-21.88,1.01-2.15.35-4.67.59-6.95.32-2.91.53-5.78.29-9.25,3.87-.47,7.13-.34,10.46-.2Z"/>
          <path class="cls-62" d="M207.58,103.57c-.1.93.11,3.02.81,3.96,2.96.7,6.07.12,8.77.29-.03.45.31.53.29,1.03l-.31,7.67c-2.65,1.33-6.33.96-9.52.73-2.27-.16-1.03-3.11-1.59-4.23-1.07-2.13-4.43-.68-7.18-.93-.52-2.16-.97-5.55-.1-8.01,2.27-1.41,6.22-.75,8.84-.51Z"/>
          <path class="cls-57" d="M198.06,79.63c.21,5.25.4,10.63-.07,16-2.72.71-5.32-.19-7.64-.26l-.2-15.43,7.91-.31Z"/>
          <path class="cls-133" d="M235.29,29.78c-2.67.05-5.6.59-8.37-.23-.41-.12.01-1.36-.69-1.12l.21-10.28,8.84.04c.68,4.04.01,7.88,0,11.59Z"/>
          <path class="cls-25" d="M207.65,59.27c-.26,3.65.43,7.15-.4,11.32-2.73.29-5.75,1.28-8.04.19-.68-3.46-1.17-7.32-.03-11.24l8.47-.27Z"/>
          <path class="cls-22" d="M224.55,95.94c.69,1.83,1.64,11.1.94,13.05-2.66-.44-5.54-1.3-8.05-.14.02-.51-.32-.58-.29-1.03.25-3.9,1.13-7.75,1.02-11.9l6.37.02Z"/>
          <path class="cls-81" d="M114.01,87.15c-.12.63-.57.79-.57,1.46-.01,2.24.06,4.55-.37,7.11l-7.25.18c.1-.64-.57-.54-1.02-.6l-.26-8.02c.19,0,.37-.07.53-.18,2.86.95,6.03.06,8.95.06Z"/>
          <path class="cls-37" d="M234.33,108.5c1.11,2.43.22,5.03.5,8.46-2.96.15-5.78.17-8.65-.42l-.26-7.49c2.66-.99,5.6-.85,8.4-.55Z"/>
          <path class="cls-96" d="M235.27,207.3c0,2.49.35,5.08-.34,7.49l-9.01.05c.06-2.04-.9-4.66-.19-7.35l9.54-.19Z"/>
          <path class="cls-55" d="M223.9,65.99c3.26.68,1.07,14.76,1.98,21.88.3,2.34-.37,6.03-1.33,8.07l-6.37-.02c.11,4.15-.77,8-1.02,11.9-2.7-.17-5.81.41-8.77-.29-.7-.94-.91-3.03-.81-3.96.43-4,.37-11.77.61-16.15,2.2-.53,3.97.04,5.79-.6l.54-13.1c.02-.58,2.17-.48,2.15-1.31-.05-1.96.54-3.98.36-5.75l6.87-.66Z"/>
          <path class="cls-65" d="M224.5,59.04c-.25,2.28.41,4.8-.59,6.95l-6.87.66c-.24-2.36-.67-4.74-.18-7.46,2.58-.25,5.16-.5,7.65-.16Z"/>
          <path class="cls-98" d="M77.82,66.77l.4,12.04c.09,2.62-.38,5.8.05,8.53.52.47,2.47.07,2.53,1.11.2,3.28.43,6.17.35,9.01l-.3,9.66c-1.41.33-2.59.44-3.72.54l-.44-19.09-4.98-.22c-.6-.03-.93-.89-.81-1.72.56-3.74-.59-6.48-1.44-9.52s-.02-6.63-.21-10.02c3.2-.43,5.81-.5,8.56-.32Z"/>
          <path class="cls-127" d="M87.37,87.77c-.06,2.1-1.48,4.29-.03,7.21l-5.42.79c.08,1.08.07,1.97-.78,1.69.09-2.84-.14-5.74-.35-9.01-.06-1.04-2.01-.64-2.53-1.11-.43-2.73.03-5.91-.05-8.53l8.96.46c-.27,3,.28,5.88.2,8.5Z"/>
          <path class="cls-132" d="M77.14,59.14l-.02,6.82h-6.9c-.46-2.52-.29-4.72-.08-6.9l7.01.07Z"/>
          <g>
            <path class="cls-15" d="M235.29,29.78l-.05,19.82c-3.33-.14-6.59-.27-10.46.2.25,3.47.03,6.34-.29,9.25-2.49-.35-5.07-.09-7.65.16-.49,2.71-.06,5.1.18,7.46.18,1.77-.41,3.79-.36,5.75.02.83-2.13.73-2.15,1.31l-.54,13.1c-1.82.64-3.59.07-5.79.6-.24,4.38-.18,12.16-.61,16.15-2.62-.24-6.56-.9-8.84.51-.87,2.46-.42,5.85.1,8.01,2.75.25,6.11-1.19,7.18.93.56,1.12-.68,4.06,1.59,4.23,3.19.23,6.87.59,9.52-.73,2.28,1.35,5.13.41,8.2.59l.39,9.97c3.51.39,6.53-.48,9.6.65l-.06,79.58-9.54.19c-.7,2.69.25,5.31.19,7.35-.51,2.45-.95,5.04-.61,7.66-2.56.05-5.16.6-8.18.35-.15,2.28-.13,3.56-.15,5.04-2.46.77-5.23-.22-8.17.51-1.38.35-.66,2.71-.61,3.66s-.28,1.91-.44,3.65l-6.33-.18c-1.87-.05-2.93,1.13-4.12,1.32l-15.69.43c-.37,2.62-.39,5.15-.12,7.44l-.53.04-60.15.21-.37-7.59-24.02-.02c-.78-12.63-3.19,3.52-2.59-13.91-2.47-1.32-5.18.37-7.11.2-3.29-.29-6.88-1.11-10.16-.06,0-.56-.14-.68-.69-.66,1.33-2.24.27-4.86.26-7.63l-.29-88.2c1.88-.51,4.56.54,5.4-.95,1.07-1.91-.49-5.33,1.25-6.52.92-.63,3,.31,3.75-.41s.45-2.15.71-3.45c.31-1.5,2.38-.13,3.19-.57,2.07-1.13,1.01-3.91,1.23-6.17l5.28-.78.44-4.63c2.5-.45,4.64-.02,7.27-.14l.25-7.46c.01-.35,1.07.23,1.21-.11l7.25-.18c.44-2.56.36-4.87.37-7.11,2.11-.12,4.26-.78,6.58.25l.11,6.84,54.63-.22c2.28,0,4.5.22,6.17-.7,2.62,1.86,6.35.5,9.42.59,2.33.07,4.92.97,7.64.26.47-5.38.28-10.76.07-16-.11-2.69.95-6.34,1.15-8.86,2.29,1.09,5.3.11,8.04-.19.83-4.17.15-7.68.4-11.32.22-3.07.4-6.16.44-9.69,3.34-.27,5.74.32,8.71-.28l.46-19.39,8.68-.34c.26-.01,0-1.03.3-1.14.7-.24.28,1,.69,1.12,2.76.82,5.69.28,8.37.23Z"/>
            <path class="cls-43" d="M161.24,224.32c-1.81-.14-3.73-.52-5.5-.11-.12-.77-.94-1.18-1.22-2.25l-13.51.21c-.67,1.95-2.59,1.85-3.69,1.82l-6.23-.16c-.07-2.78-.17-5.66.01-8.64l12.91-.34c.87-.02.59-2.91-.66-2.82-1.07.08-1.88-.13-2.35-.63s-.3-1.25-.58-2.11c-.57-1.71-2.77-1.63-4.21-2-.26-2.06-.32-3.97-.02-6.19l22.64.04c.11,2.05.62,4.63-.5,6.25-.37.54-2.11-.14-2.63.35-.47.44-.3,1.5-.99,2.35-3.05,3.75-6.22,2.35-4.84,4.72.47.8,11.33.3,13.64.26.13,3.09.38,5.7-.23,8.77-.21.58-1.61.46-2.03.49Z"/>
            <path class="cls-77" d="M224.63,134.98c-.9,1.14-5.42,1.29-6.08-.1-1.08-2.3-.06-5.53-.15-7.93,2.29-.28,4.02-.28,6.18-.03.27,2.44.99,5.83.05,8.07Z"/>
            <path class="cls-92" d="M137.32,223.98l-.57,3.45c-1.9.04-3.61-.02-5.39-.33-.31-1.27-.25-2.29-.28-3.29l6.23.16Z"/>
            <path class="cls-53" d="M161.24,224.32c-.1,1.04-.48,2.04-.88,3.15-1.79.25-3.43.4-4.95-.39.33-1.14-.49-2.17.33-2.87,1.77-.41,3.7-.03,5.5.11Z"/>
            <g>
              <polygon class="cls-146" points="112.46 207.1 85.64 206.99 85.59 160.48 112.48 160.4 112.46 207.1"/>
              <path class="cls-36" d="M109.52,175.1c-.7,2.02-5.13.74-7.08.86-.64-2.81-.23-4.84-.22-7.87,2.56-.48,4.96-.24,7.73-.03-.29,2.04.6,4.07-.43,7.04Z"/>
            </g>
            <g>
              <polygon class="cls-146" points="208.57 206.97 182.03 207.37 181.99 160.48 208.41 160.33 208.57 206.97"/>
              <path class="cls-36" d="M205.73,175.81c-2.62.71-4.64.44-7.45.29-.62-2.6-.16-4.96-.32-8.04,2.51-.58,5.07-.29,7.81.02l-.04,7.73Z"/>
            </g>
          </g>
        </g>
        <g>
          <path class="cls-139" d="M59.54,390.95l.15,25.3-.28,6.8-.15.68-8.5-.36.12-32.44c3.26-.17,5.99-.52,8.66.02Z"/>
          <path class="cls-93" d="M60.55,390.33l6.9.35c2.53,9.2-3.45,6.69-2.41,9.52.44,1.18,1.06,2.09,2.54,1.71-.11.93-.12,2.3.7,2.85-1.02,3.29-.09,6.74-.7,10.09-4.66,2.13-2.85.52-7.89,1.4l-.15-25.3c.34-.33.38,0,.55-.07.2-.08.39-.43.46-.55Z"/>
          <path class="cls-52" d="M32.15,340.52l-.8,17.88c-2.19-.23-5.09.92-7.48.46-.36-.07-.86.07-.69-.54.04-.03.44-.1.95-.23l.07-17.9c2.86-.12,5.9-1.29,7.95.34Z"/>
          <path class="cls-116" d="M67.44,458.6v7.51c-5.85.63-11.74-.09-17.64-.11-.05-2.44-.51-5.03.17-7.54.03-.23.24-.35.46-.47,5.57.97,11.32.14,17.01.61Z"/>
          <path class="cls-42" d="M207.74,360.18c.36,2.13.44,4.69.22,6.99l-9.24.19c-.37,2.07-.46,4.35-.01,6.49,3.38,1.03,6.69.04,9.52-.47,2.59.13,5.75.91,8.83.44.47,3.12-.15,5.62.78,8.12-2.13,1.06,0,5.86-1.3,7.49-3.41.31-6.55.28-9.74-.54l.2-6.83c-2.91-.25-5.51-.33-8,.15-.55,2.42-.07,4.55-.26,6.68-.04.48-.24.91-.67.95-2.18,0-4.43-.2-6.86.18-1.35,1.86.45,7.8-1.41,7.96-2.9-.16-5.82.45-8.74-.04.5-2.47.01-5.1.18-7.88-2.72-.54-4.99-.19-7.2.09-1.63.21-3.77-.69-5.48-.59.29-2.48.13-4.93-.15-7.71-4.19.27-7.51-.41-10.76.21-.9-5.17-.13-10.48-.5-15.73l6.31-.17c.31-.77.02-1.9.55-2.43l15.66-.65c1.09-.67,1.21-3.04,1.02-4.05.52.06.85.48,1.22,1.15h25.82Z"/>
          <path class="cls-12" d="M99.64,398.45c-.2.15-.84-.25-.66-.55l.02-6.13c0-.31.1-.85-.13-1.5-1.45.53-2.85-.65-3.89-.63l-.16-7.5c-2.53-.32-4.79-.3-7.34,0-.65,2.5.03,4.63-.04,6.75-.85,1.29-2.75.7-4.15.74-1.86.05-3.84.15-5.92-.32l-.19-7.95c2.93,0,5.94.35,9.08-.2l.45-7.02c2.51-.23,4.78.28,7.15-.25.4-2.4.16-4.67-.29-6.76s.55-4.43-.59-6.36c5.28-.54,11.37-.57,16.67.13.57.82.61,2.61,1.33,2.7.83.1,2.07.39,2.48-.62.3-.73-.37-1.68.37-1.99.54-.23,1.23-.09,1.47.27.16.24-.16,1.79.13,1.86,3.1.63,6.8.43,10.03.71,1.04.09.71,2.01,1.25,2.1,5.1.95,10.12.34,15.6.32l.16,15.52c-3.79-.2-7.02,0-10.52.22-4.05.26-8.08-.44-12.14.07-.43,2.6.07,4.97-.07,7.76l-5.84.52-.55,7.79c-3.68.69-12.39-.63-13.68.31Z"/>
          <path class="cls-14" d="M96.93,466.1c-1.49-.24-4.75-1.16-5.66.86-.8,1.76.11,4.21-.45,5.94l-41.28.21c-1.07-2.72.3-5.14.26-7.11,5.9.02,11.79.74,17.66.11,2.84-.3,6.26.97,9.3-.06.6-2.54-.02-5.18.29-7.53l8.84-.05c-.11-2.79.41-4.6-.12-7.06l-18.45-.05c-1.14-2.45,0-5.17.18-7.18l9.32.43c.22-2.68.42-5.1-.37-7.27,1.63-1.03,3.75-1.35,5.86-2.37,3.76-1.82,8.45,1.98,10.12-3.09.52-1.57,4.38-.64,5-1.9.8-1.61-.48-4.38,1.73-4.98,1.35-.37,1.4,1.5,1.29,2.48-.07.61-.32,1.38-1.45,1.96,1.24,2.04,3.19,2.35,6.07,2.02.15,6.06.42,11.73.11,17.56l-1,18.41c1.62-1.82-8.5-2.23-7.23-1.34Z"/>
          <path class="cls-51" d="M152.16,366.39l-7.43.06c.35,2.82-1.29,5.82.83,7.67.25.22.12.95-.09,1.21-.98,1.26-1.26,4.38-.47,5.83,2.28.97,4.97-.2,7.15.26,1.01,2.21.95,5.03.4,8.01l-28.99.23-.41,16.68c-3.33-.54-6.55,1.15-9.13.94-2.91-.24-6.64-.89-9.69-.62-.69-.98-2.87-1.1-3.8-1.95-1.72-1.57-.73-4.57-.9-6.26,1.29-.94,9.99.38,13.68-.31l.55-7.79,5.84-.52c.14-2.8-.36-5.16.07-7.76,4.07-.51,8.09.19,12.14-.07,3.5-.22,6.73-.42,10.52-.22l-.16-15.52c-5.47.02-10.5.64-15.6-.32-.53-.1-.2-2.01-1.25-2.1-3.23-.28-6.93-.08-10.03-.71-.29-.07.03-1.62-.13-1.86-.24-.36-.94-.5-1.47-.27-.74.31-.07,1.27-.37,1.99-.41,1.01-1.65.72-2.48.62-.72-.09-.76-1.88-1.33-2.7-5.3-.69-11.4-.66-16.67-.13-1.95-.26-4.62-.81-6.79-.56.19-2.02-.72-4.11.32-6.4l22.69.53,1.95,6.93c.3-.4,1.33-.72,1.38-1.73l.24-5.27c5.36.13,11.56-.41,17.05.37.52,1.26.83,4.29,3.08,4.6,6.51.88,13.38.02,20.21.59-.25,2.75.46,4.89-.92,6.57Z"/>
          <path class="cls-18" d="M217.06,390.44c-.04,2.26-.36,4.52.3,7.24l16.81.3-.03,17.99-8.46.14-.43-11.48-14.96.18c-.93.01-1.61.33-1.69.86-.1.69-.02,1.54.94,1.57l7.45.19c.28.41.11,1.12.07,1.38-5.65-1.88-11.8.25-17.73-.57l-.65-4.79c-.22-1.62.73-3.28.78-4.9.17-.09.16-.65.6-.69l6.82-.55c.41-2.47.03-4.4.06-6.34,3.31-1.11,6.67-.54,10.12-.53Z"/>
          <path class="cls-140" d="M90.01,423.7c-7.08-.92-23.01.45-30.59-.65l.28-6.8c5.04-.89,3.23.73,7.89-1.4.14.06.22.77.72.9,2.72.17,5.75.38,8.27-.04.57-.51.61-2.12.44-2.75-.32-1.16-.64-2.61.32-4.65l9.56.1c1.21,2.05.1,4.62.64,7.03,2.33.46,4.22.45,6.68.05.36-3.82-.33-7.64-.06-10.9l.1-1.25c.86.19,1.95.21,2.33.79,1.36,2.03.87,15.48.6,18.99-2.71.01-5.02.87-7.17.59Z"/>
          <path class="cls-89" d="M233.5,390.51l1.52,1.17c.13,6.44.9,12.99.32,19.79-.37,4.32.51,8.32-.39,12.2-2.98-.25-6.11-.29-9.13-.28-.64-1.94-.23-4.07-.19-6.91-2.74-1.08-5.63.07-8.56-.65l-.02-7.01c.04-.26.2-.97-.07-1.38l-7.45-.19c-.95-.02-1.04-.88-.94-1.57.08-.53.76-.85,1.69-.86l14.96-.18.43,11.48,8.46-.14.03-17.99-16.81-.3c-.66-2.72-.34-4.98-.3-7.24l16.44.07Z"/>
          <path class="cls-94" d="M217.06,408.8l.02,7.01c2.92.73,5.81-.42,8.56.65-.04,2.85-.45,4.97.19,6.91l-25.65.06c-.72,0-1.32.4-1.88.3-.03-.24-.17-.52-.16-.76.19-3.2-.47-6.82.22-10.12l.97-4.63c5.93.82,12.08-1.3,17.73.57Z"/>
          <path class="cls-48" d="M83.29,390.31c1.35-.03,2.74.21,4.32.42l.13,6.87c2.07.21,3.92-.26,5.71.64l.8,5.08-.1,1.25c-1.77.27-4.54-.46-6.37.52-.19,1.12.53,3.35-.89,3.3l-9.56-.1c-.96,2.04-.64,3.49-.32,4.65-.31.25-.55,0-.92-.1.88.26-1.34-5.29.4-6.11,1.31-.62.37-3.17-.52-2.94-2.03,1.27-5.51.59-7.69.96-.81-.55-.81-1.92-.7-2.85.16-1.3.14-2.76,1.07-4.08l8.09-.38c.22-2.54.28-4.79.22-7l6.3-.13Z"/>
          <path class="cls-59" d="M51.29,338.56c2.32,1.08,4.91.02,7.35.93-.04,2.12.44,4.46-.37,6.6-2.42-.22-4.87-.66-5.67,1.25-.57-.51-3.36-1.54-3.64-.28-.82,3.66.37,7.58-.24,11.48-3.35.69-6.71-.17-9.81.04l.39-17.77c4.94-1.46,5.99,1.64,8.03-2.55,1.17.94,3.07-.11,3.95.3Z"/>
          <path class="cls-124" d="M225.83,423.38c3.01,0,6.14.04,9.13.28.24,1.49.99,3.83.2,6.07h-36.34c-.79-2.18-.29-4.11-.51-5.99.56.1,1.16-.3,1.88-.3l25.65-.06Z"/>
          <path class="cls-31" d="M181.06,397.94c2.92.49,5.84-.12,8.74.04,2.42.13,5.02.51,7.51.52.13,1.32,1.3,3.21.67,4.87-1.79.84-3.97,0-6.21.45-1,2.4-.23,4.79-.58,7.07-.8-.63-.96-1.25-.57-3.08l-8.94-.18-.15,2.55c-1.41-.22-.14-2.19-.31-2.91-1.96-.87-4.73-.5-7.44-.52-.5-3.1-.21-6.16.3-8.95,1.91,1.59,4.81-.24,6.98.12Z"/>
          <path class="cls-6" d="M180.48,354.62c.12,1.39-.03,3.07.22,4.42.19,1.01.06,3.37-1.02,4.05l-15.66.65c-.53.53-.25,1.66-.55,2.43l-6.31.17c-.15-2.08-.76-4.16-.1-6.66,4.5,1.01,7.73-2.21,9.22-5.12,4.82-1.82,10.32.64,14.21.06Z"/>
          <path class="cls-58" d="M51.29,338.56c-.88-.41-2.78.64-3.95-.3-2.04,4.19-3.09,1.09-8.03,2.55l-.39,17.77c-2.64.18-5.03.08-7.57-.19l.8-17.88c1.91-.89,4.69-1.68,6.53-2.88.47-.31-.06-2.63,1-2.6l11.44.3c.81.45.35,2.51.17,3.22Z"/>
          <path class="cls-134" d="M90.01,423.7c-.16,1.97.3,4.02-.58,5.95-9.59.39-18.92.61-28.72.29-2.1-.07.49-7.09-1.44-6.2l.15-.68c7.58,1.09,23.51-.27,30.59.65Z"/>
          <path class="cls-13" d="M207.74,360.18h-25.82c-.37-.67-.7-1.08-1.22-1.14-.25-1.35-.1-3.03-.22-4.42,8.96-1.33,18.31-.42,27.6-1,1.35,2.2-.6,4.99-.34,6.56Z"/>
          <path class="cls-104" d="M93.56,367.14c.45,2.08.69,4.36.29,6.76-2.37.53-4.64.02-7.15.25l-.45,7.02c-3.14.54-6.15.19-9.08.2-.05-1.93-.37-5.05.23-7.22,2.36-1.14,5.55-.11,8.37-.59l.84-6.45,6.95.04Z"/>
          <path class="cls-33" d="M199.33,408.23l-.97,4.63c-.69,3.3-.03,6.91-.22,10.12-1.3-.26-2.68.3-4.18-.31l-.3-6.22c-.02-.48-1.7-.22-2.02-.79-.22-.4-.11-1.02-.13-1.58-.02-.8.46-2.56-.32-3.18.35-2.28-.42-4.67.58-7.07,2.25-.45,4.42.39,6.21-.45.22.31.45.41.69.06l.65,4.79Z"/>
          <path class="cls-76" d="M168.56,389.57c-3.57.22-7.28.08-11.09-.24-.7-2.58-.03-5.25.18-7.26,3.25-.62,6.57.06,10.76-.21.28,2.78.44,5.23.15,7.71Z"/>
          <path class="cls-147" d="M114.02,407.28c.01,2.58.24,5.16-.22,7.93l-9.55-.08.08-8.47c3.04-.28,6.77.38,9.69.62Z"/>
          <path class="cls-66" d="M69.09,390.42c2.63.19,5.26.08,7.89.02.05,2.21,0,4.46-.22,7l-8.09.38c-.93,1.32-.92,2.78-1.07,4.08-1.48.38-2.11-.53-2.54-1.71-1.05-2.82,4.94-.32,2.41-9.52.61.03,1.1-.3,1.64-.26Z"/>
          <path class="cls-49" d="M77.17,381.36l.19,7.95c2.08.47,4.06.37,5.92.32v.68l-6.3.13c-2.63.06-5.26.17-7.89-.02.15-2.82.06-5.65.55-8.66,2.66-.4,5.13-.39,7.53-.4Z"/>
          <path class="cls-144" d="M77.05,458.53c-.31,2.35.31,4.98-.29,7.53-3.04,1.03-6.46-.24-9.3.06v-7.51c3.15.26,6.39-.05,9.59-.07Z"/>
          <path class="cls-103" d="M191.19,410.9c.78.62.3,2.38.32,3.18-.55-.18-.95.07-1.16,1.09l-8.62-.43c-.1-1.62-.28-3.13-.2-4.54l.15-2.55,8.94.18c-.39,1.83-.23,2.44.57,3.08Z"/>
          <path class="cls-91" d="M76.44,437.36c.79,2.17.6,4.59.37,7.27l-9.32-.43c.13-1.49-1.83-4.3.54-5.78s5.98-.36,8.41-1.06Z"/>
          <path class="cls-35" d="M207.96,367.17c-.18,2,.67,4.18.26,6.22-2.83.51-6.14,1.5-9.52.47-.44-2.14-.36-4.42.01-6.49l9.24-.19Z"/>
          <path class="cls-109" d="M113.01,473.11c-.49,2.51.23,5.12-.08,8.24-2.57.44-4.96.05-7.26.06-.68-2.58-.26-5.46.06-8.23l7.27-.07Z"/>
          <path class="cls-148" d="M181.06,397.94c-2.16-.36-5.07,1.47-6.98-.12.44-2.44-.74-5.21-.04-7.67,2.2-.28,4.48-.63,7.2-.09-.17,2.78.32,5.41-.18,7.88Z"/>
          <path class="cls-54" d="M152.16,366.39c1.41,1.98.68,4.66.8,7.65l-7.39.08c-2.12-1.85-.48-4.85-.83-7.67l7.43-.06Z"/>
          <path class="cls-111" d="M198.07,389.84c-.19,2.74-1,5.85-.75,8.66-2.49,0-5.09-.39-7.51-.52,1.86-.16.06-6.11,1.41-7.96,2.43-.38,4.67-.17,6.86-.18Z"/>
          <path class="cls-88" d="M206.8,388.9c-2.16-.55-5.99,2.54-8.06,0,.2-2.13-.29-4.26.26-6.68,2.49-.48,5.09-.39,8-.15l-.2,6.83Z"/>
          <path class="cls-122" d="M216.54,389.44c1.3-1.63-.84-6.43,1.3-7.49,1.77.08,5.04-.62,6.48,1.18,1.34,1.68.28,4.54.82,6.35-2.95.67-5.81-.29-8.6-.04Z"/>
          <path class="cls-75" d="M94.98,389.63l-6.26.11c-.71.01-.7-1.18-1.28-.86.07-2.11-.61-4.24.04-6.75,2.55-.31,4.81-.32,7.34,0l.16,7.5Z"/>
          <path class="cls-47" d="M206.94,390.96c-.03,1.94.35,3.88-.06,6.34l-6.82.55c-.44.04-.43.59-.6.69-1.33-1.74-1.22-4.63-.75-6.92,2.56-1.63,5.86.15,8.23-.65Z"/>
          <path class="cls-4" d="M52.6,347.35c.8-1.91,3.26-1.47,5.67-1.25.81-2.14.33-4.49.37-6.6,2.03-5.48,1.74,12.18,1.48,12.63-2.7.1-4.96.15-7.51-.06-.23-1.85-.05-3.28,0-4.72Z"/>
          <path class="cls-112" d="M92.96,360.78c1.15,1.93.14,4.26.59,6.36l-6.95-.04c-.8-2.17-.66-4.54-.44-6.88,2.18-.25,4.85.3,6.79.56Z"/>
          <path class="cls-10" d="M152.15,381.42c-2.18-.46-4.87.71-7.15-.26-.79-1.44-.51-4.57.47-5.83l6.74.54c1.62,1.33.13,4.23-.07,5.54Z"/>
          <path class="cls-5" d="M96.93,466.1c-.69,1.85.57,4.54-.43,6.34-1.32,1.36-4.12.45-5.68.46.56-1.73-.35-4.18.45-5.94.92-2.02,4.18-1.1,5.66-.86Z"/>
          <path class="cls-117" d="M77.01,412.95c.17.63.13,2.25-.44,2.75-2.52.42-5.55.21-8.27.04-.5-.13-.58-.84-.72-.9.61-3.35-.32-6.81.7-10.09,2.18-.37,5.66.31,7.69-.96.89-.23,1.83,2.32.52,2.94-1.74.83.48,6.37-.4,6.11.36.11.61.35.92.1Z"/>
          <path class="cls-41" d="M94.15,404.58c-.27,3.26.42,7.08.06,10.9-2.46.4-4.35.41-6.68-.05-.54-2.41.57-4.98-.64-7.03,1.42.04.7-2.18.89-3.3,1.83-.98,4.6-.25,6.37-.52Z"/>
          <g>
            <path class="cls-119" d="M48.61,18.99c-1,6.76.68,13.79.42,20.43-.8,20.28-.99,40.98,0,61.39.09,1.9-1.18,4.43-.47,6.96l11.15.26.34,8.73c2.41.38,4.88.24,7.85-.04.62-2.82.07-5.47.54-8.28.05-.31.55-.46.56-.76,2.69.18,5.44.2,8.13-.03l-.59,9.24c-2.45.51-4.37.1-7.07.3l-.36,9.65c-2.67.48-5.13.08-7.61.27-.86,2.8-.03,5.53-.04,8.66l-.14,78.83,5.65.31.25,7.83c3.1.46,5.93.25,8.68.19.55-.01.69.11.69.66.01,2.53-.11,5.11.26,7.96l9.23.37c-.12,1.46,1.12,3.5.21,5.79l9.68.17.48,6.84,16.47.3c.24,3.32-.35,5.69.18,8.4h67.67s.2-8.64.2-8.64l.53-.04,16.23-.12c.13-2.8.88-5.67-.42-7.75,1.2-.2,2.25-1.38,4.12-1.32l6.33.18c.15-1.74.48-2.73.44-3.65,3,.15,6.03.08,9.02-.17l.09,12.59c8.47-.21,8.85.92,17.59.93l.23,8.31,9.08.33.06,21.86-8.55.53.06,7.85,8.64.19c.2,2.69-.38,4.9.21,7.31l6.6.2-.06,7.64,6.61.57.18,7.52c3,.1,5.18-.29,8.15.38-1.24,2.93.63,5,.67,7.14l.45,23.87c.12,6.46.81,13.09-.16,19.05-.5,3.07-.72,5.77-.67,9.22l-30.39.11-.27-8.65c-2.82-.27-5.34.18-7.99-.36-.22-3.28.38-6.5-.16-9.25-.5-.31-2.09.1-2.09-.7v-21.2c-2.69-.24-5.2-.23-7.96-.02l-.05,46.15,8.69.36.52,8.14,8.18.15v8.13c-.47-.48-.95.28-1.39.28l-16.44-.07c-3.45-.01-6.82-.59-10.12.53-2.38.8-5.67-.98-8.23.65-.46,2.29-.58,5.18.75,6.92-.06,1.62-1.01,3.28-.78,4.9-.24.35-.47.25-.69-.06.63-1.66-.54-3.55-.67-4.87-.25-2.81.57-5.92.75-8.66.44-.04.63-.47.67-.95,2.08,2.55,5.9-.55,8.06,0,3.19.82,6.33.85,9.74.54,2.78-.25,5.64.7,8.6.04-.54-1.81.52-4.67-.82-6.35-1.44-1.8-4.71-1.1-6.48-1.18-.93-2.5-.31-5-.78-8.12-3.08.47-6.24-.31-8.83-.44.41-2.04-.44-4.22-.26-6.22.21-2.3.13-4.86-.22-6.99-.26-1.57,1.69-4.35.34-6.56-9.29.58-18.65-.34-27.6,1-3.89.58-9.4-1.87-14.21-.06-1.5,2.91-4.72,6.13-9.22,5.12-.65,2.5-.04,4.58.1,6.66.37,5.25-.4,10.56.5,15.73-.21,2.02-.88,4.68-.18,7.26,3.81.31,7.52.46,11.09.24,1.71-.11,3.85.8,5.48.59-.7,2.46.49,5.23.04,7.67-.51,2.79-.8,5.84-.3,8.95,2.71.01,5.48-.36,7.44.52.18.72-1.09,2.69.31,2.91-.08,1.42.09,2.92.2,4.54l8.62.43c.21-1.03.61-1.27,1.16-1.09.01.56-.09,1.18.13,1.58.32.58,1.99.31,2.02.79l.3,6.22c1.5.61,2.88.05,4.18.31-.01.24.13.52.16.76.23,1.88-.27,3.8.51,5.99h36.34c.79-2.24.04-4.57-.2-6.07.9-3.88.02-7.88.39-12.2.58-6.8-.2-13.34-.32-19.79.5.08.62-.39.52-.78,2.78-.32,5.66-.32,8.81.09l.15,59.29c0,2.78.47,5.23.23,7.89l8.06.21c.64,2.45.18,4.84.24,7.26.02.68,1.84.49,1.9.91.56,3.95-.03,8.04.1,11.82.04.99-.33,1.99-.76,3.3l-72.19-.08-.22-8.69-6.99-.12c-.18-1.62-.44-2.85-.43-4.07l.52-53.15-3.56-.74.04-8.03-6.62-.28-.24-8.22-31.86-.05-.68,8.42-7.52.22c-.51,2.77.37,5.29-.41,7.95-.38,1.3-2.72.24-3.94.84l-.37,29.24-6.17.44-.19,23.5c-.01,1.42-.14,2.85-.41,4.24l-7.27.07c-.33,2.78-.74,5.65-.06,8.23l-66.06.32-.36-6.95.27-8.43c.82-.32,1.99-.08,2.42-.63.59-2.32.08-4.42.43-7.19,2.78-.22,5.22-.33,7.59-.06-.67,2.51-.21,5.09-.17,7.54.04,1.98-1.33,4.39-.26,7.11l41.28-.21c1.56,0,4.36.9,5.68-.46,1-1.8-.26-4.49.43-6.34-1.26-.89,8.86-.48,7.23,1.34l1-18.41c.32-5.82.04-11.5-.11-17.56-2.88.33-4.83.02-6.07-2.02,1.13-.58,1.38-1.35,1.45-1.96.11-.99.06-2.85-1.29-2.48-2.21.6-.93,3.36-1.73,4.98-.62,1.26-4.49.32-5,1.9-1.67,5.08-6.36,1.28-10.12,3.09-2.1,1.02-4.22,1.34-5.86,2.37-2.43.69-6.16-.35-8.41,1.06-2.37,1.48-.41,4.29-.54,5.78-.18,2.02-1.32,4.73-.18,7.18l18.45.05c.53,2.46,0,4.27.12,7.06l-8.84.05c-3.2.02-6.45.33-9.61.07-5.69-.46-11.44.36-17.01-.61-.34-2.33-.25-4.88.1-7.4l7.2-.23c.77-6.95-.53-13.87.61-20.5.39-2.25,1.36-4.27.93-6.13,1.93-.89-.66,6.13,1.44,6.2,9.8.33,19.13.1,28.72-.29.88-1.94.42-3.99.58-5.95,2.15.28,4.46-.58,7.17-.59.27-3.51.76-16.96-.6-18.99-.39-.58-1.47-.61-2.33-.79l-.8-5.08c-1.79-.9-3.65-.44-5.71-.64l-.13-6.87c-1.58-.21-2.98-.45-4.32-.42v-.68c1.4-.04,3.3.55,4.15-.74.58-.32.57.87,1.28.86l6.26-.11c1.04-.02,2.44,1.16,3.89.63.24.65.14,1.19.13,1.5.8-.95-6-.84-7.07-.31,1.11,1.5,2.59,2.63,3.58,4.31.54.92-.27,2.27,1.09,2.4.77.08,1.66.39,2.37-.27-.18.29.46.69.66.55.17,1.69-.82,4.69.9,6.26.93.85,3.1.97,3.8,1.95l-.08,8.47,9.55.08c.46-2.77.23-5.35.22-7.93,2.58.21,5.8-1.48,9.13-.94l.41-16.68,28.99-.23c.55-2.98.61-5.79-.4-8.01.19-1.31,1.69-4.21.07-5.54l-6.74-.54c.21-.26.34-.99.09-1.21l7.39-.08c-.12-2.99.61-5.67-.8-7.65,1.38-1.68.68-3.82.92-6.57-6.83-.57-13.7.3-20.21-.59-2.25-.31-2.56-3.34-3.08-4.6-5.49-.78-11.69-.24-17.05-.37l-.24,5.27c-.04,1-1.08,1.33-1.38,1.73l-1.95-6.93-22.69-.53c-1.04,2.29-.13,4.38-.32,6.4-.22,2.34-.36,4.71.44,6.88l-.84,6.45c-2.81.48-6.01-.54-8.37.59-.6,2.18-.28,5.29-.23,7.22-2.4,0-4.87,0-7.53.4-.49,3.01-.4,5.84-.55,8.66-.54-.04-1.03.29-1.64.26l-6.9-.35c-.09-2.61-.19-5.31.18-8.17l7.2-.43.59-8.42c2.58-.26,4.71.26,7.55-.67-1.32-2.4.5-4.24.51-5.76l.33-48.05c.01-1.92,1.16-4.39-.95-5.78-.42,2.17-.05,3.96-.18,5.7-1.78,1.1-3.9.09-6.52.58l-.28,29.07c-5.03,2.06,1.65,2.7-7.93,4-.53,2.31.13,4.54-.76,6.71-3.35.65-6.37.66-9.75.48l-.64,8.02-26.06-.18c-.27-3.23-.43-5.95.03-8.57,2.39.45,5.29-.69,7.48-.46,2.53.26,4.93.36,7.57.19,3.1-.21,6.46.65,9.81-.04.61-3.9-.58-7.82.24-11.48.28-1.27,3.07-.23,3.64.28-.04,1.44-.22,2.87,0,4.72,2.56.21,4.82.16,7.51.06.26-.45.55-18.12-1.48-12.63-2.44-.91-5.03.15-7.35-.93.17-.71.63-2.77-.17-3.22l-11.44-.3c-1.06-.03-.53,2.29-1,2.6-1.84,1.21-4.62,1.99-6.53,2.88-2.05-1.63-5.09-.46-7.95-.34l-.07,17.9c-.51.14-.91.2-.95.23-2.11.17-4.22.24-6.99-.13l.07-44.31,6.61-.37.68-13.54c3.66-.13,6.6.15,9.97-.38l.09-6.89c2.02-.37,3.93.04,5.73-.74.11-7.36,1.41-5.93.94-14.41l10.14-.51c-.53-2.66-.12-4.83.61-7.23,1.46-4.74-.23-10.17.69-15.52l8.76-.43.18-8.52,15.61-.81c.34-4.13.49-7.77.23-11.67l-9.18-.12-.51-7.57c-.02-.28.37-1.1-.08-1.29-1.57-.65-3.3.24-4.69-.17-2.27-.68-4.48-.82-7.79-.65l.02-95.69,5.69-.61-.13-9.37c-4.04-.29-7.66.28-11.43-.54-.26-3.34.34-6.02-.36-8.81l-8.74-.36-.09-88.94,8.44-.47c.04.58.35.9.93.71Z"/>
            <g>
              <path class="cls-143" d="M66.82,225.18c-1.61.01-3.55-.4-4.76-1.46,1.38.41,3.12-.48,4.69.17.44.18.06,1.01.08,1.29Z"/>
              <g>
                <path class="cls-143" d="M76.91,318.82c-.41.48-.66-.37-1.13-.08.12-1.74-.24-3.53.18-5.7,2.12,1.39.97,3.86.95,5.78Z"/>
                <path class="cls-143" d="M234.87,390.22c-.13.47.18.93.67.68.1.39-.02.86-.52.78l-1.52-1.17c.44,0,.92-.76,1.37-.28Z"/>
                <path class="cls-15" d="M113.33,262.6l67.53.03c-.02.51-.02.98.62.78.14,1.99-.56,4.46.38,6.86.49,1.25,3.97.69,4.99.05-.35,1.57,3.96-.55,3.76,1.87.11,1.38-.35,2.79.22,4.39,2.4.31,4.51.16,6.89.02.41.65.19,1.26.32,1.8-.29,2.42-.04,5.16.73,7.35-.64,1.54-.97,3.89-.64,6.37l-10.34.27-.39,26c-1.96.79-3.97.07-6.1.62-.02,2.68.13,4.79-.38,7.28l-21.16.31c.38,1.23,1.03,1.52,1.42,2.45.3.7-.13.89-.76,1.69l-27.16.16c-.36,1.02.19,2.92-.9,2.98-6.96.44-13.68-.08-20.3-.14.34-2.24.34-4.64.09-7.17l-8.53-.3c-.51-2.52.06-4.95-.17-7.46l-8.07-.5.19-19.42c2.7-.34,4.84-.05,7.54-.09.45-2.23.48-4.23.25-6.47l-7.27-.14c-1.15-3.19.66-4.04-1.33-6.26,1.73-2.54.46-5.82,1.11-8.93l7.45-.41c.42-1.63.1-3.05.31-4.39.11-.72-.38-1.22.43-1.4.53-.12.58-.39,1.07-.26,1.46.38,4.26.87,5.96.06,1.24-2.47.14-5.54.74-7.98l1.47-.02Z"/>
                <path class="cls-82" d="M229.49,435.96c-.12,1.46,1,5.26-.44,5.37l-3.16.25c-.52.04-1.17,2.47-.04,2.75,3.03.77,6.21,0,9.12.57.81,0,.64.69-.06.88-1.34.79-2.99.81-4.82.61-.66,1.78.29,3.19.05,4.66l-31.72.43c-.15,2.73-.28,4.89.19,7.61l9,.24c.67,1.79.05,3.92.17,6.1,3.34,1.08,7.02.44,10.11.8,2.93.34,5.72.32,8.72.22s5.97.07,8.96-.3c2.38-.29,5.5.75,8.03-.12.33-.12-.03-1.03.3-1.33.92,2.45,1.24,5.25.53,8.23l-53.19.07c-.71-2.32-.1-4.28-.28-6.6l-8.35-.05.26-33.67c0-1.05.45-1.46,1.09-1.66.85-.25,1.01.88,1.67,1.29,3.64,2.27,8.16.7,11.94,1.45,16.95,3.35,16.77-.38,31.9,2.22Z"/>
                <path class="cls-129" d="M207.69,326.17l-9.24.35c-.14,2.55-.17,4.54.09,6.44-11.99,1.95-24.53.52-36.94,1.02.02-1.8.06-2.55-.29-2.97-.17-.2-.6.02-.87-.27.63-.79,1.05-.99.76-1.69-.4-.93-1.04-1.22-1.42-2.45l21.16-.31c.51-2.49.36-4.6.38-7.28,2.13-.55,4.14.18,6.1-.62l.39-26,10.34-.27c-.33-2.48,0-4.83.64-6.37l9.5.05c-.35,13.83.57,27.2-.6,40.37Z"/>
                <path class="cls-57" d="M94.8,285.93c1.98,2.22.18,3.07,1.33,6.26l7.27.14c.23,2.24.2,4.24-.25,6.47-2.7.04-4.85-.25-7.54.09l-.19,19.42,8.07.5c.22,2.51-.35,4.94.17,7.46l8.53.3c.25,2.53.24,4.92-.09,7.17-8.51-.07-17.02.36-25.89-.26l.1-47.28,8.51-.27Z"/>
                <path class="cls-100" d="M244.96,309.28c-1.16,2.83.2,5.83.05,8.74-1.18,1.86-1.11,4.61-.44,7.15.79-.11,10.44.66,7.33-1.63.12-.29-.21-1.01,0-1.15.82-.54,2.48.48,3.16.94.73.49-.13,1.38.24,2.16.44.9,1.98.63,2.68.59l-.02,4.24-22.77.28c-.3-1.31.16-3.2-.72-4.03-2.38-.48-4.64.16-7.19.17-1.21-11.05,7.86-4.43,8.5-13.26,1.82-1.41,4.19-.44,5.73-1.91.35-.79.2-1.87.88-2.15.82-.34,1.46-.11,2.57-.14Z"/>
                <path class="cls-80" d="M206.87,253.57c.63-.12,1.01.16,1.3.16-.02,3.03.02,5.95.61,8.84.48,2.34-.98,5.32-.15,8,2.69,1.04,5.69,0,8.35-.01l11.92-.03.47,6.21c-4.42.6-8.42.28-12.38.58-2.71.21-5.59-.88-8.16.28-1.74-.26-4.29-.58-6.65-.6-.61-4.88-.5-9.09-.49-13.69l.02-9.8c2.23-.03,3.71-.13,5.17.06Z"/>
                <path class="cls-113" d="M224.72,253.75c1.03-.16,1.24.98,1.98.75-.07,2.49-.46,5.01.2,7.75,3,.19,5.6.27,8.09-.23,1.06,2.73.34,6.04-.01,8.71-1.99-.57-4.05-.21-6.08-.21l-11.92.03c-.74-2.7,1.35-6.28-1.04-8.3.18-1.71.82-7.17-.09-8.42,3.22.05,6.04.36,8.89-.09Z"/>
                <path class="cls-27" d="M64.83,285.79c-.06,1.89-.3,3.87-.12,5.83,5.29-.49.75,5.35,3.66,7.96.87,2.55-.53,5.24-.74,7.46-2.17-.75-4.52-.13-6.78-.38.31-2.11-.16-4.42-.11-6.54.05-2.32.49-4.82-.05-7.46l-12.28-.6c-.07-2.13-.54-4.37.11-6.63l4.08-.32c.11-2.45-.21-4.45.07-6.88.1-.92,1.91-.98,1.98-.04.2,2.71-.23,4.7.19,7.46,3.69-.62,6.88.02,10.01.13Z"/>
                <path class="cls-99" d="M46.27,311.75c.93.51,2.16,1.05,3.61,1.3l.5,5.56c-3.64,3.57-.56,0-1.24,6.79,4.64.22,7.84,2.47,10.95,4.89-.1,1.01.63,2.09-.16,3.28-10.82-2.83-10.15-2.45-20.91-2.57l.15-4.83c3.51-.19,5.99.25,8.93-.28-.67-2.32-2.12-.55-2.9-.54l-6.35.08.16-7.14c1.89.05,3.24.58,4.02-.35,1.42-1.7-3.81-1.42-3.49-4.47s7.57-1.27,6.75-1.72Z"/>
                <path class="cls-29" d="M78.6,254.04c-.42,2.41.74,5.71-.14,8.01-1.96,2.46-.54,5.63-1.28,8.63l-9.61.19c-2.4.05-4.97-.66-7.51-.17-1.2-2.45-.3-5.53-.04-8.11l8.03.06c.44-2.92.58-5.68.33-8.3.4-.15.68-.55,1.14-.57,2.92.93,6.06.35,9.08.26Z"/>
                <path class="cls-61" d="M226.03,285.8c.21,3.76-.24,10.4.52,13.76.36,1.58-1.69,5.05.76,6.35,2,1.06,5.15-.2,7.45-.18.21-2.39.13-4.21-.06-6.1.22,0,.49-.48.78-.16-.03,2.15.19,3.91.35,5.65.08.92-.29,1.6-.29,2.11-.97.92-8.62,6.58-9.29,4.87-.22-1.65.17-3.34-.33-5.06l-8.31-.32.18-20.84c3-.31,5.64-.2,8.25-.07Z"/>
                <path class="cls-32" d="M92.8,253.85c1.68,5.45.2,11.47.88,17.31-1.85.86-3.82-.18-5.16.83-1.06,1.15-.05,3.31-.51,4.94-2.29.64-4.72-.35-6.75.03,2.5-1.41-11.63-2.06-12.41-2.13-2.05-.18-1.62-2.7-1.28-3.98l9.61-.19c2.98-.06,6.1.53,9.5.12.47-2.98.04-5.65.1-8.29.06-2.81.38-5.66.04-8.47,1.99-.03,4.02.11,5.98-.19Z"/>
                <path class="cls-3" d="M261.52,346.01c.2,4.15.34,8.28.04,12.72l-24.98-.14c-.03-2.52,0-4.19.36-6.18,2.35.06,4.85-.97,6.91-.37,3.55,1.03,7.4.98,11.64.99l.86-6.82c2.02,0,3.77.72,5.17-.22Z"/>
                <path class="cls-1" d="M257.25,339.16l4.19.51c.44,2.66-.02,4.41.08,6.34-1.4.94-3.15.21-5.17.22l-.86,6.82c-4.24-.01-8.09.04-11.64-.99.54.02.76-.54.75-1.37l-.07-8.16c-3.45-2.52,13.83-3.22,12.72-3.36Z"/>
                <path class="cls-118" d="M92.8,253.85c-1.97.3-3.99.16-5.98.19-1.57.02-3.21-.15-4.77-.1l-3.45.1c-3.02.09-6.17.67-9.08-.26.16-1.42-.91-8.5,1.98-8.29,8.35.6,11.88-.8,21.07,1.95,1.47.89,1.49,5.27.23,6.42Z"/>
                <path class="cls-83" d="M257.47,315.86c.03,3.29,1.05,6.49.51,10.23-.7.04-2.24.31-2.68-.59-.38-.78.48-1.67-.24-2.16-.69-.46-2.34-1.49-3.16-.94-.21.14.12.85,0,1.15-1.42-1.04-1.14-3.23-2.33-4.63-.95-1.12-5.17.84-4.55-.89.15-2.91-1.21-5.92-.05-8.74l12.44-.39.07,6.97Z"/>
                <path class="cls-44" d="M257.25,339.16c1.11.14-16.17.84-12.72,3.36.07-1.07-.5-1.5-1.2-1.43-1.05.1-2.87-.39-2.97.75l-.38,4.46c-1.54.6-3.22.56-5.18.27l.23-11.65,21.85-.13c.7,1.58.15,2.99.37,4.37Z"/>
                <path class="cls-60" d="M46.27,311.75c.82.45-6.45-1.2-6.75,1.72s4.92,2.77,3.49,4.47c-.78.93-2.12.4-4.02.35l-.16,7.14c-2.06.03-4.2.24-6.75-.05-.47-2.61.08-5.08-.13-7.44-.23-2.6-.34-5.14-.02-8.61,1.28-.17,17.54-1.17,14.33,2.43Z"/>
                <path class="cls-8" d="M235.48,299.46c-.3-.32-.56.16-.78.16-2.68.09-5.47.21-8.15-.07-.76-3.35-.3-10-.52-13.76,2.75-1.49,6.13-.97,9.33-.86.24,5.33.18,9.83.12,14.52Z"/>
                <path class="cls-63" d="M224.72,253.75c-2.84.45-5.66.14-8.89.09l-7.66-.11c-.29,0-.66-.28-1.3-.16-.07-.64.61-.51,1.09-.62l.26-7.23c5.79-.56,11.13-.38,17.11-.12-.43,2.98.18,5.65-.62,8.15Z"/>
                <path class="cls-130" d="M38.84,325.43l6.35-.08c.79-.01,2.23-1.78,2.9.54-2.94.54-5.42.1-8.93.28l-.15,4.83-14.58-.16.29-12.33c3.1.1,5.49.9,7.24-.58.21,2.36-.34,4.83.13,7.44,2.55.29,4.68.08,6.75.05Z"/>
                <path class="cls-85" d="M68.37,299.58c-2.91-2.6,1.63-8.45-3.66-7.96-.18-1.96.06-3.94.12-5.83,3.7.14,7.45-.51,11.71.12.34,4.29.38,8.57.04,12.89-3.47.66-6.17-.57-8.22.77Z"/>
                <path class="cls-46" d="M128.06,347.64l-15.45-.44c-.65-2.4-.39-4.96,0-7.59l15.36-.12c.42,2.71.53,5.04.1,8.14Z"/>
                <path class="cls-70" d="M198.05,278.4c-.12-.54.1-1.15-.32-1.8-2.38.14-4.49.29-6.89-.02-.57-1.6-.11-3.01-.22-4.39-.08-.98,1.49-1.68,1.62-2.31,1.13-5.48-.03-10.93.29-16.22.69-.56,3.15-1.2,3.45-.05,1.23,4.64.36,9.58.73,14.48.29,3.79,1.73,7.02,1.34,10.31Z"/>
                <path class="cls-17" d="M60.73,300.13c-.05,2.12.42,4.43.11,6.54-.48,3.33-.28,6.19-1.45,5.92-1.11.26-3.32.51-4.08-.8-.66-1.14.27-3.04-.88-3.76-.84-.53-2.06-.06-2.56-.93s-1.88-2.03-2.91-2.36c-.27-1.53-.5-3.01-.47-4.56l12.24-.05Z"/>
                <path class="cls-90" d="M178.68,347.2c-4.13.81-8.07.39-12.4.48-.25-2.85-.36-5.24.13-7.94,4.51-.3,8.24-.1,12.46.16.47,2.4.46,4.81-.2,7.3Z"/>
                <path class="cls-24" d="M191.85,253.75v8.79c-1.81.29-3.6-.37-4.76.61-1.72-.34-4.11-1.03-5.61.25-.65.2-.65-.27-.62-.78l.37-8.79,10.62-.08Z"/>
                <path class="cls-151" d="M234.97,444.9c-2.91-.57-6.09.2-9.12-.57-1.12-.28-.48-2.71.04-2.75l3.16-.25c1.44-.11.32-3.91.44-5.37l.33-4.2c1.89-.58,3.58-.79,5.42-.18-.13,4.64.47,9.03-.27,13.32Z"/>
                <path class="cls-19" d="M60.73,300.13l-12.24.05c0-.39-.13-.92-.19-1.36-.27-2.24.17-4.51.09-6.75l12.28.6c.54,2.64.1,5.14.05,7.46Z"/>
                <path class="cls-38" d="M48.49,300.17c-.03,1.55.2,3.03.47,4.56-2.66-.85-5.65-.13-8.56-.77l-1.27,3.64c-2.25.02-4.46-.05-7-.64l.6-6.07c5.12-1.66,15.91,1,15.57-2.07.05.44.2.97.19,1.36Z"/>
                <path class="cls-95" d="M67.58,270.86c-.34,1.27-.77,3.79,1.28,3.98.78.07,14.92.72,12.41,2.13-7.02,1.3-14.31-.16-21.79.27-.26-2.64-.96-5.05.6-6.54,2.53-.49,5.1.22,7.51.17Z"/>
                <path class="cls-86" d="M60.08,330.29c-3.11-2.42-6.31-4.67-10.95-4.89.68-6.79-2.4-3.21,1.24-6.79,2.59,2.02,6.37.56,9.63,1.75.71,3.27.4,6.76.08,9.92Z"/>
                <path class="cls-137" d="M67.63,307.04c-.33,3.47.96,6.94-.11,11.09-1.75.03-5.67,1.23-6.81-.9-.77-1.43.63-3.99-1.31-4.65,1.17.27.97-2.59,1.45-5.92,2.27.25,4.61-.37,6.78.38Z"/>
                <path class="cls-50" d="M113.33,262.6l-1.47.02c-2.43.03-7.36-.46-7.37,1.26-.29-.25-1.13-.27-1.1-1.22l.21-8.6c2.76-.25,5.63-.38,8.64.04.56,4.59-.86,6.71,1.09,8.5Z"/>
                <path class="cls-135" d="M105.45,347.14c-3.48.62-6.93.43-10.48.06-.56-2.7-.2-4.91-.26-7.69l10.45-.14c.5,2.34.15,4.61.28,7.77Z"/>
                <path class="cls-128" d="M217.86,459.09c.79,2.28.03,4.76.04,7.13-3.09-.36-6.77.28-10.11-.8-.12-2.18.5-4.31-.17-6.1,3.49.09,6.84-.33,10.25-.23Z"/>
                <path class="cls-123" d="M235.54,307.22c0-.51.38-1.19.29-2.11,1.6-.67,3.2-.09,5.27-.18,1.5-.07.68-3.24,1.32-4.09,2.16-1.12,5.84-.8,8.14-.32l-.1,6.9c-6.4.82-8.79-.82-14.92-.2Z"/>
                <path class="cls-84" d="M197.27,347.09c1.25-3.62-.59-5.26,1.99-7.88,2.96-.3,5.42-.49,8.49-.39.63,2.62.54,5.23-.1,7.73l-10.37.55Z"/>
                <path class="cls-73" d="M103.6,254.06l-.21,8.6c-.02.94.82.96,1.1,1.22,1.92,1.69,1.13,4.38.68,6.65-.49-.13-.54.14-1.07.26-.81.18-.32.68-.43,1.4-.17-1.46-1.87-1.36-2.96-1.9-1.39-5.2-.48-11.85-.03-17.38,1.78.02,1.89,1.3,2.93,1.15Z"/>
                <path class="cls-79" d="M207.69,326.17c-.18,2.07,1.4,4.49.09,7.26-3.05-.32-6.66,1.32-9.23-.48-.27-1.9-.23-3.89-.09-6.44l9.24-.35Z"/>
                <path class="cls-105" d="M226.74,458.6c.06,2.62.09,5.23-.11,7.84-3,.1-5.8.13-8.72-.22,0-2.38.75-4.86-.04-7.13,2.88.08,5.78-1.17,8.87-.5Z"/>
                <path class="cls-23" d="M235.48,458.67l.1,7.47c-2.99.37-5.96.2-8.96.3.21-2.61.18-5.23.11-7.84,2.75.6,5.91-.7,8.75.07Z"/>
                <path class="cls-30" d="M68.38,254.34c.25,2.62.11,5.38-.33,8.3l-8.03-.06.8-8.1c2.54-.48,5.27-.94,7.56-.14Z"/>
                <path class="cls-149" d="M195.39,429.72l-11.81-.33c-.98-.75-.98-3.77-.12-4.45.99-.78,9.46.12,12.24-.21.4,1.81.2,3.11-.31,4.99Z"/>
                <path class="cls-40" d="M216.99,277.32c.48,2.14-.02,4.27,0,6.9-3.19.12-5.66.57-8.57.09.03-2.48.05-4.65.4-6.7,2.58-1.16,5.45-.08,8.16-.28Z"/>
                <path class="cls-131" d="M257.99,326.09c.54-3.73-.48-6.94-.51-10.23,1.6,1.93,5.08,1.73,7.17,3.14,1.31,1.11,1.39,6.16-.3,6.79-2.35.88-4.7.2-6.36.3Z"/>
                <path class="cls-21" d="M243.91,464.68c-.33.3.03,1.22-.3,1.33-2.54.87-5.65-.17-8.03.12l-.1-7.47c2.45.66,5.49-1.01,8.44.21.29,1.73-.63,4.14,0,5.81Z"/>
                <path class="cls-2" d="M199.26,339.21c-2.57,2.63-.73,4.26-1.99,7.88-2.31.26-4.43.34-6.76-.2l.33-7.39c3-.57,5.75-.02,8.41-.29Z"/>
                <path class="cls-87" d="M234.98,262.02c-2.49.5-5.09.43-8.09.23-.65-2.75-.27-5.27-.2-7.75,1.54-1.31,3.99-1.21,5.64-.16.73.46,3.35,9.48,2.65,7.68Z"/>
                <path class="cls-20" d="M190.63,272.19c.19-2.42-4.11-.3-3.76-1.87l.23-7.16c1.16-.99,2.94-.32,4.76-.61v-8.79c.19,0,.53.03.68-.09-.32,5.29.85,10.74-.29,16.22-.13.63-1.7,1.33-1.62,2.31Z"/>
                <path class="cls-110" d="M92.04,346.63c-1.8.62-3.64.64-5.63.25l-.13-7.38c2.01-.25,3.59-.31,5.51.07.58,2.32.42,4.54.24,7.06Z"/>
                <path class="cls-68" d="M234.97,270.74c.02,1.4,1.56,4.4-.21,5.54-1.46.94-3.91.25-5.39.45l-.47-6.21c2.03,0,4.09-.36,6.08.21Z"/>
                <path class="cls-26" d="M48.96,304.73c1.03.33,2.4,1.47,2.91,2.36-4.15.82-8.51.47-12.74.51l1.27-3.64c2.91.64,5.9-.08,8.56.77Z"/>
                <path class="cls-67" d="M99,391.77l-.02,6.13c-.71.66-1.6.35-2.37.27-1.36-.13-.55-1.48-1.09-2.4-.99-1.68-2.47-2.82-3.58-4.31,1.06-.53,7.87-.64,7.07.31Z"/>
                <path class="cls-72" d="M185.74,346.96c-.73.52-2.85.76-3.18.1-.66-2.02-.36-4.3-.13-6.72.12-1.24,2.3-1.23,3.07-.44.5,2.27.5,4.26.24,7.06Z"/>
                <path class="cls-16" d="M230.14,451.04c.24-1.47-.71-2.87-.05-4.66,1.83.21,3.48.18,4.82-.61.1,1.4.94,3.76-.3,5.01-1.15,1.16-3.32.24-4.47.26Z"/>
                <path class="cls-106" d="M103.4,417.13c1.81-1.06,1.26,5.42.77,5.68-.52.28-2.4.65-2.66-.28-.43-1.54.35-4.5,1.9-5.4Z"/>
                <path class="cls-142" d="M190.69,422.69c-2.55.73-5,.52-7.88.14,1.96-1.73,5.32-1.71,7.88-.14Z"/>
                <path class="cls-107" d="M111.86,262.61c-.6,2.44.5,5.51-.74,7.98-1.7.81-4.5.32-5.96-.06.45-2.27,1.24-4.96-.68-6.65.01-1.72,4.94-1.23,7.37-1.26Z"/>
                <path class="cls-57" d="M187.09,263.15l-.23,7.16c-1.02.64-4.51,1.2-4.99-.05-.94-2.41-.25-4.87-.38-6.86,1.5-1.28,3.89-.59,5.61-.25Z"/>
                <path class="cls-45" d="M251.9,323.55c3.12,2.29-6.54,1.52-7.33,1.63-.67-2.54-.73-5.29.44-7.15-.61,1.73,3.6-.23,4.55.89,1.19,1.4.91,3.59,2.33,4.63Z"/>
                <path class="cls-74" d="M215.92,262.26c2.4,2.02.31,5.6,1.04,8.3-2.65,0-5.66,1.05-8.35.01-.83-2.68.63-5.66.15-8,2.39-.01,4.79.16,7.15-.31Z"/>
                <path class="cls-125" d="M215.83,253.84c.91,1.24.28,6.7.09,8.42-2.36.47-4.75.3-7.15.31-.59-2.89-.63-5.81-.61-8.84l7.66.11Z"/>
                <path class="cls-108" d="M81.04,262.32c1.85.67,3.85-.1,5.74.19-.06,2.63.37,5.31-.1,8.29-3.4.41-6.52-.18-9.5-.12.74-3-.69-6.16,1.28-8.63.89.44,1.68-.06,2.58.27Z"/>
                <path class="cls-78" d="M82.06,253.93c-2.08,6.52.65,2.08-1.01,8.38-.89-.33-1.69.17-2.58-.27.88-2.3-.28-5.6.14-8.01l3.45-.1Z"/>
                <path class="cls-97" d="M234.7,299.62c.19,1.89.27,3.71.06,6.1-2.31-.02-5.45,1.24-7.45.18-2.45-1.3-.4-4.77-.76-6.35,2.68.28,5.47.15,8.15.07Z"/>
                <path class="cls-56" d="M86.82,254.04c.34,2.81.02,5.66-.04,8.47-1.89-.29-3.89.48-5.74-.19,1.66-6.3-1.07-1.86,1.01-8.38,1.55-.05,3.19.12,4.77.1Z"/>
                <g>
                  <path class="cls-64" d="M159.76,355.48c.16-.88-.73-3.12-1.67-2.91-1.2.27-1.67-.49-2.33-1.26.91-3.27.4-6.81.49-10.58l-17.74.02c-1.54-.69-3.17-.34-4.66.33-.28-2.07-.43-3.84.07-5.93l27.14-.18-.3,20.27c-.32.71-1.08,1.27-.99.23Z"/>
                  <path class="cls-34" d="M138.5,340.75c.03,3.51-.06,7.14.46,11.06l16.79-.5c.66.77,1.12,1.53,2.33,1.26.94-.21,1.83,2.03,1.67,2.91-6.4.86-13.77.1-20.55.59-1.58.11-4.33,2.81-5.72,1.03l.35-16.01c1.49-.68,3.13-1.03,4.66-.33Z"/>
                  <g>
                    <path class="cls-141" d="M155.76,351.32l-16.79.5c-.52-3.92-.43-7.54-.46-11.06l17.74-.02c-.09,3.77.42,7.31-.49,10.58Z"/>
                    <path class="cls-9" d="M149.36,345.36c-2,1.05-4.33.22-6.95.82-.54-1.65-.53-2.97.07-5.11l6.79.91c.66.24.79,2.88.09,3.37Z"/>
                  </g>
                </g>
              </g>
            </g>
          </g>
        </g>
      </g>
    </g>
  </g>
</svg>