<?xml version="1.0" encoding="UTF-8"?>
<svg id="_レイヤー_2" data-name="レイヤー 2" xmlns="http://www.w3.org/2000/svg" viewBox="0 0 298.91 491.22">
  <defs>
    <style>
      .cls-1 {
        fill: #ada7b9;
      }

      .cls-2 {
        fill: #f6ebdc;
      }

      .cls-3 {
        fill: #a99aa7;
      }

      .cls-4 {
        fill: #fefeff;
      }

      .cls-5 {
        fill: #777087;
      }

      .cls-6 {
        fill: #b4a6ae;
      }

      .cls-7 {
        fill: #a58d8e;
      }

      .cls-8 {
        fill: #cec2c0;
      }

      .cls-9 {
        fill: #dedfe2;
      }

      .cls-10 {
        fill: #7d749b;
      }

      .cls-11 {
        fill: #827a92;
      }

      .cls-12 {
        fill: #b3aebe;
      }

      .cls-13 {
        fill: #dbc5bc;
      }

      .cls-14 {
        fill: #dddde1;
      }

      .cls-15 {
        fill: #b7b2c0;
      }

      .cls-16 {
        fill: #d2d2d5;
      }

      .cls-17 {
        fill: #b7a9ae;
      }

      .cls-18 {
        fill: #c7c6cf;
      }

      .cls-19 {
        fill: #ada8b7;
      }

      .cls-20 {
        fill: #9a8b9e;
      }

      .cls-21 {
        fill: #bbafb3;
      }

      .cls-22 {
        fill: #f3e8d8;
      }

      .cls-23 {
        fill: #e2c59f;
      }

      .cls-24 {
        fill: #736c83;
      }

      .cls-25 {
        fill: #aaa4b7;
      }

      .cls-26 {
        fill: #b3adbd;
      }

      .cls-27 {
        fill: #fbfcf8;
      }

      .cls-28 {
        fill: #e8eaeb;
      }

      .cls-29 {
        fill: #ab8b8b;
      }

      .cls-30 {
        fill: #756d84;
      }

      .cls-31 {
        fill: #dbdcdf;
      }

      .cls-32 {
        fill: #e2e3e5;
      }

      .cls-33 {
        fill: #aea0a9;
      }

      .cls-34 {
        fill: #948aaf;
      }

      .cls-35 {
        fill: #fff;
      }

      .cls-36 {
        fill: #bcafb5;
      }

      .cls-37 {
        fill: #d6d4d6;
      }

      .cls-38 {
        fill: #8d849c;
      }

      .cls-39 {
        fill: #e1e1e5;
      }

      .cls-40 {
        fill: #8e8096;
      }

      .cls-41 {
        fill: #756d85;
      }

      .cls-42 {
        fill: #827aa1;
      }

      .cls-43 {
        fill: #f8ecad;
      }

      .cls-44 {
        fill: #ecc8c7;
      }

      .cls-45 {
        fill: #756e86;
      }

      .cls-46 {
        fill: #a28e9d;
      }

      .cls-47 {
        fill: #af8f8c;
      }

      .cls-48 {
        fill: #d0c3be;
      }

      .cls-49 {
        fill: #c6c4cc;
      }

      .cls-50 {
        fill: #8a829b;
      }

      .cls-51 {
        fill: #c4b7be;
      }

      .cls-52 {
        fill: #bc9990;
      }

      .cls-53 {
        fill: #917885;
      }

      .cls-54 {
        fill: #736d83;
      }

      .cls-55 {
        fill: #9b93a9;
      }

      .cls-56 {
        fill: #a68f9b;
      }

      .cls-57 {
        fill: #9890a7;
      }

      .cls-58 {
        fill: #9f98ad;
      }

      .cls-59 {
        fill: #b8abb2;
      }

      .cls-60 {
        fill: #968a9e;
      }

      .cls-61 {
        fill: #978fa6;
      }

      .cls-62 {
        fill: #9189a2;
      }

      .cls-63 {
        fill: #f0e3d5;
      }

      .cls-64 {
        fill: #b1acbe;
      }

      .cls-65 {
        fill: #e0acb5;
      }

      .cls-66 {
        fill: #b3b0c0;
      }

      .cls-67 {
        fill: #7f778e;
      }

      .cls-68 {
        fill: #b6b1c1;
      }

      .cls-69 {
        fill: #c5c3ce;
      }

      .cls-70 {
        fill: #746c83;
      }

      .cls-71 {
        fill: #a69fb3;
      }

      .cls-72 {
        fill: #a8a2b5;
      }

      .cls-73 {
        fill: #776d91;
      }

      .cls-74 {
        fill: #c6a393;
      }

      .cls-75 {
        fill: #d5d4d8;
      }

      .cls-76 {
        fill: #bbb1ce;
      }

      .cls-77 {
        fill: #797288;
      }

      .cls-78 {
        fill: #e4cec6;
      }

      .cls-79 {
        fill: #a8a1b6;
      }

      .cls-80 {
        fill: #f7f9f7;
      }

      .cls-81 {
        fill: #dcd0c8;
      }

      .cls-82 {
        fill: #f7d2ca;
      }

      .cls-83 {
        fill: #a9a1b5;
      }

      .cls-84 {
        fill: #766f85;
      }

      .cls-85 {
        fill: #9990b5;
      }

      .cls-86 {
        fill: #dadbdf;
      }

      .cls-87 {
        fill: #a39bae;
      }

      .cls-88 {
        fill: #776f85;
      }

      .cls-89 {
        fill: #aaa3ad;
      }

      .cls-90 {
        fill: #bdbac8;
      }

      .cls-91 {
        fill: #9b8d9e;
      }

      .cls-92 {
        fill: #ded3ca;
      }

      .cls-93 {
        fill: #e9bec1;
      }

      .cls-94 {
        fill: #ab8b89;
      }

      .cls-95 {
        fill: #787086;
      }

      .cls-96 {
        fill: #dbc5be;
      }

      .cls-97 {
        fill: #827a93;
      }

      .cls-98 {
        fill: #a29aa4;
      }

      .cls-99 {
        fill: #f7ecdd;
      }

      .cls-100 {
        fill: #b9abaf;
      }

      .cls-101 {
        fill: #d99fad;
      }

      .cls-102 {
        fill: #bca2a7;
      }

      .cls-103 {
        fill: #bebbc6;
      }

      .cls-104 {
        fill: #dec8bf;
      }

      .cls-105 {
        fill: #c2c0cb;
      }

      .cls-106 {
        fill: #c4c1cc;
      }

      .cls-107 {
        fill: #8a7e96;
      }

      .cls-108 {
        fill: #736c84;
      }

      .cls-109 {
        fill: #c8c7d1;
      }

      .cls-110 {
        fill: #dcb99c;
      }

      .cls-111 {
        fill: #bfbcc7;
      }

      .cls-112 {
        fill: #887f99;
      }

      .cls-113 {
        fill: #917b89;
      }

      .cls-114 {
        fill: #ceb6b6;
      }

      .cls-115 {
        fill: #777086;
      }

      .cls-116 {
        fill: #756e85;
      }

      .cls-117 {
        fill: #766e85;
      }

      .cls-118 {
        fill: #736b83;
      }

      .cls-119 {
        fill: #d7bfb9;
      }

      .cls-120 {
        fill: #c0b3b5;
      }

      .cls-121 {
        fill: #bab6c3;
      }

      .cls-122 {
        fill: #f3e7d8;
      }

      .cls-123 {
        fill: #726b84;
      }

      .cls-124 {
        fill: #b08f8b;
      }

      .cls-125 {
        fill: #736e86;
      }

      .cls-126 {
        fill: #948d9b;
      }

      .cls-127 {
        fill: #c990a5;
      }

      .cls-128 {
        fill: #e3e5e5;
      }

      .cls-129 {
        fill: #a89ec0;
      }

      .cls-130 {
        fill: #bfbbc7;
      }

      .cls-131 {
        fill: #d4d5e1;
      }

      .cls-132 {
        fill: #c4b8b9;
      }

      .cls-133 {
        fill: #9891a8;
      }

      .cls-134 {
        fill: #957c88;
      }

      .cls-135 {
        fill: #b5948f;
      }

      .cls-136 {
        fill: #7a7389;
      }

      .cls-137 {
        fill: #9e98b0;
      }

      .cls-138 {
        fill: #9f90a1;
      }

      .cls-139 {
        fill: #aca6b7;
      }

      .cls-140 {
        fill: #b0aaba;
      }

      .cls-141 {
        fill: #a797a3;
      }
    </style>
  </defs>
  <g id="_レイヤー_1-2" data-name="レイヤー 1">
    <g id="_生成オブジェクト" data-name="生成オブジェクト">
      <g>
        <path class="cls-131" d="M46.21,474.02c-.02,1.08-.11,2.25.48,3.54l63.87-.1c.12-2.32.34-4.21.34-6.02,3.33-1.11,7.05.14,10.74-.2,3.11-.29,6-.05,8.86-.03l3.97.04c3.63.03,7.04-.15,10.62-.13l33.09.13c2.88.01,9.04-.35,11.34.26l.28,6.05,64.29-.06c.36-2.13.46-3.78.45-5.39,8.95-2.05,7.47.36,11.39,1.37,2.75.7,6.86-.13,9.6,1.37.04.02,13.28-.39,18.19.43l3.59.6c2.04.34,2.26,6.35-.09,6.42l-23.57.68c-3.57.1-7.21,1.2-10.26,1.21l-107.46.28-67.96.22c-2.02,0-3.91-.92-6.62-.93l-6.6-.04c-7.94-.04-13.3.59-21.08.15-6.04-.34-12.34,1.05-18.54-.36-2.28-.52-4.52.36-6.52-.28-3.86-1.23-14.64.25-22.85-.72l-.18-6.67c1.32-1.76,3.41-1.05,5.41-1.05l12.96.04c3.71.01,8.43-1.43,12.08-1.1.82-1.1,1.67-3.14,4.03-2.33,1.07.37,2.62.46,3.63,1.18.89.64,1.5,1.78,2.52,1.45Z"/>
        <path class="cls-35" d="M263.39,484.18c.32,1.82.08,4.64-1.94,5.78-1.29.73-3.3.51-4.54.17-1.54-.42-2.43.81-3.71.81l-54.65.19-47.45-.02-35.46.03-6.55-.02c-6.96-.02-13.81.43-20.3-.45-1.92-.92-1.1-4.53-.81-5.99l67.96-.22,107.46-.28Z"/>
        <path class="cls-35" d="M5.59,475.83l.18,6.67c-1.5-.18-4.12.53-5.08-1.47-.55-1.15-1.33-4.11.29-5.05,1.31-.76,3.42-.28,4.62-.15Z"/>
      </g>
      <g>
        <path class="cls-35" d="M42.78,57.09c-1.38-.28-3.45-1.25-4.84-1.62-.73-.69-.22-2.2-.33-3.65,1.65.69,3.35.42,5.51-.57.67,1.89.98,4.48-.35,5.83Z"/>
        <g>
          <path class="cls-104" d="M221.35,19.27c-.12.55.36.49.75.49l.33,9.69c3.96.33,7.55-.36,10.96.46-.12.44.16.79.62.7.24,2.78-.23,5.62.28,8.66l9.25.18c-.17.53.25,1.11.79.8-.16,6.87.56,11.43.44,19.25l9.62-.05c-.05.43.28.68.7.62l.04,20.09c3.63-.05,6.23.26,8.94-.07-.22,2.43.13-.59.7.76v90.22c0,.8-.07,2.37-.97,2.4l-8.6.27-.21,8.83-8.97.63c-.45,2.8-.17,5.52-.11,8.37,3.05.23,5.5-.1,8.12.25.37.29.24.68-.08.95l-7.25-.09c-1.75-.02-3.46-4.87-2.63,8.47-.36-.25-.47.11-.48.36,0,.34.19.56.25.85-2.76-.09-5.6.15-8.52.23l-13.06.35-.18,9.89-152.02.28c.3-.71-1.15-1.59-1.9-1.44-.16-2.86-.41-5.77,0-8.61l130.41.12.2-9.96,12.89-.36.37-9.5c2.39-.65,5.24.58,7.65-.35.55,2.31,2.88-12.2,2.87-10.67l.1-15.98,10.45-.16v-86.2s-10.03-.3-10.03-.3c-.74-3.44.5-7.01-.54-10.11-1.06-3.16-.52-6.32-.49-9.98-3.21-.62-6.35-.06-9.85-.37l-.32-9.21c-.03-.98-1.74-.83-2.7-.91l-.41-9.5c-3.36-.14-6.54.08-10.02-.43l-.17-9.51-19.49-.23-.19-9.94h19.93c-.07,3.49-.32,6.58.11,9.82l22.44-.1Z"/>
          <path class="cls-115" d="M221.35,19.27l-22.44.1c-.44-3.24-.19-6.33-.11-9.83h-19.93s-77.12-.06-77.12-.06c-.21-2.86-.22-5.62-.07-9.45l96.83-.04.2,9.58,23.25.22c.04.92.67,10.9-.61,9.48Z"/>
          <path class="cls-70" d="M254.03,191.85c-2.62-.36-5.06-.02-8.12-.25-.07-2.85-.35-5.57.11-8.37l8.97-.63.21-8.83,8.6-.27c.89-.03.97-1.59.97-2.4v-90.22c2.83-.84,6.07-.51,9.25-.19l.05,92.92-9.61.23-.29,18.05c-3.66-.11-6.96.39-10.14-.04Z"/>
          <path class="cls-35" d="M45.58,79.3l.28-19.07c0-.33-.45-.59-.53-.82-.11-.39.44-1.35,1.03-1.2-.67,1.72,7.96.93,9.41.94l.3-9.4,1.04-1.24c1.53-1.83-.16-5.71.19-8.45.17-.32.83-.42.7-.88,3.19.21,6.54-.48,9.65-.15l4.61.49,15.14-.43.1-9.43c3.73-.24,6.85-.19,10.58,0l-.08,9.73c-1.54.64-3.53-.22-4.71.69s-.48,3.55-1.78,4.19c-.94.46-2.19-.05-2.48.81-.89,2.61.32,4.5-1.75,4.54l-9,.18c-.43,3.32.29,6.43-.47,9.6l-9.73.48-.24,9.82-10.05.37-.23,9.25c-4.04,1.49-8.18-.04-11.97-.04Z"/>
          <path class="cls-84" d="M35.65,81.08l.12,92.58c-3.08,0-6.21.42-9.66-.07l-.13-93.04,8.59-.22c.68-.02,1.16.19,1.08.76Z"/>
          <path class="cls-95" d="M101.25,10.1c.35,2.91.21,5.78.03,9.18l-22.46-.03c-.34-2.92-.26-5.76.02-9.37l22.41.23Z"/>
          <path class="cls-116" d="M243.53,39.46l-9.25-.18c-.51-3.05-.04-5.88-.28-8.66-.04-.41-.21-.6-.62-.7-3.41-.82-7-.13-10.96-.46l-.33-9.69,11.74.14.13,9.68,10.03.12c.13.9.53,11.03-.46,9.77Z"/>
          <path class="cls-126" d="M45.33,59.42c.08.23.53.48.53.82l-.28,19.07c-2.83,0-6.24,1.28-9.32.61-1.18-6.57-.24-13.44-.48-20.43l9.56-.07Z"/>
          <path class="cls-115" d="M254.38,59.47l-9.62.05c.12-7.82-.6-12.38-.44-19.25-1.79-1.17,9.59-.61,9.84-.51.35,3.53-.42,6.72.45,9.95s.04,6.4.37,9.48c-.41.11-.58.2-.6.28Z"/>
          <path class="cls-115" d="M77.93,19.93c.76,2.86.03,5.95.21,9.33-3.59.49-6.73-.13-9.85.52-.37.08-.61.27-.61.84l-.02,8.42c-3.11-.33-6.45.36-9.65.15-1.37.69-.7-7.72-.72-9.3l10.56-.15.25-9.83,9.83.02Z"/>
          <path class="cls-117" d="M264.06,80.11c-2.7.32-5.31.01-8.94.07l-.04-20.09c.09-.46.44-.62,1.16-.62l8.08.02c-.18,7.07.33,13.88-.27,20.63Z"/>
          <path class="cls-77" d="M47.1,183.76l-.53,7.98c-3.39.68-6.72.25-10.59.31.33-6.75-.2-12.51-.21-18.39l9.61-.03c.93,2.49-1.12,10.06,1.72,10.13Z"/>
          <path class="cls-5" d="M68.16,203.1c-.41,2.84-.16,5.75,0,8.61-3.57.74-7.43.06-11.36.23-.69-3.39.15-6.44-.08-9.51l11.44.67Z"/>
          <path class="cls-115" d="M57.31,40.07c-.35,2.74,1.35,6.63-.19,8.45l-1.04,1.24c-.97-.93-8.87.34-9.26-.94l.04-9.02c1.75-.07,10.2-.58,10.45.27Z"/>
          <path class="cls-115" d="M54.9,192.26c2.24-1.35,1.52,6.34,1.81,10.17l-10.25-.33c.25-3.72-.69-6.85.57-9.71,2.62-.02,5.28.31,7.87-.13Z"/>
          <path class="cls-98" d="M56.08,49.76l-.3,9.4c-1.45,0-10.08.78-9.41-.94-.25-3.21.44-6.31.45-9.4.39,1.29,8.29.02,9.26.94Z"/>
          <path class="cls-118" d="M253.95,192.8c1.01,2.7-.02,5.62.48,9.1l-9.8.16c-.49,0-.43-.65-.57-.87-.83-13.34.88-8.49,2.63-8.47l7.25.09Z"/>
          <path class="cls-78" d="M54.9,192.26c-2.59.45-5.24.11-7.87.13-.48.14-.5-.28-.47-.65l.53-7.98c2.45-.83,5.01-.12,7.91-.38l-.1,8.88Z"/>
          <g>
            <path class="cls-99" d="M178.86,9.55l.19,9.94,19.49.23.17,9.51c3.49.51,6.66.29,10.02.43l.41,9.5c.96.09,2.67-.06,2.7.91l.32,9.21c3.5.31,6.64-.25,9.85.37-.02,3.66-.57,6.82.49,9.98,1.04,3.1-.2,6.67.54,10.11l10.03.3v86.2s-10.44.16-10.44.16l-.1,15.98c0-1.53-2.32,12.98-2.87,10.67-2.41.92-5.26-.3-7.65.35l-.37,9.5-12.89.36-.2,9.96-130.41-.12-11.44-.67c-.29-3.84.43-11.52-1.81-10.17l.1-8.88c-2.9.26-5.45-.44-7.91.38-2.85-.07-.8-7.64-1.72-10.13l-9.61.03-.12-92.58c.26.06.61-.04.68-.3.06-.21-.02-.55-.07-.87,3.08.67,6.49-.61,9.32-.61,3.79,0,7.93,1.52,11.97.04l.23-9.25,10.05-.37.24-9.82,9.73-.48c.76-3.18.03-6.28.47-9.6l9-.18c2.08-.04.86-1.93,1.75-4.54.29-.86,1.55-.35,2.48-.81,1.31-.64.6-3.28,1.78-4.19s3.16-.05,4.71-.69l.08-9.73c-3.72-.19-6.84-.24-10.58,0l-.1,9.43-15.14.43-4.61-.49.02-8.42c.46.07.66-.46.61-.84,3.13-.65,6.26-.02,9.85-.52-.18-3.38.55-6.47-.21-9.33.33,0,.49.32.54-.24.02-.17.45-.15.35-.45l22.46.03c.18-3.39.32-6.27-.03-9.18.26-.12.44-.34.5-.61l77.12.06Z"/>
            <path class="cls-123" d="M166.69,181.45l-46.77-.07c-.28-3.15-.22-5.86-.08-9.31h46.93c.22,3.26.19,5.67-.08,9.38Z"/>
            <path class="cls-82" d="M73.84,169.26l-14.64-.41c-.56-4.15-.51-8.07-.07-12.16l17.6-.18c.05,4.19.05,7.77-.14,11.69-.05,1.05-1.58,1.09-2.75,1.06Z"/>
            <path class="cls-89" d="M107.18,123.03c-1.99-.09-4.02.4-6.16-.27l.33-8.91c2.36,0,4.3-.59,6.52.15-.34,3.46.63,6.46-.69,9.03Z"/>
            <g>
              <path class="cls-54" d="M101.34,113.85l-.33,8.91c2.14.68,4.17.18,6.16.27,1.91,10.01.23,20.62.92,31.56l-24.68.16v-40.92s17.92.02,17.92.02Z"/>
              <path class="cls-35" d="M97.91,135.33c-3.03.01-5.69.23-8.81-.2-.38-3.83-.16-7.47-.09-11.61,3.01-.43,5.78-.3,8.93-.12l-.03,11.94Z"/>
            </g>
            <g>
              <polygon class="cls-108" points="202.26 154.35 179.53 154.56 179.48 113.74 202.28 113.71 202.26 154.35"/>
              <path class="cls-35" d="M194.09,135.09c-2.89.59-5.64.32-8.87.12l-.02-11.69c2.9-.53,5.63-.29,8.61-.11l.28,11.68Z"/>
            </g>
          </g>
        </g>
        <g>
          <path class="cls-2" d="M58.05,299.17c-3.81.95-7.88-.1-11.97.26-.2-1.01.01-1.55-.6-1.49.03-2.48.25-5.04.33-7.95l.71-25.06c.29.16.42-.08.64-.32.29-.32.03-.38-.08-.67,7.86,1.18,2.52-2.31,9.45-1.44l.34-3.01c.18-1.61.04-3.32,1.04-4.68.42.98,8.13,2.35,10.39,2.9,1.27.31.74,2.54.94,3.55l3.45,1.64c.09,2.64.46,5.27.11,7.85-.15,1.13-3.12.09-4.06.96-.82.76.11,2.67-.64,4.23-.32.67-1.45.22-2.36.41-1.61.33-.99,2.13-.85,2.98.31,1.86,1.97,1.22,3.3,1.55-3.38,1.04-6.41.44-9.85.73l-.28,17.56Z"/>
          <path class="cls-72" d="M68.87,337.81l-10.33.06c-4.58.02-9.13-.18-13.66.2-2.75.23-6.14-1.27-9.08-.43-.48.14-.83-.18-1.26-.19-.07-.63.66-.34,1.21-.6.58-4.15-1.01-8.61.59-12.37l18.05.2c-.26.94-.47,3.27.5,3.78,2.1-.17,3.38.38,5.1,1.33,1.9,1.04,14.05-.07,16.91-.28,1.28-6.39-1.36-6.33,1.13-11.73.51-.08.46.6.45,1.2l-.41,16.76c-1.26.71-7.78.88-9.18,2.07Z"/>
          <path class="cls-88" d="M35.74,299.7c-.13.44.12.89.13,1.26.27,6.5-.77,13.46.34,19.84-.74.89-.76,2.81.12,3.68-1.59,3.77,0,8.22-.59,12.37-.55.26-1.28-.03-1.21.6l-8.17-.2.16-37.58c3.35-.34,6.31-.24,9.22.03Z"/>
          <path class="cls-136" d="M46.52,264.94l-.71,25.06c-.08,2.9-.3,5.47-.33,7.95,1.51,2.24-7.08,1.43-7.94,1.36-.37-.03-.82-.29-1.28-.15-.52-3.08-.09-6.28.29-9.51.96-8.22.32-16.56.7-25.19-.12-.39,11.34-.68,9.28.48Z"/>
          <path class="cls-96" d="M68.87,337.81l.17,10.94c-1.63-.01-2.86-.64-4.49-.82.07,1.2-.94,13.14,1.23,10.87l-1.25.91-18.67-.4c-.07-.26-.39-.41-.63-.51l-.17-7.93,10.14-.24c.03-1.42-.33-2.97.87-3.15.86-.13,2.33-.03,2.34-1.04l.12-8.58,10.33-.06Z"/>
          <path class="cls-14" d="M68.04,231.12c3.42-.04,6.84-.24,10.24,0,.54,3.82,1.08,20.02-.77,21.74.95-.88-4.41-.16-3.37-1.14l3.52-.02c-.08-1.65.59-3.03-.69-3.85-.95-.61-2.37-.11-3.55-.09-2.03.03-3.89-.48-5.51.95.12-.86-.31-1.65-.93-2.37,1.56-1.28.03-3.62.04-4.99l.1-10c.56.13.41-.23.92-.24Z"/>
          <path class="cls-117" d="M44.87,338.06l.18,12.8.17,7.93c-2.91.55-5.88.08-9.36.16l-.08-21.32c2.94-.85,6.33.66,9.08.43Z"/>
          <path class="cls-92" d="M74.93,455.4c1.17-.03,2.51.09,3.69.84l-.05,7.58h-22.44c-.07-2.64-.14-5.27,0-7.91.43.24.88-.16.56-.57l10.42.21c.43,0,.5-.99.99-.81,1.36,1.9,4.65.71,6.83.66Z"/>
          <path class="cls-117" d="M64.53,359.7l.02,6.11c0,.73-.15,1.56-.62,2.3l-17.99.08c-.37-3.14-.4-6.04-.08-8.9l18.67.4Z"/>
          <path class="cls-79" d="M235.59,231.21c-1.42,2.62.04,5.7-.35,8.54-2.53.95-5.7.31-8.43.62-1.6.18-3.39-.72-4.78.44l-4.35-1.06c-.16-2.66-.83-5.42-.05-7.99,1.07-.61,3.09-.8,4.38-.99-.99.56,15.24.9,12.66-.69.34-.27.67.46.49,1.1-.05.17.13-.12.43.04Z"/>
          <path class="cls-35" d="M77.06,357.97c-.56,3.43-.19,6.93-.29,10.38l-8.58-.2c.7-1.24-2.68-3.24-3.65-2.33l-.02-6.11,1.25-.91c3.19-.25,6.85.92,9.66-.83.5-.31,1.12-.24,1.62.01Z"/>
          <path class="cls-67" d="M78.28,231.12c-3.4-.24-6.82-.04-10.24,0-1.03-.22-.65-7.58-.3-8.68.17-.53,1.81-.64,2.22-.85l8.35.26c.99,3.11-.44,6.35-.02,9.27Z"/>
          <path class="cls-39" d="M56.16,252.82c1.04.24,1.33,1.05,1.74,2.01-1,1.35-.85,3.07-1.04,4.68-.13-.36-.22-.78-.51-1.07l-7.41.33c-.74.03-1.28.04-1.41-.53l.15-5.81c2.82.19,5.69-.26,8.48.39Z"/>
          <path class="cls-19" d="M56.86,259.5l-.34,3.01c-6.93-.87-1.58,2.62-9.45,1.44-.72-1.84-.64-4.18.46-5.72.13.57.67.57,1.41.53l7.41-.33c.29.28.38.71.51,1.07Z"/>
          <path class="cls-35" d="M230.88,363.79c.62-.73,1.13-.41,1.3-.06s.03.72-.3.9c-.36.19-.92.13-1-.84Z"/>
          <path class="cls-35" d="M234.74,359.14c-.36.19-.82.12-.76-.38.19-.02.4-.25.62-.13,0,.15-.09.47.14.51Z"/>
          <circle class="cls-35" cx="230.38" cy="361.33" r=".49"/>
          <path class="cls-35" d="M226.96,389.91c-.27-.5-.1-.58.37-.74.06.32.22.95-.37.74Z"/>
          <path class="cls-35" d="M37.54,299.31c-.74.47-1.16.95-1.67,1.64-.02-.37-.26-.81-.13-1.26.4.17.72-.15.52-.54.46-.13.9.12,1.28.15Z"/>
          <path class="cls-35" d="M232.78,392.9c-.17-.07-.41-.03-.6,0,.04-.25-.09-.57,0-.91.1-.41.51-.4.61,0,.08.34-.05.66,0,.91Z"/>
          <path class="cls-65" d="M129.45,331.02c1.84.11,3.92-.37,5.75.2,1.69.53,3.4.75,5.04-.24-.09,1.07-.33,2.17.5,2.65,1.09.64,2.83-.69,4.31.72.69.66.39,1.46.81,2.66.27.78,2.81.55,3.13-.05l1.15-2.14c1.5.23,3.25.84,3.3,2.65,1.28-.06,2.11-.38,3.51-.12l-.1,39.52-12.94.44c-.32,2.8-.32,5.25-.06,7.64l-22.24.14c-.39,0-.6-.25-1.02-.17l.11-15.58c2.44-.67,5.09-.44,7.65-.43l11.29.02c1.4,0,2.24-.29,2.92-1.3,3.16,1.69,7.3.61,11.15.86.5-3.36-.3-6.1-.28-9.07-3.81-.71-7.43.59-10.85.45,4.19.17-13.81-1.56-13.79-1.23l-.28-25.26c0-.7-1.71-1.24-.94-1.88.18-.93,1.28-.54,1.87-.5Z"/>
          <path class="cls-21" d="M107.76,351.89c-.68,5.5-.25,11.09-.33,16.95l-.22,15c-.03,2.04-.82,3.1-2.44,3.57-.9-.05-2.4.25-2.79-1.12-.22-.76,0-1.44-.35-1.88-.89-1.11-3.37-.55-3.5-1.51l-.3-2.13-20.61-.29c-.54,0-1.35-.12-1.56-.5-.14-.25.79-.66.8-1.05l.31-10.59c3.19.08,6.56-.12,9.99-.05l.65-7.95c.34-4.21.56,4.11,1.2-7.86.03-.58,1.01-1.07,1.69-1.06,5.82.07,11.79-.77,17.45.47Z"/>
          <path class="cls-119" d="M78.36,299.22c-3.1.78-6.41-.03-9.72.11l-10.03.41c0-.23-.36-.5-.57-.57l.28-17.56c3.43-.29,6.47.31,9.85-.73-1.33-.32-2.99.32-3.3-1.55-.14-.86-.76-2.65.85-2.98.91-.19,2.04.27,2.36-.41.75-1.57-.18-3.47.64-4.23.94-.87,3.91.17,4.06-.96.34-2.58-.02-5.21-.11-7.85l-3.45-1.64c-.19-1.02.34-3.25-.94-3.55-2.26-.54-9.97-1.91-10.39-2.9s-.7-1.76-1.74-2.01c1.29-1.53.6-3.75.84-6.09,1.56.2,1.34,1.82,1.64,3.18.38,1.72,3,1.41,4.01,2.08.52,2.31,3.15,2.52,4.78,3.61,3.48,2.33,6.27,5.21,10.97,5.03l-.04,38.6Z"/>
          <path class="cls-51" d="M78.36,299.22c0,3.3.34,6.28-.43,9.43l-8.95-.19c-.27,4.11-.44,7.83-.47,11.6-2.14.01-4.58-.36-6.8.42-1.28.45-.63,2.54-.9,3.44-1.98.26-4.34.75-6.44.73l-18.05-.2c-.88-.87-.86-2.79-.12-3.68,2-.94,4.34.05,6.74-.23,4.86-.56,9.47-.92,14.43-.72,1.09.04,2.82-.18,2.89-1.48l.41-7.4c-.41-1.05-2.04-1.6-2.04-2.78l-.02-8.44,10.03-.41c3.31-.14,6.62.67,9.72-.11Z"/>
          <path class="cls-127" d="M160.04,385.06c-.07.28-.34.4-.59.54-2.85-.89-11.77-.65-15.58-.63-.26-2.39-.26-4.84.06-7.64l12.94-.44.1-39.52c-1.4-.26-2.22.06-3.51.12-.05-1.81-1.8-2.42-3.3-2.65l-1.15,2.14c-.33.61-2.86.84-3.13.05-.41-1.2-.11-2-.81-2.66-1.48-1.41-3.22-.09-4.31-.72-.83-.48-.59-1.58-.5-2.65-1.64.99-3.35.77-5.04.24-1.83-.58-3.91-.1-5.75-.2-.08-.22-.02-.66.52-.66l13.65.08c1.52,1.46,12.45-1.2,16.3-.36l.12,54.98Z"/>
          <path class="cls-6" d="M205.32,447.27c1.39,4.91-3.65,1.84-3.4,6.69.02.39-1.22.68-1.14,1.21.05.33.05.7.76.72v8.27c2,.12,3.81-.23,5.5-.33,5.19-.3,10.56.83,15.53-.54,2.25,1.29,5.03.22,7.81.57,2.15.27.75-2.79,1.8-5.06.32-.71,1.92-.14,2.39-1.47.22.11.46.05.61-.14.64,1.93.3,4.41.11,6.6l-.6,6.69-36.01.21v-23.47c2.52-.28,4.58.14,6.63.04Z"/>
          <path class="cls-81" d="M235.81,455.43c.7.18-1.13.24-.62,1.77-.15.19-.39.25-.61.14,2.74-3.31-10.58-1.92-12.36-1.83.11,3.21-.11,5.45.36,7.79-4.97,1.38-10.34.24-15.53.54l-.09-7.92,4.73-.74c.88-2.75.41-5.44.54-8.05,7.86-1.07,13.65-.27,22.59-.93.54,2.19-.74,10.04,1,9.22Z"/>
          <path class="cls-44" d="M127.59,331.52c-.77.64.94,1.18.94,1.88l.28,25.26c.04,3.34-.81,6.88-.45,10.27-2.56,0-5.21-.24-7.65.43l.06-38.19,6.82.36Z"/>
          <path class="cls-57" d="M77.94,308.65c-.68,2.79,1.38,6.3.08,9.12-2.49,5.39.15,5.33-1.13,11.73-2.85.22-15.01,1.33-16.91.28-1.72-.95-3-1.5-5.1-1.33-.97-.51-.76-2.85-.5-3.78,2.1.02,4.46-.47,6.44-.73,2.13.6,4.61.68,7.35.45.8-1.52.33-2.99.34-4.32.03-3.77.2-7.49.47-11.6l8.95.19Z"/>
          <path class="cls-64" d="M217.69,239.74l4.35,1.06.08,6.18c.02,1.18.02,5.27-.77,5.79-10.17-1.83-7.54,6.91-13.39,4.12-1.4-5.52-1.18-11.14-1.01-16.67,2.96,0,8.17-1.11,10.74-.48Z"/>
          <path class="cls-33" d="M111.78,351.52l.2,33.61-.75,6.39c-.94-1.03-1.72-1.46-2.79-.95-.94-1.36-1.89-3.07-3.67-3.16,1.61-.47,2.41-1.54,2.44-3.57l.22-15c.09-5.86-.35-11.45.33-16.95,1.11-1.21,2.69-.13,4.01-.37Z"/>
          <path class="cls-138" d="M244.81,455.51c.14,4.88.33,9.95.31,14.96-3.96.64-7.2.01-10.43.03l.6-6.69c.19-2.19.53-4.67-.11-6.6-.5-1.53,1.32-1.59.62-1.77,2.98.53,6,.05,9.01.07Z"/>
          <path class="cls-60" d="M111.78,351.52c-1.33.24-2.9-.84-4.01.37-5.66-1.23-11.63-.4-17.45-.47.11-2.15.13-4.26-.02-6.74l21.62-.05c-.09,2.62-.15,4.75-.13,6.89Z"/>
          <path class="cls-62" d="M222.02,230.76c-1.28.2-3.31.39-4.38.99-3.74-1.16-7.08.33-10.57.7-1.36-1.28-3.65-.87-5.69,0-.34-1.78,1.36-3.14,3.22-3.44,1.49-.24,1.76-2.49,2.6-2.74,1.96-.56,2.14-2,2.54-3.67,3.81-.64,8.2-.18,12.39-.28.12,2.91.17,5.69-.12,8.44Z"/>
          <path class="cls-97" d="M221.34,252.78c.79-.53.79-4.61.77-5.79,1.13-.49,2.95.09,3.94-.79,1.73-1.53,1.03-3.92.76-5.83,2.73-.31,5.9.33,8.43-.62,1.09,1.21,5.89-1.17,4.43,2.05-2.21-.48-2.59,2.07-3.53,2.95-9.78,1.52-8.1,9.24-11.78,8.58l-3.01-.54Z"/>
          <path class="cls-60" d="M120.6,384.94c.42-.08.63.17,1.02.17-1.75,1.64-.26,6.14-1.05,9.07l-10.53.95c-.24-1.29-.04-2-.59-2.43-.37-.28-.97-.21-1.33-.65-.31-.38.57-1.09.31-1.48,1.07-.5,1.85-.08,2.79.95l.75-6.39c2.86.14,5.8.34,8.62-.2Z"/>
          <path class="cls-90" d="M217.64,231.75c-.78,2.58-.11,5.34.05,7.99-2.58-.63-7.78.49-10.74.48.08-2.58-.27-5.2.13-7.78,3.49-.37,6.83-1.86,10.57-.7Z"/>
          <path class="cls-36" d="M212.22,447.14c-.13,2.6.34,5.3-.54,8.05l-4.73.74c-1.77-.32-3.74-.81-5.41-.03-.71-.02-.71-.39-.76-.72-.08-.53,1.16-.82,1.14-1.21-.25-4.85,4.79-1.78,3.4-6.69,2.29-.12,4.64.18,6.9-.13Z"/>
          <path class="cls-18" d="M74.13,251.72c-1.82,0-3.77-.13-5.83-.76-.83-.25-.48-1.69-.4-2.24,1.62-1.43,3.49-.92,5.51-.95,1.18-.02,2.59-.52,3.55.09,1.28.82.61,2.2.69,3.85l-3.52.02Z"/>
          <path class="cls-28" d="M67.02,241.36c-.01,1.37,1.52,3.71-.04,4.99-1.65-.01-3.91.52-5.59-.56-.95-.61-.25-2.96-.3-4.15,2.16-.41,4.02-.34,5.93-.28Z"/>
          <path class="cls-20" d="M88.44,470.37c-.79-1.66-.32-3.6-.16-5.65-.27-.36-.32-.48-.16-.97,1.22,0,2.39.16,4.11-.09.31-2.59.73-5.68-.35-7.8-.82-1.6-3.02-2.16-4.38-2.25-.09-2.04.37-4.08-.22-6.04,4.77-.49,9.6-.73,14.85-.24l-.11,23.18c-4.84.82-9.32-.16-13.59-.13Z"/>
          <path class="cls-59" d="M78.56,463.82l9.56-.07c-.17.49-.11.61.16.97-.16,2.05-.63,3.99.16,5.65l-32.29.22c-.59-2.56.04-4.7-.02-6.78h22.44Z"/>
          <path class="cls-120" d="M87.29,447.56c.58,1.96.13,4,.22,6.04.02.42-.13.85-.05,1.27.07.34.96.47.9.86-.46,2.63.6,5.58-.24,8.02l-9.56.07.05-7.58c-1.18-.75-2.52-.87-3.69-.84l.89-4.37c.28-1.38-.49-3.04.67-3.99,3.29,1,7.37.87,10.81.52Z"/>
          <path class="cls-48" d="M76.48,447.04c-1.16.95-.39,2.61-.67,3.99l-.89,4.37c-2.18.05-5.47,1.25-6.83-.66-.36-2.64-.16-5.43-.08-8.35,3.49-.34,5.91-.13,8.46.65Z"/>
          <g>
            <path class="cls-41" d="M76.77,368.34l-.31,10.59c-.01.39-.94.8-.8,1.05.22.38,1.02.49,1.56.5l20.61.29.3,2.13c.14.96,2.62.4,3.5,1.51.35.43.13,1.11.35,1.88.39,1.37,1.89,1.07,2.79,1.12,1.77.09,2.72,1.8,3.67,3.16.27.39-.62,1.1-.31,1.48.36.44.96.36,1.33.65.55.43.35,1.14.59,2.43l10.53-.95c.79-2.92-.7-7.42,1.05-9.07l22.24-.14c3.81-.02,12.73-.26,15.58.63.05,2.42.06,4.86-.2,7.57h-29.2c-.18,3.59.31,6.46-.3,9.47l-9.06.13-.21,43.33c-3.34.37-6.39-.29-9.62.44l.03,24.9c0,1.82-.22,3.7-.34,6.02l-63.87.1c-.59-1.29-.5-2.46-.48-3.54l.29-18.36c3.39-.01,6.66-.53,9.63.25-.15,2.64-.08,5.27,0,7.9.06,2.07-.57,4.21.02,6.78l32.29-.22c4.27-.03,8.75.95,13.59.13l.11-23.18c-5.25-.49-10.08-.25-14.85.24-3.43.35-7.51.48-10.81-.52-2.55-.77-4.97-.99-8.46-.65-.08,2.91-.29,5.7.08,8.35-.49-.17-.56.82-.99.81l-10.42-.21c-.93-2.84-.5-6.07-.17-9.14l11.38-.19-.05-43.23c-1.58-3.2-.14-6.53-.51-9.86l6.08-.23.07-5.83-7.28-.2c-1.57-4.44-.32-8.4.94-12.4.69-2.2.01-4.32,1.03-6.12l8.58.2Z"/>
            <g>
              <path class="cls-100" d="M101.89,415.22l.24,20.62-25.52.23.09-23.39c0-.84,2.63-.46,2.49.22-.08.4-.57,1.3-.11,1.6,1.52.97,19.6.65,22.8.73Z"/>
              <path class="cls-91" d="M110.96,435.49l-8.48.62-.67,6.04-25.13.27c-.21-2.75-.16-4.52-.06-6.37l25.52-.23-.24-20.62c1.46.04,2.21-1.77,3.45-1.95,2.17-.31,3.83.05,6.33-.65-.46,7.98.52,15.49-.71,22.87Z"/>
              <path class="cls-32" d="M76.76,392.9c6.37.33,17.05.3,21.91.27.68,0,2.27-.09,3,.48,1.14,2.65-.26,5.78.61,8.23-1.98.6-4.13.56-6.48.56l-19.24-.05c-.66,0-1.06-.42-1.49-.46.12-2.5-.52-10.48,1.68-9.03Z"/>
              <path class="cls-1" d="M102.29,401.88c.83,2.33.99,4.82.64,7.8l-17.33.1c-2.94.02-5.82.04-8.64-.54.25-10.03-2.04-3.97-1.89-7.31.43.04.83.46,1.49.46l19.24.05c2.35,0,4.5.05,6.48-.56Z"/>
              <path class="cls-109" d="M98.67,393.17c-4.86.03-15.54.06-21.91-.27l.46-7.22c6.75-.63,13.2.09,19.72,1.08,2.25.34.99,6.07,1.74,6.41Z"/>
              <path class="cls-107" d="M110.96,435.49c1.04,1.4.89,4.45.06,5.79-2.73,1.72-6.31.85-9.22.88l.67-6.04,8.48-.62Z"/>
            </g>
          </g>
          <path class="cls-75" d="M58.05,299.17c.21.07.57.34.57.57l.02,8.44c0,1.18,1.63,1.74,2.04,2.78l-.41,7.4c-.07,1.3-1.8,1.52-2.89,1.48-4.96-.2-9.57.16-14.43.72-2.4.28-4.74-.71-6.74.23-1.11-6.37-.07-13.34-.34-19.84.5-.7.92-1.18,1.67-1.64.86.07,9.45.88,7.94-1.36.62-.06.4.48.6,1.49,4.09-.36,8.16.68,11.97-.26Z"/>
          <path class="cls-122" d="M58.54,337.86l-.12,8.58c-.01,1-1.48.91-2.34,1.04-1.2.17-.84,1.73-.87,3.15l-10.14.24-.18-12.8c4.53-.38,9.08-.17,13.66-.2Z"/>
          <path class="cls-38" d="M226.81,240.37c.27,1.91.98,4.3-.76,5.83-.99.88-2.81.3-3.94.79l-.08-6.18c1.39-1.15,3.18-.25,4.78-.44Z"/>
          <path class="cls-93" d="M142.6,359.88c-.14,2.57-.32,5.19-.02,7.75-.68,1.02-1.51,1.31-2.92,1.3l-11.29-.02c-.36-3.39.49-6.93.45-10.27-.02-.33,17.98,1.4,13.79,1.23Z"/>
          <path class="cls-101" d="M142.58,367.63c-.3-2.56-.12-5.18.02-7.75,3.42.14,7.04-1.16,10.85-.45-.02,2.96.77,5.71.28,9.07-3.85-.26-7.99.83-11.15-.86Z"/>
          <path class="cls-139" d="M68.52,320.07c-.01,1.32.46,2.8-.34,4.32-2.74.23-5.23.15-7.35-.45.27-.9-.38-2.99.9-3.44,2.22-.78,4.66-.41,6.8-.42Z"/>
          <path class="cls-132" d="M234.57,457.34c-.47,1.33-2.07.76-2.39,1.47-1.04,2.27.36,5.33-1.8,5.06-2.79-.36-5.56.71-7.81-.57-.47-2.33-.25-4.57-.36-7.79,1.78-.09,15.1-1.48,12.36,1.83Z"/>
          <path class="cls-8" d="M206.95,455.92l.09,7.92c-1.68.1-3.5.45-5.49.33v-8.27c1.67-.78,3.64-.3,5.41.03Z"/>
          <g>
            <path class="cls-45" d="M243.85,202.39c.67,2.92.25,6.05.2,9.37-5.44-.07-9.73-.3-14.76.58l.14,9.69,5.25.19c.1,2.84.16,5.37,0,7.84,2.57,1.59-13.66,1.25-12.66.69.29-2.75.23-5.52.12-8.44-4.19.1-8.58-.36-12.39.28-.4,1.67-.58,3.11-2.54,3.67-.84.24-1.11,2.49-2.6,2.74-1.86.3-3.55,1.66-3.22,3.44,2.04-.87,4.33-1.28,5.69,0-.4,2.58-.05,5.2-.13,7.78-.17,5.53-.39,11.15,1.01,16.67,5.85,2.79,3.22-5.94,13.39-4.12l3.01.54c3.68.66,2-7.06,11.78-8.58.94-.88,1.31-3.43,3.53-2.95,1.47-3.22-3.33-.84-4.43-2.05.39-2.84-1.06-5.91.35-8.54,2.72-.43,5.56-.17,8.83-.09l.18,9.23c1.71.23,2.94.03,4.44.45.13,2.61.46,5.08-.45,7.15-1.82.71-1.37,2.65-1.48,3.84-.46.2-1.06.42-1.45.37-.75-.1-1.09-.49-1.06-1.15-.31-1.18.89-3.21-.31-4.23-6.81-1.23-12.86,3.91-17.33,8.75.79-.85-7.16,5.43-6.76,5.18-2.41.16-4.89.04-7.28,1.55-.4,4.91-.12,9.9-.08,14.86l.1,13.64-.06,17.67,7.31.28c.45,3.54-.34,6.85.29,10.3.32,1.76,1.44,3.32,1.12,5.39-.34,2.17.57,4.11.63,5.96.07,2.21-.19,4.53.19,6.87.09.57.91,1.03.91,1.57v9.51c5.01.28,9.77-4.4,11.19-2.48.51,4.51.1,8.76.09,12.8-.23-.11-.43.11-.62.13-2.09.23-4.23-.21-6.7.2l-.08,17.75,7.7.19-.11,9.4c-1.16.33-1.88.38-2.57.49-1.52-.21-3.04-.2-4.77-.23-.46.88-.28,1.78-.13,2.6-.48.16-.65.24-.37.74.45.83-.16,1.86.48,2.9,1.64.43,3.26.17,4.74.08.19-.03.43-.07.6,0,.42.17,1.63-.15,2,.5l.1,52.68,9.67.22.26,9.21c-3.01-.03-6.03.45-9.01-.07-1.74.82-.46-7.03-1-9.22-8.94.66-14.73-.15-22.59.93-2.26.31-4.61.01-6.9.13-2.05.11-4.11-.31-6.63-.04v23.47s36.01-.21,36.01-.21c3.24-.02,6.47.61,10.43-.03.01-5.01-.18-10.08-.31-14.96l9.64.09.08,16.51c0,1.61-.09,3.26-.45,5.39l-64.29.06-.28-6.05c-.38-8.23.14-16.57-.03-25.15l-9.49-.2-.28-43.26-10.24-.22c-.25-2.79-.06-5.44-.02-8.14.02-1.02-.86-1.43-1.09-2.23-.67-2.32.09-4.6-.31-6.89l-8.01-.34-.12-54.98c-3.85-.83-14.78,1.83-16.3.36l-13.65-.08c-.54,0-.6.43-.52.66-.59-.03-1.68-.42-1.87.5l-6.82-.36-.06,38.19-.11,15.58c-2.83.54-5.76.34-8.62.2l-.2-33.61c-.01-2.14.05-4.28.13-6.89l-21.62.05c.15,2.48.13,4.59.02,6.74-.69,0-1.66.48-1.69,1.06-.64,11.96-.86,3.65-1.2,7.86l-.65,7.95c-3.44-.07-6.8.12-9.99.05.1-3.45-.27-6.95.29-10.38.09-.57.49-1.24.28-1.75.47-1.13,1.54-2.53.85-4.3-.84,1.5-1.7,2.85-2.19,4.36l-.55,1.68c-2.82,1.75-6.47.59-9.66.83-2.17,2.27-1.16-9.67-1.23-10.87,1.63.18,2.86.81,4.49.82l-.17-10.94c1.4-1.19,7.92-1.36,9.18-2.07l.41-16.76c.01-.6.06-1.28-.45-1.2,1.3-2.82-.76-6.33-.08-9.12.77-3.15.42-6.13.43-9.43l.04-38.6c-4.7.18-7.49-2.7-10.97-5.03-1.62-1.09-4.26-1.3-4.78-3.61-1.01-.68-3.63-.36-4.01-2.08-.3-1.36-.08-2.98-1.64-3.18-.24,2.34.45,4.56-.84,6.09-2.78-.65-5.65-.2-8.48-.39-.94-3.5-.1-7.24-.27-11.26l9.42-.2.3-9.82c3.65.13,6.88-.52,9.98.21l-.1,10c-1.9-.07-3.77-.14-5.93.28.05,1.19-.65,3.54.3,4.15,1.68,1.08,3.95.55,5.59.56.62.72,1.05,1.51.93,2.37-.08.55-.43,1.99.4,2.24,2.06.63,4.01.77,5.83.76-1.03.97,4.32.26,3.37,1.14,1.86-1.71,1.32-17.92.77-21.74-.42-2.93,1.01-6.16.02-9.27l-8.35-.26c-.24-2.81.03-5.63.1-8.44l152.02-.28.18-9.89,13.06-.35c2.93-.08,5.76-.32,8.52-.23Z"/>
            <g>
              <path class="cls-35" d="M232.23,386.79c.19.6.41,1.19-.32,1.84-.27.24-.49.95-1.07.1-.97-1.42-2.47-.05-3.51.44-.15-.82-.34-1.72.13-2.6,1.72.02,3.25.02,4.77.23Z"/>
              <path class="cls-111" d="M163.65,250.1c0,.31-.07.71.02,1.29.09.62,1.09-.65,1.38.22.21,3.92.19,7.58-.19,10.98l-4.4.34-.82,10.95c2.03,1.13,4.5,1.05,6.46.11.43-1.46-.36-3.24.44-4.41.87-1.29,2.83-1.59,3.82-2.8.7-.86.78-2.93,2.27-2.9,1.23.02,1.62-.86,1.85-1.44,7.19-3.7,3.53-5.27,14.19-3.88.59.14.23,2.51,1.04,2.36.45-.08,1.72-.15,2.45.3l-.06,30.64c0,.66-.59,6.42-1.61,7.31-1.22,1.06-8.1.12-10.65,1.06l-.51,7.94c-6.28-.03-12.61.49-19.39.06l-.33-7.92c-.03-.64-.55-.49-.82-.49l-10.02-.14c.22-.27.1-.57-.23-1.13h-5.72c-.32.56-.44.86-.23,1.12-.37-.04-.73,0-1.08,0,.07-.37.02-.66-.06-.92-.21-.66-3.21,3.35-1.87-8.84l27.7-.18c1.76-.01,3.41-.31,5.11-.4.39-2.73.57-4.93.48-7.31l-19.87-.07-51.13.08c-1.61,0-3.3-.49-4.85.11l-.5-7.4,5.27-.17c12.23-.4,24.67.25,37.41.33l.08-20.83c0-.94.51-1.64.43-2.36,6.87,0,13.82.08,20.99-.53.9-.08,2.1-.92,2.97-1.07Z"/>
              <path class="cls-31" d="M104.81,245.17c6.82,1.45,3.47,1.12,5.73,2.58,1.84,1.19,11.62,3.77,9.44,3.65,6.66.36,13.22.31,19.71.31.08.72-.42,1.43-.43,2.36l-.08,20.83c-12.74-.08-25.18-.73-37.41-.33l.33-12.44,9.7-.41-.09-9.63-18.48.17-.11,21.97c.63.82,2.59.54,3.38.51l.5,7.4c.15,2.15-1.11,4.85-.23,7.28,1.52,1.06,3.51.07,5.06.09l37.73.41c-1.34,12.19,1.67,8.18,1.87,8.84.08.26.13.55.06.92h-20.51c-11.04.02-22.21-.38-33.32.03-.06-18.54-.95-37.44.32-55.84,4.58.25,9.31-.07,14.01.98.55.12,1.1,1.4,1.88,1.14.34-.11.56-.44.92-.82Z"/>
              <path class="cls-16" d="M198.78,351.83c-.29,2.35-.54,4.94.28,7.27l4.15-.19c1.21-.06,2.38-.07,3.62,0,1.74.09,3.47.08,5.5.33,0,2.75-.22,5.62.52,7.91-1.35,3.88-.13,8.09-.78,12.64-.14.96-2.53.16-3.11.75-.74,1.27-.62,3.26-.34,4.6l-9.51.21c-.75.02-1.23.93-1.19,1.38-2.85-.44-3.78,3.33-6.55,2.49-1.11-.34-1.99-1.54-1.4-2.94-2.34-.29-9.36-.48-10.74-1.9l-.22-7.39c-1.07-.43-2.02-.14-3.45-.38l.15-25.37c7.99.28,15.73-.68,23.07.58Z"/>
              <path class="cls-55" d="M199.67,251.2c.54.88,2.35,1.58,1.64,3.54-.37,1.02,1.61,5.14,1.64,8.51l.13,13.97.21,30.97c-8.29.46-16.11.03-23.97,0l.51-7.94c2.55-.95,9.43,0,10.65-1.06,1.03-.89,1.61-6.65,1.61-7.31l.06-30.64c-.73-.45-2-.38-2.45-.3-.82.15-.45-2.22-1.04-2.36-10.65-1.39-7,.18-14.19,3.88-.17-.56-.59-.76-1.11-.64l.92-8.38,5.68-.47c1.48,1.22,3.41-.04,5.31.05,5.13.25-.28-3.79,13.36-1.7.48.89,1.32.57,1.05-.09Z"/>
              <path class="cls-34" d="M179.95,222.26c-.46,2.34-.77,4.9-.05,7.18.21.68-.58,1.4-.6,1.95l-10.07-.15.41,10.38c-1.45,2.55-7.04,1.21-10.7,4.75-12.58,1-24.77.44-37.26.42-6.78-.01-6.57-3.82-6.66-3.99-.72-1.41-1.97-2.56-3.75-2.8l3.09-1.24c.63-.25.51-1.66.58-2.44l5.08,1.37c.57.3-.1,2.57.85,2.64,5.83.42,11.1.25,16.6.17,8.52-.13,16.96.64,25.43-.42,1.18-.15,1.64-1.04,1.59-2.2l-.29-6.69-25.04-.07-.03-8.87h40.82Z"/>
              <path class="cls-76" d="M114.49,222.32l.04,8.69,24.63.11,25.04.07.29,6.69c.05,1.16-.41,2.05-1.59,2.2-8.47,1.06-16.92.29-25.43.42-5.5.08-10.77.25-16.6-.17-.95-.07-.28-2.34-.85-2.64l-5.08-1.37c-1.02-.27-2.16-.69-3.25-1.12s-.19-2.72-.71-3.5l-9.41-1.33c-.88-2.54-3.6-1.96-4.94-3.59-.41-1.14-.48-3.07-.2-4.13,5.95-.86,12.02-.33,18.07-.35Z"/>
              <path class="cls-53" d="M173.95,327.99c1.22-1.54.81-3.61,1.17-5.47,2.17.71,5.24-1.57,7.32.63.35.37,0,1.61.32,1.66l1.69.25c1.15.17,2.87,1.04,3.22.14l.9-2.4c.75-1.98,5.14-.21,7.53-.29l16.79-.59c-.02,2.23,0,4.22-.4,6.37-6.95.73-15.26.15-21.5.05-.39,0-1.17,1.27-1.46,1.2-1.59-.39,1.57.61,1.58.61,7.29-.26,14.32-.57,21.68-.18.1,2.59.43,5.14-.25,7.6-9.96.47-19.29,0-29.01-.07-4.91-.04-9.55.34-14.46-.12-.61-2.29-.38-4.7-.17-7.15,1.75-.56,5.15.2,5.37-1.24.04-.29.02-.75-.33-.96Z"/>
              <path class="cls-58" d="M202.27,345.02c.46,1.1,1.67,2.19,1.67,3.5v1.96c0,.68,1.79.06,2.27.55,1.21,1.25.89,3.26.8,4.66l-.19,3.22c-1.24-.06-2.4-.05-3.62,0,.15-2.08-.82-4.28,0-6.65-.99-1.66-3.19-.22-4.43-.43-7.34-1.26-15.08-.3-23.07-.58l-.15,25.37c1.42.24,2.38-.06,3.45.38l.22,7.39c-1.03.68-2.41.18-3.32,1.12-1.21-1.87-3.92-.94-6.39-1.16l-.27-39.88,29.26.11c1.28,0,2.34.64,3.76.45Z"/>
              <path class="cls-17" d="M212.39,415.53l.02,20.13-23.55.36c-.23-6.87-.19-13.68-.05-21.21,7.57.7,17.33-.3,23.59.72Z"/>
              <path class="cls-69" d="M198.24,238.38c.11,1.46-.16,3,.02,4.44-2.57.73-5.45.83-8.46.59l-.78,4.78-7.72.79c-1.59.16-1.16,2.82-1.33,3.96l-5.68.47-.92,8.38c-.69.16-.58.35-.87,1.31-1.28-2.55-3.62-.83-7.62-.52.37-3.4.4-7.06.19-10.98-.29-.87-1.29.4-1.38-.22-.08-.58-.02-.98-.02-1.29,8.9-1.52,4.41-4.47,15.19-5.64,2.88-7.93,1.14-3.53,7.84-7.05,3.75.97,7.67,1.05,11.56.97Z"/>
              <path class="cls-40" d="M211.72,442.11l1.2-5.41c.33-1.5,2.83-.62,4.35-.64l-.15-20.93c2.27-.15,3.38-1.56,5.08-2.83,1.25-.93,3.67-.41,3.65-2.72.62,1.77.69,2.87.69,4.34l.1,27.77c-5.22,1.48-10.14.06-14.91.42Z"/>
              <path class="cls-121" d="M121,299.7c-.72.9-.19,1.96-.25,3.01l-.32,5.55-32.81.05c-.28-3.17.07-5.88.06-8.6,11.1-.41,22.27,0,33.32-.01Z"/>
              <path class="cls-68" d="M217.75,393.41c-.87,2.97.04,6.09-.03,9.11-.06,2.35-.35,4.78.02,7.18-10.03.31-20.09.4-30.53,0-.52-2.1-.14-4.05-.32-6.2,2.72-1.82,5.48-.71,8.04-.5,2.91.24,5.99-1.23,8.98-.77,2.77.42,5.64.23,8.79-.03,0-3.21-.11-5.95.24-8.77l4.82-.03Z"/>
              <path class="cls-141" d="M217.11,415.14l.15,20.93c-1.51.01-4.01-.86-4.35.64l-1.2,5.41c-7.35.55-14.74.43-22.52.36-.53-2.34-.28-4.44-.34-6.45l23.55-.36-.02-20.13c1.49.24,3.35-1.02,4.73-.39Z"/>
              <path class="cls-113" d="M155.22,321.33c1.26,0,2.54.14,3.68.65-.2.72-.11.9-.41,1.03-.45.2-.92.14-1.38.23-3.31.66,1.63,2.67-4.17,6.46l-25.33.38c-2.09.03-4.38.44-6.21-.48-.89-.54-.41-1.69-.45-2.21.1.55.59.58,1.27.49l6.91-.95.31-5.55,25.78-.04Z"/>
              <path class="cls-85" d="M96.42,222.67c-.29,1.06-.22,2.99.2,4.13,1.34,1.64,4.07,1.05,4.94,3.59l9.41,1.33c.52.78-.34,3.09.71,3.5s2.24.84,3.25,1.12c-.07.78.05,2.19-.58,2.44l-3.09,1.24c1.78.25,3.03,1.39,3.75,2.8-.6.06-1.82.02-1.99-.59-.67-2.36-3.62-1.07-5.08-1.74-11.22-5.17-15.5-1.81-14.18-8.83-2.21-.6-4.05.39-6.11-.7-.5-2.75-.56-5.92-.15-8.35,2.98-1.2,6.41.43,8.92.07Z"/>
              <polygon class="cls-129" points="139.12 222.25 139.15 231.12 114.53 231.01 114.49 222.32 139.12 222.25"/>
              <path class="cls-61" d="M221.66,359.72v16.53c1.81.23,3.24-.09,4.89.71-.11,2.97.28,5.49-.09,7.9-.15,1-9.48.27-9.26.27.47-5.84.34-11.78.03-17.79l-4.4-.18c-.74-2.29-.52-5.16-.52-7.91-2.03-.25-3.77-.24-5.5-.33l.19-3.22c1.42.36,3.04-.44,4.8.23,1.21.46,1.12,2.03,1.21,3.15,3.13-.05,5.92,1.34,8.64.64Z"/>
              <path class="cls-94" d="M111.9,337.47l-24.42.06c-.32-2.57-.32-4.92-.02-7.71l24.27-.2c.69,2.44.55,4.62.17,7.85Z"/>
              <path class="cls-23" d="M154.75,309.43l.47,11.9-25.78.04c.05-.8-.9-2.19-.6-3.19s.34-1.87.22-2.89l22.89-.32c.61-2.27.38-4.6.39-6.74.69-.02,1.41-.33,1.91.03.3.21.45.71.5,1.17Z"/>
              <path class="cls-47" d="M193.68,314.22c.48,2.05-.61,4.07.08,6.05-4.86-.08-10.1,1.66-15.22.14-.5-.45-.3-2.26-1.26-2.15s-1.87.17-2.79.6c-1.86.85-3.1.05-4.86.01l-4.4-.09c.11-1.85-.28-3.38.21-5.1,9.7.34,19.14-.9,28.23.54Z"/>
              <path class="cls-124" d="M114.78,328.19l-5.18.04c-7.6.06-14.89.48-22.31-.07.15-2.16-.02-3.94.32-5.91l19.56-.14c2.7-.02,5.15-.77,7.81-.18.07,2.18.12,3.96-.21,6.27Z"/>
              <path class="cls-112" d="M221.66,359.72c-2.72.7-5.52-.7-8.64-.64-.09-1.13,0-2.69-1.21-3.15-1.76-.67-3.38.13-4.8-.23.08-1.4.41-3.41-.8-4.66-.48-.49-2.27.13-2.27-.55v-1.96c0-1.31-1.21-2.4-1.67-3.5,3.21-.45,6.49-.83,10.23-.53.32,2.21.23,4.1.32,6.63,2.72.46,5.62.61,8.83.52,1.53,2.64.01,5.51.01,8.07Z"/>
              <path class="cls-135" d="M103.89,318.27c-1.43,1.92-3.05,2.53-5.08,2.45l-11.46-.44c-.22-2.42-.19-4.35.22-6.6l26.27-.13c1.17.49,1.03,4.26-.15,4.54-3.1.75-6.23.18-9.8.17Z"/>
              <path class="cls-43" d="M152.34,308.22c0,2.14.22,4.47-.39,6.74l-22.89.32-.55-4.88-.16-1.95c7.97-.63,15.98-.05,23.98-.24Z"/>
              <path class="cls-97" d="M141.51,299.69c.35,0,.71-.05,1.08,0,2.05.2,4.12-.02,6.17,0l10.02.14c-.24.88.47,2.05-.29,2.8-.46.46-1.49.79-2.61.77l-25.19-.26-8.35.03c-.57,0-1.07-.78-1.58-.46.06-1.05-.47-2.11.25-3.01h20.51Z"/>
              <path class="cls-134" d="M193.75,320.27c-.69-1.98.41-4-.08-6.05,5.23-2,11.07.09,16.68-1.08.24-.13.47-.86,1.85-.72.48,2.34.71,5.55.17,8.14l-18.62-.29Z"/>
              <path class="cls-106" d="M197.92,386.75l-7.98,6.33c-2.97.02-8.57-.68-11.14.4-.58.24-2.14.02-2.69-.47-.65-2.37-.3-5.19-.21-7.5.91-.94,2.28-.44,3.32-1.12,1.38,1.42,8.4,1.62,10.74,1.9-.59,1.4.3,2.6,1.4,2.94,2.77.84,3.7-2.92,6.55-2.49Z"/>
              <path class="cls-11" d="M199.67,251.2c.27.66-.56.99-1.05.09-13.64-2.09-8.23,1.95-13.36,1.7-1.9-.09-3.83,1.17-5.31-.05.17-1.14-.25-3.8,1.33-3.96l7.72-.79.78-4.78c3.01.24,5.89.14,8.46-.59.8,6.31,1.73,4.2,1.42,8.38Z"/>
              <path class="cls-25" d="M217.22,385.13l-8.6.02c-.27-1.34-.4-3.33.34-4.6.57-.59,2.97.21,3.11-.75.65-4.56-.57-8.76.78-12.64l4.4.18c.31,6.01.44,11.95-.03,17.79Z"/>
              <path class="cls-73" d="M184.03,229.05c1.35-.47,3.43-.53,4.46-1.57s.29-3.13,1.27-4.39c.74-.51,2.1.3,2.17-.9,5.45.61,9.76-1.34,9.81,2.72.01,1.03-1.46,1.01-1.97,1.62-4.23,5.08-10.01,4.89-15.58,4.57.99-1.01-.43-1.33-.16-2.05Z"/>
              <path class="cls-10" d="M179.3,231.39c.52,1.26.35,2.4.58,4.39.93-.21,1.88-1,2.57.37-2.09-.71-2.62.78-3.61,1.15-7.59,2.82-1.16,5.99-9.2,4.33l-.41-10.38,10.07.15Z"/>
              <path class="cls-71" d="M223.76,403.1c-1.89-1.07-4.08.22-6.05-.58.08-3.02-.83-6.13.03-9.11,2.69-.02,5.34-.2,8.65.05l-.07,9.1-2.57.54Z"/>
              <path class="cls-80" d="M204.58,393.48l-.68,8.76c-2.99-.45-6.07,1.01-8.98.77-.48-9.02.49-6.58,3.89-9.15,1.6-1.21,4.05-.11,5.77-.38Z"/>
              <path class="cls-128" d="M212.93,393.44c-.35,2.81-.24,5.56-.24,8.77-3.15.26-6.02.45-8.79.03l.68-8.76c2.77-.44,5.58-.02,8.36-.03Z"/>
              <path class="cls-74" d="M124.7,317.28c.69,1.6,2.72.82,4.14.9-.3.99.65,2.39.6,3.19l-.31,5.55-6.91.95c-.68.09-1.17.06-1.27-.49-.13-1.89-.32-6.08.01-7.88,1.15-.05,2.5.5,3.19-1.22-.89-1.06-.64-1.18.53-.99Z"/>
              <path class="cls-66" d="M104.81,245.17c-.36.38-.58.7-.92.82-.78.26-1.32-1.01-1.88-1.14-4.71-1.05-9.43-.73-14.01-.98-1.16-1.45-.69-3.88-.28-6.01,1.68.42,4.14-.27,5.68.67,4.39,4.46,9.96,4.17,11.42,6.64Z"/>
              <path class="cls-42" d="M191.93,222.19c-.07,1.2-1.43.39-2.17.9-.98,1.26-.21,3.32-1.27,4.39s-3.11,1.1-4.46,1.57c-1.26.44-2.83.09-4.14.4-.71-2.28-.41-4.84.05-7.18,4.01,0,8.04-.44,11.98-.08Z"/>
              <path class="cls-110" d="M128.35,308.47l.16,1.95c-1.27.06-.8,2.25-1.44,3.22l-2.38,3.65c-1.18-.19-1.42-.07-.53.99-.69,1.72-2.04,1.17-3.19,1.22-.35-3.52-.32-7.29.21-10.9,2.71-.65,4.97.04,7.17-.13Z"/>
              <path class="cls-29" d="M175.12,322.52c-.36,1.86.05,3.93-1.17,5.47l-8.33.06c-.31-2.16-.49-4.01-.09-6.07,3.62.2,6.63-.43,9.58.54Z"/>
              <path class="cls-12" d="M189.94,393.08c-.76.6-.91,1.8-1.33,2.56-.36.65-2.11.16-2.45.98-1.38,3.33-5.89,2.86-6.16,2.52-1.26-1.62.3-4.07-1.2-5.66,2.56-1.08,8.16-.38,11.14-.4Z"/>
              <path class="cls-137" d="M198.24,238.38c-3.88.08-7.81,0-11.56-.97,1.34-3.15,8.41-4.02,11.43-3.38.56,1.56.03,3,.13,4.35Z"/>
              <path class="cls-52" d="M158.91,321.98c-1.15-.51-2.42-.65-3.68-.65l-.47-11.9c3.1.53.49,4.26,4.33,4.1.72,2.45.95,6.05-.18,8.44Z"/>
              <path class="cls-50" d="M223.76,403.1c-.11,1.06-.09,2.28-.08,3.51.03,3.03-4.57,3.05-5.95,3.09-.36-2.4-.08-4.83-.02-7.18,1.97.79,4.16-.5,6.05.58Z"/>
              <path class="cls-87" d="M78.37,347.03c1.09.56.28,1.01-.63.72.12-3.79-.36-7.29-3.27-9.99,1.7-.4,2.62.22,4.12-.38.48,3.34.05,6.43-.22,9.64Z"/>
              <path class="cls-35" d="M77.33,356.22c-.46-.1-.91.33-1.35.06.49-1.51,1.36-2.86,2.19-4.36.69,1.77-.38,3.16-.85,4.3Z"/>
              <path class="cls-140" d="M139.57,289.93l-37.73-.41c.27-2.47.33-5,.02-7.48l51.13-.08,19.87.07c.09,2.38-.08,4.58-.48,7.31-1.71.09-3.35.38-5.11.4l-27.7.18Z"/>
              <path class="cls-27" d="M101.78,274.57l-5.27.17c-.8.03-2.76.3-3.38-.51l.11-21.97,18.48-.17.09,9.63-9.7.41-.33,12.44Z"/>
              <path class="cls-130" d="M173.36,261.79c.52-.12.94.09,1.11.64-.23.57-.62,1.46-1.85,1.44-1.49-.02-1.57,2.04-2.27,2.9-.99,1.21-2.95,1.51-3.82,2.8-.79,1.18,0,2.96-.44,4.41-1.96.94-4.43,1.02-6.46-.11l.82-10.95,4.4-.34c4-.31,6.34-2.04,7.62.52.29-.96.18-1.15.87-1.31Z"/>
              <path class="cls-105" d="M101.86,282.04c.31,2.47.24,5-.02,7.48-1.55-.02-3.54.96-5.06-.09-.88-2.43.37-5.13.23-7.28,1.55-.6,3.24-.1,4.85-.11Z"/>
              <path class="cls-86" d="M148.76,299.69c-2.05-.03-4.12.19-6.17,0-.22-.26-.1-.56.23-1.12h5.72c.32.56.44.86.23,1.13Z"/>
              <path class="cls-103" d="M203.21,358.92l-4.15.19c-.82-2.34-.57-4.92-.28-7.27,1.24.21,3.44-1.23,4.43.43-.83,2.37.14,4.57,0,6.65Z"/>
              <path class="cls-7" d="M128.51,310.41l.55,4.88c.11,1.02.07,1.92-.22,2.89-1.42-.08-3.45.7-4.14-.9l2.38-3.65c.63-.97.17-3.16,1.44-3.22Z"/>
            </g>
          </g>
          <path class="cls-3" d="M88.12,463.75c.83-2.44-.22-5.39.24-8.02.07-.39-.83-.52-.9-.86-.08-.42.06-.84.05-1.27,1.36.09,3.56.65,4.38,2.25,1.09,2.12.66,5.21.35,7.8-1.73.25-2.89.08-4.11.09Z"/>
          <g>
            <path class="cls-24" d="M265.82,337.15c-1.36.62-.93-5.63-.93-7.37v-5.3s-.14-60.27-.14-60.27c2.73-.89,5.98-.64,8.85-.24l.49,73.25c-3.33.09-5.81.33-8.28-.07Z"/>
            <path class="cls-83" d="M264.66,263.7c.09.16.1.3.1.51l.13,60.27c-3.08-.47-6.56,1.04-9.3-.73,0-1.12-.56-2.39-.5-3.51.89-14.7-1.6-29.94.16-44.49l.65-5.42c.2-1.62-.05-2.99-.77-4.19.66-.41.62-1.47.5-2.24,3,.05,6.03.13,9.02-.2Z"/>
            <path class="cls-26" d="M264.89,329.78c0,1.74-.43,7.99.93,7.37-.17.46-.6.88-1.06,1.05.88-1.54-8.74-.48-9.16-.47l-10.81.41c-.52.02-20.74-1.51-21.47.66,0-.53-.82-1-.91-1.57-.38-2.34-.12-4.66-.19-6.87,2.68-.61,4.35.18,4.62-1.79.4,1.72,6.27,1.21,8.95,1.21h29.1Z"/>
            <path class="cls-22" d="M244.79,338.14l-.03,21.1c-3.3.08-6.66.05-9.91.43.16-.3.35-.44-.12-.53-.23-.05-.14-.36-.14-.51.01-4.04.42-8.28-.09-12.8-1.42-1.92-6.18,2.76-11.19,2.48v-9.51c.72-2.17,20.95-.64,21.46-.66Z"/>
            <path class="cls-114" d="M244.61,251c-.03.66.31,1.05,1.06,1.15.4.05.99-.16,1.45-.37l8.36,1.11c-.28,3.62-.41,7.39.16,10.99.12.77.16,1.83-.5,2.24l-10.36.05c.07-.92-.04-2.58-.63-2.7l-2.83-.6c-.46-1.94-2.79-2.84-5.09-2.8-.73.02-.37-2.86-1.64-2.35-.24-2.93,7.6-7.37,10.03-6.74Z"/>
            <path class="cls-30" d="M264.76,338.2l-.06,20.86c-3.31.08-6.22-.33-9.12.12l.02-21.45c.42-.02,10.04-1.07,9.16.47Z"/>
            <path class="cls-117" d="M244.77,359.24c3.58-.08,7.23.49,10.82-.06,0,2.93-.13,5.88-.4,8.99l-20.36-.21c-.22-2.97-.06-5.64.03-8.28,3.25-.38,6.61-.35,9.91-.43Z"/>
            <path class="cls-24" d="M264.66,263.7c-2.99.33-6.03.25-9.02.2-.57-3.6-.44-7.37-.16-10.99,2.47-.06,5.93-1.34,9-.37l.18,11.16Z"/>
            <path class="cls-4" d="M220.69,290.77c.32,1.32-.26,3.65.71,4.76,8.94,2.31,2.16,4.18,7.63,3.72-.07.2.05.4.05.59-.34,8-.23,16.03.03,24.03.03.83.09,2.23-.37,3.1-.62.49-1.79.87-1.89,1.59-.27,1.98-1.95,1.19-4.62,1.79-.06-1.85-.97-3.79-.63-5.96s-.8-3.63-1.12-5.39c-.63-3.44.17-6.76-.29-10.3l-7.31-.28.06-17.67c1.66-1.25,3.96.32,5.5-1.2.81.3,1.57.67,2.25,1.21Z"/>
            <path class="cls-46" d="M220.2,260.71c.12.6.69.9.6,1.4-.16.85-1.16.71-1.67,1.13-1.08.89-1.91,7.19-.17,7.55.25.05,1.01,0,1.04.26.73,2.48-1.36,12.41,1.86,11.29-1.13,3.13,1.12,3.96-1.38,6.47-.48-.61-1.14-1.03-1.62-.82-.72.31-.35,1-.43,1.57-1.54,1.52-3.84-.05-5.5,1.2l-.1-13.64c-.04-4.96-.32-9.95.08-14.86,2.39-1.52,4.87-1.39,7.28-1.55Z"/>
            <path class="cls-102" d="M244.61,251c-2.43-.63-10.27,3.81-10.03,6.74-2.59,2.87-7.35,1.57-7.24,5.34-2,.99-4.58-.21-6.3.94s.2,5.25-1.78,5.71c-.46.11-.33.68-.3,1.05-1.74-.35-.92-6.66.17-7.55.51-.42,1.51-.28,1.67-1.13.1-.5-.48-.81-.6-1.4-.39.25,7.55-6.04,6.76-5.18,4.48-4.84,10.53-9.98,17.33-8.75,1.2,1.01,0,3.05.31,4.23Z"/>
            <path class="cls-133" d="M255.59,323.74c2.74,1.77,6.22.26,9.3.73v5.3s-29.1,0-29.1,0c-2.68,0-8.55.51-8.95-1.21.1-.72,1.28-1.1,1.89-1.59.46-.87.4-2.27.37-3.1,2.14,1.28,4.62.62,7.29.61l18.37-.08c.35-.46.42-.92.82-.66Z"/>
            <path class="cls-49" d="M255.25,275.74c-1.76,14.55.73,29.79-.16,44.49-3.22-.1-6.49.17-9.89.08l-13.48-.34c-.78-.02-.89-9.98-.14-10.6l3.3-1.04c.3-2.61.37-5.17.33-8.08-2.01-1.01-4.13-.42-6.14-.41,0-.19-.11-.38-.05-.59.31-.95-.51-2.5.58-3.13l5.9-.82.55-5.04c1.88-.01,3.15.49,4.27-1.23.6-.92,1.12-2.16.47-3.84l4.18-.26c.28-1.11-.1-2.19.47-3.21l5.85-.65c.39-1.85-.13-3.55.58-4.93,1.09-.33,2.25-.49,3.38-.42Z"/>
            <path class="cls-15" d="M255.09,320.23c-.07,1.13.49,2.4.5,3.51-.4-.26-.47.2-.82.66l-18.37.08c-2.67.01-5.15.67-7.29-.61-.26-8-.37-16.03-.03-24.03,2.01,0,4.12-.6,6.14.41.04,2.91-.03,5.47-.33,8.08l-3.3,1.04c-.75.62-.65,10.58.14,10.6l13.48.34c3.4.08,6.67-.18,9.89-.08Z"/>
            <path class="cls-37" d="M255.14,266.14c.72,1.2.97,2.57.77,4.19l-.65,5.42c-1.13-.07-2.29.1-3.38.42.45-1.58-8.54.6-8.32-1.61.59,1.19,1.18-7.93,1.22-8.36l10.36-.05Z"/>
            <path class="cls-13" d="M255.61,337.73l-.02,21.45c-3.59.56-7.23-.02-10.82.06l.03-21.1,10.81-.41Z"/>
            <path class="cls-63" d="M244.77,266.19c-.03.44-.62,9.55-1.22,8.36-8.12,1.1-.17,1.22-9.14,4.38-1.19.42-1.41,1.65-2.52,2.01l-4.49,1.47c-2.33.6-4.16-1.74-5.54-.08-3.22,1.12-1.14-8.81-1.86-11.29-.04-.25-.8-.21-1.04-.26-.03-.38-.15-.95.3-1.05,1.98-.46.05-4.56,1.78-5.71s4.3.05,6.3-.94c-.11-3.77,4.65-2.47,7.24-5.34,1.27-.51.91,2.37,1.64,2.35,2.3-.05,4.63.86,5.09,2.8l2.83.6c.59.12.7,1.78.63,2.7Z"/>
            <path class="cls-56" d="M227.41,282.42c.7.82,3.17,1.32,2.71,2.88s-1.2,2.79-.97,4.32c-2.79.71-5.76.15-8.46,1.15-.68-.54-1.44-.92-2.25-1.21.07-.57-.29-1.26.43-1.57.48-.21,1.14.21,1.62.82,2.5-2.51.25-3.35,1.38-6.47,1.38-1.66,3.21.68,5.54.08Z"/>
            <path class="cls-125" d="M229.16,289.62c.32,2.16-.5,4.45.46,6.51-1.09.64-.27,2.18-.58,3.13-5.47.46,1.31-1.41-7.63-3.72-.97-1.11-.39-3.44-.71-4.76,2.7-1,5.67-.44,8.46-1.15Z"/>
            <path class="cls-9" d="M243.55,274.55c-.22,2.22,8.77.03,8.32,1.61-.71,1.37-.19,3.07-.58,4.93l-5.85.65c-.57,1.02-.18,2.1-.47,3.21l-4.18.26c.65,1.68.13,2.92-.47,3.84-1.12,1.72-2.39,1.22-4.27,1.23l-.55,5.04-5.9.82c-.95-2.05-.14-4.35-.46-6.51-.22-1.53.51-2.74.97-4.32s-2.01-2.06-2.71-2.88l4.49-1.47c1.1-.36,1.32-1.59,2.52-2.01,8.97-3.16,1.02-3.28,9.14-4.38Z"/>
          </g>
        </g>
      </g>
    </g>
  </g>
</svg>