<?xml version="1.0" encoding="UTF-8"?>
<svg id="_レイヤー_2" data-name="レイヤー 2" xmlns="http://www.w3.org/2000/svg" viewBox="0 0 298.91 512">
  <defs>
    <style>
      .cls-1 {
        fill: #d9c3b4;
      }

      .cls-2 {
        fill: #c1a4a2;
      }

      .cls-3 {
        fill: #e6e6ea;
      }

      .cls-4 {
        fill: #cfb4aa;
      }

      .cls-5 {
        fill: #4a4864;
      }

      .cls-6 {
        fill: #57526a;
      }

      .cls-7 {
        fill: #b39696;
      }

      .cls-8 {
        fill: #fdfeff;
      }

      .cls-9 {
        fill: #d3bbb0;
      }

      .cls-10 {
        fill: #a78a91;
      }

      .cls-11 {
        fill: #c3a7a3;
      }

      .cls-12 {
        fill: #ba9d9c;
      }

      .cls-13 {
        fill: #c4a7a3;
      }

      .cls-14 {
        fill: #dbdbe3;
      }

      .cls-15 {
        fill: #a1848d;
      }

      .cls-16 {
        fill: #a0828b;
      }

      .cls-17 {
        fill: #947885;
      }

      .cls-18 {
        fill: #f6f0e0;
      }

      .cls-19 {
        fill: #af9196;
      }

      .cls-20 {
        fill: #fff;
      }

      .cls-21 {
        fill: #dbc6b7;
      }

      .cls-22 {
        fill: #696278;
      }

      .cls-23 {
        fill: #494864;
      }

      .cls-24 {
        fill: #dcc7b7;
      }

      .cls-25 {
        fill: #58536b;
      }

      .cls-26 {
        fill: #725e76;
      }

      .cls-27 {
        fill: #dac2b4;
      }

      .cls-28 {
        fill: #f7f2e3;
      }

      .cls-29 {
        fill: #dec9b8;
      }

      .cls-30 {
        fill: #937583;
      }

      .cls-31 {
        fill: #dcdbde;
      }

      .cls-32 {
        fill: #9f808a;
      }

      .cls-33 {
        fill: #9e818b;
      }

      .cls-34 {
        fill: #676177;
      }

      .cls-35 {
        fill: #dbc6b8;
      }

      .cls-36 {
        fill: #a3858e;
      }

      .cls-37 {
        fill: #d3b9ad;
      }

      .cls-38 {
        fill: #b2969a;
      }

      .cls-39 {
        fill: #b39698;
      }

      .cls-40 {
        fill: #665f77;
      }

      .cls-41 {
        fill: #dec9ba;
      }

      .cls-42 {
        fill: #b09398;
      }

      .cls-43 {
        fill: #f6f2f4;
      }

      .cls-44 {
        fill: #ebddca;
      }

      .cls-45 {
        fill: #484763;
      }

      .cls-46 {
        fill: #c4c3cf;
      }

      .cls-47 {
        fill: #caafa7;
      }

      .cls-48 {
        fill: #bfa29f;
      }

      .cls-49 {
        fill: #dcc7b8;
      }

      .cls-50 {
        fill: #a2848d;
      }

      .cls-51 {
        fill: #7a667a;
      }

      .cls-52 {
        fill: #987a86;
      }

      .cls-53 {
        fill: #997b88;
      }

      .cls-54 {
        fill: #625a74;
      }

      .cls-55 {
        fill: #d7c0b4;
      }

      .cls-56 {
        fill: #666178;
      }

      .cls-57 {
        fill: #aa8b8f;
      }

      .cls-58 {
        fill: #bb9e9d;
      }

      .cls-59 {
        fill: #b79a9a;
      }

      .cls-60 {
        fill: #d6beb2;
      }

      .cls-61 {
        fill: #967a86;
      }

      .cls-62 {
        fill: #c4a9a4;
      }

      .cls-63 {
        fill: #494964;
      }

      .cls-64 {
        fill: #7e718b;
      }

      .cls-65 {
        fill: #c3a6a2;
      }

      .cls-66 {
        fill: #8f7282;
      }

      .cls-67 {
        fill: #cdb2a8;
      }

      .cls-68 {
        fill: #a7888f;
      }

      .cls-69 {
        fill: #a9a1b6;
      }

      .cls-70 {
        fill: #eee0cc;
      }

      .cls-71 {
        fill: #907583;
      }

      .cls-72 {
        fill: #4c4b66;
      }

      .cls-73 {
        fill: #a4868f;
      }

      .cls-74 {
        fill: #bcb9c5;
      }

      .cls-75 {
        fill: #c7aaa4;
      }

      .cls-76 {
        fill: #bb9f9f;
      }

      .cls-77 {
        fill: #856c7e;
      }

      .cls-78 {
        fill: #b19497;
      }

      .cls-79 {
        fill: #ecdfcc;
      }

      .cls-80 {
        fill: #7c6579;
      }

      .cls-81 {
        fill: #8a8297;
      }

      .cls-82 {
        fill: #7c6577;
      }

      .cls-83 {
        fill: #b99b9c;
      }

      .cls-84 {
        fill: #e2ccb8;
      }

      .cls-85 {
        fill: #70687f;
      }

      .cls-86 {
        fill: #4d4b66;
      }

      .cls-87 {
        fill: #6e677d;
      }

      .cls-88 {
        fill: #947886;
      }

      .cls-89 {
        fill: #af9295;
      }

      .cls-90 {
        fill: #6d657b;
      }

      .cls-91 {
        fill: #bc9e9d;
      }

      .cls-92 {
        fill: #d2b9ac;
      }

      .cls-93 {
        fill: #f0e5d1;
      }

      .cls-94 {
        fill: #dac3b4;
      }

      .cls-95 {
        fill: #b6b4c4;
      }

      .cls-96 {
        fill: #9d808b;
      }

      .cls-97 {
        fill: #e2cebf;
      }

      .cls-98 {
        fill: #ccb1a9;
      }

      .cls-99 {
        fill: #feffff;
      }

      .cls-100 {
        fill: #ecddc8;
      }

      .cls-101 {
        fill: #ecddc9;
      }

      .cls-102 {
        fill: #876d7f;
      }

      .cls-103 {
        fill: #c3a5a0;
      }

      .cls-104 {
        fill: #c4a6a2;
      }

      .cls-105 {
        fill: #a1848f;
      }

      .cls-106 {
        fill: #dcc7b9;
      }

      .cls-107 {
        fill: #d5d6e0;
      }

      .cls-108 {
        fill: #f6f1e1;
      }

      .cls-109 {
        fill: #b19395;
      }

      .cls-110 {
        fill: #cbaea9;
      }

      .cls-111 {
        fill: #ecdeca;
      }

      .cls-112 {
        fill: #e8d8c4;
      }
    </style>
  </defs>
  <g id="_レイヤー_1-2" data-name="レイヤー 1">
    <g id="_生成オブジェクト" data-name="生成オブジェクト">
      <circle class="cls-8" cx="211.77" cy="265.98" r=".32"/>
      <g>
        <polygon class="cls-99" points="165.96 468.18 130.55 467.76 130.48 409.54 166.41 409.62 165.96 468.18"/>
        <g>
          <path class="cls-46" d="M278.92,494.16c0,2.55-.96,5.32-.57,7.96l-28.44.95c-2.4.08-5.12.38-7.42.38l-33.08-.04c-.64,0-2.34-.46-2.62.31-.85,2.29-.19,4.59-.16,6.63.11.41,0,.84-.25,1.18-.28.38-.64.46-1.56.46h-122.61s-.33-8.52-.33-8.52l-28.27-.07-35.21-.84c-.16-3.16.25-5.38-.14-7.9-3.46-.21-6.27.26-9.13-.3l-.32-8.44c-.09-2.38.67-4.91,0-7.27-.02-.91.91-1.11,1.98-1.11l41.55-.07c1.03,0,1.21,1.55,1.26,1.9-.42,1.97-.46,4.22,0,6.51,4.11.65,7.91-.06,11.63-.06l166.22.37c.47-3.5.39-6.08.2-8.68.66,0,8.3-.26,8.87-.52.22-.1-.05-.73.16-.95.72-.34.34.58.85,1.28l31.26.29.25,8.45,5.67.18c-.4,2.78.2,5.49.21,7.92Z"/>
          <path class="cls-107" d="M278.36,502.12c-.39-2.64.57-5.41.57-7.96,5.26-.39,10.69-.32,16.29-.21,2.77.05,3.68,2.57,3.7,4.52.06,6.75-15.04,3.47-20.55,3.65Z"/>
          <path class="cls-8" d="M65.27,477.86c-.16,2.65-.41,5.33-.04,7.95-3.72,0-7.51.7-11.63.06-.47-2.29-.43-4.54,0-6.51,1.3-.13,2.1-1.37,3.22-1.9,2.75-.98,5.88.43,8.45.41Z"/>
          <path class="cls-3" d="M249.92,503.07c.54,3.08,1.16,6.05-1.4,7.85-1.24.87-2.87.34-4.85-.57-2.11-.97-1.69-4.82-1.16-6.9,2.3,0,5.02-.3,7.42-.38Z"/>
          <path class="cls-14" d="M8.81,478.64c.66,2.37-.1,4.89,0,7.27-1.2,1.19-2.73-.18-4.11-.24-2.52-.11-4.16-.64-4.65-3.49-.3-1.75,1.31-3.88,3.54-3.73,1.97.13,3.67-.48,5.23.19Z"/>
          <path class="cls-8" d="M209.41,503.4c-.89,1.06-1.06,3.83.61,4.33.96.29,1.83-1.05,2.07-.64.18.31,1.46.82,1.3,1.5-.94,4.06-6.49.37-6.77,1.76-.03-2.05-.69-4.34.16-6.63.29-.77,1.98-.31,2.62-.31Z"/>
          <path class="cls-95" d="M165.96,468.18l.49,9.2,65.2.12c.19,2.6.27,5.19-.2,8.68l-166.22-.37c-.37-2.62-.12-5.3.04-7.95l64.97-.63.31-9.48,35.42.42Z"/>
        </g>
        <g>
          <path class="cls-65" d="M217.99,279.83c.3.47-.12.64-.36.77-.22.12-1.31-.16-1.47.13-.86,1.52-1.41,5.72-.1,6.91,1.92,1.75,5.07-.19,6.92.12.82.13,9.09,1.21,8.72-.67.51.06.68.65.7,1.21l.44,16.3c3.52.8,7.68-.8,9.11,1.3-.79.99.18,2.11.25,3.14.22,3.48.29,6.98.4,10.46l.27,8.93,8.39-.15c1.98-.84-.89-10.15,1.24-8.62.06,1.48.35,2.71.35,4.33l-.07,29.41-28.34-.04-.22-56.79c-3.2-.86-6.02-.11-8.8-.47-.62-2.39-.09-4.97-.14-7.73-2.75-1.1-7.22.76-8.98-1.29l.42-7.36c3.87-.24,7.62-.11,11.27.11Z"/>
          <path class="cls-96" d="M184.15,445.46l.21,13.95c13.23-.43,26.24.43,38.91-.75,2.46-.23,5.39,1.36,8.16.37.22-.42,0-1.22.67-1.14,0,.45.33.75.2,1.23-.72,2.78.03,5.65-.46,8.91h-56.32s-.15-22.68-.15-22.68l8.77.11Z"/>
          <path class="cls-25" d="M56.77,289.01l-.27,6.58c-.05,1.17-1.76.83-2.47,1.13l-.59,12.15-8.27.25c-.42.01-.69.25-.77.69-1.04,5.86-.04,11.82-.59,18.53-2.98.51-6.24.45-9.2.24-.06-2.08-.22-4.32-.17-6.43l.34-13.02,9.47-.38.27-11.83c2.57-.04,4.91.21,7.5-.34.17-2.88-.25-5.43.29-8.22.09-.46,5.06-1.16,4.45.64Z"/>
          <path class="cls-22" d="M30.34,328.4l3.92.24-.08,16.91c-.01,2.45-.39,5.04.26,7.6.43.44,1.75.47,2.29.46-.01.33.1.55-.02.75-.37.59-2.24,0-2.5.81-.85,2.73,1.35,1.06-1.4,5.7-.89,1.5-3.31.29-4.66.65-.99.26-2.28,1.4-3.75.85l.47-33.71c2.27.15,3.93-.35,5.47-.25Z"/>
          <path class="cls-45" d="M246.36,304.68l-4.42,1.21c-1.44-2.1-5.59-.5-9.11-1.3l-.44-16.3c2.61-.34,5.37-.17,8.31-.02.36,3.2-.47,5.75.42,8.65,1.48.18,4.19-.62,4.69.65.75,2.37-.55,5.01.54,7.11Z"/>
          <path class="cls-63" d="M252.42,318.87c-3.17.89-6.56.29-9.83.62-.11-3.48-.18-6.98-.4-10.46,2.74-.5,5.58.37,8.23-.45.25.39,1.71.51,1.73,1.17l.27,9.12Z"/>
          <path class="cls-29" d="M43.76,380.77c.2,2.19-.06,4.43,0,7.06s5.58-1.05,4.77,1.75l-14.26.09c-.31,0,.04,1.23-.34,1.33-.36.11-.44-.13-.44-.34,0-.29.35-.52.08-.88-.29-.39.41-.62.1-1.14,2.98,2.42.12-4.26.9-7.3,3.42-1.11,6.27-.54,9.19-.59Z"/>
          <path class="cls-16" d="M252.42,318.87c.5-.14.86.09.68.62-.15.28-.34.36-.6.17-2.14-1.53.74,7.78-1.24,8.62l-8.39.15-.27-8.93c3.27-.33,6.66.28,9.83-.62Z"/>
          <path class="cls-74" d="M82.28,270.08c.35-2.97.06-5.99.03-8.96,2.56.27,5.38-.78,8.46.05l-.1,8.67c-2.86.38-5.65.09-8.4.24Z"/>
          <path class="cls-6" d="M66.55,279.33c-2.13,2.31-.54,5.66-1.15,8.48-2.27-.29-4.91.93-7.21.03-.05-.04-.35-.1-.82-.21-.08-2.73-.32-5.38.16-8.05l7.82-.34c.33-.01-.29-1.23.13-1.25.77.05.4,1.11,1.07,1.34Z"/>
          <path class="cls-81" d="M81.66,444.25c-2.52-.49-5.06-.05-7.59-.14l.33-7.72c2.34-.33,4.77-.33,7.61-.24.21,1.42.63,8-.35,8.1Z"/>
          <path class="cls-87" d="M81.66,444.25c.37.27.5.78,1.01.81l-1.04,5.59c-2.41-.03-4.84-.26-7.24.06-.23.03-.47.09-.69-.03-.37-.2-.66.08-.91.07-.2,0-.45-.12-.35-.47.33-.26,1.43-.02,1.48-.7-.6-2.13.07-3.88.14-5.47,2.53.09,5.07-.35,7.59.14Z"/>
          <path class="cls-31" d="M34.45,322.16c-.05,2.11.11,4.34.17,6.43-.11,0-.24.06-.36.05l-3.92-.24c-1.06-1.44.42-9.36-2.38-5.34-.28.41-.04,1.69-.96,1.83-.42.06-.8.06-1.1-.16-.45-.32-.56-1.32-.31-1.98.74-1.95,2.6-1.23,4.02-1.13.45.03,1.05-1.56,2-.99,1.02.6,1.79,1.5,2.84,1.52Z"/>
          <path class="cls-64" d="M250.42,308.58c-2.65.82-5.49-.05-8.23.45-.06-1.04-1.04-2.15-.25-3.14l4.42-1.21,3.91.6c.57.95.22,2.46.15,3.29Z"/>
          <path class="cls-2" d="M100.44,352.79l16.94-.04,66.93-.34c1.65,0,3.75.15,5.15.94,0,4.04-.71,7.98.22,12.52l7.44.22.1-13.34c.51-.07.61-.1.61.53l.05,12.87c0,.41.65.74.53,1.07l-107.82-.18-.04-14.25c0-.33-.21-.59.25-.76.73-.15.44.81.7,1.06,3.18,1.06,6.3-.3,8.97-.3Z"/>
          <path class="cls-89" d="M205.78,288.3c.61,5.14,1.06,10.99,1.02,16.28l-.39,55.84c-.02,2.43.02,4.59-.51,6.79-2.71.46-5.13.02-7.51.02.12-.34-.53-.66-.53-1.07l-.05-12.87c0-.63-.1-.6-.61-.53.13-18.66.74-37.45.16-56.5-.1-3.22.39-5.85.34-8.53,2.55,1,5.43-.13,8.08.58Z"/>
          <path class="cls-27" d="M262.66,362.37v18.07s-9.47.25-9.47.25l-.39,8.85c-4.15-.31-7.99.79-11.54-.42-.6-2.47.61-5-.39-7.7,1.01-.33,1.59.07,2.56-.09.67-3.57.78-7.15.36-10.88l-10.63.16c-.37,3.33-.37,6.5-.15,9.59-2.09.27-4.11.23-7.17.12l.49-17.58,36.34-.38Z"/>
          <path class="cls-12" d="M223.27,458.67c-12.67,1.18-25.67.32-38.91.75l-.21-13.95,32.25-.48c.42,2.13-.31,3.76.28,5.66l6.77.27-.18,7.76Z"/>
          <path class="cls-10" d="M224.43,353.36c-2.7,0-5.5.65-8.57,0l-.49-48.9c-.03-2.72.76-5.6.05-8.34,2.78.35,5.6-.39,8.8.47l.22,56.79Z"/>
          <path class="cls-80" d="M88.78,288.14c1.03,1.06,1.42,4.59.54,5.12-.73.45.66.86.66,1.15-.05,8.38-.09,16.52.04,25.13,0,.61.31.78.67.65l.09,31.83c-.46.17-.25.42-.25.76-2.56.08-5.22.5-7.73-.05l-.05-33.8.4-14.01c.06-2.18.93-4.28-.4-6.87-.29-.56.67-2.15-.59-1.89.36-2.36-.12-4.86.02-7.97,2.33-.47,4.5-.24,6.6-.07Z"/>
          <path class="cls-75" d="M81.99,297.27c-1.07,6.97.19,14.45.07,21.88l-8.67.09-.22,17.92c-3.06.3-5.83.3-8.5,0l-.02-18.32c0-2.96.08-5.95.08-9.4l8.94-.3c.49-3-.55-6.15.38-8.71.56-1.54-.05-2.31-.07-3.53,2.67-.45,5.47-.62,7.99.38Z"/>
          <path class="cls-78" d="M112.01,445.48l-.18,13.45-12.12.64-.12,8.43-8.15-.07c.28-3.07-.43-6.06-.9-8.84-.41-2.42,1.91-5.87.18-8.4l.58-5.46c6.9-.15,13.82-.1,20.71.25Z"/>
          <path class="cls-71" d="M99.59,468l.12-8.43,12.12-.64.18-13.45c2.89.14,5.96-.76,9.28,0l-.11,22.41c-7.42.26-14.5.17-21.58.11Z"/>
          <path class="cls-37" d="M88.78,288.14c-2.1-.17-4.27-.4-6.6.07-.14,3.1.35,5.6-.02,7.97l-.17,1.1c-2.52-1-5.32-.83-7.99-.38l-.09-8.76c-3,.06-5.77.03-8.51-.32.61-2.82-.98-6.18,1.15-8.48l24.11.38c.2,2.97.08,5.48,0,7.98-.43.39-1.43.68-1.88.45Z"/>
          <path class="cls-111" d="M90.72,450.7c1.73,2.52-.59,5.98-.18,8.4l-8.02.24-.23,5.71c-.05,1.22,0,2.03.41,2.88l-17.23.08c-.22-3.05-.11-5.77-.02-8.88,2.96.13,5.73-.13,8.32-.53,2.22.06,5.02,1.33,8.25.54l.22-8.37,8.49-.07Z"/>
          <path class="cls-24" d="M64.65,318.83l.02,18.32c0,1.19-1.02,2.44-.22,4.01.59,1.17-.02,2.61.2,3.72-.2-.02-.81.12-1.23-.13-.37-2.52.66-4.89-.06-7.4-3.44-.14-6.71.31-9.82-.21.3-5.81.17-11.71.22-18.02l10.89-.3Z"/>
          <path class="cls-93" d="M55.07,362.62c.35.44-.23.74-.22,1.18l-12.4-.07c.38,4.52.02,10.77.75,14.3.62-.41.93-.82,1.37-.66-.11.93-.57,1.86-.13,2.76-.36.05-.47.41-.69.63-2.92.04-5.77-.53-9.19.59-.79,3.04,2.08,9.72-.9,7.3-.58-.97.06-2.23.07-3.44l.09-22.62,21.25.03Z"/>
          <path class="cls-90" d="M241.26,389.12c-1.41,1.11-3.2.04-5.22.39-.42-1.47-.58-11.45-3.04-9.3-.21-3.09-.22-6.27.15-9.59l10.63-.16c.42,3.73.32,7.31-.36,10.88-.97.15-1.55-.24-2.56.09,1,2.7-.21,5.23.39,7.7Z"/>
          <path class="cls-103" d="M55.55,379.89c-.34-3.21,0-6.4-.52-9.58-.35-2.1-.13-4.38-.18-6.51,0-.44.57-.74.22-1.18l9.09.19-.07,16.52-8.55.57Z"/>
          <path class="cls-88" d="M215.42,296.11c.71,2.74-.07,5.62-.05,8.34-2.84-.13-5.74-.2-8.57.13.04-5.29-.41-11.14-1.02-16.28.73-.05.5-.74.53-1.22,1.75,2.05,6.22.19,8.98,1.29.05,2.76-.48,5.34.14,7.73Z"/>
          <path class="cls-105" d="M90.53,352.8l.04,14.25c-2.22,0-4.89,1.02-7.77.44-.45-4.94,0-9.95,0-14.74,2.51.55,5.17.13,7.73.05Z"/>
          <path class="cls-34" d="M55.03,370.31c.52,3.18.17,6.37.52,9.58l-.31,1.22c-3.56-.86-7.56.95-10.79-.98-.44-.9.03-1.83.13-2.76.24-2.14-.1-4.36.32-6.8l10.13-.26Z"/>
          <path class="cls-4" d="M55.24,381.11c-.6,2.35-.68,5.06.1,8.19-2.27.28-4.5.26-6.82.28.81-2.8-4.72.79-4.77-1.75s.2-4.87,0-7.06c.22-.22.33-.58.69-.63,3.23,1.93,7.23.12,10.79.98Z"/>
          <path class="cls-109" d="M64.48,345.57c-.14,2.53.15,5.09-.33,7.8-3.73.21-7.17.29-10.53,0-.54-2.56-.64-5.2-.51-7.79,3.79.03,7.62-.35,11.37,0Z"/>
          <path class="cls-67" d="M64.66,344.89c.05.27-.17.47-.18.68-3.75-.35-7.57.03-11.37,0l.44-8.42c3.11.52,6.38.07,9.82.21.72,2.51-.31,4.88.06,7.4.42.24,1.03.1,1.23.13Z"/>
          <path class="cls-92" d="M90.54,459.09c.47,2.78,1.18,5.77.9,8.84h-8.74c-.4-.86-.46-1.67-.41-2.89l.23-5.71,8.02-.24Z"/>
          <path class="cls-112" d="M43.96,345.5l-.05,7.15c2.09-.04,3.24-.16,4.51.75l-11.69.22c-.54.01-1.86-.02-2.29-.46-.65-2.55-.27-5.15-.26-7.6,3.26-.17,6.53-.08,9.78-.05Z"/>
          <path class="cls-94" d="M53.11,345.57c-.13,2.59-.03,5.23.51,7.79-1.39-.12-3.93.94-5.2.04s-2.42-.79-4.51-.75l.05-7.15,9.15.07Z"/>
          <path class="cls-108" d="M81.64,450.65c.2,0,.41.12.59.12l-.22,8.37c-3.23.79-6.03-.48-8.25-.54l-.04-7.25c.48.21.79-.17.68-.63,2.4-.32,4.83-.09,7.24-.06Z"/>
          <path class="cls-85" d="M72.4,353.46c.8.92,1.37,5.75.8,7.67-1.39.81-5,.3-8.38.21.18-2.01-.97-6.12.87-7.37l6.7-.51Z"/>
          <path class="cls-84" d="M91.31,445.24l-.58,5.46-8.49.07c-.17,0-.39-.11-.59-.12l1.04-5.59c2.86.17,5.76.24,8.63.18Z"/>
          <path class="cls-49" d="M110.12,279.41l5.99.03,60.36.19c2.51,0,4.85-.15,7.14.14,1.91.24,3.89-.37,5.72-.39,2.61-.03,5.09.5,8.2.2l.17,8.15c.06,2.68-.44,5.31-.34,8.53.59,19.05-.02,37.83-.16,56.5-2.59.37-5.38-.86-7.75.6-1.41-.79-3.51-.95-5.15-.94l.07-14.42,5.27-.33.1-49.34h-87.97c-1.31,0-1.67-.48-2.2-1.12-.24-2.33-.22-4.52.06-7.72,3.78.25,7.11-.09,10.49-.07Z"/>
          <path class="cls-17" d="M189.33,279.37c-1.83.02-3.81.64-5.72.39l-.31-2.85c-2.42-.87-4.82-.7-7.42-.91-.41-1.79-.12-3.38-.1-5.39l-44.88-.34c0-3.06.24-6.12-.15-9.15l53.89-.16.33,7.92c.05,1.09-3.95,1.38,4.46,1.92l-.11,8.57Z"/>
          <path class="cls-19" d="M183.62,279.77c-2.3-.29-4.63-.13-7.14-.14l-60.36-.19c.34-2.85.7-5.93-.04-8.72l.57-.11,14.26-.34,44.88.34c-.02,2.01-.32,3.6.1,5.39,2.6.2,5,.04,7.42.91l.31,2.85Z"/>
          <path class="cls-1" d="M99.11,288.36c.27,1.62.38,3.25.36,5.28l-.35,56.39c0,1.42.16,2.42,1.32,2.76-2.66,0-5.78,1.36-8.97.3-.26-.25.03-1.2-.7-1.06l-.09-31.83v-31.59c2.85-.77,5.72-.56,8.42-.25Z"/>
          <path class="cls-77" d="M130.76,261.13c.39,3.03.16,6.09.15,9.15l-14.26.34c-.27-2.95-.16-6.04.04-9.51,4.92-.45,9.49.04,14.07.02Z"/>
          <path class="cls-73" d="M222.97,287.75c-1.85-.3-5,1.63-6.92-.12-1.31-1.19-.77-5.39.1-6.91.17-.29,1.25-.01,1.47-.13.24-.13.67-.3.36-.77,1.65.1,3.59-.74,5.18.51-.33,2.81-.42,5.18-.2,7.41Z"/>
          <path class="cls-61" d="M116.07,270.72c.74,2.79.38,5.87.04,8.72l-5.99-.03c.37-.55-.76-.78-.75-1.29l.15-7.38c2.42-.29,4.54.36,6.55-.02Z"/>
          <g>
            <path class="cls-18" d="M65.4,287.81c2.74.35,5.51.38,8.51.32l.09,8.76c.01,1.22.63,1.99.07,3.53-.94,2.56.1,5.71-.38,8.71l-8.94.3c0,3.44-.09,6.44-.08,9.4l-10.89.3c-.05,6.31.08,12.21-.22,18.02l-.44,8.42-9.15-.07c-3.26-.02-6.52-.12-9.78.05l.08-16.91c.12,0,.24-.06.36-.05,2.96.21,6.22.27,9.2-.24.55-6.72-.45-12.67.59-18.53.49.13.88-.18.77-.69l8.27-.25.59-12.15c.72-.3,2.43.04,2.47-1.13l.27-6.58c.49.13,1.06.23,1.39-.29.13-.21.13-.56.03-.87,2.31.9,4.94-.32,7.21-.03Z"/>
            <polygon class="cls-70" points="73.1 308.49 64.71 308.49 64.77 296.48 72.99 296.43 73.1 308.49"/>
          </g>
          <path class="cls-39" d="M197.21,352.75l-.1,13.34-7.44-.22c-.92-4.53-.23-8.48-.22-12.52,2.37-1.46,5.16-.24,7.75-.6Z"/>
          <g>
            <path class="cls-72" d="M82.8,352.75c0,4.79-.44,9.79,0,14.74,2.87.59,5.54-.44,7.77-.44l107.82.18c2.38,0,4.8.44,7.51-.02.52-2.2.49-4.36.51-6.79l.39-55.84c2.84-.33,5.73-.26,8.57-.13l.49,48.9c3.08.66,5.87,0,8.57,0l28.34.04.07-29.41c0-1.63-.29-2.85-.35-4.33.27.19.45.12.6-.17,2.87-.34,5.76-.32,9.27-.03l.29,42.91-36.34.38-.49,17.58c3.06.11,5.07.15,7.17-.12,2.46-2.15,2.63,7.83,3.04,9.3,2.02-.35,3.81.72,5.22-.39,3.55,1.21,7.39.11,11.54.42l.39-8.85,9.47-.25v-18.07c2.93-.03,5.86-.06,9.57-.07l-.04,18.26-9.27.18c-.45,2.38.33,7.72-.57,8.8-2.13,2.53-1.91-5.45-2.75,9.53l-28.35.13-.3-9.22c-2.24-.07-4.29-.18-6.57.06l-.29,35.99c-.03,3.31-.44,6.32-.29,9.45l-5.89.29c.15,3.15-.2,5.84.25,8.71,2.08.14,3.73-.24,5.58.1.42,1.76.04,3.55.1,5.49l8.12.32.16,7.51c-.68-.08-.45.72-.67,1.14-2.77.99-5.7-.6-8.16-.37l.18-7.76-6.77-.27c-.59-1.91.13-3.53-.28-5.66l-32.25.48-8.77-.11.15,22.68h56.32c.49-3.26-.26-6.13.46-8.91l8.37.11v16.8c-.2.22.07.85-.15.95-.56.25-8.21.52-8.87.52l-65.2-.12-.49-9.2.45-58.56-35.94-.08.07,58.23-.31,9.48-64.97.63c-2.58.02-5.71-1.39-8.45-.41.09-.27-.62-.35-.62-.73l.08-17.49,8.75-.28.02-8.43,7.4-.24c-.11.36.14.47.35.47.24,0,.54-.28.91-.07-.37.24.01.43.01.66l.04,7.25c-2.59.4-5.35.66-8.32.53-.09,3.1-.2,5.83.02,8.88l17.23-.08h8.74s8.15.08,8.15.08c7.09.06,14.16.15,21.58-.11l.11-22.41c-3.32-.76-6.38.14-9.28,0-6.89-.34-13.8-.4-20.71-.25-2.87.06-5.77,0-8.63-.18-.52-.03-.65-.54-1.01-.81.98-.1.56-6.68.35-8.1-2.84-.09-5.27-.09-7.61.24.79-18.49-.23-37.52-.73-56.33-.02-.76.34-1.69.5-2.86l7.67-.26-.08-8.22-7.28.11c-1.03-8.04.11-12.31-.11-20.74-2.75.81-.07,5.18-1.98,5.37l-6.7.51c-1.84,1.25-.69,5.36-.87,7.37,3.38.09,6.99.6,8.38-.21-.77,2.6.16,5.64.05,8.44-.13,3.52.47,7.1-.17,10.57l-8.25.36-.19,8.9-8.62.54-.32,9.15-21.77.06c-.28-3.16-.35-5.68-.02-8.15.38-.1.03-1.32.34-1.33l14.26-.09c2.32-.02,4.55,0,6.82-.28-.78-3.14-.7-5.85-.1-8.19l.31-1.22,8.55-.57.07-16.52-9.09-.19-21.25-.03-.09,22.62c0,1.21-.65,2.47-.07,3.44.31.52-.39.74-.1,1.14l-9.34-.07c-.36-9.43.04-18.38.17-27.35,1.47.55,2.76-.59,3.75-.85,1.35-.36,3.77.85,4.66-.65,2.75-4.64.55-2.97,1.4-5.7.25-.81,2.13-.22,2.5-.81.12-.2,0-.42.02-.75l11.69-.22c1.27.9,3.8-.16,5.2-.04,3.36.29,6.81.22,10.53,0,.48-2.7.18-5.26.33-7.8.01-.21.23-.41.18-.68-.22-1.11.39-2.54-.2-3.72-.8-1.58.22-2.82.22-4.01,2.68.31,5.44.31,8.5,0l.22-17.92,8.67-.09c.11-7.43-1.15-14.91-.07-21.88l.17-1.1c1.27-.26.3,1.33.59,1.89,1.33,2.58.46,4.69.4,6.87l-.4,14.01.05,33.8Z"/>
            <g>
              <path class="cls-8" d="M73.67,380.06c-.18.14-.4.07-.59.08.64-3.47.04-7.06.17-10.57.55-.01.63-.8,1.23-.74l7.28-.11.08,8.22-7.67.26c-.16,1.17-.52,2.1-.5,2.86Z"/>
              <path class="cls-15" d="M206.8,377.89l-.28,39.18-.16,8.47c-2.57.98-5.11.69-7.99.68l-22.98-.07-.2-26.16c2.6-.97,5.68-.86,8.84-.31l-.05,17.07h14.03s.3-29.24.3-29.24l-23.3.13-.06,11.79-53.73.04c0-3.83.25-7.41-.06-12.02l-9.74-.28c.55-2.98-1.06-8.24-.08-9.27,31.58-.92,63.68-.82,95.45,0Z"/>
              <path class="cls-100" d="M99.15,378.09c.32,2.94-.27,6.06.39,9.13,4.32.43,8.17-.17,11.9-.06l9.74.28c.3,4.61.05,8.19.06,12.02-2.81,0-5.73-.1-8.88.18l-.33,17.36c-4.1-.3-8.23-.1-12.34-.04-2.66.04-5.25-.35-8.45.02l.09,9.11c-2.64-.06-5.32.42-7.98.19-1.59-15.85-.14-32.18-.76-48.81,5.97.03,11.46-.35,16.56.63Z"/>
              <path class="cls-48" d="M175.19,399.98c0-.24-.02-.43-.23-.56l.06-11.79,23.3-.13-.3,29.25h-14.03s.05-17.07.05-17.07c-3.16-.54-6.24-.66-8.84.31Z"/>
              <path class="cls-40" d="M83.35,426.27c2.65.23,5.33-.25,7.98-.19,2.81.06,5.68.55,8.48-.07,4.1.53,8.25.04,12.37.08l8.56.09c.63,0,.37-.99.53-1.41,0,3.33.6,6.85.1,10.76l-30.17.02c-2.56,0-5.48.41-7.91.02-2.18-3.29.35-6.67.08-9.3Z"/>
              <path class="cls-102" d="M214.81,417.03c-2.75-.21-5.53-.09-8.29.04l.28-39.18c2.64.07,5.7-1.46,8.86-.14-.72,13.58-.91,26.69-.85,39.28Z"/>
              <path class="cls-68" d="M121.24,399.46v25.32c-.14.42.11,1.42-.51,1.41l-8.56-.09c.09-3.03.22-6.09-.14-9.1l.33-17.36c3.15-.28,6.07-.18,8.88-.18Z"/>
              <path class="cls-54" d="M198.38,426.21l-.19,9.33-22.84.08c-.79-3.42.07-6.53.05-9.47l22.98.07Z"/>
              <path class="cls-91" d="M111.36,377.88c-.98,1.04.63,6.3.08,9.27-3.74-.11-7.58.49-11.9.06-.66-3.07-.06-6.19-.39-9.13,3.84-1.39,8.34-.09,12.21-.2Z"/>
              <path class="cls-26" d="M214.81,417.03l.03,7.91c-2.44,2.14-6.07-.32-8.48.59l.16-8.47c2.76-.12,5.54-.25,8.29-.04Z"/>
              <path class="cls-56" d="M223.01,434.26c-2.77.19-4.52.2-6.46.03-.4-3.12-.66-5.28-.08-7.79l6.86-.14-.33,7.89Z"/>
              <path class="cls-69" d="M74.49,368.83c-.6-.06-.68.73-1.23.74.11-2.8-.82-5.84-.05-8.44.57-1.92,0-6.74-.8-7.67,1.91-.19-.77-4.56,1.98-5.37.21,8.43-.92,12.7.11,20.74Z"/>
              <path class="cls-43" d="M216.26,377.25c-.28-4.72-.81-9.63.25-15,.35,4.73.32,9.34-.25,15Z"/>
              <path class="cls-59" d="M112.03,416.99c.36,3.01.23,6.07.14,9.1-4.11-.04-8.27.44-12.37-.08-.55-2.98-.2-6.04-.11-9.06,4.1-.06,8.23-.26,12.34.04Z"/>
              <path class="cls-47" d="M99.7,416.95c-.09,3.02-.44,6.08.11,9.06-2.8.61-5.67.13-8.48.07l-.09-9.11c3.21-.38,5.79.02,8.45-.02Z"/>
            </g>
          </g>
          <path class="cls-100" d="M54.86,363.8c.04,2.13-.17,4.41.18,6.51l-10.13.26c-.42,2.44-.07,4.66-.32,6.8-.44-.16-.75.25-1.37.66-.73-3.53-.37-9.78-.75-14.3l12.4.07Z"/>
          <g>
            <path class="cls-79" d="M184.3,352.41l-66.93.34-16.94.04c-1.16-.34-1.33-1.34-1.32-2.76l.35-56.39c.01-2.03-.1-3.66-.36-5.28.03-.46.51-.67.46-1.16.54.65.89,1.13,2.2,1.13h87.97s-.1,49.34-.1,49.34l-5.27.33-.07,14.42Z"/>
            <path class="cls-55" d="M158.78,344.29c-3.24-.4-6.01.84-8.84.3-3.75-.71-7.31.05-11.49-.11-.98-2.34-.88-4.92-.34-7.43l20.42-.03c.41,2.38.17,4.05.25,7.26Z"/>
            <path class="cls-82" d="M158.43,305.63l-16.22.34c-.18-3.18-.17-5.78.08-8.85l16.16-.03-.03,8.55Z"/>
          </g>
        </g>
      </g>
      <g>
        <path class="cls-58" d="M252.82,66.09c.02,2.52-.21,5.03.2,7.99,3.09.71,5.91.57,9.01.62.16-.88,0-1.4.59-1.3.08.52.79.63.79,1.17-1.59,41.46.52,83.48-1.1,124.91l-8.54.53c-.74,2.6.07,5.01-.17,7.19-.19,1.71-1.2,3.99-1.15,5.89l-9.39.29-.32,7.98c-.13,3.18-.37,6.38-.62,9.99l-9.3.23c-.18,3.32-.69,6.79,0,9.95l-.57.05c-2.29-.64-4.85.13-7.15-.04s-4.9-.25-8.16-.25l-.76,8.22c-.06.62.73,1.01.55,1.5l-142.96.17c-.74-3.37.45-6.65-.67-9.64l125.32-.55c2.42-.01,5.05.69,8.06.1.49-3.32-.46-6.69-.14-9.74l1.06-10.05c3.09-.12,6.16.03,9.23.15-.19,3.15-.38,6.21-.01,9.52,2.33-.15,5.96.92,7.57-.56,1.82-2.56.79-6.27.87-8.96l.69-21.93c.54-.06.45-.16.26-.56,3.02.56,6,.05,9.95.1.26-2.87.31-5.42.28-7.99,2.83.38,5.74.16,9.26-.17l.25-46.17c1.49-1.73,1.04-3.83,1.03-6.27l-.26-71.85c2.61-.47,4.43-.41,6.33-.52Z"/>
        <path class="cls-8" d="M90.65,9.74c1,1.12,2.74.98,4.55.88,9.93-.51,19.45-1.27,29.38-.63-.14,6.77,2.85,12.21,1.46,18.16-.94,4.03-1.13,17.36-1.39,22.77l-.38,7.95c-.37,7.74-5.5,23.53-12.75,29.93-6.36,5.61-15.75,3.84-21.07,3.68l-15.35-.47c-2.6-.08-11.08-.32-11.09-2.26l-.05-15.06c-.03-7.51-.17-14.6.51-22.17.32-3.59-.03-7.84-.72-11.27-2.04-10.06,7.56-8.3,9.68-12.87,1.12-2.42,1.9-4.63,2.5-7.06,2.41-.12,3.98.09,5.83-.33.42-3.47.22-6.4.28-9.34,1.13-.9,2.35-.66,3.84-.79s3.27-1.39,4.75-1.13Z"/>
        <path class="cls-98" d="M242.07,38.93c.59-.07.65.8,1.2.87-1.69,1.33-.74,5.06-.73,8.42,2.7.04,8.92.96,9.71-.79,0,.37.05,1.01.29,1.28.21.23,1.11-.35,1.13.46-.21.07-.98.2-.98.46l.14,16.47c-1.9.11-3.72.05-6.33.52l.26,71.85c0,2.44.46,4.54-1.03,6.27-1.72-.38-3.79,1-5.17-.57-.62-1.93-.33-3.69-.05-6.48l-16.11-.45c.53-.21.99-.22,1.05-.62.08-.52.02-.99.04-1.56.68-20.67.18-41.03-.42-61.09-.43-14.2,1.34-28.88.13-43.29,2.22-.07,4.53.56,7.11.34l.16,8.69c3.36-.4,7.02,1.29,9.63-.77Z"/>
        <path class="cls-44" d="M206.34,11.1c-.04.41-.43,1.23.4,1.3-.15,2.72-.21,5.44.05,8.54l8.98.06.19-8.74,4.53-.32c1.99-.14,2.94.8,3.39,1.9,1.93,4.74-4.98,4.99-.7,7.42-2.25-.12-4.37-.08-7,.33l.09,8.83c3.16.74,6.04.33,8.91.25,1.22,14.41-.56,29.09-.13,43.29l-8.37.11-.15,53.41c-3.69.15-6.38.28-9.11-.12-.95-8.01-.59-16.09-.6-24.8l-.09-81.52h-8.71c-.32-3.35-1.07-7.07.47-9.87l7.84-.08Z"/>
        <path class="cls-5" d="M264.05,207.72c0-.78-.62-.43-1.53-.64,1.01-2.72-.3-5.37-.21-7.59,1.62-41.44-.49-83.45,1.1-124.91,2.87-.05,5.81-.28,9.1.18l-.09,132.75c-3.17.42-5.79.01-8.37.21Z"/>
        <path class="cls-23" d="M262.64,209.15l-.23,12.67-9.85.17-.38,9.74-10-.06c-.63,3.1-.16,6.02-.51,9.74-3.01.44-6.01-.09-8.87.15-.69-3.17-.19-6.63,0-9.95l9.3-.23c.25-3.61.49-6.81.62-9.99,2.87.25,6.89.76,9.49-.41,1.16-2.59.28-5.7.23-7.85-.05-1.9.96-4.18,1.15-5.89l8.54.28c-.1,1.05-.15,1.72.5,1.66Z"/>
        <path class="cls-52" d="M253.66,49.16c2.22-.28,5.73-.15,8.81-.08l.14,24.32c-.59-.1-.43.42-.59,1.3-3.1-.05-5.92.09-9.01-.62-.41-2.96-.18-5.47-.2-7.99l-.14-16.47c0-.27.77-.39.98-.46Z"/>
        <path class="cls-57" d="M242.07,38.93c-2.61,2.06-6.26.37-9.63.77l-.16-8.69c-2.58.22-4.89-.4-7.11-.34-.24-2.86.32-5.79-.1-8.65,1.93-.21,4.2-.17,6.78-.1.46,2.89.21,5.59.33,8.94l9.76.17.12,7.89Z"/>
        <path class="cls-11" d="M206.34,11.1l-7.84.08c-2.15.73-.39-8.32-1.34-9.92.34-.1.27-.84.81-1.22l8.45-.04c.24,3.91.29,7.52-.08,11.1Z"/>
        <path class="cls-13" d="M215.96,12.26l-.19,8.74-8.98-.06c-.26-3.1-.2-5.82-.05-8.54-1.82-1.4,10.97-1.55,9.22-.14Z"/>
        <path class="cls-104" d="M223.18,21.26c.65.03,1.57.02,1.89.76.42,2.86-.14,5.8.1,8.65-2.87.09-5.75.49-8.91-.25l-.09-8.83c2.63-.41,4.75-.45,7-.33Z"/>
        <path class="cls-32" d="M252.25,47.42c-.79,1.75-7,.83-9.71.79,0-3.36-.96-7.09.73-8.42l8.81.11.17,7.52Z"/>
        <path class="cls-33" d="M262.31,199.49c-.09,2.22,1.22,4.87.21,7.59.91.21,1.52-.14,1.53.64-.92.07-1.54-1.13-1.3.42.04.26.07.62-.11,1-.66.06-.6-.61-.5-1.66l-8.54-.28c.25-2.18-.57-4.59.17-7.19l8.54-.53Z"/>
        <path class="cls-8" d="M59.45,31.76c.3,1.87-.28,3.38-1.59,4.6-3.3,3.07-8.75,2.32-12.79,1.95l6.02-3.1c.47-1.6,6.09-3.96,8.36-3.45Z"/>
        <path class="cls-98" d="M197.82,137.4c.2,2.29.28,4.77-.07,7.47-2.51.89-4.72.15-7.61.33-.84,2.62-1.07,5.92.53,8.05-27.54,1.56-55.19,1.18-83.07.35-2.84-.08-4.82-1.52-7.18-1.57l-35.83-.68c-.37.07-.52-.21-.48-.55.35-1.76,0-3.59.55-5.3l8.68-.28c.54-2.85-.51-5.29.72-7.84l123.76.02Z"/>
        <path class="cls-35" d="M225.05,73.96c.61,20.06,1.11,40.41.42,61.09-.02.58.04,1.04-.04,1.56-.06.4-.52.4-1.05.62l-17.54-.14c-.36-3.17.23-6.75.58-9.72,2.72.4,5.42.27,9.11.12l.15-53.41,8.37-.11Z"/>
        <path class="cls-83" d="M206.85,137.09l17.54.14,16.11.45c-.28,2.79-.57,4.55.05,6.48-2.32,1.4-5.25.61-8.06,1.46-.85,1.94-.3,4.07-.32,5.88l-14.88.05c-8.04.03-15.81-.04-23.37,1.16-1.03.16-2.2.47-3.24.53-1.6-2.12-1.37-5.43-.53-8.05,2.9-.19,5.1.56,7.61-.33.35-2.7.27-5.18.07-7.47,2.94,0,6.14-.33,9.03-.31Z"/>
        <path class="cls-36" d="M64.11,150.8c-.05.34.1.62.48.55-.72,2.62-.5,5.47-.52,8.5l-.19,31.06-11.71.09c-.2-2.14-.65-4.32-.55-6.59.47-11.04-.73-22.2.58-33.11,4.33-.54,6.9.03,11.91-.5Z"/>
        <path class="cls-101" d="M51.62,184.41c-.1,2.27.35,4.45.55,6.59.18,1.95-1.03,4.64-.28,6.9.15.37.63.52.4.87-.63,1.42-9.16-.08-8.45,1.17-2.87-.86-6.15-.44-9.13.09-1.08-5.06-.36-10.33-.37-15.48l17.27-.14Z"/>
        <g>
          <path class="cls-28" d="M197.16,1.26c.95,1.6-.8,10.65,1.34,9.92-1.54,2.8-.79,6.52-.47,9.86h8.71s.09,81.53.09,81.53c0,8.71-.35,16.79.6,24.8-.35,2.97-.94,6.56-.58,9.72-2.88-.02-6.09.31-9.03.31l-123.76-.02c-1.24,2.56-.18,4.99-.72,7.84l-8.68.28c-4.17.13-8.33-.38-12.84,0-.17,1.99-.22,4.35.38,5.81-1.31,10.91-.11,22.06-.58,33.11l-17.27.14-.11-56.72c2.85.23,5.69.26,9.24.14.34-2.78.16-5.31.14-8.25-3.13-.48-6.09-.3-9.32,0l-.07,8.11c-3.1-.25-6.23.1-9.34.03l-.2-32.99-.1-22.76c0-1.34-.07-2.26.92-3.21,1.73-1.68,6.04-.64,8.62-1.46.6-5.04.18-9.81.42-14.8.08-1.72,1.43-2.57,2.05-3.36.99-1.25,3.12.82,7.79-1.27l.67-9.7c4.04.37,9.48,1.12,12.79-1.95,1.31-1.22,1.9-2.74,1.59-4.6.9.2,2.62-.24,3.57-.3,3.57-.24.53-5.58,3.03-8.17,2.24-2.31,7.46,1.18,7.95-2.58.34-2.58-.33-6.81,2.4-8.61,1.44-.95,4.31.64,5.67-.45-.05,2.94.14,5.87-.28,9.34-1.85.42-3.41.21-5.83.33-.6,2.43-1.38,4.64-2.5,7.06-2.12,4.57-11.72,2.81-9.68,12.87.7,3.43,1.04,7.68.72,11.27-.68,7.57-.54,14.66-.51,22.17l.05,15.06c0,1.94,8.49,2.18,11.09,2.26l15.35.47c5.32.16,14.71,1.93,21.07-3.68,7.25-6.4,12.38-22.19,12.75-29.93l.38-7.95c.26-5.41.45-18.74,1.39-22.77,1.38-5.95-1.61-11.39-1.46-18.16-9.93-.64-19.45.12-29.38.63-1.81.09-3.55.23-4.55-.88l.41-1.92c.5-2.32-.22-4.65,1.06-7.48l49.78-.03,29.87.14c6.11.03,18.67-.31,23.21.34.71.1,1.43,1.21,2.19.47Z"/>
          <path class="cls-97" d="M43.01,114.74l-8.5.34c-.46-3.63-.3-7.04-.11-10.8,2.92-.21,5.33-.05,8.47.13.35,3.33.17,6.39.14,10.32Z"/>
        </g>
        <path class="cls-51" d="M34.23,127.83l.07-8.11c3.22-.3,6.19-.49,9.32,0,.02,2.94.19,5.47-.14,8.25-3.54.13-6.39.09-9.24-.14Z"/>
        <path class="cls-42" d="M64.65,145.5c-.56,1.72-.2,3.54-.55,5.3-5.01.54-7.57-.04-11.91.5-.6-1.45-.55-3.82-.38-5.81,4.51-.38,8.66.13,12.84,0Z"/>
        <path class="cls-9" d="M64.08,213.12c2.34-.11,4.74.22,7.46.04.74,4.72-1.55,7.99,2.15,9.02l.05,8.78c2.82,1.54,5.65-.5,7.87-.38,38.58,2.18,77.92-.36,116.82,1.21-.41,3.04-.38,6.16-.02,9.21l-125.32.55c-2.53.01-5.22-.13-8-.23l-.35-9.8-9.82-.05c-.22-3.84.35-6.95-.78-9.92-.91-2.38.32-5.51.04-7.95l9.91-.48Z"/>
        <path class="cls-60" d="M232.16,151.5c-.03,2.89-.31,5.81.22,8.84.99,5.66.31,11.35.69,17.24l2.97-.2.17,13.69c.03,2.57-.03,5.12-.28,7.99-3.95-.05-6.93.46-9.95-.1-1.49-5.95-.9-12.47-.93-19.03l-.12-20.56h-17.69c-.7-1.48-.1-3-.33-4.94-2.46-1.65-11.98.44-13-1.71,7.57-1.2,15.34-1.13,23.37-1.16l14.88-.05Z"/>
        <path class="cls-50" d="M245.72,144.72l-.25,46.17c-3.52.33-6.42.55-9.26.17l-.17-13.69.28-25.98c-1.78-.31-2.93.1-4.16.1.02-1.82-.52-3.95.32-5.88,2.82-.85,5.75-.06,8.06-1.46,1.38,1.57,3.46.19,5.17.57Z"/>
        <path class="cls-41" d="M225.72,199.52l-.69,21.93c-2.78-.54-5.66.11-8.42,0-3.07-.12-6.14-.27-9.23-.15.44-4.15-1.22-8.58-.38-13.52l9.48-.07c.33-2.99.1-5.27.13-8.41,3.25-.13,6.32-.52,9.11.23Z"/>
        <path class="cls-30" d="M252.44,213.1c.05,2.15.93,5.26-.23,7.85-2.6,1.17-6.62.66-9.49.41l.32-7.98,9.39-.29Z"/>
        <path class="cls-62" d="M206.32,231.36c-.32,3.05.63,6.42.14,9.74-3.01.59-5.63-.11-8.06-.1-.36-3.04-.4-6.17.02-9.21,2.47.1,5.31-.82,7.9-.44Z"/>
        <path class="cls-65" d="M225.04,221.45c-.08,2.69.95,6.4-.87,8.96-1.61,1.48-5.24.41-7.57.56-.36-3.31-.18-6.37.01-9.52,2.77.11,5.64-.54,8.42,0Z"/>
        <path class="cls-33" d="M225.08,241.55c-1.95-.7-.37,7.32-1.58,9.35-2.49.51-4.68.13-6.79.13.18-.49-.61-.88-.55-1.5l.76-8.22c3.26,0,5.76.07,8.16.25Z"/>
        <path class="cls-21" d="M63.37,198.73c1.48,4.53.6,9.62.7,14.39l-9.91.48c-3.19.15-6.53-.58-9.75.07l-.65-6.43.08-7.3c-.71-1.26,7.81.25,8.45-1.17,3.68-.25,7.42-.23,11.09-.04Z"/>
        <path class="cls-53" d="M54.17,213.6c.28,2.44-.95,5.57-.04,7.95l-9.28.26c-1.14-2.8-.17-5.59-.43-8.14,3.23-.65,6.56.08,9.75-.07Z"/>
        <path class="cls-110" d="M43.84,199.94l-.08,7.3c-2.86.22-5.84.28-9.17.07-.7-2.59-.08-5.22.12-7.28,2.98-.53,6.26-.95,9.13-.09Z"/>
        <g>
          <path class="cls-86" d="M34.23,127.83l.11,56.72c.01,5.16-.72,10.42.37,15.48-.2,2.06-.82,4.69-.12,7.28,3.34.21,6.31.15,9.17-.07l.65,6.43c.26,2.55-.71,5.35.43,8.14l9.28-.26c1.13,2.97.56,6.09.78,9.92l9.82.05.35,9.8c2.79.09,5.48.24,8,.23,1.11,2.99-.07,6.27.67,9.64l142.96-.17c2.12,0,4.3.38,6.79-.13,1.21-2.03-.37-10.05,1.58-9.35,2.3.17,4.87-.59,7.15.04l-.26,9.43-7.54.18-.22,9.61-17.4.1v9.36s16.7.02,16.7.02l.17,9.05,7.89.23.13,7.51c.37,1.87-7.91.8-8.72.67-.22-2.23-.13-4.59.2-7.41-1.59-1.25-3.53-.41-5.18-.51-3.65-.22-7.4-.35-11.27-.11l-.42,7.36c-.03.48.2,1.16-.53,1.22-2.65-.7-5.53.43-8.08-.58l-.17-8.15c-3.11.3-5.58-.23-8.2-.2l.11-8.57c-8.41-.54-4.41-.83-4.46-1.92l-.33-7.92-53.89.16c-4.58.01-9.15-.48-14.07-.02-.2,3.47-.32,6.56-.04,9.51l-.57.11c-2.01.38-4.13-.27-6.55.02l-.15,7.38c-.01.52,1.12.74.75,1.29-3.38-.02-6.7.32-10.49.07-.28,3.2-.3,5.39-.06,7.72.05.49-.44.7-.46,1.16-2.71-.3-5.57-.52-8.42.25v31.59c-.36.12-.67-.04-.68-.65-.13-8.61-.09-16.75-.04-25.13,0-.29-1.39-.7-.66-1.15.88-.54.49-4.07-.54-5.12.45.23,1.45-.06,1.88-.45.09-2.5.2-5,0-7.98l-24.11-.38c-.67-.23-.29-1.29-1.07-1.34.19-2.52-.35-5.08.23-7.85,5.97.12,11.28.22,16.56-.06,2.75-.15,5.54.14,8.4-.24l.1-8.67c-3.08-.84-5.9.22-8.46-.05-5.39-.58-10.85-.06-16.62-.36l-.24-9.55-4.48-.2c-.61-2.91-.29-5.73-.22-9.13-1.64-.74-3.59.05-5.63-.55l-.44-9.48-9.73.04-.45-9.75-9.99-.27-.18-14.11-10.1-.29.66-79.62c3.11.07,6.24-.28,9.34-.03Z"/>
          <path class="cls-76" d="M99.43,278.75c-2.68,1.07-5.32.41-8.17.45-.2-2.92-.2-5.37-.05-8.58,2.76-.26,5.36-.3,8.16-.01l.06,8.14Z"/>
          <path class="cls-66" d="M206.38,278.82c-2.79,1.03-5.43.19-8.5.43.07-3.06,0-5.56.42-8.52l8.08-.13v8.21Z"/>
        </g>
        <path class="cls-38" d="M63.88,190.91c-.02,2.61.71,5.45-.5,7.82-3.67-.2-7.41-.21-11.09.04.23-.35-.25-.5-.4-.87-.74-2.26.47-4.95.28-6.9l11.71-.09Z"/>
        <path class="cls-106" d="M81.6,230.59c-2.22-.13-5.05,1.92-7.87.38l-.05-8.78c-.99-1.24,7.13-1.05,7.83-.67l.09,9.08Z"/>
        <path class="cls-7" d="M236.04,177.38l-2.97.2c-.39-5.89.29-11.58-.69-17.24-.53-3.03-.25-5.96-.22-8.84,1.23,0,2.38-.41,4.16-.1l-.28,25.98Z"/>
        <g>
          <path class="cls-93" d="M190.66,153.25c1.04-.06,2.21-.37,3.24-.53,1.02,2.15,10.54.06,13,1.71.23,1.94-.37,3.46.33,4.94h17.69s.12,20.56.12,20.56c.04,6.56-.56,13.08.93,19.03.19.4.28.5-.26.56-2.8-.75-5.86-.36-9.11-.23-.03,3.14.2,5.42-.13,8.41l-9.48.07c-.84,4.94.82,9.38.38,13.52l-1.06,10.05c-2.59-.38-5.43.54-7.9.44-38.9-1.57-78.24.98-116.82-1.21l-.09-9.08c-.7-.38-8.81-.57-7.83.67-3.7-1.03-1.42-4.3-2.15-9.02-2.72.18-5.11-.15-7.46-.04-.1-4.78.78-9.87-.7-14.39,1.21-2.38.49-5.21.5-7.82l.19-31.06c.02-3.03-.2-5.88.52-8.5l35.83.68c2.36.04,4.34,1.48,7.18,1.57,27.88.82,55.53,1.21,83.07-.35Z"/>
          <polygon class="cls-5" points="206.5 198.41 184.41 198.7 184.37 160.09 206.42 160.03 206.5 198.41"/>
          <path class="cls-23" d="M174.03,217.14l-52.11-.03c-.22-3.43-.21-6.33.06-9.74l52.16.03c.21,3.37.36,6.33-.11,9.74Z"/>
          <g>
            <polygon class="cls-23" points="115.3 198.69 91.19 198.82 91.1 160.13 115.46 160.16 115.3 198.69"/>
            <path class="cls-20" d="M100.78,179.5l-8.56.07c-.34-3.35-.44-6.39.05-9.53h8.34c.36,3.08.14,5.97.17,9.46Z"/>
          </g>
        </g>
      </g>
    </g>
  </g>
</svg>