<?xml version="1.0" encoding="UTF-8"?>
<svg id="_レイヤー_2" data-name="レイヤー 2" xmlns="http://www.w3.org/2000/svg" xmlns:xlink="http://www.w3.org/1999/xlink" viewBox="0 0 315.97 512">
  <defs>
    <style>
      .cls-1 {
        fill: #8b7c7b;
      }

      .cls-2 {
        fill: #ac9a94;
      }

      .cls-3 {
        fill: #d6dded;
      }

      .cls-4 {
        fill: #f7c3b8;
      }

      .cls-5 {
        fill: #837482;
      }

      .cls-6 {
        fill: #91858d;
      }

      .cls-7 {
        fill: #e4696f;
      }

      .cls-8 {
        fill: #a79b9e;
      }

      .cls-9 {
        fill: #867785;
      }

      .cls-10 {
        fill: #7a6b7c;
      }

      .cls-11 {
        fill: #cdd5e7;
      }

      .cls-12 {
        fill: #998783;
      }

      .cls-13 {
        fill: #c5cbdf;
      }

      .cls-14 {
        fill: #706170;
      }

      .cls-15 {
        fill: #f1c070;
      }

      .cls-16 {
        fill: #ea5f68;
      }

      .cls-17 {
        fill: #a79792;
      }

      .cls-18 {
        fill: #5a5166;
      }

      .cls-19 {
        fill: #62576c;
      }

      .cls-20 {
        fill: #8c5f6f;
      }

      .cls-21 {
        fill: #f4aea3;
      }

      .cls-22 {
        fill: #988a90;
      }

      .cls-23 {
        fill: #a99993;
      }

      .cls-24 {
        fill: #8f848b;
      }

      .cls-25 {
        fill: #998985;
      }

      .cls-26 {
        fill: #796a76;
      }

      .cls-27 {
        fill: #65586b;
      }

      .cls-28 {
        fill: #dae1ef;
      }

      .cls-29 {
        fill: #e5e6ef;
      }

      .cls-30 {
        fill: #eaf0f8;
      }

      .cls-31 {
        fill: #7f717f;
      }

      .cls-32 {
        fill: #ca5662;
      }

      .cls-33 {
        fill: #7c6c78;
      }

      .cls-34 {
        fill: #a9a5ab;
      }

      .cls-35 {
        fill: #837683;
      }

      .cls-36 {
        fill: #a5989b;
      }

      .cls-37 {
        fill: #c27d66;
      }

      .cls-38 {
        fill: #c3cae0;
      }

      .cls-39 {
        fill: #fff;
      }

      .cls-40 {
        fill: #f9d8ca;
      }

      .cls-41 {
        fill: #a79490;
      }

      .cls-42 {
        fill: #f8cfc3;
      }

      .cls-43 {
        fill: #7c7e97;
      }

      .cls-44 {
        fill: #f8c8b9;
      }

      .cls-45 {
        fill: #a6a5ae;
      }

      .cls-46 {
        fill: #fad7c8;
      }

      .cls-47 {
        fill: #897a7e;
      }

      .cls-48 {
        fill: #6a5d72;
      }

      .cls-49 {
        fill: #f4e38e;
      }

      .cls-50 {
        fill: #a3a2ab;
      }

      .cls-51 {
        fill: #b3a9a3;
      }

      .cls-52 {
        fill: #e1d5da;
      }

      .cls-53 {
        fill: #ced5e8;
      }

      .cls-54 {
        fill: #6d5f72;
      }

      .cls-55 {
        fill: #e1d3d6;
      }

      .cls-56 {
        fill: #c5cbe1;
      }

      .cls-57 {
        fill: #d0515e;
      }

      .cls-58 {
        fill: #dee5f2;
      }

      .cls-59 {
        fill: #6c5f73;
      }

      .cls-60 {
        fill: #a08f8a;
      }

      .cls-61 {
        fill: #685b6f;
      }

      .cls-62 {
        fill: #dfe7f3;
      }

      .cls-63 {
        fill: #ab9ea1;
      }

      .cls-64 {
        fill: #bc7472;
      }

      .cls-65 {
        fill: #cb9441;
      }

      .cls-66 {
        fill: #f8c9bc;
      }

      .cls-67 {
        fill: #9f9196;
      }

      .cls-68 {
        fill: #c8cee3;
      }

      .cls-69 {
        fill: #978a91;
      }

      .cls-70 {
        fill: #9f9399;
      }

      .cls-71 {
        fill: #f7cfc2;
      }

      .cls-72 {
        fill: #e9d7d8;
      }

      .cls-73 {
        fill: #f8cabd;
      }

      .cls-74 {
        fill: #885e6e;
      }

      .cls-75 {
        fill: #fceddf;
      }

      .cls-76 {
        fill: #544d63;
      }

      .cls-77 {
        fill: #47435c;
      }

      .cls-78 {
        fill: #f0d265;
      }

      .cls-79 {
        fill: #f9dfcf;
      }

      .cls-80 {
        fill: #f6bbb3;
      }

      .cls-81 {
        fill: #e1e6f3;
      }

      .cls-82 {
        fill: #988e94;
      }

      .cls-83 {
        fill: #796b7d;
      }

      .cls-84 {
        fill: #7d6e76;
      }

      .cls-85 {
        fill: #8b7e89;
      }

      .cls-86 {
        fill: #81717f;
      }

      .cls-87 {
        fill: #a38b7e;
      }

      .cls-88 {
        fill: #5f5567;
      }

      .cls-89 {
        fill: #7f727e;
      }

      .cls-90 {
        fill: #8e808d;
      }

      .cls-91 {
        fill: #f3d274;
      }

      .cls-92 {
        fill: #f3c2bf;
      }

      .cls-93 {
        fill: #ccd3e6;
      }

      .cls-94 {
        fill: #8b7c82;
      }

      .cls-95 {
        fill: #cf8f6a;
      }

      .cls-96 {
        fill: #8a7170;
      }

      .cls-97 {
        fill: #f9dac9;
      }

      .cls-98 {
        fill: #eb626a;
      }

      .cls-99 {
        fill: #f9d5c9;
      }

      .cls-100 {
        fill: #6e6170;
      }

      .cls-101 {
        fill: #978887;
      }

      .cls-102 {
        fill: #484762;
      }

      .cls-103 {
        fill: #fffefe;
      }

      .cls-104 {
        fill: #8b7b7c;
      }

      .cls-105 {
        fill: #dc9e66;
      }

      .cls-106 {
        fill: #655e75;
      }

      .cls-107 {
        fill: #46425b;
      }

      .cls-108 {
        fill: #fbede1;
      }

      .cls-109 {
        fill: #d85363;
      }

      .cls-110 {
        fill: url(#_名称未設定グラデーション_10);
      }

      .cls-111 {
        fill: #8f808a;
      }

      .cls-112 {
        fill: #807180;
      }

      .cls-113 {
        fill: #eb6469;
      }

      .cls-114 {
        fill: #fffffe;
      }

      .cls-115 {
        fill: #868695;
      }

      .cls-116 {
        fill: #9ea0a8;
      }

      .cls-117 {
        fill: #f2b2a7;
      }

      .cls-118 {
        fill: #fffefd;
      }

      .cls-119 {
        fill: #b8aeac;
      }

      .cls-120 {
        fill: #f7c0b0;
      }

      .cls-121 {
        fill: #928287;
      }

      .cls-122 {
        fill: #b67076;
      }

      .cls-123 {
        fill: #90807e;
      }

      .cls-124 {
        fill: #9794a5;
      }

      .cls-125 {
        fill: #9b8f96;
      }

      .cls-126 {
        fill: #eef1f9;
      }

      .cls-127 {
        fill: #9a9fb8;
      }

      .cls-128 {
        fill: #fbede2;
      }

      .cls-129 {
        fill: #fcfcfc;
      }

      .cls-130 {
        fill: #60566c;
      }

      .cls-131 {
        fill: #695d70;
      }

      .cls-132 {
        fill: #fbfbf8;
      }

      .cls-133 {
        fill: #918287;
      }

      .cls-134 {
        fill: #fad8d1;
      }

      .cls-135 {
        fill: #b4b2b8;
      }

      .cls-136 {
        fill: #d2daea;
      }

      .cls-137 {
        fill: #e9eff7;
      }

      .cls-138 {
        fill: #7b6e79;
      }

      .cls-139 {
        fill: #8d7f86;
      }

      .cls-140 {
        fill: #b1b1b8;
      }

      .cls-141 {
        fill: #f7bfb2;
      }

      .cls-142 {
        fill: #7c6d7f;
      }

      .cls-143 {
        fill: #baafae;
      }

      .cls-144 {
        fill: #585772;
      }

      .cls-145 {
        fill: #756373;
      }

      .cls-146 {
        fill: url(#_名称未設定グラデーション_9);
      }

      .cls-147 {
        fill: #85787b;
      }

      .cls-148 {
        fill: #958685;
      }

      .cls-149 {
        fill: #756671;
      }

      .cls-150 {
        fill: #f1d7d0;
      }

      .cls-151 {
        fill: #e86a6d;
      }

      .cls-152 {
        fill: #7c7d96;
      }

      .cls-153 {
        fill: #4d4b65;
      }

      .cls-154 {
        fill: #8b8a95;
      }

      .cls-155 {
        fill: #9e8e89;
      }

      .cls-156 {
        fill: #896c5e;
      }

      .cls-157 {
        fill: #776777;
      }

      .cls-158 {
        fill: #8b7c8a;
      }

      .cls-159 {
        fill: #f5d07e;
      }

      .cls-160 {
        fill: #796974;
      }

      .cls-161 {
        fill: #736472;
      }

      .cls-162 {
        fill: #f9d4cb;
      }

      .cls-163 {
        fill: #60546f;
      }

      .cls-164 {
        fill: #f5e689;
      }
    </style>
    <linearGradient id="_名称未設定グラデーション_9" data-name="名称未設定グラデーション 9" x1="275.46" y1="56.56" x2="231.67" y2="93.34" gradientUnits="userSpaceOnUse">
      <stop offset="0" stop-color="#e4ebf5"/>
      <stop offset="1" stop-color="#c6cce2"/>
    </linearGradient>
    <linearGradient id="_名称未設定グラデーション_10" data-name="名称未設定グラデーション 10" x1="144.93" y1="313.41" x2="88.9" y2="416.66" gradientUnits="userSpaceOnUse">
      <stop offset="0" stop-color="#aea2a3"/>
      <stop offset="1" stop-color="#887a83"/>
    </linearGradient>
  </defs>
  <g id="_レイヤー_1-2" data-name="レイヤー 1">
    <g id="_生成オブジェクト" data-name="生成オブジェクト">
      <path class="cls-106" d="M201.23,316.37c-.57-.22-7.25-4.87-6.97-1.9-.37-.37-1.13-.22-1.79-.7-.18-.13.61-.5.59-.67-.02-.2-.5-.44-.63-.44,2.76-1.22,5.58-2.41,6.69-5.38,1.65-.79,2.31,8.46,2.11,9.1Z"/>
      <g>
        <g>
          <path class="cls-137" d="M194.98,15.04c1.42.96,1.61,1.97,1.96,3.67.31,1.52,3.33.63,4.29.73.84,3.01,5.03.75,5.37,2.47.32,1.57.05,2.69.1,3.76-.14.53-1.92.37-2.13.88-1.62,3.87-.74,11.77-1.48,16.01-2.61-1.38-5.08-2.88-7.69-2.3-.2,1.41,1.28,1.73,2.06,2.09,1.57.73,2.35,2.88,3.87,3.21,1.73.37,1.5,1.08,2.3,2.61,1.93,3.7,5.95,6.7,6.85,11.01,1.45,7,2.73,3.85,2.58,13.68l-.46,30.39c-.02,1.46-.71,3.29.24,4.45-1.33,4.48-.59,9.62-1.24,14.27-.5.06-.69.69-1.13.81-1.02.3-2.14.66-3.52.46-.4-5.7-1.12-11.03-2.19-16.3-.76-3.75-1.63-7.5-1.21-11.71.14-1.42-.52-2.66-.56-3.73-.07-1.91-.31-3.77-.92-5.58-1.18.72-1.93.58-2.51.14-1.02-.78.34-3.22-.9-4.26-.38-.32-1.65-.2-1.96-.71-.59-.98-.42-2.14-1.11-3-.76-.94-2.36-.32-3.68-1.22-1.02-.7-.15-2.32-1.73-2.28s-2.39-.65-3.36.78c-.13-.63.02-1.27-.06-1.89-.14-1.13.5-3.12-.31-4.12-1.38-.58-3.16-.64-4.48-.8.07-.67-.19-1.18-.67-1.35-.08-1.31.29-2.98-.62-4.15-.61-.79.12-3.17-.47-4.17-2.55-.92-5.77-.96-8.68-1.3-.55-1.83-.12-3.21-.32-5.43-2.18,1.23-3.56-1.12-4.8-1.31-7.86-1.2-18.65,4.92-19.61,8.09-.13.43.8.85.84,1.43-1.33.58-2.42,2.31-4.3,2.51-1.5.16-2.35-1.39-3.15-1.75.35-.1,1.16-.02,1.07-.39-1.24-5.12-9-7.35-13.96-9.2-1.32-.49-.33-2.97-.59-4.39-4.48-.4-9.81-.2-14.04.99-1.28,7.13-2.91-.11-5.71,6.39-2.36-.08-3.39,1.36-4.41,3.19-.48.52-2.08.3-2.46.84-.7,1.02-.49,2.49-.45,3.72.04,1.09-1.47,1.52-1.75,2.48-.84,2.91-.22,5.81-.81,8.57-.22,1.05-2.49.74-3.39.75-1.77,5.54-3.7,1.75-4.66,5.03-.39,1.33-1.69,3.06-2.9,3.65-2.13,1.03-2.47,3.42-3.05,5.09l-1.31,3.79c-.38,1.11-2.38.86-3.33,1.55l-1.03,9.99c-1.59-.03-4.69-.32-4.46,1.49-.32.27-.55,0-.81-.12-.48-.21-.11-.73-.31-1-.51-.69-.61-.56-1.05-.54.51-.44.57-1.26.59-2.19l.37-12.82c-.42-.77-2.25-.48-2.98-.5-1.63-.06-1.94-1.55-1.94-2.85l.08-26.63c0-2.35.5-4.56.76-6.91.73-.12,1.97-.04,2.65-.87.97-1.19.38-2.91.77-4.19.57-1.85.07-3.9.8-5.87l3.97-.69c-.26-2.22.18-3.95,1.47-5.83.54-.8-.34-2.27.51-2.83.5-.32,1.29-.52,2.15-.91,1.33-.61,1.09-2.26,1.09-3.55.97-.61,1.72-.78,2.13-1.52-2.13-5.65,5.03-.9,4.85-5.66,1-.31,6.61,1.44,8.71-.21,1.97-1.55.23-3.87-.08-5.31.31-1.26,1.59-4.07,2.98-4.36,6.83-1.43-.25-1.44,8.22-3.26,1.62-.35,3.38.22,4.38-1.09.06.79.97.86,1.87.83l21.1-.65c1.91-.06,4.21-.04,5.67,1.22.98.84,1.62,3.56,1.03,4.53-1.24.35-3.19.28-3.96,1.45-.56.85-1.67,2.41-1.21,4.07.5,1.8,3.4,2.91,4.18,4.89,1.76,4.45-.68,9.1,1.7,13.75l2.26-15.66c.24-1.66.32-2.42,1.58-3.81,1.18-1.31-1.18-3.26,2.14-4.93-.77.39,2.3-4.81,2.07-5.28,6.65-.46,13.69-.42,20.79.14.93,1.12,0,2.43.79,3.6,5.11.03,9.59.38,14.29,1.11l.6,4.19c2.86-.63,5.32.79,7.81.62Z"/>
          <path class="cls-3" d="M194.98,15.04c-2.5.17-4.96-1.25-7.81-.62l-.6-4.19c-4.7-.73-9.18-1.08-14.29-1.11-.79-1.17.14-2.47-.79-3.6-7.1-.56-14.13-.6-20.79-.14.23.48-2.85,5.67-2.07,5.28-3.32,1.66-.96,3.62-2.14,4.93-1.25,1.39-1.34,2.15-1.58,3.81l-2.26,15.66c-2.38-4.65.06-9.3-1.7-13.75-.78-1.97-3.68-3.09-4.18-4.89-.46-1.65.65-3.21,1.21-4.07.77-1.17,2.72-1.11,3.96-1.45.59-.97-.05-3.68-1.03-4.53-1.46-1.26-3.76-1.28-5.67-1.22l-21.1.65c-.9.03-1.81-.04-1.87-.83,1-1.3,2.85-1.09,3.85-1.98,2.89-2.61,11.54-2.17,15.52-2.75,3.36-.49,7-.11,10.43-.04l15.57.31c1.89.04,3.37,1.06,5.69.68,8.49-1.42,8.39,3.22,9,3.79.25.23,7.52,1.34,8.86.99,3.36-.88,4.48,2.6,6.15,3.41,2.6,1.25,5.35,2.1,6.41,4.94.81-.2,1.71-.05,1.24.73Z"/>
          <path class="cls-113" d="M81.8,13.78c-.83,1.42,5.3.14,5.69.92.05,2.01-.55,3.18-.8,4.78-2.87-.68-8.85,2.32-8.14,6.09.07.36-1.14.72-1.41.72.05,0-.29,1.87-.92,3.08-.31.6-1.98-.14-2.35.27-1.3,1.45-.94,5.55-2.4,6.4-1.07.62-.46,1.2-.84,2.22-.43,1.16-1.93-1.35-4.36,5.98-5.13-.93-2.47,6.39-4.45,10.42-1.27-.16-2.17-1.18-3.35-1.04-.35-4.21-.38-8.52.19-13.08l3.56-.34c.93-1.98-.12-4.54.88-6.26.79-1.35,1.7-1.61,1.24-3.33-.35-1.3.19-3.01.25-4.46,1.37-.25,2.3-.06,3.56-.63.09-1.61-.66-3.61.47-4.62,1.03-.92,3.06-.15,4.46-.86l.17-5.08c.03-.94,1.84-.69,2.47-.83,1.57-.35,4.31-.72,6.06-.35Z"/>
          <path class="cls-109" d="M88.29,15.36c-.44,1.12-.28,2.77-.23,3.86.18,4.76-6.98,0-4.85,5.66-.41.74-1.15.9-2.13,1.52,0,1.29.24,2.94-1.09,3.55-.86.4-1.65.59-2.15.91-.86.55.03,2.03-.51,2.83-1.29,1.88-1.73,3.61-1.47,5.83l-3.97.69c-.72,1.97-.23,4.02-.8,5.87-.77-.06-2.8-.4-2.93.71l-.49,4.36c-.27,2.35-.76,4.57-.76,6.91l-8.2.32c-.78-1.49-.1-3.16-.23-4.76,1.18-.13,2.08.88,3.35,1.04,1.97-4.03-.69-11.35,4.45-10.42,2.42-7.33,3.93-4.82,4.36-5.98.38-1.02-.23-1.59.84-2.22,1.46-.85,1.1-4.95,2.4-6.4.37-.41,2.04.33,2.35-.27.62-1.21.97-3.08.92-3.08.27,0,1.48-.36,1.41-.72-.7-3.77,5.27-6.76,8.14-6.09.25-1.61.85-2.77.8-4.78-.39-.78-6.51.5-5.69-.92,1.83.38,4.12-.3,6.06.22.3.12.18,1.11.42,1.36Z"/>
          <path class="cls-62" d="M96.68,13.69c.31,1.44,2.05,3.77.08,5.31-2.1,1.64-7.71-.1-8.71.21-.04-1.09-.21-2.74.23-3.86,1.07,1.09,6.99-1.95,8.39-1.66Z"/>
          <path class="cls-3" d="M201.21,15.59c.12,1.03.2,2.78.02,3.86-.96-.11-3.98.79-4.29-.73-.35-1.7-.54-2.72-1.96-3.67,2.12-.15,4.15-.24,6.22.55Z"/>
          <path class="cls-93" d="M140.2,61.16c-8.56-2.9-17.84-3.48-27.15-3.11l-.93,4.07c-1.34.48-3.45-.06-4.55,1.18-.95,1.07-.01,3.14-.48,4.68l-4.79.62c-.26,1.8.63,4.39-1.19,5.3-.97.48-2.33-.15-3.11.61-1.1,1.08-.3,3.78-.9,4.55-.9,1.15-3.91.25-4.53,1.04-.89,1.14-.55,3.64-1.05,4.4-1,1.53-1.06-1.11-4.77,3.19l-3.67.16c.58-1.67.92-4.06,3.05-5.09,1.22-.59,2.51-2.32,2.9-3.65.96-3.27,2.89.51,4.66-5.03.91,0,3.17.31,3.39-.75.59-2.77-.02-5.66.81-8.57.28-.96,1.78-1.39,1.75-2.48-.04-1.22-.25-2.7.45-3.72.37-.55,1.98-.33,2.46-.84,1.02-1.82,2.05-3.27,4.41-3.19,2.8-6.5,4.43.74,5.71-6.39,4.23-1.19,9.57-1.39,14.04-.99.26,1.43-.73,3.9.59,4.39,4.96,1.85,12.72,4.08,13.96,9.2.09.37-.72.29-1.07.39Z"/>
          <path class="cls-46" d="M216.57,127.67c-1.76-.25-3.46-.23-5.61.62-.64-2.05-.77-3.74-.49-5.5.44-.13.64-.75,1.13-.81,1.4.31,3.04.25,4.72.41l1.42-6.07c.38-1.62,4.91-.01,3.65-8.34l-8.54-.27c-.95-1.16-.26-2.98-.24-4.45l12.15-.15c.69,0,1.42.18,1.82.47.93.69.33,11.83.11,13.99-.25,2.5-2.56,3.2-3.96,4.82-1.86,2.16-3.46,4.94-6.16,5.27Z"/>
          <path class="cls-11" d="M180.69,63.08c-.8.13-2.81.68-3.64.44l-4.95-1.47c-.79-.23.12-3.43-.97-3.7-7.98-1.11-15.89.07-23.49,2.04-.04-.59-.97-1-.84-1.43.96-3.17,11.75-9.28,19.61-8.09,1.24.19,2.62,2.54,4.8,1.31.2,2.22-.23,3.6.32,5.43,2.91.33,6.14.38,8.68,1.3.59,1-.14,3.38.47,4.17Z"/>
          <path class="cls-13" d="M71.1,46.07c-.39,1.29.19,3-.77,4.19-.68.84-1.92.75-2.65.87l.49-4.36c.13-1.11,2.15-.77,2.93-.71Z"/>
        </g>
        <g>
          <path class="cls-146" d="M246.58,5.21l4.08.91c1.68.38,3.14,1.26,5.2,1.39l.33,4.16,4.46,1.09.35,3.94c1.72.36,3.23.19,4.8.9.8,2.55-.4,5.46.86,7.73,4.62,2.39.14,4.39,4.17,6.41,1.42,3.27.48,7.11,1.25,10.74.33,1.53,2.58.74,3.43,1.37.79,3.02.59,7,.89,10.15.6.4,1.27.06,1.17.67.07.23-.97.1-1.14.37l-.45,47.3c-.01,1.39-1,3.31.25,4.12-1.09,3.83-.97,9.77-1.53,13.46-.1.67-1.41.8-2.18.98l-1.86,14.56-3.64.92c.3,6.25-1.28,12.79-.45,19.04.48,3.59,2.18,5.96.43,9.04-1.52.23-3.04-.24-4.79-.97l-.92-14.8c-.04-.6.6-1.83-.43-1.88.03-.19,0-.39,0-.58-.03-.46-.29-.68-.75-.64-.88.08-1.86.05-2.97-.15l-.41-9.14-4.35-1-.15-10.37c-1.53-.64-3.13-.38-4.94-.86l-.84-11.87c-1.07-.37-2.11-.28-3.05-.83-.62-2.85.35-5.6-.45-8.2-.2-.65-2-.51-1.48-1.45.22-.4.1-1.42-.08-1.95l-4.14-1.18c-.53-8.39.75-16.33-.39-24.13-.46-3.15-.25-6.09-.44-9,.09-.32.2-.77-.35-.67.3-.27.03-.37-.06-.62-.13-.39-.29-.66-.73-.66-.51,0-.87-.47-1.36-.6-.26-1.01.29-1.99-.15-3.06s-1.6-.95-2.71-1.18c.58-5.8.67-11.73.33-17.88-.05-.92-1.74-.49-2.24-.75-.45-.23-1.18.21-1.66-.13-1.35-.95,1.89-5.13-2.63-8.15-.86-1.33-.01-4-.31-5.37l-3.46-1.47c-.1-1.3.54-3.5-.75-4.25s-3.9.36-5.02-1.31c-.79-1.18-.42-2.88-.5-4.35-.59-.48-1.42-.97-2.07-1.03-.48-1.86-.28-3.99.38-5.93l4.13-1.15c1.44-.4,2.87-1.84,4.45-1.81l19.04.34c1.96.04,4.45,1.45,5.79-.22Z"/>
          <path class="cls-56" d="M217.26,35.53c.03,1.46-.13,2.96.25,4.65l3.35.72c-.41,2.07.92,3.53,1.06,5.26l.49,6.04,4.13.36.41,5.61c1.58.17,2.88.23,4.15.5.2,2,.91,4.48.65,6.8-.38,3.38.52,6.76.5,10.61l-.44,85.63c0,1.2-.55,1.83-.95,2.1-.43.29-1.82.23-2.41.43l-1.06,6.65c-.17,1.09-2.11,1.41-1.74,3.18.17.82-.23,1.9-.82,2.42-.39.34-1.6.21-2.01.71-1.07,1.31-.39,3.31-1.37,4.95-.46.78-2.46.13-2.73.93l-1.88,5.62c-.26.78-1.98.48-2.23,1.16.02-.05-.99,6-2.99,4.8-1.18-.71-2.94-.39-4.11-1.38-1.19-1.07-.88-3.5-.78-4.86,1.12-16.11,1.11-32.87.01-49.01-.19-2.87.93-6.03.52-9.3,2.23-.04,9.26-.73,9.3-2.43,2.7-.33,4.3-3.11,6.16-5.27,1.39-1.62,3.71-2.32,3.96-4.82.21-2.16.82-13.3-.11-13.99-.4-.29-1.13-.48-1.82-.47l-12.15.15.46-30.39c.15-9.83-1.13-6.68-2.58-13.68-.89-4.31-4.92-7.32-6.85-11.01-.8-1.53-.57-2.24-2.3-2.61-1.53-.33-2.3-2.48-3.87-3.21-.78-.36-2.26-.68-2.06-2.09,2.61-.57,5.09.92,7.69,2.3.74-4.24-.14-12.14,1.48-16.01.21-.51,1.99-.36,2.13-.88.96.44,3.2-.06,3.53,1.08s-.45,2.34.12,3.18c.34.5,1.61.38,2.03,1.07.7,1.16.14,2.53.58,3.95,1.65.17,3.07-.05,4.29.58Z"/>
          <path class="cls-58" d="M267.02,164.47c1.75-3.08.05-5.45-.43-9.04-.83-6.25.75-12.79.45-19.04l3.64-.92,1.86-14.56c.77-.19,2.08-.31,2.18-.98.56-3.7.44-9.63,1.53-13.46.22-.13.29-.33.32-.6,1.37-.24,4.23,6.35,6.43,8.96,6.17,7.32.39,7.28,5.44,11.45l-.13,48.92c0,3.52-.3,6.93-.7,9.95-.31,2.33-1.81,3.15-2.66,4.82-1.04,2.06-1.42,3.62-3.48,5.53-.91.85.09,3.93-2.04,4.14-.45.04-1.28.78-1.67.67-2.97-.79.5-16.63-2.52-17.98-.97-.43-1.95-.41-2.48-1.21-.75-1.13.71-8.65-2.38-9.97-1.77-.76-4.61-4.53-3.38-6.68Z"/>
          <path class="cls-16" d="M212.79,13.99c.65.05,1.48.55,2.07,1.03.09,1.46-.29,3.17.5,4.35,1.12,1.67,3.68.53,5.02,1.31s.65,2.95.75,4.25l3.46,1.47c.3,1.37-.55,4.05.31,5.37,4.52,3.02,1.28,7.2,2.63,8.15.48.34,1.21-.1,1.66.13.21.32,0,.6-.09.84-.2.52-.73.14-1.29.33-1.24.43-.97,1.87-1.35,2.98-1.23-.39-1.96-1.09-3.27-1.2,1.11-.17-2.3-8.83-3.11-8.4l-2.82.93c-1.23-.63-2.65-.41-4.29-.58-.44-1.42.12-2.79-.58-3.95-.41-.69-1.68-.57-2.03-1.07-.58-.84.21-2.01-.12-3.18s-2.56-.64-3.53-1.08c-.05-1.07.22-2.19-.1-3.76-.35-1.72-4.53.54-5.37-2.47.18-1.08.09-2.83-.02-3.86-.38-3.3,8.27-1.87,11.58-1.6Z"/>
          <path class="cls-38" d="M277.58,54.67c.5-.22,3.48-.14,3.53.92.75,14.68.46,29.16.32,43.87-1.85.4-2.9.06-4.6.23.14,2.19,0,4.18-.27,6.16-.03.26-.1.47-.32.6-1.25-.81-.27-2.74-.25-4.12l.45-47.3c.17-.27,1.21-.14,1.14-.37Z"/>
          <path class="cls-136" d="M246.58,5.21c-1.34,1.67-3.83.25-5.79.22l-19.04-.34c.87-.74-.19-2.19.59-2.73.83-.57,1.85-1.57,2.99-1.23,1.57.46,2.55-.42,3.78-.61,2.47-.38,4.98.57,7.43-.08,1.73-.46,2.9.13,4.48.57,1.47.41,4.21-.37,4.96,1.66.29.77-.23,1.89.6,2.55Z"/>
          <path class="cls-81" d="M233.96,62.9c-.57-.13-1.35-.22-1.97.22.39,1.29.49,2.31-.25,2.34.26-2.32-.45-4.8-.65-6.8,1.11.23,2.28.15,2.71,1.18s-.1,2.05.15,3.06Z"/>
          <path class="cls-39" d="M261.31,148.7c-.87-.12-.51-1.26-.43-1.88,1.03.05.39,1.28.43,1.88Z"/>
          <path class="cls-39" d="M260.88,146.24c-.45.22-.98-.11-.75-.64.46-.04.72.18.75.64Z"/>
          <path class="cls-81" d="M236.05,64.17c-.47.12-.83-.18-.73-.66.44,0,.6.27.73.66Z"/>
          <path class="cls-81" d="M236.46,65.47c-.5.22-.67-.38-.35-.67.55-.1.44.35.35.67Z"/>
          <path class="cls-57" d="M229.19,40.04c.5.26,2.19-.17,2.24.75.34,6.14.25,12.07-.33,17.88-1.26-.26-2.56-.33-4.15-.5l-.41-5.61-4.13-.36-.49-6.04c-.14-1.73-1.47-3.19-1.06-5.26l-3.35-.72c-.38-1.69-.22-3.19-.25-4.65l2.82-.93c.81-.43,4.22,8.23,3.11,8.4,1.31.1,2.04.8,3.27,1.2.38-1.12.11-2.55,1.35-2.98.56-.19,1.1.18,1.29-.33.09-.24.3-.52.09-.84Z"/>
        </g>
        <g>
          <path class="cls-30" d="M75.74,14.12c-.63.14-2.44-.1-2.47.83l-.17,5.08c-1.41.71-3.43-.06-4.46.86-1.13,1.01-.39,3-.47,4.62-1.27.56-2.2.37-3.56.63-.06,1.45-.6,3.16-.25,4.46-1.32-.12-3.19-.61-4.47.59-1.2,1.14-.64,3.49-1.26,4.83-.71,1.56-3.12,1-4.36,1.82-.71.47-.11,1.9-1.03,1.86.78.03-4.33.39-4.72.87-.52.64-.38,1.84-.65,2.62-.56,1.6-3.27.71-3.99,1.48-1.36,2.19-.13,5.08-1,7.5-1.53.7-3.35,0-4.91,1.15.09,1.56.42,4.06-.7,4.46-2.38.19-4.06.88-4.17,3.29l-.67,14.19c-.03.7-1.57,1.14-1.41,1.87.27,1.19.71,2.06.05,3.11-.47.73-1.67.22-2.5.35-1.88.31.03,3.4-1.77,5.31-.33.35-1.63.19-2.49.48-.72,3.58-.11,7.55-.33,11.35l-1.45,25.64c-1.44.64-2.85.29-3.8,1.16l-1.34,9.92c-.86.32-2.65.02-3,.61s-.57,1.53-.59,2.45l-.63,30.27c-.12,5.58-.2,11.01-1.33,16.44-1.13.03-3.11-.43-3.46.51-1.08,2.93.04,5.99-.78,8.88-1.68.66-3.26.31-4.65.56-.79-2.35-.73-4.86-1.21-7.37-.82-4.26-.63-8.77-.21-13.25.24-2.54-1.1-11.53-1.16-14.38L.02,142.54c-.19-9.51.69-9.17,2.97-16.16,2.76-8.43-.44-11.5,4.46-13.99.78-3.6,1.11-15.94,2.65-19.02.68-1.36,2.14-1.85,1.97-3.94-.09-1.18,1.45-3.02,1.49-4.79l.2-9.28c.11-5.01-.73-9.77.33-14.56.72-3.25-.69-21.82,4.81-33.58.62-1.33,2.98-1.86,3.17-3.38.36-2.9.69-5.86,3.18-6.82.64-.25,1.22-.07,1.61-.71s.25-1.26.26-1.91c.86-.91,1.5-2.62,3.04-3.05,1.81-.51,1.93-3.97,7.15-5.61,6.33-7.22,16.38-3.58,22.73-4.64,3.31-.55,6.38.56,8.26,3.33,3.31,4.86,8.83,2.43,7.46,9.69Z"/>
          <path class="cls-53" d="M64.35,30.59c.46,1.72-.46,1.99-1.24,3.33-1,1.72.04,4.28-.88,6.26l-3.56.34c-.57,4.56-.54,8.87-.19,13.08.13,1.6-.54,3.26.23,4.76-1.35.23-1.12,1.62-1.15,2.7,0,.15.2,9.96-.67,8.79-1.03.23-2.81-.34-3.85.48-1.26,1.05-.62,3.2-.99,4.49-.05.18.04.37-.16.49-.68-.12-1.44-.17-1.95.1-.6.33-.35,1.06-.37,1.81l-.19,7.48c-.14,5.42.62,10.73-.32,16.18-.19,1.13-1.53,1.8-1.53,2.65v15.97c-.01,1.5-.2,2.97-1.46,3.75-.96.6-2.14,1.27-3.46.77l-1.15,9.65c-.11.95-1.06,1.77-1.63,1.85-.45.07-1.35-.78-2.24-.46l-.87,10.65c-.34,4.21.97,5.64-.33,7.6-.58.88-1.17,1.58-3.31,1.28-1.03-.14-1.78,2.25-1.26,3.4-.42.69-1.08.73-.97.99s.83,1.17.48,1.56c-1.29,1.46-3.08,1.57-4.92,2.68,1.51,1.32-.15,2.85-.18,4.01-.05,1.9-1.54,3.14-3.82,3.5-2.3,2.5.84,10.53-3.32,11.38-4.59.94-.74,6.81-5.94,7.83.05,2.43-1.63,4.48-3.7,5.58-.39,1.68-.55,4.06-1.18,6.06-.29.93.8,3.73-1,3.79-3.55.11-2.24-4.83-4.36-11.16,1.39-.25,2.97.1,4.65-.56.82-2.88-.3-5.94.78-8.88.35-.94,2.33-.48,3.46-.51,1.12-5.43,1.21-10.86,1.33-16.44l.63-30.27c.02-.92.24-1.85.59-2.45s2.14-.3,3-.61l1.34-9.92c.95-.88,2.36-.52,3.8-1.16l1.45-25.64c.21-3.79-.4-7.77.33-11.35.85-.29,2.16-.13,2.49-.48,1.81-1.91-.1-5,1.77-5.31.83-.14,2.03.38,2.5-.35.67-1.05.22-1.92-.05-3.11-.16-.73,1.37-1.18,1.41-1.87l.67-14.19c.11-2.41,1.79-3.1,4.17-3.29,1.13-.4.8-2.9.7-4.46,1.56-1.14,3.38-.45,4.91-1.15.87-2.42-.36-5.31,1-7.5.72-.78,3.43.12,3.99-1.48.27-.78.13-1.98.65-2.62.39-.49,5.5-.84,4.72-.87.92.03.32-1.39,1.03-1.86,1.24-.82,3.65-.27,4.36-1.82.61-1.34.05-3.7,1.26-4.83,1.28-1.21,3.15-.71,4.47-.59Z"/>
          <path class="cls-28" d="M66.91,58.04l-.08,26.63c0,1.3.31,2.79,1.94,2.85.73.03,2.56-.26,2.98.5l-.37,12.82c-.03.93-.09,1.75-.59,2.19l-7.51.33c-.44,5.16-.54,10.28-.09,15.47.2,2.29,1.64,2.85,3.33,3.63.74.34.47,2.53,1.57,2.82l-.06,10.99c-.04,8.58.34,16.9.51,25.52l.13,6.59c.03,1.59,2.72.96,3.78,1.58,1.04,4.56.59,10.34-.08,14.97-1.95-.29-2.82-.23-3.72.44-.98-3.88-4.94-1.23-4.7-6.16.33-6.71-5.46-2.67-5.47-9.39l-.04-31.69-.19-61.56-.09-14.28c0-.68.15-1.32-.6-1.23.03-1.07-.2-2.47,1.15-2.7l8.2-.32Z"/>
          <path class="cls-68" d="M71.81,127.61c4.41,3.63,4.51,1.33,10.04,3.07-.5,2.71.17,6.05.4,8.71l-2.68-.09-.57,45.4c-.04,3.41.16,6.38-.41,9.38-.04.22-.2.44.05.64-.85.25-.51,1.2-.63,1.81-.88.05-3.28.24-3.66-.93-1.7-5.33-6.9-8.25-5.69-10.22.9-.67,1.78-.73,3.72-.44.67-4.62,1.13-10.4.08-14.97-1.06-.62-3.75.01-3.78-1.58l-.13-6.59c-.17-8.62-.55-16.94-.51-25.52l.06-10.99c.95.25,1,1.13,1.5,1.93.33.52,1.73.66,2.21.4Z"/>
          <path class="cls-39" d="M58.26,76.57c-.32,0-1.42-.29-1.63.2-.58,1.31.18,2.61,0,4.71-3.03-.44-5.34-3.23-4.73-6.17.2-.12.11-.31.16-.49,1.4.72,3.83.93,4.77-.37s.95-3.41.07-4.59c.87,1.17.67-8.65.67-8.79.75-.1.6.55.6,1.23l.09,14.28Z"/>
          <path class="cls-39" d="M25.24,17.02c.17-1.26,1.12-1.82,1.87-2.62-.01.65.13,1.29-.26,1.91s-.97.46-1.61.71Z"/>
          <path class="cls-126" d="M56.89,69.86c.88,1.18.88,3.27-.07,4.59s-3.37,1.1-4.77.37c.36-1.29-.27-3.44.99-4.49,1.03-.82,2.81-.25,3.85-.48Z"/>
        </g>
      </g>
      <path class="cls-39" d="M206.75,139.41c1.09,16.14,1.11,32.9-.01,49.01-1.08-.8-2.55-.63-4.03-.92-.9-1.13-.3-3.06-1.35-4.19-.98-1.06-3.74.24-4.1-.92l-1.15-3.69c-6.65-1.16-13.2-1-19.62-1.26-.86-1.93.17-3.97-1.06-6.28-2.35.99-3.73-.3-4.7-.75.1-1.6.22-3.22.04-4.81.92-.1,2.51-.35,3.62-.77l4.92-1.88c4.5-1.73,6.75-.41,7.22-1.52.41-.97-.09-3.38.84-3.96.45-.28,1.28-.33,1.85-.31,4.91.18,4.2-5.58,9.31-6.22,1.58-.2.38-4.52,1.38-5.1,1.33-.77,3.14.31,4.04-.88s-.37-3.85.66-4.82c.45-.43,1.35-.73,2.14-.73Z"/>
      <path class="cls-159" d="M137.01,276.25c-6.9,1.57-1.43,2.05-10.43,1.29-5.07-.43-9.93.23-14.98-.54-1.84-.28-3.41-1.12-5.58-1-4.39.24-8.56-.99-13.09-1.09l-.24-5.5c-.17-.51.32-.86.36-1.33,1.85-.04,2.5,2.18,3.81,2.96,4.07,2.42,14.83-.05,20.51,1.65,1.75.52,2.74-.84,4.12-1.66,1.52-.91,3.75.23,5.57-.62.8-1.16.27-2.53.73-3.6.2,0,.42-.03.62,0-.36.55.84.62.87.95l-.2,7.51c1.01.2,3.67.74,3.76-.24l.44-4.57c1.35-.11,7.92-4.9,9.3-6.25.72,1.27,1.25,4.16.24,4.62-1.2.55-1.57,1.95-2.52,2.65-1.69,1.26-3.09,2.35-3.29,4.78Z"/>
      <path class="cls-20" d="M92.69,269.39l.24,5.5c4.52.1,8.69,1.34,13.09,1.09,2.17-.12,3.74.72,5.58,1,5.05.77,9.91.11,14.98.54,9,.77,3.53.28,10.43-1.29-.08.99.22,1.06-1.17.67-.38.52-.97.42-1.52.67-.95.43,2.08,1.5,1.02,1.58-1.86,2.21-1.23,5.32-1.31,8.08-.24.47-.33.63-.26,1.15-2.29-.7-5.01-.85-7.22.06-.82-.54-1.89-.53-3.13-.54-7.87-.1-15.47.02-23.12-.93-2.74-.34-5.31-1.11-7.93-.98-.25-1.03.26-2.03.26-3.05l4.36.83c7.19,1.37,19.82,2.41,26.82,1.57l.56-2.41c.25-1.07,1.62-.45,2.5-.81.84-.52,1.23-1.82,1.42-2.62l-16.05-.57c-6.53-.23-12.74-1.09-19.12-1.07-.21.29-.29.53-.5.59,0-.19-.14-.34-.24-.49-.67-.93.41-1.94.01-3.09l-3.2-.64c4.58-1.79,1.12-4.26,3.49-4.87Z"/>
      <path class="cls-164" d="M127.8,266.79c-.47,1.07.07,2.44-.73,3.6-1.81.86-4.05-.28-5.57.62-1.38.82-2.37,2.19-4.12,1.66-5.68-1.7-16.44.77-20.51-1.65-1.31-.78-1.97-3-3.81-2.96.1-.95.75-1.01,1.82-1.02l32.92-.26Z"/>
      <path class="cls-98" d="M126.56,288.47l-.57,4.24c1.14.77,1.45,1.72,1.17,2.69-8.4.11-16.76-.28-25.45-.9-4.41-.32-8.57.04-12.53-1.08-.8-7.81,2.1-3.62,3.19-7.39,2.62-.13,5.19.64,7.93.98,7.66.95,15.25.82,23.12.93,1.25.02,2.31,0,3.13.54Z"/>
      <g>
        <path class="cls-144" d="M174.37,295.22c.66,1.08,1.08,2.27,1.27,3.91.94.54,2.46.04,2.8,1.07.37,1.13-.21,2.75.74,3.43,1.62,1.15,3.64.17,5.17.38-.05.43.21.84.05,1.26.06.87-.83,2.85.27,3.76l2.61,2.16c1.43,1.18,3.69.76,5.16,1.47.14,0,.61.25.63.44.02.18-.77.55-.59.67.66.47,1.43.33,1.79.7,1.95,1.94,2.88,4.88,5.32,6.79,1.27,1,2.77,1.29,3.06,3.19l3.41,1.78c.79,2.91,3.14,3.67,5.06,5.28,1.39,1.17,2.23,2.98,4.77,2.46.72.38.51,2.33.99,2.89,2.05.33,9.72,5.45,12.12,7.05,4.73,3.15,9.67,5.67,14.58,8.51l4.28,2.48c3.23,1.87,6.19,3.36,9.56,4.86l6.68,2.99c16.6,7.42,11.27,6.08,29.93,11.82,3.3,1.01,6.48,2.49,9.7,2.79.64.3,1.47.3,2.1,1.58-11.48,6.12-34.46-7.78-45.08-10.95.18-1.56-7.11-3.41-9.22-5.09-3.51-2.8-7.17-3.58-10.45-.76l-5.94-1.92-.81-2.96c-9.4-1.48-6.48-4.83-9.69-4.6-5.88.41-.09-3.74-7.96-4.41l.1,12.43c-.76,4.54-1.44-13.9-1.32-13.41-.14-.57-1.3-.29-1.51-.68-.18-1.26-1.61-2.18-2.85-3.03l-6.79-4.65c.1-.88.74-1.29,1.9-2.03-5.21-4.01-3.8.31-6.32-5.92-3.27.04-4.44-2.16-5.78-4.24-1.01-.72-2.94-1.06-3.53-2.94-.48-1.52-2.94-1.3-3.98-3.12-.73-1.27-4.04-.32-4.17-2.85-.07-1.23-.29-2.5-.89-3.15-1.08-1.18-4.16-.28-4.92-2.57-2.65-8.04-9.01-6.88-9.41-7.26-.76-.71-.42-1.57-.63-2.02-.63-.76-1.97-.3-2.38-1.16-.3-.63.01-1.42.58-1.63,2.6-.98,4.39,2.97,6.84,3.24.77-5.42-.49-3.24.36-8.89l2.39.87Z"/>
        <path class="cls-43" d="M201.23,316.37c2.49.95,4.72,2.77,5.46,5.38.69.28,1.93.21,2.49.6.42.3.45,1.36.8,1.85.06-.76,6.32,4.47,5.5,4.1l4.26,1.92c.9.41.24,2.33,1.25,2.85.64.33,2.38.04,3.02.7,2.07,2.16,4.14,3.47,6.66,4.78.67.35,1,2.12,2.4,2.08,1.78-.06,2.09,1.68,2.8,2.61,1.28.95,3.3,1.01,5.31,1.19,1.74,3.93,5.71,4.07,8.85,5.83,2.77,1.56,5.56,3.6,8.69,4.55.79.24.93,2.06,2.69,2.25,2.8.31,5.77,1.5,8.15,2.8l4.16,2.27c1.21.66,2.27,2.22,3.95,1.88,2.49-.5,3.65,1.84,5.48,2.51,3.45,1.25,17.17,4.52,15.97,3.88.43.23.28,1.83.8,1.96,4.72,1.18,9.24,1.77,13.67,2.55,3.02,1.65.93,6.79,1.23,6.32-.67,1.06-3.21-.21-3.27-.33-.26-.55-.83-1.13-.43-2.26-4.05,1.23,1.06-.48-7.37-1.27-3.21-.3-6.39-1.78-9.7-2.79-18.67-5.73-13.33-4.4-29.93-11.82l-6.68-2.99c-3.37-1.51-6.33-3-9.56-4.86l-4.28-2.48c-4.92-2.84-9.85-5.37-14.58-8.51-2.4-1.6-10.07-6.72-12.12-7.05-.48-.56-.27-2.52-.99-2.89-2.54.52-3.37-1.29-4.77-2.46-1.92-1.61-4.27-2.37-5.06-5.28l-3.41-1.78c-.29-1.9-1.79-2.19-3.06-3.19-2.44-1.91-3.37-4.86-5.32-6.79-.29-2.97,6.39,1.69,6.97,1.9Z"/>
        <path class="cls-127" d="M260.74,367.97c10.62,3.17,33.61,17.08,45.08,10.95-.62-1.28-1.46-1.27-2.1-1.58,8.43.8,3.32,2.51,7.37,1.27-.39,1.14.18,1.72.43,2.26.06.13,2.6,1.39,3.27.33-.3.47,1.79-4.67-1.23-6.32.64.11,1.23.1,2.39.39l-.43,7.11c-10.8,2.91-10.01,6.68-23.13,2.51l-10.42-3.31c-1.17-.37-1.68-1.4-3.18-1.69-6.82-1.33-12.92-4.49-19.24-7.31-1.25-.56-2.42-.81-2.52-2.08.57-.94,2.34-2.96,3.7-2.55Z"/>
        <path class="cls-152" d="M260.74,367.97c-1.36-.4-3.13,1.61-3.7,2.55-6.45-.62-4.75-2.99-6.11-3.01-2.38-.03-3.75-1.65-5.62-2.31-2.03-.71-3.52-1.22-4.23-3.09,3.28-2.82,6.94-2.04,10.45.76,2.11,1.69,9.4,3.53,9.22,5.09Z"/>
        <path class="cls-153" d="M171.24,290.42c.17,1.27.1,2.79.74,3.93-.85,5.65.41,3.47-.36,8.89-2.45-.27-4.24-4.22-6.84-3.24-.57.22-.89,1-.58,1.63.41.86,1.75.4,2.38,1.16.21.45-.13,1.31.63,2.02.4.38,6.76-.78,9.41,7.26.76,2.29,3.84,1.39,4.92,2.57.6.65.82,1.92.89,3.15.14,2.53,3.45,1.57,4.17,2.85,1.04,1.82,3.51,1.6,3.98,3.12.59,1.88,2.52,2.22,3.53,2.94,1.34,2.08,2.51,4.28,5.78,4.24,2.52,6.23,1.11,1.9,6.32,5.92-1.16.74-1.8,1.15-1.9,2.03-1.14-.78-1.24-1.75-2.46-2.56l-5.6-3.7c7.99,5.27-19.09-15.27-12.59-9.89-1.89-1.56-3.06-3.45-5.57-4.38-1.15-.43-2.04-2.98-3.25-3.23-2.35-.48-3.5-3.57-4.99-4.22-2.95-.81-4.49-1.53-6.13-4.48-.83-1.49-4.34-2.26-3.56-4.85.96-.85,9.22-11.05,10.06-12.32.05-.13.86.12.74.24-.23.25-.34.8.26.9Z"/>
        <path class="cls-78" d="M172.21,283.39c-.76.69-.78,2.72-.77,3.66-1.01.32-.75,1.55-1.21,2.23-.85,1.27-9.11,11.47-10.06,12.32s-2.1,1.48-3.11,1.85c-.62.07-.94-.42-1.38-1.33-1.09.64-1.98,1.1-2.97,1.3-.4-1.7.36-3.24.55-4.97,8.42-3.46.38-.34,5.59-5.23,2.13-1.99,4.92-5.95,6.21-8.36,1.72.58-.39-1.65,1.27-4.03.75-1.09,5.21-1.23,5.53.08.19.77.56,1.74.34,2.48Z"/>
        <path class="cls-49" d="M113,221.38c-2.56.12-5.08,1.03-7.65.74.29-1.63-1.16-3.65,1.1-4.59,1.57-.65,3.3-2,5.08-.83,1.38.91,1.9,3.18,1.47,4.67Z"/>
        <path class="cls-156" d="M131.68,266.76c.17.01.35.08.53.05.28,1.2.15,2.69,1.08,3.63l-.44,4.57c-.09.98-2.75.44-3.76.24l.2-7.51c-.03-.33-1.23-.4-.87-.95,1.09.16,2.17-.11,3.26-.03Z"/>
        <g>
          <path class="cls-102" d="M113,221.38c1.03-.05,2.32-.12,3.46.22,2.69.8.12,6.63,2.69,5.54,4.19,9.22,3.84,5.95,5.15,7.68.75.99,0,3.91,1.55,4.63-.03.35-.02,1.1.72,1.4.29.12.75.28.96.04.46-.53,0-1.16.68-1.49.27.98.33,1.76,1.08,1.73.33-.01,1.27-.61,1.68-.4,1.21,1.11,1.1,3.16,1.2,4.85.08,1.42,1.57.99,2.05,1.54.63.73.62,1.8,1.39,2.07.56.2,2.26-.15,2.55.42.94,1.87-.44,4.76,1.19,6.32,3.91,3.73,4.26.79,4.28,4.86,0,1.37,1.93,1.59,2.85,2.2.27,2.37,2.57,3.49,4.23,4.94-2.07-.35,6.46,6.55,4.56,4.8,1.89,1.75,2.9,4.44,5.5,5.28.18,1.44,1.19,2.97,1.67,4.32.74.1,1.96.12,2.38.53.55.53.2,1.38.27,2.02-1.29,2.41-4.08,6.37-6.21,8.36-5.21,4.88,2.83,1.76-5.59,5.23-.75-.51-1.23-1.58-1.48-2.43-.36-1.22.4-2.75-.45-3.82-.7-.89-2.25-1.45-3.34-2.04.13-.47.03-1.04-.32-1.25-.29-.18-1.39.69-1.65.15-1.1-2.32-1.58-4.6-3.96-4.79-.11-.72-.93-1.02-1.18-1.87-.79-2.74-3.14-3.89-5.55-3.23,1.06-.08-1.97-1.15-1.02-1.58.54-.25,1.14-.15,1.52-.67,1.39.39,1.08.32,1.17-.67.2-2.43,1.61-3.52,3.29-4.78.95-.71,1.32-2.1,2.52-2.65,1.01-.46.48-3.35-.24-4.62-1.38,1.35-7.95,6.14-9.3,6.25-.94-.94-.8-2.43-1.08-3.63,3.58-3.53.83-5.78,4.04-6.74.63-.19.41-.52.05-1.08-.57-.87-.75-.72-1.74-.19-.6.32-1.26.21-1.57.53.03-.03-1.4,5.57-1.11,6.37-5.04-1.56-2.61-.24-5.05-5.16-.6.8-.15,1.36-1.1,1.12-1.36-5-2.64.35-1.78-5.46.3-2-.56-4.3,1.36-5.49.28-.17,1.04.07,1.41-.12s.63-.8.1-1.14c.09.06-2.19-.52-4.28,2.11-.56.7-3.26-.55-3.13-1.57.25-1.97-2.41-2.96-2.83-4.1-2.19-6.02-2.66-3.81-9.34-7.71-.61-1.23.08-2.52.15-3.77,1.27-.04,2.26.91,3.88.24-.47-2.5.89-3.99,2.18-5.99-2.15.74-4.12,1.99-6.2,1.41-2.56-1.81-2.39-5.23-1.9-7.95,2.57.29,5.09-.63,7.65-.74Z"/>
          <g>
            <path class="cls-140" d="M107.4,234.41c.08-1.44-.31-2.9-.14-4.35,2.08.58,4.04-.66,6.2-1.41-1.29,2-2.65,3.5-2.18,5.99-1.62.66-2.6-.29-3.88-.24Z"/>
            <path class="cls-45" d="M132.2,266.81c-.18.03-.35-.03-.53-.05.09-.34.06-.75.2-1.06-.29-.79,1.15-6.4,1.11-6.37.31-.33.97-.21,1.57-.53.99-.53,1.17-.68,1.74.19.36.55.58.89-.05,1.08-3.22.96-.46,3.2-4.04,6.74Z"/>
            <path class="cls-116" d="M157.25,280.89c3.44,5.06-1.2,7.24-2.54,10.34-1.36-2.64-.09-4.2.93-6.42.52-1.13-.29-3.05,1.61-3.92Z"/>
            <path class="cls-34" d="M151.1,280.75c-1.86.05-2.14,2.92-3.26,2.75-.61-.1-.8-1.02-.78-1.74.09-2.65,4.72-5.7,4.02-5.41,2.89-1.2.1,2.58,1.67,5.39-1-.25-1-1-1.65-.98Z"/>
            <path class="cls-135" d="M147.77,273.02c-4.61,3.9-2.29,4.98-5.39,5.64-.39.08-1.02-.32-.83-.98,1.26-4.26-.55-2.6,5.02-5.73.5-.28.76-.56,1.13-.44.38.12.63,1.05.08,1.51Z"/>
            <path class="cls-124" d="M117.4,238.56c-1.32-.23-2.99-1.32-4.69-.57.68-1.81,2.42.01,3.23-1.27l1.89-2.99c.36,1.1,1.39,4.4-.43,4.83Z"/>
            <path class="cls-154" d="M128.46,255.04c.17.5.46,1.29,1.1,1.2-.2,1.29-1.3,3.63-3.06,2.96-.22-.87.59-2.55-.71-3.45,1.27-.42,1.87-.76,2.68-.71Z"/>
            <path class="cls-115" d="M122.06,246.02c-.91-.27-2.24.16-3.24-1.06,2.03-.66,2.84-1.64,2.45-3.66,2.73.69,2.02,3.65.8,4.73Z"/>
            <path class="cls-50" d="M129.56,256.24c-.64.09-.93-.7-1.1-1.2.12-.41.76-.69,1.1-.68.48.01.78.59.78.94,0,.57-.18,1.11-.78.94Z"/>
          </g>
        </g>
      </g>
      <path class="cls-151" d="M92.64,282.97v-4.49c.19-.05.27-.3.48-.59,6.37-.02,12.59.84,19.12,1.07l16.05.57c-.18.79-.58,2.1-1.42,2.62-.87.36-2.25-.26-2.5.81l-.56,2.41c-7.01.84-19.63-.2-26.82-1.57l-4.36-.83Z"/>
      <g>
        <path class="cls-15" d="M151.79,296.02c-6.14-.18-12.48.77-18.38-.64.6-2.24.7-4.66.38-6.97-.07-.52.01-.69.26-1.15.99-.39,2.09.12,2.82.41,2.84-.46,5.01-.74,5.21-3.4,2.38.19,2.86,2.47,3.96,4.79.26.54,1.36-.33,1.65-.15.34.21.44.78.32,1.25,1.1.6,2.64,1.16,3.34,2.04.85,1.07.08,2.6.45,3.82Z"/>
        <path class="cls-32" d="M133.79,288.41c.32,2.31.22,4.73-.38,6.97,2.59.62-9.86.06-6.24.02.28-.97-.03-1.92-1.17-2.69l.57-4.24c2.21-.91,4.93-.76,7.22-.06Z"/>
        <path class="cls-37" d="M142.07,284.27c-.2,2.65-2.37,2.93-5.21,3.4-.73-.28-1.84-.8-2.82-.41.08-2.76-.56-5.88,1.31-8.08,2.41-.66,4.76.49,5.55,3.23.24.85,1.07,1.15,1.18,1.87Z"/>
        <g>
          <path class="cls-110" d="M145.77,305.86c1.54,3.45,3.07,3.91,3.74,6.42.23.85,2.11.32,2.94.84l-.36,24.45.09,34.86-.99,5.99c-2.35.28-3.23,1.42-3.76,3.35s-3.36,1.61-4.64,2.48c-1.16.79-1.28,2.29-3.27,2.04-.72-.09-1.12.84-1.25,1.15-1.45-1.39-1.18,3.11-1.47,3.05.3.06.56.07.92,0l-.28,13.37c-2.83.63-6.99,0-9.04,2.22-1.69,1.83-.66,6.12-3.6,7.05-3.68,1.17-2.55,6.94-12.28,5.49-1.02,1.23-.04,3.24-.66,5.01-3.67,1.41-7.37.93-10.89.75-.47-.9-.5-1.84-.94-3.18-2.87,1.04-4.23-.4-6.06-1.74-.76-.55-10.38-.81-11.44-.74-1.55.1-3.46-1.18-4.7.2,1.05-1.71-5.44-.8-6.4-2.28-1.13-1.76-.07-5.91-1.01-8.99-4.05,1.22-4.33-2.39-5.85-3.67-1.9-1.59-3.32-1.88-4.36-4.44-.61-1.49-2.21-2.02-1.4-4.1,1.5.17,2.34,1.76,3.75,2.77.75.53,1.57-.7,2,.35.57,1.39,2.72,1.46,2.73,3.09,0,.67-.29,1.35-.12,1.66.08.15,7,1.78,9.48.63,1.56-.72.77-3.21.09-4.28-.25-.4.08-.42.2-.61.28-.44.61-.8,1.04-.57,1.15.26,2.92-.37,4.07.61s.48,3.02.9,4.74c5.02.16,9.89.28,15.17-.25,1.63-.22,2.94-2.45,4.32-3.03l.87-9.1c.22-2.35-.2-5.26,1.34-7.57.38-.57,2.05.12,2.36-.66-.05.12,1.09-7.99,1.19-9.62.08-1.17,2.23-1.08,3.35-1.21l1-24.16c.09-2.27,1.94-2.96,3.71-3.67l1.53-16.73c1.56-.89,2.86-1.89,4.35-1.96l.32,50.46c.56.82,3.52,1.02,3.61.14.59-6.27.65-11.71.68-17.76l.28-55.6,1.99-.43c.69-.15.22-1.89.77-2.2,2.84-1.6,6.45.33,8.77,2.14,1.16.91,2.76.6,3.72,2.19.6.99,2.54,1.44,3.47,1.06Z"/>
          <path class="cls-19" d="M151.46,417.73c-.78.01-2.63.21-3.25-.52l-.23-13.28c-1.67-.38-3.31-.44-4.96-.13-.68,13.37,2.14,9.68-3.25,19.12-.5.88-2.43.51-2.57,1.6-.3,2.47.29,4.85-.6,7.03l-10.13,1.02c.67,6.22,0,11.76-1.58,17.53-.76,2.79-.28,5.66-1.34,8.27-1.18,2.88-1.18,6.11-1.53,9.05-1.76-.56-3.69-.2-5.48.14-3.6-.52-7.22.24-11.14.34s-7.62-.66-11.21-.83c.05-2.58,9.78.05,13.82-.91,1.09-.26,2.32-2.73,3.65-2.93,1.18-.18,3.99.99,4.69-.76l1.46-13.17c-2.37-.59-3.94-.06-5.67-.09l-23.98-.41c-.07-1.45-.41-2.9-.31-4.36-.02-.69.84-.94,1.57-.92l9.81.26c7.33.19,14.69.43,22.31-.22.15-1.69.14-3.09-.09-5.16-8.15.11-15.74.47-23.54.06-11.67-2.09-2.75-5.81-10.87-5,.05-1.62-1.86-1.39-3.52-1.26l-1.17-3.72c-.39-1.24-2.86-.61-4.19-1.49-.65-2.76-.58-5.51-.31-8.1,1.24-1.37,3.15-.1,4.7-.2-.11.95-.78,4.06.46,4.47,6.09,1.69,12.16.9,17.99,1.2,3.51.18,7.22.66,10.89-.75.63-1.77-.36-3.78.66-5.01,9.73,1.44,8.6-4.33,12.28-5.49,2.94-.93,1.91-5.21,3.6-7.05,2.05-2.22,6.2-1.59,9.04-2.22l.28-13.37c.02-.42.24-.73.55-1.04-1.31,1.3,16.99-1.13,14.36,1.04-1.44-.02-3.01-.22-3.84,1.22-1.53,2.66-2.46,6.81-.06,8.74.62.5,2.52-.84,2.66.65.54,5.82,1.96,11.58.07,16.63Z"/>
          <path class="cls-36" d="M78.57,389.78c-.89-.47-3.02-.63-3.61.66-1.19,2.61-1.38,5.44-.72,8.21.48.76,2,.35,2.52.99.68,1.07,1.47,3.56-.09,4.28-2.48,1.14-9.39-.48-9.48-.63-.17-.31.13-.99.12-1.66-.01-1.62-2.16-1.69-2.73-3.09-.43-1.05-1.25.18-2-.35-1.42-1.01-2.26-2.6-3.75-2.77.61-1.58-1-4.12.66-5.61.72-.58,2.03-.07,3.04-.67-.58-2.33,1.66-15.99,2.19-16.1l2.32-.51.95-11.48c.29-.91,2.21-.64,3.67-.83.65-4.08-.02-23.96,3.28-25.16.57-.21,1.05.1,1.63-.32.67-.48-.26-.76-.36-1.35,1.59.77,1.36-8.38,1.32-8.76-.04-.42.34-.87.41-1.26.17-1.05.98-1.5,2.41-1.56.4-.8.38-1.62.9-2.08.35,1.09.81,2.08.72,3.63-.34,5.87.59,11.47.52,17.42l-.5,41.57c-.17.74-1.5.76-2.27,1.26.77,2.46-.82,4.24-1.14,6.17Z"/>
          <path class="cls-69" d="M152.74,306.08c-.11,1.8,3.34,1.93,3.46,1.98.78.32-.45,1.96,1.4,1.67l-.07,73.24c-1.83-.18-.55.92-.66,1.61-.25,1.7-2.47-.18-3.67,1.26-.43.51-1.84,1.5-.87,2.04,7.61,1.19-19.56,1.47-14.07-.45.13-.32.52-1.24,1.25-1.15,1.99.25,2.12-1.25,3.27-2.04,1.27-.87,4.08-.5,4.64-2.48s1.41-3.06,3.76-3.35l.99-5.99-.09-34.86.36-24.45c-.83-.51-2.71.02-2.94-.84-.67-2.51-2.2-2.96-3.74-6.42,1.14-.47,1.61-.24,3.31-.09l3.66.31Z"/>
          <g>
            <path class="cls-59" d="M204.32,338.89l6.79,4.65c1.24.85,2.67,1.78,2.85,3.03.21.39,1.37.11,1.51.68-.12-.49.55,17.95,1.32,13.41,1.32.32,2.75-.15,4.29.48l.57,11.85c1.01.6,2,.29,3.29.75l1.53,15.38c1.12.31,2.07.38,2.4.8.52.69,1.75,8.76.55,11.58-.7,1.64-3.8.9-4.49,2.11l-2.02,3.54c-.53.93-2.37.43-3.31,1.18-.74,2.42.64,5.59-.71,7.99-1.08,1.93-4.62,1.03-6.57,1.46-1.07,3.12.3,6.73-.9,9.72-.59,1.47-2.92.91-4.55,1.15.16,4.07.02,8.12.44,12.08.21,2-1.42,2.63-1.68,3.88-1.6,7.57-1.92,15.24-2.5,22.73-.47-.25-1.14-.53-1.97-.35-5.02,1.12-9.75.46-14.49.7-.62.03-1.09-.35-1.67-.12,1.57-.93,5.21-.94,7.34-1.5-.09-2.55,2.35-2.8,4.14-3.29.45-4.21.95-9.2.89-13.58l-15.34-.15c-.36,0-.52-.09-.92.02-1.55.43-3.38-.14-4.82.54-2.07-.46-4.13-1.1-6.28-.59-3.05-4.56-1.7-10.8-2.15-16.49l-10.82-1.07c-.56-2.53-.06-4.92-.35-7.38l-4.56-.77c-.65-2.03.23-3.94-.65-5.59,1.89-5.06.47-10.82-.07-16.63-.14-1.5-2.04-.16-2.66-.65-2.4-1.93-1.47-6.08.06-8.74.83-1.44,2.4-1.24,3.84-1.22,2.63-2.16-15.67.27-14.36-1.04-.3.3-.53.62-.55,1.04-.36.07-.62.06-.92,0,.29.06.01-4.44,1.47-3.05-5.5,1.92,21.68,1.64,14.07.45-.97-.54.44-1.52.87-2.04,1.2-1.43,3.42.44,3.67-1.26.1-.7-1.17-1.79.66-1.61l.07-73.24c-1.85.29-.62-1.35-1.4-1.67-.12-.05-3.58-.18-3.46-1.98,1.65.14,3.07-1.39,4.33-2.63,1.01-.37,2.13-.98,3.11-1.85-.78,2.59,2.73,3.35,3.56,4.85,1.64,2.94,3.17,3.66,6.13,4.48,1.49.65,2.64,3.74,4.99,4.22,1.21.25,2.1,2.8,3.25,3.23,2.51.93,3.68,2.82,5.57,4.38-6.5-5.38,20.58,15.16,12.59,9.89l5.6,3.7c1.22.81,1.33,1.78,2.46,2.56Z"/>
            <g>
              <g>
                <path class="cls-9" d="M184.69,347.69c1.01,1.76,1.94,2.44,1.94,4.43v35.6c-4.01,1.23-8.08,1.03-12.15-.51-.44-.17-1.19.08-1.6-.16-.57-.33-.65,1.01-1.23,1.28-2.64,1.22-5.66.97-8.44,1.19-.62-6.96-.36-12.93-.37-19.6l-.05-53.09c2.14.8.43,2.77,1.41,3.98,2.54.53,5.94,1.03,7.55,3.1.89,2.02-.24,4.62.96,6.59,3.42-.6,5.23.91,7.3,2.56,3.87,3.1-.54,6,3.79,9.03,1.28.9.06,4.13.9,5.6Z"/>
                <path class="cls-10" d="M191.6,418.77c1.32,3.53-14.96-.57-13.62,5.44-2.05.6-5.45.46-7.51,0-.49-1.04-.26-2.81-2.31-2.81s-4.02-.29-6.49.27c-.99-3.07-.22-6.34,1.01-9.43,5.24-.56,10.15.79,15.44,1.85,1.45.29,1.96,2.18,3.05,2.52,4.55,1.41,9.51-.27,10.42,2.15Z"/>
                <g>
                  <polygon class="cls-33" points="181.31 443.96 181.84 438.93 197.31 438.73 196.55 443.89 181.31 443.96"/>
                  <path class="cls-12" d="M181.84,438.93l-.53,5.04c-4.61-.06-8.82.17-12.84-.63.55-1.92-.69-4.13.28-4.91,4.54-1.12,8.89.55,13.09.49Z"/>
                </g>
              </g>
              <path class="cls-65" d="M157.07,303.45c-1.26,1.24-2.68,2.77-4.33,2.63.05-.8.16-1.87-.03-2.66.99-.2,1.88-.66,2.97-1.3.44.91.76,1.4,1.38,1.33Z"/>
            </g>
          </g>
          <path class="cls-119" d="M112.34,305.4l-1.79,3.04c-1.77,3-3.27,6.2-7.01,6.59-.11,1.64-1.1,4.64.48,5.93,2.35,1.93,6.08,3.43,9.09,2.48,3.86-1.22,3.73-11.92,4-15.72.07-.94-1.16-1.18-1.27-1.89.21-1.6-.32-4.05.65-5.62,1.49-.95,4.23-.28,5.94-.06l-.26,25.72c-1.49.07-2.79,1.07-4.35,1.96l-1.53,16.73c-1.77.71-3.62,1.4-3.71,3.67l-1,24.16c-1.13.12-3.28.03-3.35,1.21-.11,1.62-1.24,9.73-1.19,9.62-.31.78-1.98.09-2.36.66-1.54,2.31-1.12,5.22-1.34,7.57l-.87,9.1c-1.38.58-2.69,2.82-4.32,3.03-5.28.53-10.15.41-15.17.25-.41-1.72.28-3.75-.9-4.74s-2.93-.35-4.07-.61c.29-2.86.11-5.84.57-8.68.31-1.92,1.9-3.71,1.14-6.17.78-.5,2.1-.52,2.27-1.26l.5-41.57c.07-5.95-.86-11.55-.52-17.42.09-1.55-.37-2.54-.72-3.63,1.32-3.85-.1-5.3,1.13-6.87,1.43.18,2.68-.41,2.95-2.16.15-.95,1.06-7.61-1.04-6.41-.1-.56.23-.94.51-1.39,1.21-1.89.99-4.29,2.02-6.24.58.02.56-.87,1.16-.78l16.21.39c1.01.02,1.88.32,2.79.63.62.21.28,1.56.9,2.12,1.2,1.09,2.97.47,4.43,1.29l.03,5.08Z"/>
          <path class="cls-5" d="M127.17,295.4c-3.62.05,8.83.6,6.24-.02,5.9,1.41,12.24.46,18.38.64.25.85.73,1.92,1.48,2.43-.19,1.73-.96,3.27-.55,4.97.19.79.08,1.86.03,2.66l-3.66-.31c-1.7-.15-2.17-.38-3.31.09-.92.38-2.87-.07-3.47-1.06-.96-1.59-2.56-1.29-3.72-2.19-2.32-1.81-5.93-3.74-8.77-2.14-.55.31-.08,2.05-.77,2.2l-1.99.43-.28,55.6c-.03,6.05-.09,11.49-.68,17.76-.08.88-3.04.68-3.61-.14l-.32-50.46.26-25.72c-1.71-.21-4.45-.89-5.94.06-.98,1.57-.44,4.02-.65,5.62-1.21.05-2.46.32-3.49-.43l-.03-5.08c-1.46-.82-3.23-.2-4.43-1.29-.62-.56-.27-1.9-.9-2.12-.91-.31-1.79-.61-2.79-.63l-16.21-.39c-.14-.92.11-2.36,1.21-2.47,3.96,1.11,8.12.76,12.53,1.08,8.69.62,17.05,1.01,25.45.9Z"/>
          <path class="cls-31" d="M100.99,424.35c-5.82-.3-11.9.49-17.99-1.2-1.24-.41-.58-3.51-.46-4.47,1.07-.07,10.69.19,11.44.74,1.84,1.34,3.19,2.78,6.06,1.74.45,1.34.48,2.28.94,3.18Z"/>
          <path class="cls-139" d="M78.57,389.78c-.46,2.84-.28,5.81-.57,8.68-.44-.23-.76.13-1.04.57-.12.19-.45.21-.2.61-.51-.63-2.04-.22-2.52-.99-.66-2.76-.47-5.6.72-8.21.59-1.29,2.72-1.13,3.61-.66Z"/>
          <path class="cls-114" d="M92.38,278c.1.15.24.3.24.49v4.49c.02,1.02-.5,2.03-.25,3.05-1.09,3.77-3.99-.42-3.19,7.39-1.09.11-1.35,1.55-1.21,2.47-.6-.09-.58.79-1.16.78-.99-.53.46-11.07,1.18-11.75.22.35,1.01.09,1.16-.25.26-2.1-.04-4.15.47-6.21,1.1-.27,1.97-.11,2.76-.46Z"/>
          <g>
            <path class="cls-18" d="M116.56,473.17c1.56-.02,3.22.36,4.79.01-.35,2.92-.25,6.74-.22,9.59.75.53,1.64.84,1.63,2.17-.1,6.91.13,13.59-.31,20.48-.09,1.34-.95,1.01-1.44,1.3l-3.08-.02c-.19.63-.08.99,0,1.32,1.03,1.7-5.1,1.76-5.74.76-.24-.37.29-1.62-.08-1.93-1.08-.92-3.03-.5-4.37-.37l-.35,5.45-35.09.06c-.61-2.28-.46-4.65.24-6.43l24.89-.1c1.04,0,.42-2.18.26-2.82-.39-1.64,3.84-.27,4.32-.49,1.73-.78.24-2.77,1.58-3.82,1.11-.87,6.72.67,8.64.29l.09-17.39c0-1.37-.46-2.62.42-4.31-2.09.29-3.71-.82-5.45-.73-3.58.18-7.37-.63-10.57.04-1.47.14-1.49-1.7-1.99-2.77l21.83-.3Z"/>
            <path class="cls-1" d="M112.32,481.24l-.09,17.39c-1.92.39-7.53-1.15-8.64-.29-1.35,1.05.15,3.04-1.58,3.82-.49.22-4.71-1.15-4.32.49.15.64.78,2.82-.26,2.82l-24.89.1c-.91,1.81-2.24-14.99,1.1-11.32-.46.51-1.28,3.01-.23,3.19,2.52.43,5.26.7,7.87.21,1.73-2.72,4.33-.47,6.62-1.87.43-.26.12-1.53.65-2.27.98-1.36,2.94-.34,4.36-1.2-.29-1.35-.13-3.21,1.39-3.6,1.33-.34,2.64-.09,3.67-1.11-.96-1.85-.86-3.37-1.16-4.82.96-.02,1.85-.15,3.03-.13l7.08.14c.24-1.29-.1-2.36.41-3.47,2.06-.35,3.5,1.01,5,1.91Z"/>
            <path class="cls-23" d="M96.81,482.79c.31,1.44.2,2.97,1.16,4.82-1.03,1.02-2.34.77-3.67,1.11-1.52.39-1.69,2.26-1.39,3.6-1.42.86-3.38-.16-4.36,1.2-.53.74-.23,2.01-.65,2.27-2.3,1.4-4.9-.85-6.62,1.87-2.61.49-5.35.23-7.87-.21-1.05-.18-.22-2.68.23-3.19.6-.68,2.19-.96,2.62-1.81,2.23,1.32,5.1.98,8.15.65-5.31-2.87,5.7-4.44,6.42-6.72-1.42-.56-2.73.07-2.96-.69-.22-.71-.17-1.47-.37-2.02.33-.27.79-.7,1.26-.71l8.07-.16Z"/>
            <path class="cls-149" d="M93.54,473.24c.45.01.7.24,1.19.23.5,1.07.52,2.91,1.99,2.77-.2,1.22.15,1.14,1.11.84.73-.19,11.54.06,9.46-.87,1.74-.09,3.36,1.02,5.45.73-.88,1.68-.41,2.94-.42,4.31-1.51-.89-2.94-2.25-5-1.91-.51,1.1-.17,2.18-.41,3.47l-7.08-.14c-1.18-.02-2.07.11-3.03.13l-8.07.16c.4-5.72,2.08-4.62,1.42-6.06.49.21.78-.21,1.13-.36.55-.23.31-.8.29-1.58-.03-1.15,1.17-1.73,1.96-1.71Z"/>
            <path class="cls-25" d="M97.9,438.46c-.05,1.28-.99,2.8.13,4.23.22.28.98-.2,1.16.24.1.24.13.51.03.85l-9.81-.26c-.73-.02-1.59.22-1.57.92-3.2.14-.87-9.16-.82-10.99,8.12-.8-.8,2.92,10.87,5Z"/>
            <path class="cls-155" d="M87.48,483.67c.21.55.15,1.31.37,2.02.23.76,1.54.13,2.96.69-.72,2.28-11.73,3.85-6.42,6.72-3.04.33-5.92.67-8.15-.65.4-.79.45-2.24,1.19-3.18,1.04-1.34,3.41-.74,5.1-1.12.74-1.32.15-2.82.59-4.1,1.62-.36,3-.6,4.35-.38Z"/>
            <path class="cls-96" d="M122.04,467.44l-.69,5.75c-1.58.35-3.24-.04-4.79-.01.48-1.82.17-3.73,0-5.6,1.79-.33,3.72-.69,5.48-.14Z"/>
            <path class="cls-29" d="M121.01,506.73c-.87.52-2.01,1.14-3.08,1.3-.07-.33-.18-.69,0-1.32l3.08.02Z"/>
            <path class="cls-87" d="M116.56,467.57c.17,1.87.48,3.78,0,5.6l-21.83.3c-.49,0-.74-.22-1.19-.23-1.33-2.13-.97-4.35.66-6.16,3.59.17,7.29.93,11.21.83s7.55-.86,11.14-.34Z"/>
            <path class="cls-47" d="M99.23,443.79c.1-.34.06-.61-.03-.85-.18-.44-.94.04-1.16-.24-1.12-1.43-.18-2.96-.13-4.23,7.81.42,15.4.06,23.54-.06.23,2.07.24,3.47.09,5.16-7.61.65-14.98.42-22.31.22Z"/>
            <path class="cls-100" d="M111.67,463.24l.47-14.02c1.72.03,3.3-.5,5.67.09l-1.46,13.17c-.69,1.75-3.5.58-4.69.76Z"/>
            <path class="cls-94" d="M107.29,476.2c2.08.93-8.73.68-9.46.87-.96.3-1.31.38-1.11-.84,3.2-.66,6.99.14,10.57-.04Z"/>
            <g>
              <path class="cls-104" d="M112.15,449.22l-.47,14.02c-1.32.2-2.55,2.67-3.65,2.93-4.04.96-13.77-1.67-13.82.91-1.63,1.81-1.99,4.03-.66,6.16-.79-.02-1.99.56-1.96,1.71.02.78.26,1.35-.29,1.58-.35.15-.64.57-1.13.36-1.22-4.2-1.18-8.49-.33-13.1-.85,4.59-1.74-16.66-1.66-14.98l23.98.41Z"/>
              <path class="cls-41" d="M97.28,462.83c-1.96.36-2.88-.15-4.25-.41.07-3.2-.14-6.87.31-9.98.85-.73,3.29-.53,3.99.29l-.05,10.1Z"/>
            </g>
          </g>
          <g>
            <path class="cls-76" d="M171.93,498.01c.48.15.51-.18.61-.37.34-.66.72.38,1.02.57,1.31.85,2.82.38,4.05.43l9.38.33c.41,1.16.1,2.19.9,2.82-.59.54-.82,3.38.29,3.47,7.98.68,15.77.28,23.52.24.8,0,2.1.26,3.09.19l5.58-.41c2.22.06-.72-10.37,1.47-9.14.85,4.97-.11,10.16.11,15.78l-35.53-.07c-.42-1.71.31-3.65-.43-5.09-.47-.88-3.3-.74-3.88.06-.41.57.21,2.14-.62,2.45-.17.06-4.24.4-5.04-.32-.36-.32.3-1.34-.04-1.98-.55-1.04-2.83-.2-4.04-.66-.9-2.66-.39-5.74-.44-8.3Z"/>
            <path class="cls-160" d="M203.1,467.36l-.37,4.67c-3.18,3.17-11.5-.19-10.83,3.28.4,2.07,6.12-.18,6.52,1.91.02.69-.53,1.62-.1,2.19.9,1.19,5.77.28,4.75-.51,2.54.66-.38,1.83,2.87,4.69,1.73-.17,3.7,0,4.91.75.21,1.43-.19,2.97.76,3.77-.81.4-1.57.91-2.46,1.14-10.96-1.08-6.51,3.81-12.23.79.31-.85.33-1.44.05-1.75-1.37-1.48-2.98.29-4.77-1.48-.48-.47-.05-2.6-.64-2.98-2.9-.82-6.67-.96-9.56-1.34.74-1.08.35-2.39-.61-3.88.89-1.18,2.1-.85,2.99-1.3,1.65-.83,5.27,1.46,6.46-.7.42-.75,1.34-2.43.04-3.17-1.37-.78-3.28.24-4.54-.85l.32-4.87c4.73-.24,9.47.42,14.49-.7.83-.18,1.5.1,1.97.35Z"/>
            <path class="cls-14" d="M176.27,449.63c.52-.24.43,14.32.6,13.54-.39,1.76-.5,3.09-.53,5.55l-.07,6.36c.01-1.27,1.04,9.5,1.28,7.45-.19,5.1-.33,10.95.05,16.12-1.23-.04-2.74.42-4.05-.43-.3-.19-.67-1.23-1.02-.57-.1.18-.12.52-.61.37-.09-4.82-.1-9.57.44-14.65,1.04-9.7-.7-19.73-1.57-29.63-.14-1.56-1.5-3.2-.8-4.69,2.15-.5,4.21.14,6.28.59Z"/>
            <path class="cls-27" d="M218.02,492.31l1.79,2c.45.5,1.33.26,1.64.45.66.4.33.98.4,1.37-2.19-1.23.75,9.2-1.47,9.14l-5.58.41c-.99.07-2.29-.2-3.09-.19-.11-1.49.85-3,.1-4.35,2.04-.43,4.35-1.56,3.75-4.48-1.81.39-3.31.68-4.46-.18,1.12-1.73-.58-2.02-.65-2.97,3.37-.6,3.57-.16,7.58-1.19Z"/>
            <path class="cls-88" d="M202.73,472.03c-.17,2.19-.15,4.74.33,6.85,1.02.8-3.84,1.71-4.75.51-.43-.57.12-1.5.1-2.19-.4-2.09-6.12.16-6.52-1.91-.67-3.47,7.66-.1,10.83-3.28Z"/>
            <path class="cls-161" d="M218.02,492.31c-4.02,1.03-4.22.59-7.58,1.19-.78.02-1.79-.27-2.95-1.18,1.39-1.17,2.08-1.85,1.65-3.1.89-.23,1.65-.74,2.46-1.14,1.17.63,3.11-.37,3.95,1.2.36.66.05,2.07.83,2.19.66.11,1.1.23,1.65.84Z"/>
            <path class="cls-26" d="M184.98,467.59c-.67.39-2.75.18-2.83-.58l-.42-3.78c-.17-1.56-.04-3.5,0-4.98l.27-9.19,15.34.15c.06,4.39-.44,9.37-.89,13.58-1.79.49-4.23.74-4.14,3.29-2.13.55-5.77.57-7.34,1.5Z"/>
            <path class="cls-104" d="M184.98,467.59c.57-.23,1.05.15,1.67.12l-.32,4.87-3.93,1.4c1.57.64,2.53,1.9,1.98,3.31-.89.45-2.1.12-2.99,1.3.96,1.49,1.35,2.79.61,3.88-1.39-.18-3,.52-4.44.05-.23,2.05-1.26-8.72-1.28-7.45l.07-6.36c.03-2.46.14-3.79.53-5.55,1.23-.49,2.66.07,4.24-.92-.77-4.83-.76-9.14-.03-13.15.39-.11.56-.02.92-.02l-.27,9.19c-.04,1.47-.17,3.41,0,4.98l.42,3.78c.08.76,2.16.97,2.83.58Z"/>
            <path class="cls-60" d="M181.09,449.09c-.74,4.01-.74,8.32.03,13.15-1.59.99-3.01.43-4.24.92-.17.78-.08-13.78-.6-13.54,1.43-.68,3.27-.11,4.82-.54Z"/>
            <path class="cls-123" d="M181.99,482.47c2.89.38,6.66.51,9.56,1.34.59.38.16,2.51.64,2.98,1.79,1.77,3.4,0,4.77,1.48.28.3.27.9-.05,1.75,5.72,3.03,1.27-1.87,12.23-.79.43,1.25-.26,1.93-1.65,3.1,1.16.91,2.17,1.2,2.95,1.18.07.95,1.78,1.24.65,2.97,1.14.86,2.65.58,4.46.18.61,2.92-1.71,4.05-3.75,4.48-6.73,1.44-17.11-.24-23.91.64-.8-.63-.49-1.67-.9-2.82l-9.38-.33c-.38-5.16-.25-11.01-.05-16.12,1.44.47,3.05-.23,4.44-.05Z"/>
            <path class="cls-147" d="M211.8,501.14c.74,1.36-.21,2.86-.1,4.35-7.75.05-15.54.44-23.52-.24-1.11-.09-.88-2.93-.29-3.47,6.81-.88,17.18.79,23.91-.64Z"/>
            <path class="cls-84" d="M184.37,477.3c.56-1.41-.41-2.67-1.98-3.31l3.93-1.4c1.27,1.09,3.18.07,4.54.85s.38,2.42-.04,3.17c-1.19,2.16-4.81-.13-6.46.7Z"/>
          </g>
          <path class="cls-82" d="M82.38,312.86c-.47-2.21.03-4.48.05-6.73.41.3.92.1,1.35-.25.36-.29.61-1.04.51-1.59,2.1-1.2,1.18,5.46,1.04,6.41-.27,1.75-1.51,2.35-2.95,2.16Z"/>
          <path class="cls-74" d="M179.81,275.96c-.12.69-1.26.7-1.1,1.5-2.15-.02-4.15.27-6.79.5,1.11.75.71,2.05,1.17,2.43-.2,1.26.08,2.14-.88,3.01.22-.74-.16-1.71-.34-2.48-.32-1.31-4.77-1.17-5.53-.08-1.65,2.39.45,4.61-1.27,4.03-.07-.64.28-1.49-.27-2.02-.41-.4-1.63-.43-2.38-.53-.48-1.35-1.49-2.88-1.67-4.32,3.73-.71,8.2-.1,11.2-2.43l7.85.38Z"/>
          <path class="cls-7" d="M115.82,305.83c.11.72,1.34.96,1.27,1.89-.27,3.8-.14,14.5-4,15.72-3.01.95-6.74-.55-9.09-2.48-1.58-1.29-.59-4.3-.48-5.93,3.74-.4,5.24-3.59,7.01-6.59l1.79-3.04c1.03.75,2.28.48,3.49.43Z"/>
          <g>
            <path class="cls-143" d="M107.85,177.81l-.15,4.63c1.52.79,3.28.15,4.63,1.04l1.05,1.28c-.15.78.82.31,1.19.8l2.57,3.39c-.04.51-.26,1.58,0,2.32.16.5,1.37.55,1.94,1.05.98,2.19-.06,6.04,1.88,6.84l1.52.62c.3.12.99,4.69,1.01,5.06.05.91,1.99.38,2.18,1.1,1.54,6.02,2.66,1.94,1.68,7.53-.51,1.34-2.34,1.06-3.88,1.17-.83,1.63-.54,3.42-1.04,5.32-1.52-.07-3.5-.36-3.75,1.38-.33,2.24.83,4.09.47,5.81-2.57,1.09,0-4.74-2.69-5.54-1.13-.34-2.43-.27-3.46-.22.43-1.49-.09-3.76-1.47-4.67-1.78-1.17-3.51.17-5.08.83-2.26.94-.81,2.96-1.1,4.59-.49,2.72-.66,6.14,1.9,7.95-.17,1.44.22,2.91.14,4.35-.07,1.25-.76,2.54-.15,3.77-.92,0-.37.81-.63,1-.39.28-1.28.36-1.85.28-1.5-.23-1.92.64-1.97,1.97l-.36,9.23c-.04,1.05-3.1,2.88-3.5,1.61-1.74-5.51-1.99-11.39-2.06-17.17l-.21-16.91c-.07-5.44.79-10.9.38-16.55-.08-1.06-1.67-.81-2.43-.83-2.39-.05-2.12,8.7-2.65,10.18-1.39.24-3.61.14-3.71,2.35-.14,2.9-.21,5.83-.58,8.65-1.12,1.01-2.46.34-4.06.71-.58,3.57-.7,7.13-.17,10.7,1.31.71,3.11.15,3.66,1.53l-.31,8.2c.34,2.73-3.79.96-3.99,2.67-.39,3.25-.43,6.39-.48,9.83-.02,1.27-2.07,5.18.4,3.1.16-.14.36.35.37.62-.67.58-1.55,1.17-2.52,1.28.51-.57.24-1.59.01-2.29-.13-.4-1.22-.43-1.82-.29-7.05,1.57-16.65-4.43-21.24-1.09-6.46.31-4.39-1.58-9.7-.06-1.56-10.18,3.38-9.95,5.3-14.34.36-.82.12-1.88.61-2.27.55-.44,1.15-.44,2-.41,3.51.15.78-5.66,2.56-7.77.84-.47,2.45.1,3.36-.55-.11-3.25.66-6.26,1.04-9.5.17-1.47,1.21-1.68,1.72-2.51,1.34-2.16.55-5.26,1.8-7.58.77-1.42,3.11-.99,4.35-1.85s-.02-3.19.74-4.21c1.1-1.47,1.66-2.37,1.78-4.44.1-1.83,3.13-.74,4.01-1.37,1.08-.77.75-2.65.93-3.58.12-.61-.22-1.56.63-1.81.78-.27,2.24.65,2.51-.72,1.09-6.96,1.91.33,2.47-8.89,2.57.27,3.52-1.09,4.98-2.52.92-.9,3.23-.14,3.91-1.57.22-.47-.26-2.29.51-2.45,4.98-1.07,10-1,14.84-.75Z"/>
            <path class="cls-158" d="M206.74,188.42c-.09,1.36-.41,3.79.78,4.86,1.17.99,2.92.68,4.11,1.38-.29,1.54-.69,3.68.44,5.14.69.9,3.21-.13,3.38.96l.6,3.78c-.19-1.17,1.63,7.47,1.83,6.83-1.46,4.58-2.08,7.69.34,11.34.83,1.25-.23,4.47,1.67,5.28,1.79.76,3.81.05,5.79.49.84,3.59,1.19,7.07.64,10.57-1.8.37-8.36.91-8.94.01-.33-.51-.1-1.48-.18-2.31-1.31-.62-2.96-.52-4.57-.19.67,5.45-6.49,1.37-10.19,4.38-2.78,2.25-6.48,4.82-9.35,5.38-2.25-2.24-.1-15.28-.7-18.13,1.59-.5.66-3.54,1.38-4.7,2.6-.99,3.89-2.39,4.61-5.15s2.94-5.27,3.82-7.95c-1.2-.94-2.68-.83-4.68-.61l-.68-19.43c-.04-1.1-2.56-.54-3.04-1.08-1.02-1.19-1.95-1.83-3.88-1.88-6.57-.14-12.92-.37-19.07-1.32.79-1.41.83-3.61,2.23-4.9.86-.79,2.44.14,3.18-.67-.04-1.2.57-2.23.2-3.07,6.43.26,12.98.1,19.62,1.26l1.15,3.69c.36,1.16,3.12-.14,4.1.92,1.05,1.14.45,3.07,1.35,4.19,1.48.29,2.95.12,4.03.92Z"/>
            <path class="cls-112" d="M92.3,233.2c-.18,6.9-.58,19.17.46,25.45.15.91-.86,3.5.83,3.45,1.4-.04,2.63.21,3.77.17l12.32-.45c1.67-.06,2.33-.75,2.47-1.56.32-1.8-.59-2.51-2.25-2.51-1.25,0-2.15-1.04-3.28-.9-.09-.47.08-.86.2-1.28,1.83-.37,3.9-1.82,5.59.08.21.73.58-.09.91-.12.73-.08.95.67.84,1.57,2.43.24,4.74,1.68,4.29,4.59,2.77.73,4.95-.13,7.28-.03.95.24.5-.32,1.1-1.12,2.44,4.92.01,3.6,5.05,5.16-.14.31-.11.72-.2,1.06-1.09-.08-2.17.19-3.26.03-.2-.03-.42,0-.62,0l-32.92.26c-1.07,0-1.72.07-1.82,1.02-.05.46-.54.81-.36,1.33-2.37.61,1.09,3.09-3.49,4.87-9.35-1.86-4.02-3.72-9.41-3.86l-2.78-2.16c1.57,1.22-12.74-4.63-15.51-2.44-.37.29-.08,1.25-.74,1.6-.01-.48-.56-1.11-1.09-.98-2.3.57-2.34-1.5-3.47-2.53-1.49-1.37-2.86-2.52-4.13-4.05-1.06-1.27-3.88-1.29-4.26-2.95,5.31-1.52,3.24.37,9.7.06.14,4.72,7.48.94,9.85,3.01,1.42,1.24,1.78,2.31,3.77,2.79,1.63.39,3.31,1.89,5.58,1.14.34-.11.98.37,1.34,0,.71-.74.28-2.81.99-3.16.44-.21,1.05-.05,1.51-.1.97-.11,1.86-.7,2.52-1.28-2.31,2.02,5.73-3.44,4.09-.66.03-2.38.17-4.72.04-7.31l-.42-8.26.31-8.2c2.63-2.09,3.18.6,4.05-1.4.21-.48.77-.43,1.15-.33Z"/>
            <path class="cls-131" d="M88,284.92c-.72.68-2.16,11.22-1.18,11.75-1.03,1.95-.81,4.35-2.02,6.24-1.62-.03-4.77.4-5.26,1.74l-.41,1.14c-6.76-.07-14.15.56-20.85-.38.05-.33.08-.91-.05-1.23.33-.25.83-.63,1.23-.7,1.18-.19,2.43-.23,3.62-.13,2.82.23,5.65-.19,8.69-.12.7-1.68.95-3.15,1.14-5.14-3.4-.36-6.24-.25-9.12-.24h-5.5c-.19-.31-.75-.41-.71-1.74,1.62.8,3.26.37,4.92.41,3.25.07,6.45-.64,9.93-.82l.18-3.41c1.25-.71,2.5-.34,3.95-.87.23-2.52.64-4.81.5-7.15-4.46.48,0-2.99-2.01-5.28-.36-.41-1.34-.02-1.9-1-.32-.81.37-1.4.89-1.61.68-.28,1.95.74,2.33.2l1.58-2.28c1.7.93,3.64,1.36,5.27,3.02,1.14,1.16,3.56.73,5.58,1.4-.34,1.91-1.06,3.5-.76,5.34-.92.34-.62.78-.05.88Z"/>
            <path class="cls-17" d="M77.95,274.28l-1.58,2.28c-.37.54-1.64-.48-2.33-.2-.52.21-1.21.8-.89,1.61-.85-1.49-5.84-2.79-6.11-.75-.49,3.68-2.23,5.45-2.67,8.07l-1.87,11.22c-1.66-.04-3.3.4-4.92-.41-.04,1.32.52,1.43.71,1.74,1.25,2.04-1.03,3.03,1.16,5.63-.41.07-.9.45-1.23.7-4.55-.32-.63-7.33-1.22-9.31s1.26-2.79,1.39-3.84c.76-6.39.71-12.56,1.89-18.54,2.03.85,3.39-.76,5-1.57,1.94-.98,5.71-.07,7.32,1.2,1.85,1.46,3.67,1.25,5.36,2.17Z"/>
            <path class="cls-130" d="M89.2,274.27l3.2.64c.39,1.15-.68,2.16-.01,3.09-.79.35-1.66.19-2.76.46-.51,2.05-.2,4.11-.47,6.21-.15.34-.94.6-1.16.25-.57-.1-.87-.54.05-.88-.31-1.83.41-3.43.76-5.34-2.02-.67-4.44-.24-5.58-1.4-1.63-1.66-3.57-2.08-5.27-3.02s-3.51-.7-5.36-2.17c-1.61-1.27-5.37-2.18-7.32-1.2-1.61.81-2.98,2.42-5,1.57.32-1.62.26-3.42.48-5.07.66-.35.38-1.31.74-1.6,2.78-2.2,17.08,3.66,15.51,2.44l2.78,2.16c5.39.14.06,2,9.41,3.86Z"/>
            <path class="cls-133" d="M131.43,188.41c.88.19.15,1.98.68,2.45,1.35,1.21,3.52.2,4.99.19.91.79,1.27,2.15,1.52,3.73.31,1.99,2.94,1.01,4.08.57,2.67-1.03,7.54,3.86,9.84,5.47l-2.23,3.19c-.68.97-4.02,6.98-5.75,6.51l2.05.55c.58.16-.76,1.53.5,1.68-.2.75.42,2.06-.42,2.7-.9.69-2.71-.11-3.53.78-1.02,1.1-.18,3.28-1.29,4.33-.92.87-3.71.31-3.93,1.64l-.81,4.87-3.26.93c-1.18.34-.56,3.2-1.74,3.9-.87.52-2.76-.06-3.17,1.34-.73,2.45-1.63,4.46-3.12,6.19-1.56-.72-.8-3.64-1.55-4.63-1.31-1.73-.96,1.54-5.15-7.68.36-1.72-.8-3.57-.47-5.81.25-1.74,2.23-1.45,3.75-1.38.5-1.9.2-3.68,1.04-5.32,1.54-.11,3.37.17,3.88-1.17,1.16,1.21,5.11-7.24,5.03-7.52,1.29.5,2.77.16,3.67-.53.64-.5,1.07-2.73.56-3.37-.79-1.01-2.46-.09-3.19.39-.92.6-.53,1.82-1.27,2.64-1.02,1.11-4.37-.89-4.49-1.2-.22-.61-.66-1.6-.89-2.42-2.04-7.1-4.86-2.76-5.26-12.43-1.18-1.84,9.01-.7,9.93-.61Z"/>
            <path class="cls-22" d="M125.73,261.67c-2.33-.1-4.51.75-7.28.03.45-2.91-1.86-4.35-4.29-4.59.11-.91-.11-1.65-.84-1.57-.33.03-.7.85-.91.12-1.69-1.9-3.75-.45-5.59-.08.27-.96.49-2.97-.57-4.13-.71-.78-2.92-.13-3.83-.78l.36-9.23c.05-1.33.47-2.2,1.97-1.97.57.09,1.45,0,1.85-.28.27-.19-.28-1,.63-1,6.68,3.9,7.15,1.69,9.34,7.71.41,1.14,3.08,2.13,2.83,4.1-.13,1.02,2.57,2.27,3.13,1.57,2.09-2.64,4.37-2.06,4.28-2.11.52.34.28.94-.1,1.14s-1.13-.05-1.41.12c-1.92,1.18-1.06,3.49-1.36,5.49-.86,5.81.42.46,1.78,5.46Z"/>
            <path class="cls-8" d="M96.66,218.2l.21,16.91c.07,5.78.32,11.66,2.06,17.17.4,1.27,3.46-.56,3.5-1.61.92.65,3.13,0,3.83.78,1.06,1.16.84,3.17.57,4.13-.12.42-.28.81-.2,1.28-1.61,1.74-4.5,1.33-6.85,2.4l-1.62.74c-.68.31-.72-1.47-1.19-1.58-1.21.06-3.07-.3-4.21.23-1.04-6.28-.65-18.55-.46-25.45.09-3.49-.21-7.43.42-10.93.17-.97,2.24-2.26,1.44-3.84.69-.69,2.02-.35,2.51-.24Z"/>
            <path class="cls-111" d="M96.66,218.2c-.49-.11-1.82-.45-2.51.24.81,1.58-1.26,2.87-1.44,3.84-.62,3.5-.33,7.44-.42,10.93-.38-.1-.94-.15-1.15.33-.87,2-1.42-.69-4.05,1.4-.56-1.38-2.35-.82-3.66-1.53-.54-3.57-.41-7.13.17-10.7,1.6-.37,2.94.31,4.06-.71.37-2.82.44-5.75.58-8.65.11-2.21,2.32-2.11,3.71-2.35.53-1.48.26-10.23,2.65-10.18.76.02,2.36-.23,2.43.83.41,5.65-.45,11.11-.38,16.55Z"/>
            <path class="cls-86" d="M127.19,171.01c.11,2.15.17,4.41.74,6.5s.53,4.71,1.58,6.82c.4.79,1.89.83,2.23,1.64.41.98.03,1.6-.32,2.44-.92-.1-11.11-1.23-9.93.61l-4.36-.06-2.57-3.39c-.37-.49-1.33-.03-1.19-.8-.01-.36.29-.76.49-.59.31.26.53.92.79.84.76-.24,1.78.14,1.84-.56-.33,4.11-.44-11.98-.39-10.47-.03-.78,1.9-2.08.49-2.39.16-.5.6-.97,1.1-1.13.66,1.85,7.59-.36,9.48.56Z"/>
            <path class="cls-138" d="M121.5,189.01c.4,9.67,3.22,5.33,5.26,12.43.24.82.67,1.81.89,2.42.11.32,3.47,2.32,4.49,1.2.74-.81.35-2.04,1.27-2.64.73-.48,2.39-1.4,3.19-.39.51.65.09,2.87-.56,3.37-.89.69-2.38,1.03-3.67.53.08.28-3.87,8.73-5.03,7.52.98-5.59-.14-1.51-1.68-7.53-.18-.72-2.13-.19-2.18-1.1-.02-.37-.72-4.93-1.01-5.06l-1.52-.62c-1.95-.8-.9-4.65-1.88-6.84-.56-.5-1.77-.55-1.94-1.05-.25-.74-.03-1.82,0-2.32l4.36.06Z"/>
            <path class="cls-70" d="M80.55,260.63c-.46.05-1.07-.11-1.51.1-.72.35-.29,2.42-.99,3.16-.36.37-1-.11-1.34,0-2.26.75-3.95-.74-5.58-1.14-1.99-.48-2.35-1.55-3.77-2.79-2.38-2.07-9.72,1.71-9.85-3.01,4.59-3.34,14.19,2.67,21.24,1.09.59-.13,1.69-.11,1.82.29.23.7.5,1.72-.01,2.29Z"/>
            <path class="cls-157" d="M116.61,171.59c1.41.3-.52,1.6-.49,2.39-.06-1.51.06,14.58.39,10.47-.06.71-1.08.32-1.84.56-.27.09-.49-.58-.79-.84-.19-.16-.5.24-.49.59l-1.05-1.28c-1.34-.9-3.11-.25-4.63-1.04l.15-4.63c1.05.05,2.4-.69,3.81-.36.86-1.76-.44-4.05.75-5.67.82-1.1,3.25-.49,4.2-.19Z"/>
            <path class="cls-85" d="M83.08,259.35c-.01-.27-.21-.76-.37-.62-2.47,2.08-.42-1.83-.4-3.1.06-3.45.09-6.59.48-9.83.21-1.71,4.34.06,3.99-2.67l.42,8.26c.13,2.58-.01,4.93-.04,7.31,1.64-2.78-6.41,2.68-4.09.66Z"/>
            <path class="cls-39" d="M81.14,193.99c-.27,1.37-1.74.45-2.51.72-.25-.19-.09-.42-.05-.64.85-.04,1.72.09,2.56-.08Z"/>
            <path class="cls-48" d="M192.41,228.19c.6,2.84-1.56,15.89.7,18.13.42,1.08,1.57.37,1.72.9.51,1.81-1.32,2.78-.48,3.53,2.47,2.18,1.26,4.99,2.73,6.99,1.23,1.67,2.35-1.24,3.31-1.73,3.1-1.61,8.22-2.04,11.29-.54,1.07.52,1.53,2.02,2.85,2.36,3.51.92,5.17,3.91,7.1,6.49,1.05,1.41,2.33,1.65,2.7,3.7-.34-1.87,2.54,8.98,2.02,7.49.16.45,1.45-.28,1.68-.03,1.7,1.85-.13,3.79-1.95,4.91-3.78,2.34-8.35,1.58-8.1.48.23-1.01,1.99-.7,1.82-1.87-.03-.24-.47-.47-.72-1.15,1.43-.95,2.5-1.87,2.78-3.19.42-1.98-.29-2.47-1.03-4.13-1.04-2.33-1.21-5.82-4.24-6.12-.58-1.23-1.78-2.96-3.04-3.87-.32-.23-1.3,1.46-1.74.42-.14-.33,1-.7.52-1.18-.31-.31-.62-1.13-1.3-1.07-2.61.2-3.75-1.81-9.75-.57-.79,1.43.2,3.01-.71,4.33-.67.97-3.51,1.16-3.87,0,.22-.86.2-2.14.46-3.42-1.66.03-3.05-.13-4.62.51-.63.26-.31,1.22-.39,1.57-.16.76-.1,1.82-.15,2.69-.02.44-.27.95.03,1.48,1.21-.44,2.07-.73,3.07-.6.51,1.69-2.51,1.79-3.17,3.19.02,1.64.18,3.39-1.38,3.34-1.04-.1-1.95.46-2.99.56-.55-.1-.68-.83-.8-1.3-.24-.89.45-1.66.08-2.59-.29-.73-.92-.99-1.84-.98.5-1.2,1.77.32,2.04-1,.16-.79-.36-1.36-.52-2.29-.44-2.61.34-4.9.65-7.25.71-5.26,0-10.71-.16-16.29l-.72-24.8c-1.6-.25-3-.21-4.32-.15.02-1.59-.46-3.19-.09-4.84,1.54-.2,2.98.58,4.6,1.08.89-2.35-.34-4.57.94-6.2.82.11,3.34-.68,3.87,1.13-.05,5.59.01,16.52,1.14,21.92Z"/>
            <path class="cls-101" d="M216.58,264.39c-.51,1.42-1.06,2.79-1.43,4.3-.61-.89-1.06-1.54-1.8-1.46-3.43.36,1.62,4.68-.29,7.68l-1.86,2.92c-1.14,1.78-3.69,2.58-4.94,3.43-.07,2.13.29,5.49-2.36,5.63-.78.04-1.91-.71-2.28.44-4.63-1.08-2.08-5.47-6.74-5.86-1.68-.14-1.4-2.6-2.14-3.13-1.09-.79-3.28-.79-4.52-.8l-9.52-.09c-.16-.8.98-.81,1.1-1.5.9-2.44,3.04-2.85,5.27-4.36l1.67-1.13c.12.47.26,1.2.8,1.3.57,1.01.59,1.16-.74,1.5,1.05,1.92,7.42,1.4,7.47,1.34,1.42-1.33-1.39-1.58-3.75-3.41,1.56.05,1.4-1.7,1.38-3.34.66-1.4,3.68-1.5,3.17-3.19.63-.32,1.43-1.58,1.6-2.23.36,1.16,3.2.97,3.87,0,.91-1.32-.08-2.9.71-4.33,6-1.24,7.14.77,9.75.57.67-.05.98.76,1.3,1.07.48.48-.66.85-.52,1.18.44,1.04,1.41-.65,1.74-.42,1.26.91,2.47,2.64,3.04,3.87Z"/>
            <g>
              <path class="cls-142" d="M201.88,301.4c.92-4.58,0-9.41-.26-14.07.37-1.15,1.5-.4,2.28-.44,2.65-.13,2.29-3.5,2.36-5.63,1.25-.84,3.8-1.65,4.94-3.43l1.86-2.92c1.91-3-3.14-7.32.29-7.68.74-.08,1.19.57,1.8,1.46.38-1.51.92-2.88,1.43-4.3,3.03.3,3.2,3.79,4.24,6.12.74,1.66,1.45,2.16,1.03,4.13-.28,1.32-1.35,2.24-2.78,3.19.25.69.69.92.72,1.15.17,1.17-1.58.86-1.82,1.87-.25,1.1,4.31,1.86,8.1-.48,1.81-1.12,3.64-3.06,1.95-4.91-.23-.25-1.52.48-1.68.03.52,1.49-2.36-9.36-2.02-7.49-.37-2.05-1.65-2.29-2.7-3.7-1.93-2.58-3.6-5.57-7.1-6.49-1.31-.34-1.77-1.83-2.85-2.36-3.08-1.5-8.2-1.07-11.29.54-.96.5-2.08,3.41-3.31,1.73-1.46-2-.26-4.81-2.73-6.99-.85-.75.99-1.72.48-3.53-.15-.53-1.3.18-1.72-.9,2.86-.56,6.57-3.12,9.35-5.38,3.7-3,10.86,1.07,10.19-4.38,1.61-.32,3.26-.43,4.57.19.07.84-.15,1.81.18,2.31.58.9,7.14.36,8.94-.01.55-3.5.2-6.97-.64-10.57-1.98-.44-4,.27-5.79-.49-1.89-.81-.84-4.03-1.67-5.28-2.42-3.65-1.81-6.75-.34-11.34-.2.64-2.02-8-1.83-6.83.49-.23,1.09.09,1.81.24-.31,13.17,4.36-1.45,4.23,14.15l4.25,1.1c.17,1.55-.44,3.85.9,4.37,1.14.45,2.62-.02,3.25.95.93,1.44.49,6.08,1.16,6.27l3.05.86.84,7.34c.07.57,2.18-.3,2.38.55.41,1.77-.26,3.77.55,4.27.56.34,1.66.11,2.98.25.5,11.44.86,20.59-1.4,32.09-2.05.46-3.23.36-4.8.92-.25,5.59-2.77,4.07-4.53,5.46-.83.65-.14,3.47-1.66,3.48l-15,.14c-.51,1.24-1.21,2.32-2.38,2.86-1.05.49-.35,2.66-1.38,3.49-.97.78-2.48.22-3.55.87-1,1.95-.59,4.01-1.02,6.39-1.29.8-2.7.37-3.85.81Z"/>
              <path class="cls-90" d="M216.79,250c1.05.17,3.69.31,4.2-.63.45-1.53-.26-3.22.65-4.44,1.4.43,3.8-.5,4.7,1.56.29.65.24,2.56,1.46,2.63,2.01.13,3.5.5,3.94,2.56.66,3.05,3.92,1,4.23,3.59.07.56-.08,1.55-.79,1.98-.51.3-1.39-.42-2.22-.18-2.25.66-2.11,3.27-2.15,5.53-.02,1.18-3.2,1.04-3.65-.13s.03-3.12-1.28-3.38-2.15-.35-2.99-1.06-.51-1.81-1.07-2.56c-1.94-2.61-5.41-1.08-5.04-5.47Z"/>
              <path class="cls-125" d="M221.63,244.93c-.91,1.22-.2,2.91-.65,4.44-.51.94-3.15.8-4.2.63-3.98-.66-12.02-.63-15.87,1.13-2.28.92,1.01-5.39,2.77-5.47.69-.03,1.48.19,1.72-.42.09-.22.17-.71.65-1.12,5.43,0,10.75-.65,15.57.82Z"/>
            </g>
            <path class="cls-63" d="M192.41,228.19c-1.13-5.4-1.2-16.33-1.14-21.92-.53-1.81-3.04-1.02-3.87-1.13-.53-.77-.03-1.88-.37-2.9s-3.72-1.45-4.2-.35c-1.17,2.66-.39,5.75-.97,8.37-.36,1.65.11,3.26.09,4.84l-.32,29.46-4.32.28-.64,6.36c-1.31.74-2.96.45-4.43,1.02l-.76,5.33-6.43,1.18c-2.13.39-3.67,3.18-5.99,2.28l-12.59,1.96c-.92-.61-2.84-.82-2.85-2.2-.02-4.07-.38-1.14-4.28-4.86-1.64-1.56-.26-4.45-1.19-6.32-.28-.57-1.99-.21-2.55-.42-.76-.27-.75-1.34-1.39-2.07-.48-.55-1.97-.12-2.05-1.54-.09-1.69,0-3.75-1.2-4.85-.41-.21-1.35.39-1.68.4-.75.03-.81-.74-1.08-1.73-.67.33-.21.96-.68,1.49-.21.24-.67.07-.96-.04-.73-.29-.74-1.04-.72-1.4,1.49-1.73,2.39-3.74,3.12-6.19.42-1.39,2.3-.81,3.17-1.34,1.18-.71.56-3.57,1.74-3.9l3.26-.93.81-4.87c.22-1.32,3.02-.76,3.93-1.64,1.1-1.05.27-3.23,1.29-4.33.82-.89,2.63-.09,3.53-.78.83-.64.22-1.96.42-2.7.24-.89.04-1.76.72-2.57.59-.7,1.34-.26,2.46-.4,1.54-.19,1.47-2.89,1.75-4.37,1.37-.94,3.37-.28,4.16-1.41.94-1.34.04-3.49,1.2-4.42s2.8-.19,3.94-1.22c-.24-2.44,1.25-3.46,2.46-4.9.91-1.08,4.92-7.74,7.06-7.41,6.15.95,12.49,1.18,19.07,1.32,1.93.04,2.86.69,3.88,1.88.49.54,3.01-.03,3.04,1.08l.68,19.43c2-.23,3.48-.34,4.68.61-.88,2.68-3.08,5.11-3.82,7.95s-2.01,4.16-4.61,5.15c-.72,1.16.21,4.2-1.38,4.7Z"/>
            <path class="cls-10" d="M170.73,170.4c.97.45,2.35,1.75,4.7.75,1.23,2.3.2,4.34,1.06,6.28.37.84-.24,1.87-.2,3.07-.74.81-2.32-.12-3.18.67-1.4,1.29-1.44,3.49-2.23,4.9-2.14-.33-6.15,6.33-7.06,7.41-1.22,1.44-2.7,2.47-2.46,4.9-1.14,1.02-2.82.32-3.94,1.22s-.27,3.07-1.2,4.42c-.79,1.13-2.79.46-4.16,1.41-.27,1.48-.21,4.18-1.75,4.37-1.12.14-1.86-.3-2.46.4-.68.8-.48,1.68-.72,2.57-1.25-.15.08-1.53-.5-1.68l-2.05-.55c1.72.47,5.07-5.54,5.75-6.51l2.23-3.19c.31-.06.41-.56.99-1.16,1.72,3.1,4.85-5.27,5.91-7.58.03-.84-.69-2.77-1.41-3.55-1.24-1.01-4.88-2.1-4.1-4.16s4.16-3.49,2.66-5.85c.7,0,.5-.88,1-1.14.97,0,2.96.57,3.49-.83.68-1.75.22-3.64-.05-5.42,2.8-.49,7.14-1.05,9.7-.73Z"/>
            <path class="cls-67" d="M92.76,258.65c1.14-.53,3.01-.17,4.21-.23.47.12.5,1.9,1.19,1.58l1.62-.74c2.35-1.08,5.24-.67,6.85-2.4,1.13-.14,2.03.9,3.28.9,1.66,0,2.57.71,2.25,2.51-.15.81-.8,1.5-2.47,1.56l-12.32.45c-1.14.04-2.37-.21-3.77-.17-1.69.04-.68-2.55-.83-3.45Z"/>
            <path class="cls-148" d="M73.15,277.97c.56.98,1.54.59,1.9,1,2.01,2.29-2.46,5.77,2.01,5.28.14,2.34-.27,4.63-.5,7.15-1.45.53-2.7.16-3.95.87l-.18,3.41c-3.48.19-6.69.9-9.93.82l1.87-11.22c.44-2.61,2.17-4.39,2.67-8.07.27-2.03,5.26-.74,6.11.75Z"/>
            <path class="cls-121" d="M63.08,303.33c.13-1.88,1.23-3.61.72-5.5,2.88,0,5.73-.12,9.12.24-.2,1.99-.45,3.46-1.14,5.14-3.04-.07-5.87.35-8.69.12Z"/>
            <path class="cls-51" d="M63.8,297.83c.51,1.89-.58,3.62-.72,5.5-1.19-.09-2.44-.06-3.62.13-2.2-2.6.09-3.59-1.16-5.63h5.5Z"/>
            <path class="cls-129" d="M84.8,302.9c-.28.44-.61.83-.51,1.39s-.15,1.3-.51,1.59c-.43.35-.94.56-1.35.25-1.24-.22-2.43-.16-2.89-1.49.49-1.34,3.64-1.76,5.26-1.74Z"/>
            <path class="cls-61" d="M163.95,165.31c2.25-.1,4.57.51,6.82.28.17,1.6.05,3.22-.04,4.81-2.56-.32-6.9.24-9.7.73.28,1.78.73,3.67.05,5.42-.54,1.39-2.52.83-3.49.83-.16-1.39-.4-11.28.57-11.81l5.79-.26Z"/>
            <path class="cls-54" d="M120.24,165.43c2.33,0,4.65-.12,6.96.08.53,1.81-.1,3.71,0,5.5-1.9-.92-8.82,1.29-9.48-.56-.41-1.63-.19-3.4.18-5.03h2.35Z"/>
            <path class="cls-83" d="M184.98,266.89l-11.2.08c-.76,0-1.37.57-1.87.39-3.19-1.15-6.57.03-9.84,0l-10.71-.11c-.56,0-.91.24-.67.67-1.66-1.44-3.95-2.57-4.23-4.94l12.59-1.96c2.32.9,3.87-1.89,5.99-2.28l6.43-1.18.76-5.33c1.46-.58,3.12-.29,4.43-1.02l.64-6.36,4.32-.28.32-29.46c1.32-.06,2.72-.09,4.32.15l.72,24.8c.16,5.58.87,11.02.16,16.29-.32,2.35-1.09,4.65-.65,7.25.16.93.68,1.5.52,2.29-.27,1.33-1.53-.19-2.04,1Z"/>
            <path class="cls-105" d="M171.9,267.37c-.1,2.76.74,5.51.05,8.21-3,2.33-7.47,1.71-11.2,2.43-2.6-.84-3.61-3.53-5.5-5.28,2.17-.37,4.93.38,7.06-.88,1.28-.76.63-3.53-.24-4.47,3.26.03,6.65-1.15,9.84,0Z"/>
            <path class="cls-91" d="M162.07,267.37c.87.94,1.53,3.71.24,4.47-2.13,1.26-4.89.51-7.06.88,1.9,1.75-6.63-5.15-4.56-4.8-.24-.43.1-.67.67-.67l10.71.11Z"/>
            <path class="cls-89" d="M156.58,178.53c1.51,2.36-1.9,3.87-2.66,5.85s2.85,3.16,4.1,4.16c.72.78,1.44,2.7,1.41,3.55-1.05,2.31-4.18,10.68-5.91,7.58-.58.61-.68,1.11-.99,1.16-2.3-1.61-7.18-6.51-9.84-5.47-.05-1.31-.18-3.57,1.76-3.88,1.5-.24,2.62-.43,2.8-1.75.6,1.01,1.54.74,2.25.73,1.17-.01,2.18-1.28,1.94-2.62-.17-.97.57-1.92.04-2.57l1.48-6.43c.66-.86,2.84-.42,3.63-.3Z"/>
            <path class="cls-145" d="M130.91,177.84c3.87.64.15,4,2.13,6.57.9.66,2.69-.19,4.07.39.47,2.27-.09,4.35,0,6.26-1.48,0-3.64,1.01-4.99-.19-.53-.47.2-2.26-.68-2.45.34-.84.73-1.46.32-2.44-.34-.81-1.84-.85-2.23-1.64-1.05-2.11-.99-4.66-1.58-6.82.91.45,1.99.16,2.98.32Z"/>
            <path class="cls-95" d="M184.98,266.89c.92,0,1.55.25,1.84.98.37.93-.32,1.7-.08,2.59l-1.67,1.13c-2.22,1.51-4.37,1.92-5.27,4.36l-7.85-.38c.69-2.7-.15-5.45-.05-8.21.51.18,1.12-.38,1.87-.39l11.2-.08Z"/>
            <path class="cls-35" d="M187.4,205.14c-1.28,1.64-.05,3.85-.94,6.2-1.62-.5-3.06-1.28-4.6-1.08.58-2.63-.2-5.71.97-8.37.48-1.1,3.84-.71,4.2.35s-.15,2.13.37,2.9Z"/>
            <path class="cls-132" d="M196.69,262.44c-.17.65-.97,1.9-1.6,2.23-1-.13-1.86.16-3.07.6-.3-.53-.05-1.04-.03-1.48.59.15,1.5.21,1.59-.42.1-.68.33-1.51-.18-2.14-.22-.26-.85-.05-1.26-.13.07-.35-.25-1.31.39-1.57,1.57-.64,2.96-.48,4.62-.51-.26,1.29-.23,2.57-.46,3.42Z"/>
            <path class="cls-2" d="M190.54,271.2c2.36,1.83,5.17,2.08,3.75,3.41-.06.05-6.43.57-7.47-1.34,1.33-.34,1.31-.49.74-1.5,1.04-.1,1.96-.66,2.99-.56Z"/>
          </g>
        </g>
        <g>
          <path class="cls-120" d="M201.62,287.33c.27,4.66,1.18,9.49.26,14.07-4.16,5.96-2.56,5.33-2.76,5.88-1.11,2.97-3.93,4.16-6.69,5.38-1.47-.71-3.73-.29-5.16-1.47l-2.61-2.16c-1.09-.91-.21-2.88-.27-3.76,1.04.07.46,1.25.56,2.72.12,1.81,3.81-.68,5.54,2.4,1.75-6.17,8.14-3.2,5.52-5.79,1.87-1.76,1.27-3.73,1.43-5.51.19-2.06,1.03-10.77-.62-12.11-.6-.49-1.65-.3-2.66-.4-.34-3.09-2.57-4.93-5.8-4.38-.77-1.7-.43-3.22-.15-4.66,1.24.01,3.42.01,4.52.8.74.53.46,2.99,2.14,3.13,4.66.39,2.11,4.78,6.74,5.86Z"/>
          <g>
            <path class="cls-108" d="M77.94,323.37c-.07.39-.45.84-.41,1.26-1.73,0-3.57.37-5.45-.28.06-2.72.35-5.1-.29-7.76-.91.14-2.84-.21-3.45.75-4.32,6.86.81,8.36-1.14,11.46-1.55,2.47-7.22-1.07-8.91-.92l-.38-17.5c.09-.3.6-.92.94-1.26l18.48.42.6,13.82Z"/>
            <path class="cls-141" d="M77.53,324.63c.04.38.27,9.53-1.32,8.76-.45.32-1.15-.19-1.35.54-3.78.17-7.6.71-11.66.02-.56-.85-.39-2.28-1.21-2.51-1.14-.32-2.19.16-2.97-.59-.47-.45-.41-1.57-.88-2.4-1.06-.03-1.74-.86-.53-.61.28.26.43.48.68.04,1.69-.15,7.36,3.38,8.91.92,1.95-3.09-3.18-4.6,1.14-11.46.61-.96,2.54-.61,3.45-.75.64,2.66.36,5.04.29,7.76,1.88.64,3.72.28,5.45.28Z"/>
            <path class="cls-44" d="M82.43,306.13c-.02,2.25-.52,4.52-.05,6.73-1.23,1.56.19,3.01-1.13,6.87-.52.46-.5,1.27-.9,2.08-1.44.07-2.24.52-2.41,1.56l-.6-13.82-18.48-.42c-1.25-.71-.75-2.52-.58-3.73,6.7.94,14.09.31,20.85.38l.41-1.14c.45,1.34,1.65,1.27,2.89,1.49Z"/>
            <path class="cls-40" d="M58.29,327.89c-.25.44-.4.22-.68-.04-1.01-.92-2.04-.06-2.76-1.02-.93-1.23-.69-2.08-.67-3.44.1-6.6-1.59-12.48,3.73-13l.38,17.5Z"/>
            <path class="cls-39" d="M76.21,333.39c.1.59,1.03.87.36,1.35-.57.42-1.06.11-1.63.32-.11-.44-.48-.78-.08-1.13.2-.73.9-.22,1.35-.54Z"/>
          </g>
          <path class="cls-71" d="M204.76,106.95c1.07,5.27,1.79,10.6,2.19,16.3,1.38.21,2.5-.16,3.52-.46-.28,1.76-.16,3.45.49,5.5,2.15-.85,3.85-.88,5.61-.62-.04,1.7-7.07,2.39-9.3,2.43.4,3.27-.72,6.43-.52,9.3-.79,0-1.68.3-2.14.73-1.02.97.25,3.63-.66,4.82s-2.72.11-4.04.88c-1,.58.2,4.9-1.38,5.1-5.12.63-4.4,6.4-9.31,6.22-.57-.02-1.4.03-1.85.31-.93.58-.43,2.99-.84,3.96-.46,1.11-2.71-.21-7.22,1.52l-4.92,1.88c-1.1.42-2.69.68-3.62.77-2.24.23-4.57-.38-6.82-.28.28-.65-.22-1.42.07-1.84.35-.52,1.62-.86,2.17-.8,3.23.36,4.55-1.7,6.59-2.85,2.31-1.3,5.46-.59,7.7-2.62,1.46-1.32,4.21-.18,6.03-1.43l.82-4.08c1.69-.77,3.6-.53,5.51-.54,1.04-1.63.7-3.39,1.22-5.22,1.48-.33,2.86,0,4.32-.64.28-1.98-.18-3.83.29-5.61l4.14-.62-.13-20.18c-.02-3.6.46-6.97.1-10.59-.07-.74.68-1.39,1.11-1.56.24-.09.53.14.88.22Z"/>
          <path class="cls-42" d="M77.41,103.2c1.48.02,2.95,0,4.42.19.08,3.17.78,6.37.51,9.9-.45,6.04.53,11.82-.51,17.39-5.53-1.74-5.62.56-10.04-3.07,1.76-.38,3.49-.92,5.73-.56.37-1.02.63-2.73-.29-3.53-.98-.85-3.24-.52-3.95-1.63-.93-1.46-.03-3.26-.23-4.81-1.52-.62-3.03-.19-4.65-1.1.26-2.79-.27-5.3.44-7.57.4-.83,2.17-.3,3.04-.58,1.66-.53.84-2.15,1.07-3.14-.23-1.81,2.87-1.52,4.46-1.49Z"/>
          <path class="cls-75" d="M70.79,103.04c.44-.02.54-.15,1.05.54.2.27-.17.78.31,1,.26.12.49.39.81.12-.23.98.58,2.6-1.07,3.14-.86.28-2.64-.25-3.04.58-.7,2.26-.18,4.78-.44,7.57,1.62.91,3.13.48,4.65,1.1.2,1.55-.7,3.35.23,4.81.71,1.11,2.97.78,3.95,1.63.93.81.66,2.51.29,3.53-2.24-.36-3.96.18-5.73.56-.48.26-1.88.13-2.21-.4-.5-.8-.55-1.68-1.5-1.93-1.1-.29-.83-2.48-1.57-2.82-1.69-.78-3.13-1.33-3.33-3.63-.45-5.18-.35-10.31.09-15.47l7.51-.33Z"/>
          <path class="cls-72" d="M202.99,91.51c-1.25.27-3.12,1.11-4.21-.13-.8-.91-.29-2.4-.64-3.71-1.98-.73-3.99-.21-5.95-.56-.18-2.2.11-4.57-.71-6.52-.53-1.25-2.84-.66-4.16-.76-.99-1.45-.19-3.04-.49-4.44.97-1.42,1.77-.73,3.36-.78s.71,1.58,1.73,2.28c1.32.9,2.92.28,3.68,1.22.69.85.53,2.02,1.11,3,.31.51,1.57.39,1.96.71,1.24,1.04-.11,3.48.9,4.26.57.44,1.33.58,2.51-.14.6,1.81.85,3.67.92,5.58Z"/>
          <path class="cls-4" d="M211.61,121.99c.65-4.65-.08-9.79,1.24-14.27l8.54.27c1.26,8.33-3.27,6.72-3.65,8.34l-1.42,6.07c-1.68-.16-3.33-.1-4.72-.41Z"/>
          <path class="cls-55" d="M86.75,87.71c.09,1.17.48,3.4-.76,4.17-.81.5-3.59-.17-3.74,1.12-.41,3.48-.5,7.06-.41,10.39-1.47-.19-2.94-.16-4.42-.19l1.03-9.99c.95-.69,2.94-.44,3.33-1.55l1.31-3.79,3.67-.16Z"/>
          <path class="cls-52" d="M186.77,73.49c-1.08.81-2.67.76-4.45-.32-1.05-.64-.48-3.36-.34-4.6,1.32.16,3.1.22,4.48.8.8,1,.16,2.99.31,4.12Z"/>
          <path class="cls-108" d="M178.71,277.45l9.52.09c-.28,1.44-.62,2.96.15,4.66,3.24-.55,5.46,1.29,5.8,4.38,1.01.1,2.07-.09,2.66.4,1.65,1.35.81,10.05.62,12.11-1.44.39-3.28-.52-4.73.25-.53.71-.8,2.47-1.55,2.57l-3.95.5c-1.42.18-1.51,1.78-2.87,1.6-1.53-.2-3.55.77-5.17-.38-.96-.68-.37-2.3-.74-3.43-.34-1.04-1.87-.54-2.8-1.07-.18-1.63-.61-2.82-1.27-3.91.18-3.59,1.45,1.68,1.91-5.51.09-1.43.2-2.76-.12-4.17-.14-.61.5-1.32-.19-1.95-.37-.34-1.3-.63-1.73-1.15-.37-.8-.66-1.66-1.15-2.06-.46-.38-.07-1.67-1.17-2.43,2.64-.23,4.64-.52,6.79-.5Z"/>
          <path class="cls-73" d="M197.46,299.08c-.16,1.79.43,3.76-1.43,5.51,2.62,2.59-3.77-.39-5.52,5.79-1.73-3.08-5.42-.59-5.54-2.4-.1-1.47.48-2.65-.56-2.72.16-.42-.1-.84-.05-1.26,1.36.18,1.46-1.42,2.87-1.6l3.95-.5c.75-.1,1.02-1.86,1.55-2.57,1.45-.77,3.29.14,4.73-.25Z"/>
          <path class="cls-117" d="M176.28,289.71c-.46,7.19-1.73,1.92-1.91,5.51l-2.39-.87c-.64-1.14-.57-2.66-.74-3.93,1.3-1.41,3.3-1.22,5.04-.7Z"/>
          <path class="cls-99" d="M120.24,165.43h-2.35c-.53-1.84-3.05-.03-4.26-1.28s-2.6-2.46-4.45-2.08c-3.19.66-4.57-.96-6.87-2.43-1.74-1.12-5.01-.95-4.54-3.57,1.62-1.39,3.76.5,5.72.63,2.26.15,4.13.35,4.62,3.06,1.6.02,2.68.29,4.02.96,4.03,2.04,9.31,1.11,8.11,4.72Z"/>
          <path class="cls-79" d="M91.78,150.61c-2.5-.12-5.14-2.36-4.38-4.95,1.04.36,2.83-.33,3.96.48,1.27.92.54,3.24.42,4.46Z"/>
          <path class="cls-97" d="M94.96,151.06c.64-.21,1.34-.03,2.09.21.33,1.56.13,2.97-.23,4.3-1.95-.18-4.08-1.63-3.98-3.7.21-1.04,1.34-.52,2.12-.8Z"/>
          <path class="cls-64" d="M176.15,285.54c.33,1.41.22,2.74.12,4.17-1.74-.52-3.75-.71-5.04.7-.59-.09-.49-.65-.26-.9.12-.12-.69-.37-.74-.24.45-.68.19-1.91,1.21-2.23,1.37-.89,3.1-1.24,4.71-1.51Z"/>
          <path class="cls-92" d="M176.15,285.54c-1.61.27-3.34.61-4.71,1.51-.02-.94,0-2.97.77-3.66.96-.87.68-1.75.88-3.01.49.4.78,1.26,1.15,2.06.43.52,1.36.81,1.73,1.15.69.64.05,1.34.19,1.95Z"/>
          <g>
            <path class="cls-66" d="M158.16,165.57c-.97.53-.73,10.42-.57,11.81-.5.26-.3,1.13-1,1.14-.79-.12-2.97-.56-3.63.3l-1.48,6.43c-.76-.32-3.16-.65-3.63.16-.75,1.27-.29,3.16-.6,4.31-.18,1.32-1.3,1.51-2.8,1.75-1.94.31-1.81,2.57-1.76,3.88-1.15.44-3.77,1.42-4.08-.57-.25-1.58-.6-2.94-1.52-3.73-.08-1.91.48-3.99,0-6.26-1.38-.58-3.17.28-4.07-.39-1.97-2.57,1.75-5.92-2.13-6.57,0-1.8.77-4.3-.5-6.05-1.19.03-2.47-.41-3.21-.77-.09-1.79.54-3.69,0-5.5,10.31.9,20.64.52,30.96.06Z"/>
            <path class="cls-122" d="M130.91,177.84c-.98-.16-2.07.12-2.98-.32-.57-2.09-.62-4.35-.74-6.5.74.36,2.02.8,3.21.77,1.28,1.76.51,4.25.5,6.05Z"/>
            <path class="cls-163" d="M151.48,185.25c.53.65-.22,1.61-.04,2.57.24,1.34-.77,2.61-1.94,2.62-.71,0-1.65.28-2.25-.73.31-1.15-.15-3.04.6-4.31.47-.8,2.87-.47,3.63-.16Z"/>
          </g>
          <g>
            <path class="cls-128" d="M140.2,61.16c.8.35,1.64,1.91,3.15,1.75,1.88-.2,2.97-1.94,4.3-2.51,7.6-1.96,15.5-3.15,23.49-2.04,1.09.27.18,3.46.97,3.7l4.95,1.47c.82.84-.04,3.78,2.03,4.41.75.23,2.2.38,2.23-.7.48.17.74.67.67,1.35-.13,1.24-.7,3.96.34,4.6,1.77,1.08,3.36,1.13,4.45.32.08.63-.08,1.26.06,1.89.3,1.41-.5,2.99.49,4.44,1.32.1,3.63-.49,4.16.76.82,1.95.53,4.32.71,6.52,1.96.35,3.98-.17,5.95.56.35,1.31-.16,2.81.64,3.71,1.09,1.24,2.97.4,4.21.13.04,1.07.7,2.31.56,3.73-.42,4.22.45,7.96,1.21,11.71-.34-.08-.63-.32-.88-.22-.43.17-1.18.82-1.11,1.56.36,3.62-.12,6.98-.1,10.59l.13,20.18-4.14.62c-.47,1.79,0,3.63-.29,5.61-1.45.65-2.84.31-4.32.64-.52,1.83-.18,3.59-1.22,5.22-1.91.02-3.82-.22-5.51.54l-.82,4.08c-1.82,1.25-4.58.1-6.03,1.43-2.24,2.03-5.39,1.33-7.7,2.62-2.04,1.14-3.36,3.2-6.59,2.85-.55-.06-1.82.28-2.17.8-.29.42.21,1.19-.07,1.84l-5.79.26c-10.31.46-20.64.84-30.96-.06-2.32-.2-4.64-.07-6.96-.08,1.2-3.6-4.08-2.67-8.11-4.72-1.33-.67-2.41-.94-4.02-.96-.49-2.71-2.36-2.91-4.62-3.06-1.95-.13-4.1-2.03-5.72-.63-.38-.07-.54-.47-.95-.5.36-1.33.56-2.74.23-4.3-.75-.24-1.45-.42-2.09-.21.3-.85-.37-1.14-1.04-1.17-.72-.03-.97.59-1.65.76-.17.06-.33-.02-.49-.03.11-1.22.85-3.55-.42-4.46-1.13-.82-2.92-.13-3.96-.48-1.39-.48-3.89-.39-4.42-2.54-.32-1.27-.65-2.73-.74-3.73-.23-2.67-.9-6-.4-8.71,1.04-5.58.05-11.35.51-17.39.26-3.53-.43-6.73-.51-9.9-.09-3.33,0-6.91.41-10.39.15-1.29,2.93-.61,3.74-1.12,1.24-.77.85-3,.76-4.17,3.71-4.3,3.76-1.66,4.77-3.19.5-.76.15-3.26,1.05-4.4.62-.79,3.63.11,4.53-1.04.61-.77-.2-3.47.9-4.55.78-.76,2.14-.13,3.11-.61,1.82-.91.93-3.51,1.19-5.3l4.79-.62c.47-1.54-.47-3.61.48-4.68,1.1-1.24,3.21-.7,4.55-1.18l.93-4.07c9.31-.37,18.59.21,27.15,3.11Z"/>
            <g>
              <path class="cls-150" d="M181.31,67.23c-.02,1.08-1.47.93-2.23.7-2.07-.63-1.2-3.56-2.03-4.41.82.24,2.84-.31,3.64-.44.91,1.17.53,2.84.62,4.15Z"/>
              <path class="cls-6" d="M122.37,100.1l-26.89-3.73c-1.02-.14-2.38.22-2.85-.38-.64-.8-.34-1.95-.26-2.82.18-1.89,14.09-1.82,17.4-1.13l14.38,3.02c-.08,1.92-.54,3.52-1.78,5.04Z"/>
              <path class="cls-24" d="M182.61,97.41c-6.48.95-12.72,1.99-19.43,2.6-1.11-1.79-1.68-3.16-1.53-5.17l15.91-3.12c4.69-.92,10.2.1,14.64.62.84.51.72,3.56-.18,3.69l-9.42,1.38Z"/>
              <path class="cls-39" d="M193.19,112.87c1.5,12.74-3,7.42-3.13,9.9-.07,1.49-.97,3.05-2.02,3.72-1.49.95-3.2.2-4.25-.18l.3-4.54c.94-.3,1.71-.27,2.54-.68l-.03-12.93c1.06-.11,2.65-.61,3.37.1.87.86-.1,2.54.4,3.91.38,1.04,2.13.98,2.82.69Z"/>
              <path class="cls-103" d="M114.75,126.94c3.66-2.5.82-5.38,4.12-5.95l-.41-17.09c.82-.22,1.35.34,1.31.95-1.62,3.48,1.9,4.17,2.45,5.74,1.69,4.88.02,10.41-.13,15.37-.66.05-10.08,2.27-7.33.98Z"/>
              <path class="cls-21" d="M152.14,149.6c-6.03.21-11.98.38-18.03-.09-.98-.41-1.09-2.95-.84-4.17l19.01-.06c.41,1.42.25,2.51-.14,4.32Z"/>
              <path class="cls-118" d="M167.14,109.54c.24,3.7-.41,7.61.3,11.41-1.19-6.43,3.26,8.98,2.4,5.35-1.37-.2-4.25,1.13-5.52-.49-2.45-3.4-2.9-16.4,1.05-17.59,1.2-.36.52,1.28,1.77,1.31Z"/>
              <path class="cls-134" d="M102.92,138.75c-2.68.82-5.58,1.05-8.55-.29-1.03-.46-1.38-3.58-.54-4.25,2.52-2,5.81-2.21,8.9-1.32.34,1.82,0,3.28.19,5.86Z"/>
              <path class="cls-162" d="M189.88,134.65c-.08-1.1,1.19-.72,1.66-.61,1.01.24,1.2.99,1.07,2.28s-.67,2.86-2.24,2.82c-2.54-.07-5.63.48-8.22-.24-1.09-1.03-.83-4.57.16-5.77.95-.77,3.79-.72,4.57-.05.76,1.19-.28,3.41,1.01,4.62.63.59,1.21-.13,1.62-.44.59-.44.44-1.58.36-2.63Z"/>
              <path class="cls-80" d="M144.19,127.1c1.49.19,1.09,5.23.13,6.37-.51.61-2.53.97-3.18-.06-.98-1.53-.53-4.62.39-5.94.45-.64,2.01-.46,2.66-.38Z"/>
              <path class="cls-39" d="M94.96,151.06c-.77.28-1.91-.24-2.12.8-.41.28-.36-.21-.49-.37-.27-.35-.36-.59-.08-.84.67-.16.92-.79,1.65-.76.67.03,1.34.31,1.04,1.17Z"/>
              <g>
                <path class="cls-77" d="M193.19,112.87c-.69.29-2.44.34-2.82-.69-.5-1.37.47-3.05-.4-3.91-.72-.72-2.31-.21-3.37-.1l.03,12.93c-.83.41-1.6.38-2.54.68l-.3,4.54c-4.16.43-9.7.59-13.96-.02.86,3.63-3.59-11.78-2.4-5.35-.7-3.8-.06-7.71-.3-11.41-.12-1.85.09-3.72.1-6.01l31.53.11c.37,1.84-.27,2.89-1.14,3.95-.51.63-2.08.33-2.96,1.07-1.39,1.16.03,3.44-1.48,4.21Z"/>
                <path class="cls-39" d="M173.08,108.21c1.35.74,1.01,2.97.5,4.08-.55,1.17-2.47,1.36-4.44.89-1.6-.38-1.8-3.99-.5-5.04.92-.74,3.38-.52,4.45.07Z"/>
              </g>
              <g>
                <path class="cls-39" d="M102.91,126.47c.12,1.41-.92,1.46-1.68.26-1.66.39-2.8-.23-3.91-.59-1.33-.44-.6-2.31-1.51-3.33-1.35-1.52-4.39,1.18-3.51-9.46.92-.33,2.85.12,3.58-.82.88-1.13-.42-2.87.4-4.16.46-.73,3.14-.75,3.15.05l.18,12.86c.75.29,2.03.08,2.42.28,1.18.62-.08,4.68.89,4.91Z"/>
                <g>
                  <path class="cls-107" d="M118.46,103.9l.41,17.09c-3.3.57-.45,3.45-4.12,5.95l-11.83-.47c-.97-.23.3-4.28-.89-4.91-.39-.2-1.67,0-2.42-.28l-.18-12.86c-.01-.8-2.69-.78-3.15-.05-.82,1.3.49,3.03-.4,4.16-.73.94-2.66.49-3.58.82-.23-1.91-.02-3.51-.49-5.11-.94-.43-2.43.33-3.33-.47-.94-.84-1.21-2.9-.55-4.13l30.53.25Z"/>
                  <path class="cls-39" d="M106.86,112.54c-1.75,1.28-3.61,1.12-5.44.37-.09-1.51-.73-3.51.2-4.72,1.09-.4,3.48-.48,4.6.02,1.28.57.55,2.41.64,4.33Z"/>
                </g>
              </g>
            </g>
          </g>
        </g>
      </g>
    </g>
  </g>
</svg>