<?xml version="1.0" encoding="UTF-8"?>
<svg id="_レイヤー_2" data-name="レイヤー 2" xmlns="http://www.w3.org/2000/svg" viewBox="0 0 292.14 512">
  <defs>
    <style>
      .cls-1 {
        fill: #917988;
      }

      .cls-2 {
        fill: #917888;
      }

      .cls-3 {
        fill: #a0878e;
      }

      .cls-4 {
        fill: #fdebe1;
      }

      .cls-5 {
        fill: #d9bda3;
      }

      .cls-6 {
        fill: #97838b;
      }

      .cls-7 {
        fill: #8b7f8f;
      }

      .cls-8 {
        fill: #a0a1b4;
      }

      .cls-9 {
        fill: #c3a59a;
      }

      .cls-10 {
        fill: #847b8d;
      }

      .cls-11 {
        fill: #ad908f;
      }

      .cls-12 {
        fill: #d5b6a2;
      }

      .cls-13 {
        fill: #9a9aae;
      }

      .cls-14 {
        fill: #d8bda3;
      }

      .cls-15 {
        fill: #6e657a;
      }

      .cls-16 {
        fill: #f0d5bf;
      }

      .cls-17 {
        fill: #8d8b9b;
      }

      .cls-18 {
        fill: #f5d7d0;
      }

      .cls-19 {
        fill: #6a657b;
      }

      .cls-20 {
        fill: #e0e1ec;
      }

      .cls-21 {
        fill: #c4a899;
      }

      .cls-22 {
        fill: #e7c5a7;
      }

      .cls-23 {
        fill: #9a9bae;
      }

      .cls-24 {
        fill: #cdb0a0;
      }

      .cls-25 {
        fill: #c4aeb2;
      }

      .cls-26 {
        fill: #cdada8;
      }

      .cls-27 {
        fill: #837082;
      }

      .cls-28 {
        fill: #818293;
      }

      .cls-29 {
        fill: #a78c8d;
      }

      .cls-30 {
        fill: #f2cdc9;
      }

      .cls-31 {
        fill: #fdece1;
      }

      .cls-32 {
        fill: #dec1a4;
      }

      .cls-33 {
        fill: #dbdce6;
      }

      .cls-34 {
        fill: #fff;
      }

      .cls-35 {
        fill: #ddbba0;
      }

      .cls-36 {
        fill: #6d697e;
      }

      .cls-37 {
        fill: #bba09f;
      }

      .cls-38 {
        fill: #b3969d;
      }

      .cls-39 {
        fill: #f9ddd4;
      }

      .cls-40 {
        fill: #f6e6d0;
      }

      .cls-41 {
        fill: #fdfdfd;
      }

      .cls-42 {
        fill: #69657b;
      }

      .cls-43 {
        fill: #827c8e;
      }

      .cls-44 {
        fill: #837a8c;
      }

      .cls-45 {
        fill: #f4dcbe;
      }

      .cls-46 {
        fill: #fdfefd;
      }

      .cls-47 {
        fill: #f9dcd3;
      }

      .cls-48 {
        fill: #8e8291;
      }

      .cls-49 {
        fill: #f7d9d1;
      }

      .cls-50 {
        fill: #e1e1ea;
      }

      .cls-51 {
        fill: #f5d2cc;
      }

      .cls-52 {
        fill: #9a7d8a;
      }

      .cls-53 {
        fill: #b4b6c8;
      }

      .cls-54 {
        fill: #f6d9d0;
      }

      .cls-55 {
        fill: #ebc2bf;
      }

      .cls-56 {
        fill: #b3979b;
      }

      .cls-57 {
        fill: #c2a497;
      }

      .cls-58 {
        fill: #f0f4f3;
      }

      .cls-59 {
        fill: #f5d1cb;
      }

      .cls-60 {
        fill: #978fa1;
      }

      .cls-61 {
        fill: #f3cfc9;
      }

      .cls-62 {
        fill: #a18793;
      }

      .cls-63 {
        fill: #9899ad;
      }

      .cls-64 {
        fill: #726e81;
      }

      .cls-65 {
        fill: #e2e2eb;
      }

      .cls-66 {
        fill: #858398;
      }

      .cls-67 {
        fill: #6a667c;
      }

      .cls-68 {
        fill: #6d687d;
      }

      .cls-69 {
        fill: #e0e1ea;
      }

      .cls-70 {
        fill: #867b8b;
      }

      .cls-71 {
        fill: #797487;
      }

      .cls-72 {
        fill: #e1e1eb;
      }

      .cls-73 {
        fill: #b79a92;
      }

      .cls-74 {
        fill: #f3dabd;
      }

      .cls-75 {
        fill: #7f7788;
      }

      .cls-76 {
        fill: #787487;
      }

      .cls-77 {
        fill: #e8c5a7;
      }

      .cls-78 {
        fill: #e2c0b9;
      }

      .cls-79 {
        fill: #f5d0ca;
      }

      .cls-80 {
        fill: #fbfbfd;
      }

      .cls-81 {
        fill: #9999ad;
      }

      .cls-82 {
        fill: #bd9891;
      }

      .cls-83 {
        fill: #9c9cb0;
      }

      .cls-84 {
        fill: #9495a9;
      }

      .cls-85 {
        fill: #b09693;
      }

      .cls-86 {
        fill: #897e8d;
      }

      .cls-87 {
        fill: #8b7f8c;
      }

      .cls-88 {
        fill: #c1bfce;
      }

      .cls-89 {
        fill: #a88d8e;
      }

      .cls-90 {
        fill: #fbe9de;
      }

      .cls-91 {
        fill: #dcbcaf;
      }

      .cls-92 {
        fill: #ad9291;
      }

      .cls-93 {
        fill: #fdece2;
      }

      .cls-94 {
        fill: #78788b;
      }

      .cls-95 {
        fill: #787388;
      }

      .cls-96 {
        fill: #666278;
      }

      .cls-97 {
        fill: #777185;
      }

      .cls-98 {
        fill: #8a7d89;
      }

      .cls-99 {
        fill: #f1c9c5;
      }

      .cls-100 {
        fill: #e0e0ea;
      }

      .cls-101 {
        fill: #e9c4af;
      }

      .cls-102 {
        fill: #907686;
      }

      .cls-103 {
        fill: #afb1c2;
      }

      .cls-104 {
        fill: #6e697d;
      }

      .cls-105 {
        fill: #fefefd;
      }

      .cls-106 {
        fill: #a49196;
      }

      .cls-107 {
        fill: #b9bccd;
      }

      .cls-108 {
        fill: #9d8995;
      }

      .cls-109 {
        fill: #9f8a95;
      }

      .cls-110 {
        fill: #f6d6ce;
      }

      .cls-111 {
        fill: #e3e3ec;
      }

      .cls-112 {
        fill: #eacaac;
      }

      .cls-113 {
        fill: #bc9f96;
      }

      .cls-114 {
        fill: #7d7f91;
      }

      .cls-115 {
        fill: #877c8e;
      }

      .cls-116 {
        fill: #b6b9c5;
      }

      .cls-117 {
        fill: #826f81;
      }

      .cls-118 {
        fill: #fdfefc;
      }

      .cls-119 {
        fill: #f5d8d1;
      }

      .cls-120 {
        fill: #d6b5a0;
      }

      .cls-121 {
        fill: #e4c2b1;
      }

      .cls-122 {
        fill: #797386;
      }

      .cls-123 {
        fill: #ebcdad;
      }

      .cls-124 {
        fill: #ceb2a6;
      }

      .cls-125 {
        fill: #dcc2a9;
      }

      .cls-126 {
        fill: #b89a95;
      }

      .cls-127 {
        fill: #777084;
      }

      .cls-128 {
        fill: #957987;
      }

      .cls-129 {
        fill: #f5d6cf;
      }
    </style>
  </defs>
  <g id="_レイヤー_1-2" data-name="レイヤー 1">
    <g id="_生成オブジェクト" data-name="生成オブジェクト">
      <path class="cls-34" d="M275.22,283.21c.63,1.92-.74,1.76-1.89,1.71-1.56-.06-1.62-1.49-1.02-2.92.14-.34.04-1.56.38-1.7,1.54-.66,2.03,1.38,2.53,2.91Z"/>
      <path class="cls-34" d="M272.1,298.37c.51-1.86,1.31-2.97,1.26-4.94.68,1.56,1.24,4.01-1.26,4.94Z"/>
      <g>
        <g>
          <path class="cls-34" d="M258.78,253.76c-.27.33.03.65.4.49l-.09,41.64-14.82.46c.13-1.65-.79-3.7-.42-5.8-1.06-.94-7.31,1.05-5.84-2.28.67-1.51-.21-3.66-1.84-3.89.34-2.27-.33-4.69.33-7.13.6-2.23.01-4.54.01-6.88l-.02-34.78c2.36-.22,4.35,0,6.58.34l.1,5.57c3.22.83.41,4.7,2.21,5.74,1.5.86,3.41-.05,5.03.41l.37,6c2.74.29,5.43.3,7.99.1Z"/>
          <path class="cls-13" d="M258.78,253.76c-2.56.2-5.25.19-7.99-.1l-.37-6c-1.62-.47-3.52.45-5.03-.41-1.8-1.03,1.01-4.91-2.21-5.74l-.1-5.57c-2.23-.35-4.22-.56-6.58-.34l.02,34.78c0,2.33.59,4.65-.01,6.88-.66,2.45.02,4.86-.33,7.13-2.09-.28-4.26-.07-6.38-.12-.13-.08-.14-.45.07-.46l5.73-.15c-.05-2.11.33-4.56-.55-6.13,1.07-2.15.13-4.48.89-7.54-2.16-.55-4.65-.56-7.16-.16-.21.12.03,1.13-.22,1.17-.61-.14-.64-1.26-.56-1.68.64-1.9-.71-4.67-.4-6.44.96-5.46.43-11.13.47-16.71l.14-20.32-6.93-.31c-.63-1.2-2.02-1.58-3.65-1.49-1.11-1.91-.54-4.34-.76-6.7l-11.34-.06c-.03-2.48-.32-5.02.15-7.49,3.53.05,7.11,0,11.03.48l.47,6.29c1.52-.21,2.61,1.08,3.95,1.19l7.15.56.29,7.07h7.52c.55.95.12,1.93.74,2.66l6.27.33.52,6.74c1.01.21,1.85.61,1.74,1.83-.33,3.46,3.34,2.36,5.44,3.36l.17,6.73,7.81.22c.19,2.41.29,4.51.02,6.5Z"/>
          <path class="cls-1" d="M205.03,209.1c0,.36.28.62.63.69-.46,2.48-.17,5.02-.15,7.49l.07,7-.03,33.95c-4.16.57-8.55-.03-12.7-.04l.24-32.19.25-15.71c2.23-.09,4.82-.78,7.09-.92l4.59-.28Z"/>
          <path class="cls-83" d="M267.95,297.53c-1.41,3.14-1.31,6.96-1.02,10.47-2.57-.1-5.17-.03-7.75.02.41-4.01-.11-8.12-.1-12.12l.09-41.64c-1.58-.9,8.4-.6,8.19-.13l.58,43.41Z"/>
          <path class="cls-34" d="M235.72,480.82c.03.39.2.5.29.71.18.42-.72.8-1.04,1.08.33,2.01.22,4.31.66,6.1l-7.21.05c-.34-2.59-.26-5.11-.09-7.89l7.4-.06Z"/>
          <path class="cls-46" d="M151.42,224.71l6.3,1.04c.48.65,1.16,1.63,2.25,1.46.87,1.93.27,4.29.9,6.56,2.67.41,5.33.37,8.01-.04.93-2.13.08-5.8,1.17-7.26,1.3-1.75,4.07.5,6.02-1.77,10.55-.82,7.03,2.75,17.03,1.31l-.24,32.19-9.78-.02c-.64,2.27-.68,3.96-.58,5.83-1.96-.08-4.06.26-6.3,0l-1.14,5.37c-4.7.43-8.33-.58-9.54-5.74-.84-1.23-3.1-1.62-4.45-2.36-1.23-.67-.64-2.29-1.31-2.8l-4.58-3.46c-1.13-.86-1.28-1.59-1.66-3.04-.44-1.72-3.71-.98-4.48-2.18-1.17-1.82-1.01-4.56-.84-6.4.24-2.55.22-5.07.03-8.03-2.68-.36-5.05-.2-7.66-.06-.55,1.31.18,2.52-.73,3.17-1.94-4.05-1.14-9.13-1.11-13.74,4.11,1.1,8.53-.74,12.68-.05Z"/>
          <path class="cls-72" d="M193.35,210.31l-.25,15.71c-10,1.44-6.47-2.13-17.03-1.31-.49-2.11-.09-4.57.28-6.84,2.18-.43,4.04.44,5.58-.59,1.19-.79.28-3.45.6-4.6.17-.6-.69-2.19.32-2.4,3.53-.75,7.15.17,10.5.03Z"/>
          <path class="cls-100" d="M148.04,210.42c.28,2.19-.36,4.41.24,6.95l3.62.82-.49,6.52c-4.16-.69-8.57,1.15-12.68.05l.11-14.59c3.63-.1,6.35-.32,9.2.25Z"/>
          <path class="cls-107" d="M148.2,243.42c-2.77-1.28-6.85.11-6.81-2.37.03-1.46-1.14-1.68-1.55-2.54.91-.66.18-1.86.73-3.17,2.61-.14,4.98-.31,7.66.06.19,2.96.21,5.48-.03,8.03Z"/>
          <path class="cls-65" d="M259.09,295.89c0,4,.51,8.11.1,12.12l-15.04.26c-.68-3.9-.2-8,.12-11.91l14.82-.46Z"/>
          <path class="cls-8" d="M244.27,296.36c-.32,3.91-.8,8.01-.12,11.91-2.55.04-5.14.81-7.74.74-.7-6.36.65-12.92-.83-19.07,1.07-1.71.31-3.65.6-5.55,1.63.22,2.51,2.37,1.84,3.89-1.48,3.32,4.78,1.34,5.84,2.28-.37,2.11.55,4.16.42,5.8Z"/>
          <path class="cls-118" d="M217.61,224.05c1.63-.09,3.02.28,3.65,1.49l6.93.31-.14,20.32c-1.26-2.2-4.36-1.29-8.13-1.11-3.53,4.25-2.04,7.49-2.94,13.11-.04.24-1.05.09-1.24.11s-.39.08-.33.46c-3.28.13-6.57-.95-9.86-.5l.03-33.95c1.46.45,2.88.26,4.64.16l7.38-.41Z"/>
          <path class="cls-33" d="M228.06,246.17c-.04,5.58.49,11.25-.47,16.71-2.48-.36-5.03-.27-7.52-.03-3.53.34-2.35-4.19-4.65-4.1-.07-.38.14-.44.33-.46s1.2.13,1.24-.11c.9-5.62-.58-8.86,2.94-13.11,3.77-.18,6.87-1.09,8.13,1.11Z"/>
          <path class="cls-50" d="M217.61,224.05l-7.38.41c-1.76.1-3.18.29-4.64-.16l-.07-7,11.34.06c.22,2.36-.35,4.79.76,6.7Z"/>
          <path class="cls-39" d="M229.8,284.27c2.11.06,4.29-.16,6.38.12-.29,1.9.48,3.84-.6,5.55-2.27-.27-5.02-.71-6.99.58-.3-.42-.78-.94-1.63-.9l-5.61.22c.95-1.43.24-3.29.6-5.35,2.79-.23,5.4-.28,7.85-.22Z"/>
          <g>
            <path class="cls-34" d="M183.44,498.63c-7.51,1.17-22.92,1.02-31.6.61-1.26-.06-2.08-2.8-3.44-1.82l-.06-8.47c-2.94-.41-5.17-.13-8.14-.21l-.06-7.77,8.22-.37.08-79.1,34.96-.06.09,79.16,8.02.34c.21,2.61.16,5.13.1,7.7l-8.04.32-.14,9.67Z"/>
            <path class="cls-34" d="M104.55,482.91c-.91-.06-1.81-.35-2.86-.1,0,1.32.19,1.97.83,2.16.86.24,1.39.5,2.02.31-.02,1.01.36,2.04-.12,3.27-2.68.46-5.37.34-7.93.11.23-2.46.54-5.29.43-7.77,2.42.06,4.95-.3,7.46.18.69.13.06,1.39.17,1.85Z"/>
            <path class="cls-28" d="M141.89,347.69c.57,1.43-.42,4.39,1.28,5.39,1.56.91,3.8-.05,5.16,0-.6,2.31,4.8.8,6.57,1.64.31,2.43-.14,4.6.39,6.69-1.81.55-4.36-.57-6.38.39s-.16,4.49,1.23,5.57c1.18.91,2.37,1.4,3.37,2.5,2.03,2.24,3.31,5.4,6.14,6.63,2.19.95,4.9.07,7.47,1.02.74,1.94-.62,4.92.64,6.84,1.35,1.51,4.56.57,6.29.95,7.8,1.74,9.19.15,9.53.15,3.08.04,6.42-.22,9.32.4,1.26.27,2.4.62,4.05.62h31.19s-.02,87-.02,87l-36.11-.06-.02-80.33-52.38.12-.06,80.3-34.51-.11c-.91-2.06-.3-3.85-.69-6.16l.69-102.72c2.82-.67,5.69.2,7.52-3.44,8.4-3.68,5.73-12.38,7-12.99.97-.47,19.37.1,22.34-.38Z"/>
            <g>
              <path class="cls-96" d="M104.95,336.06c.28-.01.54.1.79.09.37.91-1.11.52-1.18.97-.12.71.35,1.51.49,2.02-.78,2.07-.27,4.69-.29,7.21,1.75-.26,2.96.2,4.28.12-.11.64-1.23.41-1.08,1.18-.89-.17-1.99.35-3.22.42-.33,4.22-.07,8.03,0,11.89.03,1.46.3,3.28.3,4.54l-.69,102.72c.39,2.31-.22,4.1.69,6.16l34.51.11.06-80.3,52.38-.12.02,80.33,36.11.06.02-87.01c2.83,0,5.9-.62,8.52.6l-.93,93.76-7.4.06c-.17,2.78-.25,5.3.09,7.89l7.21-.05c1.76,7.27.29,15.12.82,23.27h-52.85s-.16-13.36-.16-13.36l.14-9.67,8.04-.32c.06-2.57.11-5.09-.1-7.7l-8.02-.34-.09-79.16-34.96.06-.08,79.1-8.22.37.06,7.77c2.97.07,5.2-.2,8.14.21l.06,8.47-.16,14.55-52.09.03c.03-8.1-.38-15.77.34-23.35,2.57.23,5.26.35,7.93-.11.49-1.23.11-2.26.12-3.27.01-.78.18-1.63,0-2.36-.11-.46.52-1.71-.17-1.85-2.51-.48-5.04-.12-7.46-.18-2.01-47.71-.43-96.43-.73-144.75,2.92.04,5.85.07,8.76-.07Z"/>
              <g>
                <path class="cls-27" d="M227.91,496.14c-.36,2.61.42,5-.41,7.33l-35.42.02c-.37-2.7-.23-5-.11-7.34h35.93Z"/>
                <path class="cls-117" d="M139.48,495.83c.26,2.94.5,5.13.05,7.59l-34.86.08c-.37-2.53-.26-4.98.09-7.59l14.79.07,19.93-.15Z"/>
                <path class="cls-15" d="M227.91,496.14h-35.93c.13-2.51-.42-4.83.71-7.12,2.1-.37,4.34.37,6.05-.87,6.7.99,13.61.1,20.59.31.54.02.69-.58.83-.91,1.02,2.72,4.45.58,7.83,1.76.34,2.46.23,4.67-.07,6.82Z"/>
                <path class="cls-52" d="M220.14,487.55c-.14.34-.29.93-.83.91-6.98-.21-13.89.68-20.59-.31l.41-6.9,20.9-.03c.27,2.38.23,4.35.1,6.33Z"/>
                <path class="cls-128" d="M132.68,488.39l-20.49.09c-.43-2.54-.06-4.75-.02-7.16l20.48-.02c.12,2.51.18,4.49.03,7.09Z"/>
              </g>
            </g>
            <path class="cls-114" d="M107.96,347.65c1.58.3,3.23.24,5.52-.01,2.34,5.24-4.42,11.96-8.73,12.33-.07-3.87-.33-7.68,0-11.89,1.23-.07,2.32-.59,3.22-.42Z"/>
            <path class="cls-2" d="M109.04,346.46c-1.32.08-2.53-.38-4.28-.12.02-2.52-.49-5.14.29-7.21l9.42-.16c.48,2.52.62,4.68.56,7.12l-5.99.36Z"/>
            <path class="cls-94" d="M155.29,361.4c1.35-.41,3.2.43,4.69.64.5,2.48.18,4.48.3,6.81,1.83.99,7.69.08,7.71,1.97.21,1.79-.78,4.44.3,6.14,1.19,1.86,4.11.68,5.53.42,2.81.84,6.7.99,9.8.97-.17,2.36-.13,4.74-.05,7.11-.35,0-1.73,1.59-9.53-.15-1.73-.39-4.94.56-6.29-.95-1.26-1.92.1-4.9-.64-6.84-2.57-.95-5.28-.07-7.47-1.02-2.83-1.23-4.11-4.39-6.14-6.63-1-1.11-2.2-1.59-3.37-2.5-1.39-1.08-3.29-4.6-1.23-5.57s4.57.16,6.38-.39Z"/>
            <g>
              <path class="cls-36" d="M117.33,335.98l21.92.26c.5.37.79,2.39-.12,2.44l-5.84.36c-.61,2.3-.88,4.87-.1,7.25,3-.14,5.64-.19,8.14.47.1-.78.86-.71.69-.42-.52.9-.29,1.15-.14,1.35-2.97.47-21.37-.09-22.34.38-1.27.61,1.4,9.31-7,12.99-1.82,3.64-4.69,2.78-7.52,3.44,0-1.26-.27-3.07-.3-4.54,4.31-.37,11.07-7.09,8.73-12.33-2.29.26-3.94.31-5.52.01-.15-.77.97-.55,1.08-1.18l5.99-.36c.06-2.45-.08-4.61-.56-7.12l-9.42.16c-.13-.51-.61-1.31-.49-2.02.08-.44,1.56-.05,1.18-.97l11.59-.17Z"/>
              <path class="cls-102" d="M127.99,345.8c-3.1.45-5.9.27-9,.15-.32-2.31-.3-4.34.09-6.8l8.7-.12c.31,2.24.27,4.15.21,6.76Z"/>
            </g>
          </g>
          <path class="cls-31" d="M228.59,290.52l-.33,21.92c-6.61.51-12.81.88-18.96.7-1.63-.94-.95-13.28-.88-16.83.04-2.02.76-5,3.03-5.59,3.31-.86,6.74-.76,9.9-.88l5.61-.22c.85-.03,1.33.48,1.63.9Z"/>
          <path class="cls-79" d="M235.58,289.94c1.48,6.15.13,12.71.83,19.07.24,2.18-.21,4.64-.32,7.01-3.19.33-5.22.36-7.77.97-5.85,1.41-12.17.54-18.05.21-1.21-1.04-.76-2.61-.96-4.06,6.16.18,12.35-.2,18.96-.7l.33-21.92c1.97-1.29,4.71-.85,6.99-.58Z"/>
          <g>
            <path class="cls-81" d="M94.81,231.26c-1.43-.04-2.73.83-3.08,2.75-1.03.64-2.23.52-3.46,1.11l-.71,6.26-6.4.19-.39,11.49c-2.48.51-4.91.23-7.51.48l-.18,17.21-7.62.28.14,23.76c.02,4.21-.45,8.47.21,12.65-2.67-.15-5.36.25-8.43-.32l-.03-36.39c2.61-.42,4.82-.27,7.65-.18l.27-16.8,7.76-.31.63-12.12,7-.34.19-6.37,6.77-.22c.36-3.08.23-5.77-.18-8.79-1.63-.13-2.89-.44-4.21-.8.43-1.31,2.23-.37,3.24-.27,1.84.18,2.58,2.37,3.44,3.81,1.27,2.12,6.63,1,4.88,2.91Z"/>
            <path class="cls-84" d="M96.43,307.75c2.78.01,5.48-.05,8.2.25-.27,2.32.1,4.7.07,7.01l-.2,19.51c0,.75.03,1.21.44,1.55-2.91.14-5.84.11-8.76.07l-.13-20.62-29.83-.38c-.63-2.7-.04-5.25-.42-7.69,10.19.57,20.43.25,30.63.31Z"/>
            <path class="cls-41" d="M117.33,335.98l-11.59.17c-.25,0-.51-.11-.79-.09-.41-.34-.45-.8-.44-1.55l.2-19.51c4.64.58,9.32-.19,14.17-.74,1.45-6.05,10.73-9.39,16.75-8.46-.62,5.35-.42,10.28-1.38,15.25-.31,1.59-1.1,3.04-1.1,4.8.02,6.1-7.72,2.89-13.11,4.29-.65.17-1.59,1.22-2.44,1.51-1.78.6-.85,3.16-.28,4.32Z"/>
            <path class="cls-105" d="M94.81,231.26c1.16,1.93,1.72,3.48,1.69,5.68l-.34,25.4-7.55.3c-.57,2.1-.52,4.26-.14,6.63l23.66-.02c.27,6.1-.09,11.74-.04,17.41l-7.09.55c-.56,1.82-.01,3.58-.94,5.38-4.06-.23-7.53,1.01-11.14,1.92-7.83,1.99-11.25,2.17-19.5,1.21l-7.83-.92-.14-23.76,7.62-.28.18-17.21c2.61-.25,5.04.03,7.51-.48l.39-11.49,6.4-.19.71-6.26c1.24-.6,2.44-.47,3.46-1.11.35-1.91,1.65-2.79,3.08-2.75Z"/>
            <path class="cls-23" d="M105.73,242.74c-.32.23-.71-.52-.8-.3-.12.26-.34,1.05-.34,1.41l-.04,18.06c3.89.28,7.48-.04,11.08-.08l3.95-.05c.22,0,.33-.04.55.05-1.4,1.7-.44,4.11-.6,6.17-.49,6.15-.3,12.38-.02,18.55.09,1.99-.38,3.95.11,6.32,6.23-.09,12.37.23,18.37-.5,1.27-.15,2.27-2.05,4.14-.84-2.02,2.47-.46,6.27-2.36,7.17l-20.59.77-.79,6.82-3.99.57c.05-.35-.19-.51-.35-.67-.38-.37-.72.46-1,.47l-7.82.33c-.68-2.05-.62-4.6-.1-6.84,2.28-.02,4.7,0,7.07-.56l-.11-12.95c-.05-5.67.31-11.31.04-17.41l-23.66.02c-.38-2.37-.43-4.53.14-6.63l7.55-.3.34-25.4c1.07.48,2.53-.39,3.31.37.46.45,7.59,5.84,5.92,5.43Z"/>
            <path class="cls-69" d="M105.73,242.74c1.65,1.01,2.68,2.89,4.2,4.11,1.35,1.08,3.32,1.29,4.32,2.65-.39.92-.16,3.52,1.23,3.56-2.71,3.16,1.06,5.33.16,8.77-3.61.04-7.19.36-11.08.08l.04-18.06c0-.36.22-1.15.34-1.41.1-.22.48.54.8.3Z"/>
            <path class="cls-111" d="M112.09,286.65l.11,12.95c-2.37.56-4.79.54-7.07.56l-8.35.07-.34,7.52c-10.2-.05-20.44.26-30.63-.31-.66-4.18-.19-8.44-.21-12.65l7.83.92c8.25.97,11.67.78,19.5-1.21,3.61-.91,7.07-2.15,11.14-1.92.92-1.79.37-3.56.94-5.38l7.09-.55Z"/>
            <path class="cls-69" d="M139.77,298.7l-.51,37.54-21.92-.26c-.57-1.16-1.5-3.72.28-4.32.85-.29,1.79-1.34,2.44-1.51,5.38-1.4,13.13,1.81,13.11-4.29,0-1.77.79-3.22,1.1-4.8.96-4.97.76-9.9,1.38-15.25-6.02-.93-15.31,2.41-16.75,8.46-4.85.55-9.53,1.31-14.17.74.02-2.3-.35-4.68-.07-7.01,3.85.43,8.76-.98,9.76-1.13l3.99-.57.79-6.82,20.59-.77Z"/>
            <path class="cls-103" d="M105.13,300.15c-.52,2.24-.58,4.79.1,6.84l7.82-.33c.28-.01.62-.84,1-.47.16.16.41.32.35.67-1.01.14-5.92,1.55-9.76,1.13-2.73-.3-5.42-.23-8.2-.25l.34-7.52,8.35-.07Z"/>
            <path class="cls-4" d="M142.51,284.92c-1.29.27-2.81.88-4.04,1.01-6.55.73-12.78-.07-18.96.61-.28-6.17-.47-12.39.02-18.55,2.71.08,5.39-.38,8.28-.75l.08-4.44c-1.51-.08-2.71-.01-3.25-.88h9.34c1.74,0,2.9.28,4.06,1.27,2.76,2.35.31,6.38,2.21,6.56,1.35.13,2.33-.18,3.64.31-.09,4.26.33,8.58-.32,13.1-.11.77-1.17,1.04-1.05,1.74Z"/>
            <path class="cls-47" d="M124.63,261.93c.54.87,1.75.81,3.25.88l-.08,4.44c-2.89.36-5.57.83-8.28.75.16-2.06-.79-4.46.6-6.17,1.44.56,3.04.1,4.5.1Z"/>
            <path class="cls-53" d="M119.58,261.78l-3.95.05c.9-3.44-2.87-5.6-.16-8.77,2.21.07,4.59,2,4.48,4.6-.07,1.58.02,2.93-.37,4.12Z"/>
            <path class="cls-59" d="M138.47,285.94l-.48,6.43c-6,.73-12.14.41-18.37.5-.5-2.38-.02-4.33-.11-6.32,6.18-.68,12.41.11,18.96-.61Z"/>
          </g>
          <g>
            <path class="cls-89" d="M258.73,377.31c.12.56-.95.63-.96,1.04l-.26,7.42c-7.14.77-14.39-.72-20.85,1.3-2.62-1.22-5.69-.6-8.52-.6h-31.19c-1.65.01-2.79-.34-4.05-.61-2.9-.62-6.24-.35-9.32-.4-.08-2.36-.11-4.74.05-7.11l52.08-.36,8.59.17.1,7.03,12.5.16c.34-2.75,0-5.04-.36-7.39.35,0,.8,0,.94-.34.13-.33-.07-.97.63-.96.05.24.38.61.62.65Z"/>
            <path class="cls-127" d="M277.17,361c.21-2.22.27-4.67.29-6.93.09-10.56.61-21.2-.2-31.69-.16-2.08,1.01-4.69,0-6.93l8.89.39-.11,44.68c-3.4.29-6.14.09-8.87.48Z"/>
            <path class="cls-120" d="M18.44,149.81c.18,2.62-.79.95-1.26,4.81-.11.91,1.29.5,1.38,1.53-1.17,0-2.43.02-3.53.51-1.84-1.27-4.19-.23-6.26-.57-.41-.07-.85.04-1.26,0,.26-2.5-.21-5.05.29-7.52,4.57.67,5.81-.6,10.65,1.25Z"/>
            <path class="cls-87" d="M261.07,369.27c-1.89.09,8.95-.16,5.81.48.29,2.39.23,4.76-.08,7.49-2.99.03-5.56.55-8.07.08-.24-.05-.58-.41-.62-.65-.4-2.06-.2-4.21-.17-6.3.25-.11.17-.8.39-.97l2.74-.12Z"/>
            <path class="cls-95" d="M277.17,361l-.71,7.48c-3.3.21-6.24.35-9.12.23-.1-2.33.04-4.66.07-6.99.42-.22.51-.36.99-.38,2.9-.13,5.9.08,8.78-.33Z"/>
            <path class="cls-76" d="M275.45,314.89c-.97.17-1.99.45-2.99.5-1.87.09-3.8-.32-5.66.08.51-2.49.33-5.06.13-7.47-.29-3.51-.4-7.32,1.02-10.47.05,3.44-.17,6.86.06,10.36,1.95.14,3.78.01,5.72.36l.49,5.96c.64.09,1.42-.02,1.23.68Z"/>
            <path class="cls-77" d="M267.34,368.71c0,.22.09.46.04.73-.03.17-.25.35-.49.3,3.14-.64-7.7-.39-5.81-.48.24-1.21-1.6-.53-2.55-.67-.39-1.23-.51-4.52.61-5.53,2.85-.85,5.98-.16,8.27-1.35-.02,2.33-.17,4.66-.07,6.99Z"/>
            <path class="cls-85" d="M275.45,314.89c.65-.11,1.2.55,1.82.58,1.01,2.23-.16,4.84,0,6.93-1.17.12-4.01.84-4.52-.54-.81-2.19.06-4.51-.29-6.46,1-.05,2.02-.33,2.99-.5Z"/>
            <path class="cls-45" d="M189.44,265.26c.41.15.41,1.08,1.16,1.26l25.51.17c.63,2.38,3,2.51,5.15,2.52.19,0,.36-.06.48.15l-.03,9.23c-1.12.42-3.5.8-4.39,1.6l-1.03,4.31c-11.14.52-8.91.18-12,5.52-.77,1.34-2.41,1.23-2.19,3.59.27,2.93.25,6.1.29,9.18-.17.77-.72,1.71-.88.55,1.04.08-6.84-5.7-5.82-5.3-2.4-.94-1.82-3.04-3.24-4.21l-4.4-3.6c-9.1-7.44-3.43-6.46-5.82-9.46-.42-.53-2.48.25-2.79-.37-.72-1.45-2.18-1.81-3.43-2.56-1.43-.85-.58-4.24-.58-5.74l5.71-.85c1.99-.3,1.3-5.89,2.39-6.35,1.35-.56,3.46.65,5.9.36Z"/>
            <path class="cls-12" d="M168.66,275.54c-1.3-.34-1.47,1.76-2.9,1.72-1.1-.03-2.06-.67-2.86.02-.49-.76-1.77-.73-2.29-2.33-1.18-3.61-6.6-5.66-7.62-8.08-.83-1.96-3.22-2.43-4.6-3.91-.43-.46-.04-1.4-.57-1.49-.5-.09-1.22-.09-1.55-.48l-3.16-3.72c-1.42-1.67-3.03-3.14-4.6-4.66l-4.95-4.79c-3.49-3.38-6.63-6.92-10.24-10.07l-2.5-2.18c-2.55-2.23-6.95-7.56-8.81-8.53-2.92-1.52-1.92-4.68-4.69-4.88-1.89-.13-2.01-2.03-3-2.86-.91-.77-9.26-8.79-8.68-8.53-1.98-.91-2.86-2.66-4.32-3.94-1.05-.92-1.95-1.6-3.05-2.68l-13.14-12.94c-.44-.44-1.35-.1-1.57-.5-.28-.52-.1-1.04-.21-1.75-.31-2.09-3.48,1.19-6.22-5.64,1.38-.04,1.45-2.17.91-3.47,8.13,4.37,4.98,5.56,10.71,7.69,1.66.62,2.6,3.05,4.07,4.17,1.77,1.35,3.28,2.64,4.59,4.54.74,1.07,3.25,1.07,3.66,2.47.71,2.44,3.43,2.73,4.49,4.26,1.45,2.09,2.17,2.88,4.48,3.96.92.43,13.99,13.02,13.24,11.94,2.83,4.11,7.1,6.87,10.4,10.25l17.1,17.55,6.28,6,5.07,5.03c2.95,2.92,5.48,5.93,8.37,8.72l4.11,3.97c.79.76,1.92,2.27,2.82,2.79.55.31.32,2.47,1.19,2.33Z"/>
            <path class="cls-123" d="M68.06,179.87c.54,1.31.46,3.43-.91,3.47l-2.55.07c-1.03.03-.21,3.44.71,3.84.2,1.22-.6,2.37-1.71,2.83-1.88-2.11-4.51-3.64-6.75-5.91l-5.58-5.65c-1.24-1.25-6.9-5.91-5.16-7.38-4.36-.49-4.99-3.09-10.15-7.72-1.65-1.48-2.49-3.66-4.34-4.54-.62-.52.09-1.11-.08-1.46-.91-1.9-4.89-.94-4.59-2.4-.23-1.36.66-3.48-.37-4.8-.85-1.09-3.36-.8-4.14.09-1-1.44-2.76-.03-3.99-.5-4.84-1.85-6.08-.58-10.65-1.25.25-1.25-.55-3.91.37-5.1.47-.54,1.85-1.57,2.51-1.99,5.95-.28,16.22-1.07,21.74,1.19.42,2.01-.59,4.72,1.03,5.97s4.43.04,6.3.68c.65,1.61.12,4.13,1.44,5.53,1.1,1.15,3.51.59,4.87,1.46.41,1.67-.35,4.94.88,5.36l3.81,1.3c-1.67-.57,9.74,10.47,12.19,12.29,1.77,1.31,3.08,3.54,5.11,4.63Z"/>
            <path class="cls-60" d="M229.8,284.27c-2.45-.07-5.06-.01-7.85.22-.35,2.06.36,3.92-.6,5.35-3.16.12-6.59.02-9.9.88-2.27.59-2.99,3.58-3.03,5.59-.07,3.56-.75,15.9.88,16.83.2,1.45-.25,3.02.96,4.06-.35-.02-.7.07-.94,0,.09.03-1.04-2.02-1.22-2.11-.4-.2-1.28.07-1.78.39l-2.45,1.58-1.53-1.65c.14-6.65,1-4.74-2.43-8.56,1.29-.75,1.12-2.21,1.62-3.5.15,1.16.71.21.88-.55-.04-3.09-.01-6.26-.29-9.18-.22-2.36,1.41-2.25,2.19-3.59,3.09-5.34.86-5,12-5.52l1.03-4.31c.89-.8,3.27-1.19,4.39-1.6l6.45-.06c2.34-.02,4.72.17,6.88-.99.88,1.57.51,4.02.55,6.13l-5.73.15c-.21,0-.19.38-.07.46Z"/>
            <path class="cls-92" d="M192.85,258.21c4.15,0,8.54.6,12.7.04,3.29-.45,6.58.62,9.86.5,2.3-.09,1.12,4.44,4.65,4.1.6.87.24,2.09.41,3.24.13.92,1.8,1.92.79,3.12-2.15,0-4.51-.14-5.15-2.52l-25.51-.17c-.76-.18-.75-1.11-1.16-1.26,2.24-1.54-5.08-1.17-6.94-1.24-.1-1.87-.05-3.56.58-5.83l9.78.02Z"/>
            <path class="cls-21" d="M168.66,275.54c1.55-.24,1.56,1.25,2.49,2.2,1.32,1.34,3.29,2.12,4.17,4.16.23.5,1.09,1.38,1.47,1.75-.31,2.17,1.37,4.43,3.58,5.1,3.19,7.9,1.32,3,2.51,4.37.53.61.62,1.87,1.58,1.53.54-.19,1-1.04.89-1.63,1.71.02,2.4,1.45,3.38,2.99s3.46,2.2,4.16,3.82,2.02,1.87,3.23,3.11c1.29,1.32,2.14,3.3,3.77,3.91,3.43,3.82,2.57,1.92,2.43,8.56-1.32.25-.98,1.76-.84,2.95-.98.41-.79-1.15-1.31-1.22,2.17-4.86-2.39-4.76-7.02-10.6-1.32-1.66-2.96-2.87-4.37-4.32-.49-.5-4.4-5.92-5.86-5.19-.55.28-1.33.83-1.51,1.62-.06-.57-1.23-.5-1.66-.84-.05-1.48-1.74-2.08-2.71-2.88-1.38-1.14-2.67-4.86-5-4.9-.51,0,.05-1.21-.22-1.34-.62.08-1-.04-1.23-.33-.47-.59-.19-1.2.36-1.65-1.04.09-2.89-.06-2.79-1.16s.23-1.89-.12-2.69c-.45-1.05-1.93-.62-2.42-1.36l-2.74-4.22c.8-.69,1.75-.05,2.86-.02,1.43.04,1.6-2.06,2.9-1.72Z"/>
            <g>
              <path class="cls-70" d="M98.71,199.41c3.28,3.28-1.26,1.93,6.05,3.4-.79,3.29,1.37,4.62,3.83,6.01,1.46.82,2.34,2.31,4.34,2.49.47.04.77-.82,1.46-1.04l9.42-.65c.11-2.87.03-5.41-.09-7.86,4.28.51,8.48.75,13.21.75l61.81-.11.36-7.75,8.2-.45c.29-.02.77.14.7.51-.42,2.07.4,4.44-.48,6.63-.39.95-2.35.64-3.15.73-1.31.13-3.46-.19-5.45.2.06,2.4-.1,4.78.2,6.87.37.22,1.11-.03,1.31.27-2.27.14-4.86.83-7.09.92-3.35.14-6.98-.78-10.5-.03-1.01.22-.16,1.8-.32,2.4-.48.06-1.27.03-1.14-.32.15-.44.29-1.77,0-2.01-1.49-1.2-4.18.12-5.76,0-7.26-.57-14.65-.16-22.36-.26-.89,2.04-.07,3.76-.29,5.55-2.08.86-.18-3.4-1.19-5.05s-2.73.03-3.73-.17c-2.85-.56-5.57-.35-9.2-.25l-.11,14.59c-.03,4.62-.83,9.7,1.11,13.74.41.86,1.58,1.07,1.55,2.54-.05,2.49,4.04,1.1,6.81,2.37-.17,1.84-.33,4.58.84,6.4.78,1.2,4.04.46,4.48,2.18.37,1.45.52,2.19,1.66,3.04l4.58,3.46c.67.51.07,2.12,1.31,2.8,1.35.73,3.61,1.12,4.45,2.36,1.21,5.17,4.84,6.17,9.54,5.74l1.14-5.37c2.24.25,4.34-.08,6.3,0s9.18-.3,6.94,1.24c-2.44.28-4.55-.92-5.9-.36-1.09.45-.4,6.05-2.39,6.35l-5.71.85c0,1.51-.84,4.89.58,5.74,1.25.75,2.71,1.11,3.43,2.56.31.62,2.37-.16,2.79.37,2.39,3-3.27,2.02,5.82,9.46l4.4,3.6c1.42,1.17.84,3.27,3.24,4.21-1.02-.4,6.86,5.38,5.82,5.3-.5,1.29-.33,2.76-1.62,3.5-1.62-.61-2.47-2.59-3.77-3.91-1.21-1.24-2.51-1.45-3.23-3.11s-3.2-2.3-4.16-3.82-1.67-2.97-3.38-2.99c-1.27-.01-1.19-1.63-1.61-2.44-4.64-2.45-1.63-2.53-3.56-3.77-.36-.23-1.64,0-1.82-.4-.56-1.19-.72-2.27-1.58-2.77-.38-.37-1.24-1.25-1.47-1.75-.88-2.04-2.86-2.82-4.17-4.16-.93-.95-.94-2.44-2.49-2.2-.87.13-.65-2.02-1.19-2.33-.9-.52-2.03-2.03-2.82-2.79l-4.11-3.97c-2.89-2.79-5.42-5.79-8.37-8.72l-5.07-5.03-6.28-6-17.1-17.55c-3.3-3.39-7.57-6.14-10.4-10.25.74,1.08-12.32-11.52-13.24-11.94-2.31-1.08-3.03-1.86-4.48-3.96-1.06-1.53-3.78-1.81-4.49-4.26-.41-1.4-2.92-1.4-3.66-2.47-1.31-1.9-2.82-3.19-4.59-4.54-1.47-1.12-2.41-3.55-4.07-4.17-5.72-2.14-2.58-3.33-10.71-7.69-2.03-1.09-3.35-3.32-5.11-4.63-2.45-1.82-13.86-12.86-12.19-12.29l-3.81-1.3c-1.24-.42-.47-3.69-.88-5.36-1.36-.87-3.77-.31-4.87-1.46-1.33-1.39-.8-3.92-1.44-5.53-1.87-.64-4.69.56-6.3-.68s-.61-3.97-1.03-5.97c-5.52-2.26-15.79-1.47-21.74-1.19-.66.42-2.04,1.45-2.51,1.99-.91,1.2-.11,3.85-.37,5.1-.5,2.48-.03,5.02-.29,7.52-.06.61.06,1.29.13,1.83.09.7.02,2.33-.54,2.92-2.07.5-4.39.3-6.62,0-.72-4.55-.57-15.21.14-19.7,2.25-.46,4.32-.15,6.62-.31.42-2.02.22-3.76.29-6.35,8.36-.52,16.52-.58,24.8.4l.35,7.05c2.52.53,4.95-.13,7.36.74l.19,6.05c2.31.25,4.25.68,6.23,1.44l.07,5.03c2.34.44,4.56.47,6.85,1.21l.64,5.1c1.28.94,3.4.19,4.43,1.43.56.67-.15,2.2.97,2.54,1.03.31,3.28.62,3.63,1.97,1.51,5.78,4.69-.08,6.18,8.45,2.31.77,4.64,2.08,6.38,4.08.75.87,3.11.38,3.98,1.78.69,1.1.21,3.58,1.69,3.88l4.83,1.01c.92,1.09,1.05,3.8,2.38,4.46,1.96.97,2.31,2.45,3.55,3.9.83.97,3.68.04,4.23,2.17.17.65.48,1.42.8,1.87.36.5,1.03.56,1.62.39Z"/>
              <path class="cls-34" d="M8.77,156.08c.29.3-.14.91-.12,1.4.02.33-.6.67-1.01.43-.07-.54-.2-1.23-.13-1.83.42.04.85-.07,1.26,0Z"/>
              <path class="cls-20" d="M129.45,227.74c-1.08.07-6.02-4.35-5.8-4.03-1.17-1.79-.09-4.56-.33-6.59l6.13-.2c.32,3.58.14,6.89,0,10.82Z"/>
              <path class="cls-5" d="M185.36,293.02c.1.59-.35,1.44-.89,1.63-.96.34-1.05-.92-1.58-1.53-1.2-1.38.68,3.52-2.51-4.37-2.21-.66-3.89-2.92-3.58-5.1.86.49,1.02,1.57,1.58,2.77.18.39,1.46.16,1.82.4,1.93,1.24-1.08,1.32,3.56,3.77.41.8.33,2.42,1.61,2.44Z"/>
            </g>
            <path class="cls-73" d="M22.43,150.31c-.29,1.2-.84,3.52.04,4.69.99,1.33,3.33.37,4.47.02-.3,1.46,3.69.5,4.59,2.4.17.35-.55.94.08,1.46-1.32,0-1.44,1.22-1.57,2.07-.26,1.7,1.32,1.18,1.73,1.95,1.1,2.06,8.25,6.51,9.84,9.78.77,1.59,3.43,2.18,3.76,4.04-.7.94-1.68.55-2.09,1.43-.32.67-5.51.02-6.29-.93-1.16-1.42-.66-5.75-5.21-5.1-1.42.21-2.47-.07-3.41-.96-.57-.54-.52-1.92-.47-2.85.11-2.08-.96-2.08-2.04-2.99-.98-.82-2.15-1.89-3.33-2.19l-.38-6.69c-1.29-.17-2.49-.31-3.59-.31-.09-1.02-1.49-.62-1.38-1.53.48-3.86,1.45-2.19,1.26-4.81,1.23.47,2.99-.93,3.99.5Z"/>
            <path class="cls-24" d="M97.06,218.42c1.63,2.41,5.14,4.72,5.15,4.81.45,4.75,2.19,2.64,1.17,3.94-.6.77.14,2.23.59,2.82l-9.27-8.43-1.96-2.65c2.2,2.96-26.1-25.4-29.16-28.83,1.11-.46,1.91-1.6,1.71-2.83,1.46.24,2.14,1.06,3.42,2.29l9.77,9.37,6.19,6.47,5.33,5.29c2.11,2.1,3.92,3.97,5.42,6.48.36.59,1.35.88,1.62,1.27Z"/>
            <path class="cls-113" d="M128.84,255.4c-.31-2.68-2.9-3.79-4.76-5.55-2.45-2.31-4.81-4.41-7.13-6.98-1.21-1.34-3.18-1.84-3.23-3.65,1.74.11,2.29-1.31,2.9-2.71-.42-.51,7.03,5.39,7.2,6.72.52,4.17,5.45,2.51,5.02,6.44-.4,3.65,4.01,1.38,4.91,4.64.28,1,.96,2.87-.57,3.39-1.5-.43-2.83-2.13-4.34-2.3Z"/>
            <path class="cls-9" d="M116.61,236.51c-.61,1.4-1.17,2.83-2.9,2.71,0,.31-7.88-6.87-9.72-9.24-.46-.58-1.2-2.05-.59-2.82,1.02-1.3-.72.81-1.17-3.94,0-.09-3.52-2.4-5.15-4.81.72-.16,1.15-.44,1.67.2,1.83,2.26,4.61,3.65,6.67,5.8l8.81,9.2,2.39,2.88Z"/>
            <g>
              <path class="cls-6" d="M31.61,158.88c1.85.88,2.69,3.06,4.34,4.54,5.16,4.62,5.79,7.23,10.15,7.72-1.73,1.47,3.93,6.13,5.16,7.38l5.58,5.65c2.24,2.26,4.86,3.79,6.75,5.91,3.06,3.43,31.36,31.8,29.16,28.83l1.96,2.65,9.27,8.43c1.85,2.37,9.73,9.55,9.72,9.24.05,1.81,2.02,2.31,3.23,3.65,2.32,2.57,4.68,4.67,7.13,6.98,1.86,1.76,4.46,2.87,4.76,5.55-2.69,3.02-7.13-3.9-9.81-4.94.72-2.34-.55-2.38-2.03-3.03-1.59-.69-1.86.84-2.75,2.07-1-1.36-2.96-1.57-4.32-2.65-1.51-1.21-2.55-3.09-4.2-4.11,1.67.41-5.47-4.98-5.92-5.43-.77-.76-2.23.11-3.31-.37.03-2.2-.53-3.75-1.69-5.68,1.75-1.91-3.61-.79-4.88-2.91-.86-1.44-1.6-3.63-3.44-3.81-1.01-.1-2.81-1.04-3.24.27-2.11-.59.14-4.49-2.81-5.26-3.69-.97,1.22-2.33-6.7-3.22l-.88-5.48c-1-.47-3.4.12-3.95-1.08-1.09-2.39-2.72-3.27-4.45-4.89-1.29-1.21-2.03-2.65-3.59-3.48-.92-.49-1.54-1.79-2.4-2.61l-5.61-5.38c-2-1.92-3.63-4.11-5.96-5.7-.76-.52-.17-2.02-.71-2.74-.74-.99-7-1.87-6.43.59-.45-.49-1.28-1.24-.38-2.73-.32-.64,7.33,2.33,6.35-1.29-.45-1.67-.67-3.27-2.45-3.37.42-.88,1.4-.49,2.09-1.43-.33-1.86-2.99-2.46-3.76-4.04-1.59-3.27-8.74-7.72-9.84-9.78-.41-.77-1.99-.25-1.73-1.95.13-.85.25-2.08,1.57-2.07Z"/>
              <path class="cls-82" d="M56.21,187.8c.61.32.35.64-.32.7-1.35-.09-1.17-.79.32-.7Z"/>
            </g>
            <g>
              <path class="cls-42" d="M18.56,156.14c1.1,0,2.31.14,3.59.31l.38,6.69c1.18.3,2.36,1.37,3.33,2.19,1.08.91,2.15.91,2.04,2.99-.05.93-.1,2.3.47,2.85.94.89,1.99,1.17,3.41.96,4.55-.66,4.06,3.68,5.21,5.1.77.95,5.97,1.6,6.29.93,1.78.1,1.99,1.71,2.45,3.37.98,3.62-6.66.65-6.35,1.29-.9,1.49-.07,2.24.38,2.73-.42,1.99.87,9.01-2.82,10.24-2.93.98-6.22.96-9.15.35-6.42-1.34-3.33-7.74-4.65-8.55-.48-.3-7.35,1.13-8.96-1.15-1.7-2.41-.1-6.16-.41-8.82-2.39-.77-5.16.47-7.39-.88-1.76-1.06-2.03-5.03-.8-6.36,1.88-2.03,4.83-1.85,7.4-2.42,2.91-4.16,1.85-6.66,2.05-11.3,1.1-.49,2.36-.51,3.53-.51Z"/>
              <path class="cls-58" d="M20.41,170.27c.35-.21.65-.25,1.06-.21.39.04.61.81.24,1.01-.27.14-.87.61-1.21.48-.4-.16-.43-1.06-.09-1.27Z"/>
              <path class="cls-80" d="M27.24,184.99c.21.56-.48.74-.67.26-.07-.16-.4-.3-.57-.59-.11-.2.28-.58.55-.35-.07.18.19,1.01.69.67Z"/>
              <path class="cls-80" d="M31.74,179.2c0-.21.24-.73-.05-1.14.96-.17.99,1.18.05,1.14Z"/>
              <path class="cls-80" d="M28.84,175.84c-.29.29-.72.21-1.04,0,.07-.7.39-.83.78-.71.24.08.42.37.26.7Z"/>
            </g>
            <path class="cls-126" d="M227.98,269.32c-.07.43-.04,1.54.56,1.68l-.38,7.51-6.45.06.03-9.23,6.24-.03Z"/>
            <path class="cls-66" d="M235.04,277.52c-2.15,1.16-4.53.96-6.88.99l.38-7.51c.25-.05,0-1.05.22-1.17,2.51-.4,5-.39,7.16.16-.76,3.05.19,5.39-.89,7.54Z"/>
            <path class="cls-43" d="M227.59,262.88c-.31,1.76,1.04,4.54.4,6.44l-6.24.03c-.12-.21-.29-.14-.48-.15,1.01-1.2-.66-2.2-.79-3.12-.16-1.15.19-2.37-.41-3.24,2.5-.24,5.04-.33,7.52.03Z"/>
            <path class="cls-74" d="M149.65,286.01c.29,1.9,2.74,2.28,3.72,3.58,2.77,3.67,9.66,6.08,13.29,10.17l2.91,3.27c-1-1.13,10.04,9.27,9.03,8.47,4.32,3.43,8.1,7.43,12.09,11.43l14.89,14.93c.34.34.31,1.32.42,1.59-.18-.46-3.1,2.51-3.28,3.81,2.51,4.71.64,1.17,4,3.98.89.74,3.91.85,4.58-.08.58-.8,1.42-1.94,2.29-2.83l6.59-6.81c.89-.91,1.4-1.81,2.81-1.82,1.14.13,3.29.92,4.5-.1,1.07-1.04.49-3.72.14-5.01,2.07-1.51.28-5.37,1.12-8.38l7.88-.48c3.94-.24,7.84.28,12.12.1.49-2.3.88-4.41.03-6.19l16.92-.23c.33-.22.74.12,1.11.04,1.86-.39,3.79.01,5.66-.08.35,1.94-.52,4.26.29,6.46.51,1.38,3.35.66,4.52.54.81,10.49.28,21.13.2,31.69-2.93.36-5.63.71-9.15.04-.2,2.51-.96,5.04.08,7.22-.49.02-.57.16-.99.38-2.28,1.19-5.42.5-8.27,1.35-1.12,1-1,4.3-.61,5.53.95.14,2.79-.53,2.55.67l-2.74.12c-.22.17-.14.86-.39.97-3.75-.74-8.4-.21-12.62-.14-1.39,1.44-1.37,5.39-.09,6.8.65.72,2.83-.52,2.54.94-1.15,0-2.31.22-3.47.2l-8.59-.17c1.01-.04.86-7.55.23-8.21l-33.25.1c-6.26.02-12.29.63-18.43-.68l-4.48-3.11c-1.43-.99-2.24-1.88-4.24-2.22-.97-.74-.71-2.72-1.46-3.8-3.62.75-4.57-1.84-6.11-4.1-1.39-2.03-5.36-1.79-6.69-4.11-1.07-1.86,0-4.42-.78-6.38-.68-1.72-2.69-2.63-3.25-4.26l-1.58-4.63c-2.11-.23-3.07-1.83-4.32-3.32-.6-.7-2.1-.72-2.85-1.05l.04-45.62c0-.64.12-1.25.45-.93.22.21.32.47.66.32Z"/>
            <path class="cls-121" d="M235.71,377.99l-52.08.36c-3.11.02-6.99-.13-9.8-.97.45-1.29.98-4.44-.29-5.5s-4.1-.32-5.55-1.06c-.02-1.9-5.88-.99-7.71-1.97-.12-2.33.2-4.33-.3-6.81-1.49-.21-3.34-1.05-4.69-.64-.53-2.09-.08-4.26-.39-6.69-1.77-.84-7.17.67-6.57-1.64l.17-20.84c.75.33,2.25.34,2.85,1.05,1.24,1.49,2.2,3.09,4.32,3.32l1.58,4.63c.56,1.63,2.56,2.54,3.25,4.26.78,1.96-.29,4.52.78,6.38,1.34,2.32,5.31,2.08,6.69,4.11,1.55,2.26,2.49,4.85,6.11,4.1.75,1.08.5,3.06,1.46,3.8,2,.34,2.8,1.23,4.24,2.22l4.48,3.11c6.15,1.31,12.17.7,18.43.68l33.25-.1c.63.65.78,8.17-.23,8.21Z"/>
            <path class="cls-112" d="M257.94,370.36c-.03,2.08-.23,4.23.17,6.3-.7,0-.5.64-.63.96-.14.35-.59.34-.94.34h-8.77c.29-1.45-1.88-.22-2.54-.94-1.28-1.41-1.3-5.36.09-6.8,4.22-.07,8.87-.6,12.62.14Z"/>
            <path class="cls-75" d="M247.77,377.96h8.77c.36,2.35.7,4.64.36,7.39l-12.5-.16-.1-7.03c1.15.02,2.32-.2,3.47-.2Z"/>
            <path class="cls-3" d="M266.93,307.99c.2,2.41.38,4.97-.13,7.47-.36.08-.77-.27-1.11-.04-1.71-1.16-4.19-.25-6.54-.59-1.2-2.24-.17-4.74.04-6.82,2.58-.04,5.17-.11,7.75-.02Z"/>
            <path class="cls-22" d="M277.46,354.08c-.02,2.26-.08,4.7-.29,6.93-2.88.41-5.88.2-8.78.33-1.03-2.17-.28-4.71-.08-7.22,3.51.67,6.22.32,9.15-.04Z"/>
            <path class="cls-29" d="M149.65,286.01c-.33.15-.44-.11-.66-.32-.33-.32-.45.29-.45.93l-.04,45.62-.17,20.84c-1.36-.06-3.59.91-5.16,0-1.7-.99-.72-3.95-1.28-5.39-.16-.2-.38-.45.14-1.35.17-.29-.59-.35-.69.42-2.51-.66-5.15-.61-8.14-.47-.78-2.38-.51-4.95.1-7.25l5.84-.36c.92-.06.63-2.08.12-2.44l.51-37.54c1.9-.9.34-4.7,2.36-7.17-1.87-1.22-2.87.68-4.14.84l.48-6.43c1.23-.14,2.75-.74,4.04-1.01.31,1.86.11,3.54-.23,5.86,1.64-1.16,3.14-1.87,4.26-3.46-.83-.92-1.44-1.39.09-1.32.03-1.07.27-1.43.92-.57.27-.33.62-.58,1.16-.63.95-.09.83.42.95,1.2Z"/>
            <path class="cls-98" d="M26.94,155.02c-1.14.35-3.47,1.31-4.47-.02-.88-1.18-.33-3.49-.04-4.69.77-.89,3.29-1.18,4.14-.09,1.03,1.32.14,3.44.37,4.8Z"/>
            <path class="cls-14" d="M200.19,317.13c-.97-.12-1.91-1.29-2.76-2.14l-4.68-4.64c-.94-.94-1.43-1.54-2.31-2.45l-2.56-2.63c-1.26-1.29-2.81-1.85-4.69-4.97-.45-.75-1.68-.73-1.77-1.66.18-.79.96-1.34,1.51-1.62,1.45-.73,5.37,4.69,5.86,5.19,1.41,1.44,3.05,2.65,4.37,4.32,4.63,5.84,9.19,5.74,7.02,10.6Z"/>
            <path class="cls-101" d="M236.63,321.74c-.05-1.75-.23-3.42.22-5.53l11.93-.56c.85,1.79.46,3.9-.03,6.19-4.27.17-8.18-.34-12.12-.1Z"/>
            <g>
              <path class="cls-115" d="M67.15,183.34c2.74,6.83,5.91,3.55,6.22,5.64.11.71-.07,1.22.21,1.75.22.41,1.13.07,1.57.5l13.14,12.94c1.1,1.08,2,1.76,3.05,2.68,1.46,1.27,2.34,3.03,4.32,3.94-.58-.27,7.77,7.76,8.68,8.53.98.83,1.11,2.73,3,2.86,2.77.2,1.77,3.36,4.69,4.88,1.86.96,6.26,6.3,8.81,8.53l2.5,2.18c3.6,3.15,6.74,6.69,10.24,10.07l4.95,4.79c1.57,1.52,3.19,2.99,4.6,4.66l3.16,3.72c.33.39,1.05.39,1.55.48.53.09.14,1.03.57,1.49,1.38,1.49,3.77,1.95,4.6,3.91,1.02,2.42,6.44,4.47,7.62,8.08.52,1.6,1.8,1.57,2.29,2.33l2.74,4.22c.48.74,1.96.31,2.42,1.36.35.8.21,1.54.12,2.69s1.75,1.25,2.79,1.16c-.55.45-.83,1.06-.36,1.65.23.29.61.41,1.23.33.27.13-.29,1.33.22,1.34,2.32.04,3.62,3.77,5,4.9.97.8,2.66,1.4,2.71,2.88.44.33,1.61.26,1.66.84.09.92,1.31.91,1.77,1.66,1.88,3.12,3.43,3.68,4.69,4.97l2.56,2.63c.88.91,1.37,1.51,2.31,2.45l4.68,4.64c.85.85,1.8,2.01,2.76,2.14.51.06.33,1.63,1.31,1.22,2.47,3.72,9.26,9.64,13.32,13.19.38.33,1.52-1.01,1.64-1.49.16-.66-.72-1.57-1.44-2.08-2.44-1.71-4.17-3.82-6.12-5.99-1.68-1.87-4.11-2.73-5.03-4.93l2.45-1.58c.5-.32,1.38-.59,1.78-.39.18.09,1.3,2.13,1.22,2.11.24.07.59-.02.94,0,5.88.33,12.2,1.2,18.05-.21,2.55-.61,4.58-.64,7.77-.97.11-2.37.56-4.83.32-7.01,2.61.07,5.19-.7,7.74-.74l15.04-.26c-.21,2.08-1.24,4.58-.04,6.82,2.35.34,4.84-.57,6.54.59l-16.92.23-11.93.56c-.44,2.1-.26,3.78-.22,5.53l-7.88.48c-.84,3.01.95,6.87-1.12,8.38-.35-.52-5.46,4.8-4.64,5.1-1.41.01-1.92.9-2.81,1.82l-6.59,6.81c-.87.89-1.71,2.03-2.29,2.83-.67.93-3.69.82-4.58.08-3.37-2.81-1.49.73-4-3.98.18-1.3,3.1-4.27,3.28-3.81-.11-.28-.08-1.26-.42-1.59l-14.89-14.93c-3.99-4-7.76-8-12.09-11.43,1.01.8-10.04-9.6-9.03-8.47l-2.91-3.27c-3.63-4.08-10.52-6.5-13.29-10.17-.98-1.3-3.43-1.69-3.72-3.58-.12-.78,0-1.29-.95-1.2-.54.05-.9.3-1.16.63-.65-.85-.89-.5-.92.57-1.52-.07-.92.4-.09,1.32-1.12,1.58-2.62,2.29-4.26,3.46.34-2.32.54-4,.23-5.86-.11-.7.94-.97,1.05-1.74.65-4.52.24-8.84.32-13.1-1.32-.5-2.29-.18-3.64-.31-1.9-.19.55-4.21-2.21-6.56-1.16-.99-2.32-1.28-4.06-1.28h-9.34c-1.46,0-3.06.47-4.5-.09-.23-.09-.34-.06-.55-.05.39-1.19.3-2.55.37-4.12.12-2.6-2.27-4.52-4.48-4.6-1.39-.05-1.61-2.64-1.23-3.56.9-1.23,1.17-2.76,2.75-2.07,1.49.65,2.75.69,2.03,3.03,2.68,1.04,7.12,7.97,9.81,4.94,1.51.16,2.84,1.86,4.34,2.3,1.53-.52.84-2.39.57-3.39-.9-3.26-5.32-.99-4.91-4.64.44-3.94-4.5-2.27-5.02-6.44-.17-1.33-7.62-7.23-7.2-6.72l-2.39-2.88-8.81-9.2c-2.06-2.15-4.84-3.54-6.67-5.8-.52-.65-.95-.36-1.67-.2-.27-.4-1.26-.68-1.62-1.27-1.51-2.5-3.31-4.38-5.42-6.48l-5.33-5.29-6.19-6.47-9.77-9.37c-1.28-1.23-1.96-2.05-3.42-2.29-.92-.39-1.74-3.81-.71-3.84l2.55-.07Z"/>
              <path class="cls-125" d="M203.87,317.05c.92,2.2,3.35,3.06,5.03,4.93,1.95,2.17,3.68,4.28,6.12,5.99.72.51,1.6,1.42,1.44,2.08-.11.47-1.26,1.82-1.64,1.49-4.06-3.55-10.86-9.47-13.32-13.19-.15-1.19-.49-2.7.84-2.95l1.53,1.65Z"/>
              <path class="cls-32" d="M173.2,300.97c.17-1.15.86-2.16,1.88-2.73.37,1.16,2.67,1.36,3.14,2.24.64,1.21,1.4,1.68,2.24,2.53l8.43,8.47,16.81,16.49c1.14,1.12,1.9,2.62,3.38,3.44,1.24.69,1.97,1.83,2.67,3.25.42.85-1.18,1.68-1.86,1.72-1.01.06-1.61-1.08-2.26-1.71l-10.53-10.15-11.82-11.45c-.99-.96-1.69-2.34-3.09-3.41-1-.76-2.01-1.41-2.93-2.37l-2.22-2.31c-.85-.88-1.77-1.62-2.13-2.77-.23-.29-1.59.15-1.65-.42-.03-.25-.22-.54-.06-.83Z"/>
              <path class="cls-57" d="M175.08,298.25c-1.01.57-1.71,1.58-1.88,2.73-1.89-.47-2.18-1.74-2.93-3.12-.31-.39-1.94.01-2.27-.62-.17-.33.15-1.06-.4-1.55-.48-.43-1.33-.67-1.26-1.24.04-.28.52-1.02.33-1.31-1.5-.64-2.47-2.03-2.24-3.66.26,3.95-7.07-5.8-9.28-7.64-.98-.82-2.74-1.15-3-2.87-.17-1.15-1.82-1.13-2.39-2.36,1.25-3.19-1.38-3.56-.18-4.16.17-.09.83-.08.91.12,1.79,4.95,1.43.71,4.58,4.84.32-1.21.56-1.32,1.21-.49-.15,2.29,1.74,2.75,2.57,3.87,1.87,2.5,4.14,4.21,6.31,6.29,1.35,1.29,2.06,2.68,3.63,4.19l3.14,3.05c1.36,1.32,2.64,2.36,3.14,3.95Z"/>
              <path class="cls-35" d="M222.98,335.7c-.82-.3,4.29-5.63,4.64-5.1.35,1.28.93,3.96-.14,5.01-1.21,1.01-3.36.22-4.5.1Z"/>
            </g>
            <path class="cls-11" d="M173.83,377.38c-1.42.26-4.34,1.44-5.53-.42-1.09-1.7-.09-4.35-.3-6.14,1.45.74,4.27,0,5.55,1.06s.74,4.21.29,5.5Z"/>
          </g>
        </g>
        <g>
          <path class="cls-34" d="M123.73,201.75c.12,2.45.2,4.99.09,7.86l-9.42.65c-.69.22-1,1.08-1.46,1.04-2-.18-2.88-1.67-4.34-2.49-2.46-1.38-4.62-2.71-3.83-6.01-7.31-1.47-2.77-.12-6.05-3.4,1.78-3.41-2.44-3.87-1.06-8.71.27-.95.06-1.5,1.35-2.32.54-.34,1.3.25,1.74-.54.25-.44.45-.99.36-1.62,1.63.14,3.35-.48,5.2.31l.23,7.51c2.66.48,5.32.12,8.23.28l.34,7.17c3.1.55,5.92-.06,8.62.26Z"/>
          <path class="cls-34" d="M205.03,209.1l-4.59.28c-.2-.31-.94-.05-1.31-.27-.3-2.09-.14-4.47-.2-6.87,1.99-.39,4.14-.06,5.45-.2.35,2.38,1.14,4.64.66,7.06Z"/>
          <g>
            <path class="cls-122" d="M97.52,99.93c-.54,2.37.09,4.86.09,7.2v62.94c0,2.52-.13,5.11.36,7.99l7.04.4c.5.03.59.32.69.72.52,2.19.32,4.45.38,7.12,2.71.07,4.87.02,7.03.24l1.79.18-.15,7.34c2.46.53,4.85.41,7.16.13.67-.08,1.49.05,1.78.72.31,2.26-.06,4.56.05,6.84-2.71-.32-5.52.29-8.62-.26l-.34-7.17c-2.91-.16-5.57.21-8.23-.28l-.23-7.51c-1.85-.79-3.57-.17-5.2-.31l-2.86-.25c-.31-2.69-.27-4.99-.27-8.2l-6.4-.13c-.21-2.65-.6-5.34.19-7.68,1.43.18,2.8.11,4.85-.03l-.06-9.73c-2.14-.32-3.71-.54-5.21-.04-.12-.58-1.35-1.04-.8-1.77.2-2.3.15-4.62.13-6.93l-.06-6.92.04-12.75c0-2.83.7-5.78,0-8.58.52-.42.17-.45.05-.69-.36-.76-1.31-.05-1.81-.35l-1.22-.72c-.05-1.4-.23-2.76,0-4.14.11-.67-.18-1.44-.17-2.13l.44-15.46c3.7-.76,6.78.22,9.57.22Z"/>
            <path class="cls-44" d="M90.66,123.21c-7.12,1.13.23,2.45-8.93,2.81-.44,6.17-.27,12.17-.38,18.73l7.21.15,2.07-.36.06,6.92c-.53.17-1.6-.48-1.8.43-2.1-1.22-4.66.21-7.08-.77-.41-2.23.11-4.31-.7-6.12-2.66.04-4.91.28-7.25-.33v-16.34c0-.96.19-3.16,1.12-3.26l5.95-.65c.33-.54.14-1.81.73-2.21l6.02-.77,1.22.72c.51.3,1.45-.41,1.81.35.11.24.46.28-.05.69Z"/>
            <path class="cls-108" d="M96.11,70.16l.24,6.74c-1.29-.1-8.07,1.41-8.98-.51l.29-5.94,8.46-.29Z"/>
            <path class="cls-88" d="M91.77,169.96c-1.13-3.08-.32-6.55-.42-9.8,1.5-.5,3.07-.28,5.21.04l.06,9.73c-2.06.14-3.42.21-4.85.03Z"/>
            <path class="cls-78" d="M211.97,186.66c-.27,2.3-.33,4.72,0,7.02-1.03.33-2.56,1.29-3.96,1.01.07-.37-.41-.53-.7-.51,0-2.54-.12-5.1,0-7.62,1.6-.08,3.14.36,4.66.1Z"/>
            <path class="cls-34" d="M87.51,115.17c-.02.7.28,1.46.17,2.13-2.17,1.48-9-1.34-10.91-2.19,3.58-.15,7.15-.13,10.74.05Z"/>
            <path class="cls-34" d="M90.69,151.46c.02,2.31.07,4.63-.13,6.93-2.26-.28,0-6.57-1.67-6.5.2-.92,1.27-.27,1.8-.43Z"/>
            <path class="cls-51" d="M221.13,99.92c-.34,2.34-.46,4.77,0,7.11-.41,2.55-.37,5.24-.12,8.06h6.96c.19.36.33.67.57.57l-.16,62.34c-2.97.48-5.47-.06-7.88.56-1.04.26-2.14-.08-3.18.09.18-1.54-.26-3.54.6-5.21,1.06-2.08,1.61-3.99,1.66-6.39l.4-18.59.22-32.62c-9.91-.72-3.55-3.08-9.43-3.04l-26.99.17-.47-5.65-85.68-.18c0-2.34-.63-4.83-.09-7.2h123.62Z"/>
            <g>
              <path class="cls-37" d="M96.35,76.9c2.77.21,5.51.11,8.28.12l80.63.22c.44,1.78.08,4.61-.01,6.68-.21.38-1.87-.68-1.49.7l54.36-.23c-1.86-2.96.32-4.95-.13-7.18-.64,0,10.04-.35,6.82-.82,12.98,1.88,26.58.16,39.96.87l-.02,29.84-7.41.13c-.27,2.45-.88,5.11-.07,7.26-2.05.9-4.07,1.17-6.49,1.11-8.73-.22-17.51-.23-26.24.07l-.05-15.85c-7.98-1-15.85.09-23.34.09h-123.62c-2.79,0-5.87-.97-9.57-.21l-.44,15.46c-3.59-.18-7.16-.21-10.74-.05-3.11.13-6.22-.22-9.3.44l.38-7.94-8.35-.64c-.75-2.39.04-4.7-.39-7.06l-7.09.09c-.82-2.45-.06-5.08-.14-7.55l37.65-.21c-.64-2.8-.47-4.99-.54-7.52l-37.38.4c-.52-.07-.71-.64-1.25-.62.5-2.32-.4-4.73.35-7l35.92-.35c.54,0,.61-.64.75-.78.91,1.92,7.69.41,8.98.51Z"/>
              <path class="cls-7" d="M277.26,114.5c-.81-2.16-.19-4.82.07-7.26l7.41-.13.02-29.84c2.23.12,7.4-1.04,7.38,2.6l-.18,26.79-7.3.62c-.13,2.5.08,4.79-.33,6.82-2.15,1.39-5.18-.44-7.07.39Z"/>
              <path class="cls-48" d="M270.77,115.61l-.29,6.77c-4.61.34-9.15.62-13.55.31l-7.45-.54c-1.26-.89-2.99.27-4.86-.47-.54-2.1-.09-4.11-.1-6,8.73-.29,17.51-.28,26.24-.07Z"/>
              <path class="cls-10" d="M67.46,115.56c-.72.15-1.34-.52-2.26-.89-1.57-.63-4.45.57-5.64-.88-1.49-1.83,0-4.83-.93-6.96-2.57.03-4.67.33-6.87-.09-.07-2.45-.42-4.34.15-6.08.09-.28.21-.3.09-.64l7.09-.09c.42,2.36-.36,4.67.39,7.06l8.35.64-.38,7.94Z"/>
              <path class="cls-106" d="M50.35,84.52c.55-.03.73.54,1.25.62-.26,2.45.19,4.93.26,7.33s-.68,5.1.14,7.55c.12.35,0,.37-.09.64-1.49-1.76-3.13-.07-6.95-1.2l-.35-13.87.39-1.09c1.75.4,3.57.11,5.34.02Z"/>
              <path class="cls-25" d="M50.7,77.52c-.75,2.28.15,4.68-.35,7-1.78.09-3.6.38-5.34-.02.67-1.88-.26-4.41.07-6.77,2-.7,3.85-.19,5.62-.21Z"/>
              <path class="cls-124" d="M213.11,76.93l24.88.28c.44,2.23-1.73,4.22.13,7.18l-54.36.23c-.38-1.38,1.29-.32,1.49-.7.1-2.08.46-4.9.01-6.68l27.85-.3Z"/>
              <path class="cls-124" d="M51.87,92.47c-.08-2.4-.52-4.88-.26-7.33l37.38-.4c.06,2.53-.1,4.72.54,7.52l-37.65.21Z"/>
            </g>
            <path class="cls-18" d="M207.31,186.56c-.12,2.52,0,5.09,0,7.62l-8.2.45-.36,7.75-61.81.11c-4.72,0-8.92-.24-13.21-.75-.11-2.28.26-4.58-.05-6.84,1.06-.6,2.05.28,3.42.28l62.26-.04c3.48,0,6.58-.32,9.57-1.64l.48-6.59,7.9-.38Z"/>
            <path class="cls-61" d="M175.61,210.35l-.15,7.48c-1.76.5-3.38-.15-4.89.62l-.16,6.36c-2.57,2.15-9.56,2.3-11.89-.06-1.64-1.66.08-4.85-1.15-6.27-.87-1.01-3.68-.02-4.14-.91-.27-.53-.33-1.42-.27-1.94.21-1.79-.6-3.52.29-5.55,7.71.1,15.1-.3,22.36.26Z"/>
            <path class="cls-63" d="M152.96,215.64c-.06.52,0,1.41.27,1.94.46.89,3.27-.09,4.14.91,1.23,1.42-.49,4.61,1.15,6.27,2.33,2.36,9.32,2.21,11.89.06l.16-6.36c1.51-.78,3.13-.13,4.89-.62l.15-7.48c1.58.12,4.28-1.2,5.76,0,.3.24.16,1.58,0,2.01-.12.35.66.38,1.14.32-.32,1.14.59,3.8-.6,4.6-1.54,1.03-3.4.15-5.58.59-.37,2.27-.77,4.73-.28,6.84-1.95,2.28-4.73.02-6.02,1.77-1.09,1.47-.24,5.14-1.17,7.26-2.67.4-5.34.45-8.01.04-.63-2.27-.04-4.63-.9-6.56-1.1.17-1.78-.81-2.25-1.46l-6.3-1.04.49-6.52-3.62-.82c-.61-2.54.03-4.77-.24-6.95,1.01.2,2.77-1.41,3.73.17s-.9,5.91,1.19,5.05Z"/>
            <g>
              <path class="cls-86" d="M221.02,16.29c-1.55.13-3.02-.21-4.54-.42-1.09-.15-2.32-.11-3.62-.54-.84-2.21.11-4.77-.43-7.12-1.03-1.22-3.93-.48-5.03.09-2.49-1.52-6.08-.16-8.77-.17l-83.75-.45c-.12,3.41.19,6.67-1.21,9.8l-8.13.4-.65,7.18c-.82,9.06-.16,17.98-.2,27.21l102.55-.06,6.31.2c.22,3.26.05,6.4-.55,9.52-2.14-.66-4.46.67-6.78-.41l-49.73.05-51.46-.16c-1.39-1.38.82-7.26-1.35-8.77-.8-.56-6.27-.17-7.36.02.1-8.87-.44-17.82-.06-27.1.05-1.35,2.27-.76,2.72-1.3,1.28-1.56.16-3.96.94-5.58s3.81-.29,5.04-1.38c1.15-1.03.26-3.74,1.68-4.68,1.25-.83,3.26.11,4.36-.71s1.18-3.18,1.93-3.52l1.53-.69c1.57-.72-.03-4.86.56-7.67l97.53-.03.33,7.8,7.59.76c-.06,2.86,0,5.32.57,7.73Z"/>
              <path class="cls-71" d="M244.81,76.4c3.22.46-7.46.81-6.82.82l-24.88-.28c.77-2.27-.2-14.5-.1-15.02.6-3.12.77-6.26.55-9.52l4.05-.21c3.41-.17,6.81.19,10.65.07l.03-27.92-7.16-.54c-.96-2.47.44-5.2-.11-7.52,2.34-.2,4.76.65,7.36.93l.47,6.97,7.18.43c-.28,4.13.33,7.9.35,11.95l.19,33.54,7.96.24c.27,2.37-.14,4.26.27,6.05Z"/>
              <path class="cls-64" d="M105.03,61.4c-.89,5.13-.25,10.4-.4,15.61-2.77,0-5.51.09-8.28-.12l-.24-6.74.2-17.51c1.09-.18,6.56-.57,7.36-.02,2.17,1.51-.04,7.38,1.35,8.77Z"/>
              <path class="cls-17" d="M213,61.92c-.1.52.87,12.75.1,15.02l-27.85.3-80.63-.22c.16-5.21-.49-10.48.4-15.61l51.46.16,49.73-.05c2.32,1.09,4.64-.25,6.78.41Z"/>
              <path class="cls-40" d="M198.64,8.12c-.07,2.34-.2,4.74.38,7.33l7.84.29c1.07,11.99.28,24.28.39,36.46l-102.55.06c.04-9.23-.62-18.16.2-27.21l.65-7.18,8.13-.4c1.4-3.13,1.09-6.39,1.21-9.8l83.75.45Z"/>
              <path class="cls-91" d="M216.48,15.87c-.31,1.99.51,4.03.5,6.2l-.11,27.15c0,1.22.1,2.26.73,2.97l-4.05.21-6.31-.2c-.11-12.18.68-24.47-.39-36.46-.2-2.26,1.05-5.05.54-7.44,1.1-.57,4-1.31,5.03-.09.54,2.35-.41,4.91.43,7.12,1.3.43,2.53.39,3.62.54Z"/>
              <path class="cls-26" d="M221.02,16.29c.55,2.32-.85,5.05.11,7.52l7.16.54-.03,27.92c-3.84.12-7.25-.24-10.65-.07-.63-.71-.74-1.74-.73-2.97l.11-27.15c0-2.17-.82-4.22-.5-6.2,1.52.21,2.99.55,4.54.42Z"/>
              <path class="cls-16" d="M207.4,8.3c.51,2.39-.75,5.17-.54,7.44l-7.84-.29c-.58-2.59-.46-4.98-.38-7.33,2.68.01,6.28-1.34,8.77.17Z"/>
            </g>
            <path class="cls-54" d="M217.24,179.29c-.31,2.65.41,6.16-.53,6.55l-4.74.82c-1.52.26-3.06-.18-4.66-.1l.37-7.56,8.65-.28c.25.3.51.83.91.57Z"/>
            <path class="cls-62" d="M228.54,115.66c-.24.11-.38-.21-.57-.56h-6.96c-.25-2.84-.29-5.53.12-8.07,2.27-.03,4.36-.42,7.19-.11-.27,3.07.23,5.94.22,8.74Z"/>
            <g>
              <path class="cls-97" d="M244.53,115.68c0,1.9-.44,3.9.1,6,1.87.74,3.6-.42,4.86.47l7.45.54-.15,21.61-7.73.41c.02,2.39.33,4.53-.39,6.52l-11.66-.11c-.08,2.87-.07,5.36-.16,8.06l-.63,18.61-7.84.15c-.29,2.88.1,5.38-.47,7.93l-7.65.39c-.17,2.54.08,4.88-.32,7.12-2.78.71-5.45.06-7.98.32-.33-2.3-.27-4.72,0-7.02l4.74-.82c1.04-.18,3.01.78,3.48-.84.65-2.25-.14-4.49.31-6.45,2.41-.61,4.91-.08,7.88-.56l.16-62.34c0-2.8-.49-5.66-.22-8.74-2.83-.32-4.92.08-7.19.11-.45-2.34-.34-4.77,0-7.11,7.49,0,15.37-1.08,23.34-.09l.05,15.85Z"/>
              <path class="cls-129" d="M242.65,144.65c.12-3.91.42-7.83.18-12.07-1.96-.93-4.18-.73-6.1-.18-.34-2.98-.17-5.9-.1-9.24,2.37.21,4.01-.25,6.01.15,1.62.32,2.49,2.89,2.31,4.34l4.14.38-.05,16.45c-2.37.39-4.39.35-6.38.17Z"/>
              <path class="cls-55" d="M242.65,144.65c-1.23-.11-2.11.24-2.97.04-2.9-.68-3.78,4.52-2.95-12.28,1.92-.56,4.14-.75,6.1.18.24,4.24-.06,8.16-.18,12.07Z"/>
              <path class="cls-109" d="M242.65,144.65c-.06,1.83,1.12,3.55.03,5.93-1.94.22-5.23.05-5.86-.55-.55-.52-.49-3.82-.03-4.18,1.24-.94,3.24.84,2.88-1.17.86.2,1.74-.14,2.97-.04Z"/>
            </g>
            <path class="cls-38" d="M220.5,178.55c-.44,1.96.35,4.2-.31,6.45-.47,1.62-2.44.66-3.48.84.94-.38.22-3.9.53-6.55l.08-.65c1.05-.17,2.15.17,3.18-.09Z"/>
            <path class="cls-90" d="M90.66,123.21c.71,2.8.01,5.75,0,8.58-.65,0-1.35-.4-1.83-.2-1.49.62-1.42,11.82-.28,13.31l-7.21-.15c.11-6.56-.05-12.56.38-18.73,9.16-.36,1.81-1.68,8.93-2.81Z"/>
            <path class="cls-110" d="M105,178.46l-7.04-.4c-.49-2.88-.35-5.47-.35-7.99,2.35.53,4.74.13,7.49.45.3,2.81.13,5.42-.1,7.93Z"/>
            <path class="cls-49" d="M113.1,186.54c-2.16-.22-4.32-.17-7.03-.24-.07-2.68.14-4.93-.38-7.12,2.24-.93,4.92-.5,7.51-.01.1,2.77.21,5.03-.1,7.37Z"/>
            <path class="cls-119" d="M121.9,194.2c-2.31.27-4.7.4-7.16-.13l.15-7.34,7.06.49c.38,2.46.46,4.84-.05,6.98Z"/>
            <path class="cls-30" d="M90.66,131.79l-.04,12.75-2.07.36c-1.14-1.49-1.21-12.69.28-13.31.48-.2,1.18.21,1.83.2Z"/>
            <g>
              <path class="cls-93" d="M217.31,178.64l-.08.65c-.4.26-.66-.27-.91-.57l-8.65.28-.37,7.56-7.9.38-.48,6.59c-2.99,1.31-6.09,1.63-9.57,1.64l-62.26.04c-1.37,0-2.36-.88-3.42-.28-.29-.67-1.11-.8-1.78-.72.51-2.14.43-4.52.05-6.98l-7.06-.49-1.79-.18c.31-2.35.2-4.61.1-7.37-2.59-.49-5.27-.92-7.51.01-.09-.4-.19-.69-.69-.72.23-2.52.4-5.12.1-7.93-2.75-.33-5.14.08-7.49-.45v-62.94s85.68.18,85.68.18l.47,5.65,26.99-.17c5.87-.04-.49,2.32,9.43,3.04l-.22,32.62-.4,18.59c-.05,2.4-.6,4.31-1.66,6.39-.85,1.67-.42,3.67-.6,5.21Z"/>
              <g>
                <path class="cls-67" d="M132.36,149.16c0,4.69-8.25,3.72-10.43,3.15-.83-.22-2.43-1.6-2.46-2.6-.2-5.69-.33-11-.02-16.82.23-4.37,11.65-4.24,12.81-1.03.32,5.79.1,11.51.11,17.3Z"/>
                <path class="cls-56" d="M152.55,174.5c-.93-1.4-2.7-1.29-3.39-2.82-1.17-2.57-3.71-7.1-1-9.06,1.71-1.24,4.85,2.49,4.58,4.88,6.46,1.03,14.14,1.45,20.35,0,.83-2.35,2.49-6.66,5.86-5.36,2.46,7.84-2.29,4.84-5.09,12.13-7.23.53-14.13.3-21.32.26Z"/>
                <path class="cls-104" d="M135.12,122.74l-20.37.12c-.51-2.25-.38-4.36-.05-6.7l20.42-.02c.36,2.21.23,3.71-.01,6.61Z"/>
                <path class="cls-68" d="M208.52,122.72l-19.33.14c-.69-2.17-.5-4.38-.11-6.74l19.38-.04c.45,2.24.34,3.76.05,6.63Z"/>
                <path class="cls-99" d="M165.33,153.34c.03,2.49-.14,4.05-1.59,5.1-1.22.88-3.23.9-4.92-.04-1.82-1.02-2.1-3.88-1.58-5.92.37-1.45,1.67-3.58,3.92-3.97,2.46-.42,4.14,2.54,4.17,4.83Z"/>
                <g>
                  <path class="cls-19" d="M203.96,150.15c-.54,3.48-11.73,4-12.02-.45-.38-5.67-.49-11.62.13-17.11.36-3.16,4.24-2.8,6.55-2.9,2.49-.11,5.49.2,5.53,3.35.07,5.54.71,11.4-.18,17.12Z"/>
                  <path class="cls-116" d="M200.51,135.47c-.14,1.09-1,.83-1.37.72-.43-.13-1.53-.64-1.11-1.54.44-.95,2.67-.67,2.48.82Z"/>
                </g>
              </g>
            </g>
          </g>
        </g>
      </g>
    </g>
  </g>
</svg>