<?xml version="1.0" encoding="UTF-8"?>
<svg id="_レイヤー_2" data-name="レイヤー 2" xmlns="http://www.w3.org/2000/svg" viewBox="0 0 287.73 489.49">
  <defs>
    <style>
      .cls-1 {
        fill: #a59cae;
      }

      .cls-2 {
        fill: #b6b3cd;
      }

      .cls-3 {
        fill: #81788f;
      }

      .cls-4 {
        fill: #cbc9d9;
      }

      .cls-5 {
        fill: #d0d1e3;
      }

      .cls-6 {
        fill: #faf6ea;
      }

      .cls-7 {
        fill: #8a879c;
      }

      .cls-8 {
        fill: #eaeaef;
      }

      .cls-9 {
        fill: #fdfeff;
      }

      .cls-10 {
        fill: #f8f6f7;
      }

      .cls-11 {
        fill: #fffaf2;
      }

      .cls-12 {
        fill: #daacb0;
      }

      .cls-13 {
        fill: #caccde;
      }

      .cls-14 {
        fill: #e2b5b7;
      }

      .cls-15 {
        fill: #dcd6ca;
      }

      .cls-16 {
        fill: #89859f;
      }

      .cls-17 {
        fill: #6e687e;
      }

      .cls-18 {
        fill: #8a889d;
      }

      .cls-19 {
        fill: #e5e9f1;
      }

      .cls-20 {
        fill: #a17981;
      }

      .cls-21 {
        fill: #f5dcbd;
      }

      .cls-22 {
        fill: #97787f;
      }

      .cls-23 {
        fill: #bba4ad;
      }

      .cls-24 {
        fill: #e0b2b4;
      }

      .cls-25 {
        fill: #797086;
      }

      .cls-26 {
        fill: #f7f7f9;
      }

      .cls-27 {
        fill: #d8dbe9;
      }

      .cls-28 {
        fill: #a18c9b;
      }

      .cls-29 {
        fill: #877d94;
      }

      .cls-30 {
        fill: #b1a0a7;
      }

      .cls-31 {
        fill: #767085;
      }

      .cls-32 {
        fill: #e5c1a5;
      }

      .cls-33 {
        fill: #7d6f75;
      }

      .cls-34 {
        fill: #71687d;
      }

      .cls-35 {
        fill: #776d81;
      }

      .cls-36 {
        fill: #776b7f;
      }

      .cls-37 {
        fill: #c69987;
      }

      .cls-38 {
        fill: #bb9291;
      }

      .cls-39 {
        fill: #f4d2cb;
      }

      .cls-40 {
        fill: #edc8c5;
      }

      .cls-41 {
        fill: #f0cec8;
      }

      .cls-42 {
        fill: #747186;
      }

      .cls-43 {
        fill: #bbb7cc;
      }

      .cls-44 {
        fill: #d3d2e1;
      }

      .cls-45 {
        fill: #f5cdc8;
      }

      .cls-46 {
        fill: #fff;
      }

      .cls-47 {
        fill: #a691a1;
      }

      .cls-48 {
        fill: #6d667e;
      }

      .cls-49 {
        fill: #c89a8a;
      }

      .cls-50 {
        fill: #c6b0b3;
      }

      .cls-51 {
        fill: #dfb799;
      }

      .cls-52 {
        fill: #635f7a;
      }

      .cls-53 {
        fill: #8a7e94;
      }

      .cls-54 {
        fill: #b08984;
      }

      .cls-55 {
        fill: #a5a5ba;
      }

      .cls-56 {
        fill: #a4a3bb;
      }

      .cls-57 {
        fill: #efcac2;
      }

      .cls-58 {
        fill: #9f96a8;
      }

      .cls-59 {
        fill: #aaa2b0;
      }

      .cls-60 {
        fill: #eeceae;
      }

      .cls-61 {
        fill: #635e77;
      }

      .cls-62 {
        fill: #fcefe1;
      }

      .cls-63 {
        fill: #e0d3ca;
      }

      .cls-64 {
        fill: #ccb8bb;
      }

      .cls-65 {
        fill: #787186;
      }

      .cls-66 {
        fill: #7f7c91;
      }

      .cls-67 {
        fill: #84777e;
      }

      .cls-68 {
        fill: #635f78;
      }

      .cls-69 {
        fill: #9c8b9a;
      }

      .cls-70 {
        fill: #c1a6af;
      }

      .cls-71 {
        fill: #b78a83;
      }

      .cls-72 {
        fill: #8e8696;
      }

      .cls-73 {
        fill: #c8c7d3;
      }

      .cls-74 {
        fill: #deb5b7;
      }

      .cls-75 {
        fill: #edc5c1;
      }

      .cls-76 {
        fill: #faf9f9;
      }

      .cls-77 {
        fill: #918295;
      }

      .cls-78 {
        fill: #ca9d8b;
      }

      .cls-79 {
        fill: #ceb9ba;
      }

      .cls-80 {
        fill: #726a82;
      }

      .cls-81 {
        fill: #756f85;
      }

      .cls-82 {
        fill: #a4919d;
      }

      .cls-83 {
        fill: #aa95a3;
      }

      .cls-84 {
        fill: #968597;
      }

      .cls-85 {
        fill: #fcf0e2;
      }

      .cls-86 {
        fill: #efcbc7;
      }

      .cls-87 {
        fill: #fcfbfd;
      }

      .cls-88 {
        fill: #f8dacf;
      }

      .cls-89 {
        fill: #f5f5fa;
      }

      .cls-90 {
        fill: #69627b;
      }

      .cls-91 {
        fill: #cbccdf;
      }

      .cls-92 {
        fill: #fcfcfb;
      }

      .cls-93 {
        fill: #6e667c;
      }

      .cls-94 {
        fill: #948a9e;
      }

      .cls-95 {
        fill: #6b667e;
      }

      .cls-96 {
        fill: #cccdde;
      }

      .cls-97 {
        fill: #ad8a96;
      }

      .cls-98 {
        fill: #6a647d;
      }

      .cls-99 {
        fill: #867d91;
      }

      .cls-100 {
        fill: #cd9aa3;
      }

      .cls-101 {
        fill: #fdefe2;
      }

      .cls-102 {
        fill: #e4dacf;
      }

      .cls-103 {
        fill: #9391aa;
      }

      .cls-104 {
        fill: #80768d;
      }

      .cls-105 {
        fill: #66627b;
      }

      .cls-106 {
        fill: #f1cec9;
      }

      .cls-107 {
        fill: #646179;
      }

      .cls-108 {
        fill: #b98d88;
      }

      .cls-109 {
        fill: #f2d1ac;
      }

      .cls-110 {
        fill: #8e727d;
      }

      .cls-111 {
        fill: #f8f4e7;
      }

      .cls-112 {
        fill: #ece5d9;
      }

      .cls-113 {
        fill: #66617c;
      }

      .cls-114 {
        fill: #7f768d;
      }

      .cls-115 {
        fill: #716c81;
      }

      .cls-116 {
        fill: #a197a7;
      }

      .cls-117 {
        fill: #e0acae;
      }

      .cls-118 {
        fill: #878090;
      }

      .cls-119 {
        fill: #dcd7dd;
      }

      .cls-120 {
        fill: #9b92a2;
      }

      .cls-121 {
        fill: #f4d4cc;
      }

      .cls-122 {
        fill: #e1e3ec;
      }

      .cls-123 {
        fill: #d2c9c3;
      }

      .cls-124 {
        fill: #7e748b;
      }

      .cls-125 {
        fill: #cdc9d4;
      }

      .cls-126 {
        fill: #dcaeb0;
      }

      .cls-127 {
        fill: #d9b094;
      }

      .cls-128 {
        fill: #766e84;
      }

      .cls-129 {
        fill: #757087;
      }

      .cls-130 {
        fill: #8a8199;
      }

      .cls-131 {
        fill: #f6cfcc;
      }

      .cls-132 {
        fill: #a698a3;
      }

      .cls-133 {
        fill: #f0cbc5;
      }

      .cls-134 {
        fill: #c0b4bf;
      }

      .cls-135 {
        fill: #91717d;
      }

      .cls-136 {
        fill: #b7b7cd;
      }

      .cls-137 {
        fill: #f1ebde;
      }

      .cls-138 {
        fill: #a996a3;
      }

      .cls-139 {
        fill: #918397;
      }

      .cls-140 {
        fill: #e4b7b9;
      }

      .cls-141 {
        fill: #888393;
      }

      .cls-142 {
        fill: #ebc5a6;
      }

      .cls-143 {
        fill: #b69fa8;
      }

      .cls-144 {
        fill: #d4a790;
      }

      .cls-145 {
        fill: #8a8095;
      }

      .cls-146 {
        fill: #f0e9dc;
      }

      .cls-147 {
        fill: #d2a7ac;
      }

      .cls-148 {
        fill: #e3bd9b;
      }

      .cls-149 {
        fill: #75677c;
      }

      .cls-150 {
        fill: #64607b;
      }

      .cls-151 {
        fill: #7f798b;
      }

      .cls-152 {
        fill: #cbb6b9;
      }

      .cls-153 {
        fill: #d4d8e7;
      }

      .cls-154 {
        fill: #d9a5ab;
      }

      .cls-155 {
        fill: #b18f91;
      }

      .cls-156 {
        fill: #bdbfd4;
      }

      .cls-157 {
        fill: #6a657c;
      }

      .cls-158 {
        fill: #f7ddd4;
      }

      .cls-159 {
        fill: #767086;
      }

      .cls-160 {
        fill: #ddb498;
      }

      .cls-161 {
        fill: #c2968b;
      }

      .cls-162 {
        fill: #d5bbbf;
      }

      .cls-163 {
        fill: #94889c;
      }

      .cls-164 {
        fill: #edc5c3;
      }

      .cls-165 {
        fill: #a3a3bc;
      }

      .cls-166 {
        fill: #c7a7ae;
      }

      .cls-167 {
        fill: #d6a68e;
      }

      .cls-168 {
        fill: #a17982;
      }

      .cls-169 {
        fill: #efc8ad;
      }

      .cls-170 {
        fill: #767087;
      }

      .cls-171 {
        fill: #d5d7e4;
      }

      .cls-172 {
        fill: #ada7b4;
      }

      .cls-173 {
        fill: #edc9a7;
      }

      .cls-174 {
        fill: #f1eced;
      }

      .cls-175 {
        fill: #cb99a5;
      }

      .cls-176 {
        fill: #d09ca4;
      }

      .cls-177 {
        fill: #f7f4f5;
      }

      .cls-178 {
        fill: #bbb3b8;
      }

      .cls-179 {
        fill: #eec9c5;
      }

      .cls-180 {
        fill: #c89d8b;
      }

      .cls-181 {
        fill: #feffff;
      }

      .cls-182 {
        fill: #deafb1;
      }

      .cls-183 {
        fill: #cca18c;
      }

      .cls-184 {
        fill: #646079;
      }

      .cls-185 {
        fill: #d7dae8;
      }

      .cls-186 {
        fill: #bf9689;
      }

      .cls-187 {
        fill: #d3ae9d;
      }

      .cls-188 {
        fill: #6c667f;
      }

      .cls-189 {
        fill: #a99fad;
      }

      .cls-190 {
        fill: #cccfe3;
      }

      .cls-191 {
        fill: #918eaa;
      }

      .cls-192 {
        fill: #8a889e;
      }

      .cls-193 {
        fill: #908eaa;
      }

      .cls-194 {
        fill: #e2e5ef;
      }

      .cls-195 {
        fill: #c499a0;
      }

      .cls-196 {
        fill: #efcac5;
      }

      .cls-197 {
        fill: #eac2c0;
      }

      .cls-198 {
        fill: #a093a2;
      }

      .cls-199 {
        fill: #e7c3a3;
      }

      .cls-200 {
        fill: #b8888e;
      }

      .cls-201 {
        fill: #bf9289;
      }

      .cls-202 {
        fill: #f8f8fa;
      }

      .cls-203 {
        fill: #c19387;
      }

      .cls-204 {
        fill: #69657c;
      }

      .cls-205 {
        fill: #c0a9b1;
      }
    </style>
  </defs>
  <g id="_レイヤー_1-2" data-name="レイヤー 1">
    <g id="_生成オブジェクト" data-name="生成オブジェクト">
      <g>
        <path class="cls-13" d="M33.61,482.9c2.36-.39,28.09-.64,27.37.44.14-.21.16-.56.36-.8l65.13-.27h41.61s55.58-.02,55.58-.02c2.12,0,4.54.47,7-.13,1.2-2.19.45-4.44.85-6.52,4.4-.78,8.98-.26,13.66-.32,8.77-.1,17.25-.37,25.75.43,6.12.58,17.06-1.61,16.22,3.53-.91,5.56-9.18,1.2-17.3,2.9-3.6.75-1.17,4.98-3.27,6.14-.68.38-2.34.92-3.46.92l-76.28-.02c-5.86,0-11.19-.39-17.01,0-1.66.11-12.32.4-13.28-.03-1.82-.81-3.95.19-5.96.21-5.89.06-11.58-.27-17.45-.26l-16.84.03c-4.03,0-8.07-.49-11.99.05-2.36.32-4.4.36-6.76,0-5.47-.82-10.85.32-13.23.06-5.02-.55-9.9-.3-15.06-.14-11.24.35-22.33.64-33.67-.03-2.35-.14-2.81-4.94-1.98-6.19Z"/>
        <path class="cls-156" d="M59.58,475.05l.08,6.03c0,.52.23.95.39,1.12.29.3.85.54,1.28.33-.2.25-.22.59-.36.8.73-1.08-25.01-.84-27.37-.44.33-.67-.5-.85-.55-.12-.11-1.1-11.3.81-9.84-1.57.21-1.42.19-2.81.05-4.22-.07-.43.21-1.64.92-1.65l13.19-.18c7.61-.1,14.95-.55,22.21-.09Z"/>
        <path class="cls-56" d="M231.51,475.59c-.4,2.09.36,4.34-.85,6.52-2.45.6-4.88.13-7,.13-.65-2.35.58-5.11.39-7.29,2.42-.04,5.4-.99,7.46.64Z"/>
        <path class="cls-153" d="M20.68,477.05c-.48,1.4-.82,2.65-.22,4.06-.9,1.01-2.13,1.37-3.29.71s-2.47-1.4-1.67-3.07c1.13-2.35,3.34-2.63,5.19-1.69Z"/>
        <path class="cls-46" d="M23.27,476.98c.14,1.42.16,2.81-.05,4.22-.89.5-1.82-.02-2.76-.09-.6-1.41-.26-2.66.22-4.06.88.44,1.66-.3,2.59-.08Z"/>
        <path class="cls-13" d="M33.61,482.9c-.3.36-.51.41-.55-.12.05-.73.88-.55.55.12Z"/>
        <path class="cls-16" d="M127.22,474.94l40.39.08c-.39,1.87,1.33,5.07.48,7.26h-41.61s-.55-7.82-.55-7.82c.55.13.7.49,1.3.49Z"/>
      </g>
      <g>
        <path class="cls-46" d="M200.13,201.73c-.42.38-1.1.61-1.54,1.65-1.48-.62-2.8-.77-4.69-.28-.69.18-.38.95-.65,1.44-1.18-.5.35-1.67-.4-2.44,2.4-.71,4.86.03,7.28-.37Z"/>
        <g>
          <path class="cls-171" d="M209.44,218.9c.97,1.43.52,2.87.78,5.02,2.45.28,4.56.06,6.65-.04-.25.4.12.89.48.47-.13,4.04-.04,8.08.31,12.52l7.19-.02.47,14.46,7.12.19.21,30.03c-.49-.21-.97.19-.78.7l-6.56.22-.49,10.62c-2.1.08-4.32-.62-6.86.08l-.53,5.94c-2.18.85-4.73-.09-6.74,1.08-1.25.73.62,5.25-2.13,6.3-8.55,1.79-17.91,2.12-26.55,1.16.19-6.09.48-2.18,1.04-6.57,1.94.29,3.67-.55,5.53-1,2.38-.57,3.21-1.36,4.58-3.57l2.11-3.39c2.55.07,4.82-.34,7.22-1.02.12-1.66.21-2.87.62-4.51,3.01.22,5.27-.08,7.26-2.16.35-.37,1.19-.21,1.45-.67.2-.36.04-1.35.5-1.74.99-.84,3.94.27,4.58-1.35,1.36-3.43-.17-7.47,1.38-10.73,1.09-2.29,1.38-3.94.3-6.48-.6-1.4.23-5.71-.77-11.76-.83-5,.02-9.92-.52-15.08-2.19.4.82-6.04-3.48-7.16-2.89-.75-6-.26-8.9-.51s-4.83-1.98-4.56-5.13c-4.01-.85-7.76-.62-11.69-.46l-.75-3.97-5-.41c-1.06,1.56-.55,3.53-1.87,4.81-1.34-.15-2.66-.36-3.26.45-.46.63-.34,1.9-.3,2.57.14,2.22-2.27,1.1-3.33,1.65-.96.5-12.8,3.88-12.43-.79-2.53.39-4.25-.6-6.15-.6-.09-1.79.29-3.6-.1-5.36.15,0,.29-.24.51-.2,2.06.44,4.86-.88,6.54.57,1.8,1.56,3.12,2.56,3.42,4.52.14.91,1.99,2.28,2.52,1.51,1.17-1.68-.34-3.82,0-5.4,1.03-4.7-.54-5.7.7-7.68,5.37,2.19,18.01-1.84,14.59-1.76l17.75-.42c.06,1.77-.31,3.03.19,4.87,2.67.57,5.33.43,7.73.17Z"/>
          <path class="cls-170" d="M224.83,293.07c-.45,9.62-.51,19.25-.36,29.16l7.18.21v28.6s-15.95.17-15.95.17c-.69,0-1.18.45-1.17.87-2-.2-4.03-.46-6.19.64.45,1.76-.51,3.7-.53,4.9-2.32-.31-4.68.25-7.21,1.27-.99-2.03.02-3.95-.59-5.91l-25.83-.2.37-5.23c.5-.81.93-.17,1.21-.38.63-.48,1.04-1.47.78-2.12.34-.19.61-.12.73-.11.06.26.04.53.17.68.31.36.9.27,1.55.26l37.84-.86c2.77-.06,5.21-.43,7.93-.32l.03-16.88-7.18-.03-.38-21.39c-.01-.75-.03-1.59.12-2.32.14-.65.61-1.55-.5-2.21-.78.7-.72,1.48-.56,2.11-.3,0-.52.25-.54.55-1.22-.39-2.02.73-2.14,2.19-1.27.61-2.46.32-4.21.77.37,2.07-.9,2.5-2.17,3.09-.01-.31-.06-.7.05-.93.2-.41,1.53-.13,1.45-.61-.23-1.4.52-1.98-.16-2.55,2.75-1.05.88-5.57,2.13-6.3,2.01-1.17,4.56-.24,6.74-1.08l.53-5.94c2.54-.7,4.76,0,6.86-.08Z"/>
          <path class="cls-132" d="M92.29,354.51l-.23,7.38c-.73,23.19-.84,46.87-.03,70.17-.61-.77-.52,3.18-1.16,6.68-1.34-1.44-3.59-.57-6-1.02l.16-83.12c2.24.14,4.68.68,6.57-.7.09.3.36.64.7.61Z"/>
          <path class="cls-159" d="M232.66,281.53l-.21-30.03-7.12-.19-.47-14.46-7.19.02c-.34-4.44-.44-8.48-.31-12.52,2.1-.77,4.58-.38,7.02-.21l.15,12.7c2.84.07,4.96-.21,7.52.17l.22,14.03,7.65.12.02,30.61c-2.42.32-5.22.88-7.27-.24Z"/>
          <path class="cls-96" d="M208.53,213.65c-.45.42.12.82.62.62.4,1.37-.56,3.36.29,4.63-2.41.26-5.06.41-7.73-.17-.5-1.83-.13-3.09-.19-4.87l-17.75.42c3.42-.08-9.22,3.95-14.59,1.76l-1.68-.69c1.55-1.82.33-3.3,1.15-5.49l13.91-.93c1.29.44,3.16.25,4.77.51.79.13,1.31,1.13,2.47,1.13l11.16.06c.45,1.19.05,2.14.79,2.97l6.78.04Z"/>
          <path class="cls-65" d="M78.34,452.15c4.16,1.1,8.73.57,13.13.62-.08,2.11.05,4.23-.66,6.69l-5.23,1.65c-4.52-.51-8.95.32-13.33,1.35.29-1.04-.26-2.78.12-3.77.79-2.05.09-3.97.69-6.6,1.79.6,3.81-.34,5.28.05Z"/>
          <path class="cls-129" d="M192.85,202.1c.75.77-.77,1.94.4,2.44-.32.3-.14.63.06.88.29.36.69.36,1.28.38l13.92.4c-.07,2.85.48,5.19.01,7.45l-6.78-.04c-.74-.83-.34-1.78-.79-2.97l-11.16-.06c-1.16,0-1.68-1-2.47-1.13-1.61-.27-3.48-.07-4.77-.51-.08-.78-.16-1.87.2-2.62.63-1.3,2.09.33,5.26-1.38.83-.45.19-1.9.74-2.48,1.21-1.28,2.95-.01,4.09-.35Z"/>
          <path class="cls-42" d="M231.88,282.23c1.02-.55.4,8.54.3,10.57l-7.36.27.49-10.62,6.56-.22Z"/>
          <path class="cls-66" d="M216.87,223.88c-2.09.1-4.2.31-6.65.04-.26-2.14.19-3.58-.78-5.02-.85-1.27.11-3.26-.29-4.63.03-.11.16-.57.52-.57l7.08.06.12,10.12Z"/>
          <path class="cls-46" d="M183.05,301.06c-1.5-.22-3.64-.37-5.14.27-.63.27.02,2.5-1.17,2.15.23-6.97-1.58-10.5-1.87-15.22-.33-5.23-5-1.02-5.59-4.67l.12-7.06c1.91-.51,4.17.46,5.86-.51.69-.55-.19-2.96,1.1-3.32,1.86-.52,4.29.74,5.92-.37.98-.95.53-3.39.44-4.52l1.65-1.09,7.08-.35c.75-1.56.97-5.04-.42-6.43.62-4.66.29-9.43.11-14.45-.03-.81-1.64-.71-1.99-.38-.46.43-.33,1.33-.79,2.36-.33.73-1.52-.54-1.9-.16-2.01,1.95.49,5.28-.27,11.91-.78.1-1.84.43-3.25.25l-.75-23.87c-.04-1.3-2.91-1.1-3.79-.65-1.18.6-1.95,2.07-1.97,3.92l-.17,20.51c0,.62-.21,1.15-.95,1.11-2.02-.75-4.23-.13-6.87-.52-.51-1.85-.02-3.87-.33-6.12-1.96-.65-4.08.17-5.88-.77-.61-.37-.77-2.14-1.89-1.63,1.72-2.67-10.88.3-11.78-1.84-1.44-16.2,2.88-.61,2.1-14.69,1.16-.24,3.15.37,3.98-.6,1.09-1.26,1.16-3.81.15-5.02.51-.05.8-.81.78-1.22,1.9,0,3.61.98,6.15.6-.37,4.67,11.47,1.29,12.43.79,1.06-.55,3.47.57,3.33-1.65-.04-.67-.16-1.95.3-2.57.59-.82,1.92-.6,3.26-.45,1.32-1.28.81-3.26,1.87-4.81l5,.41.75,3.97c3.93-.15,7.68-.39,11.69.46-.27,3.15,1.65,4.88,4.56,5.13s6.01-.24,8.9.51c4.3,1.12,1.29,7.56,3.48,7.16.54,5.16-.3,10.08.52,15.08,1,6.04.18,10.36.77,11.76,1.08,2.54.79,4.19-.3,6.48-1.55,3.27-.02,7.3-1.38,10.73-.64,1.62-3.6.51-4.58,1.35-.46.39-.3,1.38-.5,1.74-.26.46-1.1.3-1.45.67-1.99,2.07-4.25,2.37-7.26,2.16-.42,1.64-.5,2.85-.62,4.51-2.4.68-4.67,1.09-7.22,1.02l-2.11,3.39c-1.37,2.21-2.2,3-4.58,3.57-1.86.45-3.59,1.28-5.53,1Z"/>
          <path class="cls-122" d="M191.03,259.95c-2.38.23-5.4-.68-7.61.96-.5.54-1.19,6.56.95,5.82l-1.65,1.09c.28-1.97-5.73.14-6.89-1.68-1.05-1.65-.36-3.98-.51-5.64.74.04.95-.49.95-1.11l.17-20.51c.02-1.86.78-3.32,1.97-3.92.87-.44,3.74-.65,3.79.65l.75,23.87c1.41.19,2.47-.15,3.25-.25.76-6.63-1.75-9.95.27-11.91.39-.37,1.57.9,1.9.16.46-1.02.33-1.93.79-2.36.35-.33,1.96-.43,1.99.38.17,5.02.5,9.79-.11,14.45Z"/>
          <path class="cls-9" d="M113.8,214.12c-.28.3-.52,1.26-.38,1.74.66,2.22-1.48,2.36-2.17,3.4l-2.15,3.25c-1.85,2.79-.5,6.73-.6,9.85-.09,2.7.15,5.98-1.15,7.62h-12.17c-1.31,0-3.74-.2-3.55-2.41.12-1.36,2.56-.89,3.79-.78.27-3.93.12-7.63.84-11.49,1.25-.9,2.78-.43,4.21-1.08.53-1.58.59-3.25.82-4.94l7.12-.24c1.12-3.84-.75-3.53,1.26-5.34l4.14.43Z"/>
          <path class="cls-181" d="M127.73,222.79c.51.5,1.29.32,1.72,1.03-.28,1.6-.29,3.36.14,5.09l6.16.27c.55,2.19.35,4.23.4,6.17.04,1.74-.31,3.52-.04,5.27-.44,0-.64.48-1.04.64-5.01-.54-10.18-1.25-15.28-1.18l.46-9.77c.83-.34,1.87-1.17,2.72-1.05.59.08,2.07.24,2.47-.45.95-1.65-.05-3.69.66-5.54.25-.66,1.26-.18,1.64-.49Z"/>
          <path class="cls-194" d="M154.8,229.3c1.01,1.21.93,3.76-.15,5.02-.83.96-2.82.36-3.98.6.78,14.08-3.54-1.51-2.1,14.69.9,2.15,13.5-.83,11.78,1.84-1.16.69-17.18-1.03-16.91-.89-.61-.31-.04-1.32-.49-2.12-.48-.85-1.57-.91-1.82-1.78.93-1.67.7-3.91.17-5.92l-5.19-.12c-.26-1.75.08-3.53.04-5.27,1.64.88,3.63.38,5.44.46-.44,1.86,6.04,1.18,7.38.82-.26-2.8-.13-5.03-.1-7.31.14-.01.25-.1.4-.04,1.76.6,3.71.19,5.53.01Z"/>
          <path class="cls-30" d="M120.25,230.32l-.46,9.77c-4.17.06-8.29-.11-12.45-.11,1.31-1.64,1.07-4.92,1.15-7.62.84.37,2.55-.68,2.3-1.77-.59-2.56,1.21-2.7,2.06-4.08s3.98-5.83,4.94-5.7c2.8.37,2.57,7.17,2.46,9.52Z"/>
          <path class="cls-29" d="M174.17,352.78l25.83.2c.61,1.97-.4,3.88.59,5.91,2.53-1.02,4.89-1.58,7.21-1.27l-.41,16.81.19,11.25c.02,1.03-.98,1.65-1.01,2.4-.11,2.6-.81,24.59,1.09,25.01,2.92.65,5.86,0,8.92.26,1.07,3.61,1.13,7.47.47,11.16-2.14.38-5.1-.59-6.13,1.11s-.05,4.04-.46,5.56c-1.37.75-2.82.59-4.43.6l-31.92.24c-3.46.03-6.64.22-10.23-.46-.64-.12-1.28.22-1.34.63-.3-.05-.44-.29-.42-.55l.46-6.06c1.91-.39,4-.5,6,.13.3,1.99-.4,3.8.32,5.44l14.26-.32c.07-2.18-.67-3.65-.38-5.56,3.28-.34,6.26-.03,9.36-.88l.76-5.93c1.59-.15,4.9.19,6.12-1.81,1.1-1.8.86-6.34-.45-7.9-2.07-2.46-.36-5.14-.76-7.52-.77-4.59-.59-8.61-.93-12.91-1.68-.16-3.11.18-4.52-.12l-.32-18.21c-1.59-.17-3.6-.77-4.66-.38l-4.86,1.8c-1.22.45-1.29,2.67-3.68,2.09-.52-.13-1.91.07-2.13.92-.33,1.3-.29,2.32-.93,3.26-.54.79-2.15.46-3.49,1.14-1.22.61-.73,2.71-1.74,3.72l-14.71.64c-.37,2.85-.26,5.58-.23,8.13-.23-.09.04-1.04-.21-1.24-1.92-.59-3.86-.1-6.14-.44l-.39-12.7-5.77-.46c-.62-1.39-1.2-4.73.21-5.55,5.46-3.21.49,1.14,6.67-5.69l12.64-1.66.52-4.37c.18-1.49,3.62-.46,4.67-1.28,3.43-2.69-.4-3.18,6.41-5.13Z"/>
          <path class="cls-27" d="M167.99,468.39c-.02,2.33.09,4.4-.38,6.63l-40.39-.08-.09-6.63,39.14-.46c.66,0,1.2.96,1.71.53Z"/>
          <g>
            <path class="cls-68" d="M214.52,352.08c.83,2.24-.47,4.45-.76,6.7-.65,5.04-.84,42.45.11,43.04.2.12,1.07.06,1.12.43l.64,4.79c2.86.69,5.53.22,8.73.41l-.18,23.89-9.37.32-.36,6.16-10.57.24-.23,13.62,6.6.39.09,6.05,6.37.25.2,6.15,6.8.25c-.24,3.72.05,6.96.34,10.18.2,2.18-1.04,4.94-.39,7.29l-55.58.03c.86-2.19-.87-5.38-.48-7.26.47-2.22.36-4.29.38-6.63l.24-30.19-5.85-.29c-.09-2.01-.3-3.96.14-5.73.06-.41.71-.75,1.34-.63,3.58.68,6.77.49,10.23.46l31.92-.24c1.61-.01,3.06.15,4.43-.6.41-1.53-.53-3.92.46-5.56s3.98-.73,6.13-1.11c.67-3.69.61-7.55-.47-11.16-3.06-.26-6,.39-8.92-.26-1.9-.42-1.21-22.41-1.09-25.01.03-.75,1.03-1.37,1.01-2.4l-.19-11.25.41-16.81c.03-1.19.98-3.14.53-4.9,2.16-1.1,4.19-.84,6.19-.64Z"/>
            <g>
              <path class="cls-114" d="M205.5,465.48l-13.33.84c-.99,2.21-.45,4.92-.84,7.45-2.7.48-5.11-.61-6.94.56-2.41-2.63-5.7-.08-9.8-1.99l.32-13.97,11.65.11.39,4.46c7.67,2.12,2.42-4.39,11.15-3.38-.51.82-.5,1.4-.41,1.77.21.84,1.09.34,1.69.33l2.83-.03c1-.01,1.79,1,3.18.76.25,1.25.07,2.15.11,3.08Z"/>
              <path class="cls-154" d="M196.97,445.45c-1.82-.67-3.83.8-5.45.7-3.39-.2-6.47-.51-9.62.5-1.91.28-5.33-1.84-7.43.05.07-2.67-.21-5.32.24-8.27l22.28-.05c.33,2.52.42,4.9-.02,7.07Z"/>
              <path class="cls-124" d="M201.79,473.82c-.4-1.45,1.74-1.58,1.6-3.39-.06-.85,1.46-.56,1.93-.85,1.64-1.01.45-2.7.68-3.92l10.57-.55c.77,3.11.41,6.14.39,9.54-1.88-.05-15.64.57-15.17-.83Z"/>
              <path class="cls-59" d="M205.5,465.48c.18-.01.35.19.5.18-.23,1.21.96,2.91-.68,3.92-.47.29-2,0-1.93.85.14,1.82-2,1.95-1.6,3.39-3.23,1.63-6.93-.05-10.75.99-2.36.65-4.56-.31-6.66-.48,1.84-1.17,4.24-.08,6.94-.56.39-2.53-.15-5.25.84-7.45l13.33-.84Z"/>
              <path class="cls-24" d="M191.52,446.15c.1,1.59-.1,3.17-.22,4.74.89,0,1.21.36.95.76-3.88.08-7.38.16-10.89,0,.18-1.69.59-3.29.54-5.01,3.14-1.01,6.22-.7,9.62-.5Z"/>
              <path class="cls-106" d="M181.9,446.65c.05,1.72-.37,3.32-.54,5.01-2.32-.1-4.37.28-6.59-.1-.6-1.67-.22-3.32-.29-4.86,2.1-1.89,5.52.23,7.43-.05Z"/>
              <path class="cls-100" d="M196.97,445.45c-.43,2.12-.02,3.97-.19,6.02-1.62.38-3.1.15-4.53.18.26-.41-.06-.75-.95-.76.12-1.56.32-3.15.22-4.74,1.62.1,3.63-1.37,5.45-.7Z"/>
            </g>
          </g>
          <path class="cls-140" d="M141.61,209.78c6.57-.43,14.1-.83,20.49.23.18,1.59.18,3.27-.06,5.1-2.05.16-3.87-.03-5.95.44-.12,2.44-.4,4.74-.1,6.98-.22-.05-.36.2-.51.2-1.79-.02-4.15.92-5.93.39-2.41-.72-4.92-.5-7.47-.48-2.14.01-4.27-.42-6.41-.55-.49-2.45.25-4.86-.62-7.2-.62-1.67.28-3.8-.09-5.52.23,0,.51.16.7.11-.02,1.63-.36,3.32.11,4.82,1.98-.11,3.77,1.06,5.34-.09.99-.95.09-3.23.5-4.42Z"/>
          <path class="cls-191" d="M208.56,306.47c.68.57-.07,1.15.16,2.55.08.47-1.26.19-1.45.61-.11.23-.06.62-.05.93-1.3.6-3.82.52-4.71,1.63-3.6,4.49-8.6,2.89-13.8,3.99-.59.13-.23,2.16-1.13,2.24-1.04.1-1.73-.29-2.35-1.27-.34.74-.08,1.63-.85,1.26,0-1.61-1.7-1.38-2.96-1.43.12-.31,1.05-2.19.19-2.41-2.13-.56-3.95-.86-5.69-1.48,2.2.05.25-1.43,1.06-5.43,1.63.4,3.39-.2,5.02-.02,8.64.96,18,.63,26.55-1.16Z"/>
          <path class="cls-103" d="M168.65,209.87c-.82,2.19.4,3.67-1.15,5.49-1.43-.58-3.2-.29-5.25.25.38,1.91-.29,4.01.26,5.7,1.23,1.55,4.05,2.51,5.97,2.42-.34,1.57,1.16,3.71,0,5.4-.53.77-2.39-.6-2.52-1.51-.3-1.96-1.61-2.96-3.42-4.52-1.68-1.45-4.48-.13-6.54-.57-.3-2.24-.02-4.54.1-6.98,2.08-.47,3.9-.28,5.95-.44.24-1.83.24-3.51.06-5.1,1.77-1.18,4.89-.02,6.55-.13Z"/>
          <path class="cls-46" d="M167.5,215.36l1.68.69c-1.24,1.99.32,2.99-.7,7.68-1.92.09-4.73-.87-5.97-2.42-.55-1.69.12-3.8-.26-5.7,2.05-.53,3.82-.83,5.25-.25Z"/>
          <path class="cls-7" d="M155.58,228.08c.02.41-.27,1.17-.78,1.22-1.82.17-3.77.58-5.53-.01-.42-2.05.35-4.12.28-6.17,1.78.53,4.14-.41,5.93-.39.4,1.76.01,3.57.1,5.36Z"/>
          <path class="cls-19" d="M183.05,301.06c-.56,4.39-.85.48-1.04,6.57-1.64-.18-3.39.42-5.02.02.26-1.3-.3-2.86-.25-4.17,1.19.35.54-1.88,1.17-2.15,1.5-.64,3.64-.49,5.14-.27Z"/>
          <path class="cls-15" d="M95.17,362.36c-.44.98.4,1.9.48,3.02l.29,4.18c1.91,0,3.53.42,5.13.07.19,2.31-.76,4.86-.13,7.43l6.58.16.52,6.1c2.78.29,5.28-.24,7.91.36.03,2.57-.26,4.56.2,6.52,1.55.45,3,.26,4.4.47.27,5.7.14,11.47.06,17.49-.02,1.38-2.08.85-2.59,1.29-2.64,8.79,3.27,2.98,1.38,13.66-3.01,1.53-6.49.36-8.52,2.52-1.36-1.74-6.23-.61-9.59-.57-.78,1.55-.35,3.09-.67,4.97,2.59,1.24,5.22.95,7.9,1.14-5.29,1.24-10.94.56-16.48.87-.81-23.3-.7-46.98.03-70.17,1.02.06,2.08.54,3.11.47Z"/>
          <path class="cls-116" d="M125.32,376.83c.24,1.49-1.24,5.13.65,5.9,2.92,1.11,6.1-.21,9.45.57-.52,4.32.26,8.65.14,12.78-.31,10.28-.32,20.59-.11,30.8-.34.11-.59.02-.87-.03-.45-.08.34-1.18.11-1.43-1.49-1.65-4.19-.94-6.53-.37-.32,2.32-.45,4.35-.44,6.3l7.15-.33c.12-.59-.02-1.21.61-1.14.12.64-.08,1.36.2,1.96.21.45-.23.64-.25,1.06-.83-.18-.32-1.19-.81-1.23-1.04-.09-1.61.1-2.28.38-1.18.48-2.66.02-4.18,0l-17.91-.17c-.52,0-.64-1.08-1.08-.72.79-1.78,1.67-3.51,1.7-5.49,2.03-2.16,5.51-.99,8.52-2.52,1.89-10.68-4.02-4.87-1.38-13.66.51-.44,2.58.09,2.59-1.29.08-6.02.22-11.79-.06-17.49-.14-2.85.52-5.89-.26-8.79-.49-1.83-.34-3.58-.4-5.32,1.86-.46,3.71.37,5.44.27Z"/>
          <path class="cls-99" d="M101.2,457.67c-.31,2.85.12,5.85-.5,9.13l-8.12.88-.85,6.86c-3.41.35-6.83.32-10.27.37.39-.75-.25-.75-1.21-.97-.73-.16-1.52-.08-2.21-.08-.48,0-.1-1.05-.83-1.32,1.15-1.31.34-3.15,1.04-4.71,2.33.12,4.56.76,7.32-.15l.02-6.57,5.23-1.65c.71-2.46.58-4.58.66-6.69,3.02.04,6.06-.74,9.49.27-.34,1.86.36,3.4.23,4.63Z"/>
          <path class="cls-80" d="M91.73,474.55l.85-6.86,8.12-.88c.62-3.28.19-6.28.5-9.13,3.1.07,6.28-.38,9.72.11,2.95.42,5.84-.5,8.64.76l-.02,7.22-10.43.92c-2.04.18-1.03,4.38-2.09,5.56-1.25,1.38-3.91.39-5.31.89-.76.27-.71,1.4-1.11,1.66-.74.48-10.29-.1-8.86-.24Z"/>
          <path class="cls-120" d="M85.59,461.12l-.02,6.57c-2.77.91-4.99.27-7.32.15-.87.33-.33-.52-.41-1.65-1.63-.06-3.73-.37-5.63.21-1.26.65-.73,3.94-.42,5.47,2.02.63,3.69.46,5.43.68.73.27.35,1.32.83,1.32.69,0,1.48-.08,2.21.08.96.22,1.6.22,1.21.97-.97.01-1.96-.08-3.27-.08l-11.74.04c-.3-2.94-.41-5.9.01-8.75,1.37-.48,2.66.05,4.13-.32,1.32-.34,1.37-2.28,1.66-3.33,4.39-1.03,8.82-1.87,13.33-1.35Z"/>
          <path class="cls-123" d="M110.86,425.65c-.02,1.97-.91,3.71-1.7,5.49-.22.18-.47.01-.66.06-2.68-.18-5.31.1-7.9-1.14.32-1.88-.11-3.42.67-4.97,3.37-.05,8.23-1.18,9.59.57Z"/>
          <g>
            <path class="cls-68" d="M135.44,432.88l-.18,5.27-9.01.17-.16,29.98c-.01,1.99-.3,4.15-.16,6.16l.55,7.81-65.13.27c-.43.22-.99-.03-1.28-.33-.17-.17-.39-.6-.39-1.12l-.08-6.03c-.04-3.03.21-6.06.25-9.4,1.86-.45,3.58-.29,5.99-.21l.46-6.7c2.27-.13,4.22-.22,6.09-.04-.39,1,.16,2.73-.12,3.77s-.34,2.99-1.66,3.33c-1.47.38-2.76-.15-4.13.32-.43,2.85-.31,5.81-.01,8.75l11.74-.04c1.31,0,2.3.09,3.27.08,3.44-.05,6.86-.01,10.27-.37-1.43.15,8.11.72,8.86.24.4-.26.35-1.39,1.11-1.66,1.4-.5,4.06.49,5.31-.89,1.06-1.18.06-5.38,2.09-5.56l10.43-.92.02-7.22c-2.8-1.26-5.69-.34-8.64-.76-3.44-.49-6.61-.04-9.72-.11.13-1.22-.57-2.77-.23-4.63-3.43-1.02-6.48-.23-9.49-.27-4.4-.06-8.97.48-13.13-.62l12.01-.23c.54-4.57-.27-8.93.51-13.18.64-3.5.55-7.46,1.16-6.68,5.55-.3,11.19.37,16.48-.87.19-.04.44.12.66-.06.45-.36.56.72,1.08.72l17.91.17c1.51.01,3,.48,4.18,0,.67-.27,1.25-.47,2.28-.38.49.04-.01,1.05.81,1.23Z"/>
            <path class="cls-176" d="M113.29,451.67c-1.78-.88-1.2-3.18-1.32-4.91-3.3-1.13-7.7-.58-11.03-.17.35-.79-.57-.5-.92-.52,2.49-2.75-.29-5,1.17-7.49,6.01-.44,12.02-.26,18.54-.11l.04,13.03c-2.3.47-4.41.15-6.48.16Z"/>
            <path class="cls-39" d="M113.29,451.67l-12.29.11-.06-5.19c3.33-.41,7.73-.97,11.03.17.12,1.73-.46,4.03,1.32,4.91Z"/>
            <path class="cls-117" d="M101.19,438.58c-1.46,2.48,1.32,4.74-1.17,7.49l-3.85-.23.12-7.49c1.94-.03,3.41.34,4.91.24Z"/>
            <path class="cls-46" d="M127.13,468.32l.09,6.63c-.59,0-.74-.37-1.3-.49-.14-2.01.15-4.17.16-6.16.29-.26.58.03,1.04.03Z"/>
          </g>
          <path class="cls-125" d="M120.61,209.64c.18,1.27-.63,3.44.51,4.7.79.87,3.72.46,4.6-.31,1.32-1.14.78-3.15.91-4.47.84.06,1.67-.21,2.23.35-.67,1.39-.04,3.1-.68,4.78-.27.7-1.58.12-2.28.17l-.71,6.95c-.13,1.32-1.21,1.25-1.89,1.93-1.39,1.4-1.24,4.05-.34,5.52-.84-.12-1.89.71-2.72,1.05.11-2.35.34-9.14-2.46-9.52-.96-.13-4.1,4.34-4.94,5.7s-2.65,1.52-2.06,4.08c.25,1.09-1.46,2.14-2.3,1.77.1-3.12-1.25-7.06.6-9.85l2.15-3.25c.69-1.03,2.82-1.18,2.17-3.4-.14-.48.09-1.44.38-1.74.95-.99.6-2.61.77-4.19,2.02-.81,4.13-.07,6.04-.29Z"/>
          <path class="cls-193" d="M134.96,209.36c.36,1.72-.53,3.85.09,5.52-1.4.6-3.67-.61-4.96.39-1.84,1.42-.88,5.34-1.2,6.88-.11.52-.75.31-1.15.64s-1.39-.17-1.64.49c-.71,1.85.3,3.89-.66,5.54-.4.69-1.88.53-2.47.45-.9-1.47-1.06-4.12.34-5.52.68-.68,1.75-.62,1.89-1.93l.71-6.95c.7-.05,2.01.53,2.28-.17.65-1.69.01-3.4.68-4.78,1.76-.64,4.19-.47,6.1-.55Z"/>
          <path class="cls-165" d="M126.64,209.56c-.13,1.31.4,3.33-.91,4.47-.89.77-3.82,1.17-4.6.31-1.14-1.25-.33-3.42-.51-4.7,2.02-.23,4-.23,6.03-.08Z"/>
          <path class="cls-175" d="M141.61,209.78c-.41,1.19.49,3.48-.5,4.42-1.57,1.15-3.36-.02-5.34.09-.47-1.5-.13-3.19-.11-4.82,1.94-.45,4.09.43,5.95.31Z"/>
          <path class="cls-91" d="M215.75,304.52c.12.44.08,1.14.4,1.5.29.32.66.49,1.08.38l.38,21.39,7.18.03-.03,16.88c-2.72-.11-5.16.26-7.93.32l-37.84.86c-.65.01-1.24.1-1.55-.26-.13-.15-.11-.42-.17-.68,2.82.17.88-4.8,3.08-6.81.79-.72,2.28-.13,2.48.72,1.12-2.03,1.58-3.49,1.57-5.4v-15.03c.76.37.5-.52.84-1.26.62.99,1.31,1.37,2.35,1.27.9-.09.53-2.12,1.13-2.24,5.2-1.1,10.2.5,13.8-3.99.89-1.11,3.4-1.03,4.71-1.63s2.54-1.02,2.17-3.09c1.75-.45,2.95-.15,4.21-.77.12-1.46.92-2.58,2.14-2.19Z"/>
          <path class="cls-91" d="M217.35,304.07c-.37.29-.68-.22-1.06-.1-.16-.63-.22-1.41.56-2.11,1.11.67.64,1.56.5,2.21Z"/>
          <path class="cls-18" d="M191.03,259.95c1.39,1.39,1.17,4.87.42,6.43l-7.08.35c-2.14.75-1.45-5.27-.95-5.82,2.21-1.64,5.23-.73,7.61-.96Z"/>
          <path class="cls-192" d="M135.59,222.66c.24,1.89-.06,3.84.53,6.1,2.14.48,4.16.2,6.05.42,0,.15.12.32.1.49l-.68,6.14c-1.81-.08-3.8.42-5.44-.46-.04-1.94.15-3.98-.4-6.17l-6.16-.27c-.42-1.73-.42-3.49-.14-5.09-.29-1.86,4.37-.55,6.13-1.16Z"/>
          <path class="cls-185" d="M135.05,214.88c.86,2.33.12,4.75.62,7.2.04.19-.1.4-.08.59-1.76.6-6.43-.7-6.13,1.16-.43-.71-1.22-.53-1.72-1.03.41-.33,1.04-.11,1.15-.64.32-1.54-.63-5.46,1.2-6.88,1.29-1,3.56.2,4.96-.39Z"/>
          <path class="cls-1" d="M148.87,229.33c-.03,2.28-.16,4.51.1,7.31-1.34.37-7.81,1.04-7.38-.82l.68-6.14c2.15-.51,4.39-.14,6.59-.35Z"/>
          <path class="cls-88" d="M149.55,223.11c.07,2.06-.7,4.13-.28,6.17-.15-.05-.27.03-.4.04-2.21.21-4.44-.16-6.59.35.02-.18-.1-.34-.1-.49l-.1-6.56c2.55-.01,5.06-.24,7.47.48Z"/>
          <path class="cls-58" d="M192.33,388.19l-.17,24.2c-.02,2.25-.2,4.33.71,6.06l-.76,5.93c-3.09.85-6.07.54-9.36.88-.29,1.91.45,3.38.38,5.56l-14.26.32c-.72-1.63-.02-3.45-.32-5.44-1.99-.63-4.09-.52-6-.13l-.46-17.3c-.03-1.3.61-3.48-.35-4.74-1.24-1.63-4.19-1.11-5.7-.27-.49-3.95-.43-7.96-.49-11.95-.03-2.55-.14-5.28.23-8.13l14.71-.64c1.01-1.02.52-3.11,1.74-3.72,1.35-.67,2.95-.35,3.49-1.14.64-.94.6-1.96.93-3.26.22-.86,1.61-1.05,2.13-.92,2.39.58,2.46-1.64,3.68-2.09l4.86-1.8c1.06-.39,3.06.21,4.66.38l.32,18.21Z"/>
          <path class="cls-94" d="M192.86,418.44c-.91-1.72-.72-3.81-.71-6.06l.17-24.2c1.41.3,2.84-.04,4.52.12.34,4.3.16,8.32.93,12.91.4,2.38-1.32,5.06.76,7.52,1.31,1.56,1.55,6.1.45,7.9-1.22,2-4.53,1.66-6.12,1.81Z"/>
          <path class="cls-107" d="M142.26,395.45l.09,36.23c-2.59.32-4.6.16-6.66.14-.28-.6-.09-1.32-.2-1.96-.18-.97-.02-2.03-.03-2.99-.21-10.21-.2-20.52.11-30.8,2.16-.6,4.46-.81,6.7-.62Z"/>
          <path class="cls-3" d="M143.4,395.45c-.38.02-.76.03-1.14,0-2.23-.2-4.54.02-6.7.62.13-4.12-.66-8.46-.14-12.78-3.35-.78-6.53.54-9.45-.57-1.89-.77-.41-4.41-.65-5.9,5.63-.33,11.21,0,17.16.24l-.03,17.73c.51.12,1.04.09.94.66Z"/>
          <path class="cls-76" d="M142.08,222.63l.1,6.56c-1.89-.23-3.91.06-6.05-.42-.59-2.26-.29-4.21-.53-6.1-.02-.19.12-.4.08-.59,2.13.13,4.26.56,6.41.55Z"/>
          <path class="cls-189" d="M109,369.7c.47,1.32-.27,3.32.73,4.54.94,1.14,2.99.32,4.2.88,1.9.89,3.96,1.93,5.95,1.44.07,1.75-.09,3.49.4,5.32.78,2.9.12,5.95.26,8.79-1.39-.21-2.85-.02-4.4-.47-.45-1.96-.17-3.95-.2-6.52-2.63-.6-5.13-.07-7.91-.36l-.52-6.1-6.58-.16c-.63-2.57.32-5.12.13-7.43,2.6-.57,5.29.12,7.93.06Z"/>
          <path class="cls-178" d="M100.17,362.4c-.02.27.17.48.44.43-.36,2.31.28,4.59.46,6.81-1.6.35-3.22-.07-5.13-.07l-.29-4.18c-.08-1.13-.92-2.05-.48-3.02,1.66-.11,3.32.26,5,.04Z"/>
          <path class="cls-163" d="M135.45,426.87c.02.97-.14,2.02.03,2.99-.62-.07-.49.56-.61,1.14l-7.15.33c-.01-1.94.12-3.97.44-6.3,2.34-.57,5.03-1.28,6.53.37.23.25-.56,1.35-.11,1.43.28.05.53.13.87.03Z"/>
          <path class="cls-172" d="M78.24,467.84c-.7,1.56.11,3.4-1.04,4.71-1.73-.22-3.41-.05-5.43-.68-.31-1.53-.84-4.82.42-5.47,1.91-.58,4-.26,5.63-.21.08,1.12-.46,1.98.41,1.65Z"/>
          <path class="cls-145" d="M162.11,408.27l-6.27.22c-.74-1.89.29-3.73.22-5.23,1.52-.84,4.46-1.36,5.7.27.96,1.26.31,3.44.35,4.74Z"/>
          <g>
            <path class="cls-25" d="M42.47,229.13l.06,12.71c0,1.19-.91,3.78.38,4.57,1.53.93,3.51-.03,5.01.61l.34,3.18c3.32.03,6.66.6,9.62-.41.47,1.85.22,4,.08,5.8l-10.07.33c-.1,1.68-.22,3.11.22,4.69,2.19-.19,4.18-.21,5.61.63-.02,1.8.09,3.59.4,5.38-.41-.14-.81.13-1.19.04-1.63-.4-3.75.28-5.27-.52-1.54-.94-2.46-2.72-4.81-1.89-.37-1.36-1.07-2.36-1.09-3.68l-.17-9.91c-1.61-.21-3.14.14-4.55-.39-.14-9.19-1.44-13.73,2.09-21.16.54-1.14,1.23-2.4,3.05-2.28-.26,1,.28,1.61.29,2.31Z"/>
            <path class="cls-36" d="M77.27,307.63c.18,0,.33.1.49.12-.39,1.79-.21,3.51.1,5.25.08.45-1,5.69,2.57,9.34.65.8-.86,3.26.63,4.04,1.09.57,2.34.76,3.3,1.13.02,3.33.92,6.8.6,10.22-.28,2.99.15,6.04.16,8.99v5.8c2.23.28,4.37.63,6.4.3-.05.36-.05.71.06,1.06-1.89,1.39-4.33.84-6.57.7.58-3.24-4.44-.86-7.06-1.89l-.1-31.28c0-1.13-.13-2.23-.76-2.69-1.31-.97-5.37.5-5.35-.94.06-3.66.5-6.96.04-10.26l5.48.08Z"/>
            <path class="cls-190" d="M60.28,273.87c.07-1.5-6.61-1.66-7.09-.78.06-.51-.38-.68-.68-.98l.43-5.46c.38.09.78-.17,1.19-.04,2.5.83,5.92,1.15,8-.64-.56,8.47-.95,4.25-1.85,7.89Z"/>
            <path class="cls-136" d="M60.28,273.87c-.51,2.04.43,4.41-1.14,6.08l-5.47-.11c-.5-2.36-.71-4.59-.47-6.75.47-.89,7.15-.72,7.09.78Z"/>
            <path class="cls-55" d="M52.93,266.66l-.43,5.46c-1.5.02-3.01.13-4.84-.2-.36-2.1-.18-3.95,0-5.78,1.52.8,3.63.12,5.27.52Z"/>
            <path class="cls-199" d="M134.36,246.58c.41,0,.67.43,1.14.26l-.31,6.73c1.93.5,3.59.2,5.45.17l1.39,4.62,7.29.36c-.21,2-.13,4.14.6,6.22,2.14-.22,3.81.11,5.51.17l-.45,10.19c2.37,1.02,9.03-.76,7.71,1.54.61-.15-11.02-.81-13.23-.23l-.72,3.8c-10.98,1.56-4.86,10.79-8.3,12.16l-2.41-1.24c.68-2.05-1.33-2.93-1.8-4.33-1.07-3.18-3.32-5.99-5.81-7.96-.5-.39-.14-2.23-1.12-2.29-4.28-.26-2.11-5.06-3.84-7.44-2.05-2.82-5.75.04-8.6-4.53-.92-1.48-3.22-4-4.81-5.22-1.18-.92-1.32-2.86-2.78-3.4-1.98-.73-1.86-3.1-3.02-4.38.88.97-7.25-2.59-5.69-5.78l33.8.58Z"/>
            <path class="cls-101" d="M164.46,284.63c.11.54-.33,1.26.02,1.96-1.25-2.46,3.52,3.97,3.99,5.86,1.26,5.09,1.19,10.22.77,15.1-2-.35-4.07-.01-6.07-.03l-7.73-.05c-.87,0-1.68-.22-1.8-.82-.11-.51-.21-1.07-.12-1.45.31-1.32,0-4.42-1.21-5.04-2.01-.85-4.51-.13-6.43-.33.12-2.07-1.13-4.23.11-6.44l6.4-.3c.66-.57.7-3.01.16-3.72l-5.12-.47c-.82-.93-.85-4.89.74-4.95,6.09-.26,5.18-2.4,15.26-1.24.5.21.92,1.44,1.02,1.93Z"/>
            <path class="cls-62" d="M65.06,235.96l-6.98.17c-.35,1.73-.38,3.32-.24,4.74.01.12-.04.25-.02.36-.93-.48-1.96-.37-3.12-.28l-12.18.9-.06-12.71,6.14-.51c0-1.49.35-2.87.29-4.12,2.94-.43,5.91-.67,8.85-.59l7.62.2c-.1,4.26.42,8.06-.32,11.85Z"/>
            <path class="cls-60" d="M82.52,260.17c-1.07.03-3.65-.58-3.98,1.01-1.03,5.06-.6,10.02-.69,15.05l-.41,24-5.58.06c0-.16-.12-.33-.09-.5.46-2.61-.15-5.28-.05-7.88.26-7.08.46-14.31-.71-21.15.49-3.91.89-8.48.57-12.65-.28-3.74.69-7.69.77-11.4,1.14.62,5.03,6.84,4.89,6.73,1.91,1.48,3.76,4.61,5.28,6.73Z"/>
            <path class="cls-201" d="M140.44,292.57c-.4,2.64.76,5.17-.49,8.33-2.35-1.86-5.25-3.96-5.62-6.57-.53-3.75-3.82-5.91-5.43-9.19-1.34-2.73-1.94-5.05-4.54-7.38-.16-.14-9.11-12.54-7.49-12.99,2.85,4.58,6.54,1.71,8.6,4.53,1.73,2.37-.44,7.17,3.84,7.44.98.06.63,1.89,1.12,2.29,2.5,1.97,4.74,4.78,5.81,7.96.47,1.41,2.48,2.28,1.8,4.33l2.41,1.24Z"/>
            <path class="cls-2" d="M62.13,265.98c-2.08,1.8-5.51,1.47-8,.64-.31-1.79-.42-3.58-.4-5.38,1.18-.36,2.93-1.45,4.77-.82.65-1.79.56-3.77-.53-4.83.14-1.8.39-3.95-.08-5.8-.25-.99.76-1.91.63-2.91l7.31.34c.45,6.05.24,12.11-.96,17.87-1.4-.19-2.06.32-2.73.89Z"/>
            <path class="cls-130" d="M176.74,303.48c-.04,1.3.52,2.87.25,4.17-.81,4,1.14,5.49-1.06,5.43-2.16-.77-5.08.88-7.1-.63l.42-4.91c1.55.27,3.05.61,4.99-.12-.51-4.05-.02-8.53-1.73-12.49l-4.4-10.18c-.11-.64.72-.88,1.16-1.16.59,3.66,5.26-.56,5.59,4.67.3,4.72,2.11,8.24,1.87,15.22Z"/>
            <path class="cls-196" d="M57.83,241.23c.33,1.85-.83,4.12.68,5.65.14,1-.88,1.92-.63,2.91-2.97,1-6.31.44-9.62.41l-.34-3.18c-1.5-.64-3.48.32-5.01-.61-1.29-.79-.37-3.38-.38-4.57l12.18-.9c1.16-.09,2.18-.2,3.12.28Z"/>
            <path class="cls-51" d="M71.01,270.76c1.17,6.84.96,14.07.71,21.15l-5.45.13c-.35-7.06-.11-14.16.17-21.23,1.51-.14,3.06-.18,4.57-.06Z"/>
            <path class="cls-203" d="M168.23,264.89c-1.67-.53-3.5.68-5.06.67-2.45-.86-5.12-.36-7.75-.46-1.7-.06-3.36-.39-5.51-.17-.73-2.08-.81-4.22-.6-6.22,3.91.19,8.37-.81,12.44-.5.32.66.35,1.69.96,1.96,1.53.68,4.36-.25,5.1.67.88,1.09.6,2.9.43,4.05Z"/>
            <path class="cls-75" d="M168.11,284.76l4.4,10.18c1.71,3.95,1.22,8.43,1.73,12.49-1.95.73-3.44.39-4.99.12.42-4.88.49-10.01-.77-15.1-.47-1.88-5.25-8.31-3.99-5.86-.35-.7.08-1.42-.02-1.96l3.65.12Z"/>
            <path class="cls-160" d="M163.17,265.57c-.37,3.48-.58,7.15.19,10.54.22.57-.27.62-.68.72,1.32-2.31-5.35-.53-7.71-1.54l.45-10.19c2.63.1,5.3-.4,7.75.46Z"/>
            <path class="cls-180" d="M168.23,264.89c.35.11.99.19,1.22.62-.33-.62,1.01,5.43-1.54,5.79.18,1.59.26,2.62.15,4.33-1.87.12-3.28.21-4.7.48-.77-3.4-.56-7.07-.19-10.54,1.57,0,3.39-1.21,5.06-.67Z"/>
            <path class="cls-110" d="M71.58,258.11c.32,4.16-.08,8.74-.57,12.65-1.51-.13-3.06-.08-4.57.06.14-3.61-.09-13.95,5.14-12.7Z"/>
            <path class="cls-179" d="M153.53,305.19c-.54.01-1.66,1.17-1.64,1.77-1.66-1.28-3.94.12-5.84-.51-.35-2.24-.29-4.41-.16-6.62,1.92.2,4.42-.53,6.43.33,1.22.62,1.53,3.71,1.21,5.04Z"/>
            <path class="cls-71" d="M71.72,291.91c-.09,2.6.51,5.27.05,7.88-1.38.41-4.61,1.04-5.44-.65-1.11-2.28.04-5.02-.06-7.1l5.45-.13Z"/>
            <path class="cls-198" d="M57.75,223.9c-2.94-.08-5.91.17-8.85.59l-.24-4.87c2.35-1.1,6.53-1.65,8.4.52.85.99-.17,3.13.69,3.76Z"/>
            <path class="cls-108" d="M77.44,300.23c-.04,2.44.42,4.98-.17,7.39l-5.48-.08c-.33-2.37.21-4.87.07-7.26l5.58-.06Z"/>
            <path class="cls-53" d="M141.13,246.66c-.31-1.09-7.55.89-5.63.18-.47.17-.73-.26-1.14-.26-.05-.71,1.24-.47.91-1.11l-.2-4.2c.4-.16.6-.65,1.04-.64l5.19.12c.53,2,.76,4.24-.17,5.92Z"/>
            <path class="cls-74" d="M65.06,235.96c-.23,1.16.93,3.54-.14,4.5-2.15.94-5.01,1.01-7.08.41-.15-1.42-.11-3.01.24-4.74l6.98-.17Z"/>
            <path class="cls-68" d="M181.43,316.98c1.26.06,2.96-.18,2.96,1.43v15.03c.01,1.91-.44,3.37-1.56,5.4-.2-.86-1.69-1.45-2.48-.72-2.21,2.02-.26,6.98-3.08,6.81-.12,0-.39-.08-.73.11.27.66-.15,1.65-.78,2.12-.28.21-.71-.43-1.21.38l-.37,5.23c-6.81,1.96-2.98,2.45-6.41,5.13-1.05.82-4.49-.21-4.67,1.28l-.52,4.37-12.64,1.66c-6.18,6.83-1.2,2.48-6.67,5.69-1.41.83-.83,4.16-.21,5.55l5.77.46.39,12.7c2.28.34,4.21-.14,6.14.44.25.2-.02,1.15.21,1.24.05,3.99,0,8,.49,11.95.07,1.5-.96,3.35-.22,5.23l6.27-.22.46,17.3-.46,6.06c-2.13-.05-4.27.38-6.64-.14v-22.79s-6.44-.17-6.44-.17l-.12-13.02c-2.14-.16-3.83-.13-5.5-.06.1-.57-.43-.54-.94-.66l.03-17.73c-5.95-.24-11.53-.57-17.16-.24-1.74.1-3.58-.73-5.44-.27-1.99.49-4.05-.55-5.95-1.44-1.21-.57-3.25.25-4.2-.88-1-1.21-.26-3.21-.73-4.54,1.76-.04,3.74.41,5.35-.56,8.74,1.35,18.05.22,27.44.26.54-2.9.25-5.23.47-7.69l7.19-1.35c-.62.12,9.78-3.37,11.66-2l1.74-5.99,5.5-.7c.7-1.68-.03-3.95,1.01-5.54,1-.37,2.98.35,3.42-1.2.49-1.74-.16-5.03,1.19-6,2.41-1.51,3.34-2.62,3.44-5.5l.55-16c1.29-.58,2.41-.51,3.48-.46Z"/>
            <path class="cls-144" d="M100.1,354.53c-2.48.68-5.29-.28-7.81-.02-.34.03-.61-.3-.7-.61-.11-.35-.11-.7-.06-1.06.29-2.02.18-4.1.16-6.14,2.54-.28,5.22-.59,8.02.39l.39,7.44Z"/>
            <path class="cls-34" d="M100.1,354.53c.14,2.61.15,5.25.07,7.87-1.68.22-3.34-.15-5-.04-1.03.07-2.09-.41-3.11-.47l.23-7.38c2.52-.25,5.33.7,7.81.02Z"/>
            <path class="cls-5" d="M57.96,255.59c1.09,1.06,1.18,3.04.53,4.83-1.84-.62-3.59.47-4.77.82-1.43-.83-3.43-.82-5.61-.63-.44-1.59-.32-3.01-.22-4.69l10.07-.33Z"/>
            <path class="cls-54" d="M84.38,312.96c.68,4.82-.03,9.74,0,14.55-.96-.37-2.22-.56-3.3-1.13-1.49-.78.03-3.25-.63-4.04-3.58-3.66-2.5-8.89-2.57-9.34l6.52-.03Z"/>
            <path class="cls-78" d="M91.69,346.69c-2.15.24-4.41-.32-6.56.04,0-2.96-.43-6.01-.16-8.99,2.11.11,4.32-.36,6.63.15l.09,8.8Z"/>
            <path class="cls-22" d="M91.69,346.69c.02,2.04.13,4.12-.16,6.14-2.03.33-4.17-.02-6.39-.3v-5.8c2.15-.36,4.41.2,6.55-.04Z"/>
            <path class="cls-161" d="M84.38,312.96l-6.52.03c-.31-1.74-.49-3.46-.1-5.25,1.94.13,4.09-.11,6.35.2.95,1.74.04,3.44.26,5.02Z"/>
            <path class="cls-20" d="M175.93,313.08c1.74.62,3.55.92,5.69,1.48.86.23-.07,2.11-.19,2.41-1.07-.05-2.2-.12-3.48.46l-.55,16c-.1,2.88-1.02,3.98-3.44,5.5-1.34.97-.7,4.26-1.19,6-.44,1.55-2.41.82-3.42,1.2-1.04,1.59-.31,3.86-1.01,5.54l-5.5.7-1.74,5.99c-1.88-1.37-12.27,2.12-11.66,2l-7.19,1.35c.21-2.39,1.04-4.71,1.51-7.24,2.08-.26,3.61.12,5.23-.31,1.02-1.16.18-3.25,1.28-4.14,4.52-3.68,6.21-1.71,6.58-4.09.22-1.4.46-2.79.95-4.08.07-.19.42-.46.47-.69,1.18.95,2.09.5,3.48,0,2.74-.99-2.54-2.78,7.39-4.07l.34-7.88c.14-3.24,1.42-6.65.03-9.74l-8.04-.66c.59-.7.98-.78,1.05-1.05,1.62-.57,3.73-.95,5.89-.78.73-1.53.22-2.75.25-3.99,0-.18.15-.36.16-.53,2.02,1.51,4.94-.15,7.1.63Z"/>
            <path class="cls-37" d="M162.54,317.75c-.06.27-.46.35-1.05,1.05l8.04.66c1.39,3.09.11,6.5-.03,9.74l-.34,7.88c-9.93,1.29-4.65,3.08-7.39,4.07-1.39.5-2.3.96-3.48,0,.22-.9.48-1.93.27-2.85,1.13-.71,2.53-.76,4.04-1.38.71-2.62.38-4.93.34-7.89l-5.76-2.31c.85-1.19,1.57-3.36,1.09-4.64-2.47-6.56-4.52-1.55-3.5-4.71.2-.63,7.14-.04,7.77.38Z"/>
            <path class="cls-127" d="M158.56,338.31c-1.56-1.78-7.39-1.34-10.14-3.12.76-2.76,3.48-4.27,5.7-6.04l3.05-2.43,5.76,2.31c.04,2.96.37,5.27-.34,7.89-1.51.62-2.91.67-4.04,1.38Z"/>
            <path class="cls-121" d="M163.18,307.52c-.64,1.34-1.07,3.6.59,4.61.4.24,1.24-.64,1.3-.09l.11.99c-4.11.04-8.23.44-12.64-.12-.55-1.75-.58-4.53-.64-5.94-.03-.6,1.1-1.76,1.64-1.77-.09.38.01.94.12,1.45.12.6.93.82,1.8.82l7.73.05Z"/>
            <path class="cls-164" d="M169.25,307.54l-.42,4.91c-.01.17-.16.35-.16.53l-3.49.04-.11-.99c-.06-.54-.91.33-1.3.09-1.66-1.01-1.23-3.26-.59-4.61,2.01.01,4.07-.32,6.07.03Z"/>
            <path class="cls-168" d="M142.27,361.71c-.22,2.45.06,4.79-.47,7.69-9.4-.04-18.7,1.09-27.44-.26.37-1.9-.31-3.77-.43-5.67,6.22-1.37,12.81,0,19.36-.84,3.05-.39,6.16-.37,8.99-.91Z"/>
            <path class="cls-135" d="M113.92,363.46c.12,1.9.8,3.78.43,5.67-1.6.97-3.58.52-5.35.56-.76-2.13-.04-4.52-.51-6.73,1.72.2,3.81-.22,5.43.49Z"/>
            <path class="cls-183" d="M157.82,341.85c-.49,1.29-.73,2.68-.95,4.08-.37,2.38-2.06.41-6.58,4.09-1.1.9-.26,2.99-1.28,4.14-1.62.43-3.15.05-5.23.31-.47,2.53-1.3,4.85-1.51,7.24-2.83.53-5.94.52-8.99.91-6.55.84-13.13-.52-19.36.84-1.61-.71-3.71-.29-5.43-.49-2.61-.31-5.25-.39-7.89-.15-.27.05-.46-.16-.44-.43.08-2.62.06-5.26-.07-7.87,1.73-.47,2.69.25,4.84.36,9.27.47,19.57.29,28.56.11.85-1.41,3.05-1.6,3.93-2.33,1.63-1.36,2.89-3.38,5.34-4.29,1.79-.67,3.23-2.47,5.48-2.18l1-4.36h8.58Z"/>
            <g>
              <path class="cls-21" d="M82.52,260.17c.86,1.21,1.99,2.3,2.8,3.71,1.72,2.99,4.48,4.96,6.17,8.36.86,1.72,2.93,1.65,3.11,4.06.19,2.64,7.75,12.02,8.46,13.78.59,1.45,7.12,10.59,9.41,10.44-.92,1.9,1.13,2.63,1.83,4.01.53,1.05.76,0,1.05.1.76.23.91,1.14.9,1.72-.03,1.59,1.42,2.2,2.21,3.22l7.96,10.3c.97,1.26,2.24,2.01,2.74,4.07.78-.5.21-.88.4-1.07.29-.29.72-.08.57.14-1.16,1.62,6.1,7.37,3.6,9.36-.21.17-.86.15-1.11.58-.49,1.63-.18,2.99-.01,4.59,2.62-.64,3.48,2.2,4.55,3.25,2,.81,4.2-1.63,5.46-3.17,1.33-1.62,5.1.03,5.78-2.41,2.75,1.77,8.58,1.34,10.14,3.12.21.92-.05,1.94-.27,2.85-.06.23-.4.51-.47.69h-8.58s-1,4.35-1,4.35c-2.24-.29-3.69,1.51-5.48,2.18-2.45.92-3.71,2.93-5.34,4.29-.88.73-3.08.92-3.93,2.33-8.98.18-19.29.36-28.56-.11-2.15-.11-3.11-.83-4.84-.36l-.39-7.44c-2.8-.98-5.48-.67-8.02-.39l-.09-8.8c-2.31-.51-4.52-.04-6.63-.15.32-3.43-.59-6.89-.6-10.22-.02-4.81.68-9.73,0-14.55-.22-1.58.69-3.29-.26-5.02-2.26-.3-4.41-.06-6.35-.2-.16-.01-.31-.11-.49-.12.59-2.41.13-4.95.17-7.39l.41-24c.09-5.03-.34-9.99.69-15.05.32-1.59,2.91-.98,3.98-1.01Z"/>
              <path class="cls-11" d="M90.99,305.65c-.74,1.77-4.21.99-5.73,1.03-.36-5.95-1.01-5.49-.92-11.99,2.28-.5,4.51-.33,7.09-.02.15,3.58-.04,6.82-.44,10.98Z"/>
            </g>
            <g>
              <path class="cls-149" d="M38.59,199.09c1.04,1.7.55,3.33.93,3.65.47.4.98.47,1.53.58.94,1.4,1.55,3.55.99,5.46l-7.76,1.14c-.33.05-.63-.11-.61-.47.09-1.8-.65-4.57.78-6.12,1.3-1.42.84-3.16.43-4.82,1,1.24.73-5.02.68-5.12-.25-.45,1.74-.63,1.85-.16.43,1.94.13,4.13,1.19,5.86Z"/>
              <path class="cls-187" d="M34.28,209.92c-.54,1.5-1.55,3.47-3.37,3.13-.05-1.02.06-2.05-.1-3.07.96-.12,2.04,0,2.85-.53-.02.36.29.52.61.47Z"/>
              <path class="cls-118" d="M140.42,327.88c-.7.36-1.79.48-2.56.76-.95-.66-1.94-1.45-2.79-2.49l-9.55-11.62-29.02-36.52c-.87-.7-1.04-1.67-1.89-1.72-.18-2.41-2.25-2.33-3.11-4.06-1.7-3.4-4.46-5.37-6.17-8.36-.81-1.41-1.94-2.5-2.8-3.71-1.51-2.13-3.36-5.26-5.28-6.73.14.11-3.75-6.1-4.89-6.73.1-4.9-1.26.18-.06-4.85,4.35,4.64,7.89,9.99,11.95,15.25l20.68,26.84,15.41,19.59,20.08,24.32Z"/>
              <path class="cls-202" d="M91.47,261.74l9.21,12.67,32.35,40.44,8.95,11.05c.37.55-.98,1.68-1.56,1.98l-20.08-24.32-15.41-19.59-20.68-26.84c-4.06-5.26-7.6-10.61-11.95-15.25-1.39-1.49-2.15-4.46-.75-6.24,4.94,8.24,15.33,19.78,19.94,26.12Z"/>
              <path class="cls-49" d="M46.85,188.28c0-.8.68-.75.87.08.09.41-.03.76.26.97.23.16.38.41.68.19-.57,1.57.35,2.97,1.74,3.87.85.55,1.82,3.58,3.15,2.56,1.1-.84,2.1-1.93,3.31-2.59,3.17-1.75,2.9-5.81.92-8.14.45-1.6.17-3.17.04-4.81,2.44.5,4.82,1.78,6.51,3.33.76,9.28,1.64,5.97-1.76,13.46-2.65.35-3.88,2.88-5.94,3.44-2.79.77-7.31-.63-8.15-2.81l-1.4-3.6c-.77-1.98.17-4.23-.21-5.95Z"/>
              <path class="cls-173" d="M57.81,180.4c.13,1.64.41,3.21-.04,4.81-1.42-.65-11.34.42-8.66,1.86.89.48,2.82-2.9,1.69-.29-.7,1.61-1.65.31-2.15,2.73-.3.22-.45-.03-.68-.19-.29-.2-.17-.56-.26-.97-.18-.83-.86-.88-.87-.08-1.55-.04-3.13-.32-4.67-.05-.4.12-.84-.05-.75-.5-.03-1.63.08-3.28.42-5.16,4.89-2.82,10.63-3.25,15.95-2.17Z"/>
              <path class="cls-109" d="M53.67,207.04c-.49.07-1.5,1.36-2.06.58l-1.06-1.48c-.37-.52-1.85-.9-2.26.13-.61,1.54-.06,3.75-1.76,4.28-.59.19-1.38-.12-1.99.29-.41.28-.56.8-.52,1.56l-1.19-1.22c-.15-.16-2.98-.58-3.43-.16-.4.37-.09,1.09-.18,1.39-3.03,3.37-4.87-.97-4.81,3.63.02,1.35-1.84,1.94-3.34,1.98-.38-1.84-.08-3.39-.16-4.98,1.82.34,2.83-1.63,3.37-3.13l7.76-1.14c1.24-.18.91-2.05,1.73-2.85,1.27-1.25,3.35-1.26,4.41-2.57,1.61.72,5.61,1.1,5.5,3.68Z"/>
              <path class="cls-148" d="M42.12,199.73c3.43.36,3.33.41,6.05,3.63-1.06,1.32-3.14,1.32-4.41,2.57-.81.8-.48,2.67-1.73,2.85.55-1.9-.06-4.06-.99-5.46-.56-.83-.14-3.83,1.07-3.59Z"/>
              <g>
                <path class="cls-35" d="M108.47,213c.26.4.76.65,1.19.69-2.01,1.8-.14,1.5-1.26,5.34l-7.12.24c-.24,1.69-.29,3.36-.82,4.94-1.43.65-2.96.18-4.21,1.08-.72,3.86-.56,7.57-.84,11.49-1.23-.11-3.67-.58-3.79.78-.19,2.2,2.24,2.41,3.55,2.41h12.17c4.16,0,8.28.16,12.45.11,5.1-.07,10.26.63,15.28,1.18l.2,4.2c.33.63-.96.4-.91,1.11l-33.8-.58c-1.56,3.18,6.57,6.74,5.69,5.78,1.16,1.28,1.03,3.64,3.02,4.38,1.46.54,1.6,2.48,2.78,3.4,1.59,1.23,3.88,3.74,4.81,5.22-1.62.44,7.33,12.84,7.49,12.99,2.6,2.33,3.2,4.64,4.54,7.38-1.93-.83-3.13-2.71-4.5-4.48l-12.36-15.88c-1.05-1.35-1.84-2.61-3.05-4.05l-12.02-14.23c-.2-.23-.9-.2-1.1-.03l-.65.54c1.15-.96,9.31,10.19,10.43,11.62l21.68,27.63c2.32,2.95,4.37,5.8,6.99,8.06.37,2.61,3.27,4.7,5.62,6.57,1.25-3.16.1-5.69.49-8.33,3.43-1.37-2.69-10.6,8.3-12.16l.72-3.8c2.2-.58,13.84.08,13.23.23.41-.1.9-.16.68-.72,1.42-.27,2.84-.35,4.7-.48.11-1.72.03-2.74-.15-4.33,2.55-.36,1.21-6.42,1.54-5.79-.23-.43-.87-.5-1.22-.62.17-1.15.46-2.95-.43-4.05-.74-.92-3.57,0-5.1-.67-.61-.27-.63-1.3-.96-1.96-4.07-.31-8.52.69-12.44.5l-7.29-.36-1.39-4.62c-1.85.03-3.51.33-5.45-.17l.31-6.73c-1.92.71,5.33-1.28,5.63-.18.24.87,1.34.92,1.82,1.78.45.8-.13,1.82.49,2.12-.27-.14,15.75,1.58,16.91.89,1.12-.51,1.28,1.26,1.89,1.63,1.8.95,3.92.12,5.88.77.31,2.25-.18,4.27.33,6.12,2.64.39,4.85-.23,6.87.52.15,1.66-.54,4,.51,5.64,1.16,1.82,7.17-.29,6.89,1.68.08,1.12.53,3.56-.44,4.52-1.63,1.11-4.06-.15-5.92.37-1.29.36-.41,2.76-1.1,3.32-1.69.97-3.95,0-5.86.51l-.12,7.06c-.44.28-1.27.52-1.16,1.16l-3.65-.12c-.1-.48-.52-1.72-1.02-1.93-10.08-1.16-9.18.98-15.26,1.24-1.59.07-1.56,4.02-.74,4.95l5.12.47c.53.71.5,3.15-.16,3.72l-6.4.3c-1.24,2.21,0,4.37-.11,6.44-.12,2.21-.19,4.39.16,6.62.21,1.31,0,2.69,1.06,4.31-1,.92-2.41-.07-2.57,1.09-.28.1-.47.42-.5.75-.44.43-.95,0-1.55-.11-.68-.13-.63-1.04-1.15-1.85-1.47-.41-.69-.63.31-.56.32-.07.44-.42.84-.7.37-.25.44-.62-.29-.63.01-1.58-1.22-3.77-2.88-4.12-.37-.08-.34,1.21-.38,1.48-.16.93-2.53-.07-3.1-.99-.25-.41-.04-1.34.23-1.81.8-1.38-.67-1.68-1.44-2.67l-23.53-30.26-19.61-24.95-19.27-23.89c-1,.23-.91,1.22-1.01,1.94-.12.87.57,1.08,1.09,1.61-.2,1.2-1.04,2.18-1.06,3.43l-.03,3.03,15.69,19.97,6.56,9.01c-.27,1-1.6.36-1.99,1.21-4.61-6.34-15-17.88-19.94-26.12-1.4,1.79-.64,4.75.75,6.24-1.19,5.03.17-.05.06,4.85-.08,3.72-1.06,7.66-.77,11.4-5.23-1.25-5,9.09-5.14,12.7-.28,7.06-.52,14.16-.17,21.23.1,2.08-1.05,4.82.06,7.1.82,1.69,4.06,1.06,5.44.65-.03.17.08.34.09.5.14,2.39-.39,4.89-.07,7.26-1.83-.03-3.71.07-5.96-.21l-.09-7.05-6.51-.17-.09-20.17c1.57-1.66.63-4.04,1.14-6.08.9-3.63,1.3.58,1.85-7.89.67-.58,1.33-1.09,2.73-.89,1.2-5.76,1.41-11.82.96-17.87l-7.31-.34c-1.51-1.54-.35-3.8-.68-5.65-.02-.11.03-.24.02-.36,2.06.61,4.93.53,7.08-.41,1.07-.96-.09-3.34.14-4.5.74-3.79.22-7.59.32-11.85l-7.62-.2c-.86-.63.16-2.77-.69-3.76-1.87-2.17-6.05-1.63-8.4-.52-.66-.3-.75-1.35-1.14-1.83,2.25-.68,4.76.77,7.56.4,1.28-1.05-.79-3.69-3.14-3.96,1.34-2.26,3.36-1.07,4.95-2.29.35-2.34-1.23-4.08-3.22-4.91.12-2.58-3.89-2.97-5.5-3.68-2.72-3.21-2.62-3.27-6.05-3.63l-.95-4.02c3.82,1.12.35-5.56,1.02-7.48,1.54-.28,3.11,0,4.67.05.38,1.73-.56,3.97.21,5.95l1.4,3.6c.85,2.17,5.37,3.58,8.15,2.81,2.06-.57,3.29-3.1,5.94-3.44,3.4-7.49,2.52-4.18,1.76-13.46-1.68-1.56-4.07-2.84-6.51-3.33-5.32-1.08-11.06-.65-15.95,2.17-.34,1.87-.45,3.53-.42,5.16-4.31.77-.86,11.54-2.85,11.36-1.06-1.73-.76-3.92-1.19-5.86-.1-.47-2.1-.3-1.85.16.06.1.33,6.36-.68,5.12-.64-2.58-1.43-13.9,1.45-16.1,1.2-.92,3.12-.15,4.37-1.33.5-1.11,1.09-4.52,2.59-4.71,5.27-.69,5.93-7.32,23.14,1.68,4.65,7.58,3.94,6,3.37,16.11-.26,4.67-4.5,4.15-6.95,8.97.11,1.26,2.14,1.4,2.89,1.82,1.05.6.14,2.44.64,2.97,1.36,1.44,2.12,2.85,2.17,5,1.66.64,3.07.6,4.33,1.32.26,1.28-.5,3.68.81,4.28,4.53,2.08,2.18,4.36,8.17,7.16.32.15.68,1.16.92.91,2.75-2.82-.7,3.5,4.14,5.75,1.22.57,1.15,3.61,3.58,3.37l.31-8.91c.06-1.79,1.07-2.68,2.93-2.65l.98-4.5,6.25-.89c.25-1.75-.05-3.42.36-4.97,2.53-.45,5.04.32,7.14-.81Z"/>
                <g>
                  <path class="cls-4" d="M128.9,285.14c1.61,3.28,4.9,5.44,5.43,9.19-2.63-2.26-4.68-5.11-6.99-8.06l-21.68-27.63c-1.12-1.43-9.28-12.58-10.43-11.62l.65-.54c.2-.17.91-.2,1.1.03l12.02,14.23c1.21,1.44,2.01,2.7,3.05,4.05l12.36,15.88c1.37,1.77,2.58,3.65,4.5,4.48Z"/>
                  <path class="cls-167" d="M42.18,188.23c-.67,1.91,2.8,8.6-1.02,7.48l.95,4.02c-1.21-.24-1.63,2.76-1.07,3.59-.55-.11-1.06-.19-1.53-.58-.38-.32.11-1.95-.93-3.65,1.99.17-1.46-10.59,2.85-11.36-.09.45.35.62.75.5Z"/>
                  <path class="cls-38" d="M65.57,213.27c.38,1.41,3.34,2.04,1.87,4.47l-3.74-4.38c-1.24-1.46-1.95-3.32-3.5-4.64-1.05-.89-1.05-2.09-1.68-3.19-.55-.95-2.37-3.07-.61-3.89.89.5,2.35,2.32,3.07,2.05-.89,1.76.88,4.03,1.87,5.51.41.6,1.66.16,2.06,1.07.33.75.29,1.63.66,2.98Z"/>
                  <path class="cls-10" d="M63.95,217.88c-1.08.9-1.78-.2-2.04-.67-.37-.69-.66-2.28.82-2.29,1.02,0,1.99,2.32,1.22,2.96Z"/>
                  <path class="cls-89" d="M58.44,215.82c.71-.45,1.15.23,1.38.52.33.4.51,1.33.06,1.47-.72.22-1.48.25-1.7-.04-.28-.36-.42-1.52.25-1.94Z"/>
                  <path class="cls-87" d="M58.6,213.04c.46-.26,1.09.05,1.33.43.15.23,0,.52-.4.81-.22.16-.54.17-.94,0s-.66-.85.01-1.23Z"/>
                </g>
              </g>
              <path class="cls-186" d="M44.03,212.41c2.56,2.62,1.58,3.05,3.49,5.38-.48.15-.96,1.09-1.43,1.03-1.75-.21-2.04-3.83-2.39-4.11-.8-.65-1.66-.43-2.83-.4s-.7-1.77-1.65-1.88c.09-.3-.22-1.02.18-1.39.45-.42,3.28,0,3.43.16l1.19,1.22Z"/>
              <g>
                <path class="cls-93" d="M30.81,209.98c.16,1.02.05,2.05.1,3.07.07,1.59-.22,3.14.16,4.98,1.51-.05,3.36-.63,3.34-1.98-.06-4.6,1.78-.26,4.81-3.63.95.12.49,1.91,1.65,1.88s2.03-.24,2.83.4c.35.29.64,3.91,2.39,4.11.47.06.95-.89,1.43-1.03.39.48.49,1.54,1.14,1.83l.24,4.87c.06,1.26-.28,2.63-.29,4.12l-6.14.51c0-.7-.54-1.3-.29-2.31-1.82-.12-2.51,1.14-3.05,2.28-1.9-.03-3.78.46-6.09.05-.7-1.48-.31-3.05-.67-4.75-2.06.09-4.91-.71-5.26-3.01-.55-3.67.15-7.16-.11-11,1.39-.49,2.59-.27,3.8-.42Z"/>
                <path class="cls-142" d="M39.63,219.37c-.26.74-.49,2.15-1.33,2.74-.98.68-1.4-.95-1.54-1.61-.22-1.06,1.2-1.84,2.87-1.13Z"/>
              </g>
              <path class="cls-119" d="M137.85,328.64c1.15-.69-5.64,7.03-4.1,3.73,2.5-1.99-4.77-7.74-3.6-9.36.16-.22-.28-.43-.57-.14-.19.19.37.57-.4,1.07-.5-2.06-1.76-2.81-2.74-4.07l-7.96-10.3c-.79-1.02-2.24-1.63-2.21-3.22.01-.58-.15-1.49-.9-1.72-.29-.09-.52.95-1.05-.1-.7-1.38-2.75-2.11-1.83-4.01-2.29.15-8.83-8.99-9.41-10.44-.71-1.76-8.27-11.15-8.46-13.78.85.05,1.02,1.01,1.89,1.72l29.02,36.52,9.55,11.62c.85,1.04,1.85,1.83,2.79,2.49Z"/>
              <g>
                <path class="cls-48" d="M135.06,303.31c-.04-.5-1.3.94-1.27.97.35.42.77.37.93.23.26-.21.53-.77.34-1.2.33-.04.67,0,1,.02-.27.47-.48,1.4-.23,1.81.57.92,2.94,1.92,3.1.99.05-.27.01-1.56.38-1.48,1.65.35,2.89,2.54,2.88,4.12-.31-.08-.57.11-.61.32-.05.25.02.71.06,1.01-1-.07-1.78.15-.31.56.53.81.48,1.72,1.15,1.85.6.11,1.11.54,1.55.11.37,1.66,2.54,2.5,2.53,4.79,0,.7.69-.36,1.06-.07.46.36.47,1.3,1.31.9-1-2.6-3.12-4.16-4.4-6.38.16-1.17,1.57-.18,2.57-1.09-1.06-1.62-.85-3-1.06-4.31,1.9.63,4.18-.77,5.84.51.07,1.42.1,4.19.64,5.94,4.41.56,8.53.16,12.64.12l3.49-.04c-.03,1.24.48,2.46-.25,3.99-2.16-.17-4.27.21-5.89.78-.63-.42-7.57-1.01-7.77-.38-1.02,3.16,1.03-1.85,3.5,4.71.48,1.28-.24,3.46-1.09,4.64l-3.05,2.43c-2.23,1.77-4.94,3.29-5.7,6.04-.67,2.44-4.45.79-5.78,2.41-1.26,1.54-3.46,3.98-5.46,3.17-1.07-1.05-1.93-3.89-4.55-3.25-.16-1.6-.47-2.96.01-4.59.25-.42.89-.4,1.11-.58-1.54,3.3,5.25-4.42,4.1-3.73.77-.27,1.87-.4,2.56-.76.58-.3,1.94-1.43,1.56-1.98l-8.95-11.05-32.35-40.44-9.21-12.67c.39-.85,1.73-.21,1.99-1.21l13.83,17.46,12.12,15.57,18.89,23.44c.58.72.94,1.39,1.94,2.1,1.37,1.58,2.32,4.15,4.29,5.02,1.57-.36-.39-1.63-.62-2.27-1.21-3.38-4.18-6.37-6.52-9.38l-13.27-17.04-28.47-36.64-11.37-14.56c-2.46-3.15-4.52-6.1-7.19-9.06-2.26-2.51-5.39-8.23-5.85-6.62.01-1.25.86-2.23,1.06-3.43,3.12,3.16,5.72,6.93,8.66,10.57l9.48,11.74,27.29,35.14c3.37,4.34,6.68,8.14,9.8,12.57,2.25,3.18,4.94,5.64,7.52,8.19Z"/>
                <g>
                  <path class="cls-26" d="M93.47,260.54l-6.56-9.01-15.69-19.97.03-3.03c.47-1.61,3.59,4.11,5.85,6.62,2.66,2.96,4.73,5.91,7.19,9.06l11.37,14.56,28.47,36.64,13.27,17.04c2.34,3.01,5.3,6,6.52,9.38.23.64,2.19,1.92.62,2.27-1.98-.86-2.92-3.44-4.29-5.02-1-.71-1.36-1.38-1.94-2.1l-18.89-23.44-12.12-15.57-13.83-17.46Z"/>
                  <path class="cls-8" d="M136.06,303.33c-.33-.02-.67-.06-1-.02-2.58-2.56-5.28-5.01-7.52-8.19-3.13-4.43-6.43-8.24-9.8-12.57l-27.29-35.14-9.48-11.74c-2.94-3.64-5.54-7.41-8.66-10.57-.52-.53-1.21-.74-1.09-1.61.1-.72.02-1.71,1.01-1.94l19.27,23.89,19.61,24.95,23.53,30.26c.77.99,2.23,1.29,1.44,2.67Z"/>
                  <path class="cls-43" d="M144.04,312.61c.03-.33.22-.66.5-.75,1.28,2.22,3.4,3.78,4.4,6.38-.84.39-.85-.55-1.31-.9-.37-.29-1.06.77-1.06.07.01-2.3-2.16-3.13-2.53-4.79Z"/>
                  <path class="cls-44" d="M141.65,310.1c-.04-.3-.11-.76-.06-1.01.04-.21.3-.4.61-.32.73,0,.66.38.29.63-.4.28-.52.62-.84.7Z"/>
                  <path class="cls-155" d="M142.23,334.59c1.5-1.59-5.35,3.43-6.36,2.52.38-1.3.32-2.51.13-3.82.67-1.06,2.98-.74,4.17-1.27,1.54-.69,2.1-2.78,3.41-3.66s3.65-.47,4.76-1.93c.51-.67.84-1.73,1.81-1.4.51.17,1.2.92.86,1.76-.24.59-1.02,1.35-2.46.87,1.4,3.86-2.46,2.85-6.33,6.94Z"/>
                  <path class="cls-200" d="M154.75,323.58c-1.11.43-1.89.66-2.36.46-.67-.29-1.01-1.28-.8-1.76.43-.98,2.65-1.29,3.42-.22.24.33.6,1.18-.26,1.51Z"/>
                  <path class="cls-134" d="M153.36,318.12c-1.36,1.1-2.58,2.6-4.43,2.89,2.66-3.07.95-3.39,2.56-3.91.49-.15,1.92.31,1.87,1.02Z"/>
                  <path class="cls-174" d="M135.06,303.31c.19.43-.08.99-.34,1.2-.17.14-.58.19-.93-.23-.02-.03,1.23-1.47,1.27-.97Z"/>
                </g>
              </g>
              <g>
                <path class="cls-32" d="M53.67,207.04c1.99.83,3.57,2.57,3.22,4.91-1.6,1.22-3.61.02-4.95,2.29,2.35.27,4.42,2.91,3.14,3.96-2.8.37-5.32-1.09-7.56-.4-1.91-2.33-.94-2.76-3.49-5.38-.04-.77.1-1.29.52-1.56.61-.41,1.4-.11,1.99-.29,1.7-.53,1.15-2.74,1.76-4.28.41-1.03,1.88-.65,2.26-.13l1.06,1.48c.56.78,1.57-.51,2.06-.58Z"/>
                <path class="cls-33" d="M48.95,210.42c.39-.71,1.9-.49,2.39-.23s.6,1.33.36,1.88c-.34.79-1.45.48-2,.44-.78-.05-1.41-.91-.75-2.1Z"/>
              </g>
              <g>
                <path class="cls-67" d="M57.77,185.21c1.98,2.33,2.25,6.39-.92,8.14-1.2.66-2.21,1.75-3.31,2.59-1.33,1.01-2.29-2.01-3.15-2.56-1.39-.9-2.31-2.29-1.74-3.87.5-2.42,1.45-1.13,2.15-2.73,1.13-2.62-.8.77-1.69.29-2.68-1.44,7.24-2.51,8.66-1.86Z"/>
                <path class="cls-169" d="M57.55,191.12c-1.38.1-2.91,1.37-4.58,1.28s-1.11-2.41-.71-3.37c.55-1.29,2.63-1.33,4.14-1.04.54-1.7,1.47-.33.31.48-.09.67.47,1.2.84,2.65Z"/>
              </g>
            </g>
            <path class="cls-90" d="M108.49,362.97c.47,2.21-.25,4.59.51,6.73-2.64.06-5.33-.63-7.93-.06-.18-2.22-.82-4.51-.46-6.81,2.63-.24,5.28-.16,7.89.15Z"/>
          </g>
        </g>
        <g>
          <path class="cls-105" d="M234.98,110.66c-.45.02-1.74-.17-1.86.37-.53,2.47-.37,5.02-.25,7.64l6.99.18.31,6.16,8.27.18c.39,1.93-.04,2.97-.04,4.13l-.12,33.01c-2.94.23-5.36.23-7.79.16l-.27-6.28c-.02-.44-.07-.6.58-.81.46-6.19.27-12.35.1-18.69l-15.81-.05c-.56-2.06-.02-3.84-.35-6.21l-7.59.14c-.09,2.41-.65,4.61.27,6.6s-.02,4.08.43,6.04c.36,1.56-.74,3.71-.3,5.18-2.4.14-4.84.47-7.25.12-.22-.03-.43-.06-.64.01.99-1.41.97-3.38-.04-4.77l.38-24.79c-2.58-.13-4.71-.26-6.97.03.07-1.86-.96-4.06-.48-6.06.36.12.6-.15.44-1.14l6.4-.26c.39-2.64.39-4.89.27-7.82-2.26-.27-4.3-.03-6.93,0l-.3,7.24c-.41.32-1.36.01-1.19.67-2.19,0-4.47.36-6.94-.15l-.17-7.57c-2.19-.36-4.12-.42-6.13.05l-.32,7.49c-1.66.36-3.13.37-4.88-.06.11-3.1-.06-5.45-.18-7.92-.14-2.85.11-5.75-.28-8.95-1.64-.13-3.03.14-4.24-.39-.22-.37-.09-.87.12-1.25,1.31-.81,2.79.21,4.41.24l42.67.81c.14,1.8-.28,2.73.16,3.91l6.81.23.44,5.12c.79.24,2.03,0,2.3.58.3,2.56.1,4.73-.04,6.86Z"/>
          <path class="cls-184" d="M239.39,162.92c.57,0,.41.84.89.65-.28,1.92.25,3.94-.35,6.04l-8.14.31-.41,8.46-7.29.2-.42,7.4c-3.04.85-6.36-.58-8.93.7-1.41.7-2.59,1.77-4.86.78l-.62,6.42-7.98.37c-.8,2.77,1.14,5.97-1.16,7.48-2.41.39-4.88-.35-7.28.37-1.14.34-2.88-.93-4.09.35-.55.59.09,2.04-.74,2.48-3.17,1.71-4.63.08-5.26,1.38-.36.75-.28,1.84-.2,2.62l-13.91.93c-1.66.11-4.78-1.04-6.55.13-6.39-1.06-13.92-.65-20.49-.23-1.85.12-4.01-.76-5.95-.31-.19.04-.47-.12-.7-.11-1.9.08-4.34-.08-6.1.55-.56-.56-1.39-.28-2.23-.35-2.03-.15-4.01-.16-6.03.08s-4.03-.52-6.04.29c-.17,1.58.18,3.2-.77,4.19l-4.14-.43c-.43-.04-.94-.29-1.19-.69-.56-3.42-.79-6.88-.68-10.34,0-.15.12-.32.07-.48l56.07-.12c4.08,0,8.19.48,12.24-.09,1.41-.2,3.2.86,5.01-.18l.2-7.19,12.4-.28.44-7.19,14.42-.36c.19-3.09-.26-5.85.63-8.74,1.48-4.76-.24-9.96.88-15.21l23.67-.22c2-.02,3.81.76,5.58.31Z"/>
          <path class="cls-46" d="M234.98,110.66c3.68-.18,10.85-.01,14.8,0,6.92.01,13.17-.44,19.66.57-1.25,3.63,1.45,6.97,4.73,8.24,1.59.61,4.07,1.91,3.96,3.78-.2,3.53-8.12,2.63-10.24,3.6-8.77,4.03-10.97-1.83-11.75,5.35-.22,2.06-2.04,2.41-3.43,2.16-3.6-.65,1.04-5.54-3.56-6.32-.59-.1-.23.46-.24.87,0,.33-.1.7-.52.43,0-1.16.44-2.2.04-4.13l-8.27-.18-.31-6.16-6.99-.18c-.12-2.62-.29-5.17.25-7.64.12-.54,1.41-.35,1.86-.37Z"/>
          <path class="cls-17" d="M91.04,181.01c.6,1.77.19,4.26.57,6.17.41,2.06-.2,4.42.05,6.48-1.96,1-4.51.66-6.96.16.07-3.43-.09-8.79.11-11.57.17-2.29,2.79-1.26,6.23-1.24Z"/>
          <path class="cls-98" d="M99.5,194.34c.41-.04.83.25,1.06.55-.03,2.34-.23,4.7.05,7.03-2.4-.34-4.85.47-7.58-.11-.5-2.43-.83-5.1-.37-7.44,2.21.1,4.63.19,6.86-.04Z"/>
          <path class="cls-158" d="M99.5,194.34c-2.22.23-4.64.14-6.86.04-.14-.39-.59-.9-.99-.73-.24-2.06.36-4.42-.05-6.48,2.28.46,5.44-.68,7.57.87,1.61,1.17,1.17,4.88.33,6.3Z"/>
          <path class="cls-12" d="M240.23,156.21l.27,6.28c.02.45-.16.65-.22,1.08-.48.19-.32-.65-.89-.65.19-.05.54-.88.32-1.03-1.88-.75-7.33,1.25-7.72-.54-.42-1.97.28-3.53.35-5.45,2.76-.42,5.41-.38,7.89.32Z"/>
          <path class="cls-143" d="M107.86,202.19c.05.15-.07.33-.07.48-2.3-.76-4.78-.39-7.19-.73-.28-2.33-.07-4.69-.05-7.03,2-.3,4.4-.34,6.75.04.19,2.63-.17,5.01.56,7.25Z"/>
          <path class="cls-162" d="M91.04,181.01c-3.44-.02-6.07-1.05-6.23,1.24-.45.33-.48-.51-.31-1.06.06-.19-.32-.08-.74-.23.71-.88.95-1.75.95-2.78l6.2.37c1.33.08.25,1.89.14,2.46Z"/>
          <path class="cls-86" d="M182.61,103.49c.13,2.47.29,4.82.18,7.92,1.75.42,3.22.41,4.88.06l.32-7.49c2.01-.47,3.94-.41,6.13-.05l.17,7.57c2.46.51,4.74.15,6.94.15.7,0,1.51.51,1.32,1.31-.48,2,.55,4.21.48,6.06l-.62,9.69c-3.92.58-7.94-.02-11.93-.32-.09.53-.14.78-.17.84-.55.12-.6-.92-1.18-.92l-12.66.05c-.5,0-.53.68-.69.87-.74-.07-.3-.78-.57-.92-.36-.19-1.22-.23-1.69-.19-1.82.18-.77-2.19-1.41-2.75-1.02-.9-2.98-.29-3.85-1.75.04-.77.43-1.52.37-2.26,2.15.02,4.13-.45,6.14-.47l18.98-.19c.21-2.91.23-5.29.09-8.28l-19.89.64c-.83.64-.57,2.71-.48,3.58-.27.18-.54.07-.87-.06-.49-.19.42-3.65.9-4.53,4.5.11,1.51-9.12,4.11-8.38l5-.18Z"/>
          <path class="cls-126" d="M209.63,143.78c-2.27.35-4.6.34-6.88.07l-.34-15.14.62-9.69c2.25-.29,4.39-.16,6.97-.03l-.38,24.79Z"/>
          <path class="cls-195" d="M218.05,156.28c-.58-2.67.3-5.27-.48-7.86-.44-1.47.66-3.62.3-5.18l6.61.03-.08,12.76c-2.26.55-4.34.36-6.35.26Z"/>
          <path class="cls-182" d="M217.57,148.42c.78,2.59-.1,5.2.48,7.86-2.63-.13-5.16.57-8.2-.2.19-2.71-.36-5.28.47-7.54,2.41.34,4.85.02,7.25-.12Z"/>
          <path class="cls-147" d="M202.56,112.96c.19-.8-.62-1.31-1.32-1.31-.16-.66.79-.36,1.19-.67l.3-7.24c2.63-.03,4.67-.27,6.93,0,.12,2.93.13,5.18-.27,7.82l-6.4.26c.16,1-.08,1.27-.44,1.14Z"/>
          <path class="cls-28" d="M182.61,103.49l-5,.18c-.16-3.12-.33-6.58.48-9.52,1.2.52,2.59.26,4.24.39.4,3.2.14,6.1.28,8.95Z"/>
          <path class="cls-97" d="M209.63,143.78c1.02,1.39,1.04,3.36.04,4.77-2.16.71-4.48.18-6.7.47.24-1.36-.19-3.65-.23-5.17,2.28.26,4.61.28,6.88-.07Z"/>
          <path class="cls-41" d="M176.17,201.98c-4.05.57-8.16.08-12.24.09.11-.79-.62-3.69.64-3.95,2.43-.52,3.27-1.55,4.17-3.24,2.84-.64,5.84-.42,8.83-.12l-1.41,7.22Z"/>
          <path class="cls-197" d="M121.12,93.06c.26,1.7-.34,5.03,1.14,5.65l2.66,1.11c.55.23.33,2.35.95,2.86,2.11,1.74,5.35.84,7.87,1.26.17.49-.29,1.3.51,1.14-.18,2.13-.12,4.25.19,6.85l34.37-.11,4.69.23c-.48.88-1.39,4.33-.9,4.53.32.13.59.24.87.06.12,1.18-.15,2.62.25,3.97.08.27.91.12,1.04.27-2.01.02-3.99.49-6.14.47l-52.19-.56-.05-8.07-23.35-.14c-.05,2.92-.64,5.58.19,8-2.65-.02-5.76,1.2-8.62.23,0-.41-.32-.8-.24-1.22.5-2.63.34-5.32.31-7.98l6.95.13-.1-18.67c9.77-.69,19.83.71,29.58,0Z"/>
          <g>
            <path class="cls-95" d="M77.16,111.72c.23,2.27.75,4.84.75,7.57,2.41.97,4.43.7,6.47.3-.08.42.24.82.24,1.22l.08,57.37c0,1.03-.23,1.91-.95,2.78-1.91-.05-3.87.31-5.99-.11l-.16-11.04-4.7-.24-.31-6.83-6.36-.41-.05-25.19c1.2-.53,2.06-.23,3.26-.61.41-2.32.6-4.66.04-6.97s.1-4.65.06-6.83c.32.03.67.16,1.01-.2.62-.65.12.73,1.44.73-.87-3.83.75-7.86.25-11.4l4.91-.13Z"/>
            <path class="cls-57" d="M77.49,162.01c-.33,1.15-4.45,1.01-4.62-.16l-.24-24.77c1.58-.59,3.05-.43,5.04-.2l-.17,25.12Z"/>
          </g>
          <path class="cls-104" d="M84.62,104.68l.07,6.93c.03,2.66.19,5.34-.31,7.98-2.04.4-4.06.67-6.47-.3,0-2.73-.51-5.3-.75-7.57-.22-2.09.91-5.21,1.05-7.26,2.03-.87,4.27.21,6.4.22Z"/>
          <g>
            <path class="cls-40" d="M240.23,156.21c-2.48-.7-5.13-.74-7.89-.32-.07,1.92-.77,3.48-.35,5.45.38,1.79,5.84-.21,7.72.54.22.15-.13.98-.32,1.03-1.77.45-3.58-.33-5.58-.31l-23.67.22c-1.12,5.25.6,10.45-.88,15.21-.9,2.88-.44,5.65-.63,8.74l-14.42.36-.44,7.19-12.4.28-.2,7.19c-1.81,1.03-3.6-.02-5.01.18l1.41-7.22c-2.99-.3-5.99-.52-8.83.12-.17-.43-.17-1.26.42-1.06,4,1.37,3.76-4.6,5.58-5.28,3.65-1.35,6.3,1.01,10.75-1.59.76-.45,1.88.07,2.26-.5,1.04-1.59-.07-3.23,1.42-4.03.74-.4,3.53.49,4.5-.78.5-.66.07-1.92.47-2.76.85-1.76,3.33-1.99,4.36-3.46,2.58-3.71,3.47.85,3.99-6.41s-.65-13.58.5-19.99c2.22-.29,4.54.24,6.7-.47.21-.07.42-.04.64-.01-.83,2.26-.28,4.83-.47,7.54,3.03.77,5.56.07,8.2.2,2.02.1,4.09.3,6.35-.26l.08-12.76-6.61-.03c-.45-1.95.45-4.12-.43-6.04s-.36-4.19-.27-6.6l7.59-.14c.32,2.37-.21,4.15.35,6.21l15.81.05c.16,6.33.36,12.5-.1,18.69-.65.21-.6.36-.58.81Z"/>
            <path class="cls-14" d="M208.41,185.39c-1.24,1.49-5.01,1.14-5.85-.74s.21-4.07.14-5.95c1.07-.25,3.63-.94,4.26.02.87,1.91.73,3.68,1.45,6.67Z"/>
          </g>
          <g>
            <path class="cls-64" d="M265.71,76.02c-.25.7-1.79.44-1.89,1.39-.16,1.52-.12,3.13.34,4.46,2.44.42,5.31-.53,7.37.3,2.51,1.01,5.16,1.07,8.6,1.02.8,1.84-.51,14.68,1.26,13.63-1.87,1.21-.6,3.13-1.23,6.55-3.4.1-6.03.37-9.54.84.93,2.95-.56,5.21-1.18,7.02-6.49-1.01-12.75-.56-19.66-.57-3.95,0-11.12-.18-14.8,0,.14-2.12.34-4.3.04-6.86-.27-.58-1.52-.34-2.3-.58l-.44-5.12-6.81-.23c-.44-1.17-.02-2.11-.16-3.91l-42.67-.81c-1.62-.03-3.1-1.05-4.41-.24.06-.34-.21-.18-.33-.3-.17-.18-.53-.3-.73-.15l-.05-6.72,52.39-.84,18.72-.2c1.98-5.86-1.28-6.86,1.16-8.79,5.42.15,10.9-.47,16.32.1Z"/>
            <path class="cls-47" d="M10.74,72.59c.66-.16.71.48.79.92.09.51-.71.94-.5,1.23.39.53.47,1.9,1.24,1.99,3.94.41,7.61.18,11.25.06,1.05-.03,2.37.67,3.56.43.31-.06,1.37,1.5,4.96.91,2.19.48.34,5.4,1.42,6.74l38.29.26.09,6.44-5.67.35v18.45c.01.53-.9.78-1.21.79l.44-6.61c-2.6-1.28-5.82-.69-8.79-.64-7.64.15-15.87,1.76-22.91-.47l-.51-.16c.29-2.37.38-4.73.16-7.44l-17.75-.78-1.17-.41c.31-2.1.86-4.25.23-6.6-2.58-.38-5.05-.1-7.44-.24-.55-.03-.43-.44-1.03-.35l1.26-14.1c.36-.88,2.57-.65,3.31-.75Z"/>
            <path class="cls-115" d="M83.15,35.97c.13.8,1.28.54,1.75.49l.03,24.69-.53,6.73-63.38.08c-1.98,0-3.8-.55-6.04.6-.87.45-3.17-.41-3.38.93s-.05,2.34-.87,3.11c-.74.09-2.96-.14-3.31.75l-1.26,14.1c-1.85.28-3.75-.39-5.56.19-.49,2.68-.92-14.98-.33-15.27,3.84-1.49,4.08-4.53,8.78-4.32.93.04,1.62-.38,2.01-.87-.76.95,2.62-6.57,5.78-6.57l60.7-.04.27-24.45c2.07-.43,3.72-.03,5.33-.12Z"/>
            <path class="cls-31" d="M193.86,6.92c-.76.01-.16.42-.44,1.47-4.25-1.53-8.36-.3-12.08-.34l-74.05-.79c-2.01-.02-4.07.13-6.06-.13-.93-2.01-.24-4.4-.13-6.99C103.66.44,105.51,0,107.96,0l75.12.27c3.59.01,6.65,1.2,10.43.47.62,2.46,0,4.21.34,6.18Z"/>
            <path class="cls-23" d="M217.47,23.69c-.21,4.67-.17,9.35.14,14.45l7.21-.33-.56,27.55-22.47-.89c.11-1.17-.22-1.62-.48-2.11,1.71,1.17,1.34-9.35,1.34-10.9,2.33.16,4.84.56,7.33-.25l-.18-27.47c2.35-.78,5,.79,7.16-.65.52-.17.56.18.51.59Z"/>
            <path class="cls-157" d="M270.99,74.4c-.7.26-.55,1.27-1.07,1.74-1.35-.53-2.82.02-4.21-.12-5.42-.57-10.9.05-16.32-.1s-11.38-.42-17.35-.19l-.42-6.47c-2.66.22-4.8-.31-6.89-.24.09-1.15-.05-2.65-.46-3.65l.56-27.55-7.21.33c-.31-5.09-.35-9.78-.14-14.45l6.87.13.28,12.78,7.05.31.15,31.58,38.97.41c.45,2.06.05,3.77.21,5.5Z"/>
            <path class="cls-107" d="M77.62,85.22l-.38,7.24-5.43.25c.12,6.71-.44,12.99.44,19.13.51,3.54-1.11,7.57-.25,11.4-1.33,0-.82-1.38-1.44-.73-.34.35-.69.23-1.01.2-.02-.91-.06-2.36-.77-3.28-.35-.46-1.78-.75-2.47-.79l-9.48-.47c-.67-2.27.1-4.44-.34-6.91l-22.96-.34c-.15-2.99-.38-5.31.17-7.51,7.04,2.24,15.27.62,22.91.47.26,2.29-.44,4.6.26,7.16,2.17.33,6.1.12,8.1.09.31,0,1.22-.26,1.22-.79v-18.45s5.66-.35,5.66-.35l-.09-6.44c1.86.01,4.05.09,5.87.1Z"/>
            <path class="cls-81" d="M281.39,96.81c-1.77,1.05-.45-11.79-1.26-13.63-3.45.06-6.1,0-8.6-1.02l-.44-5.86c-.19-.24-.83-.04-1.17-.17.52-.47.37-1.48,1.07-1.74.22.16.06.78.23,1.52l8.95.22.32,7.32,7.24.27-.11,13.07c-2.4.23-4.36.39-6.22.01Z"/>
            <path class="cls-204" d="M33.19,103.26l-17.54-.45-.05-7.78,17.75.78c.22,2.71.14,5.08-.16,7.44Z"/>
            <path class="cls-72" d="M91.7,18.27c.32,1.99.1,4.05.07,6.06-.06,3.63-.68,7.39-.33,11.02-1.95,1.39-4.93-.89-6.55,1.1-.47.05-1.62.3-1.75-.49.14-.2.86-.02,1.58-.29l.43-17.63c2.05-.17,5.11-.34,6.54.22Z"/>
            <path class="cls-138" d="M195.21,8.23c.05.76-.6.27-1.23.43.27,2.41.28,4.29,0,6.27-4.11.27-8.29.16-12.41-.09.01-2.25-.49-4.53-.24-6.78,3.73.04,7.83-1.18,12.08.34.28-1.05-.32-1.46.44-1.47.05.26.12.64.2.9.11.32.78.39,1.15.41Z"/>
            <path class="cls-141" d="M100.45,8.05c-.33,2.11-.24,4.44-.2,6.58.01.71-.58,1.32-.4,2.03-2.23.95-4.73.47-7.11.64-.58-2.96-.66-6.39,1.13-9.21,2.51.06,4.64-.6,6.59-.04Z"/>
            <path class="cls-50" d="M202.3,15.39c.49,0,.9.01,1.35.12.05.62-.54.38-1.28.56.29,2.54.15,4.84.07,7.19-2.36-.72-5.24.1-8.09-.22-.05-3.16-.16-5.35.19-7.64h7.76Z"/>
            <path class="cls-137" d="M91.77,24.33c.03-2.01.25-4.07-.07-6.06.37.14,1.45-.55,1.04-.96,2.38-.16,4.89.32,7.11-.64.59,2.37.13,4.79.11,7.66h-8.19Z"/>
            <path class="cls-128" d="M202.3,15.39h-7.76c.04-.26-.3-.48-.56-.46.29-1.98.28-3.85,0-6.27.62-.16,1.28.33,1.23-.43,2.2.11,4.44-.25,6.92.14l.16,7.02Z"/>
            <path class="cls-139" d="M210.1,16.19c-1.19.83,0,4.72-.53,7.05-2.15.45-4.58.8-6.57.19l-.57-.17c.08-2.34.22-4.65-.07-7.19.74-.19,1.33.06,1.28-.56,1.68.4,3.45-.48,5.28.06.51.15.7.61,1.18.62Z"/>
            <path class="cls-46" d="M107.28,7.25c.37,2.38.05,4.82-.21,7.45-2.49.46-4.63.1-6.82-.07-.04-2.15-.13-4.47.2-6.58.34-.15.71-.49.77-.93,2,.26,4.05.11,6.06.13Z"/>
            <path class="cls-188" d="M216.96,23.1c-2.16,1.43-4.81-.14-7.16.65,0-.18-.16-.35-.22-.51.52-2.33-.66-6.21.53-7.05,2.2.07,4.37-.14,6.84.21.17,2.51.29,4.65.01,6.7Z"/>
            <path class="cls-151" d="M14.42,94.62l-6.7-.3-.52-6.54c2.4.14,4.86-.14,7.44.24.63,2.35.08,4.51-.23,6.6Z"/>
            <path class="cls-73" d="M6.17,87.43c.6-.09.49.32,1.03.35l.52,6.54c-2.26-.1-4.5.2-7.17-.13-.29-2.38-.31-4.52.06-6.58,1.81-.57,3.71.1,5.56-.19Z"/>
            <path class="cls-70" d="M177.16,92.46c.2-.14.57-.02.73.15.11.12.38-.04.33.3-.22.37-.34.88-.12,1.25-.8,2.93-.64,6.39-.48,9.52-2.6-.74.39,8.49-4.11,8.38l-4.69-.23-.21-7.74-34.02.04c-.2,0-.15,1.05-.33.96-.79.16-.34-.66-.51-1.14-2.52-.42-5.76.48-7.87-1.26-.62-.51-.4-2.63-.95-2.86l-2.66-1.11c-1.49-.62-.88-3.95-1.14-5.65l4.26-.31,48.1.3c1.46,0,2.75.08,3.68-.59Z"/>
            <path class="cls-102" d="M224.72,69.01c2.09-.07,4.23.46,6.89.24l.42,6.47c5.97-.23,11.68.04,17.35.19-2.45,1.92.81,2.93-1.16,8.79l-18.72.2-52.39.84-99.49-.51c-1.82,0-4.01-.09-5.87-.1l-38.29-.26c-1.08-1.34.78-6.26-1.42-6.74.44-.56,1.12-.88,2.44-.88l129.28.21,19.98-.32c-.04-3.06.35-5.25.02-7.6l28.25-.13,12.7-.4Z"/>
            <path class="cls-83" d="M177.11,85.74l.05,6.72c-.93.67-2.22.6-3.68.59l-48.1-.3-4.26.31c-9.75.72-19.81-.68-29.58,0-2.27.16-4.97-1.26-6.82.46-1.74-.5-4.56-1.54-7.12-.38.1,3.88-.59,7.83.62,11.32-.14,2.05-1.27,5.17-1.05,7.26l-4.91.13c-.88-6.14-.32-12.42-.44-19.13l5.43-.25.38-7.24,99.49.51Z"/>
            <path class="cls-205" d="M269.92,76.14c.34.13.98-.07,1.17.17l.44,5.86c-2.06-.83-4.93.12-7.37-.3-.46-1.33-.5-2.93-.34-4.46.1-.95,1.63-.69,1.89-1.39,1.39.15,2.86-.41,4.21.12Z"/>
            <path class="cls-111" d="M84.4,67.87l99.38,1.68c.32,2.35-.06,4.54-.02,7.6l-19.98.32-129.28-.21c-1.32,0-2,.32-2.44.88-3.59.59-4.66-.97-4.96-.91.24-1.77,1.49-3.03,3.7-2.77.62.07,1.97.26,2.12-.52.34-1.77.05-3.11.2-4.76-3.31-.28-6.69-.71-9.56.5-.28-1.37-2.67.09-2.53-1.7l63.38-.08Z"/>
            <path class="cls-152" d="M21.02,67.95c-.14,1.79,2.26.32,2.53,1.7.2,2.35.42,4.8-.03,7.13-3.64.12-7.31.35-11.25-.06-.78-.08-.85-1.45-1.24-1.99-.21-.29.59-.72.5-1.23-.08-.44-.12-1.07-.79-.92.82-.77.66-1.8.87-3.11s2.51-.48,3.38-.93c2.24-1.15,4.06-.59,6.04-.6Z"/>
            <path class="cls-112" d="M27.08,77.21c-1.19.24-2.51-.47-3.56-.43.46-2.33.23-4.78.03-7.13,2.86-1.21,6.25-.78,9.56-.5-.15,1.65.14,2.99-.2,4.76-.15.79-1.5.6-2.12.52-2.21-.26-3.46,1-3.7,2.77Z"/>
            <path class="cls-77" d="M64.96,111.15c-1.99.03-5.92.24-8.1-.09-.69-2.56,0-4.87-.26-7.16,2.97-.06,6.19-.65,8.79.64l-.44,6.61Z"/>
            <path class="cls-69" d="M92.89,61.6c5.64.72,11.33.72,17.39.66,11.06-.11,21.77-.16,32.68.43,7.08.38,14.02.21,21.05-.15l9.09-.48c11.55-.6,17.2.35,28.21.31.26.49.59.93.48,2.11l22.47.89c.41,1,.55,2.5.46,3.65l-12.7.4-28.25.13-99.38-1.68.53-6.73c-1.11,1.38,6.75.29,7.96.45Z"/>
            <path class="cls-146" d="M93.3,59.54c0,.72-.25,1.37-.41,2.05-1.22-.16-9.07.93-7.96-.45l-.03-24.69c1.62-1.99,4.59.29,6.55-1.1.71,7.23.13,14.54.42,22.16.04,1.13.49,2.09,1.44,2.03Z"/>
            <path class="cls-6" d="M181.33,8.05c-.25,2.26.25,4.54.24,6.78l-.19,33.64c0,1.29-.08,3.07-.78,3.82l-1.73.06c-1.07.04.1,4.69-1.16,4.7l-42.7.22c-1.51,0-2.43,1.28-3.62,1.31l-15.75.43c-7.6.21-15.03.11-22.34.53-.95.06-1.4-.9-1.44-2.03-.28-7.61.29-14.92-.42-22.16-.36-3.64.27-7.39.33-11.02h8.19c.02-2.87.49-5.3-.11-7.67-.18-.71.42-1.32.4-2.03,2.19.17,4.32.54,6.82.07.26-2.63.58-5.07.21-7.45l74.05.79Z"/>
            <path class="cls-63" d="M193.98,14.92c.25-.02.59.21.56.46-.35,2.3-.24,4.49-.19,7.64,2.85.32,5.73-.5,8.09.22l.57.17-.38,1.57.03,26.47c0,1.54.38,12.07-1.34,10.9-11.02.03-16.66-.92-28.21-.31l-9.09.48c-7.03.37-13.97.54-21.05.15-10.91-.59-21.62-.54-32.68-.43-6.06.06-11.74.06-17.39-.66.16-.69.41-1.33.41-2.05,7.32-.43,14.74-.32,22.34-.53l15.75-.43c1.18-.03,2.11-1.3,3.62-1.31l42.7-.22c1.27,0,.09-4.66,1.16-4.7l1.73-.06c.7-.75.78-2.53.78-3.82l.19-33.64c4.12.26,8.29.37,12.41.09Z"/>
            <path class="cls-79" d="M209.58,23.24c.06.16.22.33.22.51l.18,27.47c-2.5.81-5,.41-7.33.25l-.03-26.47.38-1.57c1.99.61,4.42.26,6.57-.19Z"/>
            <path class="cls-84" d="M168.81,111.82l-34.37.11c-.31-2.6-.37-4.71-.19-6.85.18.09.13-.96.33-.96l34.02-.04.21,7.74Z"/>
          </g>
          <path class="cls-150" d="M174.77,120.88c-.13-.15-.97,0-1.04-.27-.4-1.36-.14-2.79-.25-3.97-.09-.87-.35-2.94.48-3.58l19.89-.64c.14,2.99.12,5.37-.09,8.28l-18.98.19Z"/>
          <path class="cls-166" d="M91.54,93.07l.1,18.67-6.95-.13-.07-6.93.1-11.16c1.85-1.71,4.55-.3,6.82-.46Z"/>
          <path class="cls-188" d="M84.72,93.53l-.1,11.16c-2.13-.02-4.37-1.09-6.4-.22-1.21-3.49-.52-7.44-.62-11.32,2.57-1.16,5.38-.12,7.12.38Z"/>
          <path class="cls-52" d="M116.44,120.79l-23.21-.21c-.83-2.42-.24-5.08-.19-8l23.35.14.05,8.07Z"/>
          <g>
            <path class="cls-184" d="M190.31,129.23l.26,25.29c.01,1.27-.62,2.46-1.97,2.43-4.44-.09-8.54.26-13.04-.26-.3-9.65-.52-18.6.22-27.46.17-.19.19-.87.69-.87l12.66-.05c.58,0,.63,1.04,1.18.92Z"/>
            <path class="cls-177" d="M181.23,137.4c-.58.82-3.23.72-3.99.02s-.74-3.61.02-4.37c.79-.79,3.15-.58,4.08-.01.57.83.65,3.29-.11,4.36Z"/>
          </g>
          <g>
            <path class="cls-85" d="M93.23,120.58l23.21.21,52.19.56c.06.74-.33,1.49-.37,2.26.87,1.46,2.83.86,3.85,1.75.64.56-.41,2.93,1.41,2.75.46-.05,1.32,0,1.69.19.27.14-.17.84.57.92-.73,8.85-.52,17.8-.22,27.46,4.5.52,8.6.17,13.04.26,1.35.03,1.98-1.16,1.97-2.43l-.26-25.29c.03-.06.09-.31.17-.84,3.99.31,8.01.9,11.93.32l.34,15.14c.03,1.52.47,3.81.23,5.17-1.14,6.41,0,13.03-.5,19.99s-1.41,2.7-3.99,6.41c-1.03,1.48-3.51,1.7-4.36,3.46-.4.84.03,2.1-.47,2.76-.97,1.27-3.76.38-4.5.78-1.49.8-.37,2.45-1.42,4.03-.38.57-1.49.05-2.26.5-4.45,2.61-7.1.24-10.75,1.59-1.81.67-1.57,6.64-5.58,5.28-.59-.2-.59.62-.42,1.06-.9,1.68-1.74,2.72-4.17,3.24-1.26.27-.53,3.17-.64,3.95l-56.07.12c-.72-2.24-.37-4.62-.56-7.25-2.35-.38-4.75-.34-6.75-.04-.23-.3-.65-.59-1.06-.55.85-1.42,1.28-5.13-.33-6.3-2.12-1.55-5.29-.41-7.57-.87-.38-1.91.03-4.4-.57-6.17.12-.56,1.19-2.38-.14-2.46l-6.2-.37-.08-57.37c2.85.97,5.97-.26,8.62-.23Z"/>
            <g>
              <path class="cls-131" d="M196.09,168.26c-2.76,1.43-.61,1.35-2.03,2.91.36-.4-9.36,1.08-10.57-.09-1.08-2.57-1.24-5.43-.36-8.21,4.36-.62,8.56-.62,12.8-.11.57,1.9.54,3.69.16,5.5Z"/>
              <path class="cls-113" d="M154.27,177.85l-21.05-.06c-.5-1.51-.72-3.2-.28-4.92l21.5-.06c.12,1.94.12,3.1-.17,5.04Z"/>
              <path class="cls-45" d="M100.41,170.5c-2.49,1.55-6,.66-8.52.2-.36-3-.25-5.1-.14-8.16,2.94.28,6.41-1.03,9.12.53,1.77,1.02,1.35,6.3-.46,7.43Z"/>
              <path class="cls-133" d="M143.53,161.04c-1.75.51-3.21.33-5,.16-.31-1.84-.36-3.31-.17-5.09,1.76-.27,3.27-.37,4.99-.09.28,1.54.21,2.79.18,5.02Z"/>
              <path class="cls-82" d="M131.36,172.09c-.58.89-3.54.74-4.16-.12-.43-.6-.36-2.56.23-3.03.63-.51,2.56-.19,3.59-.02.79.13,1.05,2.09.34,3.17Z"/>
              <g>
                <path class="cls-61" d="M115.95,156.75c-4.56.03-8.95.46-13.51-.12-1.35-.48-1.14-3.63-1.12-5.07l.24-23.16c5.14-.5,9.86-.49,14.81,0l.16,24.93c0,1.06-.29,1.93-.57,3.43Z"/>
                <path class="cls-92" d="M108.96,137.28c-1.89.67-3.41.83-5.06.28.01-1.36-.71-3.69.34-4.7s3.33-.14,4.74-.14c.31,1.77.2,2.8-.02,4.55Z"/>
              </g>
            </g>
          </g>
        </g>
      </g>
    </g>
  </g>
</svg>