<?xml version="1.0" encoding="UTF-8"?>
<svg id="_レイヤー_2" data-name="レイヤー 2" xmlns="http://www.w3.org/2000/svg" xmlns:xlink="http://www.w3.org/1999/xlink" viewBox="0 0 292.14 489.49">
  <defs>
    <style>
      .cls-1 {
        fill: #fefeff;
      }

      .cls-2 {
        fill: #9d7c83;
      }

      .cls-3 {
        fill: #b8b3bf;
      }

      .cls-4 {
        fill: #eacdc9;
      }

      .cls-5 {
        fill: #f5ddbc;
      }

      .cls-6 {
        fill: #f7f7f8;
      }

      .cls-7 {
        fill: #c59d95;
      }

      .cls-8 {
        fill: #e2e3ed;
      }

      .cls-9 {
        fill: #a88f92;
      }

      .cls-10 {
        fill: #b08787;
      }

      .cls-11 {
        fill: #9d7e85;
      }

      .cls-12 {
        fill: #edd1b1;
      }

      .cls-13 {
        fill: #fbebdd;
      }

      .cls-14 {
        fill: #9c7f89;
      }

      .cls-15 {
        fill: #fdfeff;
      }

      .cls-16 {
        fill: #988394;
      }

      .cls-17 {
        fill: #efe2cc;
      }

      .cls-18 {
        fill: #e6bcbd;
      }

      .cls-19 {
        fill: #e2c2af;
      }

      .cls-20 {
        fill: #9a9fae;
      }

      .cls-21 {
        fill: #e4e5ed;
      }

      .cls-22 {
        fill: #f0f1f3;
      }

      .cls-23 {
        fill: #fbede0;
      }

      .cls-24 {
        fill: #d4bfbc;
      }

      .cls-25 {
        fill: #e3e4ed;
      }

      .cls-26 {
        fill: #f7d6cf;
      }

      .cls-27 {
        fill: #857286;
      }

      .cls-28 {
        fill: #71738d;
      }

      .cls-29 {
        fill: #d3d5e1;
      }

      .cls-30 {
        fill: #dbb5a1;
      }

      .cls-31 {
        fill: #f3d5bd;
      }

      .cls-32 {
        fill: #7e7f9a;
      }

      .cls-33 {
        fill: #c2becb;
      }

      .cls-34 {
        fill: #877487;
      }

      .cls-35 {
        fill: #fff;
      }

      .cls-36 {
        fill: #daacb5;
      }

      .cls-37 {
        fill: #e0c2ad;
      }

      .cls-38 {
        fill: #f4f6f9;
      }

      .cls-39 {
        fill: #f1d1ca;
      }

      .cls-40 {
        fill: #696681;
      }

      .cls-41 {
        fill: #e1b8bc;
      }

      .cls-42 {
        fill: #c2cad1;
      }

      .cls-43 {
        fill: #e0b2b8;
      }

      .cls-44 {
        fill: #f7e3c8;
      }

      .cls-45 {
        fill: #e7d1c3;
      }

      .cls-46 {
        fill: #e5c2a9;
      }

      .cls-47 {
        fill: #7f7a92;
      }

      .cls-48 {
        fill: #eecbc8;
      }

      .cls-49 {
        fill: #f1d0cb;
      }

      .cls-50 {
        fill: #ecebf2;
      }

      .cls-51 {
        fill: #b58d8b;
      }

      .cls-52 {
        fill: #ead9ca;
      }

      .cls-53 {
        fill: #f2f4f7;
      }

      .cls-54 {
        fill: #8589a0;
      }

      .cls-55 {
        fill: #bebfcb;
      }

      .cls-56 {
        fill: #b68d8b;
      }

      .cls-57 {
        fill: #98869b;
      }

      .cls-58 {
        fill: #d8a6af;
      }

      .cls-59 {
        fill: #d2bdba;
      }

      .cls-60 {
        fill: #83738b;
      }

      .cls-61 {
        fill: #757893;
      }

      .cls-62 {
        fill: #8e7080;
      }

      .cls-63 {
        fill: #786d87;
      }

      .cls-64 {
        fill: #67637e;
      }

      .cls-65 {
        fill: #fdf6e9;
      }

      .cls-66 {
        fill: #81728a;
      }

      .cls-67 {
        fill: #7b718a;
      }

      .cls-68 {
        fill: #6e6d85;
      }

      .cls-69 {
        fill: #dfccc5;
      }

      .cls-70 {
        fill: #e7c9af;
      }

      .cls-71 {
        fill: #d3d4e0;
      }

      .cls-72 {
        fill: #b58988;
      }

      .cls-73 {
        fill: #e6c5ae;
      }

      .cls-74 {
        fill: #cea694;
      }

      .cls-75 {
        fill: #837083;
      }

      .cls-76 {
        fill: #dab59e;
      }

      .cls-77 {
        fill: url(#_名称未設定グラデーション_35);
      }

      .cls-78 {
        fill: #c49d94;
      }

      .cls-79 {
        fill: #75738b;
      }

      .cls-80 {
        fill: #c39b92;
      }

      .cls-81 {
        fill: #e6d4c6;
      }

      .cls-82 {
        fill: #676581;
      }

      .cls-83 {
        fill: #68637f;
      }

      .cls-84 {
        fill: #e0e1ea;
      }

      .cls-85 {
        fill: #d2cedc;
      }

      .cls-86 {
        fill: #847387;
      }

      .cls-87 {
        fill: #ded9da;
      }

      .cls-88 {
        fill: #e5bfbf;
      }

      .cls-89 {
        fill: #f4ecd8;
      }

      .cls-90 {
        fill: #dda7b0;
      }

      .cls-91 {
        fill: #f5d9b8;
      }

      .cls-92 {
        fill: #676480;
      }

      .cls-93 {
        fill: #9296ac;
      }

      .cls-94 {
        fill: #bc99a4;
      }

      .cls-95 {
        fill: #a38381;
      }

      .cls-96 {
        fill: #c4a19d;
      }

      .cls-97 {
        fill: #d6d7e2;
      }

      .cls-98 {
        fill: #c6a4a9;
      }

      .cls-99 {
        fill: #d0a695;
      }

      .cls-100 {
        fill: #e7d6cb;
      }

      .cls-101 {
        fill: #f7e9d7;
      }

      .cls-102 {
        fill: #9c7a85;
      }

      .cls-103 {
        fill: #7a6d88;
      }

      .cls-104 {
        fill: #a58086;
      }

      .cls-105 {
        fill: #66627e;
      }

      .cls-106 {
        fill: #cba295;
      }

      .cls-107 {
        fill: #dadbe7;
      }

      .cls-108 {
        fill: #696783;
      }

      .cls-109 {
        fill: #c3acb0;
      }

      .cls-110 {
        fill: #f0e6dc;
      }

      .cls-111 {
        fill: #816f85;
      }

      .cls-112 {
        fill: #987984;
      }

      .cls-113 {
        fill: #f5f6f8;
      }

      .cls-114 {
        fill: #e1cfc6;
      }

      .cls-115 {
        fill: #a397a4;
      }

      .cls-116 {
        fill: #aeb0b8;
      }

      .cls-117 {
        fill: #d5d6e1;
      }

      .cls-118 {
        fill: #bca7ae;
      }

      .cls-119 {
        fill: #dcccc4;
      }

      .cls-120 {
        fill: #aaa6bb;
      }

      .cls-121 {
        fill: #a1838b;
      }

      .cls-122 {
        fill: #f8ebce;
      }

      .cls-123 {
        fill: #e8c6b6;
      }

      .cls-124 {
        fill: #747590;
      }

      .cls-125 {
        fill: #6e6c88;
      }

      .cls-126 {
        fill: #c3a39d;
      }

      .cls-127 {
        fill: #ead9cb;
      }

      .cls-128 {
        fill: #888ea2;
      }

      .cls-129 {
        fill: #e3babc;
      }

      .cls-130 {
        fill: #f5f6f9;
      }

      .cls-131 {
        fill: #8888a3;
      }

      .cls-132 {
        fill: #fdfdfe;
      }

      .cls-133 {
        fill: #f6e8d6;
      }

      .cls-134 {
        fill: #faebdd;
      }

      .cls-135 {
        fill: #d1d2de;
      }

      .cls-136 {
        fill: #b59fab;
      }

      .cls-137 {
        fill: #847b90;
      }

      .cls-138 {
        fill: #f2dcc4;
      }

      .cls-139 {
        fill: #927d8c;
      }

      .cls-140 {
        fill: #cfa999;
      }

      .cls-141 {
        fill: #cecbd8;
      }

      .cls-142 {
        fill: #947e8c;
      }
    </style>
    <linearGradient id="_名称未設定グラデーション_35" data-name="名称未設定グラデーション 35" x1="258.71" y1="93.85" x2="257.58" y2="132.84" gradientUnits="userSpaceOnUse">
      <stop offset="0" stop-color="#c3aeb3"/>
      <stop offset="1" stop-color="#ac96a4"/>
    </linearGradient>
  </defs>
  <g id="_レイヤー_1-2" data-name="レイヤー 1">
    <g id="_生成オブジェクト" data-name="生成オブジェクト">
      <path class="cls-135" d="M165.79,477.1c0,1.27,0,2.64.5,4.09l39.67-.13c1.68,0,1.33-1.21,2.25-1.59,1.37-.56,3.52-1.54,4.82-1.85,7.23-.64,14.63-.11,22.22.05l17.84.38c1.65.04,3.15.85,5.13.73,2.43-.16,5.06-.63,7.43-.1,2.19.49,2.85,2.96,2.86,4.53s-.08,4.57-2.35,4.95c-3.81.64-8.01.28-11.94.17-5.5-.15-10.47.33-16.18.36l-50.4.24-4.14-.02c-1.97-.01-4.05.32-6.15-.01-4.71-.74-17.45.45-20.73-.07-1.22-.2-2.54.45-3.96.48-6.96.16-13.72.4-20.66-.16-.96-.08-1.7-.23-2.92-.23l-25.24.14-9.15-.25c-.45-.01-15.63.1-16.7.14-6.65.19-13.29.52-19.97-.12-1.72-.16-3.32-.64-5.2-.62l-30.98.39c-2.29.03-5.13-1.3-4.23-4.09.18-.55-.63-.75-.63-1.33s.74-.78.63-1.33c-.5-2.68,2.13-3.5,4.18-3.46l11.58.24c3.03.06,5.89-1.04,9.06-.63.45.06,26.1-1.46,29.7-.37.11,1.91,2.67,3.31,4.73,3.31l47.58.17c.15-1.66.46-2.86.4-4.09l3.18-.59,28.65-.19c3.26-.02,6.25-.25,9.11.86Z"/>
      <g>
        <path class="cls-53" d="M71.67,208.24c-.83.3-1.76.55-2.64.36-2.92-1.24-2.04-7.19-1.91-9.82,1.04-.01,3.91-.71,4.37.84.82,2.79.18,5.9.18,8.61Z"/>
        <path class="cls-29" d="M205.86,252.91c-1.88.92-4.09.32-6.11.55l.03-7c1.57.15,4.18-.08,5.21,1.56,1.11,1.76.63,3.45.86,4.9Z"/>
        <path class="cls-1" d="M72.2,209.2c-.1.73-.25,1.55-.17,2.29-1.74.46-2.23-1.59-3-2.89.88.19,1.81-.06,2.64-.36,0,.21-.31.38.06.67.13.1.15.4.46.29Z"/>
        <g>
          <path class="cls-82" d="M223.79,198.86c.08,23.57-3.64,9.07-6.55,20.77l-4.66,1.4-.92,7.08c-.52,4-5.05,2.31-6.94,3.42l-.61,6.41c-3.07-.04-5.72.02-8.41.45-2.16.34-4.79-.59-7.23.44-.51,1.66.2,3.65-.67,5.07-1.98.02-4.9.62-7.15-.08-1.3-.73-1.02-4.52.11-5.52,2.27-.04,4.68-.27,7.08-.86-1.73.42,7.21-6.21,5.83-5.68l4.4-1.71c1.19-.46.56-3.25,1.84-4.07s3.28,0,4.52-.65.31-2.97,1.02-4.01,1.78-1.35,1.27-3.03c-1.27-4.2,5.93-.33,6.07-4.64l.49-14.83,10.5.04Z"/>
          <path class="cls-47" d="M103.9,237.85c-2.99.58-6.17-.05-9.49-.15l-.42-4.82c-8.91-1.89-4.3-4.32-9.95-6.18-1.4-.46-3.52-.8-3.18-3.19.14-1.01-.36-2.1-.91-2.75-.36-.42-2.03.07-2.33-.47-1.07-1.92-2.4-2.56-4.15-2.92-.68-1.82-1.24-4.06-1.44-5.86-.08-.75.07-1.56.17-2.29-.36-1.83,3.05-1.12,5.35-1.12.48,1.89-.02,3.54.21,5.4l5.13.56c.09,2.25,0,3.94.66,5.78,1.62.52,3.26.14,4.84.97.01,1.39-.2,4.5,1.61,4.73,9.69,1.19-.41,3.31,10.99,6.87l2.91,5.45Z"/>
          <path class="cls-68" d="M230.2,193.6c-.22,1.29.39,3.41-.76,4.62-1.31,1.38-3.5.37-4.95.5.99-1.09.02-2.99.78-4.58.68-1.42,3.67-.54,4.92-.54Z"/>
          <path class="cls-4" d="M56.36,161.02c.35,1.41.84,3.46-.13,5.2-.57,1.02-3.17.71-3.93.07.11-.6.03-1.75-.09-2.36,3.48-3.8.42-2.64,4.15-2.92Z"/>
          <path class="cls-79" d="M235.34,189.62c-.2,1.07.12,2.37-.99,2.73s-2.14.67-3.09.32c-.61-.12-1.01-.38-.89-.98.11-.55-.08-1.8.82-1.9,1.59-.18,2.9-.14,4.16-.17Z"/>
          <path class="cls-88" d="M174.31,239.61c-.01,1.36.12,2.67-.23,4.37-3.15-.06-5.98.61-8.86.94-.97.11-2.2.43-3.07.43l-31.29.1c-1.12,0-1.74.24-2.13,1.09-.28-.54.14-1.14-.5-1.25,2.25.37-12.54-1.27-9.32-1.36,0-1.82.21-3.72-.52-5.42l50.28-.14c1.54,0,3.14.1,4.63-.32.07.78,1.01.16,1.01.43v1.13Z"/>
          <path class="cls-18" d="M67.45,168.33l.31,5.77c.16,3.02-.36,6.05-.15,9.42,1.49.48,2.96.35,4.31.4.78,4.33.62,8.92.19,13.85l-.7-8.54c-.67-1.31-3.82.25-5.91-1.07-.7-.44-.17-1.93-.75-2.53-1.02-1.06-2.35-1.55-3.03-3.13-.46-.91-2.29-.58-3.16-1.48-.13-3.31-1.26-13.12,3.47-12.93,1.96.08,3.8-.42,5.44.23Z"/>
          <path class="cls-39" d="M198.62,160.5c-1.79.38-1.97,3.01-3.32,4.01-1.24.91-3.59.34-3.62,2.89-.83-.1-1.23-.12-1.72-.12-.11-4.4-.42-8.82-.07-13.23.96-.11,8.3.65,8.62,1.86.41,1.58-.02,3.17.11,4.59Z"/>
          <path class="cls-94" d="M71.71,174.17c1.34,2.84.38,6.73.21,9.75-1.35-.05-2.82.08-4.31-.4-.2-3.38.32-6.41.15-9.42,1.32.24,2.61.07,3.94.07Z"/>
          <path class="cls-49" d="M174.97,231.16c0,5.31,1.02,6.15-1.66,6.89-1.49.41-3.09.31-4.63.32l.78-6.74c1.1-1.39,4.06-.27,5.51-.47Z"/>
          <path class="cls-28" d="M118.4,238.51c.73,1.7.52,3.6.52,5.42l-6.43.19c.29-1.89.08-3.81-.02-5.71l5.92.1Z"/>
          <path class="cls-58" d="M218.97,174.76c0-2.15-.16-4.26-.01-6.41,2.77-.21,5.96-.52,8.84.22,1.42.9,1.36,4.75.46,6.01-2.94.66-6.46-.08-9.29.17Z"/>
          <g>
            <path class="cls-92" d="M224.99,111.56l9.63.36.26,27.17-.21,27.64c-1.34.24-2.64-.46-4.1-.41l-.5-5.37c-3.58-.23-7.12-.25-10.93.02-.91,2.56-.02,5.04-.18,7.39-.15,2.15,0,4.26.01,6.41,0,1.86.31,4.25-.42,6.45-.48,1.43-4.42,1.38-5.6.66l-.16-55.49-5.93-.61-.27-13.51c.74-1.44,9.23.31,9.23-1.23,1.45,1.3,6.67.43,9.17.52Z"/>
            <path class="cls-119" d="M24.07,130.16c-2.24-.05-5.2.94-7.44-.78-.01-1.67-1.04-3.43-.63-5.11,2.23-.37,4.95-.56,7.75.28,1.26.9.63,4.21.32,5.61Z"/>
            <path class="cls-67" d="M72.43,111.86l.03,8.89-.13,11.64c.06-2.17-1.39-4.99-.43-7.55-1.4.25-2.27-.52-3.24-.93-1.9,1.89-13.53-.4-16.49.37.18-3.86-1.35-8.21-.32-12.21,6.76-1.07,13.75-.15,20.58-.2Z"/>
            <g>
              <path class="cls-129" d="M206.6,111.67c-.21.2-.02.41-.01.6l.27,13.51,5.93.61.16,55.49c1.18.71,5.13.77,5.6-.66.74-2.2.43-4.6.42-6.45,2.82-.26,6.35.49,9.29-.17.9-1.26.96-5.11-.46-6.01-2.88-.74-6.07-.43-8.84-.22.16-2.35-.73-4.83.18-7.39,3.82-.27,7.35-.24,10.93-.02l.5,5.37c1.46-.05,2.76.65,4.1.41-.06,7.29,2.09,15.23.67,22.89-1.25.03-2.57,0-4.16.17-.89.1-.71,1.35-.82,1.9-.12.6.28.86.89.98,0,.67-.9.39-1.05.93-1.25,0-4.24-.88-4.92.54-.76,1.59.21,3.48-.78,4.58-.23.02-.47.15-.71.15l-10.5-.04-.49,14.83c-.14,4.31-7.34.45-6.07,4.64.51,1.67-.59,2.03-1.27,3.03s.19,3.36-1.02,4.01-3.21-.18-4.52.65-.65,3.61-1.84,4.07l-4.4,1.71c1.37-.53-7.56,6.1-5.83,5.68-2.4.58-4.81.82-7.08.86,2.68-.04-11.12-.43-6.46,1.31v-1.13c.01-.27-.92.35-1-.43,2.68-.75,1.67-1.58,1.66-6.89,2.06-.28,4.4.49,6.56-.48,1.49-.66,1.58-2.98,2.92-4.02,1.2-.93,3.35-.44,4.44-1.41s.67-3.19,1.55-4.72l8.13-.1.43-28.44c.16-10.74.55-21.13-.39-31.48-.13-1.42.3-3.01-.11-4.59-.31-1.21-7.66-1.97-8.62-1.86.13-1.65-.24-3.41-.27-5.64l-19.73-.27c-.45,0-.66.75-.76.82.08-1.71-14.38-5.29-16.79-5.88l-28.35-6.94c-1.04-.26-1.87-.35-2.72-1.2,1.13-1.51,1.45-3.29,1.49-5.65-4.29.59-7.61-1.48-11.49-2.43-15.11-3.72-23.92-4.79-38.82-6.1l-.03-8.89,22.68-.18c.26-.7.51-.87.86-.69.3.67.99.72,2.24.72l108.39-.04Z"/>
              <path class="cls-108" d="M198.99,139.64l-34.29.1c-.57-2.9-.62-5.64.08-8.73l33.91-.12c1.07,2.84.78,5.29.3,8.76Z"/>
            </g>
            <g>
              <path class="cls-101" d="M169.38,6.71c.4,2.59.32,5.27.43,7.91.21,5.2-.73,10.66.68,15.65.19.51-.52.56-.77,1.13l.07,34.24h-100.09c-2.03,0-3.83-.56-5.59-.35-.41-10.03-.27-20.14,0-30.38.07-2.73,2.92-4.39,4.77-3.83.56.17,1.26-1.05,1.81-.41l.07,22.48c0,1.68-.46,4.19.74,5.46,1.98,1.33,4.97.53,7.45.54l.32-18.05,7.79-.33.7-10.03,18.32-.7.16-15.46,24.88-.14c.92-2.57.6-4.98.91-7.69l29.83-.2s7.92-1.67,7.54.16Z"/>
              <path class="cls-16" d="M179.57,72.75c-1.37,2.31.77,9.24-1.77,9.35-3.42.16-6.83-.1-10.21,1.01-1.5,6.56.82,3.99.06,6.26l-103.89.3c-.38-.57-.88-17.76.44-16.96,6.66.25,13.13.07,20.26.02l85.32-.53c2.99-.02,6.57,1.03,9.79.55Z"/>
              <path class="cls-118" d="M223.52,72.67l-39.3.44c-1.31-.34-3.17-.58-4.65-.36-3.22.48-6.8-.57-9.79-.55-.34-2.17.02-4.38.01-6.57,3.13,0,6.38.15,9.4-.44,4.26.62,12.68.6,17.47.4,1.13-.05,1.05-1.57,1.05-2.26l-.07-32.7-8.15-.47-.24-8.35-9.14-.2c-2.09-.05-.24-4.14-1.34-6.47-.49-1.03-7.8-.64-8.95-.51-.11-2.64-.03-5.31-.43-7.91.54.21.57-.51,1-.62,1.75-.75,3.36.67,5.18.76l10.39.52c1.02.05,2.05-.19,2.48.5,1.23,1.99-.26,3.05.83,3.9.68.53,2.3-.66,3.73,1.69l5.33.92.57,7.48,11.69.03c2.27,0,3.53.95,4.96,1.96,1.7,1.19.25,3.96,1.21,5.2,1.92,1.32,5.12,1.33,6.76,3.28v40.35Z"/>
              <path class="cls-65" d="M170.38,6.09c-.44.11-.46.83-1,.62.38-1.82-7.55-.16-7.54-.16l-29.83.2c-.3,2.72.01,5.12-.91,7.69l-24.88.14-.16,15.46-18.32.7-.7,10.03-7.79.33-.32,18.05c-2.47,0-5.47.79-7.45-.54-1.2-1.27-.74-3.78-.74-5.46l-.07-22.48c2.52-1.18.6-4.89,2.67-7.03,4.06-3.23,15.36.21,14.68-4.18-.58-3.72,2.44-4,4.27-5.67,3.34-3.04,6.04-5.52,10.67-6.01,2.38-.25,6.32-1.66,8.39-2.16.49-.12.83-1.37.87-1.88.26-3.27,4.12-3.69,7.08-3.7l6.32-.03c2.24-.01,4.17.09,6.28.1l18.01.09c2.25.01,4.53.02,6.75-.01,4.13-.07,8.69-.95,12.3,1.75,1.18.88.73,3.07,1.41,4.14Z"/>
              <path class="cls-127" d="M169.79,65.63c0,2.19-.35,4.4-.01,6.57l-85.32.53c-7.13.04-13.6.23-20.26-.02-.51-2.39,0-5.05-.09-7.43,1.76-.22,3.56.35,5.59.35h100.09Z"/>
              <path class="cls-40" d="M223.52,72.67c0,5.52.54,11.08-.09,16.52-1.28-.06-2.69.32-4.19.32l-36.22.2c2.22-.27,1.17-13.89,1.2-16.6l39.3-.44Z"/>
              <path class="cls-59" d="M179.19,65.19l-.31-34.72-8.39-.2c-1.41-4.99-.46-10.45-.68-15.65,1.15-.12,8.46-.52,8.95.51,1.11,2.33-.75,6.43,1.34,6.47l9.14.2.24,8.35,8.15.47.07,32.7c0,.69.08,2.21-1.05,2.26-4.79.21-13.21.22-17.47-.4Z"/>
              <path class="cls-81" d="M179.19,65.19c-3.02.59-6.27.44-9.4.44l-.07-34.24c.25-.57.96-.62.77-1.13l8.39.2.31,34.72Z"/>
              <path class="cls-60" d="M184.22,73.11c-.03,2.71,1.02,16.33-1.2,16.6l-15.37-.34c.76-2.27-1.56.29-.06-6.26,3.38-1.11,6.79-.85,10.21-1.01,2.55-.12.41-7.04,1.77-9.35,1.48-.22,3.34.02,4.65.36Z"/>
            </g>
            <g>
              <path class="cls-133" d="M167.65,89.37l15.37.34,36.22-.2c1.5,0,2.91-.39,4.19-.32.22.01.39.21.44.4-2.27,1.42-5.05.43-8.12.84l-.22,11.35c-.02.95-.01,2.88-1.01,3.21-2.3.75-4.86-.42-7.14.59-1.76,3.44.37,4.97-.78,6.08l-108.39.04c-1.25,0-1.93-.04-2.24-.72-.17-1.73.28-3.42-.2-5.62l-49.79.47c2.05-.02-18.55-.88-13.28-1.09.37-.72.54-3.67-.61-3.7-5.28-.12-10.43.29-15.43.86-.34.02-.5-.59-1.07-.8-3.5.18-6.67.4-9.8.15-.29-.02-.47-.23-.58-.49l1.2-4.13,5.12-.13c1.64-.04,4.18.14,4.73-1.6.36-1.11.11-4.24,1.49-4.55l41.94-.31,4.07-.37,103.89-.3Z"/>
              <path class="cls-77" d="M234.88,139.09l-.26-27.17-9.63-.36c-.05-2.05-1.06-4.07-.09-6.29,6.21-.05,12.15.11,18.34-.52.07-2.87.23-5.25-.09-8.15-3.16-.34-6.13-.47-9.02-.54-.2-1.91-.16-3.81-.01-5.72,1.38.1,37.57-3.19,37.14,1.77-.54,6.34,7.9,2.56,13.39,4.03.73,1.36-.11,3.21.97,4.31.76.78,3.59-.1,3.95,1.42,1.22,5.1,3.38.33,2.26,10l-6.37.35-.54,8.99-7.28.65-.67,1.72c-1.84.61-3.64.1-5.61.45-.49,2.06,0,4.26-.32,6.93-3.68.71-7.38-.38-10.91.51-2.79.7-5.56.52-8.39,1.42l-.41,5.78-16.45.41Z"/>
              <path class="cls-136" d="M5.21,100.77c.1.26.29.47.58.49-.19.67-.53,3.13.43,3.35,3.72.86,7.06.02,10.36.23,5.37.33,10.76.12,16.12-.09-5.28.21,15.33,1.07,13.28,1.09-.01,1.51.03,3.23.27,4.99,2.01.94,4.19-.18,5.61,1.24-1.03,4.01.5,8.35.32,12.21-.23,4.82-1.04,9.86-.65,14.84l-14.88-.45-.5-7.25c-4.19-.94-8.61.86-12.08-1.25.31-1.4.94-4.7-.32-5.61-2.8-.84-5.51-.65-7.75-.28-1.4-1.01-5.03-.09-5.96-1.43-1.38-1.99-.25-4.91-2.68-4.42-3.51.71-.95-5.46-2.68-6.21-1.49-.64-3.17.35-4.48-.67-.28-3.37-.35-6.83.23-10.28,1.75-.66,3.31-.06,4.78-.5Z"/>
              <path class="cls-52" d="M234.12,90.34c-.15,1.91-.18,3.82.01,5.72,1.58.04-9.25.65-8.96.57-1.39.41.14,5.95-.76,8.3l-8.05.15c-.55,2.03-.53,4.04-.55,5.96,0,1.54-8.5-.21-9.23,1.23,0-.2-.19-.4.01-.6,1.14-1.11-.99-2.64.78-6.08,2.29-1,4.84.16,7.14-.59,1-.33.99-2.26,1.01-3.21l.22-11.35c3.07-.42,5.85.58,8.12-.84l10.25.75Z"/>
              <path class="cls-114" d="M95.96,110.99c-.34-.18-.59,0-.86.69l-22.68.18c-6.83.05-13.82-.87-20.58.2-1.41-1.41-3.6-.29-5.61-1.24-.23-1.76-.28-3.48-.27-4.99l49.79-.47c.49,2.21.03,3.89.2,5.62Z"/>
              <path class="cls-100" d="M32.7,104.75c-5.36.21-10.75.42-16.12.09-.33-.95.1-1.95.08-2.94,5-.56,10.15-.98,15.43-.86,1.15.03.98,2.98.61,3.7Z"/>
              <path class="cls-69" d="M16.66,101.91c.01.98-.42,1.98-.08,2.94-3.29-.2-6.64.64-10.36-.23-.96-.22-.62-2.69-.43-3.35,3.13.25,6.3.03,9.8-.15.56.21.73.82,1.07.8Z"/>
              <path class="cls-24" d="M234.13,96.07c2.89.07,5.86.2,9.02.54.32,2.89.17,5.28.09,8.15-6.2.63-12.13.47-18.34.52-.97,2.22.04,4.24.09,6.29-2.5-.09-7.73.78-9.17-.52.02-1.92,0-3.92.55-5.96l8.05-.15c.9-2.35-.63-7.89.76-8.3-.29.09,10.54-.53,8.96-.57Z"/>
            </g>
            <g>
              <path class="cls-137" d="M72.34,132.4c-.41,13.98.77,28.08-.63,41.77-1.33,0-2.62.17-3.94-.07l-.31-5.77c-.12-2.23.35-4.49-.06-7.19-3.77-.55-7.46-.39-11.04-.13s-.67-.88-4.15,2.92c-1.57-8.02-.03-16.5-.69-24.82-.39-4.97.42-10.02.65-14.84,2.96-.77,14.6,1.52,16.49-.37.97.42,1.84,1.18,3.24.93-.96,2.56.49,5.38.43,7.55Z"/>
              <path class="cls-115" d="M63.28,145.22c1.05-.17,1.61.44,1.65,1.17.05,1-.28,1.98-1.45,2.06-.73.05-1.83-.14-1.74-1.16.08-.94.46-1.9,1.54-2.08Z"/>
            </g>
          </g>
          <path class="cls-41" d="M165.22,244.92l-.53,7.29c-5.62,1.8-5.95.48-10.18,5.19l-3.06,3.4c-3.4,3.79-2.88,2.25-5.1,5.51-.21.31-1.63.67-1.91.31-1.26-1.63-8.88-9.8-10.23-10.36-.28-.12-.32-.23-.46-.48-1.9-3.51-5.24-1.24-5.01-9.23.39-.85,1.01-1.09,2.13-1.09l31.29-.1c.87,0,2.1-.32,3.07-.43Z"/>
          <g>
            <path class="cls-92" d="M189.89,154.05c-.35,4.41-.04,8.83.07,13.23.09,3.49-.71,7.54-.18,10.89.11.7.52,2.76-.58,2.79-6.61.22-13.15.24-19.98-.04l-.09-31.96c.1-.07.31-.82.76-.82l19.73.27c.03,2.23.4,3.99.27,5.64Z"/>
            <path class="cls-103" d="M170.45,180.31c-.85-.06-.61-1.84-.22-2.04s1.28-.44,1.8-.59c1.43-.4.95-2.58,1.6-3.23,1.18-1.17,3.16.04,4.44-.67,1.21-.67,2.16-1.63,3.74-.71-.69-3.18,4.95-2.22,6.98-2.08.79.68.11,2.88-.5,3.46,1.61,1.7.51,3.44.42,5.99-5.84-.02-11.75.32-18.27-.15Z"/>
          </g>
          <g>
            <path class="cls-13" d="M169.13,148.96l.09,31.96c6.82.27,13.37.26,19.98.04,1.1-.04.69-2.1.58-2.79-.53-3.35.27-7.4.18-10.89.48,0,.89.03,1.72.12.03-2.55,2.39-1.98,3.62-2.89,1.35-1,1.53-3.62,3.32-4.01.94,10.35.56,20.74.39,31.48l-.43,28.44-8.13.1c-.88,1.52-.41,3.7-1.55,4.72s-3.24.48-4.44,1.41c-1.35,1.04-1.44,3.36-2.92,4.02-2.16.96-4.5.2-6.56.48-1.45.2-4.41-.92-5.51.47l-.78,6.74-50.28.14-5.92-.1c-2.24-.04-4.86-1.31-7,.15-.75.45-.83-.97-1.57-.72l-2.91-5.45c-11.41-3.56-1.3-5.68-10.99-6.87-1.81-.22-1.6-3.34-1.61-4.73-1.57-.83-3.22-.45-4.84-.97-.67-1.83-.57-3.52-.66-5.78l-5.13-.56c-.23-1.86.27-3.51-.21-5.4-2.3,0-5.71-.72-5.35,1.12-.31.11-.33-.18-.46-.29-.37-.29-.06-.46-.06-.67,0-2.71.64-5.82-.18-8.61-.46-1.55-3.33-.86-4.37-.84-.89-1.32-1.83-3.22-2.9-4.59-1.36-1.76-4.7-1.34-6.11-3.54s-2.83-4.36-5.77-5.11c-.36-10.5-1.9-9.2-.05-19.25.75.64,3.36.95,3.93-.07.97-1.75.48-3.79.13-5.2,3.57-.27,7.26-.42,11.04.13.41,2.7-.06,4.96.06,7.19-1.64-.65-3.48-.15-5.44-.23-4.73-.2-3.59,9.62-3.47,12.93.87.9,2.7.57,3.16,1.48.69,1.58,2.02,2.07,3.03,3.13.58.6.05,2.09.75,2.53,2.09,1.32,5.24-.24,5.91,1.07l.7,8.54c.42-4.92.59-9.52-.19-13.85.17-3.02,1.13-6.92-.21-9.75,1.4-13.69.22-27.8.63-41.77l.13-11.64c14.89,1.31,23.71,2.39,38.82,6.1,3.88.96,7.2,3.03,11.49,2.43-.04,2.35-.36,4.13-1.49,5.65.85.84,1.67.94,2.72,1.2l28.35,6.94c2.4.59,16.87,4.17,16.79,5.88Z"/>
            <g>
              <path class="cls-125" d="M117.25,139.55l-34.5.05c-.93-2.7-.75-5.52-.11-8.69l34.69-.14c.52,2.92.31,5.33-.08,8.78Z"/>
              <path class="cls-66" d="M112.92,171.31c-.02,3.22.62,6.43-.33,9.96l-20.37-.26c-.14-4.03-.27-7.2.07-10.36,1.94-.59,4.17-.38,6.07.3.67.24-.13,1.96.22,2.2,4.81,3.22,5.78-5.68,14.34-1.83Z"/>
              <path class="cls-90" d="M151.55,218.31l-22.93-.09c-1.31-.57-1.25-4.23-.33-5.51l23.31-.21c.82,1.76.61,3.61-.05,5.8Z"/>
              <path class="cls-26" d="M141.3,187.4c.91-2.07-7.19-.99-8.46-1.25-.03-1.38-.67-4.1.47-4.81,2.5-1.2,5.63-.61,8.22-.33-.01,2.05.18,4.94-.22,6.39Z"/>
              <path class="cls-43" d="M141.3,187.4c-.13.48.69,1.81-.36,2.02-2.28.45-5.31.47-7.59-.46-.96-.39-.32-2.26-.51-2.81,1.27.26,9.37-.82,8.46,1.25Z"/>
              <g>
                <path class="cls-92" d="M112.92,171.31c-8.55-3.84-9.52,5.05-14.34,1.83-.35-.23.45-1.96-.22-2.2-1.9-.68-4.13-.89-6.07-.3l-.23-17.28-2.72-.9c-.19-.69-.61-3.76.6-3.87,7.93-.73,15.33-.32,23.14-.34l-.15,23.06Z"/>
                <path class="cls-3" d="M106.94,164.19c.8.14,1.32.74,1.18,1.27-.19.75-.55,1.41-1.04,1.59-.77.28-1.51-.3-1.58-.8-.13-.91.27-2.27,1.44-2.06Z"/>
              </g>
            </g>
          </g>
        </g>
        <g>
          <path class="cls-1" d="M207.77,254.53c-.49.05-1.01-.13-1.78.06l.12,10.61c2.22.29,6.78-.26,7.36,2.04.37,1.47.34,3.71,1.88,4.97,1.91,1.56,4.91.53,7.47,1.07.81,2.27-.16,4.67.24,7.01,2.32-.32,3.67.15,4.95,1.34.99.93,2.06,4.31.44,4.96-2.2.88-5.28.59-7.64.71-1.69.08-3.58-1.14-4.61,1.1-.62,1.33-3.05,2.96-4.39,3.13-2.67.33-1.12-4.51-5.24-4.14.38-2.52-.88-6.5-1.31-8.67-2.45-.44-4.18-1.26-5.86-.8.12-8.15.31-16.37.34-24.46,2.02-.22,4.23.38,6.11-.55l1.92,1.62Z"/>
          <path class="cls-107" d="M238.59,313.12c-1.36-1.44-2.28-3.18-4.42-2.5l-1.81-3.61c-2.2-.29-3.04-1.86-4.47-3.15l-2.36-2.13c3.76.46,8.02.21,12.21-1.74,2.53-1.18-.14-5.57-2.06-6.66-2.21-1.25-3.14-2.48-5.73-1.08-1.42.76-3.75.11-5.48.89l-5.06,2.3c-.99.45-2.39.99-3.1-.31-1.4-2.55,3.74-4.65,3.5-4.41.91-.91.26-2.53,1.02-3.42,2.36-.12,5.44.17,7.64-.71,1.62-.65.56-4.04-.44-4.96-1.28-1.2-2.63-1.66-4.95-1.34-.4-2.34.57-4.73-.24-7.01-2.56-.54-5.56.49-7.47-1.07-1.54-1.26-1.51-3.5-1.88-4.97-.05-.46-.12-1.1.29-1.1.57,0,1.37-.01,1.97-.21l-.52-5c2.65-.48,3.62,5.2,5.66,5.5,2.89.43,1.91,4.58,3.36,5.72,2.74,2.16,5.34,2.84,4.81,7.06-.02,1.36,3.69,1.36,4.36,2.35l4.68,6.85c1.47,2.15,2.64,4.78,3.48,6.99,1.07,2.81.11,6.55.47,9.56.42,3.51-1.38,5.98-3.46,8.16Z"/>
          <path class="cls-21" d="M207.77,254.53c4.53.99,4.05,3.63,7.45,6.4l.52,5c-.61.2-1.41.21-1.97.21-.41,0-.34.64-.29,1.1-.58-2.3-5.14-1.75-7.36-2.04l-.12-10.61c.77-.19,1.29-.01,1.78-.06Z"/>
          <path class="cls-131" d="M112.47,238.41c.1,1.9.31,3.83.02,5.71-.95.03-.94,1.32-1.44,1.69-1.27.93-9.78,2.56-10.65,1.11l2.18-1.69c.68-.53,2.71.05,3.11-1.11.65-1.84-.58-3.82-.21-5.55,2.14-1.47,4.76-.19,7-.15Z"/>
          <path class="cls-36" d="M228.46,334.33c-2.57,1.81-4.61,3.62-6.07,6.77-1.08,1.39-5.22.97-6.67.1-.93-.56-1.08-2.61-.99-3.48.06-.5.63-1.32,1.09-1.49-.47.18,6.77.03,6.65,0,3.33,1.08,4.08-2.23,5.98-1.88Z"/>
          <path class="cls-85" d="M238.59,313.12c.06,2.09-1.11,7.58-1.89,9.27l-1.06,2.3c-.17.37-.81-.25-1.31.18-.19-2.62-.33-5.17.08-7.96.32-2.14-1.07-4.34-.25-6.28,2.14-.68,3.06,1.06,4.42,2.5Z"/>
          <path class="cls-93" d="M195.7,238.39c1.08,2.98-.48,3.96,1.03,6.15-2.7-.65-5.95-1.92-8.03.23-.44-.02-.38-.26-.52-.32-.22-.1-.47-.39-.38-.55.87-1.42.16-3.41.67-5.07,2.44-1.04,5.07-.1,7.23-.44Z"/>
          <path class="cls-134" d="M224.22,306.28c-.68.75-.32,1.82-.15,2.76.1.59,1.92.92,1.97,1.65.39,4.9-.17,9.43.58,13.86-.86-.08-2.97.05-3.14.91l-.97,4.88-11.97.18c-1.79.03-3.39-1.27-5.14-.59-.33-.21-.29-.33-.16-.67l-.03-11.15c3.02-2.64,3.75.32,5.24-4.09,7.63-3.27,3.58-.24,6.4-4.97,1.72-2.88,4.62-4.11,7.38-2.76Z"/>
          <path class="cls-1" d="M133.75,255.77c.14.25.18.37.46.48-1.03,2.12.95,1.12-.69,5.03l-4.01.24c-1.28,3.67-1.77,7.42-.93,11.42l10.04-.2c.45-1.82.08-3.13.32-4.83,2.47-.36,5.09-.61,7.35.11-1.04,1.54-2.4,2.97-2.67,5.34l13.55-.4c1.13-1.65,1.07-3.47,1.96-5.18l9.12-.63c1.74-.12,2.44-5.9,6.44-7.24-.04-1.7.05-2.83.39-4.2,1.87-.45,3.77-.4,5.53,0,.58,4.19-.01,8.14-.03,12.09-1.49.24-3.98-.26-5.31.72-.9.66-1.19,3.71-.32,4.4,1.34,1.07,3.87.15,5.32.45l.61,44.6-5.79.55c-.44,2.09-.38,4.21.06,6.5l5.16.56c1.02,5.57-.47,12.48.59,17.15-3.49.14-7.06.18-10.56.17-6.64-.03-13.32-.47-19.95.1-1,.09-1.59-.61-2.55-.64-.28.25-.32-.16-.78-.43.9-4.73-.13-9.38-.13-13.95l.05-27.19c-1.52-.84-2.98-.58-4.81-.83-.1-3.46-.33-6.68.19-9.75,1.23.27,2.44-.03,4.13.07,1.09-1.91,1.93-4.21,1.41-6.49-.39-1.72-2.27-2.55-3.4-2.27-3.99.99-1.76,3.98-3.71,3.53-.35-1.28-.84-3.13-.84-4.99-2.48-1.5-10.97-4.58-12.41-.38l-5.34-.05c-1.72-.01-.67-3.51-1.34-4.43-.5-.69-5.48.28-5.51-2.77-.01-1.18.16-2.09-.58-2.7.54.44-6.8-2.3-7.8-1.75l-.43-5.98-4.16-.3-.64-6.56c.67-.11.26-.88.4-1.09,1.03-1.58,18.3-.59,22.69.9,3.09,1.05,5.97,1.47,8.93.81Z"/>
          <path class="cls-141" d="M147.83,342.37c-1.76,1.44-4.36.6-6.51.99.41-.65.88-1.45.94-2.2l.86-11.44,3.8-1.74c0,4.57,1.03,9.22.13,13.95.47.27.51.68.78.43Z"/>
          <path class="cls-25" d="M142.34,290.22c-.31-1.71-1.1-3.46-1.56-5.15,1.95.45-.28-2.55,3.71-3.53,1.12-.28,3,.54,3.4,2.27.52,2.28-.32,4.58-1.41,6.49-1.7-.1-2.91.2-4.13-.07Z"/>
          <path class="cls-130" d="M220.82,287.31c-.76.89-.11,2.52-1.02,3.42.24-.24-4.9,1.86-3.5,4.41.71,1.29,2.11.76,3.1.31l5.06-2.3c1.73-.79,4.06-.13,5.48-.89,2.59-1.4,3.52-.17,5.73,1.08,1.93,1.09,4.59,5.49,2.06,6.66-4.18,1.95-8.44,2.2-12.21,1.74-7.23-4.63-4.82-5.91-12.09-4.43-2.15.44-2.94,1.05-4.32,2.98-.45.63-1.75.63-2.15,1.38-1.46-4.65-1.1-9.57-.38-14.27,4.12-.37,2.57,4.48,5.24,4.14,1.34-.17,3.78-1.8,4.39-3.13,1.04-2.24,2.93-1.01,4.61-1.1Z"/>
          <path class="cls-48" d="M226.62,324.54c-.75-4.44-.19-8.96-.58-13.86-.06-.73-1.87-1.06-1.97-1.65-.16-.94-.52-2,.15-2.76.89.17,2.7-.93,3.44,0,2.12,2.64,2.61,6.19,2.5,9.62l-.23,7.53c-.05,1.64-2.34,1.2-3.32,1.11Z"/>
          <g>
            <path class="cls-41" d="M225.52,301.73l2.36,2.13c1.43,1.29,2.28,2.86,4.47,3.15l1.81,3.61c-.82,1.93.57,4.13.25,6.28-.42,2.79-.27,5.35-.08,7.96.07.98-.07,2.46-.28,3.57-.29,1.54-2.3,1.92-3.72,2.15-.86,1.51-.57,2.83-1.89,3.75-1.9-.35-2.65,2.97-5.98,1.88.12.04-7.12.19-6.65,0-.46.18-1.04.99-1.09,1.49.29-2.59-3.11.26-6.13-3.26-.62-.72-2.13-.41-2.84-.77.04-1.24-.09-2.57-.36-3.76,1.76-.68,3.35.62,5.14.59l11.97-.18.97-4.88c.17-.86,2.28-.98,3.14-.91.97.09,3.27.53,3.32-1.11l.23-7.53c.11-3.43-.38-6.98-2.5-9.62-.75-.93-2.56.17-3.44,0-2.76-1.35-5.66-.12-7.38,2.76-2.82,4.72,1.23,1.7-6.4,4.97-1.49,4.42-2.22,1.46-5.24,4.09l.03,11.15c-5.17.97-2.88-6.64-3.32-13.29-.15-2.32,1.65-3.02,3.29-3.62.5-1.71-.29-4.15-.95-5.63,1.95-.64,1.8-3.35,2.7-5.05.4-.75,1.7-.75,2.15-1.38,1.38-1.94,2.17-2.54,4.32-2.98,7.27-1.48,4.86-.2,12.09,4.43Z"/>
            <path class="cls-23" d="M220.89,301.46c.84,2.72-5.22,2.97-8.98,8.29-.28.4-1.01.38-1.31.29-.53-.16-.49-7.79,5.5-10.56.38-.17.65-1.16,1.14-1.06-.49-.1,3.08,1.21,3.64,3.04Z"/>
          </g>
          <g>
            <path class="cls-57" d="M196.73,244.54c1.12.27,2.45.88,3.05,1.92l-.03,7c-.03,8.09-.23,16.31-.34,24.46-.32,3.25-3.4.81-5.68,2.6-.98,4.8-.36,9.74.13,14.44l4.62.33c1.41,2.94.74,5.89,1.03,9.36.55,1.29,3.5,1.81,4.76,2.07.66,1.48,1.45,3.92.95,5.63-1.64.6-3.45,1.29-3.29,3.62.44,6.65-1.85,14.26,3.32,13.29-.13.34-.17.46.16.67.26,1.2.39,2.52.36,3.76l-.27,9.2c-.4.02-.8-.04-1.2-.05l-15.55-.42-.24-42.71.2-54.93c2.08-2.15,5.32-.88,8.03-.23Z"/>
            <path class="cls-105" d="M187.58,451.35l11.21.06c-.2,2.76,0,5.05.47,8.34.26-.29-11.41-.95-9.89.2-2.6.26-5.97-.46-8.36.91-1.96,1.11-.49,4.25-.81,5.84-.42,2.07-.35,4.18-.31,6.57l18.78-.04c-.04-1.99.48-7.41-1.83-6.42,2.58-.02,3.88-3.38,4.06-6.28.33.06,1.11-.55,1.4-.11.18.28.49-.7.29-1,1.04.19,3.12.63,3.65,1.76.79,1.67-.66,3.76.72,5.26,1.86.08,4.74-.39,5.83.85.68,3.55.24,7.05.24,10.33-1.3.3-3.45,1.29-4.82,1.85-.92.37-.58,1.58-2.25,1.59l-39.67.13c-.5-1.45-.51-2.82-.5-4.09l.1-25.24c5.79-1,15.35-.55,21.69-.51Z"/>
            <path class="cls-63" d="M205.49,342.89l.47,22.45c1.82.49,3.42.48,5.12,1.14,2.22,3.18.03,9.03,2.96,8.49.72-.13,1.35-.14,1.74.23,1.02.98.59,15.73.33,18.38l-9.89.39c-.48.02-.8,1.77-.79,2.38l.33,32.1c.08,7.34.18,14.3-.03,21.91-1.77.91-3.3.66-5.59.64.57,3.61-1.07,7.39.99,8.69.5.32.79-.38,1.45-.26.2.3-.11,1.28-.29,1-.29-.44-1.07.17-1.4.11-2.84-.51-8.36-.91-11.52-.59-1.51-1.15,10.16-.5,9.89-.2-.47-3.3-.67-5.58-.47-8.34l-11.21-.06c-.16-.07-.13-.35.16-.53l11.61-.09c1.27,0,3.14-1.25,4.34-1.47,1.31-.66,1.33-3.57,1.3-4.9l-.38-16.36c-.07-3-.73-6.29-.02-9.14s.03-5.64.1-8.29l.41-14.97c.28-10.26.47-20.4.39-30.17.03,3.76-.93-7.87-.46-6.72-.18-.45-.56-1-1.23-1.02.83-2.26,2.16-4.24.92-6.79-1.16-2.39-.02-5.5-.43-8.07.4.01.79.07,1.2.05Z"/>
            <path class="cls-71" d="M118.92,243.93c-3.21.09,11.57,1.74,9.32,1.36.63.11.22.7.5,1.25-.23,7.99,3.11,5.72,5.01,9.23-2.96.66-5.84.24-8.93-.81-4.39-1.49-21.66-2.49-22.69-.9-.14.21.28.98-.4,1.09-.28-.5-.1-1.01-.56-1.18-.64-.24-1.14-.09-1.89-.12l-2.83-.11.63-3.71c.29-1.67,1.49-3.55,3.3-3.1.87,1.45,9.38-.18,10.65-1.11.5-.37.49-1.66,1.44-1.69l6.43-.19Z"/>
            <path class="cls-142" d="M92.45,466.77c-1.15.12-3.83-.7-4.53.39-.35,2.1-.49,3.74-.36,5.9,1.78-.3,3.27-.7,4.8-.58,1.49,1.17-13.42.9-14.22.77-.37-2.57.1-4.51-.02-6.47-.02-.35-.03-.69.44-.56-.63,1.21,4.6.64,5.58.31l.29-6.07c5.58-.51,10.87-.6,16.44.01.09,1.9-.03,3.62-.23,5.6-2.46.77-5.92.46-8.17.7Z"/>
            <path class="cls-128" d="M102.71,389.48l-.15,1.35c-.03.32,1.04,0,1.31.65-1.8.12-3.95-.1-5.82.71-.33,1.1-.92,2.18-1.92,2.56-1.49.55-2.36-.35-3.67-.89-1.51-.62-3.36.24-4.54-.95l-.05-3.03c-2.26-.88,15.9-.44,14.84-.4Z"/>
            <path class="cls-117" d="M180.77,238.3c-1.12,1-1.41,4.8-.11,5.52,2.25.7,5.17.09,7.15.08-.1.16.16.45.38.55.14.06.07.3.52.32l-.2,54.93.24,42.71-7.85.32c-1.06-4.66.43-11.58-.59-17.15l-5.16-.56c-.44-2.29-.5-4.41-.06-6.5l5.79-.55-.61-44.6c.7-1.57.31-3.78.32-5.57.01-3.95.61-7.9.03-12.09-1.76-.4-3.65-.46-5.53,0-.34,1.37-.43,2.5-.39,4.2-4,1.34-4.71,7.12-6.44,7.24l-9.12.63c-.88,1.7-.83,3.53-1.96,5.18l-13.55.4c.27-2.37,1.63-3.8,2.67-5.34,1.96.63,8.81-2.36,8.74-2.28.75-.86.56-1.93.47-3.2,1.9-2.74-4-.03-4.04-1.75l3.06-3.4c4.23-4.71,4.56-3.39,10.18-5.19l.53-7.29c2.88-.33,5.7-.99,8.86-.94.35-1.7.22-3.01.23-4.37-4.65-1.74,9.14-1.35,6.46-1.31Z"/>
            <path class="cls-124" d="M203.8,357.7c.67.01,1.05.57,1.23,1.02-.47-1.15.5,10.48.46,6.72.08,9.77-.1,19.91-.39,30.17l-.41,14.97c-.07,2.66.62,5.4-.1,8.29s-.05,6.14.02,9.14l.38,16.36c.03,1.34,0,4.24-1.3,4.9-1.2.22-3.07,1.46-4.34,1.47l-11.61.09c-.29.17-.31.46-.16.53-6.33-.03-15.9-.49-21.69.51,0-2.27-.57-4.58-.04-6.83,3.33-.28,6.71-.42,10.33-.38s10.46,1.22,10.94-2.24c.06-.45-.67-.99-.66-1.47.03-1.21.88-2.1.27-3.5l3.04-.88.11-55.76-.27-16.12c-2.48-.52-4.81-.51-5.98-2.18-1.09-1.54-1.52-2.87-.58-4.17,2.82-.76,5.87-.94,9.15-.87l11.6.23Z"/>
            <path class="cls-61" d="M164.8,444.5c-1.84.26-3.96.29-5.93-.73l-.58-25.41c-.05-1.99-.43-3.89-.48-5.84-2.36-.51-4.57.11-6.9-.64l-.17-11.47c-6.06-.17-7.18.62-13.02.71-1.19,4.02,1.2,11.12-2.59,12.8.22-.43-.05-.95-.93-1.04.62,1.73-.55,3.18-.57,4.46-.05,3.01.05,22.75-.04,23.13-.43,1.75-2.73,1.86-4.85,1.62l-.44-13.2-.6,13.6c-.13,2.98.14,5.68-.76,8.99l-2.91-.69c-5.53-1.32-12.17.12-17.81.04-.2-1.84-.19-3.79.29-5.78,1.53-.4,2.91-.02,4.7-.29l.49-6.37c1.09-.59,2.16-.16,3.05-.36,1.62-.36,3.39.35,5-.39l.07-19.63c0-1.49.44-3.87,1.21-5.2.98-.58,3.35-.03,3.43-1.61l.5-9.41c1.33-.99,2.78-.85,3.68-1.99-.17-1.36-.9-3.03.22-3.99.62-.54,2.1-.51,2.33-1.25.81-2.64-3.82-3.03-2.08-5.78l29.29-.02c1.49.25.24,3.49-.15,4.55-.62,1.71-.18,4.75-.51,6.72,2.2.65,3.84.19,5.91.35,1.27.1,1.42,2.14,1.41,3.34l-.27,40.77Z"/>
            <path class="cls-83" d="M204.29,342.84c.41,2.57-.73,5.68.43,8.07,1.24,2.55-.09,4.54-.92,6.79l-11.6-.23c-3.28-.07-6.33.12-9.15.87-5.24-.68-10.62-.45-15.95-.59.17-.27.04-.51-.09-.8s-.4-.22-1.2-.43c.18-1.47-.11-2.84.53-4.01.44-.8,2.06-.08,2.68-.53,2.8-2,.09-7.64,1.3-9.07,3.5.02,7.08-.02,10.56-.17l7.85-.32,15.55.42Z"/>
            <path class="cls-32" d="M144.21,357.27c.83,1.13-1.16,1.68-1.5,2.6-1.67,4.44.08,10.82-.92,15.19-.4.78-3.01.71-3.76.09-.48-3.45.21-7.13-.72-10.83-1.77,2.51-2.02,3.95-4.04,4.89-1.89.87-2.62,3.72-4.04,5.27-1.18,1.28-2.23,2.2-2.78,3.81-.47,1.39-2.94,1.71-3.71,2.88-1.37,2.07-3.4,2.25-5.2,3.54-1.03.74-1.12,2.54-2.91,2.7-3.34.3-6.39,1.89-9.66,1.99.37-1.98-.23-4.12.38-6.24s7.53-.94,9.28-2.42c.26-1.54.06-2.93.52-4.41,1.42-1.11,3.89-1.01,5.2-2.44,1-1.09.74-3.26,2.58-3.95,1.36-.51,3.7.1,4.35-1.36.35-.79,0-1.9.51-2.51.58-.68,1.47-.67,2.53-.77,4.1-.36,2.54-6.41,3.67-7.6,1.4-1.5,2.69,1.04,10.24-.45Z"/>
            <g>
              <path class="cls-20" d="M167.1,357.75c5.33.14,10.71-.09,15.95.59-.94,1.3-.5,2.63.58,4.17,1.18,1.67,3.5,1.66,5.98,2.18l.27,16.12-.11,55.76-3.04.88c.6,1.4-.24,2.3-.27,3.5-.01.48.72,1.02.66,1.47-.48,3.46-7.23,2.28-10.94,2.24s-7,.1-10.33.38l-1.06-.53.27-40.77c0-1.2-.14-3.24-1.41-3.34-2.07-.16-3.71.3-5.91-.35.34-1.97-.1-5.01.51-6.72.39-1.07,1.64-4.3.15-4.55l-29.29.02c-1.75,2.75,2.89,3.13,2.08,5.78-.23.74-1.71.71-2.33,1.25-1.12.97-.39,2.64-.22,3.99-.9,1.14-2.35,1-3.68,1.99l-.5,9.41c-.08,1.58-2.45,1.03-3.43,1.61-.76,1.34-1.2,3.71-1.21,5.2-1.08.11-2.26.03-3.59.43l-.88,18.81c-.55.22-.84.43-.6.77-.9.2-1.96-.24-3.05.36l-.49,6.37c-1.79.27-3.17-.11-4.7.29-.49,1.99-.49,3.94-.29,5.78-6.08-.08-12.37,1.15-18.54.57l.24-58.5c1.18,1.19,3.04.33,4.54.95,1.31.54,2.19,1.44,3.67.89,1.01-.38,1.6-1.46,1.92-2.56,1.87-.81,4.03-.59,5.82-.71-.27-.66-1.35-.33-1.31-.65l.15-1.35,2.25-.07c3.26-.1,6.32-1.69,9.66-1.99,1.8-.16,1.88-1.96,2.91-2.7,1.8-1.29,3.84-1.47,5.2-3.54.77-1.17,3.24-1.49,3.71-2.88.55-1.61,1.6-2.53,2.78-3.81,1.43-1.55,2.16-4.41,4.04-5.27,2.03-.93,2.28-2.38,4.04-4.89.93,3.69.23,7.38.72,10.83.74.62,3.36.69,3.76-.09,1-4.38-.75-10.75.92-15.19.34-.92,2.33-1.47,1.5-2.6,2.16-.43,3.84.02,6.15.28,5.72.65,11.32.05,16.74.19Z"/>
              <path class="cls-116" d="M100.5,440.18c0,1.81-2.85,5.47-4.8,4.77-.64-.23-.7-1.32-.7-2.26l-.07-46.85c1.8-.25,3.56-.32,5.47.54l.1,43.8Z"/>
            </g>
            <path class="cls-54" d="M119.82,418.03l-.07,19.63c-1.61.73-3.38.03-5,.39-.24-.35.05-.56.6-.77l.88-18.81c1.33-.4,2.51-.32,3.59-.43Z"/>
            <g>
              <path class="cls-64" d="M135.12,413.93c.54,1.75-.46,3.45-.5,5.26l-.46,23.19c-1.78.99-3.87.04-5.43.55-1.85.61.41,3.71-1.58,9.24-.97,2.7.97,7.35-2.35,7.93-.12,5.55-.17,11.42.06,16.91.05,1.22-.25,2.42-.4,4.09l-47.58-.17c-2.06,0-4.62-1.41-4.73-3.31-.19-3.24.08-6.59.13-10.15,2.01-1.05,3.96-.54,5.84-.68.12,1.96-.35,3.9.02,6.47.81.13,15.71.41,14.22-.77l.09-5.71c2.25-.24,5.72.07,8.17-.7.2-1.97.32-3.7.23-5.6-5.57-.61-10.86-.52-16.44-.01l-.29,6.07c-.97.33-6.2.9-5.58-.31.07-1.41-.38-3.82.82-4.94s3.25-.48,4.56-1.24l.49-8.05c1.14-.37,2.28-.68,3.25-.59,6.17.58,12.46-.65,18.54-.57,5.64.07,12.28-1.36,17.81-.04l2.91.69c.91-3.31.63-6,.76-8.99l.6-13.6.44,13.2c2.12.24,4.42.12,4.85-1.62.09-.38,0-20.12.04-23.13.02-1.28,1.19-2.73.57-4.46.87.1,1.14.61.93,1.04Z"/>
              <path class="cls-34" d="M87.67,458.46c-.25-.74-.96-4.49-.95-4.51.14-.42.87-1.02,1.65-.88,2.26.39,4.19-.44,6.29-.52l12.29-.41c.94,2.17,1.13,4.5.33,6.64-6.68-.89-12.9-1.02-19.62-.32Z"/>
            </g>
            <path class="cls-86" d="M92.45,466.77l-.09,5.71c-1.53-.12-3.02.28-4.8.58-.14-2.15,0-3.79.36-5.9.7-1.1,3.38-.27,4.53-.39Z"/>
            <path class="cls-97" d="M206.58,287.39c-.72,4.71-1.08,9.62.38,14.27-.9,1.7-.76,4.42-2.7,5.05-1.26-.27-4.21-.78-4.76-2.07-.29-3.47.38-6.42-1.03-9.36l-4.62-.33c-.48-4.7-1.1-9.64-.13-14.44,2.27-1.79,5.36.66,5.68-2.6,1.68-.45,3.41.37,5.86.8.43,2.18,1.69,6.15,1.31,8.67Z"/>
            <path class="cls-75" d="M189.37,459.96c3.17-.32,8.68.08,11.52.59-.18,2.89-1.48,6.26-4.06,6.28-5.55.04-11.12-.52-16.64-.11.32-1.59-1.14-4.73.81-5.84,2.4-1.36,5.76-.64,8.36-.91Z"/>
            <path class="cls-139" d="M196.83,466.82c2.31-1,1.79,4.43,1.83,6.42l-18.78.04c-.04-2.39-.11-4.5.31-6.57,5.52-.41,11.09.15,16.64.11Z"/>
            <path class="cls-89" d="M150.38,343.01c.47,2.72.37,5.48-.05,8.5-4.29.16-8.71.38-12.69-.29-.42-.62-.09-2.09.39-2.44,1.97-1.4,2.11-3.57,3.29-5.42,2.15-.39,4.75.45,6.51-.99.96.03,1.55.73,2.55.64Z"/>
            <path class="cls-8" d="M151.46,260.8c.04,1.72,5.94-.98,4.04,1.75.08,1.27.27,2.34-.47,3.2.07-.08-6.79,2.9-8.74,2.28-2.26-.72-4.87-.48-7.35-.11-.23,1.7.14,3.01-.32,4.83l-10.04.2c-.84-4-.35-7.75.93-11.42l4.01-.24c1.65-3.91-.34-2.91.69-5.03,1.35.55,8.97,8.73,10.23,10.36.28.36,1.7,0,1.91-.31,2.22-3.26,1.7-1.72,5.1-5.51Z"/>
            <path class="cls-84" d="M180.57,267.81c0,1.79.39,4-.32,5.57-1.45-.3-3.98.62-5.32-.45-.87-.69-.58-3.74.32-4.4,1.33-.97,3.82-.48,5.31-.72Z"/>
          </g>
          <g>
            <path class="cls-111" d="M142.26,341.16c-.06.75-.53,1.55-.94,2.2-1.18,1.85-1.32,4.02-3.29,5.42-.49.35-.81,1.81-.39,2.44,3.98.67,8.41.45,12.69.29.42-3.02.52-5.78.05-8.5,6.63-.57,13.31-.14,19.95-.1-1.2,1.43,1.5,7.07-1.3,9.07-.62.44-2.24-.27-2.68.53-.65,1.17-.35,2.54-.53,4.01.8.21,1.07.14,1.2.43s.26.54.09.8c-5.42-.14-11.03.46-16.74-.19-2.31-.26-3.99-.71-6.15-.28-7.56,1.48-8.84-1.05-10.24.45-1.12,1.2.43,7.24-3.67,7.6-1.06.09-1.95.08-2.53.77-.51.6-.16,1.71-.51,2.51-.65,1.46-2.98.85-4.35,1.36-1.84.69-1.58,2.86-2.58,3.95-1.3,1.42-3.78,1.33-5.2,2.44-.46,1.47-.26,2.87-.52,4.41-1.75,1.48-8.69.4-9.28,2.42-.62,2.12-.01,4.26-.38,6.24l-2.25.07c1.06-.03-17.1-.48-14.84.4-2.21-.86-4.64.06-6.93-.47,2.12-.52,4.24-.7,6.96-.86-8.67-1.4-9.98,2.3-20.21-1.69-.52,0-1.11.4-1.4.25-.38-.19-1.47-1.46-.93-1.8,1.85-1.17,4.25-.35,6.29-.31l24.18.4c.48,0,7.12-.68,6.18-2.77.49.11,1.58.37,2.03.14s.91-1.21,1.1-2.05c1.03.2,1.15.19,1.53.11.69-.15,1.29-1.09,1.54-1.62,2.12-4.58,6-.83,6.2-4.46,4-3.22,4.13.95,5.53-2.89.23-.62-.6-1.33-.44-2.32,2.28.4-.25-2.71,2.07-4.24,1.82-.25,4.4-.26,6.04-.88,1.48-1.56.75-4.03.76-5.78.5-.27.27-.48.25-.88,1.46-.79,3.15-.79,4.9-2.12.3-3.09.26-6.29.24-9.3,0-1.3.2-2.57.03-3.88,1.49-.01,2.91-.05,4.58-.53-.71-2.09.39-3.8.41-5.27.99-.04,2.95-.55,2.91.99-.02.65-.92,1.83-.52,2.54.21.37.5.82,1.09.97Z"/>
            <path class="cls-72" d="M53.28,226.1c.36,1.02-.26.77-1.33.55-.82,2.25.4,3.62,1.83,4.9.7,1.21-.19,3.07-.18,4.2l.37,30.21-.34,31.95c-.1,9.77,0,19.21.27,28.98.07,2.58-1.27,5.05-.7,7.58,6.11,3.94,1.4,6.41,8.81,8.59,1.68.49,2.84,3.51,1.72,4.82-.97,1.13-1.09,1.95-.94,3.28-.52,1.1.4,1.09.47-.16.84-.33-.13-1.06.06-1.44.24-.49,1.04-.67,1.46-.89.08.5.67.64.95.88.67.57.81-.28,1.36-.38,1.04,1.18,2.73.42,4.06.54,1,.09,1.88.02,2.88.04l4.08.08c.39.88,1.75.13,2.55.99l2.83-2.61c.63,4.2-1.27,1.61.47,6.12-6.52.89-22.73,2.48-26.37-5.08-.81-1.69-2.61-2.33-3.14-3.84s-1.3-2.9-1.99-4.22c-1.27-2.42.28-5.44-.83-8-.59-1.36-1.62-2.51-1.09-3.98.71-1.99.3-4.15.27-6.18l-.1-7.08c-.05-3.81.44-16.86,0-20.07-.68-5.07.23-9.92.18-14.95l-.17-15.87-.27-13.35c1.76-3.09.83-7.97.48-10.4-.44-3.02.45-6.34-1.69-9.07-1.87-2.4-2.47-.09-3.17-6.29.26-.15.37-.74.61-.45.3.36.5.56,1.13.41.52-.13.31.85.64.92,2.21.47-.88-.42,2.62-1.46.87-6.52-2.45-8.28-.64-9.85,2.61,2.85.06,11.1,2.83,10.6Z"/>
            <path class="cls-27" d="M75.85,237.94c-.98.03-1.96.45-2.38,1.73-1.14-.1-1.66-.34-2.22-.65-3.11-2.75-9.16-1.43-13.89-.94-.45,2.51-.57,5.17-.09,7.64,2.42-.04,4.34-.21,6.29-.43.58-.07,1.3.33,1.89.41.22.56-.53.8-.58,1.45l-.1,1.29c-.03.33-.66.26-1.05.52-2.02.25-4.01-.6-6.18-.07l-.09,65.88c-1.01.03-.61,1.31-.55,2.34-.37.54-.61.66-.67.89-.09.35.37.94.31,1.28-.16.83-.54,1.27-.8,1-2.57-2.63-.58-10.47-1.43-13.34s-.03-5.65,0-8.51l.3-31.84c0-.49-.32-.86-.62-.63l-.37-30.21c-.01-1.13.87-2.99.18-4.2-1.43-1.28-2.66-2.66-1.83-4.9,1.07.22,1.69.48,1.33-.55,1-.02,3.46-.89,4.07.25.83,1.56-.14,3.36.41,4.88l5.37.35c.38,1.46-.02,2.69.6,3.9,4.42-.41,8.54.51,12.12,2.47Z"/>
            <path class="cls-112" d="M63.15,374.95c-.06.45.28.91.2,1.32-.38,1.89-.62,3.94-.18,6.28,1.56.61,2.88-.11,4.25.19.28,1.16,1.1,1.05,1.03-.1l13.07.2,16.7.13c1.41.01,2.51-.61,3.8-.33.94,2.09-5.71,2.78-6.18,2.77l-24.18-.4c-2.05-.03-4.44-.86-6.29.31-.54.34.55,1.61.93,1.8.28.15.88-.24,1.4-.25,10.23,3.99,11.54.29,20.21,1.69-2.72.16-4.84.33-6.96.86-2.01.49-12.92-.81-11.51-1.03-2.97.47-4.86-1.81-6.92-2.9-1.81-.95-3.87-.51-4.9-2.79l-4.29-1.21c-1.53-.43-1.15-3.72-2.65-4.37-1.18-.17-2.49-.07-3.32-.24-1.31-.27-.96-1.79-1.86-2.52-1.05-.85-3.58.08-4.35-1.28-.93-1.64-.2-3.86-.8-5.85-2.74-1.15-4.1-3.93-3.77-7.14.38-3.67-3.28-.91-3.8-3.88,1.02-.24,1.91,1.05,3.24.06.31-.23-.47-1.09-.43-1.48.02-.26.03-.36.51-.43.21.59,0,1.31.36,1.72.5.57,1.17.69,2.01.73,3.96.21.81,6.16,2.85,8.63.95,1.15,3.17.32,4.59.51-.4.84-.59,2.41.3,3.12,1.18.93,3.01.11,4.54.82.55,1.22-.58,3.34.3,4.23,1.23,1.25,1.35,2.46,2.63,2.41,4.79-.2,1.37-4.39,9.48-1.58Z"/>
            <path class="cls-74" d="M46.1,225.94c.7,6.2,1.29,3.89,3.17,6.29,2.13,2.73,1.25,6.05,1.69,9.07-1.14-1.8-2.28,11.86-.48,10.4l.27,13.35.17,15.87c.05,5.03-.86,9.88-.18,14.95.43,3.22-.06,16.27,0,20.07l.1,7.08c.03,2.03.44,4.19-.27,6.18-1.41.14-2.75-.86-4.08-.07-.07-7.49-.36-15.09-1.16-22.41.33-1.46.62-3.25.62-5.29l-.12-49.17c-.01-5.55,1.29-11.04-.81-16.43-.75-1.9-5.2-1.97-6.61-1-1,.69-.42,2.38-.58,3.1-.56.04-1.38-.17-1.92.1-.26.13-.8,3.61-.5,3.94.47.5,1.69.88,2.67.31,1.09-.64.14-2.8.35-3.9,2.1.19,4.19.97,5.07,2.91.98,2.15.65,4.03-1.45,5.6-2.92,2.18-8.18,2.46-9.88-1.43-1.95-4.46-.82-10.03-.5-14.43,1.4.05,1.36-.94.81-1.16-.21-.08-1.08.09-1.01-.56.13-1.24,2.25-2.9,4.37-1.93-1.81-2.9,11.89-2.37,10.28-1.44Z"/>
            <path class="cls-10" d="M45.32,306.72c.8,7.32,1.09,14.92,1.16,22.41l.28,29.87c1.32.6,2.95.16,4.74.73l.58,9.84,10.99.29c.6,1.84.29,3.5.09,5.09-8.11-2.81-4.69,1.38-9.48,1.58-1.28.05-1.41-1.16-2.63-2.41-.88-.89.26-3.01-.3-4.23-1.53-.71-3.37.11-4.54-.82-.89-.71-.7-2.28-.3-3.12-1.42-.19-3.64.64-4.59-.51-2.04-2.47,1.1-8.43-2.85-8.63-.84-.04-1.51-.16-2.01-.73-.36-.41-.15-1.13-.36-1.72l-.05-35.02c1.12-.45,2.3-.6,2.77-1.19.78-.97.09-2.34.4-3.42.73-2.54,2.06-4.73,1.98-7.47,1.57-.46,2.83-.45,4.12-.54Z"/>
            <g>
              <path class="cls-62" d="M50.46,215.5c-1.81,1.57,1.5,3.33.64,9.85-3.51,1.04-.41,1.94-2.62,1.46-.33-.07-.12-1.05-.64-.92-.63.16-.82-.05-1.13-.41-.24-.28-.35.31-.61.45,1.62-.92-12.09-1.45-10.28,1.44-2.11-.97-4.24.69-4.37,1.93-.07.66.8.48,1.01.56.55.22.59,1.21-.81,1.16-.32,4.4-1.44,9.97.5,14.43,1.7,3.89,6.97,3.62,9.88,1.43,2.1-1.57,2.42-3.45,1.45-5.6-.88-1.95-2.97-2.72-5.07-2.91-.04-.25-.3-.47-.61-.45.16-.72-.42-2.42.58-3.1,1.41-.97,5.86-.9,6.61,1,2.11,5.38.8,10.88.81,16.43l.12,49.17c0,2.03-.29,3.83-.62,5.29-1.29.09-2.55.08-4.12.54.08,2.74-1.26,4.94-1.98,7.47-.31,1.08.38,2.45-.4,3.42-.48.59-1.66.74-2.77,1.19l.05,35.02c-.47.06-.48.17-.51.43-.04.39.74,1.25.43,1.48-1.33.99-2.22-.3-3.24-.06-1.4-7.93-1.41-32.77.93-42,1.61-.44,2.74-.16,3.76-.89.44-1.96-.16-3.96.6-5.94.36-.95,1.91-.58,2.62-1.31l-.1-49.43c-2.92-.43-5.58.54-8.18-.68.02-2.25.3-4.4-1.03-5.82-.79-.85-3.09-.43-3.48-1.56-.42-1.23-1.58-2.27-1.87-3.42-1.05-4.11-1.14-8.77-.06-12.98.48-1.87,1.88-3.35,1.79-5.36l4.36-.99c.7-1.5-.14-3.62.9-4.96s3.57.06,4.86-.85c.88-.62.47-2.36.63-3.32.36-2.09,2.13-2.69,4.02-2.57,2.81.18,6.05-.67,7.94,1.39Z"/>
              <path class="cls-99" d="M46.08,224.87c-3.44-1-6.54-.81-9.75-.35-.38-.83-.19-1.42.18-2.15.29-.57,1.29-.36,1.84-1.25,1.45-2.34,5.19-1.96,7.86-1.92.32,1.98.42,3.32-.14,5.68Z"/>
            </g>
            <path class="cls-12" d="M37.81,237.93c.3-.02.57.19.61.45-.21,1.1.74,3.27-.35,3.9-.98.58-2.21.2-2.67-.31-.31-.33.23-3.81.5-3.94.54-.27,1.36-.07,1.92-.1Z"/>
            <path class="cls-91" d="M142.27,309.65c-1.22.21-2.62-.22-3.88.5.02,5.42.34,10.56-.05,15.63-.12,1.52.06,3.08-.15,4.58-1.06.72-2.31.19-4.05.03-.63,4.05-.85,8.19-.34,12.07.17,1.31-.04,2.58-.03,3.88l-5.22.58c-.33,2.52-.04,4.77-.7,6.87-1.37.51-3.54-.4-4.93.61-1.24.9-.31,3.35-.57,4.55-.51.46-1.38.65-2.46.67-1.48.03-1.41,1.9-1.1,2.81l-.96,1.75c-.89,1.63-4.52.5-6.77,1.22-.25,1.03.21,3.01-.66,3.42-2.29,1.08-4.95.49-7.48,1.26-.63,2.3.16,4.57-.7,6.52l-36.77.22c-.92,0-1.67-.17-2.1-.56.08-.41-.25-.87-.2-1.32.2-1.59.51-3.25-.09-5.09l-10.99-.29-.58-9.84c-1.79-.57-3.42-.13-4.74-.73l-.28-29.87c1.33-.79,2.66.21,4.08.07-.53,1.47.5,2.63,1.09,3.98,1.11,2.55-.44,5.57.83,8,.69,1.32,1.44,2.65,1.99,4.22s2.32,2.15,3.14,3.84c3.64,7.56,19.85,5.97,26.37,5.08,1-.14,2.62.75,3.39-.49.49-.8.07-2.01.54-2.42,1.65-1.46,3.89-.4,5-1.45.8-.75.2-1.78,1.26-3.71.95-.47,2.65-.53,3.4-1.6.53-.75-.06-2,.64-2.43,1.76-1.05,4.14-.7,3.79-3.37-.48-3.62,4.4-1.22,4.19-4.61-.26-4.07,3.47,0,5.85-5.47.91-2.08,3.16-2.54,4.15-4.1l2.84-4.51c.71-1.12,2.59-1.21,2.02-3.13-1-3.37,4.25-.77,4.81-3.62.16-.8.72-2.4-.51-2.93-.72-.31-2.26.26-2.76-.5-.55-1.12-.4-2.63-.3-3.78.59-.37.87-.55,1.73-.49,3.19.24,6.57.23,9.88-.38.37-2.25-.07-3.92.33-5.53,2.55.27,5.26-.27,7.91.86.36,3.44.12,6.25.15,9.01Z"/>
            <path class="cls-113" d="M101.51,279.04c-.11,1.01-.15,2.89,1.25,3.51.8.35,3.63-.47,3.63.76l.04,24.57-.16,5.84c-.03.92-.99,1.65-.58,2.67-.85-.64-6.1,3.65-5.92,3.58-.76.29.15.73.04,1.39-.13.83-1.16.04-1.59.41-1.15.98-2.23,1.67-3.74,2.04.74-.18-3.45,2.38-2.77,3.44.36.56,1.29.67,1.88.17.56-.47,1.13-.65,1.62-.58-.32.41.73.61.61.85-.04.09-2.24,1.92-1.99,1.93-.66-.02-.9-1.84-1.2-1.73-.92.13-.79,1.04-1.28.68-.23-.18.22-.75-.18-1.2-2.01.81-3.46,2.66-5.61,3.39-1.04.36-2.66.76-2.92,1.86-1.47.77-1.07-12.84-.92-13.95.79-5.78.07-11.47.14-17.23.06-4.31.54-8.4.09-12.83-.17-1.68-.24-22.87.02-26.01,1.44,1.43,1.73,3.46,4.14,4.13,1.31.36,2.97,4.38,5.77,5.31.27-.25.62-.54.83-.65.13-.07.27.36.68.45.03,2.5,2.18,3.18,3.8,4.27l4.3,2.91Z"/>
            <path class="cls-87" d="M75.08,256.67c-1.6,3.17-.56,6.95-.69,10.53l-.23,6.53c1.14.25,3.02.72,4.21.07s1.06-5.9.79-7.15c-.33-1.53.21-3.12.05-4.66.51-.15,1.2-.84,1.73-.22.23.27.67.48,1.04.85-.26,3.15-.19,24.34-.02,26.01.45,4.43-.03,8.52-.09,12.83-.07,5.75.65,11.45-.14,17.23-.15,1.11-.56,14.72.92,13.95-.33,1.39-1.53,2.95-3.48,2.92-.14-1.65.19-3.32-.6-4.61-.34-.56.89-.69.89-1.03l-.04-46.71c-1.52-.83-3.08-.72-4.96-.93l-.35,19.3c-1.72.73.79-7.67-2.61-5.79l.1-41.22c0-.89-.28-1.52-.38-2.07.63.01,1.3-.4,1.95-.1,1.59.71,1.2,3.45,1.91,4.27Z"/>
            <path class="cls-35" d="M71.22,252.5c.1.55.38,1.18.38,2.07l-.1,41.22-.07,33.96c-.1.67-1.29.45-1.45.57-.66-.28-1.51-.14-2.18-.12l-.41-4.03-.05-73.89c.31.23.43-.09.65-.52,1.09.35,2.13.72,3.23.74Z"/>
            <path class="cls-120" d="M66.63,241.31c-.41.97.9,1.3,1.39,1.84,1.59,1.73-.87,3.03-.72,4.59s.04,3.01.04,4.54l.05,73.89.41,4.03c.2,1.96-.11,3.91-.09,5.9l.06,5.74c-1.09,2.27-.45,4.84-.68,7.32-.55.11-.69.95-1.36.38-.28-.24-.87-.38-.95-.88.18-2.09-.55-4.34-.48-6.37.03-.91,1.29-9.03-.55-10.91,1.14-1.03-.09-2.89.48-4.02.7-1.4.46-2.68.47-4.63l.15-73.15c-.71-.32-1.23-.11-1.13-.62.39-.27,1.02-.19,1.05-.52l.1-1.29c.05-.65.8-.88.58-1.45.62-.22.94-.4,1.1-.81.27-.7.13-1.51-.28-1.66-.6-.22-1.4-.42-1.88-.27.24-1.14,1.71-1.03,2.25-1.65Z"/>
            <path class="cls-109" d="M103.6,278.58c0,.68.63,1.04,1.12,1.34.55.34.94-.89,1.59-.77,6.6,1.28,5.26,5.25,10.83,5.83-.17.56-.92.75-.58,1.19.25.32.66.55,1.03.45-.09.95-.36,3.14,1.17,3.31,1.12.13,2.56.39,3.36.23.11.71-.26,2.3.59,2.91s2.25.52,3.1.62c.11.5-.07,1.3-.48,1.56-.34-1.19-1.38-1.14-2.47-.73-1.9.71.12,4.56-.02,4.45.42.33.82.45,1.52.14-.28-.3-.52-.56-.38-.73.36-.43.9-.73,1.24-.38.19.55.06,1.33-.06,1.88-.97,4.24.58,3.29-1.15,5.79-.86-.07-1.14.12-1.73.49-1.25.78-.41,2.56-1.51,3.76-.57.62-2.09.35-2.49,1.26s-.66,1.64-.6,2.98c-.87-.34-1.22,0-1.71.16.13-1.06,1.7-1.87,1.1-3.1-.36-.75-.96-2.19-2.03-2.2l.26-2.84c1.02.06,2.03-.24,2.86-.84.42-.29,1.68.11,1.76-.82.12-1.42.86-13.23-1.65-12.14-.26-.55-.79-1.39-1.31-1.92-.67-.69-1.75.15-2.57-.3-.39-.22-.04-1.06-.1-1.29-.29-1.1-1.36-3.12-2.75-3.4-.29,1.44-.91,1.33-.77.05.51-.64-.19-1.22-.23-1.47-.05-.35-1.03-.52-1.3.01-.82,1.58-.31,3.53-.33,5.44l-.23,19.38c-.02,1.35-.07,3.34,1.38,3.53-.04-.12-1.37,3.5-1.78,3.65-.53.19-1.91.83-2.02-.02-.17-1.22,1.12-1.68,1.62-2.3-.74.11-1.14.46-1.62-.05l.16-5.84-.04-24.57c0-1.23-2.83-.41-3.63-.76-1.4-.62-1.36-2.5-1.25-3.51.27-.96,1.46-.05,2.09-.46Z"/>
            <path class="cls-140" d="M71.25,239.02c-.97-.53-1.1.48-1.78.62-1.27.25-2.04.76-2.84,1.68-.54.62-2.01.51-2.25,1.65-.17.79-1.55,1.41-.82,2.33-1.95.23-3.87.4-6.29.43-.48-2.48-.36-5.14.09-7.64,4.74-.48,10.78-1.81,13.89.94Z"/>
            <path class="cls-76" d="M142.27,309.65l.13,15.62c-1.36.59-2.78.43-4.06.51.39-5.07.07-10.21.05-15.63,1.26-.71,2.66-.29,3.88-.5Z"/>
            <path class="cls-5" d="M136.58,294.11c-3.55-.65-7.19.02-10.76-.41-.85-.1-2.28-.04-3.1-.62s-.48-2.2-.59-2.91c2.01-.4,14.81-1.63,14.86,1.33.01.87.08,1.83-.4,2.61Z"/>
            <path class="cls-102" d="M136.58,294.11c-.05.48.26,1.21-.02,1.61-.41.58-1.75.56-2.18.87-.65.94.08,2.2-.16,3.19-3.02-.32-6.04.01-9.05.12.13-.55.25-1.33.06-1.88-.29-.86.35-1.81.11-2.76.41-.26.59-1.06.48-1.56,3.58.43,7.21-.24,10.76.41Z"/>
            <path class="cls-7" d="M138.18,330.36c-.31,2.16.63,4.18.6,6.3-.03,1.47-1.13,3.18-.41,5.27-1.67.48-3.09.52-4.58.53-.51-3.88-.29-8.03.34-12.07,1.74.16,2.98.69,4.05-.03Z"/>
            <path class="cls-132" d="M79.21,261.99c.16,1.55-.38,3.13-.05,4.66-1.65.13-3.29-.32-4.77.55.13-3.58-.92-7.36.69-10.53.97.54,2.47.39,3.47,1.35,1.21,1.16.55,2.86.67,3.97Z"/>
            <path class="cls-37" d="M69.47,239.64c-.32,1.19,2.06,1.85,1.94,2.71l-.84,5.87c-1.41.32-2.24-.38-3.26-.47-.16-1.56,2.31-2.86.72-4.59-.49-.54-1.8-.87-1.39-1.84.8-.92,1.57-1.43,2.84-1.68Z"/>
            <g>
              <path class="cls-121" d="M75.85,237.94l3.24,1.78c-.21,2.19,1.28,3.69,3.58,3.68.75,0,1.41.17,1.67.58.78,1.21-.62,1.85.65,3.27.62.69,2.9-.43,3.94.76.12.13.39,3.63,1.06,5.03,2.03.36,4.47.62,6.46.7l2.83.11c.74.03,1.25-.12,1.89.12.46.17.28.69.56,1.18l.64,6.56,4.16.3.43,5.98c1-.55,8.34,2.2,7.8,1.75.74.61.56,1.51.58,2.7.04,3.05,5.01,2.08,5.51,2.77.67.92-.38,4.42,1.34,4.43l5.34.05c1.44-4.19,9.93-1.11,12.41.38,0,1.86.48,3.71.84,4.99.46,1.69,1.25,3.44,1.56,5.15-.52,3.07-.29,6.29-.19,9.75,1.83.25,3.29-.02,4.81.83l-.05,27.19-3.8,1.74-.86,11.44c-.59-.15-.88-.6-1.09-.97-.39-.71.5-1.89.52-2.54.04-1.54-1.92-1.03-2.91-.99.04-2.12-.9-4.14-.6-6.3.21-1.51.03-3.07.15-4.58,1.29-.08,2.7.08,4.06-.51l-.13-15.62c-.02-2.76.21-5.57-.15-9.01-2.65-1.13-5.36-.59-7.91-.86.24-.99-.49-2.26.16-3.19.43-.31,1.77-.29,2.18-.87.28-.4-.03-1.13.02-1.61.48-.78.42-1.73.4-2.61-.04-2.96-12.85-1.73-14.86-1.33-.8.16-2.24-.1-3.36-.23-1.53-.17-1.26-2.36-1.17-3.31l19.34.1c-.1-2.11-.07-3.78-.39-5.79-2.73-.36-5.21-.13-7.87.16-11.17,1.2-6.27-2.18-13.32-.96.12-1.81.01-2.55-.47-3.56-.29-.62-1.95-.48-2.22-1.25-.48-1.39-.02-2.54-.94-3.18s-1.98-.38-3.24-.45l-5.62-.34c-.43-.03-.96,1.41-1.54.79-.37-.39-.27-1.01-.53-1.26.55.52-4.1-.63-3.45.76.43.92.34,1.9.73,2.49.76,1.16,3.64,1.22,3.75.17-1.49-.65.41-1.17,1.03-1.47s1.53.84,1.74,1.41c.73,1.97-2.31,1.65-.98,4.35-.63.41-1.82-.5-2.09.46l-4.3-2.91c-1.62-1.09-3.78-1.77-3.8-4.27-.41-.1-.54-.52-.68-.45-.22.11-.56.4-.83.65-2.8-.92-4.46-4.94-5.77-5.31-2.41-.67-2.7-2.7-4.14-4.13-.37-.37-.82-.58-1.04-.85-.52-.62-1.22.07-1.73.22-.12-1.11.54-2.81-.67-3.97-1-.95-2.5-.8-3.47-1.35-.71-.82-.32-3.56-1.91-4.27-.65-.29-1.32.12-1.95.1-1.1-.03-2.14-.4-3.23-.74-.22.44-.33.75-.65.52,0-1.52.12-3-.04-4.54,1.02.09,1.85.79,3.26.47l.84-5.87c.12-.86-2.26-1.52-1.94-2.71.68-.13.81-1.15,1.78-.62.55.31,1.08.54,2.22.65.43-1.28,1.4-1.7,2.38-1.73Z"/>
              <path class="cls-70" d="M82.64,256.83c.32-.99-.24-1.72-1.3-1.93-.49-.1-1.05-.27-1.68.08l-6-4.29c2.49-2.07.63-4.58,2.08-6.13-.31.33,4.18-.87,4.81,1,.32.94.52,1.87-.69,2.52,2.53.58,4.47-.78,6.01.42,1.11.87.15,3.17.9,4.26,1.51,2.18,3.28,1.28,3.89,2.62.35.76.87,1.71-.44,2.21,1.17,1.8,3.13,1.13,4.96,1.74-.63-.21,7.44,3.46,6.14,3.44.51,0,1.42-.7,1.92-.4,1.87,1.12,1.99,3.52,1.1,5.17-.84-.18-1.71-.16-2.36-1.13-1.09-.13-3.94-.18-4.51.79l-.86,1.47c-.15.26-.64.01-.82-.42-.35-.82,1.36-3.3-1.39-4.32-2.9-1.08-2.46,3.11-4.91,2.32-.91-.29-1.05-1.02-1.31-1.85-.4-1.24-4.81-1.46-4.43-3.26.03-.12,1.14-2.65.04-4-.27-.33-.72-.16-1.16-.31Z"/>
              <path class="cls-123" d="M95.5,254.54c.66.06.38,1.79.1,2.24-.36.56-1.2.43-1.78.24-.69-.23-1.46-.94-.95-1.84.32-.56,1.54-.73,2.63-.63Z"/>
              <path class="cls-17" d="M82.64,256.83c-.78.35-1.62.5-2.43.03-.69-.4-.76-1.2-.54-1.88.62-.36,1.19-.18,1.68-.08,1.05.21,1.62.94,1.3,1.93Z"/>
              <path class="cls-110" d="M73.63,243.14c.28-.22.53.31.68.41.5.32.12.66-.14.94-.47.51-.63.14-.98-.16-.47-.39-.27-.65.44-1.19Z"/>
            </g>
            <path class="cls-104" d="M119.5,369.54c-.16,1,.67,1.7.44,2.32-1.39,3.84-1.52-.33-5.53,2.89-.21,3.63-4.08-.12-6.2,4.46-.25.53-.85,1.47-1.54,1.62-.38.08-.5.1-1.53-.11-.2.84-.65,1.81-1.1,2.05s-1.53-.03-2.03-.14c-1.28-.28-2.39.34-3.8.33l-16.7-.13-13.07-.2c.08,1.15-.74,1.26-1.03.1-1.37-.31-2.7.42-4.25-.19-.43-2.34-.2-4.39.18-6.28.43.4,1.18.57,2.1.56l36.77-.22c1.72-.01,3.65.86,5.8.03,1.2-.47.33-1.74.46-2.79.28-2.16,5.63.48,5.92-1.16l.4-2.28c.26-1.49,3.29-.9,4.7-.88Z"/>
            <path class="cls-80" d="M121.57,365.3c-2.32,1.52.21,4.64-2.07,4.24-1.41-.02-4.44-.61-4.7.88l-.4,2.28c-.29,1.64-5.64-1-5.92,1.16-.13,1.05.74,2.32-.46,2.79-2.14.83-4.07-.04-5.8-.03.87-1.95.07-4.22.7-6.52,2.53-.78,5.19-.18,7.48-1.26.87-.41.41-2.39.66-3.42,2.25-.72,5.88.4,6.77-1.22l.96-1.75c.76.04.78,1.2,1.22,1.6.55.5,1.56.43,1.56,1.27Z"/>
            <path class="cls-51" d="M133.76,346.35c.02,3.01.06,6.21-.24,9.3-1.74,1.33-3.43,1.33-4.9,2.12-.06-1.4-1.21-2.58-.78-3.97.65-2.09.37-4.35.7-6.87l5.22-.58Z"/>
            <path class="cls-56" d="M121.57,365.3c0-.84-1.01-.77-1.56-1.27-.44-.4-.46-1.56-1.22-1.6-.31-.91-.38-2.78,1.1-2.81,1.07-.02,1.95-.21,2.46-.67,1.27.19,5.76.81,6.03-.31-.01,1.74.72,4.22-.76,5.78-1.64.62-4.22.62-6.04.88Z"/>
            <path class="cls-78" d="M127.85,353.79c-.43,1.39.72,2.56.78,3.97.02.4.25.61-.25.88-.27,1.12-4.76.49-6.03.31.26-1.2-.67-3.65.57-4.55,1.39-1.01,3.56-.1,4.93-.61Z"/>
            <path class="cls-2" d="M115.97,314.35c-.07.6-1.06.94-1.32,1.42.12,1.74-.69,3.23-2.76,3.7-1.7.38-.75,2.85-1.41,3.55-.79.83-4.12.39-4.09,1.65.05,3.06-3.31,2.64-4.77,3.92-1.12.99-.5,4.1-3.72,3.72-.33-.04-.89.79-.87,1.09s.61.94.47,1.47c-.46,1.77-2.8,1.03-3.88,2.15-.38.39-1.45.15-1.61,1.01-.14.74-.05,1.14.42,2.11-5.45.51-3.38,4.59-5.42,5.84-1.37.84-3.06.56-3.52,2.19l-2.83,2.61c-.8-.86-2.16-.11-2.55-.99.53-.15.65-.18,1-.18.6,0,1.84-.64,1.16-1.69-.24-.37-1.09-.43-1.26-.91-.13-.39.16-.73.05-1.3-.26-1.24-.34-2.68.12-3.87.54,0,.76.37.53,1.3.78.69,1.47.4.66-.92,1.15-.27,2.15.11,2.56-.49l1.29-1.88c.56-.82,2.3-.41,2.59-1.17.32-.82.69-1.77.72-2.61.82.34,2.76-.05,3.34-1.15,1.23-2.31,9.17-8.61,9.69-9.32,1.37-1.88,2.25-3.05,4.36-4.2,5.86-3.21,4.11-6.3,5.15-6.95,1.21-.75,2.3-.31,3.01-1.7.34-.66-.25-.97-.5-2.05.57-.84,2.15-.57,2.47-1.68,1.06.01,1.67,1.45,2.03,2.2.59,1.24-.97,2.04-1.1,3.1Z"/>
            <path class="cls-14" d="M57.45,314.77c0,4.33-.51,6.1,2.94,6.98,1.5.38,1.54,2.49,1.42,3.95.72.99,1.71,1.13,2.42,1.65-.57,1.13.66,2.99-.48,4.02-.4.1-.88-.19-1.21-.33-.67-.28.55-1.74-.55-.95-.13,1.08-1.32-3.39-3.33-3.3-1.42.07-1.55,1.51-1.45,2.89.16,2.13-.73,4.61.82,6.37,3.55,4.02,1.28,4.57,3.2,5.66,1.02.58,2.07.29,3.08.57-.07,2.03.66,4.28.48,6.37-.42.22-1.22.4-1.46.89-.19.39.78,1.12-.06,1.44-.07,1.24-.99,1.26-.47.16-.15-1.32-.03-2.15.94-3.28,1.13-1.3-.04-4.32-1.72-4.82-7.41-2.18-2.71-4.65-8.81-8.59-.57-2.52.77-5,.7-7.58-.27-9.77-.37-19.21-.27-28.98l.34-31.95c.3-.23.62.14.62.63l-.3,31.84c-.03,2.86-.83,5.72,0,8.51s-1.14,10.71,1.43,13.34c.26.27.64-.17.8-1,.07-.34-.39-.93-.31-1.28.06-.23.3-.35.67-.89-.06-1.03-.46-2.31.55-2.34Z"/>
            <path class="cls-55" d="M74.1,301.58c.72,9.74-.62,19.59.59,29.21.33,2.61-.48,5.44-.66,8.04-.08,1.2-.52,8.92,0,10.91-1-.02-1.88.05-2.88-.04-.2-2.48,1.08-5.31-.45-7.43.58-.4.23-1.2.47-1.68.41-.1.54.38.98.61.28-2.71-.14-10-2.18-10.88.16-.12,1.35.09,1.45-.57l.07-33.96c3.39-1.88.88,6.51,2.61,5.79Z"/>
            <path class="cls-30" d="M93.61,337.03c-.08.57.61.61.8.94-.42-.71-.42,6.76-2.31,8.22,1.08.06,1.57-.47,2.05.05-1.07,1.93-.47,2.96-1.26,3.71-1.12,1.06-3.36,0-5,1.45-.47.42-.05,1.63-.54,2.42-.77,1.24-2.39.36-3.39.49-1.74-4.51.17-1.93-.47-6.12.45-1.63,2.15-1.35,3.52-2.19,2.04-1.25-.03-5.34,5.42-5.84-.47-.97-.56-1.38-.42-2.11.16-.86,1.23-.62,1.61-1.01Z"/>
            <path class="cls-126" d="M79.81,338.24c.23.3-.9,1-.35,1.09.5.09,1.4.54.33.58-1.19.06-.37,1.34-.6,1.95-.64,0-.51-.54-.71-1.26-.72.57-2.72.53-2.39,1.95-.28-.27-.79.21-1.04.44-.56.52.06.72.7,1.29-.1.37-.81.61-.82.97,0,.48,0,1.33.77,1.39,1.52.11,2.59,0,3.37-.92.12.57-.18.92-.05,1.3.17.49,1.02.54,1.26.91.68,1.04-.56,1.69-1.16,1.69-.35,0-.47.03-1,.18l-4.08-.08c-.53-1.99-.09-9.72,0-10.91-2.06,2.32,7.47-1.54,5.77-.58Z"/>
            <path class="cls-96" d="M70.71,342.27c1.52,2.12.25,4.94.45,7.43-1.34-.12-3.02.64-4.06-.54.23-2.48-.42-5.05.68-7.32.56,1.09,1.99.03,2.94.43Z"/>
            <path class="cls-73" d="M50.95,241.3c.35,2.43,1.28,7.31-.48,10.4-1.8,1.46-.66-12.2.48-10.4Z"/>
            <path class="cls-35" d="M63.72,248.96c-.1.51.42.3,1.13.62l-.15,73.15c0,1.95.23,3.24-.47,4.63-.71-.52-1.71-.66-2.42-1.65.13-1.46.08-3.57-1.42-3.95-3.45-.88-2.95-2.65-2.94-6.98l.09-65.88c2.18-.53,4.17.31,6.18.07Z"/>
            <path class="cls-42" d="M65.44,245.7c-.59-.08-1.3-.48-1.89-.41-.73-.92.65-1.54.82-2.33.49-.15,1.29.05,1.88.27.41.15.55.96.28,1.66-.16.41-.48.6-1.1.81Z"/>
            <path class="cls-46" d="M94.16,346.23c-.49-.52-.97,0-2.05-.05,1.88-1.45,1.88-8.93,2.31-8.22-.2-.33-.88-.37-.8-.94,1.09-1.12,3.43-.38,3.88-2.15.14-.54-.45-1.17-.47-1.47s.55-1.13.87-1.09c3.22.38,2.6-2.73,3.72-3.72,1.45-1.29,4.82-.86,4.77-3.92-.02-1.25,3.3-.81,4.09-1.65.67-.7-.29-3.17,1.41-3.55,2.07-.47,2.88-1.96,2.76-3.7.26-.48,1.24-.81,1.32-1.42.49-.16.84-.5,1.71-.16-.07-1.33.21-2.08.6-2.98s1.92-.64,2.49-1.26c1.11-1.2.26-2.98,1.51-3.76-.1,1.16-.25,2.66.3,3.78.5.77,2.04.19,2.76.5,1.23.53.66,2.13.51,2.93-.56,2.84-5.81.25-4.81,3.62.57,1.92-1.31,2.01-2.02,3.13l-2.84,4.51c-.98,1.56-3.24,2.01-4.15,4.1-2.38,5.47-6.11,1.4-5.85,5.47.21,3.39-4.67.99-4.19,4.61.35,2.67-2.03,2.32-3.79,3.37-.7.42-.11,1.67-.64,2.43-.75,1.07-2.45,1.12-3.4,1.6Z"/>
            <path class="cls-106" d="M134.22,299.78c-.4,1.62.04,3.28-.33,5.53-3.31.61-6.68.62-9.88.38,1.73-2.51.18-1.55,1.15-5.79,3.01-.11,6.03-.44,9.05-.12Z"/>
            <path class="cls-45" d="M112.58,310.73c.25,1.07.84,1.39.5,2.05-.71,1.39-1.8.95-3.01,1.7-1.04.65.71,3.74-5.15,6.95-2.1,1.15-2.99,2.32-4.36,4.2-.51.71-8.46,7.01-9.69,9.32-.58,1.1-2.53,1.5-3.34,1.15.04-.87-.78-1.92-1.45-2.37,1.18-3.08,5.97-2.54,5.28-5.15.49.36.36-.56,1.28-.68.29-.11.53,1.71,1.2,1.73-.26,0,1.94-1.84,1.99-1.93.12-.25-.93-.44-.61-.85,2.79-3.62,1.09-2.85,4.56-3.3.19-.78.41-.78.72-.37.58.75.4-.75.61-1.04,1.36-1.81,3.58-2.15,5.39-3.7l-.82-2.04c-.41-1.02.55-1.74.58-2.67.48.52.88.16,1.62.05-.49.61-1.79,1.07-1.62,2.3.12.84,1.49.2,2.02.02.41-.14,1.74-3.77,1.78-3.65-.1-.29.28-.65.4-.53.32.32.67.95,1.36.35.2-.18-.5-.47-.51-.7-.02-.28.19-.69.43-.87.28-.21.59-.09.83.03Z"/>
            <path class="cls-11" d="M91.37,328.58c.69,2.61-4.1,2.07-5.28,5.15-.79.59-2.16.63-3.39.72.08,1.84-1.42,2.96-2.9,3.79,1.7-.96-7.84,2.91-5.77.58.18-2.59.99-5.43.66-8.04,1.2-.44,2.71-.34,3.89.16.79,1.3.46,2.97.6,4.61,1.95.03,3.14-1.53,3.48-2.92.26-1.11,1.88-1.51,2.92-1.86,2.15-.74,3.6-2.58,5.61-3.39.4.45-.05,1.02.18,1.2Z"/>
            <path class="cls-9" d="M105.69,316.39l.82,2.04c-1.82,1.55-4.03,1.89-5.39,3.7-.22.29-.03,1.79-.61,1.04-.31-.4-.53-.4-.72.37-3.47.46-1.77-.32-4.56,3.3-.48-.07-1.05.11-1.62.58-.59.5-1.52.38-1.88-.17-.68-1.05,3.5-3.62,2.77-3.44,1.51-.37,2.58-1.06,3.74-2.04.43-.36,1.46.43,1.59-.41.1-.67-.81-1.1-.04-1.39-.18.07,5.07-4.22,5.92-3.58Z"/>
            <path class="cls-15" d="M78.58,330.94c-1.18-.49-2.69-.6-3.89-.16-1.21-9.62.13-19.47-.59-29.21l.35-19.3c1.88.21,3.44.1,4.96.93l.04,46.71c0,.34-1.23.47-.89,1.03Z"/>
            <path class="cls-50" d="M79.16,266.65c.27,1.25.4,6.49-.79,7.15s-3.07.19-4.21-.07l.23-6.53c1.48-.87,3.12-.42,4.77-.55Z"/>
            <path class="cls-98" d="M69.99,330.32c2.04.88,2.46,8.17,2.18,10.88-.45-.23-.57-.71-.98-.61.47-.93.89-2.97-.24-3.51-1.46-.69-2.16-1.28-3.23-.99-.02-1.99.29-3.95.09-5.9.67-.01,1.53-.16,2.18.12Z"/>
            <path class="cls-44" d="M63.76,331.38c1.84,1.88.58,10,.55,10.91-1.02-.28-2.06,0-3.08-.57-1.92-1.09.35-1.64-3.2-5.66-1.55-1.76-.66-4.24-.82-6.37-.1-1.38.03-2.83,1.45-2.89,2.01-.09,3.2,4.38,3.33,3.3,1.11-.79-.11.67.55.95.33.14.81.43,1.21.33Z"/>
            <path class="cls-122" d="M71.18,340.59c-.24.48.11,1.28-.47,1.68-.95-.4-2.38.66-2.94-.43l-.06-5.74c1.07-.3,1.77.3,3.23.99,1.12.53.7,2.58.24,3.51Z"/>
            <path class="cls-22" d="M114.31,288.89c-.95-.21-.52.91-.73,1.45,1.53-3.95.58,18.18,1.73,15.86l-.26,2.84c-.31,1.11-1.9.84-2.47,1.68-.24-.13-.55-.24-.83-.03-.24.18-.45.58-.43.87.02.23.72.52.51.7-.69.6-1.04-.03-1.36-.35-.12-.12-.5.25-.4.53-1.45-.19-1.39-2.18-1.38-3.53l.23-19.38c.02-1.91-.49-3.86.33-5.44.28-.53,1.26-.37,1.3-.01.03.26.73.83.23,1.47-.14,1.28.47,1.38.77-.05,1.39.28,2.47,2.3,2.75,3.4Z"/>
            <path class="cls-33" d="M118.28,292.41c-.75.48-1.9,12.99-.11,12.96-.84.59-1.84.89-2.86.84-1.15,2.32-.2-19.8-1.73-15.86.21-.55-.22-1.67.73-1.45.06.24-.29,1.08.1,1.29.81.45,1.9-.39,2.57.3.52.53,1.04,1.37,1.31,1.92Z"/>
            <path class="cls-38" d="M118.17,305.37c-1.79.03-.64-12.48.11-12.96,2.51-1.09,1.77,10.72,1.65,12.14-.08.93-1.35.53-1.76.82Z"/>
            <path class="cls-6" d="M125.34,295.26c.24.95-.4,1.89-.11,2.76-.34-.35-.88-.06-1.24.38-.14.17.1.42.38.73-.69.31-1.09.19-1.52-.14.14.11-1.88-3.74.02-4.45,1.09-.41,2.13-.46,2.47.73Z"/>
            <g>
              <path class="cls-19" d="M117.59,286.63c-.36.1-.78-.13-1.03-.45-.34-.45.41-.63.58-1.19-5.57-.58-4.23-4.56-10.83-5.83-.65-.13-1.03,1.11-1.59.77-.5-.31-1.13-.67-1.12-1.34-1.33-2.69,1.71-2.37.98-4.35-.21-.57-1.12-1.71-1.74-1.41s-2.51.82-1.03,1.47c-.12,1.05-2.99,1-3.75-.17-.39-.59-.3-1.57-.73-2.49-.65-1.39,4-.24,3.45-.76.27.25.17.87.53,1.26.58.62,1.11-.81,1.54-.79l5.62.34c1.26.08,2.29-.21,3.24.45s.46,1.79.94,3.18c.26.77,1.92.64,2.22,1.25.48,1.01.58,1.75.47,3.56,7.06-1.21,2.15,2.16,13.32.96,2.67-.29,5.14-.51,7.87-.16.32,2,.28,3.68.39,5.79l-19.34-.1Z"/>
              <path class="cls-95" d="M109.63,276.86c-1.02-.07-.12-2.32.29-2.79.74.98,1.6,2.93-.29,2.79Z"/>
            </g>
            <path class="cls-138" d="M87.54,336.1c-.03.84-.41,1.79-.72,2.61-.29.75-2.02.35-2.59,1.17l-1.29,1.88c-.41.6-1.41.22-2.56.49.81,1.32.13,1.61-.66.92.23-.93,0-1.3-.53-1.3.23-.61-.59-1.89.6-1.95,1.07-.04.17-.5-.33-.58-.55-.1.58-.79.35-1.09,1.48-.83,2.98-1.95,2.9-3.79,1.22-.09,2.6-.13,3.39-.72.66.45,1.48,1.5,1.45,2.37Z"/>
            <path class="cls-31" d="M79.18,341.86c-.46,1.19-.37,2.63-.12,3.87-.79.91-1.85,1.03-3.37.92-.77-.06-.78-.91-.77-1.39,0-.36.72-.59.82-.97-.64-.57-1.25-.78-.7-1.29.25-.24.77-.71,1.04-.44-.33-1.43,1.67-1.38,2.39-1.95.2.72.07,1.26.71,1.26Z"/>
          </g>
        </g>
      </g>
    </g>
  </g>
</svg>