<?xml version="1.0" encoding="UTF-8"?>
<svg id="_レイヤー_2" data-name="レイヤー 2" xmlns="http://www.w3.org/2000/svg" viewBox="0 0 250.76 470.02">
  <defs>
    <style>
      .cls-1 {
        fill: #b9c1cf;
      }

      .cls-2 {
        fill: #a7adc1;
      }

      .cls-3 {
        fill: #fefeff;
      }

      .cls-4 {
        fill: #974d68;
      }

      .cls-5 {
        fill: #8a5e6b;
      }

      .cls-6 {
        fill: #787c9b;
      }

      .cls-7 {
        fill: #9e6c7c;
      }

      .cls-8 {
        fill: #f4d0b7;
      }

      .cls-9 {
        fill: #737695;
      }

      .cls-10 {
        fill: #be818d;
      }

      .cls-11 {
        fill: #786175;
      }

      .cls-12 {
        fill: #9598ab;
      }

      .cls-13 {
        fill: #715e6e;
      }

      .cls-14 {
        fill: #cfd6e0;
      }

      .cls-15 {
        fill: #5f446b;
      }

      .cls-16 {
        fill: #b67f88;
      }

      .cls-17 {
        fill: #8b6068;
      }

      .cls-18 {
        fill: #c05d6a;
      }

      .cls-19 {
        fill: #707191;
      }

      .cls-20 {
        fill: #fdfefe;
      }

      .cls-21 {
        fill: #c5ced9;
      }

      .cls-22 {
        fill: #6b4c74;
      }

      .cls-23 {
        fill: #a4acbe;
      }

      .cls-24 {
        fill: #e4e9ed;
      }

      .cls-25 {
        fill: #7d4e70;
      }

      .cls-26 {
        fill: #b0b8c7;
      }

      .cls-27 {
        fill: #e0e7ed;
      }

      .cls-28 {
        fill: #cd676c;
      }

      .cls-29 {
        fill: #b07889;
      }

      .cls-30 {
        fill: #a95265;
      }

      .cls-31 {
        fill: #8289a1;
      }

      .cls-32 {
        fill: #6a6d8c;
      }

      .cls-33 {
        fill: #9599b0;
      }

      .cls-34 {
        fill: #5a5a7c;
      }

      .cls-35 {
        fill: #f0c4ab;
      }

      .cls-36 {
        fill: #edf1f6;
      }

      .cls-37 {
        fill: #a07186;
      }

      .cls-38 {
        fill: #574665;
      }

      .cls-39 {
        fill: #50476a;
      }

      .cls-40 {
        fill: #4e486d;
      }

      .cls-41 {
        fill: #a8b0c2;
      }

      .cls-42 {
        fill: #93506d;
      }

      .cls-43 {
        fill: #d6dce5;
      }

      .cls-44 {
        fill: #b7bdcb;
      }

      .cls-45 {
        fill: #3e3a5b;
      }

      .cls-46 {
        fill: #9ca1b7;
      }

      .cls-47 {
        fill: #707190;
      }

      .cls-48 {
        fill: #c18792;
      }

      .cls-49 {
        fill: #a9afc0;
      }

      .cls-50 {
        fill: #f8fbfc;
      }

      .cls-51 {
        fill: #964e6a;
      }

      .cls-52 {
        fill: #7b7f9d;
      }

      .cls-53 {
        fill: #adb5c9;
      }

      .cls-54 {
        fill: #dce0e9;
      }

      .cls-55 {
        fill: #ae5268;
      }

      .cls-56 {
        fill: #50486c;
      }

      .cls-57 {
        fill: #e8edf0;
      }

      .cls-58 {
        fill: #b3bacd;
      }

      .cls-59 {
        fill: #8b91ab;
      }

      .cls-60 {
        fill: #b25467;
      }

      .cls-61 {
        fill: #c7cfdb;
      }

      .cls-62 {
        fill: #737792;
      }

      .cls-63 {
        fill: #7c555a;
      }

      .cls-64 {
        fill: #f8d4b8;
      }

      .cls-65 {
        fill: #878ba6;
      }

      .cls-66 {
        fill: #77525b;
      }

      .cls-67 {
        fill: #5a597b;
      }

      .cls-68 {
        fill: #c0a791;
      }

      .cls-69 {
        fill: #bec6d2;
      }

      .cls-70 {
        fill: #f1d597;
      }

      .cls-71 {
        fill: #b0b9c9;
      }

      .cls-72 {
        fill: #fafdfd;
      }

      .cls-73 {
        fill: #6e486a;
      }

      .cls-74 {
        fill: #fbfdfe;
      }

      .cls-75 {
        fill: #c3cbd6;
      }

      .cls-76 {
        fill: #dce3eb;
      }

      .cls-77 {
        fill: #dba299;
      }

      .cls-78 {
        fill: #704b6e;
      }

      .cls-79 {
        fill: #b26e85;
      }

      .cls-80 {
        fill: #7c7f9a;
      }

      .cls-81 {
        fill: #9aa3b8;
      }

      .cls-82 {
        fill: #a6576c;
      }

      .cls-83 {
        fill: #afb0c3;
      }

      .cls-84 {
        fill: #696b8b;
      }

      .cls-85 {
        fill: #b7becc;
      }

      .cls-86 {
        fill: #f4d1ba;
      }

      .cls-87 {
        fill: #cad2db;
      }

      .cls-88 {
        fill: #5b4d6f;
      }

      .cls-89 {
        fill: #666889;
      }

      .cls-90 {
        fill: #999db6;
      }

      .cls-91 {
        fill: #c0cad7;
      }

      .cls-92 {
        fill: #6a678b;
      }

      .cls-93 {
        fill: #4c496c;
      }

      .cls-94 {
        fill: #e3e9ef;
      }

      .cls-95 {
        fill: #b7bfce;
      }

      .cls-96 {
        fill: #c38d8e;
      }

      .cls-97 {
        fill: #b3bbcb;
      }

      .cls-98 {
        fill: #f8d7bb;
      }

      .cls-99 {
        fill: #bdc5d2;
      }

      .cls-100 {
        fill: #8a90a9;
      }

      .cls-101 {
        fill: #f4ccb2;
      }

      .cls-102 {
        fill: #e1b685;
      }

      .cls-103 {
        fill: #555074;
      }

      .cls-104 {
        fill: #c18890;
      }

      .cls-105 {
        fill: #9da3b9;
      }

      .cls-106 {
        fill: #99a1b7;
      }

      .cls-107 {
        fill: #6d6f8f;
      }

      .cls-108 {
        fill: #a2a8ba;
      }

      .cls-109 {
        fill: #a5acc0;
      }

      .cls-110 {
        fill: #797c99;
      }

      .cls-111 {
        fill: #c4ccd7;
      }

      .cls-112 {
        fill: #fcfefe;
      }

      .cls-113 {
        fill: #765f7c;
      }

      .cls-114 {
        fill: #b95867;
      }

      .cls-115 {
        fill: #6a6c8c;
      }

      .cls-116 {
        fill: #8a8fa9;
      }

      .cls-117 {
        fill: #afb5c5;
      }

      .cls-118 {
        fill: #adb1c2;
      }

      .cls-119 {
        fill: #aaadbb;
      }

      .cls-120 {
        fill: #c4cbd6;
      }

      .cls-121 {
        fill: #8f94ab;
      }

      .cls-122 {
        fill: #a2aabf;
      }

      .cls-123 {
        fill: #7c7f9b;
      }

      .cls-124 {
        fill: #d2dae4;
      }

      .cls-125 {
        fill: #936560;
      }

      .cls-126 {
        fill: #cc6b6f;
      }

      .cls-127 {
        fill: #585176;
      }

      .cls-128 {
        fill: #f2f6f6;
      }

      .cls-129 {
        fill: #9b9fb1;
      }

      .cls-130 {
        fill: #615f83;
      }

      .cls-131 {
        fill: #a2a9be;
      }

      .cls-132 {
        fill: #9094a9;
      }

      .cls-133 {
        fill: #cdd3df;
      }

      .cls-134 {
        fill: #fbfcfd;
      }

      .cls-135 {
        fill: #737593;
      }

      .cls-136 {
        fill: #675371;
      }

      .cls-137 {
        fill: #c8616a;
      }

      .cls-138 {
        fill: #cdd3de;
      }

      .cls-139 {
        fill: #6f6080;
      }

      .cls-140 {
        fill: #737694;
      }

      .cls-141 {
        fill: #aab2c4;
      }

      .cls-142 {
        fill: #3b395c;
      }

      .cls-143 {
        fill: #c96469;
      }

      .cls-144 {
        fill: #989fb9;
      }

      .cls-145 {
        fill: #8e4b67;
      }

      .cls-146 {
        fill: #747795;
      }

      .cls-147 {
        fill: #b55768;
      }

      .cls-148 {
        fill: #b4c1ce;
      }

      .cls-149 {
        fill: #bfc7d4;
      }

      .cls-150 {
        fill: #836b87;
      }

      .cls-151 {
        fill: #c88f93;
      }

      .cls-152 {
        fill: #a0a6bb;
      }

      .cls-153 {
        fill: #e3e7ed;
      }

      .cls-154 {
        fill: #f9fcfc;
      }

      .cls-155 {
        fill: #d2d9e4;
      }

      .cls-156 {
        fill: #be828d;
      }

      .cls-157 {
        fill: #af5466;
      }

      .cls-158 {
        fill: #606080;
      }

      .cls-159 {
        fill: #eaeff3;
      }

      .cls-160 {
        fill: #616284;
      }

      .cls-161 {
        fill: #b4b7c7;
      }

      .cls-162 {
        fill: #b5bdcc;
      }

      .cls-163 {
        fill: #c9646c;
      }

      .cls-164 {
        fill: #b37788;
      }

      .cls-165 {
        fill: #d59d9b;
      }

      .cls-166 {
        fill: #9da0ac;
      }

      .cls-167 {
        fill: #59577a;
      }

      .cls-168 {
        fill: #9ca3b9;
      }

      .cls-169 {
        fill: #dbe3ea;
      }

      .cls-170 {
        fill: #59587c;
      }

      .cls-171 {
        fill: #d26970;
      }

      .cls-172 {
        fill: #a4a8be;
      }

      .cls-173 {
        fill: #6e4e5e;
      }

      .cls-174 {
        fill: #f5ccb4;
      }

      .cls-175 {
        fill: #9298b0;
      }

      .cls-176 {
        fill: #a2a6b5;
      }

      .cls-177 {
        fill: #999fb5;
      }

      .cls-178 {
        fill: #8589a3;
      }

      .cls-179 {
        fill: #cbd2dc;
      }

      .cls-180 {
        fill: #8a8da5;
      }

      .cls-181 {
        fill: #54486d;
      }

      .cls-182 {
        fill: #df807b;
      }

      .cls-183 {
        fill: #b5b7c0;
      }

      .cls-184 {
        fill: #feffff;
      }

      .cls-185 {
        fill: #cd656e;
      }

      .cls-186 {
        fill: #d9dfe7;
      }

      .cls-187 {
        fill: #767996;
      }

      .cls-188 {
        fill: #8a4966;
      }

      .cls-189 {
        fill: #59647f;
      }

      .cls-190 {
        fill: #747794;
      }

      .cls-191 {
        fill: #edbea6;
      }

      .cls-192 {
        fill: #6b6d8c;
      }

      .cls-193 {
        fill: #7b7d99;
      }

      .cls-194 {
        fill: #5d5d7e;
      }

      .cls-195 {
        fill: #a2a7b8;
      }

      .cls-196 {
        fill: #8d92ac;
      }

      .cls-197 {
        fill: #9aa0b5;
      }

      .cls-198 {
        fill: #9499b0;
      }

      .cls-199 {
        fill: #d99b96;
      }

      .cls-200 {
        fill: #af7485;
      }

      .cls-201 {
        fill: #e3b886;
      }

      .cls-202 {
        fill: #b45567;
      }

      .cls-203 {
        fill: #8488a3;
      }

      .cls-204 {
        fill: #c7ced9;
      }

      .cls-205 {
        fill: #8b4b68;
      }

      .cls-206 {
        fill: #c1878f;
      }

      .cls-207 {
        fill: #4b496c;
      }

      .cls-208 {
        fill: #606184;
      }

      .cls-209 {
        fill: #c79c77;
      }

      .cls-210 {
        fill: #cad0da;
      }

      .cls-211 {
        fill: #787b98;
      }

      .cls-212 {
        fill: #64476c;
      }
    </style>
  </defs>
  <g id="_レイヤー_1-2" data-name="レイヤー 1">
    <g id="_生成オブジェクト" data-name="生成オブジェクト">
      <path class="cls-83" d="M164.22,456.48l.16,4.41,9.81.25c.15.23.03,1.73.54,1.73l33.02.1c.28-1.44.3-2.53.13-3.58.28.05.3-.16.41-.29.14-.17.19-.53.06-.72,4.23-.34,8.89-.32,13.1.09.27.91.71,1.25,1.69,1.28l27.4.79c.33,1.31.3,2.36-.01,3.57l-16.64.33c-.15.71.17,2.03-.39,2.04l-47.49.38c-.91,0-1.75.06-2.26.45-.32.24-.05,1.52-.42,1.98l-8.87.55-90.38.18c-.44-1.19-.67-1.59-1.66-1.59l-34.24.26-1.31-1.71-29.88-.55-1.05-1.98-15.3-.49c-.8-.03-.83-2.33-.05-2.36l15.6-.41c1.17-.03,2.05-.9,2.98-1,6.96-.76,13.86-.47,20.71-.77.33,1.07-.08,2.18.43,3.52l34.26-.07c1.18-.05,2.26-1.76,3.46-1.78l11.89-.18c.21-1.71.27-3.21.25-4.62,2.03-.99,12.96.99,13.05-1.27h51.43c.32.45.19,1.29.58,1.48,3.21.19,6.12.17,9.02-.02Z"/>
      <g>
        <path class="cls-21" d="M38.45,30.91c-.18.75.21,1.2.22,1.92l.31,24.69c0,.61.26,1.59.38,2.2.09.46.9.59,1.41.82.15.16.03.48.04.67-.88.42-2.13-.23-3.1.29-.69.37-.32,1.58-.38,2.03-.75.77-1.64.47-3.04.6-1.18.11-1.36,3.71-.29,3.65l3.79-.23c-.19.26-.44.88-.44,1.29l-.44,170.59c-.31-.2-.64-.02-.97-.02l-3.48-.06c.6-4.86.29-9.52.29-14.88l.03-147.37.12-8.36-5.07-.11c-2.74-2.56-2.64-.09-3.31-4.96.97.31,2.07,0,3.03.2s1.7.06,2.72-.04c.58-.05,1.54.5,1.71-.24.07-.32,1.09-.28.92-.76l-.44-1.25c-.63-1.76.41-3.85.41-5.96l.03-38.07-.04-14.41c.85.78.4,1.69.64,3,.17.36.93.74.87,1.23-.05.41-.51.71-.5,1.29,0,.53,1.07.53.96,1.15-.09.54-.65.88,0,1.44,1.32,1.14.1,2.94.44,4.35l1.3,5.38c.36,1.51,1.1,2.98.27,4.29.73.25.83.5.94.88.1.35-.54.78-.38,1.23.36,1.02,1.31,2.47,1.06,3.48Z"/>
        <path class="cls-27" d="M32.45,239.36c-1.32-.02-2.65-.1-3.96.06-.34-.71-.23-1.63-.24-2.45l-.03-2.01c-.06-3.29.29-6.51.06-9.9-.06-.84-.02-1.55-.02-2.5l.08-23.78.05-11.26c.01-3.08-.25-6.02-.08-8.94.19-3.27.08-6.26-.05-9.48-.25-6.47,0-12.8,0-19.29v-7.49s-.05-64.26-.05-64.26l-.14-7.04c-.02-.81-.79-1.65-.25-2.37l5.07.11-.12,8.36-.03,147.37c0,5.37.31,10.02-.29,14.88Z"/>
        <path class="cls-99" d="M28.83,373.56c2.76-.09,5.58.2,8.3-.25l.15,65.19c0,2.49-.28,4.54-1.53,6.46-1.67,2.57-1.42,7.76-3.12,7.65-1.37-.09-1.7-5.84-2.54-7.77-.28-.43-1.54-.25-1.61-.72-.64-4.47-.43-8.51-.42-13.03l.1-57.77c.2.12.45.25.68.24Z"/>
        <path class="cls-125" d="M36.94,296.93l.19,76.38c-2.72.45-5.54.16-8.3.25-.19-.2-.07-.42.26-.88.84.27,1.68.41,2.69-.12l-.14-51.33c-.01-3.83-.1-7.21-.08-10.91v-2.18c.03-2.87.57-5.69.21-8.77-.11-.94.08-1.73.51-2.31,1.54-.05,3.1-.31,4.66-.15Z"/>
        <path class="cls-94" d="M32.89,17.58l-.03,38.07c0,2.11-1.04,4.2-.41,5.96l.44,1.25c.17.47-.85.44-.92.76-.36-.04-.81,0-1.07-.24-.42-.4-.25-1.12-.36-1.74l-.64-3.49c-.17-.92-3.32-.98-3.7-.08l-1.29,3.06c-.12.03-.28-.1-.4.04-2.25-3.09-.95-13.27-.8-17.29.06-1.71-.19-3.37.06-5.13,1.38-9.55-1.36-3.7,3.33-13.69-.14-1.01.38-2.63.5-3.44l.69-4.55c.45-3,1-7.06,1.94-9.63.5-1.34-.33-2.76.73-3.76.2,1.1-1.05,8.6,1.38,7.54-.65,2.03.54,4.64.54,6.37Z"/>
        <path class="cls-63" d="M32.28,297.07c-.43.58-.62,1.37-.51,2.31.36,3.08-.18,5.9-.2,8.77v2.18c-.04,3.7.05,7.09.07,10.91l.14,51.33c-1.01.53-1.85.39-2.69.12-.33.46-.45.68-.26.88-.23,0-.48-.12-.68-.24l.16-76.4c1.32-.23,2.67.19,3.97.15Z"/>
        <path class="cls-3" d="M40.77,60.55c-.51-.23-1.32-.36-1.41-.82-.11-.62-.37-1.59-.38-2.2l-.31-24.69c0-.72-.41-1.18-.22-1.92,1.66-.49,2.51,11.98,2.81,14.5.26,2.16.34,16.03-.5,15.13Z"/>
        <path class="cls-66" d="M32.45,239.36l3.48.06c.54,1.89-1.82,2.35-2.37,3.77l-1.2,3.11c-1.42-.08-2.81,0-4.24.19.06-2.27-.65-5,.38-7.08,1.31-.16,2.63-.08,3.96-.06Z"/>
        <path class="cls-3" d="M32.85,3.17l.04,14.41c0-1.74-1.19-4.34-.54-6.37-2.43,1.06-1.18-6.43-1.38-7.54.31-.96.01-2.78.92-3.67,1.31.52.27,2.52.97,3.17Z"/>
        <path class="cls-76" d="M39.8,64.07c-.29,1.1-1.41,2.69-2.02,3.5l-3.79.23c-1.07.06-.88-3.54.29-3.65,1.39-.13,2.29.17,3.04-.6.46-.47,2.27.02,2.47.53Z"/>
        <path class="cls-3" d="M40.81,61.22c.04,1.13.44,2.7-1,2.84-.2-.5-2.02-1-2.47-.53.06-.45-.31-1.66.38-2.03.97-.52,2.22.13,3.1-.29Z"/>
        <path class="cls-3" d="M27.54,63.89c-.96-.21-2.06.11-3.03-.2-.12-.9-.11-1.64-.01-2.52.11-.13.28,0,.4-.04.64-.18,1.93.21,2.17,1.03.16.56.9.97.48,1.73Z"/>
        <path class="cls-91" d="M31.97,63.61c-.17.74-1.14.18-1.71.24-1.01.1-1.75.25-2.72.04.42-.76-.31-1.17-.48-1.73-.24-.83-1.53-1.21-2.17-1.03l1.29-3.06c.38-.9,3.53-.84,3.7.08l.64,3.49c.11.62-.06,1.34.36,1.74.26.24.72.2,1.07.24Z"/>
        <g>
          <path class="cls-38" d="M36.9,239.44c.01-4.09.53,13.42,1.85,7.07-.34,4.43,4.42,3.84,5.46,5.83.62,1.17,1.38,2.02,2.08,2.99.49.68.82,7.06,3.07,6.03.39.01.58.7.77.98-1.32.54-.54,2.29-.87,3.83l-3.76.57-.29,6.88-5.53.52-.3,4.94-2.1.49-.26,13.33c-.03,1.5-.08,2.75-.08,4.02-1.56-.16-3.12.1-4.66.15-1.3.04-2.65-.37-3.97-.15.01-5.02-.57-10.35-.16-15.92-1.5-.58-2.53.25-3.57-.52-.58-.43-.31-1.62-.17-2.03l12.79-.35c.27-2.89.01-5.76-.36-8.42-.1-.69.06-1.34.04-2.04-.04-1.31.27-2.73-.46-3.87-.29-1.21,1.15-1.04,1.42-1.95,1.39.39,3.65.83,4.92-.73,1.01-1.24.59-3.86.22-5.26-.31-1.18-.13-2.65-1.16-3.61-.78-.73-1.97-.77-2.98-1.27-.72-.36-1.45-.7-2.45-.42,0-1.59.52-2.68.25-3.87-1.37-1-2.91-.28-4.28-.35l1.2-3.11c.55-1.42,2.91-1.88,2.37-3.77.32,0,.66-.18.97.02Z"/>
          <path class="cls-173" d="M31.53,290.08c1.92,1.09,3.43.71,4.59.56.8,1.61-.14,3.55-.33,5.64-2.16.34-4.33.06-6.84.15.03-1.95-.31-3.52-.12-5.53.05-.57,1.6-.56,1.98-.29l.31,3.39c.73-1.1.08-2.2.41-3.91Z"/>
        </g>
      </g>
      <g>
        <path class="cls-3" d="M171.95,212.24c.15,1.03.03,2.18.46,3.5.23.7,1.64.71,2.08.53,1.07,1.59.34,3.58.89,5.57,1.12.37,2.3.06,3.77.29l.61,5.71c.68.48,1.57.33,2.27.63l.46,5.88c-.98.32-1.97.17-3.26.4l.21,11.14c1.37.3,2.41-.04,3.6.44.09,1.74.05,3.28.54,4.83.87.35,1.67.05,2.78.23l1.19,8.76c.21,1.56,2.88-2.31,1.94,6.45-1.56-.07-1.45,2.64-.62,3.61.54.63,1.69.49,1.89,1.44-.39.62.26,1.35.13,2.03-.7.81-1.91.38-2.99.92l-.35,3.94c-.35-.13-.8.06-.69.47-1.01.06-2.08-.08-3.27.25-.73,4.07-.47,8.13-.35,12.11.02.77-.66,2.15.74,2.34.51.07,1.49-.07,1.93.39.19.21-.27.78.44.81-.35.59-.19,1.55.16,2.21s1.73-.02,2.31.49c.61.55.6,2.48.34,3.25-2.95,3.53-3.8.54-6.59,2.35l-3.73-.34c-.33-4.16-.73-8.23-2-12.23-.32-1.01-1.38-1.65-1.03-3.25.12-.56-.17-2.08-.77-2.46-.39-.24-.94-.07-1.4-.76.37-.5.03-1.07-.02-1.62.38-.39,1.9-.22,2.15-.74.53-1.1.76-3.54-.02-4.49l-3.55-.68c.16-3.71-.04-7.48-.4-11.51l-2.89-.5-.28-5.44c-1.54-.05-2.74-.27-3.92-.39.22-1.62-.32-3.39-.47-4.98,1.84.36,1.05-8.48.91-9.29-.57-3.43-4.84-1.97-6.3-2.5.66-2.13-.25-4.49-.12-6.59.12-1.87,1.01-3.92.68-6.09,1.57-.4,2.73-.02,4.09-.54,0-2.69-.31-5.55,1.62-7.62.63-.68,2.4.11,2.97-.6.91-1.13.24-2.45.7-3.9,1.54.05,2.87-2.64,2.27-4.06.08-.41.55-.45.9-.41Z"/>
        <path class="cls-3" d="M98.32,235.46c.1,2.16-.32,4.38-.06,6.54l-6.16.6c-.71,1.85.12,3.9-.38,5.76.27-.99-1.88,4.06-.36,5.16.33.24.84.58,1.32.43-.17.14-.21.28,0,.41-1.41.98-1.06,2.93-.94,4.47-.83-.02-1.67.52-2.9.38l-.36,5.25c-1.22.72-2.62.3-4.04.75l-.95,11.39c-1.31.6-2.49.39-3.86.69-.38,1.6-.22,2.97.1,4.51,1.1.21,1.94.22,2.8.24.13,0,.27.11.39.09-.05.81-.05,1.66-.38,2.41-.16.36-.54.55-.59.94-1.27-.27-3.49-.08-3.77,1.45-.11.63,1,1.91-.15,2.11-.16-.57-.07-1.19-.07-1.95-1.23-.3-1.8.11-2,1.23-.15.8.39,1.72,1.44,1.72-.27,4.36-1.62,7.84-1.71,12.77-1.36.34-2.18.05-3.03.05.9-.47-.19-1.53,0-2.13.49-1.48.19-2.3-.09-3.35-.74-2.77.75-6.19-.23-8.72-1.23-3.19-4.66-4.72-6.14-7.54-.72-1.37-1.54-2.57-2.34-3.73-1.87-2.73-.84-6.11-1.42-9.19-.29-1.53-3.06-3.18-1.56-5.47-1.56-.65-2.42-.18-3.36-1.16.89-.56,1.61-.14,1.96-.9.39-.83.1-2.79-.06-2.93-.2-.18-.72.39-.82-.29,1.36-.24.49-1.96,1.17-2.93,1.13-1.05,3.25-.25,4.47-1.03,4.02-2.58,5.33-1.9,10.79-2.62.42-1.24.21-2.29.37-3.56.94-.57,2.09-.05,3.18-.5s.31-2.49,1.04-3.29c.8-.87,3.38.09,3.86-1.03.75-2.93,0-5.8.29-8.43l.59-5.27c1.72-.36,3.17.07,4.73-.49.46-1.9-.06-3.86.72-5.6,1.59.03,2.96.02,4.01-.63,1.17-.05,2.67.27,3.95.55l.57,12.85Z"/>
        <path class="cls-151" d="M24.06,253.51c-.3,1.04-.18,2.23-.3,3.34,1.38.45,2.64-.07,3.66.47.61.32.48,2.23.07,2.92-.6,1.01-2.56.18-3.52.57-1.01,1.89-.35,4.33-.09,6.44l6.11.87c.27.6-.04,1.16-.13,1.77h-5.84c-.33,1.15-.41,2.4-.05,3.92,3,.01,5.89.5,9.02-.08.92-.5.44-2.73.41-3.6,1.01.13,2.33-.84,3.43-.46.37,2.66.62,5.53.36,8.42l-12.79.35c-.94-.91-2.28-.22-3.88-.7l-.26-23.99c1.42-.51,2.6-.06,3.77-.25Z"/>
        <path class="cls-17" d="M32.36,246.3c1.36.07,2.9-.64,4.28.35.27,1.19-.25,2.28-.25,3.87,1-.28,1.72.06,2.45.42-.64.88-2.19.48-3,.84-2.11.95-1.06,3.17-.96,4.56.11,1.51.03,3.08,1.71,3.65.45.35.47,1.59,1.27,1.81-.27.9-1.71.74-1.42,1.95-.99-.04-2.26.66-3.19.55-1.44-.18-3.43-.15-4.86-.51-.59-.24-.67-2.59-.06-2.63l4.27-.27c.42-1.59.39-3.35-.2-4.79l-3.94-.27c-.28-1.03-.12-1.9-.47-2.65l-3.78-.24c-.09-.39-.28-1.43.28-1.63,1.18-.42,2.24.08,3.51-.45l.12-4.37c1.43-.2,2.82-.27,4.24-.19Z"/>
        <path class="cls-8" d="M33.24,264.31l.09,3.45c-.98.19-2.28.51-3.34.35l-6.11-.87c-.27-2.1-.93-4.55.09-6.44.96-.39,2.92.44,3.52-.57.41-.69.54-2.6-.07-2.92-1.02-.54-2.28-.02-3.66-.47.12-1.11,0-2.3.3-3.34.33-.17.23-.24.15-.56l3.78.24c.35.75.18,1.62.47,2.65l3.94.27c.59,1.44.61,3.2.2,4.79l-4.27.27c-.6.04-.52,2.39.06,2.63,1.43.36,3.42.33,4.86.51Z"/>
        <path class="cls-5" d="M45.33,246.98c.93.82,1.86,2.12,2.87,2.82.47,1.28,1.33,3.12,1.49,4.49-.24,2.36.37,4.78-.34,7.06-2.25,1.03-2.58-5.35-3.07-6.03-.69-.97-1.46-1.82-2.08-2.99-1.05-1.99-5.81-1.39-5.46-5.83.39-.04.55-.34.69-.65,1.22.82,3.22.35,5.89,1.13Z"/>
        <path class="cls-7" d="M37.85,261.82c-.79-.22-.81-1.46-1.27-1.81-1.69-.57-1.61-2.14-1.71-3.65-.09.06,9.64.3,8.11-.53.37,1.41.8,4.02-.22,5.26-1.27,1.55-3.53,1.11-4.92.73Z"/>
        <path class="cls-86" d="M42.98,255.83c1.53.82-8.2.59-8.11.53-.1-1.4-1.15-3.61.96-4.56.81-.37,2.37.04,3-.84,1.01.5,2.2.54,2.98,1.27,1.03.96.85,2.44,1.16,3.61Z"/>
        <path class="cls-96" d="M36.43,263.76c.73,1.14.43,2.56.46,3.87-.81,1.12-2.45.29-3.56.13l-.09-3.45c.93.12,2.19-.59,3.19-.55Z"/>
        <path class="cls-16" d="M36.89,267.64c.02.69-.14,1.34-.04,2.04-1.1-.38-2.42.59-3.43.46-1.15-.15-2.33-.24-3.55-.24.09-.61.4-1.17.13-1.77,1.06.15,2.36-.16,3.34-.35,1.11.17,2.75,1,3.56-.13Z"/>
        <path class="cls-174" d="M29.86,269.89c1.22,0,2.4.09,3.55.24.03.86.51,3.09-.41,3.6-3.13.58-6.02.1-9.02.08-.37-1.53-.28-2.78.05-3.94h5.84Z"/>
        <path class="cls-70" d="M124.47,243.93c-.24.39.31.47.59.57-.34.81-1.2,2.46-1.04,3.47-2.53.04-5.05-.41-7.43.61-.19-.58.08-.97.37-1.23,2.13-1.91.95.67,2.72-.71.38-.3.43-1.26-.01-1.51-.69-.38-1.89-.43-2.04-1.47,2.29-.96,4.67.34,6.85.26Z"/>
        <path class="cls-11" d="M131.01,244l.05,3.8c-.26,0-.67.1-.59.43-1.02-.41-2.25.36-3.05-.41-.49-.76-.02-1.76-.35-2.74-.24-.69-1.43-.36-2.01-.58-.28-.11-.83-.18-.59-.57,2.29-.08,4.28-.11,6.54.07Z"/>
        <g>
          <path class="cls-9" d="M83.74,234.06c-.29,2.64.46,5.51-.29,8.43-.48,1.12-3.05.16-3.86,1.03-.74.8.04,2.85-1.04,3.29s-2.24-.08-3.18.5c-.16,1.27.05,2.31-.37,3.56-5.47.72-6.77.04-10.79,2.62-1.22.78-3.33-.02-4.47,1.03-.67.97.19,2.69-1.17,2.93l-4.46.78c-.55,1.09-.29,2.47-1,3.53-.64.97-2.14.58-3,.58-.18-.29-.38-.97-.77-.98.7-2.28.09-4.71.34-7.06,1.75.36,2.8-1.39,4-2l11.09-5.69c1.28-.66,2.45-.79,3.88-1.13l.48-5.9,2.47-.56.63-4.29c2.58-.19,4.7.55,4.95-1.63,2.32,1.99,3.17,1.39,6.55.97Z"/>
          <path class="cls-85" d="M213.3,222.59c-.32,1.88-.53,4.04-.54,6-1.03.14-1.89-.11-2.46-.95-2.3.87-1.5-.47-3.14,1.11-.43.41.63.89.63,1.23l-.08,35.15c-1.03-.01-1.61-.09-1.46.51-1.9-.3-1.62,2.16-2.11,1.06l-.4-.89c-.14-.3-1.31-.64-1.37-1.16.68-.22.38-1.13.39-1.93l.27-33.71c-4.69-.42-8.91-.43-13.11.02.1-1.68,1.96-1.81,3.37-2.06.25-.04.62.15.94.07-1.28,3.73,11.06-3.62,10.47-2.27l.75-1.71c.28-.64,3.76.48,3.61-1.95l-.27-4.47c1.39-.12,2.68-.29,4.4.14,0,2.06.42,4,.11,5.82Z"/>
          <path class="cls-141" d="M60.06,215.52c-.67.49-.94,1.56-.43,2.24-.34.29-.64.47-.85.88-.86,1.67,4.45-.1,4.65.86l.62,3.12c.18.9,2.52.11,3.16.84.61.69.09,2.28.76,2.57.99.43,2.27.57,3.09.03.35-.22.83.15.52.5l-2.7.77c-.73.21-.59,1.09-.38,1.9.11.42.97.34,1.76.34.53,0,.57-.69,1.4-1.6.05.96.3,2.16-.25,2.87-.26.34-1.23-.02-1.59.26-1.21.94,1.26,3.09-2.44,4.72-.67.29-2.1.03-2.62.9-.62,1.04.29,3.9-1.09,4.68-2.13,1.06-4.35,1.79-6.42,3.14l-5.13,3.33c-.84-.11-1.63-.52-2.35-.94-.08-.34.32-.57.29-.79-.14-.96-3.76-.37-4.65-.12-.2.11.02.78-.09.96-2.67-.78-4.67-.31-5.89-1.13.41-.92.04-3.23.9-3.76,2.27-.44,2.35-2.02,3.33-3.3.83-1.09,1.7-1.43,2.12-3.41.38-1.8,1.93-3.72,2.18-5.64.07-.54,1.94-.57,1.65-1.74-.09-.38-.04-.77.06-1.12.12-.47.66-.39,1.06-.36.53,7.22-9.92,15.63-1.55,14.81,1.37,1.17,2.34,2.98,3.28,2.95.8-.03.95-.56,1.26-1.32.81-1.99,6.03-5.36,6.43-6.15.83-1.65,1.83-1.79,3.39-2.46,1.07-.81.66-3.44.76-4.78.13-1.81,2.59-.71,3.39-1.13.35-.18.13-.94.34-1.62.29-.92-2.38-.42-3.68-1.24-.6-.37.1-1.79-.39-2.18-1.45-1.18-3.63-1.05-5.25-1.06-.86,0-2.43-.79-3.29.03-.73.7.03,3.11-1.23,3.68-1.05.47-2.34.72-3.47.47,1.59-1.24,1.45-4.3,1.93-6.88,1.04-.43,2.33.17,3.04-.47.66-.6.2-2.18.58-2.94.97-1.97,2.73-.71,3.78-.71Z"/>
          <path class="cls-175" d="M212.76,228.59l-.1,14.3c-.01,1.94-.45,3.99.54,5.42-1.16,6.22-.81,12.76-1.21,19.34-.08,1.36.67,2.11,1.31,2.88.73.88.06,2.25-.04,3.13-2.65-.66-5.03-2.39-7.46-3.42.78-.47,0-1.69.42-2.54l.54-1.11-.51-.94c-.15-.6.42-.53,1.46-.51l.08-35.15c0-.34-1.05-.82-.63-1.23,1.64-1.58.84-.24,3.14-1.11.58.84,1.43,1.09,2.46.95Z"/>
          <path class="cls-29" d="M212.66,291.43c.11,2.24-.4,3.43-2.49,4.56-.77.42-1.57,1.86-2.8,1.93l-.62,3.88-16.33.18c-.76,0-1.43-.55-1.26-1.1.26-.77.27-2.7-.34-3.25-.57-.52-1.97.15-2.31-.49s-.51-1.62-.16-2.21c.79-.82,2.06-.45,3.01-.98.22,1.29,1.97.37,2.58.88.67.57,1.29.2,2.16-.42,1.26,1.25,2.98.73,4.71.66,1.63-.07,2.9.31,4.06-.62,1.04-.18,3.51,1.12,4.38,0,.79-1.26,1.16-1.37,2.61-1.91.94-.35,1.6-1.88,2.8-1.1Z"/>
          <path class="cls-104" d="M210.99,276.08c-.47.98,1.08,1.56,1.21,2.47.62,4.47.25,8.71.46,12.88-1.2-.78-1.86.75-2.8,1.1-1.45.54-1.81.65-2.61,1.91-.87,1.12-3.35-.18-4.38,0-.19-.66-.38-1.75.12-2.55.53-.86,2.52.53,4.58-.29,1.01-.4.64-1.21.68-2.18-.54-5.11,2.1-11.69-5.04-12.75-.98-.17-1.5-1.32-2.43-1.57l.02-1.47c2.6.23,5.53-.38,7.97,1.58.68.55,1.33,1.02,2.22.88Z"/>
          <path class="cls-100" d="M213.2,248.31c-.99-1.43-.55-3.48-.54-5.42l.1-14.3c.01-1.96.22-4.12.54-6l3.65.38c.27,9.34,1.24,11.6-2.55,20.1-.81,1.82-1.45,3.44-1.2,5.24Z"/>
          <path class="cls-127" d="M198.84,270.02c2.16.23,4.86-.32,6.96.21,2.43,1.03,4.81,2.76,7.46,3.42-.21,1.86-2.47.4-2.27,2.43-.89.14-1.54-.33-2.22-.88-2.44-1.96-5.38-1.35-7.97-1.58-3.29-.29-6.59.11-9.91.05.13-.67-.52-1.41-.13-2.03.25-.39-.25-.64,0-1.19,3.02.13,5.5-.71,8.08-.44Z"/>
          <path class="cls-3" d="M208.79,216.63l.27,4.47c.15,2.43-3.33,1.31-3.61,1.95l-.75,1.71c.59-1.35-11.76,6-10.47,2.27.17-.77.12-1.66.62-2.24,1.75-2.03,2.57,1.01,5.02-2.19.62-.81,2.09-.75,2.54-1.63,1.25-.45,2.98-.3,4.13-1.21.87-.68.49-2.25.74-3.14.5-.22,1,.04,1.5,0Z"/>
          <path class="cls-139" d="M66.6,215.57v3.04c-2.08.15-3.87-.91-6.97-.85-.51-.69-.24-1.75.43-2.24,2.15,0,4.37-.26,6.54.05Z"/>
          <path class="cls-98" d="M200.77,275.1c.94.25,1.45,1.4,2.43,1.57-.39,1.76-.86,13.69.03,14.13,1.55.78,3.25.18,4.53,0-.09-.92-.07-1.56.49-1.39-.04.97.32,1.78-.68,2.18-2.06.83-4.05-.57-4.58.29-.5.8-.31,1.89-.12,2.55-1.16.94-2.43.56-4.06.62-1.73.07-3.45.59-4.71-.66-.88.62-1.49.99-2.16.42,1.74-.3,2.65-1.38,2.49-3.38l-.55-7.14c-1.29-.25-2.4-.1-3.44.2-.09-.37-.43-.55-.54-.76-.18-.32-.56-.09-.46.06.31.47-.3.62-.31.89l-.43,6.12c-.09,1.23-2.06.09-2.74.27-.4-.2-.94.02-1.02-.44-.06-.36.17-.7.21-1.04l.96-9.1c.06-.62.79-.96.75-1.5-.11-.41.34-.6.69-.47.35.78,2.84.42,3.09-.42.36-1.22.55-2.75,2.19-3.25,2.46-.74,5.46-.44,7.96.23Z"/>
          <path class="cls-162" d="M197.82,264.71l-1.28,1.51c.71.42,1.24.43,1.39.75.78,1.6-.99,1.79.64,2.22.36.1.28.56.25.84-2.58-.27-5.06.56-8.08.44-.26.55.24.8,0,1.19-.2-.95-1.35-.81-1.89-1.44-.83-.97-.94-3.68.62-3.61,1.28.16,2.62-.25,4.03-.81-.57-9.96-3.74-17.38-4.5-26.85l-4.65.22c-.18-1.19-.36-2.2-.22-3.49,2.62-.43,5.22.72,6.18-1.51,1.11-.25,2.66-.38,4.04-.17.71,11,2.92,20.15,3.47,30.71Z"/>
          <path class="cls-196" d="M189.82,233.47c0,.29.13.77.5.69-.96,2.23-3.55,1.08-6.18,1.51-.14,1.29.05,2.3.22,3.49l4.65-.22c.76,9.48,3.93,16.9,4.5,26.85-1.41.56-2.75.97-4.03.81.94-8.76-1.73-4.9-1.94-6.45l-1.19-8.76c-1.11-.19-1.91.12-2.78-.23-.5-1.55-.45-3.09-.54-4.83-1.2-.48-2.23-.14-3.6-.44l-.21-11.14c1.29-.23,2.28-.08,3.26-.4.72-.23,1.57-.57,1.97-1.41-1.14,1.81,5.24,1.5,5.37.53Z"/>
          <path class="cls-199" d="M186.85,279.01c.03.54-.69.88-.75,1.5l-.96,9.1c-.04.33-.27.68-.21,1.04.08.47.62.25,1.02.44-.84.22-1.81.66-2.72.29-.11-3.98-.37-8.04.35-12.11,1.19-.33,2.26-.19,3.27-.25Z"/>
          <path class="cls-77" d="M200.8,273.63l-.02,1.47c-2.5-.67-5.49-.97-7.96-.23-1.64.49-1.83,2.02-2.19,3.25-.24.84-2.73,1.2-3.09.42l.35-3.94c1.08-.54,2.3-.12,2.99-.92,3.32.06,6.62-.34,9.91-.05Z"/>
          <path class="cls-10" d="M190.43,284.51l-1.08,9.44c-.95.53-2.23.15-3.01.98-.7-.02-.24-.6-.44-.81-.44-.47-1.43-.33-1.93-.39-1.4-.19-.72-1.58-.74-2.34.91.37,1.89-.07,2.72-.29.68-.18,2.65.96,2.74-.27l.43-6.12c.02-.28.62-.43.31-.89-.1-.15.28-.38.46-.06.12.21.45.39.54.76Z"/>
          <path class="cls-59" d="M77.09,229.04c0,.18-.24.55-.13.75.09.16.57.3.53.68l-.3,2.62c-.25,2.18-2.37,1.44-4.95,1.63l-.63,4.29-2.47.56-.48,5.9c-1.43.34-2.59.47-3.88,1.13l-11.09,5.69c-.63-1.42-1.38-2.86-1.57-4.42l5.13-3.33c2.07-1.34,4.29-2.08,6.42-3.14,1.37-.79.47-3.64,1.09-4.68.51-.87,1.95-.6,2.62-.9,3.7-1.62,1.23-3.78,2.44-4.72.35-.27,1.33.08,1.59-.26.55-.71.3-1.91.25-2.87-.83.9-.86,1.59-1.4,1.6-.79,0-1.65.08-1.76-.34-.21-.81-.35-1.69.38-1.9l2.7-.77c.41-.12.91-.51.68-1.03,1.15-.04,2.34-.06,3.47.59.76.44,1.37,2.05,1.36,2.91Z"/>
          <path class="cls-27" d="M66.62,218.62c.71.44,2.01.9,2.57,1.55,1.46,1.69,3.45,3,3.08,5.37.22.52-.28.91-.68,1.03.31-.35-.17-.72-.52-.5-.82.54-2.1.4-3.09-.03-.67-.29-.15-1.88-.76-2.57-.65-.74-2.99.05-3.16-.84l-.62-3.12c-.19-.96-5.5.81-4.65-.86.21-.41.51-.59.85-.88,3.1-.06,4.88,1,6.98.85Z"/>
          <path class="cls-90" d="M52.13,247.88c.18,1.56.94,2.99,1.57,4.42-1.2.61-2.24,2.36-4,2-.16-1.37-1.02-3.21-1.49-4.49,1.67-.71.49-2.91,1.57-2.87.72.42,1.51.83,2.35.94Z"/>
          <path class="cls-112" d="M202.38,264.66c-1.43-.21-3.11-.17-4.56.05-.55-10.56-2.76-19.71-3.47-30.71-1.38-.21-2.93-.08-4.04.17-.37.08-.5-.4-.5-.69l.1-4.44c4.2-.46,8.42-.45,13.11-.02l-.27,33.71c0,.8.29,1.72-.39,1.93Z"/>
          <path class="cls-54" d="M202.38,264.66c.06.52,1.23.86,1.37,1.16l.4.89c.49,1.1.21-1.36,2.11-1.06l.51.94-.54,1.11c-.42.85.36,2.08-.42,2.54-2.1-.53-4.8.02-6.96-.21.02-.28.11-.74-.25-.84-1.63-.43.13-.63-.64-2.22-.15-.32-.68-.33-1.39-.75l1.28-1.51c1.45-.22,3.12-.27,4.56-.05Z"/>
          <path class="cls-191" d="M202.42,220.99c-.46.88-1.92.82-2.54,1.63-2.46,3.2-3.27.17-5.02,2.19-.5.58-.45,1.47-.62,2.24-.32.08-.69-.11-.94-.07-.25-2.12,1.39-3.96,3.68-3.96.32,0,.98-.34,1.41-.55.33-.16-.07-.61.29-1.39.68-2.02-.77-4.23.61-5.83.85-.06,2.61-.3,3.07.93.59,1.58.43,3.47.07,4.81Z"/>
          <path class="cls-50" d="M49.17,241.33c1.77-4.67,5.29-8.5,8.34-12.81,1.26-1.78.58-4.42,1.2-6.18,1.62.01,3.81-.12,5.25,1.06.48.39-.21,1.81.39,2.18,1.3.81,3.96.31,3.68,1.24-.21.68.01,1.44-.34,1.62-.8.42-3.26-.68-3.39,1.13-.1,1.34.31,3.97-.76,4.78-1.57.67-2.56.8-3.39,2.46-.4.8-5.63,4.16-6.43,6.15-.3.75-.46,1.29-1.26,1.32-.94.03-1.91-1.77-3.28-2.95Z"/>
          <path class="cls-149" d="M58.72,222.34c-.63,1.76.06,4.4-1.2,6.18-3.06,4.31-6.57,8.15-8.34,12.81-8.36.82,2.08-7.59,1.55-14.81,1.13.25,2.42,0,3.47-.47,1.26-.57.5-2.98,1.23-3.68.87-.83,2.43-.04,3.29-.03Z"/>
          <path class="cls-128" d="M49.78,246.94c-1.08-.04.09,2.16-1.57,2.87-1.01-.7-1.94-2-2.87-2.82.11-.17-.11-.85.09-.96.88-.25,4.51-.85,4.65.12.03.22-.37.46-.29.79Z"/>
          <path class="cls-22" d="M191.93,294.83c-.61-.51-2.35.41-2.58-.88l1.08-9.44c1.04-.31,2.15-.45,3.44-.2l.55,7.14c.15,2-.76,3.08-2.49,3.38Z"/>
          <path class="cls-35" d="M208.25,289.42c-.56-.17-.58.47-.49,1.39-1.28.17-2.98.77-4.53,0-.89-.44-.41-12.38-.03-14.13,7.15,1.06,4.51,7.64,5.04,12.75Z"/>
          <g>
            <path class="cls-181" d="M149.78,131.44c.07,1.24-.12,2.72.01,3.92-.93,1.5-.65,3.38-.51,5.1-.13.65-.24,1.39-.26,2.67-1.49.42-2.92.14-4.57.39-.27,2.02-.02,3.75-.74,5.3-.31.27-.95.44-1.36.44-.08-.28-.13-.6.04-.76.27-.24,1.07.51,1.42-.81-2.25-.64-5.09-.83-7.83-.76-1.02.73-.85,3.37-.87,4.3,1.44-.13,1.57.76.49.45-1.61.19-2.9.54-4.12,1.12l-.07,2.85c-.63.28-1.05,1.4-.55,1.98-3.88.44-7.85.56-11.95.26-.47-.34-.31-1.63-.31-2.12,1.22-.82,1.51-1.85,1.34-2.76-.44-2.31-1.59-2.21-3.47-2.97-1.26-.51-1.08-3.59-3.48-2.83.07-1.92.23-2.83.06-4.08-1.63-.49-3.78-.44-4.67,1.17-.35.63.04,1.68-.47,1.91-.38.17-1.53.12-1.85.58-1.22,1.78-.7,4.3-.36,6.36l2.42.15c-.4,1.74.49,3.55.47,5.28-1.12-.29-2.28.44-3.32-.32.16-1.44.1-2.74.08-4.66-1.09.06-3.06-.52-3.84.38-1.17,1.34-.47,3.38-.56,4.77l-.31,4.81c-.03.43-1.37.42-1.52.78-.47,1.08.45,6.51-1.36,6.48l-2.45.28c-1.23.14-.13,2.56-.31,3.53-.17.42-1.17.31-1.36.54-.58.73,0,2.36-.63,3.34-.3.46-1.78-.04-2.19.48-.51,1.3-.85,3.27-.67,4.61-.71.27-1.51.07-2.46.3l-.28,9.54c-.81-1.31-.47-2.66-.6-4.32-1.67-.14-3.26-.1-4.77.31l-.56,4.01-7.1.42c-.34-.25-.52-.32-.85-.3-2.72.21-5.48.14-8.43.02-.15-1.7-.05-2.87.03-4.08,2.34-.86,9.31-.07,13.43-.56.59-1.44-.18-2.94.67-4.31.2-.32,1.29.28,1.5.05l.96-1.05,2.26-.46c1.2-.24.41-3.3.9-3.44l1.46-.45c.77-1.21.13-2.72.64-4.1l4.17-.28c.02-1.93-.05-3.55.25-5.13.77.58,2.17.2,3.24.09.69-2.06-.48-4.04.74-5.64.33.21.84.09,1.11-.09.85-.57-.03-4.35,0-4.12-.55-5.22-.13-10.47.21-15.64.12-1.81,1.44-4.57,3.07-5.37,1.11-.55,2.6-.64,3.45-.56l6.54.61c.26-1.46.07-2.58.02-3.69.69-.07,1.88-.21,2.54.52s-.27,2.54.68,3.16,2.4.05,3.69.41c.6,1.22.02,2.56.71,3.63,1.71.17,3.71-.04,4.82,1.2.42.68.05,1.56.44,2.47l3.42,1.14c.81.27,1.25.06,1.91-.11,2.17-.55,4.5-1.13,6.52-2.44.44-.44.05-2.12,1.02-2.26,1.02-.15,2.44.33,3.25-.41.7-.64.02-2.07.43-3.02,1.3-.78,3.18.03,4.27-1.1.47-.83-.35-2.4.48-2.99.75-.53,1.81-.08,2.58-.45.6-.97.04-2.31.71-3.23.57-.79,1.86-.28,2.57-.4Z"/>
            <path class="cls-97" d="M175.93,138.83l.17,4.03,6.95.87c.19.93.41,1.85.09,2.6-.21.4-.03.52.33.56l4.33.49.17,3.29,4.69.79.55,2.51c2.43-.04,3.06,2.14,3.3,4.14.32.54,2.13.23,2.34.83.64,1.86-.02,2.44.62,3.9.14.32.67.38,1.33.45,3.41.35,1.66,4.18,2.64,7.51,2.47.12,3.76,2.34,3.47,4.33-2.35,1.41-4.13-1.39-5.33.58-.37.6-.82.93-.19,2.81l-20.26.7c-1.98.07-3.86.69-5.72.47-1.49-.18-3.63-.85-4.96.13-.78.76.04,2.66.23,3.52-2.04.19-4.13.45-6.41.13l-.35-4.44c-2.73-.08-5.39-.03-8.23-.38-3.38-.42-.26-3.96-3.36-4.55.81-.4.94-6.15,1.01-6.01,1.23-.42,2.63-.65,4.16-.24.44,1.07.07,1.95.4,3.1l11.23.15.22,3.71c7.07.27,13.87.19,20.65.03,1.37-.03,3.03.62,4.62-.14.48-3.64.13-6.93.14-10.54-1.66-.28-2.92-1.18-4.38-1.03.06-1.78-.15-3.69-.27-5.59-.31-.65-2.06-.39-2.76-.72-.59-1.59-.14-3.57-.42-5.33l-3.7-.49c-.34-1.44.19-2.72-.41-4.04-4.12-.33-7.98-.9-11.77-.68-.28-.78.37-2-.09-2.77-.6-.98-5.16-.69-5.86.07-.08.09-2.51,5.61-.98,5.23-.14.58,0,1.29-.37,1.78s-1.43.19-1.99.79c-.72.78-.16,2.67-1.03,3.31-5.42,3.98-1.69,8.23-3.53,9.17-.59.3-2.49.69-2.8-.14-.52-1.41-.26-3.62-.03-5.11.58-.49,1.58-1.04,1.73-2.03.31-1.94,3.2-8.58,4.88-10.13.84-.78-.08-3.15,1.64-3.73.63-.22,2.25-.06,2.19-.87-.09-1.22.61-2.05.74-2.92,2.02-.14,4.11.11,6.05-.46,1.26.54,2.91.42,4.32.36Z"/>
            <path class="cls-168" d="M107.18,91.73c.21,2.46-.23,5.31.4,7.58.03,1.32-1.55,4.22.15,5.24s4.21-.18,5.9.53c.81.28.84-.66,1.14-1.57s3.11-1.13,3.61-.26c.31.54-.18,1.61.37,2.04,1.06.82,2.46.12,3.68.81.6,1.84.02,3.82-.34,5.52l-12.9-2.29c.18.35.46.47.48.83-.82,1.56-.94,4-.41,6,.23.89,2.25.05,2.88.55.78.74.09,2.33.34,3.5l8.17,1.66c-.12,1.43-1.06,1.9-1.99,2.44-.21,1.21-.63.4-.97-.33-.95.18-.59.94-.6,1.76,0,.51,1.27.08,1.64.46l1.04,7.29c2.55-.78.64,3.1,1.61,4.69,1.14,1.87,1.39,4.17.81,6.06-1.1-1.24-3.1-1.02-4.82-1.2-.69-1.08-.11-2.42-.71-3.63-1.29-.36-2.74.22-3.69-.41s0-2.42-.68-3.16-1.85-.58-2.54-.52c-.01-.5-.64-.38-.83-.74-.43-.71.33-1.69.02-2.52s-1.79-.98-2.51-.71c-.31-1.62-2.19-1.44-4.05-1.58l.65-33.45c.02-1.18-.16-2.99.58-3.73.79-.79,2.6-.57,3.6-.87Z"/>
            <path class="cls-56" d="M152.34,174.08c3.1.59-.02,4.12,3.36,4.55,2.84.35,5.49.3,8.23.38l.35,4.44c2.27.32,4.37.06,6.41-.13.89-.08,1.98.37,2.88.03,2,.11.62,3.03,1.09,5.52.25,1.3-.32,2.73.29,4.26l23.88.72c.69,8.88,3.72,4.79,3.69,7.15-.01.66.37,1.8-.16,2.29-2.23-.62-10.29-1.14-9.68-4.4-.81-.62-3.37-.57-4.41-.18-.13,1.38-.25,2.65-1.31,3.58-.32-.06-.69,0-1.02-.01-.02-.43.23-.75.08-1.36-.11-.45-.83-.32-1.46-.68-3.76-2.17-8.2-2-12.69-1.02-.31,4.44-.55,8.75.08,13-.35-.04-.82,0-.9.41-1.2-2.89-.02-5.99-.65-9.39l-6.72-1.48c-.61-1.94-.27-3.9-.61-5.9-1.4-.31-2.68-.07-3.9-.06-1.26-2-.39-4.5-.85-6.77-.28-1.39.68-3.47-.28-5.01-.67-1.08-2.58-.47-3.56-.54-.3-1.41.09-3.16-.7-4.58-.52-.74-2.18-.03-2.9-.1-.54-.05-1.95,0-2.01-.72-.15-1.66-.18-3.1-.1-4.42.14-2.09.1-4.91.86-5.1,2.63-.63,1.34,5.04,1.25,5.98.45-.15,1.02-.56,1.45-.48Z"/>
            <path class="cls-206" d="M87.39,193.42c1.31,2.12-1.18,6.54,2.5,6.33.8,4.23.52,8.62,1,12.93.11,1-2.86,7-2.98,7.03-1.76.43-1.92,1.45-2.42,2.8-.31.82-1.82,1.47-2.16,2.68-.78,2.83-2.51,5.21-5.21,6.3-.17-1.48-.24-2.23-1.03-2.45.02-.86-.6-2.47-1.36-2.91-1.13-.65-2.31-.63-3.47-.59.37-2.37-1.62-3.68-3.08-5.37-.14-1.17,4.84-.19,6.54-.06l1.24-3.93c.62.06,1.45-.05,1.96-.3.76-.36.17-1.61.55-2.17.82-1.22,1.63-2.57,1.79-4.08.69-.2,1.61-.11,1.76-.47.14-.34,1.09-8.41.08-9.19-1.63-1.49-5.1-1.06-7.26-.9-.72,1.05-.11,2.38-.94,3.09-.78.67-2.04.93-2.91,1.11-.53-.12-.45-.77-.83-.53.42-1.29-.19-2.91.6-4.24.26-.41,1.59-.24,1.77-.98.21-.83.72-3.57-.02-4,.33-.03.51.05.85.3l7.1-.42.56-4.01c1.51-.41,3.1-.45,4.77-.31.13,1.65-.21,3.01.6,4.32Z"/>
            <path class="cls-168" d="M70.95,163.08c.81,1.8.71,3.93.56,5.94.15-1.96-1.64,5.66.66,5.84,2.03.16,4.07.41,5.85-.29.93-.37,3.13.27,3.67-1.1.21-.54,0-1.87.57-2.27,1.27-.88,2.52.09,3.17-.87.48-.7-.26-3.65,1.55-4.71.66-.12,1.21.7,2.1.27.54.71-.21,1.82.39,2.78.28.46,1.41.72,1.87,1.07-.3,1.58-.24,3.2-.25,5.13l-4.17.28c-.51,1.38.14,2.89-.64,4.1l-1.46.45c-.49.15.3,3.2-.9,3.44l-2.26.46-.96,1.05c-.21.23-1.3-.38-1.5-.05-.84,1.38-.08,2.88-.67,4.31-4.12.5-11.09-.29-13.43.56-1.79-1.68.29-4.19,1.96-5.43.15-.11.37-.23.52-.31.34-.18.6-.3.16-.6.99,1.21,9.17.44,11.01.22-.8-1.11-.74-2.17-.99-2.72l-8.01-.33c-.42-.02-1.34-1.15-1.57-.54-.11.29-.53.58-.34,1.12-.46-1.13-1.31-1.24-1.69-1.03-2.32,1.28-1.14-7.49-1.05-8.58.57-.28,1.64-.09,1.88-.69.46-2.52.38-4.92,1.3-7.18,1.04-.17,1.87-.31,2.67-.33Z"/>
            <path class="cls-69" d="M86.98,165.63c-1.81,1.06-1.07,4.01-1.55,4.71-.66.95-1.91-.01-3.17.87-.58.4-.36,1.73-.57,2.27-.53,1.37-2.74.73-3.67,1.1.02.11-4.89-5.47-4.38-5.3-.8-.27-1.53-.4-2.14-.25.15-2.01.25-4.15-.56-5.94-.46-1.02.05-3.33.6-4.23.36-.58,1.51-.18,1.73-.64.26-.56.11-1.33.38-1.99.71-1.79,3.01-1.94,4.19-3.06.35-.33-.04-1.48.31-1.88.98-1.14,4.64.25,4.37-1.47.06.23.57.49.01,1.05,2,1.24,2.24,2.96,2.32,4.9.14,3.52,2.16,6.71,2.12,9.88Z"/>
            <path class="cls-115" d="M206.91,175.13c-.14.96.8,2.6-.17,3.45-.88.78-2.67-.07-3.85.55l-.18,3.41c-.65.52-1.48-.3-2.44.66.59.68,1.57-.16,2.08.59-1.3.05-2.73.4-4.04.38l-18.98-.29c-.5,1.43-.48,3.05-.39,4.48-1.27.99-2.85.12-4.29.5-.47-2.49.91-5.41-1.09-5.52.62-.23,1.02.19,1.27-.37.61-1.34-.22-2.35.58-3.31,1.86.22,3.74-.4,5.72-.47l20.26-.7c-.63-1.88-.18-2.21.19-2.81,1.19-1.96,2.98.83,5.33-.58Z"/>
            <path class="cls-156" d="M202.36,203.3l.75,12.05c1.51.42,3.61-.24,4.18,1.29-.25.89.13,2.46-.74,3.14-1.15.91-2.88.75-4.13,1.21.37-1.34.52-3.23-.07-4.81-.46-1.23-2.23-.99-3.07-.93-.86-1.44-.37-3.21-.82-5.2-1.11-.69-2.84.18-3.89-.67-.8-.64-.16-2.52-.36-3.57l-6.19-.59c0-1.16.12-2.7-1.07-2.92,1.06-.93,1.18-2.21,1.31-3.58,1.04-.39,3.6-.44,4.41.18-.61,3.26,7.45,3.78,9.68,4.4Z"/>
            <path class="cls-6" d="M198.35,188.92l4.44.04c1.47.01,3.01.11,4.47.46-.26,1.18.26,2.23-.35,4.01-2.64-.41-5.68.49-8.08.42l-23.88-.72c-.6-1.52-.04-2.96-.29-4.26,1.45-.37,3.02.5,4.29-.5,6.31,1.21,12.92.48,19.4.54Z"/>
            <path class="cls-81" d="M103.28,134.95l-.12,3.47c-.85-.08-2.34,0-3.45.56-1.63.8-2.95,3.56-3.07,5.37-.49-1.24-2.96-1.06-4.27-.46-.57,3.27-.85,6.62-.88,9.83l-.09,9.92c-.32-.27-.62.54-.81.51-.16-.03-.36-.42-.33-.51l.14-20.27c0-1.16-.14-2.07-.54-2.91.13-1.57,1.73-1.61,2.53-2.99.65-1.13,1.19-2.64,2.92-2.77,2.8-.21,5.45-.15,7.97.24Z"/>
            <path class="cls-165" d="M71.99,203.29c-1.46,3.81-.44,8.3-.36,12.4l5.34.5-1.24,3.93c-1.7-.13-6.68-1.12-6.54.06-.57-.66-1.86-1.11-2.57-1.55v-3.04c.31.04,1.01-.27,1.05-.87l.72-11.06c1.32,0,2.51.18,2.78-.88.39-.24.31.41.83.53Z"/>
            <path class="cls-95" d="M90.26,163.64c-3.33.4-2.78-4.88-3.86-8.99-.64-2.42.39-5.26-.5-7.43.28-.84,0-2.41.69-3.23.39-.34,2.31.12,2.13-.73-.29-1.37,1.07-2.05,1.14-2.81.4.83.54,1.75.54,2.91l-.14,20.27Z"/>
            <path class="cls-41" d="M85.9,147.22c.89,2.17-.14,5,.5,7.43,1.08,4.11.53,9.39,3.86,8.99-.03.1.17.49.33.51.19.03.49-.78.81-.51,1.1.93,2.64.27,3.92.56-1.22,1.6-.05,3.59-.74,5.64-1.07.1-2.47.49-3.24-.09-.46-.35-1.59-.61-1.87-1.07-.6-.96.15-2.07-.39-2.78-.89.43-1.45-.39-2.1-.27.04-3.18-1.98-6.36-2.12-9.88-.08-1.93-.32-3.66-2.32-4.9.56-.56.05-.82-.01-1.05-.15-.57-.16-2.09.54-2.32,1.04-.36,2.03-.2,2.85-.25Z"/>
            <path class="cls-208" d="M67.74,183.14c-.17-.2-.56-.16-.79-.15-.22.08-.44.02-.6-.08-.69-.46,0-2.37-.2-3.05.38-.21,1.23-.09,1.69,1.03-.19-.54.23-.83.34-1.12.24-.61,1.16.53,1.57.54l8.01.33c.25.55.2,1.61.99,2.72-1.84.22-10.02.99-11.01-.22Z"/>
            <path class="cls-30" d="M153.78,135.38c1.02,1.4.97,3.31,1.08,5.04.15,2.21-.1,4.46-.61,6.57-.18.04-.36.17-.51-.06-.07-1.54.32-3.65-.42-5.24-.62-1.33-3-.76-4.04-1.23-.14-1.72-.42-3.6.51-5.1l3.99.02Z"/>
            <path class="cls-106" d="M202.71,182.55c-.17,2.03,2.72.98,4.56,1.84.28,1.87.33,3.49,0,5.03-1.45-.35-3-.44-4.47-.46-.33-1.71.61-3.68-.44-5.16-.51-.76-1.5.08-2.08-.59.96-.96,1.79-.13,2.44-.66Z"/>
            <path class="cls-52" d="M109.72,135.34c.05,1.11.23,2.24-.02,3.69l-6.54-.61.12-3.47c1.07.17,2.28.29,3.33.02.19.51.85.54,1.27.45.35-.08,1.48-.2,1.01-.81.19.37.82.25.83.74Z"/>
            <path class="cls-3" d="M153.72,129.58c-.29,1.79.19,4,.06,5.8l-3.99-.02c-.13-1.2.06-2.68-.01-3.92-.06-1.02.73-1.78,2-1.9.78-.07,1.4.24,1.94.04Z"/>
            <path class="cls-124" d="M170.53,135.43l1.08,3.04c-1.94.56-4.02.32-6.05.46.2-1.26-1.08-2.79-2.33-2.45.29-2.6,6.68-.65,7.29-1.05Z"/>
            <path class="cls-149" d="M175.93,138.83c-1.4.06-3.06.18-4.32-.36l-1.08-3.04c1.45-.96,3.28-.59,5.19-.18.52,1.3.16,2.44.21,3.58Z"/>
            <path class="cls-37" d="M158.2,141.31c-.07.34.07.74.01,1.09-.44.09-.77-.11-1.13.21-.82.73.17,3.44-.79,4.13-.48.34-1.46.29-2.05.25.51-2.11.76-4.36.61-6.57,1.07.47,2.33.31,3.34.89Z"/>
            <path class="cls-160" d="M108.89,134.6c.47.62-.66.73-1.01.81-.43.1-1.08.07-1.27-.45-.33-1.16-.17-2.41-.21-3.6.72-.27,2.19-.14,2.51.71s-.45,1.82-.02,2.52Z"/>
            <path class="cls-107" d="M171.05,212.65c.59,1.43-.73,4.11-2.27,4.06-.46,1.45.21,2.77-.7,3.9-.57.71-2.34-.07-2.97.6-1.93,2.07-1.61,4.93-1.62,7.62-1.35.51-2.52.13-4.09.54.33,2.17-.56,4.22-.68,6.09-1.26-.5-2.84.53-3.93.41-1.7-.19-3.5-.24-5.53.16-.64,1.81-.54,3.76-.47,5.57,1.67-.11-6.24,1.62-4.49,1.75-4.41-.02-8.88,1.03-13.29.67-2.25-.19-4.24-.16-6.54-.07s-4.56-1.22-6.85-.26c-1.99.83-1.67-.28-3.62,4.56-1.5-.63-1.65.25-2.18.62.28-1.52.09-2.86-.3-4.24-.41-.49-1.59-.06-2.04-.15-.1-1.36-12.42-1.06-11.22-2.46.53.14,6.99.97,7.22.93.61-.12.95-1.35.43-1.82-.66-.58-1.76.07-2.6-.22-.76-1.55-.55-3.16-.37-5.11-1.65-.56-3.16-.06-4.63-.32l-.57-12.85c-1.28-.29-2.78-.61-3.95-.55-.08-1.92.12-3.83-.42-5.99-1.33-.78-2.11-2.06-2.48-3.38-.48-4.32-.2-8.7-1-12.93-.04-.19-.3-.31-.06-.66.1-.14,0-.53.35-.3.28.35.08.99.36,1.26.25.24,1.71-.34,1.92-.03,1.14,1.65-.49,5.75.31,9.69l4.7.3c.29,1.94.04,3.78.69,5.71,1.64.11,3-.25,4.52.02l.52,7.21,3.97.19.54,8.31,5.01.39c.35,1.43-.24,2.5.25,3.65,3.45.14,14.7.88,16.4-.24.21-.14-.1-.91.13-1.18,1.07-1.24,2.78-.81,4.65-.46.98-3.54,1.66-7.05,1.22-10.52l3.44-.52c.14-.89-.26-2.48.64-2.9.99-.46,2.7.2,3.31-.98.47-.91-.32-2.48.39-3.15.89-.84,2.48,0,3.69-.31.5-1.87-.17-3.8.75-5.37.81-1.39.1-3.08.71-4.71.45-1.21,2.92-.22,3.89-.67,1.65-.77-.22-4.85,2.07-4.2.89.43,3.6.41,3.86-.76.35-1.58-.14-2.9,1.03-3.71,1.23,0,2.5-.25,3.9.06.34,2,0,3.96.61,5.9l6.72,1.48c.63,3.4-.55,6.5.65,9.39Z"/>
            <path class="cls-48" d="M177.09,202.74c-.67,4.15-.47,6.4.06,10.62.06.5,1.07-.02,1.42.29,2.31,2.02,4.85,2.71,7.58,3.9.48.21.33,1.81.78,1.92l2.15.55c.59,1.6-.77,3.57-2.11,4.57-.26.2.51,1.06.38,1.25l-.75,1.14c-.8,1.23-.22,2.63.83,3.16-.74,1.26-2.36,1.45-3,2.79-.4.84-1.25,1.18-1.97,1.41l-.46-5.88c-.7-.31-1.59-.16-2.27-.63l-.61-5.71c-1.47-.23-2.64.08-3.77-.29-.55-1.99.19-3.98-.89-5.57,1.21-1.22-1.1-11.24.95-13.26.46-.46,1.26-.17,1.65-.26Z"/>
            <path class="cls-164" d="M185.94,202.29c-2.96-.06-5.97-.27-8.84.45-.39.1-1.19-.19-1.65.26-2.05,2.02.26,12.04-.95,13.26-.43.18-1.84.17-2.08-.53-.44-1.32-.31-2.47-.46-3.5-.63-4.26-.39-8.57-.08-13,4.48-.97,8.93-1.14,12.69,1.02.63.36,1.35.22,1.46.68.15.6-.11.92-.08,1.36Z"/>
            <path class="cls-39" d="M158.73,235.46c-.13,2.1.77,4.45.12,6.59-.3.64-1.1.4-1.65.43l-8.89.57c-.75.05-1.53.26-1.51.91-.74-.76-1.55-.61-2.5-.62-1.75-.13,6.16-1.86,4.49-1.75,1.46-.1,3.76.23,5.01-1.17.97-1.1.61-3.25.99-4.55,1.09.12,2.67-.91,3.93-.41Z"/>
            <path class="cls-200" d="M93.8,222.06c-1.05.65-2.42.66-4.01.63-.79,1.74-.26,3.7-.72,5.6-1.56.56-3.01.14-4.73.49l-.59,5.27c-3.38.42-4.23,1.02-6.55-.97l.3-2.62c.04-.38-.44-.52-.53-.68-.11-.19.13-.56.13-.75.79.22.87.97,1.03,2.45,2.69-1.09,4.43-3.47,5.21-6.3.33-1.21,1.85-1.86,2.16-2.68.51-1.35.67-2.37,2.42-2.8.12-.03,3.09-6.03,2.98-7.03.37,1.32,1.15,2.6,2.48,3.38.54,2.16.35,4.07.42,5.99Z"/>
            <path class="cls-167" d="M98.26,242c-.27-2.17.15-4.38.06-6.54,1.47.27,2.98-.24,4.63.32-.19,1.95-.39,3.56.37,5.11.84.29,1.94-.37,2.6.22.52.46.17,1.7-.43,1.82-.22.04-6.68-.79-7.22-.93Z"/>
            <path class="cls-137" d="M150.29,151.4c-.13.42-.5.77-.9.9-1.25.39-2.78-.12-3.99,1.16-.86-.34-1.48.04-.39.43.05,1.82-1.21,3.28-2.11,4.73-3.38,1.2-7.97.23-8.35,4.16-.12.43-1.11.34-1.59.39-3.12.82-.41-3.6-2.1-5.55-.5-.58-.08-1.69.55-1.98,10.15-3.6,6.58-2.4,8.16-5.71.42-.88,2.05-.69,2.78-.68.41,0,1.04-.17,1.36-.44,1.45-1.38,4.54-2.38,6.03-.55.65.8-.61,2.73.55,3.14Z"/>
            <path class="cls-18" d="M153.74,146.92c-.1-2.13-.46,4.1-1.23,4.36s-1.53.34-2.22.12c-1.16-.41.09-2.34-.55-3.14-1.49-1.83-4.58-.83-6.03.55.73-1.55.47-3.27.74-5.3,1.65-.25,3.08.03,4.57-.39.02-1.27.13-2.02.26-2.67,1.04.47,3.43-.1,4.04,1.23.73,1.58.34,3.7.42,5.24Z"/>
            <path class="cls-136" d="M149.38,152.3c.52-.95-.58,13.6-.2,11.73-.18.89-.31,2.25-.64,3.11-.54,1.39-1.61,1.81-2.67,1.51-.19-3.04.51-6.16-.11-9.45-.19-1.03-2.14-.84-2.87-.58.9-1.44,2.16-2.91,2.11-4.73-1.09-.39-.47-.77.39-.43,1.22-1.28,2.74-.77,3.99-1.16Z"/>
            <path class="cls-75" d="M190.01,174.82l.37-11.71c1.46-.15,2.72.74,4.38,1.03,0,3.61.34,6.9-.14,10.54-1.58.76-3.24.11-4.62.14Z"/>
            <path class="cls-53" d="M153.35,168.07c-.06-.14-.2,5.61-1.01,6.01-.43-.08-1,.33-1.45.48.08-.93,1.37-6.61-1.25-5.98-.76.18-.72,3.01-.86,5.1-.59.4-2.52.62-2.94-.1-.85-1.49.13-3.4.03-4.93,1.06.3,2.13-.12,2.67-1.51.33-.86.46-2.22.64-3.11,1-.07,3.1-.72,3.75.24.77,1.14-.08,2.69.42,3.8Z"/>
            <path class="cls-111" d="M171.06,146.26l-6.5.38c-.33.84-.29,1.5-.44,2.16-1.53.37.9-5.14.98-5.23.71-.76,5.27-1.05,5.86-.07.46.76-.18,1.98.09,2.77Z"/>
            <g>
              <path class="cls-20" d="M165.57,138.92c-.14.87-.84,1.71-.74,2.92.06.82-1.56.66-2.19.87-1.72.59-.79,2.95-1.64,3.73-1.67,1.55-4.57,8.19-4.88,10.13-.16.99-1.16,1.54-1.73,2.03-.23,1.49-.49,3.7.03,5.11.31.83,2.21.44,2.8.14,1.83-.94-1.9-5.2,3.53-9.17.87-.64.31-2.53,1.03-3.31.56-.6,1.61-.3,1.99-.79s.23-1.19.37-1.78c.15-.65.11-1.32.44-2.16l6.5-.38c3.79-.22,7.65.35,11.77.68.6,1.32.07,2.6.41,4.04l3.7.49c.28,1.76-.18,3.74.42,5.33.7.33,2.45.07,2.76.72.12,1.89.32,3.81.27,5.59l-.37,11.71c-6.78.16-13.58.24-20.65-.03l-.22-3.71-11.23-.15c-.33-1.15.04-2.02-.4-3.1-1.52-.41-2.93-.18-4.16.24-.5-1.11.35-2.66-.42-3.8-.65-.96-2.75-.31-3.75-.24-.38,1.87.72-12.68.2-11.73.4-.13.77-.48.9-.9.69.22,1.47.12,2.22-.12s1.14-6.49,1.23-4.36c.15.24.33.1.51.06.59.04,1.57.09,2.05-.25.96-.69-.03-3.4.79-4.13.36-.32.68-.12,1.13-.21.37-.08.89.08,1.24-.05s.1-1.4.81-2.89c.2.1.27,0,.45-.02.38-.03.41-.24.48-.54.36,0,.88.08,1.24-.02-.17.05,1.32-2.98.81-2.4,1.25-.34,2.53,1.19,2.33,2.45Z"/>
              <path class="cls-124" d="M158.21,142.39c.05-.35-.08-.74-.01-1.09s.72.21.88,0c.28-.37-.02-1.17.31-1.38.24-.15.41-.68.87-.47-.71,1.49-.45,2.75-.81,2.89s-.87-.03-1.24.05Z"/>
              <path class="cls-124" d="M161.18,138.9c.25-1.05,1.58-1.76,2.06-2.42.51-.58-.98,2.45-.81,2.4-.36.1-.88.02-1.24.02Z"/>
              <path class="cls-124" d="M160.71,139.44c-.11-.38.12-.55.48-.54-.07.3-.09.51-.48.54Z"/>
              <path class="cls-148" d="M160.57,165.08c.64,1.06.04,2.27-1.01,2.09-.74-.13-2.22-.84-1.74-2.14.24-.64,2.35-.61,2.75.05Z"/>
            </g>
            <path class="cls-121" d="M119.14,195.79c.07,1.34.22,2.71.01,4.04-.08.51.21.64.39.98.12.22-.08.42-.52.71l.44,21.49,13.93.1c.76,0,1.53-.37,1.98,0,.44,3.47-.24,6.99-1.22,10.52-1.87-.35-3.58-.78-4.65.46-.23.27.08,1.04-.13,1.18-1.7,1.12-12.94.38-16.4.24-.49-1.14.1-2.22-.25-3.65l-5.01-.39-.54-8.31-3.97-.19-.52-7.21c-1.52-.27-2.88.09-4.52-.02-.65-1.93-.4-3.77-.69-5.71l-4.7-.3c-.81-3.94.83-8.04-.31-9.69-.21-.31-1.67.27-1.92.03-.28-.27-.08-.91-.36-1.26l-.22-4.08c0-.13.73-6.89.16-11.14-.18-1.34.16-3.31.67-4.61.4-.52,1.89-.02,2.19-.48.63-.98.05-2.61.63-3.34.19-.23,1.19-.12,1.36-.54.18-.98-.92-3.39.31-3.53l2.45-.28c.05,1.68-.01,3.33-.23,5.11-.79,6.39-.99,13.11-.64,19.63.86.36,2.24-.07,2.47.82.2.79-.69,3.24.38,3.51,5.71.47,11.21.28,16.95,0,.76-.45.33-3.66,1.16-4.02.45-.2.89-.17,1.32-.07Z"/>
            <path class="cls-204" d="M108.58,158.57c.23.06.42.15.67.14.27,1.31-.59,3.32.23,4.61,1.05.93,3.02.28,4.12.33,6.43.33,12.9.14,19.34.1h2.05c.08,1.52-.1,3.07-.64,4.99l-30.93.15-.23,21.25,15.68.36.27,5.3c-.42-.1-.87-.12-1.32.07-.83.36-.4,3.57-1.16,4.02-5.74.28-11.24.47-16.95,0-1.08-.27-.18-2.72-.38-3.51-.22-.89-1.61-.46-2.47-.82-.35-6.52-.14-13.25.64-19.63.22-1.79.29-3.43.23-5.11,1.81.04.88-5.4,1.36-6.48.16-.36,1.5-.35,1.52-.78l.31-4.81c1.48-.22,3.11.59,4.32-.48,1.04.76,2.21.03,3.32.32Z"/>
            <path class="cls-202" d="M118.59,155.76c0,.49-.15,1.78.31,2.12,4.1.29,8.07.17,11.95-.26,1.68,1.96-1.02,6.37,2.1,5.55v.58c-6.44.05-12.91.23-19.34-.1l-.19-4.67c-1.56-.33-2.86-.34-4.16-.27-.25.01-.45-.08-.67-.14.03-1.73-.86-3.54-.47-5.28.35-1.56.62-3.06.55-5.01.83.11.32.48.33.7,0,.43,1.11.2,1.17.42.22,1.07,1.59,1.92,2.49,2.64,1.31,1.06,2.11,2.76,4.38,2.49.76-.09,1.57.58,1.57,1.24Z"/>
            <path class="cls-138" d="M96.64,144.35c-.35,5.16-.76,10.42-.21,15.64-.02-.23.86,3.55,0,4.12-.27.18-.78.3-1.11.09-1.29-.29-2.82.37-3.92-.56l.09-9.92c.03-3.22.31-6.56.88-9.83,1.31-.6,3.77-.78,4.27.46Z"/>
            <path class="cls-188" d="M118.59,155.76c0-.66-.81-1.33-1.57-1.24-2.27.27-3.06-1.43-4.38-2.49-.89-.72-2.27-1.56-2.49-2.64-.06-.23-1.16,0-1.17-.42,0-.22.51-.59-.33-.7.06,1.95-.2,3.45-.55,5.01l-2.42-.15c-.34-2.06-.86-4.58.36-6.36.32-.47,1.47-.41,1.85-.58.51-.23.12-1.28.47-1.91.89-1.61,3.04-1.66,4.67-1.17.17,1.25,0,2.17-.06,4.08,2.41-.76,2.22,2.32,3.48,2.83,1.88.76,3.03.66,3.47,2.97.18.91-.11,1.95-1.34,2.76Z"/>
            <path class="cls-73" d="M142.35,149.25c-.73,0-2.36-.2-2.78.68-1.58,3.31,1.99,2.11-8.16,5.71l.07-2.85c1.22-.57,2.52-.93,4.12-1.12,1.08.31.95-.58-.49-.45.02-.93-.16-3.57.87-4.3,2.74-.07,5.59.12,7.83.76-.35,1.32-1.15.57-1.42.81-.17.15-.12.48-.04.76Z"/>
            <path class="cls-144" d="M90.13,183.58c.57,4.25-.17,11.01-.16,11.14-.12-.75-1.06-.5-1.71-.52-.3-.03-.36-.95-.86-.77l.28-9.54c.95-.24,1.75-.04,2.46-.3Z"/>
            <path class="cls-31" d="M105.25,158.25c-1.21,1.08-2.84.26-4.32.48.09-1.39-.61-3.43.56-4.77.79-.9,2.75-.32,3.84-.38.02,1.92.08,3.23-.08,4.66Z"/>
            <path class="cls-154" d="M135.98,83.35c.67-.2,1.39-.08,2.35.18-.83,1.23-.23,2.36.29,3.82.34.96,2.19.32,2.95,1.3,1.48,1.92,3.12,8.04,1.16,9.93-.52.54-2.05.17-2.45.83-.44.71.02,1.56-.34,2.5-.48,1.23-2.79.51-4,.71-.51.92-.14,2.02-.56,3.03-1.7.45-3.25.41-4.74.56l.84-23.56c1.71.69,3.07,1.15,4.52.72Z"/>
            <path class="cls-142" d="M144.32,109.16c.56,1.33-.38,2.85-.3,4.57-2-.07-3.24.81-4.77,1.17-2.81.66-5.59,1.13-8.3,1.38-1.1-1-.67-3.38,0-4.67,4.35-.68,8.99-2.29,13.36-2.46Z"/>
            <path class="cls-45" d="M122.08,111.62c.22,1.12,1.4,2.83.34,4.59-4.15-.34-8.26-.94-12.58-1.79-.24-1.6-.11-2.93-.18-4.25-.02-.36-.3-.48-.48-.83l12.9,2.29Z"/>
            <path class="cls-36" d="M145.48,108.77c.35,1.79.38,3.83-.56,5.55-1.98,3.63-5.44,1.6-5.78,2.8l-.59,2.08c-.22.79-2.23.79-3.1.9l-4.54.61.05-4.43c2.71-.26,5.49-.73,8.3-1.38,1.53-.36,2.77-1.24,4.77-1.17-.09-1.73.85-3.24.3-4.57.09-.5.63-.37,1.15-.39Z"/>
            <g>
              <path class="cls-97" d="M150.19,92.2c-.31-.02-.67.28-.9.44-.9.66,1.32,14.74-.47,16.29-.44.38-.95-.25-1.57-.23l-1.78.07c-.53.02-1.07-.11-1.15.39-4.37.16-9.01,1.78-13.36,2.46-.67,1.29-1.11,3.67,0,4.67l-.05,4.43,4.54-.61c-.06.72.93,2.05.14,2.59l-3.33,2.25-.86,11.51c-.15,1.98-1.22,3.76-1.15,5.9.04,1.3-.6,2.06-1.62,2.54-.12.41-.1,1.25-.71.98-.31-5.79.59-11.34-.7-18.26-1.71,1.64-.19,3.28-.24,4.8l-.47,14.71c0,.23-.8.45-.47.75l-3.42-1.14c-.4-.91-.02-1.78-.44-2.47.59-1.89.33-4.2-.81-6.06-.97-1.59.94-5.47-1.61-4.69l-1.04-7.29c-.37-.39-1.64.04-1.64-.46.01-.83-.35-1.59.6-1.76.34.74.76,1.54.97.33.93-.54,1.87-1.01,1.99-2.44l-8.17-1.66c-.25-1.17.44-2.76-.34-3.5-.63-.5-2.65.34-2.88-.55-.53-2-.41-4.44.41-6,.07,1.32-.06,2.65.18,4.25,4.32.85,8.43,1.45,12.58,1.79,1.06-1.75-.12-3.47-.34-4.59.36-1.7.95-3.69.34-5.52-.14-.42.08-.67.5-.47.87,1.34,2.48-.09,3.64.66l-.08,13.26c1.84.55.55-6.64,1.35-8.41,2.13,1.9,2.81-5.43,2.79-4.94,1.49-.14,3.04-.11,4.74-.56.43-1.01.05-2.1.56-3.03,1.21-.2,3.53.52,4-.71.36-.94-.09-1.79.34-2.5.41-.66,1.93-.29,2.45-.83,1.96-1.88.32-8.01-1.16-9.93-.76-.98-2.61-.34-2.95-1.3-.51-1.46-1.11-2.59-.29-3.82-.96-.27-1.68-.38-2.35-.18.03-1.05.1-2.41-.03-3.46,2.13.14,4.29.39,6.58.8.34,1.16-.31,2.63.63,3.35.7.54,1.87.33,2.28,1.07.26.49.07,1.62.54,1.93.7.45,1.57.31,2.13.72.62.46.11,1.68.61,2.09.87.73,1.55,1.28,1.48,2.35Z"/>
              <path class="cls-43" d="M127.91,145.86c.03.64-.3,1.27.04,1.89-.66.17-1.1.38-1.91.11-.34-.3.46-.52.47-.75l.47-14.71c.05-1.52-1.47-3.16.24-4.8,1.29,6.91.39,12.47.7,18.26Z"/>
              <path class="cls-153" d="M143,102.95c.79.44.47,1.81-.13,1.94s-1.4.24-2.06.05c-.55-.16-.74-1.38-.17-2.01.38-.41,1.62-.39,2.36.03Z"/>
            </g>
            <path class="cls-122" d="M175.42,179.68c-.81.96.02,1.97-.58,3.31-.25.56-.65.14-1.27.37-.9.33-1.99-.11-2.88-.03-.19-.85-1.01-2.76-.23-3.52,1.33-.98,3.47-.31,4.96-.13Z"/>
            <g>
              <path class="cls-152" d="M150.19,92.2c.74.06,2.68-.32,2.92.63.86,3.43,1.16,6.91,1.09,10.43-.18,8.99.89,17.86-.48,26.33-.54.21-1.16-.11-1.94-.04-1.27.12-2.05.87-2,1.9-.71.12-2-.39-2.57.4-.66.92-.11,2.26-.71,3.23-.77.38-1.84-.07-2.58.45-.83.59-.02,2.16-.48,2.99-1.09,1.13-2.96.33-4.27,1.1-.41.96.28,2.39-.43,3.02-.81.74-2.24.26-3.25.41s-.58,1.82-1.02,2.26c-2.02,1.31-4.36,1.89-6.52,2.44-.34-.62,0-1.25-.04-1.89.61.28.59-.57.71-.98,1.02-.48,1.66-1.24,1.62-2.54-.07-2.14,1-3.92,1.15-5.9l.86-11.51,3.33-2.25c.79-.53-.2-1.86-.14-2.59.87-.12,2.88-.12,3.1-.9l.59-2.08c.34-1.21,3.8.82,5.78-2.8.94-1.72.91-3.76.56-5.55l1.78-.07c.62-.02,1.13.61,1.57.23,1.79-1.55-.44-15.62.47-16.29.22-.16.58-.47.9-.44Z"/>
              <path class="cls-189" d="M139.08,125.98c-.87.33-.89-.75-.87-1.14.03-.43.36-1.32,1.02-1.07.73.28.81,1.84-.15,2.21Z"/>
            </g>
            <path class="cls-95" d="M113.62,105.08c-1.68-.71-4.13.52-5.9-.53s-.12-3.91-.15-5.24c2.05.44,4.58.2,6.58.85,1.01,1.37-.18,3.6-.53,4.92Z"/>
            <path class="cls-117" d="M154.49,183.49c.39,1.8-.75,4.04.76,5.49-.32,1.2-.67,2.42-.71,3.78l-.25,7.51c-2.29-.65-.41,3.43-2.07,4.2-.97.45-3.44-.53-3.89.67-.62,1.63.1,3.32-.71,4.71-.92,1.57-.25,3.5-.75,5.37-1.21.3-2.8-.54-3.69.31-.71.67.08,2.24-.39,3.15-.61,1.18-2.31.53-3.31.98-.9.41-.5,2.01-.64,2.9l-3.44.52c-.45-.36-1.22.01-1.98,0l-13.93-.1-.44-21.49c.44-.29.64-.49.52-.71-.19-.34-.47-.47-.39-.98.79,1.39,2.42,1.56,3.88,2.32,1.8.95,3.21,2,5.49,2.13,3.32.19,6.6.47,9.91.18l.23-3.97c1.39-.51,2.7-.13,4.14-.39l.43-4.39c1.74.09,3.24.18,4.69-.25l.31-4.09,2.64-.43.03-12.13c.72.07,2.38-.64,2.9.1.79,1.42.39,3.17.7,4.58Z"/>
            <path class="cls-64" d="M185.94,202.29c.33,0,.7-.05,1.02.01,1.19.22,1.07,1.75,1.07,2.92l6.19.59c.2,1.05-.43,2.93.36,3.57,1.05.85,2.78-.03,3.89.67.44,1.99-.04,3.76.82,5.2-1.38,1.6.07,3.81-.61,5.83-.36.78.04,1.24-.29,1.39-.43.21-1.09.55-1.41.55-2.29,0-3.93,1.84-3.68,3.96-1.42.24-3.27.37-3.37,2.06-.91.2-1.43,1.33-2.47,1.12-1.06-.53-1.63-1.93-.83-3.16l.75-1.14c.13-.2-.64-1.06-.38-1.25,1.34-1,2.7-2.97,2.11-4.57l-2.15-.55c-.45-.12-.3-1.71-.78-1.92-2.73-1.2-5.27-1.89-7.58-3.9-.35-.31-1.35.21-1.42-.29-.53-4.22-.73-6.47-.06-10.62,2.88-.71,5.88-.51,8.84-.45Z"/>
            <path class="cls-197" d="M158.32,189.03c.46,2.28-.41,4.78.85,6.77-1.18.81-.68,2.13-1.03,3.71-.26,1.17-2.97,1.19-3.86.76l.25-7.51c.05-1.36.39-2.58.71-3.78,1.02-.05,2.07.34,3.07.05Z"/>
            <path class="cls-146" d="M158.32,189.03c-1,.29-2.05-.1-3.07-.05-1.5-1.45-.37-3.69-.76-5.49.98.06,2.89-.55,3.56.54.95,1.54,0,3.62.28,5.01Z"/>
            <g>
              <path class="cls-87" d="M135.96,79.9c.12,1.05.06,2.41.03,3.46-1.44.43-2.8-.03-4.52-.72l-.84,23.56c.02-.49-.66,6.85-2.79,4.94-.8,1.77.49,8.96-1.35,8.41l.08-13.26c.93-.14,1.01-1.47,1.03-2.58l.47-26.25.37-.78c.22-.47-.43-.67-.7-.71-2.04-.36-.47,13.27-2.01,15.56-.69.19-1.31-.53-1.66-.31-1,.65-.61,1.13-.65,2.09l-.48,12.31c-.42-.19-.64.05-.5.47-1.23-.7-2.62,0-3.68-.81-.55-.43-.06-1.5-.37-2.04-.5-.86-3.29-.68-3.61.26s-.33,1.84-1.14,1.57c.36-1.33,1.54-3.56.53-4.92-2-.65-4.53-.4-6.58-.85-.62-2.27-.18-5.11-.4-7.58-.19-2.24,2.55-3.22,3.06-4.71.69-2.04,2.42-2.5,4.08-3.42.55-.3.42-2.02.9-2.42.13-.11,5.81-1.98,6.85-1.51.49-1.54,1.15-2.96,3.05-3.06,1.02-.06,1.91-2.41,3.42-1.54,5.75,3.34,4.14.69,7.42,4.81Z"/>
              <path class="cls-134" d="M126.56,106.29c-1.16-.75-2.77.67-3.64-.66l.48-12.31c.04-.96-.35-1.44.65-2.09.35-.23.96.49,1.66.31,1.54-2.29-.03-15.91,2.01-15.56.27.05.92.25.7.71l-.37.78-.47,26.25c-.02,1.1-.09,2.44-1.03,2.58Z"/>
              <path class="cls-24" d="M122.6,92.02c-5.05-2.89-5.21-2.96-5.41-8.33,2.02-.81,3.47-.44,5.48-.81l-.08,9.14Z"/>
            </g>
            <path class="cls-101" d="M76.97,216.18l-5.34-.5c-.08-4.09-1.1-8.58.36-12.4.87-.18,2.13-.44,2.91-1.11.83-.71.21-2.05.94-3.09,2.16-.16,5.63-.6,7.26.9,1.02.78.06,8.85-.08,9.19-.15.37-1.07.27-1.76.47-.16,1.51-.97,2.86-1.79,4.08-.38.56.21,1.8-.55,2.17-.51.24-1.34.35-1.96.3Z"/>
            <path class="cls-150" d="M89.96,194.72l.22,4.08c-.36-.23-.25.16-.35.3-.24.35.02.47.06.66-3.68.21-1.19-4.22-2.5-6.33.51-.18.56.74.86.77.65.02,1.59-.22,1.71.52Z"/>
            <path class="cls-141" d="M78.02,174.57c-1.78.7-3.83.45-5.85.29-2.3-.18-.51-7.8-.66-5.84.6-.14,1.34-.02,2.14.25-.51-.17,4.39,5.41,4.38,5.3Z"/>
            <path class="cls-159" d="M198.32,184.18c-.15,1.58,0,3.15.04,4.74-6.48-.06-13.09.67-19.4-.54-.1-1.43-.11-3.05.39-4.48l18.98.29Z"/>
            <path class="cls-58" d="M202.35,183.8c1.05,1.48.11,3.45.44,5.16l-4.44-.04c-.05-1.58-.19-3.16-.04-4.74,1.3.02,2.74-.33,4.04-.38Z"/>
            <path class="cls-158" d="M154.79,235.86c-.38,1.3-.01,3.45-.99,4.55-1.25,1.41-3.55,1.08-5.01,1.17-.07-1.81-.17-3.76.47-5.57,2.03-.39,3.83-.34,5.53-.16Z"/>
            <path class="cls-161" d="M189.82,233.47c-.13.96-6.51,1.27-5.37-.53.63-1.34,2.26-1.52,3-2.79,1.05.21,1.57-.92,2.47-1.12l-.1,4.44Z"/>
            <path class="cls-113" d="M135,163.73h-2.05s0-.56,0-.56c.48-.05,1.47.03,1.59-.39.38-3.93,4.98-2.96,8.35-4.16-.63,1.08,0,2.63-.36,4.3-2.54.56-5.1.8-7.53.82Z"/>
            <path class="cls-88" d="M113.61,163.65c-1.1-.06-3.07.59-4.12-.33-.82-1.29.04-3.3-.23-4.61,1.3-.07,2.6-.05,4.16.27l.19,4.67Z"/>
            <g>
              <path class="cls-74" d="M145.87,168.65c.1,1.52-.89,3.44-.03,4.93.42.72,2.35.5,2.94.1-.09,1.32-.05,2.76.1,4.42.07.72,1.47.67,2.01.72l-.03,12.13-2.64.43-.31,4.09c-1.44.43-2.94.35-4.69.25l-.43,4.39c-1.44.26-2.75-.12-4.14.39l-.23,3.97c-3.32.29-6.59.01-9.91-.18-2.28-.13-3.69-1.18-5.49-2.13-1.45-.77-3.09-.93-3.88-2.32.21-1.33.06-2.7-.01-4.04l-.27-5.3-15.68-.36.23-21.25,30.93-.15c.54-1.92.72-3.47.64-5,2.44-.02,5-.26,7.53-.82.36-1.67-.27-3.22.36-4.3.73-.26,2.68-.45,2.87.58.62,3.29-.08,6.41.11,9.45Z"/>
              <path class="cls-71" d="M119.26,182.93c-.7.92-.08,5.75-.93,6.06-.46.17-1.09.28-1.5.08-.89-.44-.12-1.96-.58-3.88-.2-.84-1.09-.6-1.65-1.19-.41-.42.02-1.33.14-1.63.15-.38,1.01-.43,1.65-.78-.35-1.87-.47-3.39,1.31-4.42.48-.28.44-1.48,1.32-1.38.5.06,1.31-.3,1.74.36.28.43.34,1,.15,1.52s-2.47-.42-2.67,1.12c-.05.35.32.96.61,1.07,1.27.5,2.06-2.16,2.98-1.51.62.43.74.98.76,1.39.07,1.14-1.41.66-1.71,1.04l-1.62,2.14Z"/>
            </g>
          </g>
        </g>
        <g>
          <path class="cls-80" d="M81.93,285.47c.28.06.75-.06.91.07.2.16-.68,5.66-.62,5.42-.45,1.74-1.55,3.06-1.5,4.97.06,2.45-1.61,4.47-1.25,6.9,2.19.38,5.99.2,7.91.06-1.17.91-.21,5.61-1.27,6.24-.49.28-2.04-.02-2.68.27-.55,1.98-.69,4.62-.39,6.96.87-1.38,1.51-2.66,3.64-2.5l.63-4.13c1.08.1,1.93.06,2.58-.4.37,4.05-2.66,7.06-5.74,9.68-1.98,1.68-.92,5.19-1.57,7.61-.31,1.13-2.46,1.53-1.65,3.6.14.37-.31.96-.49,1.2s-1.25-.11-1.66.09c-.48,2.12-.44,4.95-.18,7.15,2.33-.07,4.62-.81,6.15.51s1.93,4.11,3.62,5.3c.95.67,2.22.37,2.3,2.07.06,1.1.54,2.41.2,3.36-1,.04-2.01.21-3.01-.02l-.21-4.22-4.56-.4c-.3-1.56.03-2.99-.41-4.41-1.78-.31-3.33-.12-4.79.17-.83.16-2.21-.12-2.97-.44l-.36-9.07c-7.77-.32-2.83-1.42-6.6-1.42-1.17,0-.5-1.85-.77-2.5,1.13-.28,3.35-.67,4.91-.46.27-1.33.86-3.1.21-4.15-1.85-.25-5.06-.14-7.22-.32-.07-.65-.91-10.15,1.5-8.08.3.26.66.27.99-.08.25-.26.38-.37.4-.77.04-1.31-.28-2.86.31-4.26.34-.51,1.78-.42,2.27-.29.36.13.48-.04.52-.4.44-3.32-.55-5.94,1.57-5.95.85,0,1.68.28,3.03-.05.09-4.93,1.44-8.41,1.71-12.77.37-.12.9-.54.64-.99,1.16-.2.04-1.48.15-2.11.28-1.53,2.5-1.72,3.77-1.45Z"/>
          <path class="cls-103" d="M140.89,264.68c.31-.11.84-.06,1.03.23.1.15.31.34.34.8l.61,8.71c1.23.41,2.42.17,3.68.42.53,1.19.07,2.68.96,3.51.6.37,2.02.41,2.67.71-1.98,4.69,10.15,2.9,12.06,2.99,4.63.22,6.93-.27,11.38.52.04.55.38,1.12.02,1.62-1.08.98-2.64.34-3.98.8-.73.26-1.99-.56-3.04-.45-4.56.45-8.81-.06-13.48-.54-.52-.05-.12,1.56-.17,2.03-.05.5,1.49.57,1.62,1.15l-.26,7.11c-.42-.14-1.09-.25-1.51-.28.1-2.85-2.03-5.71-4.64-6.81-1.78-.75.5-3.08-5.07-3.57-.62,1.46-.33,3.07-.02,4.82,5.29,2.96.92,2.04,3.76,4.01.47.36.12,1.34.7,1.69.68.42,1.59.03,2.26.31.22,6.71,4.64,1.47,4.31,8.41l4.07.98.39,5.02c1.84.43,3.77-.04,5.06.85-.6,1.5-.32,3.2-.16,5.11l5.65.36c0,1.37-.11,2.55.22,3.63.44,1.45.62,3.11,2.4,3.71,1.05.35,2.23.11,3.19.53.04,1.04-.44,3.33.59,4.08,4.21.63,8.8-.19,12.75,0,.16,0,.2-1.21.41-1.11.14.06.2.07.45.08-.1,1.26-.49,2.42-.48,4.18-3.02.64-5.77,1.11-9.06.97-.26,4.95-.9,9.61-.53,14.12l-3.35-.62-.19-2.84c-.05-.17-.11-.35-.07-.53.37-1.92.21-3.93.45-5.97.19-1.63-.97-6.68-1.07-6.79,1,1.12-5.67-3.38-5.54-2.96-1.35-10.94-5.66-3-6.57-10.95l-4.39-.95c-.05-.35-.14-.95-.56-1.06.16-1.03.58-2.08.36-3.28-3.8-.53-2.89.39-4.43-2.1-.07-1.29-.17-4.14-1.78-4.4-1.9-.31-2.08-.93-3.1-2.22-.79-.99-1.78-1.64-2.38-2.95-.53-1.16-6.15-.95-6.06-1.06-.72.85-.48,3.06-1.3,3.74-.37.31-.68-.23-1.09-.11l-.11-34.1c.98-.27.31-1.48.55-2.62,1.24.06,1.5,1.39,2.46,1.05Z"/>
          <path class="cls-93" d="M71.11,434.37c2.47.56,4.79,1.64,6.4,3.61.27.33.61.6,1.06,1.04,2.23,2.21.09,4.75,11.34,3.99l.22,13.28c.02,1.41-.04,2.91-.25,4.62l-11.89.18c-1.2.02-2.28,1.73-3.46,1.78l-34.26.07c-.51-1.35-.1-2.45-.43-3.52-.05-.17.1-.38.11-.55l26.49-.28c1.88-.02,3.86-1.41,5.54-2.1.26-2.74.6-.52,3.59-1.64,2.23-.83,4.67.04,7.14-.43.24-2.38.08-4.72-.07-7.09-.94-.37-1.7-.25-2.73-.36-1.5-.16-.02-2.64-1.45-3.68-.53-.38-1.31-.46-2-.3-.24-1.53-1.22-2.03-1.99-2.83-1.07-1.12-1.79-2.37-3.99-2.31l-7.43.18c-.6.01-1.28-.04-1.8-.35l.3-3c1.82.27,3.64-.19,5.48-.17,1.32.01,2.74-.46,4.08-.16Z"/>
          <path class="cls-177" d="M184.96,356.39c-.49-.01-.63.33-.84.57-.4.45.11,1.48.19,1.86-1.99,2.36-1.85,6.79-4.3,9.88-1.17,1.48-2.2,2.5-2.96,4.53-.89,2.38-9.43,1.66-12.33.86-1.34-.37-2.47-1.48-4.06-1.81-3.94-.81-2.61-4.62-3.32-6.21-.83-.83-2.42.1-3.33-.54-.21-.15-.09-.77-.21-.94-.2-.27-.47-.84-.93-.6.14-.22.29-.43.33-.7,1.66.16-.61-4.84.52-4.5h9.95c-.08,1.65,3.93.55,5.89,1.08l.38,3.57c1.43.06,3.26.51,4.42-.35.63-.78.07-2.28.3-3.21l4.12-.57c-.05-1.84.48-3.59.45-5.42l-.14-8.03c.93-.02,3.77-.16,4.01.89,2.46,7.75,1,3.03,1.86,9.64Z"/>
          <path class="cls-33" d="M66.57,368.77l.6-.06c1.76,1,1.16,3.4,2.21,5.04,2,3.12,4.97,8.42,10.67,6.02,3.62-1.52,7.07-3.4,10.36-5.12.1.68-.3,1.33-.11,2.01-1.31-.2-1.13,1.43-1.82,1.7l-8.05,3.09c-1.99.77-3.81,1.57-5.97,1.83l-2.58,34.46c-.3,4.01-.91,7.65-.89,11.36-1.01-.2-2.14-.32-3.31.15.26,1.92.32,3.75-.65,5.27-1.83-.02-3.66.44-5.48.17-.84-1.28-.42-3.71.99-4.58s2.46-1.25,3.77-1.47c.41-3.99.69-7.75.71-11.89l.18-40.03c0-.88-1.32-.65-1.5-1.09-.37-.87-1.26-7.92.87-6.86Z"/>
          <path class="cls-207" d="M185.44,434.15l6.99.97c-.23.79.47,1.73.06,2.51-1.2.57-2.7.36-4.02.39-5.61.15-9.28-1.85-10.63,2.94-1.76-.03-2.44,2.06-3.41,3.12-3.66,3.97-4.24.96-3.99,10.3,1.48.1,2.2,0,3.07-.09.44-.04.83.03,1.02.47.12.27.09.93.38,1.26.91,1.03,2.7.02,3.74.74.41.28-.03,1.94.95,1.94l27.67.05c.46,0,.5.45.61.61.17,1.06.15,2.14-.13,3.58l-33.02-.1c-.52,0-.39-1.5-.54-1.73l-9.81-.25-.16-4.41c-.16-4.46.2-8.97.15-13.43,9.49.29,8.05-2.17,9.56-4.46s3.96-3.58,6.56-4.14c1.5-.33,3.43-.5,4.95-.29Z"/>
          <path class="cls-105" d="M90.89,354.84c.89.23,2.14.38,3.03.95.82.52.79,2.15.78,2.93-.02,1.89-.25,3.78-.1,5.67-1.25.43-2.61.36-4.23.42-.36,1.65-.25,3.23-.16,5.07-3.66,3.87-8.53,4.94-13.75,4.76-6.91-.25-3.8-3.59-7.93-5.4.98-1,.23-1.88.16-2.94-.08-1.22-.61-1.52-1.56-1.59-.19-.01-.36-.28-.54-.01.31-.9-1.31-.78-1.53-1.36-.85-2.19-.41-4.49-.51-6.47.4.14.47-.52,1.03-.44,0,.94-.7,2.58.13,3.05,1.52.87,3.35.22,4.86.25.16,0,.32.08.47.07.2,1.27-.37,2.63.49,4.06l7.03-.39c.56-1.32.28-2.52.33-3.72,1.17.05,2.62-.09,4.05-.39s-.22-4.1,1.88-4.87c1.92.72,4.08-.14,6.06.37Z"/>
          <path class="cls-190" d="M182.56,303.23l.81,5.64c.25,1.75.15,3.57.84,5.35l4.8.4c-.03,4.08.4,7.81.11,11.5-.25-.02-.31-.02-.45-.08-.21-.09-.25,1.12-.41,1.11-3.94-.19-8.53.63-12.75,0-1.03-.75-.54-3.03-.59-4.08.83-1.3,2.87.16,4.18-.61.8-.47.62-3.09-.11-3.66-.44-.34-2.15.29-2.31-.38-.15-.6-.02-1.27-.27-1.8-.35-.76-1.54-1.55-2.31-1.94.78-1.81.24-3.92.2-6l-.19-10.24c-.1-5.08-2.4-9.23-4.45-13.44,1.34-.47,2.9.17,3.98-.8.45.69,1.01.52,1.4.76.6.37.89,1.89.77,2.46-.35,1.6.7,2.24,1.03,3.25,1.27,4.01,1.67,8.07,2,12.23l3.73.34Z"/>
          <path class="cls-3" d="M169.69,340.44c.82-.02,1.62.39,2.48.4.05.79-1,.57-1.69.69-.94.17-1.15,2.98-.29,3.24,1.67.51,3.75-.48,5.04.91.05-1.63-.72-2.95.29-3.74l.19,2.84,3.35.62.04.46.14,8.03c.03,1.84-.51,3.58-.45,5.42l-4.12.57c-.22.93.34,2.43-.3,3.21-1.16.86-2.99.41-4.42.35l-.38-3.57c-1.96-.53-5.97.58-5.89-1.09.07-1.54.17-3.03-.52-4.34-.1-1.55-.34-2.92-.85-4.19-.59-1.48,1.29-3.87-.08-5.24l3.49-4.46,3.97-.1Z"/>
          <path class="cls-116" d="M177.84,440.97c.04.6-.02,2.05.8,2.29,1.51.44,3.41-.64,4.44.68-.39,1.57.2,3.23.31,4.67.1,1.34-1.19,3.1-.6,4.77,2.12.86,4.52.07,6.5-.43,5.06,1.22,4.16.44,9.39-.55.2-.9.38-1.54,1.17-1.85.64-.27,1.32.02,1.98-.04,1.41-.12,2.84,1.06,3.09,2.41-.41-.25-1.32.39-1.02.82.58.84,1.23.73,1.78.66.78-.1,2.08-.23,2.23.98s-.09,2.21.44,2.99c.13.2.08.55-.06.72-.11.13-.13.34-.41.29-.1-.16-.15-.61-.61-.61l-27.67-.05c-.98,0-.53-1.66-.95-1.94-1.04-.71-2.83.29-3.74-.74-.29-.33-.26-1-.38-1.26-.19-.44-.59-.51-1.02-.47.44-3.39,1.22-6.78.92-10.22.97-1.05,1.66-3.15,3.41-3.12Z"/>
          <path class="cls-65" d="M76.46,443c.1.46-.71.53-.92,1.05l.04,10.8c-2.99,1.11-3.33-1.1-3.59,1.64-1.69.68-3.66,2.08-5.54,2.1l-26.49.28c.07-1.39-.18-2.82.1-4.37,1.04-.43,2.3-.27,3.04-.82.49-2.73,3.03-3.37,5.05-3.3.74.72.17,1.4-.22,2.96,5.27.39,10.34.02,15.89-.28.7-1.36.15-2.8.65-4.32,2.44.09,4.53.39,6.98-.02.21-1.76.01-3.34.02-5.34.54-.39,1.27-.15,2-.37.28-1.09.66-1.97,1.01-2.85.77.81,1.75,1.3,1.99,2.83Z"/>
          <path class="cls-198" d="M188.04,428.18l-.2.78c-.26,1.03-.52.1-2.36.15-.68.02-1.32-.3-1.98-.38l-.49-11.06.46-32.99c1.31-.18,2.13.11,3.34-.3-.24-3.8,1.6-15.88-1.73-16.1.09-.15.45-.03.36-.37,1.06,1.22,2.81.59,4.27,1.49.8,3.16,1.07,17.4.13,18.54l-1.82,2.21c-.72.87-.34,34.58.03,38.04Z"/>
          <path class="cls-67" d="M183.94,364.2c-.41-.14-.57.36-.47.81.06.26.27.39.52.27.4.75,1.3.57,1.48.98.21.46.23,1.34-.03,1.64.09.33-.27.21-.36.37-.28.49-1.71,0-2.1.51-3.22,4.23-4.7,9.61-9.46,11.39-.96.36-2.74.46-3.5.12l-9.35-4.18c-2.31-1.03-4.48-2.26-6.86-2.17,1.03-.04-6.67,0-4.66-.65-.13-7.37.75.91.7-9.06.98-.25,2.02-.27,3.03-.24.46-.24.73.33.93.6.12.17,0,.79.21.94.91.64,2.49-.29,3.33.54.71,1.59-.62,5.4,3.32,6.21,1.59.33,2.72,1.43,4.06,1.81,2.9.81,11.44,1.52,12.33-.86.76-2.02,1.78-3.05,2.96-4.53,2.45-3.09,2.31-7.52,4.3-9.88-.08-.38-.59-1.41-.19-1.86.21-.24.35-.58.84-.57,0-.04.16,7.56-1.02,7.81Z"/>
          <path class="cls-194" d="M101.25,374.1c-.19-.03-.51-.16-.8.03-.15.1-.45,0-.32.43-1.5-.94-3.49-.25-5.25-.74-1.98-.54-3.17.15-4.46.83-3.29,1.72-6.75,3.6-10.36,5.12-5.7,2.4-8.67-2.9-10.67-6.02-1.05-1.64-.45-4.04-2.21-5.04.1-.5-.17-.98-.12-1.5.05-.63-.18-1.32.05-1.94.08-.22.29-.35.04-.58.95.08,1.48.38,1.56,1.59.07,1.06.82,1.94-.16,2.94,4.13,1.81,1.01,5.16,7.93,5.4,5.22.19,10.09-.89,13.75-4.76-.09-1.84-.21-3.42.16-5.07,1.62-.06,2.98,0,4.23-.42.06.73.94.77,1.13,1.18.23.51-.61,1.76-.31,2.14,1.25,1.63,3.99.31,5.32.91,1.05.47,1.73,1.91,3.48.95-.1,1.74.21,2.95-.22,4.23-1.26-.06-2.41-.49-2.76.31Z"/>
          <path class="cls-179" d="M74.47,440.17c-.35.88-.73,1.76-1.01,2.85-.73.22-1.46-.02-2,.37,0,1.99.19,3.58-.02,5.34-2.44.42-4.54.12-6.98.02-.5,1.53.06,2.96-.65,4.32-5.55.3-10.62.67-15.89.28.39-1.56.97-2.25.22-2.96-.59-.57.47-1.1.28-1.73.12.27.28.16.41.24.33.18.7-.27,1-.31l9.76-1.12c1.8-.67,2.18-3.54,3.37-4.56,1.25-.87,2.67-2.75,1.71-4.32-.34-.25-2.06.38-1.63-.55l7.43-.18c2.2-.05,2.92,1.2,3.99,2.31Z"/>
          <path class="cls-1" d="M188.47,438.03c.24.52-.32.53-1.06.75.2,1.33.51,2.53.86,3.87l5.99-.06c1.08-.01,2.34.19,3.54.48.2,1.39-.45,3.04.61,3.91.82.68,2.7-.36,3.42.47.67.78-.06,2.22-.01,3.04-.66.06-1.34-.23-1.98.04.44-.17.76-1.34.38-1.57-.42-.26-1.13-1.32-1.76-1.38-2.7-.25-5.52.53-8.66.02-.55-1.39-.73-2.72-1.17-4.41-1.99.05-4.19-.6-5.56.73-1.03-1.32-2.93-.23-4.44-.68-.82-.24-.75-1.69-.8-2.29,1.35-4.79,5.01-2.79,10.63-2.94Z"/>
          <path class="cls-149" d="M77.87,341.03l-.1,3.86-6.08.58c-1.02,4.8-1.05,9.53-1.12,14.23-1.52-.03-3.35.62-4.86-.25-.82-.47-.12-2.11-.13-3.05-.56-.08-.62.59-1.03.44-.04-.89.3-1.27.65-2.12.72-1.72-.13-4.04,1.02-5.7.44-.64,1.49-.82,1.51-2.03.03-1.83,1.6-2.39,2.91-2.96.5-.41,0-2.1.85-2.51,1.21-.59,2.62.11,3.4-.93.76.32,2.14.6,2.97.44Z"/>
          <path class="cls-26" d="M57.66,442.54c-1.32.25,5.71.28,5.31.37-1.19,1.02-1.56,3.89-3.37,4.56l-9.76,1.12c-.3.03-.67.49-1,.31-.13-.07-.29.03-.41-.24-.08-.26-.92-.35-.48-.9.67-.83,3.99-.37,5.26-.76.99-.79.36-2.87.78-4.16,1.29-.36,2.55-.08,3.68-.29Z"/>
          <path class="cls-131" d="M192.43,435.12l-6.99-.97c-.08-1.68-.08-3.36.04-5.04,1.84-.04,2.1.89,2.36-.15l.2-.78c.84,1.18,2.67.87,3.83,2.11s.96,3.43.55,4.82Z"/>
          <path class="cls-19" d="M67.17,327.6c-.47.11-1.68-.08-1.93-.52-.83-1.48-.03-3.1-.16-4.4,2.16.18,5.37.07,7.22.32.65,1.05.06,2.82-.21,4.15-1.56-.22-3.78.18-4.91.46Z"/>
          <path class="cls-23" d="M63.05,438.04c-.44.93,1.28.3,1.63.55.96,1.57-.46,3.45-1.71,4.32.4-.09-6.63-.12-5.31-.37.25-1.07-.54-3.06.66-3.82.9-.57,2.62.22,2.93-1.03.52.31,1.2.36,1.8.35Z"/>
          <path class="cls-172" d="M194.27,442.59l-5.99.06c-.36-1.34-.67-2.54-.86-3.87.74-.23,1.3-.23,1.06-.75,1.32-.04,2.82.18,4.02-.39,2.38.58,1.49,3.19,1.78,4.95Z"/>
          <path class="cls-3" d="M205.67,454.4c-.55.07-1.2.18-1.78-.66-.29-.43.61-1.07,1.02-.82.09.47.73.94.76,1.48Z"/>
          <path class="cls-3" d="M67.07,184.05c.13-.34-.37-.64-.11-1.06.23,0,.62-.06.79.15.43.3.18.43-.16.6-.14.07-.37.2-.52.31Z"/>
          <path class="cls-3" d="M70.54,309.2c-.06-.34.24-.46.52-.4-.05.36-.16.53-.52.4Z"/>
          <path class="cls-3" d="M66.57,314.6c.24-.52,1-.45,1.39-.85-.01.4-.15.51-.4.77-.33.35-.69.33-.99.08Z"/>
          <path class="cls-3" d="M183.47,146.89c-.36-.04-.55-.16-.33-.56.38-.06.38.31.33.56Z"/>
          <path class="cls-3" d="M67.1,365.27c-.46.29-.62-.25-.5-.6.17-.26.35,0,.54.01.25.23.04.37-.04.58Z"/>
          <path class="cls-3" d="M67.17,368.71l-.6.06c.05-.54-.3-1.56.48-1.56-.04.51.23,1,.12,1.5Z"/>
          <path class="cls-3" d="M183.99,365.28c-.25.13-.46-.01-.52-.27-.1-.45.06-.96.47-.81l.05,1.08Z"/>
          <path class="cls-212" d="M164.23,253.84c.15,1.59.69,3.36.47,4.98-3.43-.35-6.84.15-10.49.35.14,1.47-.85,3.23-.28,4.38s6.61.56,7.92,1.38.78,2.95.74,4.47c.2.86,4.5-.6,3.62,1.27-1.45.08-3.33,0-4.37-.78,1.41,2.39-1.24-7.44-.16-4.43-.11-.32-8.21-.91-7.49-.75-3.66-.81-7.81-.02-6.83-1.09,1.07.15,2.02.05,3.68.08-.2-1.16.42-2.57-.12-3.58-.77-1.44-2.57-.81-3.66-.88-1.56-.1-3.12-.11-4.98,0-.38,1.58-1.16,2.81-2.59,3.86l1.2,1.58c-.96.34-1.22-.99-2.46-1.05-.24,1.14.43,2.35-.55,2.62l-.08-6c-.03-2.06-.96.37-6.36-.03-2.52-.19-5.07.72-5.78,4-3.65.04-7.24.21-11.14-.09-.96-.07-.31-1.72-.5-2.5-.26-1.07-2.4-1.6-3.39-1.38-.04-.72-.57-1.38-.46-2.23.08-.59.93-.57,1.47-.86s1.28-.15,1.86-.14c.45.01,1.01.16,1.11.5l.43,1.39c.41,1.32,7.63,1.73,8.83.82,1.4-1.06,2.61-1.36,3.91-2.21.9-.59,2.13.17,3.55-.44l.09-3.67c7.63.3,15.31.04,22.91-.54-3.9.3,12.76.38,9.9.98Z"/>
          <path class="cls-205" d="M164.7,258.82c1.19.12,2.39.35,3.92.39l.28,5.44,2.89.5c.36,4.03.56,7.8.4,11.51-2.84,1.26-6.39.54-9.49.51.36-.61-.3-1.51.18-2.09.84-1.01,3.05-.46,3.28-1.03.2-.5.57-1.02.41-1.42-.25-.63.41-1.54-.36-1.96.88-1.87-3.43-.41-3.62-1.27.04-1.52.52-3.68-.74-4.47s-7.37-.26-7.92-1.38.42-2.91.28-4.38c3.65-.19,7.06-.7,10.49-.35Z"/>
          <path class="cls-145" d="M164.23,253.84c2.86-.6-13.79-.68-9.9-.98-.33-1.03.49-2.68-.24-4.01-1.3-1.41-7.05.6-7.16-1.95,3.76-.05,7.52.16,11.45-.24l.2-3.1c-.42-.73-1.32-.44-1.39-1.09.54-.04,1.35.21,1.65-.43,1.47.52,5.74-.93,6.3,2.5.13.81.93,9.65-.91,9.29Z"/>
          <path class="cls-55" d="M173.62,282.57c-4.45-.79-6.75-.3-11.38-.52.18-1.69-.43-3.38.47-4.88,3.1.03,6.65.75,9.49-.51l3.55.68c.78.95.54,3.39.02,4.49-.25.52-1.77.34-2.15.74Z"/>
          <path class="cls-180" d="M90.86,285.52c-2.2,1.16-.29,5.25-2.17,9.27-.8,1.71-.3,3.07,1.16,4,.02,1.2.1,2.66-.67,3.85-.32.5-1.37.22-1.81.25-1.92.14-5.72.32-7.91-.06-.36-2.42,1.31-4.45,1.25-6.9-.05-1.91,1.05-3.23,1.5-4.97-.06.25.82-5.25.62-5.42-.16-.13-.63,0-.91-.07.06-.4.44-.59.59-.94,1.59,2.36,8.25-1.84,8.34.99Z"/>
          <path class="cls-15" d="M91.74,258.82c-.12-1.54-.47-3.49.94-4.47.79.15,1.75,0,2.17-.52,4.13-.95,9.24-.16,13.48-.43.55,1.16.26,2.84-.6,3.43-2.01-.51-3.61.68-4.13,2.33l-11.86-.35Z"/>
          <path class="cls-140" d="M97.57,280.44c.37.84-.16,1.85-.22,2.71-.68.14-1.93-.58-2.13.1l-.47,1.62c-.34,1.16-2.72.27-3.89.65-.09-2.83-6.75,1.37-8.34-.99.33-.75.33-1.6.38-2.41,4.88-.55,9.78-1.63,14.67-1.69Z"/>
          <path class="cls-78" d="M97.8,279.07c.2.58-.5.76-.23,1.37-4.89.06-9.79,1.14-14.67,1.69-.11.01-.25-.09-.39-.09.22-.54.27-2.17.96-2.31,2.16.06,4.02-.45,5.95-.66-1.39.15,10.3-.71,8.38.01Z"/>
          <path class="cls-195" d="M90.88,350.93c0-.3-.12-.78-.03-1.02.35-.95-.14-2.25-.2-3.36-.09-1.71-1.35-1.4-2.3-2.07-1.69-1.19-2.04-3.93-3.62-5.3s-3.82-.58-6.15-.51c-.26-2.2-.3-5.03.18-7.15.42-.21,1.48.16,1.66-.09s.63-.83.49-1.2c-.8-2.07,1.35-2.47,1.65-3.6.65-2.42-.41-5.93,1.57-7.61,3.08-2.62,6.11-5.64,5.74-9.68.19-.32.78-1.13.47-1.54,1.24.68,7.58-6.66,5.98-7.46.73-.68.83-1.9,1.01-2.89,1.01-.03,1.42,1.31,1.44,2.5.13,14.42.25,28.57-.41,43.07.07-1.5-2.59,6.34-2.51,5.43-.14,1.67-1.5,2.47-3.02,2.05-.88-.24-1.46.05-1.95.44Z"/>
          <path class="cls-72" d="M87.85,349.88c-.43,1.07-2.11.39-2.76,1.16-.81.95-.78,2.49-.25,3.43-2.09.77-.42,4.56-1.88,4.87s-2.88.44-4.05.39c-2.6-.11-5.24-.24-7.84.05-.15.02-.32-.06-.47-.07.07-4.71.1-9.44,1.12-14.23l6.08-.58.1-3.86c1.46-.28,3.02-.48,4.79-.17.44,1.42.11,2.85.41,4.41l4.56.4.21,4.22Z"/>
          <path class="cls-34" d="M103.3,283.53c-1.13.18-2.14-.31-3.8-.22l-.97,5.63c3.24-.3,3.15,1.29,4.95.12.18,5.25.31,10.52.17,15.78,0-2.69-.82-5.62-.62-8.64-2.08-.08-3.54-.15-5.44,0-.21.4-.2.98-.25,1.24-.17.99-.27,2.2-1.01,2.89-1.51-.37-2.14,1.41-3.49,2.08-.41.2-1.43-.34-1.71-.07-.74.72-1.48,4.53-.78,5.46.31.41-.28,1.22-.47,1.54-.65.46-1.51.5-2.58.4l-.63,4.13c-2.13-.16-2.76,1.12-3.64,2.5-.29-2.34-.16-4.98.39-6.96.64-.3,2.19.01,2.68-.27,1.07-.62.11-5.33,1.27-6.24.44-.03,1.48.24,1.81-.25.77-1.19.68-2.65.67-3.85,1.66-.29,2.3-1.5,2.24-3.37-.03-.9.18-1.75-.74-2.35.91-.62,1.56-.41,2.43-.75l1.3-4.69c2.62-.31,2.15-2.87,2.27-4.47.06-.85.6-1.87.22-2.71-.27-.61.43-.79.23-1.37.32-.09,1.04-.12,1.17-.59.27-1,.28-1.96.36-2.85,1.51-.33,3.1.02,4.38-.92-.28,2.93.43,6.01-.4,8.84Z"/>
          <path class="cls-155" d="M90.86,349.9c-.09.24.02.72.03,1.02.03,1.3.31,2.64,0,3.92-1.99-.52-4.14.35-6.06-.37-.52-.94-.55-2.48.25-3.43.66-.77,2.33-.09,2.76-1.16,1,.23,2.01.06,3.01.02Z"/>
          <path class="cls-185" d="M137.89,266.25l.11,34.1-.1,30.32c-.99.68-2.14-.12-3.47-.06-.89.04-1.6.71-2.59-.06-.33,1.96-.31,3.67-.93,5.35l-15.86.27c-2.39.04-5.87.44-6.76-.69l.17-4.76c-1.98.02-3.3-.65-4.8-1.18l-.02-24.71c.14-5.25.01-10.53-.17-15.78-.06-1.84.62-3.8-.18-5.53.83-2.83.12-5.91.4-8.84.46-4.71.39-9.4.34-14.61,1.5-.18,2.81.27,4.07.66.05,1.26.48,2.42.48,4.03l-.02,57.78c0,1.83,7.38.95,6.6,4.66l11.99-.27c.39-4.15,3.61-.97,3.62-4.83l.19-57.93c.98-1.33.17-2.72.47-3.96,5.4.4,6.33-2.03,6.36.03l.08,6Z"/>
          <path class="cls-84" d="M153.69,307.35c-1.05.44-3.09.36-3.9,1.44-.52.69-1.57,1.32-1.94,1.95-1.34,2.29-1.38,13.79-1.14,16-.11.9-1.45.74-1.96,1.3-1.34,1.45.98,3.72-1.83,4.72-.88,10.13,1.88,4.05,3.59,9.77l2.01,6.74c.18.59.17,1.26.63,1.61,2.13,1.65,2.44-.68,5.03.16.38,5.95-1.11,2.72-.46,7.75-1.13-.33,1.14,4.67-.52,4.5.14-1.08-.17-2.11-.1-3.5l-3.28.02c-2-.03-.05-4.69-1.83-7.63-1.17-.57-2.66-.33-3.74-1.14-.42-.32-.33-1.24-.39-1.59-.26-.79.49-2.11-.44-2.51-.17-1.35.31-2.86-.52-4.04-.69-.97-1.97-.51-3-.38-1.93-.38-.39-6.56-1.97-6.93l-.04-4.92.1-30.32c.41-.12.71.42,1.09.11.82-.68.57-2.89,1.3-3.74-.09.11,5.52-.1,6.06,1.06.6,1.31,1.6,1.96,2.38,2.95,1.02,1.29,1.2,1.92,3.1,2.22,1.61.26,1.7,3.11,1.78,4.4Z"/>
          <path class="cls-12" d="M169.65,284.99c2.05,4.21,4.35,8.36,4.45,13.44l.19,10.24c.04,2.08.58,4.19-.2,6-.79-.4-3.32.86-3.58-.46l-.92-4.86c.88-1.47.27-4.46-.98-5.78-.63-.67-2.66.07-3.02-.74-.09-1.04-1.6-.91-2.21-1.61-2.77-3.21-.67-.64-4.84-2.33-.02,0-.33-3.08-1.44-3.92-.73-.55-2.05-.45-2.79-.69l.26-7.11c-.13-.58-1.67-.65-1.62-1.15.05-.47-.35-2.08.17-2.03,4.67.48,8.92.98,13.48.54,1.05-.1,2.3.71,3.04.45Z"/>
          <path class="cls-120" d="M157.76,312.74c.41.12.51.72.56,1.06.35,2.39.28,4.53,1.66,4.21.26-.06.06-.27.49-.83-.1.88.86.86,1.22,1.49.59,1.03.28,3.69,1.62,4.22,1.7.67,2.03,1.05,2.49,2.86.37,1.49,1,3.39,1.26,5.09.08.54,1.86.18,2.06.68-.26-.66,1.41,8.91.57,8.92l-3.97.1c.04-.69-.07-1.69-.81-1.67-4,.11-.96,2.13-4.33,2.69-.67-.07-.29-1.15-.36-1.73-3.5-.26-3.17-5.87-3.7-8.97l-2.32-.33c-.46-6.14-.73-12.29-.5-18.73,1.65-.07,2.83.59,4.06.94Z"/>
          <path class="cls-178" d="M153.69,307.35c1.54,2.49.63,1.57,4.43,2.1.21,1.21-.2,2.26-.36,3.28-1.23-.35-2.41-1-4.06-.94-.23,6.45.04,12.6.5,18.73-.69.51-.1,9.12.05,9.35,1.35,1.97,2.85,3.43,4.44,5.51.83-1.63.83-3.08,1.88-3.83,3.37-.56.33-2.58,4.33-2.69.74-.02.85.98.81,1.67l-3.49,4.46c-1.38.58-3.05-.08-4.17,1.06-.78.79-2.63,1.4-3.57.98-2.89-1.31-4.14-3.31-4.64-6.02-.84-4.53-1.82-8.8-2.16-13.26-.09-.36-.92-.65-.96-1.02-.24-2.21-.21-13.71,1.14-16,.37-.63,1.42-1.26,1.94-1.95.81-1.08,2.85-1,3.9-1.44Z"/>
          <path class="cls-193" d="M175.44,341.42c-1.01-.53-2.16-.57-3.28-.58-.85,0-1.66-.42-2.48-.4.85-.02-.83-9.59-.57-8.92-.2-.5-1.98-.14-2.06-.68-.25-1.7-.88-3.6-1.26-5.09-.45-1.82-.79-2.2-2.49-2.86-1.35-.53-1.03-3.18-1.62-4.22-.36-.63-1.32-.61-1.22-1.49-.43.56-.23.77-.49.83-1.38.32-1.31-1.82-1.66-4.21l4.39.95c.9,7.94,5.22,0,6.57,10.95-.13-.42,6.53,4.08,5.54,2.96.1.11,1.26,5.16,1.07,6.79-.24,2.04-.07,4.05-.45,5.97Z"/>
          <path class="cls-126" d="M147.26,259.23c-.21,1.14-.08,2.32-.03,3.48-2.03,1.4,1.29,4.34-.84,7.41-1.28-.08-1.32.83.1.36,3.54,2.53,3.09,5.07,7.25,3.67,3.07,2.38,1.89-.63,4.81.7-.24.83-.14,2.57-.55,3.55-2.89.8-6.1.19-7.83.67-.65-.3-2.07-.34-2.67-.71-.89-.83-.43-2.32-.96-3.51-1.26-.25-2.45,0-3.68-.42l-.61-8.71c-.03-.46-.24-.65-.34-.8-.19-.29-.71-.34-1.03-.23l-1.2-1.58c1.43-1.05,2.21-2.28,2.59-3.86,1.86-.12,3.42-.1,4.98,0Z"/>
          <path class="cls-163" d="M166.57,272.62c.16.4-.2.92-.41,1.42-.23.57-2.44.02-3.28,1.03-.48.58.19,1.48-.18,2.09-.9,1.5-.29,3.19-.47,4.88-1.92-.09-14.04,1.7-12.06-2.99,1.73-.48,4.94.13,7.83-.67.41-.97.31-2.71.55-3.55-2.92-1.33-1.74,1.68-4.81-.7-.05-1.49.01-2.98.48-4.4,1.25.21,3.46-.85,4.45.43.88,1.14-.39,2.6.01,4.26,2.25-.59,4.58-.59,7.04-.76.29-.02-.28-.92.12-1.03.21-.06.43-.1.72-.02Z"/>
          <path class="cls-183" d="M152.81,294.01c.42.03,1.09.14,1.51.28.75.25,2.06.14,2.79.69,1.11.84,1.42,3.91,1.44,3.92,4.17,1.69,2.07-.88,4.84,2.33.61.7,2.11.57,2.21,1.61-2.33.49-5.28-.05-7.41,1.02l-4.07-.98c.33-6.95-4.1-1.7-4.31-8.41.69-.79,2-.52,3-.46Z"/>
          <path class="cls-176" d="M165.6,302.84c.36.81,2.39.07,3.02.74,1.25,1.33,1.86,4.31.98,5.78-1.99.43-4.09-.4-5.96.37-1.29-.89-3.22-.42-5.06-.85l-.39-5.02c2.13-1.08,5.08-.54,7.41-1.02Z"/>
          <path class="cls-119" d="M169.6,309.36l.92,4.86c.25,1.32,2.79.06,3.58.46s1.96,1.19,2.31,1.94c-.27-.12-.46-.01-.6.11-.23.2-.31.57-.47.86-1.23,2.23-2.84.26-6,1.25-.33-1.08-.23-2.26-.22-3.63l-5.65-.36c-.16-1.91-.44-3.62.16-5.11,1.88-.78,3.97.06,5.96-.37Z"/>
          <path class="cls-132" d="M176.42,316.62c.25.53.12,1.21.27,1.8.16.67,1.87.04,2.31.38.74.57.92,3.19.11,3.66-1.3.77-3.35-.69-4.18.61-.96-.42-2.14-.18-3.19-.53-1.78-.6-1.96-2.26-2.4-3.71,3.17-.99,4.78.98,6-1.25.15-.28.24-.65.47-.86.14-.12.33-.23.6-.11Z"/>
          <path class="cls-92" d="M148.17,287.2l-1.32,5.26c-2.85-1.97,1.53-1.05-3.76-4.01-.32-1.75-.61-3.35.02-4.82,5.56.49,3.28,2.82,5.07,3.57Z"/>
          <path class="cls-166" d="M152.81,294.01c-1.01-.06-2.31-.33-3,.46-.66-.28-1.58.11-2.26-.31-.58-.36-.23-1.34-.7-1.69l1.32-5.26c2.61,1.09,4.74,3.96,4.64,6.81Z"/>
          <path class="cls-57" d="M175.44,341.42c-.03.18.02.36.07.53-1.02.79-.24,2.11-.29,3.74-1.29-1.4-3.36-.4-5.04-.91-.86-.26-.65-3.07.29-3.24.69-.12,1.74.1,1.69-.69,1.12.01,2.27.05,3.28.58Z"/>
          <path class="cls-118" d="M90.3,376.66l5.27.8c-.55,2.46-.39,4.96-.7,6.94l-.71,4.59c-.14.91-2.37.33-3.41.43l-.79,4.66-3.74.4c0,1.95-.51,3.54-1.06,5.25-1.8,5.57-2.74,11.55-4.3,17.41-2.37,8.91-1.72,11.33-2.02,20.28-.03.32-1.24.31-1.33.53-1.61-1.97-3.93-3.06-6.4-3.61.16-.31-.02-.78-.33-1.05.53-1.26.89-2.85.21-4.21-.02-3.71.59-7.36.89-11.36l2.58-34.46c2.16-.26,3.98-1.07,5.97-1.83l8.05-3.09c.69-.27.51-1.9,1.82-1.7Z"/>
          <path class="cls-123" d="M100.12,374.56c-.21,6.69.69,13.47-.47,20.32l-3.4.25c-.96.07-.3,2.27-.59,3.13-1.29,3.87-1.41,7.81-1.62,11.83-.46.94-2.32.31-3.37.79-.65.29-1.1,4.85.19,4.55.12.3-.14.5-.44.45-1.36-.27-3.28-1.05-4.63-.14-.37,2.65-1.49,17.2-.04,17.9,1.22.59,3.33-.4,4.23.88l-.07,8.5c-11.26.76-9.11-1.77-11.34-3.99-.45-.45-.79-.71-1.06-1.04.09-.22,1.3-.22,1.33-.53.3-8.95-.35-11.37,2.02-20.28,1.56-5.86,2.5-11.84,4.3-17.41.55-1.71,1.07-3.3,1.06-5.25l3.74-.4.79-4.66c1.03-.11,3.27.48,3.41-.43l.71-4.59c.31-1.98.15-4.48.7-6.94l-5.27-.8c-.19-.68.22-1.33.11-2.01,1.29-.68,2.47-1.37,4.46-.83,1.77.48,3.75-.21,5.25.74Z"/>
          <path class="cls-140" d="M75.58,454.85l-.04-10.8c.2-.52,1.02-.59.92-1.05.7-.16,1.47-.09,2,.3,1.44,1.04-.05,3.52,1.45,3.68,1.03.11,1.79-.01,2.73.36.15,2.37.32,4.71.07,7.09-2.47.47-4.9-.4-7.14.43Z"/>
          <path class="cls-210" d="M70.99,429.11c.68,1.36.32,2.94-.21,4.21.32.27.49.74.33,1.05-1.34-.3-2.76.17-4.08.16.96-1.52.91-3.35.65-5.27,1.17-.47,2.3-.36,3.31-.15Z"/>
          <path class="cls-109" d="M157.76,349.96c.72,1.43,0,3.1.52,4.7,1.66-.07,4.46.6,4.88-.22.69,1.31.6,2.8.52,4.34h-9.95c-.66-5.02.84-1.79.46-7.74.91-.89,2.26-1.06,3.57-1.08Z"/>
          <path class="cls-184" d="M153.21,363.3c-.03.27-.18.48-.33.7-1.01-.03-2.05-.01-3.03.24l-.02-4.42,3.28-.02c-.08,1.39.23,2.42.1,3.5Z"/>
          <path class="cls-203" d="M170.02,380.3c.2.89,0,1.82.08,2.69,1.46,15.4,4.19,30.98,5.88,46.61.13,1.17-1.48,2.44-2,3.33-.38.66-1.36,6.57-.04,5.64-1.51,2.3-.07,4.76-9.56,4.46l-.1-8.96c1.47-.36,2.95.13,4.67-.61.13-6.28.29-12.27-.62-18.33-1.67.02-2.92.1-4.19.34.08.86.15,1.34-.35,1.3-.03-.56-.32-.95-.61-1.41,1.34.63.58-4.12.2-4.46-.48-.44-1.4-.22-2.31-.47,2.09-5.49-3.37-5.03-3.67-15.02l-3.11-.98c-.84-6.64-1.86-14.53-.47-20.5,2.38-.09,4.55,1.14,6.86,2.17l9.35,4.18Z"/>
          <path class="cls-2" d="M179.03,429.59c.72,2.16-.32,3.77,1.46,4.85-2.6.57-5.06,1.85-6.56,4.14-1.32.93-.34-4.98.04-5.64.52-.9,2.13-2.16,2-3.33.88-.59,2.26-.79,3.06-.02Z"/>
          <path class="cls-186" d="M185.48,429.11c-.12,1.68-.12,3.36-.04,5.04-1.52-.21-3.45-.03-4.95.29-1.78-1.08-.74-2.7-1.46-4.85.38-.36.87-.64,1.38-.64,1.04,0,2.11.16,3.09-.22.66.08,1.3.4,1.98.38Z"/>
          <path class="cls-110" d="M173.51,454.3c-.87.08-1.59.19-3.07.09-.25-9.35.33-6.33,3.99-10.3.3,3.44-.48,6.83-.92,10.22Z"/>
          <path class="cls-187" d="M103.65,304.84l.02,24.71c0-1.53-1.07,8.02,1.1,6.5.33,1.42-.84,5.85,1.04,5.64,1.14,8.79-2.67,8.28-3.87,9.42-2.42,2.29-2.65,6.17-4.2,7.74-.98-.25-2.08-.47-3.03-.12,0-.78.04-2.4-.78-2.93-.9-.57-2.15-.72-3.03-.95.3-1.28.02-2.61,0-3.92.49-.39,1.07-.69,1.95-.44,1.51.42,2.88-.38,3.02-2.05-.08.92,2.58-6.92,2.51-5.43.66-14.5.54-28.65.41-43.07-.01-1.19-.43-2.53-1.44-2.5.05-.26.03-.83.25-1.24,1.9-.15,3.36-.08,5.44,0-.2,3.02.62,5.95.62,8.64Z"/>
          <path class="cls-40" d="M97.74,358.84c2.96.76,3.26-.14,6.01.09.41,8.24-.94,4.23-1.42,5.53-.53,1.46-.48,2.96-.14,4.26.06.25-.32.52.3.53.29,0,.53.04.73-.14l1.95.19c.15,1.78-.13,3.34.09,4.9-1.34-.05-2.69.12-4.02-.08.35-.8,1.5-.36,2.76-.31.43-1.28.12-2.49.22-4.23-1.76.96-2.43-.47-3.48-.95-1.33-.6-4.07.72-5.32-.91-.29-.38.54-1.64.31-2.14-.19-.41-1.07-.46-1.13-1.18-.15-1.89.08-3.78.1-5.67.95-.35,2.05-.13,3.03.12Z"/>
          <path class="cls-133" d="M78.9,359.73c-.05,1.19.23,2.4-.33,3.72l-7.03.39c-.85-1.43-.28-2.79-.49-4.06,2.6-.29,5.24-.16,7.84-.05Z"/>
          <path class="cls-61" d="M162.31,350.25c.51,1.28.75,2.64.85,4.19-.42.82-3.22.15-4.88.22-.52-1.61.2-3.28-.52-4.7-.16-.32,0-.67.36-.54.87,1.33,2.77,1.08,4.18.83Z"/>
          <path class="cls-169" d="M162.23,345c1.37,1.37-.51,3.76.08,5.24-1.42.25-3.31.5-4.18-.83l-.07-3.36c1.12-1.14,2.79-.48,4.17-1.06Z"/>
          <path class="cls-14" d="M199.85,450.54c-.79.31-.97.95-1.17,1.85-5.23.99-4.33,1.77-9.39.55-1.03-1.07-.97-2.52-.99-4.25-1.86-.41-3.41.06-4.91-.09-.1-1.44-.7-3.1-.31-4.67,1.37-1.33,3.57-.68,5.56-.73.44,1.68.62,3.02,1.17,4.41,3.14.51,5.96-.27,8.66-.02.64.06,1.34,1.12,1.76,1.38.38.23.06,1.4-.38,1.57Z"/>
          <path class="cls-46" d="M189.29,452.94c-1.97.5-4.37,1.29-6.5.43-.6-1.67.69-3.43.6-4.77,1.51.14,3.05-.33,4.91.09.01,1.74-.04,3.18.99,4.25Z"/>
          <path class="cls-49" d="M183.5,428.73c-.98.38-2.06.22-3.09.22l-5.49-45.85c-1.75.44-3.26.1-4.83-.1-.08-.87.12-1.81-.08-2.69.76.34,2.54.24,3.5-.12,4.76-1.78,6.24-7.17,9.46-11.39.39-.52,1.83-.02,2.1-.51,3.33.22,1.49,12.3,1.73,16.1-1.21.41-2.03.12-3.34.3l-.46,32.99.49,11.06Z"/>
          <path class="cls-135" d="M153.81,373.95c-1.39,5.98-.37,13.86.47,20.5l3.11.98c.3,9.98,5.76,9.53,3.67,15.02.91.25,1.82.03,2.31.47.38.34,1.14,5.09-.2,4.46-.75.02-2.61.54-3.22-.25-.78-1.02-.14-2.61-.34-3.82-.1-.61-1.01-.55-1.05-.85l-.6-5.2c-.77-.19-1.44-.11-2.42-.22-.57-1.67-.28-3.32-.54-5.06-.83-.41-1.77-.16-2.82-.52l-1.13-5.35c-.58-.26-1.17-.2-2.02-.45.08-1.72-.7-3.29-.73-5.08l-.25-13.9c-.01-.83.61-1.2,1.1-1.38-2.01.64,5.69.61,4.66.65Z"/>
          <path class="cls-192" d="M101.25,374.1c1.33.2,2.69.03,4.02.08.84,5.98.42,12.36-.19,18.79-.21,2.17-1.19,4.13-.6,6.49l-4.98.26-.4,4.63c-.05.59-1.19.62-1.35,1.02-.61,1.5,0,3.16-.52,4.71-.79.25-1.54.08-2.53.28l-.37,4.96c-1.39.09-2.45.24-3.48.11-1.29.3-.84-4.25-.19-4.55,1.05-.47,2.91.15,3.37-.79.21-4.01.33-7.96,1.62-11.83.29-.87-.37-3.06.59-3.13l3.4-.25c1.15-6.85.25-13.64.47-20.32-.12-.43.18-.33.32-.43.29-.19.61-.06.8-.03Z"/>
          <path class="cls-184" d="M137.94,335.59c1.58.37.04,6.56,1.97,6.93.06.57-.67.77-.53,1.22.2.69.71.81,1.66.57.77.65.1,1.87,1.77,2.32-.44-1.42-.1-2.55.1-3.73.83,1.18.35,2.68.52,4.04-.48-.21-.77-.83-1.37-.16-.27.3.11,1.08-.71,1.14-1.81.13-1.03,2.88-1.94,3.89-.8.88-1.62,1.88-1.61,2.98-1.9.36-4.32.58-6.5.62-.84.01-6.61,2.18-9.34,2.72-.78-2.09-2.59-1.23-3.6-1.56-3.28-1.08-6.79-1.04-9.65.92-.76-.87-1.67-1.18-2.03-2.1-.07-.47.11-1.04-.11-1-.47.1-1.02-.42-1.28-.13.51-.81,1.17-1.71,1.43-2.84l2.87-.62c.55-2.63,1.13-5.42.61-7.93.95-1.16,3.96.03,4.35-.92.78-1.92.12-3.97.51-5.79l15.86-.27c2.33-.04,4.74.31,7.03-.3Z"/>
          <path class="cls-47" d="M164.27,434.08c-.06-5.77-.16-11.55-.5-17.3.51.03.43-.45.35-1.3,1.27-.24,2.53-.32,4.19-.34.91,6.06.75,12.06.62,18.33-1.72.74-3.2.25-4.67.61Z"/>
          <path class="cls-32" d="M90.42,415.87c.7,1.64-.29,3.49-.3,5.37l-.13,13.27c-.9-1.28-3-.29-4.23-.88-1.46-.7-.33-15.25.04-17.9,1.35-.91,3.27-.13,4.63.14Z"/>
          <path class="cls-89" d="M110.2,342.88c.52,2.51-.05,5.3-.61,7.93l-2.87.62c-.26,1.13-.92,2.03-1.43,2.84-.25-.04-.55.03-.58.36-.02.26-.02.53.02.78.07.46,0,.92-.03,1.38,0,.18.04.38-.02.56-.03.69-.29,1.48-.93,1.58-2.76-.23-3.05.67-6.01-.09,1.54-1.56,1.78-5.44,4.2-7.74,1.2-1.14,5.02-.63,3.87-9.42,1.41-.2,3.34.12,4.39,1.19Z"/>
          <path class="cls-184" d="M143.87,349.46c-1.06-.39-.34-1.7-.44-2.51.93.4.19,1.73.44,2.51Z"/>
          <path class="cls-184" d="M104.73,355.41c-.04-.25-.04-.52-.02-.78.03-.33.32-.4.58-.36-.19.21-.01.61-.07.84-.05.21-.19.51-.48.3Z"/>
          <path class="cls-184" d="M103.23,369.1c-.2.18-.45.15-.73.14-.62-.02-.24-.29-.3-.53.4.02.91-.13,1.03.39Z"/>
          <path class="cls-184" d="M104.68,357.35c.06-.18,0-.37.02-.56.65-.06.62.62-.02.56Z"/>
          <path class="cls-28" d="M144.3,243.34c.95,0,1.76-.14,2.5.62-.03.98.09,1.96.13,2.94-1.21.01-2.34.12-3.83.3.07,2.57-5.07,4.62-5.83,4.21-.34-.19-.81-.55-.87-1.23-.03-.38.84-.65.72-1.03-2.21-2.78-3.59-1.26-6.05-1.34l-.05-3.8c4.41.37,8.88-.68,13.29-.67Z"/>
          <path class="cls-102" d="M116.58,248.59c-1.92.83-1.59,3.79-1.13,5.68-.48.24-.89-.31-1.51-.08.17,1.27-.19,2-.44,2.83-.58-.01-1.32-.15-1.86.14-.7-1.12-.81-7.39-1.21-7.64-.22-.14-.65.23-1.61.34l.22-4.95c.02-.34.24-.58.44-.43.45.09,1.63-.34,2.04.15.39,1.38.58,2.72.3,4.24.53-.37.68-1.24,2.18-.62,1.95-4.85,1.63-3.73,3.62-4.56.15,1.04,1.35,1.09,2.04,1.47.45.25.4,1.21.01,1.51-1.77,1.38-.58-1.2-2.72.71-.29.26-.56.65-.37,1.23Z"/>
          <path class="cls-147" d="M146.93,246.9c.11,2.55,5.86.54,7.16,1.95.73,1.33-.08,2.97.24,4.01-7.6.58-15.28.84-22.91.54-.07,2.82-.62-8.18-.95-5.16-.08-.33.32-.44.59-.43,2.46.08,3.84-1.44,6.05,1.34.12.38-.76.65-.72,1.03.06.68.53,1.05.87,1.23.76.41,5.9-1.64,5.83-4.21,1.5-.18,2.63-.29,3.83-.3Z"/>
          <path class="cls-209" d="M130.47,248.23c.34-3.02.89,7.98.95,5.16l-.09,3.67c-1.41.61-2.65-.16-3.55.44-1.3.86-2.51,1.15-3.91,2.21-1.2.91-8.42.5-8.83-.82l-.43-1.39c-.1-.34-.66-.49-1.11-.5.25-.83.6-1.56.44-2.83.62-.23,1.03.32,1.51.08.4,1.64,2.61,2.1,4.09,1.96l4.42-.41c.46.27,1.01.92,1.79.3-.76.59,3.08-7.88,2.02-7.2-.65.64-.88.27-.78-.3.06-.37-.08-.79.43-.79.8.77,2.03,0,3.05.41Z"/>
          <path class="cls-182" d="M147.36,263.61c-.98,1.08,3.17.28,6.83,1.09-.27,1.66-.2,3.37.03,5.04-.47,1.42-.53,2.91-.48,4.4-4.15,1.41-3.71-1.13-7.25-3.67-1.42.47-1.38-.44-.1-.36,2.13-3.07-1.19-6.01.84-7.41.02.31.39.62.13.9Z"/>
          <path class="cls-157" d="M166.21,270.67c.76.41.1,1.32.36,1.96-.3-.08-.52-.04-.72.02-.4.11.17,1.01-.12,1.03-2.46.17-4.78.17-7.04.76-.4-1.66.87-3.12-.01-4.26-.99-1.28-3.2-.22-4.45-.43-.24-1.66-.3-3.38-.03-5.04-.73-.16,7.37.43,7.49.75-1.08-3.01,1.57,6.82.16,4.43,1.04.79,2.92.86,4.37.78Z"/>
          <path class="cls-42" d="M147.36,263.61c.26-.29-.11-.6-.13-.9-.06-1.15-.19-2.33.03-3.48,1.09.07,2.89-.56,3.66.88.54,1.01-.08,2.43.12,3.58-1.66-.03-2.61.07-3.68-.08Z"/>
          <path class="cls-60" d="M157.19,242.47c.07.65.97.36,1.39,1.09l-.2,3.1c-3.93.4-7.69.19-11.45.24-.04-.98-.16-1.96-.13-2.94-.02-.65.76-.86,1.51-.91l8.89-.57Z"/>
          <path class="cls-114" d="M97.83,274.2c.5.48,1.2.78,1.5,1.42-.08.89-.09,1.85-.36,2.85-.13.47-.85.5-1.17.59,1.92-.72-9.77.14-8.38-.01.07-.79-.69-2.59.19-3.19,1.31-.89,3.16-.08,4.74-.37.62-.11.55-.81.89-.96.67-.29,1.93-.96,2.58-.34Z"/>
          <g>
            <path class="cls-4" d="M109.48,244.46c-.2-.15-.42.09-.44.43l-.22,4.95c.97-.1,1.39-.48,1.61-.34.4.25.51,6.52,1.21,7.64-.55.29-1.4.27-1.47.86-.11.85.42,1.52.46,2.23-.75.16-1.53.81-2.52.5-1.26-.39-2.57-.85-4.07-.66.05,5.21.12,9.9-.34,14.61-1.28.94-2.87.59-4.38.92-.3-.64-1-.94-1.5-1.42.39-.14,1.37.15,1.71-.22.59-1.36.68-2.55.7-4.07-1.83-.26-3.39-.36-5.14.04.12,1.7-.45,3.21.15,4.58-.35.15-.28.85-.89.96-1.58.28-3.44-.53-4.74.37-.88.6-.12,2.4-.19,3.19-1.93.21-3.79.72-5.95.66-.7.14-.74,1.78-.96,2.31-.86-.02-1.71-.03-2.8-.24-.31-1.54-.47-2.91-.1-4.51,1.38-.3,2.55-.08,3.86-.69l.95-11.39c1.42-.45,2.82-.02,4.04-.75l.36-5.25c1.23.13,2.07-.41,2.9-.38l11.86.35c.52-1.65,2.12-2.84,4.13-2.33.86-.59,1.15-2.27.6-3.43-4.24.27-9.34-.52-13.48.43-.7-.07-1.49-.1-2.17.11-.48.15-.99-.19-1.32-.43-1.52-1.09.63-6.15.36-5.16.5-1.86-.33-3.91.38-5.76l6.16-.6c-1.19,1.39,11.12,1.09,11.22,2.46Z"/>
            <path class="cls-79" d="M94.85,253.83c-.42.51-1.38.67-2.17.52-.21-.12-.17-.26,0-.41.68-.21,1.47-.18,2.17-.11Z"/>
            <path class="cls-143" d="M97.83,274.2c-.65-.62-1.9.04-2.58.34-.61-1.37-.04-2.88-.15-4.58,1.74-.41,3.31-.31,5.14-.04-.02,1.52-.11,2.71-.7,4.07-.33.37-1.31.08-1.71.22Z"/>
            <path class="cls-157" d="M100.6,269.13l-3.91.02c-.07-1.37-.13-3.16.38-4.31.37-.82,3.02-.69,3.45.11.57,1.11.07,2.95.08,4.18Z"/>
          </g>
          <path class="cls-129" d="M97.35,283.14c-.12,1.6.35,4.16-2.27,4.47l-1.3,4.69c-.87.34-1.52.13-2.43.75.92.61.71,1.46.74,2.35.06,1.87-.58,3.08-2.24,3.37-1.46-.92-1.96-2.28-1.16-4,1.88-4.01-.03-8.11,2.17-9.27,1.17-.38,3.55.51,3.89-.65l.47-1.62c.2-.68,1.45.03,2.13-.1Z"/>
          <path class="cls-62" d="M96.33,300.32c1.61.81-4.73,8.14-5.98,7.46-.69-.93.04-4.73.78-5.46.28-.27,1.29.28,1.71.07,1.35-.67,1.98-2.46,3.49-2.08Z"/>
          <path class="cls-130" d="M103.3,283.53c.79,1.73.11,3.69.18,5.53-1.8,1.17-1.71-.42-4.95-.12l.97-5.63c1.66-.08,2.67.4,3.8.22Z"/>
          <path class="cls-170" d="M115.05,336.17c-.39,1.82.27,3.87-.51,5.79-.39.95-3.4-.24-4.35.92-1.05-1.07-2.98-1.39-4.39-1.19-1.89.21-.71-4.22-1.04-5.64,1.17-.29,2.6.53,3.53-.56.89,1.13,4.36.73,6.76.69Z"/>
          <path class="cls-51" d="M137.9,330.67l.04,4.92c-2.3.61-4.71.26-7.03.3.63-1.68.6-3.39.93-5.35.99.77,1.69.1,2.59.06,1.33-.06,2.48.74,3.47.06Z"/>
          <path class="cls-25" d="M108.3,335.48c-.93,1.09-2.36.27-3.53.56-2.17,1.53-1.1-8.03-1.1-6.5,1.49.53,2.82,1.2,4.8,1.18l-.17,4.76Z"/>
          <path class="cls-211" d="M158.06,346.06l.07,3.36c-.37-.13-.52.22-.36.54-1.31.02-2.66.19-3.57,1.08-2.59-.84-2.91,1.49-5.03-.16-.46-.35-.46-1.02-.63-1.61l-2.01-6.74c-1.71-5.72-4.47.36-3.59-9.77,2.81-1,.49-3.27,1.83-4.72.51-.56,1.86-.39,1.96-1.3.04.37.87.66.96,1.02.34,4.47,1.32,8.73,2.16,13.26.5,2.7,1.75,4.71,4.64,6.02.94.43,2.8-.19,3.57-.98Z"/>
          <path class="cls-108" d="M160.58,341.56c-1.06.75-1.06,2.2-1.88,3.83-1.6-2.09-3.1-3.54-4.44-5.51-.16-.23-.75-8.84-.05-9.35l2.32.33c.53,3.1.2,8.71,3.7,8.97.08.58-.31,1.66.36,1.73Z"/>
          <path class="cls-44" d="M180.41,428.95c-.51,0-1,.28-1.38.64-.8-.76-2.18-.57-3.06.02-1.69-15.63-4.42-31.21-5.88-46.61,1.57.2,3.08.53,4.83.1l5.49,45.85Z"/>
          <path class="cls-201" d="M127.42,247.82c-.51,0-.37.42-.43.79-.1.57.14.95.78.3,1.07-.68-2.78,7.8-2.02,7.2-.79.61-1.34-.04-1.79-.3.57-2.61.45-5.23.05-7.84-.16-1.01.7-2.65,1.04-3.47.58.22,1.77-.11,2.01.58.34.98-.14,1.98.35,2.74Z"/>
          <g>
            <path class="cls-82" d="M131.45,260.22c-.3,1.24.51,2.63-.47,3.96l-.19,57.93c-.01,3.86-3.24.68-3.62,4.83l-11.99.27c.78-3.71-6.6-2.83-6.6-4.66l.02-57.78c0-1.61-.42-2.77-.48-4.03.99.31,1.76-.34,2.52-.5,1-.22,3.13.31,3.39,1.38.19.78-.46,2.43.5,2.5,3.9.3,7.49.13,11.14.09.72-3.27,3.27-4.18,5.78-4Z"/>
            <path class="cls-171" d="M114.3,320.62c-.91-.63-2.76-.62-2.75-2.38l.15-43.51c.43-.54,1.9-.32,2.01-.96l.74-4.31,2.32-1.46c3.3-.35,6.72-.15,10.4,0,.64,1.85.18,3.63.17,5.67l-.21,49.84-12.16.29c-.61-.96.25-2.18-.68-3.19Z"/>
          </g>
          <g>
            <path class="cls-13" d="M124.01,247.97c.4,2.61.52,5.23-.05,7.84l-4.42.41c-1.48.14-3.7-.32-4.09-1.96-.46-1.88-.79-4.84,1.13-5.68,2.38-1.02,4.9-.57,7.43-.61Z"/>
            <path class="cls-68" d="M121.97,249.73c1.18,1,.03,2.41-.71,2.72-.98.41-3.24-.22-2.97-1.56.3-1.45,2.69-1.99,3.67-1.15Z"/>
          </g>
        </g>
      </g>
    </g>
  </g>
</svg>