<?xml version="1.0" encoding="UTF-8"?>
<svg id="_レイヤー_2" data-name="レイヤー 2" xmlns="http://www.w3.org/2000/svg" viewBox="0 0 320.94 512">
  <defs>
    <style>
      .cls-1 {
        fill: #b6827c;
      }

      .cls-2 {
        fill: #dbdce7;
      }

      .cls-3 {
        fill: #b1aece;
      }

      .cls-4 {
        fill: #fefeff;
      }

      .cls-5 {
        fill: #f8cfa2;
      }

      .cls-6 {
        fill: #f6cdbc;
      }

      .cls-7 {
        fill: #a39fba;
      }

      .cls-8 {
        fill: #847a8b;
      }

      .cls-9 {
        fill: #b2adc4;
      }

      .cls-10 {
        fill: #8982a6;
      }

      .cls-11 {
        fill: #aaa3ba;
      }

      .cls-12 {
        fill: #eaeaef;
      }

      .cls-13 {
        fill: #e5aca5;
      }

      .cls-14 {
        fill: #f7c899;
      }

      .cls-15 {
        fill: #c0beda;
      }

      .cls-16 {
        fill: #9189a6;
      }

      .cls-17 {
        fill: #857da3;
      }

      .cls-18 {
        fill: #c7c4d8;
      }

      .cls-19 {
        fill: #d1d2e1;
      }

      .cls-20 {
        fill: #98757b;
      }

      .cls-21 {
        fill: #766a86;
      }

      .cls-22 {
        fill: #d2d1df;
      }

      .cls-23 {
        fill: #6a607d;
      }

      .cls-24 {
        fill: #c6c4d6;
      }

      .cls-25 {
        fill: #b3aec5;
      }

      .cls-26 {
        fill: #aaa5be;
      }

      .cls-27 {
        fill: #f7cb9c;
      }

      .cls-28 {
        fill: #928ba6;
      }

      .cls-29 {
        fill: #d09782;
      }

      .cls-30 {
        fill: #a6a5c0;
      }

      .cls-31 {
        fill: #fbe0cb;
      }

      .cls-32 {
        fill: #807998;
      }

      .cls-33 {
        fill: #f8cfa0;
      }

      .cls-34 {
        fill: #9690b0;
      }

      .cls-35 {
        fill: #8b85a7;
      }

      .cls-36 {
        fill: #bab7cd;
      }

      .cls-37 {
        fill: #daa585;
      }

      .cls-38 {
        fill: #88778b;
      }

      .cls-39 {
        fill: #b2afc8;
      }

      .cls-40 {
        fill: #b9b6cb;
      }

      .cls-41 {
        fill: #fff;
      }

      .cls-42 {
        fill: #a8807e;
      }

      .cls-43 {
        fill: #aca7c1;
      }

      .cls-44 {
        fill: #7f779a;
      }

      .cls-45 {
        fill: #c9c6d8;
      }

      .cls-46 {
        fill: #d8d9e5;
      }

      .cls-47 {
        fill: #fadec9;
      }

      .cls-48 {
        fill: #fce3d0;
      }

      .cls-49 {
        fill: #9f97b2;
      }

      .cls-50 {
        fill: #eab8ac;
      }

      .cls-51 {
        fill: #b1857e;
      }

      .cls-52 {
        fill: #c3c0d3;
      }

      .cls-53 {
        fill: #93737d;
      }

      .cls-54 {
        fill: #f1b78c;
      }

      .cls-55 {
        fill: #7b708c;
      }

      .cls-56 {
        fill: #8c84a6;
      }

      .cls-57 {
        fill: #ebb5ac;
      }

      .cls-58 {
        fill: #b4b1cf;
      }

      .cls-59 {
        fill: #bf937b;
      }

      .cls-60 {
        fill: #c6c3d7;
      }

      .cls-61 {
        fill: #8e8094;
      }

      .cls-62 {
        fill: #f7ca98;
      }

      .cls-63 {
        fill: #8a839e;
      }

      .cls-64 {
        fill: #9f98b3;
      }

      .cls-65 {
        fill: #ac8381;
      }

      .cls-66 {
        fill: #f7d7a9;
      }

      .cls-67 {
        fill: #ad8480;
      }

      .cls-68 {
        fill: #a7a4bf;
      }

      .cls-69 {
        fill: #f0f1f5;
      }

      .cls-70 {
        fill: #bdbbd2;
      }

      .cls-71 {
        fill: #ecb5ab;
      }

      .cls-72 {
        fill: #cbcae1;
      }

      .cls-73 {
        fill: #fce1c9;
      }

      .cls-74 {
        fill: #938497;
      }

      .cls-75 {
        fill: #dddee8;
      }

      .cls-76 {
        fill: #cd9782;
      }

      .cls-77 {
        fill: #f7de92;
      }

      .cls-78 {
        fill: #968faa;
      }

      .cls-79 {
        fill: #eebaaf;
      }

      .cls-80 {
        fill: #7c738f;
      }

      .cls-81 {
        fill: #efcb81;
      }

      .cls-82 {
        fill: #fbe2cc;
      }

      .cls-83 {
        fill: #84778d;
      }

      .cls-84 {
        fill: #93747e;
      }

      .cls-85 {
        fill: #fbe3cb;
      }

      .cls-86 {
        fill: #9790ab;
      }

      .cls-87 {
        fill: #f6e89a;
      }

      .cls-88 {
        fill: #8f8295;
      }

      .cls-89 {
        fill: #f7c798;
      }

      .cls-90 {
        fill: #d9dbe5;
      }

      .cls-91 {
        fill: #bfbbcf;
      }

      .cls-92 {
        fill: #c89281;
      }

      .cls-93 {
        fill: #756a86;
      }

      .cls-94 {
        fill: #ccd;
      }

      .cls-95 {
        fill: #f4c6b5;
      }

      .cls-96 {
        fill: #ceccdd;
      }

      .cls-97 {
        fill: #e4ba78;
      }

      .cls-98 {
        fill: #c7c7d9;
      }

      .cls-99 {
        fill: #95767f;
      }

      .cls-100 {
        fill: #92737d;
      }

      .cls-101 {
        fill: #dfe0e9;
      }

      .cls-102 {
        fill: #8f6f7a;
      }

      .cls-103 {
        fill: #a29cb7;
      }

      .cls-104 {
        fill: #7f7699;
      }

      .cls-105 {
        fill: #aeacc5;
      }

      .cls-106 {
        fill: #9f97b1;
      }

      .cls-107 {
        fill: #938ba9;
      }

      .cls-108 {
        fill: #958ea9;
      }

      .cls-109 {
        fill: #fbe4d0;
      }

      .cls-110 {
        fill: #8d86a8;
      }

      .cls-111 {
        fill: #a8a4c5;
      }

      .cls-112 {
        fill: #c6c4d5;
      }

      .cls-113 {
        fill: #cf9d87;
      }

      .cls-114 {
        fill: #a6a1c2;
      }

      .cls-115 {
        fill: #b98c80;
      }

      .cls-116 {
        fill: #827289;
      }

      .cls-117 {
        fill: #f8d3a6;
      }

      .cls-118 {
        fill: #a88280;
      }

      .cls-119 {
        fill: #f8d2c1;
      }

      .cls-120 {
        fill: #7f6f87;
      }

      .cls-121 {
        fill: #f8e297;
      }

      .cls-122 {
        fill: #bbb9cf;
      }

      .cls-123 {
        fill: #c5c2d4;
      }

      .cls-124 {
        fill: #d1a48e;
      }

      .cls-125 {
        fill: #f9dcaf;
      }

      .cls-126 {
        fill: #a47e7d;
      }

      .cls-127 {
        fill: #95727a;
      }

      .cls-128 {
        fill: #756983;
      }

      .cls-129 {
        fill: #faedc6;
      }

      .cls-130 {
        fill: #e2e3eb;
      }

      .cls-131 {
        fill: #a78180;
      }

      .cls-132 {
        fill: #f8cc9c;
      }

      .cls-133 {
        fill: #faf0c4;
      }

      .cls-134 {
        fill: #a9a5c3;
      }

      .cls-135 {
        fill: #938db2;
      }

      .cls-136 {
        fill: #cfcedd;
      }

      .cls-137 {
        fill: #f0f2f4;
      }

      .cls-138 {
        fill: #e7e8ef;
      }

      .cls-139 {
        fill: #877e9d;
      }

      .cls-140 {
        fill: #d4d3e1;
      }

      .cls-141 {
        fill: #b17e7c;
      }

      .cls-142 {
        fill: #98747c;
      }

      .cls-143 {
        fill: #9690b3;
      }

      .cls-144 {
        fill: #ae8380;
      }

      .cls-145 {
        fill: #96727c;
      }

      .cls-146 {
        fill: #9c98bb;
      }

      .cls-147 {
        fill: #837a9b;
      }

      .cls-148 {
        fill: #94747e;
      }

      .cls-149 {
        fill: #f8cf9d;
      }

      .cls-150 {
        fill: #91737b;
      }

      .cls-151 {
        fill: #e8e9ee;
      }

      .cls-152 {
        fill: #fbf8d8;
      }

      .cls-153 {
        fill: #776e8c;
      }

      .cls-154 {
        fill: #d8d7e4;
      }

      .cls-155 {
        fill: #ab8280;
      }

      .cls-156 {
        fill: #d1d1df;
      }

      .cls-157 {
        fill: #f0f0f2;
      }

      .cls-158 {
        fill: #f8ce9f;
      }

      .cls-159 {
        fill: #fbe1cf;
      }

      .cls-160 {
        fill: #867fa2;
      }
    </style>
  </defs>
  <g id="_レイヤー_1-2" data-name="レイヤー 1">
    <g id="_生成オブジェクト" data-name="生成オブジェクト">
      <path class="cls-140" d="M61.57,509.57c-1.85-2.32-14.41-.74-18.47-1.52-6.73-1.29-10.98,1.13-11.16-2.31-.19-3.71,16.81-1.22,17.83-2.33,1.63-1.3,3.27-3.29,6.02-3.29h4.35c.53,0,1.46-.56,1.57.02l.29,1.54c.3,1.6,2.4,2.24,1.74,4.47-.34,1.15-.66,1.97-.29,3.1.34,1.05.71,1.64,2.4,2.08-.87.72-2.14.93-2.69.25l-1.6-2.01Z"/>
      <path class="cls-66" d="M63.35,110.42c2.4-.24,2.68-7.51,1.96-9.35-.32-.81,1.16-2.5.02-3.21-2.99-1.89-2.97.19-5.03-1.27.33-1.36.05-2.62.6-3.76.49-1.02,2.27-.69,2.88-.25.68.48.5,1.71.92,2.38,1.23,1.92,3.37,2.35,4.76,4.17-.1,3.66,0,7.41-.37,11.27-.08.79-5.28,1.88-5.74.01Z"/>
      <path class="cls-129" d="M63.35,110.42c-.27-1.07-1.52-1.42-2.09-2.42-.75-1.32-.86-2.59-2.31-3.51-1.33-.84-1.77-2.59-1.24-4.37.42-1.39,2.11-2.22,2.58-3.53,2.06,1.46,2.04-.62,5.03,1.27,1.14.72-.34,2.4-.02,3.21.73,1.84.44,9.11-1.96,9.35Z"/>
      <path class="cls-62" d="M40.29,62.05c-1.21.78-3.83,1.04-4.84.2-1.15-4.01-.66-8.16-.24-12.18,1.69-.56,3.29-.31,4.96.28.6,3.75.56,7.27.13,11.7Z"/>
      <path class="cls-140" d="M320.34,507.66c-2.01-.25-3.84.37-5.76-.12-1.13-.29-1.67-2.28-.84-2.97,2.03-1.7,4.26-.36,6.66.31.96.27.47,1.36-.05,2.78Z"/>
      <path class="cls-5" d="M43.18,103.88c1.27,1.2.04,4.03.47,5.72-2.57-.81-3.17-2.03-3.48-4.55-.12-.96,1.64-2.46,3-1.16Z"/>
      <path class="cls-68" d="M297.23,56.39c.83.99.53,2.99-.06,3.4-.71.48-2.84.39-3.6-.09s-.5-2.72.02-3.42c.55-.74,2.98-.68,3.64.11Z"/>
      <g>
        <g>
          <path class="cls-27" d="M18.29,122.61c-.1.54.38.38,1.12.57-.8,3.55-1.77,3.14-4.77,3.87-.93,1.99-.05,10.56-.98,11.85-1.11,1.54-4.37-1.14-4.74,1.88-.67,5.45.27,10.85-1.09,16.07-.83,3.18.13,6.28-.17,9.31-.14,1.48-1.29,4.38-.14,5.65s2.26,1.54,2.01,3.83c-.29,2.72-.02,5.67-.53,8.49l4.32,1.52c1.25.44.41,3.1,1.66,3.93.72-.05,1.23-.13,1.48-.08.64.13.67.65.58,1.2-1.86-.04-4.14.49-4.52,2.49-.64.09-1.37.1-1.92-.21-.71-.4-.6-1.26-.72-1.96l-.97-5.59c-4.15.54-6.7-5.86-6.37-5.74l-1.92-.73c-.17-.06-.47-.71-.47-1.49l-.16-30.09c1.59-.27,2.75.04,4.23-.37l.33-8.49,4.41-.73.07-10.7,4.76-.52.53-3.64c1.4-.54,2.73-.05,3.95-.33Z"/>
          <path class="cls-144" d="M45.54,273.64v-.61s.2-5.04.2-5.04c.12-2.9-3.93,3.24-.82-12.23-1.53-.96-3.3-.4-4.87-.49-.03-.47-.23-.88-.55-.97-.36-.1-.73-.2-1.02-.26-.26-.47.34-.49.65-1.17-1.12-.24-2.18.31-3.14-.33,1.03-.76,1.66-.17,2.69-.42.56-5.98,1.08-11.9.36-17.42-1.86-1.26-2.99-4.84-2.25-5.45l2.14-1.76c-.23-1.64-.32-3.54,1.43-3.88,1.09-.21,2.41.43,3.86.06l.82,24.07,4.61,1.14c1.07,6.74.61,14.72,1.1,21.55.06.84,1.4,2.26,1.94,2.42l2.69.78c.54.16,1.95,5.72-.45,6.31-1.86.46-3.69.5-5.5.55-.55-1.23-.15-2.34-.41-3.75-.16-.87-1.62-.58-2.01-1.31s-.58-1.92-1.49-1.82Z"/>
          <path class="cls-89" d="M44.73,190.25c-2.6,1.76-8.92.73-9.27,1.61-.48,1.22.82,3.01.18,3.84-.26.33-1.01.44-1.43.71.31-1.43-5.07,1.56-6.69-1.23.88-.98.96-1.34-.2-1.19.39-1.9-1.82-2.48-3.55-2.27-1.91.23-3.65-1.02-5.49-.92-.06-.8.62-.67,1.01-.67.43,0,1.07.13,1.64.19l6.17.61c1.54.15,3.58-.7,5.31-.76l6.7-7.63c.65-.74,2.55.67,2.79-.9.94-6.16,2.34-2.01,2.09-4.37l-.24-2.27c-.13-1.19.24-1.87-.65-2.46.74-.02,1.63-1.09,2.37-.69,1.08.58,4.27,1.21,4.46-.52.55-4.96.26-9.58.21-14.01l5.67.57.03,19.63c-1.66.44-3.19.04-4.49.73-1.94,1.03,1.03,1.75-2.85,6.74-.69.89-2.93-.29-3.38.94-.51,1.39-.2,3-.39,4.35Z"/>
          <path class="cls-33" d="M50.15,157.3c.05,4.44.34,9.05-.21,14.01-.19,1.73-3.39,1.1-4.46.52l-.53-18.96-4.61-.68c-1.69-1.11-.64-3.91-.63-5.7.03-5.29.11-10.25-.38-15.11,1.64-.15,3.31-.46,5.32.22l.28,10.95,5.04.36.18,14.39Z"/>
          <path class="cls-20" d="M39.47,217.81c-1.37-.65-3.89-.47-5.41.22-.74.79-.51,3.94.4,4.68,1.45,1.19,3.97.31,5.33-.19.35.18.59.63.59,1.1-1.75.33-1.65,2.24-1.43,3.88l-2.14,1.76c-.74.61.39,4.19,2.25,5.45.72,5.52.2,11.43-.36,17.42-1.03.25-1.66-.34-2.69.42.96.64,2.02.09,3.14.33-.32.68-.91.7-.65,1.17-.93-.12-1.9.06-3.17-.25-.66-6.48-.18-12.9-.2-19.54l-2.76-.52c-.29-1.85-.09-3.6-.09-5.64l-3.44-1.04c-.4-3.52.5-7.08-.6-10.06-1.34-.08-2.98.36-3.53-.66-.26-.48.05-1.31-.13-2,.68-.04,1.09.88,1.96,1.04s1.12-1.07,1.5-1.61l10.94-.04c.97,1.51.36,2.79.5,4.07Z"/>
          <path class="cls-126" d="M58.76,304.68c2.49,2.75-.92-.32.92,6.9.61,2.39.01,12.89,2.6,13.34,1.02.18,1.76-.58,1.57-1.83-.12-.81-.42-1.69.8-1.96-1.04,2.36.71,3.85.93,5.72.73,6.16,2.54,9.23,1.74,11.77-.62,1.95.64,4.2.44,6.46,1.53.12,2.52-.24,3.69-.3-.24.44.26,1.63-.48,1.86-2.57.52-4.81.2-7.18,0l-1.4-9c-.1-.67-.02-1.25-.45-1.56-.31-.23-.81-.17-1.21-.38.11-1.22,1.57-.05,2.18-.9-.39-1.29-1.75-.74-2.94-1.04-1.74-3.5.88-14.4-4.28-16.07-.77.7-.42,2-1.3,2.24-.25-2.16-.64-4.47-1.23-6.66-1.41.09-2.8.46-3.62-.18-.94-.75-.74-2.11-.88-3.14.66.31,6.36.73,6.91-.1.71-1.06-.14-3.66.74-4.63.59-.66,1.69-.69,2.43-.54Z"/>
          <path class="cls-117" d="M35.29,123.07c-.64,1.26-.69,3.31-1.19,4.44.24-2.98-3.69.9-3.62-3.22l.46-27.16c0-.34.06-.67.03-1.01-.05-.58-.98,0-1.34-.42-1.13-1.32-1.94-5.46.68-7.07.8-.49,1.42-.25,2.68-.09.82.11,1.16-1.52,1.31-2.12l2.75.65c.95,3.79-.49,7.09-1.11,10.7-1.41,8.21-1.71,17.14-.65,25.29Z"/>
          <path class="cls-47" d="M58.2,298.43c1.97,1.3,1.42,4.3.56,6.25-.74-.15-1.84-.12-2.43.54-.88.97-.03,3.57-.74,4.63-.55.83-6.25.41-6.91.1-2.03-.95-5.1-3.42-3.98-5.76.8-1.67,1.71-3.38.54-5.72l12.95-.05Z"/>
          <path class="cls-92" d="M44.73,190.25c-.15,1.03-.18,2.15-.12,3.18-.6-.12-.98.25-1.41.53.12-.08-.1,6.97-.12,7.64,2.06,1.51-12.13.86-12.12.86-6.25-.48-4.27,1.29-10.79.38-5.72,1.04,17.43-3.47,9.51-2.27l3.29-.5c.98-.15,1.34-2.43,1.23-3.66.41-.27,1.17-.38,1.43-.71.64-.83-.66-2.61-.18-3.84.35-.88,6.67.14,9.27-1.61Z"/>
          <path class="cls-14" d="M34.31,86.43c-.16.6-.49,2.22-1.31,2.12-1.26-.17-1.88-.4-2.68.09-2.61,1.61-1.81,5.75-.68,7.07.35.41,1.29-.16,1.34.42.03.34-.03.67-.03,1.01-1.39-1.49-3.23-.93-5.08-.71l-.54-17.96,7.57.16.51,3.88c.19,1.48,1.34,2.63.91,3.92Z"/>
          <path class="cls-31" d="M55.7,290.1l-8.29.07c-1.91.02-3.8.55-5.7.75.46-1.3-1.27-3.53.38-4.96,1.04-.9,2.69-.89,3.36-2.01l10.42.21c.34,2.14.35,4.16-.16,5.93Z"/>
          <path class="cls-158" d="M25.27,97.04c.1,0,.41.04.79.15l-.36,12.79-6.08.29c.12-4.17-.26-8.36.11-12.85,2.06-.53,3.86-.49,5.53-.37Z"/>
          <path class="cls-142" d="M45.55,273.03c-1.72-.41-3.66.03-5.36-.82l-.13-16.93c1.58.09,3.35-.47,4.87.49-3.11,15.47.93,9.33.82,12.23l-.2,5.04Z"/>
          <path class="cls-145" d="M60.74,335.71c-1.41-.3-2.9.21-4.59-.43l-1.74-15.34c.88-.24.53-1.54,1.3-2.24,5.16,1.67,2.53,12.57,4.28,16.07,1.19.3,2.55-.25,2.94,1.04-.61.84-2.07-.33-2.18.9Z"/>
          <path class="cls-50" d="M55.7,290.1c2.79,1.28,2.36,5.51,2.5,8.33l-12.95.05c1.16,2.34.25,4.05-.54,5.72-3.17-.55-2.17-3.56-2.41-5.81,1.33-.05,2.15-1.07,3.19-1.83,2.68.81,6.55.92,9.32.26,1.15-.79,1.35-4.61.23-5.37-2.52-1.69-6.08.46-7.72-.09-.23-.4.15-.76.09-1.17l8.29-.07Z"/>
          <path class="cls-149" d="M24.4,76.64c-.36,1.56-3.82,1.01-4.77.26l-.05-10.07c1.76-.48,3.29-.65,5.13-.2-.27,3.38.52,6.36-.32,10.02Z"/>
          <path class="cls-1" d="M19.45,194.52c-.27,2.73-.78,5.94.72,8.32-.82,1.13-.07,2.84-1.17,3.76-.15-.5.07-1.03-.4-1.28-.37-.19-.66-.37-.94-.07-4.68-4.21-2.86-1.81-3.12-10.71,1.61-.48,3.28.02,4.91-.03Z"/>
          <path class="cls-54" d="M17.05,190.69c.42,0,.81.13,1.23.11,1.84-.1,3.58,1.15,5.49.92,1.72-.2,3.94.37,3.55,2.27.25,1.45-5.32.45-7.87.53-1.63.05-3.3-.46-4.91.03.08-1.11-1.06-1.5-2.01-1.37.38-2,2.66-2.54,4.52-2.49Z"/>
          <path class="cls-141" d="M44.61,193.44c-.31,1.58,3.99-.39,4.13,1.73.17,2.53.02,4.72-.23,6.85-1.47-.69-3.8-.81-5.43-.4.02-.67.25-7.72.12-7.64.43-.29.81-.65,1.41-.53Z"/>
          <path class="cls-132" d="M39.33,131.38c-1.32.12-3.43.49-4.7-.62-.59-.52-.85-2.54-.53-3.25.51-1.13.55-3.18,1.19-4.44.94.14,3.39-.78,3.8.53.86,2.71,0,5.42.23,7.77Z"/>
          <path class="cls-6" d="M47.41,290.18c.06.41-.32.77-.09,1.17-2.97-1.01-1.17,2.09-1.83,5.2-1.04.76-1.86,1.79-3.19,1.83-.25-2.42-1.47-4.95-.58-7.45,1.89-.2,3.79-.73,5.7-.75Z"/>
          <path class="cls-4" d="M19.01,206.61c.06.2.27.42.05.63-.34-.16-1.39.27-1.39-.32v-1.66c.28-.29.57-.12.94.07.47.24.25.78.4,1.28Z"/>
          <path class="cls-125" d="M43.11,172.52c.89.59.52,1.27.65,2.46l.24,2.27c.25,2.37-1.15-1.79-2.09,4.37-.24,1.57-2.14.16-2.79.9l-6.7,7.63c-1.73.06-3.77.92-5.31.76l-6.17-.61c-.57-.06-1.21-.19-1.64-.19-.38,0-1.06-.13-1.01.67-.42.02-.82-.1-1.23-.11.09-.54.06-1.06-.58-1.2-.26-.05-.76.03-1.48.08-1.25-.83-.41-3.49-1.66-3.93l-4.32-1.52c.51-2.82.24-5.77.53-8.49.24-2.3-.86-2.55-2.01-3.83s0-4.17.14-5.65c1.65-.49,1.53,1.73,2.35,2.54,1.56,1.55,4.78,2.02,5.52,4.29.48,1.47,1.89,1.71,2.59,2.75,1.09,1.61,2.21,3.12,4.85,2.26,1.25.97.73,2.55,1.79,3.82,3.04.15,6.8-.42,9.78-.65.7-.74.57-2.98,2.05-2.82,1.11.12,1.96.16,2.53-.11,1.55-.72.24-3.14,1.54-5.19.57-.9,1.63-.51,2.45-.53Z"/>
          <g>
            <path class="cls-133" d="M30.94,97.14l-.46,27.16c-.07,4.11,3.87.24,3.62,3.22-.32.71-.07,2.73.53,3.25,1.27,1.11,3.38.74,4.7.62.5,4.86.42,9.82.38,15.11-.01,1.79-1.05,4.59.63,5.7l4.61.68.53,18.96c-.74-.4-1.63.67-2.37.69-.82.02-1.88-.38-2.45.53-1.3,2.05,0,4.47-1.54,5.19-.57.26-1.42.23-2.53.11-1.48-.16-1.35,2.08-2.05,2.82-2.98.23-6.74.8-9.78.65-1.05-1.27-.54-2.85-1.79-3.82-2.64.86-3.76-.65-4.85-2.26-.7-1.03-2.12-1.28-2.59-2.75-.74-2.27-3.96-2.74-5.52-4.29-.82-.81-.7-3.03-2.35-2.54.29-3.03-.66-6.13.17-9.31,1.36-5.22.42-10.62,1.09-16.07.37-3.02,3.62-.34,4.74-1.88.93-1.29.05-9.85.98-11.85,3-.72,3.96-.31,4.77-3.87-.74-.2-1.22-.03-1.12-.57.27-.21.99-.17,1.01-.83l.33-11.52,6.08-.29.36-12.79c-.38-.11-.7-.14-.79-.15-.25-.52.19-.57.59-.61,1.85-.21,3.69-.78,5.08.71Z"/>
            <path class="cls-41" d="M35.9,157.86l-1.21,9.59c-1.1.36-3.2-.25-4,.86-1.02,1.42-.72,3.49-.84,4.87,0,.51-.24.89-.31,1.25-.15.85-3.92,1.04-4.67.06s-.25-3.89-1.27-5.3c-.64-.88-1.69-.67-2.89-.75-1.37-.09-.77-2.55-1.48-3.1-1.47-1.15-3.56-.43-5.35-1.28-.21-1.81-.63-4.55.83-6.12.7-.75,3.56.43,3.96-.9.81-2.7-.02-5.68.72-8.84.3-1.27,2.49-.6,3.5-.97l.87-8.14c.16-1.47,4.9-1.15,5.04.27l.77,7.76,4.8.47.19,8.39c.02.96.11,2.07,1.33,1.89Z"/>
            <path class="cls-152" d="M29.85,173.18c.12-1.38-.18-3.45.84-4.87.8-1.11,2.91-.5,4-.86l1.21-9.59,3.42-.18c1.59,1.81,1.01,11.19-.68,13.06-2.04,2.27-5.84,2.58-8.8,2.43Z"/>
          </g>
          <g>
            <path class="cls-102" d="M48.52,202.02c-.22,1.91.51,4.11-.25,6.1-.33.87-2.09.37-3.22.67.06,3.7-.15,7.12.27,10.59l4.52.21.41,25.81,5.72.4c-.21,9.42.04,18.32,1.14,27.66l5.15.28c.36,3.96.22,7.77.09,11.52-.09,2.56-.58,5.3.38,7.96.28.58,1.4.4,1.75.66s1.29-.34,1.71.36c1.94,3.26,2.25,7.92,1.25,11.24-1.29.05-2.77-.12-3.01.75-.22.8-.19,2.06.69,2.29l.42,15.19,4.36.44c.66,3.92,2.96,18.05,1.56,20.65-1.18.06-2.16.42-3.69.3.2-2.26-1.05-4.51-.44-6.46.8-2.54-1.01-5.62-1.74-11.77-.22-1.87-1.97-3.36-.93-5.72-1.21.27-.92,1.15-.8,1.96.18,1.25-.55,2.01-1.57,1.83-2.59-.46-1.99-10.95-2.6-13.34-1.85-7.22,1.56-4.15-.92-6.9.86-1.96,1.41-4.96-.56-6.25-.14-2.82.3-7.05-2.5-8.33.51-1.77.5-3.8.16-5.93l-10.42-.21c-.11-3.44.08-6.91.09-10.32.91-.1,1.1,1.08,1.49,1.82s1.85.44,2.01,1.31c.26,1.41-.14,2.52.41,3.75,1.81-.05,3.63-.09,5.5-.55,2.4-.59.98-6.16.45-6.31l-2.69-.78c-.54-.16-1.88-1.58-1.94-2.42-.49-6.83-.04-14.82-1.1-21.55l-4.61-1.14-.82-24.07c-1.45.37-2.77-.27-3.86-.06,0-.47-.23-.93-.59-1.1.09-1.49-.15-3.22-.31-4.72-.14-1.28.47-2.57-.5-4.07l-10.94.04c-.38.53-.63,1.77-1.5,1.61s-1.28-1.08-1.96-1.04c-.37-1.42.07-2.96-.63-4.53-1.69-.05-3.23.26-4.52-.51-.76-.46-.15-1.57-.36-2.04.22-.21.01-.44-.05-.63,1.1-.92.35-2.63,1.17-3.76,6.52.92,4.55-.85,10.79-.38,0,0,14.18.65,12.12-.86,1.63-.41,3.96-.28,5.43.4Z"/>
            <path class="cls-76" d="M38.91,208.69c-4.53.52-8.56.83-13.06.61-.96-.05-.94-1.24-1.11-1.74-1.28-3.75,9.36-1.98,13.13-2.7.82,1.13.62,2.29,1.04,3.83Z"/>
          </g>
          <path class="cls-113" d="M39.47,217.81c.16,1.5.4,3.23.31,4.72-1.36.5-3.87,1.38-5.33.19-.91-.75-1.14-3.89-.4-4.68,1.52-.69,4.05-.88,5.41-.22Z"/>
          <path class="cls-29" d="M34.21,196.41c.11,1.23-.25,3.51-1.23,3.66l-3.29.5c7.91-1.2-15.24,3.31-9.51,2.27-1.5-2.38-.99-5.6-.72-8.32,2.55-.08,8.12.92,7.87-.53,1.16-.15,1.08.21.2,1.19,1.61,2.78,7-.21,6.69,1.23Z"/>
          <path class="cls-109" d="M45.49,296.55c.67-3.11-1.14-6.21,1.83-5.2,1.63.56,5.2-1.6,7.72.09,1.12.75.92,4.58-.23,5.37-2.77.66-6.64.55-9.32-.26Z"/>
        </g>
        <g>
          <path class="cls-80" d="M244.23,158.39l7.09.29,40.98-.34c2.31-.02,4.75.64,7.41.24.22,2.25,0,3.66-.04,5.99l-6.63.37c0,1.29.59,3.61-.87,3.91-.96.2-2.44-.28-3.51.4-.27.17-.71-.11-.99,0s-.42.48-.33.93c.05.24.22.72.62.41.17,2.11-23.07,1.54-25.48,2.05-.3,1.56-.05,2.73-.54,4.17-2.95-.1-5.76.4-8.81.61l-8.19.58-.33,18.14-5.93.47c1.72,18.06,8.22,4.07,6.13,21.98-2.07.17-3.89-.13-6.01.35l-.52,5.76-5.38.07c-.53,0-1.72-.1-1.9-.81-.09-.37-.27-.75-.66-1.29,2.01-2.84-1.98-.92-4.4-2.97-.64-.54-.03-1.8-.46-2.8-.4-.92-1.4-.38-1.87-.08-.66.42-1.1,1.49-.97,2.44.62,4.68-6.43,1.13-8.07,6.94-4.28-.56-2.44,2.01-7.01,2-.2-2.12-.22-4.33.03-6.36l.09-.74,6.54-.85c1.58-2.97.14-19.95,2.05-18.36,2.06.06,4.22.22,6.6-.24.58-1.92.4-3.61.61-5.24,1.71-.1,4.19-.24,5.72-1.11,2.12-5.05,1.13-10.99.87-16.69-1.03-.26-1.48-.11-2.1-.2-3.83-.53-7.71-.15-11.57-.28.27-1.72-.1-4.2.06-6.14-2.93-2-6.36.04-8.94-.28-8.66-1.09-17.37.2-26.55.06l-43.48-.67c-.56,3.41.15,6.56-.1,9.58-.4,4.86.99,9.77.07,14.52l-5.9-.55c-.02-5.76-.53-11.54-.14-17.3.11-1.56.83-3.39-.36-5.23-.86-1.33-4.4-1.72-4.93-.38-.73,1.84-.36,3.75-.32,5.24l-20.23-.39-.56-4.17-9.56-.46c-.74-.04-.99-1.35-1.77-1.31-2.47.13-4.59.12-6.89-.27-.02-1.77.14-3.41-.43-5.23l-9.68-.3-.16-5.72,74.72-.57,92.97-.16Z"/>
          <path class="cls-111" d="M151.23,139.5c7.8.13,16,.78,23.52-.55.67.6,1.54.39,2.37.4,9.77.13,19.51-.26,29.14.04l5.77.18c.44.77-.18,1.54-.73,2.38,1.69.14,3-.24,4.38.37.93.41.02,1.6.36,2.36.87,1.94,6.14-.78,6.96,2.15l7.63.53c-3.49-.24,5.66,1.4,5.86,1.56,1.51,1.23-2.3,1.9,6.49,3.24l1.23,6.23-92.97.16-74.72.57-5.95-.32v-10.85s9.65-.25,9.65-.25c.51-1.6.34-3.19,1.15-4.6l23.14-.62c.89-.15.57-1.74,1.19-2.34l18.99-.53c.57-.02.67-.8,1.13-.75,8.28.82,16.88.49,25.39.63Z"/>
          <path class="cls-110" d="M237.99,139.98l18.76.58.38,5.89,26.96,1.21.37,4.88c2.44.53,4.63.19,7.32.26.72,2.05-.33,3.94.53,5.55l-40.98.34-7.09-.29-1.23-6.23c-8.79-1.34-4.98-2.01-6.49-3.24-.2-.16-9.35-1.81-5.86-1.56l-7.63-.53c-.82-2.93-6.09-.21-6.96-2.15-.34-.76.57-1.95-.36-2.36-1.38-.61-2.69-.23-4.38-.37.55-.84,1.16-1.61.73-2.38l18.33-.23,7.62.64Z"/>
          <path class="cls-16" d="M131.43,177.33c-1.16-1.03-2.87.2-4.27-.1l-1.35-.28c-.04-1.49-.41-3.4.32-5.24.53-1.34,4.07-.95,4.93.38,1.19,1.84.47,3.67.36,5.23Z"/>
          <path class="cls-4" d="M288.66,169.25c.09.63-.75.69-.7,1.34-.41.31-.58-.17-.62-.41-.09-.44.04-.81.33-.93s.72.17.99,0Z"/>
          <path class="cls-48" d="M145.58,179.48l.34,15.88c2.64.06,4.86.14,7.35-.15l.5-15.16c.65.3,1.26.84,1.42,2.07,6.82-.37,14.11.61,20.63-.41.65-2,2.7-2.03,3.86-2.42.22.15.89,0,1.6.19l.38,15.81c2.74.38,5.42.27,8.31-.03l.23-13.97c2.9,1.11,8.11.15,12.01.93-.23,5.02.09,9.26.28,13.55.26,5.64-.21,11.25-2.06,16.95-1.39-.52-3.8-.33-4.18,1.42-.5,2.29.49,5.26-.58,7.13-.83.72-4.3.97-4.51-.07l-.97-4.95c-1.99-.13-3.34.25-4.64.02-2.1-1.49,1.1-5.79-2.61-6.61-2.51-.56.09-4.98-4.49-5.01l-18.33-.14c-3.21-.02-6.11.27-8.96.25-8.89-.06-3.38,7.27-10.65,6.04l-1-1.85c-.88-2.8.24-12.96-2.06-13.8.92-4.76-.48-9.66-.07-14.52,1.2.12,2.86,1.43,2.82-1.14,1.57-1.06,3.52.23,5.36-.04Z"/>
          <path class="cls-139" d="M216.4,178.12c-.3,1.9,0,3.75-.09,5.6l-.51,10.2c-2.75-.34-5.53-.42-8.27-.09v-22.13c2.57.32,6-1.72,8.93.28-.16,1.94.21,4.42-.06,6.14Z"/>
          <path class="cls-7" d="M137.47,195.18c2.3.84,1.18,11,2.06,13.8l1,1.85c.49.9.49,1.33.31,1.92-.45,1.51-1.46,1.64-2.8,1.43-.13.14-.09.47-.13.56-.5-.18-1.53-.49-1.57-1.22l-.28-4.78-4.57-.3c-.44-4.68.1-9.26.09-13.8l5.9.55Z"/>
          <path class="cls-13" d="M222.11,183.54c-.63,1.43,1.16,2.13,2.04,2.78.7,2.64-.02,5.67.17,8.58,2.07.56,3.47.19,4.88.39-1.52.86-4.01,1.01-5.72,1.11-2.35-.71-5.1-.57-7.65.02l-.02-2.5.51-10.2,5.8-.18Z"/>
          <path class="cls-95" d="M229.19,195.29c-1.41-.2-2.81.17-4.88-.39-.19-2.91.53-5.93-.17-8.58-.87-.65-2.67-1.35-2.04-2.78,1.24-.04,3.08.19,4.36-.44,1.55-.79,1.14-3.39,1.49-4.7.61.09,1.07-.07,2.1.2.26,5.7,1.25,11.64-.87,16.69Z"/>
          <path class="cls-73" d="M227.97,178.4c-.36,1.32.06,3.91-1.49,4.7-1.28.63-3.12.4-4.36.44l-5.8.18c.09-1.85-.21-3.7.09-5.6,3.86.14,7.74-.25,11.57.28Z"/>
          <path class="cls-119" d="M223.48,196.39c-.2,1.63-.02,3.32-.61,5.24-2.39.46-4.54.31-6.6.24-.97-1.59-.43-3.66-.45-5.46,2.55-.6,5.3-.74,7.65-.02Z"/>
          <g>
            <path class="cls-32" d="M287.36,55.46c-2.62.05-5.26.26-8.61.11l-.26-5.98-7.53-.26c-.38-1.58-.13-3.1-.18-4.78l-8.08-.35c-.43-1.42-.03-2.8-.37-4.61l-7.89-.42c1.19-1.85.42-4.95.77-8.57-2.73-.22-4.92-.29-7.41.24-.09,2.87-.42,5.2-.03,7.89.48.19,1.08.04.96.59-2.72.06.13,3.33-3.13,4.58-1.04,1.43-.31,3.59-.96,5.38l-6.62.61-.92,9.9c-2.63-.08-4.34-.21-6.73.31l-.04,36.97.27,19.46,6.06.34c.77,2.5-.38,5.3.06,7.54-3.85.3-7.84-.42-12.02-.32l-8.43.2c-2.19.05-4.42-.69-6.67-.65,1.04-1.87.2-4.21.32-6.68-1.3-.35-2.15-.21-2.99-.74-.41-2.7.56-5.48-.36-7.89-1.12-1.08-3.51-.49-4.76-.91-.7-4.11-5.27-1.89-6.14-4.18l15.45-.02c.05-2.36.34-4.68-.08-6.93l-4.84-.58c1.63-6.45,2.79-12.81,1.9-19.26-.53-.13-.79-.36-.55-.68,2.97-1.67,4.94-4.91,4.38-8.36,1.07-.24,2.19.19,3.58-.39-.03-1.74.37-3.43-.09-4.99-.34-1.16-3.34-.46-3.96-1.96-.26-.63.44-1.12.5-1.72,1.46-.23,3.6-.58,5.06-.96,1.2.35,3.06.72,4.56-.09.74-3.47.43-6.92.48-10.19.03-2.2.05-4.63.74-6.88,2.19-.46,5.32.7,6.91-.75,1.45-1.74.35-4.94,1.01-7.29l6.18-.89c1.01-2.55.67-5.25,1-8.35l17.69-.16c-.28,4.01,5.19,1.03,7.22,2.69.43.72-.06,2.39.94,2.67,1.11.31,1.75.29,2.12.9s-.62,1.6-.33,1.98c.82,1.65,6.59-.16,7.61,1.5.66,1.08-.4,4.28.64,5,.06.04,2.59.39,3.76,1.33.76.61-.17,1.92.27,2.57,1.17,1.73,1.53,3.65,1.8,5.67.73.71,2.3,2.02,3.21,2.35,1.28.46,2.03-1.07,3.24-.82.66,1.56,1.59,3.48.27,5.86.17-1.03.43-.21.71.08.38.4.58.64.32.92Z"/>
            <path class="cls-127" d="M236.71,124.39c2.27,4.83-.1,10.46,1.28,15.6l-7.62-.64-18.33.23-5.77-.18c.32-1.05-.36-3.22.52-3.72l3.68-2.05c1.04-.58-.2-2.66.84-3.97,1.37.03,3.97.12,4.01-1.39.04-1.73-.02-2.93.94-3.99l8.43-.2c4.18-.1,8.18.62,12.02.32Z"/>
            <path class="cls-58" d="M173.52,40.44l2.28.82c0,.87.01,1.92-.84,2.59-.71.55-1.92.5-3.35.36-.91,2.94-.26,5.89-.83,9.04-1.43.61-3.07.59-4.29,1.42l-1.26,6.42-4.56.52.02,5.08c-1.07,1.12-2.52.24-4.12,1.07-.53,2.65-.48,7.47-1.19,9.91-.15.52,1.07.33.92,1.08-.56,2.29,0,4.7-.94,7.1-1.69-.28-3.18.24-3.32,1.68l-1.28,13.4-4.78.74c-1.01,1.94-.14,4.4-.73,6.5-1.42.15-2.57.18-4.07-.18.27-1.93.16-3.93,1.08-5.28,1.15-.18,2.53-.15,2.77-.84.32-.91.2-2.07,0-2.71-.66-2.11,1.4-2.37,1.73-3.29,1.14-3.16-.1-6.46.65-9.58,1.25-.6,2.49-.17,4.02-.6-.11-1.21-.42-9.33,1.9-8.27-.34-.89-1.31-.41-1.4-1.13-.34-5.09.18-10.32.61-15.8,2.83-.5,6.16.06,8.2-2.03,1.15-1.18.07-3.56,1.31-4.47.68-.5,2.92.11,3.03-1.16l.99-11.45,7.47-.96Z"/>
            <path class="cls-153" d="M254.44,39.17l-5.71.15c.12-.55-.48-.4-.96-.59-.39-2.69-.07-5.03.03-7.89,2.48-.52,4.68-.45,7.41-.24-.35,3.62.42,6.72-.77,8.57Z"/>
            <path class="cls-67" d="M209.59,123.62c2.25-.04,4.48.7,6.67.65-.96,1.06-.9,2.26-.94,3.99-.04,1.51-2.64,1.42-4.01,1.39-1.04,1.31.2,3.4-.84,3.97l-3.68,2.05c-.88.49-.2,2.67-.52,3.72-9.63-.3-19.37.09-29.14-.04-1.09-8.62,5.09-2.42.79-15.21l31.67-.53Z"/>
            <path class="cls-72" d="M165.07,68.53c-1.84.31-4.17.36-4.37-1.83l-.02-5.08,4.56-.52,1.26-6.42c1.22-.83,2.87-.8,4.29-1.42.57-3.15-.08-6.11.83-9.04,1.42.14,2.64.19,3.35-.36.86-.67.85-1.72.84-2.59-.01-1.79,2.18-1.78,4.17-1.4,1.04-1.58.44-3.31.85-4.97,1.1-.48,2.93.35,3.8-.61.98-1.09-.01-2.96.94-4.25,2.91-.12,5.79-.41,8.53.23.8.19.17,2.97-.95,2.95-1.23-.03-2.26.13-2.78.67-.92.98.29,4.78-.81,5.32-.83.41-1.83.26-3.06.25-1.47,1.54.42,3.98-1.23,5.54-.59.55-2.58-.46-3.11.8-.28.67-.04,1.39-.53,1.65-.36.18-1.31.1-1.75.4l-.77,5.8c-2.38.35-4.54,1.02-6.93.8-.98,2.29-.11,6.91-1.32,8.2-.59.63-3.59-.03-4.02.94-.97,2.14.86,3.81-1.75,4.98Z"/>
            <g>
              <path class="cls-114" d="M287.36,55.46c.26-.28.06-.52-.32-.92-.28-.29-.54-1.11-.71-.08,1.33-2.38.4-4.3-.27-5.86-1.22-.25-1.97,1.28-3.24.82-.9-.33-2.47-1.64-3.21-2.35-.26-2.02-.63-3.94-1.8-5.67-.44-.65.49-1.96-.27-2.57-1.17-.94-3.7-1.29-3.76-1.33-1.04-.73.02-3.92-.64-5-1.02-1.66-6.79.15-7.61-1.5-.29-.38.7-1.38.33-1.98s-1.01-.58-2.12-.9c-1-.28-.51-1.95-.94-2.67-2.03-1.65-7.5,1.33-7.22-2.69l-17.69.16c-.33,3.1,0,5.79-1,8.35l-6.18.89c-.65,2.35.44,5.55-1.01,7.29-1.59,1.45-4.72.29-6.91.75-.69,2.25-.71,4.68-.74,6.88-1.62.33-3.36.14-5.31.28l.28,10c-1.46.38-3.6.73-5.06.96-.95.15-2.93-1.47-3.81.03-1.23,2.08-1.62,4.83-1.65,6.99,1.26.02,1.95.06,1.67.9-2.48-.86-6.72-1.15-9,.05-.1.05-3.07,4.27-1.43,5.1,1.11.56,2.8-.55,3.55-.04,1.38.93.13,2.68.87,3.55.6.71,4.78.95,5.39.85-.24.32.02.55.55.68.89,6.45-.28,12.81-1.9,19.26l4.84.58c.42,2.25.13,4.56.08,6.93l-15.45.02c.87,2.29,5.44.06,6.14,4.18,1.25.42,3.64-.17,4.76.91.93,2.4-.04,5.19.36,7.89.83.52,1.69.39,2.99.74-.13,2.48.72,4.82-.32,6.68l-31.67.53c-.53-.9-1.98-.49-2.78-.49-1.16-1.05-2.76-.6-4.19-.59l-17.81.17c-.5,0-.91.13-1.18.29-.18.1-.02.53-.16.78-.48.16-.58-.77-1.13-.77-7.06-.1-13.65.5-20.23-.04l.49-5.55,4.57-.5.48-20.35c2.12-.17,3.59.04,5.6-.42-.04-2.19,2.9-18.93,3.22-19.17,1.12-.85,5.91.36,7.13-1.21.08.72,1.06.24,1.4,1.13-2.32-1.06-2.01,7.06-1.9,8.27-1.52.43-2.76,0-4.02.6-.74,3.12.49,6.43-.65,9.58-.33.92-2.39,1.18-1.73,3.29.2.64.32,1.8,0,2.71-.24.68-1.62.65-2.77.84-.92,1.34-.82,3.35-1.08,5.28,1.51.36,2.65.33,4.07.18.6-2.09-.28-4.55.73-6.5l4.78-.74,1.28-13.4c.14-1.44,1.63-1.96,3.32-1.68.94-2.39.38-4.81.94-7.1,1.03-.05,2.57.53,3.93-.24,1.19-.68.64-2.94.58-4.3,1.15-1.07,2.65-.74,4.01-1.75-.2-1.24-.92-3.41.24-3.93,2.61-1.16.78-2.83,1.75-4.98.44-.97,3.44-.31,4.02-.94,1.21-1.29.34-5.91,1.32-8.2,2.4.22,4.56-.45,6.93-.8l.77-5.8c.44-.29,1.39-.21,1.75-.4.49-.25.25-.98.53-1.65.53-1.26,2.52-.24,3.11-.8,1.65-1.56-.23-4,1.23-5.54,1.23.01,2.23.16,3.06-.25,1.1-.54-.12-4.35.81-5.32.52-.55,1.54-.7,2.78-.67,1.13.03,1.76-2.76.95-2.95-2.73-.64-5.62-.35-8.53-.23-.95,1.29.04,3.16-.94,4.25-.87.96-2.7.13-3.8.61-.41,1.66.19,3.39-.85,4.97-1.98-.38-4.18-.39-4.17,1.4l-2.28-.82,1.4-9.56,5.34-.51c.7-.67.04-2.54.91-2.77l3.93-1.07c1.54-.42.58-3.56,1.03-5.45,2.86-.26,6.31-.44,7.96-3.18,1.16-1.92.63-4.34,1.35-6.46l10.43-.96.5-5.14c2.01-.61,4.32.57,5.82-.44,1.06-1.03.36-3.19.61-4.82l35.34-.08.43,4.93,8.31.43c.51,1.79.23,3.49.54,5.39l8.14.52,2.16,8.74,6.35.43c.48,2.26-.04,4.32.72,6.36,1.78.23,3.87-.64,5.21.53.9.8.06,2.63.46,3.84,1.27.69,2.59.08,3.95.53.56,7.32-1.1,6.28,2.12,7.66.57.24.27,1.77.75,2.02,1.53.8,3.33,0,5.59.39l-.16,13.7c-1.94.72-3.7-.04-5.33-.01Z"/>
              <path class="cls-3" d="M200.46,23.78c-2.28,1.91-3.81,3.48-6.74,2.58-.61-.19-1.82.29-2.28-.12s-.79-1.3-.39-2.13c.25-.53.87-1.1,1.98-1.1.95.02,2.69.45,1.99-.54-.64-2.25,2.39-4.56,4.76-3.85.54-1.4-.09-2.43.52-3.5l5.92-1.11c1.19-.22.59-2.5.62-3.88,2.6-.73,6.2.65,8.79-.59.58-.92-1.06-3.91.48-4.35,2.09-.61,14.6-1.57,14.93.29.2,1.1.05,2.11-1.12,2.62-1.83.8-3.61,1.53-5.62,1.95l-6.83,1.4c-.66.14-.08,2.23-.81,2.59-2.29,1.13-2.92-.17-5.36,1.6-1.06.77-.31,2.32-.78,3.14-.62.41-2.81.04-3.21,1.03l-1.24,3c-.6,1.46-4.19-.22-5.62.97Z"/>
            </g>
            <path class="cls-97" d="M175.14,123.65l-.39,15.3c-7.52,1.33-15.72.67-23.52.55.41-1.48-.36-3.38.64-4.62,2.44-1.28,17.19.74,17.88-1.08.18-.48.52-1.3.41-1.91-.15-.86-.26-2.38.03-3.21,1.68-1.15.33-3.83.75-5.61,1.43-.01,3.03-.46,4.19.59Z"/>
            <path class="cls-35" d="M208.16,66.25c1.12.39,2.12,1.51,3.76,1.15.56,3.45-1.41,6.69-4.38,8.36-.61.1-4.78-.14-5.39-.85-.74-.87.51-2.62-.87-3.55-.75-.5-2.44.6-3.55.04-1.64-.83,1.33-5.05,1.43-5.1,2.28-1.19,6.52-.91,9-.05Z"/>
            <path class="cls-121" d="M170.95,123.07c-.42,1.78.93,4.46-.75,5.61.64-1.44-15.6-.48-17-.55-.2-.16-.99.11-1.16-.21-.65-1.18-.43-2.53-.23-3.61.13-.25-.02-.68.16-.78.27-.16.68-.29,1.18-.29l17.81-.17Z"/>
            <path class="cls-15" d="M165.07,68.53c-1.16.52-.45,2.69-.24,3.93-1.36,1.01-2.86.68-4.01,1.75.06,1.37.61,3.63-.58,4.3-1.36.77-2.9.19-3.93.24.16-.75-1.07-.56-.92-1.08.71-2.43.66-7.25,1.19-9.91,1.6-.83,3.05.05,4.12-1.07.2,2.19,2.53,2.14,4.37,1.83Z"/>
            <path class="cls-143" d="M211.96,58.33c-.06.6-.76,1.09-.5,1.72.62,1.51,3.62.81,3.96,1.96.46,1.56.05,3.25.09,4.99-1.39.58-2.52.15-3.58.39-1.64.36-2.64-.76-3.76-1.15.28-.84-.4-.88-1.67-.9.03-2.15.42-4.9,1.65-6.99.88-1.5,2.86.12,3.81-.03Z"/>
            <path class="cls-56" d="M222.05,47.08c-.05,3.27.26,6.72-.48,10.19-1.49.82-3.36.44-4.56.09l-.28-10c1.96-.14,3.69.05,5.31-.28Z"/>
            <path class="cls-53" d="M177.92,124.15c4.3,12.78-1.88,6.59-.79,15.21-.84-.01-1.7.2-2.37-.4l.39-15.3c.8,0,2.25-.4,2.78.49Z"/>
            <path class="cls-51" d="M170.19,128.68c-.28.83-.18,2.35-.03,3.21-.36-.16-.5.21-.78.68h-17.38c.22-1.37-.53-3.81,1.18-4.44,1.4.07,17.64-.89,17,.55Z"/>
            <path class="cls-87" d="M151.87,134.88c-.39-.72.02-1.56.14-2.31h17.38c.28-.48.42-.84.78-.68.11.62-.23,1.44-.41,1.91-.7,1.82-15.45-.2-17.88,1.08Z"/>
            <g>
              <path class="cls-115" d="M130.44,123.5c6.58.54,13.17-.06,20.23.04.55,0,.64.94,1.13.77-.2,1.08-.42,2.43.23,3.61.17.32.97.05,1.16.21-1.71.63-.97,3.07-1.18,4.44-.12.75-.53,1.59-.14,2.31-1,1.24-.23,3.14-.64,4.62-8.52-.14-17.11.19-25.39-.63-.35-4.94-.2-9.88-.05-15.01,1.83-.02,3.27-.47,4.66-.36Z"/>
              <path class="cls-124" d="M137.49,131.75c.83,1.14.9,1.74.66,2.15-.45.76-1.38.7-1.83.55-1.98-.65.13-1.92-1.23-3.03-.35-.29-2.87,1.29-3.85-.18-.38-.57-.55-2.36-.05-3.16.97-.22,8.71-.45,8.62.99-.08,1.24-3.29,1.3-2.3,2.67Z"/>
            </g>
          </g>
          <path class="cls-23" d="M190.21,181.31l-.23,13.97c-2.89.3-5.57.41-8.31.03l-.38-15.81c-.71-.19-1.39-.04-1.6-.19,3.12-1.04,6.55-.29,10.11-.45.32.95.43,1.68.42,2.45Z"/>
          <path class="cls-23" d="M153.77,180.05l-.5,15.16c-2.49.29-4.71.21-7.35.15l-.34-15.88c-1.32-.82,9.67-1.35,8.19.57Z"/>
          <g>
            <path class="cls-79" d="M207.52,171.7v22.13c.02.65-.28,1.27-.5,1.87-1.48-.22-3.04-.09-4.52.09-.2-4.28-.52-8.52-.28-13.55-3.9-.78-9.12.18-12.01-.93.01-.77-.1-1.5-.42-2.45-3.56.16-6.99-.6-10.11.45-1.16.39-3.21.42-3.86,2.42-6.53,1.02-13.81.04-20.63.41-.15-1.23-.77-1.77-1.42-2.07,1.48-1.92-9.51-1.39-8.19-.57-1.84.27-3.8-1.02-5.36.04.05,2.57-1.62,1.26-2.82,1.14.25-3.02-.46-6.17.1-9.58l43.48.67c9.18.14,17.89-1.14,26.55-.06Z"/>
            <path class="cls-8" d="M141.83,171.97c.68.68.49,4.42-.37,5.09-1.55-1.26-1.59-3.5-1.04-5.1.1-.29,1.22-.17,1.4,0Z"/>
          </g>
        </g>
        <g>
          <path class="cls-93" d="M263.89,367.98c.21,1.23,1.04,2.31,1.46,3.86l4.18,15.41c.23.83,1.56.87,1.82,2.31.94,5.18,3.04,9.89,3.14,15.3,1.83.4,3.15-.09,4.48.67.75,2.5.36,5.18,1.63,7.37.51.88,1.82,1.03,1.53,2.73-.19,1.14-.24,2.97.61,3.87.69.74,2.07.1,2.77.41-.78,1.59-2.98.68-4.92.24-.51,5.05,4.56,14.13,2.94,16.89,4.65.18,2.01,5.52,5.96,8.17-.54.89-.64,1.09-.49,1.39.29.55,1.17.66,1.3.98.74,1.68,1.6,9.22,6.35,19.58.61,1.32,2.44,1.86,1.88,4.25-.06.26.17,1.02.41,1.12s1.12-.21,1.04.52c-.15,1.24-1.83.1-1.31,1.33l-34.8.13-.48-8.36c-4.42-.23-8.91-1.37-12.21-.25,3.07-3.53,1.61-5.41,2.62-7.57.43-.91,3.07-.39,3.3-1.07.19-.55-6.35-38.99-6.57-39.75l-1.83-6.37c-1.91-6.65-2.11-13.46-2.8-20.25-.16-1.56-1.52-1.54-1.65-2.28l-2.98-18.05c6.57-.24,13.26.29,20.22-.58.56-.07.6-1.62.71-2.05.15-.54,1.03-.14,1.64.08Z"/>
          <path class="cls-106" d="M221.51,343.39c0,2.6-.14,5.34.28,8.17l8.47.72c.54.05.55,1.84,1.21,1.29-.19,1.54-.36,3.91.38,5.46.51,1.07,4.08.89,4.74.01l.81-5.56c.76,1.31,1.6,1.77,3.1,1.36l-.05,4.92c-.74-1.14-2.31,11.43.86,10.76l2.98,18.05c.12.75,1.49.72,1.65,2.28.69,6.79.89,13.61,2.8,20.25l1.83,6.37c.22.75,6.75,39.2,6.57,39.75-.23.68-2.87.16-3.3,1.07-1.01,2.16.45,4.05-2.62,7.57l-3.59,1.22c-3.21,1.09-7.28,1.11-10.22.94-11.49-.66-23.34-.48-34.82.6-3.28.31-7.29-1.71-10.78-.55-.33.11-.55-.18-.8-.21l.36-5.45,18.12-.88c1.82-.09,3.55-.68,5.1-.39,8.41,1.57,17.22.24,25.78-1.69,2.51-.57,4.88-1.78,8.02-1.23,1.1-2.72-.39-5.09-1.03-7.85l-4.15-17.8c-2.44-10.48-5.36-23.04-5.76-33.49-1.33-.12-2.86.36-3.58-.36-.52-5.13,1.04-10.58-1.14-15.44l-2.2-4.9c-.5-1.11-3.95-.17-3.37-2.72-1.89-.18-3.61.35-5.16-.34-1.38-3.9-1.01-7.38-1.8-10.96l-2.33-.16c-1.15-1.67.28-3.5-.13-4.93-.64-2.23-.33-4.2-.77-6.35-2.96-1.36-6.05-1.5-9.72-1.31l-.95-5.09c-3.6-1.2-7.3-1.6-10.8-2.38.32-.35-.11-1.28.4-1.31.77-.04,1.44-.15,2.19-.06,8.05.95,15.9-.83,23.42.62Z"/>
          <path class="cls-107" d="M127,382.05c-3.39,5.9-1.08,26.15-1.17,29.64l-.93,35.47c-.16,6.12-3.66,11.87-4,14.64l-.6,4.9c-1.41.64-3.47.85-5.5.36-.32-6.09-.93-11.79-.7-18.03.62-16.89,1.96-33.34,4.25-49.98.58-4.24,1.09-8.1,1.33-12.04,1.15.16.13,1.77.47,2.28,2.74.15,3.29,1.1,3.56,1.07,3.3-.43-1.26-9.25,3.29-8.3Z"/>
          <path class="cls-147" d="M285.52,419.9c.49.21,1.04-.4,1.5.1.22.24.37.62.44,1.23l1.06,9.63,5.45.52,1.11,10.62c1.31.28,4.3-.8,4.93.65.92,2.12.97,4.01,2.11,5.72.99,1.48.48,3.71,1.47,5.41l3.71.46.74,7.14,4.61.51.02,12.5c-4.98.38-9.49-.03-13.97-.01-.52-1.23,1.16-.09,1.31-1.33.08-.73-.8-.41-1.04-.52s-.47-.86-.41-1.12c.57-2.39-1.27-2.93-1.88-4.25-4.75-10.35-5.62-17.89-6.35-19.58-.14-.31-1.01-.43-1.3-.98-.15-.29-.05-.5.49-1.39-3.95-2.64-1.31-7.98-5.96-8.17,1.63-2.76-3.44-11.84-2.94-16.89,1.93.44,4.13,1.35,4.92-.24Z"/>
          <path class="cls-156" d="M129.6,411.68c-.57,1.42-.43,2.71-.58,4.52l-1.99,24.65c-.18,2.25-1.36,4.37-.75,6.57l4.93.77.12,13.21c6.86.48,13.69-.34,20.22.46,0,1.82.46,3.79-.21,5.75l-16.05.41c1.2-2.66-12.9.73-15-1.31l.6-4.9c.34-2.77,3.84-8.52,4-14.64l.93-35.47c1.25-.17,2.51-.02,3.77-.02Z"/>
          <path class="cls-19" d="M202.59,468.63c.13,1.27.81,3.02-.16,4.04-3.49.91-7.07.78-10.55-.12l-.07-4.46c3.49-1.17,7.5.85,10.78.55Z"/>
          <path class="cls-4" d="M130.88,243.97c-1.45.05-2.89.37-4.35.04.03-1.32-.22-2.36-1-3.88-.47-.92.6-2.5.34-3.65,1.43.14,3.17-.27,4.66.48.24,2.6-.52,4.93.35,7.01Z"/>
          <path class="cls-4" d="M99.32,351.73c-.37.96-1.76.47-2.53.38.29-1.1,1.77-.38,2.53-.38Z"/>
          <path class="cls-12" d="M151.65,348.42l.2,42.99-.29,70.45c-6.52-.8-13.35.02-20.22-.46l-.12-13.21-4.93-.77c-.61-2.21.57-4.32.75-6.57l1.99-24.65c.15-1.81,0-3.1.58-4.52.23-.57.77-21.58.67-23.33.11-1.13.8-1.33,1.67-1.51.55-.11,1.86.34,2.61-.1.77-11.5.85-23.24-.35-34.42.21-.45.47-.78.54-1.27,3.23.61,6.55-.19,10.12.11.43-1.14-.09-2.38.49-2.77,2.13-1.42,4.24,0,6.29.04Z"/>
          <path class="cls-52" d="M212.74,383.2c2.48.53,3.2,2.82,3.51,5.18.82,6.26,2.8,12.05,3.64,18.29l2.22,16.41c.79,5.81.44,11.42.82,17.02,1.04.48,1.92.23,3.03.93-.39,2.56.33,5.38-1.21,7.47-1.13,1.53-.69,3.63-2,5-1.15,1.2-2.72,1.83-2.7,3.79-2.71.08-4.51,1.85-5.46,3.87-1.55-.29-3.29.3-5.1.39l-18.12.88-.36,5.45c-5.61-.52-11.33.58-16.89-.53.54-1.91.62-4.26.47-6.31,5.23-.11,10.52.83,15.9-.29.17-3.68-.26-6.78.4-9.97,1.06-.16,3.31.19,3.56-.77.81-3.77.37-7.5.37-11.04l.1-52.02.12-27.26c2.04-.01,4.07-.23,6.1-.14l1.25,52.77c.14,6.12.17,11.8,1.58,17.84.28,1.21,2.7,2.41,3.74,2.7,1.2.34,2.93-.14,4.51.48l.52-50.14Z"/>
          <path class="cls-37" d="M169.57,348.43c.9.84,1.11,1.71,1.02,3.17-.66,10.62.21,20.94.32,31.14.19,17.17.5,34.25,1.76,51.74l1.92,26.55c.15,2.06.07,4.4-.47,6.31-1.25-.25-2.8-.05-4.27-.99l-2.35-41.27c-.25-4.45-.57-8.32-1.13-12.7-1.73-13.68-.67-27.63-1.45-42-.3-1.09-3.42-.68-4.28-.59-.05-2.43-1.21-5.06.19-7.34,1.33-.21,2.75.55,4.19-.01l.24-13.45c1.2-.91,2.92-.59,4.32-.55Z"/>
          <path class="cls-28" d="M156.41,342.2c-.12,3,.23,6.03-.45,9.13.81.43,1.47-.02,2.19.16.66.16,1.42.09,1.66.74.42,1.15-.47,9.93,1.02,10.23-1.4,2.28-.23,4.92-.19,7.34l.2,10.31c.07,3.72.94,7.34.24,11.03l-9.23.28-.2-42.99.14-6.2,4.61-.02Z"/>
          <g>
            <path class="cls-21" d="M174.12,467.35c5.55,1.11,11.28.01,16.89.53.25.02.48.32.8.21l.07,4.46c0,.64.01,1.46-.81,1.91l-28.89.07-.05,29.59-49.66-.03.23-14.51c3.32.23,7.51-.27,10.4-1.38.49-.44-.06-2.52.78-2.81l2.18-.74c1.57-.53,3.93.14,4.82-1.36.48-.82-.33-2.21.49-2.55,1.15-.47,3.19.27,3.61-.68.13-.3.19-.7.19-1.23l.13-10.83,16.05-.41c.68-1.96.21-3.93.21-5.75l.29-70.45,9.23-.28c.71-3.7-.16-7.31-.24-11.03l-.2-10.31c.86-.09,3.99-.5,4.28.59.78,14.37-.29,28.32,1.45,42,.56,4.38.88,8.25,1.13,12.7l2.35,41.27c1.46.95,3.01.74,4.27.99Z"/>
            <path class="cls-61" d="M130.84,489.45c1.91.19,3.32.48,5.22.18-.85,1.85-.17,3.95-.32,6.59-1.83.62-3.57-.17-5.28.59-2.99,1.33-6.38-.25-9.58-.22l-7.81.07c.12-2.33,1.02-4.07.86-6.44,7.74.26,8.21-1.63,16.91-.77Z"/>
            <path class="cls-83" d="M136.06,489.63c-1.9.31-3.31.01-5.22-.18-.48-1.43.28-2.8,1.83-3.26,2.34-.7,2.23-3.43,3.36-4.84,1.28-1.6,3.56-.43,5.28-1.24-1.48-1.85-1.91-3.71-.75-5.5,1.28.26,3.19-.19,4.37.54,2.44,2.41-1.56,7.69.06,13.22-2.97,1.67-6.14.81-8.93,1.26Z"/>
          </g>
          <path class="cls-11" d="M214.59,461.15c.95-2.02,2.75-3.79,5.46-3.87-.01-1.96,1.55-2.6,2.7-3.79,1.31-1.36.87-3.47,2-5,1.54-2.09.81-4.91,1.21-7.47-1.11-.7-1.99-.45-3.03-.93-.38-5.6-.04-11.21-.82-17.02l-2.22-16.41c-.84-6.24-2.83-12.03-3.64-18.29-.31-2.35-1.03-4.65-3.51-5.18.02-1.53-.6-2.87-.71-4.36-.34-4.56-.78-9.13-1.81-13.96-1.56-.14-2.72-.01-3.82.06-.7-1.38-3.18-2.48-1.33-4.69-1.81-.91-2.72-.64-3.93-.69-2.03-.09-4.07.12-6.1.14l-.07-4.94c-.02-1.7.3-10.36.53-10.61,3.5.78,7.2,1.18,10.8,2.38l.95,5.09c3.67-.19,6.76-.05,9.72,1.31.44,2.15.13,4.12.77,6.35.41,1.43-1.02,3.26.13,4.93l2.33.16c.79,3.58.42,7.06,1.8,10.96,1.56.69,3.27.16,5.16.34-.58,2.55,2.87,1.61,3.37,2.72l2.2,4.9c2.19,4.86.62,10.31,1.14,15.44.72.72,2.25.24,3.58.36.39,10.45,3.31,23.01,5.76,33.49l4.15,17.8c.64,2.76,2.13,5.13,1.03,7.85-3.14-.55-5.51.66-8.02,1.23-8.56,1.94-17.36,3.26-25.78,1.69Z"/>
          <path class="cls-108" d="M234.05,342.01c-.37.95-.83,2.51,0,3.26-.26.79-.87,1.65-.65,2.52-1.67,1.21-1.67,3.81-1.92,5.79-.65.54-.66-1.24-1.21-1.29l-8.47-.72c-.42-2.83-.29-5.57-.28-8.17,1.85-1.4,4.18-.49,6.26-1.31,1.7-.67,4.46.92,6.27-.07Z"/>
          <g>
            <path class="cls-128" d="M237.41,468.04l-.21,5.65-3.04.36c-.11,2.11.05,4.12.26,6.41l3.29.54c.65,2.84,1.18,5.4,1.25,8.3l5.38.31c.22,5.03,1.18,9.5.6,14.47l-38.75.05.08-14.16,5.47-.56c.03-6.49,1.41-7.71.9-14.74-2.88-.81-10.57,1.01-10.2-2.01.97-1.02.29-2.76.16-4.04,11.48-1.08,23.33-1.26,34.82-.6Z"/>
            <path class="cls-74" d="M233.66,490.73c.75,1.7-3.64,4.2-2.22,5.73-3.56,2.16-14.97,1.43-20.32,1.17l.05-6.42c3.56-2.1,20.44-2.67,22.49-.48Z"/>
            <path class="cls-116" d="M221.83,481.65c.61,1.14-5.23,8.58-5.95,5,1.61-1.33,2.62-2.91,3.61-4.88-.28-.99-1.44-1.11-2.34-2.32,1.61-.7,1.92-2.12,2.78-3.33.93-1.3,5.1-2.21,6.02-.64s-.48,3.9,1.68,5.17c-2.45,1-3.77.4-5.8,1Z"/>
            <path class="cls-38" d="M231.44,496.46c-1.42-1.53,2.97-4.03,2.22-5.73,1.18-.56,3.11.28,3.48,1.3.43,1.18,1.2,3.58.14,4.45-1.39,1.13-4.48.91-5.84-.02Z"/>
          </g>
          <path class="cls-26" d="M130.27,388.34c.1,1.75-.44,22.76-.67,23.33-1.25,0-2.52-.15-3.77.02.09-3.49-2.22-23.74,1.17-29.64,1.28-2.22,1.44-4.73,2.27-7.14,1.15-.32.86,10.93,1,13.43Z"/>
          <path class="cls-45" d="M134.21,352.32c1.19,11.17,1.12,22.92.35,34.42-.75.45-2.06-.01-2.61.1-.87.18-1.56.38-1.67,1.51-.14-2.5.15-13.75-1-13.43.92-2.67.76-5.68,1.02-8.75l1.16-13.31c.09-1.05,2.3-.39,2.74-.54Z"/>
          <path class="cls-136" d="M151.21,342.15c.18-.03.39.07.59.07l-.14,6.2c-2.05-.03-4.17-1.46-6.29-.04-.58.38-.05,1.63-.49,2.77-3.57-.3-6.89.5-10.12-.11.4-2.72.27-5.67,1.03-8.4,5.57-.47,10.55.23,15.43-.49Z"/>
          <path class="cls-134" d="M181.1,342.84c.69,2.91.1,5.94.25,8.9.11,2.15-.68,4.36-.21,6.78,1.2.72,2.63.25,4.14.76l.18,13.89c.66,1.05,3.97-.04,4.17.64l.35,1.19.49,12.57-.4,3.13.31,48.16c1.64.7,3.06.12,4.44.09,0,3.54.44,7.26-.37,11.04-.24.96-2.5.61-3.56.77-.67,3.19-.24,6.29-.4,9.97-5.38,1.12-10.66.18-15.9.29l-1.92-26.55c-1.27-17.5-1.58-34.58-1.76-51.74,1.47.26,2.79.94,4.91.8.34-8.4-.12-16.57-.28-24.98l-.2-10.74.23-4.8c2.08-.83,3.82.05,5.53-.18Z"/>
          <path class="cls-22" d="M206.41,364.94l-.02,13.28c1.83.67,3.85.28,5.65.62.11,1.49.72,2.83.71,4.36l-.52,50.14c-1.58-.62-3.31-.14-4.51-.48-1.04-.29-3.46-1.49-3.74-2.7-1.41-6.04-1.43-11.72-1.58-17.84l-1.25-52.77c1.21.05,2.12-.22,3.93.69-1.84,2.21.63,3.32,1.33,4.69Z"/>
          <path class="cls-78" d="M194.93,386.95l-.1,52.02c-1.39.03-2.8.61-4.44-.09l-.31-48.16.4-3.13c1.55.24,2.92-.71,4.45-.64Z"/>
          <path class="cls-99" d="M194.97,354.75l.07,4.94-.12,27.26c-1.54-.08-2.9.88-4.45.64l-.49-12.57c.45.03.46-.19.54-.41-1.69,4.46.1-32.32-.58-31.9,1.46-.04,3.12-.85,4.41.31,0,1.51,1.1,2.63.05,3.72-.23,2.58-.12,5.19-.05,7.9.07.17.54.18.62.12Z"/>
          <path class="cls-64" d="M175.34,347.82l.2,10.74c.15,8.41.62,16.58.28,24.98-2.12.14-3.44-.54-4.91-.8-.11-10.19-.98-20.52-.32-31.14.09-1.47-.12-2.33-1.02-3.17,1.95.05,3.83-.31,5.77-.61Z"/>
          <path class="cls-88" d="M165.25,348.98l-.24,13.45c-1.43.56-2.86-.2-4.19.01-1.49-.3-.59-9.07-1.02-10.23-.24-.65-1-.57-1.66-.74.93-.3.35-1.82.78-2.35,1.55-1.92,4.52-1.29,6.32-.15Z"/>
          <path class="cls-91" d="M212.03,378.84c-1.8-.34-3.82.05-5.65-.62l.02-13.28c1.1-.08,2.26-.2,3.82-.06,1.03,4.83,1.47,9.4,1.81,13.96Z"/>
          <path class="cls-42" d="M189.95,342.7c.68-.42-1.11,36.36.58,31.9-.08.22-.09.44-.54.41l-.35-1.19c-.2-.68-3.52.4-4.17-.64l-.18-13.89c-1.51-.51-2.94-.04-4.14-.76-.47-2.42.32-4.63.21-6.78,1.71-.03,3.44.04,5.18.25l.14-9.17c1.02.07,2.24-.09,3.28-.13Z"/>
          <path class="cls-150" d="M186.67,342.83l-.14,9.17c-1.73-.21-3.47-.29-5.18-.25-.15-2.97.44-6-.25-8.9,1.88-.25,3.66-.15,5.57-.01Z"/>
          <g>
            <path class="cls-44" d="M230.35,222.66c.38.54.57.92.66,1.29.17.71,1.37.82,1.9.81-1.5.04-1.51.94-1.35,2.41.23,2.15,4,.87,6.5,1.65-.1,3.68.57,6.86.84,10.51,1.8.57,3.45-.34,4.92.58.35,2.84-.29,5.74,1.08,8.07.7,1.19,3.11.11,4.59.42.24,3.19.39,6.2,0,9.02-.98,1.38-4.56,1.61-5.8.43-.48-1.05-.15-3.42-.22-4.47-.07-1.17.72-3.8-1.01-4.4-3.55-1.23-7.76-1.4-11.8-.82-.08,1.7.52,3.08-.15,4.34l-7.62.32c-.29,1.5.19,4.75-1.27,4.99-4.84.68-9.46-.14-13.95,1.03-.55,1.43-.24,2.86-.46,4.41l-10.37.84c-.49,1.38.09,2.88-.68,3.88-.73.94-2.35.3-3.98.75,0,1.48-.56,3.16-.38,4.43l-7.66.76c-.91.09-1.69.31-2.11.6-.65.45-.17,1.7-.59,2.23-1.74,2.22-6.92-1.13-7.28,3.25-6.32.62-13.16.51-19.73.23-1.75-.08-3.17-.96-4.46-1.23-1.22-.26-3.98,1.25-4.74-.45-.58-1.3.97-3.51-.3-4.96-1.25-.13-2.32.08-3.7-.22-.49-1.9.29-3.61-.05-5.31,4.36-1.14,1.56,1.4,8.87-.12,2.31.81.12,3.94,1.17,5.72,1.35,2.31,12.58,1.56,14.54,1.61,2.93.07,3.9-1.95,5.81-2.58,2.29-.75,3.41-1.05,5.29-2.45,8.34-6.22,2.05-2.18,13.93-7.17.12-.79.04-1.37.2-1.96.43-1.54,11.44-4.18,14.71-4.78.63-.11.32-2.1.91-2.36,2.95-1.3,3.31.05,4.75-.8,1.74-1.01-.07-3.46,1.04-4.1,1.62-.94,5.07.83,5.12-2.94,1.41-.8,3.46.21,4.74-.8.85-.9.54-3.01.39-4.46-5.95-.02-5.88-2.62-9.85-.33-1.37.79-3.39,2.39-5.23,2.17-.63-.41-1.88-.55-1.92-1.51,2.96-3.14,6.44-4.03,10.25-5.69,1.63-.71,1.53-4.51.07-4.74l-6.26,2.87c.6-.27-7.28,4.23-7.5,4.49-.97,1.12-1.94,2.19-3.55,2.7-2.05.64-.54,3.93-1.35,4.93-1.45,1.8-.75,4.36-1.78,6.64-.98.29-2.49.09-3.37.45-.81.33-.55,2.12-1.47,2.7-1.3.83-3.9.03-4.64,1.66-.45.99.25,2.46-.93,2.72l-2.24.5c-2.48.55-5.32-.08-7.41,1.07l-.86,3.03c-.2.71-2,.77-3.07.71-8.43-.49-3.39,8.3-9.16,6.56-2.8-.85-.28-6.73-.43-8.76,1.57.19,3.22-.58,4.96-.18l1.85-9.02c1.96.15,3.68-.42,5.36-.42l10.62-.03c.72-1.65.81-4.15,1.2-5.63.2-.79.06-2.35.08-3.23,1.52-.56,3.61.47,5.05-.59.72-.98,1.44-2.35,3.59-1.79l.96-6.94c1.5-.15,4.39.65,5.22-.46.46-2.28.28-4.3.33-6.04,2.04-.31,4.32-.49,6.38-.49,4.57,0,2.73-2.56,7.01-2,.73,4.2,7.84,3.53,8.56,2.6.54-.7-.23-1.75.05-2.55,1.05-3.02,4.52-3.61,7.16-3.58Z"/>
            <path class="cls-69" d="M131.43,177.33c-.39,5.76.12,11.54.14,17.3.01,4.54-.53,9.12-.09,13.8l4.57.3.28,4.78c.04.74,1.07,1.04,1.57,1.22-.59.6-1.4,7.18-.63,7.59.99.53,1.73.76,2.34.63,1.38-.28.68-2.13,1.12-2.72.78-1.05,2.71-.95,3.85-1.15,1.87-16.94,5.02-4.71,6.59-14.3,2.85.02,5.75-.28,8.96-.25l18.33.14c4.58.03,1.98,4.46,4.49,5.01-1.38.35-9.64-.75-9.74,1.81-1.05-2.01-6.39,1.91-9.35-2.31-.85-1.21-.79-2.8-2.81-3.27l-1.15,4.45c-2.19.84-5.08-.34-7.22,1.01-1.39.88-1.36,3.87-1.31,5.27.02.45-.33,1.28,0,1.76,1.49,1.15,3.77.35,5.78.82.76.18.53,1.59.7,2.05.23.6,1.67.47,2,.89,1.69,2.11.14,5.28-.68,7.45-.88,2.32.18,4.38-1.51,6.39-.84,1,.64,4.03-1.2,5.15-1.02.63-2.57.26-3.43,1.11-1.06,1.04-1.01,2.32-1.41,4.01-1.35,5.78.46,8.86-.45,16.63-1.79-.14-3.68.2-5.68-.41l-.51-8.5c-1.95-.79-6.22.77-6.39-1.68l-.16-3.1c-1.01-.19-1.85.04-2.55-.36l.08-4.82c-2-.14-3.5-.09-5.09-.04-.87-2.08-.11-4.41-.35-7.01-1.48-.75-3.23-.34-4.66-.48-1.59-6.95.49-9.19.46-15.87l-.13-30.48c0-1.38.49-2.54.59-3.9.14-1.85-1.36-1.38.37-9,1.4.29,3.11-.93,4.27.1Z"/>
            <path class="cls-24" d="M230.52,252.49c4.26-.18,8.69-.15,12.96.88.07,1.05-.26,3.42.22,4.47,1.24,1.18,4.82.94,5.8-.43.03.46.77.55.57,1.09-2.26-2.43.1,9.55.41,9.71l2.71.41c.02,1.08.08,9.73.06,9.66.18.79,1.96.86,2.62,1.68,1.22.4.35,9.71.88,10.27,2.19,2.31,4.6-1.25,4.58,2.49l-.06,11.5c-1.25.17-2.45.55-3.73.48.25-.75-.59-2.04-.04-3.08.77-1.47-.79-2.19-1.01-3.14-.61-2.68.37-5.54-.68-7.77-.41-.52-2.05-.8-2.63-.53-.02-8.72-1.69-1.56-1.58-10.35-1.76-.91-3.38-.45-4.86-.98l-.67-5.39c-1.72-.29-2.81-.04-4.25-.44-.45-1.73-.2-3.57-2.09-4.67-1.53-.88-.59-3.69-1.49-5.23-.82-1.41-1.12-2.73-.93-4.6-5.06-.13-9.8-.2-14.9.23-.07,1.43.58,3.99-.8,4.18l-6.96.92c-1.01,2.62-.63,5.44-.89,8.05-2.42-.86-3.16,8.7-1.1,7.65-3.16,4.78.66,2.2-4.44,5.56-1.37,4.99,2.79,25.64-5.55,22.33-.74,2.07-.69,3.81-1.1,5.92-6.42.58-17.14,1.54-22.49.21,3.72-2.33.22-3.37,3.16-6.07.52-.48,2.21.16,2.67-.57,1.22-1.93,2.46-3.45,4.9-2.81.92-1.29.16-2.94,1.12-4.02s2.7-.46,4.03-1.13l1.05-7.05c1.28-.52,2.5-.18,4.1-.49,1.14-3.55,1.23-7.24,1.56-11.15l5.62-.46c-.13-3.59.21-7.06-.68-10.52-.48-1.24-3.73-.56-4.74-.14l-.6,4.05c-1.61.29-9,.62-9.45-.06-.18-1.27.37-2.95.38-4.43,1.63-.45,3.25.19,3.98-.75.78-1,.19-2.5.68-3.88l10.37-.84c.22-1.54-.09-2.98.46-4.41,4.49-1.18,9.11-.36,13.95-1.03,1.47-.25.99-3.49,1.27-4.99l7.62-.32Z"/>
            <path class="cls-25" d="M127.22,279.5c1.14,1.03,2.39-.08,3.75-.1.35,6.64.74,24.45-.44,30.44-.07.36-.19.93-.16,1.37-1.51.7-2.37,2.91-2.49,4.85-.24,3.8-2.05-1.63-2,10.37,0,1.8-.78,4.01-.98,5.64-.86-.08-2.57-.35-3.18.74-.47.84.55,3.28-.76,3.46l-4.7.64-.73,5.55c-2.58.67-6.82-.74-6.85,2.2-.01.88.09,1.84-.51,2.23-.54.35-1.35.72-1.96.52-3.88-1.27-8.26-.4-12.09.98-2.57-.77-1.36-10.54-3.02-11.39,1.11-.61,2.08-1.43,1.52-2.97-.36-.99-.1-1.84-.16-2.7,1.33-.53,1.99-2.1,1.63-4.04,1.48-.92,3.33.1,4.72-1.05.54-4.42,3.94-.78,7.78-2.75.74-2.5,1.72-3.08,3.93-4.07,1.59-.72,3.93-3.15,4.78-4.71,1.46-2.69,3.2-3.95,5.22-5.84.92-.86,1.39-2.13,2.76-3.02,2.54-1.66,1.62-5.93,2.19-8.63s.98-4.92-.41-6.89c-.12-2.88.61-8.13-.26-10.65.76-.05,1.6-.01,2.42-.17Z"/>
            <path class="cls-40" d="M268.33,344.73l-1.35-.87c-8.24-5.3-22.29-.77-32.94,1.4-.82-.75-.37-2.3,0-3.26,1.48-.81,11.81.07,10.18.08l6.44-.06c1.3-.01,3.9.03,4.67-.75,1.37-1.4.48-3.51.51-4.91,1.64.24,3.4-.4,5.11-.32s3.49-.05,5.45-.27c1.2-.14,1.31-1.56,1.31-2.56l-.06-26.78c-2.35-.56-4.14-.74-5.92-.51.04-.69-.49-1.09-.48-1.74l.06-11.5c.02-3.74-2.39-.18-4.58-2.49-.53-.56.34-9.86-.88-10.27-.66-.82-2.44-.89-2.62-1.68.02.08-.04-8.58-.06-9.66.71.01,1.15-.81,1.85-1.23-.28,1.97,3.11.87,5.6,1.63l.54,10.6c1.34.34,2.57-.16,3.84.82-.54,3.38.85,9.03,4.51,8.53l.96,10.35,4.37.36,1.92,20.63c1.32.41,2.2.05,3.27.56l2.52,18.16-6.08,1.01c-.15,1.74.07,3.13-.54,4.58-2.78.11-5.23.29-7.61.12Z"/>
            <path class="cls-101" d="M113.46,270.6c.12.76.4,1.9,0,2.49-.65.98-2.38.52-3.59,1.11-1.36,1-.33,3.7-1.38,4.9-1.11,1.28-1.21,2.41-.75,3.46.88,2.03,6.88,2.42,6.92.69.1-4.03-.27-2.94,10.14-3.59.87,2.52.15,7.77.26,10.65-.96.81-8.51-.06-9.61,1.2-1.22,1.39.19,5.8-1.47,6.04-2.42.35-3.45.93-5.18,2.19-9.2,6.77-8.22,3.1-19.96,4.92.86,10.11,2.94,16.36,3.62,26.65.06.87-.2,1.71.16,2.7.56,1.54-.41,2.36-1.52,2.97-.61-.16-1.26-.04-1.88-.02-.67-4.69-1.89-9.44-2.17-14.5-.08-1.54-1.22-1.81-1.43-2.71l-4.34-18.65c-.75-3.21-.26-6.43-1.54-9.24,1.07-1.37,2.73-.03,4.78-.18.58,1.95,1.32,5.95,3.66,6.89,3.45,1.39,7.68-.12,11.32.23l.64-4c.31-1.93,2.77-1,4.27-1.43,2.58-.75-.67-5.97,3.33-8.09-3.12-1.92-6.32-1.3-9.67-1.67-5.41-.59-11.07,1.52-11.33-.42,1.45-.41,2.9-.07,4.32-1.39,2.06-1.92,14.28-1.68,15.77-2.9.81-.66,1.66-7.38,3.22-8.29,1.23-.71,2.44-.66,3.41-.04Z"/>
            <path class="cls-55" d="M136.13,307.86l-.51,10.89c-.1,2.1-.79,4.15-.19,6.29.39,1.39-.7,3-.12,4.41-1.14,1.78-1.18,4.09-.71,6.41,5.85.09,11.2.54,16.58-.05l.04,6.34c-4.88.72-9.86.02-15.43.49-.75,2.73-.62,5.68-1.03,8.4-.07.5-.34.82-.54,1.27-.44.14-2.65-.52-2.74.54l-1.16,13.31c-.27,3.07-.1,6.09-1.02,8.75-.83,2.41-1,4.92-2.27,7.14-4.55-.95,0,7.87-3.29,8.3-.27.04-.82-.92-3.56-1.07-.34-.51.68-2.12-.47-2.28l.73-11.95c1.52-.58,2.86.32,4.38-.57l.11-42.42c.2-1.63.98-3.84.98-5.64,1-.01,4.03-.52,4.25-2.04.68-4.7.44-9.01.24-13.18-.02-.43.09-1.01.16-1.37,3.02.52,2.51-4.15,5.6-1.98Z"/>
            <path class="cls-57" d="M268.33,344.73l-.28,19.47c-1.01,1.65-3.4,2.03-4.16,3.78-.61-.22-1.49-.62-1.64-.08-.12.42-.16,1.98-.71,2.05-6.95.88-13.64.34-20.22.58-3.17.67-1.6-11.9-.86-10.76-.02,1.76.59,3.35,1.06,5.68l11.16-1.03c5.16-.48,1.12-7.13,4.45-7.63-.2-2.71-.31-5.02-1.27-7.35l-16.25-.54c-1.66,5.16,1.68,3.24.9,5.94-1.5.41-2.35-.05-3.1-1.36.22-1.5.35-3.29.63-4.95l-4.64-.75c-.23-.88.38-1.73.65-2.52,10.65-2.18,24.7-6.7,32.94-1.4l1.35.87Z"/>
            <path class="cls-43" d="M79.74,291.87c1.28,2.81.79,6.03,1.54,9.24l4.34,18.65c.21.9,1.34,1.17,1.43,2.71.28,5.06,1.5,9.81,2.17,14.5.51,3.56.23,7.34.4,11.15l-4.13.24c-2.16-3.75-3.16-8.13-4.67-12.51-3.04-8.85-3.97-18.21-4.41-27.35,2.15-1.43.2-13.85,1.03-16.93l2.29.31Z"/>
            <path class="cls-4" d="M79.74,291.87l-2.29-.31c-.19-1.84-1.75-3.71-1.57-5.66,4.76-2.87,4.67-.95,10.87-2.69.27,1.94,5.93-.18,11.33.42,3.34.37,6.54-.25,9.67,1.67-4,2.12-.76,7.34-3.33,8.09-1.51.44-3.96-.5-4.27,1.43l-.64,4c-3.64-.35-7.87,1.15-11.32-.23-2.34-.94-3.07-4.94-3.66-6.89-2.05.15-3.71-1.19-4.78.18Z"/>
            <path class="cls-137" d="M127.22,279.5c-.82.16-1.66.12-2.42.17-10.4.65-10.03-.44-10.14,3.59-.05,1.74-6.04,1.34-6.92-.69-.46-1.05-.36-2.18.75-3.46,1.05-1.21.02-3.91,1.38-4.9,1.21-.59,2.94-.13,3.59-1.11.39-.59.11-1.73,0-2.49.78-.45,1.41-.97,2.19-1.77l3.89-4c2.71.96,7.05-1.76,7.43,2.09.42,4.28.28,8.46.25,12.58Z"/>
            <path class="cls-71" d="M75.87,285.9c-.18,1.95,1.38,3.83,1.57,5.66-.83,3.08,1.12,15.49-1.03,16.93l-11.29.02c-.88-.23-.91-1.49-.69-2.29.24-.87,1.72-.69,3.01-.75,1-3.32.7-7.98-1.25-11.24-.42-.7-1.35-.09-1.71-.36,1.11-1.63,3.06-1.95,5.14-2.53,1.06-.37,1.77-2.86,3.05-3.51l-.64-2.32c.14-.93,1.16-.97,1.94-.64.5.22.8,1.31,1.9,1.02Z"/>
            <path class="cls-96" d="M131.48,262.99c-.41,5.31-.8,11-.51,16.41-1.36.02-2.6,1.13-3.75.1.03-4.12.17-8.3-.25-12.58-.38-3.85-4.72-1.13-7.43-2.09-.48-1.63-.02-4.13,1.76-5.14s3.74-.53,4.63-1.74c1.16-.09,2.92.29,4.52-.08.87,1.85-.39,3.83,1.02,5.13Z"/>
            <path class="cls-17" d="M130.88,243.97c1.58-.05,3.08-.1,5.09.04l-.08,4.82c.7.4,1.54.17,2.55.36l.16,3.1c-1.09-.13-.74-1.11-1.14-1.35.58.35-7.5-.14-7.04,1.17-1.32-2.04-2.33.1-4.55-.59.07.86-1.5-7.85.67-7.51,1.45.32,2.89,0,4.35-.04Z"/>
            <path class="cls-104" d="M130.42,252.11c.2,1.23-.24,3.21.68,4.35,1.26,1.57,3.57,1.26,4.96,2.42-.59,5.32,3.48,5.13,4.2,5.53,1.32.72.75,2.68.94,3.64-1.65.43-3.51.06-5.18.04.03-1.35-.47-2.9-.51-4.48l-4.03-.62c-1.41-1.29-.15-3.28-1.02-5.13-1.6.37-3.36-.01-4.52.08-1.12-1.98.1-4.39-.07-6.42,2.22.69,3.23-1.45,4.55.59Z"/>
            <path class="cls-82" d="M72.03,285.52l.64,2.32c-1.27.65-1.98,3.14-3.05,3.51-2.08.58-4.03.9-5.14,2.53-.35-.26-1.47-.09-1.75-.66-.96-2.66-.47-5.4-.38-7.96,4.23,1.66.05-3.05,9.68.27Z"/>
            <path class="cls-36" d="M91.1,336.99c1.66.85.45,10.61,3.02,11.39-1.63.59-1.7,2.83-1.06,4.16-1.84.49-3.85,1.01-5.92.5-1.15-1.39-.93-3.43-1.66-4.68l4.13-.24c-.17-3.81.11-7.59-.4-11.15.62-.02,1.27-.14,1.88.02Z"/>
            <path class="cls-18" d="M106.2,347.4c-.2,1.36.83,3.7-1.23,4.26-1.88.52-3.97.05-5.65.06-.76,0-2.25-.72-2.53.38-1.22-.14-2.54.11-3.73.43-.65-1.33-.58-3.58,1.06-4.16,3.83-1.38,8.2-2.25,12.09-.98Z"/>
            <path class="cls-103" d="M250.06,258.49c1.53.43,3.2-.05,4.85.68l.12,8.21c-.71.42-1.14,1.25-1.85,1.23l-2.71-.41c-.31-.16-2.67-12.14-.41-9.71Z"/>
            <path class="cls-94" d="M207.03,195.7c1.62-1.94.43,27.33.66,25.39l-.09.74-6.69.82c-.5,1.18-.12,2.3-.54,3.09-1.65.38-2.77,1.49-3.73,2.76h-5.13c-1.47-.02-.58,3.16-.74,4.83-.13,1.38-2.41,1.45-3.61,1.46-1.97,8.02-1,4.9-1.13,9.73-.02.89.13,2.44-.08,3.23-3.3.27-6.88.12-10.25-2.17l-1.56,7.82c-1.68,0-3.4.57-5.36.42l-1.85,9.02c-1.74-.4-3.39.37-4.96.18-1.3-.16-2.86.24-3.94-.64-.31-1.41-.49-4.1.5-5.07,2.07.14,1.91-1.29,2.72-2.1,1.89-1.89,3.71-3.46,3.53-6.52,1.41-.41,3.02.42,4.16-.34,1.65-1.11,1.47-3.79,1.51-5.59,3.39-.71,6.39.25,10.11.01,1.36-6.5,1.42-12.98.73-19.77.7-.84,2.57-1.05,3.74-1.19.21-1.78.55-3.86.54-5.54,1.3.23,2.65-.15,4.64-.02l.97,4.95c.2,1.04,3.67.79,4.51.07,1.07-1.86.09-4.83.58-7.13.38-1.75,2.8-1.94,4.18-1.42,1.85-5.7,2.33-11.31,2.06-16.95,1.48-.18,3.04-.31,4.52-.09Z"/>
            <path class="cls-105" d="M215.81,193.92l.02,2.5c.01,1.8-.53,3.86.45,5.46-1.9-1.59-.47,15.39-2.05,18.36l-6.54.85c-.23,1.94.96-27.33-.66-25.39.22-.6.51-1.22.51-1.87,2.74-.33,5.52-.25,8.27.09Z"/>
            <path class="cls-160" d="M230.35,222.66c-2.64-.03-6.1.56-7.16,3.58-.28.8.49,1.85-.05,2.55-.72.93-7.83,1.61-8.56-2.6,1.64-5.81,8.69-2.26,8.07-6.94-.13-.95.32-2.03.97-2.44.47-.3,1.47-.84,1.87.08.43,1-.18,2.26.46,2.8,2.42,2.05,6.41.13,4.4,2.97Z"/>
            <path class="cls-39" d="M207.6,221.83c-.24,2.03-.23,4.24-.03,6.36-2.06,0-4.34.18-6.38.49.03-1-1.39-1.87-.82-2.95.42-.79.04-1.91.54-3.09l6.69-.82Z"/>
            <path class="cls-120" d="M228.66,299.34l.45,21.99c.09,4.45-.64,9.02-.68,13.88,0,.99-1.7,1.12-2.38,1.37.12,2.05,1.03,3.79,1.72,5.51-2.08.82-4.41-.09-6.26,1.31-7.53-1.45-15.37.33-23.42-.62-.75-.09-1.42.02-2.19.06-.51.03-.08.96-.4,1.31-.23.25-.55,8.91-.53,10.61-.08.05-.55.05-.62-.12-.07-2.7-.18-5.31.05-7.9,1.06-1.09-.05-2.2-.05-3.72-1.29-1.16-2.95-.36-4.41-.31-1.03.03-2.26.2-3.28.13-1.91-.14-3.68-.24-5.57.01-1.71.23-3.45-.65-5.53.18l-.23,4.8c-1.94.29-3.82.66-5.77.61-1.4-.04-3.12-.36-4.32.55-1.81-1.14-4.78-1.77-6.32.15-.43.54.15,2.05-.78,2.35-.72-.18-1.37.27-2.19-.16.68-3.1.33-6.12.45-9.13l14.75-.02c.16-6.89,1.03-13.54.23-19.82,1.48.18,1.1,2.3,2.47,2.94l28.07-.32c.83,1.27,21.04-1.62,20.23.67-.39-.11-.53.11-.67.31s.33,1.34.07,1.4c-3.72.86-7.17.1-10.82.66l-8.93,1.36c.89-.14-24.5-.82-27.58.21-.84.68.56,2.26.91,2.97.45.88-.48,3.01.69,3.2,8.52,1.37,16.72-.38,24.76.03,7.06.36,14.55.65,22.18.42,1.78-3.54-.37-7.21-.62-10.56.6-1.98.29-4.62.36-6.85l.63-18.57c.02-.55,1.13-.59.9-1.08,1.49.16,3.11.27,4.62.18Z"/>
            <path class="cls-159" d="M240.46,359.77l.05-4.92c.78-2.7-2.56-.78-.9-5.94l16.25.54c.96,2.33,1.08,4.64,1.27,7.35-3.33.49.71,7.15-4.45,7.63l-11.16,1.03c-.47-2.33-1.08-3.92-1.06-5.68Z"/>
            <path class="cls-85" d="M237.4,353.49l-.81,5.56c-.66.88-4.23,1.06-4.74-.01-.74-1.55-.57-3.92-.38-5.46.25-1.98.26-4.57,1.92-5.79l4.64.75c-.28,1.66-.41,3.45-.63,4.95Z"/>
            <path class="cls-151" d="M141.2,268.05c.34,1.7-.44,3.41.05,5.31,1.38.3,2.45.1,3.7.22,1.27,1.45-.28,3.66.3,4.96.76,1.7,3.52.19,4.74.45-.86,2.29-.66,5.15,1.85,6.08-.08.75-.13,1.8.23,2.56,1,2.12,14.1,1.81,16.74,1.6,1.16-.09.86-2.16,1.22-2.77,2.85-1.93,6.69-.99,10.53-1.12,1.22-1.16.23-3.93.87-5.29,3.16-1.63,6.87-1.04,10.37-.85.87-2.27.27-4.23.02-6.04.45.68,7.84.35,9.45.06l.6-4.05c1.01-.42,4.26-1.1,4.74.14.89,3.46.55,6.92.68,10.52l-5.62.46c-.33,3.91-.43,7.6-1.56,11.15-1.6.3-2.81-.03-4.1.49l-1.05,7.05c-1.33.66-3.12.1-4.03,1.13-.96,1.08-.19,2.73-1.12,4.02-2.45-.64-3.68.88-4.9,2.81-.46.73-2.15.09-2.67.57-2.93,2.7.56,3.74-3.16,6.07-2.42-.6-5.39.04-7.65.59-1.13.28-3.56-.16-4.22-1.09-.33-.46.43-2.44-.36-2.52-5.93-.61-11.65.47-17.51,1.62-1.33.26-2.26-.36-3.32.87-1.22,1.42-3.9,1.05-5.72.69l-1.82-15.12c-.08-.66-.74-1.04-1.12-.44l.05-24.56c-2.79-1.08-1.43-3.66-1.39-5.53,1.67.02,3.53.39,5.18-.04Z"/>
            <path class="cls-146" d="M150.07,267.93c.47-1.66.91-3.33,1.11-5.05,2.28.18,4.63.03,6.85-.5,1.08.88,2.64.48,3.94.64.15,2.03-2.37,7.91.43,8.76,5.77,1.74.73-7.05,9.16-6.56,1.07.06,2.87,0,3.07-.71l.86-3.03c2.09-1.16,4.93-.52,7.41-1.07l2.24-.5c1.18-.26.48-1.74.93-2.72.74-1.62,3.34-.83,4.64-1.66.91-.58.65-2.37,1.47-2.7.89-.36,2.39-.16,3.37-.45,1.04-2.29.33-4.85,1.78-6.64l8.34-1.33c1.1-.17,1.84-.87,1.91-1.72,1.84.23,3.86-1.38,5.23-2.17,3.97-2.28,3.89.31,9.85.33.15,1.45.46,3.57-.39,4.46-1.28,1.01-3.34,0-4.74.8-.05,3.78-3.49,2-5.12,2.94-1.11.64.7,3.08-1.04,4.1-1.44.84-1.8-.51-4.75.8-.59.26-.28,2.25-.91,2.36-3.27.6-14.28,3.24-14.71,4.78-.17.59-.08,1.18-.2,1.96-11.89,4.99-5.59.95-13.93,7.17-1.87,1.4-3,1.69-5.29,2.45-1.91.63-2.87,2.65-5.81,2.58-1.96-.05-13.19.69-14.54-1.61-1.04-1.79,1.14-4.91-1.17-5.72Z"/>
            <path class="cls-122" d="M191.8,273.15c.25,1.81.85,3.77-.02,6.04-3.5-.2-7.21-.78-10.37.85-.64,1.36.34,4.14-.87,5.29-3.84.13-7.68-.8-10.53,1.12l-6.57-.19c-3.97-.11-7.81-.85-11.61-1.21-2.51-.93-2.71-3.79-1.85-6.08,1.29.27,2.7,1.15,4.46,1.23,6.57.29,13.41.4,19.73-.23.36-4.38,5.54-1.02,7.28-3.25.42-.53-.06-1.78.59-2.23.41-.29,1.2-.51,2.11-.6l7.66-.76Z"/>
            <path class="cls-135" d="M138.6,252.3c.18,2.45,4.44.88,6.39,1.68l.51,8.5c2.01.6,3.89.26,5.68.41-.2,1.71-.64,3.38-1.11,5.05-7.31,1.52-4.52-1.02-8.87.12-.19-.96.38-2.92-.94-3.64-.73-.39-4.79-.2-4.2-5.53-1.39-1.17-3.7-.85-4.96-2.42-.92-1.14-.48-3.12-.68-4.35-.46-1.31,7.62-.82,7.04-1.17.4.24.05,1.23,1.14,1.35Z"/>
            <path class="cls-70" d="M200.37,225.74c-.57,1.08.85,1.95.82,2.95-.05,1.74.13,3.76-.33,6.04-.83,1.11-3.72.31-5.22.46l-.96,6.94c-2.15-.56-2.87.81-3.59,1.79-1.44,1.06-3.53.03-5.05.59.12-4.82-.85-1.71,1.13-9.73,1.2-.01,3.48-.08,3.61-1.46.16-1.67-.74-4.85.74-4.84h5.13c.96-1.25,2.08-2.36,3.73-2.74Z"/>
            <path class="cls-10" d="M207.59,242.7c-.07.85-.81,1.55-1.91,1.72l-8.34,1.33c.81-1-.71-4.29,1.35-4.93,1.61-.5,2.58-1.57,3.55-2.7.22-.26,8.1-4.76,7.5-4.49l6.26-2.87c1.46.23,1.56,4.03-.07,4.74-3.81,1.66-7.29,2.55-10.25,5.69.04.96,1.29,1.11,1.92,1.51Z"/>
            <path class="cls-39" d="M185.96,247.74c-.38,1.48-.48,3.98-1.2,5.63l-10.62.03,1.56-7.82c3.38,2.29,6.95,2.44,10.25,2.17Z"/>
            <path class="cls-34" d="M243.47,253.37c-4.27-1.02-8.7-1.05-12.96-.88.67-1.27.07-2.65.15-4.34,4.05-.58,8.26-.41,11.8.82,1.73.6.93,3.22,1.01,4.4Z"/>
            <path class="cls-130" d="M182.95,209.68c3.72.82.51,5.12,2.61,6.61,0,1.68-.33,3.76-.54,5.54-1.17.15-3.05.35-3.74,1.19.69,6.79.63,13.26-.73,19.77-3.72.24-6.72-.72-10.11-.01-.04,1.8.14,4.48-1.51,5.59-1.13.76-2.75-.07-4.16.34.18,3.06-1.64,4.63-3.53,6.52-.8.8-.64,2.24-2.72,2.1-.99.97-.81,3.65-.5,5.07-2.22.53-4.56.68-6.85.5.91-7.77-.9-10.84.45-16.63.4-1.69.35-2.97,1.41-4.01.86-.85,2.4-.48,3.43-1.11,1.84-1.12.36-4.15,1.2-5.15,1.69-2.01.63-4.07,1.51-6.39.82-2.16,2.38-5.34.68-7.45-.33-.41-1.77-.29-2-.89-.18-.46.05-1.87-.7-2.05-2.01-.47-4.29.34-5.78-.82-.34-.48,0-1.31,0-1.76,1.9-.19,4.69.43,5.84-.9l2-2.29c1.64-1.88,6.02-.36,8.91.28.57.39.45,1.56.97,2.14,1.41.24,2.72.45,4.28.18.21-1.71-.01-3.13-.16-4.55.11-2.57,8.36-1.47,9.74-1.81Z"/>
            <path class="cls-30" d="M173.21,211.49c.15,1.42.37,2.84.16,4.55-1.56.27-2.88.06-4.28-.18-.51-.58-.39-1.74-.97-2.14-2.88-.63-7.27-2.16-8.91-.28l-2,2.29c-1.16,1.33-3.95.71-5.84.9-.05-1.4-.08-4.39,1.31-5.27,2.13-1.35,5.02-.17,7.22-1.01l1.15-4.45c2.02.47,1.96,2.06,2.81,3.27,2.96,4.22,8.3.31,9.35,2.31Z"/>
            <path class="cls-75" d="M151.18,204.79c-1.57,9.59-4.72-2.64-6.59,14.3-1.14.2-3.07.1-3.85,1.15-.43.59.26,2.44-1.12,2.72-.62.13-1.36-.1-2.34-.63-.77-.41.04-6.99.63-7.59.04-.09,0-.42.13-.56,1.34.21,2.35.09,2.8-1.43.17-.59.18-1.03-.31-1.92,7.27,1.23,1.77-6.1,10.65-6.04Z"/>
            <path class="cls-157" d="M246.73,278.83c.42,3.32-.43,6.92.04,10.94.05.46,4.97,1.04,6.4.39.58-.27,2.22.01,2.63.53,1.06,2.23.07,5.09.68,7.77.22.96,1.78,1.67,1.01,3.14-.55,1.04.28,2.33.04,3.08-1.3,3.97.04,8.28-.17,12.72-.73,15.04.09,3.77-2.85,13.89-.45,1.54-2.91,2.52-2.54,4.52l-11.52.56c1.61,1.3,3.11,1.15,3.56,1.99.68,1.27.36,2.63.22,3.72,1.63-.01-8.7-.89-10.18-.08-1.82.99-4.57-.6-6.27.07-.69-1.72-1.59-3.46-1.72-5.51.69-.25,2.38-.38,2.38-1.37.03-4.85.77-9.43.68-13.88,2.23,2.69,2.97-13.72,3.27-16.02.21-1.58,1.98-.99,3.13-1.04,1.18-1.43,1.01-3.47,1.55-5.25-2.97-.35-5.68.17-8.4.32-1.51.09-3.13-.02-4.62-.18-2.25.55-.28-9.52-1.98-9.54.26-.88,1.48-3.66-.1-3.99-2.01-.42-4.52.71-6.21-1.06.04-1.5.37-2.7.19-3.83,1.29-1.61,1.88-4.93.68-6.81-.35-.55-2.43.36-2.49-.49-.04-.53-.48-1.01-.39-1.54.26-2.61-.13-5.42.89-8.05l6.96-.92c1.38-.18.74-2.74.8-4.18,5.1-.43,9.84-.36,14.9-.23-.19,1.87.11,3.2.93,4.6.9,1.55-.04,4.35,1.49,5.23,1.9,1.09,1.64,2.94,2.09,4.67,1.43.4,2.53.15,4.25.44l.67,5.39Z"/>
            <path class="cls-9" d="M215.94,280.73c.18,1.13-.16,2.33-.19,3.83,1.69,1.77,4.2.63,6.21,1.06,1.58.33.36,3.11.1,3.99-1.61-.21-3.19-.55-4.85-1.29-.63,2.22-.26,4.12-.02,6.3.41,3.74-.3,7.36-.47,10.93l-.31,6.75c-.06,1.31-2.74.93-3.23,1.65-.96,1.41-.25,3.3-.69,4.64-3.27-.33-6.84.64-10.1.65l-31.39.05.42-5.14c2.26-.56,5.23-1.19,7.65-.59,5.35,1.32,16.07.36,22.49-.21.4-2.11.36-3.85,1.1-5.92,8.33,3.31,4.17-17.34,5.55-22.33,5.1-3.36,1.28-.78,4.44-5.56,1.19.54,3.08-.47,3.29,1.19Z"/>
            <path class="cls-154" d="M261.25,304.2c0,.65.52,1.05.48,1.74l-.47,7.68c-.37,6.15.28,12.02-.34,17.77-2.12.26-4.3.14-6.42-.1,2.94-10.13,2.12,1.15,2.85-13.89.21-4.44-1.12-8.75.17-12.72,1.27.07,2.48-.31,3.73-.48Z"/>
            <path class="cls-2" d="M253.17,290.17c-1.43.65-6.35.07-6.4-.39-.47-4.03.38-7.63-.04-10.94,1.48.53,3.09.07,4.86.98-.1,8.8,1.56,1.64,1.58,10.35Z"/>
            <path class="cls-90" d="M213.74,271.89c-.1.54.35,1.01.39,1.54.06.85,2.14-.06,2.49.49,1.19,1.87.61,5.19-.68,6.81-.22-1.66-2.1-.65-3.29-1.19-2.06,1.05-1.32-8.51,1.1-7.65Z"/>
            <path class="cls-112" d="M125.06,290.32c1.4,1.97.97,4.25.41,6.89s.35,6.97-2.19,8.63c-1.37.89-1.84,2.16-2.76,3.02-2.02,1.89-3.76,3.14-5.22,5.84-.85,1.57-3.19,3.99-4.78,4.71-2.2,1-3.19,1.57-3.93,4.07-3.84,1.97-7.24-1.67-7.78,2.75-1.39,1.14-3.24.12-4.72,1.05.36,1.94-.3,3.5-1.63,4.04-.68-10.28-2.76-16.54-3.62-26.65,11.73-1.81,10.76,1.85,19.96-4.92,1.72-1.27,2.76-1.84,5.18-2.19,1.66-.24.25-4.65,1.47-6.04,1.1-1.26,8.65-.39,9.61-1.2Z"/>
            <path class="cls-86" d="M136.02,268.09c-.04,1.87-1.4,4.45,1.39,5.53l-.05,24.56-1.23,9.68c-3.09-2.17-2.58,2.5-5.6,1.98,1.17-5.99.79-23.8.44-30.44-.29-5.4.1-11.09.51-16.41l4.03.62c.04,1.58.55,3.13.51,4.48Z"/>
            <path class="cls-63" d="M125.87,326.43c-.05-12.01,1.76-6.57,2-10.37.12-1.94.98-4.15,2.49-4.85.2,4.17.44,8.48-.24,13.18-.22,1.52-3.25,2.03-4.25,2.04Z"/>
            <path class="cls-123" d="M260.96,336.06c1.36-1.24-.17-3.33-.02-4.67.62-5.75-.04-11.63.34-17.77l.47-7.68c1.78-.23,3.57-.06,5.92.51l.06,26.78c0,1-.11,2.43-1.31,2.56-1.96.22-3.78.35-5.45.27Z"/>
            <path class="cls-98" d="M251.97,335.82l3.88.56c-.03,1.4.87,3.51-.51,4.91-.78.78-3.38.74-4.67.75l-6.44.06c.15-1.09.47-2.45-.22-3.72-.46-.85-1.96-.69-3.56-1.99l11.52-.56Z"/>
            <path class="cls-138" d="M260.93,331.39c-.14,1.33,1.38,3.42.02,4.67-1.71-.08-3.47.56-5.11.32l-3.88-.56c-.37-2,2.09-2.98,2.54-4.52,2.12.24,4.3.35,6.42.1Z"/>
            <path class="cls-94" d="M171.42,314.16l-.42,5.14c-1.37,0-3.31.21-4.64.02-4.96-.72-10.05.48-14.95.03-5.23-.48-10.49-.5-15.79-.6l.51-10.89,1.23-9.68c.38-.6,1.04-.22,1.12.44l1.82,15.12c1.81.36,4.5.73,5.72-.69,1.06-1.24,2-.61,3.32-.87,5.86-1.15,11.57-2.23,17.51-1.62.78.08.03,2.05.36,2.52.66.94,3.1,1.37,4.22,1.09Z"/>
            <path class="cls-81" d="M170.99,319.3l.39,3.05c.8,6.28-.06,12.93-.23,19.82l-14.75.02-4.61.02c-.19,0-.41-.1-.59-.07l-.04-6.34c.72-.08,1.14.61,1.93.61l12.72-.08.34-10.77c.02-.52-1.4-.6-1.03-1.06,2.21-.02.96-3.18,1.22-5.19,1.32.19,3.26-.01,4.64-.02Z"/>
            <path class="cls-155" d="M150.94,329.55l.23,6.26c-5.38.59-10.73.14-16.58.05-.46-2.32-.43-4.63.71-6.41l15.63.09Z"/>
            <path class="cls-118" d="M151.41,319.35c.12,2.12,0,4.27-.21,6.39-.48.13-.8-.58-1.33-.59l-14.44-.11c-.6-2.14.09-4.19.19-6.29,5.3.1,10.56.12,15.79.6Z"/>
            <path class="cls-84" d="M151.2,325.73c-.12,1.22-.31,2.58-.26,3.82l-15.63-.09c-.58-1.41.52-3.02.12-4.41l14.44.11c.53,0,.85.72,1.33.59Z"/>
            <path class="cls-49" d="M222.06,289.61c1.7.02-.26,10.09,1.98,9.54.23.49-.88.53-.9,1.08l-.63,18.57c-3.39.42-6.77.13-10.03-.2.44-1.34-.27-3.24.69-4.64.49-.72,3.17-.35,3.23-1.65l.31-6.75c.16-3.58.87-7.19.47-10.93-.24-2.18-.61-4.08.02-6.3,1.66.74,3.23,1.08,4.85,1.29Z"/>
            <path class="cls-148" d="M200.59,335.79c1.79.45.21-3.39,1.21-6.41l8.93-1.36c3.65-.56,7.1.2,10.82-.66.27-.06-.21-1.21-.07-1.4s.28-.42.67-.31c.25,3.35,2.4,7.02.62,10.56-7.63.23-15.13-.07-22.18-.42Z"/>
            <path class="cls-65" d="M201.8,329.38c-1,3.02.58,6.86-1.21,6.41-8.04-.41-16.24,1.33-24.76-.03-1.17-.19-.24-2.32-.69-3.2-.36-.71-1.76-2.29-.91-2.97,3.07-1.03,28.46-.35,27.58-.21Z"/>
            <path class="cls-131" d="M202.38,319.25c-.08,1.92.18,3.89-.46,5.73l-28.07.32c-1.37-.64-.99-2.76-2.47-2.94l-.39-3.05,31.39-.05Z"/>
            <path class="cls-100" d="M212.49,318.6c3.26.33,6.64.62,10.03.2-.07,2.22.24,4.86-.36,6.85.81-2.29-19.4.6-20.23-.67.64-1.84.38-3.81.46-5.73,3.26,0,6.83-.98,10.1-.65Z"/>
            <path class="cls-46" d="M229.12,321.32l-.45-21.99c2.73-.16,5.44-.67,8.4-.32-.54,1.78-.38,3.81-1.55,5.25-1.15.06-2.92-.54-3.13,1.04-.3,2.3-1.04,18.71-3.27,16.02Z"/>
            <path class="cls-60" d="M170.02,286.45c-.35.61-.06,2.67-1.22,2.77-2.64.21-15.74.52-16.74-1.6-.36-.76-.31-1.81-.23-2.56,3.8.36,7.64,1.1,11.61,1.21l6.57.19Z"/>
            <path class="cls-77" d="M166.36,319.32c-.26,2.01.99,5.17-1.22,5.19-1.41.4-2.97-.32-4.52.37-.4,1.19.17,2.58-.21,3.99-.41,1.54-2.12,1.1-3.15,1.12-1.63.03-2.84-3.56-2.92-3.37.13-.33,1.1-.37,1.06-1.02-.09-1.41-1.64-.89-2.56-1.07s-.71.98-1.64,1.19c.22-2.11.33-4.26.21-6.39,4.9.45,9.99-.75,14.95-.03Z"/>
            <path class="cls-59" d="M165.14,324.51c-.37.46,1.05.53,1.03,1.06l-.34,10.77-12.72.08c-.8,0-1.21-.68-1.93-.61l-.23-6.26c-.05-1.23.14-2.59.26-3.82.94-.22.69-1.38,1.64-1.19s2.47-.34,2.56,1.07c.04.64-.93.69-1.06,1.02.08-.19,1.29,3.4,2.92,3.37,1.03-.02,2.74.42,3.15-1.12.38-1.41-.19-2.8.21-3.99,1.55-.68,3.11.04,4.52-.37Z"/>
          </g>
        </g>
      </g>
    </g>
  </g>
</svg>