<?xml version="1.0" encoding="UTF-8"?>
<svg id="_レイヤー_2" data-name="レイヤー 2" xmlns="http://www.w3.org/2000/svg" xmlns:xlink="http://www.w3.org/1999/xlink" viewBox="0 0 320.94 491.06">
  <defs>
    <style>
      .cls-1 {
        fill: #7c7284;
      }

      .cls-2 {
        fill: #b1b6ce;
      }

      .cls-3 {
        fill: #a5a9c2;
      }

      .cls-4 {
        fill: #837d92;
      }

      .cls-5 {
        fill: #e0e2eb;
      }

      .cls-6 {
        fill: #fbddd5;
      }

      .cls-7 {
        fill: #9ea5bc;
      }

      .cls-8 {
        fill: #fdefe3;
      }

      .cls-9 {
        fill: #b7c2d7;
      }

      .cls-10 {
        fill: #cbc7d4;
      }

      .cls-11 {
        fill: #b395a6;
      }

      .cls-12 {
        fill: #a9a9c4;
      }

      .cls-13 {
        fill: #e4bdbb;
      }

      .cls-14 {
        fill: #e8ecf1;
      }

      .cls-15 {
        fill: #9492b2;
      }

      .cls-16 {
        fill: #f2d694;
      }

      .cls-17 {
        fill: #a38d92;
      }

      .cls-18 {
        fill: #bcc6da;
      }

      .cls-19 {
        fill: #c9e5d4;
      }

      .cls-20 {
        fill: #bac4d8;
      }

      .cls-21 {
        fill: #b8c3d7;
      }

      .cls-22 {
        fill: #f7e08f;
      }

      .cls-23 {
        fill: #fbe2d6;
      }

      .cls-24 {
        fill: #a6a1b1;
      }

      .cls-25 {
        fill: #fff;
      }

      .cls-26 {
        fill: #9c9ab8;
      }

      .cls-27 {
        fill: #b5c0d5;
      }

      .cls-28 {
        fill: #a8b1ca;
      }

      .cls-29 {
        fill: #d2d4df;
      }

      .cls-30 {
        fill: #c79aba;
      }

      .cls-31 {
        fill: #a4abc3;
      }

      .cls-32 {
        fill: #debbb8;
      }

      .cls-33 {
        fill: #9794aa;
      }

      .cls-34 {
        fill: #fce4d8;
      }

      .cls-35 {
        fill: #a6a5b9;
      }

      .cls-36 {
        fill: #fbebb5;
      }

      .cls-37 {
        fill: #f9fcfd;
      }

      .cls-38 {
        fill: #a28c91;
      }

      .cls-39 {
        fill: #fdf3e7;
      }

      .cls-40 {
        fill: #fef5e8;
      }

      .cls-41 {
        fill: #fbdcd4;
      }

      .cls-42 {
        fill: #e5c4a2;
      }

      .cls-43 {
        fill: #ceac9a;
      }

      .cls-44 {
        fill: #9b868e;
      }

      .cls-45 {
        fill: #fbfdfe;
      }

      .cls-46 {
        fill: #a7b0c7;
      }

      .cls-47 {
        fill: #a3abc4;
      }

      .cls-48 {
        fill: url(#_名称未設定グラデーション_12);
      }

      .cls-49 {
        fill: #ae9593;
      }

      .cls-50 {
        fill: #d0d1db;
      }

      .cls-51 {
        fill: #d5b3ab;
      }

      .cls-52 {
        fill: #b49590;
      }

      .cls-53 {
        fill: #d2d9ec;
      }

      .cls-54 {
        fill: #ac8aaa;
      }

      .cls-55 {
        fill: #b7b0c0;
      }

      .cls-56 {
        fill: #9f8790;
      }

      .cls-57 {
        fill: #a48d8e;
      }

      .cls-58 {
        fill: #9791b0;
      }

      .cls-59 {
        fill: #d0a2c0;
      }

      .cls-60 {
        fill: #c3cee1;
      }

      .cls-61 {
        fill: #f9eeb2;
      }

      .cls-62 {
        fill: #bd9f94;
      }

      .cls-63 {
        fill: #e5b2c8;
      }

      .cls-64 {
        fill: #a5acc5;
      }

      .cls-65 {
        fill: #9a858e;
      }

      .cls-66 {
        fill: #7d7284;
      }

      .cls-67 {
        fill: #e9f0f9;
      }

      .cls-68 {
        fill: #d3d4de;
      }

      .cls-69 {
        fill: #d3d9ec;
      }

      .cls-70 {
        fill: #9a8590;
      }

      .cls-71 {
        fill: #b79b94;
      }

      .cls-72 {
        fill: #c1c7dc;
      }

      .cls-73 {
        fill: #88839b;
      }

      .cls-74 {
        fill: #beb8c7;
      }

      .cls-75 {
        fill: #c89aba;
      }

      .cls-76 {
        fill: #c3a395;
      }

      .cls-77 {
        fill: #c4c0cc;
      }

      .cls-78 {
        fill: #e7b4b9;
      }

      .cls-79 {
        fill: #999cbc;
      }

      .cls-80 {
        fill: #a2a2bd;
      }

      .cls-81 {
        fill: #978cab;
      }

      .cls-82 {
        fill: #c4c8dd;
      }

      .cls-83 {
        fill: #a9b1c8;
      }

      .cls-84 {
        fill: #9593b0;
      }

      .cls-85 {
        fill: #fdecdf;
      }

      .cls-86 {
        fill: #9896b2;
      }

      .cls-87 {
        fill: #fadfd4;
      }

      .cls-88 {
        fill: #7c7283;
      }

      .cls-89 {
        fill: #b78fb2;
      }

      .cls-90 {
        fill: #9e8dac;
      }

      .cls-91 {
        fill: #8d8aa7;
      }

      .cls-92 {
        fill: #a7b0c8;
      }

      .cls-93 {
        fill: #c79898;
      }

      .cls-94 {
        fill: #dfe3eb;
      }

      .cls-95 {
        fill: #f0cbc4;
      }

      .cls-96 {
        fill: #a69db3;
      }

      .cls-97 {
        fill: #bac4d7;
      }

      .cls-98 {
        fill: #bf94b5;
      }

      .cls-99 {
        fill: #a9a6b3;
      }

      .cls-100 {
        fill: #9892ac;
      }

      .cls-101 {
        fill: #deacc6;
      }

      .cls-102 {
        fill: #f8d5cc;
      }

      .cls-103 {
        fill: #c4d0e3;
      }

      .cls-104 {
        fill: #fcf1d2;
      }

      .cls-105 {
        fill: #f8d7cd;
      }

      .cls-106 {
        fill: #fae1d6;
      }

      .cls-107 {
        fill: #7b7082;
      }

      .cls-108 {
        fill: #9697b3;
      }

      .cls-109 {
        fill: #c5a99a;
      }

      .cls-110 {
        fill: #f8eeb2;
      }
    </style>
    <linearGradient id="_名称未設定グラデーション_12" data-name="名称未設定グラデーション 12" x1="139.67" y1="90.05" x2="197.74" y2="115.16" gradientUnits="userSpaceOnUse">
      <stop offset="0" stop-color="#fbf1d4"/>
      <stop offset="1" stop-color="#f4d5ba"/>
    </linearGradient>
  </defs>
  <g id="_レイヤー_1-2" data-name="レイヤー 1">
    <g id="_生成オブジェクト" data-name="生成オブジェクト">
      <path class="cls-19" d="M111.64,478.49c.17,1.15.14,3.21.15,4.28,0,.26.18,1.13.7,1.12l41.08-.2c1.07-.34.79-3.12.35-4.1.41.04.79,0,1.35-.07.46-.07.46-.84.9-1.93l16.08.2c2.46.03,4.68-.58,7.04-.15,2.76.51,5.41.29,8.25.24l8.97-.14,7.54.26.05,5.77h39.32s.28-5.92.28-5.92c2.55-.57,5.26-.09,8.2-.11l5.18-.04c5.93-.04,11.55-.29,17.29.39,1.69.2,3.86-.62,5.48.54,1.08.77,1.69,2.29,3.17,2.19,1.1-.07,13.27-.21,10,4.21-1.46,1.97-4.52,1.65-6.33,1.82-.8.08-1.42.86-1.88.97-.93.21-17.35,2.07-18.19,2.09l-37.97.58c-3.82.06-7.18.58-11.07.57l-82.4-.05c-8.62,0-17.3-1.25-23.4-.97-7.49.34-23.03.64-30.39-.88-3.02-.62-6.02.19-9.15-1.1-1.24-.51-3.31.69-4.7-.41-2.27-1.8-.9-5.89-.46-6.08,1.87-.8,5.92-.12,7.7-1.65.92-.79,1.91-1.59,3.43-1.19,2.2.58,4.03-.49,6.03-.67,4.97-.44,23.85-1.27,27.4.42Z"/>
      <path class="cls-61" d="M62.52,100.48c1.25-1.03,3.12-.68,5.25-.56.66-1.31.21-3.04.35-4.95-2.05-.45-3.91.38-5.67-.35l.31-5.07c1.85-.14,3.43-.34,5.17-.28.73,1.73.34,3.48.31,5.5l5.43.58c.57.7.64,3.14-.17,3.44-1.54.58-4-.39-4.83.79-1.11,1.83,0,4.29-.61,6.23-1.89.89-3.56,1.03-5.55.67v-6.01Z"/>
      <path class="cls-25" d="M62.52,100.48c-.38-.08-.63-.4-.99-.54.73-1.29.53-2.96.33-4.39-.03-.22-.18-.5.18-.67.15-.07.29.06.4-.26,1.76.73,3.62-.11,5.67.35-.13,1.91.31,3.65-.35,4.95-2.13-.12-4-.47-5.25.56Z"/>
      <path class="cls-110" d="M61.87,95.55c.2,1.43.39,3.1-.33,4.39-1.12-.44-2.8.29-3.91-.44-.6-.64-.86-3.33-.03-3.79,1.25-.69,3.05-.19,4.27-.17Z"/>
      <g>
        <g>
          <path class="cls-42" d="M34.45,84.36c-.03,2.74.81,5.35,1.03,8.07-6.21,1.85-4.35.69-10.23,1.69-.1-1.28-.73-2.96-.97-4.36,2.68-1.72-1.6-3.39,4.7-5,2.01-.51,3.94-1.43,5.47-.41Z"/>
          <path class="cls-43" d="M35.95,78.54c.18.95,1.22,2.59.59,3.57-.7,1.11-2.08.97-2.09,2.25-1.53-1.02-3.45-.1-5.47.41-6.31,1.61-2.02,3.28-4.7,5-.46-2.65-1.7-5.36-1.19-8.08.82.63,1.68-.17,2.64-.49,3.55-1.18,6.83-2.18,10.22-2.66Z"/>
          <path class="cls-52" d="M35.48,92.43c.07.87-.02,2.52.43,3.34,1.9,1,1.17,3.44,1.42,4.79l-1.82-.16c-.88-.08-.09-1.63-.55-2.06-1.25-1.19-3.49-.49-4.85.1-1.94-.3-2.2-1.96-3.29-.89-.51.5.02.72-.08,1.38-1.15-1.3-1.35-3.1-1.49-4.81,5.88-1,4.02.16,10.23-1.69Z"/>
          <path class="cls-76" d="M37.32,100.55l2.52,13.52c.9,4.85,1.82,11.65,2.18,16.81.2.74.94.87,1.31-.06,1.16.92.71,2.31.96,3.82,1.61,9.45,4.17,18.53,5.08,28.06.15,1.52,1.05,2.35,1.24,3.31,1.3,6.85,2.61,13.23,4.29,19.94,1.44,5.76,2.35,11.43,2.52,17.31.06,2.07.9,3.03,1.6,4.64,1.02,2.35.16,5.28.99,7.66,1.56,4.5,1.27,9.27,2.48,13.89.57,2.15-.68,4.48.06,6.04.9,1.63.06,3.3.71,5,.31.81,1.39,1.06,1.17,2.32-.25,1.43-.35,3.37.15,4.67,1.32,3.43-.88,4.09,2.36,11.08.44.95.4,3,.06,4.19-.86,1.05-3.17.72-4.59.51l-10.21-52.46-13.81-71.23-1.08-3.92-5.67-29.67-1.53-7.55c1.35-.59,3.6-1.29,4.85-.1.45.43-.33,1.98.55,2.06l1.82.16Z"/>
          <g>
            <path class="cls-56" d="M37,79.01c-.16.99.32,2.45.8,3.57,1.18,2.76,1.3,5.75,1.88,8.63l6.9,34.14,21.69,108.86,4.7,24.52,3.11.2c.12,1.06.69,1.98,1.72,2.42-.66.65-1.21.38-1.43.35-.2-.02-.3.27-.3.54-1.21-.11-2.36,0-3.8.79.54.37.7.44.64,1.11-.04.45-.58.81-.44,1.07.54.66.64,1.36-.02,1.85-.32.24-.76.65-1.31.57-4.12-.42-9.16-.1-12.74,2.33-1.43,2.35.17,6.04.73,8.39.41,1.72-.17,3.39,1.87,3.98.15,4.95,1.09,9.02,2.47,13.68,3.79.28,7.47-.01,11.05-.32,1.34-.12,3.08.68,4.2-.37.22.13.45.28.52.52-.48,1.11.5,1.99.74,3.21l3.33,16.65c.75,3.77.93,7.48,2.06,11.32.81.35,1.83-.24,2.64.4-1.01.57-1.83.06-2.69.33.08.69.52.94.62,1.45l10.92,57.33c.21,1.12-2.95,4.83-3.37,5.56-1.12,1.98-2.36,3.58-5.11,2.92-6.88-1.65-2.1-2.34-6.25-4.02l-16.19-89.56-6.27-.17c.38-3.16-1.06-5.55-1.67-8.18-1-4.37-1.3-8.54-2.82-12.72s-1.6-8.61-1.65-12.84l5.32-1.44-3.48-18.52-18.38-93.96-10.24-54.64c.1-.67-.43-.88.08-1.38,1.09-1.07,1.35.59,3.29.89l1.53,7.55,5.67,29.67,1.08,3.92,13.81,71.23,10.21,52.46c1.42.21,3.73.54,4.59-.51.33-1.19.38-3.24-.06-4.19-3.25-6.99-1.04-7.64-2.36-11.08-.5-1.3-.4-3.24-.15-4.67.22-1.26-.86-1.51-1.17-2.32-.65-1.71.19-3.38-.71-5-.74-1.56.51-3.89-.06-6.04-1.21-4.62-.92-9.39-2.48-13.89-.83-2.38.03-5.32-.99-7.66-.7-1.6-1.54-2.57-1.6-4.64-.17-5.88-1.08-11.54-2.52-17.31-1.68-6.71-3-13.09-4.29-19.94-.18-.96-1.09-1.79-1.24-3.31-.91-9.53-3.48-18.61-5.08-28.06-.26-1.52.2-2.9-.96-3.82-.37.93-1.11.8-1.31.06-.36-5.16-1.27-11.96-2.18-16.81l-2.52-13.52c-.25-1.34.48-3.78-1.42-4.79-.44-.82-.36-2.46-.43-3.34-.22-2.72-1.06-5.33-1.03-8.07.02-1.28,1.39-1.14,2.09-2.25.62-.98-.41-2.62-.59-3.57.2-.03.47-.27.62.09.06.14.3.34.44.38Z"/>
            <path class="cls-71" d="M85.66,350.76c.89,4.81,1.68,9.45,2.35,14.19.56,3.95,6.57,20.33,3.75,24.58-1.22,1.84-3.26.79-5.55.78l-16.24-88.57c2.3-.64,4.32-.92,6.82-1.21l2.31,14.71c.68,4.3,2.6,8.39,2.16,12.9-.16,1.62.22,2.77,1.38,3.82l1.05,8.09,1.97,10.7Z"/>
          </g>
        </g>
        <g>
          <path class="cls-36" d="M37,79.01c-.13-.04-.38-.24-.44-.38-.15-.36-.42-.12-.62-.09-3.38.47-6.67,1.47-10.22,2.66-.96.32-1.82,1.12-2.64.49.09-.51-.68-1.52-.86-2.01-.11-.3-7.4-1.12-9.15-.82l-.6-6c-2.34.07-4.32.3-6.19-.17l-.25-4.91c-1.53-.54-2.98-.06-4.64-.44l-.94-6.85c-.8-5.82-.31-11.79-.16-17.56,1.86-.33,3.22.15,4.75-.44l.63-7.87c.12-1.54,2.2-.66,2.63-1.21.35-.46,2.36-5.61,2.64-5.68.93-.23,1.66-.15,2.51-.41,1.18-.36.03-2.04,0-2.97-.18-5.47.05-10.53.18-15.89,1.5-.3,3.44-.33,4.4.95s.1,2.99,1.04,4.06c2.62.37,4.95-.05,7.22.53l.36,4.03c1.7.26,3.33-.13,4.83.47l.47,4.46c2.18-1.01,2.57,1.54,3.55,1.77,2.22.51,4.31,1.55,5.51,3.27.52.75,3.27-.19,3.17,1.77-.11,2.17,1.34,3.83,3.19,4.91.53.31.38,1.46.98,1.52,3.66.38.93,2.19,3.14,6.66,1.12-.01,2.09-.04,2.49.58,1.67,2.62-2.08,18.04-2.16,22.08-1.4.45-2.83.51-4.23,1.29.05,2.06.09,3.62-.29,5.46l-5.19.22-.23,5.21c-2.19.87-4.03-.52-4.88,1.3Z"/>
          <path class="cls-25" d="M30.74,59.2c-.41.89-.85,7.38-1.44,8.11-.91,1.13-2.91.61-4.18.47.52-1.66-2-8.21-1.98-8.2-1.61-.57-3.87.02-4.37-.37-.89-.71-.24-3.01-1.19-4.79-.51-.95-1.95,0-2.6-.43-1.52-1.01-3.08-1.18-5.03-1.1-.86-.87-.66-3.29-.35-4.59,1.29-.38,2.43-.11,3.7-.3l.81-5.02c1.01-.49,3.1.15,3.24-.7l.64-4c.17-1.08,2.71-.17,3.88-.62l.34-8.19c1.83-.31,3.59-.39,5.22.24.49,2.51-.32,5.03.38,7.43.28.98,1.26,2.01.64,3.37,1.58,1.07,3.28.24,4.85,1.07,1.12.6-.39,4.07.25,4.82,1.7,2,5.86.72,10.18,1.87,1.01.27,1.34,2.97.56,3.7-1.2,1.11-3.01.26-4.46.68l-3.65,1.07c-1.05,1.06.14,3.35-.77,4.61s-3.29.58-4.67.87Z"/>
        </g>
      </g>
      <g>
        <g>
          <path class="cls-75" d="M264.25,436.23l-15.02-61.54-5.02-22.22c-.16-.7.08-1.39.45-1.54.47-.19.94-.1,1.29,0,.69.22.22.97.39,1.53l2.23,7.61c3.19-.09,5.98-.06,8.65,1.68,1.49.97,4.82.99,6.07-.54.88-1.08,3.43-.34,4.05-1.6,2.56-5.25,6.32-1.85,7.21-15.68-1.07-.36-1.49.3-2.17.4.02-2.79-.71-5.6-1.51-8.2.56-.36.15-1.29.87-1.46-.19,1.71,3.71.48,4.92,1.28.82.54-.31,3.1,1.09,4.97.41.55,1.95.45,2.88.8.73,1.6.89,8.18,3.22,8.26.72,1.94.67,4.94,2.33,6.43,1.37,1.22.81,2.82,1.54,4.21,1.29,2.45,3.16,4.46,3.17,7.6,0,1.74.91,3.11,1.59,4.45.98,1.92-.19,5.12,1.96,6.48.53.34,2.33-.18,2.77.44.85,1.21-1.02,6.97,4.55,7.52l.92,6.4,3.21.63,1.5,6.12,3.34.34c.5,1.69.54,3.19.55,4.88,1.31.66,2.53.56,4.21.87-.13,2.86,2.2,4.56,5.14,5.08.31,2.24.53,4.73-.02,6.85-.38,1.48-2.87,1.34-3.53,2.13-.7.85-.9,2.28-2.62,2.51-2.06.28-4.17.45-6.07.95-.17,1.7-.24,3.56-1.57,4.88-1.66,1.66-4.46,1.59-6.77,1.76-.35,1.74-.44,3.46-1.24,5.06l-32.92.19c-.79,0-1.37-.14-1.63.46Z"/>
          <path class="cls-101" d="M316.43,412.77c.77.88-.35,2.87-.1,4.12l-9.52,2.05c-6.1-7.25-5.47-1.75-7.01-8.23-2.52-.58-1.79-2.11-2.23-5.26-.09-.61-3.46.54-3.03-6.36.07-1.11-1.41-.81-1.65-1.22-1.64-2.77-.99-6.11-2.4-8.99-.16-.32-1.2-.16-1.48-.36.02.01-3.41-7.15-3.05-8.93,1.92-.56,3.56-.44,5.65-.11-1.37,3.26,2.37,7.72,4.96,7.26,1.11,1.19.29,7.65,3.57,7.27.45,2.19-.38,4.14-.19,6.52l6.43.52.61,5.48c1.42.1,2.75-.31,3.93.47.04,1.09-.42,1.6-.54,2.55,1.23.12,1.69.86,2.49,1.51s2.26.24,3.57,1.72Z"/>
        </g>
        <g>
          <path class="cls-73" d="M116.61,253.36c.37.56-.27,1.09-1.07,1.06s-1.16.09-1.46.29c-.52.35-.57,1.54-.88,1.87-1.01.47-2.28.88-1.91,2.63l-7.23.73c-.09.81-.27,1.7-.27,2.3.86,1.81-16.06.88-17.68,1.23l5.07,23.64c2.29,10.7.97,21.83,1.46,33.01,3.64-.22,6.83-.69,9.9-1.03.3.48.36,1.31.95,1.55-.17,1.32.12,2.7-.44,4.04l-9.92,1.4c-.42,1.19-1.03,2.02-.85,3.36-2.08.92-4.22-.04-6.36-.26-.1-.51-.54-.76-.62-1.45.86-.26,1.69.25,2.69-.33-.8-.65-1.83-.06-2.64-.4-1.13-3.84-1.31-7.56-2.06-11.32l-3.33-16.65c-.24-1.21-1.22-2.1-.74-3.21l5.88-.32.08-9.48c.04-4.78-.93-9.08-1.57-13.48l-.76-5.22c-.99-.38-2.15-.1-3.18-.62l-.63-4.82c-1.31-.29-2.04.79-2.99.89v-.54c0-.28.1-.57.3-.54.22.02.77.3,1.43-.35-1.03-.44-1.6-1.36-1.72-2.42,1.06.07,17.19.35,17.92-.4.26-.27-.1-.78.37-1.3,3.6-.83,7.15.21,10.66-.89.58-.18-.26-1.97.64-2.16,1.5-.31,9.99-1.68,10.95-.81Z"/>
          <path class="cls-91" d="M267.85,300.58c-.65,2.25-4.08.52-3.62,1.53-.3-.27-.77-.03-1.23-.3-.22-7.44-1.97-6.07-2.25-9.38-.66-8-3-2.23-3.42-7.64-.12-1.58.14-4.01-1.13-5.1-.59-.51-1.94.02-2.26-.62.15-2.06-.5-4.23-.53-6.57-.04-2.74-4.65-.01-4.73-2.08l-.2-4.91-1.01-5.63c-.4-.95-2.98-.75-3.87-.76-.12,0-.31-.14-.42-.09.03-1.99-.28-3.9-.12-5.87,1.39.13,2.78-.05,4.42.32l.34,5.81c1.61.27,3.17.04,4.73.49.58,1.92.75,3.76,1.16,5.59l1.06,4.8c.24,1.1,2.95.4,3.3,1.24,1.6,3.93-1.48,7.02,3.91,8.84.75,2.29-.05,5.72,1.77,7.3,1.51,1.01,1.63,1.59,1.97,3.51.57,3.2,1.91,6.32,2.13,9.53Z"/>
          <path class="cls-58" d="M129.03,246.55c.37-.12.6.16.84.36.42.34-.13.71-.14,1.33,0,2.56,6.07-.85,5.08,3.02-.05.66-.12.81-.05,1.11.36,1.47,2.97.61,3.21,1.22l.55,1.44c1.29.5,2.66-.24,4.31-.05.47,1.72-.17,3.24.13,5.13l5.37.29.24,4.52,6.24.23.29,4.72c-1.3.03-2.85.12-4.36-.22-1.75-.39-2.52-2.01-2.09-3.77-1.75-.72-3.52-.56-5.45-.47-.16-1.62.2-3.59-.57-5.41l-4.24-.02c1.13.19-2.01-2.23-2.59-2.12-.34.07-.97.32-.96.76-.42.16-.97-.16-1.43-.44s-.64-.73-.22-1.18.78-.58,1.82-.94c-.48-.49-1.37-.52-1.62-1.23,4.6-1.14-3.51-1.28-4.34-1.35.03-1.29.02-2.62-.11-4.05l-3.68-.35c-1.14-.11-1.72-1.35-2.73-1.49-.26-.53.26-.49.6-.56,1.94-.4,3.92-.36,5.91-.45Z"/>
          <path class="cls-103" d="M122.58,253.55c-.74,2.35-.61,4.95-.83,7.37s-2.23,2.3-3.84,2.58c-.72.13-1.22,1.15-2.38,1.04-3.83-.37-7.53.24-11.19-.42-.58-.1-.54-1.45-.54-1.9,0-.61.19-1.5.27-2.3l7.23-.73c-.37-1.75.9-2.16,1.91-2.63.32-.33.36-1.52.88-1.87.3-.2.67-.32,1.46-.29s1.44-.49,1.07-1.06c.2.06.34-.08.44-.25,1.74.3,3.72.51,5.52.45Z"/>
          <path class="cls-108" d="M122.53,247.57c1.01.14,1.59,1.38,2.73,1.49l3.68.35c.14,1.43.15,2.76.11,4.05-2.17-.18-4.32.03-6.48.1-1.8.06-3.78-.15-5.52-.45-.36-1.77-.04-3.72.49-5.63,1.98.01,3.46-.12,4.98.09Z"/>
          <path class="cls-97" d="M238.82,258.68c1.37.05,2.89,1.06,4.37.34.11-.05.3.1.42.09-.56,1.76-.96,4.38.5,5.83l4.38.57.2,4.91c.08,2.06,4.7-.66,4.73,2.08.03,2.34.68,4.51.53,6.57-.16,2.19-.05,4.85,1,7.09,3.71-.47,1.55,9.35,3.05,10.07.22.11,1.1-.02,1.16.24l2.7,12.94c.72,3.45,1.25,6.78,2.14,10.28l-6.45,1.27c-.74,1.32-.49,2.76-1.46,3.92h-14.81c-1.1-2.13-1.23-4.46-1.52-6.95l-2.44-21.02-3.66-.42-2.23-11.68c-.09-.46-1.28-.14-1.44-.43-.22-.41,0-.99-.27-1.76s-1.47-.13-2-.7c-.55-1.58-.11-3.49-.82-5.16-.17-.39-1.43.13-1.68-.36l-.25-3.47c-.66-.2-1.07-.14-1.41-.4-.26-1.09.91-3.67-.3-3.84l-2.86-.4.71-4.03c-.25,1.43,3.56-6.67,9.63-5.48,2.78.55,5.54-.2,8.08-.1Z"/>
          <path class="cls-21" d="M129.05,253.45c.83.07,8.94.21,4.34,1.35.26.72,1.14.74,1.62,1.23-1.04.36-1.38.47-1.82.94s-.23.91.22,1.18,1,.59,1.43.44c.02.63-1.15.98-1.3,1.65.03-.15-4.31,20.31-3.95,16.72-.61.36-1.1-.24-1.74-.15s-2.52,5.65-3.26,6.28c-4.34,3.7-6.23,7.34-8.69,9.67,1.03-.98-4.61,1.96-6.87,3.75-1.01.8-2.69,1.23-3.61,1.29-5.02.32-.47,4.11-8.44,3.65-.69-2.19-.78-3.99-1.71-5.89-2.08-4.23-.03-8.71-4.1-8.46l-5.07-23.64c1.62-.35,18.53.58,17.68-1.23,0,.45-.03,1.8.54,1.9,3.66.66,7.36.05,11.19.42,1.17.11,1.67-.91,2.38-1.04,1.62-.29,3.64-.24,3.84-2.58s.09-5.03.83-7.37c2.16-.07,4.31-.28,6.48-.1Z"/>
          <path class="cls-92" d="M253.94,279.07c.32.64,1.66.11,2.26.62,1.27,1.09,1.01,3.52,1.13,5.1.42,5.41,2.77-.36,3.42,7.64.27,3.31,2.02,1.94,2.25,9.38.47.26.94.03,1.23.3s1.25-.11,1.33.4l1.73,10.76c.69.55,1.92.18,2.44.75,1.42,1.56.74,4.26,1.36,6.06.44,1.29,2.34,4.36.6,5.21-2.05,1-4.4.74-6.5,1.98-4.8,2.81-11.23,2.51-16.52,5.25-4.19,2.18-8.27,4.67-13.37,4.52l-3.88-23.98c-.51-3.13-1.56-5.91-2.14-9.19l-3.55-19.98c-.47-2.66-.32-5.1-.49-7.48.24.49,1.51-.04,1.68.36.71,1.67.27,3.58.82,5.16.53.57,1.74-.05,2,.7s.06,1.35.27,1.76c.15.29,1.35-.04,1.44.43l2.23,11.68,3.66.42,2.44,21.02c.29,2.49.42,4.82,1.52,6.94h14.81c.96-1.15.72-2.6,1.46-3.91l6.45-1.27c-.89-3.49-1.42-6.82-2.14-10.28l-2.7-12.94c-.05-.26-.94-.13-1.16-.24-1.51-.72.66-10.54-3.05-10.07-1.06-2.24-1.16-4.9-1-7.09Z"/>
          <path class="cls-9" d="M155.52,275.22c1.85-.24,3.67.34,5.51-.11.11,1.69.06,3.38-.09,5.07-.19,2.17-.07,4.46.15,6.77.08.2.86.11.98.26-.51.71-.15,1.36-.22,1.9-.13,1.04,1.35,1.3,1.54,1.88.5,1.52,1.29,1.52,2.23,1.97,1.23.59.34,2.84.3,3.85-.07,2.06.89,3.82-.1,5.48-.67-.05-1.35.35-2,.1-.75-.29-1.86-.35-2.38.27-8.96-.93-18.28-.19-27.36-.29-1.27-.01-2.57.17-3.83.25.3-3.78,1.61-7.39,2.31-11.09.44.16.77.07.89-.37.57-2.11,2.63-.39,4.42-1.71l1.83-13.38c.58-.34,1.9-.17,1.83-.83-.21-2.09,1.11-4.08,1.07-4.83,1.4.26,2.96-.39,4.44.27.02,1.61-.53,4.41.98,4.73,2.56.53,5.18.12,7.5-.19Z"/>
          <path class="cls-64" d="M239.48,253.49c-.12,1.73-.31,3.48-.66,5.19-2.54-.1-5.3.65-8.08.1-6.07-1.19-9.88,6.91-9.63,5.48l-.71,4.03,2.86.4c1.22.17.05,2.75.3,3.84l-3.64.12c.7,9.59,3.01,19.87,4.82,29.09-1.85.75-3.93.57-5.96.55l-8.61-.07c-.52-.28-.6-.74-1.08-.6,1.23-4.08,2.71-8.05,2.99-12.5.04-.6.57-1.7,1.29-1.82,1-.16,2.44-.18,2.61-1.26.36-2.26-.45-4.35-.68-6.5l-1.5-13.56c-.53.42-.53,1.19-.94,1.43-.66.39-1.36.43-2.06.36-1.58-.16-2.32,1.5-3.29,1.74-1.79.44-2.9.81-4.4,1.68-1.17.68-3.13-.02-4.15,1.09-.42.46.33,2.37-.43,2.64-2.15.67-4.24.29-6.21.25,0-1.6-.04-3.77,1.48-4.91,1.05-.79,2.65-.24,4.05-.38l1.3-3.33c1.82-.11,3.16,0,4.76-.38,0-4.34,4.37-3.24,4.13-4.97,1.24.53,1.7-1.19,2.74-1.46,5.14-1.35,6.21-2.47,9.3-5.22,1.27-1.13,3.74.1,5.02-1.25.72-.76.2-2.48,1.02-2.91,2.84-1.51,4.34.13,6.22-2.24.42-.52,4.96-.2,5.2-.03,1.72,1.31-.39,5.15,1.95,5.39Z"/>
          <path class="cls-47" d="M129.6,276.97c-.84,8.38-2.76,16.67-4.24,25.19-1.2.28-2.05.17-2.97.54-.85,6.42-2.62.74-5.47,5.36-.94.72-2.9,0-4.19.57-1.4.62-.25,2.98-.98,3.92-1.36,1.75-4.36,1.57-6.43,1.94-3.29.6.07,4.26-2.77,4.58-3.08.34-6.26.81-9.9,1.03-.48-11.18.84-22.31-1.46-33.01,4.06-.25,2.01,4.23,4.1,8.46.93,1.9,1.02,3.7,1.71,5.89,7.97.45,3.42-3.34,8.44-3.65.92-.06,2.6-.49,3.61-1.29,2.25-1.78,7.9-4.73,6.87-3.75,2.45-2.33,4.34-5.97,8.69-9.67.74-.63,2.6-6.19,3.26-6.28s1.13.51,1.74.15Z"/>
          <g>
            <path class="cls-1" d="M111.8,482.77c-.02-1.07.02-3.13-.15-4.28-.32-2.15.36-4.34.16-6.89,1.99-.22,3.33-.25,4.82-.23,1.75.29-.63,4.34,1.16,5.92l22.03-.33c2.49-.04,5.17.78,7.92.14.54-1.06.55-2.59.56-4l.13-19.97c.15-.93,4.17-1.13,4.97-.23.72.82.17,1.4.15,2.42l-.37,22.94c-.02,1.45-.68,2.97-.24,4.52-1.4.59-2.4.15-3.5.15l-37.64-.15Z"/>
            <path class="cls-17" d="M137.76,468.24l2.05,8.71-22.03.33c-1.79-1.58.59-5.63-1.16-5.92,0-.45.59-.54.65-.97.51-.26.35.78.62.79l4.22.09c.69-1.45.43-2.55.45-3.85,1.21.16,2.5.6,3.44-.16.42-.34-.09-.78,0-.99.77-1.67,9.62-.52,11.75,1.97Z"/>
            <path class="cls-65" d="M148.43,453.12l-.13,19.97c0,1.41-.02,2.94-.56,4-2.76.65-5.43-.17-7.92-.14l-2.05-8.71c.55-.65,1.3-.99,1-1.8-1.01-2.69-4.9-4.56-8.79-3.51-.1-3.64-.34-6.88,0-10.43l17.83-.02c.24.43.36.77.63.63Z"/>
          </g>
          <g>
            <path class="cls-66" d="M209.61,454.18l.14,22.73c2.33,1.22,4.57-.19,6.39-.03,7.31.65,14.75.21,22.4.34l.24-5.8c1.47-.23,2.96-.12,4.76.26l.17,6.17-.28,5.92h-39.32s-.05-5.77-.05-5.77l-.1-25.89-17.05-.17c1.64-1.07,8.51,0,12.16-.72,4.92-.97,2.75,1.02,10.1,1.5-.22.98-.18,1.55.44,1.47Z"/>
            <path class="cls-38" d="M238.71,470.35c.05.28.08.76.07,1.07l-.24,5.8c-7.65-.13-15.09.31-22.4-.34.8-4.43,1.01-6.63,3.31-10.33,3.79-1.65,9.43-.56,13.72.67.7,1.13.33,2.25.85,3.55,1.61.39,3.49.61,4.68-.41Z"/>
            <path class="cls-70" d="M219.46,466.54c-2.3,3.7-2.51,5.91-3.31,10.33-1.82-.16-4.06,1.25-6.39.03l-.14-22.73c0-.29.11-.99.37-1.46,5.81-.88,11.55-.78,17.53-.39.04,3.55.02,6.48-.31,9.78-2.24.57-4.5-.24-6.75.71l-2.28,3.18c.63.45.97.37,1.29.55Z"/>
          </g>
          <path class="cls-16" d="M165.83,302.29c5.07.35,10.19.16,15.26,0,1.69-.06,3.7.04,5.28.46l.26,9.12c.03.99-.01,2.33-.66,3.07l-21.92-.2-.23-12.34c.65.25,1.33-.14,2-.1Z"/>
          <path class="cls-62" d="M161.45,302.65c-.71,2.36.37,8.26-.56,8.94-1.77.62-3.76.5-5.89.53l-17.83.23c-3.3.04-6.26-.27-9.26-.33-.55-.56-.02-1.51.02-2.19,1.28-.33,3.27.48,4.26-.54,2.5-2.58,2.38-2.62,1.9-6.95,9.08.1,18.4-.64,27.36.29Z"/>
          <path class="cls-44" d="M227.88,314.71c-3.73.23-7.49.21-11.39.22l-10.17.03-19.33.31-1.01-.34c.64-.74.68-2.08.66-3.07,7.65.71,14.13-.08,22.94.44,5.02.3-.47-2.73,9.39-2.56.62-2.42.15-5.03-.2-7.43,2.03.02,4.11.19,5.96-.55,2.34-.94,2.94,11.27,3.15,12.96Z"/>
          <path class="cls-60" d="M142.61,270.4c.04.76-1.28,2.74-1.07,4.83.07.66-1.26.49-1.83.83l-1.83,13.38c-1.79,1.32-3.85-.4-4.42,1.71-.12.43-.45.53-.89.37,1.61-8.52,2.67-17.27,5.05-25.52l4.68-.58c.56,1.71.24,3.36.32,4.99Z"/>
          <path class="cls-28" d="M155.12,269.85l.41,5.37c-2.32.31-4.93.72-7.5.19-1.51-.31-.96-3.12-.98-4.73-1.47-.66-3.04-.02-4.44-.27-.08-1.63.24-3.28-.32-4.99l-4.68.58c.52-1.8-.4-4.27.78-6.04l4.24.02c.77,1.82.41,3.79.57,5.41,1.94-.09,3.7-.24,5.45.47-.43,1.76.35,3.38,2.09,3.77,1.51.34,3.06.25,4.36.22Z"/>
          <path class="cls-57" d="M161.03,315.11l-19.68-.27-13.95.24c-.11-1.06.09-2.12.51-3.05,3,.06,5.96.37,9.26.33l17.83-.23c2.12-.03,4.11.09,5.89-.53,1.27,1.02.15,2.36.15,3.51Z"/>
          <g>
            <path class="cls-4" d="M138.39,259.95c-1.18,1.77-.26,4.25-.78,6.04-2.38,8.25-3.44,17-5.05,25.52-.7,3.7-2.01,7.31-2.31,11.09-1.4-1.05-2.3,6.84-2.33,7.23-.05.67-.58,1.63-.02,2.19-.42.93-.62,1.99-.51,3.05-2.02,2.01-1.04,5.5-2.25,8.12-.94,2.04-1.19,3.79-1.56,6.03-1.34,8.1-3.03,15.95-4.54,23.99l-5.06,26.97-5.67,28.97-2.92,14.85c-.68,3.44-.71,6.86-1.92,10.12l-1.73,12.42,59.32.06-.05-131.49c0-1.15,1.12-2.49-.15-3.51.93-.68-.14-6.59.56-8.94.53-.61,1.64-.55,2.38-.27l.23,12.34,21.92.2,1.01.34.06,131.31,28.53.08,45.57-.3c-.67-3.76-.92-7.01-2.22-10.15-1.1-2.66-1.48-5.56-2.19-8.55l-5.91-24.84-5.46-22.26c-1.35-5.5-2.16-10.91-3.42-16.39-.07-.3-.94-.21-1.19-.26-.59-.13-.42-.94-.5-1.65l-2.09-17.45c-.09-.73.63-2-.55-2.37s-2.41-.11-3.82-.15c-1.1-1.68-.44-4.08-1.32-5.77-.56-1.08-1.24-1.4-1.37-2.93-.67-7.82-2.27-10.93-3.24-18.87-.21-1.68-.8-13.9-3.15-12.96-1.81-9.23-4.12-19.5-4.82-29.09l3.64-.12c.35.26.76.21,1.41.4l.25,3.47c.17,2.37.01,4.82.49,7.48l3.55,19.98c.58,3.28,1.64,6.06,2.14,9.19l3.88,23.98c5.11.15,9.18-2.34,13.37-4.52,5.3-2.75,11.72-2.44,16.52-5.25,2.11-1.23,4.45-.98,6.5-1.98,1.74-.85-.16-3.92-.6-5.21-.62-1.8.06-4.5-1.36-6.06-.51-.56-1.75-.2-2.44-.75l-1.73-10.76c-.08-.51-1.03-.13-1.33-.4-.46-1.01,2.97.72,3.62-1.53-.14,1.26,1.49,1.03,2.28,1.38l1.42,7.1c.12.6,2.07.16,2.62.78,1.2,1.34.13,3.06,2.24,8.44,1.29,3.29.95,7.35.75,10.77l-5.55,1.67c.08,1.61-.14,2.83.11,3.97-.72.17-.31,1.11-.87,1.46l-4.09-.21c-.67-.72-.48-1.61-.83-2.56-4.42.53-8.57,1.45-13.08,2.64-2.35.62-6.01.39-7.45,2.56-1.25,1.87-.07,5.08-.45,7.33,2.04.39,3.12-.86,4.69-.96,1.16-.16.75,2.98,1.23,5.47.25,1.28-.68,3.14.28,4.34s4.67-.86,4.49,1.03c-.09.96-.18,3.46.66,4,1.41.9,3.35.14,4.59-.21.21.64.87.36,1.2.15,1.59-1.02-.56-3.39,2.31-4.22,1.12-.32,3.1-.07,3.94-1.06s.03-3.12,1.21-4.22c.38-.35,1.62-.13,1.75-.98.25-1.73,1.05-3.38,1.06-4.9.68-.11,1.1-.76,2.17-.4-.89,13.83-4.65,10.43-7.21,15.68-.61,1.26-3.16.52-4.05,1.6-1.24,1.53-4.58,1.51-6.07.54-2.67-1.73-5.46-1.76-8.65-1.68l-2.23-7.61c-.16-.56.3-1.31-.39-1.53-.35-.11-.81-.2-1.29,0-.36.14-.6.84-.45,1.54l5.02,22.22,15.02,61.54,1.14,4.96c.82,3.58,1.8,6.86,1.26,10.74l-33.25.26c-.33,3.75-.16,7.33-.03,11.08l4.31,1.47,1.04,5.61c-1.19,1.02-3.08.81-4.68.41-.52-1.3-.15-2.42-.85-3.55-4.29-1.24-9.93-2.32-13.72-.67-.32-.18-.66-.1-1.29-.55l2.28-3.18c2.25-.94,4.51-.14,6.75-.71.33-3.3.35-6.23.31-9.78-5.98-.39-11.72-.49-17.53.39-.26.46-.37,1.16-.37,1.46-.62.08-.66-.49-.44-1.47-7.35-.48-5.18-2.47-10.1-1.5-3.65.72-10.53-.35-12.16.72l-32.28.34c-1.13.77-.19,3.01-.2,4.02l-.12,20.92c0,.63-.64,1.82-.39,2.37.44.98.73,3.76-.35,4.1l-41.08.2c-.52,0-.7-.86-.7-1.12l37.64.15c1.11,0,2.1.44,3.5-.15-.44-1.55.21-3.08.24-4.52l.37-22.94c.02-1.02.58-1.6-.15-2.42-.8-.9-4.82-.7-4.97.23-.27.14-.4-.2-.63-.63l-17.83.02c-.33,3.55-.1,6.79,0,10.43,3.89-1.05,7.78.82,8.79,3.51.3.81-.44,1.15-1,1.8-2.14-2.49-10.99-3.64-11.75-1.97-.1.21.41.66,0,.99-.94.75-2.24.32-3.44.16-.01,1.3.24,2.4-.45,3.85l-4.22-.09c-.27,0-.1-1.05-.62-.79.24-1-.06-2.06.38-3.28l4.31-.48c-1.15-2.01,1.3-2.75,1.58-3.74.91-3.24.24-7.3.21-10.69l-28.13-.16c-.27-3.22.36-6.05.96-9.28l9.91-53.49,12.74-65.84c.99-5.13,2.77-9.56,3.2-14.74-1.52-.41-3.1-.14-4.64.06l-.65,4.89c-1.78.35-3.52.05-5.18.74-.23,1.57,0,3.18-.68,4.63l-7.92.52.13,1.08c-.59-.23-.65-1.07-.95-1.55,2.84-.32-.52-3.98,2.77-4.58,2.06-.38,5.07-.2,6.43-1.94.74-.94-.42-3.3.98-3.92,1.29-.57,3.25.15,4.19-.57,2.86-4.62,4.63,1.06,5.47-5.36.92-.38,1.77-.26,2.97-.54,1.48-8.52,3.4-16.8,4.24-25.19-.36,3.59,3.98-16.87,3.95-16.72.15-.67,1.32-1.02,1.3-1.65-.01-.44.62-.7.96-.76.58-.11,3.72,2.31,2.59,2.12Z"/>
            <path class="cls-35" d="M172.94,320.72c1,.74.56,3.03,1.44,3.78,1.97,1.68,4.87.58,7.05.91l.03,38.83-14.98-.05.2-43.17c2.23-.35,4.27-.4,6.26-.29Z"/>
            <path class="cls-33" d="M181.42,325.4c-2.18-.32-5.08.77-7.05-.91-.88-.75-.44-3.04-1.44-3.78,2.61-.54,5.38-.38,8.32-.39.77,1.88.17,3.51.17,5.07Z"/>
          </g>
          <path class="cls-109" d="M134.09,302.36c.48,4.33.6,4.37-1.9,6.95-.99,1.02-2.97.21-4.26.54.03-.39.92-8.29,2.33-7.23,1.25-.08,2.56-.27,3.83-.25Z"/>
          <path class="cls-83" d="M248.48,265.51l-4.38-.57c-1.46-1.45-1.07-4.07-.5-5.83.88.02,3.47-.19,3.87.76l1.01,5.63Z"/>
          <path class="cls-7" d="M243.06,253.15c-.16,1.97.15,3.88.12,5.87-1.48.72-3-.29-4.37-.34.36-1.71.54-3.45.66-5.19,1.18.02,2.4-.45,3.58-.34Z"/>
          <g>
            <path class="cls-98" d="M219.84,234.23c2.22-.2,4.96.59,7.16-.04.02.88,1.02,1.37,1.21,2.7,1.01.59,2.92.36,4.15.48.9,1.81-.59,2.66,1.06,4.25-1.89.16-.34,3.47-.8,4.63-3.85,1.26-7.86-1.2-7.9,2.61-.89.59-6.28-.28-6.06.95-.04-2.39-5.98-.98-7.15-1.8.39-1.76.89-3.13-.13-4.27-3.77,3.41-4.08,1.92-9.13,4.12-2.48,1.08-4.96.51-7.79,1.1-.78.16-1.31,1.36-2.75,1.07-1.7-.34-3.52.31-5.25.27l-1,3.46c-6.55,1.04-4.72,4.14-6.57,4.17s-2.07.87-3.1,1.91c-.93.94-4.03.97-5.07.22-1.21-.87-1.94-2.07-4.05-1.52.05-1.27.88-3.66-.26-4.34-1.61-.52-3.47.18-4.89-.06.17-.38-.47-.62-.87-1.12.98-2.13-.03-3.97.14-5.84s.43-3.81-.53-6c-3.47-.28-6.87-.22-10.09-.58l-4.36-.49c-1.09-.12-3.04.42-3.51-.75-.22-.54-.62-1.93-.58-2.5.08-1.14,1.45-1.19.9-2.24,6.04.57,12.24.33,18.37.29.4,1.6-.85,3.78.26,5.39.72,1.03,3.37.99,4.53.88-.22,1.32.07,2.78.25,4.14.22,1.65,2.33,1.25,3.1,2.12,1.24,1.38,3.79,8.15,6.45,8.06.12,0,6.44-4.75,6.45-7.71,1.34-.22,3.02-.38,3.9-1.27.68.97,3.72,1.1,4.47.15,1.15-1.47.96-3.8,1.41-5.47,1.03-.16,2.95.25,3.84-.48.82-1.7.52-3.86.5-5.56,4.2.11,8.54-.78,12.82-.46,1.78.13,3.93.23,5.46-.51,1.7,1.03,3.65.24,5.42.08Z"/>
            <path class="cls-81" d="M233.43,241.61c1.21.21,3.73-.47,4.46.72.81,1.32-.17,3.25.28,4.87,1.39.56,2.74.19,4.62.45.09,1.93.41,3.78.27,5.5-1.17-.11-2.4.36-3.58.34-2.34-.24-.22-4.08-1.95-5.39-.23-.18-4.78-.5-5.2.03-1.88,2.37-3.38.73-6.22,2.24-.83.44-.31,2.15-1.02,2.91-1.27,1.36-3.74.12-5.02,1.25-3.09,2.75-4.16,3.87-9.3,5.22-1.04.27-1.5,1.99-2.74,1.46.4-2.51,1.55-4.38,4.69-4.62l-.39-1.93c-.06-2.65,4.86-.24,5.83-1.87.38-.65.51-2.06.5-3.01-.21-1.22,5.17-.36,6.06-.95.04-3.8,4.05-1.34,7.9-2.61.46-1.16-1.09-4.48.8-4.63Z"/>
            <path class="cls-89" d="M135.42,236.77c.15.02.32.3.51.07-.48,1.4-.81,2.84-.88,4.32l-5.58.34c-.28,1.95-.53,3.52-.44,5.05-1.98.09-3.97.06-5.91.45-.02-1.84-.05-3.75.56-5.6l5.23-.45c.88-3.05,3.66-4.6,6.51-4.19Z"/>
            <path class="cls-25" d="M135.93,236.84c-.18.23-.35-.05-.51-.07.14-.68.06-1.31.03-2,.19,0,.44-.09.63-.14-.01.75.09,1.49-.15,2.2Z"/>
            <path class="cls-63" d="M135.05,241.15c.05.2.57.7,1,.66,3.91-.38,7.11,1.05,10.36,2.83,1.34.74,1.91,1.75,2.96,2.64,1.84,1.55,5.45.98,6.86,2.51,1.03,1.12,2.29.88,3.61,1.61.53.29-.02,1.7.23,2.14.3.53.77.48,1.43.59,1.42.24,3.28-.46,4.89.06,1.14.68.31,3.07.26,4.34,2.11-.55,2.84.65,4.05,1.52,1.05.75,4.15.72,5.07-.22,1.03-1.04,1.18-1.88,3.1-1.91s.02-3.13,6.57-4.17l1-3.46c1.74.04,3.55-.61,5.25-.27,1.44.29,1.98-.91,2.75-1.07,2.83-.59,5.31-.02,7.79-1.1,5.06-2.2,5.36-.72,9.13-4.12,1.02,1.13.52,2.51.13,4.27,1.17.83,7.11-.59,7.15,1.8.02.94-.11,2.36-.5,3.01-.96,1.63-5.89-.78-5.83,1.87-2.21,1.36-4.96.13-7.5,1.08l-.62,5.06-5.17.17-.91,4.74-5.05.53c-.66.61-.18,3.07-1.23,3.43-1.43.49-3.18-.52-4.34.21s-.02,5.66-1.56,5.13c-1.51-.05-2.95.09-4.41.22-4.96.43-10.31-.56-15.15.36-1.42-.67-3.69-.92-5.38-.5-.09-1.38.23-4.22-1.03-5.04-1.45-.94-3.59-.24-4.88-.22l-.29-4.72-6.24-.23-.24-4.52-5.37-.29c-.31-1.89.34-3.42-.13-5.13-1.66-.18-3.02.55-4.31.05l-.55-1.44c-.24-.61-2.85.25-3.21-1.22-.07-.3,0-.45.05-1.11.99-3.87-5.09-.46-5.08-3.02,0-.62.56-.99.14-1.33-.25-.2-.47-.49-.84-.36-.08-1.53.16-3.11.44-5.05l5.58-.34Z"/>
            <path class="cls-78" d="M181.02,234.74l15.12.38c.02,1.7.31,3.86-.5,5.56-.9.73-2.81.32-3.84.48-1.65.25-3.84-.96-5.02.51-.45.06-.36-.36-.49-.88-6.98.24-13.79-.3-20.51.35-1.16.11-3.82.15-4.53-.88-1.12-1.6.14-3.79-.26-5.39l20.04-.14Z"/>
            <path class="cls-105" d="M186.78,241.67l-.86,4.81c-.88.9-2.57,1.05-3.9,1.27,0,2.95-6.33,7.7-6.45,7.71-2.66.1-5.21-6.68-6.45-8.06-.77-.86-2.88-.47-3.1-2.12-.18-1.36-.46-2.81-.25-4.14,6.73-.65,13.53-.11,20.51-.35.13.51.04.94.49.88Z"/>
            <path class="cls-59" d="M142.6,234.6c.55,1.05-.82,1.11-.9,2.24-.04.57.36,1.96.58,2.5.47,1.17,2.42.63,3.51.75l4.36.49c3.73,7.94,4.13,3.77,10.62,6.58-.17,1.88.84,3.71-.14,5.84.4.5,1.03.74.87,1.12-.65-.11-1.12-.06-1.43-.59-.25-.43.3-1.84-.23-2.14-1.32-.73-2.57-.48-3.61-1.61-1.41-1.53-5.02-.96-6.86-2.51-1.05-.89-1.62-1.9-2.96-2.64-3.24-1.78-6.44-3.21-10.36-2.83-.43.04-.95-.46-1-.66.07-1.48.4-2.92.88-4.32.24-.71.14-1.46.15-2.2,1.24-.33,2.91.35,4.07-.24s1.7.13,2.45.2Z"/>
            <path class="cls-30" d="M160.77,247.17c-6.49-2.81-6.89,1.35-10.62-6.58,3.22.36,6.62.3,10.09.58.96,2.2.7,4.11.53,6Z"/>
            <path class="cls-54" d="M191.79,241.16c-.45,1.67-.26,4-1.41,5.47-.75.95-3.78.82-4.47-.15l.86-4.81c1.18-1.47,3.36-.26,5.02-.51Z"/>
            <path class="cls-90" d="M208.04,261.22c.24,1.73-4.12.63-4.13,4.97-1.59.38-2.94.27-4.76.38l-1.3,3.33c-1.41.14-3-.41-4.05.38-1.52,1.14-1.49,3.31-1.48,4.91l-3.77-.07c-.94-.02-1.77.41-1.65,1.16-.8.05-.45-.93-.93-1.25,1.54.53.39-4.39,1.56-5.13s2.91.28,4.34-.21c1.04-.36.56-2.82,1.23-3.43l5.05-.53.91-4.74,5.17-.17.62-5.06c2.54-.96,5.29.27,7.5-1.08l.39,1.93c-3.14.24-4.3,2.11-4.69,4.62Z"/>
          </g>
          <g>
            <path class="cls-31" d="M227.88,314.71c.98,7.94,2.57,11.05,3.24,18.87.13,1.53.81,1.85,1.37,2.93.88,1.68.22,4.09,1.32,5.77,1.41.04,2.67-.21,3.82.15s.46,1.63.55,2.37l2.09,17.45c.09.72-.08,1.53.5,1.65.25.05,1.12-.03,1.19.26,1.26,5.48,2.07,10.89,3.42,16.39l5.46,22.26,5.91,24.84c.71,2.99,1.09,5.9,2.19,8.55,1.3,3.13,1.55,6.39,2.22,10.15l-45.57.3-28.53-.08-.06-131.31,19.33-.31,10.17-.03c3.89-.01,7.65.01,11.39-.22Z"/>
            <path class="cls-20" d="M228.54,359.85c2.01,6.84,2.56,13.34,4.05,19.96,1.49,6.6,1.79,13.41,2.49,20.21,1.05,10.34.21,20.78.62,31.41.08,2.09-.58,4.55-1.64,6.06-.66.94-2.35.29-3.41.42l-.97,2.48-35.8.19.09-119.49,21.82-.08c1.8,3.47-.55,9.57,4.91,8.62l2.03,12.74c.26,1.63,1.05,2.59,1.6,3.88,1.15,2.7,1.43,5.89,2.06,8.93.37,1.79,1.6,2.8,2.15,4.67Z"/>
          </g>
          <path class="cls-3" d="M186.67,286.52c.06,5.61-6.98,3.71-5.86,10.92.25,1.62.56,3.38.29,4.84-5.07.17-10.2.35-15.26,0,.99-1.66.02-3.42.1-5.48.04-1.02.93-3.27-.3-3.85-.94-.45-1.73-.45-2.23-1.97-.19-.58-1.67-.84-1.54-1.88.07-.54-.3-1.19.22-1.9,1.07.32,2.8-.44,3.82.41.95.79.09,2.71.55,3.86.52,1.27,2.28,1.03,3.37,1.03l.42,3.18c1.92.49,3.8.48,5.58.04.49-1.14.12-2.29.74-3.26,1.66-.11,3.55.2,4.54-.93s.39-2.99,1.01-4.52c1.86.23,3.24.17,4.57-.49Z"/>
          <path class="cls-15" d="M161.03,275.1c-1.83.46-3.65-.13-5.51.11l-.41-5.37c1.29-.03,3.44-.72,4.88.22,1.26.82.94,3.65,1.03,5.04Z"/>
          <path class="cls-79" d="M166.41,275.61c.14,1.35-.1,2.69-.11,4.37-2.01.37-3.68.37-5.36.2.15-1.69.2-3.38.09-5.07,1.69-.42,3.96-.17,5.38.5Z"/>
          <path class="cls-27" d="M209.08,301.63c-3.98,1.63-17.74-.42-22.7,1.1-1.59-.42-3.6-.51-5.28-.46.28-1.46-.04-3.22-.29-4.84-1.12-7.21,5.92-5.3,5.86-10.92-.02-2.07.38-4.08-.26-6.04-.25-1.12,1.04-2.93.48-4.21-.11-.75.71-1.18,1.65-1.16l3.77.07c1.96.04,4.06.42,6.21-.25.75-.27,0-2.19.43-2.64,1.02-1.11,2.98-.41,4.15-1.09,1.5-.87,2.61-1.24,4.4-1.68.97-.24,1.7-1.89,3.29-1.74.7.07,1.4.03,2.06-.36.41-.24.41-1.02.94-1.43l1.5,13.56c.24,2.15,1.04,4.23.68,6.5-.17,1.09-1.61,1.1-2.61,1.26-.72.11-1.25,1.21-1.29,1.82-.29,4.45-1.76,8.42-2.99,12.5Z"/>
          <path class="cls-49" d="M218.77,302.3c.35,2.41.82,5.01.2,7.43-9.86-.17-4.37,2.85-9.39,2.56-8.81-.52-15.29.27-22.94-.44l-.26-9.12c4.96-1.52,18.71.53,22.7-1.1.48-.14.56.32,1.08.6l8.61.07Z"/>
          <path class="cls-100" d="M186.89,276.27c.56,1.28-.73,3.09-.48,4.21-1.55-.07-3.13-.11-4.86-.46-.15-1.84-.03-3.3,0-4.78,1.46-.13,2.9-.27,4.41-.22.47.32.13,1.3.93,1.25Z"/>
          <g>
            <path class="cls-46" d="M161.03,315.11l.05,131.49-59.32-.06,1.73-12.42c1.21-3.26,1.25-6.68,1.92-10.12l2.92-14.85,5.67-28.97,5.06-26.97c1.51-8.04,3.19-15.88,4.54-23.99.37-2.23.62-3.99,1.56-6.03,1.21-2.62.22-6.11,2.25-8.12l13.95-.24,19.68.27Z"/>
            <g>
              <path class="cls-18" d="M112.37,424.1l2.43-12.68,2.32-13.07,6.66-36.58,3.31-16.97c.7-3.57,1.13-7.08,1.89-10.79l2.61-12.87,21.49-.05-.04,119.38-43.71-.09c-.32-1.89,0-3.91.92-5.69l.98-6.47c.2-1.35.79-2.27,1.15-4.12Z"/>
              <path class="cls-67" d="M146.63,343.61c.2,1.42.12,2.62-.57,2.77-1.19.24-2.94.68-3.11-.57-.14-1.04-.3-2.75,1.17-2.78,1.01-.02,2.36-.56,2.52.58Z"/>
            </g>
          </g>
          <g>
            <path class="cls-22" d="M181.56,275.24c-.04,1.47-.16,2.94,0,4.78,1.73.36,3.31.4,4.86.46.64,1.97.24,3.97.26,6.04-1.34.66-2.71.73-4.57.49-.62,1.53-.05,3.43-1.01,4.52s-2.88.82-4.54.93c-.62.96-.24,2.12-.74,3.26-1.78.44-3.65.44-5.58-.04l-.42-3.18c-1.09,0-2.86.24-3.37-1.03-.46-1.15.4-3.07-.55-3.86-1.02-.85-2.74-.09-3.82-.41-.12-.15-.9-.06-.98-.26-.22-2.31-.34-4.6-.15-6.77,1.68.17,3.35.17,5.36-.2,0-1.67.24-3.02.11-4.37,4.84-.92,10.19.07,15.15-.36Z"/>
            <path class="cls-104" d="M175.65,281.98c1,.86.6,3.28-.26,3.98-.96.79-2.64,1.69-3.94.33-.91-.96-.77-3.03-.1-3.76.79-.87,3.05-1.62,4.29-.55Z"/>
          </g>
        </g>
        <g>
          <path class="cls-74" d="M254.95,142.35c-1.07,1.77-.47,3.9-.15,6.02l2.34,15.42c.07.48,1.06.39,1.65.69.03,4.35.6,8.63-.27,13.02-.22,1.11.3,2.39.72,3.47s2.62.98,3.48,1.73c1.78,4.28,1.38,9.15.77,13.77l-5.17,2.51c-.46.22-1.28-.15-1.62.29-.66.84-.42,4.77-1.83,5.41-2.35,1.06-7.78.34-8.24,1.84-1.12,3.63.75,12.23-.39,17.56-.35,1.65-.91,3.23-1.15,4.86l-5.18.51-.79,6.58-5.16.11c-.95.02-1.46.69-1.58,1.24-1.23-.12-3.14.11-4.15-.48-.2-1.33-1.19-1.82-1.21-2.7.65-1.3,3.06-1.56,3.96-2.55,2.08-2.28,4.75-2.88,8.02-2.64,2.41-5.78,1.68-12.35,1.41-18.68-2,.3-4.24-.27-5.75.73-1.51,1.14-.89,4-1.67,5.66-2.1,4.44-1.28,6.8-6.68,7.07l-1.28,5.72c-1.82.2-3.53-.31-5.08.2.11-.34-.01-.6-.23-.6s-.48.06-.89.02c1.88-.85.27-3.04,1.27-4.71.91-1.52,4.63,0,4.61-1.59-.04-3.95,2.98-2.7,1.73-16.24,3.96-.52,8.08.29,11.84-1.01,1.23-.42,3.73.09,4.72-1.35s2.23-2.82,4.34-2.67c1.42.1,1.73-1.35,2.87-1.75,1.68-.59,5.21-.9,5.64-2.94.5-2.35,1.78-3.86,2.6-5.63,1.46-3.19-.79-6.46-3.06-8.77-.99-1.01-2.13-.83-3.08-1.43,1.4-1.48.39-3.34.32-5.32-.19-5.46.85-6.23-.77-12.93-1.11-4.61-.81-9.33-2.13-13.61-.64-2.07-.79-4-.64-5.96,1.79,0,3.97-1.05,5.88-.85Z"/>
          <path class="cls-50" d="M103.57,156.84c-.63.96-.65,1.87-.69,3.22l-.67,23.21c-.13,4.48-1.51,6.87-2.24,11.59,2.74-.2,4.46-.52,6.41-.27,1.3.17,2.75-.03,4.24.03,1.36.05.49,1.63.87,2.02,1.23,1.21,3.89.89,5.2.2-.25-3,2.5,8.86.74,9.28s-4.15-.47-5.62.91c-2.02-1.92-.79-3.68-2.57-7.65-4.45-.77-8.63-.56-13.31-.94-1.28-.1-1.85-2.83-.47-3.42-.51-2.05.6-4.05,1.42-5.55-.7-11.94.92-21.41,1.87-32.62,1.6.05,3.22.16,4.82,0Z"/>
          <path class="cls-45" d="M123.09,155.74c.14.94-.34,2.96-1.19,3.53-.99.66-2.41-.12-3.69.26-.93,3.43-.96,6.91-1.07,10.28-.25-1.1-1.19-2.28-.15-3.96.69-1.11-2.48-1.39-2.84-.6l-.9,9.73c-.1,1.11-1.11,1.07-1.63,1.74-1.24,1.6-.14,4.52-1.49,6s-1.52,2.86-1.82,4.96c-.32,2.23-2.51,5.57-1.93,6.91-1.96-.25-3.67.07-6.41.27.73-4.72,2.11-7.11,2.24-11.59l.67-23.21c.04-1.35.06-2.25.69-3.22.39-.6.38-1.47.4-2.13,2.56.65,4.84-.46,7.22-1.46,2.63-1.11,5.53-.38,7.92-1.55.6-.29,1.82-.36,2.49-.2.64.16,1.69.98,1.35,1.98-.38,1.14-.16,1.62.12,2.26Z"/>
          <path class="cls-94" d="M130.21,143.71c-.33,3.21-2.02,6.01-3.33,9.08-.76,1.77-1.71,3.22-3.79,2.95-.28-.65-.51-1.12-.12-2.26.34-1-.72-1.82-1.35-1.98-.67-.17-1.89-.1-2.49.2-2.38,1.17-5.29.44-7.92,1.55-2.38,1.01-4.66,2.12-7.22,1.46.05-1.33-.51-3.87.49-4.21l2.69-.92c1.59-.54.9-4.09,1.61-6.41l21.44.55Z"/>
          <path class="cls-5" d="M186.86,146.01c-.08,1.11.19,2.65.4,3.97-3.32.6-6.31-.22-9.6-.17-1.88.03-3.21-.35-3.87-2.25l-1.45-4.17c4.6-.18,9.41-.57,14.19.15,1.16.17.37,1.83.33,2.48Z"/>
          <path class="cls-29" d="M227,234.19c-2.2.63-4.94-.16-7.16.04l.09-4.53c1.55-.51,3.26,0,5.08-.2l1.28-5.72c5.4-.27,4.58-2.63,6.68-7.07.78-1.66.16-4.51,1.67-5.66,1.51-1,3.76-.43,5.75-.73.27,6.33,1,12.9-1.41,18.68-3.27-.24-5.94.35-8.02,2.64-.9.99-3.31,1.25-3.96,2.55Z"/>
          <g>
            <path class="cls-26" d="M73.92,130.08c.3,1.47-.02,2.98.07,4.47-.1.64.29.64.98.65l19.02.12,75.15.11c6.11,0,11.8.22,17.65-.31,2.77-.25,5.73.37,8.61.34l16.44-.2,59.44-.16c.62,0,1.29.35,1.29,1,0,1.4.18,2.92-.19,4.55-2.5.47-4.83-.19-7.19.43-3.12.82-6.32.18-9.48.73-.31.05-.45.58-.76.55-1.91-.2-4.09.85-5.88.85l-35.74.04-25.64.21c-.33,1.1.57,1.46.29,2l-1.12.56c.04-.64.83-2.3-.33-2.48-4.79-.72-9.59-.33-14.19-.15l-8.13.32c-9.78.39-20.34-.8-30.17.02-.98-.85-2.75-.22-3.83-.01l-21.44-.55c-.71,2.32-.02,5.87-1.61,6.41l-2.69.92c-1,.34-.44,2.89-.49,4.21-.02.66-.01,1.53-.4,2.13-1.6.16-3.22.05-4.82,0-1.83-4.58-7.75,1.5-7.95-5.67l-11.37-2.11c-.5-1.04-.26-1.98-.89-2.82l-5.37-.62-.38-4.09c-1.75-.5-3.37-.2-5.31-.46l.03-11.03c2.43-.08,4.46-.35,6.4.04Z"/>
            <path class="cls-84" d="M261,123.23c-.12.41.19.6.58.61h.49c-.1.31.11.52.29.51.23,0,.68.05.83-.05.33-.22,1.73.26,2.58.66,3.46,1.63,11.38.34,11.4,1.96l.02,2.37c.28.72,1.98.4,2.11,1.45.2,1.66-.35,3.11-.25,4.58-1.97.45-5.8-.29-6.49.78,0-.64-.67-1-1.29-1-.27-.67.55-.43,1.01-.51.26-1.4.43-2.59.24-4.14l-11.3-.7c-.22-.74-.1-2.1-.48-2.89-.29-.61-1.29-.76-2.48-.81l-14.69-.6-.42-5.02c-3.1.12-5.94-.12-8.85-.66-.06-1.59.21-2.52-.16-3.78-1.96-.26-3.82-.58-5.6-.59.17-.62-.47-1.61-.22-2.2.77-1.79-.24-2.99-.43-4.42-.51-3.66-.1-7.48-1.52-10.89-.18-1.27-.02-3.27-.4-4.92-1.48-6.47-1.02-12.88-.89-19.43.05-2.35.51-16.77,3.25-17.15,1.96-6.15,3.4-14.07,8.11-19.35.8-.89.6-2.09,1.1-3.19,1.87-.66,4.09.29,5.8-.77.61-.67.17-2.96,1.53-3.27,1.55-.34,16.88-.58,18.83,1.37.05.7-.05,1.41.25,1.76.46.55,15.75,2.9,19.02,1.8,2.45-.82-1.03-7.08-.91-7.07l-1.7-.15c-.3-.03-.88-.52-1.19-.45-.24.06-.26.32-.67.38l-1.01-5.84c-2.24-.85-4.75-.42-7.48-.36-.82-1.41-.43-2.98-.77-4.65-1.27-.78-3.13.26-4.23-.62-.89-.71-.33-2.44-.6-3.99l-16.07-.43-.67-5.37c-10.75-.49-21.3-.07-32.06.02-3.45-1.28-.5,5.11-2.64,5.31l-7.12.4c-1.41.08-1.62,1.17-2.07,2.16l-5.65,1.57c-.8.78.24,3.4-1.02,4.22-1.4.9-3.66-.46-4.77.49-1.47,1.25-3.02,1.01-5.04.95l-1.01,5.12c-1.71.49-3.46.43-5.18.71l-.77,5.8c-2.12.14-4.06.27-5.92.07-.36-1.42-.31-3.85.89-5.17s3.5-.66,5.22-1.29c.65-1.63.51-3.26.78-5.25,1.76-.59,3.52-.3,5.44-.49.49-1.5.41-3,.68-4.77,1.46-.65,3.23-.07,4.76-.6,1.13-.39.44-2.6,1.03-3.21,1.18-1.19,3.56-.15,4.85-1.13,3.92-2.97,5.97-.84,7.11-2.45.46-.65-.23-2.3.82-2.56,2.39-.6,5.5.25,7.92-.73.52-.21-.01-2.28.4-2.66,1.19-1.08,4.62.43,5.18-2.35,8.92-.64,18.29-.33,27.28-.17,1.61,4.29.66.95,2.94,5.21,1.38-.76,2.3.5,3.27.72,3.3.74,6.67.53,10.37.78.75,1.3.31,2.89.92,4.37l4.83.59.36,4.04,7.73.81,1.02,3.4c.34,1.15,3.16.54,4.1,1.67.8.96.06,2.95,1.01,3.98,3.54,3.81,1.32,2.73,7.75,3.64.44,2.79.3,5.54.2,8.52-1.57.76-3.3.13-4.75,1.13-.4,1.91-1.97.93-6.62,2.25-.84.24-1.62-.03-2.16-.01-.78.03-.57-1.7-1.12-1.88-5.61-1.91-16.03-.14-17.81-5.48l-8.55-.17c-.49.99-1.04,2.77-2.26,2.87l-8.53.69-1.47,4.14c-.64,1.8-1.91,3.36-1.74,5.54.12,1.57-1.24,1.89-1.56,2.91l-2.05,6.61c-1.02.67-1.25,1.13-1.46,2.43-1,6.18-1.4,12.06-.74,18.35.06.57.06,1.63-.28,1.86l-1.09.73c-.26,4.32,1.3,7.94,2,12.06,1.21,7.15,1.87,14.14,3.77,21.06,1.15.19,2.5-.38,3.23.23.78.65.3,1.94.81,2.84l10.96.88c.08,1.54-.1,2.44.18,3.76l9.31.76c1.14.09,1.78.82,1.64,1.74Z"/>
            <path class="cls-86" d="M174.07,33.39c.39,1.62.07,3.42-.32,5.21l-6.77.45-.86,7.07-5.35.34-.87,5.85-4.9.2-1.25,9.5-5.06.2c-.68,2.54-.22,5.48-1.56,7.74-.9.23-2.98-.51-3.35.5-.98,2.7-.38,5.64-1.14,8.41-1.33.45-2.49.4-3.97.57l-.64,8.01c-.04.48-1.29.37-1.35.74l-1.55,9.04c-1.21-.26-2.64.51-4.26.33l-1.38,10.58c-1.34.16-2.71,1.46-3.46,2.23-.99,1.02-1,3.22-.27,4.34-2.19-.23-5.21.9-7.56.84-.88.99-.44,2.93-.72,4.18-2.16.57-4.2,0-6.27.24-.75,1.67-.33,3.39-.79,5.16l-18.39.31c-.75,1.38-.23,2.82-.85,4.37l-16.83-.09c.1-1.17.01-2.38.37-3.77l7.82-.5c.61-.04,1.77-.18,1.92-.78l.34-1.37,7.51-1.57c.41-1.16,1.25-1.67,2.75-1.73l16.38-.74.88-5.74,8.24-.81c.36-1.28-.3-2.85.79-3.66.71-.33,1.58,0,1.93-.42.3-.35,2.75-9.1,2.72-10.77,1.27-.49,2.52-.1,3.98-.27.63-3.05-.29-7,1.56-9.11l1.26-1.44,1.34-7.31c1.38-.25,2.52-.06,3.79-.57l.82-8.55c1.37-.32,2.75-.51,4.1-1.1l.86-7.29,4.41-.53c.51-2.99,1.13-5.83,2.06-8.87l4.26-.87c.61-1.77.08-3.66.93-5.14.42-.72,1.99-.22,2.8-.43-.08-1.87,1.18-2.56,2.26-3.55.91-.82.08-3.14,1.17-3.94,1.18-.86,3.19.07,4.79-.55l.77-4.85c2.37-.24,4.69-.46,6.88-.14Z"/>
            <path class="cls-69" d="M212.97,11.53c.24,1.06,1.26,2.13.88,2.86-1.68,3.29-6.21-.64-5.3,3.4.22.96-.37,1.81-1.15,1.76-.44-.03-.72.61-1.68.04-2.67,1.3-5.33,1.66-8.28,1.09-.55,1.78-.01,3.32-.76,4.81-2.03.27-4.63.28-5.97,2.2-.82,1.17-.17,3.32-1.7,4.31-.64.41-1.78-.08-2.34.44-1.01.92-.35,3.61-1.37,4.07-1.93.86-3.16-.96-4.54,1.46-1.71.96-4.02,0-6.07.61l-1.77,7.99c-1.8.35-4.66-.4-5.61,1.17-.24.4-2.19,8.39-2.44,8.6-.97.81-2.63-.05-3.97.5-.38,1.7.39,4.89-1.23,5.13l-4.18.6c-.9,3.22-1.08,9.34-5.98,8.83-1.89-.2-1.38,9.48-2.65,11.76l-2.79.43-1.19,7.57c-.32,2.03-.53,3.92-1.32,5.62-2.03-.04-4.23.95-6.43.47l1.55-9.04c.06-.37,1.31-.27,1.35-.74l.64-8.01c1.48-.18,2.65-.13,3.97-.57.76-2.78.16-5.71,1.14-8.41.37-1.01,2.45-.27,3.35-.5,1.34-2.26.88-5.2,1.56-7.74l5.06-.2,1.25-9.5,4.9-.2.87-5.85,5.35-.34.86-7.07,6.77-.45c.39-1.79.71-3.59.32-5.21.21,0,.27-.2.36-.36,1.85.19,3.8.07,5.92-.07l.77-5.8c1.72-.28,3.47-.22,5.18-.71l1.01-5.12c2.02.05,3.56.3,5.04-.95,1.11-.94,3.38.42,4.77-.49,1.27-.82.23-3.44,1.02-4.22l5.65-1.57c.45-1,.66-2.09,2.07-2.16l7.12-.4Z"/>
            <path class="cls-53" d="M136.69,115.16c.13,1.84-.59,3.76-1.5,5.58l-4.27.41-.23,3.87-11.96.38-.84,4.75-20.73.14c-2.96.02-5.58,1.4-5.9,4.37l-17.26-.11c-.08-1.49.23-3-.07-4.47-.28-.42.12-.47.44-.35l16.83.09c.62-1.55.1-2.99.85-4.37l18.39-.31c.46-1.78.03-3.49.79-5.16,2.07-.24,4.11.33,6.27-.24.28-1.25-.16-3.19.72-4.18,2.36.06,5.38-1.07,7.56-.84,3.61.38,7.23.43,10.93.44Z"/>
            <path class="cls-25" d="M261.58,123.84c-.39,0-.7-.19-.58-.61.37-.03.81.19.58.61Z"/>
            <path class="cls-25" d="M263.19,124.3c-.15.1-.6.05-.83.05-.18,0-.39-.2-.29-.51.23,0,.48-.08.79-.04.25.03.57.15.33.49Z"/>
            <path class="cls-72" d="M205.36,115.26c.4,2.52,3.71,6.46,2.83,9.82-.71.68-3.47-.16-3.66,1.03-.36,2.28-1.39,3.98-4.17,3.9-1.48-.04-2.13,1.14-3.28,1.34l-4.01.7c10.45-1.83-16.49,4.9-6.29,3.07-5.85.52-11.54.32-17.65.31l-75.15-.11-19.02-.12c-.69,0-1.07,0-.98-.65l17.26.11c.33-2.97,2.94-4.35,5.9-4.37l20.73-.14.84-4.75,11.96-.38.23-3.87,4.27-.41c.91-1.82,1.64-3.74,1.5-5.58l68.67.1Z"/>
            <path class="cls-2" d="M228.55,115.4c1.78.01,3.63.33,5.6.59.36,1.26.09,2.19.16,3.78,2.91.54,5.75.77,8.85.66l.42,5.02,14.69.6c1.19.05,2.18.2,2.48.81.38.8.27,2.15.48,2.89l11.3.7c.19,1.55.02,2.74-.24,4.14-.47.09-1.28-.15-1.01.51l-59.44.16-16.44.2c-2.88.04-5.84-.59-8.61-.34-10.21,1.83,16.74-4.89,6.29-3.07l4.01-.7c1.15-.2,1.8-1.39,3.28-1.34,2.78.08,3.81-1.62,4.17-3.9.19-1.19,2.95-.35,3.66-1.03.88-3.37-2.43-7.3-2.83-9.82l23.2.14Z"/>
            <path class="cls-82" d="M278.5,27.47c.94,3.28-10.92-.64-12.66-1.1-1.35-.36-1.64-1.62-2.05-2.84-2.28-.4-4.9-.49-7.45-.62l-12.18-.64c-1.54-.08-4.38-3.11-5.94-1.2-1.1,1.34-1.5,2.04-3.62,2.58-1.14.29-1.86,2.88-3.75,2.54-1.41,1.38-1.32,4.24-2.94,5.5-.77.6-1.54.58-1.77,1.64-.91,4.11-2.55,7.94-4.24,11.81-1.34.2-2.31.52-3.35.92-.78,1.72-.15,3.79-1.23,5.38-.44.65-1.89.25-2.66.56.34,8.12-2.31,15.2-2.45,21.54l-.43,19.58c-2.16-1.12-2.89.69-3.78.9-2.86.67-5.05,1.32-7.04,3.12-16.25-.35-32.54.12-49.11-.18l-10.26-.19c.79-1.7,1-3.59,1.32-5.62l1.19-7.57,2.79-.43c1.27-2.28.76-11.96,2.65-11.76,4.89.51,5.08-5.61,5.98-8.83l4.18-.6c1.62-.23.85-3.43,1.23-5.13,1.34-.55,3,.31,3.97-.5.25-.21,2.19-8.2,2.44-8.6.96-1.56,3.82-.81,5.61-1.17l1.77-7.99c2.05-.61,4.36.35,6.07-.61,1.38-2.42,2.61-.59,4.54-1.46,1.02-.46.36-3.14,1.37-4.07.56-.52,1.71-.03,2.34-.44,1.53-.99.88-3.14,1.7-4.31,1.34-1.92,3.94-1.93,5.97-2.2.74-1.49.2-3.03.76-4.81,2.95.57,5.61.21,8.28-1.09.96.57,1.24-.07,1.68-.04.78.05,1.37-.8,1.15-1.76-.91-4.04,3.62-.11,5.3-3.4.38-.74-.65-1.8-.88-2.86,2.14-.2-.81-6.59,2.64-5.31,10.76-.08,21.3-.51,32.06-.02l.67,5.37,16.07.43c.26,1.55-.3,3.28.6,3.99,1.1.88,2.96-.15,4.23.62.33,1.67-.06,3.24.77,4.65,2.73-.06,5.23-.49,7.48.36l1.01,5.84Z"/>
            <path class="cls-12" d="M278.5,27.47c.41-.06.43-.32.67-.38.3-.07.88.42,1.19.45l1.7.15c-.11,0,3.36,6.25.91,7.07-3.27,1.1-18.56-1.26-19.02-1.8-.29-.35-.2-1.06-.25-1.76-1.96-1.95-17.29-1.71-18.83-1.37-1.37.3-.92,2.59-1.53,3.27-1.71,1.06-3.92.11-5.8.77-.5,1.1-.3,2.3-1.1,3.19-4.71,5.28-6.15,13.19-8.11,19.35-2.74.38-3.2,14.8-3.25,17.15-.13,6.55-.58,12.96.89,19.43.38,1.65.21,3.64.4,4.92l-17.91-.59-7.55-.16c1.99-1.81,4.19-2.45,7.04-3.12.89-.21,1.63-2.03,3.78-.9l.43-19.58c.14-6.34,2.8-13.42,2.45-21.54.77-.3,2.22.1,2.66-.56,1.08-1.6.45-3.67,1.23-5.38,1.04-.4,2.01-.72,3.35-.92,1.7-3.87,3.33-7.7,4.24-11.81.23-1.05,1-1.04,1.77-1.64,1.62-1.26,1.53-4.12,2.94-5.5,1.89.33,2.61-2.25,3.75-2.54,2.12-.54,2.52-1.24,3.62-2.58,1.56-1.91,4.4,1.12,5.94,1.2l12.18.64c2.55.13,5.18.22,7.45.62.42,1.22.7,2.48,2.05,2.84,1.73.46,13.6,4.38,12.66,1.1Z"/>
            <path class="cls-80" d="M208.14,108.36l19.77.43c.2,1.42,1.21,2.63.43,4.42-.26.59.39,1.58.22,2.2l-23.2-.14-68.67-.1c-3.7,0-7.32-.06-10.93-.44-.73-1.12-.71-3.32.27-4.34.75-.77,2.12-2.07,3.46-2.23l32.57.05,46.08.16Z"/>
            <path class="cls-51" d="M226.38,97.89c1.42,3.41,1.01,7.23,1.52,10.89l-19.77-.43c.57-3.64.19-7.38.34-11.06l17.91.59Z"/>
            <path class="cls-48" d="M200.93,97.14l7.55.16c-.14,3.68.23,7.42-.34,11.06l-46.08-.16-32.57-.05,1.38-10.58c1.61.18,3.05-.59,4.26-.33,2.21.48,4.4-.51,6.43-.47l10.26.19c16.57.3,32.86-.17,49.11.18Z"/>
          </g>
          <path class="cls-14" d="M117.14,169.81c.42,1.81-.51,3.88-.71,5.91-.71,7.22-.3,14.18.27,21.11-1.31.69-3.97,1-5.2-.2-.39-.38.48-1.97-.87-2.02-1.5-.06-2.94.14-4.24-.03-.59-1.34,1.61-4.68,1.93-6.91.3-2.1.51-3.52,1.82-4.96s.25-4.39,1.49-6c.52-.67,1.53-.63,1.63-1.74l.9-9.73c.36-.79,3.53-.51,2.84.6-1.04,1.69-.1,2.87.15,3.96Z"/>
          <g>
            <path class="cls-68" d="M249.07,143.21c-.16,1.96,0,3.89.64,5.96,1.32,4.28,1.01,9,2.13,13.61,1.62,6.71.58,7.47.77,12.93.07,1.98,1.08,3.84-.32,5.32-1.58-1-4.79-1.65-6.42-.38-1.42,1.1-1.21,3.84-1.59,5.28-1.68,6.38-3.25,2.59-3.37,9.68-3,.76-2.28,7.38-2.64,9.95-3.77,1.3-7.88.49-11.84,1.01-.72-7.8.42-29.11-.35-31.89-.16-.59-1.62-.3-1.95-.89-.79-1.42-.92-3.15-1.36-4.65-.4-1.37-1.97-2.08-1.5-4.34.3-1.42.52-3.55-.3-4.81s-2.48-.7-3.55-1.13c-.03-.63.88-2.42.1-2.8-1.18-.54-2.94-.51-4.18-.42-.53-4.09-.06-8.27,0-12.4l35.74-.04Z"/>
            <path class="cls-37" d="M239.21,184.13c-3.11,5.19,1.87,9.62-6.04,11.94-.74,1.69,0,4.79-2.73,5.78-.88-2.07.04-4.19.45-6.24,1.71-8.63.73-17.72,1.01-26.78l-5.37-.48c-1.56-.14-.72-2.87-1.46-3.56-.87-.81-2-.83-1.96-2.63.05-2.14-.29-4.31-.47-6.44l-3.86-.33c-.63-1.72-.58-3.3.1-5.15l15.06,1.15c1.55.12,2.99.85,4.5,1,.84.48.17,2.45.44,3.33.59,1.93,2.71,2.39,4.5,2.5l1.18,5.66c1.31-.19,3.22-.07,3.44,1.12.55,2.91.44,6.05-.13,9.18-.21,1.14-2.32.71-3.17.86-1.36.24-.71,2.23-1.31,2.59-.79.48-1.86-.03-2.36,1.37-.62,1.71-.85,3.5-1.83,5.13Z"/>
          </g>
          <g>
            <path class="cls-10" d="M134.04,143.73c.61,2.41-.25,5.03-1.73,7.17l-4.06,5.85c-1.63,2.35-2.06,5.05-3.09,7.52-1.32,3.16-2.04-2.93-2.12,9.76l-.22,36.88c-1.9.23-3.79-.29-5.69.11.52-.11-3.95-1.04-4.65-1.6s-.52-1.64-.66-2.39c1.47-1.38,3.83-.48,5.62-.91s-.99-12.28-.74-9.28c-.57-6.93-.98-13.89-.27-21.11.2-2.04,1.13-4.1.71-5.91.1-3.37.13-6.85,1.07-10.28,1.29-.39,2.7.4,3.69-.26.85-.56,1.33-2.59,1.19-3.53,2.08.27,3.03-1.18,3.79-2.95,1.31-3.07,3-5.87,3.33-9.08,1.08-.2,2.85-.83,3.83.01Z"/>
            <path class="cls-55" d="M122.82,210.9c0,1.63.19,3.31.48,5.13l4.08.94.19,6.22c1.07.41,2.07.19,3.06.72-.06,1.57-.32,3.1.13,4.73,3.64.81,7.39.31,11.23.6,1.07,1.72-.2,3.81.61,5.34-.74-.07-1.25-.81-2.45-.2s-2.83-.09-4.07.24c-.2.05-.44.13-.63.14-1.64.04-3.4.1-5.11-.2l-.46-5.53c-2.19-.07-3.9.24-5.79-.24l-.4-6.09c-.9-.39-1.79-.19-2.84-.5-.55-1.97.02-3.9-.32-6.07-.17-1.13-2.43-.3-2.94-.85-1.07-1.16-.47-3.03-.47-4.28,1.9-.4,3.79.12,5.69-.11Z"/>
            <path class="cls-87" d="M270.85,336.15c.8,2.6,1.53,5.42,1.51,8.2-.01,1.52-.8,3.16-1.06,4.9-.12.85-1.37.63-1.75.98-1.18,1.1-.36,3.21-1.21,4.22s-2.82.73-3.94,1.06c-2.87.83-.72,3.19-2.31,4.22-.33.21-.99.49-1.2-.15.47-2.73-.35-2.3.91-4.86.35-.71,2.51-.33,2.78-1.19l1.38-4.49c.77-2.51.41-5.93-.04-8.56-2.75-1.75-15.63.62-16.27,4.47-1.56.1-2.65,1.36-4.69.96.38-2.25-.8-5.46.45-7.33,1.44-2.17,5.09-1.94,7.45-2.56,4.51-1.19,8.67-2.12,13.08-2.64.36.95.17,1.84.83,2.56l4.09.21Z"/>
            <path class="cls-39" d="M260.88,359.57c-1.24.35-3.17,1.12-4.59.21-.84-.54-.74-3.04-.66-4,.76-1.56,1.74-3.94.39-5.77-1.81-.09-3.53.28-5.17.4-.48-2.5-.07-5.63-1.23-5.47.64-3.85,13.52-6.22,16.27-4.47.46,2.63.82,6.05.04,8.56l-1.38,4.49c-.26.86-2.43.48-2.78,1.19-1.26,2.56-.45,2.13-.91,4.86Z"/>
            <path class="cls-95" d="M255.64,355.79c.17-1.89-3.54.17-4.49-1.03s-.03-3.06-.28-4.34c1.64-.12,3.36-.48,5.17-.4,1.34,1.83.37,4.21-.39,5.77Z"/>
            <path class="cls-85" d="M71.14,267.61c-.81,1.58.47,3.56-.3,5.56-.48,1.24-2.59,2.54-1.77,4.27.34.72,1.63.96,2.84,1.09l2.61,17.13c-3.59.31-7.26.61-11.05.32-1.38-4.66-2.32-8.73-2.47-13.68-2.04-.59-1.46-2.26-1.87-3.98-.55-2.34-2.16-6.04-.73-8.39,3.58-2.43,8.62-2.75,12.74-2.33Z"/>
            <path class="cls-102" d="M83.63,272.55c.64,4.39,1.61,8.69,1.57,13.48l-.08,9.48-5.88.32c-.08-.25-.3-.4-.52-.52-.13-6.08-2.24-12.38-2.73-18.44,3.33-1.07,5.95.06,6.24-3.13.08-.9.74-1.13,1.41-1.18Z"/>
            <path class="cls-11" d="M76.07,262.23v.54c-5.37.58-.82,3.66-2.61,13.4.29.69,1.93.89,2.53.69.49,6.05,2.6,12.36,2.73,18.44-1.13,1.05-2.87.25-4.2.37l-2.61-17.13c-1.21-.13-2.49-.37-2.84-1.09-.82-1.73,1.3-3.03,1.77-4.27.77-2-.51-3.98.3-5.56.55.09.99-.33,1.31-.57.66-.49.56-1.19.02-1.85-.14-.25.39-.62.44-1.07.07-.67-.1-.74-.64-1.11,1.44-.78,2.59-.9,3.8-.79Z"/>
            <path class="cls-77" d="M172.34,143.38l1.45,4.17c.66,1.91,1.99,2.29,3.87,2.25,3.29-.06,6.28.77,9.6.17-.21-1.32-.47-2.85-.4-3.97l1.12-.56c2.19,1.94,5.34,5.25,4.14,8.65-2.97,1.92-8.48,1.51-12.12.59-2.59-.65-4.19-2.41-6.27-3.44-3.7-1.83-7.44-4.05-9.52-7.54l8.13-.32Z"/>
            <path class="cls-96" d="M218.81,229.11c.42.04.67-.01.89-.02s.34.26.23.6l-.09,4.53c-1.77.16-3.72.95-5.42-.08-.37-1.61.02-3.28.1-4.91,1.42-.05,2.88-.27,4.3-.13Z"/>
            <path class="cls-23" d="M252.29,181.03c.95.6,2.08.41,3.08,1.43,2.28,2.32,4.53,5.59,3.06,8.77-.81,1.77-2.1,3.28-2.6,5.63-.43,2.03-3.96,2.35-5.64,2.94-1.14.4-1.45,1.85-2.87,1.75-2.11-.15-3.31,1.16-4.34,2.67s-3.49.92-4.72,1.35c.37-2.57-.36-9.19,2.64-9.95,1.03-.26,2.38.25,3.45-.27.82-.4.66-1.63,1.04-2.41.45-.92,2.35-1.17,2.92-.3.21.31-.56.9-.16,1.22,2.67,2.04,2.87-5.85,2.35-7.34-2.1-.51-4.18-.72-6.23-.58.38-1.44.17-4.18,1.59-5.28,1.64-1.27,4.84-.62,6.42.38Z"/>
            <path class="cls-8" d="M83.63,272.55c-.67.05-1.32.28-1.41,1.18-.29,3.19-2.91,2.05-6.24,3.13-.6.19-2.24,0-2.53-.69,1.8-9.73-2.75-12.82,2.61-13.4.95-.1,1.68-1.18,2.99-.89l.63,4.82c1.02.53,2.19.24,3.18.62l.76,5.22Z"/>
            <path class="cls-13" d="M240.9,195.61c.12-7.08,1.69-3.3,3.37-9.68,2.05-.13,4.14.07,6.23.58.52,1.49.32,9.38-2.35,7.34-.41-.31.36-.9.16-1.22-.58-.87-2.47-.63-2.92.3-.38.78-.22,2.01-1.04,2.41-1.08.52-2.42,0-3.45.27Z"/>
            <g>
              <path class="cls-106" d="M164.21,143.71c2.09,3.49,5.82,5.71,9.52,7.54,2.08,1.03,3.68,2.79,6.27,3.44,3.64.92,9.16,1.33,12.12-.59,1.2-3.4-1.95-6.71-4.14-8.65.28-.55-.62-.9-.29-2l25.64-.21c-.06,4.13-.53,8.31,0,12.4-3.53.27-6.99-2.57-5.08-1.8-3.28-1.31-7.37-1.31-10.91-.71-.23,1.27-.66,4.86-2.22,5.28-5.72,1.53-11.71,1.07-17.55.77l-6.37-.33c-2.85-.15-5.73-.86-8.62-.42-1.57.24-2.63-.7-3.73-.78l-10.89-.72c-3.05-.2-11.32.5-14.94.54-3.11,2.67-6.58,17.03-9.98,16.54.08-12.69.8-6.6,2.12-9.76,1.03-2.47,1.46-5.16,3.09-7.52l4.06-5.85c1.48-2.14,2.34-4.76,1.73-7.17,9.83-.82,20.39.37,30.17-.02Z"/>
              <path class="cls-34" d="M226.42,206.57c1.25,13.54-1.77,12.3-1.73,16.24.02,1.59-3.7.06-4.61,1.59-1,1.68.61,3.87-1.27,4.71-1.42-.14-2.87.08-4.3.13s-3.96-.82-5.12.32-.33,3.74-.44,5.1c-4.28-.32-8.62.57-12.82.46l-15.12-.38c.42-.91.45-1.81.91-3.25,2.06.57,3.26-.66,4.81-1.11,3.92-1.13,7.8-.97,11.48-2.24l6.11-2.1,4.54-2c1.07-.47,1.82-1.69,3.39-1.93,2.71-.42,3.59-3.56,5.13-5.07.89-.87,1.69-.96,2.19-2.41.97-2.77,2.08-5.32,2.26-8.31.41-6.69.31-13.46.01-20.19-.23-5.24-1.54-8.69-2.77-13.23l-3.41-12.66c.43-.73,1.29-1.31,1.72-1.41,1.07.43,2.77-.09,3.55,1.13s.59,3.39.3,4.81c-.47,2.26,1.1,2.97,1.5,4.34.44,1.5.57,3.23,1.36,4.65.33.59,1.78.3,1.95.89.77,2.78-.37,24.08.35,31.89Z"/>
              <path class="cls-32" d="M214.51,229.24c-.08,1.63-.46,3.3-.1,4.91-1.53.74-3.68.64-5.46.51.11-1.36-.77-3.92.44-5.1s3.77-.27,5.12-.32Z"/>
              <g>
                <path class="cls-40" d="M213.33,155.64c1.24-.1,3-.12,4.18.42.78.38-.13,2.17-.1,2.8-.44.1-1.29.69-1.72,1.41l3.41,12.66c1.22,4.54,2.53,7.99,2.77,13.23.3,6.73.39,13.5-.01,20.19-.18,2.99-1.3,5.54-2.26,8.31-.51,1.45-1.3,1.53-2.19,2.41-1.54,1.51-2.42,4.65-5.13,5.07-1.57.24-2.32,1.46-3.39,1.93l-4.54,2-6.11,2.1c-3.68,1.26-7.56,1.11-11.48,2.24-1.55.45-2.75,1.68-4.81,1.11-.46,1.44-.5,2.34-.91,3.25l-20.04.14c-6.13.04-12.33.28-18.37-.29-.8-1.53.46-3.62-.61-5.34-3.84-.29-7.59.21-11.23-.6-.45-1.63-.19-3.16-.13-4.73-.99-.53-1.99-.31-3.06-.72l-.19-6.22-4.08-.94c-.29-1.82-.49-3.5-.48-5.13l.22-36.88c3.39.49,6.87-13.87,9.98-16.54,3.62-.04,11.89-.74,14.94-.54l10.89.72c1.09.07,2.15,1.02,3.73.78,2.89-.44,5.77.28,8.62.42l6.37.33c5.84.3,11.84.76,17.55-.77,1.56-.42,1.99-4.01,2.22-5.28,3.54-.61,7.63-.61,10.91.71-1.92-.77,1.55,2.07,5.08,1.8Z"/>
                <g>
                  <path class="cls-6" d="M214.92,206.82c-5.38.34-10.39.56-15.56-.08-1.95-.24-1.79-3.04-1.49-4.71.87-4.8,12.74-2.47,16.84-1.89,1.26,1.31.94,4.57.21,6.67Z"/>
                  <path class="cls-41" d="M147.56,206.28c-4.61,1.79-10.65.86-15.41.18-1.71-.24-1.59-5.76.04-6.29,4.21-1.08,9.19-1,13.53-.84,2.45.09,4.33,5.98,1.84,6.95Z"/>
                  <path class="cls-93" d="M183.75,208.96c-.98.45-1.03,2.44-2.15,2.76l-17.47.36c-.34-1.52-1.4-1.61-2.75-2.31-1.22-.64-1.51-3.59-.71-4.46,1.03-1.13,3.27-.41,3.69,1.25,6.83.37,13.47.26,20.25-.32.74-.06.72,1.25.58,1.66-.19.57-.71.72-1.44,1.06Z"/>
                  <path class="cls-99" d="M210.92,165.98c-5.24-.29-9.86.28-14.77-.42-1.42-.2-1.43-4.79.3-4.99,4.77-.56,9.31-.63,13.89.15,1.28.58.88,3.61.59,5.26Z"/>
                  <path class="cls-24" d="M151.11,165.65l-14.6.24c-1.14-.63-1.03-4.76.28-5.17,4.43-.83,9.35-.86,13.82-.07,1.61.28,1.47,3.89.49,5Z"/>
                  <g>
                    <path class="cls-107" d="M143.63,198.32c-3.76-.16-6.86-2.55-7.52-6.57s-.63-8.91-.17-13.25c.53-4.94,4.76-7.42,9.4-6.68,3.32.53,6.07,3.03,6.53,6.66.56,4.38.67,9.06-.04,13.34-.72,4.35-4.07,6.68-8.2,6.51Z"/>
                    <path class="cls-25" d="M144.52,180.73c-.32,2.73-2.27,4.28-4.4,4.02-2.59-.32-3.97-2.56-3.36-5.25.53-2.36,2.31-3.72,4.47-3.43s3.58,2.15,3.29,4.65Z"/>
                  </g>
                  <g>
                    <path class="cls-88" d="M211.56,191.32c-.78,4.65-4.35,7.25-8.66,6.97-4.08-.27-7.01-3.39-7.33-8.02-.48-7.02-1.69-18.15,6.98-18.63,4.68-.26,8.66,2.52,9.17,7.36.43,4.04.5,8.32-.17,12.33Z"/>
                    <path class="cls-25" d="M203.7,180.28c-.04,1.91-.99,3.26-1.95,3.8-1.68.95-3.29.51-4.34-.3-1.51-1.17-1.49-3.02-1.01-4.65.56-1.92,2.13-2.98,3.79-3,2.16-.03,3.57,1.6,3.51,4.14Z"/>
                  </g>
                </g>
              </g>
            </g>
          </g>
        </g>
      </g>
    </g>
  </g>
</svg>