<?xml version="1.0" encoding="UTF-8"?>
<svg id="_レイヤー_2" data-name="レイヤー 2" xmlns="http://www.w3.org/2000/svg" xmlns:xlink="http://www.w3.org/1999/xlink" viewBox="0 0 265.66 491.06">
  <defs>
    <style>
      .cls-1 {
        fill: #f4c6b2;
      }

      .cls-2 {
        fill: #fefeff;
      }

      .cls-3 {
        fill: #aaa6bd;
      }

      .cls-4 {
        fill: #aba7bf;
      }

      .cls-5 {
        fill: #837482;
      }

      .cls-6 {
        fill: #9696b5;
      }

      .cls-7 {
        fill: #847386;
      }

      .cls-8 {
        fill: #91bce5;
      }

      .cls-9 {
        fill: #c5c1cf;
      }

      .cls-10 {
        fill: #c7adb0;
      }

      .cls-11 {
        fill: #86758a;
      }

      .cls-12 {
        fill: #c0c9db;
      }

      .cls-13 {
        fill: #b6acbd;
      }

      .cls-14 {
        fill: #a7a1b9;
      }

      .cls-15 {
        fill: #d59f97;
      }

      .cls-16 {
        fill: #95889e;
      }

      .cls-17 {
        fill: #d1cbd3;
      }

      .cls-18 {
        fill: #afb0c6;
      }

      .cls-19 {
        fill: #eec181;
      }

      .cls-20 {
        fill: #948699;
      }

      .cls-21 {
        fill: #9cb2d7;
      }

      .cls-22 {
        fill: #a18586;
      }

      .cls-23 {
        fill: #877a8e;
      }

      .cls-24 {
        fill: #adaac3;
      }

      .cls-25 {
        fill: #a18582;
      }

      .cls-26 {
        fill: #af8e86;
      }

      .cls-27 {
        fill: #fefefe;
      }

      .cls-28 {
        fill: #c5cadb;
      }

      .cls-29 {
        fill: #aba5af;
      }

      .cls-30 {
        fill: #857286;
      }

      .cls-31 {
        fill: #f5d288;
      }

      .cls-32 {
        fill: #8e85a0;
      }

      .cls-33 {
        fill: #8b7d92;
      }

      .cls-34 {
        fill: #c4bcc8;
      }

      .cls-35 {
        fill: url(#_名称未設定グラデーション_13);
      }

      .cls-36 {
        fill: #987b7f;
      }

      .cls-37 {
        fill: #f5e4a1;
      }

      .cls-38 {
        fill: #c3cdde;
      }

      .cls-39 {
        fill: #816f80;
      }

      .cls-40 {
        fill: #b89f97;
      }

      .cls-41 {
        fill: #bfb9c4;
      }

      .cls-42 {
        fill: #867e8d;
      }

      .cls-43 {
        fill: #bec3d6;
      }

      .cls-44 {
        fill: #fff;
      }

      .cls-45 {
        fill: #b09e9d;
      }

      .cls-46 {
        fill: #c4cadc;
      }

      .cls-47 {
        fill: #85788a;
      }

      .cls-48 {
        fill: #f0f1f8;
      }

      .cls-49 {
        fill: #8f7d8c;
      }

      .cls-50 {
        fill: #ac908b;
      }

      .cls-51 {
        fill: #f8eca0;
      }

      .cls-52 {
        fill: #edbba8;
      }

      .cls-53 {
        fill: #cabfc6;
      }

      .cls-54 {
        fill: #fad5c3;
      }

      .cls-55 {
        fill: #9c8181;
      }

      .cls-56 {
        fill: #897d91;
      }

      .cls-57 {
        fill: #f1c582;
      }

      .cls-58 {
        fill: #fbe2ce;
      }

      .cls-59 {
        fill: #aba8be;
      }

      .cls-60 {
        fill: #aaa5bc;
      }

      .cls-61 {
        fill: #ab7f76;
      }

      .cls-62 {
        fill: #d6ac83;
      }

      .cls-63 {
        fill: #e7e6ef;
      }

      .cls-64 {
        fill: #aba8c0;
      }

      .cls-65 {
        fill: #9e7f7f;
      }

      .cls-66 {
        fill: #aeacc3;
      }

      .cls-67 {
        fill: #fad6c5;
      }

      .cls-68 {
        fill: #8087a7;
      }

      .cls-69 {
        fill: #d4edf7;
      }

      .cls-70 {
        fill: #b2b1c8;
      }

      .cls-71 {
        fill: #9e96b0;
      }

      .cls-72 {
        fill: #8d869f;
      }

      .cls-73 {
        fill: #f7ec9d;
      }

      .cls-74 {
        fill: #817081;
      }

      .cls-75 {
        fill: #aaa5b8;
      }

      .cls-76 {
        fill: #d8d8e6;
      }

      .cls-77 {
        fill: #897b8d;
      }

      .cls-78 {
        fill: #dfdce0;
      }

      .cls-79 {
        fill: #c2ccdd;
      }

      .cls-80 {
        fill: #f7e6a5;
      }

      .cls-81 {
        fill: #98899a;
      }

      .cls-82 {
        fill: #aeadc5;
      }

      .cls-83 {
        fill: #9e97af;
      }

      .cls-84 {
        fill: #857789;
      }

      .cls-85 {
        fill: #88788d;
      }

      .cls-86 {
        fill: #f2c1ad;
      }

      .cls-87 {
        fill: #b1afc6;
      }

      .cls-88 {
        fill: #867889;
      }

      .cls-89 {
        fill: #a07e76;
      }

      .cls-90 {
        fill: #eeecf0;
      }

      .cls-91 {
        fill: #f0cda0;
      }

      .cls-92 {
        fill: #b8b0bf;
      }

      .cls-93 {
        fill: #c2c5d7;
      }

      .cls-94 {
        fill: #bd9e8f;
      }

      .cls-95 {
        fill: #aca8bf;
      }

      .cls-96 {
        fill: #877588;
      }

      .cls-97 {
        fill: #aba8bf;
      }

      .cls-98 {
        fill: #f2c6b2;
      }

      .cls-99 {
        fill: #8b7c90;
      }

      .cls-100 {
        fill: #857589;
      }

      .cls-101 {
        fill: #85717b;
      }

      .cls-102 {
        fill: #c4b3ac;
      }

      .cls-103 {
        fill: #fae3cc;
      }

      .cls-104 {
        fill: #bebec9;
      }

      .cls-105 {
        fill: #b6b6cb;
      }

      .cls-106 {
        fill: #d7d7e1;
      }

      .cls-107 {
        fill: #86778b;
      }

      .cls-108 {
        fill: #8b7d93;
      }

      .cls-109 {
        fill: #8a7b90;
      }

      .cls-110 {
        fill: #dadbe8;
      }

      .cls-111 {
        fill: #ac908a;
      }

      .cls-112 {
        fill: #9f95a5;
      }

      .cls-113 {
        fill: #b1aec5;
      }

      .cls-114 {
        fill: #f7d68a;
      }

      .cls-115 {
        fill: #bec1db;
      }

      .cls-116 {
        fill: #cba68e;
      }

      .cls-117 {
        fill: #c5a787;
      }

      .cls-118 {
        fill: #bec3d7;
      }

      .cls-119 {
        fill: #d0c0c6;
      }

      .cls-120 {
        fill: #877d8a;
      }

      .cls-121 {
        fill: #867a8b;
      }

      .cls-122 {
        fill: #85768a;
      }

      .cls-123 {
        fill: #b6b2c6;
      }

      .cls-124 {
        fill: #a6a0b8;
      }

      .cls-125 {
        fill: #dfb076;
      }

      .cls-126 {
        fill: #ccc6d0;
      }

      .cls-127 {
        fill: #f8f7fa;
      }

      .cls-128 {
        fill: #fffffe;
      }

      .cls-129 {
        fill: #867484;
      }

      .cls-130 {
        fill: #bfc3d6;
      }

      .cls-131 {
        fill: #867689;
      }

      .cls-132 {
        fill: #aa8f89;
      }

      .cls-133 {
        fill: #fce5ce;
      }

      .cls-134 {
        fill: #837080;
      }

      .cls-135 {
        fill: #dbd8e4;
      }

      .cls-136 {
        fill: #ebb2a6;
      }

      .cls-137 {
        fill: #f6ceb3;
      }

      .cls-138 {
        fill: #8a7b91;
      }

      .cls-139 {
        fill: #ccc5d2;
      }

      .cls-140 {
        fill: #efbdab;
      }

      .cls-141 {
        fill: #987c81;
      }

      .cls-142 {
        fill: #837384;
      }

      .cls-143 {
        fill: #c5cedf;
      }

      .cls-144 {
        fill: #827386;
      }

      .cls-145 {
        fill: #c4becb;
      }

      .cls-146 {
        fill: #ededf4;
      }

      .cls-147 {
        fill: #f9fafb;
      }

      .cls-148 {
        fill: #b7b2bd;
      }

      .cls-149 {
        fill: #c8c8d9;
      }

      .cls-150 {
        fill: #eec0ad;
      }

      .cls-151 {
        fill: #ac8f8b;
      }

      .cls-152 {
        fill: #b6bbd2;
      }

      .cls-153 {
        fill: #a29cb4;
      }

      .cls-154 {
        fill: #a58583;
      }

      .cls-155 {
        fill: #fdead8;
      }

      .cls-156 {
        fill: #feffff;
      }

      .cls-157 {
        fill: #b4988f;
      }

      .cls-158 {
        fill: #ada6b6;
      }

      .cls-159 {
        fill: #bc9093;
      }

      .cls-160 {
        fill: #f2c5b1;
      }

      .cls-161 {
        fill: #b5b1c4;
      }

      .cls-162 {
        fill: #aeaac0;
      }

      .cls-163 {
        fill: #cac6d3;
      }

      .cls-164 {
        fill: #d4ada9;
      }

      .cls-165 {
        fill: #9c94ab;
      }

      .cls-166 {
        fill: #f0c3b2;
      }

      .cls-167 {
        fill: #a9a4bc;
      }

      .cls-168 {
        fill: #ae8d85;
      }

      .cls-169 {
        fill: #a6c4e7;
      }

      .cls-170 {
        fill: #827085;
      }

      .cls-171 {
        fill: #86768b;
      }

      .cls-172 {
        fill: #a6a2b9;
      }

      .cls-173 {
        fill: #fbe5d1;
      }

      .cls-174 {
        fill: #fffefb;
      }

      .cls-175 {
        fill: #ddd9d9;
      }

      .cls-176 {
        fill: #b9b0bf;
      }

      .cls-177 {
        fill: #a99da6;
      }
    </style>
    <linearGradient id="_名称未設定グラデーション_13" data-name="名称未設定グラデーション 13" x1="110.53" y1="93.75" x2="102.57" y2="138.08" gradientUnits="userSpaceOnUse">
      <stop offset="0" stop-color="#928da8"/>
      <stop offset="1" stop-color="#8a7a8d"/>
    </linearGradient>
  </defs>
  <g id="_レイヤー_1-2" data-name="レイヤー 1">
    <g id="_生成オブジェクト" data-name="生成オブジェクト">
      <path class="cls-120" d="M49.36,173.18l-.03,4.56c-.44.01-1.09-.13-1.15.57-.7-.39-1.74-.01-2.09-.43-.43-.52-.29-4.14.71-4.63s1.78-.19,2.57-.07Z"/>
      <path class="cls-2" d="M213.77,24.41c.56.61.36,1.08-.04,1.49-.46.46-.74.15-1.52-.33-.42-.25.02-.76.55-1.44.17-1.16.92-.88,1.01.28Z"/>
      <g>
        <path class="cls-1" d="M182.16,133.27c2.89.24,6.22-.48,9.02.5-.15,4.02-.19,8.09-.05,12.44.01.4.79.31.98.26s.37.15.3.46c-.35.19-.94.12-1.05.6-1.22-.52-2.63-.25-3.82.33-1.02.5-.74,2.51-1.3,3.33-2.06.83-4.82.68-7.12.65.08-2.59-.43-5.1.13-7.19.16-.58,2.07-.78,1.25-2.26-.27-.49.1-.93.48-1.29.51-.49,2.65,1.28,3.42-.82.32-.88.13-1.57-.32-1.82-.75-.41-1.72,0-2.54.04-2.01.11-1.33-4.82-.84-5.05.4-.19,1.04.08,1.46-.18Z"/>
        <path class="cls-88" d="M182.16,133.27c-.42.26-1.06,0-1.46.18-.48.23-1.17,5.16.84,5.05.82-.05,1.79-.46,2.54-.04.45.25.64.94.32,1.82-.77,2.1-2.91.33-3.42.82-.38.37-.75.8-.48,1.29.82,1.48-1.09,1.68-1.25,2.26-.56,2.09-.05,4.6-.13,7.19,2.29.03,5.06.19,7.12-.65.56-.82.28-2.83,1.3-3.33,1.19-.59,2.61-.85,3.82-.33-.11,2.31-.89,4.51-.59,6.86l-.19.87c-.17.8-6.62-1.1-5.73,1.48l-3.33.48c-.96,1.59-.32,3.7-1.1,5.32-.43.9-1.51,1.22-1.19,2.78.28,1.33-.07,2.79-.29,3.87l-.24,1.21c-.11.55.13.9-.26,1.15-.2.13-.4.41-.71.13.44-2.63.12-5.64.08-8.51l-.35-25.32c-.02-1.2.48-2.66.14-3.82.55.37,1.3.31,1.89-.15.27-.22.19-.96.75-1.07,1.03-.2,1.85-.05,1.9.48Z"/>
        <path class="cls-96" d="M193.58,133.25c.39-.33,1.08-.03,1.69.29-.08,4,.28,8.22-.16,12.21-.14,1.25-2.03.83-2.69,1.18.06-.31-.11-.51-.3-.46s-.97.14-.98-.26c-.15-4.35-.1-8.42.05-12.44.54-.88,1.63-.28,2.39-.52Z"/>
        <path class="cls-156" d="M227.79,201.83c.05.62.33,1.81-.47,2.28-1.07.63-2.4.32-3.43.41.13-.27.2-.46-.12-.71-.14-.11-.18-.42-.49-.24.12-.8-.11-1.56.15-2.3,1.19.81,2.98.51,4.36.55Z"/>
        <path class="cls-127" d="M177.49,131.08c.16.94-.16,1.92.13,2.92.34,1.17-.15,2.62-.14,3.82-.3-.03-.57-.22-.78-.16-.33.09-1.01.75-.96,1.39.53,6.53-.2,12.75-.38,18.83-1.54.05-3.06-.18-4.5.45l.15-29.41c1.87.34,3.52-.5,5.73-.98.02,1.25.6,2.24.75,3.15Z"/>
        <path class="cls-145" d="M177.49,131.08c-.15-.91-.73-1.91-.75-3.15-2.2.49-3.86,1.32-5.73.98.01-2.95-.2-5.9.26-9.05l12.31-.04c-.09,3.79.29,7.11-.18,10.69-2.34-.26-4.14.07-5.92.57Z"/>
        <path class="cls-150" d="M159.35,168.12c-.3,1.28.52,3.43-.53,4.37-1.2,1.08-2.88.59-3.92.75.02-1.06.41-2.17.87-3.44.64-1.76,2.31-1.55,3.58-1.69Z"/>
        <g>
          <path class="cls-8" d="M258,140.26c-.24.62-1.09.82-1.61,1.1,1.39-1.93-10.21-1.21-11.52-1.07-1.64.17-.8,2.25-1.14,3.49-.45,1.67-3.29,1.86-4.45,1.05-.05-.69-.66-8.67.62-8.14,2.08-1.51,2.46-3.75,2.07-6.22-.08-.51-.2-1.14-.02-1.64.3-.83-.28-1.63-1.12-1.77-.37-.37-1.08-.69-.77-1.22.38-.65.54-1.18,1.43-1.17l15.92.14c.56,3.62-.65,12.67-.2,15.1.05.25.53.21.79.36Z"/>
          <path class="cls-91" d="M256.39,141.36c.19.86.08,1.99-.04,2.82-.6,2.4-13.29-.61-12.36,2.99.41,1.6,11.08.96,12.85.79-.1-1.5.15-2.15.56-2.65l1.87-.34c2.08,1.33,1.01,5.12.6,7.22-.9.31-2.35.3-2.57,1.15-1.69-1.26-12.87-.96-14.73-.65-.75.13-2.6.02-2.92-.96-.71-2.14-.1-4.41-.39-6.45-.02-.13.04-.3.03-.46,1.16.81,3.99.61,4.45-1.05.34-1.24-.5-3.32,1.14-3.49,1.31-.13,12.92-.85,11.52,1.07Z"/>
          <path class="cls-68" d="M260.29,143.53c-.8-.14-.58.98-1.02,1.43l-1.87.34c-1.2-.2.04-1.24-1.05-1.13.12-.82.23-1.96.04-2.82.53-.29,1.38-.49,1.61-1.1.47.27,1.37-.42,1.82.24.63.93.45,2.14.46,3.04Z"/>
          <path class="cls-69" d="M239.89,136.69c-.47-1.7.11-3.67-.11-5.53.85.06,1.64-.21,2.18-.69.39,2.47,0,4.72-2.07,6.22Z"/>
          <path class="cls-69" d="M241.95,128.82c-.84-.14-1.14-1.12-1.12-1.77.84.14,1.42.95,1.12,1.77Z"/>
          <path class="cls-22" d="M253.4,157.84c-.4,3.76-.14,8.97-.44,12.52-.81.07-1.64.17-2.45.07-.47-1.37-3.23-2.1-4.38-1.11v15.25c-.41.45-.96,1.86-.19,2.25s3.43-.55,3.65.1c.27.8,1.04,1.27.49,1.75-1.08-.27-2.77.25-3.85-.39-2.75-1.64-.97-15.48-.8-19.73l.42-10.8c2.5.17,5.05-.21,7.55.1Z"/>
          <path class="cls-62" d="M257.3,153.33l-.42,3.56c-.13,1.06-2.55,1.06-3.47.95-2.51-.3-5.05.07-7.55-.1l-3-.2c-.52-1.78-.13-3.32-.28-4.86,1.87-.32,13.05-.62,14.73.65Z"/>
          <path class="cls-141" d="M252.96,170.36c.81,5.26.37,11.45.22,17.15-.04,1.6-2.27,1.37-3.1,1.16.55-.48-.23-.95-.49-1.75-.22-.65-2.87.3-3.65-.1s-.21-1.8.2-2.25c.97.01,3.23.48,3.85-.39l.52-13.74c.81.1,1.64,0,2.45-.07Z"/>
          <path class="cls-116" d="M257.39,145.3c-.42.5-.67,1.15-.56,2.65-1.77.17-12.44.81-12.85-.79-.93-3.6,11.76-.59,12.36-2.99,1.09-.11-.15.93,1.05,1.13Z"/>
          <path class="cls-94" d="M250.51,170.43l-.52,13.74c-.62.87-2.88.41-3.85.39v-15.25c1.14-.99,3.91-.26,4.37,1.11Z"/>
        </g>
        <path class="cls-39" d="M90.36,133.34c-1.03-.17-1.41.82-1.48,1.46-.11.99.16,1.96.87,2.21.91.33,2.06.23,2.32-.8.31-1.19.44-2.36-.48-2.87-.61-1.46,7.15-.69,6.84-.15.83.98,2.27.17,2.56.95.47,1.31.76,3.57-.84,3.38-.92-.11-1.93-.46-2.08.2-.54,2.55,1.05,7.58-3.7,9.77-2.56,1.18-5.22-.06-7.42-.5-3.74-4.99-.86-6.91-2.77-9.55-.26-.9-.22-3.22.54-3.97,1.38-1.36,4.47-1.33,5.64-.13Z"/>
        <path class="cls-128" d="M84.19,137.44c1.91,2.63-.97,4.56,2.77,9.55-2.08,1.08-4.56-.06-6.16-2.57-1.24-1.94-.72-4.72-.77-6.95,1.33.24,2.81-.1,4.16-.03Z"/>
        <path class="cls-174" d="M157.62,137.79c1.13,2.73.68,6.02-.75,8.43-1.26-.48-2.1.16-3.07.43l-1.01.28c-.3.08-.88.05-.89-.48,2.82-4.04,1.47-3.25,2.05-8.86l3.66.2Z"/>
        <g>
          <path class="cls-155" d="M140.98,132.48c-1.98.29-3.5,2.81-3.2,4.63.83.44,1.68,0,2.38.58.15,2.41-.65,5.33.71,7.33,2.55,3.75,7.96,4.09,11.03,1.43.02.53.59.57.89.48l1.01-.28c.96-.27,1.81-.91,3.07-.43,1.43-2.41,1.88-5.7.75-8.43.43-1.25.52-2.57.55-3.89,2.61-.9,5.68-.42,8.47-.49l.11,29.49c-.96.11-2.74-.32-3.07,1.16-.24,1.08.74,2.96-.41,3.53-1.23.6-2.8.41-3.93.54-1.27.14-2.94-.07-3.58,1.69-.46,1.26-.85,2.38-.87,3.44-4.59.75-9.44.33-14.44.12-.72-1.81-.04-3.42-.48-5.3l-3.41-.33-.91-4.73-36.92.17c-.14,1.97-.74,3.27-1.51,4.55-.72.33-1.55.42-2.68.61-.16,1.92-.61,3.51-1.63,4.24-1.71,1.23-2.8,1.38-4.86,1.1-2.96-.4-5.96.01-8.49-1.12.02-.58.1-1.25-.07-2.11-.19-.93-1-.49-1.38-.48-.88.04-1.22-1.19-1.89-1.71-.83-.65-2.11-.16-2.95-.58-.32-.16-.63-.32-.92-.57-.06-1.28.19-2.59-.31-4.04-1.26-.22-2.3.1-3.64-.36l-.12-22.12c3.42-.57,1.19-2.59,7.29-2.12,1.38-1.33,2.98-1.28,4.45-1.01.04,2.23-.48,5,.77,6.95,1.6,2.51,4.08,3.65,6.16,2.57,2.2.45,4.86,1.68,7.42.5,4.74-2.19,3.15-7.21,3.7-9.77.14-.66,1.15-.31,2.08-.2,1.61.19,1.32-2.07.84-3.38-.28-.79-1.73.02-2.56-.95.77-2.19,3.32-2.38,5.59-2.37l32.45.27c1.76.01,3.74.08,4.5,1.38Z"/>
          <path class="cls-54" d="M85.37,155.64c-2.94.53-5.53-.12-8.39-.09.06-1.77.27-2.81.5-4.18,2.64-.87,4.87-1.32,7.8-.89l.09,5.16Z"/>
          <path class="cls-67" d="M161.22,155.1c-2.26,1.03-4.36.88-6.7.64-.35-1.01-1.16-3.67-.08-4.6,1.73-1.49,5.42-.72,6.78.94.45.55-.38,1.76,0,3.03Z"/>
          <path class="cls-136" d="M116.08,152.21c.26,2.09,3.14-.58,3.72,3.9-2.26.4-5,.78-6.74-1.06-.85-.9-.41-3.67.46-4.39s1.58-.85,1.95-.53c.64.55.51,1.2.62,2.08Z"/>
        </g>
        <g>
          <path class="cls-160" d="M166.65,133.41c-2.8.07-5.86-.4-8.47.49-2.18-1.36-16.25-1.57-17.2-1.43-.76-1.3-2.74-1.36-4.5-1.38l-32.45-.27c-2.28-.02-4.83.18-5.59,2.37.3-.53-7.45-1.31-6.84.15h-1.23c-1.16-1.2-4.26-1.23-5.64.13-.76.75-.79,3.07-.54,3.97-1.35-.07-2.82.27-4.16.03-1.47-.27-3.07-.32-4.45,1.01-6.09-.47-3.87,1.55-7.29,2.12l.17-20.46,61.2.21,36.86-.26c.3,4.72.1,9.02.12,13.32Z"/>
          <path class="cls-129" d="M144.03,128.69c-3.5.31-5.57,1.99-7.18,1.6-.39-.09-1.13-2.11-1.84-2.99-.43-.53.23-2.35.87-1.97,2.04,1.22,3-.9,4.34-1.26,5.16-1.36,10.76-.53,16.22-1.02.54,1.61.59,3.85-.41,5.06-3.98.02-8.19.24-12,.57Z"/>
          <path class="cls-5" d="M97.84,126.52c1.38,0,3.21-.96,4.25.2.71.8-.06,3.69-1.42,3.33-7.07-1.84-13.92-2.08-21.21-2.4-1-.04-.94-3.6.02-3.96,2.63-.96,5.85-.4,8.61-.3l9.11.34c.69.03.16,1.57.64,2.78Z"/>
        </g>
        <path class="cls-2" d="M90.36,133.34h1.23c.92.51.79,1.68.48,2.87-.27,1.03-1.42,1.13-2.32.8-.71-.25-.98-1.22-.87-2.21.07-.64.45-1.63,1.48-1.46Z"/>
        <g>
          <path class="cls-66" d="M177.06,70.63c.37-.09.75.11,1.1.14.33.48-.78.33-.78.63l.16,10.55c-.98.49-2,.27-2.91.43-.22-.69-.81-1.16-1.64-1.64-.11-.83.63-1.12.63-2.29-4.84-.08-9.52-.56-14.1.01-.19-.98-1.56-.27-1.99-.89-.76-1.56.36-3.02.8-4.66.54-2.01-4.12-.6-2.99-3.04.69-1.5,3.37.02,3.87-1.26.19-.48.71-1.53.7-2.23l-.29-35.04c1.07.5,3.46.46,3.85,1.69.32,1.03.09,2.29.5,3.12.51,1.03,1.92.79,2.96,1.23-.64,1.78-.17,3.15.46,4.61.79,1.82.07,4.1.74,6.24l4.11.2.42,21.85c1.6.64,3.1.66,4.39.35Z"/>
          <path class="cls-108" d="M166.88,32.18c.12.97.6,1.9.95,3.2.3,1.14,1.64,1.13,2.57.86,2.15-.62,1.1-6.86,2.01-7.66,1.26,1.79.03,3.6,1.16,5.02.52.66,2.04.06,2.84.44,1.28.61.24,2.6.78,3.27,1.09,1.35,3.04.48,4.3.53,1.36.05,2.85.02,4.31.51-.06,1.42-.39,2.54.35,3,1.52.93,3.56-.46,4.22,1.39.36,1.02.51,1.72.3,2.95-.85.1-1.95-.32-2.3.41-1.2-.24-3.07.06-4.26-.86-.93-.72-.41-2.55-.96-3.54-1.79-.43-3.7.22-5.36-.41.12-2.26-5.63-1.48-6.41-.82.6,2.05.77,4.04,1,6.14.15,1.34,2.3,1.06,2.8,2,.34.65,1.71,1.99,1.77,2.78.48,6.09.41,13.19.11,19.24-1.3.31-2.79.29-4.39-.35l-.42-21.85-4.11-.2c-.67-2.14.05-4.42-.74-6.24-.63-1.46-1.1-2.84-.46-4.61-1.04-.44-2.46-.2-2.96-1.23-.41-.83-.18-2.09-.5-3.12-.38-1.23-2.77-1.2-3.85-1.69-.01-1.3-.74-3.04.09-4.37.59-.56,2.22.34,2.75.88s.28,1.95.76,2.9c.68,1.33,2.64.99,3.65,1.43Z"/>
          <path class="cls-82" d="M34.5,100.3c-.22.98.5,8.83.99,9.74-5.43.49-11.27.17-16.68,1.13-.4.36-.4,1.63-.7,2.01-.27.34-10.87,2.22-12.89,2.01-.31-.95-.69-2.96-.04-3.81,1-.84,2.88-.48,4.13-1.03.63-1.09.31-2.19.63-3.16l8.11-.39c.52-1.39.52-2.5.5-3.65l6.83.02c1.16,0,.97-1.2,1.23-2,.35-1.09-.47-.83-1.24-1.44.91-.01,1.06-.45,1.3-1.17.52-.21.44.92.72,1.09,2.35.25,4.88.11,7.13.66Z"/>
          <path class="cls-169" d="M215.86,100.11c-.16.96.59.74.52-.07,2.04.47,4.22.45,6.44,1.13.45,1.15,0,2.46.66,3.36s2.14.32,3.24.9c1.32.69,1.45,3.89.24,4.78-.74.55-2.6.4-3.15,1.46-.38-1.37-2.02-1.24-3.08-1.92-1.17-.74-.81-2.52-.92-4-3.7-.73-7.39-.75-10.98-.79-.44,0-1.17-.05-1.58-.1-2.91.81-6.55.27-9.62.36.05-.58.23-.53.5-.67.51-.27,1.74,0,1.99-.38.56-.84.17-1.98.33-2.76.46-.02.8-.15,1.17-.37.34-.2.73-.59.42-.94s-1.17-.37-1.29-.76c-.37-1.17-.15-2.28-.86-3.07-.24-.27-.5-.43-.55-.67s.6-.48.51-1c4.78,1.36,9.8,1.53,15.01,2.03.11,1.37.6,2.43,1.02,3.48Z"/>
          <path class="cls-99" d="M163.15,6.04c-1.96.72-3.96-.5-6.12-.52l-32.22-.39c-.76.85-7.98,1.92-7.27-.03-.29-.44-.1-1.73.73-1.85,2.09-.29,3.93.34,5.88-.19.27-1.06.04-2,.51-3.06l33.47.25c.21,1.18.09,1.96.58,2.25,1.46.85,3.92-.33,4.5.92.46.99-.54,1.92-.08,2.62Z"/>
          <path class="cls-72" d="M199.83,94.61c.09.52-.56.76-.51,1s.31.4.55.67c-.53.19-.78-.31-.96-.94-2.13.52-5.4.59-7.02-1.31-.78-.91-.8-2.06-1.37-2.44.02.01-10.24-2.14-12.53-.98-.91-.4-.12-2.45-.56-3.12-.81-1.22-3.44.12-4.17-.92-.26-.37-.61-.75-.42-1.21.07-1.3.37-2.72,1.8-2.97.91-.16,1.93.06,2.91-.43l-.16-10.55c0-.29,1.11-.15.78-.63l3.68.32.25,14.9,8.89.75.29,3.3c2.3,1.06,4.76,1.22,7.37,1.65.63,1.09-.01,2.55,1.19,2.9Z"/>
          <path class="cls-122" d="M58.48,78.69c.21,1.5-.5,2.99-.09,4.43l-1.06,1.91c-1.05.33-2.43-.61-3.3.08-.98.77-.34,2.26-.44,3.2-.05.52.1.95-.12,1.27-.24.36-1.36.79-1.81.6-1.58-.64-2.26.71-3.46.83l-5.34.52-.45,3.62c-2.4.73-4.5.32-7.2.76.75,2.11-.49,3.43-.71,4.41-2.25-.54-4.78-.4-7.13-.66-.28-.17-.2-1.3-.72-1.09.2-.62-.24-2.34.57-2.64,2.65-.4,5.34.35,8.02-.39.03-1.7-.18-2.82.1-4.18l6.83-.45.29-3.86,7.16-.45c.39-1.25-.03-2.49.62-3.65,1.34-.22,2.89.43,3.64-.24.99-.88-.26-2.84.4-3.73s3.42-1.25,4.19-.28Z"/>
          <path class="cls-21" d="M223.83,111.67c-.36.71.53,2.11-.67,2.55-.95.34-1.95.4-3.25.19-.67,3.85-3.44,1.73-6.93,4-.23-.76-.93-1.14-1.66-1.08,2.76-7.43-3.24-7.78-2.47-12.36,3.59.04,7.28.06,10.98.79.11,1.48-.25,3.26.92,4,1.06.68,2.7.54,3.08,1.92Z"/>
          <path class="cls-100" d="M75.48,45.63l-.19,8.82c-1.44.65-2.72.04-4.1.44l-.21,9.28c-1.06.49-2.33-.1-3.06.53-1.59,1.38-1.19,3.6-1.44,5.32-.31,1.75-2.66,1.53-4.06,1.2.03-2.31-.13-4.65.2-7.18,1.29-.47,2.47-.22,3.98-.15.54-2.83.13-5.53.36-8.63,1.25-.39,2.31-.13,3.41-.7l.13-8.41c1.79-.05,3.5-.38,4.98-.52Z"/>
          <path class="cls-32" d="M199.35,45.54c-.11.3-.15.69-.39.7l-1.39.03c-1.32.03-2.58.23-2.63,1.28-.06,1.27-.06,2.49,1.45,2.75,1.17.2,2.89.76,3.27-.76.1-.39-.56-1.77-.17-2.21.22-.25.02-.5.65-.49l-.3,7.26c-.99.8-3.29.41-4.53.05-.37-1.2-.21-2.08-.39-3.19-1.2-.83-2.69-.06-3.84-.63-.84-.42-.55-1.84-.79-2.51.64.04.33-.52.18-1.43,1.24-.81,2.65-.3,4.28-.28.45-3.02.14-6.04-.04-9.07-1.37-.52-2.41-.41-3.86-.68,0-1.56-.4-2.79-.16-4.53.39-.26,1.25.31,1.14-.38l2.88.47c.11,1.62-.18,2.94.13,4.42l4.4.84.09,8.35Z"/>
          <path class="cls-138" d="M190.53,30.15c-.56.61-.63,1.09-1.33.99-1.02-.14-2.28.2-2.6-.98-.62-2.29.14-4.86-1.18-6.81-.44-.65-2.59.18-3.06-.81-.85-1.82-.76-4.05-1.75-5.77-.7-.03-1.5.85-1.87.51-.48-.45-.33-1.14-.5-1.82,2.07.73,4.29,1.04,6.92.93l.63,6.61c1.64.42,3.12.17,4.58.72.43,2.24-.1,4.39.16,6.44Z"/>
          <path class="cls-95" d="M69.96,77.22c-2.39-.2-5.01.97-7.48.38l.24-5.38c-.06-.46-.62-.45-.88-.56-.12-.42.22-.56.59-.45,1.39.33,3.75.55,4.06-1.2,2.12,2.64,3.96.15,4.81,1.72.77,1.43-1.53,3.38-1.33,5.48Z"/>
          <path class="cls-109" d="M172.32,10.25c-2.57,1.01-5.46.06-8.39.45-.7-1.28-.11-2.29-.44-3.36.44.07.5-.35.43-.67,2.47-.72,5.16.05,8.12-.09.64,1.39.02,2.51.29,3.67Z"/>
          <path class="cls-171" d="M80.69,38.12c-.1,2.12-.3,4.36-.81,6.95-.5,1.22-3.27.46-4.39.56l.24-6.93,4.97-.59Z"/>
          <path class="cls-84" d="M18.55,103.15c.02,1.15.02,2.25-.5,3.65l-8.11.39c-.15,0-.31-.17-.47-.15.49-.88.39-1.95.51-3.57,2.98-.38,5.8-.33,8.58-.32Z"/>
          <path class="cls-131" d="M102.34,16.3l.81.23c.35.1-.04,3.72-.02,3.7-.41.67-5.75,1.4-6.54-.37l.16-3.39c1.99-.25,3.81-.35,5.59-.17Z"/>
          <path class="cls-85" d="M115.97,6.68c.18.11.73.07.86.27l-.12,3.48c-2.31.58-4.73.88-6.93.31.33-1.11.01-2.26.27-3.78,2.11-.39,4.05-.37,5.92-.29Z"/>
          <path class="cls-84" d="M25.36,99.73c.77.61,1.59.35,1.24,1.44-.26.8-.07,2.01-1.23,2l-6.83-.02c-.02-.98-.15-1.98.03-3.16,2.38-.27,4.59-.23,6.78-.26Z"/>
          <path class="cls-131" d="M96.48,21.08c.41,1.16,1.04,3.95-.02,4.77-1.44,1.12-4.07.59-5.57.3.02-1.41.14-2.86.65-4.56l4.94-.52Z"/>
          <path class="cls-131" d="M109.15,11.26c.15,1.21.22,2.45-.05,4.15-1.55.35-4.26.53-5.48.04.04-1.32-.42-2.71.36-4.14l5.17-.05Z"/>
          <path class="cls-107" d="M61.84,71.67c.27.11.82.09.88.56l-.24,5.38c-.97-.23-2.36.7-3.39.31-1.22-1.58-.33-3.96-.38-6.15,1.14-.14,2.13-.29,3.12-.1Z"/>
          <path class="cls-47" d="M84.75,32.48c.96,1.55.11,3.67-.09,5.51-1.55.49-2.74-.02-3.97.13l.25-5.09c1.22-.28,2.58-.48,3.81-.54Z"/>
          <path class="cls-121" d="M89.78,26.81c.86,1.18,1.38,3.93.08,4.96s-3.58.86-3.63-.48-.17-2.85.27-4.4c1.23-.16,2.28.17,3.29-.08Z"/>
          <path class="cls-115" d="M200.14,46.84c-.63,0-.43.24-.65.49-.39.44.27,1.82.17,2.21-.38,1.51-2.11.96-3.27.76-1.51-.26-1.51-1.48-1.45-2.75.05-1.05,1.31-1.25,2.63-1.28l1.39-.03c.24,0,.28-.4.39-.7.42-.23.5.6.6.89.06.17.37-.07.19.41Z"/>
          <path class="cls-69" d="M215.86,100.11c.19-.33.29-.12.52-.07.07.8-.68,1.02-.52.07Z"/>
          <path class="cls-143" d="M69.96,77.22c8.94.73,17.81.38,27.31.38l60.28-.03c.43.63,1.8-.08,1.99.89.09,1.17-.16,2.43.18,4.02,2.55,1,9.36-1.39,8.37,2.24l4.77.63c-.18.46.16.84.42,1.21.73,1.03,3.37-.31,4.17.92.45.68-.35,2.72.56,3.12,2.29-1.17,12.55.99,12.53.98.57.38.6,1.53,1.37,2.44,1.62,1.89,4.89,1.83,7.02,1.31.19.63.43,1.13.96.94.72.79.5,1.9.86,3.07.12.4.98.41,1.29.76s-.08.73-.42.94c-.36.22-.71.34-1.17.37-.91-1.49-10.37.58-11.97.8-3.4.47-6.87.07-10,.66l-9.54,1.78c-1.42.26-1.94,1.21-3.97,1.07-10-.7-22.81,2.43-21.57,2.49-3.24-.15-2.08,1.23-11.47,1.28l-82.08.47c-4.78.03-9.57-.34-14.35.09-.49-.91-1.21-8.77-.99-9.74s1.46-2.3.71-4.41c2.7-.44,4.8-.03,7.2-.76l.45-3.62,5.34-.52c1.2-.12,1.88-1.47,3.46-.83.45.18,1.57-.25,1.81-.6.22-.31.06-.75.12-1.27,4.5.16,9.13.49,13.35-1.04.99.62,10.46-.18,8.76-4.24-3.04-.75-6.39.15-9.25.08-2.58-.06-5.41-.76-8.05,0-.41-1.44.31-2.93.09-4.43.48.16.77-.3.61-.76,1.03.38,2.42-.55,3.39-.31,2.47.59,5.09-.58,7.48-.38Z"/>
          <path class="cls-64" d="M181.49,37.84c-1.26-.05-3.21.82-4.3-.53-.54-.67.5-2.66-.78-3.27-.8-.38-2.32.21-2.84-.44-1.13-1.42.1-3.24-1.16-5.02-.91.8.14,7.04-2.01,7.66-.93.27-2.27.28-2.57-.86-.34-1.29-.82-2.23-.95-3.2,2.86.18,1.34-7.76,2.44-9.3.94-.09,2.06-.13,2.53.15,1.48.88-.74,1.19,1.76,4.07.35.4,2.07-.49,2.4.09.83,1.49,3.35,1.83,5.01,2.32,1.51,2.32.76,5.83.47,8.32Z"/>
          <g>
            <path class="cls-43" d="M163.15,6.04c.13.2.26.48.19.73-.07.23.08.38.14.57.33,1.06-.26,2.08.44,3.36,2.94-.39,5.82.56,8.39-.45-.06.3.14.66.44.62.27-.03.5-.08.84.03-1.44.47-1.61,2.77-.6,4.06.78.99,3.82.89,4.48-.24.55-.28.66.29.77.72.17.68.01,1.37.5,1.82.37.34,1.17-.54,1.87-.51.99,1.72.9,3.95,1.75,5.77.47,1,2.62.17,3.06.81,1.33,1.96.57,4.53,1.18,6.81.32,1.18,1.58.84,2.6.98.7.1.77-.38,1.33-.99.04.35.16,1.03.49,1.11l.83.2c.1.69-.75.12-1.14.38-.24,1.74.16,2.97.16,4.53,1.44.27,2.49.16,3.86.68.18,3.03.48,6.05.04,9.07-1.64-.02-3.04-.54-4.28.28.15.91.46,1.47-.18,1.43-.36-.98-.82-1.59-1.93-1.71.34-.73,1.45-.32,2.3-.41.21-1.23.06-1.93-.3-2.95-.66-1.85-2.69-.46-4.22-1.39-.74-.45-.41-1.58-.35-3-1.46-.5-2.95-.46-4.31-.51.3-2.49,1.05-6-.47-8.32-1.66-.5-4.18-.84-5.01-2.32-.33-.59-2.05.31-2.4-.09-2.5-2.89-.28-3.19-1.76-4.07-.47-.28-1.59-.24-2.53-.15-1.1,1.54.41,9.47-2.44,9.3-1.02-.44-2.97-.1-3.65-1.43-.48-.95-.21-2.34-.76-2.9s-2.16-1.44-2.75-.88c-.83,1.33-.1,3.07-.09,4.37l.29,35.04c0,.69-.51,1.75-.7,2.23-.5,1.28-3.17-.24-3.87,1.26-1.13,2.44,3.54,1.04,2.99,3.04-.45,1.64-1.56,3.1-.8,4.66l-60.28.03c-9.5,0-18.36.35-27.31-.38-.2-2.1,2.1-4.05,1.33-5.48-.85-1.57-2.69.92-4.81-1.72.25-1.73-.16-3.95,1.44-5.32.73-.63,2-.04,3.06-.53l.21-9.28c1.38-.4,2.66.21,4.1-.44l.19-8.82c1.12-.1,3.9.66,4.39-.56.51-2.59.71-4.83.81-6.95,1.23-.15,2.42.37,3.97-.13.2-1.83,1.05-3.96.09-5.51-.24-.75.32-.58.94-.22.14-.53,0-1.03.54-.98.05,1.34,2.36,1.47,3.63.48s.78-3.78-.08-4.96c.39-.18.64-.64,1.11-.64,1.5.29,4.13.81,5.57-.3,1.06-.82.44-3.62.02-4.77-.17-.47.08-.73.1-1.23.79,1.77,6.13,1.04,6.54.37-.01.02.38-3.59.02-3.7l-.81-.23c-.24-.42.31-.54.99-.17.26.14.13-.74.29-.68,1.21.49,3.92.31,5.48-.04.27-1.7.2-2.94.05-4.15.29,0,.48-.29.63-.52,2.21.56,4.62.26,6.93-.31l.12-3.48c-.12-.21-.68-.16-.86-.27-.13-.84.55-.26,1.55-.18-.02-.83-.75-1.34.03-1.39-.71,1.95,6.52.88,7.27.03l32.22.39c2.15.03,4.15,1.24,6.12.52Z"/>
            <path class="cls-77" d="M177.48,14.73c-.66,1.13-3.69,1.23-4.48.24-1.02-1.29-.84-3.59.6-4.06,1.08.37,2.76-.3,3.79.66.59.81.01,2.34.09,3.16Z"/>
            <path class="cls-2" d="M192.42,276.48c-.46.06-.66-.31-.63-.56.4-.19.82.11.63.56Z"/>
            <path class="cls-2" d="M163.48,7.34c-.06-.19-.21-.34-.14-.57.21.06.38-.05.57-.1.07.32,0,.74-.43.67Z"/>
            <path class="cls-18" d="M151.44,18.41c.81,1.7,4.09,1.97,3.92,4.33-2.82-.58-7.35-3.7-5.23-7.07l1.31,2.74Z"/>
            <path class="cls-172" d="M158.33,25.88c-.81,1.06-2.48.24-2.63-.48s-.96-2.35.26-2.51c1.34-.18,3.35,1.71,2.37,2.99Z"/>
          </g>
          <path class="cls-87" d="M186.72,106.53l.25,3.7,2.91.58c.22,1.27.44,3.09-.42,4.12l-23.87.11-50.18.32-65.5-.72c-.24-1.56-.11-3.12-.09-4.69l82.08-.47c9.39-.05,8.23-1.44,11.47-1.28.52-.17.52,1.16,1.13,1.18l22.29.62c1.3.04,4.38,1.17,5,.1,1.02-1.76,1.83-1.36,3.55-1.91,3.8-1.23,7.52-2.07,11.36-1.65Z"/>
          <path class="cls-152" d="M200.45,101.41c-.16.77.23,1.92-.33,2.76-.25.38-1.48.1-1.99.38-.27.14-.44.09-.5.67l-9.79.28c-.71.02-1.21.59-1.12,1.04-3.85-.41-7.56.43-11.36,1.65-1.72.55-2.53.15-3.55,1.91-.62,1.08-3.71-.06-5-.1l-22.29-.62c-.61-.02-.6-1.35-1.13-1.18-1.24-.06,11.57-3.18,21.57-2.49,2.04.14,2.55-.81,3.97-1.07l9.54-1.78c3.13-.58,6.6-.19,10-.66,1.61-.22,11.07-2.29,11.97-.8Z"/>
          <path class="cls-6" d="M208.84,104.96c-.77,4.58,5.24,4.92,2.47,12.36-1.83.13-3.71-.06-5.71-.57-.37-5.3.87-7.49,1.66-11.88.42.05,1.14.09,1.58.1Z"/>
          <path class="cls-165" d="M49.84,109.95c-.03,1.57-.15,3.13.09,4.69-2.05-.02-4.53.62-6.84-.28-2.05-.8-3.78-2.04-6.38-1.95-.63.02-1.22-.65-1.33-.99s.31-1,.11-1.38c4.78-.43,9.58-.07,14.35-.09Z"/>
          <path class="cls-16" d="M174.64,82.38c-1.43.25-1.73,1.67-1.8,2.97l-4.77-.63c.99-3.63-5.82-1.23-8.37-2.24-.34-1.59-.09-2.84-.18-4.02,4.58-.57,9.26-.09,14.1-.01,0,1.17-.73,1.45-.63,2.29.83.48,1.41.95,1.64,1.64Z"/>
          <path class="cls-14" d="M66.45,83.11c.13,1.41-.1,2.84.49,4.16-4.22,1.52-8.85,1.2-13.35,1.04.1-.94-.54-2.44.44-3.2.88-.69,2.26.25,3.3-.08l1.06-1.91c2.64-.76,5.48-.07,8.05,0Z"/>
          <path class="cls-118" d="M66.93,87.27c-.59-1.32-.36-2.75-.49-4.16,2.86.07,6.21-.83,9.25-.08,1.7,4.06-7.77,4.86-8.76,4.24Z"/>
          <g>
            <path class="cls-35" d="M211.31,117.31c.73-.05,1.43.32,1.66,1.08.22.55.29,2.05-.45,2.27-2.87.86-5.97-.41-8.61.81-.99.46-1.4,1.31-2.81,1.44-2.02.2-11.58,2-11.85,2.8-.24.72-.23,1.46.03,1.98.55,1.13,2.66.04,3.42,1.05,1.05,1.41-.62,3.32.88,4.49-.76.24-1.85-.36-2.39.52-2.8-.98-6.14-.26-9.02-.5-.05-.53-.87-.69-1.9-.48-.56.11-.48.85-.75,1.07-.58.46-1.34.52-1.89.15-.29-1,.02-1.98-.13-2.92,1.77-.5,3.57-.82,5.92-.57.47-3.58.09-6.9.18-10.69l-12.31.04c-.46,3.15-.25,6.1-.26,9.05l-.15,29.41c-.02,3.08.22,6.34-.6,9.25l-3.4.61c.31,2.29.15,4.28-.7,6.17-2.02-.34-4.18.81-6.43-.76,2.15-.86,4.32-.69,6.48-.77.05-2.07-.46-3.83.43-5.42.82-1.46.11-3.09.11-4.51l-.11-29.49c-.02-4.3.19-8.6-.12-13.32l-36.86.26-61.2-.21-.17,20.46.12,22.12c1.34.47,2.38.15,3.64.36.5,1.45.25,2.76.31,4.04-.8,1.28-2.52.52-3.66.57-.19-.28-1.11.02-1.1-.25l.08-3.98c-1.27-.56-2.76-.2-3.85-1.14-.31-1.65.53-4.35-.69-5.37-1.3-.55-3.73.64-4.05-.86-.34-1.62-2.38-.65-4.69-1.63-.03-.86.17-1.81-.24-2.88-.79-.1-3.57.56-3.69-.5-.72-6.33-.04-12.3-.38-18.6l-23.23-.86-.62-2.7-8.16-.31-.8-2.01-7.56-.44c-.27-1.19.17-1.79-.14-2.14-1-1.12-3.36.29-4.53-.85-.33-.32-.09-1.53-.59-1.94-1.15-.93-2.75-.3-4.11-.59-.42-3.24-.44-6.33-.16-9.55,1.58-.49,3.09.34,4.31-.37.92-.54-.23-2.84.51-3.38,1.31-.96,3.19-.17,4.46-.31.16-.02.32.16.47.15-.32.98,0,2.07-.63,3.16-1.24.55-3.13.2-4.13,1.03-.65.85-.27,2.86.04,3.81,2.02.21,12.63-1.67,12.89-2.01.3-.38.3-1.66.7-2.01,5.41-.96,11.25-.64,16.68-1.13.21.38-.21,1.04-.11,1.38s.7,1.01,1.33.99c2.6-.09,4.33,1.15,6.38,1.95,2.32.9,4.79.26,6.84.28l65.5.72,50.18-.32,23.87-.11c.86-1.03.63-2.85.42-4.12l-2.91-.58-.25-3.7c-.08-.45.42-1.02,1.12-1.04l9.79-.28c3.07-.09,6.72.46,9.62-.36-.79,4.4-2.03,6.58-1.66,11.88,2,.51,3.88.7,5.71.57Z"/>
            <path class="cls-34" d="M63.8,130.63c-1.81.52-3.49.3-5.39.32l.07-11.02c2.06-.15,3.55-.18,5.44.04l-.11,10.66Z"/>
            <g>
              <path class="cls-52" d="M57.79,150.1c-2.63,1.86-4.95-12.64-2.61-13.76,5.32-2.19-.85-3.08,8.19-2.72.72,6.14.3,11.74.43,18.32-2.23.57-4.59-.08-6.01-1.84Z"/>
              <path class="cls-159" d="M63.32,138.15c-1.76,5.66-3.28.52-5.54,5.46-1.24-.7-1.65-2.11-.87-3.52,1.21-2.19,4.26-2.69,6.42-1.94Z"/>
            </g>
          </g>
        </g>
        <g>
          <path class="cls-38" d="M185.57,198.33c.87-.07.29,1.34,1.23,1.14,1.11-.22,2.21.47,3.3.08,1.42,1.5,3.64.28,5.54,1.13l.29,3.27c5.99.91,11.82.03,17.59.09l2.2.02-1.17,6.17c-1.19-.13-3.18-.6-3.33,1.06-.14,1.53-.12,2.72,1.4,2.59.83-.07,1.4-.19,1.48-1.33l1.23,1.12c.63,2.37.09,11.24-.6,12.7-.47.99.42,2.61-.46,3.99-.68,1.05-2,.59-3.05.19l-1.46,6.78c-.3.41-1.11.31-1.4.27-1.18-.16-4.3,1.18-4.8-.26l-1.28-3.66c-.19-.55.36-1.52-.2-1.96-.42-.33-1.35-.55-2.26-.53l-21.82.45c-2.86-2.35-.65-6.91,2.56-8.53.64-.32.43-1.64.9-1.97,2.27-1.62,3.87-3.5,4.67-6.07-1.22-.16-2.19-.12-3.2.29-.74.3-.47,2.14-1.27,2.84-2.55,2.25-5.04,4.37-6.49,7.4l-2.15.52c-.82-.55-1.39-.75-1.61-1.35-.33-.92.54-2.11.42-2.63-.41-1.71-1.65-2.94-.95-5.08.19-.56.28-.85.08-1.1-.35-.44-.76-.66-1.12-.57-.51.13-1.52,7.85-1.59,6.34.23,5.56.25,10.81.19,15.95-.02,1.5-.52,3.02.05,4.5s-.34,3.18.5,4.59l-1.02,12c-1.2.16-3.76-.26-3.86,1.01l-1.19,15.42c-5.66,5.56-6.21,2.4-14.87,3.41-.59-1.28.79-1.86,1.1-2.98-1.72-1.27-3.97.4-4.9,2.27-.39.78-2.19-.17-2.6.3-1.24,1.45-2.1,3.02-3.55,4.54l.29,1.48-6.98-.15-.27-44.59c0-1.11.21-3.45,1.48-3.51l2.43-.1c.17,0,2.31-4.48,2.12-5.58-.36-2.06,1.31-2.42,2.38-3.46.95-.93-.45-3.43,1.57-3.85,1.5-.31,3.48-2.03,4.11-3.19.85-1.57,1.11-2.77,2.94-3.7,2.9-1.47,6.11-2.49,8.91-4.24,2.04-1.27,3.8-2.82,6.1-3.32,2.05-.45,2.48-2.27,3.5-3.36-.09.09,6.44-5.32,6.27-5.86,4.21-2.68,12.97,1.92,12.63-1Z"/>
          <path class="cls-79" d="M62.92,205.25c1.38.38,3.05.16,4.27.27,8.94,6.38,2.69,4.39,12.91,7.07,2.08.54-2.43,1.89,7.37,3.5.53,1.74-.62,3.91.28,5.42,1.09,1.83,4.4-.06,6.51,1.62-.2-.16-.74,2.62,1.18,4.37.75.69,2.31.43,2.56,1.64.38,1.8-1.01,3.8.84,7.52-.46.09-.44.67-.46,1.02l-1.51,20.84c-.26,3.66-1.15,7.17-.74,10.88.69.19,1.11-.27,1.51.04.07,3.07-.37,6.18.11,9.23.14.86.41,2.3-.75,2.81-.65.29-1.57,0-2.01.53-.27.34-.14,1.35-.64,1.66-1.52.91-3.23-.14-4.46.25-.68-5.91-1.33-2.2-1.8-5.13-1.72-1.69-3.11-4.27-3.16-6.8-1.03-.59-2.08-1.85-3.05-2.84-.55-.57-2.52.19-2.63-.84-.15-1.32-.88-1.87-1.54-2.64s-1.01-1.88-2.43-2.07c-1.92-.26-2.31.9-4.28,1.95-1.58-.93-.97-4.68-3.09-6.82l-.45-22.16.55-1.11c-1.13,2.27.6-13.68.44-13.66.7-.07.99-.55,1.14-.65.27-.18.24-.48-.06-.58-.54-.18-.65.31-1.03.48l-2.37,1.06c-.7.31-.93,2.32-.79,3.04.27,1.4-1.12,2.22-1.38,3.01-.91,2.76.02,5.8-.57,8.65-1.26.39-2.33.3-3.37.8.11,1.69-.36,3.35-.41,4.61l-4.83.04c-.47,1.76-.29,3.33-.97,5.03-1.08.07-2-.59-3.31-.23l-.16,21.42c-.02,3.28-.65,6.35-1.01,9.53-5.89,1.05-1.12,5.5-7.46,10.41l-1.06,8.64c-1.3,1.16-3.34-.67-4.05-1.78s-2.68-1.19-2.23-3.17l-4.64-.89-4.43-1.51c.26-3.97-4.41-4.45-6.89-4.63-.64-.05-1.2-.19-1.76.18-.67.45-.35,1.21-.58,1.98-.32,1.04-1.54.47-2.08.16-.58-.34-.78-.89-.77-1.81l.14-7.23c.62-.65,2.3-.61,3.34-.6l.57-4,4.24-.4c-.38-3.02,1.29-9.36-.9-8.94-1.23-.51,2.53-.49,1.22-.96.96.35,3.28.73,3.85-.48.51-1.09.9-3.34-.49-3.75.53-.4.85-1.07.93-1.62.23.77.38,1.32,1.11,1.09.61-.2,1.34.23,2.14-.09,1.58-.64,1.35-3.25.38-4.36.28-.14.76-.03.62-.51,1.08.36,3.4.63,4.31-.13.72-2.08.06-4.2.24-6.33l4.86-.49c-.05-4.5.34-8.86-.27-13.08.23,0,.42-.12.61-.14,1.35-.14,2.71.15,4.12-.51.21-1.96.47-3.95-.17-5.66.21-.03.4-.1.6-.14,1.18-.22,2.4-.06,4.22-.16.72-2.01.27-4,.38-5.89,1.43-.1,2.97.17,4.49-.42l.51-8.23c1.1-.31,3.23.37,3.82-.61,1.05-1.74.11-3.91.63-5.59.38-1.25,2.81-1.42,4.02-1.08Z"/>
          <path class="cls-41" d="M223.29,203.58c.31-.18.35.13.49.24.32.25.25.44.12.71-.6,1.24-.8,2.82-.8,4.62l-.04,41.96-6.02-.26c.38-1.36-.62-9.67-.95-10.53-.43-1.11-2.39.71-3.42-.91-.28-.44-.56-1.57.3-1.78l3.18-.77-.11-10.57c-.78.02-1.03.4-1.29.09.69-1.46,1.22-10.33.6-12.7,1.37,1.62,1.74-9.81,1.68-9.62.44-.3.28-1.13.94-1.19l.28.94c1.71.37,3.53.43,5.04-.23Z"/>
          <path class="cls-92" d="M68.7,167.69c.15,1.04-1.2-.32-1.13.9-2.75,1.14.47,4.7-2.79,4.79l-2.14,10.61c-1.86.49-2.84,1.82-3.1,3.52-2.99,1.34-1.82-.26-5.5.38l-.34-3.6c-.12-1.29-2.53-.39-3.26.31-3.66-.98-.18-6.5-2.26-6.3.06-.7.71-.56,1.15-.57l5.16-.12c-1.23-3.09,2.32-3.78,2.98-5.22,1.99-4.33,1.16-10.36,1.31-15-.07-.81-.65-1.39.32-1.3.32,1.5,2.75.32,4.05.86,1.22,1.02.38,3.72.69,5.37,1.09.93,2.57.58,3.85,1.14l-.08,3.98c0,.27.91-.04,1.1.25Z"/>
          <path class="cls-23" d="M191.84,156.07c5.87-1.86,2.14,6.28,4.36,11.04.68.37,2.52-.28,2.85.45s.25,3.66.84,4.74c.44.81,1.99.11,2.85.39,1.4,1.53.19,4.01.92,5.88.33.83,1.89.48,2.88.63.41,5.84,1.04,11.59.32,17.42-1.92.4-3.58.23-5.2.83-.75.28-1.18,2.86-.38,2.87l12.16.22c.41,1.4.24,2.49.06,3.51-5.76-.06-11.6.82-17.59-.09l-.29-3.27c-1.91-.85-4.12.37-5.54-1.13-.33-.6.4-1.15.12-1.74.61.12.44-.57.69-1.16,1.85-.13,4.58-.55,6,.6.41.39-.33,2.17.31,2.66.36.27.94.69,1.64.28.85-.5.54-1.97.8-2.67.41-1.12,3.46-.42,3.44-7.75-.01-3.39,1.02-13.37-3.42-11.71-.67-1.56-.06-3.32-1.01-4.8-.62-.96-2.77-.46-2.96-1.61-.22-1.31.28-2.16-.22-3.39-.3-.73-1.68-.73-2.6-1.1-.79.15-3.24-12.58-1.03-11.08Z"/>
          <path class="cls-161" d="M199.32,427.56c-.33,2.13,1.66,5.18.62,7.52,1.52,1.24-11.94-.57-9.97,1.56-.72-.02-.25-.63-.38-1.24l-21.19.05c.16-1.12-.44-3.25,1.1-3.8.97-.35,2.17.35,2.24-.97.03-.55.29-1.33-.32-1.88l27.89-1.25Z"/>
          <path class="cls-126" d="M191.84,156.07c-2.21-1.5.24,11.23,1.03,11.08.93.37,2.31.37,2.6,1.1.5,1.24,0,2.08.22,3.39.19,1.14,2.35.64,2.96,1.61.96,1.48.34,3.24,1.01,4.8,4.44-1.66,3.41,8.31,3.42,11.71-3.07.06.94-1.12-3.18-3.56-.62-.37-.07-2.09-1.11-2.21-1.61-.19-1.61-1.85-2.47-2.66-1.42-1.34-2.89-2.32-2.63-4.72-2.29.14-1.54-1.86-2.11-2.47-1.1-1.18-2.13-1.89-2.21-3.64-.05-.91-1.66-1.67-.85-3.09-3.71-3.78-1.84-6.74-3.67-10.69-.89-2.58,5.56-.68,5.73-1.48l.19-.87c.56.35.54,1.24,1.06,1.69Z"/>
          <path class="cls-123" d="M57.73,429c1.25,1.91.64,4.36.18,6.49-2.66-.2-5.43.46-8.09.12-4.87-.63-10.24.8-14.79-.73l.17-7.35c1.3-.14,2.64.15,4.1.37,6.2.96,12.55-.37,18.44,1.09Z"/>
          <path class="cls-17" d="M59.08,156.1c-.96-.09-.38.49-.32,1.3-.15,4.64.69,10.67-1.31,15-.66,1.44-4.21,2.13-2.98,5.22l-5.16.12.03-4.56c1.23-.98.59-2.75,1.22-4.37.73-1.88-.82-3.88.51-5.8,1.14-1.64-.56-4.32.52-6.15.69-1.17,2.57-1.12,2.78-2.38,2.31.97,4.35,0,4.69,1.63Z"/>
          <path class="cls-11" d="M39.69,233.69c.61,4.21.22,8.58.27,13.08l-4.86.49c-.18,2.13.48,4.25-.24,6.33-.91.76-3.23.49-4.31.13.16-2.08-.41-4.34.38-6.55.43-.6,1.52-.51,1.32-1.3-.15-.62-.31-1.88.06-2.27l3.18-.85.3-8.76c1.54-.42,2.75-.33,3.91-.32Z"/>
          <path class="cls-7" d="M57.85,205.17c.16.47.66.89,1.05,1.16-.52,1.69.42,3.85-.63,5.59-.59.98-2.72.3-3.82.61l-.51,8.23c-1.52.59-3.05.32-4.49.42l.49-8.45c1.56-.29,3.03.07,4.48-.59.28-2.2-.41-4.37.28-6.22.42-1.13,2.33-.56,3.15-.74Z"/>
          <path class="cls-30" d="M44.25,227.37c.64,1.71.38,3.7.17,5.66-1.41.66-2.77.38-4.12.51-.05-1.87-.22-3.81.07-5.96,1.49-.4,2.69-.05,3.88-.22Z"/>
          <path class="cls-142" d="M49.45,221.18c-.11,1.89.34,3.88-.38,5.89-1.82.09-3.04-.07-4.22.16l.18-5.75,4.42-.3Z"/>
          <path class="cls-42" d="M223.44,201.28c-.26.73-.03,1.5-.15,2.3-1.52.67-3.34.6-5.04.23l-.28-.94c-.35-.67.02-1.64.41-2.24s6.26-.86,5.06.65Z"/>
          <path class="cls-75" d="M217.02,204.05c.06-.19-.31,11.24-1.68,9.62l-1.23-1.12c.06-.81.3-1.54.44-2.32l1.17-6.17c.43,0,.88-.31,1.29-.01Z"/>
          <path class="cls-144" d="M29.92,254.22c.97,1.1,1.19,3.72-.38,4.36-.79.32-1.52-.11-2.14.09-.72.23-.87-.32-1.11-1.09-.03-.69-.3-1.94.24-2.83.79-.84,2.44-.04,3.38-.53Z"/>
          <path class="cls-170" d="M25.37,259.2c1.39.41,1,2.66.49,3.75-.57,1.21-2.88.82-3.85.48.37-1.1-.24-2.81.66-3.89.6-.72,2.16-.51,2.7-.33Z"/>
          <path class="cls-28" d="M146.87,307.28c.45,1.51.75,5.04,2.62,5.15l14.54.91c.14,2.16-.74,5.12.71,6.66.46.5,1.86.87,2.58,1.46,1.25,1.02,3.53.16,5.07.89.67,1.91-.37,4.38.52,6.44.53,1.22,1.85,2.15,1.61,4.11-.18,1.43.85,2.39,1.33,3.48.92,2.05-.14,4.51.64,6.68l.95.56c.71.42.04,8.14.59,10.78.21,1.01.91,1.57.89,3.04l-.84,48.83-.82,11.53c-.13,1.84-1.38,2.22-2.22,3.11-1.47,1.57-2.03,2.59-4.25,3-1.58.29-3.15,1.51-5.17,1.17-.53,1.39-1.07,2.45-1.24,3.58-3.12-.1-20.05.84-20.65-1.06l-.59-2.67c-.11-.48-1.15-.7-1.44-.41.53-.65-1.09-.25-1.14-.56-1.12-5.89-.91-11.95-.88-18.47l-7.71.44-.45-50.85.04-47.94c5.06-.79,10.23.37,15.29.12Z"/>
          <path class="cls-93" d="M96.89,312.93c.09,1.53,0,3.07,0,4.6-2.02.07-4.26-.57-6.41.27-.85.34-.67,2.4-.67,3.37l-.12,68.68-.35,38.1c-1.59.3-2.8.5-4,.51.02-1.04-.15-2.09.78-3.29-1.65-.89-2.98-.25-4.56-.76-.27-1.02.12-1.94-.88-2.69-1.05.82-4.01,1.82-4.12.5l-.71-8.44c-5.11,2.14-.97-3.04-8.06-2.99-.95-4.84,1.56-8.96-3.99-10.41.74-2.58-1.53-2.55-2.29-3.68-4.35-6.52-2.21.33-3.33-8.17-2.01-.43-3.72,0-5.72-.64.4-7.72-.78-14.9.28-21.87l.99-6.5,1.55-1.12c-.14.1,1.13-14.03,1.3-15.75.25-2.58.07-4.26,1.69-6.41.57-.76-.69-3.23,1.33-3.32.68-.03,1.64,0,2.2-.37,1.45-.94-.68-4.01,1.13-4.33,1.28-.22,3.43.03,4.22-.93l.87-10.89c1-.27,2.33-.26,2.75-.82.33-.45.16-2.54.74-2.55,8.88-.25,17.14-.37,25.37-.1Z"/>
          <path class="cls-162" d="M61.35,306.76c-8.24.38,11.93.03,3.9.38,11.97-.52,18.97,0,30.23-.03,2.44-.17,1.3,3.9,1.42,5.82-8.24-.27-16.49-.15-25.37.1-.58.02-.41,2.11-.74,2.55-.41.56-1.75.56-2.75.82l-.87,10.89c-.79.95-2.94.71-4.22.93-1.81.31.32,3.38-1.13,4.33-.56.37-1.52.34-2.2.37-2.02.08-.76,2.56-1.33,3.32-1.62,2.15-1.44,3.83-1.69,6.41-.17,1.72-1.43,15.85-1.3,15.75l-1.55,1.12-.99,6.5c-1.06,6.96.12,14.15-.28,21.87,2,.65,3.71.22,5.72.64,1.12,8.5-1.01,1.65,3.33,8.17.75,1.13,3.02,1.1,2.29,3.68,5.55,1.46,3.03,5.58,3.99,10.41,7.08-.05,2.95,5.13,8.06,2.99l.71,8.44c.11,1.32,3.07.32,4.12-.5,1,.75.6,1.67.88,2.69,1.58.51,2.91-.14,4.56.76-.93,1.21-.76,2.25-.78,3.29-7.07.1-14.14-.3-21.19.16-2.06.13-4.67-1.14-6.42.37-5.89-1.46-12.24-.13-18.44-1.09-1.46-.23-2.8-.52-4.1-.37.04-1.86-.04-3.47.61-5.47,1.02-3.16-.21-6.98.64-10.28.3-1.19.33-2.33.5-3.71.13-1.08,1.76-1.13,2.7-1.36l.36-16.82c.02-.8,1.06-9.08,1.31-9.33.26-.27,1.47.24,1.51-.11l.63-4.98c.07-.53,1.55-.44,1.57-1.11.14-6.37.47-12.54.23-19.17,1.37-.19,2.8.23,3.84-.45l.51-17.59,3.44-.61.26-6.56c.02-.55,1.04-.74,1.08-1.15l.13-8.16c.86-.73,2.02-.23,2.84-.75.75-1.78-.39-4.1.36-5.51,2.85-5.39.19.32,1.44-6.98.18-1.04,1.58-.57,2.19-.68Z"/>
          <path class="cls-95" d="M173.48,306.55c.72-.13,2.51-.02,2.89.65l.2,5.03c.62.42,1.25.48,1.98.83.39,2.08-.2,4.18.6,6.06,1.92,4.48-.88,8.21,2.86,9.84,1.28,3.93.26,8.27.62,12.68.89.89,2.25.18,3.76.8.78,3.37-.96,18.97,1.56,18.75l-.16,13.44,4.02.44.19,12.86c1.02.37,1.79.15,2.66.57.15,3.42.48,6.96.14,10.45-.19,1.92,1.43,2.07,1.85,3.11,1.29,3.14-.07,7.25,1.07,10.58.34.98,1.39,1.36,1.3,2.93-.25,4.24.89,8.12.29,11.99l-27.89,1.25c-2.49.11-4.72-.05-7.03-.13.17-1.13.71-2.19,1.24-3.58,2.03.34,3.6-.88,5.17-1.17,2.22-.41,2.77-1.43,4.25-3,.84-.9,2.09-1.27,2.22-3.11l.82-11.53.84-48.83c.03-1.47-.67-2.03-.89-3.04-.55-2.64.12-10.36-.59-10.78l-.95-.56c-.78-2.16.28-4.62-.64-6.68-.49-1.09-1.52-2.05-1.33-3.48.25-1.96-1.08-2.88-1.61-4.11-.89-2.06.15-4.54-.52-6.44-1.54-.73-3.83.13-5.07-.89-.73-.59-2.12-.96-2.58-1.46-1.45-1.55-.57-4.5-.71-6.66l-14.54-.91c-1.87-.12-2.17-3.65-2.62-5.15,7.49-.38,20.77.32,26.61-.73Z"/>
          <path class="cls-29" d="M121.68,320.7c.56.13,1.13.19,1.13.41s.58.64.58,1.07l-.2,35.35-.72,70.58c-3.4.23-6.21.47-9.4.06-.55-1.39.18-3.01-.87-4.02-.63-.26-1.4-.3-1.68-.89-.11-.23.51-.59-.03-1.02-3.58-2.84-2.88-6.76-5.54-7.17l-.47-58.75c0-.76.09-1.49.52-1.69s1.04.07,1.45-.25c.59.25,1.39.07,1.84-.1,1.11-.41-.14-3.18,1.4-3.29l6.71-.49-.2-29.59c2.25-.3,3.92-.59,5.47-.22Z"/>
          <path class="cls-78" d="M96.89,317.53l-.12,117.96-32.57.03c.1-2.29.88-4.74-.03-6.89,7.05-.46,14.12-.06,21.19-.16,1.2-.02,2.41-.22,4-.51l.35-38.1.12-68.68c0-.98-.19-3.04.67-3.37,2.14-.84,4.38-.2,6.41-.27Z"/>
          <path class="cls-148" d="M131.41,284.09c-1.88-.04-5.7,1-6.1-.37l-.71-2.42c-.09-.3-1.54-.24-1.73-.75-.5-1.35-1.27-2.09-2.89-2.07l-22.25.16c-.48-3.05-.04-6.16-.11-9.23-.05-2.42.43-4.74.9-7.11,1.12,1.06,3.41,1.37,5.03.38,1.05-.65.66-3.68-.57-3.92.03-1.11.93-1.88,1.65-2.64,1.95-2.05,5.46,2.05,9.29,2.37.33.03.15,2.13,1.03,1.8,1.85-.7,3.62.24,5.06,1.19l2.85.23c.7.06.84-1.58.78-2.11-.12-1.05-4.33-1.37-4.21-.24-.41.26-.64-.51-1.4-.61-.52-.07-.07-.93.3-1.13.91-.49.64-1.51.66-2.4,1.37-3.16,4.94.21,5.15-2.45.05-.65-.15-1.4-.79-1.51,1.25-4.51,4.23-8.7,7.76-11.77l.27,44.59Z"/>
          <path class="cls-167" d="M59.61,242.19c.97,2.72-.17,5.59-.22,8.64l-.59,37.54c-.01.86-.41,1.48-.74,1.74s-2.01-.29-2.08.29l-.95,7.74c-2.47.96-1.18,7.29-6.88,6.27-1.89-.34-4.09.68-5.59-.6l-5.6-4.8c-2.89-2.48-6.57-3.62-10.21-4.31-.24-1.29-.62-3.5-1.94-3.94-2.12-.71-4.27-.11-6.22-.99-.39-1.57-.06-3.18-.02-4.73,2.47.18,7.15.67,6.89,4.63l4.43,1.51,4.64.89c-.45,1.97,1.48,2,2.23,3.17s2.75,2.94,4.05,1.78l1.06-8.64c6.34-4.91,1.57-9.37,7.46-10.41.36-3.17.98-6.24,1.01-9.53l.16-21.42c1.31-.36,2.23.3,3.31.23.68-1.7.5-3.28.97-5.03l4.83-.04Z"/>
          <path class="cls-124" d="M178.01,231.64c-.75.63,1.5,7.7,3.37,7.77l.66,3.09,21.18-.18c2.06-.02,4.17-.36,5.92-1.12.37-1.67-.7-2.44-.76-3.6.29.04,1.09.14,1.4-.27l1.46-6.78c1.04.4,2.37.86,3.05-.19.88-1.37-.01-2.99.46-3.99.27.31.51-.08,1.29-.09l.11,10.57-3.18.77c-.86.21-.57,1.34-.3,1.78,1.03,1.63,2.98-.2,3.42.91.34.86,1.34,9.18.95,10.53-1.81-.08-3.99.56-5.6-1.15l-11.91-.31c-.57-.19-.75-1.92-2.01-1.96l-18.79-.59c-8.06-.25-3.32-6.4-10.23-4.64-.57-1.47-.07-3-.05-4.5.92-1.18,2.53.05,3.93-.66.86-3.14-.37-9.98.65-10.91l2.15-.52c1.46-3.03,3.95-5.15,6.49-7.4.8-.71.53-2.54,1.27-2.84,1.01-.42,1.98-.45,3.2-.29-.8,2.58-2.4,4.46-4.67,6.07-.47.33-.26,1.65-.9,1.97-3.21,1.62-5.42,6.18-2.56,8.53Z"/>
          <path class="cls-106" d="M141.72,424.54c-.42.21-1.18,0-1.25.43-.06.38-.22.92-.09,1.55.28,1.39,2.37,1.7,3.38,1.11.6,1.9,17.53.96,20.65,1.06,2.31.08,4.54.24,7.03.13.61.55.35,1.33.32,1.88-.07,1.31-1.26.62-2.24.97-1.54.56-.94,2.68-1.1,3.8l-36.56.16.13-29.66,7.71-.44c-.03,6.52-.24,12.57.88,18.47.06.31,1.67-.09,1.14.56Z"/>
          <path class="cls-60" d="M138.39,284.24l-.29-1.48c1.46-1.51,2.31-3.09,3.55-4.54.4-.47,2.21.48,2.6-.3.92-1.87,3.17-3.54,4.9-2.27-.3,1.12-1.69,1.7-1.1,2.98,8.67-1.01,9.21,2.15,14.87-3.41l1.19-15.42c.1-1.27,2.66-.86,3.86-1.01l1.02-12c1.16.19,2.31-.23,3.97.23l-.19,36.68c-11.71.89-23.05.79-34.38.54Z"/>
          <path class="cls-81" d="M130.86,304.42c.05.53-.03,1.06-.03,1.59l-.06,51.59c-3.14.1-5.36.46-7.58-.06l.2-35.35c0-.43-.57-.84-.58-1.07s-.57-.28-1.13-.41c1.53-2.67.16-7.27,1.87-8.85.39-.36,1.6.21,1.78-.65.37-1.79-.48-1.5-.75-3.24.25-.46.9-1.01,1.66-1.37.24-1.36-.61-3.68.59-4.47,1.12-.75,2.81-.02,3.92-.26.18.99.05,1.76.11,2.56Z"/>
          <path class="cls-3" d="M67.45,236.55l.45,22.16c2.13,2.13,1.52,5.88,3.09,6.82.61.36.82,2.12.58,2.89-.52,1.72,1.13,2.86,1.34,3.94.36,1.92,1.26,2.06,2.36,3.2.7.72.17,2.85,1.93,2.99,2.18.17,3.97.26,5.68-.31.9-.3,1.61.05,2.46-1.63,1,1.26,1.54,2.27,2.75,2.17.46,2.93,1.12-.79,1.8,5.13-2.44.78-18.26.31-22.32,0-1.14-.08-2.49.54-2.86-.84-.28-1.06,2.64-3.61.78-8.48-.22-.57-1.36-.57-.92-1.02.18-.18.69-.69.67-1.07-.39-9.48-.72-18.54-.26-28.05-.07,1.49,1.17-7.75,1.25-7.83.24-.24.8-.07,1.23-.06Z"/>
          <path class="cls-153" d="M173.48,306.55c-5.83,1.05-19.12.35-26.61.73-5.07.26-10.24-.9-15.29-.12,0-.45-.1-1.31-.75-1.16,0-.53.08-1.06.03-1.59.98-.14.45-1.3.53-2.61l12.59-.28,29.1.3c.58,1.9-.45,3.41.4,4.71Z"/>
          <path class="cls-49" d="M124.58,307.96c.27,1.74,1.12,1.45.75,3.24-.18.86-1.39.29-1.78.65-1.71,1.58-.34,6.18-1.87,8.85-1.55-.37-3.22-.08-5.47.22l.2,29.59-6.71.49c-1.54.11-.29,2.89-1.4,3.29-.45.17-1.26.35-1.84.1.82-1.86-1.29.63-1.87-1.27-.09-.3.77-9.07.7-5.9-.33,1.07,7.61.09,8.19-.36.93-1.45.85-4.2.63-5.97-.61-5.04.88-10.04-.96-14.3-.27-.62-.13-1.72.18-2.4.95-2.12,2.9,4.11,3.5-13.63,1.7-.56,3.67-.54,5.37-.64.96-.6,1.42-1.71,2.39-1.97Z"/>
          <path class="cls-71" d="M95.48,307.11c-11.26.03-18.25-.49-30.23.03,8.02-.35-12.14,0-3.9-.38.89-1.39.32-3.04.64-5.19l32.83.13c.98,1.76.61,3.67.66,5.42Z"/>
          <path class="cls-177" d="M113.14,326.59c1.84,4.26.35,9.26.96,14.3.22,1.77.3,4.52-.63,5.97-.58.45-8.53,1.44-8.19.36l.5-21.3c2.52.99,5.03,1.14,7.36.67Z"/>
          <path class="cls-9" d="M64.16,428.63c.92,2.14.13,4.6.03,6.89-2.1,0-4.15.14-6.28-.02.46-2.14,1.08-4.59-.18-6.49,1.75-1.51,4.37-.24,6.42-.37Z"/>
          <path class="cls-53" d="M40.45,318.66c-1.28-.51-3,.41-4.22-.52-.29-.55.04-2.29-.95-1.98.5-1.17-.13-2.8.74-3.99.46-.62,2.2-.26,2.31-1.53.05-.59.25-.88.43-1.03,2.29-1.9,1.73,8.12,1.68,9.05Z"/>
          <path class="cls-97" d="M172.95,199.33c.17.54-6.35,5.95-6.27,5.86-1.03,1.09-1.45,2.91-3.5,3.36-2.3.51-4.06,2.05-6.1,3.32-2.8,1.75-6.02,2.76-8.91,4.24-1.83.93-2.09,2.13-2.94,3.7-.63,1.16-2.62,2.87-4.11,3.19-2.02.42-.61,2.93-1.57,3.85-1.06,1.03-2.74,1.4-2.38,3.46.19,1.1-1.95,5.57-2.12,5.58l-2.43.1c-1.27.05-1.49,2.4-1.48,3.51-3.53,3.07-6.51,7.25-7.76,11.77-1.84-.19-3.73-.15-5.52-.64.93-1.37,2.56-2.47,3.38-4.17.3-.62.29-1.49,1.22-2.31,3.17-2.8,1.81-6.16,5.78-7.52.98-.34.61-2.5,1.3-2.98,6.51-4.56,5.35-4.38,6.77-11.66l3.41-.55c.67-2.13.03-4.45,1-6.46.59-.71,2.86-.11,3.3-1.31.42-1.13-.49-3.51.73-4.23,3.8-1.96,7.96-3.3,11.67-5.46l5.44-3.18c3.19-1.86,7.58-1.97,11.1-1.46Z"/>
          <path class="cls-113" d="M208.38,237.6c.06,1.16,1.13,1.93.76,3.6-1.75.75-3.86,1.1-5.92,1.12l-21.18.18-.66-3.09c-1.87-.07-4.12-7.15-3.37-7.77l21.82-.45c.91-.02,1.84.2,2.26.53.56.44,0,1.41.2,1.96l1.28,3.66c.5,1.44,3.62.1,4.8.26Z"/>
          <path class="cls-105" d="M173.02,226.13c-1.01.93.21,7.77-.65,10.91-1.39.71-3-.52-3.93.66.06-5.13.04-10.38-.19-15.95.06,1.51,1.08-6.21,1.59-6.34.36-.09.77.13,1.12.57.2.25.1.53-.08,1.1-.71,2.14.54,3.37.95,5.08.12.52-.75,1.71-.42,2.63.21.6.79.79,1.61,1.35Z"/>
          <path class="cls-48" d="M214.55,210.24c-.15.77-.38,1.51-.44,2.32-.09,1.14-.65,1.26-1.48,1.33-1.52.13-1.54-1.06-1.4-2.59.15-1.66,2.14-1.18,3.33-1.06Z"/>
          <path class="cls-59" d="M108.13,242.73c-.73-.08-1.49.03-2.33-.28-.54-.2-.3-1.8-.9-1.99-1.76-.55-1.6-2.1-2.43-3.05-.63-.72-2.89.32-3.63-.77-1.85-3.73-.46-5.73-.84-7.52-.25-1.21-1.81-.95-2.56-1.64-1.92-1.75-1.38-4.53-1.18-4.37-2.11-1.68-5.42.21-6.51-1.62-.9-1.51.25-3.68-.28-5.42-9.81-1.61-5.29-2.95-7.37-3.5-10.22-2.67-3.97-.69-12.91-7.07-1.23-.11-2.9.11-4.27-.27-.23-1.19-.72-3.33.22-4.33,2.09-.7,5.48-1.14,7.37.13.83.56.36,2.18,2.07,2.23,3.34.1,13.58,3.11,17.53,4.38l1,10.5c6.82,2.19,1.96,3.19,7.64,3.52.16,10.69,1.27,1.59,1.73,7.97,6.02,2.32-2.47,2.66,8.07,5.34.45,2.63-.13,5.37-.42,7.75Z"/>
          <path class="cls-104" d="M109.15,246.21c.55,1.35,1.46,2.35,1.04,3.94-9.65.24-5.74.81-7.47,2.61-.98,1.02-1.88,1.82-1.58,3.12-.84.43-.94,1.83-1.68,2.35-1.36.95-.66,2.68-.94,4.08-.46,2.37-.95,4.69-.9,7.11-.4-.3-.82.16-1.51-.04-.41-3.71.48-7.22.74-10.88l1.51-20.84c.82.18.65,1.4.5,2.5l5.1,2.64c1.23.64.59,2.98,2.1,3.44,1.09.33,2.07,1.04,3.08-.03Z"/>
          <path class="cls-130" d="M77.7,265.65c-5.09.26,4.77,10.59,5.17,12.59-1.71.57-3.5.49-5.68.31-1.76-.14-1.23-2.27-1.93-2.99-1.1-1.14-2-1.28-2.36-3.2-.2-1.09-1.85-2.22-1.34-3.94.23-.77.03-2.54-.58-2.89,1.97-1.05,2.35-2.21,4.28-1.95,1.43.19,1.76,1.28,2.43,2.07Z"/>
          <path class="cls-70" d="M77.7,265.65c.66.77,1.39,1.33,1.54,2.64.11,1.03,2.08.27,2.63.84.97.99,2.02,2.26,3.05,2.84.05,2.53,1.44,5.11,3.16,6.8-1.2.09-1.74-.91-2.75-2.17-.85,1.68-1.56,1.33-2.46,1.63-.4-2-10.26-12.33-5.17-12.59Z"/>
          <path class="cls-175" d="M108.13,242.73c1.5.4.54,2.3,1.02,3.48-1.01,1.07-1.98.36-3.08.03-1.51-.46-.87-2.8-2.1-3.44l-5.1-2.64c.15-1.11.32-2.32-.5-2.5.03-.35,0-.93.46-1.02.74,1.08,3,.05,3.63.77.83.94.67,2.5,2.43,3.05.6.19.36,1.79.9,1.99.84.31,1.6.2,2.33.28Z"/>
          <path class="cls-12" d="M170.27,167.58c.58,1.2.39,3.43.48,4.59.05.68-.79,2.01.62,2.23-.12.86-.09,1.87-.68,3.02,1,1.39,2.43.87,4,1.64l-1.6,6.67c-.5,2.07-3.26,1.59-4.53,2.94s-.71,3.78-1.17,5.15c-1.23-.02-7.62,2.1-7.24,1.82-3.48,2.61-6.62,3.15-10,4.89-1.7.88-2.34,3.53-4.94,3.22-.26-5.12.83-8.15.77-13.11,1.69.68,1.36-1.36,2.11-1.81,5.44-3.3,11.81-5.02,13.39-9.37.43-1.18,1.94-1.17,3-1.59,1.5-.6,1.26-2.56,1.69-3.52.85-1.89,1.02-3.88.7-6.17l3.4-.61Z"/>
          <path class="cls-46" d="M73.28,167.69c-.54,1.63-.02,3.86.2,5.55,5.29-.25.63.27,3.74,5.26,1.03,1.65.66,4.04,2.66,5.29,1,.63,2.23.54,2.99,1.54-1.06.79-1.08,2.62-1.38,3.8-.59.91-8.58-1.53-8.36-4.43-5.34-1.59-3.82.68-5.02-1.98-.13-.28-.43-.75-.91-.47-.27-.9.24-1.7.25-2.73l.14-10.94c-.07-1.22,1.28.14,1.13-.9,1.14-.05,2.86.71,3.66-.57.29.24.59.4.92.57Z"/>
          <path class="cls-63" d="M175.36,157.87c-.12,3.9.92,8.8-2.57,12.55-.23.25.1,1.56-.63,1.6-.43.03-1.01.85-1.41.14-.09-1.16.1-3.39-.48-4.59.82-2.91.58-6.17.6-9.25,1.43-.63,2.96-.4,4.5-.45Z"/>
          <path class="cls-110" d="M118.84,241.71c-.7,1.76-.51-8.46.44-8.84,3.85-1.57,3.13-6.58,4.79-10.79.3-.89,2.48-1.23,2.71-2.83.44-2.97,3.29-4.56,4.55-6.79,1.56-2.77-.37-6.57.89-9.45.83-.83,2.3-.3,3.49-.91l.58-24.82c.03-1.48.38-2.86.24-4.04.59.22,3.73-.39,3.73,1l-.02,40.15c-2.95.67-5.33-.03-7.9-.17l-.63,14.01-6.33.1-.95,9.59-5.31-.08-.27,3.9Z"/>
          <path class="cls-176" d="M184.87,156.73c1.83,3.95-.04,6.91,3.67,10.69-.81,1.42.8,2.18.85,3.09.09,1.75,1.12,2.46,2.21,3.64.57.61-.18,2.61,2.11,2.47-.27,2.4,1.21,3.38,2.63,4.72.86.81.86,2.47,2.47,2.66,1.04.12.49,1.84,1.11,2.21,4.12,2.44.11,3.63,3.18,3.56.03,7.33-3.02,6.63-3.44,7.75-.26.7.05,2.17-.8,2.67-.69.41-1.28,0-1.64-.28-.64-.48.1-2.26-.31-2.66-1.42-1.15-4.14-.73-6-.6-.25.6-.09,1.29-.69,1.16-.07-.15-.18-.43-.03-.58.25-.24-.03-.39-.06-.62-.63-4.93,2.21-16.21-3-17.42-.66-1.53-.09-3.83-1.38-4.89-1.19-.98-3.23-.47-4.71-.96l-.03,1.71c-2.19,1.17-.33-5.28-2.05-5.86.22-1.08.57-2.54.29-3.87-.33-1.56.76-1.88,1.19-2.78.78-1.62.13-3.74,1.1-5.32l3.33-.48Z"/>
          <path class="cls-4" d="M82.86,185.33c.96,1.25,3.38,1.45,4.03,3.24,1.06,2.91-.44,6.33.79,9.04,1.03,2.27,2.62,4.66,1.54,7.63-5.32-3.86-10.84-5.99-17.04-7.22-1.15-.23-2.15-2.81-4.37-1.42-.1-3.99-5.13-1.43-7.5-3.6-1.39-1.28-1-4.06-.78-5.5.5-.22,7.35-3.59,6.94-3.21.45-.42.91-1.35.7-2.04.49-.28.79.19.91.47,1.2,2.66-.32.4,5.02,1.98-.22,2.9,7.78,5.34,8.36,4.43.31-1.18.33-3.01,1.38-3.8Z"/>
          <path class="cls-3" d="M184.53,186.41c2.86,1.36.88,2.64,1.59,7.37.13.89-.44,1.43-.98,1.66-1.29.54-2.14-2.22-7.14-1.74-2.88.28-8,.17-10.61.12.47-1.38-.1-3.8,1.17-5.15s4.03-.86,4.53-2.94l1.6-6.67c-1.57-.77-3.01-.25-4-1.64.59-1.15.56-2.16.68-3.02.22-1.9,6.02.08,6.38-1.72.82-1.24-.85,7.32-1.22,6.56.15.31.81.47.89.85.38,1.79-.16,4.27,1.15,5.46.87.79,6.75,1.72,5.95.86Z"/>
          <path class="cls-158" d="M136.57,167.74c-.23.48-.59.87-.48,1.43-.97-.36-2.26.76-3.41-.06-.77-.55-.12-1.85-1-2.82l-29.68.09c-1.08,0-2.96,2.03-3.8,1.41-.21-.12-.71.27-.98-.06.77-1.29,1.37-2.58,1.51-4.55l36.92-.17.91,4.73Z"/>
          <path class="cls-102" d="M117.86,250.63c1.79.49,3.68.45,5.52.64.64.12.84.86.79,1.51-.22,2.65-3.78-.72-5.15,2.45-.87-.96-3.08-1.09-4.49-.48-.84.43.29,2.39,1.14,2.81s1.73.73,2.69.07c-.37.2-.82,1.06-.3,1.13.77.1.99.87,1.4.61-.51.89.88,1.24.58,2.12-1.45-.95-3.21-1.89-5.06-1.19-.88.33-.7-1.77-1.03-1.8-3.83-.32-7.34-4.42-9.29-2.37-.72.76-1.63,1.53-1.65,2.64-1.15-.22-2.43.11-3.52-.54.74-.52.84-1.92,1.68-2.35.14.34.07.9.58,1.05,1.39-.41,1.88-2.14,2.83-2.23,5.99-.58,8.69.05,8.66-2.54-.01-.69-.5-.8-1.22-.86.19-1.22,1.42-.13,2.42-.01,1.32.16,2.37-.95,3.46-.65Z"/>
          <path class="cls-83" d="M181.01,175.04c1.1,3.07,2.3,5.94,2.38,9.45.01.58,2.05,1.16,1.13,1.93.8.86-5.08-.07-5.95-.86-1.32-1.19-.78-3.68-1.15-5.46-.08-.38-.74-.54-.89-.85.37.75,2.04-7.8,1.22-6.56,0-.28.33-.73.01-1.01.31.28.51,0,.71-.13.39-.25.15-.6.26-1.15l.24-1.21c1.72.59-.15,7.03,2.05,5.86Z"/>
          <path class="cls-80" d="M110.19,250.15c.31.74,1.19.79,1.79,1.15.73.06,1.21.17,1.22.86.04,2.6-2.67,1.97-8.66,2.54-.94.09-1.44,1.82-2.83,2.23-.5-.15-.43-.71-.58-1.05-.3-1.3.6-2.1,1.58-3.12,1.72-1.8-2.18-2.37,7.47-2.61Z"/>
          <g>
            <path class="cls-33" d="M166.76,162.9c0,1.42.71,3.04-.11,4.51-.89,1.59-.38,3.35-.43,5.42-2.16.08-4.33-.09-6.48.77,2.25,1.57,4.41.42,6.43.76-.43.96-.19,2.92-1.69,3.52-1.06.42-2.57.41-3,1.59-1.58,4.35-7.95,6.07-13.39,9.37-.74.45-.41,2.49-2.11,1.81.06,4.96-1.03,7.99-.77,13.11,2.6.31,3.24-2.34,4.94-3.22,3.37-1.74,6.52-2.28,10-4.89-.38.28,6.01-1.84,7.24-1.82,2.62.04,7.73.15,10.61-.12,4.99-.48,5.85,2.28,7.14,1.74.54-.23,1.11-.77.98-1.66-.71-4.73,1.26-6-1.59-7.37.91-.77-1.12-1.35-1.13-1.93-.08-3.51-1.28-6.38-2.38-9.45l.03-1.71c1.48.49,3.52-.02,4.71.96,1.29,1.06.72,3.36,1.38,4.89,5.21,1.22,2.37,12.5,3,17.42-1.18.02-2.58-.17-3.78.17-.82.23-.84,1.11-.78,1.56.34,2.92-8.42-1.68-12.63,1-3.52-.5-7.91-.4-11.1,1.46l-5.44,3.18c-3.7,2.16-7.87,3.49-11.67,5.46-1.22.73-.31,3.1-.73,4.23-.44,1.2-2.71.6-3.3,1.31-.97,2-.33,4.32-1,6.46l-3.41.55c-1.42,7.29-.25,7.11-6.77,11.66-.68.48-.32,2.64-1.3,2.98-3.97,1.37-2.61,4.73-5.78,7.52-.93.82-.92,1.69-1.22,2.31-.82,1.7-2.45,2.8-3.38,4.17-1.09-.3-2.13.81-3.46.65-1-.12-2.23-1.21-2.42.01-.6-.36-1.48-.41-1.79-1.15.41-1.59-.5-2.59-1.04-3.94-.48-1.18.48-3.07-1.02-3.48.3-2.38.87-5.12.42-7.75-10.54-2.69-2.05-3.03-8.07-5.34-.46-6.37-1.57,2.72-1.73-7.97-5.69-.33-.82-1.33-7.64-3.52l-1-10.5c-3.94-1.28-14.18-4.28-17.53-4.38-1.71-.05-1.24-1.66-2.07-2.23-1.88-1.27-5.27-.83-7.37-.13-.94,1-.46,3.15-.22,4.33-1.22-.34-3.64-.17-4.02,1.08-.39-.27-.9-.69-1.05-1.16.33,0,.7.04,1.08-.1-.17-1.51-.4-2.86.19-4.33,1.06-.35,2.48.09,3.36-.68.61-.53,0-1.92-.12-2.52-.15-.71-2.22-.5-2.51-1.07-.88-1.71-1.11-2.5-3.25-2.82-1.08-.16-.54-3.03-.86-3.94-1.36-.18-3.56.51-4.49-.73s-.43-3.15-.82-4.38c.73-.71,3.14-1.6,3.26-.31l.34,3.6c3.68-.63,2.51.96,5.5-.38-.22,1.44-.61,4.23.78,5.5,2.37,2.17,7.39-.39,7.5,3.6,2.22-1.4,3.22,1.19,4.37,1.42,6.2,1.23,11.72,3.36,17.04,7.22,1.08-2.96-.51-5.36-1.54-7.63-1.23-2.72.27-6.14-.79-9.04-.65-1.79-3.07-1.99-4.03-3.24-.77-.99-1.99-.91-2.99-1.54-2-1.25-1.63-3.64-2.66-5.29-3.11-5,1.56-5.51-3.74-5.26-.22-1.69-.74-3.92-.2-5.55.85.43,2.12-.07,2.95.58.66.52,1.01,1.75,1.89,1.71-.36.41-.46,1.26-.15,1.77.29.46,1.13.61,1.6.81,2.54,1.13,5.53.72,8.49,1.12,2.06.27,3.15.12,4.86-1.1,1.02-.73,1.46-2.32,1.63-4.24,1.13-.19,1.96-.27,2.68-.61.27.33.77-.06.98.06-1.27,1.41.04,4.49-1.51,4.97-.82.25-1.6-.02-2.13.37-2.24,1.66-1.76,12.78-1.59,16.06.09,1.69-.87,2.66-1.09,3.92-.57,3.25-.02,6.35-.35,9.58l5.91.37.05,12.71c1.88.33,3.47-.12,5.83-.31l.52,12.59,6.89.24,1.28,9.45,1.18,9.7c1.49.4,3.12.38,4.8.18.3-2.18.71-4.01.84-5.92l.27-3.9,5.31.08.95-9.59,6.33-.1.63-14.01c2.58.14,4.95.84,7.9.17l.02-40.15c0-1.38-3.14-.77-3.73-1-.16-1.35-.17-2.73-.44-4.06-.11-.55.25-.95.48-1.43l3.41.33c.43,1.88-.24,3.49.48,5.3,4.99.22,9.85.63,14.44-.12,1.04-.17,2.72.33,3.92-.75,1.05-.95.23-3.1.53-4.37,1.13-.13,2.7.07,3.93-.54,1.15-.56.16-2.45.41-3.53.34-1.48,2.11-1.05,3.07-1.16Z"/>
            <path class="cls-27" d="M190.14,196.6c.03.23.31.38.06.62h-3.44s.04,2.25.04,2.25c-.94.2-.36-1.21-1.23-1.14-.05-.45-.04-1.33.78-1.56,1.2-.34,2.6-.15,3.78-.17Z"/>
            <path class="cls-119" d="M155.65,180.62c-.36.97-8.45,4.2-10.75,4.88-.33-2.61-.3-4.8-.28-7.45,3.82.15,7.09-.2,10.91.21,1.02.11.34,1.76.12,2.36Z"/>
            <path class="cls-139" d="M89.12,183.45c-2.44,1.35-9.63-2.53-8.47-5.34,3.21-.16,6.16-.31,9.34.06l-.87,5.28Z"/>
            <path class="cls-164" d="M79.57,172.56c-.47-.21-1.31-.35-1.6-.81-.31-.51-.21-1.36.15-1.77.37-.02,1.19-.46,1.38.48.17.86.1,1.53.07,2.11Z"/>
          </g>
          <path class="cls-56" d="M67.18,182.26c.21.69-.25,1.62-.7,2.04.41-.38-6.44,2.99-6.94,3.21.26-1.7,1.24-3.03,3.1-3.52l2.14-10.61c3.25-.09.04-3.64,2.79-4.79l-.14,10.94c-.01,1.02-.52,1.83-.25,2.73Z"/>
          <path class="cls-76" d="M177.48,137.82l.35,25.32c.04,2.87.36,5.88-.08,8.51.32.28,0,.73-.01,1.01-.36,1.81-6.15-.18-6.38,1.72-1.41-.22-.57-1.55-.62-2.23.41.71.98-.11,1.41-.14.73-.05.41-1.36.63-1.6,3.49-3.75,2.45-8.65,2.57-12.55.19-6.08.92-12.3.38-18.83-.05-.64.63-1.3.96-1.39.21-.06.48.14.78.16Z"/>
          <path class="cls-90" d="M141.72,424.54c.3-.29,1.34-.07,1.44.41l.59,2.67c-1,.59-3.09.28-3.38-1.11-.13-.63.03-1.17.09-1.55.07-.42.84-.22,1.25-.43Z"/>
          <path class="cls-51" d="M102.98,258.77c1.23.24,1.62,3.27.57,3.92-1.62.99-3.91.68-5.03-.38.27-1.4-.42-3.13.94-4.08,1.09.65,2.37.32,3.52.54Z"/>
          <path class="cls-73" d="M119.01,255.23c-.02.89.24,1.91-.66,2.4-.96.66-1.82.36-2.69-.07s-1.98-2.38-1.14-2.81c1.41-.61,3.62-.47,4.49.48Z"/>
          <path class="cls-37" d="M120.03,261.49c.3-.88-1.09-1.23-.58-2.12-.12-1.13,4.09-.81,4.21.24.06.53-.08,2.16-.78,2.11l-2.85-.23Z"/>
          <g>
            <path class="cls-13" d="M196.56,252.4l.44,12,1.1,4.16c-.19.3-.55.72-.51,1.1-.07-.73-1.59,4.28-3.18,3.99-1.2-.21-2.48-.31-3.19-1.1-.43-1.86-1.63-2.91-3.4-4.35-2.83-.45-5.59-1.6-7.51-3.99l-2.21-.77c-1.24-3.51-.59-7.4-.53-11.62,6.65.07,12.88.38,18.99.58Z"/>
            <path class="cls-112" d="M189.79,256.4c.55,1.38,1.28,5.9-.55,6.82-2.06,1.05.79-5.2.55-6.82Z"/>
          </g>
          <g>
            <path class="cls-134" d="M192.42,276.48c.19-.44-.23-.75-.63-.56-.96.1-1.33-.83-1.36-2.04-1.87-.41-5.47.13-4.98-2,1.54,1.3,3.99,1.22,5.77.66.72.78,2,.88,3.19,1.1,1.59.28,3.11-4.72,3.18-3.99.51.31,1.1.74,1.8.45.54-.23.53-1.04.73-1.59.27-.75.21-1.63.64-2.6,1.23-.12,2.7-.11,3.11-1.47.58-1.93-.58-4.49.59-5.97l2.07-2.62c.65.17,1.14-.54,1.32-1.07.29-.83-.04-2.01-1.15-2.04l-10.15-.33c-6.11-.2-12.34-.51-18.99-.58-.06,4.22-.71,8.11.53,11.62-.55,1.24-1.39,2.73-1.4,4.42l-.21,33.06c1.23.12.86,1.14,1.38,1.63.23.21.44.34.92.08.4.2,1.57.35,1.58,1.1l.15,7.52c.03,1.34,1.14,1.35,2.44,1.49l.33,15.42c1.18.56,2.18.47,3.45.75l.05,13.03c1.4.43,2.65-.09,3.9.57l.32,18.24c.77.46,1.56.3,2.65.71l.26,13.56c.88.33,2.1.11,2.28.81.77,3.57-.54,7.66.99,10.88,4.28,8.99-1.13,15.33,4.19,15.48.87,3.04.28,6.63.98,9.92.89,4.14,2.25,18.57,1.9,23.07-1.58.62-3.26.24-4.35-.09,1.04-2.34-.95-5.38-.62-7.52.6-3.87-.53-7.75-.29-11.99.09-1.57-.97-1.95-1.3-2.93-1.14-3.32.22-7.43-1.07-10.58-.43-1.04-2.04-1.19-1.85-3.11.34-3.49,0-7.03-.14-10.45-.87-.43-1.64-.2-2.66-.57l-.19-12.86-4.02-.44.16-13.44c-2.52.22-.78-15.37-1.56-18.75-1.51-.61-2.86.09-3.76-.8-.37-4.4.65-8.75-.62-12.68-3.75-1.63-.94-5.37-2.86-9.84-.81-1.88-.21-3.98-.6-6.06-.73-.35-1.36-.41-1.98-.83l-.2-5.03c-.38-.67-2.17-.78-2.89-.65-.85-1.31.18-2.81-.4-4.71l-29.1-.3-12.59.28c-.08,1.31.45,2.47-.53,2.61-.06-.8.07-1.57-.11-2.56-1.1.24-2.79-.49-3.92.26-1.2.8-.35,3.11-.59,4.47-.76.36-1.41.92-1.66,1.37-.98.26-1.43,1.36-2.39,1.97-1.71.1-3.68.07-5.37.64-.6,17.73-2.55,11.51-3.5,13.63-.31.69-.45,1.78-.18,2.4-2.33.47-4.83.31-7.36-.67l-.5,21.3c.08-3.18-.79,5.6-.7,5.9.58,1.89,2.68-.6,1.87,1.27-.41.31-1.03.05-1.45.25s-.52.93-.52,1.69l.47,58.75c2.66.41,1.95,4.33,5.54,7.17.55.43-.07.79.03,1.02.28.6,1.05.63,1.68.89,1.05,1,.32,2.63.87,4.02,3.19.4,6,.16,9.4-.06l.72-70.58c2.22.51,4.44.16,7.58.06l.06-51.59c.64-.15.75.71.75,1.16l-.04,47.94.45,50.85-.13,29.66,36.56-.16,21.19-.05c.13.61-.34,1.21.38,1.24l-.16,7.77-8.79.26-.27,11.59c-.65.42-1.73.23-1.98.84-.06,2.81-.4,5.37-.14,8,.87.56,2.28-.08,2.94.65.89,1.3-.01,2.96.63,4.2,1.02.39,2.28-.14,3.34.5.75.45.23,1.83.49,2.81l4.57.52.32,3.7c1.51.08,2.81-.15,4.21.36l.17,13.22-41.67-.09c-.82,0-.41-1.47-.53-1.88-.24-.83-1.39-1.61-2.35-1.04-2.62-6.88-.73-15.21-1.76-22.91.61.18.69-.35.77-1.07l8.9-.38c-.35,1.03-.27,2.96.5,2.95,1.3,0,2.08-.02,2.94.16-.3.51.58,2.8-.74,3.36-.43.18-1.02-.61-1.31-.25.09.97-.22,1.64.25,2,.31.23.82.63,1.32-.04,1.79-2.42,12.39-1.13,15.83-2.31.8-.57.79-3.22.25-3.89-5.11-.83-10.22-.54-14.94-.01-.63-.68-.96-3.36-.04-3.85l12.56-.69c.86-.05,1.25-.69,1.02-1.38-.56-1.69-11.72-.87-13.48-.85l-13.91.19c.95,1.14-1.06,4.57-1.79,4.42-.44-.09-.99-.19-1.47-.49-.56-2.54-.15-5.17-.49-8.13l-3.66-.47-.33-9.86-43.48-.04-.24,9.67c-.01.44-1.1.55-1.13.92l-.48,5.33c-.14,1.54-2.83,1.63-4.12,2.51-.39,5.49-.32,10.9-.35,16.49-.02,3.97.83,7.76-.1,11.64h-46.13s.07-13.38.07-13.38c1.41-.5,3.03.34,4.02-.6.83-.79.1-2.36.65-3.36,1.63-.45,3.53.34,4.75-.69.35-.51-.23-1.94.26-2.5.86-.98,3.2.1,3.7-.85s-.33-2.72.65-3.8c.33-.37,2.02-.06,2.13-.62.52-2.55.07-5.32.07-8.22,0-.8-1.72-.78-1.73-1.48l-.18-10.97c-3.05-.31-5.91.02-9.44.03-.7-2.95-.45-6.05-.27-8.99,2.66.34,5.43-.31,8.09-.12,2.13.16,4.18.02,6.28.02l32.57-.03.12-117.96c0-1.53.1-3.07,0-4.6-.12-1.92,1.02-5.99-1.42-5.82-.05-1.75.32-3.66-.66-5.42l-32.83-.13c-.32,2.15.25,3.81-.64,5.19-.61.11-2.01-.36-2.19.68-1.25,7.3,1.42,1.59-1.44,6.98-.74,1.41.4,3.73-.36,5.51-.82.52-1.98.02-2.84.75l-.13,8.16c-.04.41-1.06.6-1.08,1.15l-.26,6.56-3.44.61-.51,17.59c-1.04.68-2.47.25-3.84.45.24,6.63-.09,12.8-.23,19.17-.01.67-1.5.58-1.57,1.11l-.63,4.98c-.05.36-1.25-.16-1.51.11-.24.25-1.29,8.54-1.31,9.33l-.36,16.82c-.94.24-2.57.28-2.7,1.36-.17,1.38-.2,2.52-.5,3.71-.85,3.31.38,7.12-.64,10.28-.64,2-.56,3.61-.61,5.47l-.17,7.35c-.71.46-3.53,1.18-3.99.15-.81-3.42,1.34-23.36,1.84-26.14.16-.9,1.94-.71,2.28-1.23.78-6.3.33-12.95.53-19.49.04-1.18,1.48-1.01,2.13-1.43.5-3.5.55-7.35.55-11.03.96-.43,1.65-.19,2.37-.71l.4-16.14c-1.31-.26-2.32.45-3.37-.2.09-.93.35-1.82.09-2.45-.18-.44-1.38-.23-2.08-.68l-.14-32.28c0-.67.4-.82.53-1.13.94.05,2.97.68,3.82-.18s.42-2.41.47-3.28c.05-.93.61-10.95-1.68-9.05-.18.15-.38.45-.43,1.03-.11,1.26-1.85.91-2.31,1.53-.88,1.19-.25,2.82-.74,3.99-.38.89.48,1.93-.17,2.84-.71-.17-2.04-.84-3.05-.24-1.06.63-.52,2.84-.54,3.9-1.99,2.73-6.17-1.08-5.49,3.91-5.01,3.58-5.52,3.24-11.9,2.65-.54-.54-.53-2.09-1.12-2.09h-2.5c-1.52-.01-.44-2.44-1.09-3.53-.8-1.33-3.12-.26-4.79-.83-.06-4.8-.44-9.82.17-14.29,4.93-.24,0-3.86,4.16-5.97l.68-10.49c.21-.7,1.58-.48,2.04-.72.41-.21,1.56.26,1.67-.33.13-.71.18-1.46-.21-1.98-.33-.44-.8-.83-1.46-.46-.44.25-1.6.13-2.36-.28l.07-9.93c1.15-.58,2.67.01,3.36-.82.85-1.03.11-2.73.7-3.88,1.15-.42,2.33-.1,3.56-.34.38-1.44-.42-2.92.42-4.27.34-.54,1.63-.15,1.77-.62.42-1.42-.08-2.61.43-3.65.16-.33.61-.46,1.15-.37,2.18-.42.52,5.92.9,8.94l-4.24.4-.57,4c-1.04,0-2.72-.04-3.34.6l-.14,7.23c-.02.93.18,1.48.77,1.81.53.31,1.76.87,2.08-.16.23-.77-.09-1.53.58-1.98.56-.37,1.12-.23,1.76-.18-.04,1.54-.37,3.15.02,4.73,1.95.88,4.11.28,6.22.99,1.31.44,1.69,2.66,1.94,3.94,3.64.69,7.31,1.83,10.21,4.31l5.6,4.8c1.49,1.28,3.7.26,5.59.6,5.7,1.02,4.41-5.31,6.88-6.27l.95-7.74c.07-.58,1.74-.02,2.08-.29s.73-.88.74-1.74l.59-37.54c.05-3.05,1.18-5.92.22-8.64.05-1.26.52-2.92.41-4.61,1.04-.5,2.11-.42,3.37-.8.59-2.85-.35-5.89.57-8.65.26-.79,1.65-1.61,1.38-3.01-.14-.72.1-2.73.79-3.04l2.37-1.06c.38-.17.49-.66,1.03-.48.3.1.34.4.06.58-.15.1-.45.59-1.14.65.16-.02-1.57,15.94-.44,13.66l-.55,1.11c-.43-.01-.99-.19-1.23.06-.08.08-1.32,9.32-1.25,7.83-.47,9.52-.13,18.58.26,28.05.02.38-.5.89-.67,1.07-.44.46.7.45.92,1.02,1.86,4.87-1.06,7.42-.78,8.48.37,1.38,1.72.76,2.86.84,4.07.3,19.88.78,22.32,0,1.24-.4,2.94.66,4.46-.25.5-.3.37-1.32.64-1.66.43-.53,1.35-.25,2.01-.53,1.17-.51.89-1.95.75-2.81l22.25-.16c1.62-.01,2.38.72,2.89,2.07.19.51,1.64.45,1.73.75l.71,2.42c.4,1.36,4.22.33,6.1.37l6.98.15c11.34.25,22.67.35,34.38-.54l.19-36.68c-1.66-.46-2.81-.04-3.97-.23-.85-1.41.07-3.1-.5-4.59,6.91-1.76,2.16,4.38,10.23,4.64l18.79.59c1.26.04,1.44,1.76,2.01,1.96l11.91.31c1.61,1.72,3.79,1.08,5.6,1.15l6.02.26.04-41.96c0-1.8.2-3.37.8-4.62,1.02-.09,2.35.22,3.43-.41.8-.47.52-1.66.47-2.28-.08-.94,1.07-1.35,1.4-2.32.25-.73-.01-1.85.55-2.34.36-.31,1.34,0,1.9-.65.72-.92-.05-1.85.73-2.62,2.66-2.63,5.21-5.16,9.26-5.05l.18-30.77-4.24-.29c.09-5.98-2.09-5.8-.96-12.35.41-.75,2.06-.15,2.64-.15.29,2.04-.31,4.31.39,6.45.32.98,2.17,1.08,2.92.96.15,1.54-.24,3.07.28,4.86l3,.2-.42,10.8c-.17,4.26-1.95,18.1.8,19.73,1.07.64,2.76.11,3.85.39.83.21,3.06.44,3.1-1.16.15-5.7.59-11.89-.22-17.15.3-3.55.04-8.76.44-12.52.92.11,3.35.11,3.47-.95l.42-3.56c.22-.85,1.67-.83,2.57-1.15.4-2.1,1.48-5.89-.6-7.22.44-.45.22-1.57,1.02-1.43,0,.63-.04,1.41.73,1.49.32.03.88.03,1.93-.02,1.8,8.95-1.34,4.39-1.19,12.59l-4.58.45.04,34c1.83.55,3.29.98,4.79,1.79.22,1.24-.52,2.93.58,3.84.8.66,2.06-.08,3.06.59l-.14,22.31c-.53.8-2.45.07-3.16.36-1.14.46-.45,2.22-.95,3.15-.94,1.06-2.83.27-4.25.87v26.51c-1.37.73-3.01-.2-4.18.64-.96.69-.36,2.46-.98,3.5-1.86.32-3.55.16-5.36.21-.46-1.24-.21-2.34-.4-3.72l-4.33-.55-.15-21.13c-2.37-.32-4.55-.19-6.82,0,.1,7.17-2.72,7.28-2.78,11.12-.01.74-1.32.8-1.45,1.38l-1.8,8.44c-1.87.28-3.52-.44-5.21.51.02.93.46,3.17-.62,3.18l-14.33.2-.82,10.37c-1.37.37-2.72.2-3.85.73-.32,1.13.23,3.66-.99,4.1-2.28.68-4.02,1.54-3.95,4.26-.29-.13-6.6,2.83-4.89,2.73-.91.06-1.22-1.05-1.82-.97Z"/>
            <g>
              <g>
                <path class="cls-101" d="M162.75,465.65c-.3.2-.37.59-.65,1.15-.87-.19-1.65-.17-2.94-.16-.78,0-.85-1.92-.5-2.95l-8.9.38c-.08.73-.16,1.25-.77,1.07-.22-1.99-3.75,0-3.33-2.15.48.31,1.03.4,1.47.49.72.15,2.74-3.28,1.79-4.42l13.91-.19c1.75-.02,12.91-.84,13.48.85.23.69-.16,1.33-1.02,1.38l-12.56.69c-.92.49-.6,3.17.04,3.85Z"/>
                <path class="cls-135" d="M153.1,489.09c-.67-.64-1.82-.27-2.35-1.04.96-.56,2.11.21,2.35,1.04Z"/>
                <path class="cls-132" d="M73.64,483.67l-23.74.28c-.77-1.9-.51-3.95-.05-5.76,1.41-.74,4.03.53,4.4-.71l.95-3.19c3.2-.59,17.24-1.14,18.43,2.16.81,2.24-.03,4.68,0,7.22Z"/>
                <path class="cls-50" d="M186.6,480.18c.09,0-1.43,1.44-1.57,2.37s-6.73.42-7.26.7c-3.18,1.65-6.34-.01-9.77-.22-.63-1.99-.43-4.96.05-7.35,5.1-2.61,8.95-1.85,14.58-1.49l-.03,3.01c2.92,1.2,7.16-.69,7.21,1.96.02,1.47-2.9,1.02-3.21,1.02Z"/>
                <path class="cls-151" d="M77.51,470.58c.14-.54-15.38-.31-16.23-.98.64-.66.84-.95,1-1.33.25-.57-.35-.63-.31-1.44.75.85,1.37.8,2.22.57.9-.25.75-1.49,1.4-1.94,1.09-.76,3.36.05,4.72-.57,3.68-1.7,3.38-.07,5.57-.58.83-.19,1.98-2.47,3.14-.86,1.05,1.45,3.3,2.09,3.27,4.41-.98.46-4.19-2.39-5.57-.7-.68.83,1.12,2.14.79,3.44Z"/>
                <path class="cls-111" d="M162.1,466.8c.28-.55.35-.94.65-1.15,4.73-.53,9.84-.82,14.94.01.54.67.55,3.32-.25,3.89-3.44,1.19-14.04-.1-15.83,2.31-.5.67-1.01.27-1.32.04-.48-.36-.17-1.03-.25-2,.3-.36.89.43,1.31.25,1.32-.56.45-2.84.74-3.36Z"/>
              </g>
              <g>
                <path class="cls-140" d="M236.29,199.05c.04.78-.15,1.96.34,2.62.33.45,1.3.81,2.22,1.25l.19,17.73c-2.75.46-6.3.9-8.85-.2-2.51-5.77-3.25-3.53-2.91-11.25,5.91-4.4,3.22-10.25,7.84-11.97-.12.37.02.81.18,1.29.1.3.67.29,1,.52Z"/>
                <path class="cls-86" d="M260.93,215.37c.08,1.85.69,3.54-.52,5.51l-14.35-.1c-.51-2.09-.12-3.8-.09-5.35,4.96-.37,10.01-.61,14.95-.07Z"/>
                <path class="cls-154" d="M249.58,226.83c.29.58.55,1.36.54,2.29l-.24,16.52c-.01.96-.15,1.46-.99,1.66-.11-.83-.45-.35-.66-.2-.48.35-.49.83-.63,1.35-.18.66-1.09.72-1.15.46-.04-.18-.36-.6-.36-1l.15-20.61c1.37-.44,2.39-.27,3.36-.47Z"/>
                <path class="cls-173" d="M261.26,210.18c.42,1.68-.4,3.67-.33,5.19-4.94-.54-9.99-.3-14.95.07.04-1.69-.75-3.47,0-5.16l15.29-.11Z"/>
                <path class="cls-36" d="M248.88,247.3c.84-.19.98-.7.99-1.66l.24-16.52c.01-.93-.25-1.71-.54-2.29,1.09-.22,1.74-1.62,3.32-.94.09,8.12-.1,16.1-.45,24.45-.06,1.31-3.3.7-3.82-.09s-.41-2.04.25-2.95Z"/>
                <path class="cls-133" d="M261.26,207.62c-4.06.22-11.53.14-15.28.97-.32-1.57-.39-3.23.04-5.23l15.11-.04c.08,1.72.19,3.01.13,4.3Z"/>
                <path class="cls-103" d="M236.29,199.05c-.33-.23-.9-.22-1-.52-.16-.48-.29-.92-.18-1.29.17-1.52.67-3.25,2.63-3.75,2.54-.65,5.37-.13,8.3-.39.31,2.13.14,3.85-.3,5.82-3.28.36-6.37.29-9.45.15Z"/>
                <path class="cls-137" d="M260.69,199.05l-10.32.13c-.24-1.75-.29-3.1-.05-4.92,2.89-.42,6.19-1.09,8.92.58,1.21.74,1.5,2.7,1.46,4.2Z"/>
                <path class="cls-166" d="M261.26,207.62c-.04.83-.2,1.75,0,2.56l-15.29.11c.24-.54-.81-1.48,0-1.7,3.75-.83,11.22-.75,15.28-.97Z"/>
                <path class="cls-10" d="M230.07,223.76c-.53.6-1.94.66-2.3.21-.54-.66-.54-2.5.11-3.02s1.77.08,1.99.68c.17.48.89,1.37.21,2.13Z"/>
              </g>
              <g>
                <path class="cls-20" d="M191.22,272.55c-1.77.56-4.22.64-5.77-.66-2.39-2.02-4.34-4.29-8.39-3.66,1.18,2.02,0,3.72,0,5.31l.13,25.07c0,1.67,1.21,2.8,1.59,4.02-.48.26-.7.14-.92-.08-.51-.49-.14-1.51-1.38-1.63l.21-33.06c.01-1.69.85-3.18,1.4-4.42l2.21.77c1.92,2.39,4.68,3.54,7.51,3.99,1.77,1.44,2.97,2.49,3.4,4.35Z"/>
                <path class="cls-2" d="M40.45,318.66c-.05.87.42,2.39-.47,3.28s-2.88.23-3.82.18c-.38-.02-.45-1.22-.99-.71.47-.7-.31-1.86-.05-2.4.65-.91-.21-1.95.17-2.84.98-.31.65,1.43.95,1.98,1.22.93,2.94,0,4.22.52Z"/>
                <path class="cls-45" d="M35.11,319c-.26.54.52,1.7.05,2.4-.28.42-.38.66-1.26.82l-2.39.43c.02-1.06-.52-3.27.54-3.9s2.34.06,3.05.24Z"/>
                <path class="cls-2" d="M11.69,291.31c.63-.97.87-1.89,0-2.77.66-.37,1.13.03,1.46.46.39.52.34,1.27.21,1.98-.11.59-1.26.12-1.67.33Z"/>
                <path class="cls-58" d="M27.13,311.96c-.36,2.96-.33,5.99-.07,8.97-.96,1.53-4.12,1.57-4.92.05s.39-3.37-.45-4.45c-.48-.62-2.67-.84-3.31-.29-.61,1.5-.87,4.53.18,5.65.62.64,2.27.5,2.44,1.35.11.53.54,1.87-.13,2.28-1.41.85-3.25.57-4.8.19-.47-1.08-.21-2.13-1.03-2.95l-5.75-.16c0-4.78-.42-9.39.14-14.32.05-.44,1.11-.63,1.4-.9.6-.56-.4-.73-.2-1.4,4.64.77,10.65-1.32,15.71,1.3.29,1.04.4,2.65,1.33,3.28-.3.43-.51,1.05-.56,1.4Z"/>
                <path class="cls-168" d="M159.83,290.63l-.42,5.59-31.92.1c-.58-1.89-.53-3.79-.22-6.1l32.56.41Z"/>
                <path class="cls-26" d="M69.72,296.21l-3.3-.08c-.26-1.96-.08-3.79,0-5.95,8.21-.72,16.08-.24,24.5-.05.55,2.06.19,3.83.18,6.02-7.15.04-14.02.24-21.39.06Z"/>
                <path class="cls-57" d="M107.56,290.29c.13,1.68.83,3.43,1.63,5.08.57,1.18,3.75,1.49,4.16.17.54-1.73-.11-3.51.79-4.9.61.24,2.28-.79,2.67.29.67,1.96,1.29,6.26-.06,6.77l-1.78.67c-.42.16.11,1.62-.15,1.99-.41.56-.27,2.01-1.23,2.08-4.06.31-7.97-.3-11.87.2-1.13.15-2.47.08-3.8-.01-.77-2.28-.03-4.29-.09-6.21,1.84-.62,1.47,2.73,2.39,1.1,1.01,0,2.4.48,3.45-.21.61-.4.19-1.67.3-2.18.3-1.34-.31-4.11-.31-5.47,1.25.39,2.6.45,3.91.62Z"/>
                <path class="cls-31" d="M118.26,285.03c-.18.89-.43,1.6-1.15,2.08l-12.55.42c-.97.03-.9,1.58-.91,2.14,0,1.36.61,4.13.31,5.47-.89-.53-1.8-.5-2.96.05-.95.45-.36,1.31-.79,2.34-.92,1.63-.55-1.72-2.39-1.1-.14-4.38-.74-8.95.86-13.33l19.11-.64c.54.78.61,1.95.48,2.59Z"/>
                <path class="cls-19" d="M119.38,302.64c.09-.68-1.06-.95-1.13-1.58l-.03-13.56c-.04-.24-1.01-.24-1.11-.39.72-.47.97-1.19,1.15-2.08,1.54.14,3.11-.35,4.92.11v17.22c-1.46.61-2.64.28-3.81.28Z"/>
                <path class="cls-24" d="M25.48,295.87c-.7-.15,2.86,1.61,2.8,3.13-.07,1.77-12.5.04-15.42.61-.15-2.56,0-4.68.36-7.34,3.12-.74,6.3-.37,7.7,2.54.74,1.54,2.89.69,4.55,1.05Z"/>
                <path class="cls-98" d="M31.1,311.8l-3.98.16c.04-.36.26-.97.56-1.4-.93-.64-1.04-2.24-1.33-3.28-5.07-2.62-11.08-.53-15.71-1.3-.07-.99-.23-2.03.45-2.44.96-.58,1.86-.35,2.96-.35l15.75.08c.72,1.31.73,2.7,1.88,3.74l-.59,4.79Z"/>
                <path class="cls-125" d="M118.25,301.06c.07.63,1.22.9,1.13,1.58-2.1-.18-.12,4.22-1.8,4.32-5.15.32-10.19.33-15.58.06.23-1.81.39-3.12-.29-4.37,3.9-.5,7.81.11,11.87-.2.96-.07.82-1.51,1.23-2.08.08,1.06.67,1.04,1.51,1.11.71.06,1.82.6,1.93-.41Z"/>
                <path class="cls-65" d="M159.41,296.22l.42-5.59c4.07-1.11,8.26-.35,12.57-.49.22,2.33.39,4.13-.22,6.27l-12.77-.18Z"/>
                <path class="cls-55" d="M44.79,340.22c-1.48-.56-3.07-.19-4.6-.5.76-1.45,2.42.16,3.77-.9-1.52-3.08-1.7-5.67-1.94-8.28,1.18-.78,2.25-1.71,3.23-2.72.67,1.03,2.16.12,3.19,1.02.77.67,1.23,3.09.73,4.01-2.2,2.34-4.65,4.24-4.38,7.37Z"/>
                <path class="cls-149" d="M53.89,312.56c.14,1.09.43,1.84.11,2.11-.67.55-1.58.75-2.15.57-.39-.12-2-3.47.69-7.78.6-.96.2-3.09,1.97-3.72.99-.35,2.21-.75,3.48.07-1.93,2.62-2.64,5.61-4.09,8.74Z"/>
                <path class="cls-157" d="M44.79,340.22c.24,2.81-.15,5.77-.16,8.52-1.24.15-2.61-.63-4.19-.01-.79-2.9.2-5.99-.25-9,1.53.31,3.12-.06,4.6.5Z"/>
                <path class="cls-55" d="M40.19,339.72c.45,3.01-.54,6.1.25,9,1.58-.62,2.95.16,4.19.01v2.31c-1.05-.31-1.64.68-2.77,1.14s-.92,1.79-.41,2.48c.23.65-.78.47-1.37.31-.31-.09.45-.85-.79-.95.5-6.95-1.34-15.21.6-22.88.28.95.69,2.9.18,3.86-1.06,2.01-.08,3.42.11,4.72Z"/>
                <path class="cls-15" d="M31.1,311.8s1.13,8.42-1.26,8.65c-.77.07-2.34-.23-2.79.47-.27-2.97-.3-6.01.07-8.97l3.98-.16Z"/>
                <path class="cls-25" d="M45.25,327.82c-.98,1.01-2.05,1.94-3.23,2.72-.1-.81-1.57-.23-1.94-.95-.55-1.09-.73-3.38-.15-4.29,1.19-1.86,3.5-1.62,5.02-.96.2,1.39-.06,2.43.3,3.48Z"/>
                <path class="cls-117" d="M112.73,317.94c-1.15,1.21-3.17.49-4.56.52-.33-1.43-.79-4.02.39-4.88,1.07-.4,3.32-.36,4.19.32.76.59.68,3.32-.01,4.05Z"/>
                <path class="cls-40" d="M44.63,351.04c0,.86.08,1.82-.43,3.03-.45,1.08-2.01,1.22-2.75.58-.5-.68-.7-2.02.41-2.48s1.72-1.45,2.77-1.14Z"/>
                <path class="cls-147" d="M200.12,268.51c-.2.55-.18,1.35-.73,1.59-.7.3-1.29-.13-1.8-.45-.04-.38.32-.8.51-1.1.67-.14,1.34-.1,2.02-.04Z"/>
                <path class="cls-147" d="M206.53,255.84c.34-.43.73-1.06,1.32-1.07-.19.53-.67,1.24-1.32,1.07Z"/>
                <path class="cls-89" d="M117.11,287.11c.11.15,1.07.15,1.11.39l.03,13.56c-.11,1.01-1.23.47-1.93.41-.84-.07-1.43-.04-1.51-1.11.26-.36-.27-1.83.15-1.99l1.78-.67c1.35-.51.73-4.82.06-6.77-.39-1.08-2.05-.05-2.67-.29-1.53-.59-4.83-.13-6.57-.36-1.3-.17-2.66-.23-3.91-.62,0-.56-.06-2.1.91-2.14l12.55-.42Z"/>
                <path class="cls-114" d="M114.13,290.64c-.89,1.39-.25,3.17-.79,4.9-.41,1.32-3.59,1-4.16-.17-.8-1.65-1.5-3.4-1.63-5.08,1.74.23,5.04-.23,6.57.36Z"/>
                <path class="cls-61" d="M103.96,295.14c-.11.51.31,1.78-.3,2.18-1.05.68-2.43.2-3.45.21.43-1.03-.16-1.88.79-2.34,1.16-.55,2.06-.58,2.96-.05Z"/>
              </g>
            </g>
          </g>
          <g>
            <path class="cls-146" d="M136.09,169.17c.27,1.33.27,2.7.44,4.06.14,1.18-.2,2.56-.24,4.04l-.58,24.82c-1.19.61-2.67.07-3.49.91-1.25,2.89.67,6.69-.89,9.45-1.26,2.24-4.11,3.82-4.55,6.79-.24,1.6-2.41,1.95-2.71,2.83-1.66,4.21-.94,9.21-4.79,10.79-.95.39-1.13,10.6-.44,8.84-.13,1.9-.55,3.73-.84,5.92-1.67.19-3.31.21-4.8-.18l-1.18-9.7-1.28-9.45-6.89-.24-.52-12.59c-2.36.19-3.95.63-5.83.31l-.05-12.71-5.91-.37c.33-3.22-.22-6.33.35-9.58.22-1.26,1.18-2.23,1.09-3.92-.17-3.28-.65-14.4,1.59-16.06.53-.39,1.31-.11,2.13-.37,1.55-.48.24-3.57,1.51-4.97.84.62,2.71-1.41,3.8-1.41l29.68-.09c.88.97.23,2.27,1,2.82,1.15.82,2.44-.3,3.41.06Z"/>
            <path class="cls-2" d="M123.25,173.31c.3,1.26.62,3.67,1.54,4.8s2.25,1.83,1.67,3.71c-.41,1.33.81,2.32.81,3.36l.05,22.66c0,1.42-1.66,1.78-2.33,2.2-.85,1.42-.06,3.95-.7,5.56l-5.39.51c-.56,1.53.26,4.08-.96,4.87-2.75,1.79-5.01,1.31-7.94.14-.45-1.57-1.54-3.24-1.66-5.16l-.62-10.01c-.88-.52-2.36-.95-2.85-1.9-.47-.9.11-1.89-.13-2.9-1.22-5.26-.95-10.56-.85-15.79l6.79-1.07c.8-9.91,2.93-1.33,2.5-10.91,3.36-.28,6.71.03,10.07-.07Z"/>
            <path class="cls-163" d="M123.25,173.31c-3.36.1-6.72-.21-10.07.07-.97.08-1.92-.04-3.19-.32.24-1.4.64-3.31,2.19-3.56,3.38-.55,7.26-.82,10.5.11,1.67.48.36,2.77.58,3.7Z"/>
          </g>
        </g>
        <g>
          <path class="cls-74" d="M158.18,133.9c-.04,1.32-.12,2.63-.55,3.89l-3.66-.2c-.58,5.61.77,4.82-2.05,8.86-3.08,2.66-8.48,2.32-11.03-1.43-1.36-2-.57-4.92-.71-7.33-.71-.58-1.55-.14-2.38-.58-.3-1.82,1.22-4.33,3.2-4.63.94-.14,15.02.06,17.2,1.43Z"/>
          <path class="cls-44" d="M145.98,132.99c1.82.14,2.91.59,2.83,2.31-.04.92-.22,2.35-2.03,2.25-1.25-.07-2.72.25-3.96-.22s-.75-2.24-.55-3c.39-1.48,1.81-1.48,3.71-1.34Z"/>
        </g>
      </g>
    </g>
  </g>
</svg>