<?xml version="1.0" encoding="UTF-8"?>
<svg id="_レイヤー_2" data-name="レイヤー 2" xmlns="http://www.w3.org/2000/svg" xmlns:xlink="http://www.w3.org/1999/xlink" viewBox="0 0 252.99 512">
  <defs>
    <style>
      .cls-1 {
        fill: #bab2c3;
      }

      .cls-2 {
        fill: #d2d0d8;
      }

      .cls-3 {
        fill: #f0eff4;
      }

      .cls-4 {
        fill: #7d7089;
      }

      .cls-5 {
        fill: #7c6f88;
      }

      .cls-6 {
        fill: #776882;
      }

      .cls-7 {
        fill: #e6e8eb;
      }

      .cls-8 {
        fill: #83788e;
      }

      .cls-9 {
        fill: #afaaba;
      }

      .cls-10 {
        fill: #a78281;
      }

      .cls-11 {
        fill: #afa6b8;
      }

      .cls-12 {
        fill: #bdb7c5;
      }

      .cls-13 {
        fill: #ddb8b3;
      }

      .cls-14 {
        fill: #bbb1c6;
      }

      .cls-15 {
        fill: #dab3ae;
      }

      .cls-16 {
        fill: #7b6e86;
      }

      .cls-17 {
        fill: #f2f3f6;
      }

      .cls-18 {
        fill: #766a86;
      }

      .cls-19 {
        fill: #b7908c;
      }

      .cls-20 {
        fill: #fdefdb;
      }

      .cls-21 {
        fill: #b7afc1;
      }

      .cls-22 {
        fill: #bcb5c2;
      }

      .cls-23 {
        fill: #7b6e87;
      }

      .cls-24 {
        fill: #f0c2b7;
      }

      .cls-25 {
        fill: #92869e;
      }

      .cls-26 {
        fill: #afa7bb;
      }

      .cls-27 {
        fill: #ebebef;
      }

      .cls-28 {
        fill: #948aa0;
      }

      .cls-29 {
        fill: #fff;
      }

      .cls-30 {
        fill: #f2c5b5;
      }

      .cls-31 {
        fill: #6f617d;
      }

      .cls-32 {
        fill: #b5aec0;
      }

      .cls-33 {
        fill: #f1c5b6;
      }

      .cls-34 {
        fill: #bfb9c7;
      }

      .cls-35 {
        fill: #f4ccbe;
      }

      .cls-36 {
        fill: #716f8a;
      }

      .cls-37 {
        fill: #f2baab;
      }

      .cls-38 {
        fill: #a57f81;
      }

      .cls-39 {
        fill: #736681;
      }

      .cls-40 {
        fill: #bab2c1;
      }

      .cls-41 {
        fill: #776985;
      }

      .cls-42 {
        fill: #f3c379;
      }

      .cls-43 {
        fill: #877a92;
      }

      .cls-44 {
        fill: #81758d;
      }

      .cls-45 {
        fill: #afa7b9;
      }

      .cls-46 {
        fill: #e1dee4;
      }

      .cls-47 {
        fill: #bab3c5;
      }

      .cls-48 {
        fill: #dca87d;
      }

      .cls-49 {
        fill: #f0bc81;
      }

      .cls-50 {
        fill: #dbd6e2;
      }

      .cls-51 {
        fill: #fcf0dd;
      }

      .cls-52 {
        fill: #f8e8a2;
      }

      .cls-53 {
        fill: #e4e3eb;
      }

      .cls-54 {
        fill: #f3d2a1;
      }

      .cls-55 {
        fill: #b7b1c2;
      }

      .cls-56 {
        fill: #c89377;
      }

      .cls-57 {
        fill: #d1d0d9;
      }

      .cls-58 {
        fill: #756782;
      }

      .cls-59 {
        fill: #90839b;
      }

      .cls-60 {
        fill: #efedf2;
      }

      .cls-61 {
        fill: #a07c7f;
      }

      .cls-62 {
        fill: #fef1df;
      }

      .cls-63 {
        fill: #f9d8c4;
      }

      .cls-64 {
        fill: #6f627d;
      }

      .cls-65 {
        fill: #feefdd;
      }

      .cls-66 {
        fill: #d9d3df;
      }

      .cls-67 {
        fill: #a87e7e;
      }

      .cls-68 {
        fill: #d4d3da;
      }

      .cls-69 {
        fill: #8c6e7a;
      }

      .cls-70 {
        fill: #726a83;
      }

      .cls-71 {
        fill: #beb6c5;
      }

      .cls-72 {
        fill: #ececf1;
      }

      .cls-73 {
        fill: #8d6e7b;
      }

      .cls-74 {
        fill: #796c86;
      }

      .cls-75 {
        fill: #d4d2da;
      }

      .cls-76 {
        fill: #7e7089;
      }

      .cls-77 {
        fill: #f0bfb4;
      }

      .cls-78 {
        fill: #cdc7d6;
      }

      .cls-79 {
        fill: #82687b;
      }

      .cls-80 {
        fill: #f0bdae;
      }

      .cls-81 {
        fill: #f6d1c1;
      }

      .cls-82 {
        fill: #d2d1d9;
      }

      .cls-83 {
        fill: #d0a39b;
      }

      .cls-84 {
        fill: #75738a;
      }

      .cls-85 {
        fill: #f8e393;
      }

      .cls-86 {
        fill: #a49ab0;
      }

      .cls-87 {
        fill: #dcd9e4;
      }

      .cls-88 {
        fill: #dbd5e1;
      }

      .cls-89 {
        fill: #8b8097;
      }

      .cls-90 {
        fill: #cfa19a;
      }

      .cls-91 {
        fill: #c68e6c;
      }

      .cls-92 {
        fill: #eeecf1;
      }

      .cls-93 {
        fill: #80738c;
      }

      .cls-94 {
        fill: #756883;
      }

      .cls-95 {
        fill: #ad8684;
      }

      .cls-96 {
        fill: #b7b0c2;
      }

      .cls-97 {
        fill: #dfd9e3;
      }

      .cls-98 {
        fill: #afadb8;
      }

      .cls-99 {
        fill: #b58a87;
      }

      .cls-100 {
        fill: #bcb5c5;
      }

      .cls-101 {
        fill: #eebaac;
      }

      .cls-102 {
        fill: #b2a3b0;
      }

      .cls-103 {
        fill: #b8b0c1;
      }

      .cls-104 {
        fill: url(#_名称未設定グラデーション_16);
      }

      .cls-105 {
        fill: #bab1c6;
      }

      .cls-106 {
        fill: #f5cebe;
      }

      .cls-107 {
        fill: #8f8098;
      }
    </style>
    <linearGradient id="_名称未設定グラデーション_16" data-name="名称未設定グラデーション 16" x1="121.94" y1="189.96" x2="123.24" y2="249.66" gradientUnits="userSpaceOnUse">
      <stop offset="0" stop-color="#fef2e1"/>
      <stop offset="1" stop-color="#fff"/>
    </linearGradient>
  </defs>
  <g id="_レイヤー_1-2" data-name="レイヤー 1">
    <g id="_生成オブジェクト" data-name="生成オブジェクト">
      <g>
        <path class="cls-94" d="M63.45,217.31l.13,6.31,6.83.18.4,10.3c-2.09-.41-4.29,0-6.76-.27l-.32-10.02h-7.35c.02-2.37-.93-5.22.62-6.96,2.14.1,4.37-.08,6.45.47Z"/>
        <path class="cls-29" d="M84.68,241.54c2.16-.18,4.34,0,6.5-.05.51,2.15.87,4.71-.61,6.46-2.16,0-4.39.32-6.71-.1l-.11-6.04c-2.33-.24-4.4-.21-6.4-.03.27-.34.39-.22.09-.59-.24-.3-.22-.66-.57-.37l.32-5.86c1.82-1.14,4.17-.78,6.49-.58l.11,6.78c0,.47.56.4.88.37Z"/>
        <path class="cls-80" d="M181.35,211.2c-.15,1.96,0,4.17.76,5.93-.33,2.01-1.16,4.81.16,6.72-.35,0-.59.13-.95.05-2.17-.46-4.42-.15-6.62-.17.16-4.08.13-8.2,0-12.19,2.2-.34,4.47.25,6.65-.35Z"/>
        <path class="cls-20" d="M63.42,205.7l.42,5.8c.14,1.95-.44,3.88-.4,5.81-2.07-.55-4.31-.37-6.45-.47.17-.4-.47-.55-.49-1.06-1.06-3.12.61-6.73-.17-9.64,2.23-.78,4.75-.43,7.09-.45Z"/>
        <path class="cls-51" d="M188.72,206.21l.1,7.02c.01.78-1.16,2.85-.54,3.4l-6.17.5c-.76-1.76-.91-3.97-.76-5.93l.37-4.93,7.01-.06Z"/>
        <path class="cls-41" d="M181.32,223.91l-.04,9.74c-2.45.24-4.95.74-6.96-.17l.38-9.75c2.2.03,4.45-.28,6.62.17Z"/>
        <path class="cls-35" d="M188.73,199.45c.44,2.27-.04,4.51,0,6.77l-7.01.06c.17-2.25.12-4.57-.42-6.83.35-.04.67-.05.56-.52,2.15.98,4.59.17,6.87.53Z"/>
        <path class="cls-33" d="M62.95,199.23c.36,0,.56.23.88.2.19,2.1-.56,4.25-.41,6.27-2.34.03-4.87-.32-7.09.45-.65-2.4,0-4.41,0-6.78l6.63-.14Z"/>
        <path class="cls-18" d="M188.28,216.64c1.91,1.71.29,4.42.83,7.1l-6.83.12c-1.32-1.91-.49-4.72-.16-6.72l6.17-.5Z"/>
        <path class="cls-58" d="M77.2,234.97l-.32,5.86c.86,1.03-5.44.57-6.11.42.29-2.4.12-4.98.03-7.15,3.12.62,5.37-.44,6.4.87Z"/>
        <path class="cls-29" d="M78.29,254.28c-.42-1.85.19-3.72.01-5.62,1.77-.12,3.55-.28,5.53-.02.21,2.03.21,3.72,0,5.68l-5.54-.05Z"/>
        <path class="cls-29" d="M165.72,248.69c-.19.7.42,2.04-.31,2.64-.48.39-1.72.52-1.5,1.56.09.43.45.9.67,1.43-1.32-.07-2.64.4-4.2.15-.09-2.12,0-3.73.47-5.73,1.84-.38,3.35.04,4.87-.04Z"/>
        <path class="cls-3" d="M154.01,247.93l-5.64.07c-.45,1.58-.22,2.65-.25,4.28l-11.96.02c-.82,1.05-.14,2.14-.56,3.25l-10.02.12c-2.3.03-4.49.07-6.78.03l-9.21-.17c-.27-.93-.03-1.85-.24-3.12l-12.14-.41-.31-4.12c.35-.04.3-2.19,6.91-1.09l.34,4.74c1.2.07,2.46.12,4.12.02,1.18-.07,1-2.16.35-3.11,2.74-.39,5.29-.31,7.85.11-.03,2.65-.28,4.46.45,6.39l10.05-.17c1.58-.03.21-2.37.76-3.03.58-.7.56-2.26.67-3.3l6.59-.23.57,3.36c1.86-.11,3.71.96,4.74-.43.69-.93.17-2.55.4-3.91,5.6-2.02,6.76.59,12.2.1v-4.83c0-.56.4-.46.61-.51.13,1.99-.55,4.15.48,5.92Z"/>
        <path class="cls-53" d="M161.4,241.84l-.24,6.14c-2.67.06-4.95-.08-7.15-.05-1.04-1.77-.35-3.93-.48-5.92,2.57-.65,5.26-.06,7.88-.16Z"/>
        <path class="cls-30" d="M174.34,173.32c.43,2.01-.74,4.39-.53,6.29-7.19-.08-14.43-.4-21.4.55-.34.05-12.38-2.73-13.58,4.41-.15.92-.6,1.74-.79,2.53l-31.08-.11c-.79-1.78-1.01-3.87-2.07-4.94-2.64-2.64-10.67-2.21-11.09-.94-2.18.35-4.84-.23-7.07-.09-.03-.31-.11-.69-.26-.96-.23-.44-.78-.07-1.28-.08l-13.94-.34c-.02-2-1.01-4.36-.44-6.54,34.5-.42,69.3-.95,103.5.23Z"/>
        <path class="cls-50" d="M182.34,173.14c-.43,4.8.04,9.67-.08,14.48-.09,3.73-.54,7.53-.4,11.31.1.47-.21.48-.56.52-2.31.27-4.7-.26-6.96.35-.14-4.35-.05-8.92-.52-13.18.58-2.29.26-4.73,0-7.01-.22-1.9.96-4.28.53-6.29,2.36-.76,5.47-.94,8-.18Z"/>
        <path class="cls-87" d="M70.83,173.09c-.58,2.19.41,4.55.44,6.54.03,2.14-1.43,4.91,0,7.02-.17,4.07-1.12,8.73-.87,12.72l-6.57.06c-.32.03-.53-.21-.88-.2l-.09-26.1c2.26-.59,5.64,0,7.97-.04Z"/>
        <path class="cls-106" d="M173.81,179.61c.26,2.28.58,4.72,0,7.01l-13.49-.03c-.65-1.75-.34-3.47-.84-5.46-2.44-.33-4.79-.39-7.07-.44v-.53c6.97-.95,14.22-.63,21.4-.55Z"/>
        <path class="cls-81" d="M86.74,181.02c-2.08.13-.99,4.57-1.79,5.72l-13.68-.09c-1.43-2.11.02-4.88,0-7.02l13.94.34c.5.01,1.04-.36,1.28.08.14.27.23.65.26.96Z"/>
        <path class="cls-105" d="M152.41,180.16v.53c-1.69.4-.63,2.2-1.14,3.71-2.52.64-9.54-.26-9.98,1.38-.55,2.05,3.47.79,3.08,3.86-.29.79-.76,1.57-1.58,2.27-1.4.05-3.07.22-3.83-1.2-.52-.97-1.19-2.42-.91-3.6.18-.79.63-1.61.79-2.53,1.2-7.14,13.24-4.37,13.58-4.41Z"/>
        <path class="cls-101" d="M70.39,211.55c-.16,4.03-.14,8.12.02,12.25l-6.83-.18-.13-6.31c-.04-1.93.54-3.86.4-5.81l6.55.04Z"/>
        <path class="cls-83" d="M181.29,199.44c.54,2.26.59,4.58.42,6.83l-.37,4.93c-2.17.6-4.44,0-6.65.35l-.37-11.75c2.26-.61,4.65-.09,6.96-.35Z"/>
        <path class="cls-90" d="M70.41,199.37c.25,4.11.15,8.08-.02,12.17l-6.55-.04-.42-5.8c-.15-2.01.6-4.17.41-6.27l6.57-.06Z"/>
        <path class="cls-14" d="M106.97,186.99c-1.04.47-.66,2.05-1,3.26-.5,1.8-2.35,1.94-3.64,2.16-.62-.41-1.11-1.21-1.2-2.1.18-1.6,1.42-2.89,1.31-5.12-2.67-.91-5.45-.37-8.22-.75-.84-.53-.18-2.49-.41-3.32.41-1.26,8.45-1.69,11.09.94,1.06,1.06,1.28,3.16,2.07,4.94Z"/>
        <g>
          <path class="cls-104" d="M173.81,186.62c.47,4.25.39,8.83.52,13.18l.37,11.75c.12,3.99.16,8.11,0,12.19l-.38,9.75c-.36.16-.19.33-.16.6l-6.17.41-.12,6.85c-2.34.31-4.39.42-6.46.5-2.62.11-5.3-.48-7.88.16-.2.05-.6-.05-.6.51v4.83c-5.44.5-6.61-2.11-12.2-.1-.22,1.36.29,2.98-.4,3.91-1.03,1.38-2.88.32-4.74.43l-.57-3.36-6.59.23c-.11,1.03-.09,2.6-.67,3.3s.82,3-.76,3.03l-10.05.17c-.72-1.93-.48-3.75-.45-6.39-2.56-.42-5.11-.5-7.85-.11.66.94.84,3.04-.35,3.11-1.67.1-2.92.05-4.12-.02l-.34-4.74c-6.61-1.1-6.56,1.05-6.91,1.09-2.11.26-4.23.06-6.35.07,1.48-1.75,1.12-4.32.61-6.46-1.7-1.29-4.14-.16-6.37-.59-.16.26-.18.57-.13.64-.32.03-.87.1-.88-.37l-.11-6.78c-2.32-.2-4.67-.55-6.49.58-1.03-1.31-3.28-.25-6.4-.87l-.4-10.3c-.16-4.13-.18-8.22-.02-12.25s.27-8.06.02-12.17.7-8.65.87-12.72l13.68.09c.8-1.15-.29-5.59,1.79-5.72,2.23-.14,4.88.44,7.07.09.24.84-.42,2.8.41,3.32,2.77.38,5.55-.16,8.22.75.11,2.23-1.13,3.52-1.31,5.12-2.37-2.07-5.14-3.39-8.23-2.37-2.87.95-4.98,3.8-4.87,7.16.18,5.37-.36,10.62.19,15.97.43,4.18,4.94,6.36,8.41,5.72,4.32-.8,6.49-4.58,6.16-8.89-.4-5.25.35-10.31-.47-15.48,1.29-.22,3.14-.36,3.64-2.16.33-1.21-.04-2.79,1-3.26l31.08.11c-.27,1.18.4,2.63.91,3.6.76,1.42,2.43,1.25,3.83,1.2-.25,6.39-.66,13.05.09,19.62.44,3.84,4.39,5.51,7.62,5.32,2.92-.17,6.35-2.63,6.44-6.31.13-5.68.42-11.38-.12-16.82-.44-4.36-4.78-6.59-8.6-5.98-1.79.28-2.91.42-3.85,1.91.38-3.07-3.63-1.81-3.08-3.86.44-1.63,7.46-.74,9.98-1.38.51-1.5-.55-3.31,1.14-3.71,2.28.05,4.63.11,7.07.44.5,1.99.19,3.71.84,5.46l13.49.03Z"/>
          <path class="cls-39" d="M134.77,229.66l-24.27-.1c-.26-1.73-.23-3.21-.03-5.06l24.32-.07c.28,1.73.19,3.09-.02,5.23Z"/>
          <path class="cls-92" d="M167.31,240.96c-1.72-.36-3.79.41-5.41-.52-1.2-1.23-.39-4.11-.44-5.82,1.88-.57,3.43-.32,5.76-.44.28,2.14.08,4.24.1,6.77Z"/>
          <path class="cls-60" d="M91.18,241.49c-2.16.05-4.34-.13-6.5.05-.05-.06-.02-.37.13-.64,2.23.43,4.67-.71,6.37.59Z"/>
        </g>
        <g>
          <path class="cls-31" d="M101.13,190.31c.09.9.58,1.69,1.2,2.1.82,5.17.07,10.24.47,15.48.33,4.31-1.84,8.09-6.16,8.89-3.47.64-7.98-1.54-8.41-5.72-.54-5.35,0-10.6-.19-15.97-.11-3.36,1.99-6.21,4.87-7.16,3.08-1.02,5.86.3,8.23,2.37Z"/>
          <path class="cls-29" d="M98.81,194.28c1.92.48,1.55,3.21.93,4.27-.97,1.63-3.29,1.4-4.45.55-1.51-1.11-1.75-3.68-.14-4.68.81-.5,2.4-.45,3.66-.14Z"/>
        </g>
        <g>
          <path class="cls-64" d="M142.79,191.91c.82-.71,1.28-1.48,1.58-2.27.94-1.49,2.06-1.63,3.85-1.91,3.83-.61,8.17,1.63,8.6,5.98.54,5.45.26,11.14.12,16.82-.09,3.68-3.52,6.14-6.44,6.31-3.24.19-7.19-1.48-7.62-5.32-.75-6.57-.34-13.23-.09-19.62Z"/>
          <path class="cls-29" d="M146.41,193.92c1.89-.58,3.89-.31,4.54,1.37.57,1.47.16,3.54-1.47,4.28-1.46.66-3.33.37-4.12-1s-.76-4.11,1.04-4.66Z"/>
        </g>
        <g>
          <path class="cls-59" d="M62.86,173.13l.09,26.1-6.63.14c-.02-6.04.31-12.16-.35-18.1.65-2.33.72-5.59.66-8.25,2.03-1.31,4.78.5,6.23.12Z"/>
          <path class="cls-86" d="M189.57,181.52c-.2,1.73-1.09,4.38-.89,6.13-2.13.12-4.31.37-6.42-.04.12-4.81-.35-9.67.08-14.48,1.83-.06,4.45-.99,6.49-.16.46,3.15-.83,6.28.74,8.54Z"/>
          <path class="cls-43" d="M188.68,187.66c.45,3.91.31,7.86.05,11.79-2.28-.36-4.72.45-6.87-.53-.14-3.78.31-7.58.4-11.31,2.11.42,4.29.16,6.42.04Z"/>
          <g>
            <path class="cls-2" d="M70.77,130.64c.83-.06,2.1.36,3.28.35l35.13-.3c0,.22.15.38.17.55.19,1.53-.27,3.11.17,5.1l26.66-.07c.5-1.74.14-3.24.19-4.67l.04-1.02c.23-.39.47.51.67.51l20.04-.13c5.84-.04,11.54-.19,17.17.11-.58,1.82-.56,4.29.24,6.05,3.97,1.41,8.2-.25,11.83-.13l22.75.72c3.52.11,6.85.78,10.53.33l.31,5.33c-.45,0-.51.81-.09,1.14.2.16.93-.35.49.42-1.1,1.95-.37,4.15-.98,6.25l-10.4.7c-.24,1.32.04,2.43-.33,3.54l-3.38,1.21c-1.45.52-2.59,1.78-4.37,1.79l-27.34.08c-.27,2.72.27,4.74-.3,6.77l-162.71.2c.11,2.29.44,4.04-.07,5.71-.63.4-1.63.12-2.32-.09-1.27-.38.58-4.35-1.34-5.77l.16-8.97,4.79-.57c.1-1.6.35-3.02.79-4.55,2.06-.73,4.03-.84,5.93-.98.09,1.41-.21,2.91-.19,4.46,2.64.78,5.11.07,7.72,0,2.47-.07,4.79.31,7.33-.34l.67-9.42c1.94-.23,4.05-.98,6.5-.79.65-1.95.5-3.58.48-5.89,3.86-.97,7.71-.71,11.68-.61,3.37.09,6.58-.55,9.99-.28l.47-5.34,1.21-.9,6.42-.49Z"/>
            <path class="cls-74" d="M173.26,165.27l62.8.02c2.15,0,3.83-.44,5.4.37.11.44-.21.69-.6.75-.54-.78-1.85-.67-2.42-.15-.85.77-.49,1.82-.37,2.91.06.59-.96,1.49-.33,2.08-1.67,1.73-4.77,1.45-7.37,1.47l-10.75.06-.43,5.86-8.59.5c-.16,2.93-9.84.52-15.67,1.93-1.93.46-3.61.37-5.36.45-1.57-2.27-.29-5.39-.74-8.54-2.03-.84-4.65.1-6.49.16-2.53-.76-5.64-.58-8,.18-34.2-1.17-69.01-.65-103.5-.23-2.33.03-5.72-.56-7.97.04-1.45.38-4.2-1.43-6.23-.12.06,2.66-.01,5.92-.66,8.25-.96.79-8.57-.37-6.07-.26l-15.02-.69c-.4-.02-.21-1.69-.92-1.7l-13.53-.17c-.15-2.43.15-3.85-.21-5.84l-8.06-.06c-1.03,0-2.03-.44-1.68-1.38.51-1.67.18-3.42.07-5.71l162.71-.2Z"/>
            <path class="cls-1" d="M245.8,165.24c-1.13-.1-3.19.91-4.34.42-1.57-.81-3.25-.37-5.4-.37l-62.8-.02c.57-2.03.03-4.04.3-6.77l27.34-.08c1.78,0,2.92-1.27,4.37-1.79l3.38-1.21c.36-1.11.09-2.22.33-3.54l10.4-.7c.6-2.1-.13-4.3.98-6.25.44-.77-.29-.27-.49-.42-.42-.33-.37-1.13.09-1.14-.24,1.43,5.87-.13,6.91.65-.12,4.66,2.48.75,8.47,1.32.2,1.18.08,2.95.93,3.23,1.74.28,3.1-.48,4.33,1.21.99.87,3.4,0,5.44.42l-.25,15.05Z"/>
            <path class="cls-89" d="M63.14,132.03l-.47,5.34c-3.41-.27-6.63.37-9.99.28-3.97-.1-7.82-.36-11.68.61.02,2.31.17,3.95-.48,5.89-2.44-.19-4.55.57-6.5.79-2.65.31-5.63-.6-8.48.39-.73.53.16,1.99-.58,2.89-.57.68-2.44.1-2.97-.57.22,1.88-2.3.37-2.94.8-.47.31-.59,1.34-.56,1.81-1.9.14-3.86.25-5.93.98-.43,1.53-.69,2.95-.79,4.55l-4.79.57-.16,8.97c-2.2.09-4.38.21-6.81-.1v-9.02c2.27-.22,4.13-.57,6.28-1.07l.25-5.88c1.59-.46,3.93.56,4.72-.37l1-1.18c1-1.18,3.89.06,5.84-.59.55-1.78.18-3.45.5-5.42l15.01-.28.51-4.47,19.38-.16c-.06-1.89-.39-3.56.06-5.42l8.89-.1c.44,0,1.07.26.68.76Z"/>
            <path class="cls-29" d="M240.86,166.41c-.21,1.06.15,2.33-.25,3.61-.42,1.38-2.11,1.24-2.88,1.23-.62-.6.4-1.49.33-2.08-.12-1.09-.48-2.14.37-2.91.57-.52,1.87-.63,2.42.15Z"/>
            <path class="cls-17" d="M34.02,144.94l-.67,9.42c-2.54.65-4.87.27-7.33.34-2.61.07-5.08.79-7.72,0-.02-1.55.28-3.05.19-4.46-.03-.47.1-1.49.56-1.81.64-.43,3.16,1.08,2.94-.8.52.67,2.4,1.25,2.97.57.74-.89-.15-2.35.58-2.89,2.86-.99,5.83-.08,8.48-.39Z"/>
            <path class="cls-100" d="M183.41,131.02c.48.01,1.7-.25,1.83.48.09.52-1.27.79-.82,1.42,1.33,1.84,1.08-1.2,1.94,4.07-3.63-.11-7.86,1.54-11.83.13-.8-1.76-.82-4.23-.24-6.05.96-.24,2.13-.61,3.3-.07,2,.2,3.95.13,5.81.02Z"/>
          </g>
          <g>
            <path class="cls-38" d="M80.42,109.71l28.68-.03.08,21-35.13.3c-1.18.01-2.45-.41-3.28-.35-.24-3.98-.26-8.06,0-12.23,1.73-.96,3.43-.62,5.27-.83.64-2.13.41-4.35.48-7.03,1.18-.63,2.67-.83,3.89-.83Z"/>
            <path class="cls-79" d="M183.41,131.02c-1.87.11-3.82.17-5.81-.02-1.17-.54-2.34-.17-3.3.07-5.63-.3-11.33-.15-17.17-.11l-20.04.13c-.2,0-.44-.9-.67-.51,0-.22.11-.42.11-.62l20.52.15c.89.54,1.88.18,3.02.06.3-2.14-.28-4.22.22-6.05.62.22,1.46-.78,1.91-.8,3.62-.17,7.53-.03,11.21.14l-.35-9.49c-2.05-.14-4.52.83-5.52-.61-.65-.94.24-2.8-.73-3.65-.06-.29.12-.68.47-.48.23.85.77,1.93.72,3.33-.1,3.15,6.06-2.16,6.09,2.26l.11,15.3,8.63-.05c.61,0,.78.62.58.97Z"/>
            <path class="cls-73" d="M166.81,109.68c.97.85.07,2.71.73,3.65.99,1.43,3.47.47,5.52.61l.35,9.49c-3.67-.17-7.59-.31-11.21-.14-.45.02-1.3,1.01-1.91.8-.49,1.83.08,3.91-.22,6.05-1.14.12-2.14.48-3.02-.06l-20.52-.15c.04-6.74-.3-13.53.29-20.23l30-.04Z"/>
            <g>
              <path class="cls-48" d="M136.38,131.59c-.05,1.43.31,2.93-.19,4.67l-26.66.07c-.44-1.99.02-3.57-.17-5.1l27.03.36Z"/>
              <g>
                <path class="cls-52" d="M136.48,103.87c-.43,1.87.48,4.11.33,5.85-.59,6.69-.25,13.48-.29,20.23,0,.2-.1.4-.11.62l-.04,1.02-27.03-.36c-.02-.17-.17-.33-.17-.55l-.08-21c0-2.41.21-4.84.39-7.23.93.6,3.07,1.15,3.85-.36.56-1.07-.66-2.5.19-3.52,3.7.1,7.24-.4,10.61-.42l11.09-.05c.84,1.7-.48,2.61-.4,4.21.03.64,1.79.95,1.65,1.57Z"/>
                <path class="cls-56" d="M129.61,109.73c0,5.16.36,9.92-.06,15.13l-13.69.1.17-15.25,13.58.02Z"/>
                <path class="cls-49" d="M129.61,109.73l-13.58-.02c-.08-1.86-.48-3.72.03-5.69l13.6.04c.74,2.13-.06,4-.06,5.66Z"/>
                <path class="cls-54" d="M124.15,98.15c-3.37.02-6.91.52-10.61.42-.85,1.03.36,2.45-.19,3.52-.78,1.51-2.92.96-3.85.36.09-1.22-.23-2.52.14-3.98,5.01-.6,9.79-.51,14.52-.33Z"/>
              </g>
            </g>
            <g>
              <path class="cls-4" d="M181.81,31.31c.19,0,.33-.02.44.18-.26,1.75.09,3.45.16,5.71l6.76-.1c.13-2.37.12-3.9-.08-5.56.45,0,.97.01.98.81l.04,4.44c.04,4.54.22,8.97.44,13.49l4.47.57.49,4.72,16.85.04c1.17-2.27-.76-5.71,1.39-5.75,1.32-.05,3.92-.03,5.58-.19.51-2.17.2-4.14.29-6.52-1.81-.5-3.54-.13-5.43.18-1.14.86-.62-5.43-.22-5.69,1.12-.57,2.62-.08,3.45-.97.77-.83-.1-2.19.48-3.2,2.58-.17,4.89-.18,7.51.08l-.21,21.3-5.12.43c-.42,1.3-.33,2.53-.61,3.81-2.28.46-4.46-.13-6.64.54-.1,1.06.26,3.21-.58,3.71l-16.57.13-.38-4.11c-1.93-.51-4.01.28-6-.49-.5-.2-.3-1.73-.6-2.13s-1.89-.41-1.94-.97l-.85-10.49c-.07-.86-2.03-.21-2.42-.64-.88-2.14-.15-4.5-.67-6.64h-9.34s-.23,6.7-.23,6.7l-5.86.12-.27,6.64-4.52.31.11,22.05,5.66.25.02,18.04c2.08.27,3.77-.16,5.56.3l.13,17.34,6.52.23.22,13.86c1.74.2,3.13-.15,4.69.25l.2,6.55,32.47.11c.08,2.34-.3,4.04.25,5.79,2.82-.02,5.55-.41,8.36-.12.31,1.17.06,2.34.51,3.46l7.82.37c1.56.07,3.04,1.58,5.16.83.41,1.38.05,2.29.59,3.38,1.89.12,3.41-.18,5.15.16l.28,3.9,6.68.36-.2,16.39c-2.55.39-4.81.18-6.98-.02l.25-15.05c-2.04-.42-4.45.46-5.44-.42-1.23-1.69-2.6-.93-4.33-1.21-.85-.28-.74-2.05-.93-3.23-5.99-.57-8.59,3.34-8.47-1.32-1.04-.79-7.15.78-6.91-.65l-.31-5.33c-3.68.44-7.01-.22-10.53-.33l-22.75-.72c-.87-5.27-.61-2.23-1.94-4.07-.46-.63.91-.9.82-1.42-.13-.73-1.35-.46-1.83-.48.2-.36.03-.98-.58-.97l-8.63.05-.11-15.3c-.03-4.42-6.19.89-6.09-2.26.04-1.4-.49-2.49-.72-3.33l.18-16.96c-2.07-.14-3.79.07-5.74-.27l-.1-15.02-4.84-.19c1.84-2.02-.48-2.83-.49-3.77l-.25-21.65,5.39-.24c.11-.73.02-1.2.04-1.68l-.1-4.08c1.57-.68,3.18-.64,5.2-.92.49-2.23-.3-4.84.5-6.45,2.52-1.58,5.77,1.22,6.26-.94.73-3.2-.35-1.9.35-5.72h8.14Z"/>
              <path class="cls-76" d="M116.72,32.36l-1.14.16-.2,6.08-6.22.31v11.76c-2.08.29-4.22.5-6.53.63,0,3.07.18,5.38-.14,7.87-2.12.14-3.83-.08-5.69.24-.14,2.38-.11,4.23.04,6.08.06.69-.1,1.5-.12,2.21-1.39-.23-2.91-.18-4.66.06l-.29,11.66c-1.23.32-2.21.04-3.13.54l-.41,8.25-4.83.43-.34,7.32c-.05,1.13-1.67.84-2.62,1.13l-.03,12.62c-1.22,0-2.71.2-3.89.83-.07,2.68.15,4.9-.48,7.03-1.84.21-3.54-.13-5.27.83-.26,4.18-.25,8.25,0,12.23l-6.42.49c-1.26.02-.58-10.45-.59-12.39l6.35-.29.11-8.25c1.88-.54,3.8-.1,5.83-.44l.16-17.54,3.92-.38.56-6.77c.97-.27,1.79-.25,3.1-.39.79-2.97.63-5.9.71-9.07.02-.6,1.22-.61,1.23-1l.11-7.45,4.53-.28.08-7.53,5.94-.42.21-7.65c2.03-.32,3.74-.07,5.78-.18l.21-12.39c2.3-.16,4.09.16,6.2-.23l.15-6.36c2.33-.57,4.62.4,6.52-.61-.07.44.22.44.31.62.24.47.65.23.96.22Z"/>
              <path class="cls-44" d="M195.48,20.27l-5.85-.04-.27-6.49c-2.28-.36-4.29-.25-6.82-.27-.67-2.01-.45-3.82-.44-6.57l-34.49-.15c-.03,2.32.07,4.15-.1,5.96-4.57.55-9.21.51-13.83.6.06-2.06-.18-4.15.19-6.45l13.78-.35.21-6.51,34.09.08.17,6.68,7.12.12.28,6.63,6.31.13c.07,2.22.73,4.79-.34,6.64Z"/>
              <path class="cls-93" d="M212.66,44.73c-.19,1.14-.02,2.81-.4,3.86.32.94-11.4.43-12.59.18l-.08-21.84c-.9-.76-2.24-.26-3.48-.33-.2-2.18-.25-3.99-.1-5.76,1.96-1.12,4.61-.49,6.8-.19l.42,23.87,8.39-.32c.6-.02,1.07.04,1.05.52Z"/>
              <path class="cls-8" d="M133.69,13.32l-.18,6.64-6.3.22-.38,5.99-5.4.23c-.44,2.09-.15,3.84-.24,5.76l-4.47.2c-.31.01-.72.25-.96-.22-.09-.18-.38-.17-.31-.62-.07-1.72-.21-3.5.11-5.47l5.17-.17c.33-2.16-.22-4.04.38-5.94l5.92-.17.07-6.31,6.59-.13Z"/>
              <path class="cls-46" d="M213.73,49.87c-.47.02-1.54-.89-1.48-1.27.38-1.05.21-2.72.4-3.86.53-.15,1.32.1,1.57-.24.17-.23-.2-.8-.05-1.16,1.89-.31,3.61-.68,5.43-.18-.09,2.38.22,4.36-.29,6.52-1.66.16-4.26.14-5.58.19Z"/>
              <path class="cls-68" d="M195.48,20.27c-.16.39.12.76.53.57-.16,1.77-.11,3.58.1,5.76,1.25.08,2.58-.42,3.48.33l.08,21.84c1.19.26,12.91.76,12.59-.18-.06.39,1,1.29,1.48,1.27-2.14.03-.22,3.48-1.39,5.75l-16.85-.04-.49-4.72-4.47-.57c-.22-4.52-.4-8.95-.44-13.49l-.04-4.44c0-.79-.52-.8-.98-.81l-6.83-.06c-.11-.2-.25-.18-.44-.18.84-1.55.18-3.5.1-5.56l-20.6.21c-.47,1.74-.41,3.52-.38,5.71l-6.18,1.61c.16,2.41.59,4.46-.43,6.34l-9.15.63c.46,2.93-.76,6.2.56,8.35l1.58,2.58.31,52.24-11.14.45c.14-.62-1.61-.93-1.65-1.57-.08-1.6,1.24-2.51.4-4.21l-11.09.05c-4.73-.18-9.51-.27-14.52.33-.37,1.46-.05,2.76-.14,3.98-.18,2.39-.4,4.82-.39,7.23l-28.68.03.03-12.62c.95-.28,2.57,0,2.62-1.13l.34-7.32,4.83-.43.41-8.25c.92-.51,1.9-.22,3.13-.54l.29-11.66c1.75-.25,3.26-.29,4.66-.06l-.19,7.11c2.02.26,3.13.08,4.5-.4v-6.72c-.49-.88-2.57-.19-3.37-.29-.2-.23-.23-.87-.18-1.09.09-.4-.01-1.06-.65-.84-.15-1.84-.19-3.7-.04-6.08,1.86-.33,3.56-.1,5.69-.24.32-2.49.14-4.8.14-7.87,2.31-.13,4.46-.34,6.53-.63,1.7-.24,3.84.87,6.12,0,.28-3.77.66-7.68.35-11.66,1.81.29,3.69.72,5.08-.28.32-5.47,3.09-.57,1.7-5.86,2.88-.72,6.16-.07,9.24-.46.97-.12.88-2.37.7-3.12-.42-1.68.5-2.96.92-4.25.56-1.71-.31-3.56.84-5.18l9.23-.4c1.3-.06,2.54-.27,3.65-.84l.54-5.92c.17-1.81.07-3.65.1-5.96l34.49.15c0,2.75-.23,4.56.44,6.57,2.53.02,4.54-.09,6.82.27l.27,6.49,5.85.04Z"/>
              <path class="cls-25" d="M189.08,31.54c.2,1.65.21,3.19.08,5.56l-6.76.1c-.07-2.25-.42-3.96-.16-5.71l6.83.06Z"/>
              <path class="cls-27" d="M147.52,12.71l-.54,5.92c-1.11.57-2.36.78-3.65.84l-9.23.4c-1.15,1.63-.28,3.47-.84,5.18-.42,1.28-1.34,2.56-.92,4.25.18.75.27,3-.7,3.12-3.08.39-6.36-.26-9.24.46,1.39,5.29-1.37.39-1.7,5.86-1.39,1-3.27.57-5.08.28.31,3.98-.07,7.88-.35,11.66-2.28.87-4.41-.24-6.12,0v-11.76s6.22-.31,6.22-.31l.2-6.08,1.14-.16,4.47-.2c.08-1.92-.21-3.67.24-5.76l5.4-.23.38-5.99,6.3-.22.18-6.64c4.62-.09,9.26-.05,13.83-.6Z"/>
              <path class="cls-7" d="M96.73,67.69c.02-.7.18-1.52.12-2.21.63-.22.74.44.65.84-.05.22-.01.86.18,1.09.8.1,2.87-.59,3.36.29v6.72c-1.37.47-2.47.66-4.49.4l.19-7.11Z"/>
              <g>
                <path class="cls-21" d="M181.81,31.31h-8.14c-.71,3.83.38,2.52-.35,5.72-.49,2.16-3.73-.64-6.26.94-.79,1.61,0,4.22-.5,6.45-2.02.28-3.63.24-5.2.92-1.18.51-3.5-1.2-4.92.4-.86.97-1.25,3.68-.17,4.6,1.01.57,3.82.58,4,.12l.38-.96c.05-.13.53-.37.8-.07-.02.48.07.95-.04,1.68l-5.39.24.25,21.65c.01.94,2.33,1.75.49,3.77l4.84.19.1,15.02c1.95.34,3.66.13,5.74.27l-.18,16.96c-.35-.2-.54.19-.47.48l-30,.04c.15-1.73-.76-3.98-.33-5.85l11.14-.45-.31-52.24-1.58-2.58c-1.32-2.15-.09-5.42-.56-8.35l9.15-.63c1.02-1.88.6-3.93.43-6.34l6.18-1.61c-.03-2.2-.09-3.97.38-5.71l20.6-.21c.07,2.06.74,4.01-.1,5.56Z"/>
                <path class="cls-12" d="M161.37,45.34l.1,4.08c-.27-.29-.75-.05-.8.07l-.38.96c-.19.47-2.99.46-4-.12-1.08-.91-.69-3.62.17-4.6,1.41-1.6,3.74.11,4.92-.4Z"/>
                <path class="cls-26" d="M172.63,36.72c-5.71-.37.22,1.8-4.52-.02-.42-.16-1.18.63-1.45.39-.51-1.84-.25-3.59-.16-5.43,1.97.16,4.13-.73,5.84.24,1,.87.26,3.44.29,4.82Z"/>
              </g>
            </g>
          </g>
        </g>
      </g>
      <g>
        <path class="cls-75" d="M173.22,278.95c-.34.4.03.32.19.5.39.43.38.12.66.03-.17,1.92-.32,4.08.21,6.29.32.83,2.29.21,3.06.25.96.05.37,1.85.84,2.11,1.19.65,2.99.22,4.16.36-.14.19-.08.28-.08.49l.24,12.99,5.54-.03c.09,2.31-.3,4.32.21,6.62.54.44,1.62.13,2.32.43l.16,6.11,4.65.18.2,6.83c2.39.33,4.76.53,6.86.03-.14.35-.38.33.04.57.22.12.23.53.52.37l.2,13.14,6.39.49.06,8.43,2.17.22-.18,8.55c-2.81.96-5.49-.04-7.95,1.05s-4.98.64-7.74,1.01c-.55,1.56-.12,3.25-.37,4.96l-5.48.44-.22,10.76c-.01.71-.38,1.14-.93,1.25-.25.05-.56-.07-.89-.08l-14.18-.36-.19-35.45-.35-17.14c-1.6-.38-2.72.11-4.46,0-.48-4.55-.68-8.75-.6-13.28-2.28-.29-4.37-.3-6.82.04l.12,24.23c1.89.62,3.47.12,5.18.92l.09,125.69,6.52-.03c.62,2.55.47,5.13.12,8.01l-37.03.05-.11-124.33c1.15-.99,2.34-.4,3.45-.72,1.16-1.24.16-2.89.75-4.08.56-.85,2.39-.42,3.29-.66l.57-5.1c1.46-.35,2.64.16,3.98-.39v-23.64s-3.7-.34-3.7-.34c-.22-1.56.18-2.92-.2-4.48-1.3-.24-2.32.23-3.33-.41.04-1.65.29-2.92-.05-4.24-1.58-.19-2.91.09-4.51-.37-.28-2.43-.64-4.96.22-6.81,1.66.07,3.3.43,5.19-.05l.31-4.4c1.8.03,3.66-.39,5.46-.2,4.71.5,9.45-.08,14.43-.27-.05-2.52.3-4.36-.16-6.22,3.72-.32,7.46.2,11.17-.35Z"/>
        <path class="cls-16" d="M70.97,279.27c0,2.19.51,4.77-.33,6.89-1.1-.18-2.03-.16-2.54-.1-1.04.12-.41,2-1.09,2.15l-3.9.83-.6,8.53c-1.05.4-3.03-.11-3.54.54-.47.6-1.34,2.19-.9,2.84.39.58.73.59.52,1.08-.57,1.32-1.12-3.18-1.45,5.17-1.44.35-2.84.08-4.16.61-.34,2.22.35,4.49-.42,6.71-.3.85-2.24.35-3.08.64l-.43,6.93-3.24.91c-1.15-.17-2.54-.42-3.8.06.18-.46-.03-.73-.51-.62l.21-6.67c1.71-.39,3.19-.17,5.04-.38l.13-7.65,5.26-.41.86-8.49,3.15-.56.16-9.3c2.3-.83,6.74.75,6.29-1.62-.13-.7.03-1.43.37-1.67.21-.14.82-.11,1.15-.31.58-1.93.16-3.74.32-6.1,2.37-.17,4.49-.26,6.53,0Z"/>
        <path class="cls-5" d="M189.48,299.56l-.09,2.19,3.59-.13c4.17-1.41-.56,9.22,4.46,7.04.74,2.14.38,4.26.56,6.57,1.42.18,2.5.12,4.43.09.27,2.25.86,4.79.02,6.83-2.1.5-4.47.3-6.86-.03l-.2-6.83-4.65-.18-.16-6.11c-.71-.3-1.78.01-2.32-.43-.51-2.3-.12-4.31-.21-6.62l-5.54.03-.24-12.99c2.11-.57,4.52-.31,6.93-.1.17,4.01.43,7.35.29,10.69Z"/>
        <g>
          <path class="cls-88" d="M70.18,511.35l-2.06.37-37.12-.27-5.54-.66c-1.62-.19-2.73-1.26-4.88-.93-1.64.26-2.74-2.74-2.17-4.08.44-1.03,1.62-2.85,3.36-2.65,1.65.19,2.85-.99,4.25-.99l36.26-.22c2.77-.02,5.3.38,7.76-.14.19,3.18.34,6.38.14,9.57Z"/>
          <path class="cls-88" d="M175.01,511.34l.14-9.57,34.17.36c2.41.03,5.04.7,7.34.33,2.57-.41,8.86,1.36,8.91,2.19l.15,2.37c.03.52,0,1.47-.18,1.94-.14.35-.76.05-1.38.67-1.2.96-3.3.22-4.6,1.03-1.23.76-2.82.77-4.19.27s-2.09.72-3.26.71l-33.54-.1c-1.32,0-2.51-.22-3.56-.21Z"/>
          <path class="cls-66" d="M130.05,501.19c0,3.2.41,6.45.02,9.65-2.21,1.17-12.2,1.36-14.29-.06-.15-3.17-.47-6.5.28-9.58h13.99Z"/>
        </g>
        <path class="cls-23" d="M182.34,288.49c-1.17-.14-2.97.3-4.16-.36-.47-.26.11-2.06-.84-2.11-.77-.04-2.74.59-3.06-.25-.53-2.21-.38-4.37-.21-6.29,1.99-.64,4.28-.34,6.61-.22.4,2-.3,3.61.23,5.33.22.72,1.93.44,1.63,1.43-.28.92.29,1.8-.2,2.46Z"/>
        <path class="cls-29" d="M192.98,301.62l-3.59.13.09-2.19c2.77.29-.78.29,3.5,2.06Z"/>
        <path class="cls-29" d="M42,323.06c-.33.13-.41.03-.66-.12-.15-.23-.1-.4.15-.5.47-.11.69.16.51.62Z"/>
        <path class="cls-29" d="M193.1,299.02c.56.3.32.59-.3.65-1.25-.08-1.08-.73.3-.65Z"/>
        <path class="cls-71" d="M188.07,373.3c-.5,2.96-.4,6.43-.03,9.41,3.21.33.46,2.03,2.61,6.69.86,1.88-.15,4.16.57,6.15,1.44.28,2.66.08,3.95.53.5,12.64-.09,25.09,1.04,37.33.22,2.34-1.42,5.64.52,8.01.47.58,2.82-.73,2.69.55l.41,11.21c.24,6.61.34,12.97.06,19.91l-63.25.17c-.58-2.54-.17-4.93-.17-7.27l37.03-.05c.35-2.88.5-5.46-.12-8.01l-6.52.03-.09-125.69c-1.71-.81-3.29-.31-5.18-.92l-.12-24.23c2.45-.33,4.54-.33,6.82-.04-.07,4.52.12,8.73.6,13.28,1.73.1,2.86-.39,4.46,0l.35,17.14.19,35.45,14.18.36Z"/>
        <path class="cls-40" d="M108.91,465.98c0,2.36.23,4.73-.17,7.28l-63.7-.14c-.2-10.78-.37-21.09.76-31.54.97-.45,1.89-.22,2.85-.52l.33-8.22.21-19.35c.97-.31,2.01-.44,2.28-1.37.21,1.13.65,2.28.67,3.78l.32,35.03c0,.44.21.65.28.83.15.36.73.09,1.15.26.95,1.8-.68,3.92.93,5.64.36.39,1.01-.08,1.5,0l.58,8.18,52.02.15Z"/>
        <path class="cls-29" d="M130.05,501.19h-13.99c-.92-6.55-.11-13.29-.38-20.43l14.4.03-.03,20.4Z"/>
        <path class="cls-32" d="M108.74,291.05c-3.58.22-7.38.29-11.23-.62-.46-.16-.07-1.59-.38-1.87-.43-.39-1.45.01-1.97-.52-.57-.59-.32-2.11-1.36-2.19l-9.38-.67c-.5-2.02-.36-3.94-.31-5.79,4.02.13,8.18.02,12.44,1.46l.54,4.89c3.95.05,7.62-.05,11.6.46.41,1.79.74,3.48.05,4.84Z"/>
        <path class="cls-103" d="M162.05,279.3c.46,1.86.11,3.7.16,6.22-4.99.19-9.72.77-14.43.27l.52-4.69c4.51-1.73,9.22-1.41,13.76-1.8Z"/>
        <path class="cls-55" d="M57.35,381.26c.06,2.2.25,4.37.03,6.83-1.63.41-3.26.41-4.75.15.09-2.22-.2-4.49.03-6.78l4.68-.2Z"/>
        <path class="cls-107" d="M199.41,441.97c.13-1.28-2.22.02-2.69-.55-1.94-2.37-.31-5.67-.52-8.01.92-.11,1.87-.11,2.59.27,1.85.97.74,11.67.62,8.3Z"/>
        <path class="cls-96" d="M45.8,322.99c.69,1.5.92,4.58-.37,5.7-1.19.48-2.85-.28-3.67.29.07-1.95-.46-4.03.24-5.92,1.26-.48,2.65-.23,3.8-.06Z"/>
        <path class="cls-45" d="M142.32,285.98l-.31,4.4c-1.88.48-3.53.12-5.19.05-.07-1.04-.65-3.29.61-4.12,1.32-.88,3.49-.34,4.89-.32Z"/>
        <g>
          <path class="cls-6" d="M174.15,234.08c.24,2.27.14,4.61-.03,7.25l-5.68.3-.28,6.67c-.84.37-1.69.34-2.44.38-1.52.09-3.03-.33-4.87.04-.47,2-.56,3.62-.47,5.73,1.55.25,2.88-.22,4.2-.15s2.58-.02,3.94.37c.12,1.52-.15,2.71.16,4.11,1.98.17,3.66-.2,5.72.19-.06,7.67.56,13.03-1.18,19.96-3.71.55-7.45.03-11.17.35-4.53.39-9.24.07-13.76,1.8l-.52,4.69c-1.8-.19-3.66.23-5.46.2-1.4-.02-3.56-.56-4.89.32-1.25.84-.68,3.08-.61,4.12-.85,1.84-.5,4.38-.22,6.81,1.6.46,2.92.18,4.51.37.34,1.32.1,2.59.05,4.24,1.01.65,2.03.17,3.33.41.38,1.56-.02,2.92.2,4.48l3.7.34v23.64c-1.34.55-2.52.05-3.98.39l-.57,5.1c-.9.24-2.74-.2-3.29.66-.59,1.18.41,2.84-.75,4.08-1.11.32-2.31-.27-3.45.72l.11,124.33c0,2.34-.41,4.73.17,7.27l63.25-.17c.28-6.93.17-13.29-.06-19.91l-.41-11.21c.12,3.37,1.23-7.32-.62-8.3-.72-.38-1.67-.38-2.59-.27-1.13-12.24-.53-24.69-1.04-37.33-1.29-.45-2.51-.25-3.95-.53-.72-1.99.3-4.27-.57-6.15-2.15-4.66.61-6.36-2.61-6.69-.37-2.99-.47-6.45.03-9.41.33,0,.65.12.89.08.55-.11.92-.54.93-1.25l.22-10.76,5.48-.44c.25-1.72-.18-3.4.37-4.96,2.76-.36,5.32.07,7.74-1.01s5.14-.09,7.95-1.05l.18-8.55-2.17-.22-.06-8.43-6.39-.49-.2-13.14c-1.69-.96,6.87-.74,6.64-.33l.15,13.37,6.17.23.15,8.82,2.87.37-.32,27.19c-3.06,1.02-.74,5.32-2.08,6.38-.8.64-4.31-.38-5.59,1.18-1.86,2.26-.43,3.75-1.25,7.17l-10.88.16c.03,2.66-.26,5.06.08,7.63,1.36.26,2.42-.2,3.63.38l.39,46.16,4.16.18.03,38.74-38.57.08.14,14.53h6.14s.28,6.46.28,6.46l-.14,9.57-43.83.61c-.72.01-1.23-.71-1.11-1.11.39-3.2-.03-6.46-.02-9.65l.03-20.4-14.4-.03c.27,7.14-.54,13.88.38,20.44-.75,3.08-.43,6.41-.28,9.58.25.45-.25.88-.56.98-.25.08-.73.25-1.25.24l-43.79-.65c.2-3.19.05-6.38-.14-9.57-.12-1.99.51-4.09.18-6.38l6.29-.12-.14-14.52-38.55-.03-.08-38.68c1.34-.53,2.43-.13,3.97-.33l.07-46.12,4.04-.43-.05-7.65-10.32-.24-.21-7.14c-2.07-1.27-4.41-.74-6.57-1.62-1.39-.83.74-5.91-2.2-6.21l-.18-26.81c1.14-.56,1.98.03,2.63-.63l.15-8.09,5.91-.36.42-13.46c2.3,0,4.18-.32,5.95-.01.24.15.32.25.66.12-.71,1.89-.17,3.97-.24,5.92-.09,2.35-.23,4.67-.18,7.45l-5.83.26c-.71,2.46-.14,5.04-.59,7.7-.55,3.22-1.18,6.4-.76,9.55,2.49.6,4.61.42,6.79.86l8.17,1.66c.87.68.28,2.67.45,4.2,1.59.44,3.09.15,4.87.45l.05,11.56c.91.62,1.75.4,2.56.8.26,2.73,0,5.27.06,7.81l-4.68.2c-.23,2.29.06,4.57-.03,6.78l-.29,6.94c-.17.6-1.26.49-1.91.96.18,3.14-.62,6.38.32,9.34.73,2.29.32,4.53.72,6.64-.28.92-1.31,1.05-2.28,1.37l-.21,19.35-.33,8.22c-.97.3-1.88.06-2.85.52-1.13,10.46-.96,20.76-.76,31.54l63.7.14c.41-2.54.17-4.91.17-7.28l.13-124.72-4.27-.46c-.57-1.33-.21-2.66-.51-4.16l-3.04-.26c-.4-1.72-.21-3.2.05-4.86-1.27-.62-2.6-.38-4.65-.43l-.12-23.96c1.25-.43,2.37-.24,3.79-.44.6-1.32-.45-3.08.58-4.3.5-.59,2.25.41,2.7-.5.58-1.2.04-2.51.36-3.87,1.78-.11,3.49,0,4.7-1.07.02.68-.32,1.46-.22,2.24-.86.37-1.48.82-1.78,1.26-.51.74.58,1.64.44,2.42-.43,2.54-3.13,3.84-5.61,3.86-.98,4.51-.75,8.68-.56,13.2.15,3.58-.56,7.81,1.19,11.14.59,1.11,2.87,1.02,3.14,3.17s3.55,2.11,4.61,3.43c.37,1.62,2.3,3.2,4.49,3.43,5.45.57,11.07.16,16.77.22,2.42.03,4.25-.99,4.75-3.21.53-2.38,4.09-1.33,4.15-4.83.69-.99,2.16-1.16,3.15-1.94,1.42-4.45,1.1-2.38.34-7.25,1.53-5.31.58-11.07.26-16.77l-3.07-.31-.98-1.44c.44-1.07-.61-2.28.43-3.73-2.52-.83-4.26-2.75-4.64-5.56-2.38,1.11-4.67-2.89-4.78-2.92-2.26-.53-18.4-.36-21.46.32-.03-.87,0-1.81-.51-2.58.69-1.36.36-3.06-.05-4.84-3.97-.51-7.64-.41-11.6-.46l-.54-4.89c-4.26-1.44-8.42-1.33-12.44-1.46-6.16-.2-5.43-2.57-12.29-4.76-.17-1.05-.92-2.13-.93-3.35l-.12-12.21,5.57-.36c1.16-.08-.41-3.55.87-4.15.27-.13.7-.23,1.08-.27l5.54.05c.21-1.96.21-3.65,0-5.68-1.98-.26-3.76-.1-5.53.02-2.06,1.29-1.83-5.74-.94-6.86,2-.18,4.06-.21,6.4.03l.11,6.04c2.32.42,4.54.11,6.71.1s4.24.19,6.35-.07l.31,4.12,12.14.41c.2,1.28-.03,2.19.24,3.12l9.21.17c2.29.04,4.48,0,6.78-.03l10.02-.12c.42-1.11-.27-2.21.56-3.25l11.96-.02c.03-1.62-.2-2.7.25-4.28l5.64-.07c2.2-.03,4.48.12,7.15.05l.24-6.14c2.07-.08,4.12-.19,6.46-.5l.12-6.85,6.17-.41Z"/>
          <g>
            <g>
              <path class="cls-22" d="M128.51,361.45l-.05,104.45c-3.94-.33-7.96-.24-11.9.03l-.24-104.54,12.19.06Z"/>
              <path class="cls-69" d="M86.79,502.7c-.05-2.07.27-3.94.88-6.71-1.49-.06-3.09-.79-4.45-.6-.94-1.85.6-3.82.37-5.19-.19-1.11-1.37-2.97-.32-4.57h21.66c1.1,0,3.01-.8,3.65.09.39,5.35.7,11.93.05,17.69-7.43-.58-14.92.88-21.84-.71Z"/>
              <path class="cls-61" d="M151.01,495.54l17.39.27c.35,2.39.07,4.52.07,7.37l-25.65.09c.42-3.93-.73-7.92.34-11.59,1.1-1.43,3.05-2.89,1.56-5.88l17.13-.13c.09,1.9.31,3.52.03,5.33-3.4.13-6.71-.61-9.88.32-1.08.35-1.16,2.92-.98,4.21Z"/>
              <path class="cls-62" d="M211.11,373.67c-1.2-.01-2.98-.41-4.11.36-.48.33-.56,5.27-.62,5.18.16.22.71.15.99.32-1.62,1.42-4.07,1.01-6.47.81.07-1.9-.32-3.78.04-5.52.49-2.4.6-4.97.46-7.73-2.23.08-3.68-.06-5.13.2-.05-1.78-.74-3.79-.08-5.9l15.43-.17c-.02,3.63-.2,6.61.05,9.82.08,1.11-.53,1.84-.54,2.63Z"/>
              <path class="cls-65" d="M49,366.84c-1.38-.4-2.91-.24-4.37.26l.1,6.47c-1.37-.59-2.91.38-4.28.11-1.56-.45-3.18-.43-5.14-.46-.34.3-.42.81-.73.56-1.64-4-.48-8.7-.74-13.17l15.99.56c.23,1.31,1.01,6.49-.83,5.69Z"/>
              <path class="cls-28" d="M128.45,465.91c0,2.13.87,4.38.17,6.91-4.04.36-8.28.23-12.27.12-.88-2.51.21-4.96.21-7,3.94-.27,7.96-.35,11.9-.03Z"/>
              <path class="cls-42" d="M128.71,352.93c-.76.36-1.23,1.1-2.14.55-.7-.43-1.06-1.13-.43-2.26-3.25-1.08-6.57-.45-9.88-.49-.24-1.78-.36-3.66.08-5.62,4.24-.36,8.25-.37,12.41-.05.2,2.87.16,5.36-.04,7.87Z"/>
              <path class="cls-10" d="M86.79,502.7c-.58.1-1.16.76-2.09.74l-7.79-.15c-.3-2.48-.31-4.82,0-7.35,2.2-.19,4.25-.26,6.31-.55,1.36-.19,2.95.54,4.45.6-.61,2.77-.93,4.64-.88,6.71Z"/>
              <path class="cls-91" d="M128.47,355.66c1.16,1.75.04,4.12.04,5.8l-12.19-.06c0-1.94-.86-4.04.44-5.31l11.72-.43Z"/>
              <path class="cls-85" d="M128.71,352.93c-.09,1.12.36,2.15-.24,2.73l-11.72.43c-.93-1.62-.53-3.53-.49-5.35,3.3.04,6.63-.59,9.88.49-.63,1.13-.28,1.83.43,2.26.91.55,1.38-.19,2.14-.55Z"/>
              <path class="cls-63" d="M44.73,373.57c.03,1.71.92,4.75-.3,6.22-1.78,2.15-7.18-1.68-9.87-.81.13-.52.83-.69.29-.97-.36-.19-.14-.35-.22-.63.34-.4,2.96,2.42,4.79,1.03,1.55-1.18.89-2.35,1.04-4.74,1.36.27,2.9-.69,4.28-.11Z"/>
              <path class="cls-77" d="M200.93,374.83c.32-2.08-2.17-.14-4.52-1.38l-.16-6.14c1.45-.25,2.9-.12,5.13-.2.14,2.75.03,5.33-.46,7.73Z"/>
              <path class="cls-13" d="M40.46,373.67c-.15,2.4.51,3.56-1.04,4.74-1.83,1.38-4.45-1.43-4.79-1.03-.33-1.08.38-2.59-.04-3.62.31.26.39-.26.73-.56,1.96.03,3.57.01,5.14.46Z"/>
              <path class="cls-24" d="M49,366.84l-.32,6.55c-1.57-.2-2.95.61-3.95.18l-.1-6.47c1.46-.49,2.99-.66,4.37-.26Z"/>
              <path class="cls-15" d="M211.11,373.67l-.06,5.93c-1.75-.47-2.92-.74-3.68-.07-.28-.17-.84-.1-.99-.32.06.09.14-4.85.62-5.18,1.13-.77,2.91-.37,4.11-.36Z"/>
            </g>
            <g>
              <path class="cls-57" d="M92.14,255.91c-.06-.08-.33-.04-.55.11.67,2.23.41,4.82,1.45,6.88.79.97,3.02.62,3.92.51.43,1.44-.03,4.22,2.48,4.36,3.66,4.81,7.79,8.96,12.2,13.74l-9.01-3.78-8.46-3.6c-2.19-.93-3.97-2.62-6.86-1.99-1.12.25-2.17-.48-3.18-.84-2.25-.8-4.59-.28-6.9-.75l-.3-11.13c2.08-.7,4.05-.15,6.26-.21.6-1.18.32-2.36.52-4.32l7.4.27c.61.02.87.46,1.04.75Z"/>
              <path class="cls-82" d="M148.24,263.43c1.35.29,2.76-.16,4.1-.03,2.84.28,5.73.05,8.78.15.38-1.4.14-2.46.34-3.97.58-.12,1.15.24,1.09-.37,1.81.04,3.63-.07,5.54.18.39,2.63-.3,8.2-.77,11.36-2.28.31-4.23.17-6.32.31-.62.04-.83.97-1.65,1.07-2.16.27-5.27-.3-6.68,1.31-1.69,1.94-3.96,1.79-6.01,2.72l-9.18,4.16c-1.57.71-3.25,1.08-4.05,2.89-.77-1.74,1.15-1.62,1.81-2.38l10.41-12.14c1.44-1.69,2.51-3.22,2.61-5.27Z"/>
              <path class="cls-29" d="M128.86,270.72c-.51,1.3-.09,2.77-.23,4.33,2.2.21,3.62-.33,5.18.3-1.85.72-3.51.06-5.11.48l-.13,7.26c2.21,3.66-9.63,1.54-12.06,1.91-.37-3.09-1.06-5.81-.95-8.78-1.62-.6-3.23.43-4.58-.32s-1.86-2.81-1.97-4.17c.22-1.05,4.47-.52,6.58-.86,4.32-.71,8.94-.15,13.27-.13Z"/>
              <path class="cls-97" d="M136.48,271.29c0-.4-.54-.53-1.1-.53l-6.52-.04c-4.33-.03-8.96-.58-13.27.13.73-2.23-.08-4.62.42-6.92,5.79-.38,11.65-.34,17.73.15,1.23.1,1.59-.58,2.02-1.31.18.69.12,1.59.64,1.98.58.43,1.35.31,2.16.23,4.7-.43-1.73,5.5-2.08,6.3Z"/>
              <path class="cls-37" d="M135.76,262.77c-.43.73-.8,1.41-2.02,1.31-6.08-.49-11.94-.54-17.73-.15-2.2.15-4.53.47-6.66.02.11-1.63-.28-3.23.13-5.16l26.11.08c.56,1.38-.14,2.69.18,3.9Z"/>
              <path class="cls-47" d="M162.54,259.22c.06.61-.52.24-1.09.37-.2,1.52.04,2.57-.34,3.97-3.05-.11-5.93.13-8.78-.15.15-1.99,0-4.06.6-5.95l.64-1.98,6.94-.48c2.2-.15-.03,4.56,2.02,4.23Z"/>
              <path class="cls-78" d="M116,263.93c-.5,2.29.32,4.69-.42,6.92-2.12.35-6.36-.19-6.58.86-.11-1.42-3.49-2.99-4.04-6.4,1.63-.7,3.77.41,4.38-1.35,2.13.44,4.46.12,6.66-.02Z"/>
              <path class="cls-72" d="M136.48,271.29c-.88,2.05-1.09,4-2.78,5.94s-2.84,4.52-5.14,5.85l.13-7.26c1.6-.42,3.26.24,5.11-.48-1.56-.62-2.97-.08-5.18-.3.15-1.56-.28-3.03.23-4.33l6.52.04c.56,0,1.09.13,1.1.53Z"/>
              <path class="cls-11" d="M96.96,263.42c-.9.11-3.13.46-3.92-.51-1.04-2.06-.78-4.66-1.45-6.88.22-.15.49-.19.55-.11.96,1.63,2.91,1.15,4.56,1.75.19,2.07.41,4,.25,5.76Z"/>
              <path class="cls-11" d="M152.94,257.45c-.61,1.89-.45,3.96-.6,5.95-1.34-.13-2.75.32-4.1.03.08-1.73-.35-3.46.13-5.38l4.57-.6Z"/>
            </g>
          </g>
        </g>
        <g>
          <path class="cls-75" d="M84.11,279.39c-.05,1.85-.19,3.77.31,5.79l9.38.67c1.04.07.79,1.6,1.36,2.19.52.53,1.54.13,1.97.52.31.28-.07,1.71.38,1.87,3.85.91,7.65.84,11.23.62.5.77.48,1.71.51,2.58-.75.93-.64,2.16-.62,3.28-1.21,1.07-2.93.96-4.7,1.07-.32,1.36.21,2.68-.36,3.87-.44.92-2.2-.09-2.7.5-1.03,1.22.02,2.98-.58,4.3-1.43.2-2.55.02-3.79.44l.12,23.96c2.05.06,3.38-.19,4.65.43-.26,1.66-.45,3.14-.05,4.86l3.04.26c.3,1.5-.06,2.83.51,4.16l4.27.46-.13,124.72-52.02-.15-.58-8.18c-.49-.08-1.14.39-1.5,0-1.61-1.72.02-3.84-.93-5.64-.42-.16-1,.11-1.15-.26-.07-.18-.27-.38-.28-.83l-.32-35.03c-.01-1.5-.46-2.64-.67-3.78-.39-2.11,0-4.35-.72-6.64-.94-2.95-.14-6.19-.32-9.34.65-.46,1.74-.36,1.91-.96l.29-6.94c1.49.25,3.12.25,4.75-.15.22-2.45.03-4.63-.03-6.83-.07-2.54.2-5.08-.06-7.81-.81-.39-1.65-.17-2.56-.8l-.05-11.56c-1.78-.3-3.28,0-4.87-.45-.16-1.52.42-3.52-.45-4.2l-8.17-1.66c-2.18-.44-4.3-.26-6.79-.86-.42-3.15.21-6.33.76-9.55.46-2.66-.12-5.24.59-7.7l5.83-.26c-.05-2.79.09-5.11.18-7.45.82-.57,2.48.19,3.67-.29,1.29-1.12,1.06-4.19.37-5.7l3.24-.91.43-6.93c.84-.29,2.79.21,3.08-.64.77-2.22.08-4.48.42-6.71,1.32-.53,2.72-.25,4.16-.61.33-8.36.88-3.85,1.45-5.17.21-.48-.13-.5-.52-1.08-.44-.65.44-2.24.9-2.84.51-.65,2.49-.14,3.54-.54l.6-8.53,3.9-.83c.69-.15.06-2.03,1.09-2.15.51-.06,1.44-.09,2.54.1.83-2.12.34-4.71.33-6.89,1.15,1.15.65-5.9.85-4.64,6.86,2.19,6.13,4.57,12.29,4.76Z"/>
          <path class="cls-34" d="M76.41,350.45c-1.69.43-3.37.18-5.12-.29l.46-19.14c1.54-.54,3.08-.71,4.79-.23l-.13,19.67Z"/>
        </g>
        <g>
          <path class="cls-99" d="M139.7,305.53c-1.78.5-2.03-1.88-2.92-2.57-2.04-1.59-2.64,1.25-5.85-5.1-2.24-.31-4.81-.32-6.68.09-.8.18-2.47.17-3.28.03-2.07-.53-4.47-.43-6.91.06-3.51,8.52-5.13.35-6.5,7.92-1.69-.39-2.72,1.3-3.05,2.75-.19.83-1.24,6.56.46,5.93-.33.61-1.16.43-1.11,1.28.04.6.17,1.13.44,1.69-1.09,1.51-.45,3.7-.16,5.65,1.55-.14,2.57-.82,3.56-.29.41.22.06,1.06-.15,1.28-.07.07-2.75.05-3.01.71s-.16,1.31-.08,1.97c.17,1.28,3.32.18,3.8,1.15.77,1.55-1.7,3.92.41,4.24.99.15,1.98-.17,2.7-.12.12.44.56.87,1,.98-.34,1.22.3,2.44.64,3.6-1.16-.14-2.04.76-3.14.82-1.06-1.31-4.34-1.31-4.61-3.43s-2.55-2.05-3.14-3.17c-1.76-3.34-1.05-7.56-1.19-11.14-.19-4.52-.42-8.7.56-13.2,2.49-.02,5.18-1.31,5.61-3.86.13-.78-.96-1.68-.44-2.42.3-.44.92-.89,1.78-1.26-.1-.77.24-1.56.22-2.24-.03-1.11-.13-2.35.62-3.28,3.06-.67,19.2-.84,21.46-.32.11.02,2.4,4.03,4.78,2.92.38,2.8,2.12,4.73,4.64,5.56-1.04,1.45,0,2.66-.43,3.73Z"/>
          <path class="cls-29" d="M139.7,305.53l.98,1.44c-.1.43-.8,1.27-1.29.9s-.5-.92-1.13-.86c-.32.03-1.01-.02-1.16.29-.2.4-.41,1.65.29,1.81,1.25.28,2.12-.36,3.37.04.52,1.68.63,3.81-.05,5.34l-16.37-.11-.1-16.43c1.87-.41,4.45-.41,6.68-.09,3.21,6.35,3.81,3.51,5.85,5.1.89.69,1.14,3.06,2.92,2.57Z"/>
          <path class="cls-67" d="M139.93,328.02c-.34.25-1.2,5.27.07,5.21-.06,3.5-3.62,2.46-4.15,4.83-.5,2.22-2.33,3.24-4.75,3.21-5.69-.06-11.31.35-16.77-.22-2.19-.23-4.12-1.81-4.49-3.43,1.1-.06,1.99-.96,3.14-.82,6.37.76,12.9.31,19.61.09.11-1.21-.08-2.4.31-3.22.28-.19.79-.47.77-.91.91-.32,2.04-.22,3.18-.2l.1-4.9,2.97.37Z"/>
          <path class="cls-19" d="M140.68,306.97l3.07.31c.32,5.7,1.27,11.46-.26,16.77-1.31-.62-2.06-.73-2.95.08s-3.41.8-4-.46c1.21-1.2,2.6-.42,4.23-.25.97-2.14.64-4.31.33-6.19-.14-.88.12-2-.39-2.72.67-1.53.57-3.66.05-5.34-1.25-.4-2.12.24-3.37-.04-.7-.16-.49-1.41-.29-1.81.16-.32.85-.26,1.16-.29.63-.07.67.5,1.13.86.49.38,1.19-.47,1.29-.9Z"/>
          <path class="cls-95" d="M143.49,324.05c.77,4.87,1.08,2.8-.34,7.25-.99.78-2.46.95-3.15,1.94-1.27.05-.41-4.96-.07-5.21,1.15-.86.74-2.65.61-3.89.89-.81,1.64-.7,2.95-.08Z"/>
          <path class="cls-70" d="M124.24,297.96l.1,16.43,16.37.11c.52.72.25,1.84.39,2.72l-16.29.02c-.28,1.92-1.5,1.84-3.03,1.82-3.57-.05-.77-8.78-1.22-4.95.64-5.4.08-10.8.4-16.11.81.13,2.48.14,3.28-.03Z"/>
          <g>
            <path class="cls-29" d="M120.96,297.99c-.33,5.31.23,10.71-.4,16.11.45-3.83-2.35,4.9,1.22,4.95,1.54.02,2.76.1,3.03-1.82l16.29-.02c.31,1.89.64,4.06-.33,6.19-1.63-.17-3.02-.94-4.23.25.6,1.26,3.1,1.29,4,.46.13,1.25.54,3.04-.61,3.89l-2.97-.37-.1,4.9c-1.15-.02-2.28-.12-3.18.2-1.5-.46-1.65-2.38-3.14-3.49-1.1.53-.49,1.57-.15,2.29.65,1.34,3.37.75,2.52,2.11-.39.83-.2,2.01-.31,3.22-6.71.22-13.24.67-19.61-.09-.34-1.17-.98-2.38-.64-3.6.08-.07.18-.65.52-.55,1.31.35,1.82-.68,1.95-1.48.07-.41-.04-1.14-.88-.81-.86,1.03-1.33,1.95-2.59,1.85-.72-.06-1.71.26-2.7.12-2.12-.32.35-2.69-.41-4.24-.48-.97-3.62.13-3.8-1.15-.09-.65-.17-1.33.08-1.97s2.95-.64,3.01-.71c.21-.22.56-1.06.15-1.28-.99-.53-2.01.15-3.56.29-.29-1.95-.92-4.14.16-5.65.96-.48,2.07.28,3.43-.29.73-.3.81-2.33.09-2.54-1.23-.37-2.11.15-2.86-.15-1.7.63-.64-5.11-.46-5.93.85-.2,2.06.87,3.13.3.88-.47.28-2.38-.08-3.05,1.38-7.57,2.99.6,6.5-7.92,2.44-.49,4.84-.59,6.91-.06Z"/>
            <g>
              <path class="cls-84" d="M104.29,317.63c-.28-.56-.41-1.1-.44-1.69-.05-.86.78-.67,1.11-1.28.75.3,1.63-.22,2.86.15.72.21.64,2.24-.09,2.54-1.36.56-2.47-.2-3.43.29Z"/>
              <path class="cls-102" d="M107.55,305.97c.37.67.97,2.58.08,3.05-1.07.57-2.28-.5-3.13-.3.33-1.45,1.36-3.14,3.05-2.75Z"/>
              <path class="cls-98" d="M112.35,333.2c-.44-.12-.88-.54-1-.98,1.25.1,1.73-.83,2.59-1.85.84-.33.95.39.88.81-.14.79-.64,1.83-1.95,1.48-.34-.09-.44.49-.52.55Z"/>
              <path class="cls-9" d="M133.68,332.76c.02.44-.49.73-.77.91.85-1.37-1.87-.77-2.52-2.11-.35-.71-.95-1.76.15-2.29,1.5,1.11,1.64,3.02,3.14,3.49Z"/>
              <path class="cls-36" d="M123.33,331.2c1.42.06.74,4.7.5,5-.61.75-1.78.66-2.47.02-.52-.48-.27-4.34-.14-4.61.3-.61,1.31-.44,2.1-.41Z"/>
            </g>
          </g>
        </g>
      </g>
    </g>
  </g>
</svg>