<?xml version="1.0" encoding="UTF-8"?>
<svg id="_レイヤー_2" data-name="レイヤー 2" xmlns="http://www.w3.org/2000/svg" viewBox="0 0 303.7 512">
  <defs>
    <style>
      .cls-1 {
        fill: #9fa3bf;
      }

      .cls-2 {
        fill: #8e90af;
      }

      .cls-3 {
        fill: #e9b1a9;
      }

      .cls-4 {
        fill: #d0d3e2;
      }

      .cls-5 {
        fill: #947478;
      }

      .cls-6 {
        fill: #f4d089;
      }

      .cls-7 {
        fill: #f0f4fb;
      }

      .cls-8 {
        fill: #eab9af;
      }

      .cls-9 {
        fill: #a6aac3;
      }

      .cls-10 {
        fill: #8a6575;
      }

      .cls-11 {
        fill: #cfd2e1;
      }

      .cls-12 {
        fill: #f7d4bd;
      }

      .cls-13 {
        fill: #b28b82;
      }

      .cls-14 {
        fill: #f8d5c3;
      }

      .cls-15 {
        fill: #f4f7fc;
      }

      .cls-16 {
        fill: #f8cbba;
      }

      .cls-17 {
        fill: #fbdbc5;
      }

      .cls-18 {
        fill: #6f5d73;
      }

      .cls-19 {
        fill: #a1a4be;
      }

      .cls-20 {
        fill: #aab0c8;
      }

      .cls-21 {
        fill: #dce0ec;
      }

      .cls-22 {
        fill: #cad4e5;
      }

      .cls-23 {
        fill: #5d526d;
      }

      .cls-24 {
        fill: #aaafc8;
      }

      .cls-25 {
        fill: #bcc3d7;
      }

      .cls-26 {
        fill: #fff;
      }

      .cls-27 {
        fill: #eddbd9;
      }

      .cls-28 {
        fill: #c0c4d7;
      }

      .cls-29 {
        fill: #adb2ca;
      }

      .cls-30 {
        fill: #f8e9e1;
      }

      .cls-31 {
        fill: #b0a3a9;
      }

      .cls-32 {
        fill: #887280;
      }

      .cls-33 {
        fill: #c7d1e3;
      }

      .cls-34 {
        fill: #fffffd;
      }

      .cls-35 {
        fill: #9092b0;
      }

      .cls-36 {
        fill: #f9dac3;
      }

      .cls-37 {
        fill: #d69f96;
      }

      .cls-38 {
        fill: #b1b7cd;
      }

      .cls-39 {
        fill: #9798b5;
      }

      .cls-40 {
        fill: #9898b8;
      }

      .cls-41 {
        fill: #a1a2c0;
      }

      .cls-42 {
        fill: #e3b0a3;
      }

      .cls-43 {
        fill: #9495b3;
      }

      .cls-44 {
        fill: #7d7899;
      }

      .cls-45 {
        fill: #b8c0d5;
      }

      .cls-46 {
        fill: #b5bbd1;
      }

      .cls-47 {
        fill: #c4ccde;
      }

      .cls-48 {
        fill: #f1c6b2;
      }

      .cls-49 {
        fill: #a8abc5;
      }

      .cls-50 {
        fill: #f0c5b3;
      }

      .cls-51 {
        fill: #836876;
      }

      .cls-52 {
        fill: #bfc7da;
      }

      .cls-53 {
        fill: #d1aba4;
      }

      .cls-54 {
        fill: #85809f;
      }

      .cls-55 {
        fill: #a7adc5;
      }

      .cls-56 {
        fill: #bbc3d7;
      }

      .cls-57 {
        fill: #e2e7f1;
      }

      .cls-58 {
        fill: #8a87a5;
      }

      .cls-59 {
        fill: #cad3e4;
      }

      .cls-60 {
        fill: #9fa2bd;
      }

      .cls-61 {
        fill: #ebbcb0;
      }

      .cls-62 {
        fill: #cad4e4;
      }

      .cls-63 {
        fill: #ebeff7;
      }

      .cls-64 {
        fill: #a2a6bf;
      }

      .cls-65 {
        fill: #fafcfe;
      }

      .cls-66 {
        fill: #534857;
      }

      .cls-67 {
        fill: #a2a8c3;
      }

      .cls-68 {
        fill: #b1b7ce;
      }

      .cls-69 {
        fill: #f6d58b;
      }

      .cls-70 {
        fill: #aab0c9;
      }

      .cls-71 {
        fill: #907b89;
      }

      .cls-72 {
        fill: #b3bad1;
      }

      .cls-73 {
        fill: #7e6272;
      }

      .cls-74 {
        fill: #715e74;
      }

      .cls-75 {
        fill: #9ca0bb;
      }

      .cls-76 {
        fill: #d6d9e7;
      }

      .cls-77 {
        fill: #8787a6;
      }

      .cls-78 {
        fill: #b6bcd2;
      }

      .cls-79 {
        fill: #ccd1e2;
      }

      .cls-80 {
        fill: #51414f;
      }

      .cls-81 {
        fill: #dda69c;
      }

      .cls-82 {
        fill: #ced2e2;
      }

      .cls-83 {
        fill: #736072;
      }

      .cls-84 {
        fill: #8482a4;
      }

      .cls-85 {
        fill: #8d8fae;
      }

      .cls-86 {
        fill: #917077;
      }

      .cls-87 {
        fill: #aaadc6;
      }

      .cls-88 {
        fill: #f9ddc7;
      }

      .cls-89 {
        fill: #c0c4d6;
      }

      .cls-90 {
        fill: #5a506c;
      }

      .cls-91 {
        fill: #f7cebb;
      }

      .cls-92 {
        fill: #dcafac;
      }

      .cls-93 {
        fill: #dbdfeb;
      }

      .cls-94 {
        fill: #8e90ae;
      }

      .cls-95 {
        fill: #e7baa9;
      }

      .cls-96 {
        fill: #e3e4ee;
      }

      .cls-97 {
        fill: #b0b5cd;
      }

      .cls-98 {
        fill: #867080;
      }

      .cls-99 {
        fill: #9d9fbb;
      }

      .cls-100 {
        fill: #a6abc5;
      }

      .cls-101 {
        fill: #aaafc9;
      }

      .cls-102 {
        fill: #feffff;
      }

      .cls-103 {
        fill: #d0b4aa;
      }

      .cls-104 {
        fill: #a0a2be;
      }

      .cls-105 {
        fill: #e0ae9f;
      }

      .cls-106 {
        fill: #f1c5b2;
      }

      .cls-107 {
        fill: #f7d5bd;
      }

      .cls-108 {
        fill: #e6eaf4;
      }

      .cls-109 {
        fill: #f8dd96;
      }

      .cls-110 {
        fill: #cfd3e3;
      }

      .cls-111 {
        fill: #9496b4;
      }

      .cls-112 {
        fill: #e4e7f1;
      }
    </style>
  </defs>
  <g id="_レイヤー_1-2" data-name="レイヤー 1">
    <g id="_生成オブジェクト" data-name="生成オブジェクト">
      <path class="cls-109" d="M284.25,154.11c-7.08,2.85-2.06,8.95-6.68,7.73-.55-.15-.81-1.02-.86-2.12l-.12-2.55c-.03-.68-1.67-.59-2.06-1.17-1.06-1.55-1.88-1.89-3.87-2.14-1.24-.16-1.34-3.06-.06-3.25,1.68-.25,3.36.18,4.47-.94,2.8-2.82,1.19-5.68,3.1-5.99,3.16-.51,1.18,5.41,6.21,6.91.77.23,1.68-.16,2.04.38.45.67.38,1.41.24,2-.25,1.07-1.32.71-2.41,1.14Z"/>
      <path class="cls-96" d="M6.21,509.86c-.91-.03-1.95-.76-3.05-.48-1.32.34-2.49-.11-2.99-1.26s.16-2.9,1.78-2.93l9.62-.15c1.55-.02,4.55-1.43,5.59-.34,1.01,1.91-.1,3.99.25,6,.2,1.16-1.63,1.46-2.37.92-2.8-2-5.67-1.67-8.83-1.77Z"/>
      <path class="cls-96" d="M286.68,506.28c3.02,3.54-5.57,2.26-8.23,3.62-.37.19-1.06-.27-1.36-.35-.39-.1-.48-.72-.41-1.58-4.66-3.72,9.27-2.54,9.99-1.7Z"/>
      <circle class="cls-96" cx="268.68" cy="511.7" r=".3"/>
      <path class="cls-96" d="M267.98,502.48c.63.33.36.65-.33.72-1.38-.09-1.2-.81.33-.72Z"/>
      <g>
        <path class="cls-5" d="M282.51,281.59c-.19.32-.05.65.36.73.21.04.76-.13.93.59.14.61-.79.76-.91.98,1.1-2.04-.93,4.16.85,6,.69.71.97,1.79.57,2.87-.21.57-1.43-.11-2.37.41.52.67,1.62.3,1.84,1.59v138.89c.32.26.5.29.61.21v42.57s-.2,6.34-.2,6.34c2.47-.52,3.87-.19,5.04-1.55-.02.23.03.43-.07.66-.56,1.38.27,4.14-1.22,5.16-2.72.81-7.15.49-8.99-1.54-.78-.86.36-3.31-1.02-3.67.95-.75.53-2.41.53-3.57.1.09.28.04.59-.22v-185.5c-.01-1.64-.52-2.75-.16-3.85.3-.94.76-1.32.62-1.98-.25-1.24-.88-1.38-1.58-2.1-.77-.81.53-2.06.5-2.83l4.08-.19Z"/>
        <path class="cls-73" d="M290.92,293.58c-.57,1.54-1.23,4.33-1.23,5.92.08-1.84-.1-3.72-.69-5.83l-4.63.18v140.03c-.1.09-.28.05-.6-.21v-138.89c-.21-1.29-1.32-.91-1.83-1.59.94-.53,2.16.15,2.37-.41.4-1.07.12-2.15-.57-2.87-1.78-1.84.25-8.04-.85-6,.12-.23,1.05-.37.91-.98-.16-.73-.72-.55-.93-.59-.41-.08-.55-.41-.36-.73.31-.1.31-.17.7,0,.69.29,1.49.45,2.22.34-1.11,1.45-1.87,4.74-.53,6.28,1.54,1.77,6.15.97,9.35.73,1.52-.11,2.84-8.7,2.49-11.97-.06-.53-.02-1.24,0-1.79.05-1.15-.36-2.48-.09-3.61.33-1.37.45-2.59.09-3.99-.33-1.28.23-2.71-.55-4.24h-12.61c-.45,1.82-.64,4,.14,5.48-.21.48.06,1.35-.03,1.8-.23,1.2-.37,2.89-.21,4.16-.75,1.94-3.07.08-4.97,1.11-.94,1.76-1.05,4.29-.07,5.9.03.77-1.27,2.03-.5,2.83.69.73,1.33.86,1.58,2.1.13.66-.32,1.04-.62,1.98-.36,1.1.15,2.21.15,3.85v185.5c-.3.26-.48.31-.58.22-.42-62.25.85-124.74-.64-186.46-.04-1.77-4.53-.62-7.18-.84l-6.43-.53c-1.22-.1-1.55-1.78-2.33-2.18-.83-.43-1.4-1.1-2.44-1.12-.62-1.29-.95-3.63.7-4.35.78-.07,2.51-.23,3.3.35,1.03,1.22-.04,3.07.56,4.41.8,1.79,5.65.51,9.72,1.08.75.1,1.38-.29,1.8-.56.58-.39-.2-1.42.27-1.99.31-.38,1-.16,1.19-.27,2.58-1.52-3.08,1.12-2.62-7.51l.51-9.56c.9,0,1.84-.01,2.96-.16.63-2.34.4-4.48-.13-7.01-4.86-.21-6.91-1.09-11.19,1.01-1.58,1.12-.25,3.57-1.69,4.39.26-.47-.04-1.34-.03-1.85l.09-3.02c2.2-2.36,5.28-3.57,8.79-2.8.7-1.59.72-3.57-.51-4.44.06-.13.05-.26-.02-.39,4.1-.13,8.21-.19,12.31-.11.46,0,.95.03,1.41.02l11.99-.15c-1.05,1.73-3.65-.14-4.02,1.46-.34,2.06-.06,4.12-.62,6.1,1.46.52,3.69.88,4.65,2.08-.49,6.91.98,13.46-.22,20.27-.3,1.69-1.51,3.93-2.08,5.55s-3.82.38-4.85,1.01-.48,2.14-.76,2.88Z"/>
        <path class="cls-30" d="M289.82,241.04c.52,1.98.77,7.26-1.88,7.49-3.3.29-.66,2.45-2.51,5.82-4.09-.08-8.21-.02-12.31.11-.77-.78-2.04-.35-3.02-1.13-.54-3.92-.35-7.78-.46-11.96,6.9-.88,13.56-.45,20.18-.35Z"/>
        <path class="cls-66" d="M289.15,481.89c.09-.23.05-.42.07-.66l.46-5.48.02-176.26c0-1.59.65-4.38,1.23-5.92l-.02,186.31c0,1.01.29,1.55-.36,1.98-.32.21-.9.08-1.39.03Z"/>
        <path class="cls-80" d="M278.45,478.26c0,1.16.43,2.83-.53,3.57l-.11-190.04c1.49,61.72.21,124.21.64,186.46Z"/>
        <path class="cls-83" d="M279.04,235.02l9.53-.14c.84-.04,1.03.32,1.21.97.22.8-.71,1.11-1.1,1.65.32.39.89,2.68.12,2.69-4.28.04-7.98.49-11.69-.24-2.6-.51-5.08-.44-7.51-.2.14-.74,0-1.57.48-2.47l7.63-1.07c-.04-1.42.31-2.65.19-3.72l1.14,2.52Z"/>
        <path class="cls-26" d="M287.94,248.53c-.89,1.83-1.52,3.8-1.1,5.84-.47,0-.96-.01-1.41-.02,1.84-3.37-.79-5.54,2.51-5.82Z"/>
        <path class="cls-13" d="M289.7,299.49l-.02,176.26-.46,5.48c-1.17,1.36-2.57,1.03-5.04,1.55l.21-6.34v-42.57s-.01-140.03-.01-140.03l4.63-.18c.59,2.12.76,3.99.69,5.83Z"/>
        <path class="cls-105" d="M296.73,275.17c-.02.55-.06,1.26,0,1.79-.99.14-1.98-.61-2.92-.04-3.29-1.25-6.95-.23-10.58-.16.84,2.02.63,3.4-.02,4.82-.39-.16-.39-.1-.7,0l-4.08.19c-.98-1.61-.87-4.14.07-5.9,1.9-1.03,4.22.83,4.97-1.11,4.35.94,8.83.16,13.27.4Z"/>
        <path class="cls-107" d="M274.85,268.72c-1.24-.01-2.55-.3-4.04.08-.73,2.83-.81,5.49-1.14,8.12l-8.95.23c.99-3.53,2.29-7.01,4.08-10.19,1.44-.82.1-3.27,1.69-4.39,4.28-2.11,6.34-1.23,11.19-1.01.53,2.53.76,4.67.13,7.01-1.12.15-2.06.17-2.96.16Z"/>
        <path class="cls-42" d="M269.67,276.92c1.43-.04,3,2.15,4.67,1.36-.46,8.64,5.21,5.99,2.62,7.51-.19.11-.89-.11-1.19.27-.47.57.31,1.61-.27,1.99-.41.28-1.05.66-1.8.56-4.07-.57-8.92.71-9.72-1.08-.6-1.34.47-3.19-.56-4.41-.79-.59-2.52-.42-3.3-.35-.69-1.78.07-3.77.59-5.62l8.95-.23Z"/>
        <path class="cls-53" d="M261.87,288.24c-.07.9-1.2,1.54-2.54,1.44-1.23-.09-.07-1.92.1-2.56,1.04.02,1.61.69,2.44,1.12Z"/>
        <path class="cls-106" d="M296.73,276.96c.35,3.27-.97,11.86-2.49,11.97-3.2.23-7.81,1.04-9.35-.73-1.33-1.54-.57-4.83.53-6.28,2.41-.37,5.18.36,7.72-.54,1.14-.57.43-3.38.67-4.46.94-.57,1.92.18,2.92.04Z"/>
        <path class="cls-12" d="M296.73,267.57c-.87-.26-.15.9-.55,1.1-4.58.16-8.48.49-12.48.13-.78-1.47-.58-3.66-.14-5.48h12.61c.78,1.54.22,2.97.55,4.25Z"/>
        <path class="cls-17" d="M296.64,271.56c-.27,1.13.14,2.46.09,3.61-4.43-.24-8.91.53-13.27-.4-.17-1.27-.03-2.96.21-4.16,2.47.3,10.98-.64,12.97.96Z"/>
        <path class="cls-14" d="M293.81,276.92c-.24,1.07.48,3.88-.67,4.46-2.54.9-5.31.17-7.72.54-.73.11-1.53-.05-2.22-.34.65-1.42.86-2.79.02-4.82,3.63-.07,7.29-1.09,10.58.16Z"/>
        <path class="cls-81" d="M274.85,268.72l-.51,9.56c-1.67.79-3.24-1.4-4.67-1.36.33-2.63.41-5.3,1.14-8.12,1.49-.38,2.8-.09,4.04-.08Z"/>
        <path class="cls-37" d="M296.64,271.56c-1.99-1.6-10.5-.66-12.97-.96.09-.45-.18-1.32.03-1.8,3.99.35,7.9.03,12.48-.13.41-.2-.32-1.36.55-1.1.36,1.4.24,2.62-.09,3.99Z"/>
        <path class="cls-51" d="M288.57,234.88l-9.53.14-.28-4.81c-.04-.73.84-.8,1.14-1.08.49-.47.93.6,1.48.59,2.64-.06,5.07-1.04,7.79-.2-.16,2.04.23,3.83-.6,5.37Z"/>
        <g>
          <path class="cls-86" d="M289.82,241.04c-6.62-.1-13.28-.53-20.18.35.11,4.17-.08,8.04.46,11.96.98.78,2.25.35,3.02,1.13.07.13.08.26.02.39-1.48-.05-2.68.11-4.3-1.11-.72-.55-3.24.64-3.57-.89l-.95-4.3c-.61-2.75-.07-5.29-.09-8.26l5.37-.54c2.43-.24,4.91-.32,7.51.2,3.7.73,7.41.28,11.69.24.77,0,.2-2.3-.12-2.69.4-.54,1.32-.85,1.1-1.65-.18-.65-.37-1.01-1.21-.97.83-1.53.44-3.32.6-5.37-2.72-.84-5.15.14-7.79.2-.55.01-.99-1.05-1.48-.59-.29.28-1.18.35-1.14,1.08l.28,4.81-1.14-2.52c-.17-1.4.09-3.03-.46-4.46-.18-.47-1.43-.44-1.7-.8s.03-1.66-.47-2.07c-.85-.7-3.43.37-3.82-.85-.59-1.82-1.67-2.66-3.75-2.8-.21-1.97.28-3.46-.1-5.18l-3.52-.37c.03-4.78-.34-9.3.19-13.88,1.62-.61,3.47.32,4.41-.85.29-.73-.03-1.87.28-2.54.21-.46,1.24-.25,1.55-.73.66-1.04.14-2.46.84-3.87l6.59-.51.4-4.31c3.25-.28,6.29-.22,9.58,0,.27,1.61-.24,2.69.29,4.03l5.73.73c.24,1.38-.06,2.52.4,3.67,1.33.53,3.09-.16,4.14.73.98.83-.05,2.68.73,3.63l4.4.29c0,4.49.34,8.73-.39,13.11-.49.78-2.52.39-3.67.44-.84,1.42.12,3.13-.55,4.76-.49,1.2-2.65.96-3.17,1.99-.84,1.64-2.87,2.27-2.99,3.99-.1,1.4-2.08.83-2.25,1.4-1.28,4.35,1.04,9.19-.78,13.02Z"/>
          <g>
            <path class="cls-69" d="M292.34,216.91c-.79,1.07.14,3.26-.34,4.75-5.82.2-11.6.35-17.37-.26l-.34-4.15c-1.02-.56-2.02-.43-3.39-.99-.51-4.36-1.19-9.43-.58-13.66.99-.4,2.67-.15,3.37-.57,1.1-.66.5-1.97.89-3.02s2.03-.58,3.26-.69l.31-4.39c3.09.22,6.41-.48,9.57.3,1.13.63.19,3.01.94,3.79.67.69,2.95-.22,3.21.61l1.06,3.53c.34,1.12,2.8.12,4.15.74.8,4.33.36,8.86.13,13.35-1.64.5-3.16-.25-4.87.65Z"/>
            <path class="cls-34" d="M287.19,210.2c-4.26,1.18,1.49,4.18-12.73,3.29-1.66-1.86-.85-5.75-.18-8.01,2.48-.33,2.42-1.8,2.91-3.79.42-1.7,6.84-.47,6.89-.44.93.5.57,1.83.52,2.94-.07,1.59,1.83,1.18,2.56,1.5,1.06.46,1.22,4.18.02,4.51Z"/>
          </g>
        </g>
      </g>
      <g>
        <path class="cls-36" d="M57.02,336.85c-.05,2.22-.02,4.59-1.1,6.53-1.29.06-2.64-.49-4.11-.04-.75,1.52.29,3.44-.65,4.68-.64.84-2.5.17-3.72.51l-1.08,11.96c-.97.96-4.38,1.03-5.25.04-1.11-1.57-.21-4.13-.93-5.89-1.43-.78-3-.45-4.41-.75,0-.36.03-.82-.48-.58.58-5.29-2.08-5.57-.56-14.06.15-.83,1.65-1.32,1.07-2.26,7.02-.64,14.14-.46,21.21-.16Z"/>
        <g>
          <path class="cls-18" d="M121.48,482.17l-.17,20.44-17.19.19-.42,5.37-33.87-.14c-.4-.74-.61-2.07-1.11-2.36-.34-.2-1.58.61-1.81.07-1.23-2.9-.48-6.48-.56-9.73-.05-1.71,1.57-1.02,2.55-1.35,1.29-.43,2.4-1.26,3.67-.81.65,5.36-3.14,1.73-1.76,7.36l23.26-.13c.43-3.08.45-6.6-.18-9.16-.66-.24-1.86-.29-2.27-.34-.62-.08-1.04,1.14-.66,2.51-5.8.65-11.72.84-17.25-.39l1.06-4.8c.31-1.38,3.29-.91,4.8-1.27.69-1.28.27-3.55.47-4.64.04-.22,0-1.08.34-1.08l41.11.26Z"/>
          <path class="cls-74" d="M170.16,481.8l35.39.11.1,6.34-10.35-.06c.94,1.42,16.22-.09,16.17,2.46-.03,1.34-.66,2.2.2,3.52l-12.64-.02c-.84-.61-1.52-2.43-1.24-3.8-.45-.34-1.27.12-2.18-.2-.92-.44-1.62-.33-2.07.09-1.76,1.67.13,3.49-1.2,4l-1.53.58c-2.16.82-1.69,4.19-1.14,6.56l23.09-.07c.98-6.88-1.58-6.42,1.94-7.06.25-.05.66-.08.46-.59,1.22,0,2.37-.04,2.61,1.7l2.49.37c.37,2.25.33,4.35.14,6.83l-7.83.29-.36,5.25-29.21.05-.43-5.29-17.73-.28-.35-6.3c-1.26-.34-2.47.11-3.62-.58l-.3-13.78,9.57-.14Z"/>
          <path class="cls-98" d="M215.18,493.68c.2.51-.21.54-.46.59-3.53.64-.96.18-1.94,7.06l-23.09.07c-.55-2.38-1.03-5.74,1.14-6.56l1.53-.58c1.33-.51-.56-2.33,1.2-4,.45-.42,1.14-.53,2.07-.09.9.33,1.73-.13,2.18.2-.28,1.37.4,3.19,1.24,3.8l12.64.02c-.86-1.32-.23-2.18-.2-3.52.05-2.55-15.23-1.04-16.17-2.46l10.35.06-.1-6.34c.21,0,.45-.1.68-.1-.06,2.16.11,4.36.4,6.68l5.59.65c-.63,1.38-.06,2.83.26,3.83.24.73,1.81.72,2.7.72Z"/>
          <path class="cls-32" d="M72.56,493.86c.38.14.81-.22,1.14-.15,5.53,1.23,11.45,1.04,17.25.39-.37-1.37.04-2.59.66-2.51.41.05,1.61.1,2.27.34.62,2.55.61,6.07.18,9.16l-23.26.13c-1.38-5.63,2.41-2,1.76-7.36Z"/>
        </g>
        <path class="cls-10" d="M55.92,343.38c-.39,1.6.2,3.61-.05,5.27-.93.24-2.53-.23-3.43.65-1.23,1.2-.76,3.28-.91,4.5,2.06.37,3.1-.26,4.36-1,.08.17.46.47.02.84-.15.13.02.67-.45.35-.83.27-2.06-.07-2.84.54-.69.54-.55,1.92-.6,2.94-.07,1.66-2.13,1.09-2.51,1.85l-1.84,3.74-10,.15c-.26-7.95-1.97-.12-1.9-9.31,1.41.3,2.98-.03,4.41.75.71,1.75-.18,4.32.93,5.89.87.99,4.28.92,5.25-.04l1.08-11.96c1.22-.34,3.08.33,3.72-.51.94-1.24-.1-3.15.65-4.68,1.48-.45,2.83.09,4.11.04Z"/>
        <path class="cls-48" d="M60.69,337.97l-.05,10.25c-1.59.68-3.26.05-4.77.43.25-1.65-.35-3.66.05-5.27,1.08-1.94,1.05-4.32,1.1-6.53,1,.04,1.99-.14,3.59.02.39.04-.14.85.08,1.1Z"/>
        <path class="cls-95" d="M55.87,348.65c-.2,1.3-.16,2.97.03,4.15-1.26.74-2.3,1.36-4.36,1,.15-1.22-.32-3.3.91-4.5.9-.88,2.49-.41,3.43-.65Z"/>
        <g>
          <path class="cls-76" d="M88.97,230.32c-.41,2.51-.78,5.11-.23,7.99l5.54.33c.45,5.16.63,9.91.3,15.57,2.93.31,5.73.67,8.13-.28.36.35,1.23.52,1.12,1.18-1.24-1.16-.65,10.35-.58,11.23l5.05.34v14.47c1.74.14,3.02-.24,4.26.24s.9,2.3,1.15,3.49c1.61,1.11,3.81.8,5.47,1.02v159.58c1.03.27,8.99.55,8.82-.25l.51,3.44-.51,25.98-6.03.31-.19,6.4c-.01.46.16.42-.3.8l-41.11-.26c-.34,0-.3.87-.34,1.08-.65.07-.35-.61-.6-1.15l-28.48-.16c-.38-2.52.14-4.61-.44-6.75-.91-.17-3.28.26-3.6-.6.29-9.98.73-15.29,2.61-24.27l1.46-6.95c.42-2,.56-3.99.8-5.82.52-.5,2.02-.26,2.8-.69,1.47-11.93.26-31.64,2.43-42.28.84-4.15,1.13-8.22,1.36-12.57l.6-11.13c1.09-.39,2.29-.08,3.17-.75.25-5.11.18-10.2,1.1-15.37.42-2.34.91-3.81.34-5.9-.52-1.9.74-4.49.52-6.45.71.1,1.89.47,2.61-.12.15-.12.62-3.65.17-4.08-.17-.17-.89.24-.98-.47l3.5-.84,1.22-18.2c.28-4.14.54-8.17.7-12.28.06-1.45,1.1-2.65,1.29-3.64.68-3.69-.17-7.2,1.21-10.68,1.16-2.93-.02-6.3.9-9.5.69-2.42.66-4.87,1.13-7.22,1.17-5.89,2.29-.26,3.46-8.72l.83-5.99c.27-1.22,1.64-1.07,3.17-.89l.65-5.96c.34-3.1,1.71-11.01-.82-12.63.37-.32,1.51-.49,1.61-1.15.55-3.5.12-6.38-.4-9.35.2-.54.33-1.11.32-1.39.21,1.48,1.62,1.14,4.29,1.27Z"/>
          <path class="cls-4" d="M168.35,311.51c-.13.38.19.52,1.09.29l.69,12.49c.19,3.36-.3,6.73.36,9.96,2.2,10.84-1.4,13.76.53,23.97,1.25-2.2,3.45,7.24,3.23,4.54.85,10.67.68,20.85.77,31.42l.24,26.17.1,25.15c10.34,1.08,20.29-.32,30.1-.24,7.59.06,15.78,1.66,23.86.48,1.39.51,3.99,20.46,4.1,20.79.66,2.02,1.31,3.84,1.19,6.16-.1,1.96,1.72,5.58-1.08,7.05-2.63,1.38-6.35,1.88-9.53,1.91l-17.77.15c-.23,0-.47.1-.68.1l-35.39-.11c-.11-2.47.04-4.84-.62-7.18s1.19-5.56-.65-7.69c-.26-.37.15-.45.83-.73l.26-45.35c.01-2.11-.72-3.85-.27-6.1-1.63-.06-2.86-.15-4.18-.38l-.15-98.78c0-1.55-.38-2.62.51-3.56.62-.51,1.7-.29,2.46-.5Z"/>
          <path class="cls-57" d="M140.44,311.33c1.42.33,3.22.7,4.78.56l-.4,42.69-.17,98.2.3,11.87c.08,3.3-.77,6.59.68,9.77l20.33.06,3.59.13c.66,2.34.51,4.71.62,7.18l-9.57.14c-9.4.14-28.1-.83-38.81-.57l.19-6.4,6.03-.31.51-25.98-.51-3.44v-52.25s-.02-81.08-.02-81.08l12.45-.57Z"/>
          <path class="cls-22" d="M221.06,225.56c-.06,1.24.93,3,1.24,4.01-1.03,2.41-.6,5.85,0,8.79,1.59.2,2.98-.13,4.59.33.07,2.3-.27,4.62.58,6.78.33.84,1.82.74,2.49.8.34.53.29,1.17.53,1.73-.93.02-.36.78-.59.99-.49.46-1.24.24-2.02.34-1.01,1.25-.23,3.66-1.42,4.63-.95.74-2.94.28-3.26,1.31l-1.32,4.27c2.83,1.03,5.45,1.06,8.07.72.57.45.39,1.31-.03,1.76-.46.49-1.03.93-1.75.88-2.24-.15-1.85,2.64-2.91,3.21-1.85,1-2.04,2.68-2.16,4.71-.06.99,1.45.59,2.18.62,1.09.05.69-1.68,1.18-2.56.77-1.39,3.07-.27,3.83-1.47.61-.95.59-1.8,1.39-2.15.71-.31,1.68.02,2.24-.3,1.63-.92,1.94-3.04,2.2-4.82,4.64-.48,8.99-.24,13.31-.33,2.95-.06,7.02-1.42,9.82.24,1.99,1.18,3.17,2.66,5.62,2.04l-.09,3.02c-.89.1-.38,1.33-1.03,1.82l-3.75-.17-1.56,5.71-4.06,16.85c-.35,1.43-.67,2.67-1.5,4.18-1.03,1.88-2.85,20.1-2.82,20.24-.57.11-1.72-.55-1.97.42-.18.7-.33,1.19-.6,1.39-2.36,1.75.08-4.25-1.88-5.65-1.03-.73-3.41.18-4.66.52l-.7,9.45c-1.82.03-4.29.27-5.67-.74-.45-3.94.93-.77-6.43-2.66-1.88-.48-1.6-2.05-2.34-3.32-2.99-5.12,1.08-6.1-4.15-6.29l-.3-15.22-4.35-.24-.17-9.49c-1.96-.35-3.55.21-5.41-.49.53-4.61-1.06-8.65-.94-12.72,2.7.46-.05-12.75-.11-15.37l-.39-18.85c-.03-1.28-.18-2.16.7-3.4s.35-4.57,2.39-5.29c2.49-.88,5.53.03,7.99-.25Z"/>
          <path class="cls-1" d="M88.74,211.28l.25,13.58c1.63.89,3.32.26,4.87.44,1.81,1,.26,3.39.55,4.99-1.8.13-3.64.13-5.44.04-2.67-.13-4.08.21-4.29-1.27l-.44-13.16c-9.32-.72-6.37-4.51-8.91-3.65-3.44,1.17,0,3.83-1.81,8.3-2.42.44-5.15-.16-7.29.67-1.46.57-.46,2.67-.55,3.62l-.49,5.15c-1.33.56-2.63.2-3.93.48-1.96,7.77,1.03,3.32-3.63,9.75-4.45-.51-1.15,5.28-3.07,8.23-1.02,1.56-.16,3.35-.81,5.14l-3.15.41c-.46,1.79-.5,3.45-.63,5.21l-4.05.92c.83,2.24-.85,3.35-1.61,4.99-.83,1.78.08,4.71-1.41,6.05-1.19,1.07-1.61,1.48-1.82,3.54l-.69,6.89-4.43.55c.95,1.76-.63,3.6-.79,5.28l-1.45,15.85c-1.05,11.42-2.9,12.47-3.41,15.19-.36,1.92-.1,4.33-.53,5.88-.47,1.72-1.63,3.71-.65,6.46,7.23-.14,14.58-.92,21.8-.13,4.81.52,9.5,1.3,14.4,1.55,1.22-2.41.26-4.79.32-7.13l.71-27.44c.04-1.5,1.68-.75,2.32-1.28,1.64-3.16,1.79-10.98,2-15.14l.65-13.1c.05-.97,2.21-.09,2.88-.58,1.7-1.25.05-6,1.6-7.89.13-.46.27-.39.54-.1,1.33.3,2.67.02,3.8.86l-.83,5.99c-1.17,8.46-2.29,2.83-3.46,8.72-.47,2.36-.44,4.81-1.13,7.22-.92,3.2.26,6.57-.9,9.5-1.38,3.48-.53,6.99-1.21,10.68-.18.99-1.23,2.19-1.29,3.64-.16,4.11-.42,8.14-.7,12.28l-1.22,18.2-3.5.84c.09.72.81.31.98.47.45.43-.02,3.96-.17,4.08-.72.59-1.9.21-2.61.12-.13-1.15.26-2.28.61-3.67.32-1.29-1.17-1.44-2.05-1.74-.99-.34-1.2.56-1.96,1.21-.23-.25.3-1.06-.08-1.1-1.61-.17-2.59.02-3.59-.02-7.07-.3-14.19-.48-21.21.16-3.05.28-6.58-1.17-9.52.3-.24-.51-.96-.39-1.69-.92,1.91-16.13,2.73-32.14,2.74-48.61l3.59-.82.42-4.9,3.71-.54c.7-2.57-.16-5.4.66-7.91.27-.82,1.95-1.42,1.26-3.12-.84-2.08.96-3.66,1.28-5.22.52-2.55.45-4.82,3.54-5.24l1.04-5.6c1.23-.43,2.38.07,3.5-.57.47-1.72.03-3.42.69-4.98,1.16-.38,2.43.15,3.47-.62l.78-7.24,2.57-.52c-.49-1.36.69-2.17.81-3.23l.83-7.25c1.55-.59,3.22-.05,4.42-.95.72-2.78.26-5.46.61-8.34l5.26-.6c.53-1.52-.46-3.54.59-4.8,1.16-.55,2.65.14,3.74-.64-.07-2.62-.25-5.03-.43-7.39l4.09.71c-.33,1.04.25,2.11.95,1.9,2.21-.64,3.6.9,5.35,1.15,3.06.45,5.95.37,8.65.22Z"/>
          <path class="cls-84" d="M264.8,266.96c-1.78,3.19-3.09,6.67-4.08,10.19-.52,1.84-1.28,3.84-.59,5.62-1.64.72-1.32,3.06-.7,4.35-.17.64-1.33,2.47-.1,2.56,1.34.1,2.47-.55,2.54-1.44.78.4,1.11,2.08,2.33,2.18l6.43.53c-1.41,2.77-2.22,10.41-2.76,14.63l-1.24,9.75c-.31,2.44-3.17,16.89-2.81,19.13.12.73-.26,1.69-.56,2.13-.2.3-1.28.14-1.42.73-.54,2.23.29,5.19-.66,7.08-1.09.39-2.56,1.3-3.52,2.43-1.35,1.61.33,4.61-.94,6.64-.54.87-2.38.58-3.14.48l-3.31-.44-.06-20.87.34-16.54c4.24-3.02,2.67-6.56,3.73-9.48,1-2.75,1.44-5.15.07-7.84.14-3.5,2.76-7.03.03-9.45l4.06-16.85,1.56-5.71,3.75.17c.66-.49.14-1.72,1.03-1.82-.02.51.29,1.38.03,1.85Z"/>
          <path class="cls-43" d="M249.95,358.89l-.42,4.74-10.83-.12c-.39-1.53-.12-2.65-.07-4.27-2.61-.68-5.12-1.85-7.94-1.13l.65,20.09c.04,1.16.69,1.68,1.26,1.83,1.11.3,1.23-.78,2.07-1.3l2.15,22.96,2.77,21.96c.35,2.8.85,7.73.44,10.23l-8.83-.18c-.12-3.14-.8-5.65-.93-8.45l-.76-15.74c-.08-1.58-1-2.64-.99-4.68.07-8.15-.42-16.18-.87-23.98-1.97-4.27-.19-8.77-1.49-13.23-.85-.26-4.24.28-4.28-1.1l-.96-30.66c-.06-2.04-1.84-2.81-2.51-4.13.41.82-2.01-6.58.06-7.23.75-.23,1.9.32,1.51,1.6-.57,1.87.6,2.61,1.3,3.77,1.02,1.69-.48,4.37.8,6.12.45.62,2.82-.48,3.31.56,1.58,3.38.15,7.3.85,10.63.22,1.03,1.38,2.27,1.01,3.7.82,0,1.82,1.17,2.39,1.58,1.7,1.2,4.6,0,6.18,1.34-1.13,2.04,5.72,4.61,6.13,4.65,2.69.29,5.39.34,8,.44Z"/>
          <path class="cls-60" d="M63.57,348.62c.58,2.08.08,3.56-.34,5.9-.92,5.16-.86,10.26-1.1,15.37-.89.66-2.08.36-3.17.75l-.6,11.13c-.23,4.35-.52,8.43-1.36,12.57-2.16,10.64-.95,30.35-2.43,42.28-.77.43-2.27.18-2.8.69-1.48-1.07-3.66-.27-5.75-.83-.41-4.21.01-8.37.27-12.67l1.07-17.87c.36-6.06.72-12.02,1.75-18.07.22-1.3,1.7-2.33,1.66-4.35-.07-3.52,6.44-24.51,4.69-29.53.48.32.3-.22.45-.35.44-.37.06-.66-.02-.84,1.41-.83,3.51-.9,4.93-2.22.98-.91,1.26-2.69,2.74-1.96Z"/>
          <path class="cls-35" d="M210.95,195.84c1.66.32,3.34.51,5.45.53l.5,4.93c1.26.58,2.47.15,3.55.47,1.33,2.61.62,5.87-2.26,7.22-1.88.88-3.38,2.08-5.74,2.06l.97,3.09c-4.97-.86-10.1-.23-14.94,1.22l.05-4.66c2.07-.26,3.97-1.35,6.35-2.11.68-1.44-.03-2.8.49-4.35-2.57.05-4.77,1.07-6.86,2.22-.63-4.13.1-8.34-.08-12.49,4.24-.44,8.36,1.05,12.52,1.85Z"/>
          <path class="cls-101" d="M88.83,204.75c0,2.19-.13,4.35-.09,6.53-2.7.15-5.59.23-8.65-.22-1.76-.26-3.14-1.8-5.35-1.15-.71.21-1.28-.86-.95-1.9l-4.09-.71c-.13-1.63-.33-3.61.23-5.34.72-1.47,5.85.68,5-1.9,1.59,2.71,10.44-2.18,9.05,3.95,1.32.92,3.48.41,4.86.75Z"/>
          <path class="cls-28" d="M231.11,437.49c.34,1.07-1.26,1.46-1.56,2.4-.55,1.73,1.95,6.25-.23,5.86-8.08,1.18-16.28-.41-23.86-.48l.7-3.58c2.26.6,3.76-1.02,5.37-1.48,3.18-.92,6.28.21,9.13-1.61s7.06-.73,10.45-1.12Z"/>
          <path class="cls-44" d="M35.81,337.01c.58.94-.92,1.42-1.07,2.26-1.52,8.48,1.14,8.77.56,14.06-.24.98-2.73.93-3.06.1-.73-1.87.04-3.63-.52-5.39l-5.28-.26-.15-10.46c2.94-1.47,6.47-.03,9.52-.3Z"/>
          <path class="cls-94" d="M88.83,204.75c-1.38-.34-3.54.17-4.86-.75,1.39-6.13-7.46-1.24-9.05-3.95.34-1.54-.68-3.59,1.16-4.36,2.12.14,4.32,0,6.4-.48,1.94-.45,4.01-1,6.34-.95v10.5Z"/>
          <path class="cls-77" d="M220.88,213.73c-.9.3-1.7-.32-2.91-.63-1.02-.26-1.99,1.46-1.8,2.23-.77-.73-1.74-1-2.76-1.18l-.97-3.09c2.35.02,3.86-1.18,5.74-2.06,2.89-1.35,3.59-4.61,2.26-7.22.23.07.8-.07,1.18.16-.1,4,.05,8.03-.74,11.78Z"/>
          <path class="cls-62" d="M84.68,229.05c0,.28-.12.85-.32,1.39.52,2.97.94,5.86.4,9.35-.1.66-1.24.83-1.61,1.15-.43.37-2.14-.23-2.35.62l-.87,12.27c-.72.82-1.89.58-2.83,1.13.18,1.93-.27,3.26-.75,4.6-.26-.3-.4-.36-.54.1.51-1.2-5.98,1.06-6.11,1.33-.66,1.46.48,4.88-1.57,5.84-.74.34-2.97-.26-3.29.75l-.15,11.17-4.39.46.22,11.94c-2.04.7-4.78-.64-6.58.52-1.5.97,1.14,2.04,1.53,2.77,1.81,3.42,1.46,25.89.7,31.35-5.55-.53-23.55-.04-25.82-.33-.35-.04-.33-.76-.57-1.13.43-1.55.17-3.96.53-5.88.51-2.72,2.36-3.77,3.41-15.19l1.45-15.85c.15-1.68,1.73-3.51.79-5.28l4.43-.55.69-6.89c.21-2.06.63-2.47,1.82-3.54,1.49-1.34.58-4.27,1.41-6.05.76-1.64,2.44-2.75,1.61-4.99l4.05-.92c.14-1.76.17-3.42.63-5.21l3.15-.41c.64-1.79-.21-3.59.81-5.14,1.92-2.95-1.37-8.74,3.07-8.23,4.66-6.42,1.67-1.98,3.63-9.75,1.3-.28,2.61.08,3.93-.48l.49-5.15c.09-.95-.92-3.05.55-3.62,2.14-.84,4.87-.23,7.29-.67,1.8-4.46-1.63-7.13,1.81-8.3,2.54-.86-.41,2.93,8.91,3.65l.44,13.16Z"/>
          <path class="cls-39" d="M126.94,279.31c-.02.37.08.73.49.8-.39,3.63.76,6.61.47,11.91,3.95.23,7.72.07,11.42-.19,1.29-.09,2.7,1.11,4.06.51.75-.03,1.39.13,1.27.94-.07.52-.02.99.01,1.44l-16.31.33c-.3,3.96-.34,7.59-.17,11.61l10.68.23c1.48,1.18,1.55,2.64,1.56,4.44l-12.45.57.02,81.08v52.25c.18.8-7.78.53-8.81.25v-159.58c2.38-.01,1.19-4.48,1.41-6.59,2.18-.49,4.32-.32,6.35-.01Z"/>
          <path class="cls-68" d="M126.94,279.31c-2.03-.31-4.17-.48-6.35.01-.22,2.11.97,6.58-1.41,6.59-1.66-.21-3.87.1-5.47-1.02-.25-1.19.05-3.02-1.15-3.49s-2.52-.1-4.27-.24v-14.47s-5.04-.34-5.04-.34c-.07-.88-.66-12.39.58-11.23.25-.06,1.1-.24,1.5.03.67.47-.23,1.93.52,3.43.18.36.77.29,1.47.23.96,1.52,2.9,1.96,4.73,1.87l.52,5.54c.15,1.56,3.54.53,5.11.92.47,1.78.34,3.41.31,5.42,2.74.72,5.58.5,8.75.57.61,2.15.33,4.25.2,6.19Z"/>
          <path class="cls-20" d="M83.15,240.95c2.53,1.62,1.16,9.54.82,12.63l-.65,5.96c-1.53-.18-2.89-.32-3.17.89-1.13-.84-2.47-.57-3.8-.86.48-1.34.94-2.67.75-4.6.94-.55,2.11-.31,2.83-1.13l.87-12.27c.21-.85,1.92-.25,2.35-.62Z"/>
          <path class="cls-58" d="M64.09,342.18c.21,1.96-1.05,4.55-.52,6.45-1.48-.74-1.76,1.05-2.74,1.96-1.42,1.32-3.52,1.39-4.93,2.22-.19-1.18-.22-2.85-.03-4.15,1.51-.38,3.19.25,4.77-.43l.05-10.25c.76-.65.97-1.55,1.96-1.21.88.31,2.37.45,2.05,1.74-.34,1.39-.73,2.53-.61,3.67Z"/>
          <path class="cls-71" d="M169.31,306.59l-6.96.06c-1.07,0-1.86-1.25-2.73-1.12-.12-3.57.27-7.23-.4-10.94-1.74-.54-3.16.08-4.54.23-.78.08-1.61-.08-2.91-.1-.57,0-.52-.92-.72-1.18-.42-.39.15-.76.13-1.18,1.44.28,3.28.55,4.36-.38,4.32,1.12,9.16.04,13.89.38l-.12,14.24Z"/>
          <path class="cls-40" d="M250.55,316.11l-.49-2.35c-.03-.14,1.78-18.36,2.82-20.24.83-1.51,1.15-2.75,1.5-4.18,2.73,2.43.11,5.95-.03,9.45,1.38,2.7.94,5.1-.07,7.84-1.06,2.92.51,6.46-3.73,9.48Z"/>
          <path class="cls-54" d="M169.31,306.59c-.01,1.35.95,4.44.03,4.67l-.98.25c-.76.21-1.84-.01-2.46.5l-11.22-.28c2.02-2.33,2-4.32,3.68-4.72.66-.16,1.31-.82,1.28-1.49.86-.13,1.65,1.13,2.73,1.12l6.96-.06Z"/>
          <path class="cls-25" d="M210.38,253.35c.05,2.62,2.81,15.82.11,15.37-.3-.43-.35-1.38-1.27-1.48-.78-.08-1.44.11-1.61-.32-1.37-3.52-.02-7.87-.99-13.66,1.75.52,2.65.13,3.76.09Z"/>
          <g>
            <path class="cls-87" d="M213.41,214.15c1.02.18,1.99.45,2.76,1.18.28,1.1-.47,2.98.38,3.97,1.16,1.32,3.37.4,4.85,1.21.51,1.8-.27,3.54-.34,5.05-2.46.28-5.49-.63-7.99.25-2.04.72-1.49,4.02-2.39,5.29s-.72,2.12-.7,3.4l.39,18.85c-1.1.04-2.01.43-3.76-.09.97,5.79-.38,10.15.99,13.66.17.42.83.24,1.61.32.92.1.97,1.04,1.27,1.48-.12,4.07,1.46,8.11.94,12.72,1.86.71,3.45.15,5.41.49l.17,9.49,4.35.24.3,15.22c5.23.19,1.16,1.17,4.15,6.29.74,1.27.46,2.83,2.34,3.32,7.36,1.89,5.98-1.28,6.43,2.66,1.38,1.01,3.85.77,5.67.74l.7-9.45c1.25-.34,3.63-1.25,4.66-.52,1.96,1.4-.47,7.4,1.88,5.65.27-.2.42-.69.6-1.39.25-.97,1.39-.31,1.97-.42l.49,2.35-.34,16.54.06,20.87,3.31.44-.19,4.53c-1.34.02-2.47.44-3.45.41-2.6-.11-5.31-.15-8-.44-.41-.04-7.26-2.61-6.13-4.65-1.59-1.34-4.48-.13-6.18-1.34-.57-.4-1.58-1.58-2.39-1.58.37-1.43-.79-2.68-1.01-3.7-.7-3.33.73-7.26-.85-10.63-.49-1.04-2.85.06-3.31-.56-1.28-1.75.21-4.43-.8-6.12-.7-1.17-1.88-1.9-1.3-3.77.39-1.27-.76-1.83-1.51-1.6-2.08.65.35,8.04-.06,7.23.67,1.32,2.44,2.08,2.51,4.13l.96,30.66c.04,1.38,3.44.84,4.28,1.1,1.3,4.46-.48,8.96,1.49,13.23.45,7.8.94,15.84.87,23.98-.02,2.04.91,3.1.99,4.68l.76,15.74c.14,2.8.81,5.3.93,8.45l8.83.18c-.11.66.8,2.52-.22,2.64l-8.7.98c-3.39.38-7.56-.73-10.45,1.12s-5.95.69-9.13,1.61c-1.61.46-3.11,2.08-5.37,1.48l-.7,3.58c-9.81-.08-19.76,1.32-30.1.24l-.1-25.15-.24-26.17c-.1-10.58.08-20.75-.77-31.42.22,2.7-1.98-6.73-3.23-4.54-1.93-10.21,1.67-13.12-.53-23.97-.65-3.23-.17-6.6-.36-9.96l-.69-12.49c-.89.23-1.22.09-1.09-.29l.98-.25c.92-.24-.04-3.32-.03-4.67l.12-14.24c-4.73-.34-9.57.74-13.89-.38.27-1.32-.58-4.1.73-4.92l8.08-.44c.55-1.64-.27-3.73.56-5.3.69-1.32,3.42-.25,4.1-1.16,1.4-1.86.78-4.53,1.21-6.64,1.43-.71,2.93-.19,4.51-.69l.38-5.13c2.86-.31,5.52-.34,8.37-.98l.25-11.97,4.52-.41c.56-1.85-.29-4.1.85-5.64.69-.33,2.98.4,3.4-.38-.27-2.91.54-5.69.7-8.15l4.53-.22c.76-3.39.15-6.88.26-10.22l.49-14.33c4.83-1.46,9.96-2.09,14.94-1.22Z"/>
            <path class="cls-22" d="M184.83,283.59c-1.01,2.82-.43,6.07.06,9.05,1.55.39,2.68.06,3.9.19l.57,12.28,3.85,1.52.1,32.51c0,1.05-.23,3.25.67,3.35l4.52.53.29,99.08-20.39-.08c-.17-3.63-.34-6.97-.34-10.38v-33.34c-.01-18.69.55-37.03-1.07-55.31l-1.3-14.72c-.72-8.12-.26-16.24-.33-24.63-.07-7.56-.27-14.67.23-22.37,2.82.46,10.45-.58,9.26,2.32Z"/>
            <path class="cls-52" d="M188.79,292.84c-1.22-.13-2.36.2-3.9-.19-.49-2.98-1.07-6.23-.06-9.05l3.53.58c.15,3.01-.31,5.96.43,8.66Z"/>
            <path class="cls-47" d="M197.69,330.39c.39-.16.45,1.57-.04,1.68-.42.1-.79-.02-.89-.32-.15-.48.15-1.03.93-1.36Z"/>
          </g>
          <path class="cls-7" d="M154.66,311.74l11.22.28c-.89.94-.51,2.01-.51,3.56l.15,98.78-.03,51.75,3.4.82c1.83,2.13-.02,5.28.65,7.69l-3.59-.13-20.33-.06c-1.45-3.18-.6-6.47-.68-9.77l-.3-11.87.17-98.2.4-42.69c3.15-.29,6.32-.23,9.45-.16Z"/>
          <path class="cls-93" d="M168.89,466.93l-3.4-.82.03-51.75c1.32.23,2.55.32,4.18.38-.45,2.25.28,4,.27,6.1l-.26,45.35c-.68.28-1.09.36-.83.73Z"/>
          <path class="cls-103" d="M158.34,307.01c-1.68.41-1.66,2.4-3.68,4.72-3.13-.08-6.3-.14-9.45.16-1.56.14-3.36-.22-4.78-.56-.02-1.81-.09-3.27-1.56-4.44l19.47.12Z"/>
          <path class="cls-97" d="M64.7,278.76c0,.47-.43.65-.48.92-.23,1.42,4.94,2.15,6.46,1.56-.21,4.16-.35,11.97-2,15.14-.64.54-2.28-.22-2.32,1.28l-.71,27.44c-.06,2.33.9,4.72-.32,7.13-4.91-.25-9.6-1.02-14.4-1.55-7.22-.79-14.57,0-21.8.13-.98-2.75.18-4.74.65-6.46.23.38.22,1.09.57,1.13,2.28.3,20.27-.2,25.82.33.76-5.46,1.11-27.93-.7-31.35-.39-.73-3.03-1.8-1.53-2.77,1.8-1.17,4.54.18,6.58-.52l-.22-11.94,4.39-.46Z"/>
          <path class="cls-56" d="M75.81,259.66c-1.55,1.89.1,6.64-1.6,7.89-.67.49-2.83-.39-2.88.58l-.65,13.1c-1.52.58-6.7-.14-6.46-1.56.04-.27.47-.44.48-.92l.15-11.17c.32-1.01,2.55-.41,3.29-.75,2.05-.96.91-4.38,1.57-5.84.12-.27,6.61-2.53,6.11-1.33Z"/>
          <path class="cls-41" d="M198.52,210.72c.01-1.18.16-3.06-.02-4.23,2.09-1.15,4.3-2.17,6.86-2.22-.52,1.55.19,2.91-.49,4.35-2.38.76-4.29,1.85-6.35,2.11Z"/>
          <path class="cls-6" d="M159.62,305.52c.02.67-.63,1.33-1.28,1.49l-19.47-.12-10.68-.23c-.17-4.02-.13-7.66.17-11.61l16.31-.33c.31,0,.37.07.64.13-.42.78-.64,1.62-.47,2.73l.58,3.74c.18,1.13,3.76,1.07,4.41.09.34-.51.59-1.89,1.22-2.02.45-.09,1.41-.35,1.43.51.02.78-.24,1.78.57,2.19,2.73,1.37,1.53-6.39,1.63-7.28,1.39-.15,2.8-.77,4.54-.23.67,3.71.28,7.37.4,10.94Z"/>
          <path class="cls-31" d="M154.68,294.81c-.09.89,1.1,8.64-1.63,7.28-.81-.41-.55-1.4-.57-2.19-.02-.87-.98-.61-1.43-.51-.63.13-.88,1.51-1.22,2.02-.65.99-4.23,1.04-4.41-.09l-.58-3.74c-.17-1.11.05-1.95.47-2.73,1.6.31,3.28.39,5.17-.03.22-.68-.06-1.47.58-1.29.2.26.16,1.17.72,1.18,1.3.02,2.13.19,2.91.1Z"/>
        </g>
        <g>
          <path class="cls-21" d="M103.93,129.61c.24,2.71-.11,5.45-.08,8.16-2.66-.21-5.26-.27-8.31.21-1.2,20.68.89,13.65,2.45,15.66,1.05,1.35.5,5.13.2,6.11-.18.59-1.77.4-2.17,1.08-.71,2.24-.82,4.8-.88,7.3l-.63,26.61-.15,26.51c0,1.61.06,2.88-.49,4.05-1.56-.18-3.24.45-4.87-.44l-.25-13.58c-.04-2.18.09-4.34.09-6.53v-10.5c-2.34-.05-4.41.5-6.35.95-1.21-1.05-.23-4.07-.83-6.61-1.72-.49-3.32.4-4.58-.4-.2-2.13.95-10.21,2.16-12.68l3.05-6.19c1.87-3.8-1.1-1.48,2.26-5.8,1.18-7.7,4.34-.87,4.49-9.63l.37-21.37c1.31-.51,2.7-.13,3.71-.93,0-.66-.14-1.31.1-1.54.18-.17.58-.35,1.15-.36l9.58-.09Z"/>
          <path class="cls-11" d="M202.66,139.14l.87,2.93c.78,2.65-1.73,22.05,3,29.94,2.25-.55,4.09.83,4.12,2.51l.16,8.96c.02.97,1.4,10.27.13,12.37-4.16-.8-8.29-2.29-12.52-1.85-.39-9.1.17-18.23-.14-27.67l-.46-14.02c-2.11-.04-3.56.3-5.09-.13l-.15-14.57-7.15-.22c-1.03-2.68-.02-5.56-.75-8.75l-5.74-.21c-.29-2.56-.36-5.21-.08-7.77,2.81-.32,6.27-.73,9.6-.67l9.61.17.2,18.93,4.39.06Z"/>
          <path class="cls-104" d="M220.88,213.73c.11-.5.85,5.98,1.43,6.36,1.22.78,3.09,0,4.79.49,1.46,2.59,1.37,5.48,1.34,8.73l6.69.53.67,18.65,5.48.56.72,4.56c2.17,1.13,4.62-.03,7.07.64,1.26.91.46,4.1.36,5.55-4.33.08-8.67-.15-13.31.33-.26,1.78-.57,3.91-2.2,4.82-.56.32-1.53-.01-2.24.3-.8.35-.78,1.2-1.39,2.15-.77,1.2-3.06.08-3.83,1.47-.49.88-.08,2.62-1.18,2.56-.73-.04-2.24.36-2.18-.62.12-2.03.31-3.7,2.16-4.71,1.05-.57.67-3.37,2.91-3.21.73.05,1.3-.39,1.75-.88.42-.45.6-1.31.03-1.76.93-1.39.91-3.27.41-5.45l4.75-.77-.05-5.06c-1.63-.77-3.52.3-4.59-1-.24-.56-.19-1.2-.53-1.73,1.2-2.24.07-5.15.2-7.76-1.31.03-2.91.01-3.02-1.09l-.76-7.49c-1.6-.02-2.81-.61-4.08-.35-.31-1-1.29-2.77-1.24-4.01.07-1.51.85-3.25.34-5.05-1.48-.81-3.68.12-4.85-1.21-.85-.99-.1-2.87-.38-3.97-.2-.78.78-2.49,1.8-2.23,1.21.31,2.01.93,2.91.63Z"/>
          <path class="cls-89" d="M82.48,195.2c-2.08.48-4.28.62-6.4.48.82-2.36-.99-5.57.98-7.5,1.27.8,2.86-.09,4.58.4.6,2.54-.37,5.56.83,6.61Z"/>
          <path class="cls-78" d="M94.41,230.29c.2,1.1.2,2.28,1.21,3.09,1.75,1.4.46,4.25,1.3,6.13.65,1.46,3,.71,4.97.62l.81,13.8c-2.4.95-5.21.59-8.13.28.33-5.66.15-10.41-.3-15.57l-5.54-.33c-.55-2.87-.18-5.48.23-7.99,1.81.09,3.64.1,5.44-.04Z"/>
          <path class="cls-112" d="M198.42,194c.18,4.15-.55,8.35.08,12.49.18,1.17.03,3.05.02,4.23l-.05,4.66-.49,14.33c-1.41-.04-3.94-.65-4.8.87-1.75,3.14.18,6.72,0,9.56-.15,2.46-.96,5.24-.7,8.15-.43.78-2.72.05-3.4.38-1.13,1.55-.29,3.79-.85,5.64l-4.52.41-.25,11.97c-2.85.64-5.51.67-8.37.98l-.38,5.13c-1.58.5-3.08-.02-4.51.69-.43,2.12.19,4.78-1.21,6.64-.69.91-3.41-.16-4.1,1.16-.83,1.58-.01,3.66-.56,5.3l-8.08.44c-1.31.82-.46,3.6-.73,4.92-1.09.93-2.92.66-4.36.38-.23-4.48-.54-9.45.03-13.98.04-.35,1.45-.35,1.4-1.06-.03-.46-.41-1.11-.2-1.78.26-.84,1.36-.62,2.13-1.04,2.14-1.18.32-13.54,1.55-16.82,1.24.06,3.75.47,3.81-.99l.49-11.59c.32-1.1,4.17-.98,4.26.03l.33,3.82c.15,1.78.18,3.84.6,5.57.24,1,3.62,1.04,3.93.05.99-3.19.4-6.9.73-9.98,1.54-.44,3.03-.18,4.36-.77l.28-13.56c1.2-.81,2.62-.22,4.15-.67l.29-13.25c1.28-.74,2.81-.27,4.26-.66.62-4.1-.48-8.36.44-12.56.32-1.47,3.19-.92,4.4-.8l.67-9.97c1-.78,2.27.01,3.52-.71l.13-39.44c1.53.42,2.99.09,5.09.13l.46,14.02c.31,9.45-.25,18.57.14,27.67Z"/>
          <path class="cls-110" d="M197.98,229.7c-.11,3.34.5,6.83-.26,10.22l-4.53.22c.18-2.85-1.76-6.43,0-9.56.85-1.53,3.38-.91,4.8-.87Z"/>
          <path class="cls-46" d="M229.96,260.26c-2.63.33-5.24.3-8.07-.72l1.32-4.27c.32-1.04,2.31-.58,3.26-1.31,1.19-.98.41-3.38,1.42-4.63.77-.09,1.53.12,2.02-.34.23-.22-.34-.97.59-.99,1.06,1.29,2.96.23,4.59,1l.05,5.06-4.75.77c.51,2.18.53,4.06-.41,5.45Z"/>
          <path class="cls-55" d="M229.96,246.26c-.67-.06-2.16.04-2.49-.8-.85-2.16-.51-4.47-.58-6.78-1.61-.47-2.99-.14-4.59-.33-.6-2.94-1.03-6.37,0-8.79,1.28-.27,2.48.33,4.08.35l.76,7.49c.11,1.11,1.71,1.12,3.02,1.09-.13,2.62.99,5.52-.2,7.76Z"/>
          <path class="cls-92" d="M178.87,120.66c-.28,2.56-.22,5.2.08,7.77l-2.36.85c.6.58,1.03.2,1.23.61.13.27.08.63.04.9-3.1-1.83-13.3-1.74-16.98.88-1.2.86-.71,2.97-1.12,3.97-3.94.05-7.9-1.6-12.13-1.24-4.55.39-9.53,1.46-13.95.81-.35.4-.1,1.7-.87,1.49-.13-1.45-.2-3.8-1.94-4.51l-4.11-1.68c-2.68-1.09-5.93-.23-8.63-.17-4.6,3.31-1.15,4.52-3.05,7.05-.26.35-.74.31-.98.52-.45.4.04,1.1-.1,1.6-.28.1-.53.08-.8.14-.8-1.14.94-2.35.99-3.18.18-2.84.87-4.69,3.69-6.91-4.02-.12-6.88-.68-9.96-.6,2.8-3.8,10-2.19,11.23-4.55,1.88.24,3.83-.71,6-.71,3.89,0,7.35.04,10.92-1.07,5.12-1.6,10.75-.99,16.25-1.5l4.67-.43c7.25-.66,14.69-1.1,21.86-.06Z"/>
          <path class="cls-61" d="M105.6,129.04l2.33-.06c3.08-.08,5.93.48,9.96.6-2.83,2.22-3.51,4.08-3.69,6.91-.05.83-1.79,2.04-.99,3.18-1.16.23-3.71-.48-4.57.72-.61,5.24-.35,10.49-.27,15.85l.17,11.8c-1.36-.26-2.76.32-4.36-.27l-.32-30c-.03-2.7.32-5.44.08-8.16.44,0,.4-.08.49-.45.41.42.75-.11,1.19-.12Z"/>
          <g>
            <path class="cls-59" d="M125.74,5.45c-.09.6.54.4,1.32.51.47,1.58.28,3,.48,4.72,2.33.19,4.51.06,6.74.93.16,1.5-.12,2.52.37,3.75,2.41.3,4.7.75,6.89.62.25.99-1.13,3.21.42,3.89,1.01.45,3.59-.5,4.39.79-.52,3.02.09,6.08.03,8.9-.07,3.15-.58,6.52.5,10.13,1.35-.25,4.33-.69,4.43.63l.54,7.54,3.75.41.43,10.27c.05,1.28,2.24.44,2.69.89,1.82,3.4,1.18,8.08,2.68,11.19.78,1.62-.71,4.01-.3,6.06-2.54-.52-4.2.5-6.29.59l-21.95.9c-2.58.11-4.29,1.35-6.51,1.97s-3.84.48-5.66,1.69c-2.1,1.39-5.54.53-7.84,1.73-1.95,1.01-3.55,1.53-5.49.44-.03-1.77-.14-3.86.31-5.72.51-1.01,2.7-.55,4.14-.52,1.01-1.63.27-13.44.36-13.53,1.13-1.08,3.09-.11,4.1-1.19.12-.13,1.29-5.06.58-4.53l.82-14.56c.08-1.35,2.93-.31,3.89-.81,1.86-.96-.6-6.06-.53-6.01-.29-.23-.75.04-1.62-.25-.53-2.16.36-4.24-.62-6.33-2.03.62-4.37.7-4.74-1.59-.13-.8.34-1.93-.22-2.66-.74-.98-3.5.48-4.39-.81-.7-1.02.24-2.9-.87-3.34-.97-.39-3.2.38-4.69-.57l-.31-9.56c-3.16.27-6.66-.42-9.36.94-1.59.8-2.42,3.98-4.55,4.21l-7.24.79c-.07-2.16-.41-4.98,1.21-6.14,1.18-.85,4.61.37,4.76-1.18l.46-4.85.17-.5,36.73.16Z"/>
            <path class="cls-111" d="M241.61,106.84c2.15.49,4.89-.39,7.36.72,1.37.61,3.28,1.71,5.09,1.48,1.53,2.79,1,7.19.81,10.51l-4.99.52-.57,4.14c-2.33.39-4.72-.29-6.77.83-.36.2-.11,1.33-.36,1.64-1,1.2-4.96.56-6.56,3.06-.99,1.56-3.77-.03-5.3,1.63-2.31,2.5-6.54.94-9.65,1.87l-.75,4.11c-4.06.46-7.95.2-11.79.93-1.93.36-3.62.89-5.47.86l-4.39-.06-.2-18.93-9.61-.17c-3.33-.06-6.79.35-9.6.67-7.17-1.04-14.61-.6-21.86.06-.23-.13-.19-.38.19-.72-1.13-2.02-1.71-4.02-1.22-6.36,6.58.15,12.83-.55,19.4-.76l33.41-1.05c-.27-1.85-.08-2.54.29-3.36l11.36-.2c-1.17.02,9.83-.76,7.08-1.78,2.26-.3,5.12-.05,7.77-.03,1.02,0,1.26,1.52,2.18,1.28.63-.16,1.35-.45,2.16-1.04.25.18.47.3.67.37.46.15.77-.35,1.3-.23Z"/>
            <path class="cls-2" d="M119.17,124.42c-1.23,2.36-8.44.76-11.23,4.55l-2.33.06c-.01-.76.95-.86,1.21-1.77-1.34-.16-2.19.99-2.4,1.89-.09.37-.05.45-.49.45l-9.58.09c-.56,0-.96.18-1.15.36-.24.23-.11.88-.1,1.54-1.01.8-2.4.43-3.71.93l-.37,21.37c-6.43-.09-13.82.44-20.17-.21-.78-.08-2.15.43-3.06.11-.51-.18-.63-.98-1.52-1.6l-23.14-.59c-.91-.87-.51-2.98-.67-4.07-3.94-.39-8.38-.58-11.88-2.52-1.27-.7-2.09-2.89-4.21-2.14-.6-2.58-.42-5.28-.06-8.29,2.46-.6,5.25.34,6.92-1.31,3.01.48,6.3.18,9.35-.37s6.14-.4,9.26-1.27c.76-.21,1.32-1.18,2.52-1.13,3.93.17,7.6-.54,11.21-.57,9.76-.07,19.54-.87,29.4-2.21.71-.88,1.62-1.94,3.22-1.84,9.72.66,15.97-2.38,23-1.48Z"/>
            <path class="cls-75" d="M116.86,58.51c.7-.53-.46,4.4-.58,4.53-1.01,1.08-2.97.11-4.1,1.19-.09.08.66,11.89-.36,13.53-1.45-.03-3.63-.49-4.14.52-.46,1.86-.34,3.95-.31,5.72,0,.64-.4,1.62-.66,2.1-.34.62-2.28.38-2.9,1-1.2,1.22-.23,3.61-.67,5.07-6.14-.38-5.6,5.74-8.73,4.93l.37-8.96c1.58-.56,2.81-.31,4.43-.29l.6-17.64c1.81-.47,3.34-.04,4.91-.76l.16-32.54-5.41-.49-.38-6.17c-3.68.11-7.61-1.05-11.05.28-1.6.62-2.62,2.61-5.01,2.42-.69-.05-1.58.39-1.91.78-1.07,1.29,2.55,1.59-5.69,2.75-.28,2.5-1.7,4.23-4.11,3.68-3.07-.7-3.98,2.65-10.93,1.53.07-1.47-.68-3.41.23-4.58.79-1.01,3.1-.46,4.15-.56.4-.04.53-.03.9-.44.3-.33.18-.24.11-.61-.27-1.41-.21-2.96.23-4.59,1.34-.12,2.45-.36,3.56-.2,1.13,1.67-1.41,1.89.16,4.1,1.61-1.1,2.68-2.99,4.56-4.03,1.29-.72,1.93-1.23,1.29-3.28,1.48-.22,2.33-.59,3.28-.87.79-.23,1.51.19,2.22-.47,1.87-1.74-.38-3.4,1.19-3.43,3.48-.07,1.22,1.49,6.18.44,3.21-.67,6.22-.2,9.42-.7,2.15,3.17,2.66,6.6,2.9,7.01.96,1.64,5.8.17,6.67,1.65.94,1.59.09,3.71.6,5.32l3.97.55.25,12.29c.07,3.26-1.33,6.21-.55,9.64,2.11-.55,3.77-1.1,5.17-.42Z"/>
            <path class="cls-38" d="M88.85,5.79l-.46,4.85c-.15,1.55-3.57.34-4.76,1.18-1.62,1.15-1.28,3.98-1.21,6.14l7.24-.79c2.13-.23,2.96-3.41,4.55-4.21,2.7-1.36,6.2-.67,9.36-.94l.31,9.56c1.49.95,3.72.18,4.69.57,1.11.45.17,2.33.87,3.34.89,1.3,3.65-.17,4.39.81.56.73.09,1.86.22,2.66.37,2.3,2.71,2.21,4.74,1.59.99,2.09.09,4.17.62,6.33.87.29,1.32.02,1.62.25-.07-.05,2.39,5.04.53,6.01-.96.5-3.81-.54-3.89.81l-.82,14.56c-1.4-.67-3.06-.12-5.17.42-.78-3.43.62-6.38.55-9.64l-.25-12.29-3.97-.55c-.52-1.61.33-3.74-.6-5.32-.87-1.48-5.72-.01-6.67-1.65-.24-.41-.74-3.84-2.9-7.01-3.2.5-6.22.02-9.42.7-4.96,1.04-2.7-.51-6.18-.44-1.57.03.68,1.68-1.19,3.43-.71.66-1.43.24-2.22.47-.31-.4.17-.67.11-.91-.08-.36-.61-.31-.86-.32-.23-.01-.55,1.04-.92.78-2.53-1.75,1.92-7.39-1.77-5.57-.07-.65.58-.56,1.24-.63l1.25-7.94,4.66-.78.67-5.31c1.89-.4,3.9-.59,5.61-.16Z"/>
            <path class="cls-99" d="M192.63,92.29c-1.57-.1-3.25.31-5.04-.24-.52-1.11-.03-2.2-.46-3.39-.4-1.11-1.95-.55-2.7-.94-.24-.12-.49-.26-.75-.32-.41-1.93.7-3.89-.17-5.78l-.71,3.21c-1.25-.95-2.91-1.15-3.44-2.13-.81-1.52.1-3.34-.38-5.16-1.15-.79-2.51-.43-3.99-.86l-.61-6.71c-1.2-.1-3.86.41-4.12-.6-.93-3.74-.1-7.23-.71-11.05l-4.97-.7-.15-8.85c-1.46-.28-2.88.27-4.29-.34-.36-1.76.34-3.51-.25-5.02l-2.39-.96c-.36-1.24,1.02-2.7.36-3.89-.9-1.64-2.8-1.36-4.51-1.2-.34-2.07-.26-4.23-.83-6.2-.62-2.16-5.5.31-6.15-1.6.06-2.82-.55-5.88-.03-8.9-.8-1.29-3.38-.35-4.39-.79-1.55-.69-.18-2.9-.42-3.89,1.5-.09,3.19-.56,4.84.32.42,1.08-.36,2.9.46,3.88,1.05,1.26,3.03.39,4.46.79,1.6.45.98,2.79,1.31,4.18,1.19.58,2.4.09,3.58.53l.61,4.99,3.49.74c.35,1.9-.12,3.74.42,5.53,1.07.31,3.17-.43,3.83.59.96,1.49-.05,3.59.49,5.31,1.58.42,3.09-.03,4.41.6-.06,2.92-.13,5.22.41,7.73,8.19,1.99-.16,9.29,8.29,8.07.94,2.9.1,6.52.71,9.67l4.28.55.27,9.06c1.32.38,2.44-.04,4.1.18l.31,7.86c1.3.8,2.84.56,4.64.7.27,1.85.34,3.49.19,5.04Z"/>
            <path class="cls-70" d="M103.13,92.17c-.39,1.3-.62,2.63-.65,4.17-.01.86-1.81.71-1.93,1.16-.45,1.59-1.64,2.91-2.73,4.22-.11,2.49,16.58-.92,20.41.69-.55,1.34-9.38,2.34-9.35,2.32-.28.26-.35.74-.65,1.52l-4.81.76c-1.04.16-1.76.83-3.2,1-3.33.37-7.25-.21-9.94,1.57-1.71,1.13-3.53.33-5.49,1.28-1.05.51-1.66,2.2-3.61,1.3l-.91,2.93c-4,.05-7.55.37-11.02,1.6.04.61.09.91-.1,1.13-.29.33-.83.76-1.37.67-2-.32-1.04,2.22-7.81,1.57.18-.91-.25-2.75.57-3.57,1.23-1.23,3.62,0,4.82-1.02,3.28-2.81,4.07.57,4.21-3.07l5.83-1.04c-.48-3.22,5-1.38,8.11-2.96,1.47-.75,2.71-1.85,5-1.46.09-1.54.87-2.83,1.13-4,1.17.19,3.18,1.4,4.21.15,1.43-1.74.49-4.18.56-5.97,3.13.81,2.6-5.31,8.73-4.93Z"/>
            <path class="cls-64" d="M241.61,106.84c-.53-.12-.84.39-1.3.23-.19-.06-.42-.18-.67-.37-.8.6-1.53.88-2.16,1.04-.92.24-1.16-1.27-2.18-1.28-2.65-.02-5.51-.28-7.77.03-.88-.95-.7-2.4-.55-4.12-6.57-.5-13.05.35-19.36-.92-3.34-.67-6.45-.61-9.94-.52-.42-1.19-.12-2.09-.45-3.43l-4.64-.14c.34-1.47-.67-3.3.48-4.54,1.48-.29,3.06-.16,4.89.02.39,1.67-.06,2.94.46,4.29l28.52.27.39,4.65,13.53.44c.58,1.66-.13,3.2.75,4.34Z"/>
            <path class="cls-19" d="M127.28,4.12c-.72.02-.16.78-.37.95-.28.22-.92.16-1.16.39l-36.73-.16c.52-1.57.03-3.31.82-5.03,12.52-.22,24.7-.44,37.07-.03l.38,3.89Z"/>
            <path class="cls-29" d="M192.63,92.29c.18.15.37.3.44.53-1.15,1.23-.14,3.07-.48,4.54-7.11-.22-14.43-.18-21.77-.74-1.09-.08-1.13-3.81-.07-4.07,1.42-.35,3.02.15,3.9-.66,2.65,1.28,6.32.6,9.47.32.91-1.26.53-3.33.32-4.48.74.39,2.3-.17,2.7.94.43,1.19-.06,2.28.46,3.39,1.79.55,3.47.14,5.04.24Z"/>
            <path class="cls-24" d="M45.68,125.24c.24.83.51,2.48-.55,3.06s-2.49.13-3.91.48c-.66,1.37-.25,2.83-.66,4.12-3.05.55-6.34.85-9.35.37.23-.99-.56-2.67.58-3.45s2.86,0,4.21-.61c.7-.98.42-2.03.87-3.35,3.12-.16,5.98-.8,8.8-.62Z"/>
            <path class="cls-9" d="M141.54,15.98c-2.19.14-4.47-.32-6.89-.62-.49-1.22-.21-2.24-.37-3.75-2.23-.88-4.41-.75-6.74-.93-.2-1.71-.02-3.14-.48-4.72-.77-.11-1.41.09-1.32-.51.24-.22.88-.17,1.16-.39.22-.17-.35-.93.37-.95.26,2.67,4.84.68,6.35,2.41.67.76.21,1.9.51,2.97.76,2.74,6.62.34,6.76,2.23.13,1.71.33,2.98.64,4.25Z"/>
            <path class="cls-49" d="M75.41,20.61c3.69-1.82-.77,3.82,1.77,5.57.37.26.69-.8.92-.78.25.01.78-.04.86.32.05.24-.43.51-.11.91-.95.28-1.81.64-3.28.87.65,2.05,0,2.56-1.29,3.28-1.88,1.04-2.95,2.93-4.56,4.03-1.57-2.22.97-2.43-.16-4.1,1.24-1.47-.06-4.13.8-5.31.77-1.05,2.56-.02,3.14-1.11.43-.8-.22-2.39.6-3.35.32-.37.86-.46,1.33-.32Z"/>
            <path class="cls-100" d="M57.99,121.06c-.5-.54-1.39-.32-2.32.57-.62.59.08,2.04-.52,3.1-3.01.41-6,.24-8.9.06-.07-.72-.26-2.58.3-3.33.68-.56,13.74-1.37,11.44-.4Z"/>
            <path class="cls-67" d="M94.4,97.1c-.07,1.79.87,4.23-.56,5.97-1.03,1.25-3.04.04-4.21-.15.37-1.67-.52-3.6.47-5.47,1.39.03,3.01-.69,4.3-.36Z"/>
            <path class="cls-26" d="M64.76,36.54c.11-.44.57-.93,1.01-1.05.07.37.2.28-.11.61-.38.41-.5.4-.9.44Z"/>
            <path class="cls-29" d="M183.67,87.4c-3.12-.7-6.31-.22-9.42-.33-14.63-.54-29.41-1.41-44.22.28l-10.45,1.19c-.47.17.05,2.08-.97,2.28-4.02.8-11.59,1.59-15.48,1.35.44-1.45-.53-3.85.67-5.07.62-.62,2.56-.38,2.9-1,.27-.48.67-1.46.66-2.1,1.93,1.09,3.54.58,5.49-.44,2.31-1.2,5.74-.34,7.84-1.73,1.82-1.2,3.51-1.09,5.66-1.69s3.92-1.86,6.51-1.97l21.95-.9c2.09-.09,3.74-1.11,6.29-.59-.41-2.04,1.08-4.44.3-6.06-1.49-3.11-.86-7.8-2.68-11.19-.45-.45-2.64.38-2.69-.89l-.43-10.27-3.75-.41-.54-7.54c-.09-1.32-3.08-.88-4.43-.63-1.09-3.61-.57-6.99-.5-10.13.66,1.91,5.53-.56,6.15,1.6.57,1.98.48,4.13.83,6.2,1.7-.16,3.6-.44,4.51,1.2.65,1.19-.73,2.64-.36,3.89l2.39.96c.59,1.51-.12,3.25.25,5.02,1.41.61,2.83.06,4.29.34l.15,8.85,4.97.7c.6,3.83-.23,7.31.71,11.05.25,1.01,2.92.5,4.12.6l.61,6.71c1.48.43,2.84.07,3.99.86.48,1.82-.43,3.64.38,5.16.53.99,2.19,1.18,3.44,2.13l.71-3.21c.87,1.89-.24,3.85.17,5.78Z"/>
            <path class="cls-24" d="M209.08,108.47c-.37.82-.56,1.51-.29,3.36l-33.41,1.05c-6.57.21-12.82.91-19.4.76-.48,2.35.1,4.35,1.22,6.36-.38.35-.42.59-.19.72l-4.67.43c-5.5.5-11.13-.1-16.25,1.5-3.57,1.11-7.03,1.07-10.92,1.07-2.18,0-4.13.95-6,.71-7.04-.9-13.29,2.13-23,1.48-1.6-.11-2.51.96-3.22,1.84-9.86,1.34-19.64,2.14-29.4,2.21-.2-1.28,1.23-1.78,1.08-3.4-.2-2.11,6.52,1.05,5.95-3.11,3.61-.43,7.52-1,11.34-1.16,6.85-.3,15.05-2.15,19.5-1.71,1.83.18,2.37-1.26,3.15-1.93,4.09-.48,8.61-.96,12.9-1.37l9.39-.89c.73-.58.22-1.4.68-1.62,4.47-2.2,2.86,1.02,6.77.85,1.41-.06,2.03-1.49,3.22-1.59l7.39-.61c1.57-2.72,3.76-4.13,6.93-4.33,18.39-1.18,36.48-1.16,54.93-1.17.99,0,1.65.58,2.31.57Z"/>
            <g>
              <path class="cls-33" d="M174.25,87.06c.28,1.6.56,3.2.39,4.82-.88.81-2.47.31-3.9.66-1.06.26-1.02,3.99.07,4.07,7.34.56,14.66.52,21.77.74l4.64.14c.33,1.34.03,2.24.45,3.43,3.49-.09,6.61-.15,9.94.52,6.31,1.27,12.79.42,19.36.92-.15,1.72-.33,3.17.55,4.12,2.75,1.01-8.26,1.8-7.08,1.78l-11.36.2c-.65.01-1.32-.57-2.31-.57-18.44,0-36.54-.01-54.93,1.17-3.17.2-5.36,1.62-6.93,4.33l-7.39.61c-1.19.1-1.81,1.53-3.22,1.59-3.91.17-2.3-3.05-6.77-.85-.46.23.05,1.04-.68,1.62l-9.39.89c-4.29.41-8.81.88-12.9,1.37-.77.67-1.32,2.11-3.15,1.93-4.45-.44-12.65,1.41-19.5,1.71-3.82.17-7.73.74-11.34,1.16.58,4.15-6.15,1-5.95,3.11.15,1.62-1.28,2.12-1.08,3.4-3.61.03-7.28.74-11.21.57-1.19-.05-1.76.92-2.52,1.13-3.12.87-6.27.73-9.26,1.27.41-1.28,0-2.74.66-4.12,1.41-.35,2.79.13,3.91-.48s.79-2.24.55-3.06c-.35-.51.16-.82.57-.46,2.9.18,5.89.35,8.9-.06.61-1.06-.1-2.51.52-3.1.93-.88,1.82-1.11,2.32-.57.79.85,1.4-.9,1.98-1,6.76.65,5.81-1.89,7.81-1.57.54.09,1.08-.34,1.37-.67.2-.22.14-.51.1-1.13,3.47-1.23,7.03-1.56,11.02-1.6l.91-2.93c1.95.9,2.57-.79,3.61-1.3,1.97-.95,3.78-.15,5.49-1.28,2.69-1.78,6.62-1.2,9.94-1.57,1.44-.16,2.16-.83,3.2-1l4.81-.76c.3-.78.37-1.25.65-1.52-.03.02,8.8-.98,9.35-2.32-3.83-1.61-20.52,1.79-20.41-.69,1.09-1.3,2.28-2.63,2.73-4.22.13-.44,1.92-.3,1.93-1.16.02-1.54.25-2.88.65-4.17,3.89.24,11.46-.55,15.48-1.35,1.02-.2.5-2.11.97-2.28l10.45-1.19c14.81-1.69,29.59-.83,44.22-.28Z"/>
              <path class="cls-72" d="M136.66,98.51c1.55,1.32-17.69,4.37-18.01,3.62-.31-1.45-.26-3.21.44-4.48,10.52-1.35,20.52-1.1,30.74-1.25.33,0,.61-1.2,1.07-.55.21.29.47.5.29.91-.17.36-.59.38-1.18.25l-7.68.13-5.67,1.36Z"/>
            </g>
            <path class="cls-45" d="M183.67,87.4c.27.06.52.2.75.32.21,1.15.6,3.22-.32,4.48-3.15.28-6.82.96-9.47-.32.17-1.62-.11-3.22-.39-4.82,3.11.12,6.31-.37,9.42.33Z"/>
            <path class="cls-85" d="M105.6,129.04c-.44.01-.78.54-1.19.12.21-.9,1.06-2.05,2.4-1.89-.26.91-1.23,1.01-1.21,1.77Z"/>
          </g>
          <path class="cls-8" d="M185.43,137.39c-.23,1.41-.57,3.2-.52,4.7l-11.8,1.71c-.64-.21-1.31-.33-1.91-1.04,1.43-.42,2.16-.49,2.04-1.6-.07-.64-.21-1.84-1.15-1.78-2.55.17-5.26-.04-7.43.89-.65-.51-1.68-.75-2.82-.56-1.39.03-1.2-.25-.48-1.11,1.72.31,3.36-.48,5.25-.92,4.02-.94,8.01-.1,12.16-.47.76-2.29.19-4.86-.91-6.41.05-.28.1-.63-.04-.9-.2-.41-.64-.03-1.23-.61l2.36-.85,5.74.21c.72,3.19-.28,6.07.75,8.75Z"/>
          <path class="cls-63" d="M143.39,292.34c-1.36.6-2.77-.6-4.06-.51-.49-2.08-1.38-4.25-3.78-5.12l-.06-5.43c0-.39,0-.8-.24-1.1-.14-.17-.34-.25-.66-.24-.12-.58.5-.63,1.05-.77.35-4.47.54-10.4,1.15-14.73.49-.82,3.25-.8,4.03-.06l.4,21.32c1.75.46,3.02,4.86,2.9,5.16-.16.39-.99.58-.73,1.48Z"/>
          <path class="cls-3" d="M156.01,164.37c.03.64-.68,1.67-.84,2.22-.31,1.08-13.91.61-10.64.4l-2.67-4.37c-.94-1.54-.74-3.69-.35-5.4.26-1.13,2.62-1.72,3.07-.47s-.24,3.14,1.03,3.22c2.25.13,4.33.47,6.22-.6.09-1.74-.42-3.05.09-4.25.46-1.09,3-.77,3.23.44.6,3.23.72,6,.85,8.82Z"/>
          <path class="cls-79" d="M134.58,279.94c.32,0,.53.07.66.24.24.3.23.72.24,1.1l.06,5.43c2.41.86,3.3,3.04,3.78,5.12-3.71.26-7.47.42-11.42.19.3-5.31-.85-8.29-.47-11.91l7.15-.17Z"/>
          <path class="cls-27" d="M174.27,175.94c1.53.31,3.22-.3,5.16-.17l.23-13.11c4.67-1.7,1.68,1.13,5.39-1.78-.03,2.26.74,5.13-.49,7.34-.2.36-1.35.09-1.61.28-1.06.78,3.06,1.73.14,7.76-.87.5-3.17-.51-3.81.93-.42.95.36,2.71-.38,4.02-.55.96-3.8,1.07-4.23.02l-.39-5.29Z"/>
          <path class="cls-91" d="M185.4,157.47c.04,1.14-.33,2.29-.35,3.4-3.71,2.91-.72.07-5.39,1.78-.75-1.58-3.09-.61-4.64-1.29-1.16-.51-1.09-4.27.06-4.81,5.45-.89,7.42-2.74,10.31.93Z"/>
          <g>
            <path class="cls-102" d="M192.73,152.17l-.13,39.44c-1.25.73-2.53-.07-3.52.71l-.67,9.97c-1.21-.12-4.08-.67-4.4.8-.92,4.2.17,8.46-.44,12.56-1.46.39-2.98-.08-4.26.66l-.29,13.25c-1.52.45-2.95-.14-4.15.67l-.28,13.56c-1.33.58-2.82.33-4.36.77-.34,3.08.25,6.79-.73,9.98-.31.99-3.68.95-3.93-.05-.42-1.73-.45-3.79-.6-5.57l-.33-3.82c-.09-1.01-3.94-1.13-4.26-.03l-.49,11.59c-.06,1.46-2.56,1.06-3.81.99-1.22,3.28.6,15.64-1.55,16.82-.77.42-1.86.2-2.13,1.04-.21.67.18,1.32.2,1.78.04.71-1.36.71-1.4,1.06-.58,4.53-.26,9.5-.03,13.98.02.43-.54.79-.13,1.18-.63-.18-.36.61-.58,1.29-1.88.42-3.57.35-5.17.03-.27-.06-.33-.14-.64-.13-.03-.45-.09-.92-.01-1.44.12-.81-.52-.97-1.27-.94-.25-.9.57-1.09.73-1.48.12-.3-1.15-4.7-2.9-5.16l-.4-21.32c-.79-.74-3.54-.76-4.03.06-.61,4.33-.81,10.26-1.15,14.73-.55.13-1.17.18-1.05.77l-7.15.17c-.41-.07-.52-.43-.49-.8.13-1.94.41-4.04-.2-6.19-3.17-.06-6.01.15-8.75-.57.03-2.01.16-3.63-.31-5.42-1.57-.4-4.96.64-5.11-.92l-.52-5.54c-1.83.09-3.77-.36-4.73-1.87-.7.06-1.29.14-1.47-.23-.75-1.49.16-2.95-.52-3.43-.4-.28-1.24-.09-1.5-.03.11-.67-.76-.83-1.12-1.18l-.81-13.8c-1.96.09-4.31.84-4.97-.62-.84-1.88.45-4.73-1.3-6.13-1.01-.81-1.01-1.99-1.21-3.09-.29-1.61,1.26-4-.55-4.99.55-1.17.48-2.44.49-4.05l.15-26.51.63-26.61c.06-2.51.16-5.07.88-7.3.4-.68,1.98-.49,2.17-1.08.3-.98.85-4.76-.2-6.11-1.56-2-3.65,5.03-2.45-15.66,3.05-.48,5.66-.42,8.31-.21l.32,30c1.6.59,3,.01,4.36.27.03,1.86,1.24,4,.38,6.1,3.86-.37,3.98,4.11,3.73,7.23,1.68.54,3.64.36,5.45,0,1.52-.3,1.66-2.49,1.69-3.81.43-.85,1.83-.97,2.3-1.71.96-1.75,2.27-2.58,4.49-2.05l.67-5.12c2.2.35,4.28-.86,6.35-.99l10.93-.69c-3.27.21,10.33.68,10.64-.4.16-.55.87-1.58.84-2.22,2.32-1.16,3.99,1.83,5.33,2.97,1.18,1,7.62.4,8.09,4.96,4.5,3.16-.93,1.28,4.84,3.63l.39,5.29c.43,1.05,3.68.94,4.23-.02.74-1.3-.04-3.07.38-4.02.64-1.44,2.94-.43,3.81-.93,2.92-6.03-1.2-6.98-.14-7.76.26-.19,1.41.08,1.61-.28,1.24-2.21.46-5.08.49-7.34.02-1.11.38-2.26.35-3.4l-.49-15.39c-.05-1.49.29-3.29.52-4.7l7.15.22.15,14.57Z"/>
            <path class="cls-108" d="M145.24,175.61c.13.92-.2,2.84.82,3.52.75.5,3.02.69,3.78.11,1.13-.86.61-2.65,1.33-3.53,1.73-1.02,2.88.05,4,1.44.91,1.13,2.94.28,4.04,1.15,1.3,1.04.35,3.22,1.06,4.19.98,1.33,3.13.75,4.54.88,1.91.19-.46,4.54,2.36,4.7,1.12.06,2.31-.07,2.45,1.01.08.64.19,1.65-.27,2.18-1.3,1.48-5.29-.9-8.88-.29l-.91-3.95c-.22-.97-2.48-.18-3.22-1.02s-.11-2.18-1.02-3.06c-4.37-.07-8.66-.4-13.11-.22-1.47.06-.8,2.89-1.5,3.31-2.81,1.53-6.49.79-9.42,1.7.14.94-.18,1.89-.36,2.53.1-.35-4.82,3.86-7.74,2.52-.81-.37.18-2.21.52-2.95.4-.87,1.9-1.41,3.15-1.27l.6-4.68,8.93-1.01c.63-1.78.11-3.95,1.11-5.44.61-.51,3.13.33,3.49-.35,1.21-2.47,2.82-1.47,4.25-1.49Z"/>
            <path class="cls-82" d="M151.18,175.71c-.73.88-.21,2.67-1.33,3.53-.76.59-3.03.39-3.78-.11-1.02-.68-.69-2.59-.82-3.52,1.84-.02,4.16-1.33,5.93.09Z"/>
          </g>
          <path class="cls-15" d="M177.86,130.79c1.1,1.55,1.66,4.13.91,6.41-4.15.36-8.14-.47-12.16.47-1.89.44-3.53,1.23-5.25.92-.58-.12-1.42-.33-1.39-.98s-.44-1.36-.2-1.96c.4-1.01-.08-3.12,1.12-3.97,3.67-2.63,13.87-2.72,16.98-.88Z"/>
          <path class="cls-65" d="M132.82,136.71c0,.4.12.96-.11,1.21-1.76,1.91-3.36.59-6.31.07-5.36-.95-9.05.51-11.32-.58,1.9-2.54-1.55-3.75,3.05-7.05,2.7-.07,5.95-.93,8.63.17l4.11,1.68c1.74.71,1.81,3.06,1.94,4.51Z"/>
          <path class="cls-50" d="M126.4,137.99c.26.63-.65,1.15-.22,1.76-1.52-.19-3.45.49-4.59,1.11-.53.28-1.45.66-2.07,1.33-.52.56-2.45-.25-3.05-.46-.63-.95-1.04-2.71-2.47-2.19.14-.5-.35-1.2.1-1.6.24-.21.71-.17.98-.52,2.27,1.09,5.95-.37,11.32.58Z"/>
          <path class="cls-23" d="M173.11,143.8c.12,3.27.32,6.57-.27,10.07-2.63.43-5.33.38-8.12.07-1.37-4.75-.38-9.21-.05-13.68,2.17-.93,4.88-.72,7.43-.89.94-.06,1.07,1.14,1.15,1.78.13,1.12-.61,1.18-2.04,1.6.59.72,1.27.83,1.91,1.04Z"/>
          <path class="cls-90" d="M126.18,139.75c.56.07,1.23.1,1.65.52.87.88-1.47,2.38-.32,3.4.41.36,1.32.3,2.07.33.79,2.96.52,6.62-.15,9.89-2.86.36-5.16.34-7.95-.04-.63-4.47-.57-8.8.12-12.99,1.14-.61,3.07-1.29,4.59-1.11Z"/>
          <g>
            <path class="cls-88" d="M159.77,135.65c-.24.6.22,1.32.2,1.96s.82.86,1.39.98c-.71.85-.91,1.13.48,1.11,1.14-.19,2.17.05,2.82.56-.33,4.47-1.32,8.93.05,13.68,2.79.31,5.49.36,8.12-.07.6-3.5.39-6.8.27-10.07l11.8-1.71.49,15.39c-2.89-3.67-4.87-1.82-10.31-.93-1.15.55-1.22,4.3-.06,4.81,1.55.69,3.89-.28,4.64,1.29l-.23,13.11c-1.94-.13-3.63.48-5.16.17-5.77-2.35-.34-.46-4.84-3.63-.47-4.56-6.91-3.96-8.09-4.96-1.34-1.14-3.01-4.13-5.33-2.97-.13-2.82-.25-5.59-.85-8.82-.23-1.21-2.77-1.53-3.23-.44-.5,1.19,0,2.51-.09,4.25-1.89,1.07-3.98.73-6.22.6-1.27-.08-.59-2.03-1.03-3.22-.46-1.25-2.82-.66-3.07.47-.39,1.71-.59,3.87.35,5.4l2.67,4.37-10.93.69c-2.07.13-4.15,1.35-6.35.99l-.67,5.12c-2.22-.53-3.53.3-4.49,2.05-.47.74-1.87.86-2.3,1.71-.04,1.32-.18,3.51-1.69,3.81-1.81.36-3.77.55-5.45,0,.25-3.12.13-7.6-3.73-7.23.86-2.1-.35-4.24-.38-6.1l-.17-11.8c-.08-5.37-.34-10.61.27-15.85.86-1.2,3.41-.49,4.57-.72.28-.05.52-.03.8-.14,1.43-.52,1.84,1.24,2.47,2.19.6.21,2.53,1.02,3.05.46.62-.67,1.54-1.04,2.07-1.33-.7,4.19-.76,8.52-.12,12.99,2.79.38,5.1.41,7.95.04.67-3.28.94-6.93.15-9.89-.75-.03-1.66.03-2.07-.33-1.15-1.02,1.19-2.52.32-3.4-.42-.42-1.09-.46-1.65-.52-.43-.62.49-1.13.22-1.76,2.95.52,4.55,1.85,6.31-.07.23-.25.1-.81.11-1.21.78.21.53-1.09.87-1.49,4.42.65,9.39-.43,13.95-.81,4.22-.36,8.19,1.29,12.13,1.24Z"/>
            <path class="cls-16" d="M121.24,162.09c-3.67-.5-7.55-.07-10.87-1.15-1.59-.52-.64-4.47.67-4.89,1.9-.6,3.74.01,6.1-.87.68.39.5,1.29,1.01,2.19.76.16,2.07-.7,2.84.04.97.93.46,2.72.25,4.68Z"/>
          </g>
        </g>
      </g>
    </g>
  </g>
</svg>