<?xml version="1.0" encoding="UTF-8"?>
<svg id="_レイヤー_2" data-name="レイヤー 2" xmlns="http://www.w3.org/2000/svg" viewBox="0 0 310.98 512">
  <defs>
    <style>
      .cls-1 {
        fill: #fefeff;
      }

      .cls-2 {
        fill: #e5e7ef;
      }

      .cls-3 {
        fill: #696173;
      }

      .cls-4 {
        fill: #f3bc94;
      }

      .cls-5 {
        fill: #ddd9dd;
      }

      .cls-6 {
        fill: #afa9c1;
      }

      .cls-7 {
        fill: #938dab;
      }

      .cls-8 {
        fill: #d8d9ed;
      }

      .cls-9 {
        fill: #e6e0e7;
      }

      .cls-10 {
        fill: #7d7691;
      }

      .cls-11 {
        fill: #726b82;
      }

      .cls-12 {
        fill: #7f7a98;
      }

      .cls-13 {
        fill: #857e9c;
      }

      .cls-14 {
        fill: #a07772;
      }

      .cls-15 {
        fill: #9c7874;
      }

      .cls-16 {
        fill: #f8f0ae;
      }

      .cls-17 {
        fill: #736a7e;
      }

      .cls-18 {
        fill: #aa817c;
      }

      .cls-19 {
        fill: #c6c2df;
      }

      .cls-20 {
        fill: #f3bfad;
      }

      .cls-21 {
        fill: #8d85a2;
      }

      .cls-22 {
        fill: #e1b8b3;
      }

      .cls-23 {
        fill: #aaa5c4;
      }

      .cls-24 {
        fill: #837c9a;
      }

      .cls-25 {
        fill: #ebb2a2;
      }

      .cls-26 {
        fill: #a7a0b0;
      }

      .cls-27 {
        fill: #d3d4dd;
      }

      .cls-28 {
        fill: #887e9f;
      }

      .cls-29 {
        fill: #746e88;
      }

      .cls-30 {
        fill: #f2f3f7;
      }

      .cls-31 {
        fill: #a8a2c0;
      }

      .cls-32 {
        fill: #fff;
      }

      .cls-33 {
        fill: #d19d7f;
      }

      .cls-34 {
        fill: #9e97b7;
      }

      .cls-35 {
        fill: #b2847c;
      }

      .cls-36 {
        fill: #6e6980;
      }

      .cls-37 {
        fill: #f4bbac;
      }

      .cls-38 {
        fill: #cac7cd;
      }

      .cls-39 {
        fill: #89819e;
      }

      .cls-40 {
        fill: #a97d79;
      }

      .cls-41 {
        fill: #9a6f6d;
      }

      .cls-42 {
        fill: #fbdcc4;
      }

      .cls-43 {
        fill: #716a84;
      }

      .cls-44 {
        fill: #716b83;
      }

      .cls-45 {
        fill: #d5d7e2;
      }

      .cls-46 {
        fill: #b08481;
      }

      .cls-47 {
        fill: #e8eaf1;
      }

      .cls-48 {
        fill: #9b95b3;
      }

      .cls-49 {
        fill: #987777;
      }

      .cls-50 {
        fill: #b98d7d;
      }

      .cls-51 {
        fill: #d4a185;
      }

      .cls-52 {
        fill: #c7c7da;
      }

      .cls-53 {
        fill: #ad8279;
      }

      .cls-54 {
        fill: #dbdbe5;
      }

      .cls-55 {
        fill: #948caa;
      }

      .cls-56 {
        fill: #e8ada1;
      }

      .cls-57 {
        fill: #fbdac1;
      }

      .cls-58 {
        fill: #bf9281;
      }

      .cls-59 {
        fill: #9e8285;
      }

      .cls-60 {
        fill: #a67c75;
      }

      .cls-61 {
        fill: #a59ebc;
      }

      .cls-62 {
        fill: #f5da77;
      }

      .cls-63 {
        fill: #dcdfe9;
      }

      .cls-64 {
        fill: #7b7392;
      }

      .cls-65 {
        fill: #b2acc9;
      }

      .cls-66 {
        fill: #c5c3cf;
      }

      .cls-67 {
        fill: #79748c;
      }

      .cls-68 {
        fill: #e1e4ed;
      }

      .cls-69 {
        fill: #cdcbe5;
      }

      .cls-70 {
        fill: #605867;
      }

      .cls-71 {
        fill: #8a829e;
      }

      .cls-72 {
        fill: #bdb9d7;
      }

      .cls-73 {
        fill: #b17f7e;
      }

      .cls-74 {
        fill: #8c84a0;
      }

      .cls-75 {
        fill: #7a738c;
      }

      .cls-76 {
        fill: #7e7893;
      }

      .cls-77 {
        fill: #8d86a4;
      }

      .cls-78 {
        fill: #5f5766;
      }

      .cls-79 {
        fill: #f2b8a8;
      }

      .cls-80 {
        fill: #ecb7ab;
      }

      .cls-81 {
        fill: #e9ebf1;
      }

      .cls-82 {
        fill: #906868;
      }

      .cls-83 {
        fill: #da9d94;
      }

      .cls-84 {
        fill: #c7c5df;
      }

      .cls-85 {
        fill: #f5c9b4;
      }

      .cls-86 {
        fill: #c69784;
      }

      .cls-87 {
        fill: #f7c6b2;
      }

      .cls-88 {
        fill: #8b6566;
      }

      .cls-89 {
        fill: #d49e83;
      }

      .cls-90 {
        fill: #d3d5e3;
      }

      .cls-91 {
        fill: #cfa38c;
      }

      .cls-92 {
        fill: #706981;
      }

      .cls-93 {
        fill: #936a69;
      }

      .cls-94 {
        fill: #c2c1cc;
      }

      .cls-95 {
        fill: #6e677d;
      }

      .cls-96 {
        fill: #87829f;
      }

      .cls-97 {
        fill: #bab8c4;
      }

      .cls-98 {
        fill: #afa7c4;
      }

      .cls-99 {
        fill: #dadce7;
      }

      .cls-100 {
        fill: #e3e5ed;
      }

      .cls-101 {
        fill: #eab68b;
      }

      .cls-102 {
        fill: #7c758f;
      }

      .cls-103 {
        fill: #ada6c3;
      }

      .cls-104 {
        fill: #be9180;
      }

      .cls-105 {
        fill: #958eac;
      }

      .cls-106 {
        fill: #9b7272;
      }

      .cls-107 {
        fill: #746d85;
      }

      .cls-108 {
        fill: #c2c4de;
      }

      .cls-109 {
        fill: #9790ae;
      }

      .cls-110 {
        fill: #aaa6b5;
      }

      .cls-111 {
        fill: #afa9c8;
      }

      .cls-112 {
        fill: #e1b08a;
      }

      .cls-113 {
        fill: #a69fbf;
      }

      .cls-114 {
        fill: #feffff;
      }

      .cls-115 {
        fill: #8a829f;
      }

      .cls-116 {
        fill: #cbcde5;
      }

      .cls-117 {
        fill: #9e95b5;
      }

      .cls-118 {
        fill: #938cab;
      }

      .cls-119 {
        fill: #d0d1da;
      }

      .cls-120 {
        fill: #fad9c0;
      }

      .cls-121 {
        fill: #b2abc7;
      }

      .cls-122 {
        fill: #d89a94;
      }

      .cls-123 {
        fill: #ccccd6;
      }

      .cls-124 {
        fill: #cf9790;
      }

      .cls-125 {
        fill: #c6c4df;
      }
    </style>
  </defs>
  <g id="_レイヤー_1-2" data-name="レイヤー 1">
    <g id="_生成オブジェクト" data-name="生成オブジェクト">
      <path class="cls-116" d="M12.87,358.69c-.4.88-3.52.83-3.74-.1-.53-2.23.4-5.66-1.47-7.39-1.64-1.52-4.74-.08-6.86-1.06-.96-.45-1.1-3.58-.22-4.18,2.09-1.43,6.28.76,7.87-3.09.8-1.94.73-4.08,1.67-5.83.52-.97,3.68-.98,4.07,0,.76,1.99.24,4.91,1.4,6.85s3.48,1.58,5.48,2.09c.84.48.8,3.37.02,3.93l-6.91,1.21-1.32,7.56Z"/>
      <path class="cls-108" d="M27.74,244.03c-1.22.58-3.63.65-3.82-.4-.32-1.79.62-3.7-1.48-4.78.11-1.26.8-4.9-.83-5.12l-5.76-.78c-.84-.11-.84-3.1.01-3.76,1.51-1.18,4.71-.02,5.74-1.55,1.31-1.95,1.66-4.37,2.13-6.75,1.63-.19,2.99-.35,4.37.17.36,2.36-.24,5.02,1,6.78,1.06,1.51,3.88.66,5.62,1.26,1.25.43,1.29,3.54.14,3.96-2.13.77-4.18-.1-6.07.76l-1.05,10.22Z"/>
      <g>
        <path class="cls-27" d="M287.86,504.29c-.09.71.34,1.84-.37,2.53-2.9,2.81-9.37.93-11.02,1.45-9.01,2.81-19.05.39-25.8,1.56-3.16.55-6.22.68-9.52.73l-39.99.59-32.19.56c-12.97.23-25.7.57-38.59-.05-8.98-.43-18.01.51-27.02-.57-10.96-1.32-23.1.9-36.55-.64-3.09-.35-6.12-.03-9.37-.95s-7.04.89-9.91-.35c-1.08-.47-10.33-1.15-12.87-1.03-1,.05-2.92-.7-4.16-.84-1.91-.21-2.14-3.26-1.47-4.37l7.7-.18,46.9-.05,157.75-.06c8.1,0,16.19.25,24.24-.22-4.84.28,31.39-.27,22.25,1.9Z"/>
        <path class="cls-94" d="M83.36,493.44c.03,3.08-.28,6.21.27,9.23l-46.9.05-7.7.18c-3.55.08-7.35-.47-11.26-1.31-1.35-1.1-.8-4.74-.07-6.39,7.51-1.51,15.47-1.26,22.75-1.93.2.09.55.41.92.25.21-.09.44-.28.32-.63.19-.03.37.02.56.02l41.11.53Z"/>
        <path class="cls-123" d="M287.86,504.29c9.14-2.17-27.09-1.62-22.25-1.9l-.26-8.94-23.72-.1-.29-3.59c6.52-2.35,13.23-.69,19.94.13,3.64.45,7.13.28,10.73,1.01s7.19-.05,10.96,1.83c.31.15,13.53,2.1,14.8,2.18,4.12.28,9.14-.07,12.74,3.09,2.57,2.26-6.02,3.36-6.84,3.62-5.62,1.85-14.21-1.5-15.8,2.67Z"/>
        <path class="cls-119" d="M83.3,489.56c-.09,1.25.04,2.61.05,3.88l-41.11-.53c1.74-2.48,5.49-1.32,7.83-1.77,3.02-.59,5.54-1.79,8.58-.93,1.85.53,3.38-.49,4.98-.86,2.31-.54,4.69.83,6.77.02,4.37-1.71,8.69-.49,12.91.2Z"/>
        <path class="cls-119" d="M41.68,492.88c.12.35-.11.54-.32.63-.36.16-.72-.16-.92-.25,0-.65.77-.4,1.24-.38Z"/>
        <path class="cls-110" d="M265.61,502.39c-8.05.47-16.13.22-24.24.22.13-3.08.51-6.23.26-9.26l23.72.1.26,8.94Z"/>
      </g>
      <g>
        <g>
          <g>
            <path class="cls-95" d="M39.84,150.56l57.03-.27,71.08.07,45.1.13,62.19.23c4.33.02,8.7.89,12.94-.08,2.11-.48,4.59.66,6.98.28.47,2.46.33,4.42.06,6.91-2.48.42-4.53-.2-6.61.57-.14,1.2.34,3.27-.52,4.05l-6.3.69c-.47,1.03-.31,2.12-.96,2.93l-5.54.25c-.95,1.62-2.1,1.57-3.93,1.89-4.87.85-9.45,2-14.27,1.8-2.3-.09-4.21,1.1-6.45,1.55-2.9.59-19.13,1.96-20.82.6l-.2-13.9c-12.19-1.05-23.75.11-35.41.08l-89.64-.25c-2.37,0-4.7-.2-7.06.01-2.02.18-4.23-.68-6.52.06l-.19,14.1c-6.98,1.81-19.41-2.23-25.87-2.3-3.44-.04-5.82-2.19-8.92-2.75l-7.73-1.39c.18-4.5-7.92-1.84-10.59-3.33-.34-1.27.1-2.93-.44-4.16l-7.88-.47c-.36-2.51.04-4.77-.12-6.95l10.59-.32Z"/>
            <path class="cls-39" d="M265.2,143.41c2.84.05,5.8.14,8.64.45-.28.81.48.79,1.65.84-.3,2.03-.26,4.01-.26,6.02l-62.19-.23-45.1-.13c.04-2.07.5-4.25-.04-6.28.25,0,.5-.02.68-.22l29.91.09c1.32-.27-.5-7.68.06-10.02,9.68.1,19.43-.76,29.59-.08,1.25.42,1.04,3.22,1.27,4.39l18.05.07c1.24,0,2.6.09,2.88,1.55.09.45-.26,1.26.09,1.64.45.5,1.41.72,1.98.52,2.02-.74,2.24.92,3.11,1.33,3.09,1.47,6.82.01,9.69.06Z"/>
            <path class="cls-23" d="M57.41,143.4c4.12.25,8.44,1.16,13.2.79,8.9-.69,17.63.29,26.23.04-.24,2.01-.22,4.06.04,6.07l-57.03.27.08-6.06c.62-.05.53-.73.66-1.14.6-.13.41.71.59.76,5.49.92,11.07-1.04,16.24-.72Z"/>
            <path class="cls-12" d="M84.32,133.34c-.19.75.38,1.92-.34,2.44-2.24,1.63-4.34-.68-5.17,2.33l-21.02.74c-.91,1.46-.13,3.13-.38,4.56-5.18-.32-10.75,1.65-16.24.72-.18-.05.01-.89-.59-.76.34-1.09-.24-2.37.4-3.45.53-.89,1.89-1.3,3.21-1.38l10.25-.63,16.28-2.25c.18-4.36,4.29-1.13,10.42-3.38.82.54,2.13,1,3.17,1.06Z"/>
            <path class="cls-43" d="M288.18,150.64c-4.24.97-8.61.1-12.94.08,0-2.01-.05-3.99.26-6.02-1.18-.05-1.93-.03-1.65-.84,4.44.49,8.99.58,13.81.68l.53,6.1Z"/>
            <path class="cls-96" d="M39.92,144.5l-.08,6.06-10.59.32c-.14-1.92-.56-3.85.06-6.25l10.6-.14Z"/>
            <path class="cls-7" d="M118.94,143.41l48.96.68c.54,2.03.08,4.2.04,6.28l-71.08-.07c-.26-2.01-.29-4.06-.04-6.07l15.51-.45c2.36-.07,4.53-.39,6.6-.36Z"/>
            <path class="cls-111" d="M173.36,133.89c-.92.8-.03,2.05-.15,3.26-.45,1.14-2.13,2.14-3.7,2.53-1.21,1.03-.92,2.77-.94,4.18-.18.19-.42.22-.68.22l-48.96-.68c.85-.66,1.23-3.31.11-3.44-1.74-.2-4.73.99-5.2-1.03s4.25-.79,4.95-2.79c.27-.76.06-1.46-.45-2.06l42.53-.54c4.37-.06,8.52.66,12.48.35Z"/>
            <path class="cls-84" d="M118.36,134.09c.51.59.71,1.3.45,2.06-.7,2-5.4.86-4.95,2.79.47,2.02,3.47.83,5.2,1.03,1.12.13.73,2.79-.11,3.44-2.07-.03-4.24.29-6.6.36l-15.51.45c-8.6.25-17.33-.73-26.23-.04-4.76.37-9.08-.54-13.2-.79.26-1.43-.53-3.1.38-4.56l21.02-.74c.84-3.01,2.93-.69,5.17-2.33.71-.52.15-1.7.34-2.44,4.46.27,9.05.36,13.86.43l20.18.32Z"/>
            <path class="cls-34" d="M198.55,133.94c-.56,2.34,1.27,9.75-.06,10.02l-29.91-.09c.02-1.41-.27-3.16.94-4.18,1.56-.4,3.25-1.39,3.7-2.53.12-1.21-.77-2.47.15-3.26,8.39-.66,16.82-.04,25.19.05Z"/>
          </g>
          <g>
            <path class="cls-92" d="M213.73,49.06c.34,7.9-1.35,15.8-.95,24.03l.99,20.05c.11,2.18.73,3.77,1.19,5.67.88,3.63.11,7.29.38,10.88,1.45.48,2.93.27,4.49.36,1.09.06,1.9,1.43,1.5,2.5-.71,1.92.45,2.98.78,4.55.89,4.17-.07,8.33.29,12.55,2.2.53,4.77,0,6.43,1.58,3.43,3.28,7.58.25,9.34,4.78,8.64,1.44,17.4,2.11,26.46,2.35,1.18,1.24.68,3.66.57,5.04-2.87-.05-6.59,1.41-9.69-.06-.87-.41-1.08-2.07-3.11-1.33-.57.21-1.53-.02-1.98-.52-.34-.38,0-1.19-.09-1.64-.28-1.46-1.64-1.54-2.88-1.55l-18.05-.07c-.24-1.16-.02-3.96-1.27-4.39-10.16-.67-19.91.18-29.59.08-8.37-.09-16.79-.71-25.19-.05-3.96.31-8.11-.4-12.48-.35l-42.53.54-20.18-.32c-4.81-.08-9.39-.17-13.86-.43-1.04-.06-2.35-.52-3.17-1.06,5.11-1.88,10.8-2.35,16.36-2.38.79-4.76-.89-9.27,1.3-12.84l5.82.49c-.26,1.51,1.28,3.1-.5,4.93-.93.96.01,3.79-.57,5.29,2.31.42,4.22.26,5.9-.79,6.27,1.07,13.15.51,19.53-.47l.65,2.49,10.03-.03,28.05-.05c.22-2.14.82-3.98.63-5.66,1.52.92,3.61,1.12,5.13.12.54.43.47,1.46.71,2.46.29,1.2,1.7.49,2.34.61,5.67,1.07,11.55.83,17.65,1.34,7.71.65,15.17,1.54,22.86,1.07l.36-11.8-4.07-.74-.53-5.52-12.97-.46c-3.51-.13-6.77-.21-9.92-.85.33-.68.07-1.79,1.13-1.92l8.16.48c1.38.08,2.02,0,2.44-1.54,1.52,1.56,4.34,2.31,5.93,1.29.47-3.26.14-6.84.01-10.37l-.91-25.53c-.15-4.1-.44-7.8-.45-11.88-2.35-.87-6.5-.02-5.81-1.97-.67-2.28-.02-4.68-.09-7.03.02-1.57,5.34.77,5.96.66.74-.13.55-1.62.96-1.94,1.95-1.49,4.43-.68,6.5-.69Z"/>
            <path class="cls-8" d="M197.84,7.2l-.19,6.68c-1.88.88-4.1-.3-5.92.84-2.54,1.59-2.45,4.75-2.9,4.89-1.09.33-4.08.24-5.01.75-.69.38-.31,1.72-.94,2.56-.95,1.26-3.38.32-4.79.67l-.52,5.18c-1.07.27-1.92-.04-2.81.37-.79,1.35.2,3.42-.55,4.53-1,1.46-4.15-.04-5.16,1.02-1.32,1.38-.05,3.98-.4,5.84l-5.33,1.01c.14,1.29.26,2.21-.02,2.99-.47,1.32-3.61-.26-4.5.99-.5.7-.02,1.62-.22,2.58-.32,1.57-2.58,1.12-4.14.84l-.51,6.02c-.12,1.42-3.73.34-5.16.92-.73,1.06.43,3-.52,3.69-1.17.84-2.17,1.41-3.76,1.07.78,2.61-.86,3.39-2.1,4.9-.89,1.09.08,3.32-1.01,4.35-.88.83-2.23.56-3.24,1.15l-.73,8.55c-1.2.53-2.48-.07-3.54.52s-.66,2.45-.79,3.56c-.97.58-2.03.26-3.25.53-.56,2.49.28,5.17-.6,7.59-.37,1.01-.81,1.59-.76,2.64.09,2.09-3.86,3.32-5.39,2.03l.2-12.06c.06-3.26.79-6.76.14-10.09.45.38.66-.06.47-.47,1.89.34,3.78-.2,6.34-.16l.55-9.42,6.57-.78c.38-2.59-.03-5.03.78-7.35l5.5-.81c.04-2.26.21-4.19-.06-6.03-.03-.22.14-.36-.18-.53,2.88-.66,5.79-.13,9.24-.35,0-2.55-.34-4.76.18-7.04l4.62-.65.19-6.19,4.92-.59c.39-1.63-.34-3.99.81-5.46,1.51-1.19,4.37-.31,6.29-.86l1.24-7.3c1.6-1.14,4.25.2,5.52-1.22,1.05-1.33.43-3.45.99-4.85,2.43-.93,7.11-.63,7.73-1.44.69-.91-.18-2.49.56-4.42.6-1.57,12.79-1.22,12.13-1.18Z"/>
            <path class="cls-24" d="M237.96,8.43c.05.29-.61.77-.12,1.05.22.13,1.09.52.41.94-1.58.46-3.2.81-4.49,2.43l-1.06-5.32c-2.01,1.56-3.45-.96-4.58-.95-10.42.08-20.37.02-30.27.63.66-.04-11.53-.39-12.13,1.18-.75,1.94.13,3.51-.56,4.42-.62.81-5.3.51-7.73,1.44-.56,1.4.06,3.52-.99,4.85-1.27,1.42-3.92.08-5.52,1.22l-1.24,7.3c-1.92.55-4.78-.34-6.29.86-1.15,1.46-.42,3.83-.81,5.46l-4.92.59-.19,6.19-4.62.65c-.52,2.28-.18,4.49-.18,7.04-3.45.22-6.36-.31-9.24.35-.78-1.77-1.08-4.86.43-6.44,1.24-1.3,3.53-.51,4.83-1.54.34-1.7-.56-4.11.81-5.52,1.19-1.22,3.37-.41,4.8-1.36.3-7.77,7.74-5.32,8.64-6.84.43-.73-.15-6.69,1.85-7.36l4.61-1.53,1.68-4.01c.29-.68,1.6-.5,2.05-.77.58-.35.43-1.74.39-2.66,7-4.47,3.82-2.17,11.85-3.55.72-1.68-.27-4.01.93-5.35.89-1,3.07-1.26,4.31-1.31,14.34-.55,28.54-.87,43.09.24.79,2.48-.25,4.72.63,6.66.47,1.03,2.7.97,3.67,1.02Z"/>
            <path class="cls-44" d="M229.89,34.19c.81.25,2.42-.21,2.96.77.87,1.6-.5,4.34.49,5.78,1.25,1.82,3.75.29,5.25.28s4.85-.09,4.93.99c.03.32-1.05,1.07-.43,1.6,1.13.97,4.16,1.09,5.28.28.66-.48,1.59-2.92,2.99-1.59,1.58,1.51.87,4.56.84,6.55,1.66,1.08,3.72.28,5.37.83.69.06,1.72.24,1.9,1.01l.39,1.76c.28,1.25,3.13.15,3.3,1.03l.32,1.62c.29,1.5,16.33,1.31,17.13.49,1.68-.16,4.52.26,6.46.49,1.12,1.46.63,4.53.14,6.33-6.05.43-11.53.22-17.15-1.69-1.96-.66-4.76.08-6.27-1.46-.87-.89-.83-1.65-2.5-1.9-2-.3-3.99-1.05-6.21-1.14-6.77-.27-2.12-6.49-7.03-6.94l-14.01-1.28-.94-4.91c-10.44.92-6.09-2.28-11.52-.85-.96,1.53.13,4.16-.69,6.14-2.29.43-4.6.51-6.69.28-.24-2.25,0-4.73.39-7.21,1.65-.54,3-.15,4.68-.45l.64-6.27c1.23.14,2.65-.35,3.62-.47,1.16,1,2.87.1,4.86.38l.71,3.97c.59-1.77-.16-3.26.82-4.44Z"/>
            <path class="cls-77" d="M238.73,34.32v1.74c0,1.83-.73,3.48-.14,4.97-1.5,0-4,1.54-5.25-.28-.99-1.44.38-4.19-.49-5.78-.54-.99-2.15-.53-2.96-.77-1.75.28-.29-3.18-1.25-5.15-.6-1.04-4.06-.78-4.73.25-.95,1.44-.35,3.62-.4,5-.97.12-2.39.61-3.62.47l-.64,6.27c-1.68.29-3.03-.09-4.68.45-.38,2.48-.63,4.96-.39,7.21-.09.18-.21.39-.45.38-2.08.02-4.55-.79-6.5.69-.41.31-.23,1.8-.96,1.94-.62.11-5.94-2.23-5.96-.66-.58-.01-1.12-.35-1.5-.63-.52-.38.3-1.58.26-2.09-.14-2-.66-4.48-.43-6.62,1.68.14,3.83-.98,5.99-.55-.23-2.41.18-4.73.76-6.51,2.39-.23,4.87.13,7.37-.44.33-1.5.19-2.83.24-4.57l5.33-1.42c1.62-.43-.04-3.61.99-4.68.93-.97,3.53.26,3.73-1.34.16-1.31.24-2.71.63-4.26.24-.95,1.45-1.2,2.1-.65.35.29.1,1.12.38,1.85.24.64,1.88.28,2.09,1.03l.58,7.48c1.42.41,2.63.8,4.16,1.01.44,1.76-.28,3.36.42,5.06,1.85.56,3.7.63,5.33.63Z"/>
            <path class="cls-102" d="M123.43,74.29c.65,3.34-.09,6.84-.14,10.09l-3.15.26-.67,12.8-1.22.32c-1.42.32-3.41-.3-5.22.4-.96,1.45-.03,4.09-.19,5.71-.07.69-.18,1.24-.03,1.9,1.19,5.34-5.68,2.08-7.01,5.67-.71,1.91-.83,4.13-1.17,6.12l-5.82-.49c1.07-1.75.12-4.25,1.23-6.3,1.27-.72,2.76-.43,4.1-.89,1.71-3.59,2.11-7.26,2.68-11.14,1.9-.87,3.82-.5,5.9-.8l.89-13.12,5.15-1.03c.42-3.08-.41-6.4.98-9.27.52-1.07,2.97-.6,3.68-.22Z"/>
            <path class="cls-29" d="M273.22,49.03c-2.39-.01-4.86.46-7.36-.22-.08-.7-.29-1.18-.72-.85l-.08-6.28-5.29-.24c.05-2.86.48-4.89-.5-7.44-1.62.6-5.17,1.13-5.42.02l-.24-1.1-.13-4.2c-.05-1.72-2.99-1.24-4.97-1-1.54-2.33,1.56-9.5-2.19-8.54-2.07.53-1.94-1.97-2.58-2.68-1.08-.28-4.15,1.35-4.72-.37-.64-1.94.45-4.41-.76-5.72.68-.42-.19-.81-.41-.94-.49-.29.17-.77.12-1.05,1.04.06,3.25-.93,4.18.29s.15,3.42.93,4.81c1.5-.16,2.54.72,3.49,1.12,1.16.49.33,2.21,1.11,3.05,1.11,1.2,3.32.6,4.45,1.53,1.38,2.22.37,5.03,1.26,7.23.6,1.48,3.36,1.02,4.81,1.37.6,1.54.16,2.84,1.49,3.82,1.2.88,1.68,3.22,4.11,2.46l2.08,6.66c1.64-.47,2.37.38,3.4,1.1.82.58,3.3.35,3.43,1.67l.52,5.49Z"/>
            <path class="cls-76" d="M143.59,49.27c.27,1.84.1,3.77.06,6.03l-5.5.81c-.81,2.32-.4,4.75-.78,7.35l-6.57.78-.55,9.42c-2.56-.04-4.45.5-6.34.16-.32-2.79-.24-5.87.78-8.62l5.07-1.29.99-7.24,6.54-.95c.56-2.16-.5-4.73.67-6.18,1.31-1.47,4.14-.77,5.63-.26Z"/>
            <path class="cls-13" d="M273.22,49.03c1.71,0,5.21.1,6.29,1.42,1.22,1.49-.62,4.37,1.09,5.16-.8.82-16.84,1.01-17.13-.49l-.32-1.62c-.17-.88-3.03.21-3.3-1.03l-.39-1.76c-.17-.77-1.21-.96-1.9-1.01.06-.52.65-.6.97-.45.42.19.7.57,1.01.61.42.05,5.52-.56,5.54-.91l.07-.97c.43-.33.63.14.72.85,2.5.68,4.97.21,7.36.22Z"/>
            <path class="cls-74" d="M200.4,58.06c-.69,1.95,3.47,1.09,5.81,1.97.01,4.08.31,7.77.45,11.88l.91,25.53c.13,3.52.46,7.11-.01,10.37-1.59,1.02-4.41.27-5.93-1.29-.42,1.53-1.06,1.62-2.44,1.54l-8.16-.48-.15-1.53c-.16-1.64-7.76-.71-11.23-1.09-.45-1.12.58-1.26,1.38-1.86,5.63-4.24,8.58.98,8.61-4.32l.22-39.46c0-.52.78-1.33,1.23-1.62.56-.36,1.68-.1,2.46.22,1.73.7,3.39-.99,5.2-1.24.82-.11.21,1.33.72,1.35l.92.04Z"/>
            <path class="cls-41" d="M176.53,126.45l.12-3.07c1.95-.59,3.8-.36,6-.46.55-2.27-.06-4.37.18-6.39,2.1-.74.59-3.61,1.86-5.24,1.81-.8,4.02-.6,5.22-1.79,3.15.64,6.41.72,9.92.85l12.97.46.53,5.52,4.07.74-.36,11.8c-7.68.47-15.14-.42-22.86-1.07-6.1-.51-11.98-.27-17.65-1.34Z"/>
            <path class="cls-16" d="M130.85,98.13l23.72.13c.33,1.79-.45,3.78.35,5.55.52.06,1.35-.12,1.59.28.14.23.15.51.04.88-.42.11-.82.1-1.23.05-6.45-.81-12.96.01-19.88-.33-.84,2.25-.69,4.34-.17,6.6l13.02.07c.42,1.98.62,3.92.07,5.59-4.02-.57-8.11,0-12.76-.14-1.02,1.93-.69,4.09-.36,6.09,1.61.39,2.97.31,4.36.29-.5,1.12-1.23,1.76-1.33,2.98-.12,1.4.26,1.99,1.42,2.79l-10.03.03-.65-2.49c.56-3.12.5-6.41.42-9.6l-.15-6.28-.2-5.03c.59-2.34.27-4.61.34-7.69l1.45.23Z"/>
            <path class="cls-62" d="M167.85,98.19c.39,8.39-.41,16.82.51,25.07.19,1.67-.41,3.51-.63,5.66l-28.05.05c-1.16-.8-1.54-1.39-1.42-2.79.1-1.21.84-1.85,1.33-2.98l22.21-.22.14-18.05c-2.28-.18-3.87-.35-5.39.04.1-.37.1-.64-.04-.88-.24-.4-1.07-.22-1.59-.28-.8-1.77-.02-3.76-.35-5.55l13.28-.07Z"/>
            <path class="cls-91" d="M129.25,110.62l.15,6.28c-1.93-1.15-.85,4.83-1.33,6.12-6.18.34-11.88-.4-18.19.5-.98.14-.53,2.75-.43,3.45-1.67,1.05-3.59,1.21-5.9.79.58-1.5-.36-4.33.57-5.29,1.78-1.83.24-3.41.5-4.93.34-1.99.47-4.21,1.17-6.12.92.8,1.92-.57,3.03-.58l20.42-.23Z"/>
            <path class="cls-48" d="M198.63,41.69c-.23,2.14.29,4.62.43,6.62.04.51-.78,1.7-.26,2.09.38.28.92.62,1.5.63.08,2.35-.58,4.75.09,7.03l-.92-.04c-.51-.02.1-1.46-.72-1.35-1.82.25-3.48,1.94-5.2,1.24-.79-.32-1.9-.59-2.46-.22-.45.3-1.23,1.1-1.23,1.62-.28-.4.36-.94.27-1.21s-.72-.52-1.21-.59l-5.37-.79c-.24-2.4-.45-4.82.28-7.12,2.32-.18,4.01.04,5.96-.44.09-2.78-.23-5.25.42-7.59,3.18-.45,5.83-.11,8.42.11Z"/>
            <path class="cls-82" d="M174.04,104.46c.21,1.96-1.14,3.49-.41,5.56.65,1.86,0,4.28.19,6.22.21,2.29-.19,4.9-.33,7.13-1.52,1-3.61.81-5.13-.12-.92-8.25-.12-16.68-.51-25.07,1.54,0,3.97-1.09,5.54.25l.66,6.02Z"/>
            <path class="cls-18" d="M129.41,116.9c.08,3.19.14,6.49-.42,9.6-6.38.98-13.26,1.54-19.53.47-.11-.71-.55-3.31.43-3.45,6.31-.9,12.01-.16,18.19-.5.48-1.28-.6-7.26,1.33-6.12Z"/>
            <path class="cls-49" d="M179.66,104.96c3.47.38,11.07-.55,11.23,1.09l.15,1.53c-1.06.13-.8,1.24-1.13,1.92-.37-.07-14.03.76-16.27.53-.73-2.07.63-3.6.41-5.56,1.72,1,3.71.29,5.61.5Z"/>
            <path class="cls-53" d="M182.83,116.52c-.24,2.02.38,4.12-.18,6.39-2.19.1-4.04-.12-6,.46l-.12,3.07c-.64-.12-2.05.58-2.34-.61-.24-1-.17-2.03-.71-2.46.14-2.23.54-4.84.33-7.13l9.01.28Z"/>
            <path class="cls-113" d="M238.26,10.42c1.21,1.31.12,3.78.76,5.72.57,1.72,3.64.09,4.72.37.64.7.52,3.21,2.58,2.68,3.75-.97.65,6.21,2.19,8.54,1.98-.24,4.91-.73,4.97,1l.13,4.2c-.72,0-.36.72-.47,1.36l-14.41.03c-1.64,0-3.48-.07-5.33-.63-.7-1.7.03-3.3-.42-5.06-1.53-.21-2.73-.6-4.16-1.01l-.58-7.48c-.21-.75-1.85-.39-2.09-1.03-.28-.73-.03-1.56-.38-1.85-.65-.54-1.86-.3-2.1.65-.39,1.55-.47,2.95-.63,4.26-4.78.66-6.05-.41-8.91,2.39-.73.71.14,1.8-.07,2.9-.27,1.4-2.75.06-3.32.87-.73,1.03-3.26.49-4.46.96-2.76,1.09-.47,4.03-.89,5.33-.58,1.78-.99,4.1-.76,6.51-2.16-.44-4.31.69-5.99.55-2.59-.22-5.24-.56-8.42-.11-.65,2.34-.34,4.8-.42,7.59-1.94.48-3.64.26-5.96.44-.72,2.3-.51,4.72-.28,7.12l5.37.79c.49.07,1.12.32,1.21.59s-.55.81-.27,1.21l-.22,39.46c-.03,5.3-2.98.08-8.61,4.32-.79.6-1.83.74-1.38,1.86-1.91-.21-3.9.51-5.61-.5l-.66-6.02c-1.57-1.35-4.01-.26-5.54-.25l-13.28.07-23.72-.13-1.7-.92c-.78-.43-.53-2.05-.67-2.79-.05-1.05.39-1.63.76-2.64.88-2.41.04-5.1.6-7.59,1.21-.27,2.28.05,3.25-.53.13-1.11-.27-2.97.79-3.56s2.34.02,3.54-.52l.73-8.55c1.01-.59,2.36-.32,3.24-1.15,1.08-1.03.12-3.26,1.01-4.35,1.23-1.51,2.88-2.29,2.1-4.9,1.59.34,2.59-.23,3.76-1.07.95-.69-.21-2.63.52-3.69,1.43-.58,5.04.5,5.16-.92l.51-6.02c1.56.28,3.82.73,4.14-.84.2-.96-.28-1.88.22-2.58.88-1.24,4.03.34,4.5-.99.28-.78.16-1.71.02-2.99l5.33-1.01c.35-1.86-.92-4.46.4-5.84,1.01-1.05,4.17.44,5.16-1.02.76-1.1-.23-3.17.55-4.53.89-.41,1.74-.1,2.81-.37l.52-5.18c1.42-.34,3.85.6,4.79-.67.63-.84.25-2.18.94-2.56.94-.52,3.92-.42,5.01-.75.44-.14.35-3.29,2.9-4.89,1.82-1.14,4.04.04,5.92-.84l.19-6.68c9.91-.61,19.86-.55,30.27-.63,1.13,0,2.58,2.51,4.58.95l1.06,5.32c1.29-1.63,2.92-1.98,4.49-2.43Z"/>
            <path class="cls-72" d="M123.29,84.38l-.2,12.06c1.52,1.29,5.48.06,5.39-2.03.14.75-.11,2.37.67,2.79l1.7.92-1.45-.23c-.07,3.08.25,5.35-.34,7.69-5.4-.63-10.83-.02-16.24.17-.15-.66-.04-1.21.03-1.9,1.89-.93,9.78-1.17,7.66-5.02-.32-.58-1.36-1.29-2.25-1.09l1.22-.32.67-12.8,3.15-.26Z"/>
            <path class="cls-118" d="M265.14,47.97l-.07.97c-.02.35-5.13.96-5.54.91-.32-.04-.59-.41-1.01-.61-.31-.15-.91-.07-.97.45-1.64-.55-3.71.25-5.37-.83.03-1.99.75-5.04-.84-6.55-1.39-1.33-2.33,1.11-2.99,1.59-1.12.8-4.15.69-5.28-.28-.62-.53.46-1.28.43-1.6-.09-1.09-3.51-1-4.93-.99-.59-1.5.14-3.14.14-4.97v-1.74s14.41-.03,14.41-.03c.11-.64-.25-1.37.47-1.36l.24,1.1c.24,1.11,3.79.58,5.42-.02.99,2.55.55,4.58.5,7.44l5.29.24.08,6.28Z"/>
            <path class="cls-67" d="M229.89,34.19c-.98,1.19-.23,2.67-.82,4.44l-.71-3.97c-1.98-.28-3.7.62-4.86-.38.05-1.38-.54-3.55.4-5,.68-1.03,4.13-1.29,4.73-.25.96,1.97-.5,5.43,1.25,5.15Z"/>
            <path class="cls-31" d="M223.04,22.17c-.2,1.6-2.8.37-3.73,1.34-1.03,1.07.63,4.25-.99,4.68l-5.33,1.42c-.05,1.74.09,3.07-.24,4.57-2.5.57-4.98.21-7.37.44.42-1.29-1.87-4.24.89-5.33,1.2-.47,3.73.06,4.46-.96.57-.8,3.06.53,3.32-.87.21-1.1-.66-2.19.07-2.9,2.86-2.8,4.13-1.74,8.91-2.39Z"/>
            <path class="cls-15" d="M129.06,105.59l.2,5.03-20.42.23c-1.11.01-2.1,1.38-3.03.58,1.33-3.59,8.2-.33,7.01-5.67,5.41-.19,10.85-.8,16.24-.17Z"/>
            <path class="cls-19" d="M118.25,97.75c.89-.2,1.93.51,2.25,1.09,2.12,3.85-5.77,4.09-7.66,5.02.16-1.61-.77-4.26.19-5.71,1.81-.7,3.8-.08,5.22-.4Z"/>
            <path class="cls-104" d="M189.91,109.49c-1.2,1.2-3.41.99-5.22,1.79-1.27,1.62.24,4.5-1.86,5.24l-9.01-.28c-.18-1.95.47-4.37-.19-6.22,2.25.23,15.9-.6,16.27-.53Z"/>
            <path class="cls-106" d="M156.55,104.96c1.52-.39,3.1-.22,5.39-.04l-.14,18.05-22.21.22c-1.39.01-2.74.09-4.36-.29-.33-2-.66-4.16.36-6.09,4.66.15,8.74-.43,12.76.14.74,1.83,5.4,1.79,5.74.05.81-4.19.03-8.21,1.23-11.99.4.05.81.06,1.23-.05Z"/>
            <path class="cls-35" d="M155.32,105.01c-1.21,3.78-.42,7.79-1.23,11.99-.34,1.73-5,1.78-5.74-.05.55-1.67.35-3.61-.07-5.59l-13.02-.07c-.52-2.26-.67-4.35.17-6.6,6.92.34,13.43-.48,19.88.33Z"/>
          </g>
        </g>
        <g>
          <path class="cls-121" d="M97.53,308.39l.43,3.91c.19,1.7,1.28,2.64,2.76,2.91,1.97.35,3.5,2.24,3.57,4.48l.18,5.29c1.5.03,2.85.28,4.37.49l.71,9.05,10.06.88c-.76,2.1.46,4.41.46,6.27v133.28s-8.11.22-8.11.22c-.34-.71.36-1.03.92-1.73l.23-65.24c.04-11.56.7-22.49-.03-33.79-.07-1.08-2.37-.8-2.97-.34-.72.54-1.27,1.28-1.32,2.69l-.88,27.78c-.45,14.26-1.49,28.11-2.47,42.5l-1.34,19.88c-1.35,1.29-3.46.23-4.86,1.38s-1.69,4.67-.53,5.77c.63.6,2.74-.65,3.2.44.57-.87,1-.53,1.28-.15.16.21.49.43.16.77-8.62.55-17.79-1.51-26,.7-1.23-.57-2.97-1.03-4.36-1.08-.66-4.27.24-8.44.78-12.86l1.36-11.17c.64-5.24.32-10.62,1.74-15.54,1-3.47.37-6.92,1.2-10.61,3.13.6,2.69-2.6,3.08-7.75l.97-12.88.77-10.99c3.45.32.05-13.6,3.98-14.41-.71-1.42,1.68-2.07,1.73-2.89l1.21-18.77c1.1-17.05,2.45-30.62,2.32-48.19,1.87-.54,3.72-.34,5.41-.29Z"/>
          <path class="cls-71" d="M204.93,386.3l.57,5.6c2.95.63,15.59,1.36,16.84-1.25,4.11,2.95,9.9,4.98,14.48,2.8,1.46-.38,4,1.24,4.37-.81,2.87-.52,2.5,1.63,4.95.52,4.32,4.15,9.88,1.31,11.12,3.98.85,1.84.58,4.18.78,6.3l1.89,20.49c1.02.38,2.78.71,2.35,2.42-.39,1.53,1.53,1.87,1.65,2.63l1.14,7.42c.48,3.1,1.4,14.13,1.59,14.28.31.25,1.61.09,1.67.8.73,7.44,1.57,15.08,1.33,22.75-.01.45-1.85-.46-2.3-.22-.26.13-.65.24-.41.83-.47-.12-.75.51-1.23.43-3.1-.54-6.26.06-9.37,0-2.11-.03-16.15-.5-16.33,1.28-.05-.07.05-1.47-.61-1.47l-24.68.03c-.29-.39.12-.66.08-1.07l10.38-.13c2.24-12.55.25-8.52,0-11.67l-2.17-26.93c-.73-9.08-1.28-22.04-3.58-29.83l-8.99-1.57c-1.85-.32-3.22-.8-3.9-2.22-1.62-3.4-1.97-.23-8.12-2.45l-.41-13.69c2.28.33,4.85-.45,6.93.74Z"/>
          <path class="cls-11" d="M229.34,238.78c-.27.89.37,2.2.26,3.42l6.68.9c.58,1.94.2,3.48.57,5.86l6.45.58c1.34,8.98,1.75-1.07,1.78,8.04,0,1.94,2.7,1.18,3.44,1.94,1.27,1.3-.27,3.76,1,4.82.63.53,2.37-.08,2.77.77-.32-.7,1.73,11.59,1.57,9.34l.78,11.05c.99.23,3.32-.24,3.37.76l.56,10.98c1.73.04,3.05-.13,5.01.32-.29,4.7.59,8.92,1.07,13.36,2.91,27.3-2.34,65.7.93,92.86.78,6.45.57,12.65.76,19.42l4.66,1.27c.64,5.41.65,10.76.94,16.24.06,1.1,1.65.71,1.87,1.37,1.22,3.7.35,7.79,1.26,11.41.7,2.76,2.05,17.74,1.4,21.16-3.57.33-6.56.29-9.53.19-.24-.59.15-.69.41-.83.45-.23,2.28.68,2.3.22.24-7.67-.6-15.31-1.33-22.75-.07-.71-1.36-.56-1.67-.8-.19-.15-1.11-11.18-1.59-14.28l-1.14-7.42c-.12-.75-2.04-1.1-1.65-2.63.44-1.71-1.33-2.05-2.35-2.42l-1.89-20.49c-.19-2.11.07-4.46-.78-6.3-1.23-2.67-6.8.18-11.12-3.98-2.45,1.11-2.08-1.04-4.95-.52-1.51.16-.81-4.15-2.51-5.83.7.08,1.51-.09,2.01-.62.46-.48,1.29.71,1.67.44,2.03-1.41,3.96-1.02,6.01-.6,2.89-6.48,2.89-13.37,5.21-19.73.48-1.3,1.76-1.84,2.09-3.95,1.62-10.35,3.11-20.21,2.89-30.78-.24-11.65-.15-22.81-1.77-34.16-1.67.37-3.06.21-3.3-1.09-.37-1.98.44-4.53-.8-6.3-.68-.64-3.31.1-3.55-1.24-.31-1.71-.02-3.53-1.46-4.76l-.15-17.48c-4.98.1-.76-7.11-4.99-7.91-.94-.18-1.78-.2-2.23-.51-.81-.58-.09-1.72-.42-2.55-1-2.51-7.34-1.49-9.45-1.7l-.98-10.87c-.05-.52-2.24,0-2.48-.44s-1.06-.96-.77-1.95c.39-1.34,2.02-1.88,3.13-1.87Z"/>
          <path class="cls-107" d="M84.76,277.55c.6,2.04.47,4.8,1.81,6.79.75,1.11,3.45-.02,4,1.34-.24,3.77.22,7.6.5,11.53l5.97.46.51,10.14c0,.19-.05.39-.02.57-1.7-.05-3.54-.25-5.41.29.13,17.57-1.23,31.14-2.32,48.19l-1.21,18.77c-.05.81-2.44,1.47-1.73,2.89-3.93.81-.53,14.74-3.98,14.41l-.77,10.99-.97,12.88c-.39,5.16.06,8.35-3.08,7.75-.82,3.69-.2,7.14-1.2,10.61-1.42,4.93-1.1,10.3-1.74,15.54l-1.36,11.17c-.54,4.42-1.44,8.59-.78,12.86-5.4-.21-7.48-5.56-7.48-5.56-.59-4.4.68-8.5.76-12.58l1.9-1.34,1.94-13.68,1.65-15.2c.16-1.47,1.75-1.75,1.9-2.45,1.01-4.67.49-9.27,1.25-13.9.95-5.78.19-11.41.64-16.9.06-.79.81-.53,1.28-.79.85-.32,2.57.42,3.36-.29.91-2.17,1.01-4.76.98-7.03-.03-1.73-.56-3.51-.16-5.24,2.85-1.72,1.18-5.72,2.15-8.65.48-1.47,1.58-4.28.19-5.7-1.33-.78-3.73-.44-5.15-1.1-.35-1.68.1-2.97.54-4.47,1.65,0,3.06.91,4.92,1.09.73-3.51.74-6.7.76-9.84.04-5.65.63-8.53,2.2-14.23,1.86-6.74.65-14.03.79-20.92l.37-17.62c.04-2.01.56-3.36-.68-5.3-.72-1.12-.12-3.24-2.07-4-.4,2.62-1.99,4.83-2.19,7.39s-.76,3.87-3.09,4.3c-.87,1.91-.27,4.85-.73,6.95-1.32.65-2.52-.03-4.36.5l-1.55,9.78c-1.42.65-3.09.25-4.88.5l-.16,6.93c-1.72.49-3.27.1-5.42.27l-1.05,15.96c-1.42.58-2.86.08-4.41.48l-.24,6.45c-.05,1.33-2.9,3.6-1.61,5.37-2.39-1.05-.79,3.73-3.22,7.32,3.56-.06,6.75.54,9.72-.05.67.94.51,2.12-.82,2.91,1.11,2.16,3.28,1.74,1.82,2.39-1.79-.88-3.76-1.75-6.28-1.65-.84,1.91.55,4.31-1.05,5.82-2.16.28-4.26,0-6.98-.19-.62-6.22-.9-12.39.52-18.08,3.28-2.26,1.71-10.7,3.05-11.42.38-.21,1.81.23,1.99-.37.47-1.47-.09-3.41,1.72-4.38l.96-10.15,5-.64.57-7.05,5.24-.52.74-9.43c1.65-.69,3.39-.38,5.31-.77l.67-10.47,4-.76c1.1-3.36,1.71-6.77,1.96-10.33.97-.68,1.97-.32,3.1-.71.54-1.24-.03-8.99,1.38-7.84Z"/>
          <path class="cls-99" d="M104.58,158.07l.31,8.51c.1,2.62-.28,48.47-.47,47.55l-5.95,1.07c-.65,1.82-.2,3.38-.4,4.86-.28,2.15-1.24,4.17-2.31,6.15l-2.2,4.09c-2.3,4.28-1.99,9.57-2.08,14.5,2.22.62,3.91-.08,6.08.15.36,2.87-.65,5.16-1.12,7.51-.33,1.62-1.23,1.71-2.59,2.67-1.71,1.34-.59,4.83-1.58,6.52-1.14,1.94-1.17,3.7-1.16,5.95l.04,16.96c-.07.59-.56.79-.57,1.12-.55-1.36-3.25-.23-4-1.34-1.34-2-1.21-4.75-1.81-6.79s.43-5.3-1.35-7.28c-.99-.06-2.45.19-3.58-.97-2.25-2.34-1.59-8.45-1.17-11.76l.65-5.17c2.15-17.13,4.42-4.7,5.39-13.14l.56-4.9c.1-.83,1.24-1.85,1.38-2.87.16-1.16-.29-3,.59-4.38.59-.92,2.18-1.33,3.12-2.31,2.34-2.41.61-10.84,3.11-14.58.62-.93-.1-3.31-.1-4.69,0-1.47,1.29-2.11,1.64-3.34s.1-3.05.77-4.26c.39-.71,1.46-1.11,1.19-2.25-.25-1.03-1.04-.89-1.93-.77-1.43-1.01-1.61-2.67-1.72-3.98l-.52-5.71c-.2-2.24-1.36.08.28-7.99.88-.12,3.37.48,3.91-.62l.54-18.51c2.37-.22,4.69-.02,7.06-.01Z"/>
          <path class="cls-45" d="M229.83,172.15c0-.3-2.22,20.48.38,23.04.7.68,2.58.14,3.22,1.17,1.25,2.02-.44,3.31,1.59,5.99,2.27.35,4.6,2.02,4.48,4.95s1.39,5.13,1.87,7.38c.35,1.63.05,3.81,1.11,5.18.66.86,3.58.88,4.12,2.42-.07,3.85.93,7.24,1.1,10.76l.27,5.53c.32,6.46.19,9.23-4.68,10.96l-6.45-.58c-.37-2.38.02-3.92-.57-5.86l-6.68-.9c.11-1.22-.54-2.53-.26-3.42.57-1.87-3.79-2.53-4.53-1.31-.84,4.48-.53,9.91-.52,14.5-.4.26-.56-.17-.58-.67-.27-6.07.46-11.7-.49-17.67-.19-1.21,1.17-2.19,2.67-2.96.32-.16.31.93.61,1.1.68.37,1.67-.55,1.96-.46,1.21,2.13,1.51,3.81,3.02,4.31s1.93-.73,2.85-2c1.33-1.83,4.44-.72,6.25-.59,1.95.14,1.55-1.56,1.69-2.69.43-3.5-2.72,1.68-2.37-7.18-1.17-.84-2.65-.3-4.05-1.02.37-12.23-1.64-1.87-1.62-11.91-.27-1.23-3.54-.87-5.07-.52-.91-2.45-.05-4.47-.68-6.88l-7.57-.16c-.66-2.92-.48-5.21-.26-7.64,1.07-.52,1.7-.92,2.69-1.54l-.46-15.36c-.03-.87-1.36-1.49-1.16-2.82.4-2.61.34-5.47-.21-7.94-.34-1.54-2.5-.91-3.42-.88-3.47.1-10.29-.6-14.04.31.7,2.29-.49,4.04-.43,5.46-.72-.16-1.5-.22-2.51-.21-3.95.01-1.85-5.29-3.2-5.63l-2.7-.68c-1.91-.48-.37-5.11-.97-7.42,11.66.03,23.22-1.13,35.41-.08l.2,13.9Z"/>
          <path class="cls-120" d="M62.83,366.49l.93,4.58,10.32.07c.48,2.86.44,5.53.4,8.11l-.1,5.68c-.38-.09-.51-.27-.7.14-3.67.56-7.34,1.18-11.33-.16-.25-2.05-.29-3.96-.25-5.75.05-2.48,1.11-4.79.84-7.68-2.04-.82-4.51-.61-6.61.23.2-.67-.87-.45-.81-1.06,1.59-1.51.21-3.91,1.05-5.82,2.52-.1,4.49.76,6.28,1.65Z"/>
          <path class="cls-83" d="M62.08,379.17c-.03,1.79,0,3.7.25,5.75,3.99,1.34,7.66.72,11.33.16,2.74,1.22-.08,3.36,1.41,6.88,1.18-.19,1.81-.26,1.76.38-.47.25-1.22,0-1.28.79-.36.18-.58-.19-.83-.64-3.82.17-7.75.48-11.58-.64-1.36-1.68-1.09-3.95-1.96-5.66-.56-1.1-2.86-.4-3.8-1.16-1.92-1.56-1.07-4.39-1.25-6.3,2-.12,4,0,5.95.45Z"/>
          <path class="cls-1" d="M97.52,158.08l-.54,18.51c-.54,1.09-3.03.49-3.91.62-.98-1.88.06-3.95-2.27-4.97l.19-14.1c2.29-.74,4.5.12,6.52-.06Z"/>
          <path class="cls-26" d="M256.36,475.28c.34,1.72-.49,3.6.53,5.12-1.21,1.54-16.48-.35-15.53,1.64-1.81-1.01-1.06-3.31-1.33-5.47.18-1.78,14.22-1.31,16.33-1.28Z"/>
          <path class="cls-66" d="M265.72,475.27c.32,1.78.37,3.55-.11,5.69-3.19-.16-6.12.46-8.73-.56-1.03-1.51-.19-3.39-.53-5.12,3.1.05,6.27-.55,9.37,0Z"/>
          <path class="cls-85" d="M62.08,379.17c-1.95-.44-3.96-.57-5.95-.45-.22-2.33-.2-4.67.18-7,2.1-.85,4.57-1.06,6.61-.23.27,2.89-.8,5.2-.84,7.68Z"/>
          <path class="cls-1" d="M95.78,197.91c-.55-.84-.62-2.11-.75-3.02.89-.12,1.68-.26,1.93.77.28,1.14-.8,1.54-1.19,2.25Z"/>
          <path class="cls-4" d="M120.08,474.96v-133.28c4.94.22,4.94,8.45,5.06,12.38,1.28,0,2.28.07,2.72.83.4.7.53,1.37.53,2.58l-.1,117.47c-3.11.02-5.67-.05-8.21.02Z"/>
          <path class="cls-117" d="M111.96,475.17c-2.87.08-5.73-.24-8.61-.06.34-.34,0-.56-.16-.77-.28-.38-.71-.71-1.28.15-.46-1.09-2.56.17-3.2-.44-1.16-1.1-.82-4.66.53-5.77s3.51-.09,4.86-1.38l1.34-19.88c.97-14.39,2.01-28.24,2.47-42.5l.88-27.78c.04-1.41.6-2.14,1.32-2.69.6-.45,2.9-.74,2.97.34.73,11.3.07,22.23.03,33.79l-.23,65.24c-.56.7-1.26,1.02-.92,1.73Z"/>
          <path class="cls-55" d="M110.64,318.93c3.2,1.54.35,3.66,2.89,5.8,1.62,1.37,5.56-.06,5.91,1.29.45,1.72-.22,3.53.56,5.04,2.26.67,1.37,2.85,1.46,4.27-.57-.18-1.24.13-1.85.08l-10.06-.88-.71-9.05c-1.52-.22-2.87-.46-4.37-.49l-.18-5.29c-.08-2.24-1.6-4.12-3.57-4.48-.25-1.72,3.09.93,4.35-1.77,2.31-.7,1.9,3.73,5.57,5.49Z"/>
          <path class="cls-28" d="M102.53,307.89c3.38-.23,1,2.8,2.54,5.55-1.27,2.7-4.61.05-4.35,1.77-1.48-.27-2.57-1.21-2.76-2.91l-.43-3.91c-.02-.18.03-.38.02-.57,1.64.3,3.33.18,4.98.07Z"/>
          <path class="cls-100" d="M224.28,251.97l.05,26.38c-1.13.8-2.57.46-4.18.9l-.79,6.05c-1.63.45-3.28.17-5.41.36l-1.3,12.91-4.83.31-1.3,8.84c-.1.68-1.93.05-2.35.37-2,1.52.97,3.1-3.19,6.71-.48.42-.46,2.15-.6,2.73-.22.89-1.97.66-2.52,1.4-1.2,1.62-.24,3.85-1.1,5.69l-6.13.24-.7,6.36c-1.85.47-3.8.02-5.92.31l-1.97,10.75c-.16.89-2.64.24-2.88,1.04-1.59,5.36.22,4.93-2.42,7.19-1.43,2.62-.62,5.78-1.49,8.53l-4.89.72-1.82,13.39c-1.68.44-3.3-.14-5.12.13-.78,2.32-.66,4.75-1.23,7.36l-2.84.64c-.46,1.3-.35,2.53-.67,4.04-3.16.63-6.15.51-9.01-.13-.22-.05-.48-.09-.7-.17-1.78-1.23-1.22-3.63-2.15-5.43-.65-1.26-1.4-3.2-1.97-4.59-.4-.98-3.07-1.03-3.01-2.47.9-5.74-4.65-1.76-5.19-11.72-1.43-.7-3.09-.18-4.27-1l-.88-4.92c-1.04-5.82-5.13-11.1-4.8-17.84l-5.26-1.7c-.08-1.42.8-3.59-1.46-4.27-.78-1.51-.11-3.32-.56-5.04-.35-1.35-4.29.08-5.91-1.29-2.54-2.14.31-4.27-2.89-5.8-.28-.48.18-.49.99-.62-.49-2.84-3.13-27.57.1-26.51.47.15.97.89.74,1.43-.98,2.34,1.06,3.3,1.59,4.74,1.21,3.29.56,7.14,1.52,10.61,1.28.73,2.77.36,4.28.67l1.19,7.09c2.19.7,4.37.27,6.78.7l.38,8.38,3.8.71c.4,3.88.82,7.58,1.48,11.36,2.34,13.58,3.61,4.25,5.66,17.17.9.22,3.82-.34,4.11.77.85,3.21.22,6.21.61,9.66,1.65.91,3.7,1,6.07.59l1.36-11.64,1.65-7.35c.47-2.12,1.61-3.72,1.95-5.65l2.62-14.96,4.04-.85c-.11-4.48.82-8.46,1.38-12.92,1.64-.55,3.21-.13,4.68-.38s1.93-1.5,1.98-3.01l4.52-.67c-.17-1.81.47-3.4,2.1-3.92,3.1-.99,1.4-7.02,6.63-6.67.38-4.03.74-7.82,1.51-11.74l3.79-.65c.19-4.04-.14-7.79.62-11.57,2.34-.23,3.84.13,5.36.16l.14,19.09c1.18-1.26,2.88-1.15,3.81-1.87,1.4-1.09.48-3.56.93-5.43l5.49-.65c.51-3.93.25-7.58.32-11.09l.65-34.4c1.63-.39,3.21.01,4.64-.56,1.08-2.15-.4-4.84.57-7.23.63-1.55,2.21-2.48,1.55-4.97s-.8-5.19-.38-7.89l5.89-.42c.5-2.93.08-5.6.26-8.57.07-1.14-1.27-1.85-1.07-3.11.23-1.42-.43-3.48-1.58-4.25-.76-.51-2.04-.37-2.69-1.09.27-2.57.28-5.66.15-7.69-1.42-.24-2.86-.32-2.9-1.24s-.24-2.12.59-2.44c.61-.24,1.73-.31,2.6.08,1.17.7-.11,2.79.73,3.99.95.63,2.6.65,3.97.59.44-3.56.7-6.69.4-9.96-1.54-.29-3.65.04-4.42-1.38-.9-1.65-1.01-4.94.21-6.48.87-.81,3.75.41,4.09-1.51.54-3.05-.21-6.05,0-8.85.92-.03,3.08-.65,3.42.88.55,2.47.61,5.33.21,7.94-.2,1.33,1.13,1.95,1.16,2.82l.46,15.36c-.99.62-1.62,1.02-2.69,1.54-.21,2.43-.4,4.72.26,7.64l7.57.16c.63,2.41-.24,4.43.68,6.88,1.52-.36,4.79-.72,5.07.52-.02,10.04,1.99-.32,1.62,11.91,1.4.72,2.88.18,4.05,1.02-.34,8.86,2.8,3.68,2.37,7.18-.14,1.13.26,2.83-1.69,2.69-1.8-.13-4.91-1.24-6.25.59-.92,1.26-1.3,2.5-2.85,2s-1.81-2.18-3.02-4.31c-.29-.09-1.28.83-1.96.46-.31-.17-.3-1.26-.61-1.1-1.5.77-2.86,1.75-2.67,2.96.95,5.96.22,11.6.49,17.67.02.5.18.92.58.67Z"/>
          <path class="cls-98" d="M190.38,355.43c-1.72,4.91-.71,14.82-.77,18.84l-.15,10.43c2.45.96,5.5,1.02,7.81.13.51-.18.97.22.75.72l.41,13.69c6.15,2.22,6.5-.96,8.12,2.45-2.46-.82-2.02,8.53-1.75,9.96l7.23.49c-.13,1.25.91,2.44,1.03,3.6,1.55,14.37,1.64,28.6,1.61,43.19-.01,5.3-.28,10.21.14,15.1.04.42-.36.68-.08,1.07l-46.91.12c-3.51,0-6.87-.26-10.82-.42l.27-37.17c.1-13.05-.5-25.69.47-38.25,3.09.6,6.24-.17,9.81-.37l.05,34.82c0,.78.17,1.57.5,1.78.23.14,1.24.13,1.26.58.35,10.62.22,21.74,1.27,32.32,1.01,1.03,4.42.59,4.5-.61.26-4.02-.09-7.65-.31-11.51l-1.35-23.81-2.22-38.29c-.08-1.4-1.12-1.31-2.88-1.17l.33-4.85c.36-.3,1.43-.06,1.6-.78.39-1.68-.11-3.1.03-4.45.12-1.11.23-2.49.75-3.83.55-1.4,2.59-.76,3.44-1.44,1.33-1.07.45-4.08,1.84-4.61,3.83-1.44,3.99-4.88,5.28-7.8.51-1.15,2.74-1.46,2.15-3.81-.23-.9.35-1.95.9-2.41s1.88-.02,2.37-.21c1.74-.67.74-5.26,2.86-4.72.49.13.49.75.46,1.18Z"/>
          <path class="cls-75" d="M158.36,393.76c-1.62,1.57-.48,3.91-.61,5.65-.97,12.56-.37,25.19-.47,38.25l-.27,37.17c3.94.16,7.3.43,10.82.42-.59,1.06-2.07.65-2.48,2-.03-.27.09-.85-.15-1.27l-8.89-.27c-.62,4.35-.42,8.52-.3,12.66.05,1.57-.38,3.27.05,5.04.07.27.97,0,1.1.2-.16.64-2.47.97-2.46.09.07-4.91-.4-9.35.21-13.72.22-1.58.69-3.15.45-4.66l-5-.38c.45-6.29-.65-12.48-.64-18.38l.09-64.55,6.09.39c1.37.09,2.17.48,2.46,1.37Z"/>
          <path class="cls-46" d="M141.85,372.52c-.06,1.44,2.61,1.49,3.01,2.47.57,1.38,1.32,3.33,1.97,4.59.93,1.8.36,4.2,2.15,5.43-1.49-.53-3.12-.88-5.15-.47l-.14,29.71-.07,7.75-.2,34.5c-1.96-.02-3.95.45-6.39-.14l-.06-84.14c1.5-.7,3.52.14,4.86.32Z"/>
          <path class="cls-51" d="M148.99,385.01c.22.08.47.12.7.17.19,2.27.12,4.55.12,6.82l-.09,64.55c-2.09.08-4.19-.03-6.28-.06l.2-34.5.07-7.75.14-29.71c2.03-.41,3.67-.05,5.15.47Z"/>
          <path class="cls-32" d="M165.34,477.24c.14,1.12-.03,2.37.49,3.86l16.09.49c.35,2.27.3,4.39.06,6.41l-25.99.35c-.12-4.14-.32-8.31.3-12.66l8.89.27c.24.42.11,1,.15,1.27Z"/>
          <path class="cls-97" d="M181.99,488c-.19,1.62.29,3.22-.21,5.41l-24.63.19c-.14-.2-1.04.08-1.1-.2-.43-1.78,0-3.47-.05-5.04l25.99-.35Z"/>
          <g>
            <path class="cls-3" d="M121.46,335.33l5.26,1.7c-.33,6.74,3.76,12.02,4.8,17.84l.88,4.92c1.18.83,2.85.31,4.27,1,.54,9.97,6.09,5.98,5.19,11.72-1.34-.18-3.37-1.02-4.86-.32l.06,84.14c2.44.59,4.43.12,6.39.14,2.09.03,4.19.14,6.28.06,0,5.89,1.09,12.08.64,18.38l5,.38c.25,1.51-.23,3.07-.45,4.66-.6,4.37-.14,8.81-.21,13.72-.01.88,2.3.55,2.46-.09l24.63-.19c.5-2.19.02-3.79.21-5.41.24-2.02.28-4.14-.06-6.41l-16.09-.49c-.52-1.49-.36-2.74-.49-3.86.41-1.35,1.9-.93,2.48-2l46.91-.12,24.68-.03c.66,0,.56,1.4.61,1.47.28,2.17-.48,4.46,1.33,5.47.78,2.34-.21,5.39-.02,7.73l.29,3.59c.25,3.03-.13,6.18-.26,9.26l-157.75.06c-.55-3.02-.24-6.15-.27-9.23-.01-1.27-.14-2.63-.05-3.88.18-2.65.47-5.27.12-8.23l-5.41-.39c-.66-1.81-.33-3.54-.67-5.12,8.21-2.21,17.38-.15,26-.7,2.88-.18,5.74.13,8.61.06l8.12-.22c2.53-.07,5.1,0,8.21-.02l.1-117.47c0-1.2-.13-1.87-.53-2.58-.43-.76-1.44-.83-2.72-.83-.12-3.93-.12-12.17-5.07-12.38,0-1.86-1.23-4.17-.46-6.27.61.05,1.28-.26,1.85-.08Z"/>
            <g>
              <path class="cls-14" d="M223,482.12l-.36,9.5c-.03.69-.27,1.27-.76,1.27l-32.9.66c-.39-2.34-.78-4.1.16-5.53,3.32.74,6.86-.69,10.15-.7,4.74,0,9.56.89,14.67.24.71-1.93.4-3.95.42-5.67,2.93-.05,5.75.01,8.61.23Z"/>
              <path class="cls-60" d="M119.54,482.13c-.3,1.61.18,3.38-.7,5.09-1.42.02-2.66.13-3.15.88-1.54,2.35.4,3.82-1.23,5.4l-24.05-.31c-.81-1.89-.16-3.61-.26-5.29,5.05.24,7.77-.39,14.15-.35,1.09,0,3.02-.03,3.14-1.61.05-.68-.59-1.44-.63-2.14-.05-.97,1.15-.74,1.43-1.69,3.76-1.11,7.67-.08,11.3.03Z"/>
              <path class="cls-93" d="M114.46,493.5c1.63-1.58-.32-3.05,1.23-5.4.49-.75,1.73-.86,3.15-.88.88-1.71.4-3.48.7-5.09,2.78.08,5.82-.95,9.1-.19.17,3.79.14,7.47-.1,11.25-4.78.19-9.47.37-14.08.31Z"/>
              <path class="cls-88" d="M221.88,492.89c.49,0,.74-.58.76-1.27l.36-9.5c2.96.22,6.44-1.26,9.83-.17.51,1.19.87,11-.93,11.4-3.66.8-7.24-.06-10.01-.46Z"/>
              <path class="cls-58" d="M108.25,482.1c-.28.96-1.49.72-1.43,1.69.04.7.68,1.47.63,2.14-.12,1.58-2.05,1.62-3.14,1.61-6.38-.04-9.1.59-14.15.35l.26-6.06c6.12.25,12.06-.59,17.83.26Z"/>
              <path class="cls-50" d="M214.38,481.89c-.02,1.72.29,3.74-.42,5.67-5.11.65-9.93-.24-14.67-.24.33-1.8-.04-3.63.04-5.44,5.01-.39,10.04.09,15.06,0Z"/>
              <path class="cls-38" d="M148.76,489.73c-.24,1.07.69,3.32-.47,3.48-3.7.51-7.26.36-11.05.35-.18-2.35-.44-4.39.04-6.33-.99.9,7.6-5.5,1.28-1.9-.11-.69-.96-2.33-.1-3.12,1.06-.97,2.77.11,4.68-.08-.55,4.35,1.96,6.78,5.61,7.6Z"/>
              <path class="cls-86" d="M199.32,481.89c-.08,1.81.3,3.64-.04,5.44-3.29,0-6.82,1.43-10.15.7-.18-2.01-.42-4.11.27-6.08,3.55-.48,6.77.19,9.92-.06Z"/>
              <path class="cls-5" d="M148.76,489.73c-3.65-.82-6.16-3.25-5.61-7.6-1.91.2-3.62-.88-4.68.08-.86.79-.02,2.43.1,3.12,6.32-3.6-2.27,2.8-1.28,1.9l.15-5.79c4.09-.19,7.78-.53,11.76-.23-.26,3.34.14,5.94-.44,8.52Z"/>
            </g>
          </g>
          <path class="cls-109" d="M206.53,401.71c.68,1.42,2.04,1.9,3.9,2.22l8.99,1.57c2.31,7.79,2.85,20.75,3.58,29.83l2.17,26.93c.25,3.15,2.24-.88,0,11.67l-10.38.13c-.43-4.89-.16-9.8-.14-15.1.03-14.58-.07-28.82-1.61-43.19-.13-1.17-1.17-2.35-1.03-3.6l-7.23-.49c-.28-1.44-.72-10.78,1.75-9.96Z"/>
          <path class="cls-56" d="M222.34,390.66c-1.25,2.61-13.89,1.87-16.84,1.25l-.57-5.6c4.05-1.58,8.41.09,13.47-.62.38-3.95.66-8.42.03-12.74-.25-1.74-2.51-1.12-3.52-.58-.94-2.09-2.59-1.42-5.95-3.79-.23-.16-.02-1.27-.33-1.43-1.77-.93-2.24,1.81-4.98-4.12,5.42-.62,11.63-.04,15.77,5.1,2.53,3.14,4.95,5.51,5.89,9.72,2.82,12.63-3.53,3.6-2.97,12.82Z"/>
          <path class="cls-17" d="M223.1,366.17c-.13.94,1.01,1.45,1.17,2.61.08.56-.91,1.01-.96,1.42-.11.91,1.01,1.18,1.4,1.79l3.44,5.44c1,1.59,2.11,2.99,2.78,4.81,1.13,3.04,3.22,5.59,3.87,9,.23,1.23.93,2.31,2.02,2.21-4.59,2.18-10.38.15-14.48-2.8-.56-9.21,5.79-.19,2.97-12.82-.94-4.22-3.35-6.58-5.89-9.72-4.14-5.14-10.36-5.72-15.77-5.1-8.3.95-4.53-.62-10.09,1.45-.23-.67.22-.8,1.05-1.07-1.67-4.45,1.29-3.8.85-5.39,4.94-.46,9.81.6,14.92,1,2.26.18,3.85,1.65,6.53,1.51-.29,1.48,5.18,5.71,6.2,5.66Z"/>
          <path class="cls-87" d="M204.93,386.3c-2.08-1.19-4.65-.41-6.93-.74.22-.5-.24-.9-.75-.72.09-2.08-.16-4.05.24-6.09.31-.05.52.44,1.03.42l15.37-.4c.68-2.08.63-4.36,1-6.41,1.01-.54,3.27-1.16,3.52.58.63,4.33.36,8.79-.03,12.74-5.05.71-9.42-.97-13.47.62Z"/>
          <path class="cls-33" d="M238.68,386.82c1.71,1.68,1.01,5.99,2.51,5.83-.37,2.05-2.91.43-4.37.81-1.09.09-1.79-.98-2.02-2.21-.65-3.41-2.75-5.96-3.87-9-.68-1.83-1.78-3.22-2.78-4.81,1.03-1.09,1.87-.41,2.8-.23,1.43.28,1.86,1.32,2.39,2.52.69,1.59,1.99,2.18,2.93,3.32s1.3,2.68,2.41,3.78Z"/>
          <path class="cls-80" d="M194.22,158.32c.59,2.31-.95,6.94.97,7.42l2.7.68c1.35.34-.75,5.64,3.2,5.63,1,0,1.79.06,2.51.21.15,3.96-.37,8.52.49,12.35-.71,1.18-.52,3.29.04,4.57-.92,4.65-.06,10.1-.53,14.95l-5.85.26c-.28,1.12-.47,1.82-.63,3.13-.13,1.05-2.72,2.16-3.34,1.05-.94-1.7-.45-3.9-.25-5.57,1.43-.58,2.77-.32,4.29-.74l.52-22.51c.03-1.21.42-2.93-.67-3.42-.85-.39-2.98-1.32-3.5.11-3.54,9.85-11.9,3.33-12.3,6.48.6.42,1.03.65,1.01.91-.03.38-.15.62-.54.37-1.71-1.43-3.22-1.78-5.91-1.72-2.04.05-5.6.82-6.16,3.53-1.94-1.16.89-1.01,1.73-3.62.39-1.23-5.26-3.01-5.26-3.61.21-2.33-1.35-4.7.06-5.96,1.29-1.16.23,1.01,4.12-3.42.32-.37.62-.39.64.28-1.26,3.47-1.2,1.35-2.19,2.17-1.46,1.22-1.48,5.44.94,5.87,4.21.74,8.32-.17,12.59.34,2.56.31,5.86,1.04,7.78-1.03.89-.97.05-2.99.71-4.48-.58-.91-2.14-2.64-3.42-3.43l-3.03-1.86c-3.08-1.89-7.21.2-10.3-.06-16.14-1.36-32.66-.66-48.99-.42-2.96.04-6.34.73-9.28.39-3.71-.43-7.55-.92-11.49-.58l-.31-8.51,89.64.25Z"/>
          <path class="cls-115" d="M240.69,386.21c-1.28-2.6-3.08-5.22-3.49-8.35-.26-1.99-1.76-3.37-2.25-4.82-.87-2.59-1.75-4.75-4.16-6.72-1.28-1.05-1.24-3.78-2.57-4.65,10.36-8.14,11.4-10.08,16.76-22.02,1.07-2.38,2.02-4,2.43-6.83.7-4.77,1.93-9.38,1.55-14.43-.47-6.2-.31-12.49-2.71-18.17-.28-.66-1.46-.73-1.75-1.99-.51-2.24-.38-5.18-1.8-6.96s-.57-4-2.09-5.71c-.57-.64-2.45-.1-3-.97-.7-1.1.03-2.44-.32-3.55-.32-1.01-2.9-.84-3.39-.07-.71,1.12-.14,2.53-.54,3.85-3.19-1.07-4.91,8.37-9.61,13.96-1.64,1.94-3.39,3.8-2.76,6.49,1.23,0,3.9-.79,5.16-.29.46.18.79.84.71,1.48,2.72-1.76-8.17,7.35-5.88,3.83-1.65,4.96-5,2.29-6.66,4.78-.33.5.25,1.64.27,2.29.21,5.9-4.64,6.31-4.08,8.78.22.95.21,2.24,1.61,1.91-.26.65-.27,1.77-.86,2.14-3.57.4-3.8,5.45-6.23,5.75-.1-.71-.58-1.12-1.2-2.47-2.03,3.83-3.48.04-5.07,9.14-.17.97-2.22.77-2.76,1.89-.39.81-.08,1.9-.44,3.06-.21.69-1.11,1.07-1.49,1.59-.21.3-.18,1.21.67,1.17.54-.02,1.16-.73,1.51-.43.15.13.09.61.38.68.27,3.58-1.21,2.45-3.55,4.83-.91-.29-1.81.2-2.72.04.02-.43.03-1.05-.46-1.18-2.12-.54-1.12,4.05-2.86,4.72-.5.19-1.85-.23-2.37.21s-1.13,1.51-.9,2.41c.59,2.36-1.64,2.66-2.15,3.81-1.29,2.92-1.45,6.36-5.28,7.8-1.39.53-.5,3.54-1.84,4.61-.85.68-2.88.04-3.44,1.44s-.63,2.72-.75,3.83c-2.34.94-1.06,2.99-3.48,4.42-.94.56-2.87.83-3.03-.29-.1-1.48,1.59-2.28.29-3.05-.5,2.33-1.29,3.88-1.82,5.74-.31,1.1.57,3.04-.68,3.49-.77.27-2.42.76-3.24.36-.3-.89-1.09-1.28-2.46-1.37l-6.09-.39c0-2.27.07-4.55-.12-6.82,2.85.64,5.85.76,9.01.13.32-1.52.21-2.74.67-4.04l2.84-.64c.56-2.61.44-5.04,1.23-7.36,1.83-.27,3.44.31,5.12-.13l1.82-13.39,4.89-.72c.87-2.75.06-5.91,1.49-8.53,2.65-2.25.83-1.83,2.42-7.19.24-.8,2.72-.15,2.88-1.04l1.97-10.75c2.11-.29,4.06.15,5.92-.31l.7-6.36,6.13-.24c.86-1.84-.1-4.07,1.1-5.69.55-.74,2.31-.51,2.52-1.4.14-.59.12-2.32.6-2.73,4.16-3.61,1.19-5.18,3.19-6.71.42-.32,2.25.31,2.35-.37l1.3-8.84,4.83-.31,1.3-12.91c2.13-.19,3.78.1,5.41-.36l.79-6.05c1.61-.44,3.05-.1,4.18-.9l2.39.3,2.6-10.98c1.06-4.48,1.51-9.33,1.12-13.76,2.11.21,8.45-.81,9.45,1.7.33.83-.39,1.98.42,2.55.44.31,1.29.33,2.23.51,4.23.8,0,8.01,4.99,7.91l.15,17.48c1.45,1.23,1.15,3.05,1.46,4.76.24,1.34,2.88.6,3.55,1.24,1.24,1.77.43,4.32.8,6.3.24,1.3,1.63,1.46,3.3,1.09,1.62,11.35,1.53,22.51,1.77,34.16.22,10.56-1.27,20.43-2.89,30.78-.33,2.1-1.61,2.64-2.09,3.95-2.32,6.36-2.32,13.25-5.21,19.73-2.05-.42-3.98-.81-6.01.6-.38.26-1.21-.92-1.67-.44Z"/>
          <path class="cls-6" d="M229.34,238.78c-1.11-.02-2.74.53-3.13,1.87-.29.99.53,1.5.77,1.95s2.44-.08,2.48.44l.98,10.87c.4,4.43-.06,9.28-1.12,13.76l-2.6,10.98-2.39-.3-.05-26.38c0-4.59-.32-10.02.52-14.5.74-1.21,5.1-.56,4.53,1.31Z"/>
          <path class="cls-40" d="M234.95,373.03c.49,1.45,1.99,2.83,2.25,4.82.42,3.13,2.21,5.75,3.49,8.35-.5.52-1.32.7-2.01.62-1.11-1.09-1.48-2.64-2.41-3.78s-2.24-1.73-2.93-3.32c-.53-1.21-.95-2.24-2.39-2.52-.94-.19-1.78-.86-2.8.23l-3.44-5.44c-.39-.61-1.5-.88-1.4-1.79.05-.41,1.04-.86.96-1.42-.16-1.16-1.3-1.67-1.17-2.61,9.49-.41,4.52,9.58,11.85,6.86Z"/>
          <path class="cls-103" d="M87.42,315.96c-5.1,5.53-1.11,1.96-4.09,8.4-1.79,3.88-1.33,8.57-3.4,12.45-.45.84-.91,2.71-1.54,3.57-5.96,8.17-3.66,9.3-4.62,18.12-1.23-.8-3.32-.05-4.51-.51-1.12-.44-2.23-.87-3.55-.71.15-.48-.39-1.25-1.15-1.41l-9.21-1.94c-1.29-1.78,1.56-4.04,1.61-5.37.66-.23.23.85.73,1.13,1.16.64,3.95.14,4.38-1.18.74-2.29-.17-4.58.28-6.85,1.72-.13,3.06.03,4.5-.71-.2-3.52.67-6.72,1.98-9.99.5-1.24-.63-3.25.63-4.33.99-.84,2.77-.02,3.85-.76,1.09-2.65.87-5.69-.19-7.91l1.55-9.78c1.84-.52,3.04.15,4.36-.5.46-2.1-.14-5.05.73-6.95,2.33-.43,2.89-1.84,3.09-4.3s1.79-4.77,2.19-7.39c1.95.76,1.35,2.88,2.07,4,1.24,1.94.72,3.29.68,5.3l-.37,17.62Z"/>
          <path class="cls-81" d="M102.53,307.89c-1.65.11-3.34.23-4.98-.07l-.51-10.14-5.97-.46c-.28-3.93-.74-7.77-.5-11.53,0-.32.5-.53.57-1.12l-.04-16.96c0-2.26.02-4.01,1.16-5.95.99-1.69-.13-5.18,1.58-6.52,1.36-.96,2.26-1.05,2.59-2.67.36-.18.61-.06.66.17.09.38.3,1.23.31,1.8l.36,30.74,6.32.52.46,18.31c.02.91.15,1.67-.13,2.53-.25.76-1.61.27-1.88,1.35Z"/>
          <path class="cls-105" d="M84.43,351.1c-3.13-.25-4.98,6.31-5.69,8.75-1.73,0-3.56-.44-4.97-1.36.97-8.82-1.34-9.95,4.62-18.12.63-.86,1.09-2.73,1.54-3.57,2.07-3.88,1.61-8.57,3.4-12.45,2.98-6.44-1.02-2.87,4.09-8.4-.14,6.9,1.06,14.18-.79,20.92-1.57,5.7-2.15,8.57-2.2,14.23Z"/>
          <path class="cls-73" d="M69.26,357.98c-.31.76-.96,1.35-1.28,2.66,1.34.81,2.77,1.19,3.39,2.86,1.94,0,3.71.33,5.38,1.01.76,1.8,1.01,3.75.75,6.02,2.05.6,3.88.3,5.67.59-.97,2.94.7,6.93-2.15,8.65-2-1.1-4.39-.02-6.55-.53.05-2.59.09-5.25-.4-8.11l-10.32-.07-.93-4.58c1.46-.65-.71-.23-1.82-2.39,1.33-.79,1.49-1.97.82-2.91,1.58-.31,3.22-1.19,5.6-.62-.6-1.94-2.12-2.01-1.73-3.3,1.32-.17,2.43.27,3.55.71Z"/>
          <path class="cls-69" d="M56.95,348.55l.24-6.45c1.54-.4,2.99.09,4.41-.48l1.05-15.96c2.15-.17,3.7.23,5.42-.27l.16-6.93c1.8-.26,3.46.14,4.88-.5,1.07,2.22,1.28,5.25.19,7.91-1.09.74-2.86-.08-3.85.76-1.26,1.08-.14,3.09-.63,4.33-1.31,3.27-2.18,6.47-1.98,9.99-1.44.74-2.78.57-4.5.71-.45,2.27.46,4.56-.28,6.85-.43,1.32-3.22,1.82-4.38,1.18-.5-.28-.07-1.36-.73-1.13Z"/>
          <path class="cls-112" d="M55.34,353.92l9.21,1.94c.76.16,1.3.94,1.15,1.41-.39,1.29,1.13,1.36,1.73,3.3-2.39-.57-4.02.31-5.6.62-2.97.59-6.16-.01-9.72.05,2.43-3.59.83-8.37,3.22-7.32Z"/>
          <path class="cls-25" d="M81.18,385.02c.03,2.26-.07,4.86-.98,7.03-.79.71-2.51-.03-3.36.29.05-.63-.58-.57-1.76-.38-1.49-3.51,1.32-5.66-1.41-6.88.19-.41.32-.23.7-.14,2.18.4,4.63.47,6.81.08Z"/>
          <path class="cls-59" d="M73.77,358.49c1.42.92,3.25,1.35,4.97,1.36-.43,1.5-.88,2.8-.54,4.47-.4-.08-.97.38-1.46.18-1.67-.68-3.44-1.01-5.38-1.01-.62-1.67-2.04-2.05-3.39-2.86.31-1.31.96-1.9,1.28-2.66,1.2.47,3.29-.28,4.51.51Z"/>
          <path class="cls-89" d="M78.21,364.33c1.42.66,3.83.31,5.15,1.1,1.39,1.42.29,4.24-.19,5.7-1.79-.29-3.62,0-5.67-.59.26-2.27,0-4.22-.75-6.02.49.2,1.07-.27,1.46-.18Z"/>
          <path class="cls-124" d="M81.02,379.78c-.41,1.73.13,3.5.16,5.24-2.18.39-4.63.32-6.81-.08l.1-5.68c2.16.51,4.55-.58,6.55.53Z"/>
          <path class="cls-21" d="M78.75,359.85c.71-2.44,2.56-9,5.69-8.75-.02,3.14-.04,6.33-.76,9.84-1.86-.17-3.27-1.08-4.92-1.09Z"/>
          <path class="cls-32" d="M218.07,166.49c-.21,2.8.54,5.8,0,8.85-.34,1.91-3.22.7-4.09,1.51-1.22,1.54-1.11,4.83-.21,6.48.78,1.42,2.88,1.09,4.42,1.38.3,3.27.04,6.4-.4,9.96-1.37.06-3.02.05-3.97-.59-.83-1.2.44-3.29-.73-3.99-.87-.38-1.99-.32-2.6-.08-.83.33-.63,1.56-.59,2.44s1.48,1,2.9,1.24c.13,2.03.12,5.12-.15,7.69.65.71,1.94.58,2.69,1.09,1.15.78,1.81,2.83,1.58,4.25-.2,1.26,1.14,1.97,1.07,3.11-.18,2.96.24,5.63-.26,8.57l-5.89.42c-.42,2.7-.28,5.41.38,7.89s-.92,3.43-1.55,4.97c-.98,2.4.51,5.08-.57,7.23-1.43.57-3.01.17-4.64.56l-.65,34.4c-3.55-.35-7.13.03-10.69-.05-1.52-.04-3.02-.39-5.36-.16-.76,3.78-.42,7.53-.62,11.57l-3.79.65c-.77,3.93-1.14,7.72-1.51,11.74-5.22-.36-3.53,5.68-6.63,6.67-1.64.52-2.27,2.11-2.1,3.92l-4.52.67c-.05,1.5-.51,2.75-1.98,3.01s-3.04-.16-4.68.38c-.55,4.46-1.49,8.45-1.38,12.92l-4.04.85-2.62,14.96c-.34,1.93-1.47,3.53-1.95,5.65l-1.65,7.35-1.36,11.64c-2.36.42-4.41.33-6.07-.59-.39-3.44.24-6.44-.61-9.66-.3-1.11-3.22-.55-4.11-.77-2.05-12.92-3.32-3.59-5.66-17.17-.65-3.78-1.08-7.48-1.48-11.36l-3.8-.71-.38-8.38c-2.42-.43-4.59,0-6.78-.7l-1.19-7.09c-1.51-.31-3,.06-4.28-.67-.96-3.48-.31-7.32-1.52-10.61-.53-1.44-2.57-2.4-1.59-4.74.23-.54-.27-1.28-.74-1.43-3.22-1.06-.58,23.67-.1,26.51-.81.13-1.27.14-.99.62-3.67-1.76-3.26-6.19-5.57-5.49-1.54-2.75.84-5.78-2.54-5.55.27-1.08,1.63-.59,1.88-1.35.28-.86.15-1.62.13-2.53l-.46-18.31-6.32-.52-.36-30.74c0-.58-.22-1.42-.31-1.8-.05-.23-.3-.35-.66-.17.47-2.35,1.48-4.64,1.12-7.51-2.16-.23-3.85.46-6.08-.15.09-4.93-.22-10.22,2.08-14.5l2.2-4.09c1.07-1.98,2.03-4,2.31-6.15,2.04.67,4.36.3,6.46.02l.47,9.86c.1,2.08-2.14,5.29.18,7.62.53.53,1.87.46,2.88.86.09,3.4,2.34,4.99,5.2,5.39.09,1.32,2.04-.06,1.97,1.76-.02.54-.5,1.81.12,2.26,1.24.89,2.67.77,4.09,1.04-.1,4.85,5.24,4.01,8.79,4.01.41-1.43.44-2.86.64-4.18,2.85.57,3.92-2.63,5.42-3.71,2.29-1.66,12.65-3.41,13.6-4.21,1.65.92,3.79.22,5.82.26.89.02,1.85,1.39,3.47,1.04,1.89-.4,3.69.49,5.11,1.45s3.24,1.06,4.74,1.82c1.06.54,1.11,2.48,2.69,2.67,4.07.49.49,5.68,3.75,5.69l18.1.04c.9-1.55.35-3.75.54-5.28,1.19-1.39,2.98-2.7,3.26-5.39.19-.87,2.32-.64,2.74-1.57,1.02-2.97,1.32-6.49.45-9.55-.24-.83-1.61-1.12-.72-2.77.29-.53.24-1.72-.22-2.27-.42-.5-3.77-.33-3.67-1.74,1.27-.78,2.59-1.35,4.55-1.57,1.12-3.78-.51-17.37.62-18.41.64-.58,2.8,1,3.81.02.27-.27.59-.53.64-1.09.47-4.85-.39-10.31.53-14.95.85-.5,2.09.12,3.13-.37.95-.45.75-2.68.06-3.63-.53-.74-2.24-.98-3.23-.57-.86-3.82-.34-8.38-.49-12.35-.05-1.42,1.13-3.17.43-5.46,3.76-.91,10.58-.21,14.04-.31Z"/>
          <path class="cls-2" d="M104.42,214.13c.43,2.03.02,3.95.12,5.96-2.11.28-4.42.65-6.46-.02.2-1.48-.25-3.05.4-4.86l5.95-1.07Z"/>
          <path class="cls-30" d="M204.8,273.89c-.07,3.51.2,7.17-.32,11.09l-5.49.65c-.45,1.87.46,4.34-.93,5.43-.92.72-2.62.61-3.81,1.87l-.14-19.09c3.56.09,7.14-.3,10.69.05Z"/>
          <path class="cls-105" d="M157.75,399.4c.13-1.73-1.01-4.07.61-5.65.82.4,2.47-.09,3.24-.36,1.25-.44.37-2.39.68-3.49.53-1.85,1.32-3.41,1.82-5.74,1.31.77-.39,1.57-.29,3.05.17,1.12,2.09.85,3.03.29,2.42-1.43,1.13-3.48,3.48-4.42-.14,1.34.36,2.77-.03,4.45-.16.71-1.24.48-1.6.78l-.33,4.85c1.77-.14,2.8-.23,2.88,1.17l2.22,38.29,1.35,23.81c.22,3.87.57,7.49.31,11.51-.08,1.2-3.48,1.64-4.5.61-1.05-10.58-.92-21.7-1.27-32.32-.01-.45-1.03-.44-1.26-.58-.34-.22-.5-1-.5-1.78l-.05-34.82c-3.58.2-6.72.96-9.81.37Z"/>
          <path class="cls-10" d="M193.1,355.39c.28.98,1.32,2.37,2.36,2.61.44,1.59-2.52.95-.85,5.39-.83.27-1.28.41-1.05,1.07-1.87,1.15-3.78,5.29-1.97,7.41,1.26,1.47,3.88.2,6.08.32-.15,2.22.23,4.53-.17,6.55s-.15,4.01-.24,6.09c-2.3.89-5.36.83-7.81-.13l.15-10.43c.06-4.02-.94-13.94.77-18.84.91.16,1.82-.33,2.72-.04Z"/>
          <path class="cls-42" d="M203.65,363.02c2.74,5.93,3.21,3.19,4.98,4.12.31.16.09,1.27.33,1.43,3.36,2.37,5.01,1.7,5.95,3.79-.38,2.05-.32,4.33-1,6.41l-15.37.4c-.51.01-.72-.48-1.03-.42.4-2.02.02-4.33.17-6.55-2.2-.12-4.82,1.16-6.08-.32-1.81-2.12.1-6.26,1.97-7.41,5.56-2.06,1.79-.5,10.09-1.45Z"/>
          <path class="cls-101" d="M202.96,349.96c5.17.06,10.6.4,15.2,3.16,2.11,1.27,3.42,4.2,5.38,5.48l4.68,3.06c1.33.87,1.29,3.61,2.57,4.65,2.41,1.97,3.29,4.13,4.16,6.72-7.33,2.72-2.35-7.27-11.85-6.86-1.01.04-6.48-4.19-6.2-5.66-2.67.14-4.26-1.33-6.53-1.51-5.1-.4-9.98-1.46-14.92-1-1.04-.24-2.08-1.63-2.36-2.61,2.34-2.38,3.81-1.25,3.55-4.83.77.21,1.33-.66,2.09-.65l4.23.05Z"/>
          <path class="cls-114" d="M171.57,169.67c1.17-.5,2.54-1.23,3.08-2.48,3.09.26,7.23-1.83,10.3.06l3.03,1.86c1.28.78,2.83,2.52,3.42,3.43-.66,1.49.19,3.51-.71,4.48-1.92,2.07-5.23,1.34-7.78,1.03-4.27-.51-8.38.39-12.59-.34-2.42-.42-2.4-4.65-.94-5.87.98-.82.92,1.3,2.19-2.17Z"/>
          <path class="cls-1" d="M125.66,166.77c.22.88,1.48,2.48,2.56,2.35.73,1.58,2.73,2,4.02,3.5,1.15,1.34-.24,5.07-2.06,5.16l-8.88.42c-2.4.11-5.35.76-7.5.3-1.73-.36-3.53-4.09-2.37-5.5,3.93-4.75,2.88-5.56,4.93-5.84,2.94.34,6.33-.35,9.28-.39Z"/>
          <path class="cls-9" d="M204.12,189.17c-.55-1.28-.74-3.39-.04-4.57.99-.41,2.7-.17,3.23.57.69.95.89,3.18-.06,3.63-1.04.49-2.28-.13-3.13.37Z"/>
          <path class="cls-61" d="M228.22,361.66l-4.68-3.06c-1.96-1.28-3.26-4.21-5.38-5.48,1.62.18-.83-3.5,2.57-4.37.44-.11,1.04-.37,1.37-.76.21-.24.23-.46-.27-1.33,1.85-.58,1.3-2.89,2.21-3.96,4.15-4.85,6.66-10.22,9.62-15.6,2.03-3.69,2.64-8.08,2.55-12.41.38-.59,2.24-.47,2.61-.94.72-.92,0-5.82-1.88-5.3.11-.61-.01-2.52-.88-2.74-3.12-.76-6.33-.13-9.2.73.08-.63-.25-1.3-.71-1.48-1.25-.5-3.93.29-5.16.29-.63-2.7,1.12-4.55,2.76-6.49,4.7-5.58,6.42-15.03,9.61-13.96.4-1.32-.16-2.74.54-3.85.49-.77,3.07-.95,3.39.07.35,1.11-.39,2.45.32,3.55.56.87,2.43.33,3,.97,1.52,1.7.74,4,2.09,5.71s1.29,4.72,1.8,6.96c.29,1.26,1.47,1.32,1.75,1.99,2.39,5.69,2.24,11.98,2.71,18.17.38,5.06-.85,9.66-1.55,14.43-.41,2.83-1.36,4.45-2.43,6.83-5.36,11.94-6.4,13.88-16.76,22.02Z"/>
          <path class="cls-65" d="M236.94,308.45c1.88-.52,2.6,4.38,1.88,5.3-.37.47-2.23.35-2.61.94.09,4.33-.52,8.73-2.55,12.41-2.96,5.38-5.47,10.75-9.62,15.6-.91,1.07-.37,3.37-2.21,3.96.51.88.48,1.09.27,1.33-.33.39-.93.65-1.37.76-3.4.87-.95,4.54-2.57,4.37-4.6-2.76-10.03-3.1-15.2-3.16,4.97-1.32.94-6.95,2.5-8.13,1.04-.79,2.93.79,3.87-1.25.15-.33-.18-.52-.46-1.28.4-.82.42-2.39,1.6-2.76,1-.32,2.11.02,2.61-.7.58-.84.64-4.72.1-5.14-.41-.32-1.44-.49-1.91-.53.59-.37.6-1.49.86-2.14.79-1.98,1.78-3.15,4.13-3.17.98-1.14.22-3.44.85-4.33.92-1.3,3.12-.92,4.84-1.25l.81-4.12c1.44-.97,3.83-.1,5.04-1.39,1.04-1.1.06-3.32.92-4.66l8.22-.66Z"/>
          <path class="cls-36" d="M236.94,308.45l-8.22.66c-.87,1.33.12,3.56-.92,4.66-1.22,1.29-3.6.42-5.04,1.39l-.81,4.12c-1.73.33-3.92-.05-4.84,1.25-.63.89.13,3.19-.85,4.33-2.35.02-3.34,1.18-4.13,3.17-1.4.34-1.4-.96-1.61-1.91-.56-2.47,4.28-2.87,4.08-8.78-.02-.65-.6-1.79-.27-2.29,1.66-2.49,5.01.18,6.66-4.78-2.29,3.52,8.6-5.58,5.88-3.83,2.87-.87,6.08-1.5,9.2-.73.87.21.99,2.12.88,2.74Z"/>
          <path class="cls-125" d="M211.27,330.16c.47.03,1.5.2,1.91.53.54.42.48,4.3-.1,5.14-.5.72-1.61.38-2.61.7-1.18.38-1.2,1.94-1.6,2.76.28.76.6.95.46,1.28-.93,2.04-2.83.46-3.87,1.25-1.56,1.18,2.47,6.81-2.5,8.13l-4.23-.05c2.11-10.12,3.06-6.02,4.74-10.27.5-1.27,2.08-2.23,1.57-3.73,2.43-.3,2.66-5.35,6.23-5.75Z"/>
          <path class="cls-64" d="M205.04,335.91c.51,1.5-1.07,2.46-1.57,3.73-1.68,4.26-2.63.16-4.74,10.27-.76,0-1.32.86-2.09.65-.28-.08-.22-.55-.38-.68-.35-.3-.97.4-1.51.43-.85.04-.89-.87-.67-1.17.37-.52,1.27-.91,1.49-1.59.36-1.16.05-2.24.44-3.06.53-1.12,2.59-.93,2.76-1.89,1.6-9.1,3.04-5.31,5.07-9.14.62,1.35,1.1,1.76,1.2,2.47Z"/>
          <path class="cls-63" d="M193.97,225.17c-.11,1.41,3.25,1.24,3.67,1.74.46.55.51,1.74.22,2.27-.89,1.64.49,1.94.72,2.77.87,3.06.57,6.58-.45,9.55-.41.93-2.54.7-2.74,1.57-.28,2.69-2.07,4-3.26,5.39-.2,1.54.36,3.73-.54,5.28l-18.1-.04c-3.26,0,.32-5.19-3.75-5.69-1.59-.19-1.63-2.13-2.69-2.67-1.5-.76-3.27-.82-4.74-1.82s-3.21-1.86-5.11-1.45c-1.62.35-2.59-1.03-3.47-1.04-2.02-.04-4.17.66-5.82-.26-.05-1.29.33-2.6-1.06-3.89-1.06,1.59-2.58,1.09-4.04.93-1.94-.21-3.61.91-5.19.27-.09-.74.07-3.5,1.18-3.48,2.93.04,3.9-.56,5.57-2.15,1.03-.99,3.77-1.02,5.03-2.05l-.55,3.6c1.43.18,3.5-.48,4.47.93.38.55.02,1.6.22,2.15-.16-.44,4.8,2.85,7.29.19,2.19.29,4.71.94,6.93.89-.84,1.05-1,4.33.86,4.57,5.91.75,11.95.43,17.77.23,3.67-.13,6.34-2.65,8.3-5.29.43-.06.84-.16,1.07-.6-1.14,2.25.76-4.05.63-4.36-1.2-2.79-6.41-3.11-7.91-4.09-.9-.58-1.08-2.96-2.4-3.54.67.48,1.56-.68,2.12-.36,1.7.98,4.22,1.4,5.77.44Z"/>
          <path class="cls-68" d="M136.47,238.17c-.59,3.04-2.98,5-6.32,4.96l-12.51-.17c-1.65-.02-3.42-.1-4.38.85-2.86-.4-5.1-1.99-5.2-5.39-1.01-.4-2.36-.33-2.88-.86-2.32-2.33-.08-5.54-.18-7.62,1.07-.08,2.19-.07,3.23-.41.15,1.49-.29,2.46-1.57,4.71,2.67-.27,2.92,2.25,3.83,3.46l10.22.43,15.76.03Z"/>
          <path class="cls-90" d="M147.9,240.78c-.94.8-11.31,2.55-13.6,4.21-1.49,1.08-2.56,4.28-5.42,3.71-2.38-.47-4.87-.73-7.52-1.48-2.11-.6-4.03-1.86-6.13-1.65.07-1.81-1.88-.43-1.97-1.76.96-.96,2.74-.88,4.38-.85l12.51.17c3.33.05,5.72-1.92,6.32-4.96.4,0,.74-.24,1.13-.08,1.58.64,3.25-.48,5.19-.27,1.46.16,2.98.66,4.04-.93,1.39,1.29,1.02,2.6,1.06,3.89Z"/>
          <path class="cls-2" d="M128.88,248.69c-.2,1.32-.23,2.75-.64,4.18-3.55,0-8.89.84-8.79-4.01-1.43-.26-2.86-.15-4.09-1.04-.62-.45-.14-1.72-.12-2.26,2.1-.21,4.02,1.05,6.13,1.65,2.66.75,5.15,1,7.52,1.48Z"/>
          <path class="cls-32" d="M186.07,225.09c1.32.58,1.5,2.96,2.4,3.54,1.5.97,6.71,1.29,7.91,4.09.13.31-1.77,6.61-.63,4.36-.22.44-.63.54-1.07.6-1.45-1.17-2.98-.56-4.96-.24-7.5,1.21-14.79.56-21.97.73-2.22.05-4.74-.6-6.93-.89.17-.4-.38-1.46-1.02-1.28-1.96.57-1.99-1.76-2.85-1.95-2.33-.49-4.36-1.46-4.3-3.97.05-1.85-.6-4.11.5-5.9.58-.94,2.52-.11,3.19-.67,1.82-1.52,1.79-4.25.94-6.08,1.19-.34,3.11-.25,4.07-1.5,1.28-1.67.63-3.94.92-6.08,11.73-.29,4.24,2.99,11.36,2.36.84,1.4.88,2.53,1.35,4.15,2.88-1.04,3.21,1.18,4.44,2.4.92.91,3.27.58,3.49,2.37.26,2.17,1.5,3.22,3.16,3.95Z"/>
          <path class="cls-32" d="M134.26,210.4c.03,1.36.23,4.31,1.25,5.37l3.99,4.13c-.17,1.11-.05,2.16.23,3.74l9.57.8c.1,2.75.35,4.26.09,5.96-1.27,1.03-4,1.06-5.03,2.05-1.66,1.59-2.64,2.19-5.57,2.15-1.11-.01-1.27,2.75-1.18,3.48-.39-.16-.73.08-1.13.08l-15.76-.03-10.22-.43c-.91-1.21-1.16-3.73-3.83-3.46,1.29-2.24,1.72-3.21,1.57-4.71,1.12-.36,2.85.31,3.91-.67.76-.7.41-2.07,1.08-2.49.5-.31,2.12.11,2.28-.37.37-1.05,2.82-1.72,2.94-2.74.23-1.95,2.63-2.65,3.62-3.75,1.6-1.77,2.99-3.89,6.13-4.03.61-1.22.07-3.75,1.19-4.37,1.47-.82,3.45-.31,4.86-.74Z"/>
          <path class="cls-122" d="M153.52,211.01c.76-1.12,2.26-.27,3.78-.8,1.61-.56-.09-6.66,1.04-7.83.96.26,2.92-.32,3.25.61l.69,6.86c-.29,2.13.35,4.4-.92,6.08-.95,1.25-2.88,1.15-4.07,1.5-4.9,6.06-15.71,4.63-17.79,2.48l-3.99-4.13c-1.02-1.06-1.22-4.02-1.25-5.37-.06-2.98,1.95-10.66,6.69-12.41-2.7.99,4.51-4.05,5.23-1.85.37,1.13.28,1.89.04,2.44-.39.9-1.71.14-2.35.53-6.12,3.82-4.89,14.11-3.01,15.48,4.06,2.95,12.25-.52,12.52-1.44.24-.83.31-1.4.14-2.15Z"/>
          <path class="cls-22" d="M125.73,182.92l-4.29-.06c.47-1.89-8.48.93-8.2-1.63.13-1.16.6-1.94.58-2.73,2.15.45,5.1-.19,7.5-.3l8.88-.42c1.82-.09,3.2-3.81,2.06-5.16-1.28-1.5-3.29-1.92-4.02-3.5,1.9-.24,4.03,3.75,5.97,3.37,1.34,2.91.2,7.61-3.54,8.88-1.77.6-3.32,1.24-4.92,1.55Z"/>
          <path class="cls-20" d="M158.33,202.38c-1.13,1.17.57,7.27-1.04,7.83-1.52.53-3.02-.32-3.78.8.57,2.55-3.03-5.21-.82-8.28,1.07-1.49,4.15-.76,5.64-.35Z"/>
          <g>
            <path class="cls-57" d="M116.38,167.16c-2.05.28-1,1.09-4.93,5.84-1.17,1.41.64,5.14,2.37,5.5.03.78-.45,1.57-.58,2.73-.28,2.57,8.67-.26,8.2,1.63-3.72,1.36-5.1,5.31-4.72,9.48.3,3.28-.3,7.7,3.13,9.75,1.69,1.01,5.69.52,7.56-.1,3.69-1.21,2.93-10.75,2.73-14.04-.16-2.71-2.07-5-4.41-5.03,1.6-.31,3.15-.95,4.92-1.55,3.74-1.27,4.88-5.97,3.54-8.88-1.94.38-4.07-3.61-5.97-3.37-1.08.14-2.34-1.47-2.56-2.35,16.33-.25,32.85-.94,48.99.42-.54,1.25-1.91,1.99-3.08,2.48-.02-.67-.32-.65-.64-.28-3.89,4.43-2.83,2.26-4.12,3.42-1.41,1.27.15,3.64-.06,5.96,0,.6,5.66,2.38,5.26,3.61-.84,2.62-3.67,2.46-1.73,3.62-.5,2.41-1.03,14.83,2.73,16.02,2.46.78,5.5.82,7.92.05,4.51-1.42,3.84-16.01,1.41-17.89.39.26.51.01.54-.37.02-.26-.41-.49-1.01-.91.4-3.15,8.76,3.37,12.3-6.48.51-1.43,2.65-.49,3.5-.11,1.08.49.69,2.22.67,3.42l-.52,22.51c-1.52.42-2.86.16-4.29.74-.2,1.68-.7,3.87.25,5.57.61,1.11,3.21,0,3.34-1.05.16-1.32.35-2.01.63-3.13l5.85-.26c-.05.56-.37.82-.64,1.09-1.01.98-3.17-.61-3.81-.02-1.13,1.03.5,14.63-.62,18.41-1.96.23-3.29.79-4.55,1.57-1.56.96-4.07.54-5.77-.44-.56-.32-1.45.84-2.12.36-1.66-.73-2.9-1.79-3.16-3.95-.21-1.79-2.56-1.46-3.49-2.37-1.23-1.22-1.56-3.44-4.44-2.4-.47-1.63-.51-2.75-1.35-4.15-7.12.63.36-2.65-11.36-2.36l-.69-6.86c-.33-.93-2.3-.35-3.25-.61-1.49-.41-4.57-1.14-5.64.35-2.2,3.07,1.4,10.83.82,8.28.17.75.1,1.32-.14,2.15-.27.92-8.46,4.39-12.52,1.44-1.88-1.37-3.11-11.66,3.01-15.48.64-.4,1.96.36,2.35-.53.24-.55.33-1.31-.04-2.44-.72-2.21-7.93,2.83-5.23,1.85-4.75,1.74-6.76,9.43-6.69,12.41-1.42.43-3.39-.08-4.86.74-1.12.62-.58,3.15-1.19,4.37-3.14.13-4.53,2.26-6.13,4.03-.99,1.1-3.39,1.8-3.62,3.75-.12,1.02-2.57,1.69-2.94,2.74-.17.48-1.79.06-2.28.37-.68.42-.32,1.79-1.08,2.49-1.06.97-2.8.31-3.91.67-1.04.33-2.16.33-3.23.41l-.47-9.86c-.09-2.01.32-3.92-.12-5.96.2.92.57-44.92.47-47.55,3.94-.34,7.78.16,11.49.58Z"/>
            <path class="cls-37" d="M116.46,208.48c-1.08,1.5-5.32,1.06-7.15.25-.49-1.35-.61-4.9.64-5.67,1.99-1.23,4.48-.02,6.74-.51-.18,1.94.56,3.75-.24,5.93Z"/>
            <path class="cls-79" d="M189.28,208.4c-.03.97-2.26,1.02-2.99.74-1.6-.63-.81-5.47-.24-5.9s2.47-.84,2.6.21c.22,1.82.68,3.22.63,4.95Z"/>
          </g>
          <g>
            <path class="cls-78" d="M182.35,184.2c2.43,1.88,3.09,16.47-1.41,17.89-2.42.76-5.47.73-7.92-.05-3.77-1.19-3.24-13.61-2.73-16.02.57-2.71,4.13-3.48,6.16-3.53,2.68-.06,4.19.29,5.91,1.72Z"/>
            <path class="cls-32" d="M176.02,191.23c-.64.82-3.49.65-4.23-.09-1.13-1.12-1.06-4.06.34-5.22,1.09-.9,4.34-.58,4.9.69s-.2,3.57-1.01,4.63Z"/>
          </g>
          <path class="cls-47" d="M194.69,237.67c-1.96,2.65-4.63,5.16-8.3,5.29-5.81.21-11.86.53-17.77-.23-1.87-.24-1.7-3.52-.86-4.57,7.18-.17,14.47.48,21.97-.73,1.98-.32,3.52-.93,4.96.24Z"/>
          <path class="cls-52" d="M152.65,230.08c-.06,2.51,1.97,3.49,4.3,3.97.87.18.89,2.52,2.85,1.95.64-.19,1.18.88,1.02,1.28-2.48,2.67-7.45-.62-7.29-.19-.2-.55.16-1.6-.22-2.15-.97-1.42-3.04-.75-4.47-.93l.55-3.6c.99-.81,2.04-.47,3.27-.32Z"/>
          <path class="cls-54" d="M152.65,230.08c-1.23-.15-2.28-.49-3.27.32.26-1.7.01-3.21-.09-5.96l-9.57-.8c-.29-1.58-.41-2.63-.23-3.74,2.08,2.15,12.89,3.58,17.79-2.48.86,1.83.88,4.56-.94,6.08-.68.57-2.62-.27-3.19.67-1.1,1.8-.46,4.05-.5,5.9Z"/>
          <g>
            <path class="cls-70" d="M121.44,182.86l4.29.06c2.35.03,4.25,2.32,4.41,5.03.2,3.3.96,12.83-2.73,14.04-1.87.61-5.86,1.11-7.56.1-3.43-2.05-2.83-6.47-3.13-9.75-.39-4.17,1-8.13,4.72-9.48Z"/>
            <path class="cls-32" d="M123.38,190.98c-.62,1.03-4.08.98-5.06.29-.52-.37-1.05-3.76.12-4.89s4.47-.49,4.91-.03c.77.8.49,3.89.03,4.63Z"/>
          </g>
        </g>
      </g>
    </g>
  </g>
</svg>