<?xml version="1.0" encoding="UTF-8"?>
<svg id="_レイヤー_2" data-name="レイヤー 2" xmlns="http://www.w3.org/2000/svg" viewBox="0 0 350.41 512">
  <defs>
    <style>
      .cls-1 {
        fill: #46576f;
      }

      .cls-2 {
        fill: #af6884;
      }

      .cls-3 {
        fill: #92607e;
      }

      .cls-4 {
        fill: #b97a8c;
      }

      .cls-5 {
        fill: #f7f7cd;
      }

      .cls-6 {
        fill: #efbd93;
      }

      .cls-7 {
        fill: #4a5a71;
      }

      .cls-8 {
        fill: #6d5878;
      }

      .cls-9 {
        fill: #f6e0a7;
      }

      .cls-10 {
        fill: #efb88e;
      }

      .cls-11 {
        fill: #ac748d;
      }

      .cls-12 {
        fill: #9b6988;
      }

      .cls-13 {
        fill: #856481;
      }

      .cls-14 {
        fill: #ecd2cc;
      }

      .cls-15 {
        fill: #d1868c;
      }

      .cls-16 {
        fill: #da8f90;
      }

      .cls-17 {
        fill: #e99881;
      }

      .cls-18 {
        fill: #dcb0b3;
      }

      .cls-19 {
        fill: #98718b;
      }

      .cls-20 {
        fill: #f3d2a6;
      }

      .cls-21 {
        fill: #f5eaaf;
      }

      .cls-22 {
        fill: #6b5779;
      }

      .cls-23 {
        fill: #edb38e;
      }

      .cls-24 {
        fill: #f5f0b9;
      }

      .cls-25 {
        fill: #d89491;
      }

      .cls-26 {
        fill: #f6eeb2;
      }

      .cls-27 {
        fill: #a56b82;
      }

      .cls-28 {
        fill: #e2948e;
      }

      .cls-29 {
        fill: #ebad8d;
      }

      .cls-30 {
        fill: #cea2a9;
      }

      .cls-31 {
        fill: #9f7d93;
      }

      .cls-32 {
        fill: #efbf92;
      }

      .cls-33 {
        fill: #edb69d;
      }

      .cls-34 {
        fill: #f4e1a6;
      }

      .cls-35 {
        fill: #eca385;
      }

      .cls-36 {
        fill: #eda284;
      }

      .cls-37 {
        fill: #f2e0a3;
      }

      .cls-38 {
        fill: #e69e94;
      }

      .cls-39 {
        fill: #f0c996;
      }

      .cls-40 {
        fill: #f0dba0;
      }

      .cls-41 {
        fill: #f5d8b3;
      }

      .cls-42 {
        fill: #b2bcc5;
      }

      .cls-43 {
        fill: #ae758e;
      }

      .cls-44 {
        fill: #e0908e;
      }

      .cls-45 {
        fill: #eec2a8;
      }

      .cls-46 {
        fill: #f5e7ae;
      }

      .cls-47 {
        fill: #ba6d85;
      }

      .cls-48 {
        fill: #d47081;
      }

      .cls-49 {
        fill: #a06e85;
      }

      .cls-50 {
        fill: #f1c697;
      }

      .cls-51 {
        fill: #f3d6a2;
      }

      .cls-52 {
        fill: #f2cc98;
      }

      .cls-53 {
        fill: #d58388;
      }

      .cls-54 {
        fill: #f2ca98;
      }

      .cls-55 {
        fill: #de877c;
      }

      .cls-56 {
        fill: #edb18e;
      }

      .cls-57 {
        fill: #f1cd9a;
      }

      .cls-58 {
        fill: #eda58a;
      }

      .cls-59 {
        fill: #eda685;
      }

      .cls-60 {
        fill: #c17e8e;
      }

      .cls-61 {
        fill: #efc292;
      }

      .cls-62 {
        fill: #6d788d;
      }

      .cls-63 {
        fill: #43546d;
      }

      .cls-64 {
        fill: #615473;
      }

      .cls-65 {
        fill: #a16986;
      }

      .cls-66 {
        fill: #f3d6a0;
      }

      .cls-67 {
        fill: #bb939f;
      }

      .cls-68 {
        fill: #eaa084;
      }

      .cls-69 {
        fill: #f7f7cb;
      }

      .cls-70 {
        fill: #f4d2af;
      }

      .cls-71 {
        fill: #936888;
      }

      .cls-72 {
        fill: #fcfefe;
      }

      .cls-73 {
        fill: #685978;
      }

      .cls-74 {
        fill: #b7909d;
      }

      .cls-75 {
        fill: #f4d8a1;
      }

      .cls-76 {
        fill: #eeb18a;
      }

      .cls-77 {
        fill: #ca818b;
      }

      .cls-78 {
        fill: #b7728a;
      }

      .cls-79 {
        fill: #f1d8ad;
      }

      .cls-80 {
        fill: #e7998d;
      }

      .cls-81 {
        fill: #f3dba2;
      }

      .cls-82 {
        fill: #f5e9af;
      }

      .cls-83 {
        fill: #956c89;
      }

      .cls-84 {
        fill: #d3a5ab;
      }

      .cls-85 {
        fill: #eca888;
      }

      .cls-86 {
        fill: #cfa0a7;
      }

      .cls-87 {
        fill: #f2e2d4;
      }

      .cls-88 {
        fill: #f6ebb1;
      }

      .cls-89 {
        fill: #865b78;
      }

      .cls-90 {
        fill: #35465d;
      }

      .cls-91 {
        fill: #3f495e;
      }

      .cls-92 {
        fill: #96627e;
      }

      .cls-93 {
        fill: #3b4761;
      }

      .cls-94 {
        fill: #e69994;
      }

      .cls-95 {
        fill: #f7f7c7;
      }

      .cls-96 {
        fill: #b77589;
      }

      .cls-97 {
        fill: #f3e5d6;
      }

      .cls-98 {
        fill: #c07388;
      }

      .cls-99 {
        fill: #edaf8d;
      }

      .cls-100 {
        fill: #ea9f88;
      }

      .cls-101 {
        fill: #f0d1b5;
      }

      .cls-102 {
        fill: #efd9cf;
      }

      .cls-103 {
        fill: #e8a396;
      }

      .cls-104 {
        fill: #ecae8e;
      }

      .cls-105 {
        fill: #f4e0a8;
      }

      .cls-106 {
        fill: #e89f84;
      }

      .cls-107 {
        fill: #f3ce9a;
      }

      .cls-108 {
        fill: #846a86;
      }

      .cls-109 {
        fill: #525270;
      }

      .cls-110 {
        fill: #3d4762;
      }

      .cls-111 {
        fill: #f9eec3;
      }

      .cls-112 {
        fill: #f5e0a5;
      }

      .cls-113 {
        fill: #efc094;
      }

      .cls-114 {
        fill: #f4d49e;
      }

      .cls-115 {
        fill: #f2d9a0;
      }

      .cls-116 {
        fill: #2c3952;
      }

      .cls-117 {
        fill: #e9e0de;
      }

      .cls-118 {
        fill: #34455d;
      }

      .cls-119 {
        fill: #d07981;
      }

      .cls-120 {
        fill: #f3d79e;
      }

      .cls-121 {
        fill: #935a79;
      }

      .cls-122 {
        fill: #b0afb7;
      }

      .cls-123 {
        fill: #996c8b;
      }

      .cls-124 {
        fill: #a9718b;
      }

      .cls-125 {
        fill: #e39b8c;
      }

      .cls-126 {
        fill: #eeb88f;
      }

      .cls-127 {
        fill: #c48595;
      }

      .cls-128 {
        fill: #c4949b;
      }

      .cls-129 {
        fill: #efba8f;
      }

      .cls-130 {
        fill: #cfdae4;
      }

      .cls-131 {
        fill: #efd0ac;
      }

      .cls-132 {
        fill: #e5c4bf;
      }

      .cls-133 {
        fill: #f0c091;
      }

      .cls-134 {
        fill: #cc8288;
      }

      .cls-135 {
        fill: #eab498;
      }

      .cls-136 {
        fill: #3b4861;
      }

      .cls-137 {
        fill: #d5818a;
      }

      .cls-138 {
        fill: #41556c;
      }

      .cls-139 {
        fill: #efbe92;
      }

      .cls-140 {
        fill: #bc969a;
      }

      .cls-141 {
        fill: #e38d81;
      }
    </style>
  </defs>
  <g id="_レイヤー_1-2" data-name="レイヤー 1">
    <g id="_生成オブジェクト" data-name="生成オブジェクト">
      <path class="cls-36" d="M313.47,86.12c-.21,1.06-3.54,1.36-3.71.35-.43-2.85-1.32-5.34-2.12-7.75-1.62-.67-3.02-.21-4.77-.5-.33-3.13-.2-5.92-.12-9.36,1.97-.54,4.87-.74,6.54.69.64.55.15,2.12.79,2.33.7.23,1.75.49,2.86.64.96,4.18,1.43,9.12.53,13.59Z"/>
      <path class="cls-58" d="M270.42,234.04c-2.94.4-5.74,1.09-8.98,1-.47-1.46-.96-5.14.46-6.23,2.46-1.89,6.13-.23,9.01-1.68.18-1.73-.6-4.1.37-5.5.38-.55,2.67-.58,3.09.08.81,1.29.71,4.61-.65,5.18-1.03.43-2.33-.12-2.91,1.17-.68,1.51-.37,2.9-.38,5.98Z"/>
      <path class="cls-100" d="M316.81,35.58c-1.58.32-3.43.94-4.88.1-1.03-.59-.93-3.77-.08-4.77,1.02-1.2,4.1-.92,4.78.18.77,1.25.19,2.64.18,4.49Z"/>
      <g>
        <g>
          <path class="cls-118" d="M180.49,38.39c-.75-.56-.71-1.5-.84-2.45-.36-2.56.07-6.65-2.37-9.65-1.22-1.5-1.68-2.58-1.94-4.39-.23-1.15-3.72-1.13-4.71-.55-1.1,1.82-.47,4.34-1.29,6.84-.77.07-1.76-.9-1.56.29-2.5.11-2.42,3.67-2.7,5.96l4.73.48c.59.3,1.17-.46,1.56.18.29.47.28,1.1.07,1.65-.35.92-1.73.44-3.06.49l-4.6.15c-1.47-1.07-2.82-1.46-4.57-1.02-1.02.26-1.56-.05-1.35,1.1.18.97-.19,1.73.15,2.38.28.54-.2,1.21-.77,1.3-1,.25-2.96-.07-3.84.73-.7,1.27-1.74,2.14-3.26,2.26-.74,4.34,1.5,13.25-.37,13.89l-1.2.41c-.74.43-1.41-.29-1.98-.74-.12-1.29.18-3.23-.61-4.48-3.51-1.12-1.37-5.6-3.38-5.07-3.22.86,1.16-3.61-8.95-1.61-.79,3.96-.3,7.62-.39,11.82,1.72.59,3.12-.25,4.23.72l.25,3.4c1.72.96,3.59.44,5.68.71,1.09.14.33,2.02.76,2.46-.17.86-.44,1.52-1.26,1.51-.41,0-1.84-.34-2.03.03-.99,1.96-.23,4.3-.98,6.43-1.54.08-3.17.41-4.5.34l-10.71-.61c-1.31-.07-2.34-2.94-4.96-1.28l-.74-5.35-3.78-.42c-.77-1.29.28-3.25-.85-4.35-.9-.88-2.83.12-4.03-.37l-.47-8.95c-1.51-.11-2.59-.45-3.62-.45.35-1.84.86-3.57-.52-5.43,1.65-.24,2.49.21,3.3-.89.48-.64-.28-1.33-.24-2.22.08-1.88.75-4.15.08-6.12-.8-1.09-3-.27-4.07-.41-1.13-.14-2.95.54-3.45-.72l.09-15.71c1.96-.52,4.06.36,5.76-.37s1.42-3.09,1.68-4.72l5.17-.42c.6-1.39-.35-3.14.48-4.24s3.02-.64,4.12-.54c-.09,1.1.93,2.56.18,4.17-.53,1.12-2.17.14-2.84.77-1.56,1.47-1.54,6.06,1.1,6.51,3.87.66,7.2-.08,10.61.22.31,1.05.8,1.84,1.29,3.03-4.65,4.39-4.21,2.36-6.13,3.91-.97.79-.62,2.47-1.24,3.55-.46.79-2.16,3.3-.72,3.62,5.67,1.27,11.56-1.54,16.46-4.36.84-.48,3.27.72,3.29-1.39.02-1.78,1.68-1.86,2.41-2.94l2.95-4.39c.89-1.33,3.37-1.74,3.18-3.96-.18-2.05,1.73-2.42,2.37-3.59,1.61-2.91,5.27-6.6,7.63-4.46-.13,1.48.28,3.03-.39,4.68l-4.24.72-.31,5.35c-.19,3.39-4.47,4.97-7,6.82-.91.67-1.63,1.65-2.64,2.48-1.84,1.51-4.09,2.54-5.8,4.14s-3.71,1.4-5.31,1.69c-.61.11-1.24,1.34-1.96.2-.16.49-.57,1.37-.91,1.92,2.89.4,22.96-4.59,23.67-5.02,6.17-3.76,4.52-5.93,5.7-6.71s3.48-.07,4.39-.5c1.51-.72,2.05-2.89,3.31-3.88,4.01-3.13,1.25-6.63,3.49-7.68,1.42,0,4.32.67,5.81-.3.7-.58.41-3.32-.46-3.67-2.26-.92-4.6-.31-6.65-.14l-1.74-2.17c-.23-.29-4.03-.44-3.95-.44-.75,0-.48.45-1,1.31-.49.81-2-.15-2.67.43-1.19-.45-2.06-3.13-.72-3.63,1.67-.62,3.65.64,4.1-1.57l-39.3-.02c-.05-1.55-.12-3.1.18-5.1h44.05c.3,2.14-.48,3.91.36,5.47,2.14.38,6.45-1.03,6.82.84l.7,3.59c.22,1.1,2.53.48,3.82.7.91,2.26.64,5.41,1.1,7.85l4.59.39-.14,18.52c-2.12.41-4.08-.06-5.59,1.03Z"/>
          <path class="cls-1" d="M79.41,46.35c.08-.45.27-.87.27-1.3.58,1.62,4.98,1.78,5.93.7.38-.43-.14-1.55.2-2.04,1.9-2.79,10.18-2.22,9.8.28-.34,2.21-3.18,1.5-3.76,2.45-1.42,2.33,1.42,5.29-2.74,5.99l.1,49.7-.13,25.4c-2.06.62-5.4,5.63-6.01,7.69-.57,1.89-4.61.73-5.77,1.97-.74.8-.06,2.56-1.13,3.11-.62.32-1.62-.35-2.49-.08-.68.21-1.23,1.58-2.08,1.5-.56-.05-1.07-.49-2.26-.94-1.88-.13-.52-.24.31-1.77,1.06.05,2.59.68,4.48.03-.15-2.89-.54-5.63-1.19-8.86-.6-2.97,2.09-7.7-1.39-9.81-1.33-.81-.87-1.95-1.16-3.81-1.14-.22-3.27-.19-3.4-1.78l-1.03-12.51c-.33-4.05,1-8.16,2.04-12.19-2.3-.18-2.79-2.16-3.67-2.72-2.07-.12-4.78-.72-5.39-2.86,1.39-1.38,3.71-.38,5.09-1.44.66-.5-.29-2.49.76-3.08,2.48-1.39,4.17-.49,6.94-1.44.43-1.69-.12-3.33.82-4.88,1.33.04,3.51.04,3.86-.8.83-7.14,2.87-13.44,3.3-21.15.11-1.94-.6-3.72-.3-5.36Z"/>
          <path class="cls-63" d="M124.6,5.1l39.3.02c-.45,2.2-2.43.95-4.1,1.57-1.35.5-.48,3.18.72,3.63-.4.36-1.21.1-1.33.77-2.35-2.14-6.02,1.55-7.63,4.46-.65,1.17-2.55,1.54-2.37,3.59.19,2.22-2.28,2.63-3.18,3.96l-2.95,4.39c-.73,1.08-2.39,1.16-2.41,2.94-.02,2.11-2.45.91-3.29,1.39-4.91,2.81-10.8,5.63-16.46,4.36-1.44-.32.26-2.83.72-3.62.63-1.08.27-2.76,1.24-3.55,1.91-1.55,1.47.48,6.13-3.91-.48-1.19-.98-1.98-1.29-3.03-3.41-.3-6.73.43-10.61-.22-2.64-.45-2.66-5.04-1.1-6.51.67-.63,2.32.35,2.84-.77.75-1.61-.27-3.06-.18-4.17.11-1.36.9-2.64.39-4.81l5.55-.49Z"/>
          <path class="cls-121" d="M104.81,37.11c.31,1.55-.6,3.48.18,5.09.62,1.27,2.71,1.33,3.8,1.43-.04.89.72,1.58.24,2.22-.81,1.09-1.65.65-3.3.89,1.38,1.86.87,3.59.52,5.43-.29,0-.63.34-.96.19.15-.55.19-1.27-.26-1.43-1.25-.43-3,.41-3.62-.32-.48-.57-.78-10.94-.65-13.39.02-.44-.03-.97.59-.83.5,1.26,2.32.58,3.45.72Z"/>
          <path class="cls-91" d="M57.12,134.38c-1.23.7-2.6.47-3.93.29-.43-2.21-.37-4.17-.31-6.66,1.37-.76,2.81-.64,4.4-.23l-.17,6.6Z"/>
          <g>
            <path class="cls-90" d="M100.77,37.22c-.13,2.45.17,12.82.65,13.39.62.73,2.37-.11,3.62.32.45.16.4.87.26,1.43-.08,1.8-2.41,1.25-3.98,1.39l-.56,19.49-5.12.42.04,15.61,4.08.36.55,4.94,4.56.32,1.24,15.23c.25,3.08-1.52,5.31-1.69,8.15l-.78,13.45c-.05.88-2.37,0-2.96.33-.95,1.49-.41,3.89-.57,6.01l-4.83.59-.29,5.02c-2.6.54-5.57-.47-8.07.6-2.34,1,3.61,4.25.95,14.89-.17.68-2.46.33-2.7.94-.27.69-.49,1.95-.37,3.29-2.24.82-4.52.42-6.95.36-.16-1.67-.16-2.87-.01-4.29.77-.47,1.53-.4,2.45-.69.2-2.35.26-4.74-.45-7.01-1.54-.24-2.84.22-4.25-.46-.14-1.03.24-3.4-.68-3.68-1.2-.22-2.89.15-3.73.71-.72.68-.25,2.24-.81,3.43-5.33.45-10.66.57-15.86-.37.2-1.76-1.66-7.79-1.94-7.05.34-.91,3.55-.65,3.82-.59.84.18.1,2.06.5,2.34,1.45,1,4.16.57,5.96.1l.38-18.71-5.21-.11c-.34-1.7-.1-3.51-.22-5.51l-6.09-.44-.46-4.85c-1.61-.17-2.86.25-4.47-.29-.15-3.6-.24-7.02.31-10.48,1.98-.06,3.59.08,5.42-.6l.25-21.06c1.75-.51,3.3-.16,5.07-.3l.43-4.72,6.07-.15.48-5.35,6.97-.36.6-26.83c2.52-.36,4.79-.06,7.02-.06-.3,1.64.41,3.42.3,5.36-.42,7.71-2.46,14-3.3,21.15-.35.84-2.53.84-3.86.8-.95,1.56-.4,3.19-.82,4.88-2.78.95-4.47.05-6.94,1.44-1.05.59-.1,2.58-.76,3.08-1.38,1.06-3.7.06-5.09,1.44.61,2.14,3.33,2.74,5.39,2.86.88.56,1.37,2.54,3.67,2.72-1.04,4.03-2.37,8.14-2.04,12.19l1.03,12.51c.13,1.59,2.26,1.56,3.4,1.78.3,1.86-.16,3.01,1.16,3.81,3.47,2.11.79,6.84,1.39,9.81.65,3.23,1.05,5.97,1.19,8.86-1.89.65-3.42.02-4.48-.03-.83,1.53-2.19,1.64-.31,1.77,1.19.45,1.7.89,2.26.94.85.08,1.4-1.29,2.08-1.5.87-.27,1.86.4,2.49.08,1.07-.55.39-2.31,1.13-3.11,1.15-1.24,5.2-.07,5.77-1.97.62-2.06,3.95-7.07,6.01-7.69l.13-25.4-.1-49.7c4.17-.7,1.32-3.67,2.74-5.99.58-.95,3.42-.23,3.76-2.45.38-2.5-7.9-3.08-9.8-.28-.34.49.18,1.61-.2,2.04-.95,1.08-5.35.92-5.93-.7v-3.22s5.46-.29,5.46-.29l.38-4.37,15.25.05Z"/>
            <path class="cls-138" d="M57.46,113.8l-5.21.85c-.26-2.95-1.24-6.27.71-8.76,1.1-1.1,3.51-.28,5.14-.33-.38,2.76-.71,5.07-.64,8.24Z"/>
            <path class="cls-130" d="M60.91,102.86c-.13,1.05-1.2,1.31-1.72,1.37-.9.1-1.26-.62-.86-1.5l2.58.13Z"/>
          </g>
          <path class="cls-7" d="M169.89,15.16c.31-.08.95.14,1.27.14-2.25,1.05.52,4.55-3.49,7.68-1.26.99-1.8,3.15-3.31,3.88-.9.43-3.15-.32-4.39.5s.47,2.96-5.7,6.71c-.71.43-20.78,5.42-23.67,5.02.34-.56.75-1.43.91-1.92.72,1.14,1.35-.09,1.96-.2,1.6-.29,3.54-.04,5.31-1.69s3.96-2.63,5.8-4.14c1.01-.83,1.73-1.81,2.64-2.48,1.54,3.56,5.77-2.79,9.33-4.68,1.05-.56,3.3,1.4,4.73.42,2.56-1.74,2.91-5.56,4.34-8.13l4.24-1.12Z"/>
          <path class="cls-62" d="M169.87,11.18c.7.88-.03,2.91.03,3.97l-4.24,1.12c-1.43,2.57-1.78,6.38-4.34,8.13-1.43.98-3.68-.98-4.73-.42-3.57,1.9-7.79,8.24-9.33,4.68,2.53-1.85,6.81-3.44,7-6.82l.31-5.35,4.24-.72c.67-1.65.25-3.2.39-4.68.12-.67.93-.41,1.33-.77.66-.59,2.17.38,2.67-.43.52-.86.26-1.31,1-1.31-.08,0,3.72.15,3.95.44l1.74,2.17Z"/>
          <path class="cls-122" d="M171.17,15.3c-.32,0-.96-.22-1.27-.14-.06-1.06.68-3.09-.03-3.97,2.05-.17,4.39-.78,6.65.14.87.35,1.15,3.09.46,3.67-1.49.97-4.39.29-5.81.3Z"/>
          <path class="cls-48" d="M108.8,43.64c-1.09-.1-3.18-.16-3.8-1.43-.79-1.61.13-3.55-.18-5.09,1.07.14,3.27-.68,4.07.41.66,1.97,0,4.24-.08,6.12Z"/>
          <path class="cls-102" d="M159.21,36.38c-.11,1.21-.07,2.35.66,3.36l-1.86.12c-.34-.65.02-1.41-.15-2.38-.21-1.15.33-.84,1.35-1.1Z"/>
        </g>
        <g>
          <path class="cls-96" d="M25.72,332.75c.65,3.42-.75,6.92.17,10.49,5.51-.06,4.74,4.47,6.44,5.86,1.17.96,3.47.74,3.3,2.91-.07.88-.03,1.73.5,2.35,1.39,1.59,3.43.05,4.33,1.69.62,1.13-.08,2.75.43,3.67.74,1.31,3.19-.72,5.07,1.56.8.97.81,2.78,1.26,3.7.42.86,3.44.23,3.37,1.88-.09,1.97.64,4.11,2.88,4.36-.54,2.68.23,5.33.04,8.01-1.09-.13-2.02.25-2.99.69-.02-.68-.28-2.35-.93-2.69l-5.92-1.01c-.53-1.43-.11-2.95-.43-4.55-1.76-.65-3.43-.3-5.35-.56l-.44-6.88c-2.19-.51-4.11.07-5.97-.73l-.23-8.33-10.46-1.62-.15-17.76c-1.51-.8-2.99-.42-4.66-.75-.37-2.79-.05-5.3-.05-7.78,1.36-.08,2.74-.35,4.38-.28.56,1.83.66,3.61.89,5.61,1.61.34,3.08.25,4.51.15Z"/>
          <path class="cls-55" d="M53.51,379.24c-.06.88.68,2.16,1.14,2.77.83,1.11,2.45.24,3.46.44,1.38.27,2.87-.42,4.09-.41,2.16.03,5.08-.3,6.44,1.87.53.84-.01,2.52.54,2.93.59.43,1.6,1.1,2.38,1.05.24,2.43-2.7,10.53,1.58,10.44,3.45-.08.22-2.55,6.23.64,0,2.09.06,2.98,1.24,4.04s1.96.55,3.53.48c1.79-.08,3.6.55,5.4.21.22-.04.41.09.61.07.06,1.42-.38,2.82-.17,4.23-.13.67-1.21.18-1.21.97l-9.65-.48c-.29-1.32.48-4.03-.84-4.68-2.19-1.08-4.93.06-7.33-.74-.47-1.64.04-3.23-.62-4.73l-5.34-.54-.36-4.94c-2.82-.53-5.38-.02-7.86-.82-.21-1.65.09-2.98-.32-4.36l-5.77-.43c-.54-2.05-.12-5.53-.18-7.32.97-.45,1.9-.83,2.99-.69Z"/>
          <path class="cls-73" d="M118.01,228.88c.58.13.9-.27,1.15-.06.27.22-.09,4.11-1.21,4.52s-2.2.02-3.29.27c-1.79.41-1.04,2.9-1.69,3.93-.75,1.2-2.98.6-4.14.83-1.96.4-.54,3.23-1.55,3.85-1.23.76-2.33,1.32-3.2,2.11l-4.9,4.49c-.69.63-2.35-.57-2.81.35-.52,1.05-.14,2.42-.55,2.94-1.07,1.37-3.43.42-5.07.66-1.1,1.48-.66,3.32-1.36,4.92-2.42.95-5.25.19-8.04.92-1.5.39-.81,2.71-1.93,3.56l-7.93.25c-4.47.14-8.65-.22-12.72.58-.08-.52.19-1.16-.44-1.35.17-.88-.18-1.79-.07-3.59l21.64-.06.59-4.64,8.67-.32c.24-1.83-.24-3.44.32-5.04,1.99-.44,3.88.11,5.84.01,1.14-.06.68-2.25,1.25-2.38l3.84-.83.59-5.71,6.6-.39c.41-1.4-.35-3.04.39-4.22.9-1.43,3.18-.37,4.44-.82,1.91-.69.63-3.25,1.25-4.34.74-1.29,3.25-.69,4.35-.44Z"/>
          <path class="cls-141" d="M15.85,284.31c.38.46-.17,1.43-.27,1.93-.55-1.83-4.43-2.84-5.51-.99-1.37,2.35.34,5.69.02,8.3-.24,1.97-2.45,1.09-3.67,1.47-3.02.93-1.93,9.76-1.2,9.28-2.26,3.24,2.74,6.7.63,6.5-.98-1.52-3.33-.99-5.69-1.27l-.16-19.24c1.64-.47,3.02-.13,5.08-.44.07-3.86,1.43-11.07-.61-11.8l-2.76-.99c-.47-.17-.15-1.76-.26-2.73-.18-1.73-.01-2.56,1.3-2.5s2.02.19,2.22,1.81c.36,2.9,4.18,1.07,5.02,2.58.42.75.46,1.75.7,2.61.49,1.79,2.94.72,3.99,1.72.93.89.44,2.89,1.15,3.77Z"/>
          <path class="cls-17" d="M11.04,310.28c.94.2,3.39-.67,3.65.67.6,3.14.99,6.23.9,9.22,0,.19-.03.36-.01.55-1.46-.44-3.73.72-4.99-.62l-.71-4.12c-.17-1.01-2.78-.2-3.5-1.1-.92-1.17.13-2.84-.53-4.07,2.12.21-2.89-3.25-.63-6.5,1.17.03,2.21-.04,3.05.24,3.22,1.05-.48,4.09,1.37,5.95.39.39,1.09.56,1.4-.21Z"/>
          <path class="cls-56" d="M23.61,320.74c5.41,4.55-.62,4.65,4.01,6-.13.92-.34,6.71-1.9,6.01-1.43.1-2.9.19-4.51-.15-.24-2-.33-3.78-.89-5.61-1.64-.07-3.02.2-4.38.28,0-2.18-.16-4.4-.36-6.57-.02-.19,0-.36.01-.55,2.41,1.11,5.47,1.43,8.02.57Z"/>
          <path class="cls-13" d="M58.77,263.01c-1.1.82-.86,2.29-.85,3.95l-15.66.38c-1.76.04-4.07-.17-5.28.81-.3-1.52-.33-3.13.07-5.27l19.85-.11c1.04,0,1.42-.28,1.44-1.12.63.19.36.84.44,1.35Z"/>
          <path class="cls-4" d="M171.78,202.29l3.84.31,1.13,8.05c.11.77,1.75.56,2.39.62.93.1,1.69,1.13,1.69,2.55l.02,14.43-5.72.37-.13,30.38c0,.9-.16,1.78-.45,2.37-.34.67-1.68.44-3.1.86.65,15.14-.11,30.53-.59,45.88-.13,4.1,1.2,7.84-1.07,11.53-.72.55-2.11.29-3.25.74-.35,1.74.4,4.5-1.16,5.78s-5.33,1.06-5.98-.5c.49-4.68-.76-8.33.17-14.06.22-1.32,3.14-1.27,4.36-.76.28-2.34.61-4.37.61-6.66v-30.62s.43-26.06.43-26.06c1.47-.73,2.56-.54,4.54-.87l.45-6.9-.32-26.52c-1.75-.41-3.29-.42-5.15-.42l-.4,11.27-5.26.82c-.4,3.62,0,7.19-.38,10.89l-1.06,10.54-3.69.59c-1.51,12.41-3.53-4.35-5.86,15.36l-5.86,1c1.29,4.3-.94,7.14-3.94,8.83-.07.98-1.87,7.33-1.57,7.09-.82.66-2.28-.09-3.37.26-1.6.92-.46,3.38-1.57,4.65-.39.45-1.28.32-1.64.51-.64.34-.73,1.36-.68,2.3.1,1.95-1.51,2.6-3.52,2.32-1.02,1.61-.35,3.25-1.08,4.97l-4.24.45-.45,4.72-4.42.56c.93,3.18-2.1,4.23-2.67,5.92-.94,2.81-1.93,3.71-4.44,4.15-3.1,9.62-3.08,1.59-5.03,8.23-.45,1.52-3,1.78-3.34,3.3-4.26.1-8.66-.7-13.36.03-1.8.28-1.56,2.97-1.31,4.84-4.18,1.02-13.44-.72-15.92.3.08-1.28-.27-2.69-.07-3.96.3-1.97,2.02-3.06,4.18-2.97-.18-1.95.43-3.08,1.83-3.6l6.07-2.23c1.15-.42,2.52.34,3.79-.52.19-1.26-.19-3.61,1.58-3.8,1.61-.18,2.65.23,3.69-.72.89-.81.37-2.63,1.21-3.82.77-1.09,3.46-.25,3.67-2.19.12-1.09.32-2.47.83-2.98.8-.8,2.55-.67,3.86-.8.49-1.16.32-2.46.14-3.53.99-.82,1.95-1.25,3.23-1.5.55-.11,1.69-1.04,1.54-1.66-.72-2.82,2.59-2.44,2.92-3.51.52-1.7,2.25-3.45,2.95-4.85,1.28-2.57,2.58-2.69,4.42-3.96,1.23-.84,1.15-2.73,3.7-3.04,1.49-.18,1.04-3.59,1.69-4.61.85-1.32,1.79-2.62.71-4.55,1.59-.78,3.42-.05,4.05-1.54.47-1.11-.22-2.47.57-3.06.72-.54,1.69-.2,2.66-.53,1.8-.62.38-4.07,1.35-4.84s2.5.63,3.79-.25c1.41-.97-.61-4.81,2.79-5.52,2.5-.52,1.27-3.8,2.29-4.65,1.49-1.25,1.24-3.07,2.04-3.92,2.59-2.75,4.66-6.17,4.64-9.97.7-.29,1.55-.39,1.87-.64.52-.42.15-1.13.34-1.87l3.13-12.24c.87-.43,2-.12,2.56-.84,1.1-1.41.25-3.79,1.72-4.97.97-.48,3.14.41,3.4-1.23.23-1.41-.66-3.64.96-4.45.88-.44,2.62-.22,3.26-1.37.34-.6.64-1.21.38-2.22.33-.32.67-.13,1.01.08.96.6-.1,2.73.86,3.32,1.69,1.05,4.51.5,4.81.37,2.07-.91-.9-4.93,1.91-5.25Z"/>
          <path class="cls-82" d="M175.1,326.15c.52,1.66.8,3.32.67,5.27s.16,4.09,1.19,5.85c1.77.55,2.89-.77,4.03-.13l-.48,20.67c3.6.52,6.75.3,9.97.2.7,1.85.09,4.34,1.36,5.98-.74,1.22-.72,2.91-.73,4.61l-.08,18.53c-1.43.75-2.95.67-4.5.79l-.22-13.44c-1.74-.29-4.58-.16-5.13-1.96-.77-2.51.78-7.8-.67-10.96-.54-1.18-2.22-.71-3.15-1.32-2.1-1.37-1.28-4.15-1.07-6.28.04-1.56-2.11-.7-2.97-.75-1.32-.08-1.87,1.7-2.61,2.9-.3.49-1.35.45-1.64.77-.48.51-.48,1.45-.37,2.46l1.44,13.33c.39,3.66,1.68,7.36-1.05,10.72-.27.34-1.4.1-1.59.55-.2.48,0,1.59-.3,1.86-1.03.75-1.84,1.36-2.19,2.87-.29,1.26-2.31,1.34-3.22,1.03-.37-4.5,3.51-8.02,2.59-11.04-.56-1.85-4.42-2.2-5.2-.25-.73,1.85.5,3.54-.08,5.44-.52,1.71-3.13,1.48-4.26,1.65-1.4.21-.6,2.36-1.17,2.7-2.43,1.49-5.32-.56-7.71-.96-5.57-.94-17.26,1.42-16.39-1.65.33-1.15,1.44-.94,2.59-1.18,1.87-.39,1.57-4.64-.04-5.02-3.07-.72-3.47,2.06-4.39,4.62-4.43-8.37,1.31-6.74.3-10.1-.31-1.03.35-1.78.68-2.24.58-.81,1.79-.1,2.59-.53,1.4-.74,1.46-2.65,1.42-3.84,2.35,3.15,5.72,1.81,5.09,6.32,2.07.41,3.98.59,5.82.56.01,1.2.2,2.61.67,4.12-.64,1.59-2.32,4.77-.41,6.31,1.24,1,5.1,1.08,6.58.24,1.06-.6,2.75-2.34,3.68-3.22,2.11-1.99-.57-5.26-.24-7.13l1.52-7.03c1.05-.75,3.39-1.68,3.13-3.5-.23-1.57.39-2.9.55-4.6.42-4.55-.45-8.84-.33-13.45.04-1.7,2.1-.89,3.25-1.35.76-.31,1.49-2.45,2.43-2.39,1.62.1,2.07-1.84,4.12-2.26-.59.12,5.97-11.23.7-11.9.91-2.54,1.37-1.1,5.83-1.87Z"/>
          <path class="cls-9" d="M106.74,347.42c1.06.05,2.64.04,3.76.64.14,1.46-.36,4.04,1.46,4.41s3.53-.35,4.95.27c1.39.21.54,2.19,1.15,3.3.75,1.37,3.26.25,4.55.83,2.34,1.04,4.62.94,6.59-.12,1.42.25,2.8.51,4.04,1.21.07.09-.43,11.75-.53,9.34-2.97.41-6.95-3.34-10.04-3.06-2.7.25-1.36,5.76-3.77,8.72-1.18,1.45-2.02,3.56-1.94,5.54-3.04.97-7.13.71-10.38.18-1-.16-.71-2.74-.16-3.31,2.49-2.6,3.89-.27,8.78-1.59,1.06-.29,1.88-2.65.65-2.94-2.92-.7-6.53-.69-9.19.12-.25.9-.2,2.41-.67,2.66-.33.18-4.35.71-4.97-.28-.29-.46-.68-1.74-.06-2.65.74-1.08,1.42-1.29,1.79-2.7.75-2.88,4.46-11.28,2.97-14.22-.65-1.28-3.59-.18-4.76-.94-1.59-1.02-2.04-3.61-2.2-5.28,1.61.04,8.47.57,7.99-.12Z"/>
          <path class="cls-81" d="M16.52,299.64c.97.03,2.85-.5,3.63.47s-.4,3.66,1.07,4.55c1.16.7,4.3-.57,4.92.86.79,1.8.2,4.32,2.84,4.14.95-.06,1.9-.21,2.39.29s.25,1.86.85,2.34c.84.67,2.05,1.3,2.1,2.46.12,3.17-.49,6.32-.78,9.47-.34.24-.73.04-.99-.09-.58-.3.11-1.58-.45-2.27-1.12-1.37-4.11-.69-4.53-3.05-.27-1.53-1.11-2.02-2.27-1.88-1.3.15-1.85,1.02-1.66,2.59.06.53-.26.95-.04,1.24-2.55.86-5.6.53-8.02-.57.09-2.99-.3-6.08-.9-9.22-.26-1.34-2.71-.47-3.65-.67-1.42-1.17-.82-3.41-.73-5.39l.21-4.62c2.02-.82,4.08-.7,5.99-.63Z"/>
          <path class="cls-32" d="M158.56,363.98c.26,1.82-2.07,2.75-3.13,3.5l-1.52,7.03c-3.33-.85-6.87-.37-10.29-.32-1.84.03-3.76-.15-5.82-.56.63-4.51-2.74-3.17-5.09-6.32.1,2.41.6-9.25.53-9.34l2.96,1.69c.41.24,1.34-.61,1.78.06,1.52,2.29-.06,2.03,1.29,4.24,3.31.71,7.74,1.2,10.48-.55.57-.56.32-3.2.77-3.87.38-.56,1.86-.36,2.78-.83,1.16-1.91.05-4.45,1.2-6.75.46-.91,3.18-.99,3.37-.1l.09,11.88c0,.31.53.32.6.24Z"/>
          <path class="cls-66" d="M106.74,347.42c.48.69-6.38.16-7.99.12-4.74-.11-9.48.02-14.4.64-.27,1.48,0,2.7.44,3.84-1.47,1.56-3.82,2.94-6.02,2.14-1.63-.59-3.14-.4-4.75-.85.04-1.14.23-4.25-.7-4.34l-6.24-.6c-1.37-.13-.1-3.95-.21-5.48,1.3-.65,2.27-.49,2.98-1.11-.69-1.93.31-3.43.24-5.1,1.77-.01,3.04-.14,4.61.21-.09,2-.5,3.74.27,5.85h31.02c.79,1.72.44,3.23.74,4.68Z"/>
          <path class="cls-57" d="M73.97,364.65c.04,1.46.23,3.03.2,4.64-1.58.37-2.96.75-4.97.94-.57,2.95-1.47,8.34.1,10.72.81,1.22,3.67.16,4.53,1.18,1.35,1.61.39,3.99,1.1,5.54l-3.35.22c-.78.05-1.79-.62-2.38-1.05-.55-.41-.02-2.09-.54-2.93-1.36-2.16-4.28-1.84-6.44-1.87,2.63-5-.55-8.97,1.39-11.91,1.1-1.66.38-3.91.67-5.64,6.2-1.45,2.94.98,9.7.15Z"/>
          <path class="cls-104" d="M64.27,364.5c-.3,1.73.43,3.98-.67,5.64-1.95,2.94,1.23,6.91-1.39,11.91-1.22-.02-2.71.67-4.09.41l.13-9.18c.04-2.87,1.14-5.72.89-9.13,1.93-.58,3.8-.24,5.14.35Z"/>
          <path class="cls-23" d="M78.77,354.16c-.25,1.5.53,3.26.61,4.69-1.49,2.68,2.42,12.28-3.05,11.35-.32-.51-2.15.13-2.16-.91.03-1.62-.16-3.18-.2-4.64l-.19-6.77c-.05-1.57.2-3.3.25-4.57,1.62.45,3.12.26,4.75.85Z"/>
          <path class="cls-115" d="M185.74,326.72c-.13,2.42,1.09,5.28-.51,7.36-2.16.16-4.2.8-4.25,3.06-1.14-.64-2.26.68-4.03.13-1.03-1.76-1.32-3.98-1.19-5.85,1.24-.64,3.04-.58,4.24-1.75.87-.85-.04-2.46,1.11-2.91,1.48-1.02,3.03.8,4.62-.04Z"/>
          <path class="cls-88" d="M33.54,324.21c-.07.77.01,2.2-1.18,2.46-1.77.39-3.33-.06-4.75.07-4.63-1.35,1.4-1.46-4.01-6-.22-.29.1-.71.04-1.24-.19-1.57.36-2.44,1.66-2.59,1.16-.14,1.99.35,2.27,1.88.42,2.36,3.41,1.67,4.53,3.05.56.69-.13,1.97.45,2.27.25.13.65.34.99.09Z"/>
          <path class="cls-6" d="M129.21,356.74c-1.97,1.06-4.25,1.17-6.59.12-1.29-.58-3.79.54-4.55-.83-.61-1.11.24-3.09-1.15-3.3,1.21-1.93,6.82.87,11.02-.65l1.27,4.65Z"/>
          <path class="cls-53" d="M58.25,373.28l-.13,9.18c-1.01-.19-2.63.67-3.46-.44-.46-.61-1.2-1.89-1.14-2.77.19-2.68-.58-5.34-.04-8.01,1.36.15,2.99-.61,4.4.4-.14,1.09-.55,1.84.38,1.65Z"/>
          <path class="cls-71" d="M162.79,198.14c.2,1.95-.9,3.89.4,5.62.26,1.01-.05,1.62-.38,2.22-.65,1.15-2.38.93-3.26,1.37-1.62.81-.73,3.04-.96,4.45-.26,1.63-2.44.74-3.4,1.23-1.48,1.18-.62,3.57-1.72,4.97-.56.72-1.69.42-2.56.84l-3.13,12.24c-.19.74.19,1.45-.34,1.87-.32.25-1.17.35-1.87.64.03,3.8-2.04,7.22-4.64,9.97-.8.85-.56,2.68-2.04,3.92-1.01.85.21,4.13-2.29,4.65-3.4.71-1.38,4.55-2.79,5.52-1.29.89-2.8-.53-3.79.25s.45,4.22-1.35,4.84c-.97.33-1.94,0-2.66.53-.79.59-.1,1.95-.57,3.06-.62,1.49-2.45.75-4.05,1.54,1.09,1.93.15,3.23-.71,4.55-.65,1.02-.2,4.43-1.69,4.61-2.54.3-2.47,2.19-3.7,3.04-1.84,1.27-3.14,1.39-4.42,3.96-.7,1.4-2.43,3.15-2.95,4.85-.33,1.08-3.64.7-2.92,3.51.16.62-.99,1.55-1.54,1.66.27-.53-.34-.52-.62-.57-.44-.08-.94.51-1.62.25-.93-.35-1.43-2.51-1.43-3.58,1.54-.95,1.7-2.65,2.5-4.52.28-.66,2.12.15,2.65-.04,2.15-.76.43-3.62,2.15-5.2.71-.66,1.77-.68,2.76-.37,2.55-11.32,2.59-4.76,5.91-11.51.63-.81,4.01.43,4.19-.77l.73-4.87c1.03.41,1.96,1.02,2.95.51,1.44-.74.28-2.61,1-4.78.29-.88,1.79-.25,2.48-.65,1.55-.9.98-3.43,1.81-4.7.56-.86,2.9-.07,3.65-1,1.53-1.89.69-4.64,1.98-6.5,1.04-.11,2.35.19,3.09-.67,1.4-1.63,3.22-16.8-.24-18.7,0-2.26-.8-6.9,1.25-7.19l2.07-.3c.58-.08,1.33-6.11-.06-6.42-1.71-.39-3.67,1.69-4.7.12,1.37-.57.63-2.73.99-4.14.54-2.14,2.94-.77,4.35-.84,2.23-.11,1.23-3.53,1.01-5.04,1.35-1.34,3.43.06,4.87-.97,5.17-3.68,7.86,2.93,9.99-2.89,1.35-1,4.09-.86,5.6-.6Z"/>
          <path class="cls-124" d="M135.99,212.62c1.03,1.57,2.99-.51,4.7-.12,1.39.31.64,6.34.06,6.42l-2.07.3c-2.05.29-1.25,4.94-1.25,7.19-7.02,5.66-5.7,1.09-8.65,3.3.31-.5.11-.76,0-1.26.65-3.29.48-6.65.67-9.97.58.05,1.94-.23,2.3-.92.78-1.5.2-3.09.66-4.72,1.3-.4,2.53.38,3.58-.21Z"/>
          <path class="cls-123" d="M100.23,295.58c.19,1.07.35,2.37-.14,3.53-1.31.14-3.05,0-3.86.8-.51.51-.71,1.89-.83,2.98-.21,1.94-2.9,1.09-3.67,2.19-.84,1.19-.32,3.01-1.21,3.82-1.04.95-2.08.54-3.69.72-1.77.19-1.39,2.54-1.58,3.8-1.26.85-2.64.09-3.79.52.04-.68-.63-.36-1.58-.58.21-1.34.84-2.59,1.35-4.02,1.7.29,3.03.34,3.75-.55,1.06-1.31.03-7.86,1.84-8.45,1.5-.49,2.87.09,4.3-1.1.89-.74,3.62.34,4.07-1.61.19-.83-.09-1.77.26-2.31.06-.09,2.96-1.83,4.28-1.21.44.21.39.95.48,1.48Z"/>
          <path class="cls-65" d="M129.44,218.47c-.2,3.32-.02,6.69-.67,9.97-1.01.79-5.29.59-6.08.22,3.22-.97-.37-2.36,2.3-6.32.62-.92-.54-2.91.49-3.88.87-.83,2.94-.08,3.96,0Z"/>
          <path class="cls-85" d="M69.4,322.73c-.19,1.26.15,2.68.07,3.96-1.58.65-4.33,1.56-4.8-.63-.28-.66-.59-2.53.38-2.92,1.37-.55,3.04-.35,4.35-.41Z"/>
          <g>
            <path class="cls-11" d="M103.46,294.08c-1.28.26-2.24.68-3.23,1.5-.09-.53-.05-1.28-.48-1.48-1.32-.62-4.23,1.12-4.28,1.21-.35.54-.07,1.49-.26,2.31-.45,1.95-3.19.88-4.07,1.61-1.43,1.19-2.8.62-4.3,1.1-1.81.59-.78,7.14-1.84,8.45-.72.89-2.05.84-3.75.55-.5,1.43-1.13,2.68-1.35,4.02.96.23,1.63-.1,1.58.58l-6.07,2.23c-1.39.51-2.01,1.65-1.83,3.6-2.16-.09-3.87,1-4.18,2.97-1.31.05-2.98-.14-4.35.41-.97.39-.66,2.25-.38,2.92-2.27.86-14.38.63-17.22-.34,1.15-5.35,6.69-4.26,10.3-6.29.14-1.01.13-2.36.48-3.11.45-.95,1.99-1.15,3.32-1.56,1.77-.55-.14-2.7.16-3.72.26-.89,1.88-.99,2.23-1.53.17-.27.07-9.26-.52-10.41h-10.85c-.68-1.83-.34-3.58-.69-5.57l-14.99-.07-.21-19.47c-1.65-.23-2.79.29-4.35-.11-.15-1.19-1.11-4.6.49-5.17,1.69-.61,3.02.35,4.15-.56,1.21-.98,3.52-.77,5.28-.81l15.66-.38c-.01-1.66-.25-3.13.85-3.95,4.07-.8,8.25-.44,12.72-.58l7.93-.25c1.12-.85.43-3.17,1.93-3.56,2.79-.73,5.62.02,8.04-.92.69-1.6.26-3.44,1.36-4.92,1.64-.25,4,.71,5.07-.66.41-.52.03-1.89.55-2.94.45-.92,2.11.28,2.81-.35l4.9-4.49c.86-.79,1.96-1.35,3.2-2.11,1.02-.63-.4-3.46,1.55-3.85,1.17-.24,3.39.37,4.14-.83.65-1.03-.1-3.52,1.69-3.93,1.09-.25,2.22.13,3.29-.27s1.48-4.3,1.21-4.52c-.25-.2-.57.19-1.15.06.16-.49.65-.96,1.16-1.11.24,1.75,2.63.47,3.52.89.78.37,5.07.57,6.08-.22.12.5.32.76,0,1.26-1.03.77-1.12,2.16-1.12,3.78,2.02-1.16.45-2.7,1.12-3.78,2.95-2.2,1.63,2.37,8.65-3.3,3.47,1.9,1.64,17.07.24,18.7-.74.86-2.05.56-3.09.67-1.29,1.85-.45,4.6-1.98,6.5-.75.93-3.09.15-3.65,1-.83,1.27-.26,3.8-1.81,4.7-.7.4-2.19-.23-2.48.65-.72,2.17.44,4.04-1,4.78-.99.51-1.92-.1-2.95-.51l-.73,4.87c-.18,1.19-3.56-.04-4.19.77-3.32,6.75-3.36.19-5.91,11.51-.99-.31-2.05-.29-2.76.37-1.71,1.58,0,4.44-2.15,5.2-.54.19-2.37-.62-2.65.04-.8,1.87-.97,3.58-2.5,4.52,0,1.07.5,3.23,1.43,3.58.68.26,1.19-.33,1.62-.25.27.05.88.04.62.57Z"/>
            <path class="cls-124" d="M128.78,229.7c-.67,1.08.9,2.62-1.12,3.78,0-1.62.08-3.01,1.12-3.78Z"/>
            <path class="cls-124" d="M124.66,237.73c-.83.83-2.13,1.11-3.43.26,1.46-.57,2.42-.13,3.43-.26Z"/>
            <path class="cls-124" d="M124.66,237.73c.16-1.11-.39-2.29.34-3.39.7,1.54.51,2.54-.34,3.39Z"/>
          </g>
          <path class="cls-69" d="M186.53,387.93c.02,1.23.08,3.22-.35,4.32-1.09.96-2.82.73-4.54.91-.45,1.59-.38,3.14-.45,4.6-1.46.28-3.63.79-5.34.75l-8.59-.21-7.72.14c-.54,1.64-.27,2.76-.34,4.01,2.33,2.47-15.75.83-16.58.77-.23-1.63-1-3.1-1.42-4.67,1.46.4,3.16-.76,4.64-.68,7.03.37-.01-4.69,13.66-6.11.52-.26.26-1.5,1.03-1.99.38-.24.5-.34,1.27-.08.91.31,2.93.24,3.22-1.03.35-1.5,1.16-2.12,2.19-2.87.3-.27.1-1.38.3-1.86.19-.45,1.31-.21,1.59-.55,2.73-3.36,1.44-7.06,1.05-10.72l-1.44-13.33c-.11-1-.11-1.95.37-2.46.29-.31,1.34-.28,1.64-.77.74-1.2,1.29-2.98,2.61-2.9.86.05,3.01-.81,2.97.75-.21,2.13-1.03,4.92,1.07,6.28.94.61,2.61.14,3.15,1.32,1.46,3.16-.1,8.45.67,10.96.55,1.8,3.39,1.66,5.13,1.96l.22,13.44Z"/>
          <path class="cls-99" d="M15.58,286.24c-.17.87-.19,1.92.48,2.85s1.07,9.5.45,10.56c-1.91-.07-3.97-.19-5.99.63l-.21,4.62c-.09,1.98-.69,4.22.73,5.39-.31.77-1,.6-1.4.21-1.86-1.86,1.85-4.89-1.37-5.95-.83-.27-1.88-.2-3.05-.24-.73.48-1.82-8.35,1.2-9.28,1.22-.38,3.44.51,3.67-1.47.31-2.62-1.39-5.95-.02-8.3,1.08-1.86,4.95-.84,5.51.99Z"/>
          <g>
            <path class="cls-77" d="M36.9,293.46l14.99.07c.35,1.98.01,3.73.69,5.55h10.85c.59,1.16.69,10.15.52,10.42-.35.54-1.96.64-2.23,1.53-.3,1.02,1.61,3.17-.16,3.72-1.33.41-2.87.62-3.32,1.56-.35.74-.34,2.09-.48,3.11-3.61,2.03-9.15.94-10.3,6.29,2.84.98,14.95,1.2,17.22.34.47,2.2,3.21,1.29,4.8.63,2.48-1.02,11.74.72,15.92-.3-.25-1.87-.49-4.56,1.31-4.84,4.7-.73,9.1.07,13.36-.03-.03,1.31.21,2.66-.38,4.26-2.19.33-4.19.38-6.39.95-.1,1.88-.51,4.07-2.43,4.32-5.26.7-7.65-.76-7.96,1.58-.78.49-2.05-.36-2.74-.37-1.46,0-21.84.89-21.92,1-.31.43-.05,1.55-.38,1.93-1.62.41-4.36.36-6.2-.05s-2.57,1.19-3.63,1.24c-3.29.14-8.13,1.14-10.99-.29s.35-4.99,1.48-6.25c.57-.93.68-13.67.71-13.64-2.28-1.64.83,1.7-3.01-1.62-.43-.37-1.42-.05-1.9.18-.04-1.17-1.25-1.8-2.1-2.46-.61-.48-.35-1.83-.85-2.34s-1.44-.35-2.39-.29c-2.65.18-2.05-2.34-2.84-4.14-.62-1.43-3.76-.15-4.92-.86-1.47-.89-.25-3.55-1.07-4.55s-2.67-.43-3.63-.47c.62-1.05.19-9.66-.45-10.56s-.65-1.98-.48-2.85c.09-.5.64-1.46.27-1.93,4.94,1.51,4.59,5.85,6.1,10.92,5.66.58,11.28-1.8,14.95-1.78Z"/>
            <path class="cls-111" d="M51.11,315.44c-1.12-.31-1.17-3.87-.07-4.35s2.63.43,2.55,1.4c-.1,1.26,0,3.64-2.47,2.95Z"/>
            <path class="cls-117" d="M31.64,299.54c-.6-.15-1.06.85-1.21,1.33-1.51-.15-3.29.59-4.17-1.18,1.4-.5,2.72.19,3.94-.34.29-.13-.08-1.06.43-1.17.3-.07.76-.05,1,.31.15.24-.01.61.02,1.05Z"/>
            <path class="cls-117" d="M36.82,307.39c.05.78-.03.81-.86.8-.62,0-1.2-.04-.89-.81.56-.13,1.17.03,1.75.01Z"/>
          </g>
          <path class="cls-107" d="M141.18,398.55c.43,1.57,1.2,3.04,1.42,4.67.59.04-9.84.23-10.88,1.31-.43.45-.07,1.34-.24,1.99-1.01,3.88-19.56,2.01-21.47,1.94-1.17-1.18,10.5-4.25,7.56-3.63-1.62-2.45.38-4.94,1.28-6.94.53-1.16,1.59-2.12.65-4.16-.22-.47,1.36-1.05,1.82-1.03l16.47.56c-.17,1.83-.33,3.56.47,4.32.59.57,2.04.73,2.92.97Z"/>
          <path class="cls-105" d="M118.85,397.88c-.91,2-2.9,4.49-1.28,6.94,2.94-.62-8.73,2.45-7.56,3.63-5.19-.19-10.7-.25-16.09-.37l-3.94-.08c-.21-1.41.22-2.82.17-4.23l11.95-.76c4.1-.26,8.13.52,12.12-.2.62-1.44.17-3.13,1.21-4.24.95-1.02,2.44-.15,3.42-.69Z"/>
          <path class="cls-5" d="M98.75,347.54c.16,1.66.61,4.26,2.2,5.28,1.18.76,4.12-.34,4.76.94,1.49,2.94-2.22,11.34-2.97,14.22-.37,1.41-1.04,1.62-1.79,2.7-.62.91-.23,2.19.06,2.65.62.99,4.64.46,4.97.28.47-.25.42-1.77.67-2.66,2.66-.81,6.27-.82,9.19-.12,1.23.3.4,2.66-.65,2.94-4.89,1.32-6.29-1.01-8.78,1.59-.54.57-.84,3.15.16,3.31,3.24.53,7.33.79,10.38-.18-.08-1.98.76-4.09,1.94-5.54,2.41-2.96,1.07-8.47,3.77-8.72,3.09-.28,7.08,3.47,10.04,3.06.05,1.19-.01,3.09-1.42,3.84-.8.43-2.02-.28-2.59.53-.33.46-.99,1.21-.68,2.24,1.01,3.35-4.73,1.72-.3,10.1.92-2.56,1.32-5.33,4.39-4.62,1.61.38,1.91,4.62.04,5.02-1.14.24-2.26.03-2.59,1.18-.87,3.07,10.82.71,16.39,1.65,2.39.4,5.28,2.45,7.71.96.56-.35-.23-2.5,1.17-2.7,1.13-.17,3.74.06,4.26-1.65.58-1.9-.66-3.59.08-5.44.78-1.95,4.64-1.61,5.2.25.91,3.01-2.96,6.54-2.59,11.04-.78-.27-.9-.17-1.27.08-.77.5-.52,1.73-1.03,1.99-13.67,1.42-6.63,6.47-13.66,6.11-1.48-.08-3.18,1.08-4.64.68-.88-.24-2.33-.4-2.92-.97-.8-.76-.64-2.49-.47-4.32l-16.47-.56c-.46-.02-2.04.56-1.82,1.03.94,2.04-.12,3-.65,4.16-.98.54-2.47-.33-3.42.69-1.04,1.12-.59,2.8-1.21,4.24-3.99.71-8.02-.06-12.12.2l-11.95.76c-.19.01-.39-.12-.61-.07-.33-6.33,1.19-3.29,1.11-11.22-1.74-2.63-6.04-2.66-3.93-6.71-.99.04-1.32-.09-1.73-.4-.83-.63-.45-5.01-.49-6.82,3.07.12,5.32-1.61,5.26-4.51l-.36-19.84c-.03-1.66-5.59.03-4.62-2.17-.45-1.14-.71-2.36-.44-3.84,4.92-.62,9.66-.75,14.4-.64Z"/>
          <path class="cls-46" d="M89.54,403.69c-1.8.34-3.61-.29-5.4-.21.51-1.26.59-9.46-.38-10.28s-2.3-.55-3.63-.21l-1.5-4.87c-.29-.93-2.75-.51-3.71-.45-.71-1.55.26-3.93-1.1-5.54-.86-1.02-3.72.04-4.53-1.18-1.58-2.39-.67-7.78-.1-10.72,2.02-.18,3.39-.57,4.97-.94.02,1.04,1.85.4,2.16.91,3.96,3.5,2.63,4.97,5.91,4.54.49-.06,1.03.86,1.56.41.46-.38.98-.95.94-1.88l-.57-13.55c-1.82-.75-3.57.25-4.8-.87-.08-1.43-.86-3.18-.61-4.69,2.2.79,4.55-.58,6.02-2.14-.97,2.21,4.59.51,4.62,2.17l.36,19.84c.05,2.9-2.2,4.64-5.26,4.51.04,1.81-.34,6.19.49,6.82.4.31.74.43,1.73.4-2.11,4.05,2.19,4.08,3.93,6.71.08,7.92-1.44,4.88-1.11,11.22Z"/>
          <path class="cls-126" d="M74.92,387.67c.95-.06,3.42-.48,3.71.45l1.5,4.87c1.33-.33,2.67-.6,3.63.21s.89,9.02.38,10.28c-1.57.07-2.4.54-3.53-.48s-1.24-1.94-1.24-4.04c-6.01-3.19-2.78-.72-6.23-.64-4.27.09-1.34-8.01-1.58-10.44l3.35-.22Z"/>
          <path class="cls-133" d="M197.11,370.09c-1.88,5.32-.63,11.16-.05,17.07-1.96.67-4.54,1.21-6.03-.02l.08-18.53c0-1.7-.01-3.38.73-4.61,1.02-.06,3.91-.57,4.35.53.87,2.22-.51,4.33.93,5.56Z"/>
          <path class="cls-75" d="M153.91,374.5c-.33,1.88,2.35,5.15.24,7.13-.93.87-2.62,2.62-3.68,3.22-1.48.84-5.34.76-6.58-.24-1.92-1.54-.24-4.72.41-6.31-.48-1.51-.66-2.92-.67-4.12,3.41-.05,6.96-.53,10.29.32Z"/>
          <path class="cls-54" d="M76.33,370.2c5.47.93,1.56-8.67,3.05-11.35,1.23,1.12,2.98.12,4.8.87l.57,13.55c.04.92-.48,1.49-.94,1.88-.53.45-1.07-.47-1.56-.41-3.28.43-1.95-1.04-5.91-4.54Z"/>
          <g>
            <path class="cls-68" d="M164.67,403.92c.68.82,1.45,1.55,1.2,2.88-.13.68-1.13,1.2-1.15,2.16-1.11.23-4.19-.67-4.48.66l-.73,34.21c-.14,6.76-.16,13.32-.28,19.87-.07-10.9-.92-22.38-.32-33.67.38-7.16.37-14.01.26-21.16-6.35-.37-12.59.86-18.55.23l-2.32-.25c-.62-.07-.86,1.13-1.57,1.63.09-1.7-1.26-1.71-2.97-1.32-1.88.43.4,4.99-1.74,5.32-4.05.61-8.06-.61-12,.29-2.54.58-4.63.71-7.34.51-7.49-.55-14.78.11-22.32-1.17l-.5-4.93c-.03-.27-.99.14-1.08-.22,0-.79,1.07-.29,1.21-.97l3.94.08c5.39.11,10.89.18,16.09.37,1.91.07,20.46,1.94,21.47-1.94.17-.65-.19-1.54.24-1.99,1.04-1.08,11.47-1.27,10.88-1.31.83.06,18.91,1.7,16.58-.77.4-.29.73.09.74,1.01,1.6-.09,3.23.52,4.74.47Z"/>
            <path class="cls-29" d="M185.23,334.08c1.49,1.86-.79,15.72,1.68,17.83.94.8,2.85,1.16,4.08.88l-.52,5.23c-3.22.1-6.37.32-9.97-.2l.48-20.67c.05-2.26,2.09-2.9,4.25-3.06Z"/>
            <path class="cls-34" d="M180.98,315.6c-.7,2.01-.32,8.95.14,11.16-1.15.44-.24,2.05-1.11,2.91-1.2,1.17-3,1.11-4.24,1.75.14-1.95-.15-3.61-.67-5.27.08.24-.12-12.39.54-13.18-.09.11,2.79-.59,4.47.41.8.48.45,1.32.87,2.21Z"/>
            <path class="cls-51" d="M164.45,342.18c-.6-3.39,0-6.93.06-10.64,1.6-.44,3.02.08,4.08-.68.89-.64.42-2.11.68-2.84,5.27.67-1.29,12.02-.7,11.9-2.05.41-2.51,2.36-4.12,2.26Z"/>
            <g>
              <path class="cls-31" d="M281.38,358.83c.03,1.35-.4,3-.47,4.42-.1,1.96.22,5-.65,6.94-2.55,1.1-4.49,2.75-4.35,6.08-1.94.76-3.82-.02-5.16,1.33.25,1.07.18,1.74-.38,2.24-.28.25-.89-.42-1.82-.57-.79,1.72-.63,3.91-1.03,6l-3.04.95c-.08,1.85.11,3.72-.44,5.5l-7.79.48c-1.9.12-3.65,1.96-6.13,1.02-1.02,1.59-.48,3.2-.95,4.93l-5.67.2c-.52,1.52-.26,3.07-.52,4.85l-8.87.43-.53,4.95-18.89.41-.35,5.7-24.17.05c-2.48,17.88-1.34,42.21-3.84,58.01-2-1.09-4.34.38-6.47-.48.27-2.05-.31-4.28-.12-6.59-1.73-.71-3.11-1.04-4.53-1.43,2.59-8.2-8.79-10.93-4.75-16.61.49-.68,2.85.15,3.14-1.32-.32,1.17-.38,2.37.98,1.6-.14-.78-.31-2.95.21-2.73l2.27.96c.88.37,1.72.3,2.11-.14.58-.66.58-1.29.39-1.99-.44-1.65-6.41-.85-8.22-1.59l-.18-16.02c-.02-1.58-1.05-2.34-1.28-3.45-.98-4.66-.05-9.3-.54-14.03-1.74,0-3.36-.26-4.62,0,.03-.97,1.03-1.49,1.15-2.16.25-1.33-.52-2.06-1.2-2.88l8.5-.28c1.79-.06,2.44-1.5,2.08-3.13-.19-.88.06-1.71.59-2.01,1.71.04,3.88-.47,5.34-.75,2.5,1.57,6.71.88,9.79.15.54-1.26.26-3.42,1.33-4.1,1.57-.99,3.45-.43,5.35-.68-.46-2.09.49-2.9,1.57-4.1,1.94-2.15,5.34.4,6.4-2.16.28-.67-.2-2.3.33-2.77,1.31-1.16,3.83-.12,5.22-.13.53.67.76,1.67.64,2.32-.26,1.36-1.6.75-2.84,1.1.74,1.29,2.01-.04,2.84.2.97.28,1.79.59,2.86.35-.07.02,3.05-3.59,3.05-3.59-.02-.46-.46-1.23-.23-2.07,1.36-.55,9.72.1,9.87-.02,1.26-1.11-.52-4.16,1.47-4.24,3.9-.24,7.89.16,11.9-1.01.22-1.24.21-3.38,1.58-4.1.65-.34,1.45.28,1.71-.35.14-.34.09-1.65.45-1.68l9.13-.88c2-.19.44-3.56.65-4.87.25-1.51.73-3.06.59-4.88l8.71-.43c.69-.03.77-.68,1.29-.56,1.49.32,3.61,1.3,4.99-.26.48-.54-.24-2.3.7-2.93,2.38-1.59,5.22.28,5.61-1.42.31-1.37.87-1.99,1.31-2.7-.35,1.2,1.35.71,1.86,1.32,1.21,1.42,2.03,3.84,2.07,5.56Z"/>
              <path class="cls-35" d="M324.7,299.37c-1.89-1.21-1.36-3.76-.85-5.74.4-1.54,0-3.3.9-4.63l6.65-.65c4-.39,1.42-6.95,1.89-8.18.25-.06.42-.34.65,0-.04.86-.23,2.64.38,3.21.57.54,2.22.42,3-.02.74-.41.93-1.26,1-2.64l.31-5.78c.08-1.51.2-2.92.72-4.02.07-.16.15-.38.14-.55,1.44.62,3.29.36,4.66-.23.97-6.4.12-12.68.41-19.03.12-2.52-.5-3.18-1.17-4.58-.76-1.58-1.33-4.38-3.45-4.61-.35-.04-.34-1.06-.34-1.35,1.08-.1,2.73.89,4.12.24,1.25-.59.94-3.09.94-4.38l.02-28.61c0-1.63-.1-3.86-.94-4.85-.93-1.1-2.77.08-3.73-.33-1.27-.67-.26-3.12-.99-4.16-.95-1.35-3.74.98-4.69-1.26.25-1.32-.06-2.69-.33-3.88-.33-1.47.73-3.65-.31-5.24-.83-1.26-3.21-.13-4.35-.3-.19-1.14.38-2.85-1.03-3.73-.81-.51-2.62.25-3.19-.69-.78-1.28-.51-3.14-1.79-3.97-.44-.38.38-.87.35-1.17-.04-.47-.62-1.22-1.2-1.27l-2.59-.26c-.4-.92-.64-1.99-1.23-2.77-.25-.85.6-2.66-.28-3.66-.83-.94-2.58-.24-3.51-.73-2.27-.68-.49-2.35-2.2-2.78,1.65-7.79-.64-4.05,1.39-15.38.4-2.25-.41-4.54.12-6.48,5.3-3.3,3.1-3.79,6.42-10,1.04-.46,3.66.19,4.07-1.47.19-.78.03-1.46.63-1.69.53-.2,1.17-.19,2.21-.14,1.38.06,1.65-3.15.53-3.81-1.28-.76-4.35-.53-6.02-.38-2.42,5.02-8.01,1.27-8.83,4.08-.28.95-.05,1.57-.8,2.03-.63.39-1.56.11-2.29.37-1.3.45-1.04,3.26-2.43,3.88-2.15.48-2.75,1.92-3.67,3.78-.39.78-3.32-.04-3.13,1.85.09.89.03,1.6-.21,2.22-.31.81-1.95.42-2.46.86-.99,2.09-.29,4.88-1.01,7.26l-3.66.1-.12,18.3c1.02.43,2.12.5,3.15.74.86-4.55-.4-12.9.28-17.51,1.36,1.62-.02,3.16.72,4.43,1.18,2.04.25,4.39.1,6.5-.4,5.47-.21,11.11-.27,16.78l5.03.53c1.06.94.59,2.81.62,4.77,3.56.73,7.09,1.06,10.43.65.99-.12,1.82.13,3.44.21,1.29,2.81,1.96,5.97,1.77,9.57,1.29,1.18,2.66.6,4.37,1.35-.82,1.92,1.79,2.69,2.01,3.69.86,3.94.76,8,.64,11.78l-.38,12.06c-3.78.41-8.28.26-12.18-.41-.51-1.05-.77-2.43-1.71-3.65-.79-1.02-3.16-.68-3.54.47-.3.91.84,3.19-1.2,3.43-.98.11-1.85,0-2.63.57s-.71,1.42-.4,2.66c.55,2.26-4.78,2.56-3.78,4.47.52.99-.28,1.67-.34,2.23-.14,1.51-1.85.46-2.5,1.25s-.48,2.02-1.21,2.47c-.86.54-1.94.52-2.87-.06.61,4.35-1.02,8.08-2.81,12.17-.75,1.72-2.83,12.09-2.8,14.34-2.37-1.12-.71,4.09-1.26,6.18-.12.47-1.52.16-1.85.46-.52.46-.14,1.26-.35,1.89-1.06,3.19-6.83,3.24-7.11,2.51-.15-.38-.24-.45-.69-.07-.5.42.7,1.33.45,1.66-1.21,1.59-.39,3.53-.66,5.43l-.37,2.64c-3.31-.16-6.7.63-10.01.04-.79-3.39.83-4.47-1.32-8,.56-.49,1.37-1.14,2.01-1.2l4.94-.48.54-3.54c2.07-.76,4.76-.05,6.79-1.18.35-1.13,1.53-2.46,2.75-3.18.64-7.45,1.39-15.87,5.21-22.7,1.59-2.85,3.73-5.36,2.98-8.84.94-1.24,4.09-.43,4.98-1.51.83-1-.32-3.44,1.03-4.18.52-.29,1.12-.3,2.41-.15.93-1.96.24-3.99,1-6.13l3.9-.48c.36-3.36.72-6.85,0-10.3-1.17-.2-3.37.29-3.69-.85-.39-1.41,1.81-1.45,2.65-1.64,1.07-.24,1.81.51,2.75,1.34,1.26,1.11,3.33.36,4.76.97,2.37,1,2.7,3.64,2.55,6.46,1.4.12,4.29.64,5.45-.49,1.05-1.02,1.16-4.82.14-5.83-1.7-1.69-1.65-3.49-2.16-6.01-.29-1.46-3.08-1.96-1.84-4.73.34-.76-.58-1.8-1.09-2.21-.42-.33-2.19-.11-2.35-.67-.42-1.53-.61-2.77-1.29-3.47-1.09-1.11-2.69-.63-4.02-.96-1.45-.36-.62-2.73-1.01-3.8-.52-1.43-2.41-.99-3.58-1.54-1.61-.77-.75-3.17-1.43-4.2-1.04-1.58-3.12-1.55-4.73-1.99l-1.69-6.25c-.37-1.37-3.11-.82-3.92-1.54.31-1.67-.94-3.52-1-4.97-.33-9.33-.05-18.14.19-27.31.08-2.98,3.79-1.02,6.01-3.67,1.68-2,.15-5.8,1.32-6.48.88-.51,3.06.27,3.9-.27,1.26-.81.2-3.42,1.39-4.37.39-.31,2.03-.12,2.15-.63.45-1.8.95-3.12,2.48-3.91.66-1.68-.09-3.76.43-5.63l23.82-.59c.75-1.74-.24-3.81.87-5.26l3.12-.97c1.13-.35.43-5.14,1.36-5.3l2.08-.36c1.67-.29.13-2.12-.11-2.91-.62-2.08-4.65-.87-3.66-2.5.17-.27.68-.7,1.27-.68,2.96.1,3.65,2.67,4.61,4.9.59,1.38,3.54.41,4.21,1.27.82,1.07,1.06,4.71-.06,5.43-3.55,2.27-4.7,7.62-4.6,11.82-1.69-.18-3.14-.08-3.9.69-.81.83-.53,2.19-.38,3.81-1.53.91-3.38.36-5.13,1.1l-.77,5.79c-.91.2-3.55-.4-3.8.63-.84,3.55-.17,6.95-.86,10.75l-3.97.72-.15,14.02,4.52.6c.84,1.41-.42,3.51.97,4.58.72.49,2.1-.15,2.72.23,1.55.93.34,3.14,1.24,4.11,1.18,1.27,3.56-.24,4.41.95.48.67.06,3.53.85,4.43.9,1.03,3.47-.24,4.48.89.8.9-.58,5.06,1.6,5.89,1.13.43,3.73-.48,3.63,1.32-.11,2.01,1.25,3.21,1.43,4.92l.73,6.79c1.52.21,3-.14,4.7.49l-.1,71.12c-2.07.58-3.77-.2-5.67.55-.32,2.82.11,5.44-.49,8.04-1.22.49-3.14-.42-4.07.76-.49.8-1.1,2.24-1.22,3.37l-.56,5.23c-1.3.41-3.61-.03-4.3,1.17-.59,1.03.68,3.34-.53,4.11-1.28.81-3.87-.34-4.82,1.23-.71,1.18.37,2.9-.6,3.98-1.33-.04-2.45-.07-3.33.44Z"/>
              <path class="cls-43" d="M312.69,310.08c1.17,1.05-.49,7.7-.41,6.97-.92,9.03.37,9.28.41,18.06-1.35.55-3.06.7-4.61,1.66-.24,1.66.34,3.35-.39,4.73-1.78-.04-4.04-.74-4.75.72s.09,3.42-.29,5.05c-2.16.89-4.15-1.04-5.23,1.08-.09.18.83.64.64.75-1.35.74-1.55,1.68-.72,2.54.5.52-.69,2.41.75,2.43,0,.64.07,1.46-.31,1.89-.85.95-3.69-.1-4.02,1.09-.09.32-.29.61-.23.96-3.77,1.63-8.1.27-12.15.81-.04-1.72-.87-4.13-2.07-5.56-.52-.61-2.21-.12-1.86-1.32,1.44-2.3,4-.41,5.37-2.29.52-.71.64-1.22.41-2.21l4.61-1.1c-.36-1.72-.03-2.99.36-3.92s2.47-.49,2.87-1.22c1.17-2.14.22-4.67,1.28-7.02,2.35.37,3.39-1.24,4.45-2.64,3.65-4.8,4.68-1.09,4.52-4.92l4.68-.49,1.1-10.62c.12-1.13,2.51-1.81,1.61-3.31-.23-.38.25-.97.1-1.36.83-1.51,2.42-1.14,3.89-.77Z"/>
              <path class="cls-41" d="M232.46,257c.53-.09.56.52.71.88.51,1.25.11,2.7.58,4.38,3.36.84,6.61.22,9.75.1-.03.31,0,.48.08.77.36,1.23-.78,3.63.74,4.57,1.19.74,3.47-.55,4.33.76s.53,3.04,1.24,4.41c2.07-.53,3.39.03,4.42.94.97.85.66,2.02.44,3.96l9.47,2.56c2.14,3.53.52,4.6,1.32,8-.75,1.31-.42,3.03-.67,4.5-1-.54-3.71,1.2-4.57-.53-.4-.82-.23-1.88-.73-2.45-.98-1.12-3.36-.24-4.88-.97-.62-.3-.29-2.01-.57-2.94-3.13-1.16-6.76-.83-10.02-1.51l-.57-4.45c-1.62-.44-3.25.15-4.84-.79.02-1.8.25-4.17-1.23-4.54l-2.5-.61c-1.03-.25-.34-1.87-.85-3.17-1.18-3-7.24-2.36-6.89-7.33-.94-.44-2.61-.63-3.17-1.3-.93-1.1-.28-2.6-.36-3.84-.37-.67-.49-.87-.19-1.37-3.12.7,12.04.82,8.97,0Z"/>
              <path class="cls-24" d="M318.68,289.55c-.41,1.36-.12,2.98.06,4.9,1.87-.15,3.46-.46,5.11-.82-.51,1.98-1.04,4.54.85,5.74-.44.26-.96.43-1.46.31-2.9-.67-5.99-.19-9.12-.06l-.62,4.67-10.61.35c-.09-1.76.81-3.72-.26-5.33,2.69-2.89.14-5.03,2.41-6.2,1.04-.53,1.75.25,2.8.24,11.19-.09,1.67-5.36,10.84-3.8Z"/>
              <path class="cls-59" d="M323.24,299.68c-.42,1.14.42,3.23-.26,4.21-1.34.87-3.74-.15-4.99.96-.96.86-.31,2.71-.74,4.07-.31.98-1.9,1.11-2.58,1.35-.6.22-1.38-.05-1.98-.2-1.47-.37-3.07-.75-3.89.77-.18-.36,0-.7-.14-.93-.36-.57-1.15-.61-1.99-.62l-8.06-.06c-.93-.43-.95-3.48-.25-4.12,1.32-.68,3.2-.44,4.54-.48l10.61-.35.62-4.67c3.13-.13,6.22-.6,9.12.06Z"/>
              <path class="cls-3" d="M200.26,222.35c-1.14-.28-1.47,1.37-2.2,1.08l-2.23-.9-.35-10.18c-1.97-.91-3.53.32-5.11.1-.06-1.39.44-3.17.49-4.69.09-2.73.03-5.44-1.05-8.01.36-.38.45-1.31,1.16-1.27.2.42-.21,1.4.67,1.55,1.07.18,3.12-.47,3.41.48.66,2.14-.18,4.26.22,6.4l4.72.63.26,14.79Z"/>
              <path class="cls-125" d="M266.23,279.12c-.64.06-1.46.71-2.01,1.2l-9.47-2.56c.22-1.93.53-3.11-.44-3.96-1.04-.91-2.35-1.47-4.42-.94-.71-1.37-.38-3.11-1.24-4.41s-3.15-.02-4.33-.76c-1.52-.94-.38-3.34-.74-4.57,1.54.77,3.87-.28,5.15,1.32.35.77-.26,2.39.49,3.21,1.38,1.51,4.05.33,4.78,1.32.59.79-.36,2.69.66,3.28,1.59.93,3.16-.74,5.13,2.5,1.21,1.05,3.51-.05,5.05,1.01.17,1.49-.07,3.24,1.4,3.37Z"/>
              <g>
                <path class="cls-30" d="M159.23,463.71l.09,14.58c-1.59-.31-.64-1.91-.51-3.61-3.99,1.55-7.41.87-10.92.96.12-.56-.59-.75-.57-1.26.93-4.33-3.72-34.75-4.64-37.1-1.51-3.86-1.45-9.32-1.6-14.17l-.45-14.01c5.96.63,12.2-.6,18.55-.23.11,7.15.12,14-.26,21.16-.6,11.3.25,22.78.32,33.67Z"/>
                <path class="cls-93" d="M147.32,474.38c-.02.52.69.71.57,1.26-.4,1.22-.37,2.7-1.19,4.13-2.22-.09-5.29-.63-6.29.93-1.33,2.05.73,3.36,1.13,4.39,2.38,6.12,5.62,3.7,3.79,6.42,1.13-.45,3.25-.14,3.32,1.3l.18,3.95c.16,3.48,1.13,6.87,2.26,10.65,2.53.47,7.54.22,10.09.04.71-.05,2.41-.21,3,.26,1.18.93.31,2.89.22,4.28l-15.63-.06c.18-3.08-.45-5.39-1.98-7.8-1.09-1.72.47-4.39-.95-5.83-.6-.62-3.1.39-3.22-.84-.1-1-.51-2.66-1.58-2.21-1.28,3.95-.42,8.03-1.27,12.36-.29,1.5-4.34,1.04-4.49-.11-.38-8.36-1.57-19.62.48-26.66,1.1-.93,3.33.31,4.23-.87.55-.72-.53-3.45,1.12-3.48s3.29.01,3.33-1.66l2.86-.46Z"/>
                <path class="cls-67" d="M159.32,478.29l1.25,20.5c-1.02-.38-.39.88-.68,1.66-2.23.8-4.26.15-6.53.36-.35-1.26.08-2.93-1.11-3.7-.93-.6-2.49-.02-3.43-.34l-.18-3.95c-.06-1.44-2.19-1.75-3.32-1.3,1.83-2.72-1.41-.31-3.79-6.42-.4-1.04-2.46-2.34-1.13-4.39,1.01-1.56,4.07-1.02,6.29-.93.82-1.44.79-2.91,1.19-4.13,3.51-.1,6.94.59,10.92-.96-.13,1.7-1.08,3.3.51,3.61Z"/>
                <path class="cls-136" d="M175.21,464.28c-.56-.15-1.32.93-1.3,1.44-.56.16-.98.54-1.4.09l-1.02-1.09c-.56-.6-1.21-1.04-1.68-.8-.52.27-.71.9-.73,1.64l-.19,7.13c-1.74.35-3.28.43-4.91-.02l-.16-14.89c0-.64-4.39.4-1.3-8.03,2.47.19,5.14-2.63,5.83-4.85.26-.46,2.26.03,2.58-.47.45-.69.4-1.19.39-1.96,1.81.73,7.78-.07,8.22,1.59.19.71.19,1.34-.39,1.99-.39.44-1.23.51-2.11.14l-2.27-.96c-.52-.22-.35,1.95-.21,2.73-1.35.78-1.29-.43-.98-1.6-.29,1.47-2.65.64-3.14,1.32-4.04,5.68,7.34,8.41,4.75,16.61Z"/>
                <path class="cls-74" d="M140.62,409.1l.45,14.01c.16,4.85.09,10.31,1.6,14.17.92,2.35,5.57,32.76,4.64,37.1l-2.86.46c-.8-9.93-1.9-22.09-3.48-32.33l-2.6-16.88c-.78-5.06-1.28-10.3-1.64-15.15.71-.5.96-1.69,1.57-1.63l2.32.25Z"/>
                <path class="cls-64" d="M179.87,472.3c-.25,1.95.4,5.21-.45,6.97-.51,1.05-3.19,3-1.59,4.07,1.29.87,2.96.39,3.2,2.23-.06.67.05,1.3-.29,2.33-1.61,0-3.68.52-4.98-.34.43-1.02-.9-2.28-.94-3.03l-.9-18.81c-.02-.51.74-1.59,1.3-1.44,1.43.39,2.8.72,4.53,1.43-.18,2.31.39,4.54.12,6.59Z"/>
                <path class="cls-19" d="M160.57,498.79l.61,8.67c-2.55.17-7.56.43-10.09-.04-1.14-3.79-2.11-7.17-2.26-10.65.94.33,2.49-.26,3.43.34,1.19.77.76,2.45,1.11,3.7,2.27-.21,4.3.44,6.53-.36.29-.77-.34-2.04.68-1.66Z"/>
                <path class="cls-22" d="M186.34,472.77c-.56,3.51.27,7.82-1.21,11.2-.87.04-2.03.01-2.96.13-.84.11-1.04.28-1.15,1.45-.24-1.84-1.91-1.36-3.2-2.23-1.6-1.07,1.08-3.01,1.59-4.07.85-1.75.19-5.02.45-6.97,2.13.85,4.47-.62,6.47.48Z"/>
              </g>
              <path class="cls-92" d="M223.75,248.42c-.29-.2-.79-.23-.94-1.35-1.19.24-2.28.2-3.32.09-1.48-.15-2.98-.38-4.48-.18-.68-1.09-.24-2.53-.6-3.93s-2.69-.47-3.51-1.1c-.98-.76-.16-2.33-.68-3.55-.42-.97-2.32-.14-3.41-.62-1.04-1.5-1.29-4.37-.55-6,.94-.09,3.48-.45,4.11.59.93,1.53-.17,3.46.52,4.9l4.38.79c.35,1.76-.29,3.32.32,4.95,3.05-1.48,9.54,3.48,8.15,5.43Z"/>
              <path class="cls-25" d="M223.75,248.42c.78.53,1.97.28,3.02.79,1.28.62.42,2.94,1.15,3.57,1.19,1.03,2.89.07,4.32.58.08,1.3.39,2.51.22,3.64,3.07.82-12.09.7-8.97,0v-5.14c-1.32-.36-2.38-.23-3.95-.05-.49-1.61-.29-3.19-.04-4.66,1.04.11,2.13.15,3.32-.09.15,1.12.64,1.15.94,1.35Z"/>
              <path class="cls-119" d="M280.91,363.25c.07-1.42.5-3.06.47-4.42,4.05-.55,8.38.82,12.15-.81-.04,1.51.16,3.18-.38,4.91l-12.24.32Z"/>
              <path class="cls-31" d="M314.66,310.27c-.73,2.13-.98,4.36-1.04,6.8l-.46,19.81c-1.74-.18-2.96-.39-3.81.14-2.03,1.28,1.18,4.64-2.29,5.6-.61-.6-1.67-.81-2.66-.52-2.11.62-.26,5.07-1.37,5.72-.6.35-1.94.41-3.03.8-2.25.82-1.91,3.69-1.92,5.47-1.44-.02-.25-1.91-.75-2.43-.82-.86-.63-1.8.72-2.54.18-.11-.74-.57-.64-.75,1.09-2.13,3.07-.19,5.23-1.08.38-1.63-.41-3.6.29-5.05s2.97-.76,4.75-.72c.72-1.38.14-3.07.39-4.73,1.55-.97,3.26-1.11,4.61-1.66-.04-8.79-1.33-9.04-.41-18.06-.07.74,1.58-5.92.41-6.97.59.15,1.37.41,1.98.2Z"/>
              <path class="cls-27" d="M200.26,222.35c.23.58.05,1.71,1.06,2,1.09.31,3.76.15,4.21,1.35.75,1.99.22,3.96.18,5.54l-4.1-.03c-.54-1.09-.31-2.16-.48-3.56-1.61-.71-3.19-.27-4.71-.42-1.35-1.17-.53-3.13-.58-4.69l2.23.9c.72.29,1.06-1.36,2.2-1.08Z"/>
              <path class="cls-134" d="M243.5,262.36c-3.15.12-6.4.75-9.75-.1-.47-1.68-.07-3.13-.58-4.38l10.24.55c.34,1.49.21,2.8.09,3.93Z"/>
              <path class="cls-70" d="M229.75,274.25c6.39,2.75,2.94,4.06,4.58,4.95.76.41,1.69.28,2.7.58,1.78.52,1.65,2.85,1.84,4.72,8.52,2.48,3.34,3.55,5.71,4.43,2.18.8,3.4-.44,4.34.89.42.6.14,1.47.29,2.15.24,1.08.77,1.34,1.37,1.26,6.09-.74.97,1.83,7.72,1.37,1.64-.11,1.52,2.78,1.2,4.84l35.22.15c1.35,0,2.28-.29,2.56-1.25,1.76.07,3.67.49,5.36.98,1.07,1.61.17,3.57.26,5.33-1.34.04-3.23-.2-4.54.48-.7.64-.68,3.69.25,4.12l8.06.06c.84,0,1.63.05,1.99.62.14.23-.04.57.14.93.15.39-.33.98-.1,1.36-.22.48-1.74-.43-2.05-.12-5.13,5.07-5.28,1.73-11.24,9.33-3.93-.94-14.32.06-14.97-2.29.33-2.11-1.57-3.2-3.86-2.69-.14-1.96-1.82-1.19-2.93-1.79-2.56-1.37-4.32-3.21-6.36-4.78-2.08-.18-4.07-1.29-4.63-3.65-1.93.17-2.01-1.84-2.98-2.61-.85-.67-2.05.06-2.79-.33-.64-.33-.35-1.61-1.1-1.98l-6.42-3.12c.26-1.53-.03-4.04-1.69-4.17l-9-.73c-.23-1.66.61-3.11-.21-4.45-1.67-.09-3.66.62-4.75-.65-1.01-1.18-.07-2.99-1.3-4.16-1.24.05-3.43.78-3.82-.59-.43-1.49-.54-3.24-.49-4.62-.01.42.32-4.18.61-4.39.26-.19.75-.1,1.06-.16Z"/>
              <path class="cls-60" d="M270.88,343.93c-1.59,3.7.29,8.42-1.56,9.26-1.3.58-2.69.15-4.05.65-.49,1.84-.77,3.73-.44,5.43-.51-.11-.6.53-1.29.56l-8.71.43c.14,1.82-.34,3.37-.59,4.88l-9.42-.05-.92,5.38c-2.16.56-4.23-.25-5.46,1.62s-7.59-.35-9.12.55c-1.73,1.02.59,3.05-1.7,4.52-3.06.26-6.1.4-9.15.04.79-1.83.55-3.99.01-5.76,1.55-.55,1.59-2.81,1.13-5.2l12.07-.98c1.28-.1.07-3.52.84-4.23,1.43-1.3,3.77-.62,5.83-.98.82-3.06-.28-6.37,1.03-9.15.86-1.61,4.03-1.88,5.58-2.84.3-1.07-.18-4.23,1.16-4.67l9.44-.44c5.3-.25,10.56.08,15.31,1Z"/>
              <path class="cls-83" d="M301.31,326.63c.16,3.83-.87.13-4.52,4.92-1.06,1.4-2.1,3.01-4.45,2.64-1.07,2.35-.11,4.88-1.28,7.02-.4.73-2.48.3-2.87,1.22s-.72,2.2-.36,3.92l-4.61,1.1c.23.99.11,1.51-.41,2.21-1.37,1.88-3.94,0-5.37,2.29-.44.71-1,1.33-1.31,2.7-.39,1.69-3.23-.17-5.61,1.42-.94.62-.22,2.39-.7,2.93-1.38,1.56-3.49.58-4.99.26-.33-1.7-.05-3.6.44-5.43,1.36-.49,2.76-.06,4.05-.65,1.85-.83-.03-5.56,1.56-9.26,2.34-.33.89-5.14,2.51-5.66,3.48-1.12,1.22-3.38,2.76-4.63,1.31-1.06,5.86.94,6.1-2.16.12-1.59-.34-2.83.22-4.49,6.54.17,12.82.28,18.84-.35Z"/>
              <path class="cls-16" d="M195.83,222.53c.05,1.56-.76,3.51.58,4.69-.25.56-.47,1.15-.27,1.6.78,1.79,3.28.47,3.54,1.44,1.27,4.73-.87,5.15,1.31,9.74,1.54,3.24-.02,7.74.48,11.54-.05.54-2.24.15-2.03-.39.38-1.02.77-1.99-.71-2.18.43-4.56-6.34-.83-5.53-4.56.4-1.84-1.08-13.14-1.86-16.35-1.19-4.91-.76-10.49-.99-15.6,1.58.21,3.15-1.02,5.11-.1l.35,10.18Z"/>
              <path class="cls-45" d="M215.01,246.98c1.5-.2,3,.03,4.48.18-.25,1.48-.45,3.05.04,4.66,1.57-.18,2.64-.31,3.95.05v5.14c-.29.5-.17.7.19,1.37-.55-.33-4.99-.9-5.33-.27-.1.19-.2,4.1.38,5.24s1.39,1.27,3.19.82c.91.97.38,2.87,1.67,3.5.93.45,1.95.19,2.41.66.65.65.1,1.9.6,2.48,1.09,1.27,2.33,2.13,3.16,3.44-.31.06-.8-.04-1.06.16-.29.22-.63,4.82-.61,4.39-1.05-.55-2.36,0-3.81-.33-2.4-.53-.44-4.74-1.78-5.47-1.21-.66-3.41.83-4.09-.5-.43-.85.58-3.28-.73-4.59-.81-.81-2.29.33-3.32-.06-2.08-.78-.55-3.67-.94-4.79-2.56-7.4,1.41-4.21.58-13.47-.06-.64-.62-1.52-.29-2.08.2-.36.79-.37,1.32-.53Z"/>
              <path class="cls-113" d="M185.74,326.72c-1.59.84-3.14-.98-4.62.04-.46-2.21-.83-9.16-.14-11.16l2.8,1.21c.42.18-.04,1.56.12,2.22.1.42,1.24.24,1.71.61.4,2.52.24,4.84.12,7.08Z"/>
              <path class="cls-101" d="M190.86,207.76c-.05,1.52-.56,3.3-.49,4.69-1.06-.14-2.66.21-3.74-.32-1.46-.72-.78-2.94-.29-4.08,1.5-.14,2.99-.68,4.52-.29Z"/>
              <g>
                <path class="cls-38" d="M186.34,208.06c-.49,1.14-1.17,3.36.29,4.08,1.08.53,2.68.18,3.74.32.23,5.11-.2,10.7.99,15.6.78,3.21,2.26,14.51,1.86,16.35-.81,3.73,5.96,0,5.53,4.56,1.48.2,1.09,1.16.71,2.18-.2.54,1.98.93,2.03.39-.5-3.81,1.06-8.3-.48-11.54-2.19-4.6-.04-5.01-1.31-9.74-.26-.97-2.77.35-3.54-1.44-.19-.45.02-1.04.27-1.6,1.52.15,3.1-.29,4.71.42.18,1.41-.05,2.48.48,3.56l4.1.03c.25,0,.41.35.55.54-.74,1.63-.48,4.5.55,6,1.09.48,3-.36,3.41.62.52,1.22-.31,2.79.68,3.55.82.63,3.14-.35,3.51,1.1s-.09,2.85.6,3.93c-.53.17-1.11.17-1.32.53-.32.57.23,1.44.29,2.08.83,9.26-3.14,6.06-.58,13.47.39,1.12-1.13,4.01.94,4.79,1.03.39,2.51-.76,3.32.06,1.31,1.31.29,3.74.73,4.59.67,1.33,2.88-.16,4.09.5,1.34.73-.62,4.94,1.78,5.47,1.45.32,2.76-.22,3.81.33-.04,1.38.06,3.13.49,4.62.4,1.37,2.58.65,3.82.59,1.23,1.18.29,2.98,1.3,4.16,1.09,1.27,3.08.56,4.75.65.83,1.35-.02,2.79.21,4.45l9,.73c1.67.14,1.95,2.64,1.69,4.17l6.42,3.12c.76.37.47,1.65,1.1,1.98.75.38,1.95-.34,2.79.33.97.77,1.05,2.78,2.98,2.61.56,2.37,2.55,3.48,4.63,3.65,2.04,1.57,3.8,3.4,6.36,4.78,1.12.6,2.8-.17,2.93,1.79,2.29-.51,4.19.58,3.86,2.69.65,2.35,11.03,1.35,14.97,2.29,5.96-7.6,6.11-4.26,11.24-9.33.31-.31,1.83.6,2.05.12.9,1.5-1.49,2.18-1.61,3.31l-1.1,10.62-4.68.49c-6.02.63-12.3.52-18.84.35-.56,1.67-.1,2.91-.22,4.49-.24,3.1-4.79,1.1-6.1,2.16-1.54,1.25.72,3.52-2.76,4.63-1.62.52-.17,5.34-2.51,5.66-4.74-.92-10.01-1.24-15.31-1l-9.44.44c-1.34.44-.85,3.6-1.16,4.67-1.55.96-4.72,1.23-5.58,2.84-1.31,2.78-.21,6.09-1.03,9.15-2.06.36-4.4-.33-5.83.98-.77.71.44,4.12-.84,4.23l-12.07.98c.46,2.39.42,4.65-1.13,5.2-.75-.8-2.38-.13-3.67-.75-.99-.59-.68-3.95.2-4.87.98-1.03,2.59-.32,2.6-2.14.01-2.07-.35-2.36-2.2-3.41-.79-.45-1.49-2.19-3.06-1.94-.59-2.88-.57-6.37-.32-9.6.01-.16,2.55-10.75,1.09-10.83-3.33-.73-7.01-.09-10.77-.46-.99-1.36-.1-3.17-.93-4.55-.36-.6-2.28-.19-2.38-1.36-.35-4.09.24-9.62-3.43-9.89l-.87-15.96c-.05-.93-.85-1.5-1.37-1.63-2.46-.6-2.3,3.46-2.85,2.11-.81-1.93-.82-4.29-1.01-6.45-.14-.89-3.38-.99-3.48-.08-.23,2.66-.33,5.84.5,8.66.41,1.38,3.41.54,4.26,0l.19,44.54c-1.23.28-3.14-.08-4.08-.88-2.47-2.11-.2-15.97-1.68-17.83,1.59-2.08.37-4.93.51-7.36.12-2.24.27-4.56-.12-7.08-.47-.37-1.61-.19-1.71-.61-.16-.66.3-2.04-.12-2.22l-2.8-1.21c-.43-.89-.08-1.73-.87-2.21-1.68-1.01-4.56-.3-4.47-.41-.66.79-.46,13.42-.54,13.18-4.46.77-4.92-.67-5.83,1.87-.26.73.21,2.2-.68,2.84-1.06.76-2.48.25-4.08.68-.06,3.7-.66,7.25-.06,10.64-.94-.06-1.67,2.09-2.43,2.39-1.15.47-3.21-.35-3.25,1.35-.12,4.62.76,8.9.33,13.45-.16,1.7-.77,3.03-.55,4.6-.07.08-.6.07-.6-.24l-.09-11.88c-.19-.89-2.91-.81-3.37.1-1.15,2.29-.04,4.84-1.2,6.75-.93.47-2.4.26-2.78.83-.45.67-.2,3.31-.77,3.87-2.75,1.74-7.18,1.25-10.48.55-1.35-2.21.23-1.95-1.29-4.24-.44-.67-1.37.17-1.78-.06l-2.96-1.69c-1.24-.71-2.61-.97-4.04-1.21l-1.27-4.65c-4.2,1.52-9.81-1.28-11.02.65-1.42-.62-3.17.09-4.95-.27s-1.33-2.95-1.46-4.41c-1.12-.6-2.7-.59-3.76-.64-.3-1.44.05-2.96-.74-4.68h-31.02c-.77-2.1-.36-3.85-.27-5.85-1.58-.35-2.84-.22-4.61-.21.07,1.66-.93,3.17-.24,5.1-.71.62-1.68.46-2.98,1.11.1,1.53-1.16,5.35.21,5.48l6.24.6c.92.09.74,3.2.7,4.34-.04,1.27-.29,3-.25,4.57l.19,6.77c-6.75.84-3.5-1.6-9.7-.15-1.35-.6-3.21-.94-5.14-.35.26,3.41-.84,6.26-.89,9.13-.93.19-.52-.56-.38-1.65-1.4-1.01-3.04-.24-4.4-.4-2.24-.25-2.97-2.39-2.88-4.36.08-1.65-2.94-1.02-3.37-1.88-.45-.92-.46-2.73-1.26-3.7-1.88-2.28-4.34-.25-5.07-1.56-.52-.92.18-2.54-.43-3.67-.9-1.64-2.94-.1-4.33-1.69-.53-.61-.57-1.47-.5-2.35.17-2.18-2.13-1.96-3.3-2.91-1.7-1.39-.93-5.92-6.44-5.86-.92-3.57.48-7.08-.17-10.49,1.56.7,1.77-5.09,1.9-6.01,1.42-.13,2.98.31,4.75-.07,1.19-.26,1.11-1.7,1.18-2.46.29-3.15.9-6.3.78-9.47.48-.23,1.47-.55,1.9-.18,3.83,3.32.73-.01,3.01,1.62-.03-.02-.14,12.71-.71,13.64-1.12,1.26-4.25,4.87-1.48,6.25s7.7.44,10.99.29c1.07-.05,1.8-1.65,3.63-1.24s4.58.46,6.2.05c.33-.38.07-1.5.38-1.93.07-.1,20.46-1,21.92-1-.9.9-1.87,3.17-.49,4.18,1.11.8,2.69-.51,4.13-.02.72.24.88-1.31.78-1.99-.11-.8-.65-1.81-1.69-1.8.3-2.34,2.69-.88,7.96-1.58,1.92-.25,2.33-2.45,2.43-4.32,2.2-.57,4.2-.62,6.39-.95.59-1.6.35-2.95.38-4.26.34-1.52,2.89-1.78,3.34-3.3,1.96-6.64,1.93,1.4,5.03-8.23,2.51-.45,3.49-1.35,4.44-4.15.57-1.69,3.6-2.74,2.67-5.92l4.42-.56.45-4.72,4.24-.45c.73-1.71.06-3.36,1.08-4.97,2.01.28,3.62-.38,3.52-2.32-.05-.94.04-1.96.68-2.3.36-.19,1.25-.06,1.64-.51,1.11-1.28-.03-3.74,1.57-4.65,1.09-.35,2.54.4,3.37-.26-.3.24,1.5-6.11,1.57-7.09,3-1.69,5.23-4.53,3.94-8.83l5.86-1c2.34-19.71,4.36-2.95,5.86-15.36l3.69-.59,1.06-10.54c.37-3.7-.02-7.27.38-10.89l5.26-.82.4-11.27c1.86,0,3.4,0,5.15.42l.32,26.52-.45,6.9c-1.97.33-3.07.13-4.54.87l-.42,26.06v30.62c-.01,2.29-.35,4.32-.63,6.66-1.22-.51-4.15-.57-4.36.76-.94,5.73.32,9.37-.17,14.06.65,1.56,4.47,1.75,5.98.5s.81-4.04,1.16-5.78c1.14-.45,2.53-.19,3.25-.74,2.27-3.69.94-7.43,1.07-11.53.47-15.35,1.24-30.74.59-45.88,1.42-.42,2.76-.18,3.1-.86.3-.59.45-1.47.45-2.37l.13-30.38,5.72-.37-.02-14.43c0-1.42-.76-2.45-1.69-2.55.72-3.09,3.18-2.83,7.19-3.21Z"/>
                <path class="cls-131" d="M190.54,306.13c.22.52.26,1.53.27,2.12-.85.53-3.85,1.38-4.26,0-.83-2.82-.74-6-.5-8.66.1-.9,3.34-.8,3.48.08.2,2.17.21,4.53,1.01,6.45Z"/>
                <path class="cls-79" d="M62.99,352.81c-.93.88-2.54.27-4.14.57-.4-1.7-.23-3.01-.25-4.69,1.22-.1,2.92-.62,4.29.04.91.45.81,3.38.1,4.08Z"/>
                <path class="cls-20" d="M82.9,332.63c1.04,0,1.58,1.01,1.69,1.8.09.68-.06,2.23-.78,1.99-1.44-.49-3.02.82-4.13.02-1.39-1.01-.42-3.28.49-4.18.69,0,1.95.86,2.74.37Z"/>
              </g>
              <path class="cls-106" d="M215.56,378.53c-1.05,1.07-.56,2.46-1.07,3.86-.33.91-2.4,1.57-3.32,1.57-1.39.01-3.91-1.04-5.22.13-.53.47-.05,2.11-.33,2.77-1.07,2.57-4.46.01-6.4,2.16-1.08,1.2-2.04,2.01-1.57,4.1-1.9.25-3.78-.31-5.35.68-1.07.67-.79,2.84-1.33,4.1-3.08.74-7.29,1.43-9.79-.15.07-1.45,0-3.01.45-4.6,1.72-.18,3.45.05,4.54-.91.44-1.1.37-3.08.35-4.32,1.56-.12,3.07-.04,4.5-.79,1.5,1.24,4.07.69,6.03.02-.58-5.91-1.83-11.75.05-17.07.7.38,1.34-.1,1.94.38.99.8,1.2,5.48,1.03,8.63,3.97.39,8.07.97,11.86.28,1.04-.19,2.57-3.06,3.62-.85Z"/>
              <path class="cls-108" d="M254.25,365.13c-.22,1.31,1.35,4.68-.65,4.87l-9.13.88c-.36.03-.31,1.34-.45,1.68-.26.63-1.06,0-1.71.35-1.37.71-1.36,2.85-1.58,4.1-4,1.16-8,.76-11.9,1.01-.44-.24-.72-.7-1.19-.87,2.29-1.46-.04-3.5,1.7-4.52,1.53-.9,7.88,1.34,9.12-.55s3.3-1.06,5.46-1.62l.92-5.38,9.42.05Z"/>
              <path class="cls-49" d="M218.49,377.18c3.04.37,6.09.22,9.15-.04.47.18.75.64,1.19.87-1.99.08-.21,3.12-1.47,4.24-.15.13-8.51-.52-9.87.02-.23.84.2,1.61.23,2.07,0,0-3.12,3.61-3.05,3.59-1.07.23-1.89-.07-2.86-.35-.83-.24-2.09,1.09-2.84-.2,1.25-.35,2.58.27,2.84-1.1.12-.65-.1-1.66-.64-2.32.92,0,2.99-.67,3.32-1.57.5-1.4.01-2.79,1.07-3.86.85-.73,1.73-1.49,2.93-1.35Z"/>
              <path class="cls-61" d="M175.84,398.51c-.53.3-.78,1.13-.59,2.01.36,1.64-.29,3.07-2.08,3.13l-8.5.28c-1.52.05-3.15-.56-4.74-.47-.01-.92-.34-1.3-.74-1.01.07-1.25-.2-2.37.34-4.01l7.72-.14,8.59.21Z"/>
              <path class="cls-95" d="M312.7,166.75c1.71.43-.08,2.1,2.2,2.78-.1,1.06-1.45,2.6.03,3.45,1.09.63,2.66.58,3.76.95.59.77.84,1.85,1.23,2.77.18.41-.49.66-.42.92.32,1.29,2.23.52,3.87,1.78,1.27.83,1,2.69,1.79,3.97.57.93,2.38.18,3.19.69,1.41.88.84,2.6,1.03,3.73.27,1.64-.61,3.93.6,5.54.78,1.04,3.06.09,4.06,0,.26,1.18.58,2.56.33,3.88-.38,1.94.39,3.91.19,5.85-1.55.15-4.49,1.28-4.58,3.4-.36,7.96,1.04,22.47.26,26.55-.32,1.7.33,2.79.32,3.97l-.07,20.85,4.48.83c.07,3.48-.82,6.59-.92,9.73-1.31.19-2.6.76-4.02,1.29-.38,2.26-.16,4.29-1.27,5.95-1.69.22-6.52-.41-7.61.71s-2.03,11.86-2.44,13.2c-9.17-1.56.35,3.71-10.84,3.8-1.04,0-1.75-.77-2.8-.24-2.27,1.16.27,3.3-2.41,6.2-1.69-.49-3.6-.91-5.36-.98-.13-.83-.03-1.72-.6-2.68-11.01-.77-14.48-.47-25.86-1.93-2.13-.27-4.45.41-5.96-.89.26-1.46-.07-3.19.67-4.5,3.31.58,6.7-.2,10.01-.04,2.59.12,4.79.41,7.15-.7,1.67-.79,3.5-2.16,5.43-2.86,2.26-.81,4.23-.18,6.03-2.07,2.4-2.52,3.07-11.31,2.67-11.67-1.56-1.37-4.84.11-5.02-1.53-.48-4.28-.17-8.56.51-12.89,1.37-.35,5.3-.11,5.38,1.25l.68,10.94c.07,1.12,2.03.45,2.71.08.84-.45.79-2.02,1.02-3.18l.75-3.86c6.03-.86,5,1.32,10.81.2.73-3.47.3-6.61.43-10.26,1.31-.33,4.28.47,4.59-1.25s.82-6.85,1.27-7.08c.5-.25,1.3.1,2.43.85,1.81-2.25.29-8.36,1.64-9.33.35-.26,1.39-.22,1.6-.63,1.14-2.22-.33-4.81-.28-6.62l.38-12.06c.12-3.78.22-7.83-.64-11.78-.22-1-2.82-1.76-2.01-3.69-1.71-.76-3.08-.17-4.37-1.35.19-3.61-.48-6.77-1.77-9.57-1.62-.08-2.45-.33-3.44-.21-.16-1.46.42-4.7-1.5-4.91l-3.95-.44c-.41-2.69-.76-5.29-.98-7.89-.38-4.39-6.18-6.44-3.59-18.38,1.4.56,3.14.06,4.62,1.02-.02,3.33-.06,5.93.71,8.78l3.88-.44Z"/>
              <path class="cls-114" d="M325.36,227.67c-.06,1.81,1.42,4.4.28,6.62-.21.41-1.24.37-1.6.63-1.35.98.17,7.08-1.64,9.33-1.14-.74-1.93-1.1-2.43-.85-.46.23-.96,5.3-1.27,7.08s-3.28.92-4.59,1.25c-.13,3.65.3,6.79-.43,10.26-5.81,1.13-4.77-1.05-10.81-.2l-.75,3.86c-.22,1.15-.18,2.72-1.02,3.18-.68.37-2.64,1.04-2.71-.08l-.68-10.94c-.08-1.36-4.02-1.6-5.38-1.25-.68,4.33-.99,8.61-.51,12.89.18,1.64,3.45.16,5.02,1.53.41.36-.27,9.15-2.67,11.67-1.8,1.89-3.77,1.26-6.03,2.07-1.93.69-3.76,2.07-5.43,2.86-.31-.78-.48-1.74-.53-2.44-.1-1.3,1.89-.78,2.52-1.21,3.45-2.36,2.53-6.5,2.66-9.63.11-2.57.07-4.65.05-6.71-.03-2.25,2.05-12.62,2.8-14.34,1.78-4.09,3.42-7.82,2.81-12.17.92.58,2.01.6,2.87.06.73-.46.54-1.67,1.21-2.47s2.36.26,2.5-1.25c.05-.56.86-1.24.34-2.23-1.01-1.9,4.33-2.21,3.78-4.47-.3-1.24-.39-2.07.4-2.66s1.65-.45,2.63-.57c2.04-.23.89-2.52,1.2-3.43.38-1.15,2.75-1.49,3.54-.47.95,1.22,1.21,2.6,1.71,3.65,3.9.67,8.4.82,12.18.41Z"/>
              <path class="cls-52" d="M314.2,144.89l-.55-1.27c-1.36-.56-2.9-1.03-4.39-1.17l-1.62,8.59c-.89.87-3.47,1.14-2.98,3.77.15.82-1.02,1.88-1.17,2.59-2.6,11.94,3.21,13.99,3.59,18.38.22,2.61.57,5.21.98,7.89l3.95.44c1.92.21,1.33,3.45,1.5,4.91-3.35.41-6.88.08-10.43-.65-.03-1.95.44-3.83-.62-4.77l-5.03-.53c.06-5.67-.13-11.32.27-16.78.15-2.12,1.08-4.47-.1-6.5-.73-1.26.64-2.8-.72-4.43-.68,4.61.58,12.96-.28,17.51-1.04-.24-2.13-.31-3.15-.74l.12-18.3,3.66-.1c.73-2.37.02-5.17,1.01-7.26.51-.44,2.16-.05,2.46-.86.24-.63.3-1.34.21-2.22-.2-1.89,2.74-1.07,3.13-1.85.93-1.86,1.52-3.3,3.67-3.78,1.38-.62,1.13-3.42,2.43-3.88.73-.25,1.66.02,2.29-.37.75-.46.52-1.07.8-2.03.82-2.81,6.4.94,8.83-4.08,1.67-.15,4.74-.37,6.02.38,1.12.66.85,3.87-.53,3.81-1.04-.04-1.68-.06-2.21.14-.61.23-.44.91-.63,1.69-.41,1.66-3.04,1.01-4.07,1.47-3.32,6.21-1.12,6.7-6.42,10Z"/>
              <path class="cls-120" d="M340.02,202.63c-1.45,9.99-.51,28.45-.42,37.93,0,.29,0,1.32.34,1.35,2.12.23,2.69,3.04,3.45,4.61-3.89,12.33-4.8,9.64-3.9,23.84.01.17-.07.39-.14.55-1.61-.28-3.31-.21-4.93-.02-.04-.77-.43-1.68-.41-2.5.1-3.13.99-6.25.92-9.73l-4.48-.83.07-20.85c1.07-.58,2.27-.47,3.94-.98.17-2.19.51-4.37.47-6.56l-.32-16.94c-.06-3.31-.41-6.46-.09-9.45.2-1.95-.56-3.91-.19-5.85.95,2.24,3.74-.09,4.69,1.26.73,1.04-.29,3.49.99,4.16Z"/>
              <path class="cls-76" d="M339.6,240.56c-.1-9.48-1.03-27.94.42-37.93.97.41,2.8-.77,3.73.33.84.99.94,3.22.94,4.85l-.02,28.61c0,1.29.31,3.79-.94,4.38-1.39.66-3.05-.34-4.12-.24Z"/>
              <path class="cls-34" d="M314.2,144.89c-.53,1.95.29,4.24-.12,6.48-2.03,11.33.26,7.59-1.39,15.38l-3.88.44c-.77-2.85-.72-5.45-.71-8.78-1.48-.97-3.22-.46-4.62-1.02.15-.71,1.33-1.78,1.17-2.59-.49-2.63,2.09-2.9,2.98-3.77l1.62-8.59c1.49.15,3.02.61,4.39,1.17l.55,1.27Z"/>
              <path class="cls-21" d="M328.73,275.64c-.22,1.59.03,3.76.11,5.39.05.91.23,2.03-.27,2.82-.66,1.06-2.22.29-3.31.76-1.79.78-.94,3.29-.51,4.38-.91,1.33-.51,3.09-.9,4.63-1.65.35-3.24.67-5.11.82-.18-1.92-.46-3.54-.06-4.9s1.35-12.08,2.44-13.2,5.91-.49,7.61-.71Z"/>
              <path class="cls-50" d="M287.39,267.6c.02,2.06.06,4.14-.05,6.71-.13,3.13.79,7.27-2.66,9.63-.62.43-2.62-.09-2.52,1.21.05.7.22,1.66.53,2.44-2.36,1.11-4.56.83-7.15.7l.37-2.64c.27-1.9-.55-3.83.66-5.43.24-.32-.96-1.23-.45-1.66.45-.38.55-.31.69.07.28.73,6.05.68,7.11-2.51.21-.63-.17-1.43.35-1.89.33-.3,1.73.01,1.85-.46.55-2.09-1.11-7.3,1.26-6.18Z"/>
              <path class="cls-129" d="M339.5,270.36c-.9-14.2.01-11.51,3.9-23.84.67,1.39,1.28,2.06,1.17,4.58-.29,6.36.56,12.64-.41,19.03-1.37.59-3.22.85-4.66.23Z"/>
              <path class="cls-112" d="M334.01,268.4c-.02.82.37,1.73.41,2.5l-.48,9.26c-.23-.34-.39-.06-.65,0-1.5.36-3.07.19-4.46.87-.09-1.63-.34-3.8-.11-5.39,1.12-1.66.9-3.69,1.27-5.95,1.42-.54,2.7-1.11,4.02-1.29Z"/>
              <path class="cls-10" d="M339.36,270.91c-.51,1.1-.64,2.51-.72,4.02l-.31,5.78c-.07,1.38-.26,2.23-1,2.64-.78.43-2.44.55-3,.02-.61-.58-.43-2.36-.38-3.21l.48-9.26c1.62-.2,3.32-.27,4.93.02Z"/>
              <path class="cls-139" d="M333.3,280.16c-.47,1.24,2.11,7.79-1.89,8.18l-6.65.65c-.43-1.09-1.28-3.61.51-4.38,1.08-.47,2.65.3,3.31-.76.49-.79.31-1.92.27-2.82,1.39-.68,2.95-.51,4.46-.87Z"/>
              <path class="cls-37" d="M334.02,193.33c-1,.09-3.28,1.04-4.06,0-1.21-1.61-.33-3.9-.6-5.54,1.14.18,3.51-.96,4.35.3,1.04,1.59-.02,3.76.31,5.24Z"/>
              <path class="cls-40" d="M318.69,173.93c-1.1-.37-2.67-.32-3.76-.95-1.48-.85-.13-2.39-.03-3.45.93.5,2.68-.21,3.51.73.88,1,.03,2.81.28,3.66Z"/>
              <path class="cls-39" d="M323.36,179.4c-1.64-1.26-3.55-.49-3.87-1.78-.06-.26.6-.51.42-.92l2.59.26c.59.06,1.16.81,1.2,1.27.03.3-.79.79-.35,1.17Z"/>
              <path class="cls-103" d="M223.67,258.38c.08,1.24-.57,2.74.36,3.84.56.67,2.23.86,3.17,1.3-.34,4.98,5.71,4.34,6.89,7.33.51,1.3-.18,2.92.85,3.17l2.5.61c1.47.36,1.25,2.73,1.23,4.54,1.59.94,3.22.35,4.84.79l.57,4.45c3.27.68,6.89.35,10.02,1.51.28.92-.05,2.64.57,2.94,1.52.73,3.9-.15,4.88.97.5.57.33,1.63.73,2.45.85,1.74,3.57,0,4.57.53,1.51,1.3,3.82.62,5.96.89,11.38,1.46,14.85,1.16,25.86,1.93.57.96.47,1.85.6,2.68-.27.96-1.21,1.26-2.56,1.25l-35.22-.15c.32-2.06.43-4.95-1.2-4.84-6.75.46-1.63-2.11-7.72-1.37-.6.07-1.12-.18-1.37-1.26-.15-.68.13-1.55-.29-2.15-.94-1.33-2.16-.08-4.34-.89-2.37-.87,2.81-1.95-5.71-4.43-.19-1.87-.06-4.2-1.84-4.72-1.01-.3-1.94-.16-2.7-.58-1.64-.89,1.82-2.2-4.58-4.95-.82-1.31-2.07-2.17-3.16-3.44-.5-.58.05-1.83-.6-2.48-.46-.46-1.48-.21-2.41-.66-1.29-.62-.77-2.53-1.67-3.5-1.8.46-2.64.28-3.19-.82s-.48-5.05-.38-5.24c.34-.63,4.79-.06,5.33.27Z"/>
              <g>
                <path class="cls-15" d="M218.51,371.41c.53,1.77.78,3.93-.01,5.76-1.2-.14-2.08.61-2.93,1.35-1.05-2.2-2.59.66-3.62.85-3.79.69-7.89.11-11.86-.28.17-3.15-.04-7.83-1.03-8.63-.59-.48-1.23,0-1.94-.38-1.44-1.24-.05-3.34-.93-5.56-.43-1.11-3.32-.59-4.35-.53-1.27-1.64-.66-4.13-1.36-5.98l.52-5.23-.19-44.54c0-.6-.05-1.6-.27-2.12.55,1.35.4-2.71,2.85-2.11.52.13,1.32.7,1.37,1.63l.87,15.96c3.67.28,3.08,5.8,3.43,9.89.1,1.18,2.02.77,2.38,1.36.83,1.38-.06,3.19.93,4.55,3.76.37,7.44-.28,10.77.46,1.46.08-1.08,10.66-1.09,10.83-.25,3.23-.27,6.73.32,9.6,1.57-.25,2.27,1.49,3.06,1.94,1.85,1.05,2.22,1.34,2.2,3.41-.01,1.82-1.62,1.11-2.6,2.14-.88.92-1.19,4.29-.2,4.87,1.29.62,2.92-.05,3.67.75Z"/>
                <path class="cls-135" d="M202.87,348.16c-.82-1.36.41-3.1.2-4.69l3.1-.5c.38,1.33,1.22,3.34.41,4.91-.42.82-3.05,1.04-3.71.28Z"/>
              </g>
              <path class="cls-26" d="M334.53,203.06c-.31,2.99.03,6.13.09,9.45l.32,16.94c.04,2.19-.3,4.37-.47,6.56-1.67.51-2.87.4-3.94.98,0-1.18-.64-2.27-.32-3.97.77-4.08-.62-18.59-.26-26.55.1-2.12,3.03-3.25,4.58-3.4Z"/>
            </g>
            <g>
              <path class="cls-87" d="M179.65,35.95c-.6-2.75-3.41,15.49-2.43,15.52,1.03,2.37,4.7,3.8,4.68,4.55-.06,2.27-2.99,1.58-2.02,4.96-1.03.04-.75,1.52-.62,2.09-1.38.64-2.97.26-4.76.54-1,.16-.77,1.61-.59,2.29.36,1.29,2.59.05,3.51,2.36.11.28-1.94,5.76-2.25,5.36-.41-.08-1.03.13-.77.67-5.82.75-12.36.33-18.19-.74-.13-3.83-6.58-1.25-6.79-3.12l-.28-2.47c-.11-1-3.45-.09-4.18-.94-.26-.3-.41-.99-.79-1.38-.43-.43.33-2.32-.76-2.46-2.1-.27-3.97.25-5.68-.71l-.25-3.4c.21.18.73-.51.65-.75,3.63-.31,5.66.96,6-1.38l.85,1.27c.27.41,1.45.09,1.61-.53.58.46,1.24,1.17,1.98.74.31.63,1.2.99,1.79,1.26-.49.96,0,2.09,1.17,2.25.72.1,1.42-.32,2.21-.31.89.02.85-.45.85-1-.02-4.74,4.15-.62,11.26-2.56.16-2-1.29-2.8-.58-3.74.67-.75,2.79.48,3.37-.3,1.47-1.95.17-4.87.83-6.79s1.17-3.29.51-5c-.36-.92,1.76-2.73-.42-3.76-.52-.25-1.51-.68-1.17-1.26,1.34-.04,2.71.44,3.06-.49.21-.55.22-1.18-.07-1.65-.4-.64-.97.13-1.56-.18.29-.6.72-1.03.71-1.54-.01-.86-.95-1.13-1.22-1.85s0-1.75-.13-2.74c-.06-.48-.9-.17-1.39-.32-.2-1.19.78-.22,1.56-.29.82-2.49.19-5.02,1.29-6.84.99-.58,4.49-.59,4.71.55.25,1.8.72,2.89,1.94,4.39,2.43,3,2.01,7.09,2.37,9.65Z"/>
              <path class="cls-86" d="M165.98,103.5c-.4-.23-1.11-.07-.83.54-1.36-.37-4.42.72-4.5-.82l-.14-2.66c-.04-.73-1.69-.3-2.49-.7-1.52-.76-2.47-2.5-3.95-3.5-.32-4.16.71-7.9-.71-11.32-.24-2.06-3.26.1-4.1-1.22-.68-1.06-.49-1.97-.86-2.33-.61-.6-1.74-.35-2.5-.62-2.53-.87-4.14-3.07-6.53-4.27-1.88,1.6-1.29,3.73-1.58,5.66-1.17,7.77,1.29,11.82-2.56,11.42.42,1.36,1.8.44,2.46.75,1.08.51,1.88,1.41,2.61.72.35.98.25,2.58,1.03,3.59s2.38.11,3.25.75c.95.7-.1,2.44.8,3.26.41.37,1.7-.02,2.15.11.38.11.53.82.44,1.33-.64.19-.73-.63-1.08-.64-.59-.02-1.83-.29-1.72.55-.45-.46-1.86-.27-1.91-1.13l-.12-1.75c-.04-.62-1.27-.18-1.88-.61-4.35-3.12-9.24-4.55-14.97-3.13l-.02,4.03c-.38-.03-1.07.43-1.14,1.28l-.8,9.69,1.13,24.72c.04.82.88,1.64-.06,2.28-1,.04-4.21-.04-4.27-1.57l-.59-13.13c-.29-6.46-.8-12.81.17-19.22-.35,2.32,2.19-7.45,2.17-7.43.42-.6,1.47-.4,2.21-.72,1.33-.57,1.16-2.23,1.27-3.63,2.53-.85,5.01-.05,7.61-.53,1.3-6.15-.17-13.7,1.45-19.3,1.32.08,2.96-.26,4.5-.34.75-2.13,0-4.47.98-6.43.19-.37,1.62-.04,2.03-.03.82,0,1.09-.65,1.26-1.51.39.39.54,1.08.79,1.38.73.85,4.07-.06,4.18.94l.28,2.47c.21,1.87,6.66-.71,6.79,3.12,5.84,1.08,12.37,1.49,18.19.74.52-.04.93-.2.77-.67.3.4,2.36-5.08,2.25-5.36-.93-2.31-3.15-1.07-3.51-2.36-.19-.67-.41-2.13.59-2.29,1.79-.28,3.38.1,4.76-.54,1.08,4.63-1.01,9.2-4.7,12.68-.59.56-.07,1.97-.59,2.26-.68.38-1.28.44-2.12.45l-13.77.17v16.76c.9.42,2.48.18,2.75,1.03.17.54-.09,1.61.31,2.47.72,1.59,3.1.31,4.23,1.09s.39,2.63.62,3.51Z"/>
              <path class="cls-109" d="M129.45,140.05c.41,1.16-.33,2.56.29,3.83.35.71,1.67.56,2.18.33-.1.69,1.04.63,1.04,1.23-1.2,1.04-1.35,2.21-1.2,3,.22,1.21,1.59,1.42,2.32,2.12,1.6,1.53.62,4.35,2.06,6.17.78.99,3.84.45,4.11,2.6.17,1.43-.99,4.02.14,4.97-.37-.31,5.27,3.26,5.22,3.02.55,2.68-.58,4.51.9,5.67.57.45,2.18.13,2.94.8,1,1.26.03,3.16.49,4.96l5.93.68c.19,2.08,1.22,5.75-.32,5.96-.61.08-.66-.07-1.46-.8.64,1.62-.31,3.09-.17,5.08,4.38-.01,8.47-.16,12.55.18,1.61.13,3.24.8,4.71,1.38-.23.5.62,1.81-.25,2.43-1.35.97-3.22.16-4.57.94-.06,1.03.15,2.66-.6,3.31-.68.59-2.2.34-2.96.21-1.51-.26-4.24-.4-5.6.6-2.13,5.82-4.82-.78-9.99,2.89-1.44,1.02-3.52-.37-4.87.97.22,1.51,1.22,4.93-1.01,5.04-1.41.07-3.81-1.3-4.35.84-.36,1.41.38,3.57-.99,4.14-1.05.59-2.28-.19-3.58.21-.47,1.64.11,3.22-.66,4.72-.36.69-1.71.97-2.3.92-1.02-.09-3.09-.83-3.96,0-1.03.97.14,2.96-.49,3.88-2.68,3.96.91,5.34-2.3,6.32-.9-.42-3.28.85-3.52-.89l.11-9.43c2.02-.68,3.88.08,5.68-.83.12-1.08-.64-3.12.26-3.74,1.54-.96,3.62,0,5.36-.68.2-1.96-.21-3.66.29-5.57l5.43-.05c.11-8.15,1.12-2.29,1.33-7.27l7.57-.33c.89-1.4-.2-3.29.83-4.53.75-.81,2.38-.1,3.38-.65.28-4.88.33-9.66.08-14.9-1.14-.66-2.25-.16-3.61-.48-.6-2.16-.36-4.1-.37-6.32l-4.16-.68c-.72-1.76-.1-3.65-.67-5.77-.31-1.13-2.73-.35-3.2-.97l-1.12-5.86c-.87-.15-1.46.17-1.86-.03-.68-.35-.5-1.68-.86-1.96-.89-.7-2.21-.29-3.29-.83l-1.07-8.71c-.16-1.34-2.99-.41-3.55-1.09-.83-2.24-.36-5.04-.35-7.16,1.29-.53,2.81.19,4.06.15Z"/>
              <path class="cls-132" d="M126.27,101.49c-.02,4.27.43,8.64.95,13.57.23,1.4,3.33.39,4.29.87.6.31.4,1.87,1.1,2.05,3.27.83,5.23-1.01,5.76.73.28.91.2,1.59.53,2.09.49.74,1.27.74,2.36.71l7.68-.19c-.06,2.04.08,4.08.21,6.12.06,1.05-.23,2.33-.47,3.25-.22.82-2.13.21-2.46.99-2.17,5.16-.02,6.4-2.4,6.9-.8.17-1.61-.86-2.63-.34-.57.28-1.39,1.51-2.02,1.53l-9.72.28c-1.25.04-2.78-.68-4.06-.15,0-.15.04-.29.02-.44.94-.64.1-1.45.06-2.28l-1.13-24.72.8-9.69c.07-.86.76-1.32,1.14-1.28Z"/>
              <path class="cls-8" d="M189.07,150.71c.37.17.62.02,1.41.09-.25.33-.89.84-.49,1.39.19.27.49.75.97.54l.02,45.77c-.72-.04-.8.89-1.16,1.27-.74-.52-2.26.11-3.08-.83-1.02-1.16.29-3.4-.83-4.45,1.02-11.56.32-23.54.41-35.23.03-3.57-.6-5.03.1-8.21.9.04,1.78-.73,2.66-.33Z"/>
              <path class="cls-89" d="M190.95,152.72c-.47.21-.77-.27-.97-.54-.4-.55.24-1.05.49-1.39-.78-.07-1.04.08-1.41-.09.03-1.21,1.56-.45,1.7-1.05.25-1.08.15-1.97-.16-3,1.5-.34,3.77-1,4.23-2.76.92-3.5,1.07-7.13.85-10.54-.1-1.6.69-4.47-.77-5.69-1.08-.9-4.41.04-4.54-2.04-.08-1.31,0-2.41-.63-3.16-.51-.61-1.43-.33-1.97-.5-2.11-.68-4.39-1.01-6.64-1.24.03-.73.04-2.4-.26-3.1-.63-1.48-2.97-.34-4.08-.97-1.19-.68-.42-2.27-.87-3.15.42.15.76-.22.56-.62l4.31.24c.27,1.27-.06,2.42.43,3.47l9.4.6c-.03,1.83-.88,4.72.54,4.91l3.52.48c.82,1.23-.26,3.33.85,4.39,1.21,1.15,3.16.21,4.29,1.05.18,5.4.11,10.55-.93,15.43-5.73,1.8-2.06,4.39-4.23,7.58-.99.21-2.08.14-2.59.13-.92-.01-.96.82-1.1,1.56Z"/>
              <path class="cls-140" d="M179.65,35.95c.13.95.1,1.89.84,2.45.45.33.26,1.86.58,2.37.41.65-1.25.87-1.42,1.42-.85,2.68-1.53,5.91-.87,8.8.61,2.64,3.42,2.77,5.37,3.65.78.35.37,2.85-.4,3-3.8.72-2.24,6.43-3.88,3.34-.97-3.39,1.97-2.69,2.02-4.96.02-.74-3.64-2.18-4.68-4.55-.98-.03,1.84-18.27,2.43-15.52Z"/>
              <path class="cls-128" d="M176.48,112.89c.2.4-.14.77-.56.62-1.04-.95-2.48-.4-4.21-.81-1.3-.31-.29-2.89-1.02-3.7-1.05-1.18-2.95-.37-3.64-1.29-.74-.98-.51-2.56-1.01-3.43.97.27,3.2.02,4.29.67,1.23.73.1,2.92.84,3.63,1.09,1.05,3.38.09,4.06,1.46.56,1.14-.02,2.78,1.25,2.85Z"/>
              <path class="cls-72" d="M166.04,104.28l-.89-.24c-.28-.61.43-.77.83-.54.06.25.03.58.06.78Z"/>
              <path class="cls-137" d="M185.9,194.48c1.12,1.05-.19,3.29.83,4.45.82.94,2.34.31,3.08.83,1.08,2.56,1.14,5.28,1.05,8.01-1.54-.39-3.02.15-4.52.29-4.01.38-6.47.13-7.19,3.21-.64-.07-2.28.15-2.39-.62l-1.13-8.05-3.84-.31c-1.01-.67-.41-1.78.74-.61,1.66-.82,4.25.02,4.67-2.09.13-.67-.52-.97-1.48-1.64-1.19-.84-.38-2.5-.71-3.49.64-1.6,9.23-.02,10.89.02Z"/>
              <path class="cls-102" d="M164.45,42.53c-2.48,3.5-7.06-.68-5.37,4.4.87,2.62,6.01-1.42,5.04,3.39-.39,1.92.16,2.91,1.14,4.03-.71.94.74,1.73.58,3.74-7.11,1.94-11.28-2.17-11.26,2.56,0,.55.04,1.01-.85,1-.52-.45.02-1.14-.04-2.08-.07-1.09-1.28-1.04-2.11-.96-.54.05-.98.46-1.22,1.1-.6-.27-1.48-.64-1.79-1.26l1.2-.41c1.87-.64-.38-9.55.37-13.89,1.52-.12,2.56-.98,3.26-2.26.89-.8,2.85-.49,3.84-.73.14.39-.06,1.25.24,1.65,1.67.47,4.11.73,5.1-1.07.27-.48-.28-1.43.37-2.01.28-.25.15-.66.94-.56.29,1.24-.91,2.67.56,3.37Z"/>
              <path class="cls-14" d="M146.59,57.7c-.16.61-1.34.93-1.61.53l-.85-1.27c.17-1.21.74-4.2-1.62-4.41-.45-.04-.66.86-1,1.09-.53.36-1.5-.08-1.66-.69-.13-.5-.21-.78.27-1.87-.6-1.29-1.83-1.76-2.77-.88-1.84,1.71,1.63,6.63.78,8.14.08.24-.44.93-.65.75-1.11-.98-2.52-.14-4.23-.72.09-4.2-.39-7.86.39-11.82,10.11-2,5.74,2.47,8.95,1.61,2-.54-.13,3.95,3.38,5.07.79,1.25.49,3.2.61,4.48Z"/>
              <path class="cls-102" d="M168.38,37.25c-.34.57.64,1.01,1.17,1.26,2.19,1.03.07,2.84.42,3.76-.23-.08-.46-.09-.69-.04-.05-.64.28-2.14-.46-2.71-1.55-1.21-3.46-.16-4.93-.36-.12-.51-.43-1.15-.11-1.76l4.6-.15Z"/>
              <path class="cls-84" d="M144.14,56.96c-.34,2.33-2.37,1.07-6,1.38.86-1.51-2.62-6.43-.78-8.14.95-.88,2.18-.41,2.77.88-.48,1.09-.4,1.37-.27,1.87.16.62,1.13,1.05,1.66.69.34-.23.55-1.14,1-1.09,2.36.22,1.79,3.21,1.62,4.41Z"/>
              <path class="cls-110" d="M153.74,61.65c-.78-.02-1.49.41-2.21.31-1.16-.16-1.66-1.28-1.17-2.25.24-.64.68-1.05,1.22-1.1.83-.08,2.05-.13,2.11.96.06.94-.48,1.63.04,2.08Z"/>
              <path class="cls-97" d="M153.36,85.04c1.41,3.42.39,7.17.71,11.32,1.48.99,2.43,2.74,3.95,3.5.8.4,2.46-.04,2.49.7l.14,2.66c.08,1.55,3.14.45,4.5.82l.89.24c.5.87.27,2.45,1.01,3.43.69.92,2.59.12,3.64,1.29.73.81-.28,3.39,1.02,3.7,1.73.41,3.18-.14,4.21.81.45.88-.32,2.48.87,3.15,1.12.63,3.45-.51,4.08.97.3.71.29,2.37.26,3.1-.17,4.38.78,6.96-1.47,6.91-1.31.26-2.8.15-4.25-.28-.39-1.64.12-2.88-.55-4.74-2.17,1.17-2.89-1.34-3.91-1.56-3.61-.78-7.67-.24-11.12-.32-1.15-.42-.85-1.95-.73-3.56-1.56-.99-3.15-.26-4.99-.63l-.49-6.72c-1.45-.36-2.76-.14-4.24-.77.05-2.18.53-4.48-1.43-4.86.09-.5-.06-1.22-.44-1.33-.45-.13-1.74.26-2.15-.11-.9-.82.15-2.56-.8-3.26-.87-.64-2.51.22-3.25-.75-.78-1.01-.68-2.61-1.03-3.59.9-.85,2.27,0,3.69.22,1.04-3.31.15-6.59.79-10.08l8.58-.25Z"/>
              <path class="cls-97" d="M145.17,104.09l.53,4.38c1.04.52,2.13.05,3.18.92.12,4.25.17,8.11.06,11.93l-7.68.19c-1.09.03-1.86.02-2.36-.71-.34-.5-.25-1.18-.53-2.09-.53-1.73-2.49.1-5.76-.73-.7-.18-.5-1.74-1.1-2.05-.95-.49-4.06.53-4.29-.87-.52-4.93-.97-9.3-.95-13.57l.02-4.03c5.73-1.41,10.62.02,14.97,3.13.61.43,1.84,0,1.88.61l.12,1.75c.06.86,1.46.67,1.91,1.13Z"/>
              <path class="cls-18" d="M153.36,85.04l-8.58.25c-.64,3.49.24,6.78-.79,10.08-1.41-.21-2.79-1.07-3.69-.22-.72.69-1.53-.22-2.61-.72-.66-.31-2.04.61-2.46-.75,3.85.4,1.39-3.64,2.56-11.42.29-1.93-.3-4.06,1.58-5.66,2.39,1.19,4,3.39,6.53,4.27.76.26,1.89.02,2.5.62.37.36.18,1.27.86,2.33.85,1.32,3.86-.84,4.1,1.22Z"/>
              <path class="cls-47" d="M147.96,104.18c1.96.39,1.48,2.68,1.43,4.86,1.47.63,2.79.41,4.24.77l.49,6.72c1.84.38,3.43-.36,4.99.63-.12,1.62-.42,3.14.73,3.56-.75,2.21-3.04-1.08-5.2.5-.77.56.07,4.88-.59,5.9-.34.53-1.42.72-2.13.97-.45-1.57-1.69-.17-2.78-.66-.13-2.03-.27-4.07-.21-6.12.11-3.82.07-7.68-.06-11.93-1.05-.86-2.14-.4-3.18-.92l-.53-4.38c-.12-.84,1.13-.57,1.72-.55.34,0,.44.83,1.08.64Z"/>
              <path class="cls-12" d="M151.93,128.1c.15,1.09-.32,2.18-.05,3.27-.66.44-2.27.36-2.79,1.1-1.61,2.28-.3,4.43.42,6.5,1.3,3.78.23,8.58,2.24,13.45,8.06-.05,15.55.34,23.48-.35,1.84-.16,3.89-1.58,5.03.96l.34-2.07c.11-.67,1.75.06,2.12.21,1.17.48,2.57-.16,3.71-.11-.7,3.18-.07,4.64-.1,8.21-3.48.48-6.98-.84-10.51-1.97-1.69-.54-3.59.77-5.26.64-3.66-.28-5.72,2.76-5.49,6.06.36,5.22-.73,10.23.91,15.19,1.15,3.47-.37,7.24.49,10.7-4.07-.34-8.17-.2-12.55-.18-.14-1.99.81-3.46.17-5.08.81.74.86.88,1.46.8,1.54-.21.51-3.88.32-5.96l-5.93-.68c-.46-1.81.51-3.7-.49-4.96-.76-.67-2.37-.35-2.94-.8-1.48-1.16-.35-2.99-.9-5.67.05.24-5.59-3.33-5.22-3.02-1.13-.95.04-3.54-.14-4.97-.26-2.15-3.32-1.61-4.11-2.6-1.44-1.81-.46-4.63-2.06-6.17-.73-.7-2.1-.91-2.32-2.12-.15-.8,0-1.96,1.2-3,0-.6-1.14-.54-1.04-1.23,1.55-.69,10.67.12,7.33-3.22.8-.36,1.43.07,1.74-.89.2-.62.36-1.15.19-1.86,1.02-.52,1.83.51,2.63.34,2.38-.51.23-1.74,2.4-6.9.33-.78,2.24-.17,2.46-.99.24-.92.54-2.2.47-3.25,1.09.49,2.33-.92,2.78.66Z"/>
              <path class="cls-44" d="M175.01,194.45c.33.99-.48,2.66.71,3.49.96.67,1.61.97,1.48,1.64-.42,2.1-3.01,1.26-4.67,2.09-1.15-1.17-1.75-.06-.74.61-2.81.32.16,4.34-1.91,5.25-.3.13-3.12.68-4.81-.37-.96-.59.1-2.72-.86-3.32-.34-.21-.68-.4-1.01-.08-1.3-1.73-.2-3.67-.4-5.62.76.13,2.28.38,2.96-.21.74-.65.54-2.28.6-3.31,1.35-.78,3.22.03,4.57-.94.87-.62.02-1.94.25-2.43.49-1.04,1.56-1.51,2.69-1.53,1.27-.01,1.23,1.32,1.33,2.79.02.36-.83.95-.52,1.44.11.17.23.13.35.5Z"/>
              <path class="cls-127" d="M141.19,138.24c.17.71,0,1.24-.19,1.86-.31.96-.94.53-1.74.89,3.33,3.34-5.79,2.53-7.33,3.22-.51.23-1.83.38-2.18-.33-.62-1.26.12-2.67-.29-3.83l9.72-.28c.63-.02,1.45-1.25,2.02-1.53Z"/>
              <path class="cls-78" d="M181.02,136.17c.38-.81-.63-1.4-.43-2.2l4.26.03c.82,0-.39,2.34.88,2.08-.35.93.01,2.39.74,2.92,1.02.74,2.19.26,3.05-.16,2-.98-.32-5.36,2.15-5.3,1.62.04,2.82-.13,4.01-.18.22,3.41.07,7.04-.85,10.54-.46,1.76-2.73,2.41-4.23,2.76.32,1.03.41,1.92.16,3-.14.6-1.66-.16-1.7,1.05-.89-.4-1.77.37-2.66.33-1.14-.05-2.54.59-3.71.11-.37-.15-2.01-.88-2.12-.21l-.34,2.07c-1.14-2.54-3.19-1.12-5.03-.96-7.93.69-15.42.3-23.48.35-2-4.87-.93-9.67-2.24-13.45-.71-2.07-2.02-4.21-.42-6.5.53-.75,2.13-.67,2.79-1.1,2.43,1.77.86,9.27,1.89,12.62,5.75.81,10.98,1.09,16.46.44.56-1.82-.01-3.56.68-4.99,3.47-.35,6.48.57,9.52-.25,1.11-.3.27-2.34.59-3.02Z"/>
              <path class="cls-80" d="M187.78,121.97c.54.17,1.47-.11,1.97.5.62.75.55,1.85.63,3.16.13,2.07,3.45,1.14,4.54,2.04,1.46,1.22.67,4.09.77,5.69-1.19.04-2.4.21-4.01.18-2.47-.06-.15,4.32-2.15,5.3-.86.42-2.03.9-3.05.16-.73-.53-1.09-1.99-.74-2.92.33-.88.23-1.35-.34-2.33-1.1-1.88.43-4.58.44-6.99.01-2.04-.22-4.4,1.95-4.8Z"/>
              <path class="cls-2" d="M187.78,121.97c-2.17.4-1.93,2.76-1.95,4.8-.02,2.41-1.55,5.1-.44,6.99.57.98.67,1.44.34,2.33-1.28.26-.06-2.08-.88-2.08l-4.26-.03c.16-.64-.13-1.54-.71-1.93.25-1.47.05-2.95-.22-4.41,2.25.06,1.3-2.52,1.47-6.91,2.25.23,4.53.56,6.64,1.24Z"/>
              <path class="cls-102" d="M159.87,39.74c.14.45.11.58.07.53s-.11-.28-.07-.53Z"/>
              <g>
                <path class="cls-116" d="M169.28,42.23c.23-.05.47-.04.69.04.66,1.71.15,3.05-.51,5s.65,4.84-.83,6.79c-.58.77-2.7-.45-3.37.3-.98-1.12-1.53-2.11-1.14-4.03.98-4.81-4.17-.77-5.04-3.39-1.69-5.09,2.89-.9,5.37-4.4,1.6-.19,3.24.06,4.83-.3Z"/>
                <path class="cls-42" d="M168.43,46.66c.13.45-.65,1.01-.91.84l-1.26-.84c-.34-.22-.9.45-1.43.22-.82-.35-.79-.89-.52-1.33.6-1.02,3.8.02,4.12,1.1Z"/>
              </g>
              <path class="cls-28" d="M159.84,120.73c3.46.08,7.51-.46,11.12.32,1.02.22,1.74,2.73,3.91,1.56.66,1.86.15,3.11.55,4.74,1.45.43,2.94.54,4.25.28.26,1.45.47,2.94.22,4.41-1.35-.17-2.63.13-4.24-.46.7-3.12-1.5-3.33-3.69-4.44-1.17-.59-.76-2.78-2.39-3.1-1.21-.24-3.64-.06-3.44,1.73l.41,3.66c.07.63-.75,1.93-.57,2.77.14.66.71.78,1.94,1.23,4.36-.11,7.86-.05,11.75,1.28.46.16-.11,1.38.47,1.39.26,0,.56.31.9.07-.32.68.52,2.72-.59,3.02-3.04.82-6.06-.11-9.52.25-.7,1.43-.13,3.17-.68,4.99-5.49.65-10.71.37-16.46-.44-1.04-3.35.54-10.85-1.89-12.62-.26-1.09.2-2.18.05-3.27.71-.25,1.79-.44,2.13-.97.65-1.02-.18-5.34.59-5.9,2.15-1.58,4.44,1.72,5.2-.5Z"/>
              <g>
                <path class="cls-98" d="M186.31,159.25c-.09,11.68.61,23.67-.41,35.23-1.66-.04-10.26-1.62-10.89-.02-.13-.38-.25-.33-.35-.5-.3-.49.55-1.08.52-1.44-.1-1.47-.06-2.81-1.33-2.79-1.12.01-2.2.48-2.69,1.53-1.47-.59-3.1-1.25-4.71-1.38-.86-3.46.65-7.23-.49-10.7-1.64-4.96-.56-9.97-.91-15.19-.23-3.3,1.83-6.34,5.49-6.06,1.68.13,3.58-1.18,5.26-.64,3.53,1.14,7.03,2.46,10.51,1.97Z"/>
                <path class="cls-94" d="M176.84,187.52c.3-.46,1.3-.23,1.61.05.26.24.68.44.42.99-.22.48-.83.75-1.34.55-.45-.18-1.23-.75-.69-1.6Z"/>
              </g>
              <path class="cls-33" d="M179.88,132.04c.58.39.87,1.29.71,1.93-.2.8.81,1.39.43,2.2-.34.24-.64-.07-.9-.07-.59,0-.01-1.24-.47-1.39-3.89-1.32-7.39-1.39-11.75-1.28-1.23-.45-1.79-.57-1.94-1.23-.19-.85.64-2.15.57-2.77l-.41-3.66c-.2-1.79,2.23-1.96,3.44-1.73,1.63.32,1.22,2.5,2.39,3.1,2.2,1.12,4.39,1.32,3.69,4.44,1.62.59,2.9.29,4.24.46Z"/>
            </g>
          </g>
        </g>
      </g>
    </g>
  </g>
</svg>