<?xml version="1.0" encoding="UTF-8"?>
<svg id="_レイヤー_2" data-name="レイヤー 2" xmlns="http://www.w3.org/2000/svg" viewBox="0 0 269.63 512">
  <defs>
    <style>
      .cls-1 {
        fill: #eebcb0;
      }

      .cls-2 {
        fill: #d9e8ed;
      }

      .cls-3 {
        fill: #8886a6;
      }

      .cls-4 {
        fill: #a5afc4;
      }

      .cls-5 {
        fill: #a6b0c5;
      }

      .cls-6 {
        fill: #b3bed0;
      }

      .cls-7 {
        fill: #beccda;
      }

      .cls-8 {
        fill: #62567a;
      }

      .cls-9 {
        fill: #dce7ed;
      }

      .cls-10 {
        fill: #63597d;
      }

      .cls-11 {
        fill: #bcbfd2;
      }

      .cls-12 {
        fill: #9da4bd;
      }

      .cls-13 {
        fill: #b88d8e;
      }

      .cls-14 {
        fill: #635373;
      }

      .cls-15 {
        fill: #7e7999;
      }

      .cls-16 {
        fill: #9ca4bd;
      }

      .cls-17 {
        fill: #ccdae4;
      }

      .cls-18 {
        fill: #b6c3d5;
      }

      .cls-19 {
        fill: #d4e2ea;
      }

      .cls-20 {
        fill: #b2bdd0;
      }

      .cls-21 {
        fill: #e6f3f5;
      }

      .cls-22 {
        fill: #f8cbbe;
      }

      .cls-23 {
        fill: #a3abc3;
      }

      .cls-24 {
        fill: #ccdce4;
      }

      .cls-25 {
        fill: #85657a;
      }

      .cls-26 {
        fill: #8c8dac;
      }

      .cls-27 {
        fill: #8b8fae;
      }

      .cls-28 {
        fill: #c3d2dd;
      }

      .cls-29 {
        fill: #f4e4ce;
      }

      .cls-30 {
        fill: #c0c8db;
      }

      .cls-31 {
        fill: #97a0b7;
      }

      .cls-32 {
        fill: #d7b79b;
      }

      .cls-33 {
        fill: #8e91af;
      }

      .cls-34 {
        fill: #979fb9;
      }

      .cls-35 {
        fill: #a1a9c1;
      }

      .cls-36 {
        fill: #e9f3f0;
      }

      .cls-37 {
        fill: #9598b5;
      }

      .cls-38 {
        fill: #a8b2c7;
      }

      .cls-39 {
        fill: #685c7d;
      }

      .cls-40 {
        fill: #f7c7bb;
      }

      .cls-41 {
        fill: #f9f4df;
      }

      .cls-42 {
        fill: #e4b9ab;
      }

      .cls-43 {
        fill: #fff;
      }

      .cls-44 {
        fill: #949bb7;
      }

      .cls-45 {
        fill: #b4c2d2;
      }

      .cls-46 {
        fill: #a0a9c1;
      }

      .cls-47 {
        fill: #888baa;
      }

      .cls-48 {
        fill: #8c93b1;
      }

      .cls-49 {
        fill: #9397b4;
      }

      .cls-50 {
        fill: #f6c8bc;
      }

      .cls-51 {
        fill: #fdfdfd;
      }

      .cls-52 {
        fill: #eddcc8;
      }

      .cls-53 {
        fill: #d6dee9;
      }

      .cls-54 {
        fill: #8f94b1;
      }

      .cls-55 {
        fill: #959fbf;
      }

      .cls-56 {
        fill: #e1e8eb;
      }

      .cls-57 {
        fill: #a0a9c2;
      }

      .cls-58 {
        fill: #f2bcb0;
      }

      .cls-59 {
        fill: #b5c2d2;
      }

      .cls-60 {
        fill: #ecf6f6;
      }

      .cls-61 {
        fill: #d9e1ea;
      }

      .cls-62 {
        fill: #f8c8bb;
      }

      .cls-63 {
        fill: #7e6076;
      }

      .cls-64 {
        fill: #8d92b0;
      }

      .cls-65 {
        fill: #bec3d5;
      }

      .cls-66 {
        fill: #e6f2f4;
      }

      .cls-67 {
        fill: #8587a7;
      }

      .cls-68 {
        fill: #6a5f80;
      }

      .cls-69 {
        fill: #d6e4ea;
      }

      .cls-70 {
        fill: #8c90af;
      }

      .cls-71 {
        fill: #746484;
      }

      .cls-72 {
        fill: #cadae3;
      }

      .cls-73 {
        fill: #a6b2c7;
      }

      .cls-74 {
        fill: #836074;
      }

      .cls-75 {
        fill: #c7cad9;
      }

      .cls-76 {
        fill: #bccad8;
      }

      .cls-77 {
        fill: #dfecef;
      }

      .cls-78 {
        fill: #c9d0e1;
      }

      .cls-79 {
        fill: #f0c0b3;
      }

      .cls-80 {
        fill: #8f94b3;
      }

      .cls-81 {
        fill: #78a7bf;
      }

      .cls-82 {
        fill: #9ba3bd;
      }

      .cls-83 {
        fill: #e9f5f5;
      }

      .cls-84 {
        fill: #c2d1dd;
      }

      .cls-85 {
        fill: #e8cfbd;
      }

      .cls-86 {
        fill: #7c728e;
      }

      .cls-87 {
        fill: #97a1bd;
      }

      .cls-88 {
        fill: #bfc5d7;
      }

      .cls-89 {
        fill: #e5ecf1;
      }

      .cls-90 {
        fill: #9aa4bf;
      }

      .cls-91 {
        fill: #d6dfe7;
      }

      .cls-92 {
        fill: #a2abc3;
      }

      .cls-93 {
        fill: #b3c2d1;
      }

      .cls-94 {
        fill: #d8e7eb;
      }

      .cls-95 {
        fill: #b3c0d1;
      }

      .cls-96 {
        fill: #d5d9e3;
      }

      .cls-97 {
        fill: #d5b2a7;
      }

      .cls-98 {
        fill: #77a5bd;
      }

      .cls-99 {
        fill: #9196b3;
      }

      .cls-100 {
        fill: #bfccd9;
      }

      .cls-101 {
        fill: #ecb3a9;
      }

      .cls-102 {
        fill: #edc4b6;
      }

      .cls-103 {
        fill: #f1f8f6;
      }

      .cls-104 {
        fill: #d7dde8;
      }

      .cls-105 {
        fill: #9aa0bb;
      }

      .cls-106 {
        fill: #8c91b0;
      }

      .cls-107 {
        fill: #c2cfdc;
      }

      .cls-108 {
        fill: #b6bcd0;
      }

      .cls-109 {
        fill: #c3d3df;
      }

      .cls-110 {
        fill: #9fa3be;
      }

      .cls-111 {
        fill: #c5d5e1;
      }

      .cls-112 {
        fill: #b1bfd2;
      }

      .cls-113 {
        fill: #ccdae3;
      }

      .cls-114 {
        fill: #8787a6;
      }

      .cls-115 {
        fill: #916f7e;
      }

      .cls-116 {
        fill: #aab5ca;
      }

      .cls-117 {
        fill: #c0c7db;
      }

      .cls-118 {
        fill: #f4bab2;
      }

      .cls-119 {
        fill: #675878;
      }

      .cls-120 {
        fill: #f8d2c3;
      }

      .cls-121 {
        fill: #cfd6e3;
      }

      .cls-122 {
        fill: #efe0ce;
      }

      .cls-123 {
        fill: #989fb9;
      }

      .cls-124 {
        fill: #ecf4f4;
      }

      .cls-125 {
        fill: #cfd7e2;
      }

      .cls-126 {
        fill: #fffffe;
      }

      .cls-127 {
        fill: #806177;
      }

      .cls-128 {
        fill: #dfc1b2;
      }

      .cls-129 {
        fill: #bcccd8;
      }

      .cls-130 {
        fill: #ebd2a8;
      }

      .cls-131 {
        fill: #f2b9b1;
      }

      .cls-132 {
        fill: #e2eff2;
      }

      .cls-133 {
        fill: #c2d0dd;
      }

      .cls-134 {
        fill: #eccebd;
      }

      .cls-135 {
        fill: #b8c8d8;
      }

      .cls-136 {
        fill: #d3e4ea;
      }

      .cls-137 {
        fill: #ddebf1;
      }

      .cls-138 {
        fill: #c6d5e0;
      }

      .cls-139 {
        fill: #fae3d0;
      }

      .cls-140 {
        fill: #9ca4bf;
      }

      .cls-141 {
        fill: #e4eaed;
      }

      .cls-142 {
        fill: #74647f;
      }

      .cls-143 {
        fill: #a0a9c5;
      }

      .cls-144 {
        fill: #d3dbe7;
      }

      .cls-145 {
        fill: #c1d1dd;
      }

      .cls-146 {
        fill: #b6c4d5;
      }

      .cls-147 {
        fill: #867a96;
      }

      .cls-148 {
        fill: #7f7998;
      }

      .cls-149 {
        fill: #c0cedc;
      }

      .cls-150 {
        fill: #b2becf;
      }

      .cls-151 {
        fill: #989cb7;
      }

      .cls-152 {
        fill: #6c5c78;
      }

      .cls-153 {
        fill: #d0dde5;
      }

      .cls-154 {
        fill: #feffff;
      }

      .cls-155 {
        fill: #e7f2f5;
      }

      .cls-156 {
        fill: #f2b4ad;
      }

      .cls-157 {
        fill: #8b8dad;
      }

      .cls-158 {
        fill: #eeafa7;
      }

      .cls-159 {
        fill: #d2b0a5;
      }

      .cls-160 {
        fill: #f4e5d0;
      }

      .cls-161 {
        fill: #938196;
      }

      .cls-162 {
        fill: #afbbcd;
      }

      .cls-163 {
        fill: #9ea7c0;
      }

      .cls-164 {
        fill: #f8cabe;
      }

      .cls-165 {
        fill: #8988a9;
      }

      .cls-166 {
        fill: #9f7983;
      }

      .cls-167 {
        fill: #f5c0b4;
      }

      .cls-168 {
        fill: #695b7c;
      }

      .cls-169 {
        fill: #9ea7bf;
      }

      .cls-170 {
        fill: #efdac6;
      }

      .cls-171 {
        fill: #fdfdfe;
      }

      .cls-172 {
        fill: #756c8c;
      }

      .cls-173 {
        fill: #ecf4f5;
      }

      .cls-174 {
        fill: #9fa8c1;
      }

      .cls-175 {
        fill: #fbfcfc;
      }

      .cls-176 {
        fill: #afbcce;
      }

      .cls-177 {
        fill: #9da6bf;
      }
    </style>
  </defs>
  <g id="_レイヤー_1-2" data-name="レイヤー 1">
    <g id="_生成オブジェクト" data-name="生成オブジェクト">
      <g>
        <path class="cls-110" d="M130.62,232.94c-.34,6.17-1.23,12.36-.54,19.34,1.4.36,3.31.69,4.84.81.8,2.09-.88,8.33-1.78,10.54-.22.54-1.78,13.4-.96,13.78-1.43,1.25-.65,3.48-1.34,5.24-.9,2.28-1.64,5.01-2.09,7.48-.16.89-1.92,1.79-1.73,2.93.34,1.97-1.81,3.81-1.19,5.07-.53.54-1.08,1.51-1.51,2.1-.4-1.48.84-3.46-.44-4.4-.47-.34-.91-.76-1.63-.93l1.14-12.01,3.42-.53.25-47.79-.04-21.23c-.01-5.48.46-10.74.43-15.83,3.86,2.6,4.8,11.95,3.88,13.24l-.97,1.35c-3.2,4.44.67,13.97.29,20.86Z"/>
        <path class="cls-71" d="M135.75,277.59c1,1.3-.15,2.72-.02,3.96.28,2.63.38,4.93.08,7.43l-1.35,1.41c-.8-.66-1.3-1.71-2.98-2.02l-3.61,9.56c-.39,1.02-1.45.26-2.04.2-.61-1.25,1.53-3.09,1.19-5.07-.19-1.14,1.57-2.04,1.73-2.93.45-2.47,1.2-5.2,2.09-7.48.69-1.76-.08-3.99,1.34-5.24l3.56.18Z"/>
        <g>
          <path class="cls-65" d="M10.84,277.93c-.24,3.22,2.89,11.94,2.95,12.8.16,2.3,1.92,3.7,2.53,5.47.86,2.48.57,4.88,2.25,7.26,1.16,1.64,3.96,11.47,6.49,14,1.78,1.78,3.02,4.74,5.75,5.49.47,5.2,3.68,2.59,4.62,5.59.54,1.73,2.09,2.55,3.1,3.89l5.27,6.99c.77,1.02,2.41,2.01,2.83,2.85.96,1.94,1.84,2.74,3.53,3.83,2.99,1.92,4.62,5.37,7.42,6.92.93.52,1.35,1.97,2.47,2.49,2.09.97,6.12-3.23,7.68-4.62l3.5-3.13c1.28-1.14,2.33-1.76,3.66-1.96-.33.69.46,1.15,1.02,1.61l2.91,2.47c1.02.87,2,1.19,3.1,1.22l-1.27,1.83-3.48,2.58c1.28-.95-6.52,2.75-7.35,5.54-.31,1.06-9.5,6.09-7.39,7.9.34.3.9.69,1.39,1-1.88,3.7-7.33-4.37-8.72-5.24l-2.68-1.68c1.22.77-7.35-7.08-6.62-7.67-1.76.18-3.18-.96-3.42-2.55-.29-1.87-2.06-1.64-2.84-2.4-1.54-1.51-1.67-4.33-4.55-4.32-.88-1.43-.67-3.29-1.97-4.29-.58-.44-2.1.07-2.4-.65s-.33-1.47-.29-2.31c.12-2.42-2.44-.66-3.75-2.36.11.14-1.22-4.85-2.69-6.31-.39-.35-1.8.05-2.26-.49l-2.06-8.02c-.64-.26-2.08.1-2.25-.64-.44-2-.21-3.75-.97-4.22-.41-.26-1.64-.07-2.47-.28l-1.17-8.12-3.07-.67-1.68-11.91c-.14-.97-.46-1.86-1.18-2.02-.36-.08-.41-1.16-1.1-.6-2.62-1.22.48-11.45-3.71-11.64-1.07-4.33-2.01-3.26-1.97-10.06l.33-59.79,4.41.54c.43-.8-.14-1.8.67-2.68.74,1.64-.19,3.44-.19,5.3l.04,10.15-.2,33.29c0,.53.01,1.21.25,1.52.17.22.32.8,1.15.11l.6,1.8c.77,2.31.07,4.96,1.15,7.33,1.35,2.97.93,6.33,2.63,8.85Z"/>
          <path class="cls-108" d="M122.23,294.88c.72.17,1.17.59,1.63.93,1.28.94.04,2.92.44,4.4-.35.47-.25,1.59-1.13,1.75-.59.11-1.49.1-2.82-.15l-2.7,14.65c-1.02.02-1.92.03-2.4.34-1.09.69.02,3.33-1.26,4.11-.53.32-1.92-.09-2.43.35-1.12,1.25-.38,3.29-.92,4.8-.75.86-2.43.14-3.21,1.14s.02,2.8-.79,3.59-1.87,1.18-1.6,2.77c.24,1.39-.28,2.55-1.56,2.91l-5.08,1.4c.11,1.65-.16,3.18-.34,4.66-1.06.08-2.78-.2-3.63.73-.8.87-.18,2.42-.89,3.48-2.61.5-3.83,2.51-5.01,4.65-.48.87-3.33,1.07-3.43,2.13-.26,2.66-2.38,2.34-3.89,3.65l-3.98,3.46c-1.09.95-1.2,1.89-3.4,2.32-1.71.33-2.79,3.4-4.67,3.94-3.64,1.03.43,2.16-5.36,3.09-.49-.31-1.05-.7-1.39-1-2.11-1.82,7.08-6.85,7.39-7.9.83-2.8,8.63-6.49,7.35-5.54l3.48-2.58,1.27-1.83c1.63-.1,2.3-2.41,3.63-3.25,6.7-4.22,1.32-4.73,6.54-6.28,1.79-.53,1.81-3.73,2.91-4.33,1.86-1.01,3.17-1.5,4.43-3.16,1.51-1.98,4.05-3.66,3.79-6.7,1-.63,2.12-.52,2.95-1.18-.08.07,7.71-15.89,7.27-14.05l.82-3.38c.02-.1,5.46-12.32,5.48-13.68,1.04-.12,1.81-.39,2.51-.22Z"/>
          <path class="cls-104" d="M6.78,293.81h-.86c-.25.02-.31-.35-.24-.6.69-.56.74.52,1.1.6Z"/>
          <path class="cls-141" d="M93.57,188.9c-4.49-.97,8.47,4.46,5.31,3.32l3.26,1.19c.47.17.61,1.32,1.44,1.35,4.5.16,1.32,4.26,4.17,3.86,1.95-.27,2.36.87,3.42,1.75.8.66,3.67-.11,4.17,1.32.36,4.78.02,9.46.02,14.31l-.05,32.78-.59,9.04c-.06.87-2.4.96-3.41.97l-31.01.11c.1-1.61-.21-3.14-.2-5.13-2.39-.04-4.2-.83-6.17-1.15-1.14-.18-2.03-.86-2.87-1.74s-.22-2.03-.26-3.65c-2.69,1.18-7.86-4.01-7.4-3.73-2.26-1.38-7.75-.07-10.73.81-1.88.56-4.34,4.12-9.04,3.23-.56,2.18-.64,4.12-.36,6.09-1.18-.07-3.07-.09-4.15.58-1.21.76-.42,2.74-.66,3.76-.55,1.43-2.42,1.1-3.73,1.09l-23.88-.18.27-55.02c0-1.46.42-2.92.56-4.1.18-1.53,2.5-.75,3.4-1.32,1.73-1.1,3.03-2.3,5.04-2.38.68-.03.64-1.56,1.31-1.66l3.46-.52c1.21-2.22,3.52-2.76,5.51-4,.97-.6.98-1.54,2.83-1.79,3.38-.46,20.85-10.05,24.85-12.73,6.99.14,4.49,1.98,11.51,4.77l13.87,5.51c3.43,1.36,6.8,2.5,10.1,3.25Z"/>
          <path class="cls-75" d="M94.63,187.1c.24.83-.35,1.47-1.06,1.8-3.3-.75-6.67-1.89-10.1-3.25l-13.87-5.51c-7.03-2.79-4.52-4.64-11.51-4.77-3.99,2.68-21.47,12.27-24.85,12.73-1.84.25-1.86,1.18-2.83,1.79-1.99,1.24-4.3,1.79-5.51,4l-3.46.52c-.67.1-.63,1.63-1.31,1.66-2.01.08-3.31,1.28-5.04,2.38-.9.57-3.22-.21-3.4,1.32-.14,1.17-.55,2.64-.56,4.1l-.27,55.02c-.01,2.23-.67,4.78.25,7.18.56,1.47,2.22,1.5,3.54,1.51l26.07.06c.88,0,2.82-.68,2.1-1.51-2.23-2.6-8.14.42-8.08-4.54.01-.94-.29-1.77,0-2.51,1.32.01,3.18.34,3.73-1.09,1.86.77,3.47,1.33,5.29-.09.71-.35,2.07.17,2.69-.04l.81,6.31c.56,4.38,10.36,10.63,9.29,12.78-2.04,1.11-2.44-2.45-4.14-2.04-2.95.72,2.56,2.91,4.39,5.31.58.77,1.47,1.39,2.29.85-.2.53-.26.71-1.15.69l.07,58.62c0,4.51.1,8.57-.45,12.67-2.8-1.55-4.43-5-7.42-6.92-1.69-1.09-2.57-1.89-3.53-3.83-.42-.84-2.06-1.83-2.83-2.85l-5.27-6.99c-1.01-1.33-2.56-2.16-3.1-3.89-.93-3-4.15-.38-4.62-5.59-2.72-.75-3.96-3.71-5.75-5.49-2.53-2.53-5.34-12.36-6.49-14-1.68-2.39-1.4-4.78-2.25-7.26-.61-1.77-2.37-3.17-2.53-5.47-.06-.86-3.18-9.58-2.95-12.8,1.62-3.44-1.36-2.23-1.36-11.2v-60.76c-.01-2.53-.64-10.34.58-11.18.43-.3,1.15.01,1.92.02.42-1.67,1.45-2.44,3.23-2.62,4.58-.47,8.63-2.97,12.67-5.18,1.84-1.01,3.46-1.65,5.13-2.53l5.49-2.89c4.18-2.2,9.17-3.56,13.1-6.36,6.94-4.94,9.84-2.53,17.25,1.17,8.53,4.26,18.62,7.25,25.79,10.69Z"/>
          <path class="cls-125" d="M127.07,186.81c.03,1.72.32,3.7.33,5.41l.03,5.27c.03,5.09-.44,10.35-.43,15.83l.04,21.23-.25,47.79-3.42.53-1.14,12.01c-.7-.16-1.47.1-2.51.22-.02,1.36-5.45,13.57-5.48,13.68l-.82,3.38c.45-1.84-7.35,14.12-7.27,14.05-.83.66-1.95.56-2.95,1.18.27,3.05-2.28,4.72-3.79,6.7-1.26,1.66-2.57,2.15-4.43,3.16-1.09.59-1.12,3.79-2.91,4.33-5.21,1.55.17,2.06-6.54,6.28-1.33.84-2,3.15-3.63,3.25-1.1-.03-2.07-.35-3.1-1.22l-2.91-2.47c-.55-.47-1.34-.92-1.02-1.61.96-.64.96-3.4,2.34-3.42,3.35-.07,8.29-9.02,8.56-9.23,1.82-1.42,3.13-2.6,4.4-4.72.7-1.16,2.89-1.87,4-3.32l7.69-10.04,2.83-3.23c.77-.88,6-16.68,6.54-17.75,2.66-5.32,2.69-11.3,4.47-16.74,1.34-4.08,1.82-7.92,2.61-12.15,1.58-8.45,1.57-16.81,1.79-25.39l.36-14.36c.21-8.43.38-16.49,1.43-24.82.59-4.71.72-9.08.56-13.94-.03-.9.9-2.27.99-3.24.04-.48,1.58-.59,1.28-1.29.45.16,1.58-.12,1.83.61.44,1.3.5,2.76.53,4.03Z"/>
          <path class="cls-88" d="M80.31,258.9c-.1,1.53-.04,3.89-1.15,5-.61.55-2.17.03-2.74.75-.33.42-.21,1.88-.77,1.94-1.58.15-2.26.63-2.92,1.6l-1.94,2.82c.56-.81-6.78,6.61-6.54,6.27-2.69,3.83-4.39,1.79-5.14,3.78-.82.54-1.71-.08-2.29-.85-1.83-2.41-7.35-4.59-4.39-5.31,1.7-.42,2.1,3.15,4.14,2.04,1.07-2.15-8.73-8.4-9.29-12.78l-.81-6.31c.62-1.13.33-2.47.49-3.72.16-.05.33-.07.49,0,2.82.27-.7,3.13,2.17,6.49l4.34,5.1c1.21,1.42,3.55,3.92,5.88,2.7,1.98-1.04,8.45-7.19,7.36-8.84.36-.01.53-.16.89-.26,2.76-.77,5.44,0,8.12,1.95,1.57-2.14,1.5-6.51-.55-7.09l-1.82-.51c-.18-.35.13-.66.11-1.04,1.97.32,3.78,1.11,6.17,1.15-.01,1.99.3,3.52.2,5.13Z"/>
          <path class="cls-144" d="M102.15,193.4l-3.26-1.19c3.15,1.15-9.8-4.29-5.31-3.32.71-.33,1.3-.98,1.06-1.8,2.04.98,4.5.96,6.49,2.69,1.14.99,3.18.46,4.26,1.91-.63,1.27-2.16,1.65-3.24,1.7Z"/>
          <g>
            <path class="cls-56" d="M84.6,162.59l17.91.37c.26,1.74.33,3.82-.7,4.99-.79-.06-1.99-.52-1.9.24-4.82,0-9.74.02-14.89-.28-.4-.02-.22,1.06-.06,1.41.67,1.38,14.11,2.05,16.03,1.22.42,1.53.33,3.41.16,5.12-.55,5.29,12.4,5.43,13.09,5.52l4.13.54c1.65.22,4.87-.09,6.36.45.3.7-1.23.81-1.28,1.29-.09.97-1.02,2.34-.99,3.24.16,4.86.04,9.23-.56,13.94-1.04,8.33-1.22,16.39-1.43,24.82l-.36,14.36c-.21,8.58-.21,16.94-1.79,25.39-.79,4.22-1.27,8.07-2.61,12.15-1.78,5.44-1.81,11.42-4.47,16.74-.54,1.07-5.76,16.87-6.54,17.75l-2.83,3.23-7.69,10.04c-1.11,1.45-3.3,2.16-4,3.32-1.27,2.12-2.59,3.3-4.4,4.72-.27.21-5.21,9.16-8.56,9.23-1.38.03-1.38,2.79-2.34,3.42-1.33.2-2.38.82-3.66,1.96l-3.5,3.13c-1.56,1.39-5.59,5.59-7.68,4.62-1.12-.52-1.54-1.98-2.47-2.49.54-4.09.45-8.16.45-12.67l-.07-58.62c.88.02.95-.17,1.15-.69.75-1.99,2.45.05,5.14-3.78-.24.34,7.1-7.08,6.54-6.27l1.94-2.82c.66-.96,1.34-1.45,2.92-1.6.56-.05.44-1.52.77-1.94.57-.72,2.13-.2,2.74-.75,1.12-1.11,1.05-3.47,1.15-5l31.01-.11c1.01,0,3.35-.09,3.41-.97l.59-9.04.05-32.78c0-4.85.35-9.53-.02-14.31-.5-1.43-3.37-.66-4.17-1.32-1.06-.88-1.47-2.03-3.42-1.75-2.85.4.33-3.7-4.17-3.86-.84-.03-.97-1.17-1.44-1.35,1.08-.05,2.61-.43,3.24-1.7-1.08-1.45-3.12-.92-4.26-1.91-1.99-1.73-4.45-1.71-6.49-2.69-7.17-3.44-17.26-6.43-25.79-10.69-7.41-3.7-10.31-6.11-17.25-1.17-3.93,2.8-8.92,4.16-13.1,6.36l-5.49,2.89c-1.67.88-3.28,1.52-5.13,2.53-4.04,2.2-8.09,4.71-12.67,5.18-1.79.18-2.81.95-3.23,2.62-.77,0-1.49-.32-1.92-.02-1.22.85-.59,8.66-.59,11.18v60.76c.02,8.97,2.99,7.77,1.38,11.2-1.7-2.52-1.28-5.88-2.63-8.85-1.08-2.37-.38-5.02-1.15-7.33l-.6-1.8c-.83.69-.98.11-1.15-.11-.24-.31-.25-1-.25-1.52l.2-33.29-.04-10.15c0-1.86.92-3.66.19-5.3-.8.89-.24,1.88-.67,2.68l-4.41-.54c.03-4.56-.18-9.36-.01-14.33l.31-8.99c.06-1.67,2.83-1.2,3.55-2.05.79-.93.41-3.45,1.88-4.21,1.87-.96,9.05-.84,9.45-1.01,1.55-.68,3.45-.74,4.65-1.04,2.41-2.15,10.11-4.98,12.8-6.51l5.82-3.32c1.48-.84,3.18-1.12,5.12-1.61,1.42-.36,1.79-3.7,5.36-3.25,1.61.2,1.98-5.35,4.85-4.2,3.78-3.98.55-3.79,5.47-3.73,1.3.01,2.22.16,2.86,1.01.45.6.66,1.34.43,2.58,8.35.71,6.43,4.18,7,4.18.81,0,4.94,1.17,6.06,2.9.82,1.27,2.93.92,4.54.76l.81-5.46c1.25-.53,2.45-.17,3.31-.88Z"/>
            <path class="cls-31" d="M99.9,168.19c.61,0,1.04.38,1.55.69-.48.49.4,1.4-.46,1.65-1.93.83-15.36.16-16.03-1.22-.17-.35-.34-1.43.06-1.41,5.15.3,10.07.28,14.89.28Z"/>
            <path class="cls-173" d="M68.2,165.61c.51.33-.2,1.3-.45,1.15,5.33,3.24-11.15-4.89-8.39-2.84.07-1.1-1.01-3.13-.59-4.38,1.2-1.53,3.04.42,3.47,1.57.83,2.22,3.91,3.19,5.96,4.5Z"/>
            <path class="cls-117" d="M112.62,194.05c-1.37,1.37-4.5.26-4.71-.17-.16-.35-.26-.9-.04-1.4.25-.55,1.9-.51,2.89-.05.71.33.63-2.71,1.22-2.89.45-.14.87-.13,1.18.13.45.37.49,3.35-.54,4.39Z"/>
            <path class="cls-78" d="M60.03,166.2c.25.81.49,3.43-1.03,4.34-.55.33-1.74-.17-1.82-1.04,1.14-1.04,1.36-2.02,1.56-3.63.05-.37,1.2.02,1.29.34Z"/>
          </g>
          <path class="cls-96" d="M34.75,259.06c-.3.74.01,1.57,0,2.51-.06,4.96,5.85,1.94,8.08,4.54.72.84-1.22,1.52-2.1,1.51l-26.07-.06c-1.32,0-2.98-.04-3.54-1.51-.92-2.4-.26-4.96-.25-7.18l23.88.18Z"/>
          <path class="cls-53" d="M73.95,252.62c.03.38-.29.69-.11,1.04-.68.83-1.83-.09-2.56.07-1.09.24-1.94.53-3.08.22-.56-2.62-7.35-7.44-9.89-5.5s-4.92,3.8-7.65,5.13c.03-.79-1.29-.91-1.83-.53-.41.28-1.39.35-1.38,1.06-.16-.07-.33-.06-.49,0-1-.64-2.46-.41-3.66-.49-.28-1.97-.2-3.9.36-6.09,4.7.88,7.15-2.68,9.04-3.23,2.98-.88,8.46-2.19,10.73-.81-.46-.28,4.71,4.91,7.4,3.73.05,1.62-.56,2.79.26,3.65s1.73,1.56,2.87,1.74Z"/>
          <path class="cls-124" d="M43.3,253.63c1.19.07,2.66-.16,3.66.49-.16,1.25.13,2.59-.49,3.72-.61.21-1.97-.31-2.69.04-1.82,1.42-3.43.86-5.29.09.24-1.02-.55-3.01.66-3.76,1.08-.67,2.97-.66,4.15-.58Z"/>
          <path class="cls-103" d="M68.2,253.95l-.12,5.35c-.36.1-.53.24-.89.26-3.14.12-6.28.46-9.6.15-.03-.86-.2-1.56-1.09-1.72-6.26-1.08.15,1.01-7.19-2.09.37-1.38,1.37-1.51,1.34-2.33,2.74-1.33,5.08-3.18,7.65-5.13s9.34,2.88,9.89,5.5Z"/>
          <path class="cls-121" d="M50.65,253.59c.02.82-.97.95-1.34,2.33,7.34,3.09.93,1.01,7.19,2.09.89.15,1.06.86,1.09,1.72,3.32.31,6.46-.03,9.6-.15,1.09,1.65-5.38,7.8-7.36,8.84-2.33,1.22-4.67-1.28-5.88-2.7l-4.34-5.1c-2.86-3.36.66-6.22-2.17-6.49-.01-.71.97-.78,1.38-1.06.55-.38,1.86-.26,1.83.53Z"/>
          <path class="cls-89" d="M73.84,253.66l1.82.51c2.05.58,2.12,4.95.55,7.09-2.69-1.95-5.36-2.72-8.12-1.95l.12-5.35c1.14.31,1.99.02,3.08-.22.73-.16,1.88.76,2.56-.07Z"/>
        </g>
      </g>
      <g>
        <path class="cls-16" d="M254.09,226.09c-16.48-.25-10.55,1.63-12.07,2.57-2.65,1.64-3.08.64-4.96,2.59-2.66,2.76-4.12,5.71-3.06,9.68.16.59-.38,1.48-.01,2.09s1.26.24,1.8.61c1.2.83,1.14,2.46,1.46,3.78.83.46,2.09.07,2.52.68,1.11,1.61.45,3.72,1.2,5.29s1.97,3.22,2.29,4.94,1.29,2.59,2,3.81c.86,1.47.11,3.83,1.86,4.53-2.37,1.85-5.44,3.4-8.55,2.86-1.11-.45-.87-2.26-1.59-3.08-.77-.88-2.1-1.19-1.87-2.85.17-1.23-.83-1.76-1.48-2.25-.82-1.38-.1-3.2-.71-4.71-1.32-.3-2.47-.02-3.52-.46-.56-1.69.1-3.66-.91-5.16-.66-.29-1.89.05-2.47-.51-.03-.03-1.89-7.29-1.56-8.15.33.07.5-.4.83-.38.19.46.82.51,1.26.79.41.25.91-.39,1.39-.68,2.47-1.48,2.47-4.65,4.05-6.77.97-1.3,1.8-2.48,2.77-3.87l3.78-5.45,3.75-2.64c1.19-.84,2.6-1.36,4.06-2.41,2.44-1.74,5.66-2.43,8.67-3.2-.13,2.92-1.01,5.66-.91,8.34Z"/>
        <path class="cls-92" d="M263.59,268.43c-.61.22-.53-.42-.77-1.3-.99.45-2.6.26-3.02-.73,0-2.71-.19-5.47-.61-8.52l-1.73-12.58-1.09-7.86c-.09-.63-1.07-1.44-.61-2.39.13-.27-1.72-10.23-1.67-8.96-.1-2.68.78-5.42.91-8.34-3.01.77-6.23,1.46-8.67,3.2-1.46,1.04-2.87,1.57-4.06,2.41.12-1.93,1.95-3.35,3.67-4.04,1.03-1.84,5.38-2.29,4.22-6.01,1.01-.95,5.33-2.39,3.87-2.75,1.28-.03,2.83-.97,4.59-.08l-.02,21.91c0,5.13-.2,10.02.55,15-.71-4.68,2.81,10.36,1.9,4.75.91,5.66.69,10.76,2.53,16.3Z"/>
        <path class="cls-172" d="M248.62,282.03c.62.82,1.22,2.09,2.2,2.82,3.05,2.28,6.68,3.09,10.09,4.16.54.17,1.81.65,1.75,1.29-.05.47.27,1.17-.2,1.54l-7.49-.16c-.28-1.64-7.33-.52-9.15-.41-.14,2.42.18,4.34-.14,6.28.36.28-.11,1.64-.62,1.51-1.01-.25-1.64-1.12-2.57-.94-.79-2.21-3.49-1.54-5.48-2.38-1.37-.58-1.25-4.61-.03-5.52,2.61-1.93,3.06-4.92,3.72-7.6l1.45-.62c-.05-1.18.72-1.75,1.64-2.34,1.57-1.01,4.35,1.73,4.82,2.35Z"/>
        <path class="cls-164" d="M254.97,291.68c.11.91-.21,1.9.18,3.03,1.51.43,3.97.1,4.99,1.45.51,2.11,1.26,7.37-1.31,7.99-1.05.25-3.33.53-3.48-1.28-.08-.97,1.05-2.41-.52-2.93-.85,1.45-.12,3.7-1.78,4.3-.5.18-1.45-.3-1.72-.1-.32.23-.93.93-.9,1.32-.22-.52-.51-1.08-1.13-1.08-1.89-3.43,1.82-5.14.25-7.22-.87-1.17-2.76.21-3.86.4.32-1.94,0-3.87.14-6.28,1.82-.11,8.86-1.24,9.15.41Z"/>
        <path class="cls-156" d="M262.45,291.85c2.1,1.35.06,3.27,1.8,3.76,1.02.29,3.76,0,3.17,1.7-.64,1.85-.31,3.82-.69,6.05-2.35,1.27-4.61,2.31-6.99,3.09-.43,3.58-5.94,2.75-8.55,2.23-.75-.44-.69-2.41-.76-3.2-.03-.39.58-1.09.9-1.32.27-.2,1.22.28,1.72.1,1.67-.61.93-2.85,1.78-4.3,1.58.51.44,1.95.52,2.93.15,1.81,2.43,1.53,3.48,1.28,2.57-.62,1.82-5.88,1.31-7.99-1.03-1.35-3.48-1.02-4.99-1.45-.4-1.12-.07-2.11-.18-3.03l7.49.16Z"/>
        <path class="cls-57" d="M263.5,278.39c.64.66,1.6.52,2.73.79,1.65.41-.59,4.46,2.06,4.64l1,6.86c.32,2.18.48,4.21.2,6.29-.96.34-1.58-.05-2.05.33.59-1.7-2.15-1.41-3.17-1.7-1.74-.49.3-2.41-1.8-3.76.47-.37.15-1.07.2-1.54.06-.65-1.21-1.12-1.75-1.29.76-.97-.57-1.58-.74-2.42-.69-3.43-.06-6.88-.25-10.23,1.25-.21,2.35.61,2.82,1.84.07.17.62.04.75.18Z"/>
        <path class="cls-176" d="M250.25,274.63c-1.34.55.29,5.25-1.63,7.4-.47-.62-3.25-3.36-4.82-2.35-.92.59-1.68,1.16-1.64,2.34l-1.45.62c-1.05-.55-2.37,0-3.68-.41-1.4-2.75.17-4.87,1.79-6.86,4.59,1.66,3.05.61,9.49-1.55.53-.18.84-1.07,1.47-.54.37.31.44.84.48,1.35Z"/>
        <path class="cls-19" d="M254.03,210.55c1.46.35-2.86,1.8-3.87,2.75,1.16,3.72-3.19,4.17-4.22,6.01-1.72.69-3.55,2.12-3.67,4.04l-3.75,2.64c-.55-.97-1.36-1.69-2.03-2.57.49-.62.26-2.08.98-2.72s2.41.03,3.04-.69c.78-.88.65-2,.95-3.4,2.23.69,2.91-1.66,4-2.1,1.53-.63,3.62-.37,4.66-2.44.89-1.78,2.39-1.49,3.91-1.52Z"/>
        <path class="cls-131" d="M249.29,304.39c-.84-.01-1.82.18-2.41-.53-1.24-1.47-.71-3.39-1.16-3.6-.74-.36-2.18-.22-2.89-.85-.32-.28-.18-.82-.34-1.28.93-.18,1.55.7,2.57.94.51.12.98-1.23.62-1.51,1.1-.19,2.99-1.56,3.86-.4,1.56,2.08-2.14,3.79-.25,7.22Z"/>
        <path class="cls-146" d="M238.52,225.99l-3.78,5.45c-.96,1.39-1.79,2.57-2.77,3.87-1.59,2.12-1.58,5.29-4.05,6.77-.48.29-.99.93-1.39.68-.44-.27-1.07-.32-1.26-.79-.3-.47.01-1.45.32-2.2.17-.42.79-.11,1.55-.34,1.18-3.58,2.02-7.5,4.51-10.26,1.14-1.27,1.93-2.49,1.95-4.42,1.05-.61,2.24-.61,2.89-1.34.67.89,1.48,1.6,2.03,2.57Z"/>
        <path class="cls-17" d="M254.09,226.09c-.05-1.27,1.81,8.69,1.67,8.96-.46.94.52,1.76.61,2.39l1.09,7.86,1.73,12.58c.42,3.05.62,5.82.61,8.52-3.12.86-8.55-.93-12.69.26-1.75-.69-1-3.06-1.86-4.53-.71-1.22-1.68-2.03-2-3.81s-1.52-3.35-2.29-4.94-.09-3.68-1.2-5.29c-.43-.62-1.68-.23-2.52-.68-.32-1.32-.26-2.95-1.46-3.78-.54-.37-1.42,0-1.8-.61s.17-1.49.01-2.09c-1.05-3.97.41-6.92,3.06-9.68,1.88-1.95,2.31-.94,4.96-2.59,1.51-.94-4.41-2.83,12.07-2.57Z"/>
        <g>
          <g>
            <path class="cls-34" d="M242.37,490.72c-.82.79-2.15.67-3.25.59-1.71-.13-3.5-.25-5.22-.05-.28-.89-1.45-1.12-1.99-2.28,1.34-1.24,2.82-2.6,3.5-4.29.53.03.87-.42,1.68.19-1.56-.79-.28-3.09-.94-4.17-1.78-2.14-5.01-1.42-7.06-2.52-.86-1.18-.31-2.75-.55-4.33-1.19-7.83-2.1-15.39-2.43-23.14-.03-.61-1.02-1.24-.81-2.29.42-2.12-2.93-29.93-3.48-34l-.86-6.37c-3.28.11-5.86-.18-8.49-1.27l-5.72-2.38c-2.29-.95-4.91-1.07-6.78-2.46-1.57-1.16-1.08-3.08-.47-4.71.95.95,2.76,1.29,4.18,1.84,3.48,1.36,12.61,6.38,14.55,5.86.37-.1.57-.8.58-1.51.08-5.75.2-11.22.63-16.95.29-3.82-.44-7.61.09-11.21.77-5.22.02-10.32,1.05-15.22,1.28.11,2.83-.18,4.25.47.53.45.36,1.41.64,2.12,2.03-.33,2.08,1.14,2.87,2.37l1.82,2.84c1.47,1.03,2.87,2.17,2.31,4.64,1.41.74,2.61.41,4.24.76-.06,3.74.1,7.39-.55,10.97-.14.79-2.11.52-2.88.52-1.23,3.3-1.11,6.72-1.51,10.19-.14,1.19.65,1.55.8,2.35,1.03,5.61.83,11.34.85,17.3l.13,41.26c.02,7.54.71,14.46,2.71,21.72.28,1.02-.46,2.67.84,3.17.49.19,1.32-.17,1.51.3.61,1.48-.21,2.69.82,3.47.41.31,1.79.17,2.15.65.92,1.77.17,3.88.77,5.58Z"/>
            <path class="cls-38" d="M220.13,359.61c.23.01.33.23.45.45-1.03,4.9-.28,9.99-1.05,15.22-.53,3.6.19,7.39-.09,11.21-.43,5.73-.55,11.2-.63,16.95,0,.72-.21,1.41-.58,1.51-1.94.52-11.07-4.51-14.55-5.86-1.42-.55-3.23-.89-4.18-1.84-1.37-1.38-3.2-1.77-4.82-2.81.07-1.46.39-3.06-.14-4.75-1.17-.22-3.74.54-4.19-.88-.63-2.01-.96-3.94-2.47-5.45-.79-.79-2.15-2.63-1.77-3.47l.89-2.01c.53-1.2,2.45-1.16,3.44-1.83-.1.71.32,1.57.09,2.43,2.57.63,4.94.03,7.28.11l20.77.71c1.31-2.08-.83-3.67-1.09-5.14-.88-4.93-1.24-9.85-1.6-14.68,1.39-.46,2.79.34,4.24.14Z"/>
            <path class="cls-73" d="M228.7,491.72c-.06.21-.15.45-.11.68-1.75.43-4.11,2.09-4.32,4.17-.13,1.36.87,2.62.31,4.06,2.98.79,5.6.65,8.57.17l.12-3.2h5.3c2.73-.02,5.46-.05,8.38-.67.14-1.56.83-3.83-.27-4.98-1.29-.43-3.38-.05-3.82-1.23-1.51-.43,6.02.93,6.41,1.39.72.86.03,1.97.33,2.97.52,1.73,2.77,2.22,4.42,2.61.49,1.87-.33,3.71.44,5.39s.1,3.54.05,5.16l-30.32-.73c-.21-1,.06-1.73-.21-2.57l-3.92-.34-.38-5.57c.85.2,1.25-.49,1.65-1.35,1.13-2.41,6.77-9.29,7.36-5.98Z"/>
            <path class="cls-82" d="M198.07,405.46c.16,6.96,2.19,13.37,4.36,20.24l7.68,24.32c.47,1.47.62,2.88,1.19,4.27,1.12,2.73.32,5.92,2.22,8.4,1.69,6.65,2.25,13.59,2.33,20.69.01.88-.03,2,.96,1.84-.97.58-.45,2.84-1.49,2.98l-2.9.37.16-9.38c.07-4.16-.73-8.97-1.6-13.18l-3.03-14.61c-.21-1.01-2.47-1.54-2.2-3.56.34-2.44-1.34-4.58-1.96-6.77-.42-1.48-.49-2.56-1.43-3.83-1.79-2.43-1.6-5.65-2.71-8.36l-1.76-4.28-3.5-10.63c-.93-2.82-1.21-4.89-1.34-7.51.49.02.04-1.28.44-1.54,1.27-.85,3.55-.47,4.59.53Z"/>
            <path class="cls-68" d="M216.35,498.78c1.1.11,2.22.26,3.33.27l.38,5.57,3.92.34c.28.84,0,1.56.21,2.57l30.32.73c-.04,1.2.24,2.45-.45,3.75-5.33-.11-10.22.2-15.44-.24-8.67-.74-17.21-.41-25.96-.67-.52-4.95.07-9.49.04-13.92l1.4.12c.26,1.35,1.31,1.4,2.25,1.5Z"/>
            <path class="cls-70" d="M235.41,484.69c-3.24-.2-6.47-.12-10.03-.06-1.45.02-3.3.03-4,1.65-2.34,5.39-4.09-.97-5.02,12.49-.94-.1-1.99-.15-2.25-1.5l-1.4-.12c-.01-2.79-.34-5.65-.29-8.59l2.9-.37c1.05-.13.53-2.39,1.49-2.98,5.39-.48,3.29-1.95,8.27-4.88,1.12-.66,2.63-2.27,4.01-2.15,2.05,1.1,5.28.38,7.06,2.52.66,1.09-.63,3.38.94,4.17-.8-.61-1.14-.15-1.68-.19Z"/>
            <path class="cls-140" d="M191.03,373.22c.46,1-.44,1.86-.57,2.82-.99.67-2.91.63-3.44,1.83l-.89,2.01c-.37.84.99,2.68,1.77,3.47,1.51,1.51,1.83,3.43,2.47,5.45.45,1.42,3.02.66,4.19.88.53,1.69.22,3.29.14,4.75-.45-.07-.9.03-1.6.17.26,1.07-.23,1.88-.77,2.33-1.36-6.72-2.88,4.22-5.36-11.77-1-.63-1.95-.3-3.11-.7-.37-3.1-.47-6.82.46-10.1.99-.71,3.32.11,4.01-1.04.86-.08,1.89.23,2.72-.11Z"/>
            <path class="cls-67" d="M194.69,394.43c1.62,1.04,3.45,1.44,4.82,2.81-.61,1.63-1.1,3.54.47,4.71-.41.2-.78-.35-1.22.08-1.02.98-.72,2.05-.69,3.43-1.04-.99-3.32-1.38-4.59-.53-.4.27.06,1.56-.44,1.54-.15-3.04-1.15-6.48-.73-9.54.54-.45,1.03-1.26.77-2.33.7-.14,1.16-.25,1.6-.17Z"/>
            <path class="cls-72" d="M242.87,490.72c.43,1.18,2.53.8,3.82,1.23,1.1,1.15.4,3.42.27,4.98-2.92.62-5.65.65-8.38.65.58-2.05.24-4.18.54-6.28,1.1.08,2.43.2,3.25-.59.25-.24.25-.07.5,0Z"/>
            <path class="cls-174" d="M220.13,359.61c-1.45.2-2.85-.6-4.24-.14-.36.12-.7-.05-.56-.45,1.71-.57.31-3.38.94-3.86.43.02.74-.23,1.12-.43.55.84,1.63.22,2.61.72.3,1.38.41,2.84.13,4.15Z"/>
            <path class="cls-132" d="M208.45,358.97c2.27.23,4.59.04,6.88.05-.13.4.21.57.56.45.36,4.83.72,9.76,1.6,14.68.26,1.47,2.4,3.07,1.09,5.14l-20.77-.71-.13-5.15c-1.77.09-2.83-.48-3.6-1.6.57-.88.16-2.6,1.07-3.39.81-.71,2.78.1,3.55-.86.71-.88.22-2.57.74-3.89l4.41-.48c.45-1.17.05-2.34.41-3.69,1.53-.21,2.9-.7,4.2-.57Z"/>
            <path class="cls-109" d="M197.82,378.59c-2.33-.08-4.71.52-7.28-.11.23-.87-.19-1.73-.09-2.43.13-.96,1.04-1.82.57-2.82,1-.4,2.41-.39,3.06-1.38.78,1.12,1.83,1.69,3.6,1.6l.13,5.15Z"/>
            <path class="cls-135" d="M216.28,355.17c-.63.48.77,3.29-.94,3.86-2.29-.02-4.61.18-6.88-.05l.29-3.46c2.65-.3,5.11-.44,7.53-.35Z"/>
            <path class="cls-150" d="M199.98,401.95c1.87,1.39,4.49,1.5,6.78,2.46l5.72,2.38c2.63,1.09,5.21,1.39,8.49,1.27l.86,6.37c.55,4.07,3.9,31.88,3.48,34-.21,1.04.79,1.67.81,2.29.33,7.74,1.23,15.31,2.43,23.14.24,1.58-.31,3.15.55,4.33-1.38-.12-2.89,1.49-4.01,2.15-4.98,2.93-2.88,4.4-8.27,4.88-.99.16-.95-.96-.96-1.84-.09-7.1-.64-14.04-2.33-20.69-1.9-2.48-1.1-5.67-2.22-8.4-.57-1.39-.72-2.79-1.19-4.27l-7.68-24.32c-2.17-6.87-4.2-13.28-4.36-20.24-.03-1.38-.33-2.44.69-3.43.45-.43.81.12,1.22-.08Z"/>
            <path class="cls-45" d="M235.41,484.69c-.68,1.69-2.16,3.05-3.5,4.29.54,1.16,1.72,1.39,1.99,2.28-1.75.2-3.53-.19-5.2.47-.6-3.32-6.23,3.56-7.36,5.98-.4.85-.8,1.55-1.65,1.35-1.11,0-2.23-.15-3.33-.27.93-13.46,2.69-7.11,5.02-12.49.71-1.63,2.55-1.63,4-1.65,3.56-.06,6.79-.14,10.03.06Z"/>
            <path class="cls-66" d="M233.9,491.26c1.72-.19,3.51-.07,5.22.05-.31,2.1.03,4.24-.54,6.28h-5.3c-4.28.02-1.77.17-4.59-1.18.08-1.3.16-2.75-.09-4.01-.04-.23.05-.46.11-.68,1.67-.65,3.45-.27,5.2-.47Z"/>
            <path class="cls-138" d="M228.59,492.4c.25,1.27.18,2.72.09,4.01,2.81,1.35.31,1.2,4.59,1.19l-.12,3.2c-2.97.48-5.59.61-8.57-.17.56-1.44-.45-2.7-.31-4.06.21-2.08,2.57-3.75,4.32-4.17Z"/>
          </g>
          <g>
            <path class="cls-100" d="M100.43,404.98c.57.69,1.06,2.22,1.06,3.1l-.46,64.12c0,1.07.21,2.33,1.22,3.04.88-3.87.94-7.52,1.02-11.32l.73-31.87.62-23.79c8.55-2.05,4.98-3.15,9.55-3.96,1.58-.28,2.92-.76,4.31-.82-.03,5.39,2,5.95,1.34,10.19-.85,5.49.1,11.17-1.25,16.54-1.42,5.66-1.69,11.31-2.29,17.21l-1.37,13.54c-.43,4.27.41,8.78-1.11,12.77l-1.17,3.06c-2.45,6.44.1,5.78-2.07,9.16-3.08-.54-5.16-5.23-8.58-6.8-2.4-1.11-4.86.52-7.05.57l-.35-49.73c-.01-2.03-.21-3.84-.4-6.07l-.58-6.77c-.27-3.1.69-6.84-1.03-9.51-2.15-3.31-2.53-7.39-1.64-11,1.16.18,2.81.89,3.28,2.23s2.42,1.86,2.67,2.81c.55,2.07,2.02,2.89,3.55,3.3Z"/>
            <path class="cls-35" d="M129.61,373.12c.87,1.06,2.54.97,4.4,1.01.19,3.22,2.96,7.75.7,10.6-.56.7-2.31-.09-2.65.83-.77,2.13-.26,4.63-1.47,6.72-.3.51-1.5.47-1.7,1.07-.13.38-.13.91.08,1.44-1.91-.4-4.45-.32-5.82,1.16-3.84-.23-9.06,5.45-15.14,6.54-2.25,4.37-6.98.6-7.58,2.48-1.53-.41-3-1.24-3.55-3.3-.25-.96-2.2-1.49-2.67-2.81s-2.12-2.04-3.28-2.23c-1.74-1.22-.15-3.51-.87-5.27-.81-1.96-.69-4.33-1.31-6.39-.8-.43-2.8.27-3.35-.45l-.47-15.4c1.97.04,2.92-1.13,4.28-1.6-.21,3.36-.09,6.86.08,10.55,1.49.5,2.47-.12,3.63,0,2.18,1.42,5.1,1.32,7.6.96.6-.09,1.45-.13,2.08-.13,6.73.06,13.42-.1,20.44-.4.5-1.6.97-3.45.63-5.23-2.82-.65-3.81-3.23-5.46-5.05,1.56,1.71-5.9-4.93-4.53-4.1l-3.18-1.9c.18-.78-.26-1.52-.14-2.29.05-.33.28-.62.29-.95.83.19,2.5-.64,3.19.15,1.35,1.99,3.38,2.82,5.31,4.84.35,1.67,1.82,2.1,3.53,3.07,1.1.63,1.77,2.84,3.91,2.1.55.97.35,2.13.68,3.05.36,1.01,1.74.81,2.33.91Z"/>
            <path class="cls-163" d="M122.69,402.84c.42,0,.78.46.77,1.01l-.08,16.12-.54,14.16c-.03.73.59,1.42.92,1.9.34.51.88-.84,1.54-.33-.89,2.19-.14,5.07-1.37,7.23-.47.82-1.06,1.01-1.13,2.37-.21,3.88-.29,7.73-1.54,11.34-1.37,3.96-2.67,17.96-2.55,22.98l.21,8.52c-.25.29-.4.13-.61.13-.37.02-.24-1.09-.39-1.24-.78-.79-2.91-1.31-4.01-.78-1.46.7-2.21-.1-3.31-.29,2.18-3.38-.38-2.72,2.07-9.16l1.17-3.06c1.52-3.99.68-8.5,1.11-12.77l1.37-13.54c.59-5.9.87-11.55,2.29-17.21s.4-11.05,1.25-16.54c.66-4.25-1.38-4.8-1.34-10.19,1.32-.06,2.78-1.08,4.2-.63Z"/>
            <path class="cls-105" d="M128.97,394.8c.6.13,1.07.37,1.48.61.52.31-.16,1.89.2,2.24,3.2,3.09,1.44,7.99,1.34,8.63-.67,4.19-.33,8.63-.69,13.04-.15,1.8-1.17,2.05-1.97,3.23-1.15,1.7-.13,4.36-1.34,5.82-2.79,3.37.08.45-2.69,7.33-.66-.5-1.2.85-1.54.33-.32-.48-.94-1.17-.92-1.9l.54-14.16.08-16.12c0-.56-.35-1.02-.77-1.01.59-.67.73-1.48.91-2.58l.4-2.43c.09-.53-1.47-1.23-.84-1.87,1.37-1.48,3.9-1.56,5.82-1.16Z"/>
            <path class="cls-39" d="M120.44,497.1c-.06,2.21.39,4.55-.38,6.95-.72,2.21-.03,4.49-.55,6.99l-30.19.5c-4.35.07-8.48.11-12.67.14-.82-1.36.22-2.66-.09-3.51,5.13-.35,10.3-.06,15.45-.03,2.98.01,6.03.04,9.04-.67-.1-.97-.24-2.37.52-2.4l6.25-.2c.57-.54,1.44-1.69,2.34-2.32,1.06-1.18.05-3.19.55-4.77,1.42.3,3.13-.31,4.2-.51,1.85.17,3.68.03,5.53-.18Z"/>
            <path class="cls-162" d="M101.44,491.38c-2.14,1.68,3.47,2.3,2.84,5.1-.26,1.18-2.36,1.04-3.29,1.09-3.11.18.91,4.99-8.14,5.98l-.84,4.59c-5.15-.02-10.32-.32-15.45.03-.57-1.52-.36-3.25-.57-4.64l3.28-.48c1.18-2.63,3.75-3.81,6.42-5.05,3.18-1.47,7.27.01,11.09-1.05,1.3-.36,1.33-5.57,1.02-5.64.22-.48.43-1.04.9-1.57,1.2.81,2.05,1,2.74,1.65Z"/>
            <path class="cls-27" d="M110.57,485.95c1.1.19,1.85,1,3.31.29,1.1-.53,3.23,0,4.01.78.15.15.02,1.26.39,1.24.21,0,.36.15.61-.13,2.49-1.03,1.59,7.22,1.54,8.97-1.86.21-3.69.35-5.53.18l-.73-7.52c-1.62-.31-3.99.23-4.88-1.07-.49-.72-5.24-4.08-6.27-4.23-1.61-.24-3.1-.23-4.7,0-1.47.21-3.06-.18-4.74-.05-.16-1.69.24-2.96.49-4.31.38.08.5-.39.86-.4,2.2-.05,4.66-1.68,7.05-.57,3.42,1.58,5.5,6.27,8.58,6.8Z"/>
            <path class="cls-21" d="M97.81,491.31c.31.07.27,5.28-1.02,5.64-3.82,1.06-7.9-.42-11.09,1.05-2.67,1.23-5.24,2.41-6.42,5.05l-3.28.48c-.49-3.37.6-6.37,4.18-7.86,1.06-.44,1.3-2.43,2.22-3.2,1.01-.84,2.48-.34,3.16-1.21,4.1.12,8.18-.56,12.25.04Z"/>
            <path class="cls-5" d="M101.56,355.26c.5.96.99,3.17-.23,3.82-1.49.8-4.44-.39-5.7.9-3.51,3.59-3.16,7.25-2.95,12.56l.23,5.53c-1.15-.11-2.13.51-3.63,0-.18-3.68-.29-7.19-.08-10.55.13-2.17,1.27-4.48,1.13-6.9,1.48-.26,2.39-.29,3.48-.74l.45-4.49c1.51.17,2.49-.15,3.46-.62,1.21-.25,2.62.55,3.83.49Z"/>
            <path class="cls-18" d="M103.03,484.47c-2.02,3.76,2.8,7.9-1.59,6.91-.68-.64-1.54-.83-2.74-1.65-.47.53-.68,1.09-.9,1.57-4.07-.6-8.15.07-12.25-.04.2-1.99-.04-4.08.71-6.19,1.62-.44,3.14-.29,4.55-.2-.37,1.25-.98,2.79-.9,4.17,2.79-.23,5.07-.87,7.73-.47.09-1.6.99-2.74.69-4.11,1.59-.23,3.09-.24,4.7,0Z"/>
            <path class="cls-100" d="M94.08,480.11c-.25,1.35-.66,2.62-.49,4.31,1.68-.13,3.27.26,4.74.05.3,1.37-.6,2.52-.69,4.11-2.65-.39-4.93.24-7.73.47-.08-1.39.53-2.93.9-4.17l1.32-4.48c.22-.76,1.59-.28,1.96-.29Z"/>
            <path class="cls-107" d="M110.65,359c0,.33-.24.63-.29.95-1.45-.66-3.15-.31-4.73-.83-.55-.18-1.07-.85-1.72-.65-.39.12-1.15.41-1.24,1.19l-2.14,19.39c-2.49.36-5.42.46-7.6-.96l-.23-5.53c-.22-5.31-.56-8.97,2.95-12.56,1.26-1.29,4.21-.1,5.7-.9,1.21-.65.72-2.86.23-3.82,2.84-.15,5.65-.12,8.8.02.15,1.39.31,2.55.29,3.72Z"/>
            <path class="cls-9" d="M104.63,408.25l-.62,23.79-.73,31.87c-.09,3.8-.14,7.45-1.02,11.32-1.01-.71-1.22-1.97-1.22-3.04l.46-64.12c.98-.43,2.17.41,3.13.18Z"/>
            <path class="cls-64" d="M123.15,395.96c-.63.64.92,1.34.84,1.87l-.4,2.43c-.18,1.1-.31,1.91-.91,2.58-1.41-.45-2.88.57-4.2.63-1.39.06-2.73.54-4.31.82-4.58.81-1,1.91-9.55,3.96-.97.23-2.15-.6-3.13-.18,0-.88-.48-2.41-1.06-3.1.6-1.88,5.33,1.89,7.58-2.48,6.08-1.09,11.29-6.77,15.14-6.54Z"/>
            <path class="cls-113" d="M102.6,378.91l2.34-15.9c2.27.33,4.68,1.06,5.56-.77l3.18,1.9c-1.38-.82,6.08,5.82,4.53,4.1,1.65,1.82,2.64,4.4,5.46,5.05.34,1.78-.13,3.62-.63,5.23-7.02.29-13.7.45-20.44.4Z"/>
            <path class="cls-2" d="M110.36,359.95c-.12.77.32,1.51.14,2.29-.88,1.83-3.28,1.09-5.56.77l-2.34,15.9c-.63,0-1.48.04-2.08.13l2.14-19.39c.09-.78.85-1.07,1.24-1.19.65-.2,1.17.47,1.72.65,1.58.53,3.29.18,4.73.83Z"/>
            <path class="cls-177" d="M114.9,497.29c-1.07.2-2.78.81-4.2.51-.5,1.58.51,3.58-.55,4.77-.89.62-1.76,1.78-2.34,2.32l-6.25.2c-.76.02-.62,1.43-.52,2.4-3.01.71-6.06.68-9.04.67l.84-4.59c9.05-.99,5.03-5.8,8.14-5.98.93-.05,3.03.08,3.29-1.09.63-2.8-4.98-3.42-2.84-5.1,4.39.98-.44-3.15,1.59-6.91,1.03.15,5.78,3.51,6.27,4.23.89,1.3,3.26.76,4.88,1.07l.73,7.52Z"/>
          </g>
        </g>
        <path class="cls-28" d="M259.92,276.36c.19,3.34-.44,6.8.25,10.23.17.84,1.5,1.45.74,2.42-3.41-1.07-7.04-1.87-10.09-4.16-.97-.73-1.58-2-2.2-2.82,1.92-2.16.29-6.85,1.63-7.4.79.31,10.87-.08,9.67,1.74Z"/>
        <g>
          <path class="cls-44" d="M259.81,266.4c.41.99,2.02,1.18,3.02.73.23.88.15,1.52.77,1.3.08.87,1.05,1.26,2.09,1.38,1.43.17,1.21,1.43,1.19,2.55s-1.46,1.15-3.09,1.03l-.28,5c-.14-.14-.69-.01-.75-.18-.48-1.24-1.57-2.05-2.82-1.84,1.19-1.82-8.88-1.43-9.67-1.74-.03-.5-.1-1.03-.48-1.35-.63-.53-.94.36-1.47.54-6.44,2.16-4.89,3.21-9.49,1.55.07-1.88-.07-4-.26-5.85,3.11.55,6.19-1.01,8.55-2.86,4.14-1.19,9.57.6,12.69-.26Z"/>
          <path class="cls-145" d="M259.47,271.92c-1.4.47-10.15.88-10.48-.72-.1-.46-.08-1.39.84-1.41l8.85-.16c1.04-.02,1.79,1.95.79,2.29Z"/>
        </g>
        <path class="cls-130" d="M157.62,240.81c.72-.02,1.7-.08,2.18.56.58.93.82,2.11.81,3.35l-.03,9.16c-.78.08-2.88.01-3.06-.81-.56-2.52.74-4.91.36-7.37-.13-.86-1.48-1.02-2.37-1.01l-7.18.14c-.42,1.35-.19,2.43-.63,3.44,1.07-.37,1.45-.66,1.73-.42,1.49,1.29-1.6,3.04-.94,4.82.89.01,1.65-.03,2.23.53-.94,1.26-2.58,2.24-4.11,2.71-.58.18-1.16-.12-1.74-.2-.14-4.8-.49-9.71.54-14.76,4.26-.37,8.26-.01,12.21-.14Z"/>
        <g>
          <path class="cls-41" d="M174.49.91c.08.72-.27,2.86.59,3.27,2.39.89,4.87.31,7.24,1.44.51,1.53.05,3.2.22,5.08,5.18,2.22,2.55-.31,5.75,3.47,1.46,4.73,2.29-1.89,2.85,7.44.11,1.82,1.26,2.61,3.3,2.38l1.34,8.65c1.09.37,1.85-.02,2.92.54-.61,2.36.62,4.23.75,6.44.82,13.47.42,26.58.47,39.67l-4.02.43-.52,27.28-1.28,5.73-1.83,12.54c-.15,1.01-.93,2.04-.96,3.37l-.34,14.34c0,1.51-.79.26-2.58,1.51-3.96,2.43-2.36-12.31-2.2-13.77.26-2.31.66-4.63.57-6.95,1.85-2.1,1.14-5.38,2.35-7.95l1.47-3.11c3.09-6.54.66-15.59.07-23.17-.07-.88-.1-2.54.09-3.37.58-2.55-.25-5.17.06-7.72.22-1.84-.15-3.64-.12-5.46l.22-17.42c-1.78-.16-3.2-1.64-4.78-1.61.18-1.16-1-1.46-2.06-2.08-1.14-.66-.44-2.36-.98-3.29-.21-.37-1.14-.23-1.41-.37-.36-.2-.82-1.08-.68-1.56.58-1.96-1.03-2.32-1.38-3.17-1.07-2.64-2.29-10.83-4.12-10.68-.7-1.06.02-3.46-1.19-3.55-.24-.02-.67.32-.64.88l1.04,17.68c.06.97-.33,1.74-.39,3.14,2.43,1.97,7.34-1.12,7.67,2.93-1.55,3.22-27.6-4.69-26.88-8.11-.62-.44-1.76-.29-2.25-.56-.7-.39-.42-1.56-.9-2.06-1.41-1.49-1.74-2.92-2.5-4.48-2.05-4.23-2.25-8.99-2.26-14.16-2.48,1.82-2.91,4.53-2.88,7.21.04,3.17-.43,15.25,1.06,16.76.44.45,1.15.38,1.72.24.35.1.5.64.43.99-.55.69-.69,1.55-.44,2.66-.42.52-1.05.61-1.56.71-1.54-.72-3.76-.68-5.18-2.04-2.97-2.85-2.77-4.9-3.13-6.59-.17-.78-1.79-.21-1.92-.84l-1.26-5.84c-1.44-6.71-2.02-6.97.3-13.85.67.06,1.21-.4,1.6-1.12-1.19-.45-1.42.64-1.6,1.12-.64.19-1.35.22-1.82.42-1.72.74-.59,2.7-1.18,3.64-.48.77-2.75.32-3.35.86-1.29,1.15.79,4.11-2.53,4.63-.4,2.81-1.47,5.96-2.43,8.8-.35,1.05.27,2.53-.99,3.13-.43.2-1.34-.04-1.72.18-1.38.78-.75,9.93-.76,11.52,0,3.07-.83,6.35.33,9.14-.88,1.76-.23,4.29-.45,6.18-.39,3.23.08,6.46.04,9.67l-.24,18.99c-.05,3.95.9,16.07,4,17.92-.45,1.45.21,2.92.32,4.32-.56,1.58-.87,3.05-2.4,4.3-.02-3.74-2.13.19-3.5-7.77-.46-.25-.92-.07-1.32-.19-.25-.07-.5-.06-.73-.1-.34-.06-1.67-5.85-1.21-7.41l-3.05-1.41c-.8-4.75.59-9.94-1.02-14.24l-1.14-3.03c-.76-.1-1.16.19-1.52-.18l-.02-39.34c0-1.51.54-2.99.54-4.45v-9.78c0-3.8,2.42-5.84,3.44-8.4,1.34-3.38,2.34-6.46,4.01-9.78,1.15-2.29,3.01,1.51,5.09-6.47,1.1-.62,2.69-.58,3.37-1.4,2.19-2.65,8.5-7.45,8.69-7.52,2.89-1.18,4.85-2.02,7.11-4.57,1.41-1.11,5.09-1.3,7.04-1.29l19.72.05c2.77,0,5.71-1,7.81.6Z"/>
          <path class="cls-29" d="M266.7,163.02c-1.52.03-5.91-.54-6.36,1.52-1.9-2.44.03-5.92-1.25-8.62-1.14-2.41-.44-5.39-1.69-7.41-.83-1.34-1.43-2.15-1.63-3.94-.23-2.09-1.65-4.03-1-6.52l-3.67-.75c-.38-5.93-5.85-2.17-5.58-5.52.07-.84-.08-1.45-.34-2.07-.32-.77-1.47-.31-2.14-.8s-.18-1.72-.72-2.08-1.79-.72-2.48-.59c-2.03.39-1.88-1.1-2.74-1.67-1.4-.92-3.24-1.46-4.84-2.72-.73-.58-2.76.6-3.2-.72-.23-.68.14-1.87-.92-2.21-5.72-1.86.34-2.13-7.17-4.57-.75-1.05-.33-2.29-.7-3.51-1.12-.5-2.08-.31-3.61-.53.92-3.05-1.23-3.38-2.59-4.75-2.63-2.67-.46-9.3-5.09-10.33l-2.03-14.7c-.16-1.16-2.01-1.93-1.03-4-1.07-7.06-1.55,8.19-1.54,7.63l-.78,25.91c-.04,1.32-.14,2.44.6,3.29-.34,1.7-1.64,3.56-3.65,3.69-.29-.84-.47-1.54-.48-2.75l-.15-34.99c-.06-13.09.35-26.2-.47-39.67-.13-2.21-1.36-4.08-.75-6.44-1.07-.56-1.83-.17-2.92-.54l-1.34-8.65c-2.04.23-3.19-.56-3.3-2.38-.56-9.34-1.39-2.71-2.85-7.44.22-2.81,2.11-.94,3.19-3.74,1.22-.2,3.25-.34,4.07,1.11.35.61-.12,1.73.5,2.08,1.43.8,3.42.1,3.7.78.66,1.61.05,3.4.64,5.13,1.63.26,2.78.23,4.52.71-.9,7.3,3.4-1.29,3.86,12.11l2.64,1.02c.88,6.49.89,12.87.99,19.38l.27,19c1.15-.04,2.86-.39,3.04.63.43,2.5-.06,4.8.47,7.16,1.04.27,2.07.06,3.04.67.43,3.17-.2,6.84.75,9.82l2.57.85c.92.3.03,3.93,1.05,4.81.32.28,1.31-.01,1.67.62.99,1.75.39,3.93.72,5.87.31,1.77,3.05.67,3.65,1.44.89,1.14.93,2.41,3.02,2.37.86.26.07,2.55.59,3.04,2.06,1.9,5.42,1.58,7.87,2.92.97.53,1.22,2.38,2.97,2.18s1.97,1.41,2.46,2.82c.42,1.21,2.6.72,3.53,1.11,1.26.52.64,2.13,1.15,3.07.63,1.17,2.91.35,3.62,1.32.78,1.08.37,3.16,2.34,3.31,3.04.23,1,1.73,4.57,5.72.96,1.07,0,3.32,1.05,4.05s1.59,1.26,1.74,2.67l.92,8.46c.07.63,1.14.91,1.21,1.52.59,5.12.57,10.04.02,14.83Z"/>
          <path class="cls-128" d="M260.35,164.54c.18,1.38-.41,3.21.19,4.65.15.37,1.6.02,1.61.59,0,.3.41.96.27,1.2-.85.71-.04,2.97-.83,3.79-2.27,1.67-1.48,3.89-2.64,5.25s-3.83-.65-3.92,2.09c-.06,1.96.13,4.64-1.22,6.13-.55.6-2.46.16-2.94,1.08-.4.76-.29,1.7-.29,3.06l-4.08.77c-.44,1.08.05,2.25-.22,3.47-1.71.96-3.64.52-5.1.34-.36-1.23.29-2.45-.3-3.9-1.28-.04-2.59-.81-3.7-.91.18-2.68-2.52-8.38-2.7-11.76.61-.21,1.58-.81,2.66-.12l.99-2.34c.41-.95.83-1.15.99-2.05.13-.77.31-1.35.12-2.44-.14-.79-1.89-.55-2.24-1.21-.87-1.99.09-4.38-.15-6.56-.19-1.72-.96-3.64.07-5.01.67-.88.3-1.89.56-2.81.58-1.98-.82-2.16-1.55-3.24-1-1.48-.45-3.97-.91-5.87l-2.59-10.77c-.47-1.97-3.26,1.31-3.67-7.28-1.64-.91-3.61-.55-5.03-1.87.53-1.41.48-2.86-.28-3.19-1.31-.58-2.4-.36-3.29.33-.18-.86.12-2.15-.59-3.24s-2.46-.53-3.31-1.44c0-1.37-.64-2.21-1.98-2.19-.8.01-1.56-.12-1.79-.51-.83-1.42-.2-2.46-.76-4.05-.06-.18-5.28-2.73-7.54-1.17-.75-.86-.64-1.97-.6-3.29l.78-25.91c-.02.56.46-14.69,1.54-7.63-.99,2.07.87,2.84,1.03,4l2.03,14.7c4.64,1.02,2.46,7.66,5.09,10.33,1.36,1.38,3.52,1.71,2.59,4.75,1.54.21,2.49.03,3.61.53.37,1.22-.05,2.46.7,3.51,7.5,2.44,1.45,2.71,7.17,4.57,1.06.34.69,1.54.92,2.21.44,1.32,2.47.14,3.2.72,1.6,1.25,3.44,1.79,4.84,2.72.85.56.71,2.06,2.74,1.67.69-.13,1.94.23,2.48.59s.09,1.61.72,2.08,1.82.04,2.14.8c.26.63.41,1.23.34,2.07-.26,3.35,5.2-.4,5.58,5.52l3.67.75c-.65,2.49.76,4.43,1,6.52.2,1.79.8,2.6,1.63,3.94,1.25,2.02.54,4.99,1.69,7.41,1.28,2.7-.65,6.18,1.25,8.62Z"/>
          <path class="cls-160" d="M191.48,10.42c-1.08,2.8-2.97.93-3.19,3.74-3.2-3.78-.57-1.25-5.75-3.47-.17-1.88.29-3.55-.22-5.08-2.37-1.13-4.85-.55-7.24-1.44-.87-.41-.51-2.55-.59-3.27.83-.88,7.28,1.04,7.01.54,3.41,6.36,7.51,2.86,9.98,8.98Z"/>
          <path class="cls-122" d="M116.36,119.64c-.51.76-1.16,1.22-.62,2.15-.6-1.46-2.45-2.56-2.52-4.34-.09-2.26,1.15-1.91.06-3.43-.28-.39-1.08-.19-1.52-.38-.42-.77-.59-1.61-1.81-1.56-.86.04-1.52.41-2.14.26-.8-5.19-.11-14.05-.12-19.06.36.37.76.08,1.52.18l1.14,3.03c1.61,4.3.22,9.49,1.02,14.24l3.05,1.41c-.46,1.56.87,7.34,1.21,7.41.23.04.48.03.73.1Z"/>
          <path class="cls-85" d="M266.7,163.02c-.18,1.54.38,3.29-.42,5.02-.36.78-1.45.8-2.01,1.52-.29.38-.04,1.07-.53,1.25-.46.17-.86.1-1.32.17.14-.24-.26-.9-.27-1.2-.01-.56-1.46-.21-1.61-.59-.59-1.45,0-3.28-.19-4.65.45-2.07,4.83-1.49,6.36-1.52Z"/>
          <path class="cls-159" d="M123.26,83.61c.27.56.11,1.06.32,1.42.41.7,1.57.55,2.42.78,1.12.69.11,2.96,1.06,3.89,1.47,1.44,3.01,2.49,2.7,4.79l4.03.72.36,3.02,4.55,1.16.45,2.38c.17.91,3.21-.05,4.33.39.63.25.2,1.52.68,1.96.86.77,2.37.54,3.38.7.04,2.11.59,4.31.1,6.3,1.31-1.39-9.08-.4-9.8-.29l-.5,11.97c-.08,2.04-5.31,1.1-6.64,4.7-.75.07-1.46.32-2.19.03-.02-1.64.21-3.74-.51-5.46-.22-.52-1.83-.15-2.17-.61-1.02-1.37-.13-4.13-1.76-3.85-.41.07-.68.94-.8,1.34-3.1-1.85-4.05-13.97-4-17.92l.24-18.99c1.34.15,3.12.2,3.76,1.54Z"/>
          <path class="cls-97" d="M190.67,89.52c.59,7.58,3.02,16.64-.07,23.17l-1.47,3.11c-1.22,2.58-.51,5.85-2.35,7.95-1.08.05-2.38.42-3.5-.18-.32-.17-.11-1.17-.55-1.25s-1.21-.04-2.08-.12c-.85-3.23-.04-6.8-.37-10.05-.31-3.02-4.8-1.65-7.21-1.09-1.52-1.97-.8-5.94-.34-6.54.72-.95,1.85-1.47,1.36-2.84.8.03.73-1.32,1.45-1.57,1.83-.63,4.93-.8,5.86-2.68s2-2.37,4.37-2.3c.48-.96,1.67-3.52,1.44-4.65,1.32.34,2.32-.38,3.45-.96Z"/>
          <path class="cls-50" d="M149.47,38.66c.76,1.56,1.09,2.99,2.5,4.48.48.51.2,1.67.9,2.06.49.28,1.63.13,2.25.56-.71,3.41,25.33,11.33,26.88,8.11,1.3.22,2.81.41,4.14.08,1.57-.03,3,1.44,4.78,1.61l-.22,17.42c-1.55-.63-3.5-.55-4.95.52.46-2.21.38-4.51.55-6.72.62-1.56,2.24-2.63,2.43-4.38-1.21-.21-2.12.31-2.46-.34s0-1.37.12-2.56l-19.61.78c-.66-1.34-.39-3.29-1.44-4.56-1.54-1.85-10.19,2.44-17.81-6.01.07-.35-.08-.88-.43-.99l.69-10.87c1,.19,1.07,1.17,1.68.83Z"/>
          <path class="cls-52" d="M199.93,79.28l.15,34.99c0,1.21.19,1.92.48,2.75.44,1.29-.22,2.99-1.7,3.57.29,2.36-.6,4.18-2.42,4.71-1.07,4.8-3.97,8.25-3.35,12.38.13.47,1.68.3,1.64,1.05l-.12,4.77-1.4.88.42.91c.08.17-.26.5-.51.35-.64-.97-1.17-2.16-2.13-2.67l.34-14.34c.03-1.34.81-2.36.96-3.37l1.83-12.54,1.28-5.73.52-27.28,4.02-.43Z"/>
          <path class="cls-102" d="M134.35,23.9c-2.33,6.87-1.74,7.14-.3,13.85l1.26,5.84c.14.63,1.76.06,1.92.84.36,1.69.16,3.74,3.13,6.59,1.42,1.36,3.64,1.32,5.18,2.04.51.37,1.15,1.12,1.43,1.94-3.33.67-6.64.61-9.56-.94-.37-.68-3.38-8.77-3.09-8.39-1.74-2.29-2.62-4.84-1.88-7.65-.69-.73-2.15.04-2.3,1.07-.45,3.12-3.65,7.37-3.28,10.54-1.51.45-1.73,2.11-2.34,3.29-1.18,2.29-2.14,4.28-4.94,4.15,0-1.59-.62-10.74.76-11.52.37-.21,1.29.03,1.72-.18,1.26-.6.64-2.08.99-3.13.95-2.84,2.02-5.99,2.43-8.8,3.32-.52,1.25-3.49,2.53-4.63.6-.54,2.87-.08,3.35-.86.59-.95-.54-2.9,1.18-3.64.47-.2,1.18-.23,1.82-.42Z"/>
          <path class="cls-134" d="M186.14,53.95c-1.33.33-2.84.15-4.14-.08-.34-4.05-5.24-.96-7.67-2.93.05-1.39.45-2.16.39-3.14l-1.04-17.68c-.03-.56.4-.9.64-.88,1.21.09.49,2.48,1.19,3.55,1.83-.16,3.05,8.04,4.12,10.68.34.85,1.96,1.21,1.38,3.17-.14.49.32,1.36.68,1.56.27.15,1.19,0,1.41.37.55.93-.16,2.62.98,3.29,1.07.62,2.25.92,2.06,2.08Z"/>
          <path class="cls-1" d="M149.47,38.66c-.61.34-.67-.63-1.68-.83l-.69,10.87c-.57.14-1.28.21-1.72-.24-1.48-1.51-1.02-13.59-1.06-16.76-.03-2.68.4-5.39,2.88-7.21,0,5.17.2,9.93,2.26,14.16Z"/>
          <path class="cls-167" d="M123.71,71.91c.01,1.65.68,11.34-.45,11.7-.65-1.35-2.42-1.39-3.76-1.54.04-3.21-.42-6.44-.04-9.67,1.45.4,2.8-.36,4.25-.49Z"/>
          <path class="cls-42" d="M124.52,52.92c-.28.89-.38,1.72.26,2.46-1.55-.29-1.02,8.36-1.13,8.04.01,1.01-.49,1.95-1.28,2.6s-1.52.5-2.46.19c-1.17-2.79-.34-6.07-.33-9.14,2.8.12,3.76-1.87,4.94-4.15Z"/>
          <path class="cls-147" d="M128.5,127.54c-.09.66-1.11,1.08-1.55,1.47-1.16-.22-.63-1.6-1.28-2.21-1.35-1.28-1.96-1.79-2.09-3.51-.11-1.4-.77-2.87-.32-4.32.13-.4.4-1.27.8-1.34,1.63-.29.74,2.47,1.76,3.85.34.46,1.95.09,2.17.61.72,1.72.48,3.82.51,5.46Z"/>
          <path class="cls-62" d="M123.71,71.91c-1.45.13-2.79.89-4.25.49.23-1.9-.42-4.42.45-6.18.93.31,1.69.44,2.46-.19s1.29-1.59,1.28-2.6c.9,2.67.03,5.58.06,8.49Z"/>
          <path class="cls-22" d="M190.82,78.43c-.31,2.55.53,5.17-.06,7.72-.99-.06-1.96.57-2.91.13-.86-.42-.1-7.08-.12-7.07l3.08-.77Z"/>
          <path class="cls-58" d="M190.76,86.15c-.19.83-.16,2.49-.09,3.37-1.13.58-2.13,1.31-3.45.96-.32-1.57-.08-2.8.63-4.21.95.44,1.92-.19,2.91-.13Z"/>
          <path class="cls-170" d="M134.35,23.9c.19-.48.42-1.57,1.6-1.12-.39.72-.93,1.18-1.6,1.12Z"/>
          <path class="cls-143" d="M220.17,125.95c-.65.12-.84-1.06-1.4-.86-.67.42-.98.21-1.32.13,1.31.31-5.64-8.87-13.75-3.53-2.41,2.29-4.07,5.9-5.71,8.55-1.03,1.67-2.16-1.52-1.41,8.3l-1.86.21c.05-.75-1.51-.58-1.64-1.05-.62-4.13,2.28-7.58,3.35-12.38,1.81-.53,2.71-2.36,2.42-4.71,1.48-.58,2.14-2.28,1.7-3.57,2-.13,3.31-1.98,3.65-3.69,2.26-1.56,7.47.99,7.54,1.17.56,1.59-.07,2.63.76,4.05.23.39.99.52,1.79.51,1.34-.02,1.98.81,1.98,2.19.85.91,2.58.32,3.31,1.44s.42,2.38.59,3.24Z"/>
          <path class="cls-158" d="M174.09,101.68c.49,1.37-.63,1.89-1.36,2.84-.46.6-1.18,4.58.34,6.54l-.28,1.11c-5.19,3.23-3.76,1.25-6.54,2.32-3.19,1.22-6.48,1.81-9.65,2.47-1.81.38-3.72-1.04-4.99-2.36-1.9,1.94-2.86-.02-4.01-.21.45-.99-.2-2.3.04-3.26.49-2-.06-4.2-.1-6.3,1.6.92,3.15,1.87,5.19,1.61.75-.1-.98,5.6,14.49-1.08,6.22-2.69-.44-2.39,6.87-3.67Z"/>
          <path class="cls-8" d="M186.3,66.76c-2.61,1.31-1.85-3.53-3.83-2.94.46,2.45.03,4.46.02,6.46-.48-.29-.92-.44-1.31-.46-1.13-.05-.48,1.6-.93,1.81-1.41.65-3.53.59-5.32.88-1.07-.92-.08-1.79-.3-2.72.73.02,1.02-.83,1.1-1.32.13-.84-.26-1.54-.91-1.64-.74-.12-1.44-.06-2.01.3-.31.14-.34-.3-.47-.48-.13-.79.11-1.95.07-2.89-.93-.43-2.67.46-3.08,1.22-.2-3.37-1.49-1.61-2.4-3.11-.31-.51.11-1.08-.15-1.61l19.61-.78c-.12,1.19-.46,1.91-.12,2.56s1.25.13,2.46.34c-.19,1.75-1.81,2.82-2.43,4.38Z"/>
          <path class="cls-98" d="M172.81,67.13c-.31.62-.46,1.62.02,2.13s1.21.58,1.81.53c.22.93-.77,1.79.3,2.72,1.79-.29,3.91-.23,5.32-.88.45-.21-.2-1.86.93-1.81.39.02.83.17,1.31.46-.01,1.63.04,3.23-.59,4.79-.54-.42-.29.9-.58.93-2.36.08-5.1.2-7.4-.01-1.9-2.62-2.58-6.32-1.58-9.33.13.18.16.62.47.48Z"/>
          <path class="cls-154" d="M172.34,66.65c-1,3.01-.32,6.71,1.58,9.33-1.43-.13-2.76.92-4.73,0,.15-3.72-.67-7.53.14-10.99.41-.75,2.15-1.65,3.08-1.22.04.94-.19,2.1-.07,2.89Z"/>
          <path class="cls-175" d="M186.3,66.76c-.18,2.21-.09,4.51-.55,6.72-1.17.86-2.47,3.55-3.85,1.59.63-1.55.57-3.15.59-4.79.02-2.01.44-4.01-.02-6.46,1.98-.59,1.22,4.25,3.83,2.94Z"/>
          <path class="cls-87" d="M147.64,111.13c-.23.96.41,2.27-.04,3.26-2.49-.42-4.76-1.51-7.33-2.17-.64,1.24.02,2.19-.01,3.14-.06,2.35-.36,5.76.23,7.99.26.55,2.56,1,1.56,1.85-.84.72-2.33-.14-3.62-.29-.48.44-.74,1.1-.59,1.66-.96.36-1.4.85-1.63,1.9s-1.75.46-2.4.64c-.11-1.04-1.54-.32-2.07-.3-.38-.46-.49-1.35-1.04-1.3,1.34-3.6,6.56-2.66,6.64-4.7l.5-11.97c.73-.12,11.11-1.11,9.8.29Z"/>
          <path class="cls-126" d="M174.63,69.8c-.6.04-1.34-.03-1.81-.53s-.32-1.51-.02-2.13c.57-.36,1.28-.42,2.01-.3.65.1,1.03.8.91,1.64-.07.49-.37,1.34-1.1,1.32Z"/>
          <g>
            <path class="cls-139" d="M145.53,53.06c.51-.1,1.14-.19,1.56-.71-.25-1.12-.11-1.98.44-2.66,7.61,8.45,16.27,4.16,17.81,6.01,1.05,1.27.78,3.22,1.44,4.56.26.53-.16,1.1.15,1.61.91,1.51,2.2-.25,2.4,3.11-.81,3.46.02,7.27-.14,10.99,1.98.92,3.3-.13,4.73,0,2.29.21,5.04.09,7.4.01.29-.02.04-1.34.58-.93,1.37,1.96,2.68-.73,3.85-1.59,1.45-1.06,3.4-1.15,4.95-.52-.02,1.83.35,3.63.12,5.46l-3.08.77s-.74,6.66.12,7.07c-.71,1.41-.95,2.64-.63,4.21.23,1.14-.96,3.69-1.44,4.65-2.37-.08-3.41.38-4.37,2.3s-4.03,2.05-5.86,2.68c-.72.25-.66,1.59-1.45,1.57-7.32,1.28-.65.98-6.87,3.67-15.47,6.68-13.74.98-14.49,1.08-2.04.26-3.59-.68-5.19-1.61-1.01-.15-2.52.08-3.38-.7-.48-.44-.05-1.7-.68-1.96-1.12-.45-4.16.51-4.33-.39l-.45-2.38-4.55-1.16-.36-3.02-4.03-.72c.31-2.3-1.23-3.35-2.7-4.79-.95-.93.06-3.2-1.06-3.89-.85-.24-2.01-.08-2.42-.78-.21-.36-.05-.86-.32-1.42,1.13-.36.46-10.05.45-11.7-.03-2.91.85-5.81-.06-8.49.11.33-.43-8.33,1.13-8.04,2.16-.72,4.93-1.35,6.06-3.76.7-1.5-4.38-1.19-3.98-1.99-.37-3.18,2.84-7.42,3.28-10.54.15-1.03,1.61-1.79,2.3-1.07-.73,2.81.14,5.36,1.88,7.65-.29-.38,2.72,7.71,3.09,8.39,2.92,1.56,6.23,1.61,9.56.94-.27-.82-.91-1.57-1.43-1.94Z"/>
            <g>
              <path class="cls-10" d="M144.79,70.41l-1.76-.26c-.94-.14-.5,1.6-.94,2.09-1.69.33-3.94.32-5.66.07l.52-2.57c.81-.41,1.32-1.3,1.13-2.25s-1.32-.88-2.17-1.21c-.49-.19-1.07-.09-1.2-.69.16-.47-.11-1.29.06-2.07-1.2.09-3.13-.49-3.72.62-.4.75-.39,1.95-.92,2.51-1.98-.44-3.29-2.42-3.62-4.38,1.37.06,2.2.43,2.85-.33.36-.43-.26-1.24-.39-2.35l16.47.35c1.05.02,2.18-.29,2.39.8.13.68.06,1.39-.32,1.84s-2.16,0-2.44.46c-.6,2.31-.19,5.15-.29,7.37Z"/>
              <path class="cls-51" d="M134.71,65.59c-1.07,3.26-.25,6.82.7,10.11-.87.94-2.37.32-3.18-.3-.92-.71-1.58-1.6-1.68-2.95l-.42-5.8c.52-.56.52-1.76.92-2.51.58-1.1,2.51-.53,3.72-.62-.17.77.1,1.59-.06,2.07Z"/>
              <path class="cls-81" d="M135.91,66.27c-.57.76-1.26,1.26-1.04,2.26s1.2,1.09,2.08,1.21l-.52,2.57c1.72.25,3.96.27,5.66-.07.44-.48,0-2.22.94-2.09l1.76.26c-.08,1.62.27,3.08-1.3,4.28-.23.27.05,1.25-.43,1.27l-1.32.06c-2.32.1-4.45.53-6.33-.32-.95-3.28-1.77-6.85-.7-10.11.13.6.71.49,1.2.69Z"/>
              <path class="cls-120" d="M124.77,55.39c-.64-.75-.53-1.58-.26-2.46.61-1.18.83-2.84,2.34-3.29-.4.8,4.68.49,3.98,1.99-1.13,2.41-3.9,3.04-6.06,3.76Z"/>
              <path class="cls-101" d="M162.93,92.98c-.16.24-11.71.33-11.86-.03-.91-2.23,8.69-1.19,11.52-1.15.39,0,.47.97.34,1.18Z"/>
              <path class="cls-79" d="M153.1,83.39c.49.62,1.99.82,1.6,2.24-1.56-.2-2.4-1.47-2.63-2.46-.32-1.41-.16-3.71,1.52-4.4.06,1.66-1.72,3.06-.49,4.63Z"/>
              <path class="cls-171" d="M136.94,69.74c-.88-.12-1.87-.22-2.08-1.21s.47-1.5,1.04-2.26c.84.33,1.97.22,2.17,1.21s-.32,1.85-1.13,2.25Z"/>
            </g>
          </g>
        </g>
        <g>
          <path class="cls-36" d="M156.74,266.41c4.01,1.21,8.63.24,13,.62.45,1.37.05,2.77.34,4.29,1.62.5,3.1.46,4.5.35l-.05,81.05c-6.87,1.02-2.43,1.71-6.18,2.76-.84.23-11.73,3.75-11.69,4.56-2.82.84-5.83-.52-8.63-.58-.14-1.67-2.18-1.66-3.11-2.19l-8.01-4.57c-.66-.38-1.08-1.25-1.75-.7.22-2.6-.14-5.37,1.2-8.17l.5-67.05.13-4.19c1.6-.5,3.13-.93,5.43-1.02l.71-6.82c1.25.85,3.27.06,4.19.79,1.21.96,1.66,1.83,3.49,1.58,2.02-.28,4.6.76,5.92-.72Z"/>
          <path class="cls-152" d="M136.86,276.79l-.5,67.05c-1.34,2.8-.98,5.57-1.2,8.17-.08.92.02,2.55-.82,3.34-.64.61-1.9.07-2.27.67.33-.54-2.79,16.19-2.48,17.11-.6-.1-1.97.1-2.33-.91-.33-.92-.12-2.08-.68-3.05-2.15.74-2.81-1.48-3.91-2.1-1.71-.97-3.18-1.4-3.53-3.07-1.94-2.02-3.96-2.85-5.31-4.84-.69-.79-2.36.04-3.19-.15.02-1.17-.13-2.34-.29-3.72-3.15-.13-5.96-.17-8.8-.02-1.21.07-2.62-.73-3.83-.49-.17-2.53-.33-5.24.32-8.01.36-1.55-.15-2.94.01-4.24.18-1.48.45-3.01.34-4.66l5.08-1.4c1.29-.35,1.8-1.51,1.56-2.91-.27-1.59.75-1.94,1.6-2.77s.01-2.6.79-3.59,2.46-.28,3.21-1.14c.54-1.51-.2-3.55.92-4.8.52-.45,1.91-.03,2.43-.35,1.27-.78.17-3.42,1.26-4.11.48-.31,1.37-.32,2.4-.34l2.7-14.65c1.33.25,2.23.26,2.82.15.89-.16.79-1.28,1.13-1.75.44-.6.99-1.56,1.51-2.1.6.06,1.66.83,2.04-.2l3.61-9.56c1.69.31,2.18,1.36,2.98,2.02l1.35-1.41c.3-2.5.2-4.8-.08-7.43-.13-1.23,1.01-2.65.02-3.96.02-.27.16-.5.42-.71.19-.15.44-.28.7-.09Z"/>
          <path class="cls-14" d="M183.97,308.64c3.68,3.4,1.29,3.14,2.9,7.86l3.8.44c.06,6.96.9,3.73,1.68,5,.48.78-.25,3.1.47,4.07.29.39,1.41.18,1.93.57.3.88-.17,1.8.33,2.85l22.36-.6c.97,6.26.47,12.67,1.03,18.99-.42-.13-.83.17-.96.45-.15.31-.16.67-.15,1.13l.04,5.33c-.38.2-.69.44-1.12.43-2.42-.09-4.88.04-7.53.35l-.29,3.46c-1.29-.13-2.67.35-4.2.57-.36,1.35.05,2.52-.41,3.69l-4.41.48c-.52,1.32-.03,3-.74,3.89-.77.96-2.73.15-3.55.86-.91.8-.5,2.51-1.07,3.39-.65.99-2.06.97-3.06,1.38-.83.34-1.86.02-2.72.11l-1.95-17.72c-.94-.11-1.87.24-2.76-.4-.34-2.06.29-4.09-1.06-5.26-.52-.46-.65-1.92-.34-2.64.77-1.77-1.06-2.73-1.51-4.09-.18-.56-.84-8.04-.84-8.66v-25.29c1.74-.01,2.81-.83,4.11-.64Z"/>
          <path class="cls-33" d="M206.32,237.63c3.89,3.55-.6,6.42,3.75,6.82,1.03.09,1.79-1.34,1.61-2.54-.12-.81-.35-1.99.43-2.1l.45,7.93c1.13.41,2.59-.21,3.14.58.76,1.11-.07,2.6.81,3.51.43.13,1.01.22.95.63-1.05.11-2.6,1.03-2.98,2.05,1.14,1.74,2.76,7.47,3.17,7.63.52.2,1.53.49,1.81,0,.39-.68.03-1.83-.27-2.43-.66-1.31.57-3.22-.61-4.46-.77-.81-.31-1.6-1.12-2.79,2.62-.2,2.47,8.78,3.13,9.18.2.12.6.15,1.15.11,5.32-.4-.29,1.21,5.15,14.14.77,1.83,0,4.12,1.35,5.65.7.25,1.49.07,2.38.22,1.25,11.94-2.45.18.65,11.51.63,2.31-.08,4.44.01,6.51l.13,2.98c-.69.16-1.04-.26-.41-1.3-2.5-1.01-4.54.58-6.99.92l-11.24,1.56c-.38.05-.87.06-1.08.46-.56-.51-1.24-.37-2.23-.37-2.17,0,.72-4.55-3.82-5.25-.82-.12-1.51-.16-1.79-.96-.23-.65,0-1.32.32-1.9,2.22.54,5.5.65,7.51-.97,1.48-1.2.89-3.79,1.23-5.27,1.57,1.34,6.26.46,8.91,0,1.31-.23,3.84.58,4.79-.33.36-.34,1.31.11,1.71.14.59.04,1.35-1.73.76-1.86-5.77-1.32-10,1.24-16.4-.03-1.16-2.06-1.34-4.77-2.24-7.04l-3.5-8.87c-.21-.53-.92-.67-1.1-1.1-.31-.74-1.27-.91-1.67-1.59-.19-.88-.62-1.35-.31-2.5.26-.94-1.15-2.34.24-3.15-2.11.49-2.85-.23-4.26-.12-.94-2.78-.37-5.36-.18-8.03.33-4.58.12-9.44-.69-13.86.86-2.82,3.62-2.03,7.35-3.68Z"/>
          <path class="cls-26" d="M180.95,261.56c-1.62-.99-.67,10.08-.48,11.51l1.29,9.84c5.4-.06,10.33.56,15.07-.53.44-.1.82.12,1.27.14.59.03.82-.29.83-.97.69,1.33,1.21,2.43,1.08,4.34-4.72.46-9.53-.07-14.16.9.96-.85-3.8-.53-4.73-1.47-.39-.39.2-1.11-.66-1.6-1.5,9.28,2.22,16.13,3.5,24.9-1.3-.19-2.36.63-4.11.64v25.29c0,.61.66,8.1.84,8.66.45,1.36,2.28,2.32,1.51,4.09-.31.71-.19,2.18.34,2.64-1.05.14-2.22-.06-3.34.55-.07,1.2.58,3.25-.54,3.88-1.35.76-3.14.12-4.48.38l.36-2.03.05-81.05c0-2.88.45-5.79-.03-8.64-.02-.9,1-2.07.49-3.11,1.65.76,4.21,1.26,5.91,1.64Z"/>
          <path class="cls-123" d="M231.41,302.76c.38-.96,2.33,8.28,2.45,8.33l1.64.65c1.46.58-.59,5.81,2.87,5.67,0,1.69.48,3.07.69,4.47-.88.83-.3,2.29-.32,3.97l-20.7.3c-.25-1.04.33-2.47-.55-3.17-.13-1.03.09-1.03.96-.8,1.26-.49,1.1-1.65,1.06-2.64s-1.21-1.24-1.63-1.85c-2.18-4.47-3.7-9.14-5.12-13.76l11.24-1.56c2.45-.34,4.49-1.92,6.99-.92-.63,1.04-.28,1.46.41,1.3Z"/>
          <path class="cls-47" d="M218.47,347.82c-.55-6.32-.06-12.73-1.03-18.99-.18-1.19-.74-2.29-.18-2.56.24-.11.5-.11.77-.12l20.7-.3c.02-1.68-.55-3.15.32-3.97.48,3.15.23,6.73,2.12,9.58.89,1.35,3.11,8.58.42,9.83-2.43,1.13-5.59.58-7.64,2.29-.43.36.19,2.42-.76,2.58-5.04.88-9.9,1.53-14.72,1.66Z"/>
          <path class="cls-48" d="M106.17,160.42l-.16,8.06c-1.64.71-3.35-.5-4.56.4-.51-.31-.94-.69-1.55-.69-.09-.76,1.11-.3,1.9-.24,1.04-1.17.97-3.24.7-4.99l-17.91-.37c.16-.76,0-1.52,0-2.28.96-.93,20.72-1.08,21.57.11Z"/>
          <path class="cls-30" d="M174.54,352.72l-.36,2.03c-.15.83-4.75,3.28-4.82,3.35-2.33,2.09-4.71,3.54-7.24,4.94-.23.12-6.41,3.95-5.72,1.93.91-.61.77-2.32,1.53-3.47-.15-.57-1.25-.78-1.25-1.46-.04-.81,10.85-4.33,11.69-4.56,3.75-1.05-.7-1.74,6.18-2.76Z"/>
          <path class="cls-55" d="M237.17,192.14c1.11.11,2.42.87,3.7.91.59,1.45-.05,2.67.3,3.9l-4.55,1.07c-.58-.87-1.71-1.04-2.8-.62-.03-.43-.56-.54-.64-.95-.33-1.22.17-2.49.19-3.73,1.14-.07,2.6-.7,3.79-.59Z"/>
          <path class="cls-148" d="M210.45,235.37c.24.15.54.28.92.73.1.11.35-.29.25-.52.41-.15.64.26.48.57-.87,1.05-.06,2.44.01,3.67-.78.11-.55,1.29-.43,2.1.18,1.2-.58,2.64-1.61,2.54-4.36-.4.14-3.27-3.75-6.82.1-.56,2.6-3.21,4.13-2.26Z"/>
          <path class="cls-61" d="M156.67,360.04c0,.67,1.1.88,1.25,1.46-.76,1.15-.62,2.86-1.53,3.47-1.09-.51-8.26-4.3-8.36-5.51,2.81.07,5.82,1.42,8.63.58Z"/>
          <path class="cls-61" d="M148.04,359.46c-.97-.02-3.6-1.89-3.11-2.19.92.53,2.97.52,3.11,2.19Z"/>
          <path class="cls-6" d="M195.67,164.59c.04,1.34,0,2.58-.05,4.26-.26,10.39-9.11,3.79-8.87,11.51-1.15.41-1.94.2-3.11.38l-.97,6.57-18.71.23c-2.58-1.24-5.11-2.46-7.7-4.18,1.17.86-7.73,5.02-7.1,4.53-.71-.79-1.96-.63-3.2-.61l-16.42.19c-1.13.01-1.92.32-2.49-.65-.02-1.27-.08-2.73-.53-4.03-.25-.73-1.38-.45-1.83-.61-1.49-.55-4.71-.24-6.36-.45l-4.13-.54c.42-1.31-.11-2.8.01-4.38l.85-10.61c1.19-.42,1.96-.29,2.77-.46,1.55,4.3-.11,6.2.82,11.32,1.56.02,4.19.03,4.39-.96.05-.26-.07-.79-.3-.9l17.41-.19,46.08-.04c.35-1.39-.18-3.49.99-3.95,1.29-.51,3.33.2,3.66-1.61.62-3.41-.26-6.93.57-10.06,1.79.29,3.25-.04,4.74-1.06.05.29.45.57.38.79-.1.33-1.06.76-1.05,1.07l.13,4.45Z"/>
          <path class="cls-168" d="M118.33,160.3c.29,1.84-.33,3.63-.46,5.42-.8.17-1.57.04-2.77.46l-.85,10.61c-.13,1.58.4,3.07-.01,4.38-.69-.09-13.63-.23-13.09-5.52.18-1.71.26-3.59-.16-5.12.86-.25-.03-1.16.46-1.65,1.22-.9,2.92.3,4.56-.4l.16-8.06c1.36-1.1,3.59.42,4.82-.99l7.35.87Z"/>
          <path class="cls-16" d="M180.28,112.15c-1.82.94-3.17,2.31-5.7,2.75.21,2.43-.64,4.84.39,6.93.34.69,2.12.91,1.77,2.19-.69.37-1.61.36-2.52,1.06.94,1.58,3.15-.02,4.35,1.39.31.36-.03,1.67.33,2.04,2.02.57,4.52.28,6.79.2.06.82-.39,1.89.52,1.99-.16,1.45-1.75,16.2,2.2,13.77-.03,1.62,1.1,2.39,1.77,3.73.63,1.25.58,2.72.92,3.69.21.61.38,1.79.28,2.57-.16,1.15-1.62.24-2.02.94-4.16-2.32,0-3.01-5.78-5.07-.18-2.88.09-6.25-.36-9.37-3-.25-6.17-1.03-8.92.11-.73.3-1.88,1.37-2.83,1.18-2.85-.57-4.35,1.75-6.4,2.29-5.12,1.35-10.5.56-15.44.26-1.32-.08-1.86-1.05-2.78-1.7-1.84-1.29-4.22-.65-5.98-1.57-1.42-.74-3.72-1.91-5.23-.53l-.67,4.68c-1.07.2-2.71-.4-3.17.32-.74,1.17.28,2.82-.52,3.84-.53.67-1.81.45-2.39.48-.38-1.5.34-3.09.39-4.81-1.01-.38-1.24-1.28-1.78-1.68.78-2.44.91-5.35.02-8.01-.56-1.68.45-6.65-.54-6.84.44-.39,1.46-.81,1.55-1.47.73.29,1.44.04,2.19-.03.55-.05.66.83,1.04,1.3.53-.03,1.96-.74,2.07.3-.55.16-1.08-.02-1.95.38.79,4.19,1.02,5.57,6.2,7.71,7.03,2.9,11.08,5.33,18.74,4.94l-.15-10.76c.68-.5,2.58-.29,2.9-1,.5-1.11.3-2.05-.13-2.06l-2.14-.08-.11-7.15c0-.41-.12-1.12-.07-1.49,2.56.38,11.37-2.15,14.22-3.11,1.11-.37,2.25-.96,2.18-1.91s.13-1.93-.69-2.39l.28-1.11c2.41-.56,6.9-1.93,7.21,1.09Z"/>
          <path class="cls-153" d="M123.58,123.3c.14,1.71.74,2.22,2.09,3.51.64.61.11,1.99,1.28,2.21.99.19-.02,5.16.54,6.84.89,2.65.76,5.56-.02,8.01-1.23.14-2.56-.06-4.03.41-.03,1.38.37,2.9-.83,3.48-.88.05-1.84-.15-2.62-.58-.09-1.1.92-6.02-.33-5.87l-.72.08c-.45-2.27-.19-4.69.55-6.87,3.81,2.57,3.49,11.14,4.65,6.55.14-.55-.17-1.02-.21-1.57-.9-10.9-2.88-6.22-5.75-12.52-.81-1.78-2.09-3.24-2.44-5.17-.54-.93.11-1.39.62-2.15.4.11.86-.07,1.32.19,1.37,7.96,3.49,4.03,3.5,7.77,1.53-1.25,1.84-2.72,2.4-4.3Z"/>
          <path class="cls-54" d="M180.28,112.15c.33,3.25-.47,6.82.37,10.05.87.08,1.64.05,2.08.12s.23,1.08.55,1.25c1.12.6,2.42.23,3.5.18.09,2.32-.31,4.64-.57,6.95-.9-.1-.45-1.17-.52-1.99-2.27.07-4.77.37-6.79-.2-.36-.37-.02-1.68-.33-2.04-1.21-1.41-3.42.19-4.35-1.39.91-.7,1.83-.69,2.52-1.06.35-1.28-1.43-1.5-1.77-2.19-1.03-2.08-.19-4.5-.39-6.93,2.53-.45,3.89-1.81,5.7-2.75Z"/>
          <path class="cls-24" d="M193.12,145.64c.28.42.28,1.02.77,1.58.34.39,1.35-.32,1.64.08,1.04,1.41,1.99,2.74,3.82,2.5l.26,1.04c.32,1.3,3.09,2.76,4.05,3.71.22,1.82-2.73.26-5.26,1.48-.68.33-2-.15-2.75.26-1.65-.58-.13-2.53-.9-3.83-1.32-.45-2.59-.39-3.66-.56-.34-.98-.29-2.44-.92-3.69-.67-1.33-1.8-2.11-1.77-3.73,1.79-1.25,2.57,0,2.58-1.51.96.51,1.49,1.7,2.13,2.67Z"/>
          <path class="cls-11" d="M144.31,256.13c-.17.65.48.71,1.17.61,3.54,5.36,12,3.96,17.37,1.7.58-.24,1.23.13,1.63-.33.29-.34.73-.74.52-1.39,7.44.59,1.77-.37,10.05,3.2.51,1.04-.51,2.21-.49,3.11l-17.19.32c-.74.65-.64,2.4-.62,3.06-1.33,1.47-3.9.44-5.92.72-1.83.25-2.28-.62-3.49-1.58-.93-.74-2.94.06-4.19-.79l-.71,6.82c-2.3.09-3.84.52-5.43,1.02l.26-17.42c.17-.4.39-.83.69-.59.6.84,5.27,1.3,6.37,1.55Z"/>
          <path class="cls-15" d="M137.94,254.58c-.3-.24-.52.19-.69.59l-.26,17.42-.13,4.19c-.26-.18-.51-.06-.7.09-.26.21-.4.44-.42.71l-3.56-.18c-.82-.37.74-13.23.96-13.78.9-2.2,2.58-8.45,1.78-10.54,1.5.12,2.19.35,3.01,1.49Z"/>
          <path class="cls-91" d="M174.56,263.03c.49,2.85.04,5.76.03,8.64-1.41.11-2.89.15-4.5-.35-.29-1.51.1-2.91-.34-4.29-4.38-.38-8.99.59-13-.62-.01-.66-.11-2.41.62-3.06l17.19-.32Z"/>
          <path class="cls-169" d="M239.12,175.86c-.49.64-1.17.41-2.06.43l-11.14.22c-.41-1.13-.86-2.39-.05-3.41,2.87-.45,6.32.64,8.94-.57,1.69-.78,2.18-4.71.74-4.99-1.84-.36-3.95-.4-5.44-.29.31-1.26.11-2.55-.39-3.74,1.4-.78,2.85-.1,5.07-.03.93.03,1.36-2.49,1.21-3.8-3.37.18-6.47-.69-9.48-.38.02-1.13-.34-2.3-.72-3.59-2.65-1.01-5.6-.3-7.84.34-1.81-1.46-12.34.42-14.29-1.5-.96-.95-3.73-2.41-4.05-3.71.42,1.38.1-2.36.43-2.8.67-.88,14.28-.66,12.86-4.28,1.37-.42,2.9-.02,3.88-.77,1.13-.87.13-2.97.67-4.27.35-.85,1.75-.59,2.89-.51.33-4.1.64-8.3-.17-12.26.89-.7,1.98-.92,3.29-.33.75.33.81,1.78.28,3.19,1.42,1.32,3.38.95,5.03,1.87.41,8.58,3.2,5.31,3.67,7.28l2.59,10.77c.46,1.9-.09,4.39.91,5.87.73,1.09,2.13,1.26,1.55,3.24-.27.92.1,1.93-.56,2.81-1.03,1.36-.26,3.29-.07,5.01.24,2.18-.71,4.57.15,6.56.35.67,2.1.42,2.24,1.21.19,1.09,0,1.68-.12,2.44Z"/>
          <path class="cls-90" d="M234.47,180.38c.17,3.38,2.88,9.08,2.7,11.76-1.2-.11-2.65.52-3.79.59-5.84.35-5.82-1.01-7.28-3.27-.83-1.29-1.56-2.68-1.36-4.42l-8.32.02c-.75-1.45-.07-3.12-.35-4.57,1.02-.59,2.17-.15,3.5-.15,5.1.02,11.98-1.07,14.9.04Z"/>
          <path class="cls-106" d="M225.93,176.52l11.14-.22c.88-.02,1.57.21,2.06-.43-.15.91-.58,1.1-.99,2.05l-.99,2.34c-1.09-.68-2.05-.08-2.66.12-2.92-1.11-9.8-.02-14.9-.04-1.34,0-2.48-.44-3.5.15l-.57-2.98c.51-.33-.18-.63-.23-1.48.57-.6.61.07.72.96l9.94-.47Z"/>
          <path class="cls-149" d="M200.03,285.91c-.13,1.9,2.1,3.4,2.66,5.29.51,1.69.53,3.51,1.48,4.73-.31.58-.55,1.24-.32,1.9.28.81.97.84,1.79.96,4.53.69,1.65,5.26,3.82,5.25.99,0,1.67-.15,2.23.37-.28,6.19,3.05,12.14,2.27,18.11l3.53.48c.87.7.3,2.13.55,3.17-.26,0-.53,0-.77.12-.57.27,0,1.37.18,2.56l-22.36.6c-.5-1.06-.03-1.97-.33-2.85l4.41-1.66c.91-1.36-1.56-1.74-2.35-2.08-.92.77-3.63-10.71-3.88-11.57l-2.69-9.36c-.69-2.4-1.46-4.41-1.88-6.87.48,2.82-3.35-6.27-2.5-8.25,4.63-.97,9.44-.44,14.16-.9Z"/>
          <path class="cls-69" d="M185.87,286.8c-.85,1.98,2.98,11.07,2.5,8.25.42,2.45,1.18,4.47,1.88,6.87l2.69,9.36c.25.86,2.96,12.34,3.88,11.57.79.33,3.26.72,2.35,2.08l-4.41,1.66c-.52-.4-1.64-.18-1.93-.57-.72-.97,0-3.28-.47-4.07-.78-1.27-1.61,1.95-1.68-5l-3.8-.44c-1.61-4.71.77-4.46-2.9-7.86-1.27-8.78-4.99-15.62-3.5-24.9.85.49.27,1.2.66,1.6.94.94,5.7.62,4.73,1.47Z"/>
          <path class="cls-12" d="M200.45,187.47c-1.15,1.37-.14,3.26-1.08,5.11l-3.61.21c-1.61.09-3.38-.25-5.31-.23l-12.62.15c-7.23.08-10.72-3.66-13.85-5.16l18.71-.23.97-6.57c1.18-.18,1.96.03,3.11-.38-.24-7.73,8.61-1.12,8.87-11.51.04-1.68.08-2.92.05-4.26-.26,1.9,3.97.67,4.03,1.7l.4,7.81c.07,1.37.15,1.73,1.27,3.01,1.77,2.02-2.98,8.66-.92,10.36Z"/>
          <path class="cls-93" d="M229.71,163.52c.5,1.19.71,2.48.39,3.74l-14.31,1.05c-.83.06-.7,1.43-.31,1.6.27.11.5.91,1.04.92l8.72.2c.32.76-.15,1.74.63,2.08-.8,1.02-.36,2.28.05,3.41l-9.94.47c-.11-.9-.15-1.57-.72-.96.05.85.74,1.15.23,1.48-.83.1-1.63.13-2.2-.11-.95-.4-1.4-6.35-.9-8.22-1.35-.58-2.46-.13-3.88-.38-.5-1.99-.38-3.89-.64-5.66,6.56.54,16.2-.78,21.83.39Z"/>
          <path class="cls-118" d="M233.19,196.45c.08.41.6.52.64.95-.26,1.03-.77,2.05-.6,3.13-.21-.17-.4-.07-.68.08-.39.21-.24.28.06.66.95,1.23.95,2.34-.17,3.36-.63.57-1.67.44-3.13.7-.86.15-1.34-1.56-2.3-2.05-2.19.01-10.34,3.52-12.2,4.57-.05-.21-.07-.42-.15-.56-.15-.26-.51-.19-.89-.28-.92-.21-2.89-3.89-2.32-4.77.9-1.39,3.57-.56,5.04-2.72.59-.87,2.91-1.3,4.05-1.28,1.83.03,2.6-1.13,3.87-1.47,2.96-.78,5.99.06,8.78-.33Z"/>
          <path class="cls-157" d="M217.86,159.37c2.94.1,5.72.24,8.65-.07s6.11.56,9.48.38c.15,1.31-.29,3.83-1.21,3.8-2.22-.07-3.67-.75-5.07.03-5.62-1.17-15.27.15-21.83-.39-.15-1.02-.92-2.07-.5-3.21,3.46-.16,7-.66,10.48-.55Z"/>
          <path class="cls-40" d="M233.23,200.53c-.07,1.57.52,3.25.25,5.04l-4.19,1.2c-2.22.64-3.99,2.52-6.54,3.2l-6.83,1.84c-.59-1.4-.81-2.71-1.11-3.96,1.85-1.06,10.01-4.56,12.2-4.57.97.48,1.44,2.2,2.3,2.05,1.46-.26,2.5-.13,3.13-.7,1.12-1.01,1.12-2.13.17-3.36-.29-.38-.45-.45-.06-.66.27-.15.47-.25.68-.08Z"/>
          <path class="cls-129" d="M217.95,156.05c-.25,1.06-.22,2.25-.09,3.32-3.47-.11-7.02.38-10.48.55-2.67.13-5.48-.04-8.4-.1.13-1.53.87-3.43-.58-3.79,2.53-1.22,5.48.34,5.26-1.48,1.95,1.92,12.47.04,14.29,1.5Z"/>
          <g>
            <path class="cls-119" d="M198.4,156.03c1.45.36.71,2.26.58,3.79,2.92.06,5.73.23,8.4.1-.42,1.14.35,2.18.5,3.21.26,1.78.14,3.67.64,5.66,1.42.26,2.53-.2,3.88.38-.5,1.87-.05,7.82.9,8.22.57.24,1.37.21,2.2.11l.57,2.98c.28,1.44-.4,3.11.35,4.57l8.32-.02c-.2,1.74.53,3.14,1.36,4.42,1.46,2.26,1.44,3.62,7.28,3.27-.02,1.25-.52,2.51-.19,3.73-2.79.39-5.82-.45-8.78.33-1.27.34-2.04,1.5-3.87,1.47-1.14-.02-3.46.41-4.05,1.28-1.46,2.16-4.14,1.33-5.04,2.72-.57.88,1.41,4.56,2.32,4.77.38.09.74.02.89.28.08.14.1.35.15.56.29,1.25.52,2.55,1.11,3.96l6.83-1.84c2.54-.68,4.32-2.57,6.54-3.2l4.19-1.2c.27-1.79-.32-3.47-.25-5.04-.18-1.07.34-2.1.6-3.13,1.09-.42,2.22-.25,2.8.62l.59,7.08c1.16.27,2.2.1,3.23.52.49,1.59.09,3.17.73,4.59l3.88.44.4,3.87c-1.09.44-1.77,2.79-4,2.1-.3,1.4-.17,2.52-.95,3.4-.64.72-2.3.02-3.04.69s-.49,2.09-.98,2.72c-.65.73-1.84.73-2.89,1.34-.02,1.94-.81,3.15-1.95,4.42-2.49,2.77-3.34,6.68-4.51,10.26-.76.23-1.38-.08-1.55.34-.3.75-.62,1.73-.32,2.2-.32-.02-.5.45-.83.38-.97-.21-2.1.31-3.35-.36-.62-.33-.21-1.4-.55-2.07-1.81.43-2.97-.97-4.4-1.34-1.65-.44-2.79-1.15-4.04-2.45.16-.3-.07-.72-.48-.57.17-.25-.13-.49-.16-.69-.67-5.03,2.06-6.82,2.18-9.4.26-5.64,4.47,2.28,2.26-10.4l-2.43-.22c-.4-3.14-1.25-6.03-1.32-9.19-1.34-.25-2.71.23-3.47-.44-1.99-3.32.87-8.05-3.66-7.3-.54-3-.27-6.36-1.31-9.23-1.39-.01-2.44-.46-3.26-1.22-2.06-1.7,2.69-8.33.92-10.36-1.12-1.28-1.2-1.63-1.27-3.01l-.4-7.81c-.05-1.03-4.29.2-4.03-1.7l-.13-4.45c0-.31.95-.74,1.05-1.07.07-.22-.33-.5-.38-.79-.13-.74-1.15-1.16-.56-1.99.75-.41,2.07.07,2.75-.26Z"/>
            <path class="cls-142" d="M222.6,221.49c-1.47.53-2.49-.56-2.28-1.43.13-.58.31-1.64,1.35-1.88,5.07-1.19,5.78-3.82,11.12-3.84,1.38.49.67,1.85.63,2.52-.07,1.16-1.17,1.17-2.35,1.59l-8.48,3.04Z"/>
          </g>
          <path class="cls-49" d="M195.65,156.29c-.59.83.44,1.25.56,1.99-1.48,1.02-2.95,1.35-4.74,1.06-.08.29-.13-2.73-.65-3.33-.39-.46-1-.33-1.49-.6.4-.7,1.86.21,2.02-.94.11-.77-.06-1.96-.28-2.57,1.07.17,2.34.11,3.66.56.76,1.3-.75,3.25.9,3.83Z"/>
          <path class="cls-151" d="M198.97,241.31c.81,4.42,1.02,9.27.69,13.86-.19,2.68-.76,5.26.18,8.03,1.41-.11,2.16.62,4.26.12-1.39.81.02,2.21-.24,3.15-.31,1.15.12,1.62.31,2.5-1.46.07-3.31-.61-4.73-.11.05-.94-.85-1.65-1.29-2.35.16-.21.44-.77.58-.73.15.04.21.65.76.38-.22-.43-.61-.8-.35-1.19.15-.23,1-.03.83-1.22-1.25.48-3.22.75-4.45-.4-.93-.87-.25-3.12-1.11-4.03-1-.3-1.73-.4-1.77-.81l-.2-1.86c-.14-1.33.12-4.04-1.36-4.75-2.21-1.06-4.99.03-7.42-.59.15-1.36,0-2.6-.62-3.68,2.7-2.79,6.99-.72,8.21-2.95.23-.42-.05-1.32.24-1.46,2.5-1.15,1.58.89,3.72-1.36.89-.94,2.7-.45,3.76-.57Z"/>
          <path class="cls-127" d="M204.18,268.98c.4.67,1.37.85,1.67,1.59-.79.82-3.29-1.7-5.67-.66-.78.34-1.37,2.06-.72,2.88.39.49,1.74-.24,2.34.29.83.72.4,1.68.53,2.62.11.77,1.02,1.25.78,1.98-.17.52-2.87,2-2.6,3.16.11.48.59.9.97,1.36,1.25,1.48.84,3.95,1.96,5.83.58.98,3.59,1.13,4.07.11.35-.74-.28-2.46.77-2.96,3.62-1.75.08-3.39,2.17-4.62.9,2.28,1.07,4.99,2.24,7.04-.24.58.36,1.5.23,2.09-.34,1.48.25,4.08-1.23,5.27-2.01,1.63-5.29,1.51-7.51.97-.95-1.21-.97-3.04-1.48-4.73-.57-1.88-2.79-3.39-2.66-5.29s-.4-3.02-1.08-4.34c-.87-1.69.01-4.19-2.11-5.86-.9-.71-2.77-6.03-.53-5.83.96-.4,2.41-.14,3.14-1,1.42-.5,3.27.18,4.73.11Z"/>
          <path class="cls-46" d="M212.76,303.93c1.41,4.63,2.93,9.29,5.12,13.76.42.6,1.6.88,1.63,1.85s.19,2.15-1.06,2.64c-.87-.23-1.1-.22-.96.8l-3.53-.48c.78-5.97-2.55-11.92-2.27-18.11.21-.4.7-.41,1.08-.46Z"/>
          <path class="cls-114" d="M212.91,289.67c.14-.59-.46-1.51-.23-2.09,6.39,1.28,10.63-1.28,16.4.03.58.13-.18,1.9-.76,1.86-.4-.03-1.35-.48-1.71-.14-.95.92-3.48.11-4.79.33-2.65.46-7.33,1.34-8.91,0Z"/>
          <path class="cls-3" d="M217.46,252.46c.81,1.19.35,1.98,1.12,2.79,1.18,1.24-.05,3.15.61,4.46.3.6.66,1.75.27,2.43-.28.48-1.29.2-1.81,0-.41-.16-2.03-5.88-3.17-7.63.38-1.01,1.93-1.94,2.98-2.05Z"/>
          <path class="cls-165" d="M127.47,143.86c.54.4.77,1.3,1.78,1.68-.04,1.73-.77,3.31-.39,4.81-1.63.78-.47,3.11-1.75,4.32-.8.75-2.77-.07-3.5.97-.63.89-.79,2.59-.94,3.66-1.45-.04-3.55-.23-4.34,1.01l-7.35-.87c.04-.7-.53-3.15.54-3.25l6.75-.62c.11-1.15-.28-2.85.6-3.63.87-.41,2.06.14,3.39-.01.35-1.48.29-2.85.34-4.16,1.2-.58.79-2.1.83-3.48,1.47-.48,2.81-.27,4.03-.41Z"/>
          <path class="cls-155" d="M113.22,117.45c.07,1.78,1.92,2.88,2.52,4.34.35,1.93,1.63,3.39,2.44,5.17,2.87,6.29,4.85,1.62,5.75,12.52.05.55.35,1.02.21,1.57-1.16,4.59-.84-3.98-4.65-6.55.08.05-4.68-9.09-6.49-11.57-.94-1.29-1.96-1.96-1.64-3.77.09-.5-.78-1.51.13-1.92.46-.21,1.14.02,1.72.2Z"/>
          <g>
            <path class="cls-7" d="M113.22,117.45c-.58-.18-1.25-.4-1.72-.2-.92.41-.05,1.42-.13,1.92-.32,1.81.7,2.48,1.64,3.77,1.81,2.48,6.56,11.62,6.49,11.57-.74,2.18-1,4.6-.55,6.87-1.18.38-1.86,1.78-2.12,3-1.45-.8-4.36-1.57-5.5-.1-.54.7-.14,2.21.22,2.58.28.3,1.03.23,1.51.39-.49.76-.08,1.67-.03,2.56.03.5-1.28,1.05-.93,1.76.18.35.35,1.4.96,1.37,3.54-3.62,3.63-1.69,6.93-5.79.77.43,1.73.64,2.62.58-.05,1.31.01,2.68-.34,4.16-1.33.15-2.52-.4-3.39.01-.88.78-.49,2.49-.6,3.63l-6.75.62c-1.07.1-.5,2.55-.54,3.25-1.23,1.42-3.46-.11-4.82.99-.85-1.18-20.6-1.04-21.57-.11-.86-.29-3.26-.73-3.4-2.14-.18-1.78.99-3.72.21-5.76.57-.44,1.09-.6,1.05-.81l-.21-1.22c-.19-1.07,3.43-10.11,3.12-8.43.77-4.2,4.33-9.95,4.59-10.15l3.47-2.74c.92-.73.76-2.69,1.63-3.46s2.4-.46,3.09-1.17c.05-.06,7.67-6.1,8.59-6.34.29-1.51,1.06-3.99,1.07-5.75.63.16,1.28-.22,2.14-.26,1.22-.05,1.39.79,1.81,1.56.43.19,1.24,0,1.52.38,1.1,1.52-.15,1.17-.06,3.43Z"/>
            <path class="cls-60" d="M105.63,143.21l-16.11-.04c-1.23-12.33,3.54-6.04,3.44-10.49-.02-.78.14-2.59.75-2.71l5.43-1.02c.17-1.36-.34-3.02.89-3.88.39-.27,1.07-.31,1.46-.38.72-.14.32-1.2.66-1.58,1.4-1.56,2.18.95,3.02,1.3,2.88,1.19,5.46,3.13,6.23,6.49.1.43,1.12.66,1.12,1.14.03,2.13-3.91,1.59-4.23,3.02-.83,3.75-2.32-1.73-2.67,8.13Z"/>
            <path class="cls-59" d="M118.95,141.38l.72-.08c1.25-.15.24,4.78.33,5.87-3.3,4.1-3.39,2.17-6.93,5.79-.62.02-.79-1.02-.96-1.37-.35-.71.96-1.27.93-1.76-.05-.88-.46-1.8.03-2.56.78.27,2.65.41,3.03-.75.21-.62.55-1.25.74-2.13.25-1.22.94-2.63,2.12-3Z"/>
            <path class="cls-136" d="M116.83,144.39c-.18.88-.53,1.5-.74,2.13-.39,1.16-2.25,1.02-3.03.75-.48-.16-1.23-.1-1.51-.39-.36-.37-.76-1.89-.22-2.58,1.14-1.47,4.05-.7,5.5.1Z"/>
          </g>
          <path class="cls-94" d="M183.06,262.04c-.14.86.27,1.79.07,2.64-.21.9-.2,1.85.55,2.31-.23,3.97.5,8.22,1.6,12.47,2.74,0,7.43-.19,9.83-.59.58-.1,2.05.24,2.2.81.25.9-.05,1.95-.47,2.71-4.74,1.09-9.67.47-15.07.53l-1.29-9.84c-.19-1.43-1.14-12.5.48-11.51l2.11.48Z"/>
          <path class="cls-37" d="M192.03,265.74c.06.5.47.98.11,1.83-.16.38,1.09.54,1.31.17.37-.61.36-.92.99-.89.56.03.86.29.97.75.14.6-.43.75-.77,1.12.8.43,1.58.55,1.66,1.15-2.24-.19-.37,5.12.53,5.83,2.12,1.67,1.23,4.17,2.11,5.86,0,.68-.23,1.01-.83.97-.46-.02-.83-.25-1.27-.14.42-.75.72-1.8.47-2.71-.16-.57-1.62-.91-2.2-.81-.1-1.93-3.11-7.75-3.89-8.55-1.16-1.18-3.51-.69-4.89-1.7-.94-.68-1.6-1.5-2.64-1.64-.75-.46-.76-1.41-.55-2.31,6.27.98-1.11.9,8.34,2.34.27-.77-.21-1.48.56-1.28Z"/>
          <path class="cls-99" d="M163.97,187.54c3.13,1.51,6.62,5.25,13.85,5.16l12.62-.15c1.93-.02,3.7.33,5.31.23-.49,1.21.42,2.85-.67,3.99-.42.44-1.51.19-1.76.67-.94,1.77.2,5.69-1.45,7.25-.6.56-1.96.06-2.04.9-.87,8.73-3.03,2.74-2.5,14.85,1.5.57,2.64.06,3.75.73.71,1.72.21,3.51.64,5.41,1.79.31,4.01.02,5.72.44.31.76.89,1.9.56,2.91-3.19,1.04-6.7,2.12-10.19,2.02-.96-.03-.98,1.47-1.48,1.62l-19.73,5.7c.69-.58.6-1.33.84-2.37,3.13-1,5.97-2.02,9.27-2.7.78-.16,2.09.19,1.97-1.32-.18-2.37-.08-4.78-.47-7.14-2.41-.48-4.24.34-6.55,1.51-.38-1.92,1.39-2.16,2.44-2.58,1.97-.78,1.1-2.96.77-4.42-.48-2.07,1.89-2.76,3.72-3.13-.12-3.57-.5-7.45.14-11.2.28-1.65-.13-3.77,0-5.36.07-.87,1.19-3.05.1-3.45-2.98-1.09-5.54-2.26-8.52-2.95-4.18-.98-7.8-3.11-11.93-4.46-2.32-.76-4.81.63-6.97,1.55l-7.55,3.21c-3.08,1.31-5.8,2.92-9.28,3.07-.45,1.98-.06,3.43.1,5.21.22,2.61-.89,5.44.01,7.66,1,2.44.28,4.87,1.04,7.33.1.33.83.32.99.45.09.07,1.97,14.21,1.21,16.05-.17.26-.72.4-.47.72-2.34-.54-4.44-1.81-6.83-2,.38-6.89-3.49-16.42-.29-20.86l.97-1.35c.93-1.29-.02-10.64-3.88-13.24l-.03-5.27c2.13.6,4.5.34,6.96.86,1.22.26,1.65.98,2.38.94,1.58-.09,2.08-.98,3.04-1.4,3.35-1.47,6.63-2.63,9.4-4.74-.64.48,8.27-3.67,7.1-4.53,2.58,1.73,5.12,2.94,7.7,4.18Z"/>
          <path class="cls-23" d="M149.18,187.89c-2.77,2.11-6.05,3.27-9.4,4.74-.96.42-1.46,1.31-3.04,1.4-.73.04-1.16-.69-2.38-.94-2.46-.51-4.82-.25-6.96-.86,0-1.71-.29-3.69-.33-5.41.57.97,1.36.66,2.49.65l16.42-.19c1.24-.01,2.5-.18,3.2.61Z"/>
          <path class="cls-83" d="M189.35,155.4c.48.27,1.1.14,1.49.6.51.61.57,3.62.65,3.33-.82,3.13.05,6.64-.57,10.06-.33,1.81-2.37,1.1-3.66,1.61-1.17.46-.64,2.55-.99,3.95l-46.08.04-17.41.19c-2.33-1.1.36-5.1-2.19-6.49,2.75-1.98,1.48-5.14,2.09-9.4.15-1.06.31-2.77.94-3.66.73-1.03,2.7-.22,3.5-.97,1.28-1.2.12-3.54,1.75-4.32.58-.03,1.86.19,2.39-.48.81-1.02-.21-2.67.52-3.84.45-.72,2.09-.11,3.17-.32l.67-4.68c1.51-1.39,3.81-.22,5.23.53,1.76.92,4.14.28,5.98,1.57.92.64,1.46,1.62,2.78,1.7,4.95.3,10.32,1.09,15.44-.26,2.05-.54,3.55-2.86,6.4-2.29.95.19,2.11-.88,2.83-1.18,2.75-1.14,5.92-.36,8.92-.11.44,3.12.17,6.49.36,9.37,5.79,2.06,1.63,2.75,5.78,5.07Z"/>
          <path class="cls-111" d="M122.67,159.29c-.6,4.26.66,7.42-2.09,9.4,2.55,1.38-.14,5.39,2.19,6.49.24.11.36.64.3.9-.2.99-2.83.98-4.39.96-.93-5.12.73-7.01-.82-11.32.14-1.79.76-3.59.46-5.42.79-1.24,2.89-1.05,4.34-1.01Z"/>
          <path class="cls-95" d="M156.64,131.38l.15,10.76c-7.66.39-11.71-2.04-18.74-4.94-5.18-2.14-5.41-3.51-6.2-7.71.87-.4,1.4-.23,1.95-.38.66-.19,2.16.44,2.4-.64s.67-1.54,1.63-1.9c-.07.35.34.58.43.82.11.29.89-.44,1.02-.33,3.89,3.14,12.4,3.76,17.36,4.31Z"/>
          <path class="cls-76" d="M157.15,121.08l.11,7.15,2.14.08c.43.02.63.95.13,2.06-.32.71-2.22.5-2.9,1-4.96-.56-13.47-1.18-17.36-4.31-.13-.1-.91.62-1.02.33-.09-.24-.5-.47-.43-.82-.15-.56.11-1.22.59-1.66,1.3.15,2.79,1.01,3.62.29,1-.86-1.3-1.31-1.56-1.85-.59-2.22-.29-5.63-.23-7.99,6.21,3.23,9.41,5.44,16.89,5.72Z"/>
          <path class="cls-137" d="M147.6,114.39c1.15.19,2.11,2.15,4.01.21,1.27,1.32,3.18,2.74,4.99,2.36.64.83.63,1.69.48,2.63-.04.37.07,1.09.07,1.49-7.48-.29-10.68-2.49-16.89-5.72.03-.96-.63-1.9.01-3.14,2.57.66,4.84,1.76,7.33,2.17Z"/>
          <path class="cls-112" d="M172.79,112.18c.82.47.62,1.47.69,2.39s-1.07,1.54-2.18,1.91c-2.85.96-11.67,3.48-14.22,3.11.14-.94.16-1.79-.48-2.63,3.18-.66,6.46-1.25,9.65-2.47,2.78-1.06,1.36.92,6.54-2.32Z"/>
          <path class="cls-25" d="M137.46,234.94c2.05.48,3.97,1.44,6.53,1.73.62.26.11,1.84.81,1.94,3.21.46,6.02,1.17,9.12,1.27,1.32.04,2.81.27,3.7.93-3.96.13-7.95-.24-12.21.14-1.03,5.05-.68,9.96-.54,14.76-.02.33-.35.3-.56.42-1.1-.25-5.77-.71-6.37-1.55-.82-1.14-1.51-1.37-3.01-1.49s-3.44-.45-4.84-.81c-.69-6.97.2-13.17.54-19.34,2.4.19,4.49,1.46,6.83,2Z"/>
          <path class="cls-161" d="M146.61,255.91c.44.41.37,1.15.46,2l11.6.47c.77.03,1.51-.17,2.24-.66.4-.27-.31-.84-.17-1.51,1.44-1.02,3.13.42,4.24.51.21.65-.23,1.04-.52,1.39-.4.47-1.05.09-1.63.33-5.37,2.26-13.83,3.66-17.37-1.7-.69.1-1.33.04-1.17-.61.2-.12.54-.09.56-.42.58.08,1.16.38,1.74.2Z"/>
          <path class="cls-80" d="M230.1,167.26c1.49-.11,3.6-.07,5.44.29,1.45.28.95,4.21-.74,4.99-2.62,1.21-6.06.12-8.94.57-.77-.33-.31-1.32-.63-2.08l-8.72-.2c-.54-.01-.77-.8-1.04-.92-.39-.17-.52-1.54.31-1.6l14.31-1.05Z"/>
          <path class="cls-116" d="M226.51,159.31c-2.93.31-5.71.16-8.65.07-.13-1.07-.16-2.26.09-3.32,2.24-.64,5.19-1.35,7.84-.34.38,1.29.74,2.46.72,3.59Z"/>
          <path class="cls-4" d="M166.62,239.28c-2.32.67-4.77.84-6.82,2.09-.47-.64-1.46-.58-2.18-.56-.89-.66-2.38-.89-3.7-.93-3.11-.1-5.92-.8-9.12-1.27-.7-.1-.19-1.68-.81-1.94-2.57-.29-4.49-1.25-6.53-1.73-.24-.32.31-.46.47-.72.76-1.84-1.12-15.97-1.21-16.05-.16-.13-.89-.12-.99-.45-.76-2.46-.03-4.89-1.04-7.33-.91-2.21.21-5.05-.01-7.66-.15-1.78-.55-3.23-.1-5.21,3.48-.15,6.2-1.76,9.28-3.07l7.55-3.21c2.16-.92,4.66-2.31,6.97-1.55,4.13,1.35,7.76,3.48,11.93,4.46,2.98.7,5.53,1.86,8.52,2.95,1.1.4-.03,2.58-.1,3.45-.13,1.59.29,3.71,0,5.36-.64,3.75-.27,7.63-.14,11.2-1.83.36-4.2,1.06-3.72,3.13.34,1.46,1.21,3.64-.77,4.42-1.05.42-2.82.66-2.44,2.58,2.3-1.17,4.13-1.98,6.55-1.51.39,2.36.29,4.77.47,7.14.11,1.51-1.19,1.16-1.97,1.32-3.29.69-6.13,1.71-9.27,2.7-.24,1.04-.15,1.79-.84,2.37Z"/>
          <path class="cls-20" d="M183.04,247.65c.62,1.08.77,2.32.62,3.68,2.44.62,5.21-.47,7.42.59,1.49.71,1.22,3.42,1.36,4.75l.2,1.86c.04.41.77.51,1.77.81.86.91.18,3.16,1.11,4.03,1.22,1.14,3.19.88,4.45.4.17,1.19-.68.99-.83,1.22-.25.38.13.76.35,1.19-.54.28-.61-.33-.76-.38-.14-.04-.43.52-.58.73.44.7,1.34,1.4,1.29,2.35-.73.85-2.18.6-3.14,1-.09-.6-.86-.71-1.66-1.15.34-.37.91-.51.77-1.12-.11-.46-.41-.72-.97-.75-.64-.03-.63.28-.99.89-.22.36-1.47.2-1.31-.17.36-.85-.05-1.34-.11-1.83-.14-1.13,0-2.44-.42-3.65l-7.56-.2c-.63-2.99-.53-6.06-.46-9.2-.95-.35-1.53-.62-2.21-.73-.5-.08-.82-.82-1.46-.78.47-.78.2-1.86.61-2.84s1.85-.54,2.52-.7Z"/>
          <path class="cls-166" d="M179.92,251.19c.64-.04.96.7,1.46.78,1.35,1.04,1.73,3.17,1.51,4.39-.16.88.49,2.12-.19,2.85-.96,1.04-1.88.4-2.87.08l-4.41-1.44c.49-2.02-.16-3.32-2.01-4.22.18-.93.05-1.37-.96-.46-1.63-1.63-4.25-1.32-5.29-2.73-.66-.9-1.94-.43-2.15-1.42-.14-.67-.42-2.51.4-2.64,2.04-.33,3.62,1.1,5.25,1.56,1.52.43,3.7.21,4.45,2.6,1.86-.24,3.24.74,4.8.65Z"/>
          <path class="cls-32" d="M160.75,256.21c-.14.67.57,1.25.17,1.51-.73.49-1.48.69-2.24.66l-11.6-.47c-.09-.85-.03-1.59-.46-2,1.53-.47,3.18-1.45,4.11-2.71.89.85,2.92.69,4.16.59,3.29-.26-.45,1.46,5.87,2.42Z"/>
          <path class="cls-86" d="M184.05,261.89l7.56.2c.41,1.21.28,2.52.42,3.65-.78-.2-.29.51-.56,1.28-9.44-1.43-2.06-1.35-8.34-2.34.2-.85-.22-1.78-.07-2.64.24.13.68-.16.99-.15Z"/>
          <g>
            <path class="cls-43" d="M211.46,234.88c.03.2.33.44.16.69.11.23-.15.63-.25.52-.38-.45-.68-.58-.92-.73-.25-.28-.07-.44.21-.58.26-.18.61-.18.8.09Z"/>
            <path class="cls-63" d="M210.65,234.79c-.28.14-.46.3-.21.58-1.52-.95-4.03,1.7-4.13,2.26-3.73,1.66-6.49.86-7.35,3.68-1.06.12-2.87-.37-3.76.57-2.14,2.25-1.22.21-3.72,1.36-.29.13-.01,1.04-.24,1.46-1.21,2.23-5.51.16-8.21,2.95-.66.16-2.12-.26-2.52.7s-.13,2.07-.61,2.84c-1.56.09-2.93-.89-4.8-.65-.75-2.39-2.93-2.17-4.45-2.6-1.63-.46-3.21-1.89-5.25-1.56-.83.13-.54,1.97-.4,2.64.21.99,1.48.52,2.15,1.42,1.04,1.42,3.66,1.1,5.29,2.73,1.01-.91,1.13-.47.96.46,1.86.9,2.51,2.2,2.01,4.22l4.41,1.44c.99.32,1.91.96,2.87-.08.68-.73.03-1.98.19-2.85.22-1.22-.16-3.35-1.51-4.39.67.11,1.26.37,2.21.73-.07,3.13-.17,6.21.46,9.2-.31,0-.75.27-.99.15l-2.11-.48c-1.7-.38-4.26-.88-5.91-1.64-8.29-3.57-2.62-2.61-10.05-3.2-1.11-.09-2.8-1.53-4.24-.51-6.32-.96-2.58-2.67-5.87-2.42-1.24.1-3.27.26-4.16-.59-.58-.56-1.34-.51-2.23-.53-.66-1.78,2.43-3.52.94-4.82-.28-.24-.66.04-1.73.42.44-1.01.21-2.09.63-3.44l7.18-.14c.89-.02,2.23.14,2.37,1.01.38,2.46-.92,4.84-.36,7.37.18.83,2.28.9,3.06.81l.03-9.16c0-1.24-.23-2.42-.81-3.35,2.05-1.24,4.5-1.42,6.82-2.09l19.73-5.7c.5-.14.51-1.64,1.48-1.62,3.48.09,7-.99,10.19-2.02.33-1.01-.26-2.15-.56-2.91.68.17,2.59-.76,2.81.43l.98,5.37c2.24,2.25,10.47-.33,9.43,1.96Z"/>
            <path class="cls-13" d="M155.69,245.76c.82-.96,1.17,3.24.05,3.45-.89.17-1.81.62-2.31-.14-.36-.55-1.01-1.9-.02-2.48.34-.2.89.19,1.28.22.46.04.47-.43,1-1.05Z"/>
          </g>
          <g>
            <path class="cls-115" d="M205.85,270.57c.18.43.89.57,1.1,1.1l3.5,8.87c-2.09,1.23,1.45,2.87-2.17,4.62-1.05.51-.42,2.23-.77,2.96-.48,1.03-3.49.87-4.07-.11-1.12-1.88-.71-4.34-1.96-5.83-.38-.46-.86-.88-.97-1.36-.27-1.16,2.42-2.64,2.6-3.16.24-.72-.66-1.2-.78-1.98-.13-.93.3-1.89-.53-2.62-.6-.53-1.95.21-2.34-.29-.65-.82-.06-2.55.72-2.88,2.39-1.04,4.88,1.48,5.67.66Z"/>
            <path class="cls-74" d="M204.75,282.65c-.59.2-1.02-.32-1.24-.53-.35-.33-.6-1.28,0-1.68.62-.42,1.02.22,1.33.41.56.33.76,1.51-.07,1.8Z"/>
          </g>
          <path class="cls-84" d="M195.11,278.88c-2.4.4-7.09.58-9.83.59-1.1-4.25-1.83-8.5-1.6-12.47,1.04.14,1.7.96,2.64,1.64,1.39,1,3.73.52,4.89,1.7.78.8,3.8,6.62,3.89,8.55Z"/>
          <g>
            <path class="cls-133" d="M220.17,125.95c.81,3.96.5,8.16.17,12.26-1.15-.08-2.54-.35-2.89.51-.54,1.3.46,3.41-.67,4.27-.97.75-2.51.35-3.88.77,1.42,3.62-12.19,3.4-12.86,4.28-.33.44,0,4.18-.43,2.8l-.26-1.04c-1.84.24-2.79-1.09-3.82-2.5-.29-.4-1.3.31-1.64-.08-.49-.57-.5-1.16-.77-1.58.25.15.59-.18.51-.35l-.42-.91,1.4-.88.12-4.77,1.86-.21c-.74-9.81.38-6.63,1.41-8.3,1.64-2.65,3.3-6.26,5.71-8.55,8.1-5.34,15.05,3.84,13.75,3.53.34.08.65.29,1.32-.13.56-.2.75.98,1.4.86Z"/>
            <path class="cls-77" d="M207.26,136.11c-1.66.83-4.77.46-5.97-.32-.11-2.31,1.53-3.81,3.44-3.67,1.12.08,2.38-.11,2.86.92.34.73.94,2.44-.33,3.07Z"/>
          </g>
        </g>
      </g>
    </g>
  </g>
</svg>