<?xml version="1.0" encoding="UTF-8"?>
<svg id="_レイヤー_2" data-name="レイヤー 2" xmlns="http://www.w3.org/2000/svg" viewBox="0 0 307.05 512">
  <defs>
    <style>
      .cls-1 {
        fill: #e3e7ec;
      }

      .cls-2 {
        fill: #928ea4;
      }

      .cls-3 {
        fill: #dfe3e9;
      }

      .cls-4 {
        fill: #9e97ac;
      }

      .cls-5 {
        fill: #bfbfcc;
      }

      .cls-6 {
        fill: #8c869e;
      }

      .cls-7 {
        fill: #d0d1d8;
      }

      .cls-8 {
        fill: #4b4457;
      }

      .cls-9 {
        fill: #d0d3dd;
      }

      .cls-10 {
        fill: #b3b3c4;
      }

      .cls-11 {
        fill: #756a81;
      }

      .cls-12 {
        fill: #9a97ac;
      }

      .cls-13 {
        fill: #9896ab;
      }

      .cls-14 {
        fill: #a8a2b6;
      }

      .cls-15 {
        fill: #8e8ca2;
      }

      .cls-16 {
        fill: #dde2e9;
      }

      .cls-17 {
        fill: #9795ab;
      }

      .cls-18 {
        fill: #545163;
      }

      .cls-19 {
        fill: #9895ab;
      }

      .cls-20 {
        fill: #8f8ca2;
      }

      .cls-21 {
        fill: #b4b2c2;
      }

      .cls-22 {
        fill: #4b4958;
      }

      .cls-23 {
        fill: #eff2f5;
      }

      .cls-24 {
        fill: #bcbdcb;
      }

      .cls-25 {
        fill: #918da3;
      }

      .cls-26 {
        fill: #645874;
      }

      .cls-27 {
        fill: #a39eb3;
      }

      .cls-28 {
        fill: #a8a3b7;
      }

      .cls-29 {
        fill: #adabbe;
      }

      .cls-30 {
        fill: #9693a8;
      }

      .cls-31 {
        fill: #8f8da4;
      }

      .cls-32 {
        fill: #57586a;
      }

      .cls-33 {
        fill: #cfd1db;
      }

      .cls-34 {
        fill: #9e97ad;
      }

      .cls-35 {
        fill: #9794a8;
      }

      .cls-36 {
        fill: #635872;
      }

      .cls-37 {
        fill: #5f5a73;
      }

      .cls-38 {
        fill: #49465b;
      }

      .cls-39 {
        fill: #bab9c7;
      }

      .cls-40 {
        fill: #afacbe;
      }

      .cls-41 {
        fill: #888097;
      }

      .cls-42 {
        fill: #a7a3b6;
      }

      .cls-43 {
        fill: #736882;
      }

      .cls-44 {
        fill: #ced0db;
      }

      .cls-45 {
        fill: #c2c3cf;
      }

      .cls-46 {
        fill: #c1c0ce;
      }

      .cls-47 {
        fill: #918ea5;
      }

      .cls-48 {
        fill: #babac8;
      }

      .cls-49 {
        fill: #f2f2f6;
      }

      .cls-50 {
        fill: #dcdfe7;
      }

      .cls-51 {
        fill: #caccd6;
      }

      .cls-52 {
        fill: #8c88a0;
      }

      .cls-53 {
        fill: #fff;
      }

      .cls-54 {
        fill: #b5b4c4;
      }

      .cls-55 {
        fill: #9d98af;
      }

      .cls-56 {
        fill: #948fa7;
      }

      .cls-57 {
        fill: #928ea5;
      }

      .cls-58 {
        fill: #7e7189;
      }

      .cls-59 {
        fill: #716b81;
      }

      .cls-60 {
        fill: #776d86;
      }

      .cls-61 {
        fill: #928da2;
      }

      .cls-62 {
        fill: #d6d9e1;
      }

      .cls-63 {
        fill: #7b6f86;
      }

      .cls-64 {
        fill: #b6b5c5;
      }

      .cls-65 {
        fill: #d7dae1;
      }

      .cls-66 {
        fill: #9392a7;
      }

      .cls-67 {
        fill: #cfcfda;
      }

      .cls-68 {
        fill: #8f89a1;
      }

      .cls-69 {
        fill: #6f617b;
      }

      .cls-70 {
        fill: #817c91;
      }

      .cls-71 {
        fill: #9b9aaf;
      }

      .cls-72 {
        fill: #9b98ad;
      }

      .cls-73 {
        fill: #f4ab92;
      }

      .cls-74 {
        fill: #f5f8fa;
      }

      .cls-75 {
        fill: #bab8c9;
      }

      .cls-76 {
        fill: #766b83;
      }

      .cls-77 {
        fill: #c6c8d3;
      }

      .cls-78 {
        fill: #35303c;
      }

      .cls-79 {
        fill: #a5a1b4;
      }

      .cls-80 {
        fill: #8e88a0;
      }

      .cls-81 {
        fill: #a9a5b8;
      }

      .cls-82 {
        fill: #f8fafc;
      }

      .cls-83 {
        fill: #aba7ba;
      }

      .cls-84 {
        fill: #473d4c;
      }

      .cls-85 {
        fill: #8e889e;
      }

      .cls-86 {
        fill: #868198;
      }

      .cls-87 {
        fill: #918fa6;
      }

      .cls-88 {
        fill: #575560;
      }

      .cls-89 {
        fill: #a19db0;
      }

      .cls-90 {
        fill: #f2f6f9;
      }

      .cls-91 {
        fill: #f3f7f9;
      }

      .cls-92 {
        fill: #8c879d;
      }

      .cls-93 {
        fill: #51505f;
      }

      .cls-94 {
        fill: #9890a7;
      }

      .cls-95 {
        fill: #fbfdfe;
      }

      .cls-96 {
        fill: #e5e8eb;
      }

      .cls-97 {
        fill: #9795ac;
      }

      .cls-98 {
        fill: #a49fb3;
      }

      .cls-99 {
        fill: #a19baf;
      }

      .cls-100 {
        fill: #c7c8d3;
      }

      .cls-101 {
        fill: #aca8bb;
      }

      .cls-102 {
        fill: #918ea6;
      }

      .cls-103 {
        fill: #c2c5d1;
      }

      .cls-104 {
        fill: #9392a9;
      }

      .cls-105 {
        fill: #aaa5b8;
      }

      .cls-106 {
        fill: #e9edf1;
      }

      .cls-107 {
        fill: #d6ab73;
      }

      .cls-108 {
        fill: #bdbdcb;
      }

      .cls-109 {
        fill: #b8bccc;
      }

      .cls-110 {
        fill: #564c5f;
      }

      .cls-111 {
        fill: #685d78;
      }

      .cls-112 {
        fill: #b2afbf;
      }

      .cls-113 {
        fill: #8b869f;
      }

      .cls-114 {
        fill: #9a94a9;
      }

      .cls-115 {
        fill: #8a879e;
      }

      .cls-116 {
        fill: #a4a5b8;
      }

      .cls-117 {
        fill: #9896ac;
      }

      .cls-118 {
        fill: #9591a7;
      }

      .cls-119 {
        fill: #cecfdb;
      }

      .cls-120 {
        fill: #a29eb2;
      }

      .cls-121 {
        fill: #b5b4c3;
      }

      .cls-122 {
        fill: #7d697f;
      }

      .cls-123 {
        fill: #8b889f;
      }

      .cls-124 {
        fill: #8b879f;
      }

      .cls-125 {
        fill: #776c84;
      }

      .cls-126 {
        fill: #7f778e;
      }

      .cls-127 {
        fill: #7e6073;
      }

      .cls-128 {
        fill: #aeafc0;
      }

      .cls-129 {
        fill: #8d89a0;
      }

      .cls-130 {
        fill: #8c889e;
      }

      .cls-131 {
        fill: #827c92;
      }

      .cls-132 {
        fill: #a19caf;
      }

      .cls-133 {
        fill: #e5e8ee;
      }

      .cls-134 {
        fill: #aeacbe;
      }

      .cls-135 {
        fill: #868298;
      }

      .cls-136 {
        fill: #9998ad;
      }

      .cls-137 {
        fill: #e2e5eb;
      }

      .cls-138 {
        fill: #665b76;
      }

      .cls-139 {
        fill: #7a7089;
      }

      .cls-140 {
        fill: #8d6269;
      }

      .cls-141 {
        fill: #d9dce5;
      }

      .cls-142 {
        fill: #8d6067;
      }

      .cls-143 {
        fill: #8d829a;
      }

      .cls-144 {
        fill: #d3d6df;
      }

      .cls-145 {
        fill: #817992;
      }

      .cls-146 {
        fill: #f19985;
      }

      .cls-147 {
        fill: #716982;
      }

      .cls-148 {
        fill: #cacbd7;
      }

      .cls-149 {
        fill: #958fa5;
      }

      .cls-150 {
        fill: #6d607b;
      }

      .cls-151 {
        fill: #d7dae2;
      }

      .cls-152 {
        fill: #7c5d68;
      }

      .cls-153 {
        fill: #5b5267;
      }

      .cls-154 {
        fill: #a09fb6;
      }

      .cls-155 {
        fill: #cdd0d9;
      }

      .cls-156 {
        fill: #8b8198;
      }

      .cls-157 {
        fill: #b5b2c5;
      }

      .cls-158 {
        fill: #dadee5;
      }

      .cls-159 {
        fill: #b5b3c4;
      }

      .cls-160 {
        fill: #9a94a8;
      }

      .cls-161 {
        fill: #aba6b9;
      }

      .cls-162 {
        fill: #8c869c;
      }

      .cls-163 {
        fill: #6c617c;
      }

      .cls-164 {
        fill: #4b475b;
      }

      .cls-165 {
        fill: #9a98ad;
      }

      .cls-166 {
        fill: #a6a2b6;
      }

      .cls-167 {
        fill: #d3d5de;
      }

      .cls-168 {
        fill: #b0aebf;
      }

      .cls-169 {
        fill: #aba8b9;
      }

      .cls-170 {
        fill: #6a5f7b;
      }

      .cls-171 {
        fill: #736c84;
      }

      .cls-172 {
        fill: #d5d8df;
      }

      .cls-173 {
        fill: #f1f5f8;
      }

      .cls-174 {
        fill: #dcdfe6;
      }

      .cls-175 {
        fill: #b5b5c5;
      }

      .cls-176 {
        fill: #928a9f;
      }

      .cls-177 {
        fill: #aba9bc;
      }

      .cls-178 {
        fill: #928da4;
      }

      .cls-179 {
        fill: #b7b7c8;
      }

      .cls-180 {
        fill: #837d95;
      }

      .cls-181 {
        fill: #e0e4ea;
      }

      .cls-182 {
        fill: #c8c9d4;
      }

      .cls-183 {
        fill: #9793a9;
      }

      .cls-184 {
        fill: #9c99ae;
      }

      .cls-185 {
        fill: #c0c1ce;
      }

      .cls-186 {
        fill: #e4e8ec;
      }

      .cls-187 {
        fill: #d7d9e1;
      }

      .cls-188 {
        fill: #9b94aa;
      }

      .cls-189 {
        fill: #a8a4b7;
      }

      .cls-190 {
        fill: #9391a8;
      }

      .cls-191 {
        fill: #474956;
      }

      .cls-192 {
        fill: #88839a;
      }

      .cls-193 {
        fill: #4e465a;
      }

      .cls-194 {
        fill: #c4c5d1;
      }

      .cls-195 {
        fill: #69647a;
      }

      .cls-196 {
        fill: #7f748d;
      }

      .cls-197 {
        fill: #c5c7d3;
      }

      .cls-198 {
        fill: #474258;
      }

      .cls-199 {
        fill: #c5c6d1;
      }
    </style>
  </defs>
  <g id="_レイヤー_1-2" data-name="レイヤー 1">
    <g id="_生成オブジェクト" data-name="生成オブジェクト">
      <path class="cls-49" d="M294.63,509.45l-12.46,1.79c-1.73.25-3.22.02-5.02.21-1.48.16-6.77,1.64-6.55-1.03.07-.84.87-.61,1.32-.99,1.87-1.58-2.12-2.93-1.26-4.5s4.73.1,5.94-.3c3.86-1.28,7.38-.79,11.14-.11.72.13,9.21-.02,9.21,3.51,0,.65-1.66,1.32-2.32,1.41Z"/>
      <g>
        <g>
          <g>
            <path class="cls-150" d="M143.93,290.3c-.43,3.43.08,6.95.44,10.67.46,4.64.08,9.21.93,13.45,2.92,5.79,3.3,11.83,3.41,18.2.01.73-.28,2.48.82,2.55,6.5.42,12.83-.19,19.01-.51-.26-1.54.66-1.47.91-1.6.38-.25,1,.05,1.18.35.16.27.05,1.18.53,1.34l3.27,1.11c-.17.86.04,1.83.46,2.19.29.25,1.16.01,1.35.58.55,1.55,1.36,2.53,2.96,2.61.5.82.19,1.95.78,2.58.8.84,2.65.09,3.35,1.12.57.85.09,2.58.74,2.72l2.53.58c1.3.3,1.13,2.95,1.37,4.13-5.04.07-10.14-.51-15.09.4-11.85,2.19-2.52,3.62-12.47,4.49-.73,1.11-.27,2.82-1.32,3.49-1.23.77-2.87.16-3.96,1.25-.3,7.24-.74.55-3.87,6.06l-4.9,1.46c.03-7.61-2.66-14.43-4.43-21.99l-1.69-7.21c-.27-1.18-1.18-1.04-1.18-2.78l.07-58.2c0-1.45-.87-3.16-.62-4.52,2.47.26-.34-.27,2.05,6.2.51,1.39-.25,3.07.69,4.51.51.77,1.85.47,2.54,1.14-.07,1.26.29,2.54.15,3.66Z"/>
            <path class="cls-69" d="M95.73,304.37l.15,31.73c.79.53,2.01.54,2.49.8.59.32.27,1.76.96,2.18,1.59.98,4.11.1,5.18,2.09.46.84,1.57,2.44,2.88,2.59-.44,5.17-1.92,7.64-2.74,13.16-1.01-.34-2.42,8.01-1.63,7.88.19,1.01,0,3.33-.57,4.35-.85,1.5-3.43.3-4.42-.32-2.25-1.95-2.43-3.16-5.53-3.61-.32-1.37.06-2.56-.47-3.78-1.57-.33-2.88.03-3.99-.46.06-1.24-.24-2.71-.58-3.89-.31-1.07-1.7-.64-1.23-2.08.8-2.45,5.39-6.32,3.02-8.38-1.6-1.39-10.5-5.21-12.58-5.95-4.73-1.68-9.74-1.17-14.76-1.57-.69.44-1.77,1.37-2,1.94-1.95,4.51.9,10.98-4.12,11.02-.24-8.01-.27-16.07.32-24.06,1.36-.96,1,.2,1.96.15-.08.37-.13.95.03,1.28.31.64.99.24,1.61.24l5.5.02c1.35,0,1.79,2.98,1.76,4.54,2.03.84,4.04.15,5.95.29,5.7.42,11.43.59,17.31.5l.44-32.29c.05-3.89-.03-7.85-.28-11.88-.03-.47-2.08-.68-.37-4.78,1.23-2.93,1.21-6.72,3.51-8.96.84-.3.79.29,1.25.74.7.69-.02.58-.02,1.44l-.05,24.86c0,.31,1.06.4,1.04.22Z"/>
            <path class="cls-58" d="M87.44,357.08c-1.65,0-3.12-.6-4.62-1.34-.53-.64-.57-1.56-.9-2.02-.56-.78-1.54-.46-2.23-.54-3.83-.46-7.68-.9-11.52-.9h-6.81c-.5,0-.73.21-.86.34-.3.29-.42.79-.26,1.13-1.31.76-3.1.21-4.47.49-.15-.73.04-1.45.01-2.17,5.02-.03,2.17-6.5,4.12-11.02.23-.58,1.31-1.51,2-1.94,5.02.41,10.03-.11,14.76,1.57,2.08.74,10.98,4.56,12.58,5.95,2.37,2.06-2.23,5.93-3.02,8.38-.47,1.43.92,1.01,1.23,2.08Z"/>
            <g>
              <path class="cls-101" d="M64.11,375.84c0,.15.24.43.08.58-.9.85-.31,2.34-.47,3.43-.15,1,0,9.68,1.26,9.12.85-.38.04-4.8,1.54-5.1l5.16-1.04c1.24-.25,2.08-1.05,3.6-.92,1.3.11,2.48-.58,2.74-1.63.87.3,2.18-.79,3.48.15l.79-2.38c4.3.13.74-2.36,4.36-3.42.36-1.37.83-8.84-.73-8.81,1.42-1.07,2.14-5.19,2.12-4.84,1.11.5,2.42.14,3.99.46.53,1.22.15,2.42.47,3.78,3.1.45,3.28,1.66,5.53,3.61-1.07,1.09.3,1.88.67,3.08,1.16,3.73.69,8.47-.03,12.24-6.51-.06-.94,2.28-6.18,8.79l-2.96,2.07c-1.03.72-1.9,1.29-1.55,2.5l-1.5,1.09c-1.67-.95-2.85-.14-4.18.12-3.57.71-7.1.97-10.58,2.45-1.6.68-3.99.5-5.32,1.92-.68.72-.64,1.87-1.63,1.89-.63.01-1.5-.02-1.8-.86-.7-1.94-2.7-2.38-3.94-3.55l-7.2-6.79c-.73-.69-1.32-1.01-2.15-.75.43-.32.88-.65,1.08-.94-.36.5-.14-3.95-.49-4.3-.52-.51-1.34-.61-2.33-.79-.87-1.14.33-3.06-.7-4.25-.49-.56-2.01-.38-1.83-1.94.38-3.32-.42-6.87.37-10.15.14-.58,2.1-.57,1.53-2.12-.25-.68.05-1.94.58-2.36.34-.27,1.63,0,1.7-.68.2-1.98,1.54-2.82,1.76-4.21l.75-4.76c.19-1.19,3.03-1.05,3.68-2.31,1.38-.27,3.17.28,4.47-.49,1.36,1.75-.19,3.85-.87,5.47s-.23,3.89-1.11,5.3c-1.83,2.91-.26,5.46,1.46,8.04.68,1.02.65,2.24,1.53,2.78.98.61,1.78,1.21,2.87.51Z"/>
              <path class="cls-14" d="M98.55,398.46l-.12,18.3c-.01,1.97-1.07,2.27-1.82,3.55-1.53,2.6-1.11,6.02-2.25,8.71l-2.68.44c-1.48,10.46-1.44,4.62-3.67,11.87-1.95,6.37-3.55,12.62-5.09,18.99-1.3,5.38.59,14.21-.95,17.08-2.51-1.09-3.59,2.13-4.68,2.98-1.81,1.41-4.08.57-5.95.34l-4.9-6.06c.37-.1.55-.4.78-.54.3-.19.97.51,1.22.32,1.12-.82,1.32-2.88.56-4.07-.34-.54-1.04-.4-.78-.94.12-.25.77-.02.97-.28,1.08-1.4.53-3.33,1.01-5.15.18-.67,1.38-.32,2.08-.72.48-2.96.87-5.74,1.79-8.66l6.75-21.59c.82-2.61,1.56-5.11,2.32-7.64l2.74-9.08c1.03-3.42.96-6.75,1-10.6-4.75-.65-9.48-.94-14.07.89-1.8.72-3.89.17-5.38,1.43-.29-.31.06-1.24.35-1.03.48.34,4.74-2.2,3.75-1.93,3.4-.92,6.52-1.43,9.9-2.08,2.67-.51,4.89-2.27,7.72-2.31.69,0,2.1.25,2.38-.49.15-.39.26-.72.27-1.31,2.22-.32,4.53-.84,6.76-.44Z"/>
              <path class="cls-161" d="M64.57,408.23c-1.63,16.59-.6,33.56-2.21,50.57-2.06.9-4.84.04-5.58,1.13-.58.86,1.44,2.2,1.34,3.34-.08.85-1.09.9-1.74,1.02-.91,1.38-1.09,3.19-1.67,4.68-1.49,1.19-3.13,1.41-5.28,1.74-.87.13-1.23,2.47-2.57,1.65.01-.87-.85-2.33.14-3.16.46-.39,1.24-.15,1.42-.67.51-1.47-.14-3.04.61-3.83.33-.35,1.25-.27,2.19-.5.65-14.96,2.68-30.78-1.7-44.99l-1.24-4.01c-1.63-5.29-1.9-11.6-.13-16.4l.93-2.53c1.52-3.56,6.56,5.63,14.41,10.79.5.33.27,1.39,1.08,1.17Z"/>
              <path class="cls-51" d="M58.56,476.33c.17,1.82,1.33,3.25,2.36,4.96-.41,1.21-.66,3.6-1.61,4.1-2.18,1.14-3.65,2.68-5.9,3.55-2,.78-3.21,3.41-5.27,3.77-2.49.43-3.83,1.45-5.71,2.69-2.64,1.74-12.84,2.96-13.05,3.97l-.62,3.01c-.37.27-1.11.76-1.52.42-.63-.52-.46-6.01-.03-6.81.59-1.09,1.55-1.53,1.05-2.95.24-.57,1.22-1.13.97-1.84.4.02.88.09,1.04-.13.12-.17.08-.37.26-1.02,1.15-.59,1.69-2.06,3.51-1.65-.16-2.04,1.85-2.5,3.02-3.55,1.24-1.12,1.49-3.65,4.2-3.13-.23-1.76,1.46-2.84,2.79-3.55.1-.85.34-1.96.57-2.39.84-.55,1.59.95,2.26.86,3.93-.56,8.04-.42,11.7-.3Z"/>
              <path class="cls-34" d="M29.23,491.2c.25.71-.72,1.27-.97,1.84.5,1.42-.47,1.86-1.05,2.95-.43.81-.6,6.29.03,6.81.4.33,1.15-.16,1.52-.42,6.14.27,12.89.47,19.25-.48l16.67-2.51c1.71-.26,2.9-.28,4.34-.11-.43,1.11-.08,2.08-.37,4.04-3.35-.9-5.58.66-8.31,1.58-7.29,2.47-29.66.42-37.78,2.48-1.63-.99-1.73-3.82-.15-5.38,1.31-1.29.11-3.9,1.11-5.74.55-1.01,2.19-.99,2.5-2.21.24-.94-.03-2.73,1.08-2.94.59-.11,1.39-.29,2.11.08Z"/>
              <path class="cls-188" d="M87.97,397.51c-.76,1.59,4.15,1.34,3.82,1.39,0,.6-.12.93-.27,1.31-.28.74-1.7.49-2.38.49-2.83.04-5.04,1.79-7.72,2.31-3.38.65-6.5,1.16-9.9,2.08.99-.27-3.26,2.27-3.75,1.93-.29-.21-.64.72-.35,1.03-.7.59-2.1-.03-2.86.18-.81.22-.58-.84-1.08-1.17-7.85-5.16-12.89-14.35-14.41-10.79.41-1.1-.52-2.43.57-3.23.82-.27,1.41.05,2.15.75l7.2,6.79c1.24,1.17,3.24,1.61,3.94,3.55.3.84,1.17.88,1.8.86.99-.02.96-1.17,1.63-1.89,1.33-1.43,3.73-1.24,5.32-1.92,3.48-1.48,7.01-1.74,10.58-2.45,1.33-.26,2.51-1.08,4.18-.12l1.5-1.09Z"/>
              <path class="cls-34" d="M98.56,388.04c-.68-.09-.6,1.13-.53,1.88-1.6,1.18-3.96,1.93-5.55,3.03,5.24-6.52-.34-8.86,6.18-8.79.72-3.77,1.19-8.51.03-12.24-.37-1.2-1.74-1.99-.67-3.08.99.62,3.57,1.82,4.42.32.58-1.02.77-3.34.57-4.35.3,0,1.81.14,2,.7l.41,7.6c.03.58-.16,1.42-.39,1.74-.2.28-.92.25-1.58.53l-.35,11.63c-1.7.46-3.86-.57-4.54,1.04Z"/>
              <path class="cls-162" d="M66.43,474.67l4.9,6.06c-.76-.09-2.42.83-2.23,1.66-4.52-2.42-1.16-2.51-8.25-7.16-3.02-1.98-6.38-3.96-10.45-1.98-.94.46-1.85,1.87-3.48.81-.48-.54-.06-1.11-.05-1.69,1.33.82,1.7-1.51,2.57-1.65,2.15-.33,3.79-.55,5.28-1.74.94-.65,3.86-.44,4.64.43.94,1.05.54,2.65,2.46,2.63,2.73-.02,2.49,3.27,4.62,2.63Z"/>
              <path class="cls-122" d="M98.55,398.46c-2.23-.4-4.53.12-6.76.44.32-.05-4.59.21-3.82-1.39-.35-1.21.52-1.78,1.55-2.5l2.96-2.07c1.58-1.1,3.95-1.85,5.55-3.03-.07-.75-.15-1.97.53-1.88.59,3.46.01,6.98,0,10.42Z"/>
              <path class="cls-89" d="M60.85,475.23c-.43.88-1.73.31-2.29,1.1-3.66-.12-7.77-.26-11.7.3-.67.09-1.42-1.41-2.26-.86.43-.81,1.81-1,2.32-1.72,1.63,1.06,2.54-.35,3.48-.81,4.07-1.98,7.43,0,10.45,1.98Z"/>
              <path class="cls-90" d="M75.89,358.73c.28.58,1.09.67,1.61.95-.31,1.44,1.15,1.37,2.23,1.84,1.7.74,2.1,2.85,3.8,3.23-.63,1.15.18,3.22-.48,4.18-.62.9-1.65,3.2-2.63,3.68-.87.43-1.96,1.54-2.66,1.84-4.26,1.8-9.18,1.34-13.56,1.96.16-.15-.07-.43-.08-.58.3-6.36,1.21-13.2,3.86-18.86,2.69-.05,5.34,1.1,7.92,1.76Z"/>
              <path class="cls-45" d="M68.17,352.28c-.17,1.58-.71,3.16-.2,4.69-2.65,5.66-3.56,12.51-3.86,18.86-1.09.7-1.89.1-2.87-.51-.87-.54-.85-1.76-1.53-2.78-1.71-2.58-3.28-5.13-1.46-8.04.88-1.41.42-3.65,1.11-5.3s2.23-3.71.87-5.47c-.16-.34-.03-.84.26-1.13.14-.13.36-.34.86-.34h6.81Z"/>
              <path class="cls-151" d="M85.91,365.81c1.57-.03,1.09,7.44.73,8.81-3.61,1.06-.06,3.55-4.36,3.42l-.79,2.38c-1.29-.93-2.6.15-3.48-.15-4.6-1.6-10.09.41-14.29-.43.16-1.09-.43-2.58.47-3.43,4.39-.62,9.3-.16,13.56-1.96.7-.3,1.79-1.41,2.66-1.84.99-.48,2.01-2.78,2.63-3.68.66-.96-.15-3.03.48-4.18.72.16,1.62,1.07,2.38,1.06Z"/>
              <path class="cls-44" d="M87.44,357.08c.34,1.18.64,2.66.58,3.89.02-.35-.7,3.76-2.12,4.84-.76.01-1.65-.89-2.38-1.06-1.7-.38-2.1-2.49-3.8-3.23-1.07-.47-2.54-.4-2.23-1.84.03-2.87,2.93,2.65,5.2-.74.55-.83.42-1.56-.41-2.46-.09-.52.04-1.41.53-.75,1.5.74,2.97,1.34,4.62,1.34Z"/>
              <path class="cls-39" d="M78.01,380.28c-.26,1.05-1.44,1.74-2.74,1.63-1.52-.13-2.36.67-3.6.92l-5.16,1.04c-1.5.3-.68,4.72-1.54,5.1-1.25.56-1.41-8.12-1.26-9.12,4.2.84,9.68-1.17,14.29.43Z"/>
              <path class="cls-5" d="M66.43,474.67c-2.13.64-1.89-2.65-4.62-2.63-1.92.02-1.52-1.58-2.46-2.63-.77-.87-3.69-1.08-4.64-.43.57-1.49.76-3.3,1.67-4.68.65-.12,1.66-.17,1.74-1.02.1-1.14-1.91-2.48-1.34-3.34.74-1.09,3.53-.23,5.58-1.13,1.61-17.01.58-33.98,2.21-50.57.76-.21,2.16.41,2.86-.18,1.5-1.26,3.58-.71,5.38-1.43,4.59-1.84,9.32-1.54,14.07-.89-.04,3.84.03,7.18-1,10.6l-2.74,9.08c-.76,2.53-1.51,5.03-2.32,7.64l-6.75,21.59c-.91,2.93-1.31,5.71-1.79,8.66-.7.4-1.9.04-2.08.72-.48,1.82.07,3.75-1.01,5.15-.2.27-.85.03-.97.28-.26.54.44.4.78.94.76,1.2.55,3.26-.56,4.07-.25.19-.92-.51-1.22-.32-.23.14-.41.44-.78.54Z"/>
              <path class="cls-83" d="M69.1,482.39c-.44,1.36,1.23,1.73,1.63,2.65l2.23,5.13c1.18,2.73.3,5.84.14,8.68-1.62-.31-2.89.56-4.08.42-1.44-.17-2.63-.15-4.34.11l-16.67,2.51c-6.37.96-13.11.76-19.25.48l.62-3.01c.21-1,10.41-2.22,13.05-3.97,1.88-1.24,3.22-2.27,5.71-2.69,2.07-.35,3.27-2.99,5.27-3.77,2.25-.87,3.72-2.41,5.9-3.55.95-.5,1.2-2.89,1.61-4.1-1.03-1.7-2.19-3.14-2.36-4.96.56-.79,1.86-.21,2.29-1.1,7.09,4.65,3.73,4.74,8.25,7.16Z"/>
              <g>
                <path class="cls-76" d="M81.97,477.41c.58.96-.31,2.47.44,3.52.31.43,1.72-.1,1.8.7.06.61.06,1.16.06,1.87l-.13,21.63-7.36.52c-1.81.13-3.17.29-3.87,2.17l-11.65,1.13-38.58.55c-.53,0-.29-2.1-.13-2.11,8.12-2.06,30.5-.01,37.78-2.48,2.73-.93,4.96-2.48,8.31-1.58.28-1.96-.07-2.92.37-4.04,1.19.14,2.46-.73,4.08-.42.16-2.84,1.05-5.96-.14-8.68l-2.23-5.13c-.4-.92-2.07-1.29-1.63-2.65-.18-.83,1.47-1.75,2.23-1.66,1.87.23,4.13,1.07,5.95-.34,1.1-.85,2.17-4.08,4.68-2.98Z"/>
                <path class="cls-156" d="M81.08,497.21c-.74.8-2.43,1.01-3.98,1-1.08-2.76-1.07-12.27.92-14.46,1.23-1.36.68.6,3.9-1.74.64-.46.19.94,1.33,1.09.41,1.26.5,13.64.06,14.05-.68.63-1.84-.36-2.24.07Z"/>
              </g>
              <path class="cls-106" d="M79.69,353.18c.32.45-.18.56-.37.55l-1.35-.05c-1.2-.04.05,2.24-.41,3.47-.22.58-1.84.67-1.67,1.57-2.58-.66-5.23-1.81-7.92-1.76-.5-1.54.03-3.11.2-4.69,3.85,0,7.7.45,11.52.9Z"/>
              <path class="cls-50" d="M82.83,355.74c-.49-.67-.62.22-.53.75.83.9.96,1.63.41,2.46-2.26,3.39-5.16-2.14-5.2.74-.52-.28-1.34-.37-1.61-.95-.17-.9,1.46-.99,1.67-1.57.45-1.23-.79-3.52.41-3.47l1.35.05c.19,0,.69-.1.37-.55.7.08,1.68-.24,2.23.54.33.47.37,1.38.9,2.02Z"/>
            </g>
            <g>
              <path class="cls-28" d="M172.87,352.76c.16.64-.26,1.25-.49,2.03-.6,2.05,2.15.56,2.69,1.41.25.39-.17.91.03,1.36-.38.02-.55.86-.98,1.04-1.94-.11-2.73,1.05-3.91,1.89s-2.53,1.16-2.2,3.23c-1.5.37-2.44.46-3.37,1.17s-3.22.89-3.42,2.57c-1.43,12.31,1.21,4.03,2.66,10.32,3.47,2.87,12.33,3.42,15.06,1.44.73.85,2.39.8,3.38,1.12,3.15,1.04,6.56-.82,9.1-2.82,1.8.04,2.88-2.56,4.44-3,2.29-.64,5.01.01,6.67-2.01-.11,2.95.52,6.06-.1,9.16-.09.46-1.54.26-1.62.86l-.23,1.68c-.13.96.01,2.06-.56,2.49-.69.52-1.69.38-2.7.46-.48.91-.31,2.04-1.03,2.68-4.38,1.32-12.83,8.09-13.87,12.58-6.28-1.88-12.64-3.55-19.56-3.99-.66-.04-1.2.33-1.88.06-.37-.15-.91-.3-.93-.99.72-2.92-5.29-4.19-8.29-6.67-.86-.71-.83-2.37-2.04-2.11,0-.66-.2-1.26-.64-1.69.48-1.57-.27-3.47-.41-5.25-.19-2.29.29-4.51-.23-7.05-.29-1.43,3.55-4.61,2.8-6.67,3.13-5.51,3.57,1.19,3.87-6.06,1.09-1.09,2.73-.48,3.96-1.25,1.05-.66.59-2.37,1.32-3.49,9.95-.87.62-2.3,12.47-4.49Z"/>
              <path class="cls-98" d="M197.32,393.01c2.79-.96-9.31,11.66-5.88,9.24-6.55,4.61-.13,2.33-9.1,6.36-9.15-1.3-10.31-4-21.26-3.31.26,4.75-.63,10.06,1.77,14.17,1.11,1.9,1.34,3.69,2,5.64l8.84,25.89,2.73,11.81c.21.92,2.14.57,2.25,1.56s.49,1.9.12,3.05c-.5,1.53,1.68.97,1.87,1.55.59,1.82-2.21,2.53-2.87,3.36-1.97,2.53-2.94,5.56-5.76,7.8-.25.2.18.78.14.8l-1.83-.26c-.15-.02-1.85-3.82-3.82-4.37-1.01-4.64,1.36-14.2-2.02-21.64-1.79-3.93-1.73-8.43-3.33-12.68-1.77-4.7-1.08-4.48-3.04-5.74-1.14-2.09-.41-4.55-1.07-6.75-1.09-.35-2.25-.15-3.18-.68-.98-2.94-.67-6.21-1.99-8.76s-1.93-5.47-1.88-8.66l.18-12.65c4.15-.96,8.79,1.57,9.87-1.23.02.69.56.84.93.99.67.27,1.22-.1,1.88-.06,6.92.44,13.28,2.11,19.56,3.99.7.21.33.94.51,1.83.17.83,1.14.62,1.57.15,2.02-2.17-1.92.48,5.66-5.91,2.2-1.85,4.09-4.16,6.57-5.39.18.06.42.03.57-.09Z"/>
              <path class="cls-187" d="M201.4,472.92c-.36.12-1.11.11-.83-.45l-1.24-3.14c-3.79-1.13-7.49-1.53-10.97-.31-1.33-.88-1.4-7.98-2.62-9.71-1.22-7.36-1.4-14.75-1.82-22.41l-1.58-28.28c8.97-4.03,2.55-1.75,9.1-6.36-3.43,2.42,8.67-10.21,5.88-9.24,1.52.89,1.5,2.89,1.65,4.46,1.24,12.65-.38,13.32-1.12,25.14l-.49,7.77c-.09,1.4-.42,3.72-.55,5.51-.6,8.52.01,16.81-.32,25.45-.05,1.22.66,2.95,1.29,3.79,2.09.48,1.76,2.98,2.36,4.36.55,1.27,2.05,2.1,1.25,3.44Z"/>
              <path class="cls-105" d="M200.57,472.47c-.28.56.47.57.83.45.45.48.53,1.46.89,1.98.32.46,1.27-.21,1.75.38.44.55-.15.55-.37.47-.2-.08-.33.28-.26.46-3.89.15-7.83-.23-11.59.67-1.36.33-2.03.58-3.2,1.9-.64.73-2.57.43-3.05,1.72-.3.82-1.03,2.59.22,3.34.94.57,2.38-.05,3.15.69-.55.97.93,1,1.28,1.55,1.03,1.63,2.04,2.48,4.02,2.68.17,1.18,1,2.29,1.8,1.98,1.83-.69,1.52,1.16,2.35,1.63,1.56.9,3.71.58,4.87,2.21,4.02.17,3.69,2.07,9.74,3.34l6.89,1.45-.48,3.38c-2.83-.03-5.7-.05-8.68-.09l-9.17-.11c.86.01-15.56-1.89-17.12-2.06-1.86-.21-3.3-1.48-5.3-1.01-1.1.26-2.6-.64-4.31-.38.02-11-.58-6.68,3.6-15.55.91-.24.58-1.36,1.72-1.89,1.88-.88,2.39-4.05,4.36-4.81,4.77-1.85,1.1-1.25,7.14-4.45,1.85-.98,6.46,1.05,8.9.06Z"/>
              <path class="cls-33" d="M203.41,476.21c.85.07,1.35.4.55,1.56,1.79.33,2.42,3.29,3.74,3.73,1.69.57,1.99,2.08,3.26,3.03,1.09.81,2.81,2.39,3.91,3.15l4.69,3.25c2.35,1.62,2.58,2.59,3.76,4.79,1.06,1.96,2.9,4.38,2.32,6.95-2.08.19-4.15.12-6.22.1l.48-3.38-6.89-1.45c-6.06-1.27-5.72-3.17-9.74-3.34-1.16-1.63-3.31-1.32-4.87-2.21-.83-.48-.52-2.32-2.35-1.63-.8.3-1.63-.81-1.8-1.98-1.98-.2-2.99-1.06-4.02-2.68-.35-.55-1.84-.59-1.28-1.55-.07-1.27,2.11-.95,2.58-1.72,1.12-1.83.33-4.17.28-5.93,3.76-.9,7.7-.52,11.59-.67Z"/>
              <path class="cls-125" d="M172.18,480.92c1.4.2,3.41.07,4.68-.12.55-.08,2.05.49,1.85,1.01-.14.37.01,1.14-.37,1.16s.39.55.1.6c-4.18,8.87-3.58,4.55-3.6,15.55,1.7-.26,3.21.63,4.31.38.23,1-.57,2.48.59,3.28,1.06.72,3.05-.07,4.1.86,1.13,1,1.82,1.65,3.33,1.81,8.67.95,17.32.49,26.21.84l12.78.51c-.22.48.53,2.71-.45,2.69l-40.75-.63c-3.39-.05-6.8-1.06-9.92-1.08,2.56-2.95-10.13-2.26-10.39-2.58-.39-2.93-.03-5.41-.1-7.87l6.92.38c.13-3.84.33-8.05-.03-11.18-.42-3.69-4.17-4.93-6.76-4.73.08-.79.73-.75,1.71-.89.16-1.45.42-3.26.13-4.61,1.98.55,3.67,4.34,3.82,4.37l1.83.26Z"/>
              <path class="cls-197" d="M187.96,352.37c2.71-.04,4.93,3.48,4.93,4.03,0,1.24-.43,3.26.7,4.28.74.66,2.53.24,3.31,1.17.82.99.11,2.86,1.19,3.81.64.56,2.13.1,2.66.95.35.56-.16,2,.31,2.58,1.09,1.37,1.51,1.85,1.45,3.32-1.65,2.02-4.38,1.36-6.67,2.01-1.55.44-2.63,3.04-4.44,3,2.38-2.63,1.42-10.78.23-13.29-.88-1.85-5.25-5.98-8.03-5.99,1.76-1.76-7.38-1.51-5.39-.65-.8.31-2.45.55-3.13-.01-.2-.45.23-.97-.03-1.36-.55-.85-3.3.64-2.69-1.41.23-.78.65-1.38.49-2.03,4.95-.91,10.05-.33,15.09-.4Z"/>
              <path class="cls-4" d="M219.43,502.77c2.08.02,4.14.1,6.22-.1.82.85,1.11,2.93.52,4.12l-12.78-.51c-8.88-.36-17.53.11-26.21-.84-1.51-.17-2.2-.81-3.33-1.81-1.05-.93-3.04-.14-4.1-.86-1.17-.8-.36-2.28-.59-3.28,2-.47,3.44.8,5.3,1.01,1.56.17,17.98,2.07,17.12,2.06l9.17.11c2.98.04,5.85.06,8.68.09Z"/>
              <path class="cls-143" d="M164.56,497.32c-.15-5.16-.38-10.39.13-15.53,2.59-.2,6.34,1.04,6.76,4.73.36,3.13.16,7.35.03,11.18l-6.92-.38Z"/>
              <path class="cls-99" d="M151.25,368.05c.75,2.07-3.09,5.25-2.8,6.67.52,2.54.04,4.76.23,7.05.15,1.77.89,3.67.41,5.25-.85.07-3.78.65-3.82-.45l-.51-11.36c-.1-.34-1.33-.19-1.54-.47-.25-.34-.52-4.12.16-4.6.75-.52,2.23-.41,2.96-.63l4.9-1.46Z"/>
              <path class="cls-187" d="M196.75,393.1c-2.48,1.23-4.37,3.53-6.57,5.39-7.58,6.39-3.65,3.75-5.66,5.91-.44.47-1.4.67-1.57-.15-.19-.89.19-1.62-.51-1.83,1.03-4.49,9.48-11.26,13.87-12.58-.24.21-.06,1.01-.08,1.32-.01.23.64.3.89.85.14.31-.62.74-.36,1.1Z"/>
              <path class="cls-63" d="M160.06,397.49c-1.08,2.8-5.72.28-9.87,1.23.02-.36-.51-.61-.51-1.18l.05-8.83c1.21-.26,1.18,1.4,2.04,2.11,3.01,2.49,9.01,3.75,8.29,6.67Z"/>
              <path class="cls-155" d="M178.23,357.58c-.46,3.57,3.05,16.38,4.62,18.89.56.9-.26,3.02-.54,3.86-.98-.32-2.65-.27-3.38-1.12-1.26-1.47-2.99-1.68-4.66-2.54-11.8-6.06-8.67-4.92-9.43-10.26l-.22-1.52c.93-.71,1.87-.8,3.37-1.17-.33-2.07.97-2.36,2.2-3.23s1.97-1.99,3.91-1.89c.43-.17.61-1.02.98-1.04.67.56,2.33.32,3.13.01Z"/>
              <path class="cls-24" d="M178.94,379.21c-2.73,1.98-11.59,1.43-15.06-1.44-1.45-6.29-4.09,1.99-2.66-10.32.2-1.68,2.5-1.86,3.42-2.57l.22,1.52c.76,5.34-2.37,4.2,9.43,10.26,1.67.86,3.4,1.07,4.66,2.54Z"/>
              <path class="cls-65" d="M191.42,377.51c-2.54,2-5.94,3.86-9.1,2.82.27-.84,1.1-2.97.54-3.86,2.73.44,5.47-.83,6.21-4.01s.03-8.41-2.64-10.36c-1.61-1.17-2.57-2.14-2.8-3.87,2.77.01,7.15,4.14,8.03,5.99,1.19,2.52,2.14,10.66-.23,13.29Z"/>
              <path class="cls-112" d="M182.34,408.61l1.58,28.28c.43,7.67.61,15.06,1.82,22.41,1.22,1.73,1.29,8.83,2.62,9.71-.29.7-.03,1.55-.29,2.41-2.56.54-11.02,7.08-11.2,9.37-1.27.19-3.28.32-4.68.12.04-.02-.39-.6-.14-.8,2.81-2.24,3.79-5.27,5.76-7.8.65-.84,3.45-1.54,2.87-3.36-.19-.59-2.37-.02-1.87-1.55.37-1.15,0-2.04-.12-3.05s-2.04-.64-2.25-1.56l-2.73-11.81-8.84-25.89c-.66-1.94-.89-3.74-2-5.64-2.41-4.11-1.52-9.42-1.77-14.17,10.95-.69,12.11,2.01,21.26,3.31Z"/>
              <path class="cls-85" d="M200.57,472.47c-2.44.99-7.05-1.04-8.9-.06-6.04,3.21-2.37,2.61-7.14,4.45-1.97.76-2.48,3.93-4.36,4.81-1.14.53-.82,1.65-1.72,1.89.29-.05-.49-.57-.1-.6s.23-.8.37-1.16c.2-.53-1.3-1.1-1.85-1.01.18-2.29,8.64-8.83,11.2-9.37.26-.86,0-1.71.29-2.41,3.48-1.22,7.18-.81,10.97.31l1.24,3.14Z"/>
              <path class="cls-108" d="M191.82,476.88c.04,1.76.83,4.1-.28,5.93-.47.77-2.65.44-2.58,1.72-.77-.74-2.21-.12-3.15-.69-1.25-.75-.52-2.52-.22-3.34.47-1.28,2.4-.99,3.05-1.72,1.17-1.32,1.83-1.57,3.2-1.9Z"/>
              <path class="cls-91" d="M183.62,358.22c.22,1.73,1.19,2.7,2.8,3.87,2.68,1.95,3.37,7.2,2.64,10.36s-3.48,4.45-6.21,4.01c-1.58-2.51-5.08-15.31-4.62-18.89-1.99-.86,7.15-1.11,5.39.65Z"/>
            </g>
          </g>
          <g>
            <path class="cls-169" d="M77.9,148.4c-1.16,1.88-5.89,13.02-4.58,16.73,2,.37,3.1,1.92,3.14,3.76.04,1.61,2.12,2.06,2.42,2.92.41,1.19,6.82,8.13,8.8,8.02.54.58.23,2.41,1.06,2.56,8.03,1.46-.42.83,7.12,2.58.46.54.23,2.13.76,2.27,9.61,2.42-1.74,1.69,7.95,2.62,1.56,2.3,10.06,4.03,12.34,2.63,1.16-.71.18-1.9.04-3.08-.45-3.93.02-7.78-.14-11.53-.08-2,.66-2.4,1.76-3.04,2.21.9,1.62,3.65,1.21,5.67-.44.14-.51.54-.71.88-.39.67.89.72.87,1.08-.27,5.47.92,10.88,1.15,16.39.24,5.94,1.41,11.44,2.18,17.25.23,1.75,1.09,2.18,1.5,3.27.6,1.57,2,12.13,1.01,12.84l-8.38-.1c.45-1.15-4.35.12-6.29-.83-.5-.24-.21-1.28-.64-1.31l-.84-.06c-5.04-.38-10.17-.78-15.26-2.49-4.44-1.49-9.21-.82-13.64-1.84-.36-2.14-2.4-2.64-4.44-1.98-.17-1.1-1.54-1.4-1.68-1.93-.16-.59-1.4-1.1-1.49-1.67-.17-1.52-.92-2.71-1.75-3.84-1.38-1.88-.83-5.19-2.69-6.74-3.46-2.89-.87-2.68-3.97-10.45-.19-.47-2.02-.16-1.83-1.18.26-1.39-.27-2.78-.4-3.85.75-1.48.92-3.08.81-5.04-.37-6.36.53-12.73-.2-18.74l.95-4.57c1.08-.66,1.56-1.53,2.08-2.51l2.47-4.61c1.41-2.65,3.65-4.65,4.35-7.4,3.72-.98,1.91-3.36,4.96-2.63Z"/>
            <path class="cls-140" d="M106.73,254.3l-9.63-1.79c-3.85-.72-7.96.2-11.78-1.01,1.03-2.33-3.31-.65-8.96-2.84-1.18-.46-2.9.14-3.7-1.08-.5-.76.06-1.98-.65-2.72-1.89.04-3.67.05-4.17-1.43l.47-12.6c1.8.2,2.91-.13,4.06-.4.93-.22,2.25.34,2.88-.4,4.03.46,8.69,1.2,12.86,1.99l14.49,2.74c1.45.27,2.83.13,4.27.15l-.14,19.38Z"/>
            <path class="cls-127" d="M109.65,229.89l.44,1.8c-1.86.33-2.64.99-3.63,1.28,1.69,3.65-9.46-.72-9.88-.41.63-2.41-6.45-3.96-8.26-4.65.49,1.8,6.24,2,7.49,4.07-2.52.81-4.5-.32-6.68-.73-3.87-.72-7.49-1.26-11.3-1.46-.3-1.08-.74-2.15-.95-.67-.35.53-.98.21-1.32.26-.21.03-.4.31-.31.65-.63.74-1.94.18-2.88.4-.24-1.62-1.2-4.99.08-5.6l1.95-.93c.52-.25.34-1.52.22-2.25.14.53,1.51.83,1.68,1.93,2.04-.66,4.08-.17,4.44,1.98,4.43,1.03,9.2.35,13.64,1.84,5.09,1.71,10.22,2.11,15.26,2.49Z"/>
            <path class="cls-199" d="M103.99,123.37c5.5,1.99,11.54,2.82,17.43,2.96l.5,20.9.11,26.12c-2.04-.22-2.64,1.01-3.45,1.48-1.11.64-1.85,1.04-1.76,3.04.15,3.75-.32,7.6.14,11.53.14,1.18,1.12,2.37-.04,3.08-2.28,1.4-10.78-.33-12.34-2.63-9.69-.93,1.67-.2-7.95-2.62-.53-.13-.3-1.73-.76-2.27-7.54-1.75.91-1.12-7.12-2.58-.83-.15-.52-1.98-1.06-2.56-1.97.11-8.39-6.83-8.8-8.02-.29-.86-2.38-1.31-2.42-2.92-.04-1.84-1.15-3.39-3.14-3.76-1.31-3.7,3.41-14.85,4.58-16.73l4.21-6.81c.43-.69.02-2.22.85-2.44l2.73-.72,1.7-4.02c3-.96,1.56-1.13,2.95-4.9,4.3,1.58,1.56-4.61,4.3-5.95,3.05-.41,6.97,1.07,9.36-.19Z"/>
            <path class="cls-95" d="M153.44,132.35l-2.82,1.56-2.33,1.97c-1.55,1.31-3.68,1.92-5.1,3.24-4.61,3.14-6.8,2.38-9.76,4.64-1.58,1.21-4.59-.1-5.78,1.21-1.53,1.7-3.79,2.33-5.73,2.26l-.5-20.9c.25,0,.55-.61.94-.64l10.01-.58c-3.48.2,14.85,1.55,13.84-1.12l4.93-1.11c1.02,1.89.1,4.24,1.21,6.02.77,1.23,1.34,2.03,1.09,3.44Z"/>
            <path class="cls-192" d="M180.07,148.37c-1.6.7-3.57.77-4.78,2.08-.36.3-.94.55-1.57.32,2.21.81-2.63-2.1-2.4-1.59-.05-.11-2-4.18-1.7-3.86-.97-1.04-3.17-1.46-2.83-3.7.18-1.19,1.51-1,2.49-.79,1.48.33-.92,2.45,4.17,4.51l4.55,1.84c.99.4,2.1.06,2.08,1.19Z"/>
            <path class="cls-34" d="M147.31,290.52c-.03.35.34.57.65.58-.21,3.79,1.6,7.18,3.77,10.38.74,1.1-.08,3.16,1.13,4.03.47.34,1.35.24,1.79.63-.89-.8,4.95,10.15,5.24,10.7.36.67,1.86.94,2.11,2.22.32,1.67,1.66,2.76,2.7,3.97,1.58,1.84,2.21,4.29,4.02,5.97.64.6,1.11.92,1.35,1.65.31.96-.49,1.45-.62,2.4-.24.13-1.16.06-.91,1.6-6.18.33-12.51.93-19.01.51-1.11-.07-.81-1.82-.82-2.55-.11-6.37-.49-12.41-3.41-18.2-.84-4.23-.47-8.81-.93-13.45-.37-3.72-.87-7.24-.44-10.67.31-.33.53-.54.97-.49.54.06.61.53.99,1.01.24.29.8.19,1.01.13.18-.05.02-.42.41-.43Z"/>
            <path class="cls-107" d="M117.41,232.1l8.38.1c.55,1.22.15,3.16.55,4.4-5.37-.1-7.48-.17-13.72.25-.25,4.45-.29,8.38,0,12.83l17.07-.39c.28,1.77.7,3.57.6,5.37-.36.04-.87.07-1.23.06l-20.48-.39c.04-.52-.59-.74-1.16-1.24l.06-15.94c0-1.2.01-3.19.66-4.07,2.93-1.56,6.27-1.02,9.27-.98Z"/>
            <path class="cls-171" d="M109.65,229.89l.84.06c.42.03.14,1.07.64,1.31,1.94.95,6.74-.32,6.29.83-3-.04-6.33-.58-9.27.98-.65.87-.66,2.87-.66,4.07l-.06,15.94c.57.5,1.2.72,1.16,1.24-.62-.01-1.24.09-1.86-.03l.14-19.38c-1.44-.02-2.82.12-4.27-.15l-14.49-2.74c-4.16-.79-8.83-1.53-12.86-1.99-.09-.34.09-.62.31-.65.34-.05.97.27,1.32-.26.21-1.47.65-.4.95.67,3.8.2,7.42.75,11.3,1.46,2.18.4,4.16,1.54,6.68.73-1.25-2.08-7.01-2.27-7.49-4.07,1.81.69,8.89,2.24,8.26,4.65.42-.32,11.57,4.06,9.88.41.99-.29,1.77-.96,3.63-1.28l-.44-1.8Z"/>
            <path class="cls-94" d="M90.02,286.07c-1.72,4.1.34,4.31.37,4.78.25,4.03.33,7.99.28,11.88-2.56.63,1.04-4.92-1.98-4.83-.03,1.18-1.62,1.55-1.93,2.2-1.01,2.1-.73,4.64-1.54,7.02-2.56,7.54-.44,7.79-3.57,15.75-.85,2.16.18,5.25-1.73,7.41-2.3.57-4.93-.52-7.58.6.46,1.6.67,2.59.58,3.64-1.91-.14-3.91.54-5.95-.29.02-1.56-.41-4.53-1.76-4.54l-5.5-.02c-.62,0-1.3.4-1.61-.24-.16-.33-.12-.91-.03-1.28.47-.56.51-1.32.54-2.43l11.66.16c.81.01,1.46.09,1.93-.44.38-.43.4-1.03.36-1.61,1.07-.17,2.43-.66,2.99-1.28.83-.9.89-2.11,1.08-3.28.2-1.28,1.59-2.58,1.96-4.01,1.01-3.91,1.22-8.18,1.17-12.19,1.38-.9,2.96-.9,3.79-2.62,1.79-3.72,3.05-7.8,2.99-11.79.68-.3,1.41-.24,1.65-.51.3-.34.34-.91.52-1.67.13-.54.96-.25,1.32-.4Z"/>
            <path class="cls-46" d="M78.57,303.03c.22.27.89.22,1.18.03.05,4.01-.16,8.28-1.17,12.19-.37,1.42-1.75,2.73-1.96,4.01-.19,1.18-.25,2.38-1.08,3.28-.57.62-1.92,1.1-2.99,1.28-1.86.3-4.07-.11-6.05-.36l-9.18-1.17c-.6-.08-1.08-.23-1.29-.56s-.45-1.45-.1-1.43c3.57.29,7.2.42,10.49,1.72,4.04,1.59,8.52-7.54,9.43-10.98.75-2.84.66-5.49,1.67-7.86.39,0,.68-.6,1.05-.15Z"/>
            <g>
              <path class="cls-40" d="M85.32,251.5c-.23.52.31.72.52.97.31.39,1.04.14,1.6.24l6.15,1.15c2.23.42,4.13,1.03,6.57.28.11,4.98-.47,10.27-3.15,14.81-.95,1.61-.93-2.49-2.55,7.5-.9.07-1.09.35-.93.65-2.3,2.24-2.28,6.02-3.51,8.96-.36.15-1.19-.13-1.32.4-.18.76-.23,1.33-.52,1.67-.23.27-.97.21-1.65.51.06,3.99-1.2,8.07-2.99,11.79-.83,1.72-2.41,1.72-3.79,2.62-.29.19-.96.24-1.18-.03,0-.32.38-1.8-.26-1.89l-14.14-1.97-11.11-1.31c-.88-.1-1.58-.18-1.95.36-.2.29-.49,1.22-.09,1.71,1.09,1.34,3.28.24,4.75.59,12.45,2.99,11.67.52,21.76,2.66-1.01,2.38-.92,5.02-1.67,7.86-.91,3.44-5.39,12.57-9.43,10.98-3.28-1.3-6.92-1.43-10.49-1.72-.35-.03-.11,1.1.1,1.43s.7.49,1.29.56l9.18,1.17c1.98.25,4.19.66,6.05.36.04.58.02,1.18-.36,1.61-.47.53-1.12.45-1.93.44l-11.66-.16c-.03,1.12-.07,1.87-.54,2.43-.96.05-.6-1.11-1.96-.15.04-.53.25-1.4,0-1.82-.24-.39-1.43-.62-1.84-.46-1.57.6-2.05-.84-3-1l-5.56-.94c-.57-8.65,1.17-1.59,2.1-7.46l2.35-14.79c.12-.73.26-1.19.09-1.74s-1.2-.18-1.48-.54c-1.24-1.56-.34-3.34.49-4.68,1.34-2.19.44-5.29,1.57-8.05,1.28-3.11.22-7,1.92-10.51,3.25-6.71-.53-2.58,2.83-8.04,1-1.61.08-5.87,1.27-7.33.5-.6,1.74-.24,2.24-.58l2.29-9.2c.13-.51,2.02.31,2.32-.06,1.82-2.27-1.1-5.07,1-6.44,1.06-.69,2.52.04,3.17-.94.5,1.48,2.28,1.47,4.17,1.43.71.74.15,1.97.65,2.72.8,1.22,2.52.62,3.7,1.08,5.65,2.19,9.99.5,8.96,2.84Z"/>
              <path class="cls-166" d="M89.46,262.84c2.98,1.78,3.82-3.18,5.37-2.43.34.16.5,1.24.2,1.78l-2.88,5.37c-6.05.59-11.77-.66-17.49-2.49-3.62-1.16-9.29-1.86-13.13-4.79,3.01-1.2,5.6.38,8.23,1.32l4.37,1.56c3.66,1.3,7.29,1.79,11.17,2.53.65-.75.17-1.46.62-2.43,1.28.6,2.58.44,3.53-.42Z"/>
              <path class="cls-120" d="M78.57,303.03c-.38-.45-.66.14-1.05.15-10.09-2.13-9.31.34-21.76-2.66-1.47-.35-3.66.75-4.75-.59-.4-.49-.11-1.42.09-1.71.37-.53,1.07-.46,1.95-.36l11.11,1.31,14.14,1.97c.65.09.27,1.57.26,1.89Z"/>
            </g>
            <g>
              <path class="cls-53" d="M125.7,9.04l.48,8.34c1.28-1.07,2.73-1.71,3.8-.7.48.45.02,2.42,1.3,2.34,8.51-.5,8.9,6.49,12.91,5.67.67,6.12.28,12.37.35,18.77-1.39.6-2.86-.42-3.77,1.3l8.22.63c.52,1.33.1,2.22-.17,3.18-.49,1.76-1.98.95-2.9,1.72-1.17.97-1.6,1.41-2.99,1.61l-14,2.05c-4.81.7-4.73,2.02-7.11,2.9l-.3-55.56c2.77,1.61,3.97,4.63,4.15,7.73Z"/>
              <path class="cls-181" d="M154.02,45.75c-1.53-.95-3.38-.22-5.03-.35l-8.22-.63c.9-1.72,2.38-.7,3.77-1.3-.07-6.4.32-12.65-.35-18.77,1.58-.32,4.7,1.23,3.83,3.63,2.13.03,5.32,7.57,5.44,8.57l.46,3.73c.24,1.93.91,3.64.11,5.12Z"/>
              <path class="cls-181" d="M144.19,24.69c-4.02.82-4.4-6.17-12.91-5.67-1.28.08-.82-1.89-1.3-2.34-1.07-1.01-2.52-.36-3.8.7l-.48-8.34c1.52-1.11-.18,3.19,3.79,4.05,2.18.47,4.25,1.05,5.67,3.36.49.78,2.88.48,3.21,1.53,1.48,4.66,5.22,1.23,5.82,6.71Z"/>
              <g>
                <path class="cls-101" d="M121.55,1.31l.3,55.56-.53,48.78c-2.24-.93-5.03-1.83-7.6-2.48-.56-.14-.14-2.28-1.2-2.31-2.59-.09-3.93-1.44-5.52-3.07-4.14-1.35-2.89.67-4.28-2.13-.3-.62-1.64-.08-2.05-.6l-2-2.56c-.36-.47-1.34-.07-1.76-.36-.51-.35-.18-1.37-.37-2.25-1.44-.99-3.2-.41-4.63-.56-.05-.83.46-2.05-.26-2.9-.36-.42-1.18-.21-1.47-.41-.5-.33-.62-1.18-.62-2.03v-41.56s.67-8.48.67-8.48l1.86-.52c.93-.26-.53-4.34,1.43-4.53.68-.06,1.12-.14,1.39-.3,1.29-.79.1-2.35,1.12-3.45.61-.65,2.21.13,3.02-.78.57-.64.2-2.54.67-3.16.69-.9,3.38-.45,4.11-1.05.61-.5.45-1.37.5-2.19.09-1.71,2.72-.75,4.48-1.68.66-.35,0-1.92.63-2.32,1.81-1.14,4.91-.24,6.4-1.91,1.81-2.02.66-5.45,2.06-7.5.89-1.31,3.1-1.75,2.72-4.58,1.27.35.8.86.92,1.31Z"/>
                <g>
                  <path class="cls-26" d="M114.14,91.74c-.55-1.66-.46-3.72-.16-5.43.35-2.02-.25-3.7-.26-5.61l-.15-16.49-14.48-1.2c-.37-2.02-.29-3.63-.14-6.11,6.06.15,11.89.56,18,1.52.36,2.86.05,5.55.02,8.44l-.24,24.84c0,.64-2.36.75-2.59.03Z"/>
                  <path class="cls-21" d="M104.11,46.41c0,1.38.7,3.88-.92,4.42s-3.53.91-4.07-.65c-.51-1.47-2.25-2.16-1.87-3.67l6.85-.09Z"/>
                  <path class="cls-67" d="M104.11,46.41l-6.85.09c-.92-.3-1.96.05-3.18-.46,1.36-.79,2.88.15,4.35-.51,1.93-.86,4.07-.01,6.29-.39,1.72-.29,3.44-1.06,5.05-.19l-5.65,1.45Z"/>
                  <path class="cls-153" d="M107.5,80.44c.67-.65,1.11-.17,1.52.12.32.22.16.99-.34,1.46s-2.03-.76-1.18-1.58Z"/>
                  <path class="cls-193" d="M108.35,76.29c-.75-.55-1-1.85-.2-2.83,1.1.38,1.36,1.11.2,2.83Z"/>
                  <path class="cls-38" d="M102.66,73.9c.39-.83,1.26-.43,1.36-.12.15.46.03,1-.32,1.32-.48.45-1.54-.15-1.04-1.21Z"/>
                  <path class="cls-110" d="M108.13,85.94c.67-.34.96.06,1,.57.02.29-.04.74-.54,1.13-.23.18-.51.19-.8-.3-.25-.41-.27-1.09.34-1.4Z"/>
                  <path class="cls-84" d="M103.14,79.69c.32-.26.6.35.73.49.2.22.31.86-.15,1.04-.36.15-.87.17-1-.22-.11-.32-.17-.84.42-1.32Z"/>
                  <path class="cls-164" d="M108.26,70.14c-.47-.35-.43-1.64-.03-2.19.5.48.77.66.87.85.17.3,0,.74-.84,1.34Z"/>
                  <path class="cls-198" d="M102.63,68.35c.41-.81,1.03-.28,1.25-.03.43.49.04.76-.22,1.05-.51.57-1.52-.04-1.02-1.02Z"/>
                  <path class="cls-88" d="M103.13,84.67c.29-.22.55.27.69.38.42.3.17.68-.14.97-.44.42-.61.13-.97-.18-.44-.38-.29-.63.41-1.16Z"/>
                </g>
              </g>
              <g>
                <path class="cls-62" d="M154.02,45.75c-.3.56.26.92.27,1.6l.18,34.99-1.6,3.8c-1.54-.29-.99,1.5-1.05,2.5-.91.49-2.05.17-3.56.37l-.93,3.09c-.89.14-1.93.13-2.63.52-.49.27-.26,2.04-.86,2.2-1.79.45-2.88.75-3.94,2.4l-3.59.76c-.71.15-.57,1.72-1.05,2.09-1.7,1.34-4.93-.25-4.59,3-2.23.83-5.34.73-7.45,2.03-.39.24-.17,1.59-1.07,1.45-.42-.07-.76-.45-.83-.91l.53-48.78c2.38-.87,2.3-2.19,7.11-2.9l14-2.05c1.39-.2,1.82-.64,2.99-1.61.92-.76,2.41.04,2.9-1.72.27-.97.69-1.85.17-3.18,1.64.13,3.5-.6,5.03.35Z"/>
                <g>
                  <path class="cls-53" d="M152.87,86.15l.05,2.92c-.41-.04-.86-.03-1.11-.42.06-1.01-.49-2.79,1.05-2.5Z"/>
                  <path class="cls-36" d="M130.04,80.13c-.04,1.79-.7,3.78-.18,5.31s.95,6.57-.5,6.66c-1.16.08-2.19.09-2.2-1.39l-.13-32.51,18.34-1.61c.44,2.08.29,3.96.02,6.21l-15,1.43-.35,15.89Z"/>
                  <path class="cls-8" d="M135.96,82.12c-.64-.21-.58-.88-.69-1.15-.15-.37,0-1.03.61-1.06.71-.04.72.74.74,1.08s-.21,1.27-.66,1.13Z"/>
                  <path class="cls-18" d="M141.01,75.21c-1.27-.12-.34-2.23.07-2.15.64.12.93.49.9.8-.04.38.1,1.45-.97,1.35Z"/>
                  <path class="cls-22" d="M136.35,75.93c-.4.58-1.13-.18-1.16-.59-.04-.59-.32-1.89.52-1.88s.47,1.04.63,2.47Z"/>
                  <path class="cls-93" d="M140.79,79.44c.59-.4,1.02.2,1.03.51.02.39.09,1.05-.31,1.24-.48.23-.89-.13-1.13-.46s-.21-.87.4-1.29Z"/>
                  <path class="cls-191" d="M135.78,68.31c.64-.37.88.26.85.54-.04.38-.1.92-.32,1.1-.33.27-.91,0-.99-.27-.14-.5-.19-1.01.46-1.38Z"/>
                  <path class="cls-78" d="M135.84,86c.45-.31.74.33.76.58.02.27-.01.89-.28,1.01-.46.21-.73-.02-.88-.24-.26-.39-.26-.88.41-1.35Z"/>
                  <path class="cls-32" d="M141.93,68.74c.02.91-.59,1.06-.94.87-.4-.21-.34-.86-.25-1.38s1.18-.61,1.2.5Z"/>
                </g>
              </g>
            </g>
            <g>
              <path class="cls-27" d="M138.5,274.8c-.25,1.36.62,3.07.62,4.52l-.07,58.2c0,1.74.9,1.6,1.18,2.78-2.87.64,1.25,1.84-5.91,2.9-.23,3.94-3.41.83-5.37,4.66-4.55.51-10.24.62-14.51.02-.34-1.57-2.43-1.78-3.4-2.56-1.59-1.27-2.07-1.38-3.66-1.57-1.31-.15-2.42-1.75-2.88-2.59-1.08-2-3.59-1.11-5.18-2.09-.69-.42-.37-1.86-.96-2.18-.48-.26-1.7-.27-2.49-.8l-.15-31.73-.03-19.31c0-.24-.86-.74-.53-.98,1.56-1.12-1.21-.25.68-4.92.43-1.07,3.79-.96,4.29.14l.65,16.43c.38.36,1.72.1,1.56,1.06-.05.33-.37.61-1.05.88-1.04.42-.66,1.56-.56,2.27s.62.92,1.56,1.34c-2.26.23-1.93,8.6-1,9.24.26.29,1.94-.26,1.75.5-.09.39.35.89-.38,1.63-.33-.74-.15-1.28-1.08-1.13-.37.06-.98.21-.95,1.14l.34,11.18c.02.58,2.67,1.04,1.31,2.02-.38-.06-.83-.39-1.07-.22-.33.22-.58.69-.47.96.09.23.58.6.46.77-.72,1.07-.07,2.4,1.22,3.11.37.54-.76,1.16.13,1.82,1.9-1.52,3.81-3.67,4.8-5.8-1.24-.61-2.25-1.81-2.33-3.14-.48-.38-2.11-.21-2.08-1.4.01-.71.88-.77,1.16-.59,1.53.97,1.14,1.86,2.17,1.76.58-.06,1.51-.95.83-1.19-1.28-.44-1.46-1.22-1.1-1.6.55-.58,1.07-.71,1.67-.4.43.22.62,2.69.59,2.71-1.21.95-2.19.4-1.96,1.34.29,1.25,1.49.44,1.91,1.05-.26-.39,0,2.87-.09,2.95-1.95,1.93,1.28,2.6,4.05,5.35.42.42.07,1.55.98,1.51.45-.02.91.16,1.39,0,0,.57.16,1.18-.12,1.62s-.61.58-1.27.8c1.43,2.52,5.23-4.18,5.47-1.69s-1.9,1.57-1.19,2.76c.11.19.46.48,1.05.23s.73-1.4,1.42-1.08c.36.17.89.57,1.3.88.33.25-.4.96-.23,1.24.69.37,1.92.07,2.38-.63.95-1.46-2.55-1.35-2.31-2.83.44-2.76,2.35,1.01,5.27,2.36,1.25-.75,6.09-2.24,5.11-3.94-.86-1.49-2.28.36-2.59-.93-.11-.44.02-.87.26-1.05,1.27-.92,2.16,2.1,4.65,2.31l.19-7.92.09-57.12c1.31.38,2.56.03,4.09.89-.88,1.58.55,3.12.39,4Z"/>
              <path class="cls-59" d="M107.94,334.28c-.64-.29-.32-.8,0-1.13.35-.37.94-.57,1.84-.46.71.09.49,1.07.19,1.57-.36.6-1.17.41-2.03.02Z"/>
              <path class="cls-195" d="M111.86,336c-.13.84-1.75.21-1.6-.81.09-.65,1.76-.17,1.6.81Z"/>
            </g>
            <path class="cls-189" d="M90.66,302.73l-.44,32.29c-5.88.09-11.62-.08-17.31-.5.1-1.06-.12-2.04-.58-3.64,2.66-1.12,5.28-.03,7.58-.6,1.91-2.16.88-5.25,1.73-7.41,3.13-7.96,1.01-8.22,3.57-15.75.81-2.38.54-4.92,1.54-7.02.31-.65,1.9-1.02,1.93-2.2,3.02-.09-.58,5.46,1.98,4.83Z"/>
            <g>
              <path class="cls-33" d="M174.66,110.55c.49.89-.18,2.01.25,3.03l3.76.83c.55.12.19,1.21.41,1.5.34.45,1.39.56,2,.58,1.16.03.82,1.87,1.44,2.21,1.35.51,4.12.03,4.67,1.87.22.76-.24,2.03.95,2.2l8.08,1.25c.26,1.25.04,2.26.61,2.99,1.08,1.38,2.33,1.41,3.82,1.4l2.87-.04c1.8-.02,4.75-.48,5.37-2.74l1.22-4.42.12-7.15c1.96-.98,7.97,11.04,8.15,11.76l1.19,4.7c.49,1.93.37,3.53.48,5.12,2.26,1.9-13.69,4.09-13.19,4.1l-12.47-.2c-1.53-.02-2.69,2.33-4.37,2.06-.27-.67.35-1.64-.12-2.19-1.25-1.47-8.05,1.1-7.99,1.1-1.36.15-1.18-2.98-.19-3.4-5.86-5.29-4.81-3.06-6.97-3.35-5.54-.74-.14-.7-7.95-4.99-.56-6.97-.25-14.28,4.5-19.24,1.05.55,2.56.1,3.37,1.05Z"/>
              <path class="cls-1" d="M210.22,114.04l-.12,7.15-1.22,4.42c-.62,2.27-3.57,2.72-5.37,2.74l-2.87.04c-1.48.02-2.74-.01-3.82-1.4-.57-.73-.36-1.74-.61-2.99,3.74-1.52,1.25-5.33,6.6-5.96,1.34-5.46.21-3,2.33-4.32.55-.34.67-1.04.3-1.46-.58-.66-1.25-.5-2.07-.56-1.44-.1-.52-2.6-1.17-3.04-1.54-1.04-3.75-.87-4.35-3.03-.44-1.6-2.7-2.24-4.28-2.21,1.74-.03-9.38-4.26-11.69-1.85l-1.86,1.93c-.88.92-.89,3.25-1.96,3.82-1.5.79-2.59,1.64-3.41,3.23-.82-.95-2.32-.5-3.37-1.05.36-.58.46-1.66,1.05-2.19,1.63-1.47,2.01-4.05,3.79-5.5,1.91-1.55,3.18-3.69,5.1-4.74,1.2-.66,2.89-.26,3.31-1.78,1.57,1.75,4.4,2,6.66,2.6,1.17.31,1.59,1.22,2.8,1.27,1.98.09,2.99,2.72,5.1,3.11s2.33,2.78,3.97,3.62c1.52.78,2.14,1.92,3.18,3.19,1.18,1.45,4.02,2.55,3.98,4.95Z"/>
              <path class="cls-9" d="M184.54,95.29c-.42,1.52-2.11,1.12-3.31,1.78-1.92,1.05-3.19,3.19-5.1,4.74-1.79,1.45-2.17,4.04-3.79,5.5-7.11-2.02-2.52,2.94-9.39,5.81-.52,5.17-.61,10.05-.16,15.3.07.82-.09,1.71-.7,1.73-.52.02-.99,0-1.39-.26-1.52-.98-1.06-15.74-1.05-17.57.68-.49.59.96.84.81s1.03-.66,1.2-.94l2.23-3.79c1.44-2.44,1.82-4.85,3.44-7.28,2.78-4.17,4.91-8.61,7.34-12.91.97-1.72.91-3.4.69-5.3l-3.05.58c.61-.59,1.14-1.58,1.99-1.53.97.06,2.17.47,2.73,1.4l4.61,7.63c.84,1.39,1.84,3.18,2.86,4.32Z"/>
              <path class="cls-23" d="M159.65,112.32c.03-4.4,1.59-8.31,3.57-12.28.32-.64.42-1.44.8-2.08.85-.41,1.71-1.23,1.75-2.23.15-.18.32-.35.51-.51.65-.54,1.07-1.47,1.07-2.31.97-.11,1-.94,1.11-1.66,1.36-1.28,1.85-3.44,2.77-4.99.45-.76,1.86-1.25,1.11-2.77l3.05-.58c.22,1.91.28,3.58-.69,5.3-2.42,4.3-4.56,8.73-7.34,12.91-1.62,2.43-2,4.84-3.44,7.28l-2.23,3.79c-.17.28-.94.78-1.2.94s-.16-1.29-.84-.81Z"/>
              <path class="cls-158" d="M222.9,143.28c-1.82.24-3.58-.11-5.4-.58-.88-.23-10.86-1.6-10.65-2.98-.5,0,15.45-2.21,13.19-4.1,3.94,2.02,1.77,4.24,2.85,7.66Z"/>
              <path class="cls-9" d="M171.23,86.26c.17-.96.4-2.09,1.11-2.77.75,1.53-.66,2.01-1.11,2.77Z"/>
              <path class="cls-9" d="M167.35,92.91c.21-.68.24-1.39,1.11-1.66-.11.73-.14,1.56-1.11,1.66Z"/>
              <path class="cls-9" d="M168.46,91.25c.28-1.87,1.53-3.6,2.77-4.99-.92,1.56-1.41,3.71-2.77,4.99Z"/>
              <path class="cls-9" d="M166.28,95.22c-.52-.99.87-1.67,1.07-2.31,0,.84-.42,1.77-1.07,2.31Z"/>
              <path class="cls-39" d="M163.23,100.04c-1.98,3.97-3.55,7.88-3.57,12.28-.01,1.84-.47,16.59,1.05,17.57.4.26.87.27,1.39.26.62-.02.77-.91.7-1.73-.45-5.25-.36-10.13.16-15.3,6.87-2.87,2.28-7.82,9.39-5.81-.59.53-.69,1.62-1.05,2.19-4.74,4.96-5.06,12.27-4.5,19.24,7.81,4.29,2.42,4.24,7.95,4.99,2.16.29,1.11-1.94,6.97,3.35-.98.41-1.17,3.54.19,3.4-.06,0,6.74-2.57,7.99-1.1.47.55-.16,1.52.12,2.19-.88-.14-.85,1.16-1.2,1.53-4.11.4.15,1.18-5.91,2.6.4,2.38-1.56,2.11-2.84,2.67.01-1.14-1.09-.79-2.08-1.19l-4.55-1.84c-5.09-2.06-2.69-4.19-4.17-4.51-.98-.22-2.31-.41-2.49.79-.34,2.25,1.86,2.66,2.83,3.7-.3-.32,1.66,3.75,1.7,3.86-.22-.52,4.62,2.4,2.4,1.59.63.23,1.21-.02,1.57-.32.29-.5.49-.23.89.43l-4.22,1.57c-2.96,1.1-4.81,3.1-7.82,2.86.81-1.31.21-2.41,1.61-3.09,3.19-1.55-1.54-8.05-2.07-8.31-2.14-1.05-3.11-2.6-3.15-4.97-1.15.13-1.67.16-2.11-.2-1.04-.87.07-3.52-.78-4.18-.76-.58-4.6.06-4.21-2.21.24-1.4-.32-2.21-1.09-3.44-1.11-1.78-.19-4.13-1.21-6.02l-4.93,1.11c-.65-.2-.69-.4-.67-.72.04-.67.47-1.49,1.2-1.71,3.52-1.03,6.93-4.26,5.2-6.62.13-.52.71-.64,1-.86.56-.42,1.14.49,1.49.35,1.49-.61.21-2.39.24-3.21.84,1.68,1.19-7.79.14-5.53,1.19-2.63.96-.56,3.03-4,1.52.25,3.29.93,4.21-.74.11-.2.25-.75.47-.91.18-.13.41-.1.7,0Z"/>
              <path class="cls-74" d="M196.21,124.01l-8.08-1.25c-1.2-.17-.73-1.44-.95-2.2-.54-1.84-3.31-1.35-4.67-1.87-.62-.35-.28-2.18-1.44-2.21-.61-.02-1.66-.13-2-.58-.22-.29.14-1.38-.41-1.5l-3.76-.83c-.43-1.02.25-2.14-.25-3.03.82-1.58,1.9-2.44,3.41-3.23,1.07-.56,1.08-2.9,1.96-3.82l1.86-1.93c2.31-2.41,13.43,1.82,11.69,1.85,1.58-.03,3.83.61,4.28,2.21.6,2.17,2.81,2,4.35,3.03.65.44-.27,2.94,1.17,3.04.82.05,1.49-.1,2.07.56.37.42.25,1.12-.3,1.46-2.13,1.32-1-1.14-2.33,4.32-5.35.63-2.86,4.44-6.6,5.96Z"/>
            </g>
            <path class="cls-119" d="M154.67,111.23c-.93-1.63-2.11,1.83-3.88-.59-.04.59.15,1.16-.28,1.41-.17.1-.47-.41-1.02-.39-1.34.51-1.97,2.32-3.44,2.58-5.35.94-8.54,3.34-7.09,2.8-5.94,2.23-12.03,2.75-17.67,2.56.62-.99.04-2.07,0-3.16,5.96.27,18.27-2.06,22.14-5.34,1.79-1.51,4.47-1.64,6.56-2.77l4.83-2.63c1.05-2.26.7,7.21-.14,5.53Z"/>
            <path class="cls-75" d="M101.21,111.89c.06.24.38.4.62.38,1.08-.06,2.03.25,2.94,1.24,1.19,1.3,3.55.95,5.17,1.14,1.2.14,2.17,1.38,2.96,1.42l8.39.38c.05,1.08.63,2.16,0,3.16-18.03-.6-18.58-4.53-24.61-5.71-1.08-.21-1.19-1.31-1.83-1.63-3.23-1.63-6.16-3.22-7.96-6.09.02-.43-.35-1.18.03-1.53,2.14.07,3.87,1.51,5.44,2.73.11.08,9.08,5.83,8.85,4.52Z"/>
            <path class="cls-126" d="M101.24,107.4c-.37,1.24-1.21,3.97-.02,4.49.23,1.32-8.75-4.43-8.85-4.52-1.57-1.22-3.3-2.67-5.44-2.73-.37.35,0,1.1-.03,1.53-.03.53.22,1.12-.45,1.44-.9.43-1.17-.82-2.19-.72-1.03-1.32-1.47-3.23-2.39-4.55,4.13.11,7.29,3.18,7.06.55-.1-1.08-1.84-.4-3.47-3.88-.34-1.8,2.63-1.24,3.9-1.85-.7,1.66,9.32,9.1,11.88,10.24Z"/>
            <path class="cls-70" d="M157.85,101.69c-2.07,3.45-1.84,1.38-3.03,4l-4.83,2.63c-2.09,1.14-4.77,1.26-6.56,2.77-.1-.62-1.17-.2-1.05-.99,1-.39.94-1.7,2.16-2.52,6.11,1.5,3.17-3.9,8.53-2.82.15-1.1.54-3.01,2.01-2.88,1.01.09,1.71-.4,1.68-1.15.43.2.87.5,1.08.94Z"/>
            <g>
              <path class="cls-43" d="M152.92,89.07c2.16.14.34,3.33,1.66,3.55l1.65.28c1.08.18.53,2.05,1.01,2.95,2.37.46,4.83-.44,6.9.69-.14,0-.68.32-.67.53.01.26.8.46.55.89-.38.63-.48,1.44-.8,2.08-.29-.1-.52-.13-.7,0-.22.16-.36.71-.47.91-.93,1.68-2.69,1-4.21.74-.21-.44-.65-.74-1.08-.94,0-.53.25-2.02-.53-2.3-.58-.21-5.6,1.91-5.27,1.64-.36.3.32,1.08.06,1.43-.68.89-1.74.61-2.28.27-1.79-1.11.01-1.61,1.76-6.36.18-.5,1.12-.77,1.12-1.19,0-.91-.23-1.6-1.21-1.43-2.34.4-.04,4.68-3.5,4.09-1.73-.3-1.39,1.43-1.99,1.8-.64.4-5.63,3.36-5.57,3.18-.34,1.02-.81,2.72.14,3.32,1.06.67,1.97-.35,2.6.3-.29.91-.09,1.71-.38,2.08-.59.73-1.5.01-2.29.03-.55.01-1.33.91-1.38,1.79-1.9-1.07-3.9-.09-5.63,1.32-1.15.2-3.73-.77-4.22.77-.24.76.07,1.09.81,1.13,2.29.11,4.68,1.24,6.87-.46,1.73-1.34,4.5-1.26,6.5-2.03-.12.78.95.37,1.05.99-3.88,3.29-16.19,5.61-22.14,5.34l-8.39-.38c-.79-.04-1.75-1.27-2.96-1.42-1.62-.19-3.98.16-5.17-1.14-.91-1-1.86-1.31-2.94-1.24.97-1.05,2.7-.77,3.59.74.54.91,2.97.71,4.25,1.03,3.82.96,7.54,2.35,11.26,1.32.4-.11.95-1.73.36-1.84-7.04-1.33-4.14-3.32-10.55-3.05-1.04-1.47-2.79-2.07-4.53-2.27-.12-.8.21-1.64-.1-1.98-.22-.23-1.1-.05-1.59-.44-.67-1.68.28-3.9-1-5.17-.13-.13-.7.3-.86.3-.26,0-.12-.28-.4-.85-2.86,2.93-5.25-6.37-7.2-1.84-.16.37.61.92,1.18,1.18,2.01.94,2.52,2.53,3.6,3.96.78,1.04,3.42.8,3.49,3.01.02.72-1.52.96-2.09,1.01-2.55-1.14-12.58-8.58-11.88-10.24-1.27.61-4.25.05-3.9,1.85,1.63,3.49,3.37,2.8,3.47,3.88.24,2.64-2.93-.44-7.06-.55-1.23-1.78-3.72-2.72-3.73-5.13-.35-1.5,7.08-.64,7.93-1.67.66-4.57,4.46-1.01,4.05-4.29-.09-.72-.05-1.32.48-1.61.34-.19.82-.36,1.29-.31,1.43.15,3.19-.43,4.63.56.19.88-.14,1.9.37,2.25.42.28,1.4-.11,1.76.36l2,2.56c.41.52,1.75-.02,2.05.6,1.38,2.8.14.78,4.28,2.13,1.59,1.62,2.93,2.97,5.52,3.07,1.05.04.63,2.17,1.2,2.31,2.57.65,5.35,1.54,7.6,2.48.07.46.42.85.83.91.91.14.68-1.21,1.07-1.45,2.11-1.3,5.22-1.2,7.45-2.03-.35-3.25,2.88-1.66,4.59-3,.48-.37.34-1.94,1.05-2.09l3.59-.76c1.06-1.65,2.15-1.95,3.94-2.4.61-.15.37-1.93.86-2.2.7-.38,1.74-.38,2.63-.52l.93-3.09c1.51-.19,2.65.12,3.56-.37.24.38.69.37,1.11.42Z"/>
              <path class="cls-9" d="M164.02,97.96c.25-.43-.53-.63-.55-.89-.01-.21.52-.54.67-.53.59-.17.98-.82,1.63-.81-.03,1.01-.9,1.83-1.75,2.23Z"/>
              <path class="cls-114" d="M156.76,100.75c.03.75-.68,1.24-1.68,1.15-1.48-.13-1.86,1.78-2.01,2.88-5.36-1.08-2.42,4.32-8.53,2.82-1.22.81-1.16,2.12-2.16,2.52-2,.77-4.77.69-6.5,2.03-2.18,1.7-4.57.57-6.87.46-.75-.04-1.06-.36-.81-1.13.49-1.54,3.07-.57,4.22-.77,1.73-1.42,3.73-2.39,5.63-1.32.05-.88.84-1.78,1.38-1.79.79-.02,1.7.7,2.29-.03.3-.37.1-1.17.38-2.08-.64-.66-1.54.37-2.6-.3-.95-.6-.48-2.31-.14-3.32-.06.19,4.93-2.78,5.57-3.18.6-.37.25-2.09,1.99-1.8,3.45.59,1.16-3.69,3.5-4.09.98-.17,1.22.52,1.21,1.43,0,.43-.94.69-1.12,1.19-1.75,4.74-3.55,5.25-1.76,6.36.54.34,1.6.62,2.28-.27.27-.35-.41-1.13-.06-1.43-.32.27,4.69-1.85,5.27-1.64.79.28.53,1.77.53,2.3Z"/>
              <path class="cls-139" d="M101.83,112.27c-.23.01-.56-.15-.62-.38-1.19-.52-.35-3.25.02-4.49.57-.05,2.11-.29,2.09-1.01-.07-2.22-2.71-1.98-3.49-3.01-1.08-1.43-1.59-3.02-3.6-3.96-.56-.26-1.34-.8-1.18-1.18,1.94-4.53,4.34,4.77,7.2,1.84.29.57.14.85.4.85.16,0,.73-.43.86-.3,1.28,1.27.33,3.49,1,5.17.5.38,1.37.21,1.59.44.32.33-.01,1.18.1,1.98,1.73.2,3.48.8,4.53,2.27,6.41-.27,3.5,1.72,10.55,3.05.6.11.05,1.73-.36,1.84-3.72,1.03-7.45-.36-11.26-1.32-1.28-.32-3.71-.12-4.25-1.03-.89-1.51-2.62-1.79-3.59-.74Z"/>
              <path class="cls-176" d="M126.41,112.44c.63-.77,1.45.84,1.5.71-.18.54-.63.25-.86.3-.5.11-1.15-.39-.64-1.02Z"/>
            </g>
            <path class="cls-29" d="M121.29,119.6c5.64.19,11.73-.33,17.67-2.56-1.45.54,1.75-1.86,7.09-2.8,1.47-.26,2.1-2.07,3.44-2.58.55-.01.85.49,1.02.39.42-.26.23-.82.28-1.41,1.77,2.42,2.95-1.04,3.88.59-.03.81,1.25,2.6-.24,3.21-.35.14-.93-.77-1.49-.35-.29.22-.88.34-1,.86-1.3-.6-2.27.58-3.34,1.12-1.5.75-3.55.63-4.48,1.82-.44.56.33,2.12-.57,2.51-3.13,1.36-1.72.48-3.4,1.04-.45.15-.26,1.32-.58,1.44-2.4.95-5,1.15-7.21,2.23l-10.01.58c-.38.02-.69.64-.94.64-5.89-.13-11.93-.97-17.43-2.96l-.56-1.97c-6.97-1.16-4.87-4.18-11.42-3.87-.66,5.85.2,6.88-1.68,11.98-1.39,3.77.05,3.94-2.95,4.9-.24-.85-1.88-.71-2.64-.42-.13-.57.3-1.05.35-1.55.14-1.46,1.8-2.54,2.11-3.96.35-1.61.79-2.7,1.33-4,1.15-2.78.29-5.9.51-8.84.1-1.31-1.57-1.99-1.77-2.93-.51-2.35-1.64-4.06-3.02-5.83,1.02-.1,1.3,1.15,2.19.72.67-.32.42-.91.45-1.44,1.8,2.88,4.72,4.47,7.96,6.09.64.32.75,1.42,1.83,1.63,6.03,1.18,6.58,5.11,24.61,5.71Z"/>
            <g>
              <path class="cls-132" d="M87.39,134.41l-1.7,4.02-2.73.72c-.82.22-.42,1.74-.85,2.44l-4.21,6.81c-3.05-.74-1.24,1.64-4.96,2.63-.07-.42-.09-1.14-.34-1.47-.39-.51-3.58-.68-4.03-.51s-.48,1.51-1.01,1.67c-6.08,1.83-3.75,5.48-5.46,9.15-.29.62-2.43.33-2.54.97-.61,3.57-.54,7.02-.75,10.29-.07,1.01-.31,2.12-.63,3.09-3.27,1.26.52.23-3.96,6.4v-5.58c.28.05.77-.5.54-1.23-2.61-8.31,2.07-2.84.45-6.64-.28-.67-1.39-.46-2.16-.51l-23.08-1.44c-.17-1.27-10.42-2.18-10.56-1.32.28-.88-.29-1.9.24-2.72,2.32-.53,5.09.09,7.88.11l23.83.19c2.54.02,3.74-.85,5.51-2.42.41-.36,1.88.07,2.31-.37.67-.67,1.67-5.11.42-6.51-1.39-1.55-2.91,2.19-4.94,2.78-11.34,3.27-26.07-.46-37.78-1.16-.32-.47-.52-.94-.58-1.51-.08-.86-.85-9.64,1.78-7.92,3.52,2.68,2.19,1.23,8.46,2.37,3.86.71,7.87.33,12.06.69,5.06.44,26.81,1.44,30.31.7,2.27-.48,10.44-5.84,9.75-9.2,5.03-1.06,1.2-3.06,6.06-4.93.76-.29,2.4-.43,2.64.42Z"/>
              <path class="cls-77" d="M60.72,100.25c-8.9,1.6-4.2-.94-12.29,2.7,1.54-.69-6.47,1.17-6.87,1.53s-.21,1.16-.61,1.76c-.84,1.26-2.49,1.43-4.02,2.24-.85.46-.95,1.92-2.38,1.91-.91,0-2.21.97-2.18,2.02.05,1.59-1.73,2.04-2.06,3.08-1.61,4.98-.78,12.74,2.76,16.31,2.11,2.13,4.47,5.3,7.23,6.97,5.14,2.08,14.83.46,19.34,1.77-.15,1.11.11,5.5.72,6.42.02.02,4.28,1.24,5.32-1.37,1.42-3.56-5.18-3.3-2.71-6.7.93.24,1.32.05,1.05-.67-.21-.85,1.03-1.06,1.61-1.09,1.84-.09,1.33,2.12,2.79,2.92.72.39,1.08-.81,1.81-1.09,1.46-.55,2.88-.51,3.44-1.77.5-.37.61.52,1.03.71,1.79-.39,3.21-.34,3.99,1.02.69,3.36-7.48,8.71-9.75,9.2-3.5.74-25.24-.26-30.31-.7-4.19-.36-8.2.01-12.06-.69.79-.99-1-1.78-1.54-2.34-1.27-5.92-1.87-12.27-1.98-18.69-.01-.8-.68-.86-1.08-.74-.38-1.91,1.14-3.38,1.96-4.73l2.63-4.33c.52-.85,1.93-1.42,2.37-2.1.06-2.11,2.56-3.2,3.71-4.51,1.4-1.58,3.09-2.99,4.7-3.85.93-.5.75-3.18,3.05-3.18,2.44,0,4.24-1.57,5.88-3.45.36-.41,7.31-2.09,6.32-2.01,3.43-.27,5.95,1.29,8.13,3.46Z"/>
              <path class="cls-64" d="M64.17,82.31c-.32,2.52.78,4.42,2.28,6.53l13.37,18.83c9.22,12.98,2.29,20.39,3.83,24.24.17.42.86.61,1.45.54-.05.5-.48.99-.35,1.55-4.87,1.87-1.04,3.87-6.06,4.93-.78-1.35-2.2-1.4-3.99-1.02-.42-.18-.53-1.08-1.03-.71.77-1.73,2.36-3.04,3.15-5.13,1.98-5.23,1.05-10.9-1.13-15.73-.44-.97-1.31-1.41-1.96-2.46-1.25-2.06-2.39-4.34-4.51-5.47,1.27-1.66-7.24-7.59-8.49-8.16-2.18-2.17-4.71-3.73-8.13-3.46.35-.18-.15-.61.05-.91,3.72-4.16,6.28-8.79,8.43-13.73.94-.73,2.36.21,3.1.17Z"/>
              <path class="cls-42" d="M54.23,175.02c-.6.13-1.2-.05-1.97-.07-.62-.02-.55,1-1.02,1.85-7.04-.28-14.02-.66-20.94-2.31-1.69-.4-3.13-1.34-4.83-1.31-2.45.04-4.24-1.33-6.08-2.15-.98-.44-2.93.32-3.61-1.04.03-.69-.29-2.39.35-2.55l2.64-.67c.85-.22.4-2.06.66-2.89.14-.87,10.39.05,10.56,1.32l23.08,1.44c.77.05,1.88-.16,2.16.51,1.61,3.8-3.07-1.67-.45,6.64.23.74-.26,1.28-.54,1.23Z"/>
              <path class="cls-175" d="M15.78,170c.68,1.35,2.63.6,3.61,1.04,1.84.82,3.63,2.19,6.08,2.15,1.7-.03,3.14.91,4.83,1.31,6.92,1.65,13.89,2.03,20.94,2.31.47-.85.39-1.87,1.02-1.85.78.02,1.37.19,1.97.07v5.58c-1.05,1.45-3.02.82-5.07.6-7.1-.77-13.94-1.42-21.07-1.56-1.34-.03-2.94-1.24-3.48.38-2.28-2.32-2.89.54-5.2-2.91l-5.4-1.28c-.11-.73-.05-1.4-.37-1.56-.26-.14-.69-.04-1.21-.34-.94-.56-.71-3.02.25-3.46,1.03-.47,2.24-.01,3.11-.47Z"/>
              <path class="cls-133" d="M78.14,97.21c0,2.41,2.49,3.35,3.73,5.13.92,1.32,1.36,3.23,2.39,4.55,1.39,1.77,2.52,3.49,3.02,5.83.2.93,1.86,1.62,1.77,2.93-.22,2.94.63,6.06-.51,8.84-.54,1.3-.98,2.4-1.33,4-.3,1.41-1.96,2.5-2.11,3.96-.59.08-1.29-.12-1.45-.54-1.54-3.86,5.39-11.26-3.83-24.24l-13.37-18.83c-1.5-2.11-2.6-4.01-2.28-6.53,1.53-.09,3.99,1.67,4.61,3.6.48,1.49,2.04,2.57,2.74,3.52l5.32,7.24c.23.31,1.3.17,1.3.54Z"/>
              <path class="cls-10" d="M19.66,161.17l-7.86-2.07c-.62-1.05-.68-3.45-.04-4.31,1.11-1.5,3.38-.8,4.56-2.51.06.57.25,1.04.58,1.51-.4-.18-.86.19-.99.49-.23.54.42.89.94,1.01,1.91.46,3.55,1.55,5.42,2.37,4.17,1.82,8.92,1.25,13.58,1.25,5.76,0,11.23.16,16.75-.21,1.08-.07,2.04.36,2.67-.68.45-.75,1.23-2.73.37-2.89l-.95-.17c2.02-.58,3.55-4.33,4.94-2.78,1.25,1.4.25,5.84-.42,6.51-.44.43-1.9,0-2.31.37-1.77,1.57-2.97,2.44-5.51,2.42l-23.83-.19c-2.79-.02-5.56-.64-7.88-.11Z"/>
              <path class="cls-159" d="M21.96,124.96c.4-.12,1.07-.06,1.08.74.11,6.42.72,12.77,1.98,18.69.54.56,2.33,1.36,1.54,2.34-6.27-1.15-4.94.31-8.46-2.37-.1-.48.42-.35.96-.52.06-2.65-.5-17.6,1.25-18.4.42-.19,1.06-.38,1.64-.47Z"/>
              <path class="cls-111" d="M59.12,191.16c-.16.46-.02,1.49.5,1.91.29.24.9.17,1.24.67-.67.12-1.38-.07-1.67.54-.5,1.05.2,3.27-.47,3.85-.73.63-2.7.05-3.13.77-.53.89.13,2.53-.74,2.24-1.45-.48-.2,4.36-1.02,4.85-.99.28-1.63,1.18-2.05,1.01-.43-.18-.54-.97-.77-1.28-.34-.45,1.35-.86,1.18-1.19-.53-.99-2.2-6.95-1.55-8.89.19-.58-1.04-1.64-.43-2.58-.75,1.16,4.35-3.29,3.85-2.95.88-.59,2.5.25,3.25.29.43.02,1.19-.62,1.5-.11.13.23-.68.84.32.87Z"/>
              <path class="cls-41" d="M62.49,193.91c-.32-.09-1.4.17-1.63-.16-.35-.5-.95-.43-1.24-.67-.51-.42-.65-1.45-.5-1.91.36-5.39.62-10.86-.03-16.48-.11-.45-.61-.88-.9-.48.32-.97.56-2.07.63-3.09,1.37-.59,2.87-.58,4.28-.99.73,6.02-.17,12.39.2,18.74.11,1.95-.05,3.56-.81,5.04Z"/>
              <path class="cls-163" d="M52.97,210.05c.32.4.8.44,1.1.49,1.41.2.5,3.59,1.24,5.59-.42,1.53-1.97,3.02-3.49,3.36-.45-.61-1.26-.42-2.08-.75l.43-4.5c-.1-.28-1.04-.49-1.33-.86-.36-.47.59-.77.67-1.39l.47-3.7c.64.83.67,1.54,1.32,2,.44.31,1.15-.02,1.68-.24Z"/>
              <path class="cls-11" d="M72.94,151.03c-.7,2.75-2.94,4.75-4.35,7.4l-2.47,4.61c-.52.98-1,1.86-2.08,2.51l-.95,4.57c-1.42.4-2.92.4-4.28.99.21-3.26.14-6.72.75-10.29.11-.63,2.25-.35,2.54-.97,1.71-3.66-.61-7.32,5.46-9.15.53-.16.58-1.51,1.01-1.67s3.64,0,4.03.51c.25.33.27,1.05.34,1.47Z"/>
              <g>
                <path class="cls-147" d="M58.19,174.2c.29-.4.79.03.9.48.66,5.62.39,11.09.03,16.48-1-.03-.18-.65-.32-.87-.31-.51-1.07.13-1.5.11-.75-.04-2.37-.88-3.25-.29.5-.33-4.6,4.11-3.85,2.95-.61.95.62,2,.43,2.58-.64,1.94,1.02,7.9,1.55,8.89.17.33-1.52.74-1.18,1.19.23.31.33,1.1.77,1.28s1.05-.73,2.05-1.01c.82-.49-.42-5.33,1.02-4.85-.44,1.96.48,4.15-.54,6.19-.33.51-1.69.42-1.43,1.28.16.52-.34,1.06.09,1.44-.52.22-1.24.55-1.68.24-.65-.46-.68-1.17-1.32-2l-.47,3.7c-.08.61-1.03.92-.67,1.39.29.38,1.23.58,1.33.86l-.43,4.5c.82.34,1.63.14,2.08.75-2.65.59-5.49,1.05-8.42.63,2.42.35-2.99-1.14-3.05-1.19-.31-.27.1-1.31-.22-1.57-1.43-1.14-3.36-.5-4.78-1.22-3.72-1.88-6.72-4.92-9.99-7.53l-2.62-2.08c-1.41-1.12-3.02-1.61-4.07-3.26-.56-.88-2.51-.49-2.83-1.61-.2-1.72,1.58-2.47,2.53-3.81.43-.61.02-2.25.6-2.75.34-.29,1.28-.23,1.6-.77.69-2.17-.3-4.64.64-6.75.85-.1,1.74-.15,2.04-.54-.26.35,1.51-6.63,1.36-7.01.54-1.62,2.13-.41,3.48-.38,7.14.14,13.98.8,21.07,1.56,2.05.22,4.02.85,5.07-.6,4.48-6.17.69-5.14,3.96-6.4Z"/>
                <g>
                  <path class="cls-2" d="M40.3,210.32c-.61,1.06-1.75-1.58-2.84-1.12-.6.25-.4,1.28-.65,1.69-.56.93-1.6.32-1.67-.57,0-.02,1.99-3.19,2.67-3.14.11,0,2.87,2.5,2.49,3.14Z"/>
                  <path class="cls-130" d="M27.91,199.92c-.39.44-1.83.2-1.98-.29-.13-.41.4-1.06.57-2.01.16-.89,1.31.14,1.45.61.12.4.59.98-.03,1.68Z"/>
                  <path class="cls-183" d="M31.96,206.55c-.91.13-1.77-1.49-1.28-2.1.64-.81,1.32-.38,1.6.02.37.53.74,1.93-.32,2.09Z"/>
                  <path class="cls-61" d="M38.23,211.84c.46-.41,1.1-.19,1.46.09s.25.78.04,1.54c-.11.41-.62.28-1.09.03-.59-.31-1.1-1.05-.41-1.67Z"/>
                  <path class="cls-118" d="M27.43,202.01c.3.72-.47.94-.77,1.02-.37.11-.96-.03-1.13-.29-.43-.65-.04-.98.27-1.05.48-.11,1.3-.47,1.63.32Z"/>
                  <path class="cls-79" d="M36.86,214.53c-.6.47-1,.58-1.3.44-.45-.2-.49-.83.07-1.32.44-.38,1-.49,1.38-.2.22.16.43.63-.15,1.08Z"/>
                  <path class="cls-138" d="M48.21,187.84c.39-.21.71.14.82.3.27.37.12.79-.21,1.08-.46.39-.63.17-1.04-.19s-.32-.78.43-1.19Z"/>
                  <path class="cls-145" d="M44.86,209.14c.18-.51.58.2.72.29.5.33-.06.56-.31.85-.47.52-.79-.09-.41-1.15Z"/>
                  <path class="cls-92" d="M31.63,200.07c.2-.15.46.4.63.48.43.21.23.55-.03.55-.38-.01-.71.08-1.07,0-.52-.12-.11-.58.48-1.02Z"/>
                </g>
              </g>
              <path class="cls-148" d="M54.68,154.95l.95.17c.86.16.08,2.14-.37,2.89-.63,1.04-1.59.61-2.67.68-5.52.37-10.99.21-16.75.21-4.66,0-9.42.57-13.58-1.25-1.87-.82-3.51-1.91-5.42-2.37-.52-.12-1.17-.47-.94-1.01.13-.29.59-.66.99-.49,11.71.71,26.45,4.43,37.78,1.16Z"/>
              <path class="cls-172" d="M44.51,110.55c-.66,2.55,1.61,4.21,3.12,5.83.66.71.62,2.04,1.98,2.27.75.43,1.47,2.22,1.92,2.97,1.02,1.71,7.96.74,10.91-.67,8.18-3.91,9.98-.09,11.45-2.28.57-.85.64-2.09,1.79-2.33,2.18,4.83,3.11,10.5,1.13,15.73-.79,2.08-2.37,3.39-3.15,5.13-.56,1.26-1.98,1.22-3.44,1.77-.73.28-1.09,1.48-1.81,1.09-1.46-.8-.96-3.01-2.79-2.92-.58.03-1.81.24-1.61,1.09-.77-.13-1.55.03-2.46-.45-.77,1.16-1.5,1.8-1.91,2.77-4.52-1.31-14.2.31-19.34-1.77-2.76-1.67-5.12-4.84-7.23-6.97-3.54-3.57-4.37-11.33-2.76-16.31.34-1.04,2.12-1.5,2.06-3.08-.03-1.05,1.27-2.02,2.18-2.02,1.43,0,1.53-1.46,2.38-1.91,1.52-.81,3.17-.99,4.02-2.24,1.48,2.02.99,3.51,3.57,4.32Z"/>
              <path class="cls-173" d="M69.21,108.41c.42.71-.2,2.74-1.13,2.53-1.01-.23-1.72-.53-2.48-.27-.96.32-.11,1.45-.56,2.06-4.37,5.97-2.86,1.1-4.92,5.51l-6.84,1.06c-.84.13-.69,2.37-1.75,2.34-.45-.76-1.17-2.55-1.92-2.97-1.35-.23-1.31-1.56-1.98-2.27-1.51-1.62-3.78-3.28-3.12-5.83-.22-1.02,1.25-1.3,1.76-2.2.34-.6-.07-2.09.55-2.43.4-.22,1.14-.2,1.76-.86s-.78-1.54-.15-2.12c8.09-3.64,3.39-1.1,12.29-2.7,1.25.57,9.76,6.5,8.49,8.16Z"/>
              <path class="cls-128" d="M64.01,138.22c.27.72-.12.91-1.05.67-2.46,3.4,4.14,3.13,2.71,6.7-1.04,2.61-5.3,1.39-5.32,1.37-.61-.91-.87-5.31-.72-6.42.41-.97,1.14-1.61,1.91-2.77.91.48,1.69.32,2.46.45Z"/>
              <path class="cls-137" d="M48.43,102.94c-.62.58.76,1.47.15,2.12s-1.36.64-1.76.86c-.62.34-.22,1.84-.55,2.43-.51.9-1.97,1.17-1.76,2.2-2.58-.81-2.1-2.31-3.57-4.32.4-.6.21-1.4.61-1.76s8.41-2.22,6.87-1.53Z"/>
              <path class="cls-3" d="M75.67,116.34c-1.15.24-1.22,1.48-1.79,2.33-1.47,2.19-3.27-1.63-11.45,2.28-2.95,1.41-9.89,2.38-10.91.67,1.07.04.92-2.21,1.75-2.34l6.84-1.06c2.06-4.41.56.46,4.92-5.51.44-.61-.41-1.74.56-2.06.77-.26,1.47.04,2.48.27.92.21,1.55-1.82,1.13-2.53,2.12,1.14,3.25,3.42,4.51,5.47.64,1.05,1.52,1.49,1.96,2.46Z"/>
              <g>
                <path class="cls-81" d="M51.83,219.48c1.52-.34,3.07-1.83,3.49-3.36,3.07.25,2.09,6.48,1.34,7.54-.7,1.01-3.31.14-3.59,1.79-.11.62.12,1.73-.19,2.38-.2.42-.99.33-1.76.72-.64,13.38-1.11,5.56-3.02,10.82l-4.45,12.24c-.6,1.64-1.02,2.8-1.74,4.07-1.13,1.99-.63,4.66-1.17,6.99-.22.94-1.97.53-2.12,1.05-.53,1.71-1.17,3.85-1.1,5.57-.18-.32-.82-.09-1.05.15l-.17,6.72c-3.79-2.42-14.18-.9-18.05.19-.08-.66-.02-1.6-.67-1.97.63-.55,1.62-1.07,2.15-1.75,2.08.91,6.69,1.23,8.39-.93,1.88-2.38.71-6.52,1.28-9.32l2.69-13.12c1.5-7.34,3.46-15.39,2.61-22.55-3.22-4.41-10.01-4.97-14.86-3.99-2.27.46-3.27,1.83-5.03,2.92-2,1.24-3.94,1.85-5.55,4.47-.81,1.32-2.11,2.89-3.43,3.61l-.3-4.77c2.16-.92,3.38-3.22,5.17-4.99,6.76-6.65,9.87-6.68,18.4-6.73,1.72,1.68,3.85,3.65,6.32,2.76-.16-.78-.33-1.89.25-2.48.15-.3-.66-.91-.31-1.41,1.42.72,3.35.08,4.78,1.22.33.26-.08,1.29.22,1.57.06.05,5.47,1.54,3.05,1.19,2.94.42,5.77-.04,8.42-.63Z"/>
                <path class="cls-134" d="M43.51,297.66l-6.65-.5c-1.4-1.81.05-4.11-.23-6.46-1.42-.12-3.21-.4-4.5.04l-2.18,2.67c-1.35,1.66-.47,4.21-1.37,5.73-1.44,2.43-4.8,1.99-7.13,2.67-7.39,2.15-4.99-.23-8.87,1.38-4.91,2.17-1.71-18.9-1.47-19.99,1.06-.71,2.72-.45,3.71-.58l.1,15.42c0,.81,5.54,1.39,6.46-.36.79-.69,3.05.14,3.5-1.05l2-5.23c.21-.55,1.55-.14,1.78-.68-.73,1.7,2.04-5.74,1.38-4.57,2.27-1.16,3.78-3.76,3.48-6.38.36-1.09,1.9-.75,2.86.07.64-.29.38-1.06.94-1.05.16,1.55,2.27.94,2.84,2.17.3.64.06,1.8.27,2.47.18.57,1.14.51,2.18.79,1.2,4.38,1.25,9.07.88,13.45Z"/>
                <path class="cls-54" d="M17.57,274.39c.65.38.59,1.32.67,1.97-2.4.68-4.42,2.44-6.91,2.88-1.49.27-2.25-.97-2.37-1.84-.27-1.85,1.24-2.27,1.89-3.08.5-5.24.31-11.07-1.07-16.12-.74-2.71-.04-5.37-.93-7.97-1-.48-1.41-1.14-1.56-2.53l-1.46-13.95c1.32-.72,2.62-2.29,3.43-3.61,1.6-2.62,3.55-3.23,5.55-4.47l.35,46.26c0,.7-1.06,2.44.35,2.65.53.08,1.54-.31,2.06-.18Z"/>
                <path class="cls-168" d="M6.46,197.81c.12.44-.13.76-.46,1.05-.6.54-.46-.29-1.14-.56.3,2.33.48,4.21,1.05,6.11.65,2.17.59,4.43.08,6.87,1.6-.48,2.08-.98,2.74-.99,1.46-.03,1.58.9,2.41,1.74.91.92,2.98-.13,4.19.84,1.57,1.25-3.25,2.14,6.56.9,3.15-.4,5.57,1.88,7.21,3.49-8.53.05-11.64.08-18.4,6.73-1.8,1.77-3.02,4.07-5.17,4.99-.09-1.02-1.69-.43-2.62-.64-1.25-3.01-1.37-6.43-2.26-9.78-1-3.75-.68-8.41-.09-12.43.12-.82,2.43-.92,1.67-2.89-.62-1.6,2.49-7.73,1.49-6.71.48-.49,3.27-.83,3.41.34.04.31-.86.35-.67.95Z"/>
                <path class="cls-196" d="M36.86,297.15c-.4.52-.65.26-.86.47s-.16,1,.03.87c.73-.51.68-.21.95.23.65,1.06.95,1.44.8,2.08-.81,3.53-2.99-1.41-6.72,3.11-.4.49-1.53.38-1.3,1.23.51,1.91,1.84,1.09,1.6,2.15-.36,1.56-5.31-.11-7.04.83-2.79,1.52-4.52-1.69-6.2-1.87-.14-1.42-.81-.1-1.48-.29-.52-1.07-1.87-.42-3.01-.55-1.33-.16-.78-1.71-1.05-2.22,3.88-1.61,1.48.76,8.87-1.38,2.34-.68,5.69-.23,7.13-2.67.9-1.51.02-4.07,1.37-5.73l2.18-2.67c1.3-.44,3.09-.16,4.5-.04.28,2.36-1.17,4.65.23,6.46Z"/>
                <path class="cls-16" d="M35.36,216.13c-.35.49.47,1.11.31,1.41-.58.59-.41,1.7-.25,2.48-2.46.89-4.6-1.08-6.32-2.76s-4.06-3.89-7.21-3.49l-.83-1.75-11.4-5.82c-.39-.2-1.3,0-1.31-.46,0-.36.11-.53-.11-.88,1.14-1.17,2.7-.11,4.44-.07,1.07.02,2.64-2.19,2.75-3.12.14,0,.26.08.39-.03.33,1.12,2.27.73,2.83,1.61,1.05,1.66,2.66,2.14,4.07,3.26l2.62,2.08c3.28,2.61,6.28,5.64,9.99,7.53Z"/>
                <path class="cls-160" d="M37.52,269.3c.17,3.85-1.18,5.34-.18,9.47-.57-.01-.31.76-.94,1.05-.96-.81-2.51-1.15-2.86-.07-4.33-1.85-9.68-1.36-13.87.63-1.48.7-3.65.96-4.85,2.21-.98.13-2.65-.13-3.71.58.29-1.3.1-2.63.22-3.94,2.48-.45,4.5-2.21,6.91-2.88,3.87-1.09,14.26-2.61,18.05-.19l.17-6.72c.24-.24.87-.48,1.05-.15Z"/>
                <path class="cls-60" d="M43.51,297.66c-.05.56-.04,1.16-.13,1.72-.12.69-1.01.61-1.51,1.01-1.1.85-.8,2.8-2,3.59-.88.58-2.58.16-2.44,2.05.04.55-.11,1.1-.28,1.37-.7,1.15-2.42.21-3.6.98-.39.25-.13,1.33-.54,2.21-3.95.14-8.49.34-12.49-.22-.35-.22.21-1.36.08-1.67-.54-1.3-2.85-.2-3.65-1.18-.29-.35-.08-.96-.32-1.53.66.19,1.34-1.14,1.48.29,1.68.19,3.41,3.39,6.2,1.87,1.73-.94,6.68.73,7.04-.83.24-1.07-1.08-.25-1.6-2.15-.23-.85.9-.74,1.3-1.23,3.73-4.52,5.91.42,6.72-3.11.15-.64-.15-1.02-.8-2.08-.27-.44-.22-.74-.95-.23-.19.13-.24-.66-.03-.87s.46.05.86-.47l6.65.5Z"/>
                <path class="cls-144" d="M15.45,201.67c-.11.93-1.68,3.14-2.75,3.12-1.74-.04-3.31-1.1-4.44.07-.47-.76-1.56-.67-2.34-.46-.57-1.89-.75-3.78-1.05-6.11.68.28.54,1.1,1.14.56.32-.29.58-.61.46-1.05,1.44.39,7.24,3.78,8.99,3.86Z"/>
                <path class="cls-174" d="M19.72,272.65l.56-1.85-.45-48.06c4.86-.98,11.64-.42,14.86,3.99.85,7.17-1.11,15.21-2.61,22.55l-2.69,13.12c-.57,2.8.6,6.94-1.28,9.32-1.7,2.15-6.32,1.84-8.39.93Z"/>
                <path class="cls-182" d="M19.83,222.74l.45,48.06-.56,1.85c-.53.68-1.53,1.2-2.15,1.75-.52-.13-1.53.26-2.06.18-1.42-.21-.35-1.96-.35-2.65l-.35-46.26c1.75-1.09,2.75-2.46,5.03-2.92Z"/>
                <path class="cls-167" d="M33.53,279.76c.3,2.62-1.22,5.21-3.48,6.38.65-1.17-2.11,6.28-1.38,4.57-.23.54-1.57.13-1.78.68l-2,5.23c-.45,1.18-2.71.36-3.5,1.05-.3-.55-1.65-.76-1.63-1.69l.26-14.46c-.27-.5-.72-.83-.35-1.12,4.19-1.99,9.54-2.49,13.87-.63Z"/>
                <path class="cls-185" d="M19.67,280.4c-.37.29.08.62.35,1.12l-.26,14.46c-.02.93,1.33,1.14,1.63,1.69-.92,1.75-6.45,1.17-6.46.36l-.1-15.42c1.19-1.25,3.37-1.51,4.85-2.21Z"/>
                <path class="cls-194" d="M8.26,204.86c.22.35.1.51.11.88,0,.46.92.26,1.31.46l11.4,5.82.83,1.75c-9.81,1.24-4.99.35-6.56-.9-1.22-.97-3.28.07-4.19-.84-.84-.84-.95-1.77-2.41-1.74-.66.01-1.14.51-2.74.99.52-2.43.58-4.7-.08-6.87.79-.22,1.87-.3,2.34.46Z"/>
              </g>
            </g>
            <path class="cls-121" d="M103.99,123.37c-2.39,1.26-6.31-.22-9.36.19-2.74,1.34,0,7.53-4.3,5.95,1.88-5.1,1.02-6.13,1.68-11.98,6.55-.31,4.45,2.71,11.42,3.87l.56,1.97Z"/>
            <path class="cls-141" d="M151.94,114.94c1.74,2.37-1.68,5.59-5.2,6.62-.73.22-1.16,1.04-1.2,1.71-.02.33.02.52.67.72,1,2.67-17.32,1.32-13.84,1.12,2.21-1.08,4.81-1.28,7.21-2.23.32-.13.13-1.29.58-1.44,1.68-.57.27.32,3.4-1.04.89-.39.13-1.95.57-2.51.93-1.19,2.98-1.07,4.48-1.82,1.07-.54,2.04-1.72,3.34-1.12Z"/>
            <path class="cls-142" d="M126.35,236.61c1.92,5.93-.28,7.52,2.7,8.9.67,1.03.48,2.73.65,3.78l-17.07.39c-.28-4.44-.25-8.38,0-12.83,6.24-.42,8.35-.35,13.72-.25Z"/>
            <path class="cls-152" d="M108.58,254.33l20.48.39c-.19,1.03,1.08.62,1.21,1.12.66,2.53-4.51.67-7.09,1.59-2.29.81-4.53.6-6.89.05-1.92-.45-9.58-.02-9.56-3.17.62.11,1.24.01,1.86.03Z"/>
            <g>
              <path class="cls-171" d="M106.73,254.3c-.02,3.14,7.64,2.72,9.56,3.17,2.37.55,4.61.76,6.89-.05,2.58-.91,7.75.94,7.09-1.59-.13-.49-1.4-.09-1.21-1.12.35,0,.87-.02,1.23-.06,2.32-.29,3.74,12.68,3.74,15.25l-.09,57.12-.19,7.92c-2.49-.22-3.39-3.23-4.65-2.31-.25.18-.37.61-.26,1.05.31,1.29,1.73-.56,2.59.93.98,1.7-3.86,3.19-5.11,3.94-2.93-1.35-4.84-5.13-5.27-2.36-.23,1.48,3.27,1.37,2.31,2.83-.45.7-1.69,1-2.38.63-.17-.28.56-.99.23-1.24-.41-.32-.94-.71-1.3-.88-.69-.33-.84.83-1.42,1.08s-.94-.04-1.05-.23c-.71-1.19,1.44-.29,1.19-2.76s-4.04,4.22-5.47,1.69c.66-.22,1-.36,1.27-.8s.13-1.05.12-1.62c1.46.47,1.96-.88,2.79-1.75.42-.44,1.55-.14,1.36-.78-.1-.34.09-1.12-.42-1.42-.77-.45-1.87,1.49-2.51,1.74-1.1.44-.46-2.22-1.97-2.07-.37.04-.92.8-.72,1.59.28,1.09,1.78,1.49,1.47,2.68-.47.15-.94-.02-1.39,0-.9.04-.56-1.09-.98-1.51-2.77-2.76-6-3.42-4.05-5.35.09-.09-.17-3.34.09-2.95-.42-.61-1.61.2-1.91-1.05-.22-.94.76-.39,1.96-1.34.03-.02-.16-2.49-.59-2.71-.61-.31-1.13-.18-1.67.4-.36.38-.18,1.16,1.1,1.6.68.24-.25,1.13-.83,1.19-1.04.1-.65-.79-2.17-1.76-.28-.18-1.15-.12-1.16.59-.02,1.2,1.61,1.03,2.08,1.4.08,1.32,1.09,2.53,2.33,3.14-.98,2.14-2.89,4.28-4.8,5.8-.88-.67.24-1.29-.13-1.82-1.3-.71-1.95-2.04-1.22-3.11.11-.17-.38-.55-.46-.77-.11-.27.14-.73.47-.96.25-.16.69.16,1.07.22,1.36-.98-1.29-1.44-1.31-2.02l-.34-11.18c-.03-.94.58-1.08.95-1.14.93-.15.75.39,1.08,1.13.73-.74.29-1.24.38-1.63.18-.76-1.49-.22-1.75-.5-.92-.64-1.26-9.01,1-9.24-.94-.42-1.46-.62-1.56-1.34s-.48-1.86.56-2.27c.68-.27,1-.56,1.05-.88.16-.96-1.18-.7-1.56-1.06l-.65-16.43c-.5-1.1-3.86-1.2-4.29-.14-1.9,4.67.88,3.8-.68,4.92-.33.24.53.74.53.98l.03,19.31c.02.18-1.04.1-1.04-.22l.05-24.86c0-.87.73-.75.02-1.44-.46-.45-.41-1.04-1.25-.74-.16-.3.03-.58.93-.65,1.62-9.99,1.61-5.89,2.55-7.5,2.67-4.54,3.26-9.83,3.15-14.81-2.45.75-4.35.14-6.57-.28l-6.15-1.15c-.56-.11-1.29.14-1.6-.24-.2-.26-.74-.46-.52-.97,3.82,1.21,7.93.3,11.78,1.01l9.63,1.79Z"/>
              <g>
                <path class="cls-170" d="M125.71,266.49c.15-1.26-.61-1.25-.59.1-.91.57-1.26-.22-1.75-.92-.45-.64.8-1.16.82-1.88.04-1.22-1.16-1.5-.45-2.42.63-.81,1.28-.91,2.09-1.42.75-.47,1.62-2.38,2.92-1.28-.23,1.63.12,7.11-1.15,7.94-.59.38-1.64.8-1.9-.12Z"/>
                <path class="cls-30" d="M117.09,323.07c.12-.02-3.47-2.27-3.52-2.95-.1-1.18.98-2.58,2.11-2.38.15.46-.38,1.03-.41,1.35-.13,1.39,3.63,1.17,3,1.36.45-.13,1.03-.62.66-1.31-1.08-2.06-3.93-.03-2.65-2.34.99-1.79,2.6,1.96,4.05,2.21,1.89.46-5.38,4.43-3.24,4.07Z"/>
                <path class="cls-19" d="M121.44,323.85c-.63.34-1.06,1.5-1.6,1.6-1.57.28-2.34.15-3.11,1.49-3.51-3.65-3.69-1.75-4.9-5.76,6.2,4.07,4.53,5.26,6.61,2.71.32-.39,1.11.7,1.58.28.64-.58.04-1.37.23-1.66.27-.41.77-.54,1.27-.28.54.28.8,1.16-.07,1.62Z"/>
                <path class="cls-19" d="M124.49,325.85c-5.23,2.98-3.78,6.45-6.1,4.35-.54-.49-.94-1.36.09-1.52.74-.12,1.35.05,1.58-.36.3-.54.18-1,.15-2.26,2.42,1.57,2.79-4.69,4.28-.21Z"/>
                <path class="cls-72" d="M114.54,334.89c.32-1.19-1.19-1.59-1.47-2.68-.2-.79.35-1.55.72-1.59,1.52-.15.87,2.5,1.97,2.07.64-.25,1.73-2.2,2.51-1.74.51.3.32,1.08.42,1.42.19.63-.94.34-1.36.78-.83.87-1.34,2.22-2.79,1.75Z"/>
                <path class="cls-15" d="M106.84,307.41l-1.51-1.82c-1.06.06-2.37-1-1.63-1.54,1.34-.98,2.75-.79,3.83-1.15-.51-1.15-.28-1.29.21-1.48.59-.23,1.07-.7,1.28-.21l-1.68,3.15c-.4.74.8,1.78-.5,3.05Z"/>
                <path class="cls-68" d="M132.63,332.3c-1.78-.56-2.14-2.45-4.18-2-.45.06-.18-1.6.53-1.91.59-.26,2.61,1.06,3.99,1.67.72.32.61,2.54-.34,2.24Z"/>
                <path class="cls-149" d="M127.48,333.04c-.59-.21-.93-.61-1.38-.31-.76.52-.57,1.03-.33,1.63.29.74-.71.21-1.24.71-.2.19-.47,0-.74-.53.89-1.45,1.98-4.5,4-3.65.32.14.44.9.41,1.37-.02.34-.18.78-.72.77Z"/>
                <path class="cls-20" d="M116.44,309.27l-3.02-2.18c.87-.66.56-1.19.28-2.1,1.52.83,2.53,1.81,3.69,2.75-.91.4-.89.97-.96,1.54Z"/>
                <path class="cls-55" d="M124.88,330.63c-.79.23-1.51.22-1.87.04-.28-.14-.07-.79-.51-1.73,1-.59,2.27-.7,3.18-1.42-.23,1.52.1,2.84-.8,3.11Z"/>
                <path class="cls-135" d="M105.34,313.82c-.06-.72.58-1.12.91-1.69.56.35,1.42.74,1.69.46s.51-.6.87-.93c.17-.15,2.26.08,2.66,1.01.18.43-.22,1.14-.48.98-3.35-2.73-1.55.44-5.65.16Z"/>
                <path class="cls-86" d="M124.47,321.99c-.03.4.38,1.05-.34,1.39-.61.29-.71.09-1.28-.27-.94-.6.42-.91.39-1.67-.03-.96-.1-1.43.75-1.59,1.02-.2,1.81.04,1.9.84.13,1.12-1.39.77-1.43,1.31Z"/>
                <path class="cls-131" d="M127.48,333.04c.25.41.74.58.64.94-.07.24-.78.57-.72.78.19.7.87,1.17.33,1.68-.21.19-.58.69-1.01.61-2.12-.37,1.27-1.73,0-2.31-.32-.15-.62-.27-.95-.38-.23-.6-.43-1.12.33-1.63.45-.3.79.09,1.38.31Z"/>
                <path class="cls-124" d="M106.6,280.52c.79.21-.47.57.16,2.94-.94.61-1.75.17-2.04-.54-.54-1.31,1.5-2.5,1.88-2.4Z"/>
                <path class="cls-35" d="M109.54,314.72c1.35-.51,2.93,1.93,2.87,1.51.19,1.27-3.25-.7-3.2-.62-.16-.28-.15-.7.34-.88Z"/>
                <path class="cls-116" d="M105.51,317.92c.53,1.35-.25,2.23-1.15,1.92-.74-.26-1.98-1.03-1.17-1.87.43-.44,2.1-.61,2.32-.06Z"/>
                <path class="cls-6" d="M116.14,278.78c.29.43-1.54,1.22-1.83.79s-1.27-1.59-.77-1.89c.72-.32,2.03.25,2.61,1.1Z"/>
                <path class="cls-104" d="M111.03,296.34c-.75.72-1.84.45-2.35.44.3-1.14.91-1.37,1.45-1.66s1.7.45.9,1.22Z"/>
                <path class="cls-56" d="M124.14,317.05c-.67-.07-1.57-1.55-1.29-2.03.44-.75,1.45-.53,1.81.1.31.55.57,2.04-.51,1.93Z"/>
                <path class="cls-31" d="M109.65,286.01l1.48-.97c.61-.4,1.44.75,1.29,1.22-.16.5-2.28,1.06-2.64.56-.12-.17-.04-.53-.13-.8Z"/>
                <path class="cls-165" d="M106.25,312.13c-.33.57-.97.97-.91,1.69,0,.74-.56,1.15-.92,1.11-.21-.03-.78-.54-.65-.82.4-.91,1.43-2.62,2.48-1.97Z"/>
                <path class="cls-31" d="M109.65,286.01c-.82.56-1.47.22-1.96.12-.94-.19-.88-.59-.57-1.12s.46-1.74,1.03-.96c-.37,1.22.64.21.83.67.23.55.64.81.67,1.29Z"/>
                <path class="cls-136" d="M105.86,307.8c.08.28-1.01,1.78-1.08,1.84-.39.35-1.12.6-1.42-.04-.25-.55.97-1.69,1.45-2.07.26-.21.94-.13,1.05.27Z"/>
                <path class="cls-17" d="M112.75,305.83c-.07,1.16.01,1.78-.57,1.95-.89.26-.92-.81-.65-1.49.16-.41,1.27-1.2,1.23-.46Z"/>
                <path class="cls-47" d="M102.66,299.81c-.83-.26-.41-2.12.12-2.21.96-.15,1.07.61,1.2.9.2.43-.13,1.68-1.32,1.31Z"/>
                <path class="cls-12" d="M111.31,309.89c-.21.48-.87.23-1.15.08-.4-.21-1.2-1.26-.39-1.77s1.8,1.09,1.54,1.69Z"/>
                <path class="cls-180" d="M127.56,282.42c.4.01,1,.42.95.7-.1.57-.62,1-.95,1.18-.56.3-1.01-.45-1.05-.82-.07-.62.35-1.08,1.05-1.05Z"/>
                <path class="cls-190" d="M103.91,294.71c-.32.75-1.42.72-1.44.22-.04-.74-.11-1.37.63-2.05.31.32.93,1.36.81,1.83Z"/>
                <path class="cls-66" d="M105.12,295.71c.93-.72,1.8-.31,1.69.53-.09.62-.71.85-1.32.93-.73.1-1.33-.71-.37-1.45Z"/>
                <path class="cls-57" d="M125.53,317.91c.33-.77,1.98.58,1.56.95-.38.33-.92.69-1.18.58-.39-.16-.78-.63-.38-1.53Z"/>
                <path class="cls-177" d="M104.15,327.58c-.7.27-1.11-.46-.68-1.05.35-.48.68-1.03.95-.97.34.07.78.44.77.72,0,.32-.21.98-1.04,1.3Z"/>
                <path class="cls-25" d="M104.21,278.11c.39-.63.95-.72,1.35-.54.43.2.56.88.28,1.39-.16.31-.44.45-.9.48s-1.26-.48-.73-1.34Z"/>
                <path class="cls-87" d="M102.52,288.78c.42-.64,1.18.11,1.28.44.08.29.38.75-.04,1.15-.23.21-.85.22-1.28-.07-.34-.23-.41-.83.05-1.52Z"/>
                <path class="cls-17" d="M114.89,313.14c-.6-.41-.34-1.47.5-2.07.62-.45.91.23.92.73.02.61-.37.51-1.42,1.34Z"/>
                <path class="cls-123" d="M108.91,279.69c.12.89-1.19.85-1.41.44-.18-.33-.77-1.12-.08-1.33.4-.13,1.41.31,1.49.89Z"/>
                <path class="cls-113" d="M125.21,293.56c.58-.69,1.32-.15,1.31.45,0,.35-.43.81-1.08.89-.34.04-.85-.6-.23-1.34Z"/>
                <path class="cls-97" d="M105.49,292.56c-.69.21-1.46-1.47-.8-2.01.53-.43.96.39,1.19.59.37.32.72,1.08-.4,1.42Z"/>
                <path class="cls-117" d="M105.33,286.15c.35-.42,1.33,1.38.71,1.5-.44.08-.73.06-.96-.04-.43-.19-.39-.69.25-1.46Z"/>
                <path class="cls-178" d="M119.39,278.89c.26-.09.26.84.51,1.04.69.52-1.34,1.12-1.39.73-.11-.84.04-1.46.88-1.77Z"/>
                <path class="cls-115" d="M107.29,270.2c1-.91,1.52-.1,1.31.59-.09.3-.15.75-.78.78-.44.03-1.21-.74-.53-1.37Z"/>
                <path class="cls-129" d="M102.38,285.64c-1.1-.79-.02-1.4.34-2.44.36.58.75,1.57-.34,2.44Z"/>
                <path class="cls-71" d="M107.98,316.8c-.55.56-1.5.44-2.2-.59.55-.56,1.5-.44,2.2.59Z"/>
                <path class="cls-13" d="M119.02,312.83c-1.1-.79-.02-1.4.34-2.44.36.58.75,1.57-.34,2.44Z"/>
                <path class="cls-102" d="M123.79,307.6c-.46-.35-.43-1.65-.03-2.19.5.48.77.66.87.85.17.29,0,.74-.84,1.34Z"/>
                <path class="cls-184" d="M104.97,299.96c.36-.15.42,1.47-.04,1.57-.39.09-.74-.02-.83-.3-.14-.45.14-.96.87-1.27Z"/>
                <path class="cls-80" d="M111.51,281.79c.19-.4.54.24.7.37.32.26.28,1.02-.09,1.08-.76.11-1.14-.32-.61-1.45Z"/>
                <path class="cls-154" d="M114.91,299.39c.38-.22.49,1.34.03,1.55-.16.07-.44-.47-.61-.55-.37-.16-.09-.62.58-1.01Z"/>
                <path class="cls-37" d="M112.63,299.94c.2-.15.46.4.63.48.43.21.23.55-.03.55-.38-.01-.71.08-1.07,0-.52-.12-.11-.58.48-1.02Z"/>
                <circle class="cls-157" cx="123.04" cy="333.22" r=".55"/>
                <path class="cls-52" d="M117.52,300.15c.22-.54.61.19.76.29.37.24.11.5-.07.55-.4.1-1.03,0-.69-.84Z"/>
              </g>
            </g>
          </g>
        </g>
        <g>
          <path class="cls-48" d="M306.04,258.27c.24,0,.71-.16.91.04.12,6.69.27,13.17-.4,19.95-1.08,10.92-1.49,21.63-3.76,32.31-.95,4.45-1.42,8.75-2.74,12.98-.33,1.07-1.17,1.99-1.49,3.51-.47,2.21-1.27,4.4-2.02,6.58-.43,1.25-1.71,2.23-1.47,3.95.25,1.82-.99,2.66-1.75,3.77-1.48,2.16-1.01,5.19-2.79,7.23-2.03,2.34-1.89,5.66-3.6,8.27-.5.76-1.73,1.08-1.85,2.4-.23,2.44-2.84,3.65-3.37,5.54l-1.11,4c-.22.8-2.05.3-2.39,1.25-.24.66-.08,1.67-.46,2.43-.53,1.06-2.17.68-3.11,1.42.58,2.67-1.68,3.71-2.78,5.28s-1.18,3.66-3.63,3.72c-.29,1.61-.25,2.84-1.07,3.83-1.05.17-2.38.13-2.92.82-.5.64-.02,1.93-.54,2.84-.75,1.17-2.72.39-3.68,1.5.98,6.14-9.2,2.78-13.32,3.02l-.56-2.94-4.53-.46c-.55-4.59-4.86-1.3-5.23-3.37-.13-.74.03-1.38-.47-1.8-.87-.73-2.4.15-3.62-.78-.39-.3-.03-1.73-.45-1.98-2.24-1.33-5.21-.58-7.27-2.21-.22-.68,0-1.69-.45-2.02-1.38-.97-3.55-.09-3.83-.97l-.66-2.11c-.38-1.21-3.07.06-4.06-1.04-.42-.47.01-1.65-.53-1.88-1.68-.71-3.77.01-4.15-1.35-.19-.69-.07-1.87-.46-2.15-.29-.21-.93-.75-1.3-.62-2.48.82-2.25-2.08-3.13-2.56-2.37-1.3-4.42-1.56-5.5-4.69-.31-.91-2.67-.86-3.13-1.67-1.11-1.93-2.32-3.82-4.47-3.94,0-.55-2.22-4.07-4.93-4.03-.24-1.18-.07-3.84-1.37-4.13l-2.53-.58c-.64-.15-.16-1.87-.74-2.72-.69-1.02-2.54-.27-3.35-1.12-.59-.63-.28-1.76-.78-2.58-1.6-.08-2.41-1.05-2.96-2.61-.2-.57-1.06-.32-1.35-.58-.42-.36-.63-1.34-.46-2.19l-3.27-1.11c-.48-.16-.37-1.07-.53-1.34-.18-.31-.8-.61-1.18-.35.13-.95.93-1.44.62-2.4-.24-.73-.71-1.05-1.35-1.65-1.81-1.68-2.44-4.13-4.02-5.97-1.05-1.21-2.39-2.31-2.7-3.97-.24-1.28-1.75-1.55-2.11-2.22-.29-.55-6.13-11.5-5.24-10.7-.44-.4-1.32-.3-1.79-.63-1.22-.87-.39-2.94-1.13-4.03-2.17-3.21-3.97-6.59-3.77-10.38,1.21.05,2.4.93,3.02,2.24,2.21,4.66,4.18,9.31,7.12,13.73l3.22,4.86,5.17,7.65,4.34,5.66c2.01,2.63,4.51,5.12,7.09,7.35,2.62-1.89,4.26-1.65,7.65-4.2l13.86,12.28,8.45,6.47c12.39,9.48,24.6,18.57,38.35,25.74,2.72,1.42,5.3,2.67,8.38,2.74,5.02-5.51,10.19-12.69,13.84-19.18l5.56-9.88,6.81-14.72c.57-1.22.38-2.38,1.67-3.39-.92.72,2.95-6.95,2.74-8.48.31.33,2.03.94,2.3.25-.98,2.53,4.11-13.41,3.17-9.69l5.12,1.92c.9-3.18,1.85-6.07,1.9-9.31,0-.56-.7-1.32-.82-1.88-.18-.85,1.52-.77,1.6-1.27,2.06-12.71,2.49-25.42,1.9-38.39-.13-2.84,2.87-2.7,5.62-3.34Z"/>
          <path class="cls-7" d="M285.42,318.06c.26.52-.26,1.32-.18,1.93.21,1.53-3.66,9.2-2.74,8.48-1.29,1.01-1.1,2.17-1.67,3.39l-6.81,14.72-5.56,9.88c-3.65,6.49-8.82,13.66-13.84,19.18-3.08-.06-5.66-1.32-8.38-2.74-13.75-7.17-25.97-16.26-38.35-25.74l-8.45-6.47-13.86-12.28c-3.39,2.55-5.03,2.31-7.65,4.2-2.58-2.23-5.07-4.72-7.09-7.35l-4.34-5.66-5.17-7.65-3.22-4.86c-2.93-4.42-4.91-9.07-7.12-13.73-.62-1.31-1.81-2.2-3.02-2.24-.32-.01-.68-.23-.65-.58-.24-.64-.65-1.3-.31-2.16l3.7.52c.97.14,2.17-.14,2.78-.81.54-.6,1.26-1.78.88-3.03-1.65.5-2.7,1.38-4.13,1.07-.24-.93-.18-1.57-.79-2.43-.87.52-3.04,1.23-3.2.27-.97-5.92-3.59-7.91-3.84-11.75,5.5-1.21,4.85,6.17,11.64,4.24l-5.13-13.38c-1.51.48-2.29.02-2.68-.49-.42-.54-.77-1.45-.23-1.9.64-.52,1.23-.81,1.09-1.15l-.77-1.75c-.53-1.21.3-4.17-1.65-4.01-3.18.25-5.8-.04-8.39-.03-.27-.69-.38-2.31-.86-2.95-1.65-2.18-1.16-5.31-1.89-7.55,2.86-.63,5.75.57,8.96,1.36,1.08-1.7-.31-3.46-.68-5.1l-1.75-7.79c-.56-2.48-3.08-12.77-3.2-14.08,2.97.9-.5-7.99,1.11-7.09.54-.03,2.57-.27,2.59.59.04,1.86,1.62,2.15,2.35,3.42.85,1.48,4.8,10.44,3.82,8.98.64.95,1.6,1.71,1.39,2.96-.23,1.35,1.2,2.41,1.3,3.4.3,3.25,5.47,11.69,6.08,15.57.03.17,5.16,10.71,5.67,11.85l2.36,5.39c.13.29,7.26,10.91,7.5,11.31.41.68,2.34.5,2.22,2.23,0,.12,3.45,4.3,5.7,4.83,1.38.33,1.3,1.17,1.97,1.75l6.78,5.75c1.57,1.33,3.6,1.74,5.05,3.37,1.86,2.08,5.09,2.86,7.27,4.77.96.84,1.79,1.88,3.37,1.97,1.83.11,2.2,1.54,3.18,2.55,1.35,1.4,13.1,7.28,16.32,9.05l3.56,1.96c1.87,1.03,3.6,1.91,5.57,2.77,3.54,1.55,11.78,2.65,12.61,5.81,3.28-1.82,10.6,2.89,12-.53l15.82-.02c1.65,2.61,3.75.62,5.29-.49,2.2-1.58,5.31-1.28,7.71-1.72Z"/>
          <path class="cls-100" d="M290.71,310.54c.94-3.71-4.15,12.22-3.17,9.69-.27.69-1.99.08-2.3-.25-.08-.61.44-1.41.18-1.93-.68-1.34.98-2.03,1.26-3.16l3.24-13.29,2.43-16.41c1.76-11.9,2.03-24.19.66-36.17-1.03-9.01-1.76-17.9-3.93-26.66l-5.23-21.11-1.89-5.56c-1.91-5.62-8.76-30.4-13.54-32.77-.34-.17.11-1.63-.36-1.76-.32-.08-.68-.39-1.38-.42l-5.62-.21-56.51-3.12c-2.49-.14-4.49-.91-7.28.39-3.53,1.64-7.32,3.09-10.81,4.62l-8.33,3.65c-1.82.8-3.54,1.64-5.48,2.55l-24.39,11.52-5.14,2.11c-4.34,1.78-1.13,1.63-8.52,4.1.18,3.56.14,7.44,1,11.06,1.07,4.48.67,9.04,2.37,13.09-1.61-.9,1.86,7.99-1.11,7.09-.28-2.97-1.34-5.81-2.02-8.89-1.82-8.27-2.8-16.44-3.74-25.46,3.51-.9,6.27-2.15,9.37-3.55-.98.44,22.86-10.28,18.04-8.5l3.27-1.21,16.25-8.01,5.42-2.44c1.07-.48,1.85-1.24,2.94-1.58,3.61-1.14,7.14-1.87,10.61-4.16-2.35-.8-2.65-2.16-2.49-4.01.13-1.48,2.3-3.02,3.39-1.51.42.59-.71,2.31.15,2.87.52.34,1.88-.6,2.38-.29.62.59-.4,2.13.6,2.46.49.16,1.32.47,2.02.49l23.51.91,11.15,1.19,33.5,1.68c-.14-2.21,6.99,13.22,6.04,10.69l3.57,9.53,1.65,4.04c1.09,2.66,1.04,5.55,2.53,8.13.06.1,4.47,14.94,4.88,16.74l2.04,8.97c2.21,9.71,3.17,19.48,4.4,29.4,1.3,10.41.45,20.78.19,31.43-.21,8.45-3.74,25.96-5.78,34Z"/>
          <path class="cls-179" d="M133.52,243.22c.73,2.24.24,5.37,1.89,7.55.49.64.59,2.26.86,2.95-.16,1.45.61,3.04,1.45,4.49-.68-1.16,3.89,14.46,4.65,13.98.25,3.84,2.88,5.83,3.84,11.75.16.96,2.33.25,3.2-.27.62.86.56,1.51.79,2.43,1.43.31,2.49-.57,4.13-1.07.38,1.25-.34,2.43-.88,3.03-.61.67-1.8.95-2.78.81l-3.7-.52c-.33.86.07,1.51.31,2.16-.39.01-.23.38-.41.43-.21.06-.77.16-1.01-.13-.38-.47-.45-.95-.99-1.01-.44-.05-.67.16-.97.49.14-1.11-.22-2.4-.15-3.66-.69-.66-2.03-.36-2.54-1.14-.94-1.43-.17-3.12-.69-4.51-2.39-6.47.42-5.94-2.05-6.2.17-.88-1.26-2.42-.39-4-1.52-.85-2.78-.51-4.09-.89,0-2.57-1.42-15.53-3.74-15.25.1-1.79-.32-3.6-.6-5.37-.16-1.05.02-2.75-.65-3.78-2.98-1.38-.78-2.97-2.7-8.9-.4-1.24,0-3.18-.55-4.4.98-.71-.41-11.27-1.01-12.84-.42-1.09-1.27-1.52-1.5-3.27-.77-5.81-1.94-11.31-2.18-17.25-.23-5.51-1.42-10.92-1.15-16.39.02-.36-1.26-.41-.87-1.08.2-.35.27-.74.71-.88.7.4,2.24,1.67,2.43,2.87,1.27,8.27,1.79,16.14,3.4,24l4.72,23.02c.91,4.43,1.83,8.68,3.17,12.84Z"/>
          <g>
            <path class="cls-1" d="M175.28,150.45c1.21-1.31,3.18-1.38,4.78-2.08,1.28-.56,3.24-.29,2.84-2.67,6.06-1.42,1.8-2.2,5.91-2.6.35-.37.32-1.67,1.2-1.53,1.67.27,2.84-2.08,4.37-2.06l12.47.2c-.21,1.37,9.77,2.75,10.65,2.98,1.82.47,3.57.82,5.4.58.68-.09,1.31.89,2.11.91,3.08.09,5.92-.47,9.03.24,2.13.48,4.41.66,6.63.69l27.05.29,8.38.12c1.55.02,1.44,1.89,1.91,2.96,1.75,3.93,3.77,7.88,5.08,12.71,1.22,4.5,3.89,8.66,4.77,13.22.03.14,5.45,14.45,5.21,16.45,1.39,1.46,1.15,3.58,1.95,5.31l5.61,22.06,1.08,5.72,1.37,6.73c.18.88.51,1.75.71,3.27l.44,3.38c.05.37,1.36,8.49,1.2,8.03,1.5,4.36,1.42,8.78.6,12.91-2.75.64-5.74.51-5.62,3.34.59,12.97.16,25.68-1.9,38.39-.08.5-1.78.42-1.6,1.27.12.55.83,1.32.82,1.88-.05,3.24-1,6.13-1.9,9.31l-5.12-1.92c2.04-8.04,5.57-25.55,5.78-34,.26-10.65,1.11-21.02-.19-31.43-1.24-9.92-2.2-19.69-4.4-29.4l-2.04-8.97c-.41-1.8-4.83-16.65-4.88-16.74-1.5-2.59-1.44-5.48-2.53-8.13l-1.65-4.04-3.57-9.53c.94,2.53-6.18-12.9-6.04-10.69l-33.5-1.68-11.15-1.19-23.51-.91c-.7-.03-1.53-.34-2.02-.49-1-.33.02-1.87-.6-2.46-.5-.31-1.86.63-2.38.29-.86-.56.27-2.28-.15-2.87-1.08-1.51-3.26.03-3.39,1.51-.16,1.85.14,3.21,2.49,4.01-3.47,2.3-6.99,3.03-10.61,4.16-1.08.34-1.87,1.1-2.94,1.58l-5.42,2.44-16.25,8.01-3.27,1.21c4.83-1.78-19.02,8.95-18.04,8.5-3.1,1.4-5.87,2.64-9.37,3.55.94,9.02,1.92,17.19,3.74,25.46.68,3.09,1.74,5.92,2.02,8.89.13,1.31,2.65,11.6,3.2,14.08l1.75,7.79c.37,1.65,1.76,3.4.68,5.1-3.21-.79-6.1-1.99-8.96-1.36-1.35-4.16-2.27-8.41-3.17-12.84l-4.72-23.02c-1.61-7.86-2.13-15.73-3.4-24-.18-1.2-1.73-2.47-2.43-2.87.41-2.02,1-4.78-1.21-5.67.82-.47,1.42-1.71,3.45-1.48l-.11-26.12c1.94.06,4.2-.56,5.73-2.26,1.18-1.31,4.19,0,5.78-1.21,2.97-2.26,5.15-1.49,9.76-4.64,1.42-1.33,3.55-1.93,5.1-3.24l2.33-1.97,2.82-1.56c-.39,2.27,3.45,1.63,4.21,2.21.85.65-.26,3.31.78,4.18.44.36.96.33,2.11.2.04,2.38,1.01,3.93,3.15,4.97.53.26,5.26,6.76,2.07,8.31-1.4.68-.8,1.78-1.61,3.09,3.01.25,4.86-1.75,7.82-2.86l4.22-1.57c-.4-.66-.6-.93-.89-.43Z"/>
            <path class="cls-103" d="M271.06,153.83c1.27.5.24,1.64-.26,1.87-.72.33-1.6.45-2.25.33-.88-.16-1.24-2.13-.57-2.32s2.32-.18,3.09.12Z"/>
            <path class="cls-109" d="M126.76,177.98c.47.29-.37,1.27-.78,1.33-1.6.24-2.72-1.45-2.67-1.79.06-.4.47-.64,1.07-1.18.56.8,1.47,1.07,2.38,1.64Z"/>
          </g>
          <path class="cls-96" d="M204.54,157.44c-.34,4.91,2.99,12.96,4.21,17.8l4.48,17.73,2.25,11.23c-.5-.09-.77.26-1.37.38l-9.79,1.94,5.69,24.36-23.26,4.7,3.71,15.07,14.31-1.8c1.35,1.6-1.23,3.81-3.5,3.79-1,2.14-.83,4.19-1.93,6.03-.67,1.11-1.77,2.83-.95,4.23.41.71,3.2.19,3.07-.62-.34-2.17,1.08-2.97,1.9-4.09,1.23-1.68,1.72-3.19,4.38-3.09,1.97.07,4.65-1.3,6.76.05.15-1.7,5.98,11.71,5.26,9.62l3.81,11.09,9.91,28.43c1.15,1.61,3.43,3.38,4.57,5.3.78,1.32,2.65,1.29,2.41,3.52-.13,1.22.66,3.21,1.85,3.73.85-1.17-.36-2.65-.08-3.63,1.41-1.44.75-2.66.98-4.42.28-2.19,1.32-4.08,3.4-5.48l-9.04-50c-.24-1.31-.22-2.53.53-3.26,2.05-2,11.46-.91,11.07-1.1.5.25.57,1.47,1.2,1.72l3.1,1.25c.65.26.51,1.62.94,1.84.54.27,2.38.27,2.94-.14.8-.58-.32-3.19-1.3-3.3-1.58-.19-2.08-1.43-2.98-2.47s-3.14-.91-2.91-3.16c.19-1.85-3.03-.65-3.5-1.59-.44-.88.03-1.56,1.11-1.76l11-1.99c-.84-2.93-1.69-5.66-2.5-8.52l-2.31-8.2c-1.2-.75-2.57.28-4.06-.01-.11-.98-.6-1.96-.52-2.97.07-.93,1.31-1.15,1.81-1.97,1.09-1.78.58-4.26,1.82-5.87,3.5-4.52.7-7.22,4.4-9.71.52-2.36.35-4.69,1.05-7.16.24-.84,1.62-1.43,1.11-2.77-.42-1.1.58-2.08.71-3.01.69-4.71.92-9.67.68-14.72s-1.12-9.5.06-13.92l5.62.21c.7.03,1.07.33,1.38.42.47.13.02,1.59.36,1.76,4.78,2.37,11.63,27.15,13.54,32.77l1.89,5.56,5.23,21.11c2.17,8.76,2.9,17.64,3.93,26.66,1.37,11.98,1.1,24.27-.66,36.17l-2.43,16.41-3.24,13.29c-.28,1.13-1.93,1.82-1.26,3.16-2.4.45-5.51.15-7.71,1.72-1.54,1.1-3.64,3.1-5.29.49l-15.82.02c-1.4,3.42-8.73-1.29-12,.53-.83-3.16-9.08-4.27-12.61-5.81-1.97-.86-3.7-1.74-5.57-2.77l-3.56-1.96c-3.21-1.78-14.97-7.66-16.32-9.05-.98-1.01-1.35-2.44-3.18-2.55-1.58-.09-2.41-1.13-3.37-1.97-2.18-1.91-5.41-2.69-7.27-4.77-1.45-1.62-3.48-2.04-5.05-3.37l-6.78-5.75c-.68-.58-.59-1.42-1.97-1.75-2.25-.53-5.71-4.71-5.7-4.83.13-1.73-1.81-1.55-2.22-2.23-.24-.41-7.38-11.02-7.5-11.31l-2.36-5.39c-.5-1.15-5.64-11.68-5.67-11.85-.6-3.88-5.77-12.33-6.08-15.57-.09-.99-1.52-2.05-1.3-3.4.21-1.25-.75-2.01-1.39-2.96.98,1.46-2.98-7.5-3.82-8.98-.73-1.27-2.31-1.56-2.35-3.42-.02-.87-2.05-.62-2.59-.59-1.7-4.05-1.29-8.6-2.37-13.09-.87-3.62-.82-7.49-1-11.06,7.39-2.47,4.19-2.32,8.52-4.1l5.14-2.11,24.39-11.52c1.94-.91,3.66-1.75,5.48-2.55l8.33-3.65c3.49-1.53,7.28-2.98,10.81-4.62,2.79-1.3,4.79-.53,7.28-.39Z"/>
          <path class="cls-186" d="M142.38,272.21c-.77.48-5.33-15.15-4.65-13.98-.85-1.45-1.61-3.04-1.45-4.49,2.59,0,5.22.28,8.39.03,1.95-.15,1.12,2.8,1.65,4.01l.77,1.75c.15.34-.45.63-1.09,1.15-.55.45-.2,1.36.23,1.9.4.51,1.17.97,2.68.49l5.13,13.38c-6.79,1.93-6.15-5.45-11.64-4.24Z"/>
          <path class="cls-82" d="M261.05,160.56c-1.18,4.42-.29,9.11-.06,13.92.24,5.04.01,10.01-.68,14.72-.14.94-1.13,1.91-.71,3.01.5,1.33-.87,1.93-1.11,2.77-.7,2.47-.53,4.8-1.05,7.16-3.7,2.5-.9,5.19-4.4,9.71-1.25,1.61-.73,4.09-1.82,5.87-.5.82-1.74,1.03-1.81,1.97-.08,1.01.41,1.99.52,2.97-1.56-.31-2.24,1.16-3.46,1.5-5.46,1.55-11.25,1.61-16.89,2.66l-1.85-5.08c-.23-.64-1.79-.33-4.29-8.5l-2.86-9.35c-1.85-.19-3.17.31-5.08.32l-2.25-11.23-4.48-17.73c-1.22-4.84-4.55-12.88-4.21-17.8l56.51,3.12Z"/>
          <g>
            <path class="cls-146" d="M243.22,308.81c-.22,1.76.43,2.97-.98,4.42-.28.98.94,2.45.08,3.63-1.19-.52-1.98-2.51-1.85-3.73.24-2.23-1.63-2.21-2.41-3.52-1.14-1.93-3.42-3.69-4.57-5.3l-9.91-28.43-3.81-11.09c.72,2.09-5.11-11.32-5.26-9.62-2.11-1.35-4.79.02-6.76-.05-2.66-.09-3.15,1.41-4.38,3.09-.82,1.12-2.24,1.92-1.9,4.09.13.82-2.67,1.33-3.07.62-.81-1.4.29-3.12.95-4.23,1.1-1.84.92-3.89,1.93-6.03,2.27.02,4.86-2.19,3.5-3.79l-14.31,1.8-3.71-15.07,23.26-4.7-5.69-24.36,9.79-1.94c1.15,3.75,5.89,22.62,6.77,25.25l1.89,5.64c1.47,4.38,2.16,8.77,3.35,13.42l10.07,39.22,5.48,21.76c.69-.56.85-1.25,1.55-1.06Z"/>
            <path class="cls-73" d="M249.91,222.65c1.5.3,2.86-.74,4.06.01l2.31,8.2c.8,2.85,1.65,5.58,2.5,8.52l-11,1.99c-1.08.2-1.55.87-1.11,1.76.47.94,3.69-.26,3.5,1.59-.23,2.25,2.01,2.13,2.91,3.16s1.41,2.28,2.98,2.47c.98.12,2.1,2.73,1.3,3.3-.56.41-2.4.41-2.94.14-.44-.22-.29-1.58-.94-1.84l-3.1-1.25c-.62-.25-.7-1.48-1.2-1.72.39.19-9.02-.91-11.07,1.1-.75.73-.76,1.95-.53,3.26l9.04,50c-2.09,1.4-3.13,3.29-3.4,5.48-.69-.19-.86.5-1.55,1.06l-5.48-21.76-10.07-39.22c-1.19-4.65-1.89-9.05-3.35-13.42l-1.89-5.64c-.88-2.63-5.61-21.5-6.77-25.25.6-.12.88-.46,1.37-.38,1.91,0,3.23-.5,5.08-.32l2.86,9.35c2.5,8.17,4.06,7.86,4.29,8.5l1.85,5.08c5.63-1.05,11.43-1.1,16.89-2.66,1.22-.35,1.9-1.81,3.46-1.5Z"/>
          </g>
        </g>
      </g>
    </g>
  </g>
</svg>