<?xml version="1.0" encoding="UTF-8"?>
<svg id="_レイヤー_2" data-name="レイヤー 2" xmlns="http://www.w3.org/2000/svg" xmlns:xlink="http://www.w3.org/1999/xlink" viewBox="0 0 286.52 457.54">
  <defs>
    <style>
      .cls-1 {
        fill: #d1ccd5;
      }

      .cls-2 {
        fill: #fefeff;
      }

      .cls-3 {
        fill: #cadced;
      }

      .cls-4 {
        fill: #d4cfdc;
      }

      .cls-5 {
        fill: #856472;
      }

      .cls-6 {
        fill: #dad7e0;
      }

      .cls-7 {
        fill: #eff8fd;
      }

      .cls-8 {
        fill: #85585a;
      }

      .cls-9 {
        fill: #dcdee8;
      }

      .cls-10 {
        fill: #84595a;
      }

      .cls-11 {
        fill: #eecdc7;
      }

      .cls-12 {
        fill: #fdfefe;
      }

      .cls-13 {
        fill: #aebdd6;
      }

      .cls-14 {
        fill: #c6d6e9;
      }

      .cls-15 {
        fill: #98a6c3;
      }

      .cls-16 {
        fill: #e2b5b5;
      }

      .cls-17 {
        fill: #e3f2fa;
      }

      .cls-18 {
        fill: #adbbd2;
      }

      .cls-19 {
        fill: #a47d73;
      }

      .cls-20 {
        fill: #e7c5bb;
      }

      .cls-21 {
        fill: #929ebf;
      }

      .cls-22 {
        fill: #d2e0f1;
      }

      .cls-23 {
        fill: #cfe0f0;
      }

      .cls-24 {
        fill: #9baac8;
      }

      .cls-25 {
        fill: #c4c2d2;
      }

      .cls-26 {
        fill: #e7f1fa;
      }

      .cls-27 {
        fill: #838eb2;
      }

      .cls-28 {
        fill: #8794b6;
      }

      .cls-29 {
        fill: #f9e6dc;
      }

      .cls-30 {
        fill: #deeffa;
      }

      .cls-31 {
        fill: url(#_名称未設定グラデーション_6);
      }

      .cls-32 {
        fill: #99a6c5;
      }

      .cls-33 {
        fill: #faded9;
      }

      .cls-34 {
        fill: #cbdcee;
      }

      .cls-35 {
        fill: #8a94b7;
      }

      .cls-36 {
        fill: #eddbca;
      }

      .cls-37 {
        fill: #eabcb7;
      }

      .cls-38 {
        fill: #eebdba;
      }

      .cls-39 {
        fill: #94a0c0;
      }

      .cls-40 {
        fill: #919dbe;
      }

      .cls-41 {
        fill: #c1d2e6;
      }

      .cls-42 {
        fill: #8487a6;
      }

      .cls-43 {
        fill: #d7e7f5;
      }

      .cls-44 {
        fill: #94a0bf;
      }

      .cls-45 {
        fill: #5a98d2;
      }

      .cls-46 {
        fill: #949fbf;
      }

      .cls-47 {
        fill: #959db4;
      }

      .cls-48 {
        fill: #7f5f6b;
      }

      .cls-49 {
        fill: #435d91;
      }

      .cls-50 {
        fill: #cedff1;
      }

      .cls-51 {
        fill: #d2e2f2;
      }

      .cls-52 {
        fill: #b2c1d8;
      }

      .cls-53 {
        fill: #543347;
      }

      .cls-54 {
        fill: #d7d9e3;
      }

      .cls-55 {
        fill: #eba9ac;
      }

      .cls-56 {
        fill: #bccde2;
      }

      .cls-57 {
        fill: #9ca8c4;
      }

      .cls-58 {
        fill: #e2afb0;
      }

      .cls-59 {
        fill: #9aa7c6;
      }

      .cls-60 {
        fill: #b3c2d8;
      }

      .cls-61 {
        fill: #8e6d7b;
      }

      .cls-62 {
        fill: #ac8796;
      }

      .cls-63 {
        fill: #edbaaf;
      }

      .cls-64 {
        fill: #f9fcfd;
      }

      .cls-65 {
        fill: #d2c9d8;
      }

      .cls-66 {
        fill: #818aae;
      }

      .cls-67 {
        fill: #d5baaf;
      }

      .cls-68 {
        fill: #c29ca5;
      }

      .cls-69 {
        fill: #9caac6;
      }

      .cls-70 {
        fill: #ab867a;
      }

      .cls-71 {
        fill: #fefbf6;
      }

      .cls-72 {
        fill: #fbede9;
      }

      .cls-73 {
        fill: #adbcd4;
      }

      .cls-74 {
        fill: #f1f6fa;
      }

      .cls-75 {
        fill: #e2d3d6;
      }

      .cls-76 {
        fill: #c2d1e5;
      }

      .cls-77 {
        fill: #f1d77f;
      }

      .cls-78 {
        fill: #cda6ac;
      }

      .cls-79 {
        fill: #9faeca;
      }

      .cls-80 {
        fill: #eedbca;
      }

      .cls-81 {
        fill: #f6d4d2;
      }

      .cls-82 {
        fill: #e8f5fb;
      }

      .cls-83 {
        fill: #f1f9fd;
      }

      .cls-84 {
        fill: #e3b8b8;
      }

      .cls-85 {
        fill: #d5b3b4;
      }

      .cls-86 {
        fill: #737da3;
      }

      .cls-87 {
        fill: #aebcd5;
      }

      .cls-88 {
        fill: #6a627b;
      }

      .cls-89 {
        fill: #d3d2e0;
      }

      .cls-90 {
        fill: #b8c3d9;
      }

      .cls-91 {
        fill: #a7b7d1;
      }

      .cls-92 {
        fill: #cadbec;
      }

      .cls-93 {
        fill: #a1b1ce;
      }

      .cls-94 {
        fill: #e2e4ec;
      }

      .cls-95 {
        fill: #cab8bb;
      }

      .cls-96 {
        fill: #f1e2d1;
      }

      .cls-97 {
        fill: #f0dfce;
      }

      .cls-98 {
        fill: #f8f7f9;
      }

      .cls-99 {
        fill: #b3b0c2;
      }

      .cls-100 {
        fill: #efccc5;
      }

      .cls-101 {
        fill: #ac8ea0;
      }

      .cls-102 {
        fill: #bacae0;
      }

      .cls-103 {
        fill: #fdfcfb;
      }

      .cls-104 {
        fill: #a8b6ce;
      }

      .cls-105 {
        fill: #fcfefe;
      }

      .cls-106 {
        fill: #f0e3d1;
      }

      .cls-107 {
        fill: #c9dbec;
      }

      .cls-108 {
        fill: #dbdce5;
      }

      .cls-109 {
        fill: #eedccb;
      }

      .cls-110 {
        fill: #dde0e9;
      }

      .cls-111 {
        fill: #d3b6ac;
      }

      .cls-112 {
        fill: #8794b5;
      }

      .cls-113 {
        fill: #dcc0b4;
      }

      .cls-114 {
        fill: #a9b8d2;
      }

      .cls-115 {
        fill: #e0e2e9;
      }

      .cls-116 {
        fill: #d8909b;
      }

      .cls-117 {
        fill: #f4e58d;
      }

      .cls-118 {
        fill: #9ad6e8;
      }

      .cls-119 {
        fill: #d3e2f1;
      }

      .cls-120 {
        fill: #5980b1;
      }

      .cls-121 {
        fill: #bccbe1;
      }

      .cls-122 {
        fill: #adbed6;
      }

      .cls-123 {
        fill: #bbc9df;
      }

      .cls-124 {
        fill: #e3e6ee;
      }

      .cls-125 {
        fill: #f9e4dc;
      }

      .cls-126 {
        fill: #a9b9d3;
      }

      .cls-127 {
        fill: #d9e9f7;
      }

      .cls-128 {
        fill: #d1d8e6;
      }

      .cls-129 {
        fill: #8997b9;
      }

      .cls-130 {
        fill: #5e9fd1;
      }

      .cls-131 {
        fill: #cdccd9;
      }

      .cls-132 {
        fill: #e5abae;
      }

      .cls-133 {
        fill: #6d4a53;
      }

      .cls-134 {
        fill: #fbece8;
      }

      .cls-135 {
        fill: #cbddec;
      }

      .cls-136 {
        fill: #7e5760;
      }

      .cls-137 {
        fill: #7f89ae;
      }

      .cls-138 {
        fill: #c2cfe2;
      }

      .cls-139 {
        fill: #dbb070;
      }

      .cls-140 {
        fill: #838bb0;
      }

      .cls-141 {
        fill: #a8b6d0;
      }

      .cls-142 {
        fill: #7b85aa;
      }

      .cls-143 {
        fill: #9fadca;
      }

      .cls-144 {
        fill: #a4b5d1;
      }

      .cls-145 {
        fill: #625e78;
      }

      .cls-146 {
        fill: #ead7c6;
      }

      .cls-147 {
        fill: #c3b8c4;
      }

      .cls-148 {
        fill: #ebd174;
      }

      .cls-149 {
        fill: #e0e3eb;
      }

      .cls-150 {
        fill: #b7c7de;
      }

      .cls-151 {
        fill: #d2b7ac;
      }

      .cls-152 {
        fill: #b3a4b6;
      }

      .cls-153 {
        fill: #5a4d65;
      }

      .cls-154 {
        fill: #feffff;
      }

      .cls-155 {
        fill: #dfb874;
      }

      .cls-156 {
        fill: #919cbc;
      }

      .cls-157 {
        fill: #dcecf8;
      }

      .cls-158 {
        fill: #d9e3ee;
      }

      .cls-159 {
        fill: #97a4c3;
      }

      .cls-160 {
        fill: #b7c6dc;
      }

      .cls-161 {
        fill: #deeaf7;
      }

      .cls-162 {
        fill: #9ad5e8;
      }

      .cls-163 {
        fill: #fdfdfe;
      }

      .cls-164 {
        fill: #ddeef9;
      }

      .cls-165 {
        fill: #c6d7e9;
      }

      .cls-166 {
        fill: #d1d1dd;
      }

      .cls-167 {
        fill: #435e92;
      }

      .cls-168 {
        fill: #a4b2cd;
      }

      .cls-169 {
        fill: #6a4f59;
      }
    </style>
    <linearGradient id="_名称未設定グラデーション_6" data-name="名称未設定グラデーション 6" x1="212" y1="142.58" x2="247.99" y2="299.31" gradientUnits="userSpaceOnUse">
      <stop offset="0" stop-color="#f2fafd"/>
      <stop offset=".74" stop-color="#bfcadc"/>
    </linearGradient>
  </defs>
  <g id="_レイヤー_1-2" data-name="レイヤー 1">
    <g id="_生成オブジェクト" data-name="生成オブジェクト">
      <path class="cls-89" d="M165.96,447.84c6.56,3.4,3.17,5.97,7.05,8.46-1.23.9-2.49.96-3.65.71-2.4-.53-4.34.32-6.63.32l-41.94.12c-4.06.01-7.83.19-11.85,0s-7.73-.9-11.77-.42c-.39.05-.7-.38-.84-.48-.4-.29.49-.65.54-.99.58-3.9,3.83-7.88,3.7-11.45l-.24-6.28c-.06-1.49.82-4.3,2.43-4.3,2.18,0,7.95-1.48,11.26-.4,3.49,1.14,11.32-.18,10.08-.2,10.62.15,21.05-.46,31.37.26,3.49.24,6.51.54,10.1.34-.24.9-.87,1.01-.37,1.58.91,1.04-.64,2.35-.41,3.12.4,1.32.06,1.64-.45,2.72-.32.69-.78,5.64,1.64,6.89Z"/>
      <path class="cls-89" d="M211.8,452.14c.42-.97.14-2.03.27-3.05.33-.63.98-.28,2.11-.64.06-2.86,1.04-6.75-.69-9.34-.81-1.03-3.06-1.38-2.34-3.2l9.59-.02c.76,4.39,8.23,1.54,10.44,4.91,2.37.21,5.31-.06,6.98,1.78,1.97,2.18,3.33.51,4.95,2.13.39.39.71,1.44.41,2.12-1.03,2.28-3.37,2.45-5.31,3.35-2.56,1.18-5.13,2.56-7.97,1.54-.73,3.49-5.08,1.47-7.19,2.09-3.28.98-6.47,2.33-10.07,1.74.03-1.55.01-2.94-1.17-3.4Z"/>
      <path class="cls-89" d="M37.95,450.14c-2.5-.97-5.37-1.22-6.84-4.27.67-.43,1.05-2.18,1.8-2.45,8.62-3.39,5.88-1.25,10.11-1.88.32-.05.48-.06.61-.43.1-.3.56-.1.91.09.23.13.22.36-.26,1.02,1.88,5.83.07,3.55.57,8.54.16.81-.95.82-1.44.28-2.08,1.1-3.79-.26-5.45-.91Z"/>
      <g>
        <g>
          <path class="cls-18" d="M171.25,153.59l.02,4.68c0,1.21-.47,2.89.19,4.04.52.92,1.72,1.47,2.49,1.91.51.29.99.59,1.96.9l.09,21.97.04,63.59-.09,39.11c.67.68,1.87.31,2.33.99s-.13,1.65.14,2.64c4.25-.05-.3,4.87,5.66,5.13.38,2.06.32,4.67.93,6.74l3.63.14c-.19,1.25.24,1.95.89,2.62.5.51,2.11.17,2.29.81l.79,2.82c.16.58,1.55.87,2.89.89.54,1.28.4,2.66.7,3.91,1.18.48,2.33.23,3.37,1.15.04.86-.23,2.66.79,2.73,1.21.08,2.33-.36,2.88.55.47.78.43,1.69.18,2.25-.4.9-1.16,1.59-2.11,1.18-2.6.97-1.52-3.9-5.49-4.23.59.05-4.37-6.39-3.44-5.93l-3.29-1.64c.02-1.2-.7-3.06-1.19-4.15-1.76-1.59-4.25-1.04-6.54-1.31-.44-1.02-.91-2.13-.82-3.03.15-1.5.37-3.09-.11-4.72-1.03-.6-3.01-.18-3.38-1.21l-1.25-3.56c-1.02-.74-2.03-1.68-1.79-3.48-.68-1-2.19-.62-2.73-1.65l-.59-10.47c-.08-1.45.46-4.14-.82-5.19.99-.59,1.25-1.96,1.21-3.26l-.37-11.71-.07-5.11.09-14.77c0-.83,0-1.55-.49-2.29,1.06-1.92.72-4.67.12-6.74.75-.74.67-2.04.64-3.22l-.27-9.94c-.09-3.46.12-6.9-.01-10.39-.08-2.24.45-4.51-.12-7.14-1.38.31-3.16.93-4.2,2.02-1.25,1.3.66,4.81-.36,5.72-1.93-.34-4.05.14-6.24-.64,1.15.41-6.36-3.29-4.65-2.1-3.28-2.28-6.59-3.87-9.98-5.68l-5.32-2.85c-1.53,2.92-6.69,3.73-10.57,6.07-1.97,1.19-4.07,2.06-6.2,3.13-4.19,2.11-8.5,2.98-13.16,2.08-1.39-.27-1.44-.82-2.32-1.52-4.73-3.75-.72-2.04-4-6.48-1.22-1.66-.32-6.95-2.23-6.2.07-2.71.65-5.36.56-8.24,1.83-.53,2.78-1.52,4.07-2.14.31,3.53-1.05,7.82.43,10.98,2.85,1.85,6.93,1.82,10.25,1.68.31-.01.42-.46.6-.46l7.04-.19c3.32-.09,6.57.09,10.05.06l24.04-.2c.54-1.31.3-2.33.47-3.35.81.34,2.21-.13,3.3-.13,1.16,0,.78-1.68,1.12-2.24l5.28-1.3.53-5.41,1.22-.13c.54-.06.51-1.06.5-1.67l-.18-7.09c-.01-.43-.71-.41-.91-.52.68-.74,1.51-1.72.77-2.7l-1.93-2.57c-.42-3.84-.31-7.69-.13-11.58.02-.44.75-.51.57-1.02.73-.28,1.4-.87,2.18-.92Z"/>
          <path class="cls-90" d="M222.13,343.06c-1.4.43-2.77-.22-3.33-1.64-.5-1.24-1.92-1.29-2.59-1.9l-2.6-2.38c-4.37-4.01-1.74-4-4.88-4.92-1-.29-1.68-2.32-3.7-1.24-.25-2.09-.78-3.61-1.2-5.29.26-.97,1.32-1.6,2.07-1.54,1.22.09,1.47.72,1.51,2.07.12,3.79,2.51-.43,4.21,3.48.26.59-.04,1.35.56,1.96.42.43,1.13.32,1.98.59,1.07.34.92,1.77.92,2.77,1.07.58,2.46.21,3.42.94.73.56,0,2.2.73,2.51,1.47.6,3.6.4,3.34,2.69-.04.39.59.73.32,1.04-.18.21-1.15.42-.75.88Z"/>
          <g>
            <path class="cls-31" d="M185.33,145.51c.3-.09.64-.12.96-.08.82.09,1.55.35,2.33.59.34,3.52,5.33-.36,4.77,4.87.39,1.08,2.23,1.4,2.91,2.6.43.75.35,2.41,1.3,2.75.83.3,1.69-.08,1.93.57.3.85-.21,1.87-1.31,2.12-1.57.37-3.83,3.3-1.96,4.23,2.46,1.22,5.73-.46,7.99-.14,2.57.36,5.62-.6,8.02-.44,4.7.87,9.5-.19,14.26-.16l59.99.42-.07,122.18c0,.94-.48,1.39-.72,1.69-.25.31-1.38.1-2.03.23-.5,3.24-1.02,9.17-3.63,11.88-1.11,1.15-.88,3.65-2,4.94-1.78,2.05-2.85,4.11-4.09,6.42-1.42,2.63-3.27,4.89-4.36,7.82-.29.77-1.81.18-2.28.52-.81,2.15-1.95,4.6-3.45,6.35-.39.46-.02,1.42-.64,1.72-.51.25-1.24-.02-2.04.18-1.73.44-.21,5.45-4.47,4.8l-1.42,4.2c-.86.69-2.72-.21-3.12.67l-1.4,3.05c-.17.37-1.06.16-1.46.43-.9.63,1.12,2.48-3.83,3.39l-1.25,3.01c-1.64.42-3.28,1.17-3.83,3-.36,1.21-2.05.86-2.85,1.73-.65.71-1.19,2.84-2.62,2.19-2.07-.95-3.63-3.35-5.81-4.17-1.3-.48-2.57-.41-2.56-2.3-.96-.56-2.31-.06-3.04-.81s-.72-2.11-1.39-2.9c-.4-.46.58-.67.75-.88.26-.31-.37-.65-.32-1.04.26-2.29-1.87-2.09-3.34-2.69-.74-.3,0-1.95-.73-2.51-.95-.73-2.35-.36-3.42-.94,0-1,.15-2.43-.92-2.77-.84-.27-1.55-.16-1.98-.59-.6-.61-.3-1.37-.56-1.96-1.7-3.91-4.09.31-4.21-3.48-.04-1.34-.29-1.98-1.51-2.07-.75-.05-1.81.57-2.07,1.54-2.09-2.22-2.55,1.06-2.51-1.34.95.41,1.71-.27,2.11-1.18.25-.56.28-1.47-.18-2.25-.55-.92-1.67-.47-2.88-.55-1.01-.07-.75-1.88-.79-2.73-1.04-.92-2.2-.67-3.37-1.15-.3-1.25-.16-2.63-.7-3.91-1.34-.02-2.73-.31-2.89-.89l-.79-2.82c-.18-.64-1.79-.3-2.29-.81-.65-.67-1.08-1.36-.89-2.62l-3.63-.14c-.61-2.07-.55-4.68-.93-6.74-5.97-.26-1.42-5.18-5.66-5.13-.27-.98.31-1.97-.14-2.64s-1.67-.32-2.33-.99l.09-39.11-.04-63.59-.09-21.97c-.97-.31-1.46-.61-1.96-.9.43-2.02,5.14-.04,5.05-2.37-.03-.92-.24-1.56-1.46-2.08-.54-.23-.6-1.49-1.65-1.49h-4.62s-.02-4.69-.02-4.69c1.04-.93,2.45-1.92,3.3-3.29,4.39-7.08,7.14-3.69,10.78-4.8Z"/>
            <path class="cls-64" d="M250.91,174.46c-.39,6.16-.13,12.23-.15,18.74l-.18,49.44v16.56c-.01,2.28-.09,4.52-1.13,6.56l-3.47,1.33-.82,6.18c-.18,1.38-2.46.64-3.12,1.1-1.47,1.04-1.22,3.44-1.48,5.08s-2.32,1.51-3.44,1.53l-1.63,2.94-.4,52.71c0,.31-.35.67-.5.8-.14.11-.4-.01-.63-.02-.76-.35-1.16-.67-1.74-1.61-.43-.7-1.75-.58-2.08-1.54-.43-1.24-2.11-.61-2.96-1.34-.6-.51-.03-2.38-1.3-2.52-.99-.11-2.68.25-3.13-.89-.33-.85.29-2.41-.75-2.75-.84-.28-2.43.33-3.04-.74-.52-.93-.07-2.24-.5-3.26l-3.26-.43c-.49-1.11-.06-2.46-.72-3.37-.46-.64-1.96.04-2.51-.45-1.25-1.11-1.06-3-.86-4.8-1.23-.62-2.35-.28-3.79-.77-.05-1.41-1.15-1.97-2.59-1.85-.86-.89-.29-2.68-1.42-3.19-.99-.44-2.59.14-3.09-.76-.59-1.06-.07-2.54-.62-3.7l-3.15-.23-.76-3.85c-.94-.18-2.48.28-3-.68-.71-1.31.15-3.11-.45-4.44-.43-.95-2.17-.47-3.04-.69l-.87-4.26c-1.13-.16-2.97.17-3.42-.81-.62-1.34.37-2.95-.97-4.11l-.1-68.52-.03-40.79,39.27-.5c9.52-.12,18.64-.28,27.84-.07Z"/>
            <path class="cls-124" d="M271.32,294.18c-.05,1.27-1.68,1.72-2.64,2.55-1.48,1.29-.09,3.98-1.05,5.17-1.08,1.35-2.14,2.39-3.1,4.08-.45.8-4.97,4.01-4.66,5.55.35,1.77-1.22,2.03-1.98,3.12l-2.95,4.25c-.74,1.07-2.14,1.16-2.56,2.29-.49,1.33-.27,2.21.06,3.45.23.86-.17,1.88-.58,2.67s-1.6.53-2.28,1.25c-.84.89-1.17,2.54-2.67,3.02-1.65.53-2.2,2.07-3.23,2.9-1.46,1.17-3.21,1.53-4.25,3.39-.31.56-2.03.34-2.33,1.3-.2.64-.57,1.18-1.06,1.2-2.18.07-.74-2.34-2.09-2.98.23,0,.49.13.63.02.15-.13.5-.49.5-.8l.4-52.71,1.63-2.94c1.12-.02,3.18.15,3.44-1.53s0-4.04,1.48-5.08c.66-.47,2.94.27,3.12-1.1l.82-6.18,3.47-1.33c1.04-2.03,1.12-4.28,1.12-6.56v-16.56s.19-49.44.19-49.44c.02-6.51-.23-12.58.15-18.74l24.98.17.1,34.62.05,75.34c0,1.21-.85,2.14-.63,3.39s-2.28.57-2.88,1.01c-.95,1.29-1,3.65-1.21,5.19Z"/>
            <path class="cls-128" d="M252.45,324.66c-.33-1.25-.55-2.12-.06-3.45.42-1.13,1.82-1.22,2.56-2.29l2.95-4.25c.76-1.09,2.33-1.36,1.98-3.12-.31-1.54,4.21-4.76,4.66-5.55.95-1.69,2.02-2.73,3.1-4.08.95-1.19-.44-3.88,1.05-5.17.96-.84,2.58-1.28,2.64-2.55.33.14.44.31.63.48.27.23.05.89,0,1.2l-1.01,5.43c-.3,1.61-1.41,2.09-2.85,2.44.07,1.08-.98,2.68-1.21,3.71-.42,1.85-.53,2.45-2.33,3.63-.52.34-.54,1.86-1.07,2.06-.79.3-1.59.2-2.76.39-1.15,2.19-.77,6.35-4.26,6.31l-1.28,3.95-2.71.88Z"/>
          </g>
        </g>
        <g>
          <g>
            <path class="cls-106" d="M189.16,14.9c-.41.29-.9.47-1.46,1.12,3.58,1.05-.67,1.85,3.76,3.28.82.27,1.14,1.53,2.45,1.41.83-.08,1.81.89,1.75,1.7-.3,4.45,4.16,1.17,4.41,8.47.62.96,1.97.32,2.75.96,1.61,1.35,1.55,3.71,2.05,5.62,2.85,1.4,3.44,3.22,3.13,7.09-.12,1.49,1.34,1.96,1.51,2.66,1.49,6.07,1.42,12.23,1.53,18.64l.49,29.86c.14,8.29-.26,17,.88,25.24,1.12.55,2.54,1.16,2.17,2.92s.5,3.19.65,4.78l.95,10.31c.07.81,1.85.77,2.07,1.57.62,3.11.92,6.19,1.61,9.24l1.08,4.75c-.39-1.7,3.47,5.28,1.34,7.56-2.24.96-3.31-2.35-4.46-3.2-1.4-1.03-2.97-2.59-3.1-4.62-.93-.61-3.26.25-3.43-1.2.27-2.05-.65-4.76-1.23-6.79l-1.49-5.2c-1.78-6.22-3.97-21.67-4.75-29.03l-1.31-12.36c-1.76.19-2.11,1.66-2.05,2.96.37,7.92-2.44,22.04-5.29,29.07l-1.92,4.73c-1.34,3.31-3.42,6.11-6.02,8.6-.49-.09-1.15-.2-.95.35-.32-.04-.65,0-.96.08-.74.1.3-4.4.49-4.71,1.24-2.08,3.61-10.41,2.44-13.72-1.14-1.08-4.52,5.15-8.2,3.39,2.57-2.15,4.1-4.05,4.97-6.96,1.1-3.67,3.02-2.69,3.1-3.91l.44-6.68c.49-7.5.62-15.15-.25-22.53-.03-.28.33-.73-.08-.96.47-1.05.76-14.71-.64-15.42-.73-.37-1.43-.31-1.83-.81-.86-1.08-.79-6.65-2.6-7.73-1.61-.97-1.57-2.27-1.97-3.72-.82,1.65-.3,3.25-.68,5.1-3.85-.73-4.59-11.13-6.67-12.81-.88-.71-.21-2.93-1.04-3.94-.89-1.09-2.49-1.5-3.53-2.47.2-3.19-2.06-5.76-5.18-5.46l-4.01.37c-.17-2.46.07-4.66-.19-6.8-.03-.23,0-.48-.24-.55-1.73-.5-.26-10.32-3.33-9.88-.89.13-.52,1.06-.54,1.86-.16,7.14.2,14.21-1.44,21.13-2.01.52-1.54,4.7-2.97,7.67-.53.59-1.98.29-2.63.53-1.89,6.83-2.11.47-4.42,7.35-.06.55.9.82.98,1.45-2.04,2.62-5.48,4.47-8.23,6.33-.61.41-.49,2.17-2.27,1.74-1.34-.33-2.42.5-3.18,1.47-1.1,1.4-3.24,1.22-4.53,2.04-4.34,2.74-11.97,1.61-15.73,2.4-3.25.68-6.04,1.73-9.52,1.1-.51-.09-1.53.03-1.39.59l-1.44.02c-.37-.62-.45-1.25-.36-1.96,3.12-1.89,3.31.14,11.19-4.99,5.58-3.64,10.05-6.17,14.53-11.68,1.31-1.61,2.24-3.3,3.33-4.9,1.88-2.77,3.58-5.63,4.95-8.92.89-2.13,2.67-4.21,1.98-7.06-2.74,3.18-3.47,7.09-5.83,10.17-2.17,2.84-4,5.6-6.97,7.76-.94.68-1.76,2.77-2.84,2.97-2.29.43-3.39,1.8-5.03,2.59l-6.42,3.09c-2.19,1.05-4.97.92-6.68,2.87-.66.76-.99,2.21-2.27,2.35-2.2.25-4.38-.14-6.62,0-1.99.12-3.92.82-6.03.36l-.83-12.38c-1.13,1.29-.35,2.69-.75,4.02-.91,3.01-.22,6.32-.79,9.48-.31,1.7.45,3.01.43,4.27l-.15,7.12-.08,36.13c0,3.06-2.22,25.96-4.28,25.48-.7-.16-.46-1.31-.73-1.88-.2-.43-.81-.35-1.34-.4-1.51-.12-3.15-15.44-3.16-17.92l-.19-40c0-1.54.08-12.24.17-11.8-.03-.16-.67-.21-.72.11s.23,1.03-.71.48c-.74,5.5-.86,11.43-2.06,17.14-.45,2.16-.75,4.07-.85,6.31l-1.21,27.21c-.24,5.3-.64,10.54-2.28,15.68-.54,1.71-3.03,10.66-3.25,10.93-.81.96-1.43,1.15-1.79,2.75-.63,2.82-2.09,5.49-2.06,8.46-.98.33-1.7.13-2.83.35l-1.99,6.48c-.92.14-2.1.07-2.54.66-.4.53-.24,1.45-.67,2.19s-1.54,1.22-1.87,1.82l-1.63,2.97c-1.93.5-1.26,1.84-1.94,2.76s-1.26,2.15-1.92,2.88c-1.85,2.05-3.56,3.91-5.12,5.8l-1.61,1.94c-.46.56-.19,1.3-.66,1.86-.32.38-1.1.05-1.71.39-1.54.85-1.27,2.9-1.99,4.14-.32.56-1.6.06-1.9.7-.28.6-.63,1.43-.59,2.51-.93.74-2.26.4-3.28.95-1.6,8.48-2.12,3.07-4.32,9.9-.27.83-1.56,1.41-1.35,2.7s-1.42,1.43-1.8,2.03c-1.4,2.19-.88,5.05-2.07,7.23-.37.67-.8,1.11-1.04,1.97l-2.59,9.32c-1.15,4.14-1.44,8.51-1,12.64.64.38,1.09,1.02,1.22,1.58-.96.79-1.72,1.83-1.01,2.98.13.21.19.7.68.42.31-.18.69.07.37.38-1.2.62-2.23-1.25-3.04-1.96-2.12-1.84-3.11-4.2-4.44-6.43-.65-1.08-2.09-1.82-2.69-3-.99-1.93-1.21-3.94-2.26-5.7-2.4-4.04-1.7-19.33-1.19-24.66.1-1.04,2.16-.81,2.54-1.38l1.72-8.64c.23-1.17,1.56-.98,2.19-1.54.93-.84.7-2.41,1.01-3.61.39-1.54,1.63-2.66,2.94-2.01.19.65-.42,1.38.28,2.06.5-1.74,1.59-2.37,2.9-2.71,1.6-3.03-.44-4.32,3.48-6.81,1.25-.8,2.09-4.12,2.47-4.29.41-.18,1.09-.33,1.61-.63.93-.55.9-2.14,1.05-3.03.1-.63-.38-1.42.27-1.98.29.69.17.92.67,1.05.42.11.72.25,1.19.09,1.4-.48.76-2.27,1.06-3.46.31.14.81,0,.61-.43.73,0,1.85.35,2.84-.17.76-.39.54-2.09.5-2.81.38.2.87-.44.82-.78.55.17,2.19.25,2.21-.34.1-2.76,1.42-3.46,3.26-4.79,1.23-.89,1.33-3.57,3.01-4.3,2.43-1.07,1.82-6.34,5.16-7.33,4.01-8.67,2.3,1.6,5.04-12.48,1.59-.1,2.58-1.14,2.54-2.88-.04-2.02,1.95-7.6,3-9.11.84-1.2.22-3.15.8-4.55-.67,1.62,3.83-11.73,3.43-10.4,1.04-3.51,1.06-7.36,1.91-11.26.77-3.5.86-6.93,1.14-10.42.08-.95.76-1.4.87-2.03,1.06-5.99.59-12.05,1.25-18.19.97-9.05-.62-17.58,2.16-27.65.4-1.45,1.08-2.83,1.16-4.51.09-1.9,1.04-3.37,3.17-3.24l.9-5.63c.02-.15.04-.3.07-.45.53.03,2.55.31,2.76-.56.48-2,1.53-4.17,1.51-6.07,3.7-.56,2.53-5.11,6.22-4.55.34.05.99-.28,1.26-.46.23-.16.41-.64.36-1.09-.18-1.73.89-1.6,2.02-2.15,1.2-.57,2.7-1.4,3.89-1.55.78-1.91,2.12-3.58,4.57-3.47,1.5.07,2.13-1.01,3.07-1.52,1.39-.74,2.58-1.38,3.84-2.59.75-.72,2.97.11,3.46-1,.79-1.77,2.17-1.33,3.87-1.66-1-.56-1.92-.16-2.92-.29.12-1.24.02-2.55.52-4.04C118.62-.08,130.81-.16,143.37.18l23.8.65c.3,1.42.13,2.48.23,3.78,3.22,0,6.2,0,9.51.39l.72,3.48c1.81,1.08,5.48.35,6.79.94.6.26.19,1.18.51,1.6.72.92,2.8.31,3.16,1.2l1.07,2.68Z"/>
            <path class="cls-151" d="M127.71,57.45c-1.09,1.6-2.02,3.29-3.33,4.9-4.48,5.52-8.95,8.04-14.53,11.68-7.88,5.13-8.07,3.1-11.19,4.99s-4.18.87-4.33,2.02c-.21,1.6,2.07.99,1.91,2.12-3.6,2.72-7.05.47-8.85,2.2.44.58.7,1.05.74,1.46.06.64-.7.86-1.21,1.4-.93.96.34,2.59,1.37,2.96,1.27.45,1.39.99,1.61,1.97-.74-.02-1.58-.08-2.07.45-1.2,1.29-.02,4.17.16,6.87.35,5.17-.23,10.52,1.07,15.72.17.68,1.79,1.08,1.46,2.54-.13.59.18,1.37.49,1.7.54.57,2.36.06,3.09,1.11.44.63.26,1.58.5,2.24.48,1.33,2.43.61,3.32,1.23.55.38.2,1.72.45,2.15.9,1.5,4.04-.64,4.54,2.53,1.91-.16,3.42,1.55,5.07,1.98l7.58,1.98c3.51.92,6.87,1.4,9.99,2.5.76,1.35-.46,2.17-.79,3.26l-1.27,4.28c-.78-.44-.17-1.37-.46-1.69-1.31-1.48-6.51.34-8.89,1.18-1.77.62-.79,4.57-2.89,4.19-1.71-.79-5.35-5.7-6.95-6.99-1.42-1.15-4.02-.18-5.63-.41-1.4-.2-2.96.01-4.57.18l-.65,4.11c-3.55,1.04-6.83,1.95-10.09,3.53.18,1.65-.41,2.77-.82,3.93-.37-.02-.6.33-.94.38-.5,0-1.73.11-2,.9-1.95,5.9-4.28-.33-7.15,19.9-.18,1.28-.42,2.36.22,3.23-1.3,1.25-.92,3.23-1.45,4.85-2.46-1.11-2.1,7.56-.79,8,1.7.56,3.51.17,5.42.56.18.82.03,1.53.05,2.21,0,.16-.07.35.02.51l-1.89,5.59c-.35,1.02-1,1.66-1.18,2.55-.86,1.33-1.95,2.6-.94,4.42,1.16-.02,2.2.47,3.17.66.41,5.1-2.17,3.59-1.84,5.63.25,1.51-.79,2.19-1.33,3.3-1.18,2.45-.97,5.31-2.12,5.63-1.79-.85-2.99-5.32-4.91-2.97-.57.7-.92,2.26-.68,2.98-1.23.28-3.62.46-4.48,1.69-1.01,1.98-.46,4.58-.14,6.46-.09,5.09-.32,10.66-.59,15.89-.05.89-.65,1.96-.76,3.04-.52,5.04-.56,10.06-.78,15.05-2.36.73-.18,6.74-.73,9.32-.29,1.35-.52,2.54-.37,3.7s-.43,2.93,1.15,2.92c-.03,1.89.11,3.8-.32,5.65-.16-.08-.31-.23-.5-.1-.56-1.37-2.34-.72-3.64-1.55-2.29-4.84-7.28-.67-7.85-6.22-2.28-.55-4.34-.61-6.35-1.32-7.43-2.61-4.06-1.99-5.84-4.22-1.14-1.43-2.35-4.08-3.58-4.98-1.7-1.24-2.79-1.54-3.62-3.82-2.16-5.91-4.88-11.54-5.84-17.93l-1.58-10.59c-3.35,7.63-2.72,9.21-2.37,16.5-.17.28-.63.51-.38.8-.33.68-1.09-.05-1.53.31-.13-.56-.58-1.2-1.22-1.58-.44-4.13-.15-8.5,1-12.64l2.59-9.32c.24-.86.68-1.3,1.04-1.97,1.19-2.18.67-5.03,2.07-7.23.38-.6,2-.8,1.8-2.03-.21-1.29,1.09-1.87,1.35-2.7,2.2-6.83,2.72-1.42,4.32-9.9,1.01-.55,2.34-.21,3.28-.95-.04-1.08.31-1.91.59-2.51.3-.64,1.58-.14,1.9-.7.72-1.24.45-3.29,1.99-4.14.61-.33,1.38,0,1.71-.39.47-.55.2-1.3.66-1.86l1.61-1.94c1.57-1.89,3.28-3.75,5.12-5.8.66-.73,1.24-1.97,1.92-2.88s0-2.26,1.94-2.76l1.63-2.97c.33-.61,1.44-1.06,1.87-1.82s.27-1.66.67-2.19c.44-.59,1.62-.52,2.54-.66l1.99-6.48c1.14-.21,1.85-.01,2.83-.35-.02-2.97,1.43-5.63,2.06-8.46.36-1.6.98-1.79,1.79-2.75.22-.26,2.7-9.22,3.25-10.93,1.64-5.14,2.04-10.38,2.28-15.68l1.21-27.21c.1-2.24.4-4.15.85-6.31,1.2-5.71,1.32-11.63,2.06-17.14.94.55.66-.17.71-.48s.69-.27.72-.11c-.09-.43-.18,10.26-.17,11.8l.19,40c.01,2.48,1.66,17.79,3.16,17.92.53.04,1.14-.03,1.34.4.27.57.03,1.71.73,1.88,2.05.48,4.27-22.43,4.28-25.48l.08-36.13.15-7.12c2.24.08,4.66-.31,6.99-1.32.92-.4,1.25-1.57,2.91-1.28,3.43.59,6.3-1.02,8.96-2.9.9-.63,2.93.21,3.53-.79.63-1.05,1.47-1.65,2.66-2.01,3.01-.89,7.35-4.07,9.37-5.89l4.62-4.16c.94-.84,3.32-4.72,4.67-3.24Z"/>
            <path class="cls-80" d="M226.52,162.42c-4.76-.03-9.56,1.03-14.26.16-.48-3.23-1.39-6.39-.98-9.5.17,1.45,2.5.59,3.43,1.2.13,2.03,1.7,3.59,3.1,4.62,1.15.85,2.22,4.16,4.46,3.2,2.13-2.28-1.73-9.26-1.34-7.56l-1.08-4.75c-.69-3.04-.99-6.13-1.61-9.24-.22-.81-1.99-.76-2.07-1.57l-.95-10.31c-.15-1.59-1.02-3-.65-4.78s-1.06-2.37-2.17-2.92c-1.14-8.24-.74-16.95-.88-25.24l-.49-29.86c-.11-6.42-.04-12.58-1.53-18.64-.17-.7-1.63-1.17-1.51-2.66.3-3.88-.29-5.69-3.13-7.09-.5-1.9-.44-4.27-2.05-5.62-.78-.65-2.13,0-2.75-.96-.25-7.3-4.71-4.02-4.41-8.47.06-.81-.93-1.79-1.75-1.7-1.3.13-1.63-1.14-2.45-1.41-4.43-1.44-.18-2.23-3.76-3.28.56-.65,1.04-.83,1.46-1.12l1.71.81c.99.47,1.08.82,1.27,1.69.28,1.29,2.85,1.55,3.4,2.8.59,1.35,6.18,6.69,6.82,7.86,1.21,2.22,1.6,4.42,4.06,6.13,1.25.87,1.01,3.98,2.79,4.96,1.04.58.54,2.25,1.63,3.03-.59.78-.64,1.09-.06,1.7.86.9.07,2.56.93,3.77-.38-.54,2.86,7.27,1.55,6.26,1.06.82.69,2.54.62,3.59.52-7,.17,11.7.94,6.45.26,6.89.17,13.46.02,20.31-.14,6.82.27,13.56.39,20.56l.15,8.36.51,3.63c.19,1.35.37,3.07.65,4.34.76,3.47.9,7.63,1.66,9.07.93,1.77.55,3.47.4,5.64-.06.83,1.01,1.78.49,3.27.71,1.96,3.04,4.58,2.44,7.93.19-1.04,1.33,6.89,1.85,7.56,1.76,2.28,2.81,5.19,3.13,7.78Z"/>
            <path class="cls-36" d="M30.62,171.54c-.35-2.19,1.15-2.17,4.32-6.01l2.08-2.52c-2.03,2.45,5.67-10.21,4.49-8.06l2.4-4.37c1.24-2.25,1.16-5.67,3.09-7.28,2.85-2.39,1.85-4.91,4.25-10.52l1.43-3.35c.24-.55.16-1.84.51-2.26,1.63-1.96,2.07-4.57,2.48-6.98l2.84-16.57c.11-.63.6-1.62.64-2.15.15-2.16.67-6.75.77-9.21l.28-6.66c.12-2.94.26-5.88.61-8.86.74-6.29-.38-12.83.46-19.23.59-4.47.53-8.84,2.96-13.02.71-1.23.1-3.95,1.86-4.9,3.64-1.95.75-6.7,5.54-7.17l-.9,5.63c-2.13-.13-3.09,1.33-3.17,3.24-.08,1.68-.76,3.06-1.16,4.51-2.78,10.07-1.2,18.61-2.16,27.65-.66,6.14-.19,12.2-1.25,18.19-.11.62-.79,1.08-.87,2.03-.29,3.49-.38,6.92-1.14,10.42-.86,3.91-.88,7.75-1.91,11.26.39-1.33-4.1,12.03-3.43,10.4-.58,1.4.04,3.35-.8,4.55-1.06,1.51-3.05,7.1-3,9.11.04,1.75-.96,2.79-2.54,2.88-2.74,14.09-1.02,3.81-5.04,12.48-3.35.99-2.74,6.27-5.16,7.33-1.68.74-1.78,3.42-3.01,4.3-1.84,1.33-3.16,2.03-3.26,4.79-.02.59-1.66.51-2.21.34Z"/>
            <path class="cls-96" d="M75.98,25.34c-.02-2.16,1.51-2.01,2.47-3.32,1.07-1.46,2.16-3.81,4.82-3.75.2-1.19.47-2.55,2.18-2.87,3.21-.61,1.2-3.12,5.87-3.36,1.51-3.74,3.73-1.85,5.87-3.28.4-.27.52-1.31.75-1.84.82-1.88,3.08-.89,4.11-1.27,1.21-.45,2.44-.78,3.58-.64,1,.13,1.93-.27,2.92.29-1.7.33-3.08-.11-3.87,1.66-.5,1.11-2.71.28-3.46,1-1.26,1.21-2.44,1.84-3.84,2.59-.94.5-1.57,1.58-3.07,1.52-2.45-.11-3.79,1.56-4.57,3.47-1.2.14-2.7.97-3.89,1.55-1.14.54-2.2.42-2.02,2.15.05.45-.13.94-.36,1.09-.27.18-.92.51-1.26.46-3.69-.55-2.52,3.99-6.22,4.55Z"/>
            <path class="cls-109" d="M22.67,180.02c-.14.89-.11,2.49-1.05,3.03-.52.3-1.2.45-1.61.63-.38.17-1.22,3.49-2.47,4.29-3.91,2.49-1.88,3.78-3.48,6.81-1.31.34-2.39.96-2.9,2.71-.7-.68-.09-1.41-.28-2.06-.17-.6,1.06-.74.92-1.24l-.34-1.25c-.1-.35.7-.59.72-1.21.04-1.69,2.27-2.29,2.86-3.76.85-2.14,2.18-4.2,4.68-4.76,0-.82.03-1.75.74-2.37.59-.52,1.16-1.33,2.2-.81Z"/>
            <path class="cls-96" d="M71.71,31.97c.36-2.28,1.07-6.15,4.27-6.64.02,1.91-1.03,4.07-1.51,6.07-.21.88-2.24.59-2.76.56Z"/>
            <path class="cls-146" d="M14.13,254.37c.33-.31-.05-.56-.37-.38.14-.46-.37-.56-.68-.42-.71-1.15.05-2.19,1.01-2.98.44-.36,1.19.37,1.53-.31.85,1.34,1.9,3.57.82,5.02-.61.82-1.76-.77-2.31-.92Z"/>
            <path class="cls-36" d="M29.8,172.32c.04.72.26,2.42-.5,2.81-.99.51-2.11.17-2.84.17-.39-.92-.2-2,.58-2.43.96-.53,1.85-1.03,2.76-.55Z"/>
            <path class="cls-36" d="M23.61,179.09c-.61-1.64.73-2.92,2.24-3.37-.3,1.19.34,2.98-1.06,3.46-.47.16-.77.02-1.19-.09Z"/>
            <path class="cls-36" d="M25.85,175.72c-.15-.52.26-.43.61-.43.2.42-.3.57-.61.43Z"/>
            <path class="cls-36" d="M29.8,172.32c-.02-.34.43-.9.82-.78.05.34-.44.98-.82.78Z"/>
            <path class="cls-113" d="M211.28,153.08c-.41,3.11.5,6.27.98,9.5-2.4-.16-5.45.8-8.02.44-1.63-5.31-.72-4.31-4.26-8.18-1.27-1.38-2.03-3.41-4.46-3.89-.37-.92-.16-2.25-.96-2.82.15.11-6.71-2.36-5.95-2.12-.78-.24-1.51-.5-2.33-.59-.2-.56.46-.44.95-.35,2.6-2.49,4.68-5.3,6.02-8.6l1.92-4.73c2.85-7.03,5.66-21.15,5.29-29.07-.06-1.3.29-2.77,2.05-2.96l1.31,12.36c.78,7.36,2.97,22.8,4.75,29.03l1.49,5.2c.58,2.03,1.5,4.74,1.23,6.79Z"/>
            <path class="cls-111" d="M188.57,112.92l-.44,6.68c-.08,1.22-2,.23-3.1,3.91-.87,2.91-2.4,4.81-4.97,6.96,3.69,1.76,7.06-4.47,8.2-3.39,1.17,3.31-1.2,11.64-2.44,13.72-1.43-1.08-9.53-1.28-11.98-1.1-.95.92-1.56,2.05-1.73,3.1-3.03,2.51-5.19,7.69-7.84,9.28-.79.07-1.56-.46-1.57-1.28-.24-2.35.67-5.01-.18-7.49-.57-1.4-3.27-.6-4.43-1.23-1.35-.73-2.5-1.17-3.33-.01-.78-.65-1.69-.07-2.82-.39.38-1.4-1.07-2.09-1.18-3.02l-.32-2.56c.93-.95,2.92-.38,4.25-1.06,3.06-1.57,9.91-2.19,14.05-4.24.83-.41,7.29-4.13,7.78-2.95.35-1.49-.03-2.5.72-3.54l3.61-.33.56-3.15c1.11-.28,2.11.04,3.23-.64-.29-1.5.38-2.79.32-3.87.98-.1,2.04.15,2.93-.22.62-1.1-.95-3.71.68-3.2Z"/>
            <path class="cls-97" d="M127.71,57.45c-1.35-1.48-3.73,2.39-4.67,3.24l-4.62,4.16c-2.02,1.82-6.37,5-9.37,5.89-1.2.35-2.03.96-2.66,2.01-.6.99-2.63.15-3.53.79-2.66,1.88-5.54,3.49-8.96,2.9-1.66-.29-1.99.88-2.91,1.28-2.33,1.02-4.75,1.41-6.99,1.32.03-1.26-.74-2.58-.43-4.27.57-3.16-.12-6.47.79-9.48.4-1.33-.38-2.73.75-4.02l.83,12.38c2.11.46,4.04-.24,6.03-.36,2.25-.14,4.42.25,6.62,0,1.28-.15,1.61-1.6,2.27-2.35,1.71-1.94,4.49-1.82,6.68-2.87l6.42-3.09c1.65-.79,2.75-2.17,5.03-2.59,1.08-.2,1.9-2.29,2.84-2.97,2.97-2.16,4.8-4.92,6.97-7.76,2.35-3.08,3.09-7,5.83-10.17.69,2.85-1.09,4.94-1.98,7.06-1.37,3.29-3.07,6.15-4.95,8.92Z"/>
            <path class="cls-97" d="M159.9,35.74c-.44-.04-1.04-.79-1.32-.03l-1.32,10.14c-.33,2.57-2.22,4.63-3.26,7-1.55,3.5-2.46,6.94-5.62,10-.96.93-1.83,2.31-3.06,2.46-.08-.63-1.04-.9-.98-1.45,2.32-6.88,2.53-.52,4.42-7.35.65-.24,2.1.07,2.63-.53,1.43-2.96.96-7.15,2.97-7.67,1.64-6.92,1.29-14,1.44-21.13.02-.8-.35-1.73.54-1.86,3.07-.44,1.6,9.38,3.33,9.88.24.07.21.32.24.55Z"/>
            <path class="cls-67" d="M105.2,237.03c-.63-.03-1.85-.05-2.48.31-.89.51-.34,1.8-.35,2.48l-3.61.62c-.25,2.77-.39,10.3-.15,12.36.03.28.58.18.94.27-1.57.36-3.28.52-5.21.48l-.53,4.6c-.86.54-1.81.51-2.74.85l-.82,4.61c-2.22.19-3.82,1.71-4.04,3.97-.19,2-1.47,2.39-2.61,3.44-1.03.95-.23,3.14-1.12,4.12-.64.7-2,.84-1.82,1.91-.23-.23-.43,0-.71.05-.48.08.09.58-.13.91-.56.85-1.62.43-2.27.43-1.32-2.57-1.26-5.72-3-7.99,1.01-1.91.06-4.33.98-6.56l2.18-5.25c.91-2.19,1.93-4.45,3.43-6.47,2.5-3.38,3.81-7.45,6.56-10.61,1.2-1.37,2.14-1.54,2.44-4.18.24-2.17,1.96-4.69,1.08-7.08-.67-.42-1.95.18-2.16-.71,1.1-5.93,3.19-11.59,5.31-17.5.48-1.33.47-1.87,1.46-2.51,1.86-1.23,2.56-3.26,2.99-5.59.15-.79,1.11-1.84,1.06-2.65-.03-.55.41-1.6.66-2.09.56,1.18,1.08,2.68,1.4,4.24.4,1.89,2.29,2.93,2.73,4.31l3.38,10.47c1.07,3.3,1.18,7.85.15,10.99.16-.48-3.52,4.57-3.01,7.78Z"/>
          </g>
          <g>
            <g>
              <path class="cls-16" d="M180.56,304.06c-.09.9.38,2.01.82,3.03,2.29.27,4.77-.28,6.54,1.31.48,1.09,1.21,2.95,1.19,4.15l-.51,26.31c-1.55.02-14.47-1.76-13.63.95-1.3,1.47-3.81.77-4.83,2.31-.39.58-.07,1.38-.55,1.61s-1.01.26-1.66.26l-7.09.06c-3.06-7-5.12-14.51-7.51-22.08-.85-2.7-1.74-5.3-1.51-7.89,2.54.17,5.09-.52,8.14-.68-.62-.9-1.27-1.43-1-2.34,1.07.03,2.29,0,3.55-.3l.29-7.2c1.05-.21,2.2-.23,3.29-.09,5.36.66,10.58-1.68,11.59-.87s1.81,1.63,2.9,1.45Z"/>
              <path class="cls-48" d="M174.55,343.09c-.6,1.08-2.18.58-3.41,1.01-.9.31-1.39,2.86-.89,3.68-.96-.12-2.37.32-2.37,1.49,0,.8-.19,1.39-1.15,1.62-.42.1-1.01.32-1.59.34-1.05.03-2.06.3-2.82-.55-.88-1.97-1.23-4.76-1.51-6.62l7.09-.06c.66,0,1.19-.04,1.66-.26s.16-1.03.55-1.61c1.02-1.54,3.53-.83,4.83-2.31.25,1.14-.44,2.16-.41,3.28Z"/>
              <path class="cls-136" d="M114.97,344.06c-.75,2.18-.52,4.98-1.74,7.07-.92-.17-1.93.08-2.84-.01-1.75-.19-2.16-2.32-3.62-3.16-.21-.12-.26-.62-.63-.57-.35-1.03-.51-2.4-.1-3.35h8.93Z"/>
              <path class="cls-85" d="M167.29,278.38c-1.13.23-1.02,1.63-.98,2.63.25,7.56.48,15.07-.24,22.46-1.09-.13-2.24-.12-3.29.09l-.03-30.26c2.26-.73,3.2,3.33,4.54,5.08Z"/>
              <path class="cls-78" d="M170.72,278.96l.59,10.47c.54,1.03,2.05.65,2.73,1.65-.24,1.8.77,2.74,1.79,3.48l1.25,3.56c.36,1.03,2.35.62,3.38,1.21.48,1.64.26,3.23.11,4.72-1.09.17-1.89-.64-2.9-1.45s-6.23,1.53-11.59.87c.72-7.38.49-14.9.24-22.46-.03-.99-.15-2.4.98-2.63.79.91,2.41.4,3.43.58Z"/>
              <path class="cls-68" d="M97.65,293.65c1.12.19,2.23-.25,3.35,0,.21,1.71-2.42,2.16-3.08,3.45-.99,1.93-1.9,3.58-4.35,4.44-1.15-.44-2.48-1.14-3.61-1.82.14-.51-.11-1.04.36-1.43,1.04-.89,3.58.22,4.08-.91.28-.63.57-1.82.07-2.34-.23-.24.57-.96.01-1.29,1.06-.04,2.12-.27,3.18-.09Z"/>
              <path class="cls-29" d="M104.74,341.15c-.91-.18-1.81-.28-2.45-1.22-1.66-2.44-6.35-.96-11.34-1.51-.16-3.38-.35-6.73-.22-10.46.04-1.21,1.66-2.59,2.53-3.16,1.32-.86,1.73,1.18,2.43,1.21l9.87.5c1.92,1.56,3.44,3.24,5.02,4.85l-.89,9.18c-1.83.52-3.54-.28-4.96.62Z"/>
              <g>
                <path class="cls-84" d="M117.97,275.23l-.07,35.82c0,.67-.97,2.22.24,2.61,1.84.59,4.02.23,5.9.69.08,0,.33.05.39.15-.13,2.88-1.13,5.5-2.12,8.38l-7.33,21.19h-8.93s-1.3-2.91-1.3-2.91c1.42-.9,3.13-.09,4.96-.62l.89-9.18c-1.58-1.6-3.1-3.29-5.02-4.85l-9.87-.5c-.7-.03-1.11-2.07-2.43-1.21-.88.57-2.49,1.96-2.53,3.16-.14,3.74.05,7.09.22,10.46-1.07-.12-2.52,1.03-3.69.55-.49-6.97-.27-14.01-.29-21.31-.01-5.83-.17-11.44.62-16.9.35.1,1.2.03,1.72-.05.38-.05.49-.5.63-1.02,1.14.68,2.46,1.38,3.61,1.82,2.44-.86,3.36-2.51,4.35-4.44.66-1.29,3.29-1.74,3.08-3.45-.03-.23.24-.39.43-.43.96-.18,2.36-.03,3.05-1.16,3.84-6.28,3.29-1.79,4.11-5.02,1.9-.3,3.77.06,5.65.09.04-10.54,4.62-1.87,2.17-12.4.1-.23.24-.28.42-.09.09.59.62.7,1.15.59Z"/>
                <path class="cls-75" d="M99.66,302.37c1.4-1.16,1.74-1.7,2.45-2.92.45-.77,1.39-1.08,1.8-2.1.77-1.9,6.74-6.68,9.79-5.09l-.25,10.67c-4.61.18-8.82.16-13.8-.55Z"/>
              </g>
              <g>
                <path class="cls-132" d="M80.66,277.06c-.88,2.59-1.92,5.1-3.7,7.2-.86.22-1.63-.83-2.43-.09-.34-.1-.49.11-.37.48.98,2.92-1.73,4.37-3.48,7.27-11.28,2.31-8.51-3.09-11.24-3.37-3.16-.33-1.23-2.55-2.75-4.94.19-.13.34.03.5.1,1.63.75,3.01.08,3.47.88.12.22.36.79.22,1.02-.27.46-.31.74-.38,1.07-.13.71.81,1.2,1.39,1.05,1.29-.32,1.75.74,2.56,1.3.14.1,7.31,1.08,7.15-.96-.79-.62-1.44-.82-1.78-1.52-.55-2.72,3.17-1.1,2.72-5.69.46,1.5,2.29,1.4,3.67.94,1.21-.4,2.02-2.06,1.35-3.38.65,0,1.72.42,2.27-.43.22-.34-.35-.84.13-.91.27-.05.47-.28.71-.05Z"/>
                <path class="cls-125" d="M74.56,270.46c1.74,2.28,1.68,5.43,3,7.99.68,1.31-.14,2.98-1.35,3.38-1.38.46-3.21.56-3.67-.94-.19-1.95.38-3.35-1.48-3.81.13.03-3.83,2.03-2.63,2.93,3.16.55-.73,2.84-.15,5.22-2.83,1.13-3.45-.01-7.4.39.13-.23-.1-.8-.22-1.02-.45-.81-1.83-.13-3.47-.88.43-1.85.29-3.76.32-5.65l7.29-5.03c3.02-2.08,6.35-2.94,9.77-2.58Z"/>
                <path class="cls-81" d="M68.28,285.23c.2.63,1.28.84,1.53,1.35.35.69.99.89,1.78,1.52.17,2.04-7,1.05-7.15.96-.81-.56-1.27-1.62-2.56-1.3-.58.14-1.53-.35-1.39-1.05.06-.34.11-.61.38-1.07,3.95-.41,4.58.74,7.4-.39Z"/>
                <path class="cls-116" d="M72.54,280.89c.44,4.59-3.27,2.97-2.72,5.69-.25-.5-1.33-.72-1.53-1.35-.59-2.39,3.31-4.67.15-5.22-1.2-.9,2.76-2.9,2.63-2.93,1.86.46,1.29,1.86,1.48,3.81Z"/>
              </g>
              <g>
                <path class="cls-20" d="M159.9,35.74c.27,2.15.02,4.34.19,6.8l4.01-.37c3.12-.29,5.37,2.27,5.18,5.46,1.04.97,2.64,1.37,3.53,2.47.83,1.01.16,3.23,1.04,3.94,2.08,1.68,2.82,12.09,6.67,12.81.38-1.85-.15-3.45.68-5.1.4,1.45.36,2.75,1.97,3.72,1.8,1.08,1.74,6.65,2.6,7.73.4.5,1.1.43,1.83.81,1.39.72,1.11,14.38.64,15.42-.93-.04-1.7.65-2.98.14.28-1.6,3.5-1.46,2.71-3.23-.28-.63-.89-.38-1.71-.28-.69.09-.49-1.14-.91-1.28-1.94-.68-4.2.18-6.09-.67-.87-.39.38-1.54.92-1.73,3.39-1.18-.57-8.44-1.94-9.56-3.12-2.55-18.07,2.52-23.44,2.52-.65-1.14-1.17-3.51-.18-4.44,6.74-1.17,13.42-1.87,20.84-1.98l-7.04-11.63c-1.17-1.94-2.5-4.06-4.27-5.4-.97-.74-1.08-1.57-1.73-2.36-.72-.87-3.04-.83-3.82-.29.08,1.04-4.2,11.79-3.94,11.34-2.14.28-3.42,2.16-4.64,3.87l-3.16,4.4c-.72,1-4.65,4.07-5.74,5.09-2.61,2.46-5.98,3.42-9.13,5-3.38,1.69-7.53,2.35-11,3.1-.33.07-.45.83-.68,1-.99.74-1.31-1.38-2.18-.3-.42.52-.53,1.02-.19,1.51-.88-.94-2.28-1.3-3.09-2.97-4.74-.26-9.56-.37-14.38-.3-.14-.56.88-.68,1.39-.59,3.48.63,6.27-.42,9.52-1.1,3.76-.79,11.39.34,15.73-2.4,1.3-.82,3.43-.64,4.53-2.04.76-.97,1.84-1.79,3.18-1.47,1.78.43,1.66-1.33,2.27-1.74,2.75-1.86,6.19-3.71,8.23-6.33,1.23-.15,2.1-1.53,3.06-2.46,3.16-3.06,4.07-6.5,5.62-10,1.04-2.36,2.93-4.43,3.26-7l1.32-10.14c.28-.75.88,0,1.32.03Z"/>
                <path class="cls-53" d="M180.17,82.39c-.54.19-1.79,1.34-.92,1.73,1.9.85,4.16-.01,6.09.67.42.15.22,1.37.91,1.28.83-.11,1.43-.36,1.71.28.79,1.77-2.42,1.63-2.71,3.23,1.28.51,2.04-.17,2.98-.14.41.23.05.67.08.96-.7.6-2.21,1.03-2.87,2.05-.43,2.49-.3,5.23-.96,7.33-.58-.1-1.19.02-2.07.21-.41-.12-.49-.33-.41-.51l-.21-6.3c-.05-1.61-.15-3.47-1.34-4.85-.81-.95-2.68-.34-3.54-.83-.97-.62-1.35-1.87-2.88-2.03-2.19-.23-15.03-.76-15.64,2.01-1.56-.56-2.65,2-3.23,3.37-1.14-.46.27-1.88.27-2.81.01-4.75,3.98-4.28,5.36-7.07l20-.41c.15,1.16-.59,1.35-.63,1.84Z"/>
                <path class="cls-37" d="M188.57,112.92c-1.64-.51-.07,2.1-.68,3.2-.89.37-1.95.12-2.93.22-.32-5.55.87-11.26-.46-16.56.66-2.1.53-4.84.96-7.33.66-1.02,2.16-1.45,2.87-2.05.87,7.37.74,15.03.25,22.53Z"/>
                <path class="cls-100" d="M99.01,80.99c-.51,1.4-1.79,1.44-2.77,2.18.16-1.14-2.12-.52-1.91-2.12.15-1.15,1.13-.08,4.33-2.02-.09.71,0,1.34.36,1.96Z"/>
                <path class="cls-61" d="M128.28,136.57c-.16,3,0,6.05-.96,8.91-.61.09-5.15-.38-3.82-1.81l1.27-4.28c.32-1.09,1.55-1.91.79-3.26.69.24,2.04.32,2.73.44Z"/>
                <path class="cls-11" d="M154.65,60.58l-3.59,6.32c-3.94,6.94-10.15,11.52-17.26,15.29l-4.23,2.24c-3.12,1.65-6.77,1.72-10.11,2.17-.14-.72-.99-1.77-1.54-2.36-.34-.49-.24-.98.19-1.51.88-1.08,1.19,1.04,2.18.3.23-.17.35-.92.68-1,3.48-.75,7.63-1.41,11-3.1,3.15-1.58,6.52-2.54,9.13-5,1.09-1.03,5.02-4.09,5.74-5.09l3.16-4.4c1.22-1.7,2.5-3.59,4.64-3.87Z"/>
                <path class="cls-5" d="M150.45,136.11l.32,2.56c.11.93,1.56,1.62,1.18,3.02,1.13.31,2.04-.26,2.82.39-.07.6.23,1.88-.35,2.35-1.34.69-3.02.98-4.37.78,0-1.47-.66-1.16-.55-.09-1.16-.76-1.1-7.15-.85-8.92.56-.01,1.28-.2,1.81-.1Z"/>
                <path class="cls-163" d="M181.81,93.17l.21,6.3c.06,1.74-1.08,3.57-1.74,5.64-5.56,2.18-1.94,1.6-6.15,1.85.22-1.12.91-2.15,1.77-3s1.33-1.73,1.36-3.26l.15-8.07c1.5-.49,2.9.61,4.41.54Z"/>
                <path class="cls-103" d="M158.4,87.46c-1.03,2.02-.73,11.33-.58,13.65.28,4.18.41,1.65,3.49,5.73.25.05-5.89-.23-6.05-4.27l-.33-8.44c-.05-1.26-.34-2.31.24-3.3.58-1.38,1.67-3.93,3.23-3.37Z"/>
                <path class="cls-65" d="M181.81,93.17c-1.5.07-2.91-1.03-4.41-.54l-.48-5.15c.87.49,2.73-.12,3.54.83,1.19,1.38,1.28,3.24,1.34,4.85Z"/>
                <path class="cls-58" d="M148.64,136.21c-.25,1.77-.31,8.16.85,8.92-1,2-3.36,1.83-5.75,1.93-.67.42-.49,2.06-.56,2.75-.09.85-.59,1.59-.67,2.42l-.03.36c-.71-.52-1.44.34-2.41.27-1.6-.11-3.42-1.66-3.73-3-.18-.75.36-2.75-.87-2.85-2.66-.2-5.13.2-7.27-.99-.26-.15-.77-.13-.87-.53.97-2.86.81-5.91.96-8.91,1.82.13,5.23.22,7.1.91,3.74,1.4,7.88-1.14,13.26-1.28Z"/>
                <path class="cls-118" d="M174.13,102.53c-.14.64.32.96-.07,1.26-.59.45-1.29.66-1.99.86-.13.67.35,1.72.07,2.43-3.66.22-7.31.48-10.81-.23,1.07-.15.88-1.08.68-1.87-.18-.7-.86-1-1.34-1.65-.38-.54-.38-1.99-.29-2.64l.21-1.47c.17-1.18,1.61-1.47,2.37-1.23.68.21.35,1.71.86,2.01,1.8,1.08,4.21.64,6.21.47l.79-2.95,3.77.34c.1,1.83-.13,3.23-.45,4.66Z"/>
                <path class="cls-130" d="M175.9,103.96c-.85.85-1.54,1.88-1.77,3l-2.01.12c.28-.71-.2-1.76-.07-2.43.71-.2,1.41-.42,1.99-.86.4-.3-.07-.62.07-1.26,1.02-.65.87,1.34,1.77,1.43Z"/>
                <g>
                  <path class="cls-33" d="M180.17,82.39c.04-.48.78-.68.63-1.84l-20,.41c-1.38,2.79-5.34,2.31-5.36,7.07,0,.93-1.41,2.34-.27,2.81-.58.99-.29,2.03-.24,3.3l.33,8.44c.16,4.04,6.3,4.32,6.05,4.27,3.5.71,7.15.45,10.81.23l2.01-.12c4.21-.25.59.33,6.15-1.85.66-2.07,1.79-3.9,1.74-5.64-.08.19,0,.39.41.51.88-.19,1.49-.31,2.07-.21,1.32,5.31.14,11.01.46,16.56.06,1.08-.61,2.38-.32,3.87-1.12.68-2.12.36-3.23.64l-.56,3.15-3.61.33c-.75,1.03-.37,2.04-.72,3.54-.49-1.18-6.95,2.54-7.78,2.95-4.14,2.05-10.99,2.67-14.05,4.24-1.33.68-3.31.11-4.25,1.06-.53-.1-1.25.08-1.81.1-5.39.14-9.53,2.68-13.26,1.28-1.86-.7-5.28-.79-7.1-.91-.69-.12-2.04-.19-2.73-.44-3.11-1.1-6.48-1.58-9.99-2.5l-7.58-1.98c-1.65-.43-3.16-2.14-5.07-1.98-.5-3.17-3.64-1.03-4.54-2.53-.26-.43.09-1.76-.45-2.15-.88-.62-2.84.1-3.32-1.23-.24-.65-.05-1.61-.5-2.24-.73-1.05-2.56-.54-3.09-1.11-.31-.33-.62-1.1-.49-1.7.33-1.45-1.29-1.86-1.46-2.54-1.31-5.21-.73-10.55-1.07-15.72-.18-2.7-1.36-5.58-.16-6.87.49-.53,1.33-.46,2.07-.45.39,1.78,0,3.7.58,5.77.31,1.09,1.78.64,2.44.86,1.1-.26,1.14,1.43,1.11,2.27-.09,2.83,1.49,3.26,3.7,4.02.98.34,1.98,1.59,3.21.74l1.43.17c3.86.45,8.06,1.12,11.77.26l1.02-.24c.62-.14,1.16-.14,1.59-.19.74-.09.57-1.51,1.01-1.69,1.38-.56,2.2-1.43,2.29-3.08l.62-11.35c.18-3.28-.65-1.18-1.21-4.09,3.34-.46,6.99-.52,10.11-2.17l4.23-2.24c7.11-3.76,13.32-8.35,17.26-15.29l3.59-6.32c-.26.45,4.02-10.29,3.94-11.34.78-.54,3.1-.58,3.82.29.65.79.76,1.62,1.73,2.36,1.77,1.34,3.1,3.46,4.27,5.4l7.04,11.63c-7.42.11-14.09.81-20.84,1.98-.98.94-.47,3.31.18,4.44,5.37,0,20.32-5.07,23.44-2.52,1.37,1.12,5.33,8.39,1.94,9.56Z"/>
                  <g>
                    <path class="cls-55" d="M142.01,122.08l-8.44-.05c-.62.47-1.52,1.37-2.41.77-.54-.37-.48-2.48.35-2.57,4.52-.5,8.78-.6,13,.19.76.14.73,2.39,0,2.6-.9.27-1.69-.37-2.51-.93Z"/>
                    <path class="cls-71" d="M138.65,109.17c-.75-.09-1.31.12-1.9.57-1.55-.52-.25-4.44.29-4.66.48-.19,1.24-.09,1.61.43.78,1.1.81,2.79,0,3.66Z"/>
                    <path class="cls-38" d="M138.65,109.17c.28.66.41,1.31.06,1.73-.42.49-.87.69-1.43.34s-.48-.94-.52-1.5c.59-.45,1.15-.66,1.9-.57Z"/>
                    <path class="cls-134" d="M174.08,113.3c.19-.85,1.1-.44,1.49-.37.31.05.6.58.25,1.12-.46.7-1.94.15-1.74-.74Z"/>
                    <path class="cls-72" d="M95.4,113.15c.18-.23.76-.16,1-.12.28.04.45.48.13.9-.21.28-.47.7-.92.27-.23-.23-.6-.56-.21-1.05Z"/>
                  </g>
                </g>
                <g>
                  <path class="cls-167" d="M176.92,87.49l.48,5.15-.15,8.07c-.03,1.53-.54,2.45-1.36,3.26-.9-.09-.75-2.08-1.77-1.43.32-1.43.55-2.83.45-4.66l-3.77-.34-.79,2.95c-2,.16-4.41.6-6.21-.47-.51-.3-.19-1.8-.86-2.01-.76-.24-2.2.05-2.37,1.23l-.21,1.47c-.85.36-1.77-.22-2.54.43-.15-2.32-.45-11.63.58-13.65.61-2.76,13.45-2.23,15.64-2.01,1.53.16,1.91,1.41,2.88,2.03Z"/>
                  <path class="cls-154" d="M165.87,93.89c-1.46.45-3.63.65-4.7-.55-1.13-1.26-.57-3.35-.35-4.79,1.97-.63,3.68-.61,5.55.03.66,1.79.69,3.43-.5,5.31Z"/>
                </g>
                <path class="cls-45" d="M160.37,100.69c-.09.65-.1,2.1.29,2.64.49.66,1.17.95,1.34,1.65.2.79.39,1.71-.68,1.87-3.08-4.09-3.21-1.55-3.49-5.73.78-.65,1.69-.07,2.54-.43Z"/>
                <g>
                  <path class="cls-2" d="M97.86,92.37c.05,2.53-.04,5.12.15,7.9.39,5.54,3.13,3.7,2.92,6.55-1.23.85-2.23-.4-3.21-.74-2.21-.76-3.79-1.19-3.7-4.02.03-.84,0-2.53-1.11-2.27.9-2.19,0-4.67.65-6.96,1.15.39,2.37.22,3.56-.62.4.22.6.22.74.17Z"/>
                  <path class="cls-98" d="M120.68,90.69l-.62,11.35c-.09,1.65-.92,2.52-2.29,3.08-.44.18-.27,1.6-1.01,1.69-.43.05-.98.05-1.59.19l-1.02.24,2.4-3.13c2.49,1.46,1.06-15.46.87-16.55.61.51,1.94.15,2.07,1.81.04.51.75,1.17,1.2,1.33Z"/>
                  <path class="cls-4" d="M97.86,92.37c-.14.06-.34.05-.74-.17-1.19.84-2.41,1.01-3.56.62.38-1.35.05-3.23,1.21-4.32.91-.86,2.41-.86,3.36-1.4.79,1.27-.31,2.73-.26,5.26Z"/>
                  <g>
                    <path class="cls-53" d="M100.45,80.97c4.81-.07,9.64.05,14.38.3.81,1.67,2.21,2.03,3.09,2.97.55.59,1.4,1.64,1.54,2.36.57,2.91,1.39.81,1.21,4.09-.45-.16-1.16-.82-1.2-1.33-.14-1.66-1.46-1.3-2.07-1.81-1.34-1.12-2.61-1.96-4.7-2.09-1.68-.11-15.29-.75-14.58,1.65-.95.54-2.44.54-3.36,1.4-1.16,1.09-.83,2.97-1.21,4.32-.64,2.3.25,4.77-.65,6.96-.66-.22-2.13.24-2.44-.86-.58-2.07-.19-4-.58-5.77-.21-.98-.34-1.53-1.61-1.97-1.04-.37-2.3-2-1.37-2.96.51-.53,1.27-.76,1.21-1.4-.04-.41-.3-.88-.74-1.46,1.8-1.73,5.25.52,8.85-2.2.98-.74,2.26-.78,2.77-2.18l1.44-.02Z"/>
                    <path class="cls-63" d="M89.88,89.51c-.49.4-1.81.03-2.14-.23-.19-.15-.48-.49-.08-.74s1.5-.37,2.19,0c.33.18.37.7.03.98Z"/>
                  </g>
                  <path class="cls-162" d="M116.53,104.11l-2.4,3.13c-3.71.86-7.91.19-11.77-.26.74-.17.85-.77.96-1.29.52-2.26-2.92.53-2.54-7.86l3.71-.22.48,2.65c2.14.67,4.43.33,6.7-.1.19-.82-.13-1.9.43-2.52.69-.32,2.73-.37,3.21.43,1.28,2.8-1.5,5.82,1.21,6.04Z"/>
                  <g>
                    <path class="cls-49" d="M117.4,87.55c.19,1.1,1.62,18.01-.87,16.55-2.71-.22.07-3.24-1.21-6.04-.48-.8-2.52-.75-3.21-.43-.56.62-.24,1.71-.43,2.52-2.28.42-4.56.77-6.7.1l-.48-2.65-3.71.22c-.38,8.39,3.06,5.61,2.54,7.86-.12.51-.23,1.12-.96,1.29l-1.43-.17c.22-2.85-2.53-1.02-2.92-6.55-.2-2.77-.1-5.36-.15-7.9s1.06-4,.26-5.26c-.7-2.4,12.91-1.75,14.58-1.65,2.09.13,3.36.97,4.7,2.09Z"/>
                    <path class="cls-120" d="M102.46,90.11c.61-.27,1.14-.26,1.44.27.26.46.34,1.25-.16,1.6s-1.36.22-1.67-.22c-.36-.52-.3-1.35.38-1.65Z"/>
                  </g>
                </g>
              </g>
            </g>
            <g>
              <g>
                <g>
                  <path class="cls-91" d="M211.16,435.91c-.73,1.83,1.53,2.17,2.34,3.2,1.73,2.59.75,6.48.69,9.34-1.13.35-1.78.01-2.11.64.29-.54-.63-.86-1.25-.85l-22.16.3-.69-3.33c-1.35-.18-2.44-.47-3.53-.38.54-.74.45-.92.38-1.07-.09-.2-.44-.08-.93-.32.87-.7.3-1.5.06-2.3.19-.07.64.21.87-.03.18-1.82-.43-4.52.32-6.29,1.03-.12,2.42-1.37,3.47-1.6.79-.17,1.57,1.81,2.42.91.93.24.68,1.35,1.1,2.22s2.11.55,2.41,1.62c.17.61,0,1.56.77,1.43.99-.17,1.13.91,1.54,1.59.71.51,1.84.48,2.9.44-.05,1.57,1.4,1.31,1.96,1.83,2.57,2.33,5.23,1.27,9.56,1.38.4-1.49.42-2.89-.04-4.26l-2.96-.38c-.39-1.36-.93-2.54-1.26-4.08-.48-2.24-3.73-2.81-5.34-3.99-.68-.5-1.1-2.18-1.85-2.64-.91-.56-2.14-.25-3.11-.32-.16-.01-.34.02-.5,0,.11-.87.87-2.32-.17-3s-2.33.22-3.55.12c-.3-1.15-.76-2.19-.9-3.14,1.66.12,3.4-.04,5.27-.44l-.41-50.79c-1.97-.48-3.73-.03-5.37-.7.78-1.19.91-2.97,1.84-4.2.99-.44,2.18-.21,2.77-1.02.42,1.77,4.38.27,4.39,1.91l.21,40.98c.03,6.63-.17,12.8.46,19.25,2.59-.96,6.52,4.63,7.62,6.24.65.96,2.59.47,2.78,1.77Z"/>
                  <path class="cls-137" d="M165.15,351.22c.74,3.17-.17,7.09,1.47,10.21,2.66,5.03,13.29,10.92,17.76,9.97-.11.38.41.47.56.63.08,1.1.53,2.54.38,3.68-.12.88-.48,1.3-.33,2.33-.67-1.09-1.25-.72-2.47-.94l-11.39-2.04c0-.89.13-1.42-.2-1.73-.69-.63-3.78-.62-4.94.06.44,1.45.3,8.14,2.86,6.12l1.6,5.94,7.52,22.72c2.05,6.2,3.01,12.17,3.16,18.37-1.76.22-.31-.21-1.18-3.2-1.21.29-1.88.51-2.61.41.48-9.94-9.45-31.03-11.75-41.8-.98-.21-1.71-.07-2.6-.47-1.48-4.74-2.12-9.77-1.78-14.77.11-1.63,2.28-1.08,2.91-1.51,2.25-1.57-.23-3.63-.92-4.82-1.66-2.86-.9-6.79-.87-9.73.76.86,1.77.58,2.82.55Z"/>
                  <path class="cls-86" d="M181.13,426.55c1.98-.25,4.21.61,6.01-.41.33,0,.64-.21.88-.1.32.16.51.55.24,1.02-2.35,4.02-5.99,1.73-7.14,2.53-.76.53-.81,9.24-.66,11.15l3.49.39c.24.81.8,1.6-.06,2.3.49.24.85.11.93.32.06.15.16.33-.38,1.07,1.09-.08,2.18.2,3.53.38l.69,3.33,22.16-.3c.62,0,1.54.31,1.25.85-.13,1.03.15,2.09-.27,3.05-7.92,0-15.94.51-23.94-.21-1.78-.16-2.86-1.71-3.33-2.73l-7.33-.81c-.1-8.46-.26-16.56.14-24.63.74.1,1.41-.13,2.61-.41.87,2.99-.58,3.42,1.18,3.2Z"/>
                  <path class="cls-79" d="M170.26,347.78c.75,1.24.85,3.19.69,4.68.59,1.7,11.31,7.63,12.43,5.73.1.45.52.84.99.92.07,2.24-.13,4.64.34,6.95.15.71,2.24-.09,2.3-.88.1-1.24,1.41-1.57,1.85-2.18l1.71-2.4.72-1.4c.28-.54.97.03,1.37-.2,1.36-2.89,2.55-5.04.68-7.77l-.11-2.46c-.03-.66.11-.93.65-1.01,4.38-1.28,3.74,7.44,3.46,9.88-.73.24-1.62.57-1.59,1.15-4.51.61-2.2,3.49-4.83,7.16l-2.21,3.09c-.76,1.07-3.6,3.88-3.77,2.99-.15-.16-.68-.25-.56-.63.53-1.19,1.1-4.02-.59-4.63l-6.08-2.19c-1.44-.52-5.99-3.63-7.45-4.77-.54-.42-2.25-.54-2.11-1.85.16-1.52.49-3.15-.09-5.12-.28-.96,1.05-2.78-.16-3.57,0-1.17,1.4-1.61,2.37-1.49Z"/>
                  <path class="cls-129" d="M195.74,358.79c.12,2.31.08,4.65-.04,6.97-.59.81-1.77.58-2.77,1.02-.93,1.23-1.06,3.01-1.84,4.2-.91,1.39-1.99,2.65-2.89,4.35-.42.78-2.27.45-2.89.38.16-1.14-.3-2.58-.38-3.68.17.89,3-1.92,3.77-2.99l2.21-3.09c2.62-3.67.32-6.55,4.83-7.16Z"/>
                  <path class="cls-102" d="M188.69,341.8c.32,1.3,1.83.83,2.94,1.26,1.55.59.7,3.95,2.23,4.71-.55.08-.68.35-.65,1.01l.11,2.46c-1.54-.45-2.47.34-3.7,1.23-.22-1.39-.13-3.02,1.02-4.23-.68-.49-.89-1.63-1.19-2.19-.92-1.73-3.58-1.81-5.11-2.87-1.1-.77-2.08-1.42-3.24-1.88-1.05-2.7,7.21,1.36,7.58.51Z"/>
                  <path class="cls-159" d="M188.6,338.86c-.02.97.54,2.02.09,2.94-.37.85-8.63-3.21-7.58-.51-.43-.17-.93-.07-1.33-.06-3.7.13-2.3,2.43-5.23,1.87-.03-1.13.66-2.15.41-3.28-.83-2.72,12.09-.93,13.63-.95Z"/>
                  <path class="cls-69" d="M184.99,378.05l6.62,44.86c.14.95.61,1.99.9,3.14,1.22.1,2.53-.78,3.55-.12s.28,2.12.17,3c-1.48-.21-2.79-.76-4.51.71-.23-1.93-.86-3.31-.81-5.15-1.98.04-2.77,1.09-3.77,1.65-1.8,1.02-4.03.16-6.01.41-.15-6.2-1.11-12.16-3.16-18.37l-7.52-22.72-1.6-5.94c-2.56,2.02-2.42-4.67-2.86-6.12,1.16-.68,4.25-.7,4.94-.06.33.3.19.84.2,1.73l11.39,2.04c1.22.22,1.8-.15,2.47.94Z"/>
                  <path class="cls-23" d="M191.61,422.91l-6.62-44.86c-.15-1.04.21-1.45.33-2.33.62.07,2.47.4,2.89-.38.9-1.69,1.97-2.96,2.89-4.35,1.64.67,3.4.22,5.37.7l.41,50.79c-1.88.4-3.62.56-5.27.44Z"/>
                  <path class="cls-30" d="M195.31,439.37c-.55-4.58.7-6.11.41-9.11-.13-.77.94-.65,1.01-1.34.96.07,2.2-.24,3.11.32.75.46,1.16,2.14,1.85,2.64,1.61,1.18,4.86,1.74,5.34,3.99.33,1.54.87,2.72,1.26,4.08l2.96.38c.46,1.37.43,2.77.04,4.26-4.33-.1-6.99.95-9.56-1.38-.56-.51-2.01-.25-1.96-1.83-1.06.04-2.19.07-2.9-.44-.41-.68-.55-1.75-1.54-1.59Z"/>
                  <path class="cls-28" d="M196.23,428.93c.16.02.34-.01.5,0-.06.69-1.14.57-1.01,1.34-.87-.33-1.59.62-2.53.9-.77.23-1.71-.01-2.05.89-.19.5.07,1.46-.12,2.05-.85.9-1.63-1.09-2.42-.91-1.05.23-2.45,1.48-3.47,1.6-.74,1.78-.13,4.47-.32,6.29-.22.24-.67-.03-.87.03l-3.49-.39c-.15-1.91-.1-10.62.66-11.15,1.15-.8,4.79,1.49,7.14-2.53.27-.46.08-.86-.24-1.02-.24-.12-.54.09-.88.1,1-.57,1.78-1.61,3.77-1.65-.05,1.84.57,3.22.81,5.15,1.72-1.48,3.03-.92,4.51-.71Z"/>
                  <path class="cls-50" d="M195.72,430.27c.28,3-.97,4.52-.41,9.11-.78.13-.6-.82-.77-1.43-.3-1.07-1.99-.76-2.41-1.62s-.17-1.98-1.1-2.22c.19-.6-.07-1.55.12-2.05.34-.91,1.28-.67,2.05-.89.94-.28,1.65-1.23,2.53-.9Z"/>
                  <path class="cls-40" d="M184.38,371.39c-4.47.95-15.1-4.93-17.76-9.97-1.65-3.12-.73-7.04-1.47-10.21.58-.01,1.18-.24,1.59-.34.96-.23,1.15-.82,1.15-1.62,1.2.8-.12,2.62.16,3.57.58,1.97.25,3.6.09,5.12-.14,1.31,1.57,1.42,2.11,1.85,1.46,1.14,6.02,4.25,7.45,4.77l6.08,2.19c1.69.61,1.12,3.44.59,4.63Z"/>
                  <path class="cls-13" d="M179.78,341.23c.52.93.15,2.13.43,3.32l3.16,13.65c-1.12,1.9-11.84-4.04-12.43-5.73.16-1.49.06-3.44-.69-4.68-.5-.82,0-3.36.89-3.68,1.23-.43,2.81.07,3.41-1.01,2.93.56,1.52-1.74,5.23-1.87Z"/>
                  <path class="cls-17" d="M181.11,341.29c1.16.46,2.14,1.12,3.24,1.88,1.53,1.07,4.19,1.14,5.11,2.87.3.56.51,1.7,1.19,2.19-1.15,1.2-1.23,2.84-1.02,4.23-.3.22-.46.82-1.18.99.88,1.89-.62,2.31-1.29,3.16-.79.99-1.32,2.37-2.79,2.5-.47-.08-.88-.46-.99-.92l-3.16-13.65c-.28-1.19.09-2.4-.43-3.32.4-.01.9-.11,1.33.06Z"/>
                  <path class="cls-52" d="M193.33,351.23c1.87,2.73.68,4.88-.68,7.77-.39.23-1.09-.34-1.37.2l-.72,1.4-1.71,2.4c-.44.62-1.74.94-1.85,2.18-.06.78-2.16,1.59-2.3.88-.47-2.3-.26-4.71-.34-6.95,1.47-.14,2.01-1.52,2.79-2.5.67-.84,2.17-1.27,1.29-3.16.72-.17.87-.77,1.18-.99,1.24-.89,2.16-1.68,3.7-1.23Z"/>
                </g>
                <g>
                  <path class="cls-142" d="M113.24,351.14c2.22,10.41-5.03,10.3-2.4,14.03.54.51,3.02-.22,3.26,1.08.94,5.13-.3,10.69-1.92,15.27-.72.26-1.82.17-2.25.57-.46.43-.33,1.32-.52,2.08-2.16,8.78-9.36,24.54-10.59,33.98-1.31,10.07-.03,20-.72,30.28l-7.25.91c-.49.45-.38,1.89-.99,2.07-5.09,1.5-19.71.65-26.07.75-.48-1.18-.22-2.09-.24-3-.14-.52.38-.97,1.08-.96,6.49.12,12.72.22,18.93,0,.25,0,.31-.23.44-.31.36-.22.53,1.06,2.16.39.53-.22.78-1.14.71-1.85-.26-2.65,2.32-.78,3.52-2.16.61-.7-.35-2.27.55-3.14.78-.75,2.49.02,3.8-.55l.25-11.39c-2.05.34-3.62.34-5.29.11-1.24-.17-1.9-.66-2.81-1.9-.24-.32-1.06-.25-1.29-.63-.29-.48-.09-1.36.71-1.42,1.09-.09,1.87,1.13,2.81,1.21,1.76.14,3.48-.05,5.17-.06.63-3.3.22-6.51,1-9.75l1.67-6.95c1.43-5.94,3.62-11.65,5.61-17.43.74-2.14,1.67-3.9,1.94-5.93.15-1.14,1.4-2.11,1.39-3.56s2.13-2.1,2.63-3.21c.84-1.85.31-4.08.97-5.83.27-.72,2-4.89-.32-6.02-.49-.24-4.72.37-4.89.48-.45.3-.55.98-.26,1.97-1.88,1.19-5.66,1.61-5.68,2.48s.08,1.19-.34,1.58c-.67.62-1.11-.25-1.75-.29-1.09-.07-2.24.78-2.38,1.59-.87-.29-1.95.33-2.84.15-1.21-.24-2.45-.08-3.67-.1-.21-1.67-.21-3.51-1.97-4.2.47-1.02-2.77-5.57-5.27-4.83-.43-.11-.31-.96-.77-.86l.31-7.53c2.85.96,2.03,3.78,4.43,6.39,1.52,1.66,5.66,6.66,7.74,6.95,2.79.38,4.98-.83,7.14-2.03,3.48-1.94,6.99-3.8,9.53-7.12,1.27-1.66.94-3.88,1.35-5.55.46-1.87.55-3.81.54-5.75.91.1,1.92-.16,2.84.01Z"/>
                  <path class="cls-15" d="M81.59,347.45c-.12.28.14.34.58.49-.37,1.34.17,3.01-.43,4.24-1.21,2.48,3.02,6.34,3.54,7.44,1.03,2.16,4.79,6.22,6.31,6.45,2.77.41,9.54-3.32,9.69-3.43l3.4-2.45c.58-.42,1.34-.26,1.74-.46.71-.35.44-1.27.81-1.83.59-.88,1.85-.8,2.63-1.03-.41,1.67-.08,3.89-1.35,5.55-2.54,3.32-6.04,5.18-9.53,7.12-2.16,1.2-4.34,2.42-7.14,2.03-2.08-.28-6.22-5.29-7.74-6.95-2.4-2.61-1.58-5.43-4.43-6.39l-1.82-.61c.47-4.68-.86-9.91,3.73-10.18Z"/>
                  <path class="cls-141" d="M86.35,342.56c1.08.44-.33,1.12-.38,1.7-.19,2.12-.07,4.11-.68,6.15.61,1.46,1.72,3.19,2.86,3.98,1.47,1.03,1.55,3.31,3.39,3.87-.01.3.21.45.49.38l.07.53c.31,2.29-.24,4.61-.52,6.89-1.52-.23-5.28-4.29-6.31-6.45-.52-1.1-4.75-4.96-3.54-7.44.6-1.23.06-2.9.43-4.24-.45-.15-.71-.21-.58-.49,1.86-.11.66-3.75,2.68-4.72.54-.26,1.41-.58,2.08-.16Z"/>
                  <path class="cls-93" d="M104.74,341.15l1.3,2.9c-.41.95-.25,2.32.1,3.35-1.85.28-.12-3.13-1.63-3.49-2.12-.5-3.66.72-3.87-.74-.22-1.54-1.91-1.76-2.5-2.35l-.84-.83c-.43-.42-1.8.48-2.42.76-2.33-.94-4.98.16-7.48.69-.18-.27-.34-.37-.46-.21.05-.69.38-1.57.33-2.24,1.17.48,2.62-.67,3.69-.55,4.98.55,9.68-.93,11.34,1.51.64.94,1.53,1.04,2.45,1.22Z"/>
                  <path class="cls-56" d="M94.88,340.74c.33,1.14-.2,2.21-.47,3.28-.91-.8-5.3.52-6.75,1.96-1.29,1.28,1.09,5.63.5,8.41-1.14-.79-2.25-2.52-2.86-3.98.62-2.03.49-4.03.68-6.15.05-.58,1.46-1.25.38-1.7.39-.34.54-.82.58-1.35.12-.16.27-.06.46.21,2.5-.53,5.15-1.63,7.48-.69Z"/>
                  <path class="cls-60" d="M85.41,371.46c1.76.69,1.76,2.53,1.97,4.2.48,3.82.05,1.08-.41,5.77l-1.36,13.93-1.91,13.39c-.66,4.65-1.25,9.13-1.13,13.67-1.28.14-2.74.43-4.27.17l.42-45.93c.01-1.58-.14-3.42.66-4.67s5.53.36,6.03-.54Z"/>
                  <path class="cls-51" d="M91.05,375.76c-1,6.67-2.56,13.24-3.6,20.1l-2.19,14.51-1.73,11.5c-.06.38-.02.68-.34.92-.23.17-.58-.06-.63-.36-.12-4.53.47-9.02,1.13-13.67l1.91-13.39,1.36-13.93c.46-4.69.89-1.95.41-5.77,1.22.02,2.46-.14,3.67.1Z"/>
                  <path class="cls-28" d="M83.56,448.18c-.07-.8.56-1.73.27-2.59-4.07-1.94,2.38-.06,2.95-1.99.21-.72-.3-2.01.36-2.54l3.33-.23c.11-2.23.42-4.35-.15-6.36-2.03-.16-3.79-.42-4.91-1.84-.37-.46.33-1.15.7-1.3.64-.25,1.38-.03,2.19.59.84-.88,1.03-1.8,1.42-2.64,1.67.24,3.24.24,5.29-.11l-.25,11.39c-1.31.57-3.02-.21-3.8.55-.9.87.05,2.45-.55,3.14-1.21,1.38-3.78-.49-3.52,2.16.07.71-.18,1.63-.71,1.85-1.64.67-1.8-.61-2.16-.39-.13.08-.2.3-.44.31Z"/>
                  <path class="cls-112" d="M109.51,373.82c.71-1.12-4.13-1.65-5.27-.55-.47.45-.03,2.06-.96,2.39-2.44-.24-7.35.64-9.39-.05.14-.81,1.29-1.66,2.38-1.59.64.04,1.09.91,1.75.29.42-.39.33-.75.34-1.58s3.8-1.29,5.68-2.48c-.29-.99-.19-1.67.26-1.97.17-.11,4.4-.72,4.89-.48,2.32,1.13.6,5.3.32,6.02Z"/>
                  <path class="cls-44" d="M109.51,373.82c-.67,1.74-.13,3.97-.97,5.83-.51,1.11-2.65,1.74-2.63,3.21s-1.24,2.41-1.39,3.56c-3.76.65-.4-3.09-.65-6.45.04.51.85-3.26.36-3.88-.19-.23-.56-.4-.95-.42.93-.33.49-1.93.96-2.39,1.14-1.1,5.98-.57,5.27.55Z"/>
                  <g>
                    <path class="cls-168" d="M85.41,371.46c-.51.9-5.23-.71-6.03.54s-.64,3.09-.66,4.67l-.42,45.93c1.53.26,2.99-.03,4.27-.17.05.3.4.54.63.36.32-.24.28-.54.34-.92l1.73-11.5,2.19-14.51c1.04-6.86,2.6-13.43,3.6-20.1.89.18,1.98-.44,2.84-.15,2.05.69,6.95-.18,9.39.05.39.02.76.19.95.42.49.62-.32,4.38-.36,3.88.24,3.36-3.11,7.1.65,6.45-.27,2.03-1.2,3.79-1.94,5.93-1.99,5.78-4.18,11.49-5.61,17.43l-1.67,6.95c-.78,3.25-.37,6.45-1,9.75-1.69,0-3.42.2-5.17.06-.94-.08-1.72-1.29-2.81-1.21-.8.06-1,.94-.71,1.42.23.38,1.06.31,1.29.63.91,1.24,1.57,1.72,2.81,1.9-.39.84-.58,1.76-1.42,2.64-.81-.62-1.55-.83-2.19-.59-.37.14-1.06.84-.7,1.3,1.13,1.42,2.88,1.68,4.91,1.84.57,2.01.26,4.13.15,6.36l-3.33.23c-.66.53-.14,1.81-.36,2.54-.57,1.93-7.02.05-2.95,1.99.29.86-.34,1.79-.27,2.59-6.22.23-12.44.13-18.93,0-.7-.01-1.22.44-1.08.96l-2.51-.58c.14-2.23-1.01-9.84,1.69-9.93,1.44-.05,1.87-1.4,1.87-2.71.72-1.1,2.09-1.5,2.77-2.94.22-.46,1.6-.25,1.75-.71l.62-1.93c.53-1.67,3.29-1.71,4.69-2.78,1.14-19.89-.17-40.22,1.05-59.95.1-1.54,4.06-.3,3.88-1.85.46-.1.34.75.77.86,2.51-.75,5.75,3.8,5.27,4.83Z"/>
                    <path class="cls-89" d="M64.61,435.93c0,1.31-.43,2.66-1.87,2.71-.11-.57-.37-1.35-.08-2.2.31-.92,1.48-.54,1.95-.5Z"/>
                    <path class="cls-164" d="M75.11,442.58c.19,2.32-9.53,2.34-10.88,1.74-.08-1.15-.92-3.21.04-3.91,1.1-.64,3.01.56,4.01-.79.3-.4-.22-.96.05-1.22.39-.38,1-.37,1.56-.56l1.73-3.72c.38-.81,1.57-1.05,1.96-1.9l1.18-2.56c1.15-2.49,9.2,1.94,9.84,2.75,1.04,1.32-.42,2.72-.86,3.78-.62,1.48-1.57,1.56-2.49,2.23-2.38,1.73-.06,1.66-6.15,4.16Z"/>
                    <path class="cls-135" d="M83.91,428.87c-.49.65-6.68-.9-5.24-2.38,1.62-.78,4.05-.43,5.71-.05-.23.97-.06,1.88-.47,2.43Z"/>
                  </g>
                  <path class="cls-73" d="M110.4,351.13c.02,1.94-.08,3.88-.54,5.75-.78.23-2.04.15-2.63,1.03-.37.55-.09,1.47-.81,1.83-.4.2-1.16.04-1.74.46l-3.4,2.45c-.15.11-6.92,3.84-9.69,3.43.28-2.29.83-4.6.52-6.89.33-.3.65.83.96.76,6.32-1.31,6.57-2.12,12.2-5.48,1.01-1.82,1.41-4.5,1.51-6.49,1.45.85,1.87,2.97,3.62,3.16Z"/>
                  <path class="cls-14" d="M106.15,347.4c.38-.06.43.45.63.57-.1,1.99-.5,4.66-1.51,6.49-5.63,3.36-5.88,4.17-12.2,5.48-.31.06-.63-1.06-.96-.76l-.07-.53c.41-.16,1.56-.21,2.03-.74,2.27-5.57,3.84-11.28,4.07-17.08.59.59,2.28.81,2.5,2.35.21,1.46,1.76.24,3.87.74,1.52.36-.21,3.77,1.63,3.49Z"/>
                  <path class="cls-107" d="M94.4,344.01c-.49,1.91-.39,4.01-1.09,6.15-.91,2.81-1.83,5.41-1.77,8.09-1.84-.56-1.92-2.84-3.39-3.87.59-2.78-1.79-7.13-.5-8.41,1.45-1.44,5.84-2.76,6.75-1.96Z"/>
                  <path class="cls-82" d="M98.14,340.81c-.23,5.8-1.8,11.51-4.07,17.08-.46.53-1.62.58-2.03.74-.28.08-.51-.08-.49-.38-.06-2.68.86-5.28,1.77-8.09.7-2.15.6-4.24,1.09-6.15.27-1.06.8-2.13.47-3.28.62-.28,1.99-1.18,2.42-.76l.84.83Z"/>
                </g>
              </g>
              <g>
                <path class="cls-105" d="M159.26,267.62c1.4,1.34,1.54,3.51,3.14,3.38.57.61.34,1.55.34,2.3l.03,30.26-.29,7.2c-1.26.29-2.48.32-3.55.3l-5.04-.12c-4.52-.11-9-.17-13.61.27-.28,1.16-.16,1.9-.26,2.71l-2.88,1.77c-.71-.5-4.53-2.14-5.2-1.78-.32-.88.01-1.92-.18-3.14l-13.86.28.07-35.82c0-3.13.79-6.32.97-9.6.11-2.05-.17-4.1.34-6.05,1.48-.17,3.05-.26,4.84.15-.26,2.21.4,4.1,2.53,4.94,1.27.5,2.54,1.71,3.65,2.16l3.6,1.48c2.93,1.2,6.48.67,9.3.12.48-.09.57-1.59,1.67-1.35,2.99.64,3.14-2.4,6.52-1.92l.15,31.28c.02,4.66.55,9.05.25,13.67l5.17.02.2-7.56-.22-30.62c-.01-2.05.33-3.87,2.33-4.31Z"/>
                <path class="cls-108" d="M158.93,311.05c-.26.92.38,1.44,1,2.34-3.05.15-5.59.84-8.14.68-2.17-.14-4.51-.8-7.03-.39-1.65.27-3.29,1.03-4.76.23.1-.81-.02-1.56.26-2.71,4.61-.44,9.1-.38,13.61-.27l5.04.12Z"/>
                <path class="cls-6" d="M131.94,313.9c.28-.15-9.12.14-7.9.44-1.88-.46-4.06-.1-5.9-.69-1.21-.39-.24-1.93-.24-2.61l13.86-.28c.19,1.21-.15,2.26.18,3.14Z"/>
                <path class="cls-138" d="M185.82,140.8c-.18.31-1.23,4.81-.49,4.71-3.64,1.1-6.39-2.29-10.78,4.8-.85,1.37-2.26,2.35-3.3,3.29-.78.05-1.45.64-2.18.92-.84-2.49,1.11-4.23,2.62-6.09s2.21-3.97,4.93-4.87c-1.79-.78-3.06-.45-4.51-.75.17-1.05.78-2.18,1.73-3.1,2.45-.18,10.55.02,11.98,1.1Z"/>
                <path class="cls-7" d="M108.58,155.46c.05.73-.2,1.66,0,2.36-1.26.3-2.59.51-4.13.67-.97,1.86-2.53,2.82-4.2,3.42-1.01.45-1.57,1.92-2.46,2.52-20.65,1.11-13.66-1.71-16.02-4.44-.59-.69-1.85-.58-2.51-.78.29-1.61,1.34-2.72,1.73-4.45l.62-2.69c.34-.04.57-.4.94-.38,1.02.06,2.67.31,3.43-.8.36-.52.04-1.9.6-2.17.39-.19,1.22-.23,1.72-.07,1.78.58,1.98-1.25,2.96-1.88,2.16-1.41,5.78-1.45,7.94-.86,2.93.8,4.47,3.1,6.27,4.94,1.4,1.43,2.98,2.55,3.11,4.61Z"/>
                <path class="cls-153" d="M78.37,205.33c2.51.34,5.02.58,7.51,1.08s5.13.53,7.53,1.33c-.59.88,2.84.19,2.43,1.84-.98.65-.98,1.18-1.46,2.51-2.12,5.91-4.21,11.57-5.31,17.5-.33.17-.81.58-1.23.48l-3.79-.93c-.15-1.39.33-2.8,1.71-3.74-.38-1.47-1.56-1.91-2.6-2.74-.39-.31.31-1.42.74-1.65,1.58-.85,1.41.92,3.08-.07.45-.27.18-1.15.4-1.61.36-.76,1.48-1.47,1.23-2.3-.2-.65-.69-2.04-1.38-2.23-.34,0-5.31-.11-3.72-2.15-2.95.14-2.36-2.99-5.87-1.77-1.62.56-.33,3.42-1.94,4.94-.82.77-1.96.27-3.18.43-1.25.14-.59.41.37.77.34.49.92.02,1.3.39.26.26.2.79.31,1.22-1.37-.16.65,3.81-1.2,3.62l-3.01-.3c-.25-.16-.58-.48-.71-.95-.09-.33-.33-.85.22-1,1.15-.32.94-3.18,2.12-5.63.53-1.11,1.57-1.8,1.33-3.3-.33-2.04,2.25-.53,1.84-5.63,1,.2,2.26-.25,3.3-.11Z"/>
                <path class="cls-27" d="M74.56,270.46c-3.42-.36-6.75.49-9.77,2.58l-7.29,5.03c-1.58,0-1-1.79-1.15-2.92,3.11-1.47,3.92-2.58,7.39-3.97,1.7-.68,3.43-.99,3.35-3.3,1.61-.64,3.08.04,4.61-.29,1.08-.24-.03-1.59-.24-2.17-.63-1.7.33-2.9,1.04-4.32,1.46-2.96,2.52-5.75,3.47-8.51.47.42,2.43-5.6,3.3-5.26,1.63,1.27,6.16-8.25,6.6-9.64-1.2-.98-2.26-1.41-3.38-1.63s-2.23-.82-3.27-1.35c-.22-.11-.45-.28-.44-.54-.22-1.1.48-1.69,1.36-2.18l1.54.38c-.06,1.96,5.28,2.79,5.7,2,.7-1.33,0-3.01.44-4.31.42.1.9-.31,1.23-.48.21.89,1.49.29,2.16.71.88,2.39-.84,4.91-1.08,7.08-.3,2.64-1.24,2.81-2.44,4.18-2.75,3.17-4.06,7.24-6.56,10.61-1.5,2.02-2.52,4.28-3.43,6.47l-2.18,5.25c-.92,2.23.03,4.65-.98,6.56Z"/>
                <path class="cls-166" d="M123.49,143.67c-1.33,1.44,3.21,1.91,3.82,1.81.09.41.61.39.87.53-.82.19.34,3.63.11,3.51,1.3.67,6.51.48,8.04.33.32,1.34,2.14,2.89,3.73,3,.97.06,1.71-.8,2.41-.27-.07.73.35,2.35-.33,2.99-1.83.73-3.87.25-5.76.27-.15-1.07.02-1.92-.25-2.64-2.75-1.1-5.82.53-8.4,0-2.64-.58-5.17-2.56-8.26-1.8-1.48.36-1.37,5.18-2.57,4.48-.52-.28-.54-1.24-1.37-.99-.34-4.23-3.26-3.97-4.27-7.55,2.09.38,1.12-3.56,2.89-4.19,2.38-.84,7.58-2.66,8.89-1.18.29.33-.33,1.25.46,1.69Z"/>
                <path class="cls-123" d="M81.61,152.06l-.62,2.69c-.4,1.73-1.44,2.84-1.73,4.45l-.71,3.89c-.47,2.58-.55,5.2-.5,7.78.06,3.3,17.57,1.53,20.45,1.62-.22-1.42-.65-2.88.64-3.37,1.18-.45,2.84.24,3.75-.89.54-.67,1.07-.64,1.74-.79.1.95-.5,1.73-1.69,1.72-.46,1.38-1.24,2.25-2.71,2.61.58,2.99-2.06,1.32-2.49,3.52-1.16.6-2.39.4-3.87.42l-21.18.39c-.63-.88-.4-1.95-.22-3.23,2.87-20.23,5.2-14,7.15-19.9.26-.79,1.49-.9,2-.9Z"/>
                <path class="cls-87" d="M63.68,230.35l-1.67,29.76-.02,1.18c0,.28.37.61.72.66-.06.34.07.86-.46.97-1.07.23-1.99-.22-2.76.02-.41-1.09-.57-2.2-.29-3.49.74-3.39-.1-6.99.34-10.63.14-1.12,1.02-5.24-.56-4.79.27-5.24.5-10.8.59-15.89.86.59,1.92.54,3.17.46.35.66.43,1.36.93,1.75Z"/>
                <path class="cls-59" d="M59.49,262.95c-.46.14-1.34.76-1.28,1.24.07.59.33,2.19,1.16,2.09,4.26-.55,8.14-.93,12.1-.85.21.58,1.33,1.93.24,2.17-1.53.34-3.01-.35-4.61.29.07,2.31-1.65,2.62-3.35,3.3-3.47,1.39-4.28,2.5-7.39,3.97-.15-1.16.08-2.35.37-3.7.55-2.59-1.64-8.59.73-9.32.22-4.99.26-10.01.78-15.05.11-1.07.71-2.15.76-3.04,1.58-.45.7,3.66.56,4.79-.44,3.64.39,7.24-.34,10.63-.28,1.29-.12,2.4.29,3.49Z"/>
                <path class="cls-119" d="M111.26,147.34c1.01,3.58,3.93,3.32,4.27,7.55-3,1.43-.89,8.63-1.66,11.96-.07,1.22-1.77,1.04-2.45.54-1.47-1.08,2.4-14.14-1.1-12.53-.66-4.46-6.55-9.8-10.43-12.68-.2-.15-.93.81-1.05.5-.44-1.17-1.14,2.07-.16-2.74,1.62.23,4.22-.74,5.63.41,1.59,1.3,5.24,6.2,6.95,6.99Z"/>
                <path class="cls-24" d="M64.2,220.01c1.41.57-.53.91.06,3.57.14.64.98.58,1.74.79,2.19.62,8.1,4.95,11.44,6.04.94.31,1.7,1.34,2.71,1.58-.88.49-1.58,1.08-1.36,2.18-4.11-.46-1.65-1.66-7.99-2.77-2.36-.41-4.73-1.75-7.13-1.06-.51-.38-.59-1.09-.93-1.75-1.25.09-2.3.14-3.17-.46-.32-1.87-.87-4.48.14-6.46.86-1.22,3.25-1.4,4.48-1.69Z"/>
                <path class="cls-121" d="M98.68,139.94c-.98,4.8-.28,1.56.16,2.74.11.31.85-.65,1.05-.5,3.88,2.89,9.77,8.23,10.43,12.68-.6.16-1.19.28-1.73.6-.13-2.06-1.71-3.18-3.11-4.61-1.8-1.84-3.34-4.14-6.27-4.94-2.16-.59-5.78-.55-7.94.86-.97.63-1.17,2.46-2.96,1.88-.5-.16-1.33-.12-1.72.07-.56.27-.24,1.65-.6,2.17-.77,1.12-2.42.87-3.43.8.41-1.16,1-2.28.82-3.93,3.26-1.58,6.54-2.48,10.09-3.53l.65-4.11c1.62-.17,3.17-.39,4.57-.18Z"/>
                <path class="cls-34" d="M69.79,220c-.55.15-.31.68-.22,1,.13.46.46.79.71.95.04.91,1.69.78,2.17,1.25.7.7,1.24,1.67,2.45,1.84,3.1.45,6.39,3.8,8.53,4.08-.31.57-1.15,4.1-1.74,3.24l-1.54-.38c-1.01-.25-1.78-1.28-2.71-1.58-3.34-1.09-9.25-5.42-11.44-6.04-.77-.22-1.6-.15-1.74-.79-.59-2.66,1.35-3.01-.06-3.57-.24-.72.1-2.27.68-2.98,1.92-2.35,3.12,2.12,4.91,2.97Z"/>
                <path class="cls-79" d="M77.84,181.12c-1.04-.02-1.87.07-2.84-.1-1.21-.21-2.55.48-3.77-.07.53-1.62.14-3.6,1.45-4.85l21.18-.39c1.48-.03,2.71.17,3.87-.42.5-.26,1.08.46,1.48.6.48.16.13,2.11-.33,2.41-1.94.53-4.71.67-6.91.37-2.58-.35-12.77-.5-13.68.47-.45.48-.4,1.26-.44,1.99Z"/>
                <path class="cls-114" d="M75,181.01c.52.83.68,1.74.67,3.08,5.45.62,10.95-.81,15.3.61l-.3,1.86c-.09.25-.18.78-.63.77l-11.5-.26c-2.43-1.84-5.8-.88-8,.64l-.1,1.22c-1.31-.43-1.66-9.11.79-8,1.22.55,2.56-.14,3.77.07Z"/>
                <path class="cls-66" d="M90.66,186.57c.65.16.42.83.31,1.85.69.16,1.31.02.75.58-.58.21-1.26.4-1.17.86-2.16-1.43-7.33.46-10.97,0-.91,1.26-2.3,1.9-3.68,1.84-.01-.67.13-1.39-.05-2.21-1.91-.39-3.72,0-5.42-.56l.1-1.22c2.2-1.52,5.56-2.48,8-.64l11.5.26c.45.01.53-.52.63-.77Z"/>
                <path class="cls-144" d="M79.15,198.86c.71,1.1-.54,1.93-.71,2.9-.21,1.2.89,2.51-.07,3.57-1.04-.14-2.29.31-3.3.11s-2.01-.68-3.17-.66c-1.01-1.82.07-3.09.94-4.42,2.26.86.85-.94,6.31-1.5Z"/>
                <path class="cls-35" d="M90.54,189.86c.12.65.44,1.28.23,1.71-.45.95-1.4.23-2.07.29-2.15.2-4,.46-6.16.49-1.8.02-6.32,1.49-6.63-.13-.08-.15-.01-.34-.02-.51,1.39.06,2.77-.58,3.68-1.84,3.64.46,8.81-1.43,10.97,0Z"/>
                <path class="cls-158" d="M204.24,163.02c-2.26-.32-5.53,1.36-7.99.14-1.87-.93.39-3.86,1.96-4.23,1.1-.26,1.62-1.27,1.31-2.12-.23-.65-1.09-.27-1.93-.57-.94-.34-.87-1.99-1.3-2.75-.69-1.2-2.52-1.52-2.91-2.6.56-5.23-4.43-1.35-4.77-4.87-.76-.24,6.1,2.23,5.95,2.12.8.57.58,1.9.96,2.82,2.43.48,3.19,2.51,4.46,3.89,3.54,3.87,2.63,2.87,4.26,8.18Z"/>
                <path class="cls-43" d="M173.95,164.22c-.77-.44-1.97-.99-2.49-1.91-.66-1.15-.18-2.83-.19-4.04h4.62c1.05,0,1.12,1.26,1.65,1.49,1.23.52,1.43,1.16,1.46,2.08.08,2.34-4.62.36-5.05,2.37Z"/>
                <path class="cls-94" d="M128.85,254.84c.01.24.27.4.41.51.14,1.22,1.93,1.6,2.56,2.61.58.94.69,1.72,2.16,1.69,3.65-.07,7.17.11,10.91-.37.63-.08.91-.57,1.28-.52,1.31.17,2.78-.38,4.35-.03,1.02.22,8.07,1.21,8.46.57.14-.04.32.23.4.35-.55,2.53-.59,5.42-.12,7.98-2,.44-2.35,2.26-2.33,4.31l.22,30.62-.2,7.56-5.17-.02c.3-4.62-.22-9-.25-13.67l-.15-31.28c-3.38-.48-3.53,2.56-6.52,1.92-1.1-.24-1.19,1.26-1.67,1.35-2.82.55-6.37,1.09-9.3-.12l-3.6-1.48c-1.11-.45-2.38-1.66-3.65-2.16-2.12-.84-2.79-2.73-2.53-4.94-1.79-.41-3.35-.32-4.84-.15-.84-2.54,0-2.21-.35-4.83l9.93.08Z"/>
                <path class="cls-101" d="M164.48,260.12c-1.15,3.06,1.78,3.27,1.13,6.1-.4,1.71,1.06,2.57,1.45,3.5.8,1.88,1.44,2.91,2.83,4.06,1.28,1.06.74,3.75.82,5.19-1.02-.18-2.64.33-3.43-.58-1.34-1.76-2.28-5.81-4.54-5.08,0-.74.23-1.69-.34-2.3.47-3.7.28-7.5.32-11.25.63.02,1.24-.2,1.76.37Z"/>
                <path class="cls-1" d="M118.93,254.75c.34,2.62-.49,2.29.35,4.83-.51,1.95-.23,4-.34,6.05-.18,3.28-.96,6.46-.97,9.6-.53.11-1.06,0-1.15-.59l.23-18.76c0-.48.69-.79.43-1.16.48.03.97.03,1.45.04Z"/>
                <path class="cls-99" d="M162.73,259.75c-.05,3.75.15,7.54-.32,11.25-1.6.13-1.75-2.03-3.14-3.38-.47-2.57-.43-5.46.12-7.98,1.11-.26,2.24.07,3.35.11Z"/>
                <path class="cls-83" d="M160.9,167.09c.42-.06,1.59-.25,1.77.55.35,1.61-.17,2.99.27,4.53,1.12.25,2.33-.23,3.1.54-.66,9.84,3.6,4.29,3.13,9.07l-.53,5.41-5.28,1.3c-.34.56.03,2.25-1.12,2.24-1.09,0-2.49.47-3.3.13-1.21-.51-13.27-.18-15.69-.2l-26.12-.24c-.28,0-.37.43-.62.36-1.04-.3-2.4.08-3.39-.69l-3.55-2.79c-1.58-1.24-.37-4.36-.38-6.36,0-1.15.95-2.49,1.38-3.63.17-.46,1.6-.39,1.72-.9.89-3.52-.68-1.99,1.2-4.6,1.03-1.42.43-3.24,1.49-4.23.56.22,1.03-.31,1.56-.29,2.65.08,4.91,1.66,7.49,2.63l16.02,6.03,12.83-5.63c2.73-1.2,5.27-2.51,8.01-3.21Z"/>
                <path class="cls-46" d="M166.08,206.92c1.61.28,3.09-.13,4.67-.6.13,3.49-.08,6.93.01,10.39-1.74-.14-3.12,14.41-.37,13.16.6,2.07.93,4.82-.12,6.74l-11.29.92c.16-.28-.24-.4-.57-.67l.14-16.82c.02-2.09.72-4,.36-6.13-.98-.42-1.97-.74-2.88-.97-.46-1.76-3.2-1.24-4.1-2.73-.51-1.31-7.21-4.19-8.74-5s-2.09-1.44-3.52-1.26c-2.05.27-4.16.98-6.24,2.03l-5.76,2.92c-.67.34-7.65,4.09-6.97,3.86l-4.55,1.56c1.34,8.03,3.3,15,2.32,23.26l-13.29-.55c-.51-3.21,3.17-8.26,3.01-7.78,1.03-3.14.91-7.69-.15-10.99l-3.38-10.47c-.44-1.38-2.33-2.41-2.73-4.31-.33-1.56-.85-3.06-1.4-4.24.75-1.48.83-4.74.88-6.52,1.91-.76,1.01,4.54,2.23,6.2,3.28,4.45-.73,2.74,4,6.48.88.7.92,1.25,2.32,1.52,4.67.9,8.98.02,13.16-2.08,2.13-1.07,4.23-1.94,6.2-3.13,3.88-2.34,9.04-3.15,10.57-6.07l5.32,2.85c3.39,1.82,6.7,3.4,9.98,5.68-1.7-1.19,5.8,2.52,4.65,2.1,2.19.79,4.31.31,6.24.64Z"/>
                <path class="cls-10" d="M170.67,253.68l-11.6,1.18c-2.65.27-5.84-.75-8.62-.37.19-2.33.1-4.68.04-7.02s.2-4.86-.44-7.16c2.34-.04,5.12-1.03,7.47-.45,3.41.85,7.01.38,10.88.01,1.11-.1,1.67-.15,2.36-.97l-.09,14.77Z"/>
                <path class="cls-157" d="M158.93,190.86c-.18,1.02.07,2.04-.47,3.35l-24.04.2c-3.48.03-6.73-.15-10.05-.06l-7.04.19-.83-3.78c.25.07.34-.36.62-.36l26.12.24c2.42.02,14.48-.31,15.69.2Z"/>
                <path class="cls-21" d="M163.59,153.6c-.44,1.03,1.3,1.46,1.83,2.05l.34,12.25c4.05.22,1.35,3.02,4.04,4.49.2.11.9.09.91.52l.18,7.09c.02.61.05,1.61-.5,1.67l-1.22.13c.47-4.78-3.8.77-3.13-9.07-.77-.76-1.98-.28-3.1-.54-.44-1.54.08-2.92-.27-4.53-.17-.79-1.35-.6-1.77-.55-.47-.56-1.32-.79-1.95-1.22-.04-.62-.03-1.51.83-1.82,4.49-1.59,1.52-6.46,3.09-8.62.16-.22-.22-1.23,0-1.45.18-.18.41-.15.72-.39Z"/>
                <path class="cls-22" d="M169.07,154.51c.17.51-.55.57-.57,1.02-.19,3.89-.29,7.74.13,11.58l1.93,2.57c.74.98-.09,1.96-.77,2.7-2.69-1.46.02-4.26-4.04-4.49l-.34-12.25c-.52-.59-2.27-1.01-1.83-2.05.11-.54,1.11-.79.68-1.51,2.65-1.59,4.81-6.78,7.84-9.28,1.45.29,2.72-.03,4.51.75-2.72.91-3.45,3.05-4.93,4.87s-3.46,3.6-2.62,6.09Z"/>
                <path class="cls-150" d="M109.2,180.92c0,2-1.2,5.12.38,6.36l3.55,2.79c.98.77,2.35.4,3.39.69l.83,3.78c-.17,0-.29.45-.6.46-3.32.13-7.4.17-10.25-1.68-1.48-3.16-.13-7.45-.43-10.98,1.05-.5,1.91-1.3,3.14-1.43Z"/>
                <path class="cls-147" d="M170.74,258.8l.37,11.71c.04,1.3-.22,2.67-1.21,3.26-1.39-1.15-2.04-2.17-2.83-4.06-.39-.93-1.85-1.78-1.45-3.5.65-2.82-2.28-3.03-1.13-6.1,1.3-2.21,4.05-1.36,6.26-1.32Z"/>
                <path class="cls-152" d="M170.74,258.8c-2.2-.03-4.95-.89-6.26,1.32-.51-.57-1.12-.34-1.76-.37-1.11-.04-2.24-.37-3.35-.11-.09-.12-.27-.4-.4-.35l.1-4.42,11.6-1.18.07,5.11Z"/>
                <path class="cls-133" d="M170.27,236.62c.48.74.49,1.46.49,2.29-.69.81-1.25.86-2.36.97-3.87.37-7.47.84-10.88-.01.41-.44,1.44-.22,1.76-1.04.1-.35-.51-.92-.3-1.29l11.29-.92Z"/>
                <path class="cls-57" d="M170.76,206.32c-1.58.47-3.06.88-4.67.6,1.02-.91-.89-4.43.36-5.72,1.05-1.09,2.82-1.71,4.2-2.02.57,2.63.03,4.91.12,7.14Z"/>
                <path class="cls-95" d="M170.4,229.88c-2.74,1.24-1.36-13.3.37-13.16l.27,9.94c.03,1.19.11,2.49-.64,3.22Z"/>
                <path class="cls-8" d="M121.73,239.97c2.37.28,4.94-.1,7.16.72.01,2.04.22,4.14.04,6.17-.24,2.65-.24,5.31-.08,7.97l-9.93-.08c-.48,0-.97,0-1.45-.04l-12.32-.82c-1.82-.12-3.91-1.22-5.6-.83-.35-.1-.9,0-.94-.27-.25-2.06-.1-9.59.15-12.36l3.61-.62,16.03.83c1.2.06,2.39-.79,3.32-.68Z"/>
                <path class="cls-62" d="M116.4,274.73c2.45,10.54-2.13,1.86-2.17,12.4-1.88-.03-3.75-.39-5.65-.09-.82,3.23-.27-1.26-4.11,5.02-.69,1.13-2.08.98-3.05,1.16-.03-.85-.42-2.7.41-3.29,1.13-.8,2.56-.06,3.71-.58.08-2.34.56-4.72,2.08-6.55l4.66-.52.45-6.99c1.35-.56,2.51-.36,3.66-.55Z"/>
                <g>
                  <path class="cls-9" d="M117.48,254.72c.26.37-.42.68-.43,1.16l-.23,18.76c-.19-.19-.32-.14-.42.09-1.14.19-2.31,0-3.66.55l-.45,6.99-4.66.52c-1.52,1.83-2,4.21-2.08,6.55-1.15.53-2.58-.22-3.71.58-.84.6-.44,2.45-.41,3.29-.19.04-.46.2-.43.43-1.11-.25-2.22.19-3.35,0-.51-.8-2.92-.98-3.18.09.55.33-.25,1.05-.01,1.29-.31-.15-.63.11-.6.26l.28,1.22c.18.76-6.15.4-5.83,1.12,1.65.37.82,1.06.8,1.47-.03.85-.78,1.11-1.51,1.17-1.11-.17-2.62-.44-3.83.34-.46.3-.14,1.2-.69,1.41.17-.06-7.88.34-8.83.05-.73-3.23.37-5.78.96-9.02.37-2.02.95-5.74,1.76-7.42.1-.21.67-.1.41-.74-.06-.15-.18-.34-.46-.23.02-.14-.02-.28.04-.41,1.78-2.11,2.82-4.61,3.7-7.2-.18-1.07,1.19-1.21,1.82-1.91.89-.98.1-3.17,1.12-4.12,1.14-1.05,2.42-1.44,2.61-3.44.22-2.26,1.82-3.78,4.04-3.97l.82-4.61c.93-.34,1.89-.31,2.74-.85l.53-4.6c1.93.03,3.64-.12,5.21-.48,1.69-.39,3.78.71,5.6.83l12.32.82Z"/>
                  <path class="cls-12" d="M89.95,299.71c-.14.52-.25.96-.63,1.02-.52.07-1.37.15-1.72.05-.29-.15-.21-.32,0-.5.72-.06,1.47-.32,1.51-1.17.01-.4.84-1.09-.8-1.47-.32-.72,6.01-.37,5.83-1.12l-.28-1.22c-.04-.15.29-.42.6-.26.5.51.21,1.71-.07,2.34-.5,1.13-3.03.01-4.08.91-.46.4-.21.93-.36,1.43Z"/>
                  <path class="cls-12" d="M76.96,285.64c-.12-.31-.08-.65-.04-.97.27-.1.4.08.46.23.26.64-.31.52-.41.74Z"/>
                  <path class="cls-12" d="M74.16,284.66c-.13-.38.03-.58.37-.48.07.26-.05.54-.37.48Z"/>
                  <path class="cls-12" d="M97.65,293.65c-1.07-.18-2.13.05-3.18.09.26-1.07,2.67-.89,3.18-.09Z"/>
                  <path class="cls-12" d="M98.4,292.73c-.33-.85-.89-2.34.43-3.11l-.43,3.11Z"/>
                </g>
                <path class="cls-149" d="M162.7,150.81c-.81.71-1.92.21-3.07.58-.48,1.51.13,2.96-.4,4.36-.14.36-1.12.1-1.2.56-.08.42.06.94-.12,1.64-.27,1.02-2.25,1.78-3.24,1.81-1.24-.53-1.95-.3-3.2.38-.07-3.8-.95-3.78-2.36-7.58.44-1.52,3.84-.91,3.26-3.39-.07-.31-.41-.47-.92-.47-.29,0-.51.71-.95.79-2.53.42-5,.54-7.29.33.08-.69-.11-2.33.56-2.75,2.39-.09,4.74.07,5.75-1.93-.11-1.07.54-1.38.55.09,1.36.19,3.03-.1,4.37-.78.59-.47.28-1.75.35-2.35.82-1.16,1.98-.72,3.33.01,1.16.63,3.85-.16,4.43,1.23.85,2.47-.06,5.14.18,7.49Z"/>
                <path class="cls-25" d="M164.27,152.09c.43.72-.57.97-.68,1.51-.31.24-.54.21-.72.39-.21.22.17,1.23,0,1.45-1.57,2.16,1.4,7.03-3.09,8.62-.86.31-.88,1.2-.83,1.82-.31-.21-.63-.46-.99-.61l.64-2.39c-2.25-1.22-3.52-.36-4.03-1.83-.14-.39-.22-.74.08-1.29.99-.03,2.97-.79,3.24-1.81.18-.69.05-1.22.12-1.64.09-.46,1.07-.2,1.2-.56.54-1.4-.08-2.86.4-4.36,1.15-.37,2.26.13,3.07-.58,0,.82.78,1.34,1.57,1.28Z"/>
                <path class="cls-92" d="M108.57,157.82c1.71,6.27-1.79,6.93-1.82,7.05-.12.39-.09.79-.18,1.47-.13.91-1.31.96-1.95,1.1s-1.19.12-1.74.79c-.91,1.13-2.57.44-3.75.89-1.29.49-.85,1.95-.64,3.37-2.89-.09-20.39,1.68-20.45-1.62-.05-2.57.03-5.2.5-7.78l.71-3.89c.66.21,1.91.09,2.51.78,2.35,2.73-4.63,5.55,16.02,4.44.9-.59,1.45-2.07,2.46-2.52,1.68-.59,3.23-1.56,4.2-3.42,1.54-.17,2.87-.37,4.13-.67Z"/>
                <path class="cls-3" d="M85.88,206.41c-2.48-.49-5-.74-7.51-1.08.96-1.06-.14-2.37.07-3.57.17-.97,1.42-1.8.71-2.9.96-.1,1.3-1.4,2.1-1.74,4.36-1.87,3.9-2.92,9.69-2.41.57,3.54-.26,6.8-1.19,10.15-1.05-.34-2.48-.73-2.76.09-.31.91-.99.88-1.12,1.46Z"/>
                <path class="cls-76" d="M90.96,184.71c-4.35-1.42-9.85,0-15.3-.61.01-1.34-.15-2.25-.67-3.08.97.17,1.8.08,2.84.1,4.37.1,8.86.53,13.48-.38,1.31-.26,2.4-1.87,3.59-.32-1.25.81-.79,2.04-.55,3.29-1.3.38-2.57.35-3.4,1Z"/>
                <path class="cls-39" d="M116.9,155.88c-.77,2.13-.28,5.11.23,7.44.12.57,1.01.67.9,1.32-.07.45-.63.65-.61,1.2-.59-.09-.73,1.05-.87,1.44-.53-.02-1.01.51-1.56.29-.06-.54-.68-.55-1.12-.72.77-3.32-1.35-10.53,1.66-11.96.82-.24.85.71,1.37.99Z"/>
                <path class="cls-140" d="M99.88,201.33c.05.81-.92,1.86-1.06,2.65-.43,2.33-1.12,4.36-2.99,5.59.41-1.65-3.02-.96-2.43-1.84.23-.24,1.14.14,1.37-.38l.45-4.44c1.33-.04,2.68.31,3.75-.3.13-.27.02-1.2.3-1.39.15-.1.38.44.62.12Z"/>
                <g>
                  <path class="cls-32" d="M110.31,154.85c3.5-1.61-.37,11.44,1.1,12.53.69.51,2.38.68,2.45-.54.44.17,1.06.18,1.12.72-1.06.99-.47,2.81-1.49,4.23-1.88,2.6-.31,1.08-1.2,4.6-.13.51-1.55.43-1.72.9-.42,1.14-1.38,2.48-1.38,3.63-1.23.13-2.09.93-3.14,1.43-1.3.62-2.24,1.61-4.07,2.14.09,2.87-.49,5.52-.56,8.24-.05,1.78-.13,5.05-.88,6.52-.25.49-.69,1.54-.66,2.09-.24.32-.47-.22-.62-.12-.27.19-.17,1.12-.3,1.39-1.07.61-2.42.26-3.75.3l-.45,4.44c-.23.52-1.14.14-1.37.38-2.39-.8-5.03-.83-7.53-1.33.12-.58.8-.54,1.12-1.46.28-.82,1.72-.43,2.76-.09.92-3.35,1.75-6.61,1.19-10.15-5.79-.5-5.33.54-9.69,2.41-.8.34-1.14,1.64-2.1,1.74-5.46.56-4.05,2.36-6.31,1.5.18-.9.83-1.53,1.18-2.55l1.89-5.59c.31,1.62,4.83.15,6.63.13,2.16-.03,4.01-.29,6.16-.49.67-.06,1.62.66,2.07-.29.21-.44-.11-1.07-.23-1.71-.09-.46.59-.65,1.17-.86.56-.55-.06-.42-.75-.58.11-1.02.34-1.69-.31-1.85l.3-1.86c.83-.65,2.1-.62,3.4-1-.24-1.25-.7-2.48.55-3.29-1.19-1.55-2.29.07-3.59.32-4.62.91-9.11.48-13.48.38.04-.73-.01-1.51.44-1.99.91-.96,11.1-.82,13.68-.47,2.2.3,4.97.16,6.91-.37.45-.3.81-2.24.33-2.41-.4-.14-.98-.86-1.48-.6.43-2.2,3.07-.53,2.49-3.52,1.46-.35,2.25-1.22,2.71-2.61,1.2,0,1.79-.78,1.69-1.72.64-.14,1.82-.19,1.95-1.1.09-.68.06-1.08.18-1.47.03-.11,3.53-.77,1.82-7.05-.19-.7.06-1.63,0-2.36.54-.33,1.13-.45,1.73-.6Z"/>
                  <path class="cls-76" d="M100.48,179.97c.03.79-.02,1.57-.7,1.85-.41.16-1.19-.37-1.72-.84,1.44.13,1.78-.19,2.42-1.01Z"/>
                  <path class="cls-76" d="M100.48,179.97c-.01-.57.81-1.07,1.56-1.57.46.44-.1,1.01-.21,1.33-.19.53-1.01.13-1.34.23Z"/>
                </g>
                <path class="cls-145" d="M84.04,229.13c-.17-.04-.42.03-.61,0-2.15-.28-5.43-3.63-8.53-4.08-1.21-.17-1.75-1.15-2.45-1.84-.48-.48-2.14-.34-2.17-1.25l3.01.3c1.85.19-.17-3.78,1.2-3.62.18.71-.02,1.39.17,2.38,5.14,2.13,4.31-.09,6.51.35.95.19,1.72-.18,2.15-.93,1.15-2.01-3.89-2.38-3.7-3.5,2.28-.54,4.41.25,6.77-.15.95-.16.86-1.41.85-1.97.7.19,1.19,1.58,1.38,2.23.25.83-.87,1.53-1.23,2.3-.22.46.05,1.34-.4,1.61-1.67.99-1.51-.78-3.08.07-.42.23-1.13,1.33-.74,1.65,1.04.83,2.22,1.27,2.6,2.74-1.38.94-1.86,2.35-1.71,3.74Z"/>
                <path class="cls-88" d="M87.22,214.81c0,.56.1,1.81-.85,1.97-2.36.4-4.5-.39-6.77.15-.18,1.12,4.85,1.49,3.7,3.5-.43.75-1.2,1.12-2.15.93-2.19-.44-1.37,1.79-6.51-.35-.19-.98.01-1.67-.17-2.38-.11-.43-.05-.96-.31-1.22-.37-.37-.95.1-1.3-.39-.95-.36-1.62-.63-.37-.77,1.22-.17,2.36.33,3.18-.43,1.62-1.52.33-4.38,1.94-4.94,3.52-1.22,2.93,1.92,5.87,1.77-1.59,2.04,3.38,2.16,3.72,2.15Z"/>
                <path class="cls-143" d="M87.83,230.06c-.45,1.3.26,2.99-.44,4.31-.42.8-5.76-.03-5.7-2,.58.86,1.43-2.67,1.74-3.24.19.02.44-.05.61,0l3.79.93Z"/>
                <path class="cls-41" d="M78.8,234.18c-.02.26.22.43.44.54,1.17,5.17-5.33,13.47-3.26,17.87-.95,2.76-2.01,5.55-3.47,8.51-.7,1.42-1.66,2.63-1.04,4.32-3.96-.08-7.84.3-12.1.85-.83.11-1.09-1.5-1.16-2.09-.06-.48.82-1.09,1.28-1.24.77-.24,1.68.22,2.76-.02.53-.12.41-.64.46-.97.54.07,1.42.12,1.88-.14.42-.23.99-.9,1.16-1.59l2.69-10.85c.87-3.51,1.97-7,2.4-10.68-.21,1.78.04-7.76-.04-7.28,6.34,1.11,3.88,2.3,7.99,2.77Z"/>
                <path class="cls-126" d="M82.5,236.07c1.72,2.49-3.24,7.97-3.22,11.27-.87-.34-2.83,5.67-3.3,5.26-2.08-4.4,4.43-12.7,3.26-17.87,1.04.52,2.12,1.11,3.27,1.35Z"/>
                <path class="cls-156" d="M79.28,247.34c-.01-3.3,4.94-8.78,3.22-11.27,1.11.23,2.17.66,3.38,1.63-.45,1.38-4.98,10.9-6.6,9.64Z"/>
                <path class="cls-74" d="M149.08,152.55c1.41,3.8,2.29,3.79,2.36,7.58.05.44.03,1.29-.19,1.77-1.01.05-1.32,1.28-2.04,1.67-3.13,1.68-6.34,2.73-9.53,3.6.22-.32-.03-1.07-.49-1.07-.37,0-1.05-.55-1.49-.65.62-.24.56-.7.22-1.04-.32-.32-1.26-.23-1.48-.64-.44-.82.13-3.09-.88-3.74-3.98-.8-7.94-.37-11.91-.24-.69-.52-1.29-.9-1.87-1.06,2.77-1.71,4.13-3.36,5.94-5.54,2.58.53,5.65-1.1,8.4,0,.26.72.1,1.57.25,2.64,1.89-.02,3.93.47,5.76-.27.68-.64.26-2.26.33-2.99l.03-.36c.43.93,5.45.04,6.58.32Z"/>
                <path class="cls-110" d="M127.73,153.2c-1.81,2.17-3.17,3.83-5.94,5.54.58.16,1.18.54,1.87,1.06,3.98-.13,7.94-.56,11.91.24,1.01.65.44,2.91.88,3.74.22.41,1.16.32,1.48.64.34.34.4.8-.22,1.04l-17-3.69s-2.71,2.55-1.35,2.65c-.09.92-1.03,1.56-1.94,1.42-.03-.55.53-.75.61-1.2.11-.65-.78-.75-.9-1.32-.51-2.32-1-5.31-.23-7.44,1.2.69,1.09-4.12,2.57-4.48,3.1-.76,5.62,1.22,8.26,1.8Z"/>
                <path class="cls-115" d="M136.33,149.86c-1.52.15-6.73.34-8.04-.33.23.12-.92-3.32-.11-3.51,2.14,1.19,4.61.79,7.27.99,1.23.09.69,2.1.87,2.85Z"/>
                <path class="cls-127" d="M70.81,231.42c.08-.47-.17,9.06.04,7.28-.44,3.69-1.53,7.17-2.4,10.68l-2.69,10.85c-.17.69-.74,1.36-1.16,1.59-.47.26-1.35.21-1.88.14-.35-.05-.72-.38-.72-.66l.02-1.18,1.67-29.76c2.39-.69,4.76.65,7.13,1.06Z"/>
                <path class="cls-139" d="M150.49,247.47c.06,2.34.15,4.69-.04,7.02-1.23.28-2.93.88-4.06,1.66-.74.51-.25,2.01-.23,2.6-.37-.05-.65.44-1.28.52-3.74.47-7.26.3-10.91.37-1.47.03-1.57-.75-2.16-1.69-.63-1.01-2.42-1.38-2.56-2.61.59-1.03,1.73.13,3-.18-.03.49.16,1.15.58,1.26.68.17,1.25-.03,1.67-.04,2.8-.04,5.61.09,8.57-.22l-.65-1.67c.36,0,.76-.37,1.09-.51,1.82,1.53,1.05-.71,3.32-1.07.24-.04.25-.56.19-.93-.04-.25-.39-.38-.73-.33.39-.91-.87-2.2.06-2.82.67-.16,1.94.43,2.45-.16.56-.74.8-1.35,1.69-1.2Z"/>
                <path class="cls-155" d="M146.16,246.52c-.04.16.08.3.07.44-.82.94-1.58,1.01-2.9,1.07-3.18.13-6.07,1.07-9.48.02-1.42,6.81.91,2.87.97,6.13.13.29.85.16,1.06.36-.18.72-1.03.2-1.2.46-.27.39-.21,1.08-.16,1.4-.42,0-.99.21-1.67.04-.43-.11-.62-.77-.58-1.26-1.27.3-2.41-.85-3,.18-.14-.11-.39-.27-.41-.51-.16-2.66-.16-5.33.08-7.97.96-.01,1.85.29,2.84.85.68.38,1.49-.34,1.7-.9l1.74-.48c.6-1.36,1.46-2.32,1.84-3.64-.1,3.22,4.41-.61,4.79,3.57,1.39.52,2.99.35,4.33.26Z"/>
                <path class="cls-131" d="M159.07,254.86l-.1,4.42c-.39.64-7.44-.34-8.46-.57-1.57-.34-3.04.21-4.35.03-.02-.59-.51-2.09.23-2.6,1.12-.78,2.83-1.37,4.06-1.66,2.78-.38,5.97.64,8.62.37Z"/>
                <path class="cls-122" d="M144.23,171.01c6.23-1.89,7.63-4.1,13.73-5.75.36.15.68.39.99.61.63.43,1.48.66,1.95,1.22-2.74.7-5.28,2.01-8.01,3.21l-12.83,5.63-16.02-6.03c-2.58-.97-4.84-2.56-7.49-2.63.14-.39.27-1.53.87-1.44.91.14,1.85-.5,1.94-1.42l9.44,3.94c1.71.71,8.78,4.32,10.78,4.55s3.18-1.45,4.65-1.89Z"/>
                <path class="cls-104" d="M139.68,203.95l-.16,31.18c0,.81.28,1.42-.31,1.83-2.38-.22-4.8.29-7.07.5-3.92.35-7.93-.46-11.83.18-.63.1-1.2-.04-1.83-.06.98-8.26-.98-15.23-2.32-23.26l4.55-1.56c-.68.23,6.3-3.52,6.97-3.86l5.76-2.92c2.08-1.05,4.18-1.76,6.24-2.03Z"/>
                <path class="cls-165" d="M156.05,212.93c-.41-.15-.41.09-.54.24-.22.24.2.97.13,1.17-.84,2.3-.12,4.38-.1,6.64l.09,14.14c0,.95-.14,1.73-.37,2.4-3.35-.12-6.7.05-9.99-.44-1.97-.3-4.05.05-6.05-.13.58-.41.3-1.02.31-1.83l.16-31.18c1.43-.19,2.05.47,3.52,1.26s8.23,3.69,8.74,5c.9,1.48,3.64.97,4.1,2.73Z"/>
                <path class="cls-160" d="M158.99,237.54c-1.23.1-2.52.04-3.74,0,.24-.67.38-1.45.37-2.4l-.09-14.14c-.01-2.26-.74-4.34.1-6.64.07-.2-.36-.93-.13-1.17.14-.15.14-.4.54-.24.91.24,1.9.55,2.88.97.36,2.13-.34,4.04-.36,6.13l-.14,16.82c.33.27.72.39.57.67Z"/>
                <path class="cls-169" d="M105.2,237.03l13.29.55c.63.03,1.2.17,1.83.06.11.46.05.93.13,1.49.08.62.64.7,1.29.84-.94-.11-2.13.74-3.32.68l-16.03-.83c0-.68-.54-1.97.35-2.48.63-.36,1.85-.33,2.48-.31Z"/>
                <path class="cls-117" d="M139.21,236.96c1.99.18,4.07-.17,6.05.13.82.5.13,1.96.73,2.55,1.02,1.01,2.88.69,4.06.67.63,2.3.38,4.77.44,7.16-.89-.15-1.13.46-1.69,1.2-.51.59-1.78,0-2.45.16.14-.62-.19-1.24-.13-1.88.01-.14-.1-.27-.07-.44.32-1.46.22-3.01-.19-4.52-4.02-1.4-8.22-1.49-12.48-.66l-.03,5.47c-.2.56-1.02,1.29-1.7.9-.99-.56-1.87-.86-2.84-.85.18-2.03-.02-4.13-.04-6.17.76-.57,2.17.21,2.96-.58.65-.65.15-1.99.29-2.65,2.27-.2,4.69-.71,7.07-.5Z"/>
                <path class="cls-47" d="M155.25,237.53c1.22.04,2.51.11,3.74,0-.21.37.4.93.3,1.29-.32.82-1.35.6-1.76,1.04-2.35-.59-5.13.41-7.47.45-1.18.02-3.04.34-4.06-.67-.6-.59.08-2.06-.73-2.55,3.28.49,6.64.33,9.99.44Z"/>
                <path class="cls-42" d="M132.15,237.46c-.14.66.35,2-.29,2.65-.79.79-2.2.01-2.96.58-2.22-.82-4.79-.45-7.16-.72-.65-.14-1.2-.22-1.29-.84-.08-.56-.02-1.03-.13-1.49,3.9-.65,7.91.17,11.83-.18Z"/>
                <path class="cls-161" d="M154.65,159.75c-.3.55-.22.9-.08,1.29.51,1.47,1.78.62,4.03,1.83l-.64,2.39c-6.1,1.65-7.51,3.86-13.73,5.75.11-.1-.21-.37.01-.4.63-.07.93-.78.2-1.14-3.44-1.69-3.15.73-4.54-.85-.39-.44-.57-.94-.21-1.46,3.19-.86,6.4-1.92,9.53-3.6.72-.39,1.03-1.61,2.04-1.67.22-.48.24-1.33.19-1.77,1.26-.68,1.97-.91,3.2-.38Z"/>
                <path class="cls-54" d="M149.08,152.55c-1.13-.28-6.15.61-6.58-.32.08-.83.58-1.57.67-2.42,2.29.21,4.76.09,7.29-.33.45-.07.67-.78.95-.79.51,0,.85.15.92.47.57,2.48-2.82,1.87-3.26,3.39Z"/>
                <path class="cls-26" d="M137.71,165.45c.44.1,1.12.65,1.49.65.45,0,.71.75.49,1.07-.36.51-.18,1.01.21,1.46,1.4,1.58,1.11-.84,4.54.85.73.36.44,1.07-.2,1.14-.22.03.1.3-.01.4-1.47.45-2.58,2.13-4.65,1.89s-9.06-3.84-10.78-4.55l-9.44-3.94c-1.35-.1,1.36-2.65,1.35-2.65l17,3.69Z"/>
                <path class="cls-19" d="M146.35,248.83c-.93.63.33,1.91-.06,2.82-.65.4-1.41.46-2.36.46l-.43,1.87c-.33.14-.73.51-1.09.51l-6.56.04c-.21-.2-.93-.07-1.06-.36-.06-3.26-2.39.68-.97-6.13,3.41,1.06,6.3.11,9.48-.02,1.32-.06,2.08-.12,2.9-1.07-.06.63.27,1.26.13,1.88Z"/>
                <path class="cls-77" d="M142.43,254.5l.65,1.67c-2.96.32-5.77.18-8.57.22-.05-.32-.1-1.01.16-1.4.17-.26,1.02.26,1.2-.46l6.56-.04Z"/>
                <path class="cls-148" d="M143.51,253.99l.43-1.87c.94,0,1.7-.06,2.36-.46.34-.05.69.08.73.33.06.37.05.89-.19.93-2.26.36-1.5,2.6-3.32,1.07Z"/>
                <path class="cls-70" d="M146.16,246.52c-1.34.1-2.94.26-4.33-.26-.38-4.18-4.89-.35-4.79-3.57-.38,1.31-1.24,2.27-1.84,3.64l-1.74.48.03-5.47c4.26-.83,8.46-.74,12.48.66.41,1.51.51,3.06.19,4.52Z"/>
              </g>
            </g>
          </g>
        </g>
      </g>
    </g>
  </g>
</svg>